<svg version="1.1" id="Layer_1" xmlns="http://www.w3.org/2000/svg" xmlns:xlink="http://www.w3.org/1999/xlink" x="0px" y="0px" viewBox="0 0 512 512" enable-background="new 0 0 512 512" xml:space="preserve">
<path fill="#FFA4ED" class="primary-color" d="M99.4,49.9V28.1h56.9v21.8H99.4z M22.6,160.1h21.8v-56.9H22.6V160.1z M81.3,28.1H22.6V85h21.8V49.9h36.9
	V28.1z"></path>
<path fill="#000000" d="M139.7,256.6c0,4.4-3.6,8-8,8h-43c-4.4,0-8-3.6-8-8s3.6-8,8-8h43C136.1,248.6,139.7,252.2,139.7,256.6z
	 M110.2,278.6H36.4c-4.4,0-8,3.6-8,8s3.6,8,8,8h73.8c4.4,0,8-3.6,8-8S114.6,278.6,110.2,278.6z M398,118.3h43c4.4,0,8-3.6,8-8
	s-3.6-8-8-8h-43c-4.4,0-8,3.6-8,8S393.6,118.3,398,118.3z M419.5,132.3h-73.8c-4.4,0-8,3.6-8,8s3.6,8,8,8h73.8c4.4,0,8-3.6,8-8
	S423.9,132.3,419.5,132.3z M473.8,262.2l11.2-11.2c3.1-3.1,3.1-8.2,0-11.3c-3.1-3.1-8.2-3.1-11.3,0l-11.2,11.2l-11.2-11.2
	c-3.1-3.1-8.2-3.1-11.3,0c-3.1,3.1-3.1,8.2,0,11.3l11.2,11.2l-11.2,11.2c-3.1,3.1-3.1,8.2,0,11.3c1.6,1.6,3.6,2.3,5.7,2.3
	s4.1-0.8,5.7-2.3l11.2-11.2l11.2,11.2c1.6,1.6,3.6,2.3,5.7,2.3s4.1-0.8,5.7-2.3c3.1-3.1,3.1-8.2,0-11.3L473.8,262.2z M48.3,348.6
	h-3.9v-3.9c0-4.4-3.6-8-8-8s-8,3.6-8,8v3.9h-3.9c-4.4,0-8,3.6-8,8s3.6,8,8,8h3.9v3.9c0,4.4,3.6,8,8,8s8-3.6,8-8v-3.9h3.9
	c4.4,0,8-3.6,8-8S52.7,348.6,48.3,348.6z M70.3,443.6c-5.9,0-10.8,4.8-10.8,10.8s4.8,10.7,10.8,10.7c5.9,0,10.8-4.8,10.8-10.7
	S76.2,443.6,70.3,443.6z"></path>
<linearGradient id="SVGID_1_" gradientUnits="userSpaceOnUse" x1="255.5564" y1="486.678" x2="255.5564" y2="133.0938" class="gradient-element">
	<stop offset="0" class="primary-color-gradient" style="stop-color: #FFA4ED"></stop>
	<stop offset="1" class="secondary-color-gradient" style="stop-color: #DB81DA"></stop>
</linearGradient>
<path fill="url(#SVGID_1_)" d="M355.3,442l-23.1-71.4c0,0-64-0.1-84.2-0.2c-26.2-0.2-43.1-21.4-48.2-37.7
	c-7.9-25.2-35.6-113.9-35.6-113.9c-2.7-8.8-11.7-16.1-19.6-16.1h-35.9v-24h53.9c19.6,0,34.9,7.5,42.2,14.7
	c10,9.8,18.1,21.9,26.9,35.1c20.9,31.2,46.9,70,104.6,70h0.8c12.6,0,23.8,8.1,27.7,20l37.6,113.7L355.3,442z"></path>
<path d="M240.5,474.2c-63.9,0-115.8-51.9-115.8-115.8c0-38.3,19-74.1,50.8-95.8c3.7-2.5,8.6-1.5,11.1,2.1c2.5,3.7,1.5,8.6-2.1,11.1
	c-27.4,18.7-43.8,49.5-43.8,82.6c0,55,44.8,99.8,99.8,99.8c55,0,99.8-44.8,99.8-99.8c0-30-13.3-58.1-36.4-77.1
	c-17.8-14.7-40.3-22.7-63.4-22.7c-12.4,0-24.6,2.3-36.1,6.7c-2.1,0.8-4.4,0.7-6.4-0.2c-2-1-3.5-2.7-4.2-4.8l-14.4-46.2
	c-4.8-15.3-20.1-27.3-34.8-27.3h-27.9v8h27.9c4.4,0,8,3.6,8,8s-3.6,8-8,8h-35.9c-4.4,0-8-3.6-8-8v-24c0-4.4,3.6-8,8-8h35.9
	c21.7,0,43.2,16.6,50.1,38.6l12,38.3c10.9-3.3,22.2-5,33.8-5c7.6,0,15.1,0.8,22.5,2.2c-6.6-8.1-12.4-16.8-18-25.2
	c-15.3-22.8-31.1-46.4-60-58.4l-7.4-3.1c-3-1.2-5-4.2-5-7.4V82.9c0-30.8,25.1-55.9,55.9-55.9s55.9,25.1,55.9,55.9v71.9
	c0,4.4-3.6,8-8,8s-8-3.6-8-8V82.9c0-22-17.9-39.9-39.9-39.9s-39.9,17.9-39.9,39.9v62.6l2.5,1c33.4,13.8,50.6,39.4,67.2,64.2
	c19.2,28.7,37.4,55.8,78,55.8h39.3c3.5,0,6.5,2.2,7.6,5.5L426.1,402c0.7,2.2,0.5,4.5-0.7,6.5c-1.1,2-3.1,3.4-5.3,3.8l-60.2,12.4
	l1.6,7.8l100.2-20.7l-1.6-7.8l-16.4,3.4c-4.3,0.9-8.6-1.9-9.5-6.2c-0.9-4.3,1.9-8.6,6.2-9.5l24.3-5c2.1-0.4,4.2,0,6,1.2
	c1.8,1.2,3,3,3.4,5.1l4.8,23.5c0.9,4.3-1.9,8.6-6.2,9.5l-115.9,24c-2.1,0.4-4.2,0-6-1.2c-1.8-1.2-3-3-3.4-5.1l-4.8-23.5
	c-0.9-4.3,1.9-8.6,6.2-9.5l59.2-12.2l-38.3-115.9h-33.5c-3,0-5.8-0.1-8.6-0.4c18.3,20.9,28.6,47.8,28.6,76.2
	C356.3,422.2,304.3,474.2,240.5,474.2z M240.5,442.5c-46.4,0-84.1-37.7-84.1-84.1s37.7-84.1,84.1-84.1c4.4,0,8,3.6,8,8s-3.6,8-8,8
	c-37.6,0-68.1,30.6-68.1,68.1s30.6,68.1,68.1,68.1s68.1-30.6,68.1-68.1c0-4.4,3.6-8,8-8s8,3.6,8,8
	C324.6,404.8,286.9,442.5,240.5,442.5z"></path>
</svg>