<svg version="1.1" id="Layer_1" xmlns="http://www.w3.org/2000/svg" xmlns:xlink="http://www.w3.org/1999/xlink" x="0px" y="0px" viewBox="0 0 512 512" enable-background="new 0 0 512 512" xml:space="preserve">
<g>
	<linearGradient id="SVGID_1_" gradientUnits="userSpaceOnUse" x1="406.6895" y1="237.0045" x2="265.0243" y2="237.0045" class="gradient-element">
		<stop offset="0" class="primary-color-gradient" style="stop-color: #FFA4ED"></stop>
		<stop offset="1" class="secondary-color-gradient" style="stop-color: #DB81DA"></stop>
	</linearGradient>
	<path fill="url(#SVGID_1_)" d="M399.7,251.3c-7.3,61.5-60.7,83.4-83.8,90.1c10.5-0.1,20.5-1.8,27.9-6.1c24.8-14.5,0,17.8,0,17.8
		l-38.2,15.3L264.4,344h3l-3-10c0,0,19.7,5.7,40.9,7.2v-226c0,0-3.4-7.4,0-9.4c3.4-1.9,94.4,10.6,94.4,10.6S409,172.6,399.7,251.3z"></path>
	<linearGradient id="SVGID_2_" gradientUnits="userSpaceOnUse" x1="361.3636" y1="504.3849" x2="361.3636" y2="344.1493">
		<stop offset="0" class="primary-color-gradient" style="stop-color: #FFA4ED"></stop>
		<stop offset="1" class="secondary-color-gradient" style="stop-color: #DB81DA"></stop>
	</linearGradient>
	<path fill="url(#SVGID_2_)" d="M325.8,483.4L325.8,483.4l-39.6,0l13-36.6l-25.6-24l12.4-21.7l-56.6-25.6V336l76.3,34.5l52.8-23.9
		L382,336v32.9c5.4,3.3,11.8,6.7,19.5,10.1c53.3,23.2,86.2,38.7,92,104.6H325.8z"></path>
</g>
<path d="M500.1,447.1c-8.4-21.7-27.2-51.2-69.1-68.1c-16.4-6.6-30.1-13.3-40.9-19.8V334c0-2.7-1.4-5.2-3.7-6.7
	c-2.3-1.5-5.2-1.7-7.6-0.6l-11.3,5.1c4.8-3.4,9.5-7.3,13.8-11.7c15.8-16,24.8-35.1,29.6-48.4c3.2-8.9,4.9-18.2,4.9-27.8V106.6
	c0-2.6-1.3-5.1-3.5-6.6c-2.2-1.5-4.9-1.8-7.4-0.9c-17.3,6.6-34.2,2.4-52-2.1c-23.3-5.8-49.7-12.4-77.6,7.3
	c-3.6,2.6-4.5,7.6-1.9,11.2c2.6,3.6,7.6,4.5,11.2,1.9c21.9-15.5,41.6-10.6,64.4-4.9c16.2,4.1,32.9,8.2,50.8,4.6v126.7
	c0,7.7-1.3,15.2-3.9,22.3c-9.1,25-32.3,67.1-85.9,67.1c-52.6,0-76.1-38.9-85.5-62.1c-3.1-7.7-4.6-15.8-4.6-24.3V118.7
	c0-18.4,10.9-31.6,20-39.5C260.1,61.7,291,53.6,320.5,58c10.2,1.5,19.5,4.2,28.5,6.7c22.5,6.4,43.8,12.4,72.4,0.5
	c4.1-1.7,6-6.4,4.3-10.5c-1.7-4.1-6.4-6-10.5-4.3c-23.5,9.8-40.4,5-61.9-1.1c-9.5-2.7-19.3-5.5-30.5-7.1
	c-33.9-5.1-69.8,4.4-93.5,24.9c-16.5,14.2-25.6,32.5-25.6,51.6v128.2c0,10.5,1.9,20.7,5.8,30.2c5,12.6,14.4,30.6,30.4,45.5
	c19,17.7,42.5,26.6,69.9,26.6c8.8,0,17.1-1,25-2.9l-29.3,13.2l-73-33c-2.5-1.1-5.4-0.9-7.6,0.6c-2.3,1.5-3.7,4-3.7,6.7v30.8
	c-8.9,4.7-19.3,9.5-31,14.2c-41.9,16.9-60.7,46.4-69.1,68.1c-9.1,23.5-8.3,43.1-8.2,43.9c0.2,4.3,3.7,7.6,8,7.6c0.1,0,0.3,0,0.4,0
	c4.4-0.2,7.8-4,7.6-8.4c0-0.7-2.5-68.2,67.4-96.4c10.8-4.4,20.6-8.8,29.2-13.2c0.2,0.1,0.3,0.2,0.5,0.3l48.6,22l-8,14.1
	c-1.8,3.2-1.2,7.3,1.5,9.8l21.8,20.4l-11.2,31.7c-0.4,1.3-0.6,2.6-0.4,3.8h-128c-4.4,0-8,3.6-8,8s3.6,8,8,8h350c4.3,0,7.8-3.3,8-7.6
	C508.3,490.2,509.2,470.7,500.1,447.1z M323.6,391.2h-10v-17.5l60.4-27.3v22L323.6,391.2z M237.3,346.4l60.3,27.3v17.5h-10
	l-50.4-22.7V346.4z M290.6,407.2h30.1l6.9,12.2l-20.8,19.4c0,0,0,0,0,0l-1.2,1.1l-22-20.6L290.6,407.2z M303.2,458.5
	c0.1,0,0.2,0.1,0.4,0.1c0.1,0,0.2,0.1,0.3,0.1c0.1,0,0.3,0.1,0.4,0.1c0.1,0,0.2,0,0.3,0c0.1,0,0.3,0,0.4,0.1c0.1,0,0.2,0,0.3,0
	c0.1,0,0.2,0,0.3,0c0,0,0.1,0,0.1,0c0.1,0,0.2,0,0.3,0c0.2,0,0.3,0,0.5,0c0.1,0,0.2,0,0.3,0c0.2,0,0.3,0,0.5-0.1
	c0.1,0,0.2,0,0.3-0.1c0.2,0,0.3-0.1,0.5-0.1c0.1,0,0.2-0.1,0.2-0.1c0.2-0.1,0.3-0.1,0.5-0.2c0,0,0.1,0,0.1,0l5.6,15.2h-16.8l5.3-15
	C303,458.4,303.1,458.5,303.2,458.5z M333.7,482.6c0.2-1.3,0.1-2.7-0.4-3.9l-11.7-31.8l21.5-20.2c2.7-2.5,3.3-6.6,1.5-9.8l-8-14.1
	l48.6-22c1.7-0.8,3-2.1,3.9-3.7c10.1,5.6,22.1,11.2,35.8,16.7c29.1,11.8,49.3,31.4,60,58.5c4.8,12.2,6.5,23.3,7.1,30.3H333.7z"></path>
<g>
	<path fill="#FFA4ED" class="primary-color" d="M466.1,206.4h16.4v16.4h-16.4V206.4z"></path>
	<path fill="#DB81DA" class="secondary-color" d="M466.1,246.4h16.4v16.4h-16.4V246.4z"></path>
	<path fill="#FFA4ED" class="primary-color" d="M466.1,65.4h16.4v114.4h-16.4V65.4z"></path>
</g>
<path d="M72.3,275.1c0,20.3-16.5,36.8-36.8,36.8c-4.4,0-8-3.6-8-8s3.6-8,8-8c11.4,0,20.8-9.3,20.8-20.8c0-4.4,3.6-8,8-8
	S72.3,270.7,72.3,275.1z M114.3,295.9c-11.4,0-20.8-9.3-20.8-20.8c0-4.4-3.6-8-8-8s-8,3.6-8,8c0,20.3,16.5,36.8,36.8,36.8
	c4.4,0,8-3.6,8-8S118.7,295.9,114.3,295.9z M114.3,317.1c-20.3,0-36.8,16.5-36.8,36.8c0,4.4,3.6,8,8,8s8-3.6,8-8
	c0-11.4,9.3-20.8,20.8-20.8c4.4,0,8-3.6,8-8S118.7,317.1,114.3,317.1z M35.5,317.1c-4.4,0-8,3.6-8,8s3.6,8,8,8
	c11.4,0,20.8,9.3,20.8,20.8c0,4.4,3.6,8,8,8s8-3.6,8-8C72.3,333.6,55.8,317.1,35.5,317.1z M168.9,195.8H67.8c-4.4,0-8,3.6-8,8
	s3.6,8,8,8h101.1c4.4,0,8-3.6,8-8S173.3,195.8,168.9,195.8z M31.1,167.9c0,4.4,3.6,8,8,8H106c4.4,0,8-3.6,8-8s-3.6-8-8-8H39.1
	C34.7,159.9,31.1,163.5,31.1,167.9z M34.7,87c4.4,0,8-3.6,8-8v-3.9h3.9c4.4,0,8-3.6,8-8s-3.6-8-8-8h-3.9v-3.9c0-4.4-3.6-8-8-8
	s-8,3.6-8,8v3.9h-3.9c-4.4,0-8,3.6-8,8s3.6,8,8,8h3.9V79C26.7,83.4,30.3,87,34.7,87z"></path>
</svg>