<svg version="1.1" id="Layer_1" xmlns="http://www.w3.org/2000/svg" xmlns:xlink="http://www.w3.org/1999/xlink" x="0px" y="0px" viewBox="0 0 512 512" enable-background="new 0 0 512 512" xml:space="preserve">
<g>
	<path fill="#DB81DA" class="secondary-color" d="M83.1,453.3v35.2H61.8v-35.2H83.1z M244.8,16.6v77.3h22.5V16.6H244.8z"></path>
	<path fill="#DB81DA" class="secondary-color" d="M402,474.8l60.9-60.9v60.9H402z M19,453.3v35.2h20.4v-35.2H19z M122.6,16.6v77.3h21.6V16.6H122.6z"></path>
</g>
<path d="M475.3,267.6c0,4.4-3.6,8-8,8h-43c-4.4,0-8-3.6-8-8s3.6-8,8-8h43C471.8,259.6,475.3,263.2,475.3,267.6z M453.9,230.5
	c0-4.4-3.6-8-8-8h-73.8c-4.4,0-8,3.6-8,8s3.6,8,8,8h73.8C450.3,238.5,453.9,234.9,453.9,230.5z M76,53H60.3V37.2c0-4.4-3.6-8-8-8
	s-8,3.6-8,8V53H28.5c-4.4,0-8,3.6-8,8s3.6,8,8,8h15.8v15.8c0,4.4,3.6,8,8,8s8-3.6,8-8V69H76c4.4,0,8-3.6,8-8S80.5,53,76,53z
	 M474.9,135.1H471v-3.9c0-4.4-3.6-8-8-8s-8,3.6-8,8v3.9h-3.9c-4.4,0-8,3.6-8,8s3.6,8,8,8h3.9v3.9c0,4.4,3.6,8,8,8s8-3.6,8-8v-3.9
	h3.9c4.4,0,8-3.6,8-8S479.3,135.1,474.9,135.1z M36.7,169.8c-5.9,0-10.8,4.8-10.8,10.8s4.8,10.8,10.8,10.8s10.8-4.8,10.8-10.8
	S42.6,169.8,36.7,169.8z M282,364.2H172.5c-4.4,0-8,3.6-8,8s3.6,8,8,8H282c4.4,0,8-3.6,8-8S286.4,364.2,282,364.2z"></path>
<linearGradient id="SVGID_1_" gradientUnits="userSpaceOnUse" x1="237.7639" y1="381.7929" x2="266.2787" y2="36.7632" class="gradient-element">
	<stop offset="0" class="primary-color-gradient" style="stop-color: #FFA4ED"></stop>
	<stop offset="1" class="secondary-color-gradient" style="stop-color: #DB81DA"></stop>
</linearGradient>
<path fill="url(#SVGID_1_)" d="M79.8,216.1c-9.9,0-17.9,8-17.9,17.9v30.7c0,33.5,27.2,60.7,60.7,60.7s60.7-27.3,60.7-60.7V234
	c0-9.9-8-17.9-17.9-17.9H79.8z M450.6,82.5c0,9.7-3.8,18.9-10.7,25.8L339.7,208.5c-7,7-7,18.3,0,25.3l16.1,16.1c7,7,7,18.3,0,25.3
	l-35.4,35.4c-2.5,2.5-5.7,4.2-9.1,4.9c-18.9,3.9-41,14.4-71.8,42.3c-9.5,8.6-24.6,4.7-28.9-7.4c-7.4-20.7-2.8-44.6,13.9-61.2
	c15.4-15.2,40.4-40.4,55.5-55.5c7-7,7-18.3,0-25.3l-9-9c-7-7-7-18.3,0-25.3L388.4,56.7c13.7-13.7,37.8-13.8,51.5,0
	C446.8,63.6,450.6,72.7,450.6,82.5z"></path>
<path d="M353.9,467c-15.7,0-30.1-5-40.5-14.2c-10.7-9.4-16.6-22.6-16.6-37c0-16,7-31.5,19.2-42.6c13.8-12.6,33.6-19.3,57.2-19.3
	c4.4,0,8,3.6,8,8s-3.6,8-8,8c-41.5,0-60.3,23.8-60.3,46c0,20.4,17.3,35.2,41.1,35.2c33.8,0,61.4-28.1,64.1-65.5
	c0.3-4.2,3.8-7.4,8-7.4h48.8c4.4,0,8,3.6,8,8s-3.6,8-8,8h-41.7C426.9,436.2,393.9,467,353.9,467z M98.3,442.8H86.1c-4.4,0-8-3.6-8-8
	v-12.1c0-41.3,16.7-73.7,28.2-91.1c-12.5-3-23.9-9.5-33-19c-12.5-12.9-19.4-29.9-19.4-47.8v-97.2c0-4.4,3.6-8,8-8h121.5
	c4.4,0,8,3.6,8,8v74.9L382.7,51c8-8,19.5-12.7,31.4-12.7c0,0,0,0,0,0c11.9,0,23.4,4.6,31.4,12.7c8.4,8.4,13,19.6,13,31.4
	c0,11.9-4.6,23-13,31.4L338.3,221.1l18.6,18.6c1.5,1.5,2.3,3.5,2.3,5.7s-0.8,4.2-2.3,5.7l-17.2,17.2c-3.1,3.1-8.2,3.1-11.3,0
	L287,226.8c-3.1-3.1-3.1-8.2,0-11.3c3.1-3.1,8.2-3.1,11.3,0l35.8,35.8l5.9-5.9l-18.6-18.6c-1.5-1.5-2.3-3.5-2.3-5.7s0.8-4.2,2.3-5.7
	l112.9-112.9c5.4-5.4,8.3-12.5,8.3-20.1c0-7.6-3-14.7-8.3-20.1c-5.1-5.1-12.4-8-20.1-8c0,0,0,0,0,0c-7.7,0-15,2.9-20.1,8l-205,205
	c-2.3,2.3-5.7,3-8.7,1.7c-3-1.2-4.9-4.2-4.9-7.4v-86.2H69.8v89.2c0,28.6,22.4,51.8,51,52.7c3,0.1,5.7,1.9,7,4.7c1.3,2.8,0.9,6-1,8.4
	c-7.7,9.5-32.7,44.3-32.7,92.2v4.1h4.1c47.7,0,85-24.7,99.6-39.2l21-21c56.7-56.6,87.9-61.3,117.4-61.3c4.4,0,8,3.6,8,8s-3.6,8-8,8
	c-26,0-53.8,4.3-106.1,56.6l-21,21C192.9,415.2,151.2,442.8,98.3,442.8z M329.1,423.8c-4.4,0-8-3.6-8-8c0-18.8,16.1-37.7,52-37.7
	h28.5c4.4,0,8,3.6,8,8s-3.6,8-8,8h-28.5c-24.9,0-36,10.9-36,21.7C337.1,420.3,333.5,423.8,329.1,423.8z M424.8,369.9
	c-3.8,0-7.2-2.7-7.9-6.6c-6.8-39.6-39.2-66.2-80.6-66.2c-4.4,0-8-3.6-8-8s3.6-8,8-8c49.5,0,88.2,32,96.4,79.5
	c0.8,4.4-2.2,8.5-6.5,9.2C425.7,369.8,425.2,369.9,424.8,369.9z M86.1,272.7c-4.4,0-8-3.6-8-8v-72.9c0-4.4,3.6-8,8-8H159
	c4.4,0,8,3.6,8,8s-3.6,8-8,8H94.1v64.9C94.1,269.1,90.6,272.7,86.1,272.7z"></path>
</svg>