<svg version="1.1" id="Layer_1" xmlns="http://www.w3.org/2000/svg" xmlns:xlink="http://www.w3.org/1999/xlink" x="0px" y="0px" viewBox="0 0 512 512" enable-background="new 0 0 512 512" xml:space="preserve">
<linearGradient id="SVGID_1_" gradientUnits="userSpaceOnUse" x1="24.4969" y1="269.4882" x2="486.8723" y2="269.4882" class="gradient-element">
	<stop offset="0" class="primary-color-gradient" style="stop-color: #FFA4ED"></stop>
	<stop offset="1" class="secondary-color-gradient" style="stop-color: #DB81DA"></stop>
</linearGradient>
<path fill="url(#SVGID_1_)" d="M70.1,294.4l-30-6.7c0,0-22.7-12.7-13.4-27.8c2.5-4,8.9-3.5,13.9-3.5H404c18.1,0,32.8-14.7,32.8-32.8
	v-72.9c0-12.3,6.1-23.9,16.3-30.8l30.9-20.9l-17.9,56.2c0,0,11.3,24.9,15.4,42.2s-0.1,10.1,4.4,29.4c4.5,19.3-7.6,30.3-20.5,38.7
	S331.5,298,331.5,298L405,428.2l-2.2,11.8h-41.3L194.4,301.4l-51.9-4.1L70.1,294.4z"></path>
<path d="M325.6,227l-5.9,10.3h8.4c4.4,0,8,3.6,8,8s-3.6,8-8,8h-22.3c-2.9,0-5.5-1.5-6.9-4c-1.4-2.5-1.4-5.5,0-8l12.9-22.3
	c2.2-3.8,7.1-5.1,10.9-2.9C326.5,218.3,327.8,223.2,325.6,227z M367.2,216.1c-3.8-2.2-8.7-0.9-10.9,2.9l-12.9,22.3
	c-1.4,2.5-1.4,5.5,0,8c1.4,2.5,4.1,4,6.9,4h22.3c4.4,0,8-3.6,8-8s-3.6-8-8-8h-8.4l5.9-10.3C372.4,223.2,371,218.3,367.2,216.1z
	 M278.1,216.1c-3.8-2.2-8.7-0.9-10.9,2.9l-12.9,22.3c-1.4,2.5-1.4,5.5,0,8c1.4,2.5,4.1,4,6.9,4h22.3c4.4,0,8-3.6,8-8s-3.6-8-8-8
	h-8.4L281,227C283.2,223.2,281.9,218.3,278.1,216.1z M233.6,216.1c-3.8-2.2-8.7-0.9-10.9,2.9l-12.9,22.3c-1.4,2.5-1.4,5.5,0,8
	c1.4,2.5,4.1,4,6.9,4H239c4.4,0,8-3.6,8-8s-3.6-8-8-8h-8.4l5.9-10.3C238.7,223.2,237.4,218.3,233.6,216.1z M189,216.1
	c-3.8-2.2-8.7-0.9-10.9,2.9l-12.9,22.3c-1.4,2.5-1.4,5.5,0,8c1.4,2.5,4.1,4,6.9,4h22.3c4.4,0,8-3.6,8-8s-3.6-8-8-8H186l5.9-10.3
	C194.1,223.2,192.8,218.3,189,216.1z M497.4,232.9c0.1,19.5-16.4,38.2-37.6,42.5c-30.3,6.2-64.3,15.2-94.3,23.2
	c-24.6,6.5-45.9,12.1-58.2,14.3c-0.5,0.1-1,0.1-1.4,0.1c-3.8,0-7.2-2.7-7.9-6.6c-0.8-4.3,2.1-8.5,6.5-9.3c11.7-2.1,32.7-7.7,57-14.1
	c30.2-8,64.5-17,95.2-23.4c13.8-2.8,24.9-14.8,24.9-26.8c-0.1-13.2-13.7-23.3-37.4-27.9c-4.3-0.8-7.2-5-6.3-9.4s5-7.2,9.4-6.3
	c10.8,2.1,19.2,5,25.9,8.5l-18.8-38.2c-1.1-2.2-1.1-4.8,0-7.1l22.2-45.2l-71,48.1h28.1c4.4,0,8,3.6,8,8s-3.6,8-8,8h-62
	c-1.2,1.1-3.7,5.7-3.8,13.7h4.9c4.4,0,8,3.6,8,8s-3.6,8-8,8H320c0,0,0,0-0.1,0H200.2c0,0,0,0-0.1,0h-72.5
	c-27.2,0-39.5,8.6-48.3,21.9c6.2,10.1,13.3,14.1,24.3,14.1h46.2c4.4,0,8,3.6,8,8s-3.6,8-8,8h-46.2c-15.9,0-27.4-6-36.4-19.3
	c-31,18.7-33.7,26.9-33.7,33.6c0,2.5,3.9,7.9,18.7,12.8c12.1,4,35.4,8.9,77.3,8.9H198c2,0,3.9,0.7,5.4,2.1l156.3,142.1
	c3.2,2.9,5.6,4.3,10.5,4.3H399c0.5,0,0.9-0.3,1.2-0.7c0.2-0.4,0.2-0.9,0-1.3L333.5,319c-2.2-3.8-0.9-8.7,3-10.9
	c3.8-2.2,8.7-0.9,10.9,3L414,427.8c3.1,5.3,3.1,11.9,0,17.3c-3.1,5.4-8.8,8.7-15,8.7h-28.7c-10.5,0-16.4-4.1-21.3-8.5l-154-140
	h-65.4c-71.1,0-112-13.7-112-37.7c0-15,7.5-27.5,46.7-50.4c13.6-22.3,32.7-31.8,63.4-31.8h69.5L326.7,67.5
	c4.8-4.4,10.8-8.5,21.3-8.5h28.8c6.2,0,11.9,3.3,15,8.7c3.1,5.3,3.1,12,0,17.3c0,0,0,0,0,0l-57.9,100.2h17.9
	c0.2-17.2,8.2-29.7,19.1-29.7h17.8c0.2-5.1,2.6-9.7,6.7-12.5l76.7-52c2.3-1.6,4.9-2.4,7.7-2.4c4,0,7.9,1.8,10.6,5
	c4.1,4.8,4.9,11.9,2.1,17.7l-22,44.7l22,44.7c1.8,3.6,0.6,8-2.7,10.2C496.1,219.4,497.4,227.9,497.4,232.9z M220.9,185.3h94.4
	l62.5-108.2c0.2-0.4,0.2-0.9,0-1.4c-0.2-0.4-0.7-0.6-1.1-0.6h-28.8c-4.9,0-7.3,1.4-10.5,4.3L220.9,185.3z"></path>
<g>
	<path fill="#DB81DA" class="secondary-color" d="M188.6,436.9v46.3h-22.5v-46.3H188.6z M76.3,436.9v46.3h22.5v-46.3H76.3z"></path>
	<path fill="#FFA4ED" class="primary-color" d="M143.2,436.9v46.3h-21.6v-46.3H143.2z M31.8,436.9v46.3h21.6v-46.3H31.8z"></path>
</g>
<path d="M506.8,344.6c0,4.4-3.6,8-8,8H412c-4.4,0-8-3.6-8-8s3.6-8,8-8h86.8C503.2,336.6,506.8,340.2,506.8,344.6z M445.7,316.5
	c0-4.4-3.6-8-8-8h-57.4c-4.4,0-8,3.6-8,8s3.6,8,8,8h57.4C442.1,324.5,445.7,320.9,445.7,316.5z M173.1,131.9H86.3c-4.4,0-8,3.6-8,8
	s3.6,8,8,8h86.8c4.4,0,8-3.6,8-8S177.5,131.9,173.1,131.9z M54.6,119.7H112c4.4,0,8-3.6,8-8s-3.6-8-8-8H54.6c-4.4,0-8,3.6-8,8
	S50.2,119.7,54.6,119.7z M216.2,77.5h-3.9v-3.9c0-4.4-3.6-8-8-8s-8,3.6-8,8v3.9h-3.9c-4.4,0-8,3.6-8,8s3.6,8,8,8h3.9v3.9
	c0,4.4,3.6,8,8,8s8-3.6,8-8v-3.9h3.9c4.4,0,8-3.6,8-8S220.6,77.5,216.2,77.5z M114.7,335.5l-14.1,1.1c-26.9,2.1-52.9-6.3-73.3-23.7
	c-3.4-2.9-8.4-2.5-11.3,0.9c-2.9,3.4-2.5,8.4,0.9,11.3c21.2,18.2,47.8,27.9,75.6,27.9c3.1,0,6.2-0.1,9.3-0.4l14.1-1.1
	c4.4-0.3,7.7-4.2,7.4-8.6C122.9,338.5,119.1,335.2,114.7,335.5z"></path>
</svg>