<svg version="1.1" id="Layer_1" xmlns="http://www.w3.org/2000/svg" xmlns:xlink="http://www.w3.org/1999/xlink" x="0px" y="0px" viewBox="0 0 512 512" enable-background="new 0 0 512 512" xml:space="preserve">
<g>
	<path fill="#DB81DA" class="secondary-color" d="M473.3,462.1v23.2h-22.5v-23.2H473.3z M361,462.1v23.2h22.5v-23.2H361z"></path>
	<path fill="#FFA4ED" class="primary-color" d="M428.1,462.7l-0.3,23.2l-21.5-0.2l0.3-23.2L428.1,462.7z M316.7,461.5l-0.3,23.2l21.5,0.2l0.3-23.2
		L316.7,461.5z"></path>
</g>
<path d="M109.2,466.7c0,4.4-3.6,8-8,8H42c-4.4,0-8-3.6-8-8s3.6-8,8-8h59.2C105.7,458.7,109.2,462.3,109.2,466.7z M487.5,36.8h-175
	c-4.4,0-8,3.6-8,8s3.6,8,8,8h175c4.4,0,8-3.6,8-8S491.9,36.8,487.5,36.8z M55.7,68.7h3.9v3.9c0,4.4,3.6,8,8,8s8-3.6,8-8v-3.9h3.9
	c4.4,0,8-3.6,8-8s-3.6-8-8-8h-3.9v-3.9c0-4.4-3.6-8-8-8s-8,3.6-8,8v3.9h-3.9c-4.4,0-8,3.6-8,8S51.3,68.7,55.7,68.7z"></path>
<linearGradient id="SVGID_1_" gradientUnits="userSpaceOnUse" x1="248.2928" y1="424.4156" x2="248.2928" y2="69.719" class="gradient-element">
	<stop offset="0" class="primary-color-gradient" style="stop-color: #FFA4ED"></stop>
	<stop offset="1" class="secondary-color-gradient" style="stop-color: #DB81DA"></stop>
</linearGradient>
<path fill="url(#SVGID_1_)" d="M247.9,117.6c4.8-14.6-2.4-67.2,13.6-57.3c12.1,7.5,17.6,22.6,13.1,36.2
	C270.4,108.7,259.6,116.5,247.9,117.6z M218.1,422.3c-2.6,0-5.2-0.2-7.6-0.5c8,10.4,20.2,18.1,38.2,18.1c34,0,47.3-27.4,50.8-48.8
	h-25.9c-5.6,0-10.9,3-13.7,7.8C252.1,411.9,239.1,422.3,218.1,422.3z M359,313c-9.4-65.1-22-151.9-87.7-167.8
	c39.5,31.5,37.2,153.3,37.2,153.5c0.4,33.2-9.2,38-40.1,38H164.1c-29.2,0-33.6,25.2-35,32.4c-0.2,1-0.3,1.8-0.5,2.6H368
	C363.2,337,361.8,332.3,359,313z"></path>
<path d="M248.7,448c-39,0-52.5-26.6-57-41.5h-66.9c-4.4,0-8-3.6-8-8s3.6-8,8-8H198c3.8,0,7.1,2.7,7.9,6.5c2,10.5,10.3,35,42.9,35
	c32.6,0,40.9-24.5,42.9-35c0.7-3.8,4-6.5,7.9-6.5h72.7c4.4,0,8,3.6,8,8s-3.6,8-8,8h-66.4C301.3,421.3,287.8,448,248.7,448z
	 M128.6,379.6c-0.5,0-1.1-0.1-1.6-0.2c-4.3-0.9-7.1-5.1-6.3-9.4c2.2-11,7.9-45,9.8-58.1c5.1-35.5,11.5-79.6,27.6-114.4
	c19.3-41.7,49.8-62.9,90.6-62.9s71.3,21.1,90.6,62.9c16.1,34.8,22.5,78.9,27.6,114.4c1.1,7.5,2,12.8,2.9,18.5
	c1.5,8.9,3.1,19,6.1,40.1c0.3,2.3-0.4,4.6-1.9,6.4c-1.5,1.7-3.7,2.7-6,2.7H154c-4.4,0-8-3.6-8-8s3.6-8,8-8h204.8
	c-2.1-14.9-3.5-23.2-4.7-30.6c-0.9-5.7-1.8-11.2-2.9-18.8c-5-34.5-11.1-77.3-26.3-110c-16.7-36.1-41.6-53.6-76.1-53.6
	s-59.4,17.5-76.1,53.6c-15.1,32.6-21.3,75.5-26.3,109.9c-1.9,13.3-7.7,47.8-9.9,59C135.7,377,132.4,379.6,128.6,379.6z M248.7,129.9
	c-21.6,0-39.1-17.5-39.1-39.1c0-21.6,17.5-39.1,39.1-39.1s39.1,17.5,39.1,39.1C287.8,112.4,270.3,129.9,248.7,129.9z M248.7,67.7
	c-12.7,0-23.1,10.4-23.1,23.1s10.4,23.1,23.1,23.1c12.7,0,23.1-10.4,23.1-23.1S261.5,67.7,248.7,67.7z"></path>
</svg>