<svg version="1.1" id="Layer_1" xmlns="http://www.w3.org/2000/svg" xmlns:xlink="http://www.w3.org/1999/xlink" x="0px" y="0px" viewBox="0 0 512 512" enable-background="new 0 0 512 512" xml:space="preserve">
<g>
	<path fill="#DB81DA" class="secondary-color" d="M260.3,31.6v35.2h-22.5V31.6H260.3z M22.5,256.3v77.3H45v-77.3H22.5z"></path>
	<path fill="#DB81DA" class="secondary-color" d="M214.2,31.6v35.2h-21.6V31.6H214.2z M23,127.9v77.3h21.6v-77.3H23z"></path>
</g>
<path d="M432.3,347.3c0-4.4,3.6-8,8-8h43c4.4,0,8,3.6,8,8s-3.6,8-8,8h-43C435.9,355.3,432.3,351.7,432.3,347.3z M469.8,377.3
	c0-4.4-3.6-8-8-8H388c-4.4,0-8,3.6-8,8s3.6,8,8,8h73.8C466.3,385.3,469.8,381.7,469.8,377.3z M489.3,447.5h-15.8v-15.8
	c0-4.4-3.6-8-8-8s-8,3.6-8,8v15.8h-15.8c-4.4,0-8,3.6-8,8s3.6,8,8,8h15.8v15.8c0,4.4,3.6,8,8,8s8-3.6,8-8v-15.8h15.8
	c4.4,0,8-3.6,8-8S493.7,447.5,489.3,447.5z M396.3,80.8c20.3,0,36.8-16.5,36.8-36.8c0-4.4-3.6-8-8-8s-8,3.6-8,8
	c0,11.4-9.3,20.8-20.8,20.8c-4.4,0-8,3.6-8,8S391.9,80.8,396.3,80.8z M475.1,80.8c4.4,0,8-3.6,8-8s-3.6-8-8-8
	c-11.4,0-20.8-9.3-20.8-20.8c0-4.4-3.6-8-8-8s-8,3.6-8,8C438.3,64.3,454.8,80.8,475.1,80.8z M446.3,130.8c4.4,0,8-3.6,8-8
	c0-11.4,9.3-20.8,20.8-20.8c4.4,0,8-3.6,8-8s-3.6-8-8-8c-20.3,0-36.8,16.5-36.8,36.8C438.3,127.2,441.9,130.8,446.3,130.8z
	 M396.3,102c11.4,0,20.8,9.3,20.8,20.8c0,4.4,3.6,8,8,8s8-3.6,8-8c0-20.3-16.5-36.8-36.8-36.8c-4.4,0-8,3.6-8,8S391.9,102,396.3,102
	z M472.6,256.5c0,5.9,4.8,10.8,10.8,10.8c5.9,0,10.8-4.8,10.8-10.8c0-5.9-4.8-10.8-10.8-10.8C477.4,245.7,472.6,250.6,472.6,256.5z
	 M166.2,450.2H34.8c-4.4,0-8,3.6-8,8s3.6,8,8,8h131.4c4.4,0,8-3.6,8-8S170.7,450.2,166.2,450.2z M42.1,84.8
	c-14.6,0-26.4-11.8-26.4-26.4S27.5,32,42.1,32s26.4,11.8,26.4,26.4S56.6,84.8,42.1,84.8z M42.1,68.8c5.7,0,10.4-4.7,10.4-10.4
	S47.8,48,42.1,48s-10.4,4.7-10.4,10.4S36.3,68.8,42.1,68.8z"></path>
<linearGradient id="SVGID_1_" gradientUnits="userSpaceOnUse" x1="346.142" y1="458.2167" x2="350.4193" y2="64.7117" class="gradient-element">
	<stop offset="0" class="primary-color-gradient" style="stop-color: #FFA4ED"></stop>
	<stop offset="1" class="secondary-color-gradient" style="stop-color: #DB81DA"></stop>
</linearGradient>
<path fill="url(#SVGID_1_)" d="M283.8,79.6c-6.6-0.7-12.4,4.6-12.3,11.2c0.1,5.8,4.8,10.5,10.5,11c11.7,1.1,22.9,3.2,33.2,6.2
	c24.7,7.1,45.4,31,45.4,58.8c0,29.7-18,55.1-55.8,76.4c-11.8,6.6-22.1,15-29.7,21.9c-0.4,0.3-0.8,0.8-1.2,1.4
	c-1.6,2-2.4,4.4-2.4,6.9l0,168.7c0,7.6,7.3,12.9,14.5,10.7c32.1-9.9,58-34.9,66.4-43.9c20.6-21.9,74.9-111.1,74.9-182.5
	C427.3,145,370.5,88.3,283.8,79.6z M345.4,333.9c-19.8,16.6-49.8,6.1-50.9,5.7c0,0,0,0,0,0c0.1-1,2.6-25.4,22.3-42.6
	c19.6-17.1,42-18.2,43-18.2c0,0,0,0,0,0C360,280.2,365.1,317.4,345.4,333.9z"></path>
<path d="M260.3,464.9c-46.7,0-86.7-38.7-97.9-50.6c-14.2-15-43.5-60.6-61.5-110.6c-1.5-4.2,0.7-8.7,4.8-10.2
	c4.2-1.5,8.7,0.7,10.2,4.8c17.2,47.9,44.9,91,58.1,105.1c10.1,10.7,46,45.5,86.3,45.5c40.2,0,76.2-34.8,86.3-45.5
	c10.2-10.8,28.5-38.6,43.8-70.6c13.2-27.8,28.9-68.8,28.9-106.4c0-83.8-63.9-140.1-159-140.1s-159,56.3-159,140.1
	c0,14.9,2.6,31.8,7.7,50.2c1.2,4.3-1.3,8.7-5.6,9.8c-4.3,1.2-8.7-1.3-9.8-5.6c-5.5-19.9-8.3-38.2-8.3-54.5
	c0-45.8,16.9-85,48.7-113.2c31.6-28,75.3-42.8,126.3-42.8s94.7,14.8,126.3,42.8c31.9,28.3,48.7,67.4,48.7,113.2
	c0,40.6-16.6,84-30.5,113.2c-16.7,35.1-35.8,63.3-46.6,74.7C347.1,426.2,307,464.9,260.3,464.9z M260.3,398.1
	c-17.8,0-32.6-10.3-38.8-26.9c-1.5-4.1,0.6-8.7,4.7-10.3c4.1-1.5,8.7,0.6,10.3,4.7c3.8,10.3,12.7,16.5,23.7,16.5
	c11.1,0,19.9-6.2,23.7-16.5c1.5-4.1,6.1-6.3,10.3-4.7c4.1,1.5,6.3,6.1,4.7,10.3C293,387.8,278.1,398.1,260.3,398.1z M203.8,351.2
	c-10.8,0-23.3-2.5-33.7-11.2c-23.2-19.5-17.4-60.7-17.2-62.5c0.6-4,4.1-7,8.2-6.8c1.1,0,26.1,1,48.1,20.2c22.3,19.4,24.9,46.8,25,48
	c0.3,3.6-1.8,7-5.2,8.2C228.1,347.4,217.3,351.2,203.8,351.2z M168.1,287.9c-0.4,12.1,1.5,30.9,12.3,39.9c11.3,9.5,27.6,7.9,36.6,6
	c-2-7.7-6.8-20.8-18.3-30.8C187.6,293.4,175.6,289.5,168.1,287.9z M316.9,351.2c-13.5,0-24.3-3.9-25.1-4.1c-3.4-1.2-5.5-4.6-5.2-8.2
	c0.1-1.2,2.7-28.5,25-48l0,0c22-19.2,47-20.1,48.1-20.2c4.1-0.1,7.6,2.8,8.2,6.8c0.3,1.7,6.1,43-17.2,62.5
	C340.2,348.8,327.7,351.2,316.9,351.2z M303.7,333.8c8.9,1.9,25.2,3.5,36.6-6c10.7-9,12.6-27.8,12.3-39.9
	c-7.5,1.6-19.6,5.6-30.5,15.1c0,0,0,0,0,0C310.5,313,305.7,326.1,303.7,333.8z M316.8,297L316.8,297L316.8,297z M290.1,289.6
	c-2.2,0-4.3-0.9-5.9-2.6c-3-3.3-2.8-8.3,0.5-11.3c8.6-7.9,25.6-21.8,43.7-27.3c4.2-1.3,8.7,1.1,10,5.3c1.3,4.2-1.1,8.7-5.3,10
	c-15.1,4.6-30,16.9-37.5,23.8C294,288.9,292.1,289.6,290.1,289.6z M230.5,289.6c-1.9,0-3.9-0.7-5.4-2.1
	c-7.6-6.9-22.5-19.2-37.5-23.8c-4.2-1.3-6.6-5.7-5.3-10c1.3-4.2,5.7-6.6,10-5.3c18.1,5.5,35.2,19.5,43.7,27.3c3.3,3,3.5,8,0.5,11.3
	C234.9,288.7,232.7,289.6,230.5,289.6z"></path>
</svg>