<svg version="1.1" id="Layer_1" xmlns="http://www.w3.org/2000/svg" xmlns:xlink="http://www.w3.org/1999/xlink" x="0px" y="0px" viewBox="0 0 512 512" enable-background="new 0 0 512 512" xml:space="preserve">
<g>
	<path fill="#FFA4ED" class="primary-color" d="M416.8,33.3V18.7h14.6v14.6H416.8z"></path>
	<path fill="#DB81DA" class="secondary-color" d="M291.4,33.3V18.7h101.8v14.6H291.4z"></path>
</g>
<path d="M465,137.2c0-5,4.1-9,9-9s9,4.1,9,9s-4.1,9-9,9S465,142.2,465,137.2z M474,158.2c-5,0-9,4.1-9,9s4.1,9,9,9s9-4.1,9-9
	S479,158.2,474,158.2z M474,188.2c-5,0-9,4.1-9,9s4.1,9,9,9s9-4.1,9-9S479,188.2,474,188.2z M474,114.3c4.4,0,8-3.6,8-8V18.7
	c0-4.4-3.6-8-8-8s-8,3.6-8,8v87.6C466,110.7,469.6,114.3,474,114.3z M474,218.7c-4.4,0-8,3.6-8,8v87.6c0,4.4,3.6,8,8,8s8-3.6,8-8
	v-87.6C482,222.3,478.4,218.7,474,218.7z M246.7,59.8h-89.9c-4.4,0-8,3.6-8,8s3.6,8,8,8h89.9c4.4,0,8-3.6,8-8S251.1,59.8,246.7,59.8
	z M180.4,35.8c0-4.4-3.6-8-8-8H113c-4.4,0-8,3.6-8,8s3.6,8,8,8h59.5C176.9,43.8,180.4,40.3,180.4,35.8z M49.9,22.9H46V19
	c0-4.4-3.6-8-8-8s-8,3.6-8,8v3.9h-3.9c-4.4,0-8,3.6-8,8s3.6,8,8,8H30v3.9c0,4.4,3.6,8,8,8s8-3.6,8-8v-3.9h3.9c4.4,0,8-3.6,8-8
	S54.3,22.9,49.9,22.9z"></path>
<linearGradient id="SVGID_1_" gradientUnits="userSpaceOnUse" x1="263.4117" y1="480.8678" x2="254.2963" y2="132.2049" class="gradient-element">
	<stop offset="0" class="primary-color-gradient" style="stop-color: #FFA4ED"></stop>
	<stop offset="1" class="secondary-color-gradient" style="stop-color: #DB81DA"></stop>
</linearGradient>
<path fill="url(#SVGID_1_)" d="M413.5,485.2h-278c-27.4,0-49.7-22.2-49.7-49.7V188.6c0-27.4,22.2-49.7,49.7-49.7h246.9
	c27.4,0,49.7,22.2,49.7,49.7v278C432.1,476.8,423.8,485.2,413.5,485.2z"></path>
<path d="M432.1,493.2H39.7c-4.4,0-8-3.6-8-8V138.9c0-4.4,3.6-8,8-8h55.4c4.4,0,8,3.6,8,8s-3.6,8-8,8H47.7v330.3h376.5V100.7H39.7
	c-4.4,0-8-3.6-8-8s3.6-8,8-8h392.5c4.4,0,8,3.6,8,8v392.5C440.1,489.6,436.6,493.2,432.1,493.2z M408.6,423.9h-33.3
	c-2.5,0-4.9-1.2-6.4-3.2l-22.8-30.8l-22.3,30.7c-1.5,2.1-3.9,3.3-6.5,3.3H212.8c-4.4,0-8-3.6-8-8V300.5c0-4.4,3.6-8,8-8h107.1
	c2.6,0,5.1,1.3,6.6,3.5l19.8,28.8l21.6-29c1.5-2,3.9-3.2,6.4-3.2h34.3c4.4,0,8,3.6,8,8s-3.6,8-8,8h-30.3l-25.9,34.7
	c-1.5,2.1-4,3.3-6.6,3.2c-2.6,0-5-1.3-6.4-3.5l-23.7-34.5h-94.9v99.4h92.4l26.3-36.2c1.5-2.1,3.9-3.3,6.4-3.3c0,0,0,0,0,0
	c2.5,0,4.9,1.2,6.4,3.2l26.9,36.3h13l-35.1-45.4c-2.7-3.5-2.1-8.5,1.4-11.2c3.5-2.7,8.5-2.1,11.2,1.4l45.1,58.2
	c1.9,2.4,2.2,5.7,0.9,8.4C414.4,422.2,411.7,423.9,408.6,423.9z M301.6,400.8h-65.7c-4.4,0-8-3.6-8-8v-23.1c0-4.4,3.6-8,8-8h57.7
	c4.4,0,8,3.6,8,8s-3.6,8-8,8h-49.7v7.1h53.8l21.1-27.2l-19.9-26.1h-54.9v15.1c0,4.4-3.6,8-8,8s-8-3.6-8-8v-23.1c0-4.4,3.6-8,8-8
	h66.9c2.5,0,4.8,1.2,6.4,3.1l26.1,34.1c2.2,2.9,2.2,6.9,0,9.8l-27.3,35.2C306.4,399.7,304.1,400.8,301.6,400.8z M251.7,285.4
	c-3.1,0-6.1-1.8-7.4-4.9l-28.4-67.6c-1.7-4.1,0.2-8.8,4.3-10.5c4.1-1.7,8.8,0.2,10.5,4.3l28.4,67.6c1.7,4.1-0.2,8.8-4.3,10.5
	C253.7,285.2,252.7,285.4,251.7,285.4z M328.3,285.4c-4.4,0-8-3.6-8-8V170h-21l-27.6,84.6c-1.1,3.3-4.2,5.5-7.7,5.5
	c-3.5,0-6.6-2.3-7.6-5.6L230.3,170h-21v99.4h15.1c4.4,0,8,3.6,8,8s-3.6,8-8,8h-23.1c-2.3,0-4.3-0.9-5.8-2.5
	c-1.5,1.6-3.6,2.5-5.8,2.5h-29.5c-4.4,0-8-3.6-8-8s3.6-8,8-8h17.4L135.4,170h-18.4l-42.2,99.4h12.3l7.7-18.2c1.3-3,4.2-4.9,7.4-4.9
	h48.3c4.4,0,8,3.6,8,8s-3.6,8-8,8h-43l-7.7,18.2c-1.3,3-4.2,4.9-7.4,4.9H62.8c-2.7,0-5.2-1.3-6.7-3.6s-1.7-5.1-0.7-7.5l49-115.4
	c1.3-3,4.2-4.9,7.4-4.9h28.9c3.2,0,6.1,1.9,7.4,4.9l45.2,106.4V162c0-4.4,3.6-8,8-8h34.9c3.5,0,6.6,2.3,7.6,5.6l20.4,66.1l21.6-66.2
	c1.1-3.3,4.1-5.5,7.6-5.5h34.8c4.4,0,8,3.6,8,8v115.4C336.3,281.8,332.7,285.4,328.3,285.4z M305.2,285.4c-4.4,0-8-3.6-8-8v-86.7
	c0-4.4,3.6-8,8-8s8,3.6,8,8v86.7C313.2,281.8,309.6,285.4,305.2,285.4z M143.2,238h-33.7c-4.4,0-8-3.6-8-8s3.6-8,8-8h21.7L119,192.7
	c-1.7-4.1,0.2-8.8,4.3-10.5c4.1-1.7,8.8,0.2,10.5,4.3l16.9,40.3c1,2.5,0.8,5.3-0.7,7.5S145.9,238,143.2,238z"></path>
</svg>