<svg version="1.1" id="Layer_1" xmlns="http://www.w3.org/2000/svg" xmlns:xlink="http://www.w3.org/1999/xlink" x="0px" y="0px" viewBox="0 0 512 512" enable-background="new 0 0 512 512" xml:space="preserve">
<g>
	<linearGradient id="SVGID_1_" gradientUnits="userSpaceOnUse" x1="352.4827" y1="513.4849" x2="352.4827" y2="-2.17" class="gradient-element">
		<stop offset="0" class="primary-color-gradient" style="stop-color: #FFA4ED"></stop>
		<stop offset="1" class="secondary-color-gradient" style="stop-color: #DB81DA"></stop>
	</linearGradient>
	<path fill="url(#SVGID_1_)" d="M476,459.3L462.3,473c-3.3,3.3-8.6,3.3-12,0.1l-101.5-98.7c-4.2-4.1-10.6-4.8-15.6-1.7l-15.7,9
		c-25.8,15-55.6,23.8-87.6,23.8h-1l0,0c0-25.1,16.1-47.5,40.1-55c51.1-16,86.2-62.5,86.2-120.3c0-57.5-34.7-103.7-85.3-120
		c-24.4-7.8-41-30.6-41-56.2v0h1c96.9,0,175.7,78.8,175.7,175.7c0,44.2-16.6,84.6-43.6,115.5L476,459.3z"></path>
	<linearGradient id="SVGID_2_" gradientUnits="userSpaceOnUse" x1="260.2976" y1="318.4081" x2="260.2976" y2="207.2923">
		<stop offset="0" class="primary-color-gradient" style="stop-color: #FFA4ED"></stop>
		<stop offset="1" class="secondary-color-gradient" style="stop-color: #DB81DA"></stop>
	</linearGradient>
	<path fill="url(#SVGID_2_)" d="M260,264.8c0-19.6-12.6-36.4-30-42.7c4.8-1.8,10-2.7,15.4-2.7c25,0,45.4,20.4,45.4,45.4
		c0,25-20.4,45.4-45.4,45.4c-5.4,0-10.6-1-15.4-2.7C247.4,301.2,260,284.4,260,264.8z"></path>
	<linearGradient id="SVGID_3_" gradientUnits="userSpaceOnUse" x1="47.0681" y1="492.7333" x2="47.0681" y2="381.6176">
		<stop offset="0" class="primary-color-gradient" style="stop-color: #FFA4ED"></stop>
		<stop offset="1" class="secondary-color-gradient" style="stop-color: #DB81DA"></stop>
	</linearGradient>
	<path fill="url(#SVGID_3_)" d="M74.9,439.1c0,25-18.7,45.4-41.6,45.4c-4.9,0-9.7-1-14.1-2.7c16-6.3,27.5-23.1,27.5-42.7
		c0-19.6-11.5-36.4-27.5-42.7c4.4-1.8,9.1-2.7,14.1-2.7C56.2,393.7,74.9,414.2,74.9,439.1z"></path>
</g>
<path d="M492.5,344.5c-20.6,0-37.4-16.8-37.4-37.4s16.8-37.4,37.4-37.4c4.4,0,8-3.6,8-8s-3.6-8-8-8c-25.1,0-46.2,17.4-51.9,40.8
	l-35.8-8.7c5.8-18,8.8-36.9,8.8-56c0-101.3-82.4-183.7-183.7-183.7S46.2,128.5,46.2,229.8c0,56.7,25.8,107.5,66.3,141.2l-43.2,35.8
	c-9.8-12.8-25.2-21.1-42.5-21.1c-4.4,0-8,3.6-8,8s3.6,8,8,8c20.6,0,37.4,16.8,37.4,37.4s-16.8,37.4-37.4,37.4c-4.4,0-8,3.6-8,8
	s3.6,8,8,8c29.4,0,53.4-24,53.4-53.4c0-6.3-1.1-12.4-3.1-18l48.5-40.1c29.7,20.5,65.6,32.6,104.3,32.6c32,0,63.7-8.6,91.6-24.8
	c3.8-2.2,5.1-7.1,2.9-10.9c-2.2-3.8-7.1-5.1-10.9-2.9c-25.5,14.8-54.4,22.7-83.5,22.7c-33.7,0-65.1-10-91.5-27.2l72.9-60.3
	c8.3,5.3,18.1,8.4,28.7,8.4c26,0,47.8-18.7,52.5-43.5l40,9.7c-5.5,10.4-12.6,20.1-21.3,28.7c-22,21.8-51.3,33.9-82.3,33.9
	c-4.4,0-8,3.6-8,8s3.6,8,8,8c35.3,0,68.5-13.7,93.6-38.5c10.8-10.7,19.5-22.9,26-36.1l35,8.5c-6.8,15.5-16,30-27.4,43
	c-2.8,3.2-2.6,7.9,0.4,10.9l108.3,108.3l-10.6,10.6l-110-106.9c-3.2-3.1-8.2-3-11.3,0.2c-3.1,3.2-3,8.2,0.2,11.3l115.6,112.4
	c1.6,1.5,3.6,2.3,5.6,2.3c2,0,4.1-0.8,5.7-2.3l21.8-21.8c3.1-3.1,3.1-8.2,0-11.3L372.9,344.9c10.9-13.5,19.7-28.3,26.3-44l40,9.7
	c1.8,27.8,25,49.9,53.3,49.9c4.4,0,8-3.6,8-8S497,344.5,492.5,344.5z M240.1,302.4c-8.8,0-17-3.1-23.4-8.2c-0.3-0.3-0.6-0.5-0.9-0.8
	c-8-6.9-13.1-17-13.1-28.4c0-20.6,16.8-37.4,37.4-37.4s37.4,16.8,37.4,37.4S260.7,302.4,240.1,302.4z M293.1,258.7
	c-3.2-26.4-25.7-47-53-47c-11.2,0-21.6,3.5-30.1,9.4l-61.3-72.4c-0.5-0.6-1.1-1.1-1.7-1.5c21.1-20.8,50.1-33.7,82.1-33.7
	c64.5,0,116.9,52.5,116.9,116.9c0,13.7-2.3,27-6.8,39.5L293.1,258.7z M354.7,273.6c4.7-13.8,7.2-28.4,7.2-43.3
	c0-73.3-59.6-132.9-132.9-132.9S96.1,157,96.1,230.3c0,4.4,3.6,8,8,8h74.4c4.4,0,8-3.6,8-8s-3.6-8-8-8h-66.1
	c1.6-23.8,10.4-45.6,24.1-63.4l61.8,73c-7.2,9.1-11.6,20.6-11.6,33.1c0,13.1,4.7,25,12.5,34.3l-74.1,61.3
	c-38.3-30.8-62.9-78-62.9-130.8c0-92.5,75.2-167.7,167.7-167.7s167.7,75.2,167.7,167.7c0,17.9-2.9,35.5-8.4,52.2L354.7,273.6z
	 M57.2,135.7c-10.2-9.9-15.9-23.3-16.1-37.6c-0.2-14.3,5.2-27.8,15.1-38C66.2,50,79.5,44.3,93.8,44.1c14.3-0.2,27.8,5.2,38,15.1
	c3.2,3.1,3.2,8.1,0.1,11.3c-3.1,3.2-8.1,3.2-11.3,0.1c-14.8-14.4-38.5-14.1-52.9,0.7C60.8,78.4,57,87.9,57.2,97.9
	c0.1,10,4.1,19.4,11.2,26.3c3.2,3.1,3.2,8.1,0.1,11.3c-1.6,1.6-3.6,2.4-5.7,2.4C60.8,137.9,58.8,137.2,57.2,135.7z"></path>
<path fill="#FFA4ED" class="primary-color" d="M123.2,451.2h86.2l-43.1,43.1L123.2,451.2z"></path>
<path fill="#000000" d="M182.9,299.9c0,4.4-3.6,8-8,8h-40.8c-4.4,0-8-3.6-8-8s3.6-8,8-8h40.8C179.3,291.9,182.9,295.5,182.9,299.9z
	 M355.5,426.2h-43c-4.4,0-8,3.6-8,8s3.6,8,8,8h43c4.4,0,8-3.6,8-8S359.9,426.2,355.5,426.2z M334,456.2h-73.8c-4.4,0-8,3.6-8,8
	s3.6,8,8,8H334c4.4,0,8-3.6,8-8S338.4,456.2,334,456.2z M429.7,23.5c-4.4,0-8,3.6-8,8c0,11.4-9.3,20.8-20.8,20.8c-4.4,0-8,3.6-8,8
	s3.6,8,8,8c20.3,0,36.8-16.5,36.8-36.8C437.7,27,434.2,23.5,429.7,23.5z M479.7,68.2c4.4,0,8-3.6,8-8s-3.6-8-8-8
	c-11.4,0-20.8-9.3-20.8-20.8c0-4.4-3.6-8-8-8s-8,3.6-8,8C443,51.7,459.5,68.2,479.7,68.2z M479.7,73.5c-20.3,0-36.8,16.5-36.8,36.8
	c0,4.4,3.6,8,8,8s8-3.6,8-8c0-11.4,9.3-20.8,20.8-20.8c4.4,0,8-3.6,8-8S484.2,73.5,479.7,73.5z M401,73.5c-4.4,0-8,3.6-8,8
	s3.6,8,8,8c11.4,0,20.8,9.3,20.8,20.8c0,4.4,3.6,8,8,8s8-3.6,8-8C437.7,89.9,421.3,73.5,401,73.5z M465.4,175.2
	c-5.9,0-10.8,4.8-10.8,10.8s4.8,10.8,10.8,10.8s10.8-4.8,10.8-10.8S471.3,175.2,465.4,175.2z M31.4,303c-5.9,0-10.8,4.8-10.8,10.8
	s4.8,10.8,10.8,10.8c5.9,0,10.8-4.8,10.8-10.8S37.4,303,31.4,303z M376.8,470.4c-5.9,0-10.8,4.8-10.8,10.8c0,5.9,4.8,10.8,10.8,10.8
	s10.8-4.8,10.8-10.8C387.5,475.2,382.7,470.4,376.8,470.4z"></path>
</svg>