<svg version="1.1" id="Layer_1" xmlns="http://www.w3.org/2000/svg" xmlns:xlink="http://www.w3.org/1999/xlink" x="0px" y="0px" viewBox="0 0 512 512" enable-background="new 0 0 512 512" xml:space="preserve">
<linearGradient id="SVGID_1_" gradientUnits="userSpaceOnUse" x1="331.9771" y1="272.5376" x2="334.2508" y2="51.9902" class="gradient-element">
	<stop offset="0" class="primary-color-gradient" style="stop-color: #FFA4ED"></stop>
	<stop offset="1" class="secondary-color-gradient" style="stop-color: #DB81DA"></stop>
</linearGradient>
<path fill="url(#SVGID_1_)" d="M442.4,225.6h-11.5h-12.3H406c0.3,2,0.4,4.1,0.4,6.1c0,23.6-19.2,42.9-42.9,42.9
	c-23.6,0-42.9-19.2-42.9-42.9c0-2.1,0.1-4.1,0.4-6.1h-37.2c-6.8,0-12.3-5.5-12.3-12.3v-24.9c-2,0.3-4.1,0.4-6.1,0.4
	c-23.6,0-42.9-19.2-42.9-42.9s19.2-42.9,42.9-42.9c2.1,0,4.1,0.1,6.1,0.4V78.6V66.3V54.6c4-0.3,8.1-0.5,12.3-0.5
	c4.1,0,8.2,0.3,12.3,0.6c4.6,0.4,9.1,0.9,13.6,1.7c0.4,0.1,0.9,0.1,1.3,0.2c4.3,0.7,8.5,1.7,12.6,2.7c0.6,0.2,1.2,0.3,1.7,0.5
	c4,1.1,8,2.3,11.9,3.7c0.6,0.2,1.2,0.4,1.8,0.6c3.9,1.4,7.8,3,11.5,4.8c0.5,0.2,1,0.5,1.5,0.7c3.8,1.8,7.6,3.8,11.3,5.9
	c0.2,0.1,0.4,0.2,0.6,0.3c23.6,13.8,43.3,33.4,57.2,57c0.3,0.4,0.5,0.9,0.8,1.3c2,3.4,3.8,7,5.5,10.6c0.4,0.8,0.7,1.5,1.1,2.3
	c1.6,3.5,3.1,7.1,4.4,10.7c0.3,0.9,0.7,1.8,1,2.7c1.3,3.6,2.4,7.3,3.4,11c0.3,1,0.5,1.9,0.7,2.9c1,3.8,1.8,7.6,2.5,11.5
	c0.2,0.9,0.3,1.8,0.4,2.6c0.6,4,1.2,8.1,1.5,12.3c0.3,4.2,0.6,8.4,0.6,12.6C443.2,217.5,442.8,221.5,442.4,225.6z"></path>
<path d="M394.2,478.6h-24.5c-4.4,0-8-3.6-8-8s3.6-8,8-8h16.5V328.5c0-2,0.8-4,2.2-5.5l8.4-8.9c20.3-22.7,33.1-50.7,37.1-80.5h-19.4
	c-1,27.2-23.4,49-50.8,49c-27.4,0-49.9-21.8-50.8-49h-28.8c-11.2,0-20.3-9.1-20.3-20.3v-16.5c-27.2-1-49-23.4-49-50.8
	s21.8-49.9,49-50.8V79.2c0-4.4,3.6-8,8-8s8,3.6,8,8v24.3c0,2.3-1,4.5-2.8,6c-1.8,1.5-4.1,2.2-6.4,1.9c-1.6-0.2-3.3-0.4-5-0.4
	c-19.2,0-34.9,15.6-34.9,34.9s15.6,34.9,34.9,34.9c1.7,0,3.3-0.1,5-0.4c2.3-0.3,4.6,0.3,6.4,1.9c1.8,1.5,2.8,3.7,2.8,6v24.9
	c0,2.3,1.9,4.3,4.3,4.3h37.2c2.3,0,4.5,1,6.1,2.8c1.5,1.8,2.2,4.1,1.9,6.4c-0.2,1.6-0.4,3.3-0.4,5c0,19.2,15.6,34.9,34.9,34.9
	c19.2,0,34.9-15.6,34.9-34.9c0-1.7-0.1-3.4-0.4-5c-0.3-2.3,0.3-4.6,1.9-6.4c1.5-1.8,3.7-2.8,6.1-2.8h29.1c0-1.4,0.1-2.8,0.1-4.3
	c0-3.9-0.3-7.8-0.6-11.6c-0.3-4.4,3-8.3,7.4-8.6c4.4-0.3,8.3,3,8.6,7.4c0.3,4.1,0.6,8.4,0.6,12.9c0,41.2-15.1,80.8-42.6,111.5
	c0,0.1-0.1,0.1-0.1,0.2l-6.3,6.6v139C402.2,475.1,398.6,478.6,394.2,478.6z M234.9,478.6c-4.4,0-8-3.6-8-8v-41h-53.3
	c-31.4,0-57-25.6-57-57v-41H87.9c-7.2,0-13.9-3.9-17.5-10.1c-3.6-6.2-3.6-14-0.1-20.2l46.3-81.1v-6.9c0-92.2,75-167.3,167.3-167.3
	c37.8,0,74.9,13,104.4,36.7c29,23.3,49.7,55.9,58.2,91.9c1,4.3-1.6,8.6-5.9,9.6c-4.3,1-8.6-1.6-9.6-5.9
	c-16.3-68.5-76.7-116.4-147-116.4c-83.4,0-151.3,67.9-151.3,151.3v9c0,1.4-0.4,2.8-1.1,4l-47.4,82.9c-0.7,1.3-0.7,2.9,0,4.2
	c0.8,1.3,2.2,2.1,3.7,2.1h36.8c4.4,0,8,3.6,8,8v49c0,22.6,18.4,41,41,41h61.3c4.4,0,8,3.6,8,8v49
	C242.9,475.1,239.3,478.6,234.9,478.6z M179.8,258.1c-14.5,0-26.4-11.8-26.4-26.4c0-14.5,11.8-26.4,26.4-26.4
	c14.5,0,26.4,11.8,26.4,26.4C206.2,246.3,194.3,258.1,179.8,258.1z M179.8,221.4c-5.7,0-10.4,4.7-10.4,10.4s4.7,10.4,10.4,10.4
	c5.7,0,10.4-4.7,10.4-10.4S185.5,221.4,179.8,221.4z"></path>
<path d="M108.4,123.7H67.5c-4.4,0-8-3.6-8-8s3.6-8,8-8h40.8c4.4,0,8,3.6,8,8S112.8,123.7,108.4,123.7z M94.5,423c0-4.4-3.6-8-8-8
	h-43c-4.4,0-8,3.6-8,8s3.6,8,8,8h43C90.9,431,94.5,427.4,94.5,423z M146.8,478.3c0-4.4-3.6-8-8-8H65c-4.4,0-8,3.6-8,8s3.6,8,8,8
	h73.8C143.2,486.3,146.8,482.7,146.8,478.3z M447.2,24.4c0-4.4-3.6-8-8-8s-8,3.6-8,8c0,11.4-9.3,20.8-20.8,20.8c-4.4,0-8,3.6-8,8
	s3.6,8,8,8C430.7,61.2,447.2,44.7,447.2,24.4z M497.2,53.2c0-4.4-3.6-8-8-8c-11.4,0-20.8-9.3-20.8-20.8c0-4.4-3.6-8-8-8s-8,3.6-8,8
	c0,20.3,16.5,36.8,36.8,36.8C493.6,61.2,497.2,57.6,497.2,53.2z M468.5,103.2c0-11.4,9.3-20.8,20.8-20.8c4.4,0,8-3.6,8-8s-3.6-8-8-8
	c-20.3,0-36.8,16.5-36.8,36.8c0,4.4,3.6,8,8,8S468.5,107.6,468.5,103.2z M447.2,103.2c0-20.3-16.5-36.8-36.8-36.8c-4.4,0-8,3.6-8,8
	s3.6,8,8,8c11.4,0,20.8,9.3,20.8,20.8c0,4.4,3.6,8,8,8S447.2,107.6,447.2,103.2z M475,151.5c-5.9,0-10.8,4.8-10.8,10.8
	c0,5.9,4.8,10.8,10.8,10.8s10.8-4.8,10.8-10.8C485.7,156.3,480.9,151.5,475,151.5z M30.3,302.1c-5.9,0-10.8,4.8-10.8,10.8
	c0,5.9,4.8,10.8,10.8,10.8s10.8-4.8,10.8-10.8C41.1,306.9,36.2,302.1,30.3,302.1z M449.9,436.3c-5.9,0-10.8,4.8-10.8,10.8
	c0,5.9,4.8,10.8,10.8,10.8c5.9,0,10.8-4.8,10.8-10.8C460.6,441.2,455.8,436.3,449.9,436.3z"></path>
<path fill="#DB81DA" class="secondary-color" d="M79,22.7L18.1,83.6V22.7H79z"></path>
</svg>