<svg version="1.1" id="Layer_1" xmlns="http://www.w3.org/2000/svg" xmlns:xlink="http://www.w3.org/1999/xlink" x="0px" y="0px" viewBox="0 0 512 512" enable-background="new 0 0 512 512" xml:space="preserve">
<path d="M105.1,257.3c0,4.4-3.6,8-8,8H81.3v15.8c0,4.4-3.6,8-8,8s-8-3.6-8-8v-15.8H49.5c-4.4,0-8-3.6-8-8s3.6-8,8-8h15.8v-15.8
	c0-4.4,3.6-8,8-8s8,3.6,8,8v15.8h15.8C101.5,249.3,105.1,252.9,105.1,257.3z M44.8,74C65,74,81.5,57.5,81.5,37.3c0-4.4-3.6-8-8-8
	s-8,3.6-8,8c0,11.4-9.3,20.8-20.8,20.8c-4.4,0-8,3.6-8,8S40.3,74,44.8,74z M123.5,58c-11.4,0-20.8-9.3-20.8-20.8c0-4.4-3.6-8-8-8
	s-8,3.6-8,8c0,20.3,16.5,36.8,36.8,36.8c4.4,0,8-3.6,8-8S127.9,58,123.5,58z M123.5,79.3c-20.3,0-36.8,16.5-36.8,36.8
	c0,4.4,3.6,8,8,8s8-3.6,8-8c0-11.4,9.3-20.8,20.8-20.8c4.4,0,8-3.6,8-8S127.9,79.3,123.5,79.3z M65.5,116c0,4.4,3.6,8,8,8s8-3.6,8-8
	c0-20.3-16.5-36.8-36.8-36.8c-4.4,0-8,3.6-8,8s3.6,8,8,8C56.2,95.3,65.5,104.6,65.5,116z M437.9,108H434v-3.9c0-4.4-3.6-8-8-8
	s-8,3.6-8,8v3.9h-3.9c-4.4,0-8,3.6-8,8s3.6,8,8,8h3.9v3.9c0,4.4,3.6,8,8,8s8-3.6,8-8V124h3.9c4.4,0,8-3.6,8-8S442.3,108,437.9,108z"></path>
<g>
	<path fill="#DB81DA" class="secondary-color" d="M491.1,86.8l-60.9-60.9h60.9V86.8z"></path>
	<path fill="#DB81DA" class="secondary-color" d="M469.6,372.1H440V164.9h29.6V372.1z"></path>
</g>
<linearGradient id="SVGID_1_" gradientUnits="userSpaceOnUse" x1="253.3585" y1="470.7372" x2="251.8427" y2="82.6951" class="gradient-element">
	<stop offset="0" class="primary-color-gradient" style="stop-color: #FFA4ED"></stop>
	<stop offset="1" class="secondary-color-gradient" style="stop-color: #DB81DA"></stop>
</linearGradient>
<path fill="url(#SVGID_1_)" d="M452.6,481.1H54.2l1.9-13.2c10.7-75.2,38.7-86.6,77.2-102.6c5-2,10.1-4.2,15.6-6.5
	c2.2-0.9,4.4-2,6.7-3c15.3-7.1,24.9-12.2,30.7-16.8c2.1,5.6,5.5,13.1,10.8,20.7c10.2,14.4,27.6,28.6,56.3,28.6
	c28.7,0,46.1-14.2,56.3-28.6c5.3-7.6,8.7-15.1,10.8-20.7c5.8,4.7,15.3,9.8,30.7,16.8c2.3,1,4.5,2,6.7,3c5.5,2.3,10.6,4.5,15.6,6.5
	c38.6,15.9,66.6,27.4,77.2,102.6L452.6,481.1z M253.4,295.3c-32,0-58.1-26.1-58.1-58.1v-92.9c0-36.4,21.7-58.1,58.1-58.1
	c35.3,0,58.1,20.5,58.1,52.1v98.9C311.5,269.2,285.4,295.3,253.4,295.3z"></path>
<path d="M461.9,489.1H44.9l3.2-22.4c11.4-79.7,42.6-92.6,82.1-108.8c7-2.9,14.2-5.8,22-9.4c35.1-16.2,35.1-19.9,35.1-30v-8h31.2
	c4.4,0,8,3.6,8,8s-3.6,8-8,8h-15.8c-2.5,15.3-13.7,22.6-43.8,36.5c-8.1,3.7-15.8,6.9-22.5,9.7C98.8,388.2,74.1,398.3,64,469
	l-0.6,4.1h380l-0.6-4.1c-10.1-70.6-34.9-80.8-72.4-96.3l-1.1-0.4c-6.8-2.8-13.8-5.7-21.5-9.3c-30.1-13.9-41.3-21.3-43.8-36.5h-15.8
	c-4.4,0-8-3.6-8-8s3.6-8,8-8h31.2v8c0,10.1,0,13.8,35.1,30c7.4,3.4,14.3,6.3,20.9,9l1,0.4c39.5,16.3,70.7,29.1,82.1,108.8
	L461.9,489.1z M265,373h-31.2v-31.2c0-4.4,3.6-8,8-8s8,3.6,8,8V357H265c4.4,0,8,3.6,8,8S269.4,373,265,373z M273,326.5h-39.2v-8
	c0-70.2,31.9-96,57.5-116.7c21.4-17.3,35.5-28.8,35.5-63.4c0-39.7-30.1-67.4-73.3-67.4c-45.2,0-73.3,28.1-73.3,73.3c0,4.4-3.6,8-8,8
	s-8-3.6-8-8c0-26.4,8.5-48.8,24.5-64.8c16-16,38.4-24.5,64.8-24.5c25.2,0,47.9,8.2,64,23.2c16.3,15.1,25.3,36.5,25.3,60.2
	c0,42.3-19.2,57.9-41.4,75.9c-24.2,19.6-49.2,39.9-51.4,96.3h7.2c2.1-53,25.8-72.1,48.7-90.7c21.7-17.6,44.1-35.7,44.1-81.5
	c0-52.5-40.6-90.6-96.5-90.6c-57.7,0-96.5,38.8-96.5,96.5c0,4.4-3.6,8-8,8s-8-3.6-8-8c0-32.8,10.8-61,31.2-81.4
	c20.4-20.4,48.5-31.2,81.4-31.2c31.3,0,59.9,10.7,80.5,30.1c20.7,19.5,32.1,46.7,32.1,76.5c0,53.4-27.7,75.9-50,93.9
	c-23,18.7-42.9,34.8-42.9,86.3V326.5z"></path>
</svg>