<svg version="1.1" id="Layer_1" xmlns="http://www.w3.org/2000/svg" xmlns:xlink="http://www.w3.org/1999/xlink" x="0px" y="0px" viewBox="0 0 512 512" enable-background="new 0 0 512 512" xml:space="preserve">
<linearGradient id="SVGID_1_" gradientUnits="userSpaceOnUse" x1="267.2233" y1="355.2524" x2="271.5005" y2="10.9355" class="gradient-element">
	<stop offset="0" class="primary-color-gradient" style="stop-color: #FFA4ED"></stop>
	<stop offset="1" class="secondary-color-gradient" style="stop-color: #DB81DA"></stop>
</linearGradient>
<path fill="url(#SVGID_1_)" d="M234.3,273.5v25.1c-40.6-14.3-69.8-53.2-69.8-98.7c0-57.7,47-104.7,104.7-104.7s104.7,47,104.7,104.7
	c0,45.5-29.2,84.3-69.8,98.7v-25.1c27.5-13,46.5-41.1,46.5-73.5c0-44.9-36.5-81.4-81.4-81.4c-44.9,0-81.4,36.5-81.4,81.4
	C187.7,232.4,206.8,260.5,234.3,273.5z M117.9,200c0-83.4,67.8-151.2,151.2-151.2S420.4,116.6,420.4,200
	c0,71.4-49.7,131.3-116.3,147.2V371c79.6-16.2,139.6-86.8,139.6-171c0-96.2-78.3-174.5-174.5-174.5c-96.2,0-174.5,78.3-174.5,174.5
	c0,84.2,60,154.8,139.6,171v-23.8C167.6,331.3,117.9,271.4,117.9,200z"></path>
<path d="M304,379c-3.7,0-7.1-2.6-7.8-6.4c-0.9-4.3,1.9-8.6,6.2-9.4c77.2-15.7,133.2-84.3,133.2-163.2c0-91.8-74.7-166.5-166.5-166.5
	c-4.4,0-8-3.6-8-8s3.6-8,8-8c100.6,0,182.5,81.9,182.5,182.5c0,86.4-61.4,161.7-146,178.9C305.1,378.9,304.6,379,304,379z
	 M234.3,355.1c-0.6,0-1.2-0.1-1.9-0.2c-34.3-8.1-65.4-27.9-87.6-55.5c-22.5-28.1-34.9-63.4-34.9-99.4c0-87.8,71.4-159.2,159.2-159.2
	c4.4,0,8,3.6,8,8s-3.6,8-8,8c-79,0-143.2,64.3-143.2,143.2c0,66.7,45.3,124,110.2,139.4c4.3,1,7,5.3,5.9,9.6
	C241.2,352.7,237.9,355.1,234.3,355.1z M234.3,306.6c-0.9,0-1.8-0.1-2.7-0.5c-44.9-15.8-75.1-58.5-75.1-106.2
	c0-62.1,50.6-112.7,112.7-112.7c4.4,0,8,3.6,8,8s-3.6,8-8,8c-53.3,0-96.7,43.4-96.7,96.7c0,40.9,25.9,77.5,64.5,91.1
	c4.2,1.5,6.4,6,4.9,10.2C240.6,304.6,237.5,306.6,234.3,306.6z M304.1,281.5c-3,0-5.9-1.7-7.2-4.6c-1.9-4-0.2-8.8,3.8-10.7
	c25.5-12.1,42-38.1,42-66.3c0-40.5-32.9-73.4-73.4-73.4c-4.4,0-8-3.6-8-8s3.6-8,8-8c49.3,0,89.4,40.1,89.4,89.4
	c0,34.3-20.1,66-51.1,80.8C306.4,281.2,305.2,281.5,304.1,281.5z M373.9,475.5H164.4c-4.4,0-8-3.6-8-8v-23.3c0-4.4,3.6-8,8-8h85.1
	V224.2c-7.3-5.9-11.6-14.8-11.6-24.2c0-17.2,14-31.3,31.3-31.3s31.3,14,31.3,31.3c0,9.4-4.4,18.3-11.6,24.2V371c0,4.4-3.6,8-8,8
	s-8-3.6-8-8V220c0-2.8,1.5-5.5,4-6.9c4.8-2.8,7.7-7.7,7.7-13.1c0-8.4-6.8-15.3-15.3-15.3s-15.3,6.8-15.3,15.3
	c0,5.4,2.9,10.3,7.7,13.1c2.5,1.4,4,4.1,4,6.9v224.3c0,4.4-3.6,8-8,8h-85.1v7.3h201.4c4.4,0,8,3.6,8,8S378.3,475.5,373.9,475.5z
	 M373.9,452.3h-93.1c-4.4,0-8-3.6-8-8V402c0-4.4,3.6-8,8-8s8,3.6,8,8v34.3h85.1c4.4,0,8,3.6,8,8S378.3,452.3,373.9,452.3z"></path>
<g>
	<path fill="#DB81DA" class="secondary-color" d="M74.3,489.5V385.5h34v104.1H74.3z"></path>
	<path fill="#FFA4ED" class="primary-color" d="M34.2,489.5V385.5h34v104.1H34.2z"></path>
</g>
<path d="M146.2,285.1H37.9c-4.4,0-8-3.6-8-8s3.6-8,8-8h108.3c4.4,0,8,3.6,8,8S150.6,285.1,146.2,285.1z M330.9,401.8
	c0-4.4-3.6-8-8-8H281c-4.4,0-8,3.6-8,8s3.6,8,8,8h41.9C327.3,409.8,330.9,406.2,330.9,401.8z M407.6,377.9c0-4.4-3.6-8-8-8h-73.8
	c-4.4,0-8,3.6-8,8s3.6,8,8,8h73.8C404,385.9,407.6,382.4,407.6,377.9z M88.1,62.5c0-4.4-3.6-8-8-8H32.5c-4.4,0-8,3.6-8,8s3.6,8,8,8
	h47.6C84.5,70.5,88.1,67,88.1,62.5z M64.3,86.3V38.8c0-4.4-3.6-8-8-8s-8,3.6-8,8v47.6c0,4.4,3.6,8,8,8S64.3,90.7,64.3,86.3z
	 M444.4,37.2c-5.9,0-10.8,4.8-10.8,10.8s4.8,10.8,10.8,10.8c5.9,0,10.8-4.8,10.8-10.8S450.3,37.2,444.4,37.2z M397.4,37.2
	c-5.9,0-10.8,4.8-10.8,10.8s4.8,10.8,10.8,10.8c5.9,0,10.8-4.8,10.8-10.8S403.4,37.2,397.4,37.2z"></path>
</svg>