<svg version="1.1" id="Layer_1" xmlns="http://www.w3.org/2000/svg" xmlns:xlink="http://www.w3.org/1999/xlink" x="0px" y="0px" viewBox="0 0 512 512" enable-background="new 0 0 512 512" xml:space="preserve">
<linearGradient id="SVGID_1_" gradientUnits="userSpaceOnUse" x1="286.7717" y1="475.9237" x2="283.9203" y2="170.8148" class="gradient-element">
	<stop offset="0" class="primary-color-gradient" style="stop-color: #FFA4ED"></stop>
	<stop offset="1" class="secondary-color-gradient" style="stop-color: #DB81DA"></stop>
</linearGradient>
<path fill="url(#SVGID_1_)" d="M191.4,211.4h188c15.9,0,28.7,12.9,28.7,28.7v188c0,15.9-12.9,28.7-28.7,28.7h-188
	c-15.9,0-28.7-12.9-28.7-28.7v-188C162.7,224.2,175.6,211.4,191.4,211.4z"></path>
<path d="M408.2,464.8h-290c-4.4,0-8-3.6-8-8V206.1c0-2.4,1.1-4.6,2.9-6.1l57.1-47.6h-7.3c-4.4,0-8-3.6-8-8V77.5c0-4.4,3.6-8,8-8
	h200.8c4.4,0,8,3.6,8,8v66.9c0,4.4-3.6,8-8,8h-7.3l57.1,47.6c1.8,1.5,2.9,3.8,2.9,6.1v144.7c0,4.4-3.6,8-8,8s-8-3.6-8-8V209.9
	l-64.1-53.4c-1.8-1.5-2.9-3.8-2.9-6.1v-5.9c0-4.4,3.6-8,8-8h14.3V85.5H170.7v50.9h148.2c4.4,0,8,3.6,8,8s-3.6,8-8,8H192.8
	c-0.4,1.6-1.3,3-2.6,4.1l-64.1,53.4v238.9h274v-68c0-4.4,3.6-8,8-8s8,3.6,8,8v76C416.2,461.2,412.6,464.8,408.2,464.8z M263.1,397.8
	c-59.8,0-108.4-48.6-108.4-108.4S203.4,181,263.1,181s108.4,48.6,108.4,108.4S322.9,397.8,263.1,397.8z M263.1,197
	c-50.9,0-92.4,41.5-92.4,92.4s41.5,92.4,92.4,92.4s92.4-41.5,92.4-92.4S314.1,197,263.1,197z M263.1,330.9
	c-13.2,0-25.8-6.4-33.6-17.2c-2.6-3.6-1.8-8.6,1.8-11.2c3.6-2.6,8.6-1.8,11.2,1.8c4.8,6.6,12.5,10.6,20.7,10.6
	c8.1,0,15.8-3.9,20.6-10.5c2.6-3.6,7.6-4.3,11.2-1.7c3.6,2.6,4.3,7.6,1.7,11.2C288.8,324.6,276.3,330.9,263.1,330.9z M302.2,297.4
	c-13.6,0-24.7-11.1-24.7-24.7s11.1-24.7,24.7-24.7s24.7,11.1,24.7,24.7S315.8,297.4,302.2,297.4z M302.2,264c-4.8,0-8.7,3.9-8.7,8.7
	s3.9,8.7,8.7,8.7s8.7-3.9,8.7-8.7S307,264,302.2,264z M224.1,297.4c-13.6,0-24.7-11.1-24.7-24.7s11.1-24.7,24.7-24.7
	s24.7,11.1,24.7,24.7S237.7,297.4,224.1,297.4z M224.1,264c-4.8,0-8.7,3.9-8.7,8.7s3.9,8.7,8.7,8.7s8.7-3.9,8.7-8.7
	S228.9,264,224.1,264z"></path>
<path d="M482.6,350.8c0,4.4-3.6,8-8,8h-43c-4.4,0-8-3.6-8-8s3.6-8,8-8h43C479,342.8,482.6,346.4,482.6,350.8z M69.5,403.9H53.7
	v-15.8c0-4.4-3.6-8-8-8s-8,3.6-8,8v15.8H22c-4.4,0-8,3.6-8,8s3.6,8,8,8h15.8v15.8c0,4.4,3.6,8,8,8s8-3.6,8-8v-15.8h15.8
	c4.4,0,8-3.6,8-8S73.9,403.9,69.5,403.9z M393.6,74.9c20.3,0,36.8-16.5,36.8-36.8c0-4.4-3.6-8-8-8s-8,3.6-8,8
	c0,11.4-9.3,20.8-20.8,20.8c-4.4,0-8,3.6-8,8S389.2,74.9,393.6,74.9z M472.3,74.9c4.4,0,8-3.6,8-8s-3.6-8-8-8
	c-11.4,0-20.8-9.3-20.8-20.8c0-4.4-3.6-8-8-8s-8,3.6-8,8C435.6,58.4,452.1,74.9,472.3,74.9z M443.6,124.9c4.4,0,8-3.6,8-8
	c0-11.4,9.3-20.8,20.8-20.8c4.4,0,8-3.6,8-8s-3.6-8-8-8c-20.3,0-36.8,16.5-36.8,36.8C435.6,121.3,439.2,124.9,443.6,124.9z
	 M393.6,96.1c11.4,0,20.8,9.3,20.8,20.8c0,4.4,3.6,8,8,8s8-3.6,8-8c0-20.3-16.5-36.8-36.8-36.8c-4.4,0-8,3.6-8,8
	S389.2,96.1,393.6,96.1z M475.6,429.1c-3.1-3.1-8.2-3.1-11.3,0l-11.2,11.2l-11.2-11.2c-3.1-3.1-8.2-3.1-11.3,0
	c-3.1,3.1-3.1,8.2,0,11.3l11.2,11.2l-11.2,11.2c-3.1,3.1-3.1,8.2,0,11.3c1.6,1.6,3.6,2.3,5.7,2.3s4.1-0.8,5.7-2.3l11.2-11.2
	l11.2,11.2c1.6,1.6,3.6,2.3,5.7,2.3s4.1-0.8,5.7-2.3c3.1-3.1,3.1-8.2,0-11.3l-11.2-11.2l11.2-11.2
	C478.7,437.3,478.7,432.2,475.6,429.1z M35,111.3c5.9,0,10.8-4.8,10.8-10.8S40.9,89.8,35,89.8s-10.8,4.8-10.8,10.8
	S29.1,111.3,35,111.3z M78.6,231.5c0,14.6-11.8,26.4-26.4,26.4S25.8,246,25.8,231.5s11.8-26.4,26.4-26.4S78.6,216.9,78.6,231.5z
	 M62.6,231.5c0-5.7-4.7-10.4-10.4-10.4s-10.4,4.7-10.4,10.4s4.7,10.4,10.4,10.4S62.6,237.2,62.6,231.5z M161.1,24.2h-43
	c-4.4,0-8,3.6-8,8s3.6,8,8,8h43c4.4,0,8-3.6,8-8S165.5,24.2,161.1,24.2z M139.6,54.2H65.8c-4.4,0-8,3.6-8,8s3.6,8,8,8h73.8
	c4.4,0,8-3.6,8-8S144,54.2,139.6,54.2z M451.7,380.8c0-4.4-3.6-8-8-8h-73.8c-4.4,0-8,3.6-8,8s3.6,8,8,8h73.8
	C448.1,388.8,451.7,385.2,451.7,380.8z"></path>
</svg>