<svg version="1.1" id="Layer_1" xmlns="http://www.w3.org/2000/svg" xmlns:xlink="http://www.w3.org/1999/xlink" x="0px" y="0px" viewBox="0 0 512 512" enable-background="new 0 0 512 512" xml:space="preserve">
<linearGradient id="SVGID_1_" gradientUnits="userSpaceOnUse" x1="275.9398" y1="462.8863" x2="275.9398" y2="42.6904" class="gradient-element">
	<stop offset="0" class="primary-color-gradient" style="stop-color: #FFA4ED"></stop>
	<stop offset="1" class="secondary-color-gradient" style="stop-color: #DB81DA"></stop>
</linearGradient>
<path fill-rule="evenodd" clip-rule="evenodd" fill="url(#SVGID_1_)" d="M124.4,402.1c-8.8-15.1,2.1-34,19.5-34h47.6
	c39.8,0,72-32.2,72-72v-75c0-41.6,33.1-76.2,74.7-77c0.6,0,1.3,0,1.9,0c27.6,0,62.8,22.8,83.6,48.8l-20.4,14.6
	c-1.9,1.7-3.7,3.5-5.3,5.4c-6.9,7.6-12.2,16-15.9,24.7c-17.2,40.9,0.4,90.3,48.6,108.5l0,0c-9.5,21-14.5,34.3-26.8,52.9
	c-17,26-41,58.6-70.8,58.6c-38.5,0-33.7-21.1-69.7-20.9c-35.9,0.2-34.3,20.9-69.7,20.9C164,457.5,141.4,428,124.4,402.1L124.4,402.1
	z M319.8,119.1c13.3-17,24-41,20.3-65.6L256.5,151C280.1,151.7,305.6,137.3,319.8,119.1L319.8,119.1z"></path>
<path d="M84.5,245c0.5,0.1,1.1,0.2,1.6,0.2c3.7,0,7-2.6,7.8-6.4c2.8-13.7,7.5-25.6,13.8-35.3c20-30.8,51.7-51.4,79-51.4
	c20.1,0,31.4,5.6,42.3,11c9.7,4.8,19.8,9.9,34.3,9.9c14.8,0,25.7-5.2,36.3-10.2c11.2-5.3,22.7-10.7,40.4-10.7
	c23.2,0,56.4,19.7,77.4,45.8c2.8,3.4,7.8,4,11.2,1.2c3.4-2.8,4-7.8,1.2-11.2c-20.6-25.7-58.1-51.8-89.8-51.8c-13.5,0-24,2.6-33,6
	c7.1-5.1,13.6-11.2,18.9-18.1c17.4-22.3,25.4-48.5,21.9-71.7c-0.6-4.1-4.3-7.1-8.5-6.8c-23.9,1.7-51.9,16.5-68.1,36.1
	c-18.3,22.3-26.9,48.8-22.8,70.8c0.1,0.8,0.4,1.5,0.7,2.1c-4.3-1.5-8.5-3.5-13.1-5.8c-12-6-25.6-12.7-49.4-12.7
	c-33,0-69.3,23-92.4,58.7c-7.4,11.5-12.9,25.2-16.1,40.8C77.4,239.9,80.2,244.1,84.5,245z M283.8,91.8c11.6-14.1,31.2-25.6,49-29.2
	c0.3,23.5-13.1,43.6-19.4,51.6v0c-12.1,15.6-31.8,26.7-49.8,28.6C262.8,119.4,278.6,98.2,283.8,91.8z M437.9,349.3
	c-1.6,3.6-3.1,6.9-4.5,10.1c-6.9,15.6-12.4,27.9-22.9,43.9c-20.2,30.8-45.2,62.2-77.4,62.2c-21.9,0-31.8-6.4-40.5-12.1
	c-7.7-5-13.8-8.9-29.1-8.8c-15.7,0.1-22.8,4.4-30.9,9.4c-8.8,5.4-18.9,11.5-38.8,11.5c-32.9,0-56.9-29.8-76.1-59
	c-27.3-41.6-42.6-89.4-42.8-134.5c0-4.4,3.5-8,8-8c4.4,0,8,3.5,8,8c0.3,42.1,14.5,86.8,40.2,125.9c16.8,25.6,37.5,51.8,62.8,51.8
	c15.4,0,22.4-4.3,30.4-9.2c8.9-5.4,19-11.6,39.2-11.7c0.2,0,0.4,0,0.5,0c19.7,0,29.1,6.1,37.3,11.4c7.9,5.1,14.6,9.5,31.8,9.5
	c24.7,0,46.2-27.8,64.1-55c9.8-14.9,14.8-26.1,21.6-41.6c0.4-0.9,0.8-1.8,1.2-2.7c-20.7-9.8-36.6-26-45.3-46.1
	c-9.4-22-9.5-47.4-0.1-69.7c4.1-9.8,10-18.9,17.4-27c1.8-2,3.8-4,5.8-5.9c3.2-3,8.3-2.8,11.3,0.4c3,3.2,2.8,8.3-0.4,11.3
	c-1.7,1.6-3.3,3.2-4.9,4.9c-6.2,6.7-11,14.3-14.4,22.4c-7.7,18.3-7.7,39.2,0,57.2c8,18.6,23.6,33.1,44,40.8c2.1,0.8,3.7,2.4,4.6,4.4
	S438.8,347.3,437.9,349.3z"></path>
<path d="M155.1,269.5c0,4.4-3.6,8-8,8H60.3c-4.4,0-8-3.6-8-8s3.6-8,8-8h86.8C151.5,261.5,155.1,265.1,155.1,269.5z M37.7,249.4h57.4
	c4.4,0,8-3.6,8-8s-3.6-8-8-8H37.7c-4.4,0-8,3.6-8,8S33.3,249.4,37.7,249.4z M474.2,454c-5,0-9,4.1-9,9s4.1,9,9,9s9-4.1,9-9
	S479.2,454,474.2,454z M443.7,454.1c-4.9,0-9,4-9,9s4,9,9,9s9-4,9-9S448.7,454.1,443.7,454.1z M465.1,433.4c0,5,4.1,9,9,9s9-4.1,9-9
	s-4.1-9-9-9S465.1,428.4,465.1,433.4z M170.9,79.6h-59.2c-4.4,0-8,3.6-8,8s3.6,8,8,8h59.2c4.4,0,8-3.6,8-8S175.3,79.6,170.9,79.6z
	 M435.7,111.4c0,4.4,3.6,8,8,8s8-3.6,8-8V95.6h15.8c4.4,0,8-3.6,8-8s-3.6-8-8-8h-15.8V63.8c0-4.4-3.6-8-8-8s-8,3.6-8,8v15.8H420
	c-4.4,0-8,3.6-8,8s3.6,8,8,8h15.8V111.4z M72.8,449.6c4.4,0,8-3.6,8-8s-3.6-8-8-8c-7.2,0-13.7,2.9-18.5,7.5
	c-4.8-4.7-11.3-7.5-18.5-7.5c-4.4,0-8,3.6-8,8s3.6,8,8,8c5.7,0,10.4,4.7,10.4,10.4s-4.7,10.4-10.4,10.4c-4.4,0-8,3.6-8,8s3.6,8,8,8
	c7.2,0,13.7-2.9,18.5-7.5c4.8,4.7,11.3,7.5,18.5,7.5c4.4,0,8-3.6,8-8s-3.6-8-8-8c-5.7,0-10.4-4.7-10.4-10.4S67.1,449.6,72.8,449.6z
	 M39.3,145.8h3.9v3.9c0,4.4,3.6,8,8,8s8-3.6,8-8v-3.9h3.9c4.4,0,8-3.6,8-8s-3.6-8-8-8h-3.9v-3.9c0-4.4-3.6-8-8-8s-8,3.6-8,8v3.9
	h-3.9c-4.4,0-8,3.6-8,8S34.9,145.8,39.3,145.8z"></path>
</svg>