<svg version="1.1" id="Layer_1" xmlns="http://www.w3.org/2000/svg" xmlns:xlink="http://www.w3.org/1999/xlink" x="0px" y="0px" viewBox="0 0 512 512" enable-background="new 0 0 512 512" xml:space="preserve">
<linearGradient id="SVGID_1_" gradientUnits="userSpaceOnUse" x1="275.9126" y1="488.0446" x2="275.9126" y2="15.6784" class="gradient-element">
	<stop offset="0" class="primary-color-gradient" style="stop-color: #FFA4ED"></stop>
	<stop offset="1" class="secondary-color-gradient" style="stop-color: #DB81DA"></stop>
</linearGradient>
<path fill="url(#SVGID_1_)" d="M340,133.6c3.6-39.1,31.3-69.5,64.9-69.5h0c15.1,0,27.4,12.3,27.4,27.4v323.6c0,23.2-18.8,42-42,42
	H137.4c-9.9,0-17.9-8-18-18c-0.1-29.9,2.7-46.5,63-46.5h112.8c55.1,0,44.4-26.9,44.4-249.7v-0.8C339.6,139.3,339.8,136.4,340,133.6z
	"></path>
<path d="M214.8,264v-32.2c0-4.4,3.6-8,8-8h16.1c4.4,0,8,3.6,8,8s-3.6,8-8,8h-8.1V256h80.5v-16.2h-8.1c-4.4,0-8-3.6-8-8s3.6-8,8-8
	h16.1c4.4,0,8,3.6,8,8V264c0,4.4-3.6,8-8,8h-96.5C218.4,272,214.8,268.5,214.8,264z M222.8,143.4h96.5c4.4,0,8-3.6,8-8v-32.2
	c0-4.4-3.6-8-8-8h-16.1c-4.4,0-8,3.6-8,8s3.6,8,8,8h8.1v16.2h-80.5v-16.2h8.1c4.4,0,8-3.6,8-8s-3.6-8-8-8h-16.1c-4.4,0-8,3.6-8,8
	v32.2C214.8,139.8,218.4,143.4,222.8,143.4z M439.9,87.2v337.7c0,1-0.1,10.2-4.9,19.7c-6.6,13.2-19.1,20.5-35.3,20.5H142.4
	c-1,0-10.2-0.1-19.7-4.9c-13.2-6.6-20.5-19.1-20.5-35.3V87.2c0-1,0.1-10.2,4.9-19.7c6.6-13.2,19.1-20.5,35.3-20.5h257.3
	c1,0,10.2,0.1,19.7,4.9C432.6,58.5,439.9,71,439.9,87.2z M423.9,424.8V323.9H150.2c-4.4,0-8-3.6-8-8s3.6-8,8-8h273.6V190.4H150.2
	c-4.4,0-8-3.6-8-8s3.6-8,8-8h273.6V87.2c0-10.2-3.8-17.1-11.7-21c-6.1-3-12.4-3.2-12.5-3.2H142.4c-10,0-16.8,3.7-20.8,11.3
	c-3.3,6.3-3.4,12.9-3.4,13v337.6c0,10.2,3.8,17.1,11.7,21c6.1,3,12.4,3.2,12.5,3.2h257.3c10,0,16.8-3.7,20.8-11.3
	C423.7,431.5,423.9,424.9,423.9,424.8z M319.3,352.5h-16.1c-4.4,0-8,3.6-8,8s3.6,8,8,8h8.1v16.2h-80.5v-16.2h8.1c4.4,0,8-3.6,8-8
	s-3.6-8-8-8h-16.1c-4.4,0-8,3.6-8,8v32.2c0,4.4,3.6,8,8,8h96.5c4.4,0,8-3.6,8-8v-32.2C327.3,356.1,323.7,352.5,319.3,352.5z"></path>
<path d="M52.3,60.2h-3.9v3.9c0,4.4-3.6,8-8,8s-8-3.6-8-8v-3.9h-3.9c-4.4,0-8-3.6-8-8s3.6-8,8-8h3.9v-3.9c0-4.4,3.6-8,8-8s8,3.6,8,8
	v3.9h3.9c4.4,0,8,3.6,8,8S56.7,60.2,52.3,60.2z M107.5,473.5h-43c-4.4,0-8,3.6-8,8s3.6,8,8,8h43c4.4,0,8-3.6,8-8
	S111.9,473.5,107.5,473.5z M483.1,350.3h-57.4c-4.4,0-8,3.6-8,8s3.6,8,8,8h57.4c4.4,0,8-3.6,8-8S487.5,350.3,483.1,350.3z
	 M473.6,388.4H394c-4.4,0-8,3.6-8,8s3.6,8,8,8h79.5c4.4,0,8-3.6,8-8S478,388.4,473.6,388.4z"></path>
</svg>