<svg version="1.1" id="Layer_1" xmlns="http://www.w3.org/2000/svg" xmlns:xlink="http://www.w3.org/1999/xlink" x="0px" y="0px" viewBox="0 0 512 512" enable-background="new 0 0 512 512" xml:space="preserve">
<linearGradient id="SVGID_1_" gradientUnits="userSpaceOnUse" x1="328.1718" y1="368.2875" x2="328.1718" y2="-228.0313" class="gradient-element">
	<stop offset="0" class="primary-color-gradient" style="stop-color: #FFA4ED"></stop>
	<stop offset="0.3855" class="secondary-color-gradient" style="stop-color: #DB81DA"></stop>
</linearGradient>
<path fill="url(#SVGID_1_)" d="M331.4,367.6c-1.3,7.3-7.2,13.1-15,14.6c-16,3.1-32.4,4.6-48.8,4.6c-9.6,0-19.1-0.5-28.3-1.5
	c6.9-0.7,13.8-1.8,20.6-3.1c7.8-1.5,13.7-7.3,15-14.6c1.3-7.3-2.4-14.6-9.3-18.3l-33.2-18c0.4-1.5,0.7-3,0.7-4.6
	c0-11.6-12.2-21.3-28.3-23.4c-0.6-5.6,0.1-11.6,3.7-16.1c22.4-28.2,69-22.2,79.3-22.2c5,0,10,1.3,14.4,3.6c4.4,2.4,8.1,5.8,10.6,9.9
	l3.8,6.2c-0.6,2-11.2-20.3-41.8-8.8c-15,5.6-13.3,29.1-12.6,31.8c2,7,6.8,12.8,13.4,16.4l9,4.9l37.6,20.3c0.6,0.4,1.3,0.7,1.9,1.2
	C329.6,354.4,332.5,361,331.4,367.6z M267.6,118.1c-0.1,0-0.2,0-0.3,0c-3.8,0-4.5,5.5-0.7,6.4c49.2,11.7,89.5,38.5,111.3,73.1
	c15.3,2.7,26.8,12.7,26.8,24.7c0,7.1-4,13.5-10.5,18.1c0.8,5.2,1.2,10.5,1.2,15.9c0,7.5,0,55.4-27.5,81.6c-3.9,3.7-7.9,6.8-11.9,9.3
	c19.5,13.1,45.9,12.2,68.5-9.3c27.5-26.2,27.5-74,27.5-81.6C451.9,180.1,369.2,118.1,267.6,118.1z"></path>
<path fill="#000000" d="M51.8,60.5h-3.9v3.9c0,4.4-3.6,8-8,8s-8-3.6-8-8v-3.9H28c-4.4,0-8-3.6-8-8s3.6-8,8-8h3.9v-3.9
	c0-4.4,3.6-8,8-8s8,3.6,8,8v3.9h3.9c4.4,0,8,3.6,8,8S56.2,60.5,51.8,60.5z M492.6,448.6h-3.9v-3.9c0-4.4-3.6-8-8-8s-8,3.6-8,8v3.9
	h-3.9c-4.4,0-8,3.6-8,8s3.6,8,8,8h3.9v3.9c0,4.4,3.6,8,8,8s8-3.6,8-8v-3.9h3.9c4.4,0,8-3.6,8-8S497,448.6,492.6,448.6z M107,473.8
	H64c-4.4,0-8,3.6-8,8s3.6,8,8,8h43c4.4,0,8-3.6,8-8S111.5,473.8,107,473.8z M487.5,122.6c4.2-4.2,4.2-11,0-15.2
	c-4.2-4.2-11-4.2-15.2,0c-4.2,4.2-4.2,11,0,15.2S483.3,126.8,487.5,122.6z M472.5,311c0-4.4-3.6-8-8-8H385c-4.4,0-8,3.6-8,8
	s3.6,8,8,8h79.5C468.9,319,472.5,315.5,472.5,311z M414.4,286.3h79.5c4.4,0,8-3.6,8-8s-3.6-8-8-8h-79.5c-4.4,0-8,3.6-8,8
	S410,286.3,414.4,286.3z M264.7,434.3c4.4,0,8-3.6,8-8s-3.6-8-8-8c-14.6,0-26.4,11.8-26.4,26.4s11.8,26.4,26.4,26.4c4.4,0,8-3.6,8-8
	s-3.6-8-8-8c-5.7,0-10.4-4.7-10.4-10.4S259,434.3,264.7,434.3z M24.3,186.1c-4.2,4.2-4.2,11,0,15.2c4.2,4.2,11,4.2,15.2,0
	c4.2-4.2,4.2-11,0-15.2C35.3,181.9,28.5,181.9,24.3,186.1z M144.7,40.8c-4.2,4.2-4.2,11,0,15.2c4.2,4.2,11,4.2,15.2,0s4.2-11,0-15.2
	C155.7,36.6,148.9,36.6,144.7,40.8z"></path>
<g>
	<path fill="#FFA4ED" class="primary-color" d="M357.5,445.2v44.6h-41.3v-44.6H357.5z"></path>
	<path fill="#FFA4ED" class="primary-color" d="M414.4,445.2v44.6h-41.3v-44.6H414.4z"></path>
	<path fill="#DB81DA" class="secondary-color" d="M31.7,467.4v-80.5l40.3,40.3L31.7,467.4z"></path>
	<path fill="#FFA4ED" class="primary-color" d="M404.5,38.9h77.3v22.5h-77.3V38.9z"></path>
</g>
<path d="M264.7,401.9c-106,0-192.3-65.6-192.3-146.2c0-80.6,86.3-146.2,192.3-146.2c106,0,192.3,65.6,192.3,146.2
	c0,8.1-0.5,16-1.6,23.7c-0.6,4.4-4.7,7.4-9,6.8c-4.4-0.6-7.4-4.7-6.8-9c1-6.9,1.5-14.1,1.5-21.4c0-71.8-79.1-130.2-176.3-130.2
	c-97.2,0-176.3,58.4-176.3,130.2c0,71.8,79.1,130.2,176.3,130.2c15.9,0,31.8-1.6,47.2-4.8c4.5-0.9,8-4.6,8.7-9.1
	c0.7-4.5-1.4-9.1-5.4-11.4l-46.6-26.9c-8.5-4.9-14.6-12.9-17.2-22.4c-2.6-9.5-1.2-19.4,3.7-28c6.6-11.4,18.8-18.4,32-18.4
	c6.4,0,12.8,1.7,18.4,4.9c5.6,3.3,10.3,7.9,13.5,13.5l22.5,39c8.1,14,21.3,23.4,35.5,25c13.9,1.7,27.2-3.8,38.6-15.8
	c6.9-7.3,11-13.5,14.8-22.4c1.7-4.1,6.4-6,10.5-4.2c4.1,1.7,6,6.4,4.2,10.5c-4.5,10.6-9.7,18.5-17.9,27.1
	c-14.8,15.6-33.3,22.9-52.1,20.7c-19.2-2.3-36.9-14.6-47.5-32.9l-22.5-39c-1.8-3.2-4.5-5.8-7.6-7.6c-3.2-1.8-6.7-2.8-10.4-2.8
	c-7.5,0-14.4,4-18.1,10.4c-2.8,4.8-3.5,10.5-2.1,15.8c1.4,5.4,4.9,9.9,9.7,12.7l46.6,26.9c9.7,5.6,15,16.8,13.2,27.8
	c-1.8,11-10.3,19.9-21.3,22.2C298.7,400.2,281.7,401.9,264.7,401.9z M240.9,330.3c0-18.7-18.9-33.4-43-33.4c-24.1,0-43,14.7-43,33.4
	s18.9,33.4,43,33.4C222.1,363.8,240.9,349.1,240.9,330.3z M224.9,330.3c0,9.4-12.3,17.4-27,17.4c-14.6,0-27-8-27-17.4
	s12.3-17.4,27-17.4C212.6,312.9,224.9,320.9,224.9,330.3z M190.1,260.4c0-18.7-18.9-33.4-43-33.4s-43,14.7-43,33.4
	s18.9,33.4,43,33.4S190.1,279.2,190.1,260.4z M174.1,260.4c0,9.4-12.3,17.4-27,17.4c-14.6,0-27-8-27-17.4s12.3-17.4,27-17.4
	C161.8,243,174.1,251,174.1,260.4z M234.6,190.5c0-11.6-7.4-22.1-19.9-28.3c-4-1.9-8.8-0.3-10.7,3.7c-1.9,4-0.3,8.8,3.7,10.7
	c6.8,3.4,10.9,8.6,10.9,13.9c0,9.4-12.3,17.4-27,17.4c-14.6,0-27-8-27-17.4c0-7.4,8-14.4,19-16.6c4.3-0.9,7.1-5.1,6.2-9.4
	c-0.9-4.3-5.1-7.1-9.4-6.2c-18.7,3.9-31.8,17.1-31.8,32.3c0,18.7,18.9,33.4,43,33.4C215.7,223.9,234.6,209.3,234.6,190.5z
	 M289.4,228.6c0-4.5-1.4-9-4.1-13c-1.8-2.7-2.6-5-2.1-6.1c0.8-1.6,5.1-4.2,13.8-4.8c22.4-1.5,39.3-15.8,39.3-33.3
	c0-18.7-18.9-33.4-43-33.4c-24.1,0-43,14.7-43,33.4c0,3.5,0.7,6.9,2,10.2c1.8,4.5,1.9,8.5,0.2,12.2c-2.3,5-7.5,8.7-11.3,10.1
	c0,0,0,0,0,0c-12.3,4.3-20.3,14-20.3,24.8c0,15.2,15,27.1,34.2,27.1S289.4,243.8,289.4,228.6z M246.5,219
	c6.7-2.3,16.1-8.6,20.6-18.6c3.5-7.7,3.5-16.3,0.1-24.8c-0.6-1.4-0.8-2.8-0.8-4.2c0-9.4,12.3-17.4,27-17.4c14.6,0,27,8,27,17.4
	c0,8.7-10.9,16.5-24.3,17.3c-13.6,0.9-23.3,5.8-27.2,13.7c-2.3,4.6-3.5,12.2,3.3,22.2c0.9,1.3,1.3,2.6,1.3,4
	c0,5.2-7.5,11.1-18.2,11.1s-18.2-5.8-18.2-11.1C237,224.9,240.8,221,246.5,219L246.5,219z M412.5,222.3c0-18.7-18.9-33.4-43-33.4
	c-24.1,0-43,14.7-43,33.4s18.9,33.4,43,33.4C393.7,255.7,412.5,241,412.5,222.3z M396.5,222.3c0,9.4-12.3,17.4-27,17.4
	c-14.6,0-27-8-27-17.4s12.3-17.4,27-17.4C384.2,204.9,396.5,212.9,396.5,222.3z"></path>
</svg>