<svg version="1.1" id="Layer_1" xmlns="http://www.w3.org/2000/svg" xmlns:xlink="http://www.w3.org/1999/xlink" x="0px" y="0px" viewBox="0 0 512 512" enable-background="new 0 0 512 512" xml:space="preserve">
<path fill="#FFA4ED" class="primary-color" d="M419.3,28.7h27.4v27.4h-27.4V28.7z M488,56.1V28.7h-27.4v27.4H488z M488,98.3V70.8h-27.4v27.4H488z"></path>
<path d="M397.5,243.6c0-4.4,3.6-8,8-8h55c4.4,0,8,3.6,8,8s-3.6,8-8,8h-55C401.1,251.6,397.5,248,397.5,243.6z M448.6,163.2h3.9v3.9
	c0,4.4,3.6,8,8,8s8-3.6,8-8v-3.9h3.9c4.4,0,8-3.6,8-8s-3.6-8-8-8h-3.9v-3.9c0-4.4-3.6-8-8-8s-8,3.6-8,8v3.9h-3.9c-4.4,0-8,3.6-8,8
	S444.2,163.2,448.6,163.2z M129,398H23.4c-4.4,0-8,3.6-8,8s3.6,8,8,8H129c4.4,0,8-3.6,8-8S133.5,398,129,398z M196.8,367H118
	c-4.4,0-8,3.6-8,8s3.6,8,8,8h78.7c4.4,0,8-3.6,8-8S201.2,367,196.8,367z M50.2,287v15.8H34.4c-4.4,0-8,3.6-8,8s3.6,8,8,8h15.8v15.8
	c0,4.4,3.6,8,8,8s8-3.6,8-8v-15.8H82c4.4,0,8-3.6,8-8s-3.6-8-8-8H66.2V287c0-4.4-3.6-8-8-8S50.2,282.6,50.2,287z M501.2,307.9
	c0-4.4-3.6-8-8-8H365.6c-4.4,0-8,3.6-8,8s3.6,8,8,8h127.6C497.6,315.9,501.2,312.3,501.2,307.9z M493.2,349.9h-87.6
	c-4.4,0-8,3.6-8,8s3.6,8,8,8h87.6c4.4,0,8-3.6,8-8S497.6,349.9,493.2,349.9z M26.2,63.9C46.5,63.9,63,47.4,63,27.1c0-4.4-3.6-8-8-8
	s-8,3.6-8,8c0,11.4-9.3,20.8-20.8,20.8c-4.4,0-8,3.6-8,8S21.8,63.9,26.2,63.9z M105,63.9c4.4,0,8-3.6,8-8s-3.6-8-8-8
	c-11.4,0-20.8-9.3-20.8-20.8c0-4.4-3.6-8-8-8s-8,3.6-8,8C68.2,47.4,84.7,63.9,105,63.9z M76.2,113.9c4.4,0,8-3.6,8-8
	c0-11.4,9.3-20.8,20.8-20.8c4.4,0,8-3.6,8-8s-3.6-8-8-8c-20.3,0-36.8,16.5-36.8,36.8C68.2,110.3,71.8,113.9,76.2,113.9z M26.2,85.1
	c11.4,0,20.8,9.3,20.8,20.8c0,4.4,3.6,8,8,8s8-3.6,8-8c0-20.3-16.5-36.8-36.8-36.8c-4.4,0-8,3.6-8,8S21.8,85.1,26.2,85.1z"></path>
<linearGradient id="SVGID_1_" gradientUnits="userSpaceOnUse" x1="358.6397" y1="258.7174" x2="273.3535" y2="258.7174" class="gradient-element">
	<stop offset="0" class="primary-color-gradient" style="stop-color: #FFA4ED"></stop>
	<stop offset="1" class="secondary-color-gradient" style="stop-color: #DB81DA"></stop>
</linearGradient>
<path fill="url(#SVGID_1_)" d="M353.2,249.6c-6.5,60.6-86.4,93.4-79.8,89.1V215.6c1,1.3,2.1,2.6,3.3,3.8
	c6.6,6.6,15.6,10.6,25.6,10.6c10,0,19.1-4.1,25.6-10.6s10.6-15.6,10.6-25.6c0-1.6-0.1-3.2-0.3-4.7c7.3-1.7,13.8-5.5,18.6-10.8
	C357,198.5,356.1,222.7,353.2,249.6z"></path>
<linearGradient id="SVGID_2_" gradientUnits="userSpaceOnUse" x1="443.7199" y1="405.5424" x2="252.174" y2="405.5424">
	<stop offset="0" class="primary-color-gradient" style="stop-color: #FFA4ED"></stop>
	<stop offset="1" class="secondary-color-gradient" style="stop-color: #DB81DA"></stop>
</linearGradient>
<path fill="url(#SVGID_2_)" d="M443.5,482H313.9c-32.4,0-58.7-26.3-58.7-58.7v-40.9c0-22.1,14.5-41.5,35.6-48.2
	c4.5-1.4,9.1-3.1,13.9-5.1c0,0-6.8,24.8,46.6,48.1C404.7,400.5,437.7,416,443.5,482z"></path>
<path d="M449.1,444.6c-8.4-21.8-27.3-51.3-69.3-68.3c-62.2-25.1-66.4-42.5-66.6-44c0-0.5,0-0.9,0-1.4c5.9-3.9,11.5-8.4,16.7-13.7
	c15.8-16,24.9-35.2,29.7-48.5c3.2-8.9,4.9-18.3,4.9-27.8V103.2c0-2.8-1.5-5.3-3.7-6.7c-0.8-3.6-4-6.2-7.8-6.2
	c-5.2,0-10.1,1.6-14.2,4.3l-22.3-12.9c0.1-1.1,0.2-2.2,0.2-3.4c0-14.2-11.6-25.8-25.8-25.8c-9.6,0-18,5.2-22.4,13L238.6,67
	c-2.3-11.9-12.8-20.9-25.4-20.9c-14.3,0-25.8,11.6-25.8,25.8c0,5.8,1.9,11.2,5.2,15.6l-4.5,8.2c-2.8-1.1-5.9-1.7-9.2-1.7
	c-14.2,0-25.8,11.6-25.8,25.8c0,4.1,0.9,7.9,2.6,11.3l-8.8,11.1c-1.2-0.2-2.4-0.3-3.7-0.3c-14.3,0-25.8,11.6-25.8,25.8
	s11.6,25.8,25.8,25.8c0.4,0,0.8,0,1.2,0l1.3,31.6c-4.7,4.7-7.7,11.2-7.7,18.4c0,9.9,5.6,18.5,13.7,22.8c0,0.8,0.2,1.6,0.5,2.3
	c4.8,13.3,13.9,32.5,29.7,48.5c6.8,6.9,14.2,12.5,22.1,17c-0.7,1.2-1.7,2.9-3.1,4.7c-5.1,6.3-16.2,16.3-40.5,27.9
	c-4,1.9-5.7,6.7-3.8,10.7c1.4,2.9,4.2,4.6,7.2,4.6c1.2,0,2.3-0.3,3.4-0.8c34.2-16.3,46.8-31.1,51.3-40.4c10.7,3.8,22.3,5.7,34.7,5.7
	c0.9,0,1.8-0.2,2.6-0.4c0.8,0.3,1.7,0.4,2.6,0.4c14.4,0,27.8-2.6,40-7.7c1.2,3.5,3.6,7.8,8.1,12.7c11.9,13.1,34.6,26.5,67.3,39.7
	c29.2,11.8,49.4,31.5,60.1,58.6c4.8,12.3,6.5,23.4,7.1,30.4H77.3c1.2-14,6.8-44.4,33.2-68.2c3.3-3,3.5-8,0.6-11.3
	c-3-3.3-8-3.5-11.3-0.6c-40.8,36.8-38.9,86.4-38.8,88.5c0.2,4.3,3.7,7.6,8,7.6h380.3c4.3,0,7.8-3.3,8-7.6
	C457.4,487.8,458.2,468.2,449.1,444.6z M348.5,107.4v17.5c-3.2-1.6-5.3-4.9-5.3-8.7S345.3,109,348.5,107.4z M328.7,107.2
	c-1,2.8-1.6,5.8-1.6,8.9c0,5.8,1.9,11.2,5.2,15.5l-28.1,35.5c-1-0.1-1.9-0.2-2.9-0.2c-3,0-5.9,0.5-8.7,1.5l-14.8-20.3
	c1.4-3.2,2.2-6.7,2.2-10.5c0-7.4-3.1-14-8.1-18.7l10.6-16.1c2.6,0.9,5.3,1.3,8.2,1.3c7.3,0,14-3.1,18.7-8L328.7,107.2z M301.3,182.9
	c5.4,0,9.8,4.4,9.8,9.8s-4.4,9.8-9.8,9.8c-5.4,0-9.8-4.4-9.8-9.8S295.9,182.9,301.3,182.9z M169,170.1c0.1-0.8,0.1-1.6,0.1-2.4
	c0-7.1-2.9-13.6-7.6-18.3l5.4-6.8c3.6,1.9,7.7,3,12,3c1.5,0,2.9-0.1,4.3-0.4l19.6,30.4c-1.2,1.3-2.2,2.8-3.1,4.4L169,170.1z
	 M213.2,97.8c1.6,0,3.1-0.1,4.6-0.4l15,25.9c-0.9,1.4-1.7,2.9-2.4,4.4l-25.6-7c0-0.3,0-0.6,0-1c0-5.1-1.5-9.9-4.1-13.9l5.1-9.2
	C208.1,97.4,210.6,97.8,213.2,97.8z M269.8,93.2L257.4,112c-1-0.1-2.1-0.2-3.1-0.2c-3.1,0-6,0.5-8.7,1.5l-13.6-23.6
	c1.9-2,3.4-4.2,4.6-6.7l28.7-1.4C265.8,85.9,267.4,89.9,269.8,93.2z M222.2,182.9c5.4,0,9.8,4.4,9.8,9.8s-4.4,9.8-9.8,9.8
	c-5.4,0-9.8-4.4-9.8-9.8S216.8,182.9,222.2,182.9z M222.2,166.9c-1.9,0-3.8,0.2-5.6,0.6l-19.1-29.8c0.6-0.6,1.2-1.3,1.7-2l30,8.2
	c1.1,4.2,3.2,8,6,11.1l-10,12C224.2,167,223.2,166.9,222.2,166.9z M254.2,147.5c-5.4,0-9.8-4.4-9.8-9.8s4.4-9.8,9.8-9.8
	c5.4,0,9.8,4.4,9.8,9.8S259.7,147.5,254.2,147.5z M290.8,68.5c5.4,0,9.8,4.4,9.8,9.8s-4.4,9.8-9.8,9.8c-5.4,0-9.8-4.4-9.8-9.8
	S285.4,68.5,290.8,68.5z M213.2,62.1c5.4,0,9.8,4.4,9.8,9.8s-4.4,9.8-9.8,9.8c-5.4,0-9.8-4.4-9.8-9.8S207.8,62.1,213.2,62.1z
	 M178.9,109.9c5.4,0,9.8,4.4,9.8,9.8s-4.4,9.8-9.8,9.8c-5.4,0-9.8-4.4-9.8-9.8S173.5,109.9,178.9,109.9z M133.4,167.8
	c0-5.4,4.4-9.8,9.8-9.8s9.8,4.4,9.8,9.8s-4.4,9.8-9.8,9.8S133.4,173.2,133.4,167.8z M160.2,187.3c0.9-0.7,1.7-1.5,2.4-2.4l34,11
	c0.2,1.4,0.5,2.9,0.9,4.2l-19.2,22c-4.1-2.8-9.1-4.4-14.4-4.4c-0.8,0-1.6,0-2.5,0.1L160.2,187.3z M163.9,253.4
	c-5.4,0-9.8-4.4-9.8-9.8c0-5.4,4.4-9.8,9.8-9.8s9.8,4.4,9.8,9.8C173.7,249,169.3,253.4,163.9,253.4z M169.4,268.8
	c11.6-2.6,20.3-12.9,20.3-25.2c0-3-0.5-5.9-1.5-8.6l18.7-21.4c4.3,3.2,9.6,5,15.3,5c14.2,0,25.8-11.6,25.8-25.8
	c0-7.3-3-13.9-7.9-18.6l9.3-11.2c1.6,0.3,3.2,0.5,4.8,0.5c4.6,0,8.9-1.2,12.6-3.3l13.1,18c-2.8,4.2-4.5,9.2-4.5,14.6
	c0,14.2,11.6,25.8,25.8,25.8c14.3,0,25.8-11.6,25.8-25.8c0-7.4-3.1-14-8-18.7l26.3-33.2c1,0.3,2,0.5,3.1,0.7v99.3
	c0,7.7-1.3,15.2-3.9,22.4c-9.1,25.1-32.4,67.2-86.1,67.2c-0.9,0-1.8,0.2-2.6,0.4c-0.8-0.3-1.7-0.4-2.6-0.4
	C203.5,330.5,179.8,294.1,169.4,268.8z"></path>
</svg>