<svg version="1.1" id="Layer_1" xmlns="http://www.w3.org/2000/svg" xmlns:xlink="http://www.w3.org/1999/xlink" x="0px" y="0px" viewBox="0 0 512 512" enable-background="new 0 0 512 512" xml:space="preserve">
<linearGradient id="SVGID_1_" gradientUnits="userSpaceOnUse" x1="325.9106" y1="346.7447" x2="325.9106" y2="81.6523" class="gradient-element">
	<stop offset="0" class="primary-color-gradient" style="stop-color: #FFA4ED"></stop>
	<stop offset="1" class="secondary-color-gradient" style="stop-color: #DB81DA"></stop>
</linearGradient>
<path fill="url(#SVGID_1_)" d="M301.1,169.7c0,0-6.3,38.8-13.8,90.8s5,45.5,29,47.5s31-35.1,31-35.1s12.5-13.9,4.7-78.4
	c-7.8-64.5-34.5-74.6-49.2-81c-10.8-4.7-14.2-28.6,6.7-25.4c53.8,8.2,73.3,110,74.6,126.3c1.3,16.3,4.2,30.9-13.5,75.1
	s-54.8,46.3-86.1,35.5c-25.5-8.8-16-42.3-16.7-50.4c-1.3-16.9,7.1-88.8,10.4-109.9c0.5-3,3.6-4.6,6.3-3.3L301.1,169.7z"></path>
<path fill="#FFA4ED" class="primary-color" d="M418.9,29.1h27.4v27.4h-27.4V29.1z M460.1,29.1v27.4h27.4V29.1H460.1z M460.1,98.7h27.4V71.3h-27.4V98.7z"></path>
<path d="M370.6,253.4c-4.4,0-8-3.6-8-8s3.6-8,8-8h56.7c4.4,0,8,3.6,8,8s-3.6,8-8,8H370.6z M449.9,187.4h3.9v3.9c0,4.4,3.6,8,8,8
	s8-3.6,8-8v-3.9h3.9c4.4,0,8-3.6,8-8s-3.6-8-8-8h-3.9v-3.9c0-4.4-3.6-8-8-8s-8,3.6-8,8v3.9h-3.9c-4.4,0-8,3.6-8,8
	S445.5,187.4,449.9,187.4z M78.3,450.8H62.5V435c0-4.4-3.6-8-8-8s-8,3.6-8,8v15.8H30.7c-4.4,0-8,3.6-8,8s3.6,8,8,8h15.8v15.8
	c0,4.4,3.6,8,8,8s8-3.6,8-8v-15.8h15.8c4.4,0,8-3.6,8-8S82.7,450.8,78.3,450.8z M479.9,272.9c0-4.4-3.6-8-8-8h-97.6
	c-4.4,0-8,3.6-8,8s3.6,8,8,8h97.6C476.4,280.9,479.9,277.3,479.9,272.9z M476.4,456.7h-87.6c-4.4,0-8,3.6-8,8s3.6,8,8,8h87.6
	c4.4,0,8-3.6,8-8S480.8,456.7,476.4,456.7z M25.8,64.3c20.3,0,36.8-16.5,36.8-36.8c0-4.4-3.6-8-8-8s-8,3.6-8,8
	c0,11.4-9.3,20.8-20.8,20.8c-4.4,0-8,3.6-8,8S21.4,64.3,25.8,64.3z M104.5,48.3c-11.4,0-20.8-9.3-20.8-20.8c0-4.4-3.6-8-8-8
	s-8,3.6-8,8c0,20.3,16.5,36.8,36.8,36.8c4.4,0,8-3.6,8-8S108.9,48.3,104.5,48.3z M104.5,69.5c-20.3,0-36.8,16.5-36.8,36.8
	c0,4.4,3.6,8,8,8s8-3.6,8-8c0-11.4,9.3-20.8,20.8-20.8c4.4,0,8-3.6,8-8S108.9,69.5,104.5,69.5z M46.5,106.3c0,4.4,3.6,8,8,8
	s8-3.6,8-8C62.5,86,46,69.5,25.8,69.5c-4.4,0-8,3.6-8,8s3.6,8,8,8C37.2,85.5,46.5,94.8,46.5,106.3z"></path>
<path d="M383.3,282.9c-3.9,11-9.3,21-15.8,29.5c-15.5,20.2-36.5,30.4-62.6,30.4c-11.8,0-22.2-2.6-31-7.8c-5.5-3.2-10.2-7.4-14-12.3
	c-12.5,13-28,19.6-46.3,19.6c-20.4,0-36.4-8.7-47.6-25.9c-10.6-16.3-14.7-37.9-12.1-64c2.3-20.9,7.6-39.7,16-56
	c8.5-16.6,19.4-29.7,32.6-38.7c13.4-9.2,28.1-13.9,43.7-13.9c15.1,0,28.7,2.9,40.4,8.6c4,1.9,5.6,6.7,3.7,10.7
	c-1.9,4-6.7,5.6-10.7,3.7c-9.5-4.6-20.7-7-33.4-7c-12.5,0-23.8,3.6-34.6,11.1c-10.9,7.5-20.1,18.6-27.4,32.8
	c-7.4,14.6-12.2,31.5-14.3,50.4c-2.2,22.3,1,40.4,9.6,53.6c8.2,12.5,19.3,18.6,34.2,18.6c16.8,0,30.2-7.2,40.8-22
	c1.7-2.3,4.4-3.6,7.3-3.3c2.8,0.3,5.3,2,6.5,4.6c3.2,6.9,7.8,12,13.9,15.7c6.3,3.7,13.9,5.6,22.8,5.6c21.1,0,37.4-7.9,49.9-24.1
	c5.5-7.2,10-15.7,13.4-25.1c1.5-4.2,6.1-6.3,10.2-4.8C382.7,274.2,384.8,278.8,383.3,282.9z M300.5,276.8l9.2-104.7
	c0.4-4.4-2.9-8.3-7.3-8.7c-4.4-0.4-8.3,2.9-8.7,7.3l-9.2,104.5c-1.4,11.5,0,20.4,4.4,27.1c3.4,5.1,10,11.2,22.5,11.2
	c14.1,0,25.8-7.9,34.8-23.5c8.1-14,12.6-32.4,13.4-54.6c2.1-44-7.1-78.5-27.3-102.6c-20.5-24.4-51-36.8-90.6-36.8
	c-24.8,0-47.2,6.4-66.6,19c-19.4,12.6-34.8,30.6-45.9,53.7c-10.9,22.7-17.2,48.9-18.5,78c-2,44.6,7.2,79.7,27.5,104.6
	c20.6,25.2,51.5,38,91.8,38c10.5,0,21.6-1.2,33.1-3.5c11.6-2.4,21.7-5.6,30.2-9.6c4-1.9,5.7-6.6,3.8-10.6c-1.9-4-6.6-5.7-10.6-3.8
	c-7.4,3.5-16.3,6.3-26.6,8.4c-10.4,2.1-20.5,3.2-29.9,3.2c-35.8,0-61.8-10.5-79.5-32.1c-17.7-21.7-25.7-53.2-23.9-93.7
	c1.3-26.9,7-51.1,17-71.8c9.8-20.3,23.3-36.2,40.2-47.2c16.8-10.9,36.3-16.5,57.9-16.5c35.1,0,60.8,10.2,78.3,31.1
	c17.6,20.9,25.5,51.8,23.6,91.6c0,0,0,0.1,0,0.1c-0.7,19.6-4.5,35.5-11.2,47.3c-6,10.4-12.9,15.5-21,15.5c-5.8,0-7.9-2.1-9.2-4
	c-2.2-3.4-2.9-9.1-1.9-16.5C300.4,277,300.4,276.9,300.5,276.8z M377.1,146.5c-11.5-25.6-29.1-45.5-52.3-59.3
	c-23-13.7-50.7-20.6-82.3-20.6c-31.2,0-59.6,7.7-84.5,22.8c-24.9,15.1-44.8,36.8-59.2,64.4c-14.2,27.4-22.2,58.6-23.7,93
	c-1.5,35.8,3.6,67.2,15.1,93.3c11.7,26.5,29.7,46.9,53.6,60.6c23.6,13.5,52.3,20.3,85.5,20.3c13.2,0,26.6-1.6,39.6-4.7
	c13.3-3.2,24.2-7.5,32.3-12.8c3.7-2.4,4.7-7.4,2.3-11.1c-2.4-3.7-7.4-4.7-11.1-2.3c-6.5,4.3-15.7,7.9-27.2,10.6
	c-11.8,2.8-23.9,4.2-35.9,4.2c-30.3,0-56.4-6.1-77.5-18.2c-20.8-11.9-36.6-29.8-46.9-53.1c-10.5-23.8-15.1-52.8-13.7-86.1
	c1.4-32,8.8-61,21.9-86.3c13-25,30.9-44.6,53.3-58.2c22.3-13.6,48-20.5,76.1-20.5c28.7,0,53.6,6.2,74.1,18.3
	c20.3,12.1,35.7,29.6,45.9,52.1c10.3,22.9,14.9,50,13.6,80.6c-0.1,3.2-0.4,6.4-0.6,9.5c-0.4,4.4,2.8,8.3,7.2,8.7
	c4.4,0.4,8.3-2.8,8.7-7.2c0.3-3.3,0.5-6.8,0.7-10.3C393.5,201.2,388.4,171.6,377.1,146.5z M223.8,205.7c6.2-9.6,14.4-14.1,25.6-14.1
	c4.1,0,8.1,0.7,12,1.9c4.2,1.4,8.7-0.9,10.1-5.1c1.4-4.2-0.9-8.7-5.1-10.1c-5.5-1.8-11.2-2.8-17-2.8c-16.7,0-29.8,7.2-39,21.4
	c-8.4,13-13.7,31.1-16.2,55.3c0,0,0,0.1,0,0.1c-1.5,17.6,0.2,30.8,5,40.5c5.5,11,14.8,16.8,27.1,16.8c8,0,15.6-3.4,22.4-10.1
	c6.2-6,11.3-14.6,15.2-25.5c0.2-0.6,0.4-1.3,0.4-2l5.2-58.9c0.4-4.4-2.9-8.3-7.3-8.7c-4.4-0.4-8.3,2.9-8.7,7.3l-5.1,57.9
	c-3,8.1-6.7,14.3-10.9,18.5c-3.8,3.7-7.5,5.5-11.2,5.5c-6.2,0-10-2.4-12.8-8c-3.4-6.9-4.6-17.7-3.4-32
	C212.3,232.6,216.9,216.4,223.8,205.7z"></path>
</svg>