<svg version="1.1" id="Layer_1" xmlns="http://www.w3.org/2000/svg" xmlns:xlink="http://www.w3.org/1999/xlink" x="0px" y="0px" viewBox="0 0 512 512" enable-background="new 0 0 512 512" xml:space="preserve">
<linearGradient id="SVGID_1_" gradientUnits="userSpaceOnUse" x1="304.0285" y1="462.8361" x2="302.5127" y2="109.6572" class="gradient-element">
	<stop offset="0" class="primary-color-gradient" style="stop-color: #FFA4ED"></stop>
	<stop offset="1" class="secondary-color-gradient" style="stop-color: #DB81DA"></stop>
</linearGradient>
<path fill="url(#SVGID_1_)" d="M303.3,366.2c0,11.9-14.5,21.6-32.3,21.6c-17.9,0-32.3-9.7-32.3-21.6c0-11.9,14.5-21.6,32.3-21.6
	C288.8,344.7,303.3,354.3,303.3,366.2z M389.5,344.7h-194v107.8h194V344.7z M411.1,129.2H195.5v194h215.5V129.2z"></path>
<path d="M271.3,185.8c5.2,0,16,0.1,26.2,4.1c15.6,6.2,24.6,19.4,24.6,36.2c0,18.4-12.2,32.4-32.3,37.9v16c0,4.4-3.6,8-8,8
	s-8-3.6-8-8v-22.4c0-3.9,2.8-7.3,6.7-7.9c7.7-1.3,25.6-6.1,25.6-23.6c0-10.4-4.9-17.5-14.5-21.3c-7.5-3-15.9-3-20.4-3l-0.6,0
	c-4.1,0-11.7-0.1-18.2-2.6c-7.4-2.9-10.9-8.2-10.9-16.2c0-4.4,3.6-8,8-8s8,3.6,8,8c0,0.4,0,0.7,0,0.9c0.2,0.1,0.4,0.2,0.8,0.3
	c3.7,1.5,9.6,1.5,12.4,1.5L271.3,185.8z M300.5,226.2c0-4.4-3.6-8-8-8c-4.3,0-7.8,3.4-8,7.7c-1.6,1.5-8.1,3.1-13.6,3.1
	c-4.4,0-8,3.6-8,8s3.6,8,8,8C284.6,244.9,300.5,240,300.5,226.2z M454.2,236.4c-4.4,0-8,3.6-8,8V377c0,13.4-10.9,24.3-24.3,24.3
	h-24.3v-35.1c0-4.4-3.6-8-8-8s-8,3.6-8,8v41.6c-0.1,0.5-0.1,1-0.1,1.5s0,1,0.1,1.5v33.6H160.4v-78.2c0-4.4-3.6-8-8-8h-13.6v-5.6
	h272.2c4.4,0,8-3.6,8-8s-3.6-8-8-8H130.9c-4.4,0-8,3.6-8,8v21.6c0,4.4,3.6,8,8,8h13.6v78.2c0,4.4,3.6,8,8,8h237.1c4.4,0,8-3.6,8-8
	v-35.1h24.3c22.2,0,40.3-18.1,40.3-40.3V244.4C462.2,240,458.6,236.4,454.2,236.4z M290.1,185.6c1.6,1.5,3.6,2.3,5.6,2.3
	c2.1,0,4.1-0.8,5.7-2.4l15.2-15.3c1.5-1.5,2.3-3.5,2.3-5.7s-0.9-4.2-2.4-5.6c-9-8.9-19.7-13.8-33.8-15.5c-4.4-0.5-8.4,2.6-8.9,7
	c-0.5,4.4,2.6,8.4,7,8.9c7.3,0.9,13.1,2.8,18.2,6l-8.9,9C286.9,177.4,286.9,182.5,290.1,185.6z M236.7,238.9
	c-3.1-3.1-8.2-3.1-11.3,0.1c-3.1,3.1-3.1,8.2,0.1,11.3c9,8.9,19.7,13.8,33.8,15.5c0.3,0,0.6,0.1,1,0.1c4,0,7.4-3,7.9-7
	c0.5-4.4-2.6-8.4-7-8.9C250.7,248.7,243.1,245.3,236.7,238.9z M421.8,35H120.1C97.9,35,79.8,53,79.8,75.3V377c0,4.4,3.6,8,8,8
	s8-3.6,8-8V75.3c0-13.4,10.9-24.3,24.3-24.3h301.7c13.4,0,24.3,10.9,24.3,24.3v129.3c0,4.4,3.6,8,8,8s8-3.6,8-8V75.3
	C462.2,53,444.1,35,421.8,35z M230.6,366.2c0-4.4,3.6-8,8-8h64.7c4.4,0,8,3.6,8,8c0,16.3-18.1,29.6-40.3,29.6
	S230.6,382.5,230.6,366.2z M251.9,374.2c4.4,3.2,11.2,5.6,19,5.6s14.6-2.4,19-5.6H251.9z M217.1,358.2H174c-4.4,0-8,3.6-8,8v64.7
	c0,4.4,3.6,8,8,8h194c4.4,0,8-3.6,8-8v-64.7c0-4.4-3.6-8-8-8s-8,3.6-8,8v56.7H182v-48.7h27.9c4.7,24.4,30.3,43.1,61.1,43.1
	c34.1,0,61.9-22.9,61.9-51.1c0-4.4-3.6-8-8-8s-8,3.6-8,8c0,19.4-20.6,35.1-45.9,35.1c-25.3,0-45.9-15.7-45.9-35.1
	C225.1,361.8,221.5,358.2,217.1,358.2z M122.9,323.1c0,4.4,3.6,8,8,8h280.2c4.4,0,8-3.6,8-8V86.1c0-4.4-3.6-8-8-8H130.9
	c-4.4,0-8,3.6-8,8v194c0,4.4,3.6,8,8,8s8-3.6,8-8v-186h264.2v221.1H130.9C126.5,315.1,122.9,318.7,122.9,323.1z M260.2,121.2
	c-4.4,0-8,3.6-8,8v16c-20.1,5.5-32.3,19.5-32.3,37.9c0,16.8,9,30,24.6,36.2c1,0.4,2,0.6,2.9,0.6c3.2,0,6.2-1.9,7.4-5.1
	c1.6-4.1-0.4-8.8-4.5-10.4c-9.6-3.8-14.4-11-14.4-21.3c0-17.5,17.9-22.3,25.6-23.6c3.9-0.6,6.7-4,6.7-7.9v-22.4
	C268.2,124.7,264.6,121.2,260.2,121.2z"></path>
<g>
	<path fill="#DB81DA" class="secondary-color" d="M82.4,20.7L21.5,81.7V20.7H82.4z"></path>
	<path fill="#DB81DA" class="secondary-color" d="M455.9,447.3v-25.7h25.7v25.7H455.9z"></path>
	<path fill="#DB81DA" class="secondary-color" d="M455.9,486v-25.7h25.7V486H455.9z"></path>
	<path fill="#DB81DA" class="secondary-color" d="M416.3,486v-25.7h25.7V486H416.3z"></path>
</g>
<path d="M86.6,331.1H29.3c-4.4,0-8-3.6-8-8s3.6-8,8-8h57.4c4.4,0,8,3.6,8,8S91.1,331.1,86.6,331.1z M116.6,418.2
	c-20.3,0-36.8,16.5-36.8,36.8c0,4.4,3.6,8,8,8s8-3.6,8-8c0-11.4,9.3-20.8,20.8-20.8c4.4,0,8-3.6,8-8S121,418.2,116.6,418.2z
	 M37.8,418.2c-4.4,0-8,3.6-8,8s3.6,8,8,8c11.4,0,20.8,9.3,20.8,20.8c0,4.4,3.6,8,8,8s8-3.6,8-8C74.6,434.7,58.1,418.2,37.8,418.2z
	 M66.6,368.2c-4.4,0-8,3.6-8,8c0,11.4-9.3,20.8-20.8,20.8c-4.4,0-8,3.6-8,8s3.6,8,8,8c20.3,0,36.8-16.5,36.8-36.8
	C74.6,371.8,71,368.2,66.6,368.2z M116.6,396.9c-11.4,0-20.8-9.3-20.8-20.8c0-4.4-3.6-8-8-8s-8,3.6-8,8c0,20.3,16.5,36.8,36.8,36.8
	c4.4,0,8-3.6,8-8S121,396.9,116.6,396.9z M187.4,273.6h-70c-4.4,0-8,3.6-8,8s3.6,8,8,8h70c4.4,0,8-3.6,8-8S191.8,273.6,187.4,273.6z
	 M492.6,236.4h-56.3c-4.4,0-8,3.6-8,8s3.6,8,8,8h56.3c4.4,0,8-3.6,8-8S497.1,236.4,492.6,236.4z M494.5,205.2c0-4.4-3.6-8-8-8h-88.8
	c-4.4,0-8,3.6-8,8s3.6,8,8,8h88.8C490.9,213.2,494.5,209.6,494.5,205.2z"></path>
</svg>