<svg version="1.1" id="Layer_1" xmlns="http://www.w3.org/2000/svg" xmlns:xlink="http://www.w3.org/1999/xlink" x="0px" y="0px" viewBox="0 0 512 512" enable-background="new 0 0 512 512" xml:space="preserve">
<linearGradient id="SVGID_1_" gradientUnits="userSpaceOnUse" x1="274.34" y1="424.5843" x2="274.34" y2="69.9014" class="gradient-element">
	<stop offset="0" class="primary-color-gradient" style="stop-color: #FFA4ED"></stop>
	<stop offset="1" class="secondary-color-gradient" style="stop-color: #DB81DA"></stop>
</linearGradient>
<path fill="url(#SVGID_1_)" d="M417.7,77.7v355.7H131v-20.4c0-31.1,31.1-56.3,69.4-56.3h0c40.8,0,74-26.9,74-60.1V156.8
	c0-47.3,47.2-85.6,105.4-85.6h29.9C414.1,71.2,417.7,74.1,417.7,77.7z"></path>
<path d="M425.4,136.4v297.8c0,4.4-3.6,8-8,8H131c-4.4,0-8-3.6-8-8V244c0-4.4,3.6-8,8-8s8,3.6,8,8v182.2h270.4V136.4c0-4.4,3.6-8,8-8
	S425.4,131.9,425.4,136.4z M417.4,60.4H131c-4.4,0-8,3.6-8,8v51c0,4.4,3.6,8,8,8s8-3.6,8-8v-43h270.4v30c0,4.4,3.6,8,8,8s8-3.6,8-8
	v-38C425.4,63.9,421.8,60.4,417.4,60.4z M349,243.3H199.4c-4.4,0-8,3.6-8,8s3.6,8,8,8H349c4.4,0,8-3.6,8-8S353.4,243.3,349,243.3z
	 M349,303.9H199.4c-4.4,0-8,3.6-8,8s3.6,8,8,8H349c4.4,0,8-3.6,8-8S353.4,303.9,349,303.9z M349,364.5H199.4c-4.4,0-8,3.6-8,8
	s3.6,8,8,8H349c4.4,0,8-3.6,8-8S353.4,364.5,349,364.5z M134.9,212.2c0-4.4-3.6-8-8-8c-11.2,0-20.4-9.2-20.4-20.4v-12.3
	c0-11.2,9.2-20.4,20.4-20.4h49.6c8.5,0,15.3,6.9,15.3,15.3c0,8.5-6.9,15.3-15.3,15.3h-39.3c-4.4,0-8,3.6-8,8s3.6,8,8,8h39.3
	c17.3,0,31.3-14.1,31.3-31.3c0-17.3-14.1-31.3-31.3-31.3h-49.6c-20.1,0-36.4,16.3-36.4,36.4v12.3c0,20.1,16.3,36.4,36.4,36.4
	C131.3,220.2,134.9,216.6,134.9,212.2z"></path>
<path d="M387.9,106.4c0-4.4,3.6-8,8-8h43c4.4,0,8,3.6,8,8s-3.6,8-8,8h-43C391.5,114.4,387.9,110.8,387.9,106.4z M444.4,136.4
	c0-4.4-3.6-8-8-8h-73.8c-4.4,0-8,3.6-8,8s3.6,8,8,8h73.8C440.9,144.4,444.4,140.8,444.4,136.4z M36.3,243.6c0,4.4,3.6,8,8,8h86.8
	c4.4,0,8-3.6,8-8s-3.6-8-8-8H44.3C39.9,235.6,36.3,239.2,36.3,243.6z M79.1,263.8H21.7c-4.4,0-8,3.6-8,8s3.6,8,8,8h57.4
	c4.4,0,8-3.6,8-8S83.5,263.8,79.1,263.8z M458.2,44.2c5,0,9-4.1,9-9s-4.1-9-9-9s-9,4.1-9,9S453.2,44.2,458.2,44.2z M427.7,44.1
	c4.9,0,9-4,9-9s-4-9-9-9s-9,4-9,9S422.8,44.1,427.7,44.1z M458.2,73.8c5,0,9-4.1,9-9s-4.1-9-9-9s-9,4.1-9,9S453.2,73.8,458.2,73.8z
	 M181.9,465.6h-59.2c-4.4,0-8,3.6-8,8s3.6,8,8,8h59.2c4.4,0,8-3.6,8-8S186.3,465.6,181.9,465.6z M478.5,465.6h-15.8v-15.8
	c0-4.4-3.6-8-8-8s-8,3.6-8,8v15.8H431c-4.4,0-8,3.6-8,8s3.6,8,8,8h15.8v15.8c0,4.4,3.6,8,8,8s8-3.6,8-8v-15.8h15.8c4.4,0,8-3.6,8-8
	S482.9,465.6,478.5,465.6z M19.9,63.6c-4.4,0-8,3.6-8,8s3.6,8,8,8c7.2,0,13.7-2.9,18.5-7.5c4.8,4.7,11.3,7.5,18.5,7.5
	c4.4,0,8-3.6,8-8s-3.6-8-8-8c-5.7,0-10.4-4.7-10.4-10.4s4.7-10.4,10.4-10.4c4.4,0,8-3.6,8-8s-3.6-8-8-8c-7.2,0-13.7,2.9-18.5,7.5
	c-4.8-4.7-11.3-7.5-18.5-7.5c-4.4,0-8,3.6-8,8s3.6,8,8,8c5.7,0,10.4,4.7,10.4,10.4S25.6,63.6,19.9,63.6z M47.1,367.3h-3.9v-3.9
	c0-4.4-3.6-8-8-8s-8,3.6-8,8v3.9h-3.9c-4.4,0-8,3.6-8,8s3.6,8,8,8h3.9v3.9c0,4.4,3.6,8,8,8s8-3.6,8-8v-3.9h3.9c4.4,0,8-3.6,8-8
	S51.5,367.3,47.1,367.3z"></path>
</svg>