<svg version="1.1" id="Layer_1" xmlns="http://www.w3.org/2000/svg" xmlns:xlink="http://www.w3.org/1999/xlink" x="0px" y="0px" viewBox="0 0 512 512" enable-background="new 0 0 512 512" xml:space="preserve">
<linearGradient id="SVGID_1_" gradientUnits="userSpaceOnUse" x1="352.2206" y1="433.0719" x2="352.2206" y2="61.0666" class="gradient-element">
	<stop offset="0" class="primary-color-gradient" style="stop-color: #FFA4ED"></stop>
	<stop offset="1" class="secondary-color-gradient" style="stop-color: #DB81DA"></stop>
</linearGradient>
<path fill="url(#SVGID_1_)" d="M420.9,256.3c0,42.8-17.5,83.8-48.3,113.3V469c0,3.6-4.3,5.3-6.8,2.8l-46.7-46.7
	c-9.2-9.2-14.4-21.7-14.4-34.7v-23.7c0-11.5,4-22.6,11.3-31.3c23.7-28.2-32.5-64-32.5-101.2c0-37.2,56.2-73,32.5-101.2
	c-7.4-8.8-11.3-19.9-11.3-31.3v0l61-61c2.5-2.5,6.8-0.7,6.8,2.8V143C403.3,172.6,420.9,213.5,420.9,256.3z"></path>
<path d="M364.1,481c-3.1,0-6.2-1.2-8.5-3.5L248.8,370.7c-3.1-3.1-3.1-8.2,0-11.3c3.1-3.1,8.2-3.1,11.3,0l100,100v-93.2l2.5-2.4
	c29.1-28,45.8-67.2,45.8-107.5c0-40.4-16.7-79.5-45.8-107.5l-2.5-2.4V53.2L255.3,158v190.8H150.7c-4.4,0-8-3.6-8-8s3.6-8,8-8h88.6
	V151.4L355.6,35.1c3.4-3.4,8.6-4.5,13.1-2.6c4.5,1.9,7.4,6.2,7.4,11.1v96.1c30.7,30.8,48.3,73.1,48.3,116.7
	c0,43.5-17.6,85.9-48.3,116.7V469c0,4.9-2.9,9.2-7.4,11.1C367.2,480.7,365.6,481,364.1,481z M344,428.4c-4.4,0-8-3.6-8-8V92.2
	c0-4.4,3.6-8,8-8s8,3.6,8,8v328.2C352,424.8,348.4,428.4,344,428.4z M150.7,373c-17.7,0-32.2-14.4-32.2-32.2V171.8
	c0-17.7,14.4-32.2,32.2-32.2h72.5c4.4,0,8,3.6,8,8s-3.6,8-8,8h-72.5c-8.9,0-16.2,7.2-16.2,16.2v169.1c0,8.9,7.2,16.2,16.2,16.2
	c4.4,0,8,3.6,8,8S155.1,373,150.7,373z"></path>
<g>
	<path fill="#FFA4ED" class="primary-color" d="M77.5,92.2H42.8V57.6h34.7V92.2z M132.7,57.6H98.1v34.7h34.7V57.6z"></path>
	<path fill="#FFA4ED" class="primary-color" d="M188,92.2h-34.7V57.6H188V92.2z"></path>
	<path fill="#DB81DA" class="secondary-color" d="M165.4,473.2l57.8-57.8l57.8,57.8H165.4z"></path>
</g>
<path d="M498.1,408.7c0,4.4-3.6,8-8,8h-73.8c-4.4,0-8-3.6-8-8s3.6-8,8-8h73.8C494.5,400.7,498.1,404.3,498.1,408.7z M499.4,319.2
	h-15.8v-15.8c0-4.4-3.6-8-8-8s-8,3.6-8,8v15.8h-15.8c-4.4,0-8,3.6-8,8s3.6,8,8,8h15.8V351c0,4.4,3.6,8,8,8s8-3.6,8-8v-15.8h15.8
	c4.4,0,8-3.6,8-8S503.8,319.2,499.4,319.2z M66.5,386.3c-4.4,0-8,3.6-8,8c0,11.4-9.3,20.8-20.8,20.8c-4.4,0-8,3.6-8,8s3.6,8,8,8
	c20.3,0,36.8-16.5,36.8-36.8C74.5,389.9,70.9,386.3,66.5,386.3z M116.5,415c-11.4,0-20.8-9.3-20.8-20.8c0-4.4-3.6-8-8-8s-8,3.6-8,8
	c0,20.3,16.5,36.8,36.8,36.8c4.4,0,8-3.6,8-8S120.9,415,116.5,415z M116.5,436.3c-20.3,0-36.8,16.5-36.8,36.8c0,4.4,3.6,8,8,8
	s8-3.6,8-8c0-11.4,9.3-20.8,20.8-20.8c4.4,0,8-3.6,8-8S120.9,436.3,116.5,436.3z M37.7,436.3c-4.4,0-8,3.6-8,8s3.6,8,8,8
	c11.4,0,20.8,9.3,20.8,20.8c0,4.4,3.6,8,8,8s8-3.6,8-8C74.5,452.8,58,436.3,37.7,436.3z M37.7,202.5c5.9,0,10.8-4.8,10.8-10.8
	S43.7,181,37.7,181S27,185.8,27,191.7S31.8,202.5,37.7,202.5z M475.6,129.1c4.4,0,8-3.6,8-8s-3.6-8-8-8h-63.1c-4.4,0-8,3.6-8,8
	s3.6,8,8,8H475.6z M444.1,447.9c-5.9,0-10.8,4.8-10.8,10.8c0,5.9,4.8,10.8,10.8,10.8c5.9,0,10.8-4.8,10.8-10.8
	C454.8,452.7,450,447.9,444.1,447.9z"></path>
</svg>