<svg version="1.1" id="Layer_1" xmlns="http://www.w3.org/2000/svg" xmlns:xlink="http://www.w3.org/1999/xlink" x="0px" y="0px" viewBox="0 0 512 512" enable-background="new 0 0 512 512" xml:space="preserve">
<path d="M465.9,396.2c0,4.4-3.6,8-8,8h-43c-4.4,0-8-3.6-8-8s3.6-8,8-8h43C462.3,388.2,465.9,391.8,465.9,396.2z M107.3,427.3H33.5
	c-4.4,0-8,3.6-8,8s3.6,8,8,8h73.8c4.4,0,8-3.6,8-8S111.7,427.3,107.3,427.3z M423.1,72.7h15.8v15.8c0,4.4,3.6,8,8,8s8-3.6,8-8V72.7
	h15.8c4.4,0,8-3.6,8-8s-3.6-8-8-8h-15.8V40.9c0-4.4-3.6-8-8-8s-8,3.6-8,8v15.8h-15.8c-4.4,0-8,3.6-8,8S418.7,72.7,423.1,72.7z
	 M477,351.2c-5.9,0-10.8,4.8-10.8,10.8c0,5.9,4.8,10.8,10.8,10.8c5.9,0,10.8-4.8,10.8-10.8C487.8,356,482.9,351.2,477,351.2z
	 M105,25.1c0-4.4-3.6-8-8-8H23.2c-4.4,0-8,3.6-8,8s3.6,8,8,8H97C101.4,33.1,105,29.5,105,25.1z M65.4,52.8c-4.4,0-8,3.6-8,8
	s3.6,8,8,8h36.9c4.4,0,8-3.6,8-8s-3.6-8-8-8H65.4z"></path>
<g>
	<path fill="#DB81DA" class="secondary-color" d="M59.5,484.3H24.2v-22.5h35.2V484.3z"></path>
	<path fill="#DB81DA" class="secondary-color" d="M59.5,123.2H24.2v-21.6h35.2V123.2z"></path>
</g>
<linearGradient id="SVGID_1_" gradientUnits="userSpaceOnUse" x1="377.1057" y1="454.9552" x2="363.6198" y2="42.2836" class="gradient-element">
	<stop offset="0" class="primary-color-gradient" style="stop-color: #FFA4ED"></stop>
	<stop offset="1" class="secondary-color-gradient" style="stop-color: #DB81DA"></stop>
</linearGradient>
<path fill="url(#SVGID_1_)" d="M340.8,61.1c76.2,30.8,129.9,105.3,129.9,192.5c0,87.2-53.8,161.7-129.9,192.5
	c-31.4,12.7-65.7-10.8-65.7-44.7v-1.7c0-19.5,11.8-37,29.8-44.5c39.9-16.5,68-55.8,68-101.7c0-45.9-28.1-85.1-68-101.7
	c-18-7.5-29.8-25-29.8-44.5v-1.7C275.1,71.9,309.3,48.4,340.8,61.1z"></path>
<path d="M262.9,469.4c-119,0-215.8-96.8-215.8-215.8c0-114,89.2-208.5,203.1-215.2c4.4-0.3,8.2,3.1,8.5,7.5c0.3,4.4-3.1,8.2-7.5,8.5
	C145.6,60.5,63,148,63,253.6c0,110.2,89.6,199.8,199.8,199.8c110.2,0,199.8-89.6,199.8-199.8c0-105.5-82.6-193.1-188.1-199.2
	c-4.4-0.3-7.8-4-7.5-8.5c0.3-4.4,4-7.8,8.5-7.5C389.5,45,478.7,139.6,478.7,253.6C478.7,372.6,381.9,469.4,262.9,469.4z M262.9,445
	c-4.4,0-8-3.6-8-8s3.6-8,8-8c96.7,0,175.4-78.7,175.4-175.4c0-4.4,3.6-8,8-8s8,3.6,8,8C454.3,359.1,368.4,445,262.9,445z
	 M262.9,396.1c-78.6,0-142.5-63.9-142.5-142.5c0-4.4,3.6-8,8-8s8,3.6,8,8c0,69.7,56.7,126.5,126.5,126.5
	c69.7,0,126.5-56.7,126.5-126.5c0-64.8-50.5-120.1-115-126c-4.1-0.4-7.3-3.8-7.3-8v-12.8c0-2.3-1.9-4.2-4.2-4.2s-4.2,1.9-4.2,4.2
	c0,4.4-3.6,8-8,8s-8-3.6-8-8c0-11.2,9.1-20.2,20.2-20.2c11.2,0,20.2,9.1,20.2,20.2v5.7c32.4,4.6,62.3,20.3,84.7,44.7
	c24.2,26.4,37.6,60.6,37.6,96.3C405.3,332.1,341.4,396.1,262.9,396.1z M262.9,273.8c-11.2,0-20.2-9.1-20.2-20.2v-100
	c-47.2,9.5-81.8,51-81.8,100c0,4.4-3.6,8-8,8s-8-3.6-8-8c0-29.2,10.8-57.2,30.4-78.9c19.4-21.6,45.9-35.2,74.6-38.4
	c2.3-0.3,4.5,0.5,6.2,2c1.7,1.5,2.7,3.7,2.7,6v109.4c0,2.3,1.9,4.2,4.2,4.2s4.2-1.9,4.2-4.2V144.2c0-4.4,3.6-8,8-8s8,3.6,8,8v109.4
	C283.1,264.7,274,273.8,262.9,273.8z"></path>
</svg>