<svg version="1.1" id="Layer_1" xmlns="http://www.w3.org/2000/svg" xmlns:xlink="http://www.w3.org/1999/xlink" x="0px" y="0px" viewBox="0 0 512 512" enable-background="new 0 0 512 512" xml:space="preserve">
<linearGradient id="SVGID_1_" gradientUnits="userSpaceOnUse" x1="260.682" y1="431.9416" x2="260.682" y2="105.8954" class="gradient-element">
	<stop offset="0" class="primary-color-gradient" style="stop-color: #FFA4ED"></stop>
	<stop offset="1" class="secondary-color-gradient" style="stop-color: #DB81DA"></stop>
</linearGradient>
<path fill="url(#SVGID_1_)" d="M450.7,252.3c0,105-85.1,190.1-190.1,190.1c-101.4,0-184.2-79.3-189.8-179.3c9.1-3,22.5-2.4,26.9,8.2
	c25.4,61.3,70.3,106.3,133.4,116.3c53.8,8.5,89.4-12.1,106.7-32c50.1-57.4,54.8-177.2-75.1-245c-20.3-10.6-8.3-43.3,14.6-43.3h0.8
	c14,0,27.7,1.4,41,4C395.5,96.1,450.7,167.7,450.7,252.3z"></path>
<path d="M261.1,451.6c-110.6,0-200.5-89.9-200.5-200.5c0-110.6,89.9-200.5,200.5-200.5c48.7,0,95.7,17.7,132.3,49.8
	c36.2,31.8,59.8,75.6,66.3,123.1c0.6,4.4-2.5,8.4-6.8,9c-4.4,0.6-8.4-2.5-9-6.8c-12.5-90.7-91-159.2-182.8-159.2
	c-101.7,0-184.5,82.8-184.5,184.5s82.8,184.5,184.5,184.5c96.3,0,177.2-75.2,184-171.1c0.3-4.4,4.2-7.7,8.5-7.4
	c4.4,0.3,7.7,4.1,7.4,8.5c-3.6,50.5-26,97.3-63.1,132C360.8,432.4,312.1,451.6,261.1,451.6z M372.4,322.1
	c15.1-29.8-31.1-48-39.6-50.1c-14.6-5.5-22.2,7.9-30.8,18.8c-13.5,17.1-36.9,6.5-61.3-12.7c-24.4-19.3-40.1-39.6-26.6-56.7
	c8.6-10.9,20-21.3,11.2-34.3c-4-7.8-32.4-48.5-57.9-27c-14.3,12.1-22.7,33.6-22.9,51.6c1.6,32.4,32.4,71.5,69.2,100.4
	c36.6,29.1,81.8,50,113.7,44C345,351.8,363.9,338.7,372.4,322.1z"></path>
<path d="M253.3,488.9c0,4.4-3.6,8-8,8c-57.3,0-112.5-20.8-155.5-58.6c-42.6-37.4-70.3-88.8-78-144.8c-0.6-4.4,2.5-8.4,6.8-9
	c4.4-0.6,8.4,2.5,9,6.8C42.5,399.4,136,480.9,245.3,480.9C249.7,480.9,253.3,484.5,253.3,488.9z M500.6,219.5h-67.8
	c-4.4,0-8,3.6-8,8s3.6,8,8,8h67.8c4.4,0,8-3.6,8-8S505,219.5,500.6,219.5z M488.3,253H380.5c-4.4,0-8,3.6-8,8s3.6,8,8,8h107.8
	c4.4,0,8-3.6,8-8S492.7,253,488.3,253z M457.4,109.8c1.6,1.6,3.6,2.3,5.7,2.3s4.1-0.8,5.7-2.3l2.7-2.7l2.7,2.7
	c1.6,1.6,3.6,2.3,5.7,2.3s4.1-0.8,5.7-2.3c3.1-3.1,3.1-8.2,0-11.3l-2.8-2.8l2.8-2.8c3.1-3.1,3.1-8.2,0-11.3c-3.1-3.1-8.2-3.1-11.3,0
	l-2.7,2.7l-2.7-2.7c-3.1-3.1-8.2-3.1-11.3,0c-3.1,3.1-3.1,8.2,0,11.3l2.8,2.8l-2.8,2.8C454.3,101.6,454.3,106.7,457.4,109.8z
	 M56.1,456.1c-3.1-3.1-8.2-3.1-11.3,0l-2.8,2.8l-2.8-2.8c-3.1-3.1-8.2-3.1-11.3,0c-3.1,3.1-3.1,8.2,0,11.3l2.7,2.7L28,473
	c-3.1,3.1-3.1,8.2,0,11.3c1.6,1.6,3.6,2.3,5.7,2.3s4.1-0.8,5.7-2.3l2.8-2.8l2.8,2.8c1.6,1.6,3.6,2.3,5.7,2.3s4.1-0.8,5.7-2.3
	c3.1-3.1,3.1-8.2,0-11.3l-2.7-2.7l2.7-2.7C59.2,464.3,59.2,459.3,56.1,456.1z M34,70.8c0-14.6,11.8-26.4,26.4-26.4
	s26.4,11.8,26.4,26.4S75,97.2,60.4,97.2S34,85.3,34,70.8z M50,70.8c0,5.7,4.7,10.4,10.4,10.4s10.4-4.7,10.4-10.4
	s-4.7-10.4-10.4-10.4S50,65,50,70.8z M440.5,441.7H191.3c-4.4,0-8,3.6-8,8s3.6,8,8,8h249.2c4.4,0,8-3.6,8-8S444.9,441.7,440.5,441.7
	z"></path>
<g>
	<path fill="#DB81DA" class="secondary-color" d="M501.4,399.3v102.6H400L501.4,399.3z"></path>
	<path fill="#FFA4ED" class="primary-color" d="M427.5,19h73.1v35.8h-73.1V19z"></path>
</g>
</svg>