<svg version="1.1" id="Layer_1" xmlns="http://www.w3.org/2000/svg" xmlns:xlink="http://www.w3.org/1999/xlink" x="0px" y="0px" viewBox="0 0 512 512" enable-background="new 0 0 512 512" xml:space="preserve">
<linearGradient id="SVGID_1_" gradientUnits="userSpaceOnUse" x1="261.1546" y1="282.9625" x2="261.1546" y2="88.7103" class="gradient-element">
	<stop offset="0" class="primary-color-gradient" style="stop-color: #FFA4ED"></stop>
	<stop offset="1" class="secondary-color-gradient" style="stop-color: #DB81DA"></stop>
</linearGradient>
<path fill="url(#SVGID_1_)" d="M153.3,290c7.7-12.5,21.4-20.9,37.2-20.9h92.9c22.7,0,26.6-16.4,26.6-39.1V99l59,48.8V290H153.3z"></path>
<linearGradient id="SVGID_2_" gradientUnits="userSpaceOnUse" x1="80.1967" y1="331.9821" x2="444.6385" y2="331.9821">
	<stop offset="0" class="primary-color-gradient" style="stop-color: #FFA4ED"></stop>
	<stop offset="1" class="secondary-color-gradient" style="stop-color: #DB81DA"></stop>
</linearGradient>
<path fill="url(#SVGID_2_)" d="M228.6,463.1H128.2c-13.3,0-25.3-5.4-33.9-14.1c-8.6-8.6-14-20.4-14.1-33.5
	c-0.2-26.6,22.2-48.4,48.8-48.4h188.9c28.8,0,52.1-23.3,52.1-52.1v-69.8c0-28.8,23.3-44.3,52.1-44.3h0c12.4,0,22.5,10.1,22.5,22.5
	v206.5c0,18.4-14.9,33.3-33.3,33.3H228.6z M228.6,463.1"></path>
<g>
	<path fill="#DB81DA" class="secondary-color" d="M234.3,19.1v25h-22.5v-25H234.3z"></path>
	<path fill="#FFA4ED" class="primary-color" d="M188.1,19.1v25h-21.6v-25H188.1z"></path>
	<path fill="#DB81DA" class="secondary-color" d="M325.7,19.1V74h-22.5V19.1H325.7z"></path>
	<path fill="#FFA4ED" class="primary-color" d="M279.5,19.1V74H258V19.1H279.5z"></path>
</g>
<path d="M131.3,33.8c0,4.4-3.6,8-8,8h-43c-4.4,0-8-3.6-8-8s3.6-8,8-8h43C127.7,25.8,131.3,29.4,131.3,33.8z M101.8,55.8H28
	c-4.4,0-8,3.6-8,8s3.6,8,8,8h73.8c4.4,0,8-3.6,8-8S106.2,55.8,101.8,55.8z M491.2,472h-15.8v-15.8c0-4.4-3.6-8-8-8s-8,3.6-8,8V472
	h-15.8c-4.4,0-8,3.6-8,8s3.6,8,8,8h15.8v15.8c0,4.4,3.6,8,8,8s8-3.6,8-8V488h15.8c4.4,0,8-3.6,8-8S495.6,472,491.2,472z M404,66
	c20.1,0,36.5-16.4,36.5-36.5c0-4.4-3.6-8-8-8s-8,3.6-8,8c0,11.3-9.2,20.5-20.5,20.5c-4.4,0-8,3.6-8,8S399.6,66,404,66z M482,66
	c4.4,0,8-3.6,8-8s-3.6-8-8-8c-11.3,0-20.5-9.2-20.5-20.5c0-4.4-3.6-8-8-8s-8,3.6-8,8C445.5,49.6,461.9,66,482,66z M453.5,115.5
	c4.4,0,8-3.6,8-8c0-11.3,9.2-20.5,20.5-20.5c4.4,0,8-3.6,8-8s-3.6-8-8-8c-20.1,0-36.5,16.4-36.5,36.5
	C445.5,112,449.1,115.5,453.5,115.5z M440.5,107.5c0-20.1-16.4-36.5-36.5-36.5c-4.4,0-8,3.6-8,8s3.6,8,8,8
	c11.3,0,20.5,9.2,20.5,20.5c0,4.4,3.6,8,8,8S440.5,112,440.5,107.5z M38.3,223.3c-5.9,0-10.8,4.8-10.8,10.8s4.8,10.8,10.8,10.8
	c5.9,0,10.8-4.8,10.8-10.8S44.2,223.3,38.3,223.3z M38.5,262c-4.4,0-8,3.6-8,8v131.4c0,4.4,3.6,8,8,8s8-3.6,8-8V270
	C46.5,265.5,42.9,262,38.5,262z M67.4,475.9c0,14.6-11.8,26.4-26.4,26.4s-26.4-11.8-26.4-26.4s11.8-26.4,26.4-26.4
	S67.4,461.4,67.4,475.9z M51.4,475.9c0-5.7-4.7-10.4-10.4-10.4s-10.4,4.7-10.4,10.4s4.7,10.4,10.4,10.4S51.4,481.6,51.4,475.9z"></path>
<linearGradient id="SVGID_3_" gradientUnits="userSpaceOnUse" x1="190.4923" y1="253.4141" x2="309.7832" y2="253.4141">
	<stop offset="0" class="primary-color-gradient" style="stop-color: #FFA4ED"></stop>
	<stop offset="1" class="secondary-color-gradient" style="stop-color: #DB81DA"></stop>
</linearGradient>
<path fill="url(#SVGID_3_)" d="M287.7,217.2h22.1v36.3v36.3h-59h-60.3v-13.1c0-10,8.1-10.6,18.1-10.6h42.9c18,0,18.1-1.4,18.1-30.7
	v0C269.6,225.3,277.7,217.2,287.7,217.2z"></path>
<g>
	<path d="M446.8,265.1c4.4,0,8-3.6,8-8v-31.7c0-16.2-13.2-29.4-29.4-29.4H377v-48.3c0-2.1-0.9-4.2-2.4-5.7l-32-31.8
		c-3.1-3.1-8.2-3.1-11.3,0c-3.1,3.1-3.1,8.2,0,11.3l29.6,29.4v130.5h-43.2v-64.5c0-4.4-3.6-8-8-8H191.7c-4.4,0-8,3.6-8,8v64.5h-28.8
		V162.3c0-0.3,0.1-0.6,0.1-1s0-0.6-0.1-1V107h146.8v72.8H199.3v-50c0-4.4-3.6-8-8-8s-8,3.6-8,8v58c0,4.4,3.6,8,8,8h118.4
		c4.4,0,8-3.6,8-8V99c0-4.4-3.6-8-8-8H146.9c-4.4,0-8,3.6-8,8v54.3h-34.3c-16.2,0-29.4,13.2-29.4,29.4v256.6
		c0,16.2,13.2,29.4,29.4,29.4h320.8c16.2,0,29.4-13.2,29.4-29.4V289.6c0-4.4-3.6-8-8-8H377v-69.5h48.4c7.4,0,13.4,6,13.4,13.4v31.7
		C438.8,261.5,442.4,265.1,446.8,265.1z M199.7,225.2h102.1v56.5H199.7V225.2z M438.8,439.3c0,7.4-6,13.4-13.4,13.4H104.6
		c-7.4,0-13.4-6-13.4-13.4V182.7c0-7.4,6-13.4,13.4-13.4h34.3v112.3h-24.3c-4.4,0-8,3.6-8,8v131.6c0,4.4,3.6,8,8,8s8-3.6,8-8V297.6
		h68.2c0.3,0,0.6,0.1,0.9,0.1h118.1c0.3,0,0.6,0,0.9-0.1h128.1V439.3z"></path>
	<path d="M280.2,166.2c4.4,0,8-3.6,8-8v-29.6c0-4.4-3.6-8-8-8h-14.8c-4.4,0-8,3.6-8,8s3.6,8,8,8h6.8v21.6
		C272.2,162.7,275.8,166.2,280.2,166.2z"></path>
</g>
</svg>