<svg version="1.1" id="Layer_1" xmlns="http://www.w3.org/2000/svg" xmlns:xlink="http://www.w3.org/1999/xlink" x="0px" y="0px" viewBox="0 0 512 512" enable-background="new 0 0 512 512" xml:space="preserve">
<linearGradient id="SVGID_1_" gradientUnits="userSpaceOnUse" x1="300.2667" y1="433.1148" x2="300.2667" y2="110.5054" class="gradient-element">
	<stop offset="0" class="primary-color-gradient" style="stop-color: #FFA4ED"></stop>
	<stop offset="1" class="secondary-color-gradient" style="stop-color: #DB81DA"></stop>
</linearGradient>
<path fill="url(#SVGID_1_)" d="M338.7,394.2v60.8l0,1.6c-0.2-0.2-178.9-178.9-178.9-178.9L338.7,98.8c0,28.7,3.5,41.3-1.9,46.7
	l-134,134c-3,3-2.9,7.8,0.1,10.7l107.2,103.4c5,4.9,13.3,3.7,16.8-2.4C330.1,385.5,338.7,387.8,338.7,394.2z M436.6,146.3l-7.1-7.1
	L294.8,276.7c-1.1,1.1-1.1,2.9,0,4.1c16.9,16.9,133.9,133.9,134,134.1l0-1.2v-53.5c0-3-3.9-4-5.4-1.4c-2.6,4.5-7.3,6.9-12,6.9
	c-3.4,0-6.8-1.2-9.5-3.9l-74.9-72.3c-3.1-3-3.1-7.9-0.1-10.9l109.6-112.4l0.1-0.1C442.1,160.6,442.1,151.7,436.6,146.3z"></path>
<path d="M344.4,364.7c1.5,1.5,2.3,3.5,2.3,5.7v86.2c0,3.2-1.9,6.1-4.9,7.4c-1,0.4-2,0.6-3.1,0.6c-2.1,0-4.1-0.8-5.6-2.3l-0.9-0.9
	L163.5,292.7c-4-4-6.2-9.3-6.2-15c0-5.7,2.2-11,6.2-15C197.6,228.6,331.2,95,333,93.2c2.2-2.3,5.6-3,8.6-1.9
	c3.1,1.2,5.1,4.1,5.1,7.4l0,1.6c0,0,0,0.1,0,0.1v52.3c0,4.4-3.6,8-8,8s-8-3.6-8-8v-34.5C312.7,136.1,271,177.8,174.8,274
	c-1,1-1.5,2.3-1.5,3.7c0,1.4,0.5,2.7,1.5,3.7l155.9,155.9v-63.6l-84.4-84.4c-6.4-6.4-6.4-16.7,0-23.1l86.8-86.8
	c3.1-3.1,8.2-3.1,11.3,0c3.1,3.1,3.1,8.2,0,11.3l-86.8,86.8c-0.1,0.1-0.1,0.4,0,0.5L344.4,364.7z M435.5,351.8c-4.4,0-8,3.6-8,8
	v45.5C383,360.8,320,297.7,300.9,278.7l128.4-128.4c3.1-3.1,3.1-8.2,0-11.3c-3.1-3.1-8.2-3.1-11.3,0L283.9,273
	c-3.1,3.1-3.1,8.2,0,11.3c0,0,94.2,94.2,145.9,145.9c1.5,1.5,3.6,2.3,5.7,2.3c1,0,2.1-0.2,3.1-0.6c3-1.2,4.9-4.2,4.9-7.4v-64.8
	C443.5,355.4,439.9,351.8,435.5,351.8z M428.9,236.9c3.1-3.1,3.1-8.2,0-11.3c-3.1-3.1-8.2-3.1-11.3,0l-42.5,42.5
	c-2.8,2.8-4.4,6.6-4.4,10.6c0,4,1.6,7.8,4.4,10.6l47.1,47.1c1.6,1.6,3.6,2.3,5.7,2.3s4.1-0.8,5.7-2.3c3.1-3.1,3.1-8.2,0-11.3
	l-46.4-46.4L428.9,236.9z"></path>
<g>
	<path fill="#DB81DA" class="secondary-color" d="M164.8,150.5L42.9,272.3V150.5H164.8z"></path>
	<path fill="#FFA4ED" class="primary-color" d="M309.2,42.6L309.2,42.6c0-12,9.8-21.8,21.8-21.8h132.5c12,0,21.8,9.8,21.8,21.8v0c0,12-9.8,21.8-21.8,21.8
		H331C318.9,64.4,309.2,54.6,309.2,42.6z"></path>
</g>
<path d="M282.5,78c0,4.4-3.6,8-8,8H108.9c-4.4,0-8-3.6-8-8s3.6-8,8-8h165.6C279,70,282.5,73.6,282.5,78z M166.8,50.6
	c4.4,0,8-3.6,8-8s-3.6-8-8-8H51c-4.4,0-8,3.6-8,8s3.6,8,8,8H166.8z M86.9,369.2c-4.4,0-8,3.6-8,8c0,11.4-9.3,20.8-20.8,20.8
	c-4.4,0-8,3.6-8,8s3.6,8,8,8c20.3,0,36.8-16.5,36.8-36.8C94.9,372.8,91.3,369.2,86.9,369.2z M136.9,398c-11.4,0-20.7-9.3-20.7-20.8
	c0-4.4-3.6-8-8-8s-8,3.6-8,8c0,20.3,16.5,36.8,36.7,36.8c4.4,0,8-3.6,8-8S141.3,398,136.9,398z M136.9,419.2
	c-20.3,0-36.7,16.5-36.7,36.8c0,4.4,3.6,8,8,8s8-3.6,8-8c0-11.4,9.3-20.8,20.7-20.8c4.4,0,8-3.6,8-8S141.3,419.2,136.9,419.2z
	 M58.1,419.2c-4.4,0-8,3.6-8,8s3.6,8,8,8c11.4,0,20.8,9.3,20.8,20.8c0,4.4,3.6,8,8,8s8-3.6,8-8C94.9,435.7,78.4,419.2,58.1,419.2z
	 M411.4,478.5c0,5-4.1,9-9,9s-9-4.1-9-9s4.1-9,9-9S411.4,473.5,411.4,478.5z M441.4,478.5c0,5-4.1,9-9,9s-9-4.1-9-9s4.1-9,9-9
	S441.4,473.5,441.4,478.5z M471.4,478.5c0,5-4.1,9-9,9s-9-4.1-9-9s4.1-9,9-9S471.4,473.5,471.4,478.5z M239.3,461.3
	c-14.6,0-26.4,11.8-26.4,26.4c0,4.4,3.6,8,8,8s8-3.6,8-8c0-5.7,4.7-10.4,10.4-10.4s10.4,4.7,10.4,10.4c0,4.4,3.6,8,8,8s8-3.6,8-8
	C265.7,473.1,253.8,461.3,239.3,461.3z"></path>
</svg>