<svg version="1.1" id="Layer_1" xmlns="http://www.w3.org/2000/svg" xmlns:xlink="http://www.w3.org/1999/xlink" x="0px" y="0px" viewBox="0 0 512 512" enable-background="new 0 0 512 512" xml:space="preserve">
<path fill="#000000" d="M335.3,393.4c0,4.4-3.6,8-8,8h-58.1c-4.4,0-8-3.6-8-8s3.6-8,8-8h58.1C331.8,385.4,335.3,389,335.3,393.4z
	 M242.7,409.2H142.5c-4.4,0-8,3.6-8,8s3.6,8,8,8h100.2c4.4,0,8-3.6,8-8S247.1,409.2,242.7,409.2z M430.9,56.9h-15.8V41.1
	c0-4.4-3.6-8-8-8s-8,3.6-8,8v15.8h-15.8c-4.4,0-8,3.6-8,8s3.6,8,8,8h15.8v15.8c0,4.4,3.6,8,8,8s8-3.6,8-8V72.9h15.8c4.4,0,8-3.6,8-8
	S435.3,56.9,430.9,56.9z M54.3,440.9h-3.9V437c0-4.4-3.6-8-8-8s-8,3.6-8,8v3.9h-3.9c-4.4,0-8,3.6-8,8s3.6,8,8,8h3.9v3.9
	c0,4.4,3.6,8,8,8s8-3.6,8-8v-3.9h3.9c4.4,0,8-3.6,8-8S58.8,440.9,54.3,440.9z M65.1,99.5c0,14.6-11.8,26.4-26.4,26.4
	S12.3,114,12.3,99.5s11.8-26.4,26.4-26.4S65.1,84.9,65.1,99.5z M49.1,99.5c0-5.7-4.7-10.4-10.4-10.4s-10.4,4.7-10.4,10.4
	s4.7,10.4,10.4,10.4S49.1,105.2,49.1,99.5z M360.9,85.1c-5.9,0-10.8,4.8-10.8,10.8s4.8,10.8,10.8,10.8c5.9,0,10.8-4.8,10.8-10.8
	S366.9,85.1,360.9,85.1z"></path>
<path fill="#DB81DA" class="secondary-color" d="M188.8,28.3v21.9H25.3V28.3H188.8z"></path>
<linearGradient id="SVGID_1_" gradientUnits="userSpaceOnUse" x1="255.5886" y1="372.6216" x2="257.0922" y2="270.3746" class="gradient-element">
	<stop offset="0" class="primary-color-gradient" style="stop-color: #FFA4ED"></stop>
	<stop offset="1" class="secondary-color-gradient" style="stop-color: #DB81DA"></stop>
</linearGradient>
<path fill="url(#SVGID_1_)" d="M194.5,320.3c-1.2,1.2-30.3,30.6-85,30.6c-54.6,0-83.7-29.4-85-30.6h0c-4.3-4.4-5-11.2-1.7-16.4l0,0
	c2.4-3.8,6.7-6.2,11.2-6.2H185c4.6,0,8.8,2.3,11.2,6.2l0,0C199.5,309.1,198.8,315.9,194.5,320.3L194.5,320.3z M490.1,303.9
	L490.1,303.9c-2.4-3.9-6.7-6.2-11.2-6.2H328c-4.6,0-8.8,2.3-11.2,6.2l0,0c-3.3,5.2-2.6,11.9,1.7,16.4l0,0c1.2,1.2,30.3,30.6,85,30.6
	s83.7-29.4,85-30.6l0,0C492.7,315.9,493.4,309.1,490.1,303.9z"></path>
<path d="M349,491.7H163c-4.4,0-8-3.6-8-8v-26.6c0-4.4,3.6-8,8-8h71.7v-8.6c0-4.4,3.6-8,8-8s8,3.6,8,8v16.6c0,4.4-3.6,8-8,8H171v10.6
	h170v-10.6h-71.7c-4.4,0-8-3.6-8-8v-45.4c0-4.4,3.6-8,8-8s8,3.6,8,8v37.4H349c4.4,0,8,3.6,8,8v26.6C357,488.2,353.4,491.7,349,491.7
	z M242.7,425.2c-4.4,0-8-3.6-8-8v-244c-45.9,1.6-77.4,8.2-102.8,14.1l76.7,121.2c2,3.1,1.6,7.2-1,9.8l-7.3,7.5
	c-1.3,1.4-32.8,33-90.7,33s-89.4-31.7-90.7-33l-7.3-7.5c-2.6-2.7-3-6.7-1-9.8l71-112.2c-0.8-0.8-1.4-1.8-1.8-3
	c-1.4-4.2,0.8-8.7,4.9-10.1c0,0,3.2-1.1,9.4-2.9c3.2-0.9,6.6,0.2,8.6,2.9c2,2.7,2.1,6.3,0.4,9.1L27.4,311.7l2.9,3
	c1.1,1.1,28,28.2,79.2,28.2s78.1-27,79.2-28.2l2.9-3l-79.3-125.3c-1.4-2.2-1.6-4.9-0.6-7.3s3.1-4.2,5.6-4.8l3.5-0.8
	c28.9-6.8,65-15.3,121.7-16.5c2.2,0,4.2,0.8,5.8,2.3c1.5,1.5,2.4,3.6,2.4,5.7v252.2C250.7,421.6,247.1,425.2,242.7,425.2z
	 M269.3,401.4c-4.4,0-8-3.6-8-8V165c0-2.2,0.9-4.2,2.4-5.7s3.6-2.3,5.8-2.3c57.7,1.2,94.6,9.9,124.2,16.8l2.1,0.5
	c2.5,0.6,4.6,2.4,5.6,4.8s0.7,5.1-0.6,7.3l-79.3,125.3l2.9,3c1.1,1.2,27.9,28.2,79.2,28.2c51.3,0,78.1-27,79.2-28.2l2.9-3L410,192.3
	c-1.8-2.8-1.6-6.4,0.4-9.1c2-2.7,5.4-3.8,8.6-2.9c5.9,1.7,9.2,2.8,9.5,2.9c4.2,1.5,6.3,6.1,4.8,10.3c-0.4,1.1-1,2.1-1.8,2.9
	l71,112.2c2,3.1,1.6,7.2-1,9.9l-7.3,7.5c-1.3,1.3-32.7,33-90.7,33c-58,0-89.4-31.7-90.7-33l-7.3-7.5c-2.6-2.7-3-6.7-1-9.9
	l76.7-121.2c-25.9-6-57.8-12.5-103.8-14.1v220.2C277.3,397.8,273.7,401.4,269.3,401.4z M345.6,316.1c-1.5,0-2.9-0.4-4.3-1.2
	c-3.7-2.4-4.8-7.3-2.5-11l57.8-91.4c1.5-2.3,4-3.7,6.8-3.7c2.7,0,5.3,1.4,6.8,3.7l57.8,91.3c2.4,3.7,1.3,8.7-2.5,11
	c-3.7,2.4-8.7,1.3-11-2.5l-51-80.6l-51.1,80.7C350.9,314.8,348.3,316.1,345.6,316.1z M51.7,316.1c-1.5,0-2.9-0.4-4.3-1.2
	c-3.7-2.4-4.8-7.3-2.5-11l57.8-91.4c1.5-2.3,4-3.7,6.8-3.7s5.3,1.4,6.8,3.7l57.8,91.4c2.4,3.7,1.3,8.7-2.5,11
	c-3.7,2.4-8.7,1.3-11-2.5l-51.1-80.7l-51.1,80.7C57,314.8,54.4,316.1,51.7,316.1z M434.3,173.6c-0.9,0-1.7-0.1-2.6-0.4
	c-0.3-0.1-0.8-0.3-1.5-0.6c-15.9-6.3-51.2-17.6-109.3-23.2c-3.6-0.3-6.6-3.1-7.1-6.7c-4.3-28.2-29.2-49.5-57.8-49.5
	c-28.6,0-53.4,21.3-57.8,49.5c-0.6,3.6-3.5,6.4-7.1,6.7c-42.9,4.1-81.3,12.3-108.2,23.1c-0.8,0.3-1.4,0.5-1.6,0.6
	c-4.2,1.4-8.7-0.8-10.1-5c-1.4-4.2,0.8-8.7,4.9-10.1c0.2-0.1,0.5-0.2,0.9-0.3c27-10.9,64.7-19.2,106.7-23.6
	c3.6-15,11.9-28.6,23.7-38.8c13.5-11.7,30.8-18.2,48.7-18.2c17.9,0,35.2,6.4,48.7,18.2c11.8,10.2,20,23.8,23.7,38.8
	c42.2,4.4,80.3,12.8,107.8,23.6c0.4,0.2,0.7,0.3,0.8,0.3c4.2,1.4,6.4,6,5,10.1C440.8,171.5,437.6,173.6,434.3,173.6z M293.9,147.3
	c-0.1,0-0.3,0-0.4,0c-23.8-1.3-51.2-1.3-75,0c-2.6,0.1-5.2-1-6.8-3.1s-2.1-4.8-1.3-7.3c6.4-19.8,24.7-33.2,45.6-33.2
	c20.8,0,39.1,13.3,45.6,33.2c0.8,2.5,0.3,5.3-1.3,7.3C298.8,146.2,296.4,147.3,293.9,147.3z M256,119.7c-9.5,0-18.2,4.2-24.1,11
	c15.9-0.5,32.4-0.5,48.2,0C274.2,123.9,265.5,119.7,256,119.7z"></path>
</svg>