<svg version="1.1" id="Layer_1" xmlns="http://www.w3.org/2000/svg" xmlns:xlink="http://www.w3.org/1999/xlink" x="0px" y="0px" viewBox="0 0 512 512" enable-background="new 0 0 512 512" xml:space="preserve">
<linearGradient id="SVGID_1_" gradientUnits="userSpaceOnUse" x1="261.135" y1="374.0541" x2="260.0657" y2="123.837" class="gradient-element">
	<stop offset="0" class="primary-color-gradient" style="stop-color: #FFA4ED"></stop>
	<stop offset="1" class="secondary-color-gradient" style="stop-color: #DB81DA"></stop>
</linearGradient>
<path fill="url(#SVGID_1_)" d="M260.4,290.4l35.4,35.3l-52.6,52.6c-9.7,9.7-25.4,9.7-35.1,0l-52.7-52.6c-9.7-9.7-9.7-25.4,0-35.1
	l52.7-52.7l35.1,35.1L207.7,308l17.7,17.5L260.4,290.4z M366,220.4l-52.6-52.6c-9.7-9.7-25.4-9.7-35.1,0l-52.8,52.7l35.1,35.1
	l34.9-35.4l17.5,17.5l-35.1,35.1l35.4,35.4l52.7-52.7C375.7,245.8,375.7,230.1,366,220.4z"></path>
<path d="M477.4,202.6c-5.8,27.3-22.2,44.3-22.9,45L336.2,366.3c-1.5,1.5-3.5,2.4-5.7,2.4c0,0,0,0,0,0c-2.1,0-4.2-0.8-5.7-2.3
	l-64.6-64.5L231,331.1c-3.1,3.1-8.2,3.1-11.3,0l-17.6-17.5c-1.5-1.5-2.4-3.6-2.4-5.7s0.9-4.2,2.4-5.7l29.7-29.3l-29.4-29.4
	c-1.5-1.5-2.3-3.5-2.3-5.7c0-2.1,0.8-4.2,2.3-5.7l17.5-17.5c1.5-1.5,3.5-2.3,5.7-2.3s4.2,0.8,5.7,2.3l29.4,29.4l29.2-29.6
	c1.5-1.5,3.5-2.4,5.7-2.4c0,0,0,0,0,0c2.1,0,4.2,0.8,5.7,2.3l17.5,17.5c1.5,1.5,2.3,3.5,2.3,5.7c0,2.1-0.8,4.2-2.3,5.7l-29.5,29.4
	l47,47c3.1,3.1,3.1,8.2,0,11.3c-3.1,3.1-8.2,3.1-11.3,0l-52.7-52.7c-1.5-1.5-2.3-3.5-2.3-5.7s0.8-4.2,2.3-5.7l29.5-29.4l-6.2-6.2
	l-29.2,29.6c-1.5,1.5-3.5,2.4-5.7,2.4c0,0,0,0,0,0c-2.1,0-4.2-0.8-5.7-2.3l-29.4-29.4l-6.1,6.1l29.5,29.4c1.5,1.5,2.4,3.6,2.3,5.7
	c0,2.1-0.9,4.2-2.4,5.7L219.1,308l6.2,6.2l29.4-29.4c3.1-3.1,8.2-3.1,11.3,0l64.5,64.5l112.5-112.9c2.2-2.3,54.3-57.2-17.4-128.9
	c-29.8-29.8-60.2-42-90.3-36.4c-23,4.3-37.6,17.8-38.5,18.7c-0.1,0.1-0.1,0.1-0.2,0.2L78.3,308.7c-44,43.9-7.9,103.5,17.3,128.9
	c25.4,25.2,85,61.3,128.8,17.3l8.8-8.8c0.6-0.6,1.3-1.1,2-1.5l72.2-72.1c3.1-3.1,8.2-3.1,11.3,0s3.1,8.2,0,11.3l-73.9,73.8
	c-0.6,0.6-1.3,1.1-2,1.4l-7.1,7.1c-18.5,18.6-39.1,25.6-59.2,25.6c-37.3,0-73.2-23.9-92.2-42.8C55.1,419.6,14,350.2,67,297.4
	L285.4,78.7l0,0c4.8-5,25.6-21.9,56.1-24.6c32.7-2.9,64.8,11.3,95.6,42C480,139.1,482.7,177.7,477.4,202.6z"></path>
<path fill="#DB81DA" class="secondary-color" d="M17.6,29.2h21.8v250H17.6V29.2z"></path>
<path d="M185,147.5c0,4.4-3.6,8-8,8h-43c-4.4,0-8-3.6-8-8s3.6-8,8-8h43C181.4,139.5,185,143.1,185,147.5z M130.7,180.1H56.9
	c-4.4,0-8,3.6-8,8s3.6,8,8,8h73.8c4.4,0,8-3.6,8-8S135.1,180.1,130.7,180.1z M436.6,98.4h15.8v15.8c0,4.4,3.6,8,8,8s8-3.6,8-8V98.4
	h15.8c4.4,0,8-3.6,8-8s-3.6-8-8-8h-15.8V66.6c0-4.4-3.6-8-8-8s-8,3.6-8,8v15.8h-15.8c-4.4,0-8,3.6-8,8S432.2,98.4,436.6,98.4z
	 M91.1,64c20.3,0,36.8-16.5,36.8-36.8c0-4.4-3.6-8-8-8s-8,3.6-8,8c0,11.4-9.3,20.8-20.8,20.8c-4.4,0-8,3.6-8,8S86.7,64,91.1,64z
	 M169.9,64c4.4,0,8-3.6,8-8s-3.6-8-8-8c-11.4,0-20.8-9.3-20.8-20.8c0-4.4-3.6-8-8-8s-8,3.6-8,8C133.1,47.5,149.6,64,169.9,64z
	 M141.1,114c4.4,0,8-3.6,8-8c0-11.4,9.3-20.8,20.8-20.8c4.4,0,8-3.6,8-8s-3.6-8-8-8c-20.3,0-36.8,16.5-36.8,36.8
	C133.1,110.4,136.7,114,141.1,114z M91.1,85.2c11.4,0,20.8,9.3,20.8,20.8c0,4.4,3.6,8,8,8s8-3.6,8-8c0-20.3-16.5-36.8-36.8-36.8
	c-4.4,0-8,3.6-8,8S86.7,85.2,91.1,85.2z M473.4,327.5c-5.9,0-10.8,4.8-10.8,10.8s4.8,10.8,10.8,10.8c5.9,0,10.8-4.8,10.8-10.8
	S479.4,327.5,473.4,327.5z M359.1,460.2h-43c-4.4,0-8,3.6-8,8s3.6,8,8,8h43c4.4,0,8-3.6,8-8S363.5,460.2,359.1,460.2z M411.4,430.2
	h-73.8c-4.4,0-8,3.6-8,8s3.6,8,8,8h73.8c4.4,0,8-3.6,8-8S415.8,430.2,411.4,430.2z M483.1,238.1h-73.8c-4.4,0-8,3.6-8,8s3.6,8,8,8
	h73.8c4.4,0,8-3.6,8-8S487.6,238.1,483.1,238.1z"></path>
</svg>