<svg version="1.1" id="Layer_1" xmlns="http://www.w3.org/2000/svg" xmlns:xlink="http://www.w3.org/1999/xlink" x="0px" y="0px" viewBox="0 0 512 512" enable-background="new 0 0 512 512" xml:space="preserve">
<linearGradient id="SVGID_1_" gradientUnits="userSpaceOnUse" x1="276.7211" y1="422.9735" x2="276.7211" y2="113.8875" class="gradient-element">
	<stop offset="0" class="primary-color-gradient" style="stop-color: #FFA4ED"></stop>
	<stop offset="1" class="secondary-color-gradient" style="stop-color: #DB81DA"></stop>
</linearGradient>
<path fill="url(#SVGID_1_)" d="M336.2,146.7c0-12.9,150.1,88.4,150.1,88.4h-42v165.3H67.2v2.4c0-40.7,37.8-73.6,84.5-73.6h132
	c54.5,0,52-45.8,52-174.4v-0.7C335.7,151.6,336.2,149.1,336.2,146.7z"></path>
<path d="M331.7,227.1c4.4,0,8,3.6,8,8s-3.6,8-8,8h-45.5v115.8c0,4.4-3.6,8-8,8s-8-3.6-8-8V235.1c0-4.4,3.6-8,8-8H331.7z M198,227.1
	c-4.4,0-8,3.6-8,8v123.8c0,4.4,3.6,8,8,8s8-3.6,8-8V243.1h45.5c4.4,0,8-3.6,8-8s-3.6-8-8-8H198z M132.5,188.5l132.4-77.9l198,116.5
	h-24.1c-4.4,0-8,3.6-8,8V369c0,4.4,3.6,8,8,8s8-3.6,8-8V243.1h45.5c3.6,0,6.8-2.4,7.7-5.9c0.9-3.5-0.6-7.2-3.7-9L268.9,94.4
	c-2.5-1.5-5.6-1.5-8.1,0l-136.4,80.3c-3.8,2.2-5.1,7.1-2.8,11C123.8,189.4,128.7,190.7,132.5,188.5z M358.5,227.1c-4.4,0-8,3.6-8,8
	v123.8c0,4.4,3.6,8,8,8s8-3.6,8-8V243.1H412c4.4,0,8-3.6,8-8s-3.6-8-8-8H358.5z M492.2,468.8H56.4l5.4-10.8h412c4.4,0,8-3.6,8-8
	s-3.6-8-8-8H56.8c-3,0-5.8,1.7-7.2,4.4l-13.4,26.8c-1.2,2.5-1.1,5.4,0.4,7.8s4,3.8,6.8,3.8h448.8c4.4,0,8-3.6,8-8
	S496.6,468.8,492.2,468.8z M117.7,366.8c4.4,0,8-3.6,8-8V243.1h45.5c4.4,0,8-3.6,8-8s-3.6-8-8-8h-53.5c-4.4,0-8,3.6-8,8v123.8
	C109.7,363.2,113.3,366.8,117.7,366.8z M83,243.1v117.8H64.2c-4.4,0-8,3.6-8,8v26.8c0,4.4,3.6,8,8,8h375.6l5.4,10.8H69.3
	c-4.4,0-8,3.6-8,8s3.6,8,8,8h388.8c2.8,0,5.3-1.4,6.8-3.8c1.5-2.4,1.6-5.3,0.3-7.8L451.9,392c-1.4-2.7-4.1-4.4-7.2-4.4H72.2v-10.8
	H91c4.4,0,8-3.6,8-8V235.1c0-4.4-3.6-8-8-8H66.8L87,215.2c3.8-2.2,5.1-7.1,2.8-11c-2.2-3.8-7.1-5.1-11-2.8l-45.5,26.8
	c-3.1,1.8-4.6,5.5-3.7,9c0.9,3.5,4.1,5.9,7.7,5.9H83z"></path>
<path d="M392.8,72c4.2,4.2,4.2,11,0,15.2c-4.2,4.2-11,4.2-15.2,0c-4.2-4.2-4.2-11,0-15.2C381.8,67.8,388.6,67.8,392.8,72z
	 M58.7,77.7h-3.9v-3.9c0-4.4-3.6-8-8-8s-8,3.6-8,8v3.9h-3.9c-4.4,0-8,3.6-8,8s3.6,8,8,8h3.9v3.9c0,4.4,3.6,8,8,8s8-3.6,8-8v-3.9h3.9
	c4.4,0,8-3.6,8-8S63.1,77.7,58.7,77.7z M480.7,102h-15.8V86.2c0-4.4-3.6-8-8-8s-8,3.6-8,8V102h-15.8c-4.4,0-8,3.6-8,8s3.6,8,8,8
	h15.8v15.8c0,4.4,3.6,8,8,8s8-3.6,8-8V118h15.8c4.4,0,8-3.6,8-8S485.1,102,480.7,102z"></path>
</svg>