<svg version="1.1" id="Layer_1" xmlns="http://www.w3.org/2000/svg" xmlns:xlink="http://www.w3.org/1999/xlink" x="0px" y="0px" viewBox="0 0 512 512" enable-background="new 0 0 512 512" xml:space="preserve">
<linearGradient id="SVGID_1_" gradientUnits="userSpaceOnUse" x1="314.1188" y1="364.7399" x2="312.603" y2="122.2136" class="gradient-element">
	<stop offset="0" class="primary-color-gradient" style="stop-color: #FFA4ED"></stop>
	<stop offset="1" class="secondary-color-gradient" style="stop-color: #DB81DA"></stop>
</linearGradient>
<path fill="url(#SVGID_1_)" d="M476.9,353.8h-327V143.6h327V353.8z"></path>
<path d="M235.3,353.8c0-4.4,3.6-8,8-8h15.4V96.8c0-4.4,3.6-8,8-8s8,3.6,8,8v256.9c0,4.4-3.6,8-8,8h-23.4
	C238.9,361.8,235.3,358.2,235.3,353.8z M126.5,361.8h23.4c4.4,0,8-3.6,8-8s-3.6-8-8-8h-15.4v-167c0-4.4-3.6-8-8-8s-8,3.6-8,8v175
	C118.5,358.2,122.1,361.8,126.5,361.8z M126.5,158.7c4.4,0,8-3.6,8-8v-18.9c0-4.4-3.6-8-8-8s-8,3.6-8,8v18.9
	C118.5,155.1,122.1,158.7,126.5,158.7z M126.5,113.2c4.4,0,8-3.6,8-8v-8.4c0-4.4-3.6-8-8-8s-8,3.6-8,8v8.4
	C118.5,109.6,122.1,113.2,126.5,113.2z M111.2,353.8c0-4.4-3.6-8-8-8H87.8V177.7c0-4.4-3.6-8-8-8s-8,3.6-8,8v176.1c0,4.4,3.6,8,8,8
	h23.4C107.6,361.8,111.2,358.2,111.2,353.8z M79.8,158.7c4.4,0,8-3.6,8-8V96.8c0-4.4-3.6-8-8-8s-8,3.6-8,8v53.8
	C71.8,155.1,75.4,158.7,79.8,158.7z M290,361.8h23.4c4.4,0,8-3.6,8-8V96.8c0-4.4-3.6-8-8-8s-8,3.6-8,8v248.9H290c-4.4,0-8,3.6-8,8
	S285.6,361.8,290,361.8z M336.8,361.8h23.4c4.4,0,8-3.6,8-8V96.8c0-4.4-3.6-8-8-8s-8,3.6-8,8v248.9h-15.4c-4.4,0-8,3.6-8,8
	S332.3,361.8,336.8,361.8z M430.2,88.8c-4.4,0-8,3.6-8,8v248.9h-38.7c-4.4,0-8,3.6-8,8s3.6,8,8,8h46.7c4.4,0,8-3.6,8-8V96.8
	C438.2,92.4,434.6,88.8,430.2,88.8z M476.9,88.8c-4.4,0-8,3.6-8,8v295.7h-15.4c-4.4,0-8,3.6-8,8s3.6,8,8,8h23.4c4.4,0,8-3.6,8-8
	V96.8C484.9,92.4,481.3,88.8,476.9,88.8z M173.2,361.8H220c4.4,0,8-3.6,8-8s-3.6-8-8-8h-38.7v-212c0-4.4-3.6-8-8-8c-4.4,0-8,3.6-8,8
	v220C165.2,358.2,168.8,361.8,173.2,361.8z M173.2,115.5c4.4,0,8-3.6,8-8V96.8c0-4.4-3.6-8-8-8c-4.4,0-8,3.6-8,8v10.7
	C165.2,112,168.8,115.5,173.2,115.5z M56.4,392.5H41.1V96.8c0-4.4-3.6-8-8-8s-8,3.6-8,8v303.7c0,4.4,3.6,8,8,8h23.4c4.4,0,8-3.6,8-8
	S60.9,392.5,56.4,392.5z M406.8,397.8c4.4,0,8-3.6,8-8s-3.6-8-8-8H103.2c-4.4,0-8,3.6-8,8v23.4c0,4.4,3.6,8,8,8h303.7
	c4.4,0,8-3.6,8-8s-3.6-8-8-8H111.2v-7.4H406.8z"></path>
<path d="M458.1,262.4c-4.4,0-8-3.6-8-8v-3.9h-3.9c-4.4,0-8-3.6-8-8s3.6-8,8-8h3.9v-3.9c0-4.4,3.6-8,8-8s8,3.6,8,8v3.9h3.9
	c4.4,0,8,3.6,8,8s-3.6,8-8,8h-3.9v3.9C466.1,258.8,462.5,262.4,458.1,262.4z M477.5,41.8H343.3c-4.4,0-8,3.6-8,8s3.6,8,8,8h134.2
	c4.4,0,8-3.6,8-8S481.9,41.8,477.5,41.8z M143.4,462.7H63.9c-4.4,0-8,3.6-8,8s3.6,8,8,8h79.5c4.4,0,8-3.6,8-8
	S147.8,462.7,143.4,462.7z M25.7,32.7c-4.2,4.2-4.2,11,0,15.2c4.2,4.2,11,4.2,15.2,0c4.2-4.2,4.2-11,0-15.2S29.9,28.5,25.7,32.7z
	 M461.2,463.1c-4.2,4.2-4.2,11,0,15.2c4.2,4.2,11,4.2,15.2,0c4.2-4.2,4.2-11,0-15.2S465.4,458.9,461.2,463.1z M410.4,462.7h-3.9
	v-3.9c0-4.4-3.6-8-8-8s-8,3.6-8,8v3.9h-3.9c-4.4,0-8,3.6-8,8s3.6,8,8,8h3.9v3.9c0,4.4,3.6,8,8,8s8-3.6,8-8v-3.9h3.9c4.4,0,8-3.6,8-8
	S414.8,462.7,410.4,462.7z M167.1,142.7H56.3c-4.4,0-8,3.6-8,8s3.6,8,8,8h110.8c4.4,0,8-3.6,8-8S171.5,142.7,167.1,142.7z
	 M184.4,99.5h-68.8c-4.4,0-8,3.6-8,8s3.6,8,8,8h68.8c4.4,0,8-3.6,8-8S188.8,99.5,184.4,99.5z"></path>
</svg>