<svg version="1.1" id="Layer_1" xmlns="http://www.w3.org/2000/svg" xmlns:xlink="http://www.w3.org/1999/xlink" x="0px" y="0px" viewBox="0 0 512 512" enable-background="new 0 0 512 512" xml:space="preserve">
<linearGradient id="SVGID_1_" gradientUnits="userSpaceOnUse" x1="145.8403" y1="279.4329" x2="406" y2="279.4329" class="gradient-element">
	<stop offset="0" class="primary-color-gradient" style="stop-color: #FFA4ED"></stop>
	<stop offset="1" class="secondary-color-gradient" style="stop-color: #DB81DA"></stop>
</linearGradient>
<path fill="url(#SVGID_1_)" d="M406,274.5c0,80.9-65.6,146.5-146.5,146.5c-45.9,0-86.8-21.1-113.7-54.1c18.8,9,39.9,14.1,62.2,14.1
	c79.5,0,144-64.5,144-144c0-38.4-15-73.3-39.6-99.1C367.2,159.1,406,212.3,406,274.5z"></path>
<g>
	<path fill="#DB81DA" class="secondary-color" d="M374.4,125l57.8-57.8L490,125H374.4z"></path>
	<path fill="#FFA4ED" class="primary-color" d="M77.5,486.2H42.8v-34.7h34.7V486.2z M132.8,451.6H98.1v34.7h34.7V451.6z"></path>
	<path fill="#FFA4ED" class="primary-color" d="M188,486.2h-34.7v-34.7H188V486.2z"></path>
</g>
<path fill="#000000" d="M118.1,126.7c0,4.4-3.6,8-8,8H36.3c-4.4,0-8-3.6-8-8s3.6-8,8-8h73.8C114.5,118.7,118.1,122.3,118.1,126.7z
	 M95.4,394.2H79.6v-15.8c0-4.4-3.6-8-8-8s-8,3.6-8,8v15.8H47.9c-4.4,0-8,3.6-8,8s3.6,8,8,8h15.8V426c0,4.4,3.6,8,8,8s8-3.6,8-8
	v-15.8h15.8c4.4,0,8-3.6,8-8S99.8,394.2,95.4,394.2z M158.5,12.1c-4.4,0-8,3.6-8,8c0,11.4-9.3,20.8-20.8,20.8c-4.4,0-8,3.6-8,8
	s3.6,8,8,8c20.3,0,36.8-16.5,36.8-36.8C166.5,15.7,162.9,12.1,158.5,12.1z M208.5,40.8c-11.4,0-20.8-9.3-20.8-20.8c0-4.4-3.6-8-8-8
	c-4.4,0-8,3.6-8,8c0,20.3,16.5,36.8,36.8,36.8c4.4,0,8-3.6,8-8S212.9,40.8,208.5,40.8z M208.5,62.1c-20.3,0-36.8,16.5-36.8,36.8
	c0,4.4,3.6,8,8,8c4.4,0,8-3.6,8-8c0-11.4,9.3-20.8,20.8-20.8c4.4,0,8-3.6,8-8S212.9,62.1,208.5,62.1z M129.8,62.1c-4.4,0-8,3.6-8,8
	s3.6,8,8,8c11.4,0,20.8,9.3,20.8,20.8c0,4.4,3.6,8,8,8s8-3.6,8-8C166.5,78.6,150,62.1,129.8,62.1z M48.5,190.7
	c0-5.9-4.8-10.8-10.8-10.8S27,184.8,27,190.7s4.8,10.8,10.8,10.8S48.5,196.7,48.5,190.7z M491.6,141.1h-63.1c-4.4,0-8,3.6-8,8
	s3.6,8,8,8h63.1c4.4,0,8-3.6,8-8S496.1,141.1,491.6,141.1z M444.1,446.9c-5.9,0-10.8,4.8-10.8,10.8c0,5.9,4.8,10.8,10.8,10.8
	c5.9,0,10.8-4.8,10.8-10.8C454.8,451.7,450,446.9,444.1,446.9z"></path>
<path d="M413.6,288.5c6.9-40.2-13.9-89-37.1-114.7c0,0,0,0,0,0c0,0-0.1-0.1-0.1-0.1c0,0,0,0,0,0c0,0,0,0,0,0
	c-15.6-18-35.2-32.3-56.7-41.4c-4.1-1.7-8.8,0.2-10.5,4.2c-1.7,4.1,0.2,8.8,4.2,10.5c13.7,5.8,26.4,13.9,37.7,23.9
	c-28,13.8-50.4,35.4-63.8,61.6c-11.8,23.1-15.5,47.7-11,70.9c-5.9,0.4-11.8,0.6-17.8,0.6c-18.4,0-36-1.4-52.4-4
	c-0.7-8.1-1.1-16.5-1.1-25c0-72.9,28.3-134.9,62.6-138.8c1.2,0,2.3,0.1,3.4,0.1c4.4,0.2,8.2-3.1,8.4-7.6c0.1-2.6-1-5-2.8-6.5
	c-1.4-1.4-3.4-2.2-5.6-2.2c-1.3,0-2.6,0.1-3.9,0.2c-2.5-0.1-5.1-0.1-7.9-0.1c-24.5,0-47.2,6.3-60.3,12.2c0,0,0,0,0,0
	c0,0-0.1,0-0.1,0c0,0-0.1,0-0.1,0c0,0,0,0,0,0c-21.5,9.1-41,23.4-56.6,41.4c0,0,0,0,0,0c0,0,0,0,0,0.1c0,0,0,0-0.1,0.1c0,0,0,0,0,0
	c-28.2,31.4-40.7,69.8-37.2,114.3c0,0,0,0,0,0c0,0,0,0,0,0c2,24,9.4,46.6,21.9,67.2c0,0,0,0,0,0c0.1,0.2,0.3,0.5,0.5,0.7
	c26.7,34.9,52.6,53.8,95.8,69.7c0,0,0.1,0,0.1,0c0.1,0,0.2,0.1,0.3,0.1c0.2,0,0.3,0.1,0.5,0.1c0,0,0.1,0,0.1,0
	c12,2.8,23.8,4.2,35.3,4.2c3,0,6-0.1,9-0.3c0.9,0.1,1.9,0.1,2.9,0.1c1.1,0,2.1-0.2,3-0.6c6.7-0.7,13.4-1.8,20.2-3.4
	c48.8-7.8,81.9-47.4,97.3-70.4c0-0.1,0.1-0.1,0.1-0.2c0,0,0.1-0.1,0.1-0.1C404.1,334.8,411.5,312.3,413.6,288.5z M378.1,347
	c-4.3,6.4-10.1,14.2-17.3,22.1c-29.6-7.6-52.5-26.2-63.5-51.6c38.8-5,75-17.3,100.9-34.5c-0.1,1.1-0.3,2.1-0.5,3.2
	c0,0.1,0,0.3-0.1,0.4c0,0.1,0,0.2,0,0.3C395.8,308.3,389.3,328.5,378.1,347z M301.5,239.8c12.6-24.7,34.4-44.7,61.6-56.8
	c0.4,0.5,0.8,0.9,1.2,1.4c0,0,0,0,0.1,0.1c0,0,0,0.1,0.1,0.1c14.2,15.7,31.2,47.3,34,78.5c-24.5,19.8-63.7,34-106.2,39
	C287.9,281.8,291.1,260.2,301.5,239.8z M258.5,320c7.4,0,14.9-0.3,22.2-0.8c0.4,1.1,0.8,2.1,1.2,3.2c11.6,28.1,35.2,49.3,65.9,59.6
	c-14.9,13.2-33.9,24.8-56.5,28.4c-0.1,0-0.2,0-0.3,0.1c-0.1,0-0.2,0-0.3,0.1c-7.6,1.8-15.2,2.9-22.6,3.4
	c-27.7-2.6-51.7-43.3-60-97.3C224,318.8,240.9,320,258.5,320z M205.1,147C205.1,147,205.1,146.9,205.1,147c0.1-0.1,0.1-0.1,0.2-0.1
	c6.1-2.8,15.2-5.8,25.9-7.9c-25.3,26.1-42.1,76.7-42.1,136c0,7.5,0.3,14.8,0.8,22c-12.7-2.8-24.4-6.4-34.9-10.7
	c2-28-0.3-59.8-12.7-86.8c3.5-5.2,7.5-10.3,11.8-15.1c0,0,0,0,0.1-0.1c0,0,0,0,0.1-0.1C168.1,168,185.7,155.1,205.1,147z
	 M120.7,286.8c0-0.1,0-0.2,0-0.4c5.3,3.5,11,6.8,17.2,9.8c-1.5,13-3.9,24.7-6.3,33.8C125.6,316.4,122,301.9,120.7,286.8z
	 M120.4,266.2c0.9-17.5,4.8-33.8,11.7-48.8c6.6,19.7,8.2,41.5,7.2,61.6C132.1,275.1,125.8,270.8,120.4,266.2z M142.2,349.4
	c3.7-9.5,8.3-26.3,11-46.5c11.7,4.5,24.5,8.1,38.3,10.8c5.6,42.4,20.1,77.3,39.8,97.5c-1.1-0.2-2.3-0.5-3.4-0.7
	C189,396.1,166.1,379.9,142.2,349.4z"></path>
</svg>