<svg version="1.1" id="Layer_1" xmlns="http://www.w3.org/2000/svg" xmlns:xlink="http://www.w3.org/1999/xlink" x="0px" y="0px" viewBox="0 0 512 512" enable-background="new 0 0 512 512" xml:space="preserve">
<linearGradient id="SVGID_1_" gradientUnits="userSpaceOnUse" x1="229.9363" y1="408.9683" x2="229.9363" y2="136.2099" class="gradient-element">
	<stop offset="0" class="primary-color-gradient" style="stop-color: #FFA4ED"></stop>
	<stop offset="1" class="secondary-color-gradient" style="stop-color: #DB81DA"></stop>
</linearGradient>
<path fill="url(#SVGID_1_)" d="M373,164.2h29.3v224.2H57.5v2.8c0-46.8,34.6-84.8,77.3-84.8h120.7c21.2,0,47.5-41.4,47.5-64.7v-0.8
	C303.1,198.5,334.4,164.2,373,164.2z"></path>
<g>
	<path fill="#DB81DA" class="secondary-color" d="M178.6,24.4h102.6v21.8H178.6V24.4z"></path>
	<path fill="#FFA4ED" class="primary-color" d="M57.7,24.4h102.6v21.8H57.7V24.4z"></path>
</g>
<path d="M443.1,108.1c-4.4,0-8-3.6-8-8s3.6-8,8-8c5.7,0,10.4-4.7,10.4-10.4s-4.7-10.4-10.4-10.4c-4.4,0-8-3.6-8-8s3.6-8,8-8
	c14.6,0,26.4,11.8,26.4,26.4S457.6,108.1,443.1,108.1z M424.4,413.7c0-4.4-3.6-8-8-8h-55c-4.4,0-8,3.6-8,8s3.6,8,8,8h55
	C420.8,421.7,424.4,418.1,424.4,413.7z M477.7,447.3c0-4.4-3.6-8-8-8h-92.9c-4.4,0-8,3.6-8,8s3.6,8,8,8h92.9
	C474.2,455.3,477.7,451.7,477.7,447.3z M97.4,430.7c0-4.4-3.6-8-8-8h-55c-4.4,0-8,3.6-8,8s3.6,8,8,8h55
	C93.8,438.7,97.4,435.1,97.4,430.7z M150.7,464.3c0-4.4-3.6-8-8-8H49.8c-4.4,0-8,3.6-8,8s3.6,8,8,8h92.9
	C147.2,472.3,150.7,468.7,150.7,464.3z"></path>
<path d="M451.1,203.5h-41.2v-41.2c0-4.4-3.6-8-8-8H57.5c-4.4,0-8,3.6-8,8v221.4c0,4.4,3.6,8,8,8h344.4c4.4,0,8-3.6,8-8v-41.2h41.2
	c4.4,0,8-3.6,8-8v-123C459.1,207.1,455.6,203.5,451.1,203.5z M393.9,211.5v123v41.2H65.5V170.3h328.4V211.5z M443.1,326.5h-33.2
	v-107h33.2V326.5z M185.7,289c-1.4-2.7-1.1-5.9,0.6-8.3l61.5-86.1c0-0.1,0.1-0.1,0.1-0.2c0.1-0.1,0.2-0.3,0.3-0.4
	c0.1-0.1,0.2-0.2,0.3-0.3c0.1-0.1,0.2-0.2,0.3-0.3c0.1-0.1,0.2-0.2,0.3-0.3c0.1-0.1,0.2-0.1,0.2-0.2c0.1-0.1,0.3-0.2,0.4-0.3
	c0.1,0,0.1-0.1,0.2-0.1c0.1-0.1,0.3-0.2,0.4-0.3c0.1,0,0.2-0.1,0.2-0.1c0.1-0.1,0.3-0.1,0.4-0.2c0.1,0,0.2-0.1,0.3-0.1
	c0.1-0.1,0.3-0.1,0.4-0.2c0.1,0,0.2-0.1,0.3-0.1c0.1,0,0.3-0.1,0.4-0.1c0.1,0,0.2-0.1,0.4-0.1c0.1,0,0.3,0,0.4-0.1
	c0.1,0,0.3,0,0.4,0c0.1,0,0.3,0,0.4,0c0.1,0,0.2,0,0.4,0c0.2,0,0.3,0,0.5,0c0.1,0,0.2,0,0.3,0c0.2,0,0.4,0,0.5,0.1
	c0.1,0,0.1,0,0.2,0c0,0,0,0,0.1,0c0.2,0,0.4,0.1,0.5,0.1c0.1,0,0.2,0,0.2,0.1c0.2,0,0.3,0.1,0.4,0.2c0.1,0,0.2,0.1,0.3,0.1
	c0.1,0,0.2,0.1,0.3,0.2c0.1,0.1,0.3,0.1,0.4,0.2c0.1,0,0.1,0.1,0.2,0.1c0.2,0.1,0.3,0.2,0.5,0.3c0,0,0,0,0.1,0
	c0.1,0,0.1,0.1,0.2,0.1c0.1,0.1,0.3,0.2,0.4,0.3c0.1,0.1,0.2,0.2,0.3,0.2c0.1,0.1,0.2,0.2,0.3,0.3c0.1,0.1,0.2,0.2,0.3,0.3
	c0.1,0.1,0.1,0.2,0.2,0.3c0.1,0.1,0.2,0.2,0.3,0.4c0.1,0.1,0.1,0.2,0.2,0.2c0.1,0.1,0.2,0.3,0.2,0.4c0.1,0.1,0.1,0.2,0.2,0.3
	c0.1,0.1,0.1,0.3,0.2,0.4c0,0.1,0.1,0.2,0.1,0.3c0,0.1,0.1,0.2,0.1,0.4c0,0.1,0.1,0.3,0.1,0.4c0,0.1,0.1,0.2,0.1,0.3
	c0,0.1,0.1,0.3,0.1,0.4c0,0.1,0,0.2,0,0.3c0,0.2,0,0.3,0.1,0.5c0,0.1,0,0.2,0,0.3c0,0.1,0,0.3,0,0.4c0,0.1,0,0.3,0,0.4
	c0,0.1,0,0.2,0,0.3c0,0.2,0,0.3-0.1,0.5c0,0.1,0,0.1,0,0.2l-10,50.1c-0.8,3.8-4.1,6.4-7.8,6.4c-0.5,0-1-0.1-1.6-0.2
	c-4.3-0.9-7.1-5.1-6.3-9.4l2.7-13.6l-30.8,43.1h21.4c2.5,0,4.8,1.1,6.3,3.1c1.5,1.9,2.1,4.5,1.5,6.9l-3.8,15.3l28.2-33.8h-1.1
	c-4.4,0-8-3.6-8-8s3.6-8,8-8h18.1c3.1,0,5.9,1.8,7.2,4.6c1.3,2.8,0.9,6.1-1.1,8.5l-61.5,73.8c-1.6,1.9-3.8,2.9-6.1,2.9
	c-1.2,0-2.5-0.3-3.6-0.9c-3.3-1.7-5-5.5-4.1-9.1l9.8-39.3h-26.7C189.8,293.3,187.1,291.6,185.7,289z"></path>
</svg>