<svg version="1.1" id="Layer_1" xmlns="http://www.w3.org/2000/svg" xmlns:xlink="http://www.w3.org/1999/xlink" x="0px" y="0px" viewBox="0 0 512 512" enable-background="new 0 0 512 512" xml:space="preserve">
<g>
	<path fill="#FFA4ED" class="primary-color" d="M490.8,133.1L433,75.2l57.8-57.8V133.1z"></path>
	<path d="M493.7,454.4c0,4.4-3.6,8-8,8h-15.8v15.8c0,4.4-3.6,8-8,8s-8-3.6-8-8v-15.8h-15.8c-4.4,0-8-3.6-8-8s3.6-8,8-8h15.8v-15.8
		c0-4.4,3.6-8,8-8s8,3.6,8,8v15.8h15.8C490.1,446.4,493.7,450,493.7,454.4z M67.4,357.8h43c4.4,0,8-3.6,8-8s-3.6-8-8-8h-43
		c-4.4,0-8,3.6-8,8S63,357.8,67.4,357.8z M96.9,379.8c0-4.4-3.6-8-8-8H15.1c-4.4,0-8,3.6-8,8s3.6,8,8,8h73.8
		C93.4,387.8,96.9,384.3,96.9,379.8z M78.5,72.6c20.3,0,36.8-16.5,36.8-36.8c0-4.4-3.6-8-8-8s-8,3.6-8,8c0,11.4-9.3,20.8-20.8,20.8
		c-4.4,0-8,3.6-8,8S74.1,72.6,78.5,72.6z M157.3,72.6c4.4,0,8-3.6,8-8s-3.6-8-8-8c-11.4,0-20.8-9.3-20.8-20.8c0-4.4-3.6-8-8-8
		s-8,3.6-8,8C120.5,56.1,137,72.6,157.3,72.6z M128.5,122.6c4.4,0,8-3.6,8-8c0-11.4,9.3-20.8,20.8-20.8c4.4,0,8-3.6,8-8s-3.6-8-8-8
		c-20.3,0-36.8,16.5-36.8,36.8C120.5,119,124.1,122.6,128.5,122.6z M78.5,93.9c11.4,0,20.8,9.3,20.8,20.8c0,4.4,3.6,8,8,8s8-3.6,8-8
		c0-20.3-16.5-36.8-36.8-36.8c-4.4,0-8,3.6-8,8S74.1,93.9,78.5,93.9z M25.9,76.6c5.9,0,10.8-4.8,10.8-10.8c0-5.9-4.8-10.8-10.8-10.8
		s-10.8,4.8-10.8,10.8C15.1,71.8,20,76.6,25.9,76.6z M221.3,459.6H68.8c-4.4,0-8,3.6-8,8s3.6,8,8,8h152.5c4.4,0,8-3.6,8-8
		S225.7,459.6,221.3,459.6z"></path>
</g>
<linearGradient id="SVGID_1_" gradientUnits="userSpaceOnUse" x1="295.2988" y1="412.2077" x2="298.3304" y2="142.3972" class="gradient-element">
	<stop offset="0" class="primary-color-gradient" style="stop-color: #FFA4ED"></stop>
	<stop offset="1" class="secondary-color-gradient" style="stop-color: #DB81DA"></stop>
</linearGradient>
<path fill="url(#SVGID_1_)" d="M389.4,170.5v216c-0.1,4.6-2,10.3-10.3,10.3H214.6c-4.7-0.1-10.4-2.1-10.4-10.3v-216H389.4z"></path>
<path d="M286.5,404.8c-4.4,0-8-3.6-8-8V211.7c0-4.4,3.6-8,8-8h20.6c4.4,0,8,3.6,8,8s-3.6,8-8,8h-12.6v177.2
	C294.5,401.3,290.9,404.8,286.5,404.8z M356.2,396.8V219.7h12.6c4.4,0,8-3.6,8-8s-3.6-8-8-8h-20.6c-4.4,0-8,3.6-8,8v185.2
	c0,4.4,3.6,8,8,8S356.2,401.3,356.2,396.8z M232.8,396.8V219.7h12.6c4.4,0,8-3.6,8-8s-3.6-8-8-8h-20.6c-4.4,0-8,3.6-8,8v185.2
	c0,4.4,3.6,8,8,8S232.8,401.3,232.8,396.8z M430.5,162.5H204.2c-4.4,0-8,3.6-8,8s3.6,8,8,8h218.3v228.6c0,7.9-4.8,22.9-22.9,22.9
	H193.9c-7.9,0-22.9-4.8-22.9-22.9V242.5c0-4.4-3.6-8-8-8h-30.8c-4.4,0-8,3.6-8,8s3.6,8,8,8h22.8v156.6c0,25.2,20,38.9,38.9,38.9
	h205.7c25.2,0,38.9-20,38.9-38.9V170.5C438.5,166.1,435,162.5,430.5,162.5z M145.9,382.8c-41.6-19.6-57.1-83.8-57.1-119.7
	c0-42.9,41.7-43.4,43.4-43.4h30.9c4.4,0,8-3.6,8-8v-51.4c0-52.1,42.6-61.7,55.7-63.5c3.4-0.4,6.1-3,6.8-6.3
	c5.9-28,44-35.4,63.3-35.4s57.4,7.4,63.3,35.4c0.7,3.3,3.4,5.8,6.8,6.3c11.7,1.6,50.4,10.1,55.2,54.1c0.5,4.4,4.4,7.6,8.8,7.1
	c4.4-0.5,7.6-4.4,7.1-8.8c-4.6-41.5-35-61.7-63.7-67.3c-11-33.5-53.2-42.7-77.5-42.7c-24.3,0-66.5,9.2-77.5,42.7
	c-32,6.1-64.3,29.5-64.3,78.5v43.4h-22.9c-4.9,0-21.9,0.9-37.1,12c-10.2,7.4-22.3,21.7-22.3,47.5c0,22.6,5.3,49.5,14.2,71.9
	c12,30.3,30,51.8,52.1,62.2c1.1,0.5,2.3,0.8,3.4,0.8c3,0,5.9-1.7,7.2-4.6C151.6,389.5,149.9,384.7,145.9,382.8z"></path>
</svg>