<svg version="1.1" id="Layer_1" xmlns="http://www.w3.org/2000/svg" xmlns:xlink="http://www.w3.org/1999/xlink" x="0px" y="0px" viewBox="0 0 512 512" enable-background="new 0 0 512 512" xml:space="preserve">
<linearGradient id="SVGID_1_" gradientUnits="userSpaceOnUse" x1="302.7834" y1="396.095" x2="314.1894" y2="90.9861" class="gradient-element">
	<stop offset="0" class="primary-color-gradient" style="stop-color: #FFA4ED"></stop>
	<stop offset="1" class="secondary-color-gradient" style="stop-color: #DB81DA"></stop>
</linearGradient>
<path fill="url(#SVGID_1_)" d="M405.4,372.6H201.9c2.3-11.6,4.4-25,6.5-39.7c11.2-77.4,26.6-183.4,118.7-183.4c0,0,0.1,0,0.1,0
	c50.4,38.8,62.4,120.7,71.1,180.2C400.3,343.3,402.6,359.6,405.4,372.6z"></path>
<path d="M455.1,389.3v27.9c0,4.4-3.6,8-8,8H318.4c-4.7,15.7-19,44.6-60.9,44.6c-42,0-56.3-28.9-60.9-44.6H67.8c-4.4,0-8-3.6-8-8
	v-22.3c0-4.4,3.6-8,8-8s8,3.6,8,8v14.3h127c3.8,0,7.1,2.7,7.9,6.5c2.2,11.5,11.2,38.1,46.8,38.1c35.6,0,44.6-26.7,46.8-38.1
	c0.7-3.8,4-6.5,7.9-6.5h127v-14.5L402.4,380c-2.5-1-4.3-3.2-4.9-5.9c-1.6-8.1-3.5-18.2-7.2-43.4l0-0.2c-5-34.2-11.1-76.8-25.3-113.1
	c-16.1-41.2-39.2-66.3-70.6-76.8c-2.6-0.9-4.6-3-5.3-5.7c-0.6-2.7,0.1-5.5,2.1-7.5c9-9.1,14-21.1,14-33.9
	c0-26.3-21.4-47.8-47.8-47.8s-47.8,21.4-47.8,47.8c0,12.7,5,24.8,14,33.9c1.9,2,2.7,4.8,2.1,7.5c-0.6,2.7-2.6,4.9-5.3,5.7
	c-31.4,10.4-54.5,35.5-70.6,76.8c-14.2,36.3-20.3,78.9-25.3,113.1l-0.3,1.8c-1.5,10.4-3.2,21.8-5.1,32.2h258.2c4.4,0,8,3.6,8,8
	s-3.6,8-8,8H109.6c-2.4,0-4.7-1.1-6.2-3c-1.5-1.9-2.1-4.3-1.6-6.7c2.6-12.2,4.8-27.4,6.8-40.8l0.3-1.8c5.1-35,11.4-78.6,26.2-116.6
	c16.1-41.3,39-68.2,69.8-82c-7.2-10.6-11.1-23-11.1-36c0-35.2,28.6-63.8,63.8-63.8s63.8,28.6,63.8,63.8c0,13-3.9,25.5-11.1,36
	c30.8,13.8,53.7,40.7,69.8,82c14.8,38,21.1,81.6,26.2,116.6l0,0.2c3,20.6,4.8,30.9,6.2,38.3l37.7,15.1
	C453.1,383.1,455.1,386,455.1,389.3z M257.5,447.5c27.1,0,36.3-17.6,39.4-28.1c1.2-4.2-1.2-8.7-5.4-9.9c-4.2-1.2-8.7,1.2-9.9,5.4
	c-3.3,11.1-11.1,16.6-24,16.6c-12.9,0-20.7-5.4-24-16.6c-1.2-4.2-5.7-6.7-9.9-5.4c-4.2,1.2-6.7,5.7-5.4,9.9
	C221.2,429.9,230.4,447.5,257.5,447.5z"></path>
<path d="M56.8,453.3c3.1,3.1,3.1,8.2,0,11.3l-18.9,18.9c-1.6,1.6-3.6,2.3-5.7,2.3s-4.1-0.8-5.7-2.3c-3.1-3.1-3.1-8.2,0-11.3
	l18.9-18.9C48.6,450.2,53.7,450.2,56.8,453.3z M494.7,264.5h-67.8c-4.4,0-8,3.6-8,8s3.6,8,8,8h67.8c4.4,0,8-3.6,8-8
	S499.1,264.5,494.7,264.5z M455.6,82.8c-3.1-3.1-8.2-3.1-11.3,0l-47.9,47.9c-3.1,3.1-3.1,8.2,0,11.3c1.6,1.6,3.6,2.3,5.7,2.3
	c2,0,4.1-0.8,5.7-2.3l47.9-47.9C458.8,91,458.8,85.9,455.6,82.8z M418.6,196.2C418.6,196.2,418.6,196.2,418.6,196.2
	c-1.1-4.9,2-9.7,6.9-10.7c2.4-0.5,4.8-0.1,6.8,1.2c2,1.3,3.4,3.3,3.9,5.7c0.5,2.4,0.1,4.8-1.2,6.8c-1.3,2-3.3,3.4-5.7,3.9
	c-0.6,0.1-1.3,0.2-1.9,0.2c-1.7,0-3.4-0.5-4.9-1.4C420.5,200.6,419.1,198.6,418.6,196.2z M87.9,181.3c-3.1-3.1-8.2-3.1-11.3,0
	l-2.8,2.8l-2.8-2.8c-3.1-3.1-8.2-3.1-11.3,0c-3.1,3.1-3.1,8.2,0,11.3l2.8,2.8l-2.8,2.8c-3.1,3.1-3.1,8.2,0,11.3
	c1.6,1.6,3.6,2.3,5.7,2.3s4.1-0.8,5.7-2.3l2.8-2.8l2.8,2.8c1.6,1.6,3.6,2.3,5.7,2.3s4.1-0.8,5.7-2.3c3.1-3.1,3.1-8.2,0-11.3
	l-2.8-2.8l2.8-2.8C91,189.5,91,184.4,87.9,181.3z M438,448c-3.1-3.1-8.2-3.1-11.3,0c-3.1,3.1-3.1,8.2,0,11.3l29.5,29.5
	c1.6,1.6,3.6,2.3,5.7,2.3c2,0,4.1-0.8,5.7-2.3c3.1-3.1,3.1-8.2,0-11.3L438,448z M475.4,344.9c1.3,2,1.7,4.4,1.2,6.8
	c-0.9,4.2-4.7,7.1-8.8,7.1c-0.6,0-1.3-0.1-1.9-0.2c-4.9-1.1-8-5.9-6.9-10.7c0.5-2.4,1.9-4.4,3.9-5.7c2-1.3,4.4-1.7,6.8-1.2
	C472.1,341.4,474.1,342.8,475.4,344.9z M141.2,104.4h-3.9v-3.9c0-4.4-3.6-8-8-8s-8,3.6-8,8v3.9h-3.9c-4.4,0-8,3.6-8,8s3.6,8,8,8h3.9
	v3.9c0,4.4,3.6,8,8,8s8-3.6,8-8v-3.9h3.9c4.4,0,8-3.6,8-8S145.6,104.4,141.2,104.4z M397.1,48.7c0,14.7-12,26.7-26.7,26.7
	s-26.7-12-26.7-26.7s12-26.7,26.7-26.7S397.1,34,397.1,48.7z M381.1,48.7c0-5.9-4.8-10.7-10.7-10.7s-10.7,4.8-10.7,10.7
	s4.8,10.7,10.7,10.7S381.1,54.5,381.1,48.7z M66.5,272.5c0,14.7-12,26.7-26.7,26.7s-26.7-12-26.7-26.7s12-26.7,26.7-26.7
	S66.5,257.8,66.5,272.5z M50.5,272.5c0-5.9-4.8-10.7-10.7-10.7s-10.7,4.8-10.7,10.7s4.8,10.7,10.7,10.7S50.5,278.4,50.5,272.5z"></path>
<g>
	<path fill="#FFA4ED" class="primary-color" d="M26.5,25.1l57.8,57.8l-57.8,57.8V25.1z"></path>
	<path fill="#DB81DA" class="secondary-color" d="M162.3,467v21.8h-56.9V467H162.3z"></path>
</g>
</svg>