<svg version="1.1" id="Layer_1" xmlns="http://www.w3.org/2000/svg" xmlns:xlink="http://www.w3.org/1999/xlink" x="0px" y="0px" viewBox="0 0 512 512" enable-background="new 0 0 512 512" xml:space="preserve">
<linearGradient id="SVGID_1_" gradientUnits="userSpaceOnUse" x1="358.0761" y1="380.1689" x2="358.0761" y2="213.3898" class="gradient-element">
	<stop offset="0" class="primary-color-gradient" style="stop-color: #FFA4ED"></stop>
	<stop offset="1" class="secondary-color-gradient" style="stop-color: #DB81DA"></stop>
</linearGradient>
<path fill="url(#SVGID_1_)" d="M312.2,205.7h8.2l-49.2,108.9l-6.6-9.6c-2.4-3.5-2.8-7.9-1-11.7l35.8-79.3
	C301.6,209,306.7,205.7,312.2,205.7z M381.8,242.7c-6,0-11.8,0.7-17.4,2.1c31.3,7.8,54.5,36.1,54.5,69.8c0,33.7-23.2,62-54.5,69.8
	c5.6,1.4,11.4,2.1,17.4,2.1c39.7,0,71.9-32.2,71.9-71.9C453.7,274.9,421.5,242.7,381.8,242.7z"></path>
<g>
	<path fill="#DB81DA" class="secondary-color" d="M281.7,38.4v49h-43v-49H281.7z"></path>
	<path fill="#DB81DA" class="secondary-color" d="M269.9,480.5h-80.5l40.3-40.3L269.9,480.5z"></path>
</g>
<path d="M52,413.6c0,4.4-3.6,8-8,8c-14.6,0-26.4-11.8-26.4-26.4s11.8-26.4,26.4-26.4c4.4,0,8,3.6,8,8s-3.6,8-8,8
	c-5.7,0-10.4,4.7-10.4,10.4s4.7,10.4,10.4,10.4C48.4,405.6,52,409.2,52,413.6z M338.9,58.1h134.2c4.4,0,8-3.6,8-8s-3.6-8-8-8H338.9
	c-4.4,0-8,3.6-8,8S334.5,58.1,338.9,58.1z M139,463.1H59.5c-4.4,0-8,3.6-8,8s3.6,8,8,8H139c4.4,0,8-3.6,8-8S143.4,463.1,139,463.1z
	 M56.5,86.2c4.2-4.2,4.2-11,0-15.2c-4.2-4.2-11-4.2-15.2,0s-4.2,11,0,15.2S52.3,90.4,56.5,86.2z M456.8,463.5
	c-4.2,4.2-4.2,11,0,15.2s11,4.2,15.2,0c4.2-4.2,4.2-11,0-15.2C467.8,459.3,461,459.3,456.8,463.5z M332.7,444.1h-3.9v-3.9
	c0-4.4-3.6-8-8-8s-8,3.6-8,8v3.9h-3.9c-4.4,0-8,3.6-8,8s3.6,8,8,8h3.9v3.9c0,4.4,3.6,8,8,8s8-3.6,8-8v-3.9h3.9c4.4,0,8-3.6,8-8
	S337.1,444.1,332.7,444.1z M177.3,63.8c0-4.4-3.6-8-8-8h-3.9v-3.9c0-4.4-3.6-8-8-8s-8,3.6-8,8v3.9h-3.9c-4.4,0-8,3.6-8,8s3.6,8,8,8
	h3.9v3.9c0,4.4,3.6,8,8,8s8-3.6,8-8v-3.9h3.9C173.7,71.8,177.3,68.2,177.3,63.8z M439.1,91c-4.2,4.2-4.2,11,0,15.2
	c4.2,4.2,11,4.2,15.2,0c4.2-4.2,4.2-11,0-15.2C450.1,86.8,443.3,86.8,439.1,91z M476.6,347.8h-92c-4.4,0-8,3.6-8,8s3.6,8,8,8h92
	c4.4,0,8-3.6,8-8S481,347.8,476.6,347.8z M232.6,353.7h-54.7c-4.4,0-8,3.6-8,8s3.6,8,8,8h54.7c4.4,0,8-3.6,8-8
	S237,353.7,232.6,353.7z"></path>
<path d="M462.3,262.8c-1.4,1.1-3.1,1.6-4.8,1.6c-2.4,0-4.9-1.1-6.4-3.2c-21.3-28.6-49.2-40.8-85.3-37.2c-4.4,0.4-8.3-2.8-8.8-7.2
	s2.8-8.3,7.2-8.8c41.6-4.2,75.2,10.5,99.7,43.6C466.5,255.1,465.8,260.1,462.3,262.8z M461.7,315.5c0,46.3-37.7,84-84,84
	c-42.4,0-76.9-29.2-83-69.1H267c0,0,0,0,0,0c-0.3,0-0.7,0-1-0.1c-0.1,0-0.2,0-0.2,0c-0.3,0-0.5-0.1-0.8-0.2c-0.1,0-0.1,0-0.2,0
	l-2.1-0.6c-1.5-0.2-3-0.9-4.2-1.9l-0.7-0.6l-0.4-0.3c-0.8-0.5-1.5-1.2-2-2l-78-108.7c-1.2,4.3-2.4,8.7-3.6,13.2
	c-10.4,38.3-22.1,81.6-23.2,86.5c-0.4,3.2-2.8,6-6.2,6.8c-0.6,0.1-1.2,0.2-1.7,0.2c-3.7,0-7-2.5-7.8-6.3c-0.5-2.4-0.5-2.4,7.2-31.3
	c2.8-10.6,6.3-23.3,10-37.1c-2.8-0.4-5.8-0.6-9.4-0.6c-37.5,0-68,30.5-68,68s30.5,68,68,68s68-30.5,68-68c0-21.7-10.5-42.2-28-55
	c-3.6-2.6-4.4-7.6-1.8-11.2s7.6-4.4,11.2-1.8c21.6,15.8,34.6,41.2,34.6,67.9c0,46.3-37.7,84-84,84s-84-37.7-84-84s37.7-84,84-84
	c5.1,0,9.4,0.3,13.6,1c0.7-2.5,1.3-5,2-7.5c11.6-43,24.9-91.8,25.8-96.6c2.5-12.3,12-15.9,18.2-15.4H233c4.4,0,8,3.6,8,8s-3.6,8-8,8
	h-31c-0.6,0-0.4,0.1-0.8,0c-0.6,0.1-1.1,1-1.4,2.6c-0.7,3.7-6.4,24.9-15.4,58.4h134.1c0.2-0.4,0.4-0.7,0.6-1l9.5-17.4h-26.1
	c-4.4,0-8-3.6-8-8s3.6-8,8-8h76c4.4,0,8,3.6,8,8s-3.6,8-8,8h-32.3c-0.1,0.9-0.4,1.8-0.9,2.6l-13.1,24.1l-52.9,116.1h96.5l-27.8-60.2
	c-17.3,8.4-30.8,23.9-36.1,43.3c-1.2,4.3-5.6,6.8-9.8,5.6c-4.3-1.2-6.8-5.6-5.6-9.8c6.6-24.1,23.3-43.3,44.9-53.6l-9.4-20.4
	c-1.9-4-0.1-8.8,3.9-10.6c4-1.9,8.8-0.1,10.6,3.9l9.9,21.6c6.8-1.8,13.9-2.7,21.1-2.7C424,231.4,461.7,269.1,461.7,315.5z
	 M282.7,206h-92.8l57,79.4L282.7,206z M311.2,206h-10.9l-42.7,94.4l6.5,9L311.2,206z M445.7,315.5c0-37.5-30.5-68-68-68
	c-4.9,0-9.7,0.5-14.3,1.5l27.7,60.1c2.3,4.6,1.9,10-0.9,14.4c-2.7,4.2-7.5,6.9-12.5,6.9h-66.8c6,30.8,33.3,53.1,66.8,53.1
	C415.2,383.5,445.7,353,445.7,315.5z"></path>
</svg>