<svg version="1.1" id="Layer_1" xmlns="http://www.w3.org/2000/svg" xmlns:xlink="http://www.w3.org/1999/xlink" x="0px" y="0px" viewBox="0 0 512 512" enable-background="new 0 0 512 512" xml:space="preserve">
<linearGradient id="SVGID_1_" gradientUnits="userSpaceOnUse" x1="281.9685" y1="382.2435" x2="283.4843" y2="163.9698" class="gradient-element">
	<stop offset="0" class="primary-color-gradient" style="stop-color: #FFA4ED"></stop>
	<stop offset="1" class="secondary-color-gradient" style="stop-color: #DB81DA"></stop>
</linearGradient>
<path fill="url(#SVGID_1_)" d="M488.4,393.3H76.9V175.4h411.5V393.3z M258.4,199.6c-26.7,0-48.4,27.1-48.4,60.5
	c0,33.4,21.7,60.5,48.4,60.5s48.4-27.1,48.4-60.5C306.9,226.7,285.2,199.6,258.4,199.6z"></path>
<path d="M488.4,405.3h-460c-4.4,0-8-3.6-8-8V131c0-4.4,3.6-8,8-8H440c4.4,0,8,3.6,8,8s-3.6,8-8,8H36.5v250.3h444V131
	c0-4.4,3.6-8,8-8s8,3.6,8,8v266.3C496.4,401.7,492.8,405.3,488.4,405.3z M440,356.8H258.4c-44.5,0-80.6-41.6-80.6-92.7
	c0-13.7,2.6-26.9,7.6-39.3c1.7-4.1,6.3-6.1,10.4-4.4c4.1,1.7,6.1,6.3,4.4,10.4c-4.3,10.5-6.4,21.7-6.4,33.3
	c0,42.3,29,76.7,64.6,76.7H440c4.4,0,8,3.6,8,8S444.4,356.8,440,356.8z M197.7,356.8H76.9c-4.4,0-8-3.6-8-8V179.4c0-4.4,3.6-8,8-8
	h181.6c44.5,0,80.6,41.6,80.6,92.7c0,13.7-2.6,26.9-7.6,39.3c-1.7,4.1-6.3,6.1-10.4,4.4c-4.1-1.7-6.1-6.3-4.4-10.4
	c4.3-10.5,6.4-21.7,6.4-33.3c0-42.3-29-76.7-64.6-76.7H84.9v153.5h112.8c4.4,0,8,3.6,8,8S202.1,356.8,197.7,356.8z M440,313.7
	c-4.4,0-8-3.6-8-8V187.4H319.2c-4.4,0-8-3.6-8-8s3.6-8,8-8H440c4.4,0,8,3.6,8,8v126.3C448,310.1,444.4,313.7,440,313.7z"></path>
<g>
	<path fill="#FFA4ED" class="primary-color" d="M22.1,432.7h16.4v16.4H22.1V432.7z"></path>
	<path fill="#DB81DA" class="secondary-color" d="M22.1,472.7h16.4v16.4H22.1V472.7z"></path>
	<path fill="#DB81DA" class="secondary-color" d="M499.1,82.4l-60.9-60.9h60.9V82.4z"></path>
</g>
<path d="M53.9,49c0,4.4-3.6,8-8,8H42v3.9c0,4.4-3.6,8-8,8s-8-3.6-8-8V57h-3.9c-4.4,0-8-3.6-8-8s3.6-8,8-8H26v-3.9c0-4.4,3.6-8,8-8
	s8,3.6,8,8V41h3.9C50.3,41,53.9,44.6,53.9,49z M150.2,449.6h-15.8v-15.8c0-4.4-3.6-8-8-8s-8,3.6-8,8v15.8h-15.8c-4.4,0-8,3.6-8,8
	s3.6,8,8,8h15.8v15.8c0,4.4,3.6,8,8,8s8-3.6,8-8v-15.8h15.8c4.4,0,8-3.6,8-8S154.7,449.6,150.2,449.6z M219.9,37.2h-80.3
	c-5.2,0-9.4,4.2-9.4,9.4s4.2,9.4,9.4,9.4h80.3c5.2,0,9.4-4.2,9.4-9.4S225.1,37.2,219.9,37.2z M456.4,460.9h-86.8c-4.4,0-8,3.6-8,8
	s3.6,8,8,8h86.8c4.4,0,8-3.6,8-8S460.9,460.9,456.4,460.9z M425.7,70.8c0-4.4-3.6-8-8-8h-57.4c-4.4,0-8,3.6-8,8s3.6,8,8,8h57.4
	C422.1,78.8,425.7,75.2,425.7,70.8z M460.8,297.7h-72c-4.4,0-8,3.6-8,8s3.6,8,8,8h72c4.4,0,8-3.6,8-8S465.3,297.7,460.8,297.7z"></path>
</svg>