<svg version="1.1" id="Layer_1" xmlns="http://www.w3.org/2000/svg" xmlns:xlink="http://www.w3.org/1999/xlink" x="0px" y="0px" viewBox="0 0 512 512" enable-background="new 0 0 512 512" xml:space="preserve">
<linearGradient id="SVGID_1_" gradientUnits="userSpaceOnUse" x1="270.6383" y1="373.7017" x2="270.6383" y2="253.3333" class="gradient-element">
	<stop offset="0" class="primary-color-gradient" style="stop-color: #FFA4ED"></stop>
	<stop offset="1" class="secondary-color-gradient" style="stop-color: #DB81DA"></stop>
</linearGradient>
<path fill="url(#SVGID_1_)" d="M422.1,359.7c-11.3,10.3-25.4,16.1-39.8,17.5c-0.1,0-0.2,0-0.3,0c-0.1,0-0.2,0-0.3,0
	c-1,0.1-1.9,0.2-2.9,0.2c-0.3,0-0.7,0-1,0c-0.4,0-0.7,0-1.1,0c-17,0.3-34.1-5.6-47.5-17.7c-0.2-0.2-0.5-0.4-0.7-0.7
	c-7.1-6.6-2-17.8,7.7-17.8c90.6,0,45.7-74.7,32.7-85.7c-6.6-5.6-2.9-16.5,5.8-16.6c0.1,0,0.3,0,0.4,0c18.2,0,34.8,7,47.1,18.5
	c0.7,0.4,1.4,0.9,2,1.5c0.1,0.1,0.2,0.2,0.3,0.3C452.5,287.3,451.6,332.9,422.1,359.7z M195.7,259.4c-0.1-0.1-0.2-0.2-0.3-0.3
	c-0.6-0.6-1.3-1.1-2-1.5c-12.4-11.5-28.9-18.5-47.1-18.5c-0.1,0-0.3,0-0.4,0c-8.7,0.1-12.4,10.9-5.8,16.6
	c12.9,11,57.9,85.7-32.7,85.7c-9.6,0-14.7,11.2-7.7,17.8c0.2,0.2,0.5,0.4,0.7,0.7c13.4,12.1,30.5,18,47.5,17.7c0.3,0,0.7,0,1.1,0
	c0.3,0,0.7,0,1,0c1,0,1.9-0.1,2.9-0.2c0.1,0,0.2,0,0.3,0c0.1,0,0.2,0,0.3,0c14.4-1.4,28.4-7.2,39.8-17.5
	C222.8,332.9,223.6,287.3,195.7,259.4z"></path>
<path d="M465.2,308.4c-0.1,50.1-40.9,90.8-91,90.8c-25.4,0-49.6-10.7-66.9-29.5c-5-1.6-9.6-3.3-13.4-4.7l-0.6-0.2
	c-10.9-4.1-18.7-7.1-33.2-7.1c-14.6,0-22.4,3-33.2,7.1l-0.5,0.2c-3.8,1.4-8.4,3.1-13.5,4.7c-17.3,18.8-41.6,29.5-66.9,29.5
	c-50.2,0-91-40.8-91-91c0-4.4,3.6-8,8-8s8,3.6,8,8c0,41.4,33.6,75,75,75c21.5,0,42.1-9.4,56.4-25.8c1-1.1,2.3-2,3.7-2.4
	c5.5-1.6,10.4-3.5,14.7-5.1l0.4-0.2c11.4-4.3,21.3-8.1,38.8-8.1c17.5,0,27.4,3.8,38.8,8.1l0.5,0.2c4.3,1.6,9.2,3.4,14.6,5
	c1.4,0.4,2.7,1.3,3.7,2.4c14.3,16.4,34.9,25.8,56.4,25.8c41.4,0,75-33.6,75-75c0-0.1,0-0.2,0-0.3c0.2-5-0.7-15.3-1.1-19.2
	c-6-33.7-21.9-94.9-27.9-117.9c-1.1-4.1-1.9-7.1-2.3-8.8c-1.1-3.1-12.7-32.5-54.1-32.5c-42.9,0-53.7,31.4-54.1,32.7l-13.8,42.5
	c-0.9,2.9-3.4,5-6.4,5.4c-10.1,1.6-19.7,2.4-29.5,2.4c-9.7,0-19.2-0.8-29.2-2.4c-2.9-0.5-5.4-2.5-6.3-5.4l-14.1-42.5
	c-0.4-1.3-11.4-32.7-54.1-32.7c-17.9,0-32.4,5.4-43.1,16.1c-8.4,8.5-11.2,17.2-11.2,17.2c-1.3,4.2-5.8,6.6-10,5.3
	c-4.2-1.3-6.6-5.7-5.3-10c0.4-1.3,4.1-12.6,15-23.7c9.5-9.6,26.6-21,54.6-21c54.1,0,68.7,41.9,69.3,43.6l12.6,37.9
	c14.9,2,29.1,2,44,0l12.3-37.7c0.1-0.3,14.3-43.8,69.3-43.8c54.2,0,68.7,41.9,69.3,43.7c0,0.1,0.1,0.2,0.1,0.3
	c0,0.1,0.1,0.2,0.1,0.3c0.4,1.6,1.2,4.7,2.3,9c6.1,23.3,22.2,85.2,28.2,119.5c0,0.2,0.1,0.4,0.1,0.5
	C464,287.3,465.4,301,465.2,308.4z M145.9,362.5c-29.9,0-54.3-24.3-54.3-54.3c0-4.4-3.6-8-8-8s-8,3.6-8,8
	c0,38.7,31.5,70.3,70.3,70.3s70.3-31.5,70.3-70.3c0-38.7-31.5-70.3-70.3-70.3c-4.4,0-8,3.6-8,8s3.6,8,8,8
	c29.9,0,54.3,24.3,54.3,54.3C200.2,338.1,175.8,362.5,145.9,362.5z M64.2,295.3c0.5,0.1,0.9,0.1,1.4,0.1c3.8,0,7.2-2.7,7.9-6.6
	c4.8-27,13-62,18.7-85.9c1-4.3-1.6-8.6-5.9-9.6c-4.3-1-8.6,1.6-9.6,5.9c-5.8,24.2-14.1,59.4-18.9,86.9
	C56.9,290.4,59.9,294.6,64.2,295.3z M292.4,219.7c-21.1-3.4-43.7-3.4-64.8,0c-4.4,0.7-7.3,4.8-6.6,9.2c0.7,4.4,4.8,7.3,9.2,6.6
	c19.5-3.1,40.3-3.1,59.7,0c0.4,0.1,0.8,0.1,1.3,0.1c3.9,0,7.3-2.8,7.9-6.7C299.8,224.5,296.8,220.4,292.4,219.7z M145.9,217.2
	c-19.7,0-38.5,6.3-54.5,18.2c-3.5,2.6-4.3,7.7-1.6,11.2c2.6,3.5,7.7,4.3,11.2,1.6c13.2-9.8,28.7-15,44.9-15
	c26.6,0,51.4,14.4,64.9,37.5c1.5,2.6,4.2,4,6.9,4c1.4,0,2.8-0.3,4-1.1c3.8-2.2,5.1-7.1,2.9-10.9
	C208.3,234.6,178.1,217.2,145.9,217.2z M428.6,235.4c-15.9-11.9-34.8-18.2-54.5-18.2c-32.2,0-62.4,17.4-78.7,45.5
	c-2.2,3.8-0.9,8.7,2.9,10.9c1.3,0.7,2.6,1.1,4,1.1c2.8,0,5.4-1.4,6.9-4c13.5-23.1,38.3-37.5,64.9-37.5c16.2,0,31.8,5.2,44.9,15
	c3.5,2.6,8.6,1.9,11.2-1.6C432.9,243,432.2,238,428.6,235.4z M445.4,306.9c-1-37.9-32.1-68.4-70.2-68.4c-4.4,0-8,3.6-8,8s3.6,8,8,8
	c29.7,0,54,24.1,54.2,53.8c-0.3,29.7-24.5,53.8-54.2,53.8c-29.9,0-54.3-24.3-54.3-54.3c0-4.4-3.6-8-8-8s-8,3.6-8,8
	c0,38.7,31.5,70.3,70.3,70.3c38.1,0,69.2-30.5,70.2-68.4c0-0.3,0-0.6,0-0.9c0-0.2,0-0.3,0-0.5c0-0.2,0-0.3,0-0.5
	C445.4,307.5,445.4,307.2,445.4,306.9z"></path>
<g>
	<path fill="#DB81DA" class="secondary-color" d="M285.7,38.4v49h-43v-49H285.7z"></path>
	<path fill="#DB81DA" class="secondary-color" d="M273.9,480.5h-80.5l40.3-40.3L273.9,480.5z"></path>
</g>
<path d="M56,413.6c0,4.4-3.6,8-8,8c-14.6,0-26.4-11.8-26.4-26.4s11.8-26.4,26.4-26.4c4.4,0,8,3.6,8,8s-3.6,8-8,8
	c-5.7,0-10.4,4.7-10.4,10.4s4.7,10.4,10.4,10.4C52.4,405.6,56,409.2,56,413.6z M477,42.1H342.8c-4.4,0-8,3.6-8,8s3.6,8,8,8H477
	c4.4,0,8-3.6,8-8S481.5,42.1,477,42.1z M143,463.1H63.5c-4.4,0-8,3.6-8,8s3.6,8,8,8H143c4.4,0,8-3.6,8-8S147.4,463.1,143,463.1z
	 M60.5,86.2c4.2-4.2,4.2-11,0-15.2s-11-4.2-15.2,0c-4.2,4.2-4.2,11,0,15.2C49.5,90.4,56.3,90.4,60.5,86.2z M460.8,463.5
	c-4.2,4.2-4.2,11,0,15.2s11,4.2,15.2,0c4.2-4.2,4.2-11,0-15.2C471.8,459.3,465,459.3,460.8,463.5z M336.7,444.1h-3.9v-3.9
	c0-4.4-3.6-8-8-8s-8,3.6-8,8v3.9h-3.9c-4.4,0-8,3.6-8,8s3.6,8,8,8h3.9v3.9c0,4.4,3.6,8,8,8s8-3.6,8-8v-3.9h3.9c4.4,0,8-3.6,8-8
	S341.1,444.1,336.7,444.1z M173.3,55.8h-3.9v-3.9c0-4.4-3.6-8-8-8s-8,3.6-8,8v3.9h-3.9c-4.4,0-8,3.6-8,8s3.6,8,8,8h3.9v3.9
	c0,4.4,3.6,8,8,8s8-3.6,8-8v-3.9h3.9c4.4,0,8-3.6,8-8S177.7,55.8,173.3,55.8z M458.3,91c-4.2-4.2-11-4.2-15.2,0
	c-4.2,4.2-4.2,11,0,15.2c4.2,4.2,11,4.2,15.2,0C462.5,102,462.5,95.2,458.3,91z M114.8,175.9c4.4,0,8-3.6,8-8s-3.6-8-8-8h-92
	c-4.4,0-8,3.6-8,8s3.6,8,8,8H114.8z M107.5,188.7H52.9c-4.4,0-8,3.6-8,8s3.6,8,8,8h54.7c4.4,0,8-3.6,8-8S112,188.7,107.5,188.7z"></path>
</svg>