<svg version="1.1" id="Layer_1" xmlns="http://www.w3.org/2000/svg" xmlns:xlink="http://www.w3.org/1999/xlink" x="0px" y="0px" viewBox="0 0 512 512" enable-background="new 0 0 512 512" xml:space="preserve">
<linearGradient id="SVGID_1_" gradientUnits="userSpaceOnUse" x1="227.9426" y1="324.2637" x2="227.9426" y2="21.1044" class="gradient-element">
	<stop offset="0" class="primary-color-gradient" style="stop-color: #FFA4ED"></stop>
	<stop offset="1" class="secondary-color-gradient" style="stop-color: #DB81DA"></stop>
</linearGradient>
<path fill="url(#SVGID_1_)" d="M292.1,110.4c17.7,0,32.1-14.4,32.1-32.1c0-15.8-1.8-27.3-3.5-37.4l-3-19.8l-13.4,7.2
	c-25.9,14-44.3,25.8-44.3,50C260,96,274.4,110.4,292.1,110.4z M301.2,54.7c0.9,6.9,1.6,14.4,1.6,23.6c0,5.9-4.8,10.7-10.7,10.7
	c-5.9,0-10.7-4.8-10.7-10.7C281.4,70,286,64,301.2,54.7z M273,324l-205.5,0.3V196.2c0.7,0,1.4-0.3,2.1-0.3c20.2,0,32.4,13.9,42.2,25
	c9.7,11,16.1,17.8,26.2,17.8s16.5-6.7,26.2-17.8c9.8-11.2,22-25,42.2-25c20.2,0,32.4,13.9,42.3,25c9.7,11,16.1,17.8,26.2,17.8
	c10,0,16.5-6.7,26.2-17.8c9.8-11.1,22-25,42.2-25c26.1,0,42.5,25.2,43.2,26.3l1.7,1.1V289h-21.8c5.8-5.7,9.5-13.7,9.5-22.5
	c0-17.4-14.1-31.5-31.5-31.5S313,249.1,313,266.5c0,8.8,3.6,16.8,9.5,22.5h-28.4c-11.6,0-21.1,9.5-21.1,21.1V324z M206.6,110.4
	c17.7,0,32.1-14.4,32.1-32.1c0-15.8-1.8-27.3-3.5-37.4l-3-19.8l-13.4,7.2c-25.9,14-44.3,25.8-44.3,50
	C174.5,96,188.9,110.4,206.6,110.4z M215.6,54.7c0.9,6.9,1.6,14.4,1.6,23.6c0,5.9-4.8,10.7-10.7,10.7c-5.9,0-10.7-4.8-10.7-10.7
	C195.9,70,200.4,64,215.6,54.7z M121,110.4c17.7,0,32.1-14.4,32.1-32.1c0-15.7-1.8-27.2-3.4-37.3l-3.1-19.9l-13.4,7.2
	c-25.9,14-44.3,25.8-44.3,50C88.9,96,103.3,110.4,121,110.4z M130.1,54.7c0.9,6.9,1.6,14.4,1.6,23.6c0,5.9-4.8,10.7-10.7,10.7
	c-5.9,0-10.7-4.8-10.7-10.7C110.3,70,114.9,64,130.1,54.7z"></path>
<linearGradient id="SVGID_2_" gradientUnits="userSpaceOnUse" x1="275.2197" y1="372.0799" x2="490.8415" y2="372.0799">
	<stop offset="0" class="primary-color-gradient" style="stop-color: #FFA4ED"></stop>
	<stop offset="1" class="secondary-color-gradient" style="stop-color: #DB81DA"></stop>
</linearGradient>
<path fill="url(#SVGID_2_)" d="M360.6,456.1h-62.1c-8,0-7.2-4.2-12.4-8.6c-5.4-4.5-10.9-15-10.9-15.9c0-13,10.4-12.2,25.9-12.2
	h115.4c17.4,0,31.4-3.5,31.4-18l-2.1-87.7c0-14.5,9.4-25.7,26.8-25.7l0,0c7.5,0,18.2,5,18.2,11.3v129.8c0,20.4-19.7,27-44.1,27
	H360.6z"></path>
<path d="M245.9,324.3c0,4.1-3.3,7.4-7.4,7.4H56.9c-21.8,0-39.5-17.7-39.5-39.5v-37.6c0-0.8,0.1-1.5,0.3-2.3c0,0,0,0,0,0c0,0,0,0,0,0
	s0,0,0,0c0,0,0,0,0,0c0.3-0.9,0.7-1.8,1.3-2.5c2.4-3,11.1-12.4,20.4-21.1c18-16.7,25.7-18.9,30.3-18.9c4.1,0,7.4,3.3,7.4,7.4
	c0,4.1-3.3,7.4-7.3,7.4c-0.5,0.1-5.7,1.2-20.9,15.5c-7.1,6.7-13.6,13.6-16.7,17v34.9c0,13.6,11.1,24.6,24.6,24.6h181.6
	C242.6,316.8,245.9,320.2,245.9,324.3z M24.8,223.8c4.1,0,7.4-3.3,7.4-7.4v-52.5c0-13.6,11.1-24.6,24.6-24.6h53.5
	c4.1,0,7.4-3.3,7.4-7.4v-23.4c0-4.1-3.3-7.4-7.4-7.4s-7.4,3.3-7.4,7.4v15.9h-46c-21.8,0-39.5,17.7-39.5,39.5v52.5
	C17.3,220.5,20.7,223.8,24.8,223.8z M131.7,139.2h64.2c4.1,0,7.4-3.3,7.4-7.4v-23.4c0-4.1-3.3-7.4-7.4-7.4s-7.4,3.3-7.4,7.4v15.9
	h-49.3v-15.9c0-4.1-3.3-7.4-7.4-7.4s-7.4,3.3-7.4,7.4v23.4C124.3,135.9,127.6,139.2,131.7,139.2z M306.8,225.9
	c9.3-10.5,19.8-22.5,36.7-22.5c6.6,0,13.2,2,19.6,6c3.5,2.2,8.1,1.1,10.3-2.4c2.2-3.5,1.1-8.1-2.4-10.3c-8.8-5.5-18-8.2-27.5-8.2
	c-23.6,0-37.6,15.9-47.8,27.5c-9.3,10.6-14.1,15.2-20.6,15.2c-6.5,0-11.3-4.6-20.6-15.2c-10.2-11.6-24.2-27.5-47.8-27.5
	c-23.6,0-37.6,15.9-47.8,27.5c-9.3,10.6-14.1,15.2-20.6,15.2c-6.5,0-11.3-4.6-20.6-15.2c-10.2-11.6-24.2-27.5-47.8-27.5
	c-4.1,0-7.4,3.3-7.4,7.4s3.3,7.4,7.4,7.4c16.9,0,27.4,11.9,36.7,22.5c9.2,10.4,17.9,20.3,31.8,20.3c13.9,0,22.6-9.8,31.8-20.3
	c9.3-10.5,19.8-22.5,36.7-22.5c16.9,0,27.4,11.9,36.7,22.5c9.2,10.4,17.8,20.3,31.8,20.3C288.9,246.2,297.6,236.3,306.8,225.9z
	 M186,240c9.3-10.6,14.1-15.2,20.6-15.2c4.1,0,7.4-3.3,7.4-7.4s-3.3-7.4-7.4-7.4c-13.9,0-22.6,9.8-31.8,20.3
	c-9.3,10.5-19.8,22.5-36.7,22.5c-4.1,0-7.4,3.3-7.4,7.4s3.3,7.4,7.4,7.4C161.7,267.5,175.7,251.6,186,240z M217.3,139.2h64.2
	c4.1,0,7.4-3.3,7.4-7.4v-14.1c5.4,0.5,10.8-0.2,16.4-2.3c3.9-1.4,5.9-5.6,4.5-9.5s-5.6-5.9-9.5-4.5c-5.8,2.1-10.6,2.1-16.4,0
	c-2.3-0.8-4.8-0.5-6.8,0.9c-2,1.4-3.2,3.7-3.2,6.1v15.9h-49.3v-15.9c0-4.1-3.3-7.4-7.4-7.4s-7.4,3.3-7.4,7.4v23.4
	C209.8,135.9,213.1,139.2,217.3,139.2z M485,382.8v-75.5c0-11.3-10.9-11.4-11.4-11.4H318c-0.1,0-0.1,0-0.2,0c-0.1,0-0.1,0-0.2,0
	h-25.1c-11.3,0-11.4,10.9-11.4,11.4v24.3h82.6c4.4,0,8,3.6,8,8v103.5c0,1.9-0.6,3.6-1.7,4.9h26.2c-1.1-1.4-1.7-3.1-1.7-4.9V339.6
	c0-4.4,3.6-8,8-8h64.7c4.4,0,8,3.6,8,8s-3.6,8-8,8h-56.7v95.5c0,1.9-0.6,3.6-1.7,4.9h51.9c24.1,0,24.3-23.3,24.3-24.3
	c0-4.4,3.6-8,8-8s8,3.6,8,8c0,16.2-10.7,40.3-40.3,40.3H305.4c-16.2,0-40.3-10.7-40.3-40.3V380c0-4.4,3.6-8,8-8s8,3.6,8,8v43.7
	c0,24.1,23.3,24.3,24.3,24.3h51.9c-1.1-1.4-1.7-3.1-1.7-4.9v-95.5h-82.6c-4.4,0-8-3.6-8-8v-32.3c0-13.3,9.6-27.4,27.4-27.4h12.8
	c-0.9-3.6-1.3-7.4-1.3-11.4c0-4.1,0.5-7.9,1.3-11.3c-8,5.9-17.7,10.3-30.2,10.3c-4.1,0-7.4-3.3-7.4-7.4s3.3-7.4,7.4-7.4
	c16.9,0,27.4-11.9,36.7-22.5c9.2-10.4,17.8-20.3,31.8-20.3c4.1,0,7.4,3.3,7.4,7.4s-3.3,7.4-7.4,7.4c-3.8,0-7,1.6-10.9,5.1
	c4.1-1.2,8.1-1.7,11.7-1.7c12.4,0,29.3,6.3,36.7,22.3v-86.6c0-13.6-11.1-24.6-24.6-24.6h-32.1c-4.1,0-7.4-3.3-7.4-7.4
	s3.3-7.4,7.4-7.4h32.1c21.8,0,39.5,17.7,39.5,39.5v73.2c8-6.3,18-8.9,26.1-8.9c16.2,0,40.3,10.7,40.3,40.3c0,4-0.5,7.9-1.3,11.4
	h12.8c13.3,0,27.4,9.6,27.4,27.4v75.5c0,4.4-3.6,8-8,8S485,387.2,485,382.8z M368.6,268.5c0-24.1-23.3-24.3-24.3-24.3
	s-24.3,0.3-24.3,24.3c0,4.4,0.8,8.2,2.2,11.4h46.4V268.5z M446.2,268.5c0-24.1-23.3-24.3-24.3-24.3s-24.3,0.3-24.3,24.3v11.4h46.4
	C445.4,276.7,446.2,272.8,446.2,268.5z"></path>
<path d="M106.6,375.9c0-4.9,3.9-8.9,8.7-8.9c4.8,0,8.7,4,8.7,8.9s-3.9,8.9-8.7,8.9C110.5,384.8,106.6,380.8,106.6,375.9z M45.5,74
	c4.4,0,8-3.6,8-8v-9.7h8.5c4.4,0,8-3.6,8-8s-3.6-8-8-8h-8.5v-9.7c0-4.4-3.6-8-8-8s-8,3.6-8,8v9.7H29c-4.4,0-8,3.6-8,8s3.6,8,8,8h8.5
	V66C37.5,70.4,41,74,45.5,74z M270.6,372h-92.1c-4.4,0-8,3.6-8,8s3.6,8,8,8h92.1c4.4,0,8-3.6,8-8S275,372,270.6,372z M170.9,441.6
	H46.5c-4.4,0-8,3.6-8,8s3.6,8,8,8h124.3c4.4,0,8-3.6,8-8S175.3,441.6,170.9,441.6z M404.1,477.4h-73.8c-4.4,0-8,3.6-8,8s3.6,8,8,8
	h73.8c4.4,0,8-3.6,8-8S408.5,477.4,404.1,477.4z M66.7,344.3c0-4.4-3.6-8-8-8s-8,3.6-8,8v3.9h-3.9c-4.4,0-8,3.6-8,8s3.6,8,8,8h3.9
	v3.9c0,4.4,3.6,8,8,8s8-3.6,8-8v-3.9h3.9c4.4,0,8-3.6,8-8s-3.6-8-8-8h-3.9V344.3z"></path>
<path fill="#FFA4ED" class="primary-color" d="M363.1,49.8V25.4h93.6H473h8v110h-24.4V49.8H363.1z"></path>
</svg>