<svg version="1.1" id="Layer_1" xmlns="http://www.w3.org/2000/svg" xmlns:xlink="http://www.w3.org/1999/xlink" x="0px" y="0px" viewBox="0 0 512 512" enable-background="new 0 0 512 512" xml:space="preserve">
<path d="M65.4,490.8c-2,0-4.1-0.8-5.7-2.3l-33.6-33.6c-3.1-3.1-3.1-8.2,0-11.3c3.1-3.1,8.2-3.1,11.3,0l33.6,33.6
	c3.1,3.1,3.1,8.2,0,11.3C69.5,490.1,67.5,490.8,65.4,490.8z M37.5,488.5l33.6-33.6c3.1-3.1,3.1-8.2,0-11.3c-3.1-3.1-8.2-3.1-11.3,0
	l-33.6,33.6c-3.1,3.1-3.1,8.2,0,11.3c1.6,1.6,3.6,2.3,5.7,2.3S35.9,490.1,37.5,488.5z M65.4,49.2c-5.9,0-10.8,4.8-10.8,10.8
	s4.8,10.8,10.8,10.8c5.9,0,10.8-4.8,10.8-10.8S71.4,49.2,65.4,49.2z M480.6,60.1c-5.9,0-10.8,4.8-10.8,10.8
	c0,5.9,4.8,10.8,10.8,10.8c5.9,0,10.8-4.8,10.8-10.8C491.3,64.9,486.5,60.1,480.6,60.1z M468.5,438.6c0-4.4-3.6-8-8-8h-43
	c-4.4,0-8,3.6-8,8s3.6,8,8,8h43C464.9,446.6,468.5,443,468.5,438.6z M439.5,466c0-4.4-3.6-8-8-8h-73.8c-4.4,0-8,3.6-8,8s3.6,8,8,8
	h73.8C436,474,439.5,470.4,439.5,466z"></path>
<linearGradient id="SVGID_1_" gradientUnits="userSpaceOnUse" x1="79.325" y1="256" x2="432.6751" y2="256" class="gradient-element">
	<stop offset="0" class="primary-color-gradient" style="stop-color: #FFA4ED"></stop>
	<stop offset="1" class="secondary-color-gradient" style="stop-color: #DB81DA"></stop>
</linearGradient>
<path fill="url(#SVGID_1_)" d="M432.7,256c0,97.6-79.1,176.7-176.7,176.7S79.3,353.6,79.3,256S158.4,79.3,256,79.3
	S432.7,158.4,432.7,256z"></path>
<path d="M255.9,506.1c-64.8,0-126.1-24.7-173.1-69.8C34.6,390,7.3,327.7,5.9,261C4.6,194.3,29.4,131,75.7,82.8
	C122,34.6,184.3,7.3,251,5.9c66.7-1.3,130,23.4,178.2,69.8c48.2,46.3,75.5,108.6,76.9,175.3c1.5,73.2-29.3,143.2-84.4,192.1
	c-3.3,2.9-8.4,2.6-11.3-0.7c-2.9-3.3-2.6-8.4,0.7-11.3c51.6-45.8,80.4-111.3,79.1-179.8c-1.3-62.4-26.8-120.7-72-164.1
	S313.7,20.7,251.3,21.9c-62.4,1.3-120.7,26.8-164.1,72C43.9,139,20.7,198.3,21.9,260.7s26.8,120.7,72,164.1
	c45.2,43.4,104.4,66.6,166.8,65.3c38.8-0.8,77.3-11.5,111.2-31c3.8-2.2,8.7-0.9,10.9,2.9c2.2,3.8,0.9,8.7-2.9,10.9
	c-36.2,20.8-77.3,32.3-118.9,33.1C259.3,506.1,257.6,506.1,255.9,506.1z M313,449.2c-4.4,0-8-3.6-8-8v-28.5c0-4.4,3.6-8,8-8h7.1
	c46.6,0,84.6-37.9,84.6-84.6c0-32.4-19-62.5-48.4-76.4c-2.4-1.2-4.1-3.5-4.5-6.2c-0.4-2.7,0.7-5.4,2.7-7.1
	c14-12.1,21.7-28.3,21.7-45.6c0-36.6-26.6-63.2-63.2-63.2c-4.4,0-8-3.6-8-8V70.8c0-4.4,3.6-8,8-8s8,3.6,8,8v35.1
	c19.4,1.7,36.8,9.7,49.6,23c14,14.5,21.6,34.4,21.6,55.9c0,18.1-6.9,35.8-19.2,49.8c29.3,18.2,47.7,50.7,47.7,85.5
	c0,55.2-44.6,100.1-99.7,100.6v20.5C321,445.6,317.4,449.2,313,449.2z M241.8,449.2c-4.4,0-8-3.6-8-8v-28.5c0-4.4,3.6-8,8-8h42.7
	c4.4,0,8,3.6,8,8s-3.6,8-8,8h-34.7v20.5C249.8,445.6,246.2,449.2,241.8,449.2z M213.3,420.7h-85.5c-4.4,0-8-3.6-8-8v-28.5
	c0-4.4,3.6-8,8-8h20.5V150.1h-73c-4.4,0-8-3.6-8-8s3.6-8,8-8h81c4.4,0,8,3.6,8,8v242.1c0,4.4-3.6,8-8,8h-20.5v12.5h77.5
	c4.4,0,8,3.6,8,8S217.7,420.7,213.3,420.7z M320.1,392.2H184.8c-4.4,0-8-3.6-8-8V256c0-4.4,3.6-8,8-8s8,3.6,8,8v120.2h127.3
	c30.9,0,56.1-25.2,56.1-56.1c0-4.4,3.6-8,8-8s8,3.6,8,8C392.2,359.8,359.8,392.2,320.1,392.2z M305.8,235.5H184.8c-4.4,0-8-3.6-8-8
	s3.6-8,8-8h121.1c23.1,0,41.8-15.6,41.8-34.7c0-19.1-18.8-34.7-41.8-34.7c-4.4,0-8-3.6-8-8s3.6-8,8-8c31.9,0,57.8,22.8,57.8,50.7
	S337.7,235.5,305.8,235.5z M284.5,121.6h-42.7c-4.4,0-8-3.6-8-8V70.8c0-4.4,3.6-8,8-8s8,3.6,8,8v34.7h34.7c4.4,0,8,3.6,8,8
	S288.9,121.6,284.5,121.6z M213.3,121.6H96.9c-4.4,0-8-3.6-8-8s3.6-8,8-8h116.4c4.4,0,8,3.6,8,8S217.7,121.6,213.3,121.6z"></path>
</svg>