<svg version="1.1" id="Layer_1" xmlns="http://www.w3.org/2000/svg" xmlns:xlink="http://www.w3.org/1999/xlink" x="0px" y="0px" viewBox="0 0 512 512" enable-background="new 0 0 512 512" xml:space="preserve">
<path fill="#DB81DA" class="secondary-color" d="M430.3,483.7l60.9-60.9v60.9H430.3z"></path>
<path d="M29.8,92.1c-4.4,0-8-3.6-8-8s3.6-8,8-8h15.8V60.3c0-4.4,3.6-8,8-8s8,3.6,8,8v15.8h15.8c4.4,0,8,3.6,8,8s-3.6,8-8,8H61.6
	v15.8c0,4.4-3.6,8-8,8s-8-3.6-8-8V92.1H29.8z M67.5,309.6c-5.9,0-10.8,4.8-10.8,10.8s4.8,10.8,10.8,10.8s10.8-4.8,10.8-10.8
	S73.4,309.6,67.5,309.6z M138.1,401.5H35.3c-4.4,0-8,3.6-8,8s3.6,8,8,8h102.8c4.4,0,8-3.6,8-8S142.5,401.5,138.1,401.5z
	 M457.3,218.4h-43c-4.4,0-8,3.6-8,8s3.6,8,8,8h43c4.4,0,8-3.6,8-8S461.7,218.4,457.3,218.4z"></path>
<linearGradient id="SVGID_1_" gradientUnits="userSpaceOnUse" x1="347.0608" y1="457.901" x2="338.5063" y2="112.8713" class="gradient-element">
	<stop offset="0" class="primary-color-gradient" style="stop-color: #FFA4ED"></stop>
	<stop offset="1" class="secondary-color-gradient" style="stop-color: #DB81DA"></stop>
</linearGradient>
<path fill="url(#SVGID_1_)" d="M304.5,111.6h55.7c8.6,0,16.9,3.4,23,9.5l21.5,21.5c6.1,6.1,9.5,14.4,9.5,23v269.1
	c0,18-14.6,32.5-32.5,32.5h-77.2c-18,0-32.5-14.6-32.5-32.5V144.2C272,126.2,286.6,111.6,304.5,111.6z"></path>
<path d="M232.6,372.4v15.7h110.5c4.4,0,8,3.6,8,8s-3.6,8-8,8H224.6c-4.4,0-8-3.6-8-8v-23.7c0-4.4,3.6-8,8-8S232.6,368,232.6,372.4z
	 M343.2,317H232.6v-15.7c0-4.4-3.6-8-8-8s-8,3.6-8,8V325c0,4.4,3.6,8,8,8h118.5c4.4,0,8-3.6,8-8S347.6,317,343.2,317z M343.2,245.9
	H232.6v-15.7c0-4.4-3.6-8-8-8s-8,3.6-8,8v23.7c0,4.4,3.6,8,8,8h118.5c4.4,0,8-3.6,8-8S347.6,245.9,343.2,245.9z M430.6,123.5
	l33.3-33.3c1.5-1.5,2.3-3.5,2.3-5.7c0-2.1-0.8-4.2-2.3-5.7L447.1,62c-3.1-3.1-8.2-3.1-11.3,0l-33.3,33.3l-36.8-36.8
	c-1.5-1.5-3.5-2.3-5.7-2.3H106.1c-4.4,0-8,3.6-8,8v403c0,4.4,3.6,8,8,8h308.2c4.4,0,8-3.6,8-8V226.4c0-4.4-3.6-8-8-8s-8,3.6-8,8
	v232.9H114.1v-387h242.6l40.1,40.1c1.5,1.5,3.5,2.3,5.7,2.3s4.2-0.8,5.7-2.3L441.4,79l5.5,5.5l-33.3,33.3c-1.5,1.5-2.3,3.5-2.3,5.7
	s0.8,4.2,2.3,5.7l33.3,33.3l-5.5,5.5l-33.3-33.3c-1.5-1.5-3.5-2.3-5.7-2.3s-4.2,0.8-5.7,2.3L363.4,168l-5.5-5.5l33.3-33.3
	c1.5-1.5,2.3-3.5,2.3-5.7s-0.8-4.2-2.3-5.7l-35.6-35.6c-3.1-3.1-8.2-3.1-11.3,0c-3.1,3.1-3.1,8.2,0,11.3l29.9,29.9l-33.3,33.3
	c-3.1,3.1-3.1,8.2,0,11.3l16.8,16.8c1.5,1.5,3.5,2.3,5.7,2.3s4.2-0.8,5.7-2.3l33.3-33.3l3.6,3.6v41.9c0,4.4,3.6,8,8,8s8-3.6,8-8
	v-25.9l13.7,13.7c1.5,1.5,3.5,2.3,5.7,2.3s4.2-0.8,5.7-2.3l16.8-16.8c1.5-1.5,2.3-3.5,2.3-5.7s-0.8-4.2-2.3-5.7L430.6,123.5z
	 M208.9,159.1c0-4.4-3.6-8-8-8h-23.7c-4.4,0-8,3.6-8,8s3.6,8,8,8h15.7v15.7c0,4.4,3.6,8,8,8s8-3.6,8-8V159.1z M343.2,174.8H232.6
	v-15.7c0-4.4-3.6-8-8-8s-8,3.6-8,8v23.7c0,4.4,3.6,8,8,8h118.5c4.4,0,8-3.6,8-8S347.6,174.8,343.2,174.8z M208.9,230.2
	c0-4.4-3.6-8-8-8h-23.7c-4.4,0-8,3.6-8,8s3.6,8,8,8h15.7v15.7c0,4.4,3.6,8,8,8s8-3.6,8-8V230.2z M208.9,301.3c0-4.4-3.6-8-8-8h-23.7
	c-4.4,0-8,3.6-8,8s3.6,8,8,8h15.7V325c0,4.4,3.6,8,8,8s8-3.6,8-8V301.3z M200.9,404.1c4.4,0,8-3.6,8-8v-23.7c0-4.4-3.6-8-8-8h-23.7
	c-4.4,0-8,3.6-8,8s3.6,8,8,8h15.7v15.7C192.9,400.5,196.5,404.1,200.9,404.1z"></path>
</svg>