<svg version="1.1" id="Layer_1" xmlns="http://www.w3.org/2000/svg" xmlns:xlink="http://www.w3.org/1999/xlink" x="0px" y="0px" viewBox="0 0 512 512" enable-background="new 0 0 512 512" xml:space="preserve">
<path d="M471,218.9h-24.3c-4.4,0-8-3.6-8-8s3.6-8,8-8H471c4.4,0,8,3.6,8,8S475.4,218.9,471,218.9z M476.2,240.9c0-4.4-3.6-8-8-8
	h-73.8c-4.4,0-8,3.6-8,8s3.6,8,8,8h73.8C472.6,248.9,476.2,245.3,476.2,240.9z M440.7,397.9c0-4.4-3.6-8-8-8s-8,3.6-8,8
	c0,11.4-9.3,20.8-20.8,20.8c-4.4,0-8,3.6-8,8s3.6,8,8,8C424.2,434.7,440.7,418.2,440.7,397.9z M490.7,426.7c0-4.4-3.6-8-8-8
	c-11.4,0-20.8-9.3-20.8-20.8c0-4.4-3.6-8-8-8s-8,3.6-8,8c0,20.3,16.5,36.8,36.8,36.8C487.1,434.7,490.7,431.1,490.7,426.7z
	 M461.9,476.7c0-11.4,9.3-20.8,20.8-20.8c4.4,0,8-3.6,8-8s-3.6-8-8-8c-20.3,0-36.8,16.5-36.8,36.8c0,4.4,3.6,8,8,8
	S461.9,481.1,461.9,476.7z M440.7,476.7c0-20.3-16.5-36.8-36.8-36.8c-4.4,0-8,3.6-8,8s3.6,8,8,8c11.4,0,20.8,9.3,20.8,20.8
	c0,4.4,3.6,8,8,8S440.7,481.1,440.7,476.7z M200.4,486.7c0-4.4-3.6-8-8-8h-87.6c-4.4,0-8,3.6-8,8s3.6,8,8,8h87.6
	C196.8,494.7,200.4,491.1,200.4,486.7z M144.6,454.4c0-4.4-3.6-8-8-8H23.8c-4.4,0-8,3.6-8,8s3.6,8,8,8h112.8
	C141,462.4,144.6,458.8,144.6,454.4z M33.8,405.8c0-5-4.1-9-9-9s-9,4.1-9,9s4.1,9,9,9S33.8,410.8,33.8,405.8z M63.8,405.8
	c0-5-4.1-9-9-9s-9,4.1-9,9s4.1,9,9,9S63.8,410.8,63.8,405.8z M93.8,405.8c0-5-4.1-9-9-9s-9,4.1-9,9s4.1,9,9,9S93.8,410.8,93.8,405.8
	z M312.5,397.9c0-14.6-11.8-26.4-26.4-26.4s-26.4,11.8-26.4,26.4s11.8,26.4,26.4,26.4S312.5,412.5,312.5,397.9z M296.5,397.9
	c0,5.7-4.7,10.4-10.4,10.4s-10.4-4.7-10.4-10.4s4.7-10.4,10.4-10.4S296.5,392.2,296.5,397.9z"></path>
<linearGradient id="SVGID_1_" gradientUnits="userSpaceOnUse" x1="314.5205" y1="290.5537" x2="316.7942" y2="58.638" class="gradient-element">
	<stop offset="0" class="primary-color-gradient" style="stop-color: #FFA4ED"></stop>
	<stop offset="1" class="secondary-color-gradient" style="stop-color: #DB81DA"></stop>
</linearGradient>
<path fill="url(#SVGID_1_)" d="M449.9,91.6L297.3,244.2c-13,13-13,13-91.4,44.8L181,299.1l10.1-24.8c11.6-28.5,7.3-18.8,12.6-31
	c25-10.5,68.8-33.6,75.5-40.3l148-146.2l0,0c12.5,0,22.7,10.2,22.7,22.7V91.6z"></path>
<path d="M132.5,420.9c-1,0-2.1-0.2-3.1-0.6c-3-1.2-4.9-4.2-4.9-7.4v-76H87.2c-16.9,0-30.7-13.8-30.7-30.7V79.5
	c0-16.9,13.8-30.7,30.7-30.7h178.6c4.4,0,8,3.6,8,8s-3.6,8-8,8H87.2c-8.1,0-14.7,6.6-14.7,14.7v226.7c0,8.1,6.6,14.7,14.7,14.7h45.3
	c4.4,0,8,3.6,8,8v64.7l70.4-70.4c1.5-1.5,3.5-2.3,5.7-2.3h210.7c8.1,0,14.7-6.6,14.7-14.7v-65.3c0-4.4,3.6-8,8-8s8,3.6,8,8v65.3
	c0,16.9-13.8,30.7-30.7,30.7H219.9l-81.7,81.7C136.7,420.1,134.6,420.9,132.5,420.9z M149,275.1c-2.1,0-4.1-0.8-5.7-2.3
	c-2.3-2.3-3-5.7-1.8-8.7l10.1-24.8c32.4-79.9,32.4-79.9,46.6-94l94-94c1.5-1.5,3.5-2.3,5.7-2.3h32.1c4.4,0,8,3.6,8,8s-3.6,8-8,8
	h-28.7l-91.6,91.7c-11.8,11.8-11.8,11.8-43,88.7l-3,7.3l7.3-3c76.9-31.2,76.9-31.2,88.7-43c3.1-3.1,8.2-3.1,11.3,0
	c3.1,3.1,3.1,8.2,0,11.3c-14.1,14.1-14.1,14.1-94,46.6L152,274.5C151,274.9,150,275.1,149,275.1z M449.9,218.3c-4.4,0-8-3.6-8-8
	V79.5c0-8.1-6.6-14.7-14.7-14.7h-4.7l-129,129c-3.1,3.1-8.2,3.1-11.3,0c-3.1-3.1-3.1-8.2,0-11.3L413.5,51.2c1.5-1.5,3.5-2.3,5.7-2.3
	h8c16.9,0,30.7,13.8,30.7,30.7v130.8C457.9,214.7,454.3,218.3,449.9,218.3z M453.9,178"></path>
</svg>