<svg version="1.1" id="Layer_1" xmlns="http://www.w3.org/2000/svg" xmlns:xlink="http://www.w3.org/1999/xlink" x="0px" y="0px" viewBox="0 0 512 512" enable-background="new 0 0 512 512" xml:space="preserve">
<g>
	<linearGradient id="SVGID_1_" gradientUnits="userSpaceOnUse" x1="251.7205" y1="436.3647" x2="251.7205" y2="155.1979" class="gradient-element">
		<stop offset="0" class="primary-color-gradient" style="stop-color: #FFA4ED"></stop>
		<stop offset="1" class="secondary-color-gradient" style="stop-color: #DB81DA"></stop>
	</linearGradient>
	<path fill="url(#SVGID_1_)" d="M390.3,225.6L390.3,225.6c0,4.3-0.3,40.5-0.9,44.6c-4.9,34.8-29.5,61.3-59.2,61.3H190.6
		c-19.9,0-38.1,8.3-52.7,22.3c-2.5,2.4-88.2,4.9-90.5,7.6c-16,19.2-21.3,58.7,1.8,75.5v-2c0,4.4,58.6,8,62.2,8l355.7,0.4V188.2
		l2.7-31.9C438.7,156.2,390.3,187.3,390.3,225.6z M428.7,407.9h-78.6v-40.2h78.6V407.9z"></path>
	<linearGradient id="SVGID_2_" gradientUnits="userSpaceOnUse" x1="100.9178" y1="77.0988" x2="100.9178" y2="350.6737">
		<stop offset="0" class="primary-color-gradient" style="stop-color: #FFA4ED"></stop>
		<stop offset="1" class="secondary-color-gradient" style="stop-color: #DB81DA"></stop>
	</linearGradient>
	<path fill="url(#SVGID_2_)" d="M69,141c0-35.3,28.6-63.9,63.9-63.9h0v273.6H69V141z"></path>
</g>
<path d="M194.7,56.7h101.1c4.4,0,8,3.6,8,8s-3.6,8-8,8H194.7c-4.4,0-8-3.6-8-8S190.3,56.7,194.7,56.7z M166,36.8h66.9
	c4.4,0,8-3.6,8-8s-3.6-8-8-8H166c-4.4,0-8,3.6-8,8S161.6,36.8,166,36.8z M396.7,114.4h43c4.4,0,8-3.6,8-8s-3.6-8-8-8h-43
	c-4.4,0-8,3.6-8,8S392.2,114.4,396.7,114.4z M451.7,481.5h-73.8c-4.4,0-8,3.6-8,8s3.6,8,8,8h73.8c4.4,0,8-3.6,8-8
	S456.2,481.5,451.7,481.5z M64.9,481.3c0,5-4.1,9-9,9s-9-4.1-9-9s4.1-9,9-9S64.9,476.3,64.9,481.3z"></path>
<path d="M477.8,157.7v285.7c0,4.4-3.6,8-8,8H74.3c-13.9,0-27-5.4-36.7-15.3c-9.8-9.7-15.2-22.7-15.2-36.7V121
	c0-28.6,23.3-51.9,51.9-51.9h58.6c4.4,0,8,3.6,8,8v50.6c0,4.4-3.6,8-8,8s-8-3.6-8-8V85.1H74.3c-19.8,0-35.9,16.1-35.9,35.9v240.9
	c0.2-0.2,0.4-0.3,0.5-0.5c0.3-0.3,0.6-0.5,0.9-0.8c0.3-0.3,0.6-0.6,0.9-0.8c0.3-0.3,0.6-0.5,0.9-0.8c0.3-0.3,0.7-0.5,1-0.8
	c0.3-0.2,0.6-0.5,1-0.7c0.3-0.2,0.7-0.5,1-0.7c0.3-0.2,0.7-0.5,1-0.7c0.4-0.2,0.7-0.5,1.1-0.7c0.3-0.2,0.7-0.4,1-0.6
	c0.4-0.2,0.7-0.4,1.1-0.6c0.3-0.2,0.7-0.4,1-0.6c0.4-0.2,0.8-0.4,1.1-0.6c0.4-0.2,0.7-0.4,1.1-0.5c0.4-0.2,0.8-0.4,1.2-0.5
	c0.4-0.2,0.7-0.3,1.1-0.5c0.4-0.2,0.8-0.3,1.2-0.5c0.4-0.1,0.7-0.3,1.1-0.4c0.4-0.2,0.8-0.3,1.3-0.4c0.4-0.1,0.7-0.3,1.1-0.4
	c0.4-0.1,0.9-0.2,1.3-0.4c0.4-0.1,0.8-0.2,1.1-0.3c0.4-0.1,0.9-0.2,1.4-0.3c0.4-0.1,0.7-0.2,1.1-0.3c0.5-0.1,0.9-0.2,1.4-0.3
	c0.4-0.1,0.7-0.1,1.1-0.2c0.5-0.1,1-0.1,1.5-0.2c0.4,0,0.7-0.1,1.1-0.1c0.6-0.1,1.1-0.1,1.7-0.1c0.3,0,0.6-0.1,0.9-0.1
	c0.9,0,1.8-0.1,2.6-0.1h50.6V157.7c0-4.4,3.6-8,8-8h194.1c4.4,0,8,3.6,8,8s-3.6,8-8,8H140.9v189.8c0,4.4-3.6,8-8,8H74.3
	c-19.8,0-35.9,16.1-35.9,35.9c0,9.6,3.7,18.7,10.5,25.4c6.8,6.8,15.8,10.6,25.4,10.6h387.5V165.7H360.5c-4.4,0-8-3.6-8-8s3.6-8,8-8
	h109.3C474.2,149.7,477.8,153.3,477.8,157.7z M323.1,238.9c-0.9,1.6-1.2,3.5-0.9,5.2c-0.9-0.4-2-0.6-3.1-0.6c-4.4,0-8,3.6-8,8v5
	c0,4.4,3.6,8,8,8s8-3.6,8-8v-5c0-0.4,0-0.8-0.1-1.2l3.5,2c1.2,0.7,2.6,1,3.9,1c2.8,0,5.5-1.5,7-4.1c2.1-3.9,0.8-8.7-3.1-10.9
	l-4.4-2.4C330.2,233.7,325.3,235.1,323.1,238.9z M288.8,210.7l-9.1-5c-3.9-2.1-8.7-0.8-10.9,3.1c-2.1,3.9-0.8,8.7,3.1,10.9l9.1,5
	c1.2,0.7,2.6,1,3.9,1c2.8,0,5.5-1.5,7-4.1C294,217.7,292.6,212.8,288.8,210.7z M299.1,234.7l9.1,5c1.2,0.7,2.6,1,3.9,1
	c2.8,0,5.5-1.5,7-4.1c2.1-3.9,0.8-8.7-3.1-10.9l-9.1-5c-3.9-2.1-8.7-0.8-10.9,3.1C293.8,227.7,295.2,232.6,299.1,234.7z
	 M261.6,195.6l-4.4-2.4c-2.4-1.3-5.4-1.3-7.8,0l-4.4,2.4c-3.9,2.1-5.3,7-3.1,10.9c1.5,2.6,4.2,4.1,7,4.1c1.3,0,2.6-0.3,3.9-1
	l0.5-0.3l0.5,0.3c3.9,2.1,8.7,0.8,10.9-3.1C266.9,202.6,265.5,197.7,261.6,195.6z M237.9,208.8c-2.1-3.9-7-5.3-10.9-3.1l-9.1,5
	c-3.9,2.1-5.3,7-3.1,10.9c1.5,2.6,4.2,4.1,7,4.1c1.3,0,2.6-0.3,3.9-1l9.1-5C238.6,217.5,240,212.6,237.9,208.8z M210.7,223.8
	c-2.1-3.9-7-5.3-10.9-3.1l-9.1,5c-3.9,2.1-5.3,7-3.1,10.9c1.5,2.6,4.2,4.1,7,4.1c1.3,0,2.6-0.3,3.9-1l9.1-5
	C211.5,232.6,212.9,227.7,210.7,223.8z M183.6,238.9c-2.1-3.9-7-5.3-10.9-3.1l-4.4,2.4c-3.9,2.1-5.3,7-3.1,10.9
	c1.5,2.6,4.2,4.1,7,4.1c1.3,0,2.6-0.3,3.9-1l3.5-2c-0.1,0.4-0.1,0.8-0.1,1.2v5c0,4.4,3.6,8,8,8s8-3.6,8-8v-5c0-4.4-3.6-8-8-8
	c-1.1,0-2.1,0.2-3.1,0.6C184.7,242.4,184.5,240.6,183.6,238.9z M179.5,318.4c0,4.4,3.6,8,8,8h5c4.4,0,8-3.6,8-8c0-4-2.9-7.2-6.6-7.9
	c1-1.3,1.6-3,1.6-4.8v-5c0-4.4-3.6-8-8-8s-8,3.6-8,8v5c0,2.6,1.2,4.9,3.2,6.4C180.8,313.5,179.5,315.8,179.5,318.4z M209.6,326.4
	h8.5c4.4,0,8-3.6,8-8s-3.6-8-8-8h-8.5c-4.4,0-8,3.6-8,8S205.2,326.4,209.6,326.4z M235.2,326.4h5c4.4,0,8-3.6,8-8v-5
	c0-1.9-0.7-3.6-1.8-5c1.1-1.4,1.8-3.1,1.8-5v-5c0-1.9-0.7-3.7-1.8-5c0.6-0.7,1.1-1.5,1.4-2.4c3.2-1.1,5.4-4.1,5.4-7.6
	c0-4.4-3.6-8-8-8h-5c-4.4,0-8,3.6-8,8v5c0,1.9,0.7,3.6,1.8,5c-1.1,1.4-1.8,3.1-1.8,5v5c0,1.9,0.7,3.7,1.8,5
	c-0.6,0.7-1.1,1.5-1.4,2.4c-3.2,1.1-5.4,4.1-5.4,7.6C227.2,322.8,230.8,326.4,235.2,326.4z M261.5,275.3c-4.4,0-8,3.6-8,8
	c0,3.5,2.3,6.5,5.4,7.6c0.3,0.9,0.8,1.7,1.4,2.4c-1.1,1.4-1.8,3.1-1.8,5v5c0,1.9,0.7,3.6,1.8,5c-1.1,1.4-1.8,3.1-1.8,5v5
	c0,4.4,3.6,8,8,8h5c4.4,0,8-3.6,8-8c0-3.5-2.3-6.5-5.4-7.6c-0.3-0.9-0.8-1.7-1.4-2.4c1.1-1.4,1.8-3.1,1.8-5v-5c0-1.9-0.7-3.6-1.8-5
	c1.1-1.4,1.8-3.1,1.8-5v-5c0-4.4-3.6-8-8-8H261.5z M280.6,318.4c0,4.4,3.6,8,8,8h8.5c4.4,0,8-3.6,8-8s-3.6-8-8-8h-8.5
	C284.2,310.4,280.6,314,280.6,318.4z M327.2,318.4v-5c0-4.4-3.6-8-8-8c-3.5,0-6.5,2.3-7.6,5.4c-3.2,1.1-5.4,4.1-5.4,7.6
	c0,4.4,3.6,8,8,8h5C323.6,326.4,327.2,322.8,327.2,318.4z M327.2,279.3c0-4.4-3.6-8-8-8s-8,3.6-8,8v11.4c0,4.4,3.6,8,8,8s8-3.6,8-8
	V279.3z M187.5,266.2c-4.4,0-8,3.6-8,8v8.8c0,4.4,3.6,8,8,8s8-3.6,8-8v-8.8C195.5,269.7,191.9,266.2,187.5,266.2z M342.1,367.7
	c0-4.4,3.6-8,8-8h78.6c4.4,0,8,3.6,8,8v40.2c0,4.4-3.6,8-8,8h-78.6c-4.4,0-8-3.6-8-8V367.7z M358.1,399.9h62.6v-24.2h-62.6V399.9z
	 M311.4,364.3h-62.7c-4.4,0-8,3.6-8,8s3.6,8,8,8h62.7c4.4,0,8-3.6,8-8S315.8,364.3,311.4,364.3z M311.4,394.3h-62.7
	c-4.4,0-8,3.6-8,8s3.6,8,8,8h62.7c4.4,0,8-3.6,8-8S315.8,394.3,311.4,394.3z"></path>
</svg>