<svg version="1.1" id="Layer_1" xmlns="http://www.w3.org/2000/svg" xmlns:xlink="http://www.w3.org/1999/xlink" x="0px" y="0px" viewBox="0 0 512 512" enable-background="new 0 0 512 512" xml:space="preserve">
<linearGradient id="SVGID_1_" gradientUnits="userSpaceOnUse" x1="251.0358" y1="436.7087" x2="251.0358" y2="95.0312" class="gradient-element">
	<stop offset="0" class="primary-color-gradient" style="stop-color: #FFA4ED"></stop>
	<stop offset="1" class="secondary-color-gradient" style="stop-color: #DB81DA"></stop>
</linearGradient>
<path fill="url(#SVGID_1_)" d="M223.8,68.3c0.1,0,0.1,0,0.1-0.1c9.4-4.8,20.7-4,29.3,2.1l109.2,77.6c7.3,5.2,11.7,13.5,11.9,22.5
	c0.2,9-3.9,17.5-11,22.9l-3.6,2.8c-1-7.8-5.2-14.9-11.7-19.5l-39.8-28.2l-0.7-0.5L237.4,98l-14.7-10.5
	C215.8,82.7,216.4,72.2,223.8,68.3z M362.8,317l-87.6-65.3l-15.5,11.9c-5.4,4.1-5.4,12.2,0,16.3l48.3,37.1
	c7.3,5.3,11.6,13.8,11.5,22.8c0,9-4.4,17.5-11.7,22.8l-3,2.2l-82.2,59.5c-6.4,4.6-6.3,14-0.4,18.5c0.5,0.4,1.1,0.8,1.7,1.1
	c0,0,0.1,0,0.2,0.1c4.1,2.1,8.4,3.1,12.8,3.1c5.8,0,11.7-1.8,16.6-5.4l106.2-76.9l2.6-1.9c5.8-4.2,10-10.3,11.5-17.2
	C376,334.6,371.6,323.5,362.8,317z M173.2,308.5c-12.4,9.5-30.1,7.2-39.6-5.2c-0.5-0.6-0.9-1.3-1.3-1.9c-6.3,9.8-6.1,22.8,1.3,32.5
	c9.5,12.4,27.2,14.7,39.6,5.2l42-32l-9.6-9.7c-4.6-4.6-12-5.1-17.1-1L173.2,308.5z"></path>
<path d="M382.3,339.9c0,11.5-5.6,22.5-15,29.2l-109.2,79c-6.2,4.5-13.6,6.9-21.3,6.9c-5.7,0-11.4-1.4-16.5-4
	c-12.2-6.2-19.8-18.6-19.8-32.3v-90.7L178,345.5c-7.7,5.9-17.2,8.4-26.8,7.2c-9.6-1.3-18.1-6.2-24-13.9
	c-12.2-15.8-9.2-38.6,6.7-50.8l39.4-30.2l-38.7-28.5c-16.1-11.8-19.6-34.5-7.8-50.6c11.8-16.1,34.5-19.6,50.6-7.8l36,26.4
	c3.6,2.6,4.3,7.6,1.7,11.2c-2.6,3.6-7.6,4.3-11.2,1.7l-36-26.4c-9-6.6-21.7-4.7-28.3,4.3c-6.6,9-4.7,21.7,4.3,28.3l47.3,34.8
	c2,1.5,3.2,3.8,3.3,6.4c0,2.5-1.1,4.9-3.1,6.4l-47.8,36.7c-8.8,6.8-10.5,19.5-3.7,28.4c3.3,4.3,8.1,7,13.4,7.7
	c5.4,0.7,10.7-0.7,15-4l35.5-27.2c2.4-1.9,5.7-2.2,8.4-0.8c2.7,1.3,4.5,4.1,4.5,7.2v106.9c0,7.6,4.2,14.5,11,18
	c2.8,1.4,6,2.2,9.2,2.2c4.3,0,8.4-1.3,11.9-3.8l109.2-79c5.2-3.8,8.3-9.9,8.4-16.3c0-6.4-3.1-12.6-8.3-16.4l-82.1-60.3
	c-2-1.5-3.2-3.8-3.3-6.4c0-2.5,1.1-4.9,3.1-6.4l82.6-63.4c5.1-3.9,8-10,7.9-16.4c-0.1-6.4-3.3-12.4-8.5-16.1L248.6,76.8
	c-6.2-4.4-14.2-5-21-1.5c-6.8,3.5-11,10.4-11,18v37.3c0,4.4-3.6,8-8,8s-8-3.6-8-8V93.3c0-13.6,7.5-26,19.6-32.2
	c12.1-6.2,26.5-5.2,37.6,2.7l109.2,77.6c9.3,6.6,15,17.4,15.2,28.9c0.2,11.4-5.1,22.4-14.2,29.4L294,256.5l73.5,54
	C376.8,317.4,382.3,328.3,382.3,339.9z M265.1,331.4c-4.4,0-8,3.6-8,8v24.1c0,3,1.7,5.8,4.4,7.1c1.1,0.6,2.4,0.9,3.6,0.9
	c1.7,0,3.3-0.5,4.7-1.5l33-23.9c2.1-1.5,3.3-3.9,3.3-6.5c0-2.6-1.2-5-3.3-6.5l-33-24.2c-3.6-2.6-8.6-1.8-11.2,1.7
	c-2.6,3.6-1.8,8.6,1.7,11.2l24.2,17.8l-11.4,8.3v-8.4C273.1,335,269.6,331.4,265.1,331.4z M257.1,197.4V148c0-3,1.7-5.7,4.3-7.1
	c2.7-1.4,5.9-1.1,8.3,0.6l33.4,23.8c2.1,1.5,3.3,3.8,3.4,6.4c0,2.5-1.1,4.9-3.1,6.5L270,203.8c-1.4,1.1-3.1,1.7-4.9,1.7
	c-1.2,0-2.4-0.3-3.5-0.8C258.9,203.2,257.1,200.5,257.1,197.4z M273.1,181.2l12-9.2l-12-8.5V181.2z"></path>
<g>
	<path fill="#DB81DA" class="secondary-color" d="M480,189.2v77.3h-22.5v-77.3H480z"></path>
	<path fill="#FFA4ED" class="primary-color" d="M480,306.3v77.3h-22.5v-77.3H480z"></path>
	<path fill="#FFA4ED" class="primary-color" d="M156.9,490.3h-134v-43.6h134V490.3z"></path>
</g>
<path d="M221.4,138.6H164c-4.4,0-8-3.6-8-8s3.6-8,8-8h57.4c4.4,0,8,3.6,8,8S225.8,138.6,221.4,138.6z M234.1,162.6c0-4.4-3.6-8-8-8
	h-27.4c-4.4,0-8,3.6-8,8s3.6,8,8,8h27.4C230.5,170.6,234.1,167,234.1,162.6z M445.6,122.7h3.9v3.9c0,4.4,3.6,8,8,8s8-3.6,8-8v-3.9
	h3.9c4.4,0,8-3.6,8-8s-3.6-8-8-8h-3.9v-3.9c0-4.4-3.6-8-8-8s-8,3.6-8,8v3.9h-3.9c-4.4,0-8,3.6-8,8S441.2,122.7,445.6,122.7z
	 M72,315.3c0,4.4-3.6,8-8,8h-3.9v3.9c0,4.4-3.6,8-8,8s-8-3.6-8-8v-3.9h-3.9c-4.4,0-8-3.6-8-8s3.6-8,8-8h3.9v-3.9c0-4.4,3.6-8,8-8
	s8,3.6,8,8v3.9H64C68.4,307.3,72,310.9,72,315.3z M99.6,62.1L88.4,73.2l11.2,11.2c3.1,3.1,3.1,8.2,0,11.3C98,97.2,96,98,93.9,98
	s-4.1-0.8-5.7-2.3L77.1,84.5L66,95.7c-1.6,1.6-3.6,2.3-5.7,2.3c-2,0-4.1-0.8-5.7-2.3c-3.1-3.1-3.1-8.2,0-11.3l11.2-11.2L54.7,62.1
	c-3.1-3.1-3.1-8.2,0-11.3c3.1-3.1,8.2-3.1,11.3,0l11.2,11.2l11.2-11.2c3.1-3.1,8.2-3.1,11.3,0C102.7,53.9,102.7,58.9,99.6,62.1z
	 M501.1,465c0,4.4-3.6,8-8,8h-15.8v15.8c0,4.4-3.6,8-8,8s-8-3.6-8-8V473h-15.8c-4.4,0-8-3.6-8-8s3.6-8,8-8h15.8v-15.8
	c0-4.4,3.6-8,8-8s8,3.6,8,8V457h15.8C497.6,457,501.1,460.6,501.1,465z M394.9,247.2c-2.4-0.5-4.8-0.1-6.8,1.2
	c-2,1.3-3.4,3.3-3.9,5.7c-1.1,4.9,2,9.7,6.9,10.7c0.6,0.1,1.3,0.2,1.9,0.2c4.2,0,7.9-2.9,8.8-7.1c0.5-2.4,0.1-4.8-1.2-6.8
	C399.3,249.1,397.3,247.7,394.9,247.2z M369.6,32.9c-4.9-1.1-9.7,2-10.7,6.9c-1.1,4.9,2,9.7,6.9,10.7c0.6,0.1,1.3,0.2,1.9,0.2
	c4.2,0,7.9-2.9,8.8-7.1C377.6,38.8,374.5,33.9,369.6,32.9z"></path>
</svg>