<svg version="1.1" id="Layer_1" xmlns="http://www.w3.org/2000/svg" xmlns:xlink="http://www.w3.org/1999/xlink" x="0px" y="0px" viewBox="0 0 512 512" enable-background="new 0 0 512 512" xml:space="preserve">
<linearGradient id="SVGID_1_" gradientUnits="userSpaceOnUse" x1="312.7334" y1="475.5685" x2="312.7334" y2="67.5244" class="gradient-element">
	<stop offset="0" class="primary-color-gradient" style="stop-color: #FFA4ED"></stop>
	<stop offset="1" class="secondary-color-gradient" style="stop-color: #DB81DA"></stop>
</linearGradient>
<path fill="url(#SVGID_1_)" d="M403.6,109.3h29.3v339.5H192.5v-23.1c0-46.8,34.6-84.8,77.3-84.8h16.3c21.2,0,47.5-18.9,47.5-42.1
	V186.1C333.7,143.7,365,109.3,403.6,109.3z"></path>
<path d="M432.9,456.9H132.3c-26.3,0-47.7-23.9-47.7-53.4v-295c0-29.4,21.4-53.4,47.7-53.4h300.7c4.4,0,8,3.6,8,8s-3.6,8-8,8H132.3
	c-17.5,0-31.7,16.8-31.7,37.4v295c0,20.6,14.2,37.4,31.7,37.4h29V142h-23.3c-4.4,0-8-3.6-8-8s3.6-8,8-8h31.3c4.4,0,8,3.6,8,8v306.9
	h255.7c4.4,0,8,3.6,8,8S437.4,456.9,432.9,456.9z M432.9,428.2c-4.4,0-8-3.6-8-8V117.3h-287c-4.4,0-8-3.6-8-8s3.6-8,8-8h295
	c4.4,0,8,3.6,8,8v310.8C440.9,424.6,437.4,428.2,432.9,428.2z"></path>
<path d="M409.7,420.2c0-4.4,3.6-8,8-8h43c4.4,0,8,3.6,8,8s-3.6,8-8,8h-43C413.3,428.2,409.7,424.6,409.7,420.2z M485.5,476.3h-73.8
	c-4.4,0-8,3.6-8,8s3.6,8,8,8h73.8c4.4,0,8-3.6,8-8S489.9,476.3,485.5,476.3z M23.9,58.7h15.8v15.8c0,4.4,3.6,8,8,8s8-3.6,8-8V58.7
	h15.8c4.4,0,8-3.6,8-8s-3.6-8-8-8H55.7V26.9c0-4.4-3.6-8-8-8s-8,3.6-8,8v15.8H23.9c-4.4,0-8,3.6-8,8S19.5,58.7,23.9,58.7z
	 M142.8,482.5H28v-99.6c0-4.4-3.6-8-8-8s-8,3.6-8,8v107.6c0,4.4,3.6,8,8,8h122.8c4.4,0,8-3.6,8-8S147.2,482.5,142.8,482.5z"></path>
<path fill="#DB81DA" class="secondary-color" d="M18.8,260.9V127.7h43.6v133.3H18.8z"></path>
<path fill="#FFA4ED" class="primary-color" d="M18.8,339.9v-43.6h43.6v43.6H18.8z"></path>
</svg>