<svg version="1.1" id="Layer_1" xmlns="http://www.w3.org/2000/svg" xmlns:xlink="http://www.w3.org/1999/xlink" x="0px" y="0px" viewBox="0 0 512 512" enable-background="new 0 0 512 512" xml:space="preserve">
<path d="M188.5,335.3c0,4.4-3.6,8-8,8h-43c-4.4,0-8-3.6-8-8s3.6-8,8-8h43C184.9,327.3,188.5,330.9,188.5,335.3z M301,461.2h-73.8
	c-4.4,0-8,3.6-8,8s3.6,8,8,8H301c4.4,0,8-3.6,8-8S305.4,461.2,301,461.2z M476.7,385.2H461v-15.8c0-4.4-3.6-8-8-8s-8,3.6-8,8v15.8
	h-15.8c-4.4,0-8,3.6-8,8s3.6,8,8,8H445V417c0,4.4,3.6,8,8,8s8-3.6,8-8v-15.8h15.8c4.4,0,8-3.6,8-8S481.2,385.2,476.7,385.2z
	 M65.3,105.4h15.8c4.4,0,8-3.6,8-8s-3.6-8-8-8H65.3V73.6c0-4.4-3.6-8-8-8s-8,3.6-8,8v15.8H33.5c-4.4,0-8,3.6-8,8s3.6,8,8,8h15.8
	v15.8c0,4.4,3.6,8,8,8s8-3.6,8-8V105.4z M386.7,66.3c20.3,0,36.8-16.5,36.8-36.8c0-4.4-3.6-8-8-8s-8,3.6-8,8
	c0,11.4-9.3,20.8-20.8,20.8c-4.4,0-8,3.6-8,8S382.3,66.3,386.7,66.3z M465.5,66.3c4.4,0,8-3.6,8-8s-3.6-8-8-8
	c-11.4,0-20.8-9.3-20.8-20.8c0-4.4-3.6-8-8-8s-8,3.6-8,8C428.7,49.8,445.2,66.3,465.5,66.3z M436.7,116.3c4.4,0,8-3.6,8-8
	c0-11.4,9.3-20.8,20.8-20.8c4.4,0,8-3.6,8-8s-3.6-8-8-8c-20.3,0-36.8,16.5-36.8,36.8C428.7,112.7,432.3,116.3,436.7,116.3z
	 M386.7,71.6c-4.4,0-8,3.6-8,8s3.6,8,8,8c11.4,0,20.8,9.3,20.8,20.8c0,4.4,3.6,8,8,8s8-3.6,8-8C423.5,88.1,407,71.6,386.7,71.6z
	 M148.2,228.6c5.9,0,10.8-4.8,10.8-10.8s-4.8-10.8-10.8-10.8c-5.9,0-10.8,4.8-10.8,10.8S142.3,228.6,148.2,228.6z M178.4,306
	c0-4.4-3.6-8-8-8H72.3c-4.4,0-8,3.6-8,8s3.6,8,8,8h98.1C174.8,314,178.4,310.4,178.4,306z"></path>
<g>
	<path fill="#DB81DA" class="secondary-color" d="M57.3,369.4l57.8,57.8l-57.8,57.8V369.4z"></path>
	<path fill="#DB81DA" class="secondary-color" d="M182.9,80.4h-34.7V45.8h34.7V80.4z"></path>
	<path fill="#DB81DA" class="secondary-color" d="M238.1,80.4h-34.7V45.8h34.7V80.4z"></path>
	<path fill="#FFA4ED" class="primary-color" d="M293.4,80.4h-34.7V45.8h34.7V80.4z"></path>
</g>
<linearGradient id="SVGID_1_" gradientUnits="userSpaceOnUse" x1="315.5602" y1="400.7943" x2="304.1543" y2="78.5765" class="gradient-element">
	<stop offset="0" class="primary-color-gradient" style="stop-color: #FFA4ED"></stop>
	<stop offset="1" class="secondary-color-gradient" style="stop-color: #DB81DA"></stop>
</linearGradient>
<path fill="url(#SVGID_1_)" d="M409.9,160.8v209.5c0,16.6-18.8,26.2-32.2,16.4l-75.4-55c-7.1-5.2-16.8-5.2-23.9,0l-35.5,25.8
	c-13.4,9.8-32.2,0.2-32.2-16.4V131.3c0-11.2,9.1-20.3,20.3-20.3H360C377.3,111,409.9,121.4,409.9,160.8z"></path>
<path d="M417.9,475l-127.5-92.7L162.8,475V142.9h27.9c4.4,0,8,3.6,8,8s-3.6,8-8,8h-11.9v284.7l111.5-81l111.5,81V160.8
	c0-41.3-40.1-41.8-41.8-41.8H119v11.9c0,4.4-3.6,8-8,8s-8-3.6-8-8V103h257c4.7,0,21.3,0.8,36.1,11.7c9.9,7.2,21.7,21.1,21.7,46.2
	V475z"></path>
</svg>