<svg version="1.1" id="Layer_1" xmlns="http://www.w3.org/2000/svg" xmlns:xlink="http://www.w3.org/1999/xlink" x="0px" y="0px" viewBox="0 0 512 512" enable-background="new 0 0 512 512" xml:space="preserve">
<linearGradient id="SVGID_1_" gradientUnits="userSpaceOnUse" x1="354.5859" y1="375.0415" x2="354.5859" y2="194.1286" class="gradient-element">
	<stop offset="0" class="primary-color-gradient" style="stop-color: #FFA4ED"></stop>
	<stop offset="1" class="secondary-color-gradient" style="stop-color: #DB81DA"></stop>
</linearGradient>
<path fill="url(#SVGID_1_)" d="M442.5,359.7c0,0.5-174.2,78.6-174.2,78.6c-0.8,0.4-1.7-0.2-1.7-1.1V432c0-38.5,22.6-73.4,57.8-89.1
	l30-13.4c20.3-9.1,33.4-29.2,33.4-51.5v-58.2c0-31.9,19-60.8,48.3-73.4l1.2-0.5c0.8-0.3,4.7,0.1,4.7,0.1L442.5,359.7z"></path>
<path d="M239.7,480.2c0,4.4-3.6,8-8,8H66c-4.4,0-8-3.6-8-8s3.6-8,8-8h165.6C236.1,472.2,239.7,475.8,239.7,480.2z M487.7,50.2h-86.8
	c-4.4,0-8,3.6-8,8s3.6,8,8,8h86.8c4.4,0,8-3.6,8-8S492.2,50.2,487.7,50.2z M61.2,437.6c0,4.4,3.6,8,8,8h57.4c4.4,0,8-3.6,8-8
	s-3.6-8-8-8H69.2C64.8,429.6,61.2,433.2,61.2,437.6z M479.1,388.6h-15.8v-15.8c0-4.4-3.6-8-8-8s-8,3.6-8,8v15.8h-15.8
	c-4.4,0-8,3.6-8,8s3.6,8,8,8h15.8v15.8c0,4.4,3.6,8,8,8s8-3.6,8-8v-15.8h15.8c4.4,0,8-3.6,8-8S483.6,388.6,479.1,388.6z M63.4,80.4
	V64.6h15.8c4.4,0,8-3.6,8-8s-3.6-8-8-8H63.4V32.8c0-4.4-3.6-8-8-8s-8,3.6-8,8v15.8H31.6c-4.4,0-8,3.6-8,8s3.6,8,8,8h15.8v15.8
	c0,4.4,3.6,8,8,8S63.4,84.8,63.4,80.4z"></path>
<path fill="#FFA4ED" class="primary-color" d="M400.9,491.1v-21.8h86.7v21.8H400.9z"></path>
<path fill="#DB81DA" class="secondary-color" d="M325,491.1l56.9-56.9v56.9H325z"></path>
<path d="M439.9,131.8c-0.4-0.3-0.8-0.5-1.3-0.8c-1.3-0.8-2.7-1.4-4.2-2c-0.3-0.1-0.6-0.3-0.9-0.4l-57.1-19c0,0,0,0,0,0l-5.2-1.7
	l-96.6-32.2c-5.3-1.8-10.9-1.8-16.2,0L99.8,128.7c-0.4,0.1-0.7,0.3-1,0.4c-0.5,0.2-1,0.4-1.5,0.6c-1.4,0.6-2.7,1.3-3.9,2.2
	c0,0,0,0,0,0c-6.3,4.3-10.3,11.1-11,18.6c0,0.1,0,0.3,0,0.4c-0.1,0.7-0.1,1.4-0.1,2.2v194.1c0,10.1,6,19.3,15.2,23.4l158.8,70.6
	c3.3,1.5,6.8,2.2,10.4,2.2c2.8,0,5.6-0.5,8.5-1.6c0.6-0.1,1.1-0.3,1.7-0.5c0.1,0,0.2-0.1,0.2-0.1l158.8-70.6
	c9.2-4.1,15.2-13.3,15.2-23.4V153C451.1,144.5,446.9,136.6,439.9,131.8z M168.8,181.5l19.3,8.3v52.8l-19.3-7.8V181.5z M349.9,117.7
	l0.1,0l-154.1,58.1l-14-6l149.6-58.2L349.9,117.7z M266.7,206.1l-49.5-21.2l157-59.1l45.6,15.2L266.7,206.1z M263.6,90.9
	c2-0.7,4.1-0.7,6.1,0l38,12.7l-146.8,57.2l-46.7-20L263.6,90.9z M98.2,347.1V153c0-0.3,0-0.7,0.1-1c0-0.2,0-0.4,0.1-0.5
	c0,0,0-0.1,0-0.1l54.4,23.3v65.6c0,3.3,2,6.2,5,7.4l35.3,14.2c1,0.4,2,0.6,3,0.6c1.6,0,3.1-0.5,4.5-1.4c2.2-1.5,3.5-4,3.5-6.6v-57.8
	l54.6,23.4v204.7l-154.7-68.8C100.4,354.4,98.2,350.9,98.2,347.1z M435.1,347.1c0,3.8-2.3,7.3-5.7,8.8l-154.7,68.8V220L435,151.8
	c0,0.4,0.1,0.8,0.1,1.2V347.1z"></path>
</svg>