<svg version="1.1" id="Layer_1" xmlns="http://www.w3.org/2000/svg" xmlns:xlink="http://www.w3.org/1999/xlink" x="0px" y="0px" viewBox="0 0 512 512" enable-background="new 0 0 512 512" xml:space="preserve">
<path fill="#DB81DA" class="secondary-color" d="M197.9,30.1l-57.8,57.8L82.3,30.1H197.9z"></path>
<path d="M445.4,395.8c0,20.3-16.5,36.8-36.8,36.8c-4.4,0-8-3.6-8-8s3.6-8,8-8c11.4,0,20.8-9.3,20.8-20.8c0-4.4,3.6-8,8-8
	S445.4,391.4,445.4,395.8z M466.7,395.8c0-4.4-3.6-8-8-8s-8,3.6-8,8c0,20.3,16.5,36.8,36.8,36.8c4.4,0,8-3.6,8-8s-3.6-8-8-8
	C476,416.5,466.7,407.2,466.7,395.8z M487.4,437.8c-20.3,0-36.8,16.5-36.8,36.8c0,4.4,3.6,8,8,8s8-3.6,8-8
	c0-11.4,9.3-20.8,20.8-20.8c4.4,0,8-3.6,8-8S491.8,437.8,487.4,437.8z M408.7,437.8c-4.4,0-8,3.6-8,8s3.6,8,8,8
	c11.4,0,20.8,9.3,20.8,20.8c0,4.4,3.6,8,8,8s8-3.6,8-8C445.4,454.3,428.9,437.8,408.7,437.8z M433.6,121.9h43c4.4,0,8-3.6,8-8
	s-3.6-8-8-8h-43c-4.4,0-8,3.6-8,8S429.1,121.9,433.6,121.9z M476.8,228.1v43c0,4.4,3.6,8,8,8s8-3.6,8-8v-43c0-4.4-3.6-8-8-8
	S476.8,223.7,476.8,228.1z M36.5,126.1c4.4,0,8-3.6,8-8V44.3c0-4.4-3.6-8-8-8s-8,3.6-8,8v73.8C28.5,122.5,32.1,126.1,36.5,126.1z
	 M73.6,427.7H57.8v-15.8c0-4.4-3.6-8-8-8s-8,3.6-8,8v15.8H26.1c-4.4,0-8,3.6-8,8s3.6,8,8,8h15.8v15.8c0,4.4,3.6,8,8,8s8-3.6,8-8
	v-15.8h15.8c4.4,0,8-3.6,8-8S78,427.7,73.6,427.7z M448,51h3.9v3.9c0,4.4,3.6,8,8,8s8-3.6,8-8V51h3.9c4.4,0,8-3.6,8-8s-3.6-8-8-8
	h-3.9v-3.9c0-4.4-3.6-8-8-8s-8,3.6-8,8V35H448c-4.4,0-8,3.6-8,8S443.6,51,448,51z M55.7,253.2c5.9,0,10.8-4.8,10.8-10.8
	s-4.8-10.8-10.8-10.8s-10.8,4.8-10.8,10.8S49.7,253.2,55.7,253.2z M358.2,30.2c4.4,0,8-3.6,8-8s-3.6-8-8-8
	c-14.6,0-26.4,11.8-26.4,26.4S343.6,67,358.2,67c4.4,0,8-3.6,8-8s-3.6-8-8-8c-5.7,0-10.4-4.7-10.4-10.4S352.4,30.2,358.2,30.2z"></path>
<linearGradient id="SVGID_1_" gradientUnits="userSpaceOnUse" x1="305.0294" y1="417.4298" x2="305.0294" y2="115.6629" class="gradient-element">
	<stop offset="0" class="primary-color-gradient" style="stop-color: #FFA4ED"></stop>
	<stop offset="1" class="secondary-color-gradient" style="stop-color: #DB81DA"></stop>
</linearGradient>
<path fill="url(#SVGID_1_)" d="M262.3,368.6h2.9c1.9,0,3.5,1.6,3.5,3.5l0,0c0,15.3-6.2,29.2-16.2,39.2c-10,10-23.9,16.3-39.2,16.3
	c-15.2,0-28.9-6.1-38.9-16c-3.6-3.5-0.7-9.6,4.2-9.3c2.5,0.2,5,0.3,7.6,0.3c28.3,0,53.9-11.5,72.4-30
	C259.9,371.3,261.1,370,262.3,368.6z M413.8,268.5c14.2-9.9,23.4-26.3,23.4-44.9c0-30.2-24.5-54.7-54.7-54.7c-2.6,0-5.3,0.2-7.8,0.6
	c1.7-5.4,2.6-11.2,2.5-17.2c-0.5-29.8-25.3-54-55.2-53.8c-2.5,0-5.1,0.2-7.5,0.6c31.7,6.7,43.6,46.7,27.8,72.3
	c2.6-0.4,5.2-0.6,7.8-0.6c30.2,0,47.6,4,48.3,43.9c0.3,16-6.9,30.4-17.8,40.4c-2.8,2.5-3,6.8-0.6,9.6c8.2,9.6,13.1,22,13.1,35.5
	c0,40.7-19.6,44.1-44.4,43.6c-6.3-0.1-5.7,16.4-5.1,22.7c0.1,1.6,0.2,3.3,0.2,5c0,23.6-14.9,43.7-35.9,51.3c-3.9,1.4-4,6.9-0.1,8.4
	c6.8,2.7,14.3,4.1,22.1,3.8c27.9-1,50.8-23.3,52.5-51.2c0.4-7.1-0.5-13.9-2.5-20.2c28.9-1.4,51.9-25.3,51.9-54.6
	C432,293,425,278.5,413.8,268.5z"></path>
<path d="M442.1,227.6c2.5-16.8-1.7-33.5-11.7-47.1c-10.1-13.6-24.9-22.5-41.6-25c-0.5-0.1-1-0.1-1.5-0.2c0.1-0.4,0.1-0.8,0.1-1.2
	c0-35-28.5-63.5-63.5-63.5c-23.7,0-44.4,13-55.3,32.3c-10.9-19.3-31.6-32.3-55.3-32.3c-35,0-63.5,28.5-63.5,63.5
	c0,0.4,0,0.8,0.1,1.2c-0.5,0.1-1,0.1-1.5,0.2c-16.8,2.5-31.5,11.4-41.6,25s-14.2,30.4-11.7,47.1c2.3,15.3,9.9,28.9,21.6,38.9
	c-10.3,11.3-16.5,26.3-16.5,42.7c0,30.2,20.9,55.5,49.4,61.9c0,3.6,0,7.4,0,7.6c0.3,16.7,7.1,32.3,19,44
	c11.9,11.7,27.7,18.2,44.5,18.2c24,0,44.9-13.4,55.7-33c10.8,19.7,31.7,33,55.7,33c30.8,0,57-21.9,62.5-52.2
	c0.8-4.3-2.1-8.5-6.5-9.3c-4.3-0.8-8.5,2.1-9.3,6.5c-4.1,22.6-23.7,39-46.7,39c-26.2,0-47.5-21.3-47.5-47.5c0-0.9-0.1-1.7-0.4-2.5
	v-106c0-4.5,0-18.3,22.1-26.2c12.4-4.4,25.3-4.5,25.4-4.5c4.4,0,8-3.6,8-8c0-4.4-3.6-8-8-8c0,0,0,0,0,0c-0.6,0-15.4,0.1-30.4,5.3
	c-6.6,2.3-12.4,5.4-17.1,9v-80c0.3-0.8,0.4-1.6,0.4-2.5c0-1.5-0.1-3-0.2-4.5c2.3-24.1,22.6-43,47.2-43c26.2,0,47.5,21.3,47.5,47.5
	c0,0.4,0,0.8,0.1,1.2c-10.7,1.3-20.9,5.4-29.8,12c-3.6,2.6-4.3,7.6-1.7,11.2c2.6,3.6,7.6,4.3,11.2,1.7c10.2-7.5,22.7-10.7,35.2-8.8
	c12.5,1.9,23.6,8.5,31.1,18.7c7.5,10.2,10.7,22.7,8.8,35.2c-1.8,12.3-8.3,23.2-18.2,30.7c-9.9-6.5-21.8-10.2-34.5-10.2
	c-4.4,0-8,3.6-8,8s3.6,8,8,8c26.2,0,47.5,21.3,47.5,47.5c0,24.4-18.6,44.6-42.3,47.2c-1.5-13.1-12.7-23.3-26.2-23.3
	c-4.4,0-8,3.6-8,8s3.6,8,8,8c5.7,0,10.4,4.7,10.4,10.4s-4.7,10.4-10.4,10.4c-4.4,0-8,3.6-8,8s3.6,8,8,8c9.8,0,18.3-5.3,22.9-13.2
	c34.2-0.9,61.7-29,61.7-63.4c0-16.4-6.3-31.4-16.5-42.7C432.2,256.6,439.8,242.9,442.1,227.6z M212.9,424.9
	c-25.7,0-47-20.9-47.5-46.5c0-0.3,0-2.9,0-5.8c7.3,0,20.6,0,20.7,0c4.4,0,8-3.6,8-8s-3.6-8-8-8c-1.9,0-23,0-24.7,0
	c-25.4-1.1-45.4-21.9-45.4-47.4c0-26.2,21.3-47.5,47.5-47.5c4.4,0,8-3.6,8-8s-3.6-8-8-8c-12.7,0-24.6,3.8-34.5,10.2
	c-20.5-15.7-24.8-45.1-9.4-65.9c13.8-18.7,39-24.3,59.1-14.3c-8.2,10.7-13,24-13,38.5c0,4.4,3.6,8,8,8c4.4,0,8-3.6,8-8
	c0-26.2,21.3-47.5,47.5-47.5c4.4,0,8-3.6,8-8s-3.6-8-8-8c-14.5,0-27.9,4.9-38.7,13.2c-7.7-4.6-16.1-7.5-24.8-8.6
	c0.1-0.4,0.1-0.8,0.1-1.2c0-26.2,21.3-47.5,47.5-47.5c24.7,0,45,18.9,47.2,43c-0.1,1.3-0.2,2.6-0.2,3.9c0,0.1,0,0.2,0,0.3v174.1
	c-5.9-1.8-13.5-6.8-18.6-21.1c-4.4-12.4-4.5-25.3-4.5-25.4c0-4.4-3.6-8-8-8c0,0,0,0,0,0c-4.4,0-8,3.6-8,8c0,0.6,0.1,15.4,5.3,30.4
	c6.5,18.4,18.3,29.7,33.8,32.4v33.1c0,0,0,0.1,0,0.1C260.4,403.6,239.1,424.9,212.9,424.9z"></path>
</svg>