<svg version="1.1" id="Layer_1" xmlns="http://www.w3.org/2000/svg" xmlns:xlink="http://www.w3.org/1999/xlink" x="0px" y="0px" viewBox="0 0 512 512" enable-background="new 0 0 512 512" xml:space="preserve">
<g>
	<path fill="#DB81DA" class="secondary-color" d="M24.5,332.7h57.8L24.5,448.3V332.7z"></path>
	<path fill="#DB81DA" class="secondary-color" d="M448.4,135.4h21.8v56.9h-21.8V135.4z"></path>
	<path fill="#DB81DA" class="secondary-color" d="M395.1,58.5v21.8h-56.9V58.5H395.1z"></path>
	<path fill="#DB81DA" class="secondary-color" d="M470.2,58.5v1.8v20v36.9h-21.8V80.3h-35.1V58.5H470.2z"></path>
</g>
<path d="M135.4,474.7c0,5.9-4.8,10.8-10.8,10.8c-5.9,0-10.8-4.8-10.8-10.8c0-5.9,4.8-10.8,10.8-10.8
	C130.6,464,135.4,468.8,135.4,474.7z M464.8,353.2H449v-15.8c0-4.4-3.6-8-8-8s-8,3.6-8,8v15.8h-15.8c-4.4,0-8,3.6-8,8s3.6,8,8,8H433
	V385c0,4.4,3.6,8,8,8s8-3.6,8-8v-15.8h15.8c4.4,0,8-3.6,8-8S469.2,353.2,464.8,353.2z M428,285.3c4.4,0,8-3.6,8-8
	c0-5.7,4.7-10.4,10.4-10.4s10.4,4.7,10.4,10.4c0,4.4,3.6,8,8,8s8-3.6,8-8c0-14.6-11.8-26.4-26.4-26.4S420,262.8,420,277.3
	C420,281.7,423.6,285.3,428,285.3z M107.8,257.5c0-4.4-3.6-8-8-8H32c-4.4,0-8,3.6-8,8s3.6,8,8,8h67.8
	C104.2,265.5,107.8,261.9,107.8,257.5z M119,127c1.6,1.6,3.6,2.3,5.7,2.3s4.1-0.8,5.7-2.3c3.1-3.1,3.1-8.2,0-11.3L82.4,67.8
	c-3.1-3.1-8.2-3.1-11.3,0c-3.1,3.1-3.1,8.2,0,11.3L119,127z M254.3,7.8c-4.4,0-8,3.6-8,8v57.8c0,4.4,3.6,8,8,8c4.4,0,8-3.6,8-8V15.8
	C262.3,11.4,258.7,7.8,254.3,7.8z M179.6,59c-2.4-0.5-4.8-0.1-6.8,1.2c-2,1.3-3.4,3.3-3.9,5.7c-0.5,2.4-0.1,4.8,1.2,6.8
	c1.3,2,3.3,3.4,5.7,3.9c0.6,0.1,1.3,0.2,1.9,0.2c4.2,0,7.9-2.9,8.8-7.1c0.5-2.4,0.1-4.8-1.2-6.8C184,60.9,182,59.5,179.6,59z
	 M101.2,170.4c-4.9-1.1-9.7,2-10.7,6.9c-1.1,4.9,2,9.7,6.9,10.7c0.6,0.1,1.3,0.2,1.9,0.2c1.7,0,3.4-0.5,4.9-1.4
	c2-1.3,3.4-3.3,3.9-5.7c0.5-2.4,0.1-4.8-1.2-6.8C105.6,172.3,103.6,170.9,101.2,170.4z M133.2,370.1l-29.5,29.5
	c-3.1,3.1-3.1,8.2,0,11.3c1.6,1.6,3.6,2.3,5.7,2.3s4.1-0.8,5.7-2.3l29.5-29.5c3.1-3.1,3.1-8.2,0-11.3
	C141.4,367,136.4,367,133.2,370.1z"></path>
<g>
	<linearGradient id="SVGID_1_" gradientUnits="userSpaceOnUse" x1="315.145" y1="496.579" x2="315.145" y2="365.6493" class="gradient-element">
		<stop offset="0" class="primary-color-gradient" style="stop-color: #FFA4ED"></stop>
		<stop offset="1" class="secondary-color-gradient" style="stop-color: #DB81DA"></stop>
	</linearGradient>
	<path fill="url(#SVGID_1_)" d="M253.2,415.2c0,12.9,8.1-4.7,8.1-4.7l-0.3-23.3l47-21.2l20.9-9.4v29.2c4.8,3,10.5,6,17.3,8.9
		c47.4,20.7,76.6,34.5,81.8,93h-149v0l-15.4,8.2c0,0-30.2,11.7-52.5-37.8c-5.4-11.9-8.7-26.3-8.7-42.8H253.2z"></path>
	<linearGradient id="SVGID_2_" gradientUnits="userSpaceOnUse" x1="350.0052" y1="270.8881" x2="265.1001" y2="270.8881">
		<stop offset="0" class="primary-color-gradient" style="stop-color: #FFA4ED"></stop>
		<stop offset="1" class="secondary-color-gradient" style="stop-color: #DB81DA"></stop>
	</linearGradient>
	<path fill="url(#SVGID_2_)" d="M344.6,283c-6.5,54.7-54,74.2-74.5,80.1c9.3-0.1,18.3-1.6,24.9-5.4c22-12.9,0,15.9,0,15.9
		l-30.2,12.1V181.4c0-15.2,13.2-26.9,28.3-25.1c23.6,2.8,51.5,6.6,51.5,6.6S352.9,213,344.6,283z"></path>
</g>
<path d="M442.1,495c0-4.4-0.4-20-7.4-38.1c-7.5-19.5-24.4-45.9-62-61.1c-14.3-5.8-26.4-11.6-35.8-17.3v-21.9c0-2.7-1.4-5.2-3.7-6.7
	c-2.3-1.5-5.2-1.7-7.6-0.6l-3.2,1.4c2.2-1.8,4.3-3.8,6.4-5.9c14.2-14.3,22.3-31.5,26.6-43.3c2.9-8,4.4-16.4,4.4-25V154.3
	c0-2.6-1.3-5.1-3.5-6.6c-2.2-1.5-4.9-1.8-7.4-0.9c-15.1,5.8-30,2.1-45.7-1.9c-13.7-3.4-27.9-7-43.1-4.5c-4.4,0.7-7.3,4.8-6.6,9.2
	c0.7,4.4,4.8,7.3,9.2,6.6c11.9-1.9,23.9,1.1,36.6,4.2c14.2,3.6,28.9,7.2,44.5,4.3v111.6c0,6.7-1.1,13.3-3.4,19.5
	c-8,22.1-28.5,59.1-75.5,59.1H210c-2.2-26.1-15.1-41.4-28.8-57.4l-0.1-0.2c-4.6-5.4-9.3-11-13.6-17c-13.1-18.3-20-39.8-20-62.3
	c0-59.1,48.1-107.2,107.2-107.2c0,0,0,0,0.1,0c5.6,0.1,15.6,0.5,19.3,1c9,1.3,17.2,3.7,25.2,5.9c11.3,3.2,22.8,6.5,35.6,6.5
	c9,0,18.7-1.6,29.3-6.1c4.1-1.7,6-6.4,4.3-10.5c-1.7-4.1-6.4-6-10.5-4.3c-20.6,8.6-35.5,4.3-54.5-1c-8.5-2.4-17.2-4.9-27.2-6.4
	c-5.7-0.9-18.5-1.2-21.6-1.2c0,0-0.1,0-0.1,0c-67.9,0-123.2,55.3-123.2,123.2c0,25.8,7.9,50.6,23,71.6c4.7,6.6,9.6,12.4,14.5,18
	l0.1,0.2c13.9,16.3,24.8,29.2,25.3,53.4c-0.1,0.5-0.2,1.1-0.2,1.6c0,0.6,0.1,1.2,0.2,1.7v50.5c0,17,2.4,27.6,6.7,41.1
	c10.3,32.1,37.5,47,58.9,47.5c0.4,0,0.7,0.1,1.1,0.1h173.1c4.5,0,8.1-3.6,8.1-8.1C442.1,495.5,442.1,495.2,442.1,495z M419.5,462
	c4,10.2,5.6,19.6,6.2,25.8H286.9c0-1-0.1-1.9-0.5-2.9l-10.2-27.7l18.7-17.5c2.7-2.5,3.3-6.6,1.5-9.8l-6.7-11.7l42.4-19.1
	c1.4-0.6,2.6-1.7,3.4-2.9c8.9,4.8,19.3,9.7,31.2,14.5C392.4,420.9,410.2,438.2,419.5,462z M261.4,449.1l-3.6,3.4h-41.2
	c-0.1-0.4-0.3-0.7-0.4-1.1c-3.3-10.4-5.2-18.1-5.8-28.9h43.8c1.2,0,2.3-0.3,3.4-0.8c1,0.5,2.2,0.8,3.4,0.8h12.9l5.6,9.8L261.4,449.1
	C261.5,449.1,261.4,449.1,261.4,449.1z M276.8,406.5H269v-14.1l51.9-23.4v17.7L276.8,406.5z M257.7,379.9c-2.9,1.3-4.7,4.1-4.7,7.3
	v19.3h-42.7V371h54.4c5.2,0,10.2-0.4,15.1-1.1L257.7,379.9z M225.2,468.5H261c0,0,0,0,0.1,0c0.1,0,0.1,0,0.2,0c0.3,0,0.6,0,0.8-0.1
	c0.1,0,0.2,0,0.2,0c0.3-0.1,0.6-0.1,0.9-0.2c0,0,0,0,0,0l7.2,19.6H261c-0.3,0-0.5,0-0.8,0C248.5,487.5,234.8,481,225.2,468.5z"></path>
</svg>