<svg version="1.1" id="Layer_1" xmlns="http://www.w3.org/2000/svg" xmlns:xlink="http://www.w3.org/1999/xlink" x="0px" y="0px" viewBox="0 0 512 512" enable-background="new 0 0 512 512" xml:space="preserve">
<linearGradient id="SVGID_1_" gradientUnits="userSpaceOnUse" x1="32.4961" y1="279.4875" x2="474.0861" y2="279.4875" class="gradient-element">
	<stop offset="0" class="primary-color-gradient" style="stop-color: #FFA4ED"></stop>
	<stop offset="1" class="secondary-color-gradient" style="stop-color: #DB81DA"></stop>
</linearGradient>
<path fill="url(#SVGID_1_)" d="M474.1,149.9v248.4c0,18.4-14.9,33.3-33.3,33.3H258.1H80.5c-13.3,0-25.3-5.4-33.9-14.1
	c-8.6-8.6-14-20.4-14.1-33.5c-0.2-26.6,22.2-48.4,48.8-48.4h105.9c5.9,12.5,19.3,22.7,36.8,28.5V387h28v-18.1c1.3,0,2.7,0.1,4,0.1
	c3.7,0,7.4-0.2,11-0.6V389h19v-24.3c18.4-5.6,32.7-16.2,38.8-29.1h22.6c28.8,0,52.1-23.3,52.1-52.1V171.7
	c0-28.8,23.3-44.3,52.1-44.3h0C464,127.4,474.1,137.5,474.1,149.9z"></path>
<g>
	<path fill="#DB81DA" class="secondary-color" d="M305.9,493.6v-27.2h168.9v27.2H305.9z"></path>
	<path fill="#FFA4ED" class="primary-color" d="M26.2,41.6V14.4h168.9v27.2H26.2z"></path>
</g>
<path fill="#000000" d="M510,204.7c0,4.4-3.6,8-8,8h-43c-4.4,0-8-3.6-8-8s3.6-8,8-8h43C506.4,196.7,510,200.3,510,204.7z M493,226.7
	h-73.8c-4.4,0-8,3.6-8,8s3.6,8,8,8H493c4.4,0,8-3.6,8-8S497.5,226.7,493,226.7z M71.1,462.5H55.3v-15.8c0-4.4-3.6-8-8-8s-8,3.6-8,8
	v15.8H23.5c-4.4,0-8,3.6-8,8s3.6,8,8,8h15.8v15.8c0,4.4,3.6,8,8,8s8-3.6,8-8v-15.8h15.8c4.4,0,8-3.6,8-8S75.5,462.5,71.1,462.5z
	 M454.3,72.3c4.4,0,8-3.6,8-8V16.8c0-4.4-3.6-8-8-8s-8,3.6-8,8v47.6C446.3,68.7,449.9,72.3,454.3,72.3z M419.3,96.3c4.4,0,8-3.6,8-8
	V40.8c0-4.4-3.6-8-8-8s-8,3.6-8,8v47.6C411.3,92.7,414.9,96.3,419.3,96.3z M252.4,470.2c-5.9,0-10.8,4.8-10.8,10.8
	s4.8,10.8,10.8,10.8s10.8-4.8,10.8-10.8S258.3,470.2,252.4,470.2z M205.4,470.2c-5.9,0-10.8,4.8-10.8,10.8s4.8,10.8,10.8,10.8
	s10.8-4.8,10.8-10.8S211.4,470.2,205.4,470.2z"></path>
<path d="M149.3,118.5h15.5c0.7-21.9,4.2-34.8,11.8-43.5c10.2-11.7,26.6-13.3,42.8-13.3h70.1c32.2,0,54.7,22.5,54.7,54.7v23.4
	c0,4.4-3.6,8-8,8s-8-3.6-8-8v-23.4c0-23.5-15.2-38.7-38.7-38.7h-70.1c-17,0-26,2.3-30.8,7.8c-5.5,6.3-7.9,18.9-7.9,40.9
	c0,4.4-3.6,8-8,8h-23.4c-4.4,0-8-3.6-8-8S144.9,118.5,149.3,118.5z M476.4,227.8c-4.4,0-8,3.6-8,8v159.3c0,14.9-12.1,27-27,27H67.5
	c-14.9,0-27-12.1-27-27V161.6c0-14.9,12.1-27,27-27h58.4c4.4,0,8-3.6,8-8v-15.4h15.4c4.4,0,8-3.6,8-8s-3.6-8-8-8h-23.4
	c-4.4,0-8,3.6-8,8v15.4H67.5c-23.7,0-43,19.3-43,43v233.6c0,23.7,19.3,43,43,43h373.8c23.7,0,43-19.3,43-43V235.8
	C484.4,231.4,480.8,227.8,476.4,227.8z M441.3,118.5h-50.4v-15.4c0-4.4-3.6-8-8-8h-23.4c-4.4,0-8,3.6-8,8s3.6,8,8,8h15.4v15.4
	c0,4.4,3.6,8,8,8h58.4c14.9,0,27,12.1,27,27v43.1c0,4.4,3.6,8,8,8s8-3.6,8-8v-43.1C484.4,137.8,465.1,118.5,441.3,118.5z
	 M304.4,134.5c4.4,0,8-3.6,8-8s-3.6-8-8-8H196c-4.4,0-8,3.6-8,8s3.6,8,8,8H304.4z M271.6,394.6h13.2c4.4,0,8-3.6,8-8v-14.1
	c31-11.6,42.2-37.5,42.2-57c0-19.2-7.3-34.7-21.8-46.2c-11.4-9-27-15.8-52.4-23c-35.5-10-35.5-19-35.5-22.4c0-11.1,14.9-15,27.7-15
	c17.7,0,32.1,9.6,32.1,21.5v4.3c0,4.4,3.6,8,8,8h25.4c4.4,0,8-3.6,8-8c0-0.7-0.1-1.5-0.3-2.1c0.2-0.7,0.3-1.4,0.3-2.1
	c0-21.9-12.8-41.9-33.8-53.2v-18.6c0-4.4-3.6-8-8-8h-25.4c-4.4,0-8,3.6-8,8v8.9c-1,0-1.8,0-2.6,0c-4.4,0.1-7.9,3.7-7.8,8.2
	c0.1,4.4,3.8,7.9,8.2,7.8c2.6-0.1,7.3,0,9.7,0.2c2.2,0.2,4.4-0.6,6-2.1c1.6-1.5,2.6-3.6,2.6-5.9v-9.1h9.4v15.5c0,3.1,1.8,6,4.7,7.3
	c16.9,7.7,27.5,21.4,28.9,37.3h-9.5c-2.3-19.2-22.5-33.8-47.8-33.8c-26.2,0-43.7,12.5-43.7,31c0,12.1,5.6,26,47.2,37.8
	c23.2,6.5,37.2,12.6,46.8,20.1c10.7,8.5,15.7,19.1,15.7,33.6c0,15.1-9.5,35.6-36.5,43.6c-3.4,1-5.7,4.1-5.7,7.7v11.8h-5.2
	c-4.4,0-8,3.6-8,8S267.2,394.6,271.6,394.6z M225.6,394.6h25.4c4.4,0,8-3.6,8-8v-8.2c0.9,0,1.8,0,2.5,0c4.4-0.1,8-3.7,7.9-8.1
	c-0.1-4.4-3.6-7.9-8-7.9c0,0-0.1,0-0.1,0c-2.7,0-7.3,0-9.8-0.2c-2.2-0.1-4.4,0.6-6,2.1c-1.6,1.5-2.5,3.6-2.5,5.8v8.4h-9.4v-13.8
	c0-3.4-2.1-6.4-5.2-7.5c-10.5-3.8-19.5-9.7-26-16.8c-6.2-6.7-9.8-14.2-10.7-22h9.5c1.4,9,7.9,17.7,18.3,24.1
	c10.7,6.6,24.6,10.4,38.2,10.4c35.8,0,51.9-18.8,51.9-37.5l0-0.8c0-18.8-4.7-29-47.9-41.6c-4.2-1.2-8.7,1.2-9.9,5.4
	c-1.2,4.2,1.2,8.7,5.4,9.9c17.9,5.2,28.9,10,33.5,14.7c2.8,2.8,2.9,5.2,2.9,11.6l0,0.8c0,10.7-11.1,21.5-35.9,21.5
	c-22,0-40.8-12.2-40.8-22.2v-4.3c0-4.4-3.6-8-8-8h-25.4c-4.4,0-8,3.6-8,8c0,0.7,0.1,1.5,0.3,2.1c-0.2,0.7-0.3,1.4-0.3,2.1
	c0,13.1,5.2,25.7,15.1,36.5c7.1,7.8,16.4,14.2,27.1,18.9v16.4C217.6,391,221.2,394.6,225.6,394.6z M207.4,267.8
	c3.2,2.3,6.8,4.5,10.7,6.6c1.2,0.6,2.4,0.9,3.7,0.9c2.9,0,5.7-1.6,7.1-4.3c2-3.9,0.5-8.7-3.4-10.8c-3.3-1.7-6.2-3.5-8.8-5.4
	c-11.4-8.2-16.9-18.3-16.9-30.9c0-16.7,10.4-30,28.4-36.4c3.2-1.1,5.3-4.2,5.3-7.5v-13.4h5.2c4.4,0,8-3.6,8-8s-3.6-8-8-8h-13.2
	c-4.4,0-8,3.6-8,8v16c-21.2,9.5-33.8,27.6-33.8,49.4C183.9,241.5,192,256.7,207.4,267.8z"></path>
</svg>