<svg version="1.1" id="Layer_1" xmlns="http://www.w3.org/2000/svg" xmlns:xlink="http://www.w3.org/1999/xlink" x="0px" y="0px" viewBox="0 0 512 512" enable-background="new 0 0 512 512" xml:space="preserve">
<linearGradient id="SVGID_1_" gradientUnits="userSpaceOnUse" x1="38.2625" y1="280.0736" x2="479.8525" y2="280.0736" class="gradient-element">
	<stop offset="0" class="primary-color-gradient" style="stop-color: #FFA4ED"></stop>
	<stop offset="1" class="secondary-color-gradient" style="stop-color: #DB81DA"></stop>
</linearGradient>
<path fill="url(#SVGID_1_)" d="M263.9,432.2H86.3c-13.3,0-25.3-5.4-33.9-14.1c-8.6-8.6-14-20.4-14.1-33.5
	c-0.2-26.6,22.2-48.4,48.8-48.4h266c28.8,0,52.1-23.3,52.1-52.1V172.3c0-28.8,23.3-44.3,52.1-44.3h0c12.4,0,22.5,10.1,22.5,22.5
	v248.4c0,18.4-14.9,33.3-33.3,33.3H263.9z M263.9,432.2"></path>
<path d="M490.1,236.4v159.3c0,23.7-19.3,43-43,43H73.3c-23.7,0-43-19.3-43-43V162.1c0-23.7,19.3-43,43-43h50.4v-15.4
	c0-4.4,3.6-8,8-8h23.4c4.4,0,8,3.6,8,8s-3.6,8-8,8h-15.4v15.4c0,4.4-3.6,8-8,8H73.3c-14.9,0-27,12.1-27,27v233.6
	c0,14.9,12.1,27,27,27h373.8c14.9,0,27-12.1,27-27V236.4c0-4.4,3.6-8,8-8S490.1,232,490.1,236.4z M147.1,127.1c0,4.4,3.6,8,8,8h23.4
	c4.4,0,8-3.6,8-8c0-22,2.4-34.6,7.9-40.9c4.8-5.5,13.8-7.8,30.8-7.8h70.1c23.5,0,38.7,15.2,38.7,38.7v23.4c0,4.4,3.6,8,8,8
	s8-3.6,8-8v-23.4c0-32.2-22.5-54.7-54.7-54.7h-70.1c-16.2,0-32.6,1.6-42.8,13.3c-7.6,8.7-11.1,21.5-11.8,43.5h-15.5
	C150.7,119.1,147.1,122.7,147.1,127.1z M447.1,119.1h-50.4v-15.4c0-4.4-3.6-8-8-8h-23.4c-4.4,0-8,3.6-8,8s3.6,8,8,8h15.4v15.4
	c0,4.4,3.6,8,8,8h58.4c14.9,0,27,12.1,27,27v43.1c0,4.4,3.6,8,8,8s8-3.6,8-8v-43.1C490.1,138.4,470.8,119.1,447.1,119.1z
	 M201.8,119.1c-4.4,0-8,3.6-8,8s3.6,8,8,8h108.3c4.4,0,8-3.6,8-8s-3.6-8-8-8H201.8z"></path>
<g>
	<path fill="#DB81DA" class="secondary-color" d="M480.5,100.1l-60.9-60.9h60.9V100.1z"></path>
	<path fill="#FFA4ED" class="primary-color" d="M92.8,48.1V26.3h56.9v21.8H92.8z M74.6,26.3H37.7h-20h-1.8v56.9h21.8V48.1h36.9V26.3z"></path>
</g>
<path d="M500.8,235.3c0,4.4-3.6,8-8,8H419c-4.4,0-8-3.6-8-8s3.6-8,8-8h73.8C497.2,227.3,500.8,230.9,500.8,235.3z M182.7,306.5h-43
	c-4.4,0-8,3.6-8,8s3.6,8,8,8h43c4.4,0,8-3.6,8-8S187.1,306.5,182.7,306.5z M161.2,336.5H87.4c-4.4,0-8,3.6-8,8s3.6,8,8,8h73.8
	c4.4,0,8-3.6,8-8S165.7,336.5,161.2,336.5z M471.9,441.8h-15.8V426c0-4.4-3.6-8-8-8s-8,3.6-8,8v15.8h-15.8c-4.4,0-8,3.6-8,8
	s3.6,8,8,8h15.8v15.8c0,4.4,3.6,8,8,8s8-3.6,8-8v-15.8h15.8c4.4,0,8-3.6,8-8S476.3,441.8,471.9,441.8z M61.6,398.2c-4.4,0-8,3.6-8,8
	c0,11.4-9.3,20.8-20.8,20.8c-4.4,0-8,3.6-8,8s3.6,8,8,8c20.3,0,36.8-16.5,36.8-36.8C69.6,401.7,66,398.2,61.6,398.2z M111.6,426.9
	c-11.4,0-20.8-9.3-20.8-20.8c0-4.4-3.6-8-8-8s-8,3.6-8,8c0,20.3,16.5,36.8,36.8,36.8c4.4,0,8-3.6,8-8S116,426.9,111.6,426.9z
	 M111.6,448.2c-20.3,0-36.8,16.5-36.8,36.8c0,4.4,3.6,8,8,8s8-3.6,8-8c0-11.4,9.3-20.8,20.8-20.8c4.4,0,8-3.6,8-8
	S116,448.2,111.6,448.2z M32.8,448.2c-4.4,0-8,3.6-8,8s3.6,8,8,8c11.4,0,20.8,9.3,20.8,20.8c0,4.4,3.6,8,8,8s8-3.6,8-8
	C69.6,464.6,53.1,448.2,32.8,448.2z M435.4,312c-4.4,0-8,3.6-8,8v3.9h-3.9c-4.4,0-8,3.6-8,8s3.6,8,8,8h3.9v3.9c0,4.4,3.6,8,8,8
	s8-3.6,8-8v-3.9h3.9c4.4,0,8-3.6,8-8s-3.6-8-8-8h-3.9V320C443.4,315.5,439.8,312,435.4,312z"></path>
</svg>