<svg version="1.1" id="Layer_1" xmlns="http://www.w3.org/2000/svg" xmlns:xlink="http://www.w3.org/1999/xlink" x="0px" y="0px" viewBox="0 0 512 512" enable-background="new 0 0 512 512" xml:space="preserve">
<linearGradient id="SVGID_1_" gradientUnits="userSpaceOnUse" x1="353.4656" y1="454.3372" x2="353.4656" y2="113.3788" class="gradient-element">
	<stop offset="0" class="primary-color-gradient" style="stop-color: #FFA4ED"></stop>
	<stop offset="1" class="secondary-color-gradient" style="stop-color: #DB81DA"></stop>
</linearGradient>
<path fill="url(#SVGID_1_)" d="M471.3,209.9c0,28.6-11.4,56.2-31.9,76.8l-183,183l0,0c-27.6-27.6-27.6-72.5,0-100.1l117.9-117.9
	c20.6-20.6,31.9-48.2,31.9-76.8c0-5.8-0.3-11.4-1.5-16.6c-2-13.6-6.6-26.5-13.3-37.9c-4-6.8,2.8-14.8,10.1-12
	c14.3,5.5,27.1,14,37.8,24.7c16,16,27,36.9,30.4,60.2C471,198.5,471.3,204.1,471.3,209.9z"></path>
<path d="M47.1,97.8c22.1-22.1,51.4-34.3,82.4-34.3c4.4,0,8,3.6,8,8s-3.6,8-8,8c-26.8,0-52,10.5-71.1,29.6l-10,10
	c-1.6,1.6-3.6,2.3-5.7,2.3c-2,0-4.1-0.8-5.7-2.3c-3.1-3.1-3.1-8.2,0-11.3L47.1,97.8z M192.7,379.5H27.1c-4.4,0-8,3.6-8,8s3.6,8,8,8
	h165.6c4.4,0,8-3.6,8-8S197.1,379.5,192.7,379.5z M89.3,350.2c0,4.4,3.6,8,8,8H176c4.4,0,8-3.6,8-8s-3.6-8-8-8H97.3
	C92.9,342.2,89.3,345.8,89.3,350.2z M323.8,76.4h-86.8c-4.4,0-8,3.6-8,8s3.6,8,8,8h86.8c4.4,0,8-3.6,8-8S328.2,76.4,323.8,76.4z
	 M126.6,429.8H69.2c-4.4,0-8,3.6-8,8s3.6,8,8,8h57.4c4.4,0,8-3.6,8-8S131,429.8,126.6,429.8z M37.4,56.9v15.8c0,4.4,3.6,8,8,8
	s8-3.6,8-8V56.9h15.8c4.4,0,8-3.6,8-8s-3.6-8-8-8H53.4V25.1c0-4.4-3.6-8-8-8s-8,3.6-8,8v15.8H21.6c-4.4,0-8,3.6-8,8s3.6,8,8,8H37.4z
	 M462.2,437.9h-15.8v-15.8c0-4.4-3.6-8-8-8s-8,3.6-8,8v15.8h-15.8c-4.4,0-8,3.6-8,8s3.6,8,8,8h15.8v15.8c0,4.4,3.6,8,8,8s8-3.6,8-8
	v-15.8h15.8c4.4,0,8-3.6,8-8S466.6,437.9,462.2,437.9z"></path>
<g>
	<path fill="#FFA4ED" class="primary-color" d="M303.9,49.3V27.5h86.7v21.8H303.9z"></path>
	<path fill="#DB81DA" class="secondary-color" d="M488,28v56.9L431.1,28H488z"></path>
</g>
<path d="M479.3,209.9c0,31-12.2,60.3-34.3,82.4l-183,183c-0.1,0.1-0.2,0.2-0.4,0.3c-0.8,0.8-1.7,1.4-2.8,1.8
	c-0.9,0.4-1.9,0.5-2.9,0.5c-3,0-5.8-1.7-7.2-4.6l-78.3-78.3c-3.1-3.1-3.1-8.2,0-11.3c3.1-3.1,8.2-3.1,11.3,0l52.8,52.8l-11-28.7
	c-1.1-3-0.4-6.3,1.8-8.5l51.3-51.3l-54.8-54.8c-1.5-1.5-2.4-3.6-2.3-5.8c0-2.2,1-4.2,2.6-5.7l74.3-68.8l-45.6-44.5l-29.5-29.5
	c-19.1-19.1-44.3-29.6-71.1-29.6s-52,10.5-71.1,29.6c-15.4,15.4-25.1,34.6-28.1,55.7c0,0.2-0.1,0.5-0.1,0.7
	c-1.2,5-1.3,10.5-1.3,14.7c0,26.8,10.5,52,29.6,71.1l62.1,62.1c3.1,3.1,3.1,8.2,0,11.3c-3.1,3.1-8.2,3.1-11.3,0l-62.1-62.1
	c-22.1-22.1-34.3-51.4-34.3-82.4c0-5,0.2-11.6,1.7-18.1c3.6-24.4,14.9-46.6,32.6-64.4c22.1-22.1,51.4-34.3,82.4-34.3
	c31,0,60.3,12.2,82.4,34.3l29.5,29.5l51.6,50.3c1.6,1.5,2.4,3.6,2.4,5.8c0,2.2-1,4.3-2.6,5.8L239,287.7l54.6,54.6
	c3.1,3.1,3.1,8.2,0,11.3L240.3,407l18.7,48.7L433.7,281c19.1-19.1,29.6-44.3,29.6-71.1c0-4.3-0.1-9.8-1.3-14.7
	c-0.1-0.2-0.1-0.5-0.1-0.7c-3.1-21.1-12.8-40.3-28.1-55.7c-19.1-19.1-44.3-29.6-71.1-29.6s-52,10.5-71.1,29.6l-10,10
	c-3.1,3.1-8.2,3.1-11.3,0c-3.1-3.1-3.1-8.2,0-11.3l10-10c22.1-22.1,51.4-34.3,82.4-34.3c31,0,60.3,12.2,82.4,34.3
	c17.7,17.7,29,40,32.6,64.4C479.1,198.3,479.3,204.8,479.3,209.9z"></path>
</svg>