<svg version="1.1" id="Layer_1" xmlns="http://www.w3.org/2000/svg" xmlns:xlink="http://www.w3.org/1999/xlink" x="0px" y="0px" viewBox="0 0 512 512" enable-background="new 0 0 512 512" xml:space="preserve">
<g>
	<path fill="#DB81DA" class="secondary-color" d="M482.5,18.9v18.1h-37.8V18.9H482.5z"></path>
	<path fill="#DB81DA" class="secondary-color" d="M480.4,444.9v42.4h-96.7v-42.4H480.4z"></path>
</g>
<path d="M95.1,462.3c0,4.4-3.6,8-8,8H71.3v15.8c0,4.4-3.6,8-8,8s-8-3.6-8-8v-15.8H39.5c-4.4,0-8-3.6-8-8s3.6-8,8-8h15.8v-15.8
	c0-4.4,3.6-8,8-8s8,3.6,8,8v15.8h15.8C91.5,454.3,95.1,457.9,95.1,462.3z M47,56.2c5.5,0,9.9-4.4,9.9-9.9s-4.4-9.9-9.9-9.9
	s-9.9,4.4-9.9,9.9S41.5,56.2,47,56.2z M102.3,36.4c-5.5,0-9.9,4.4-9.9,9.9s4.4,9.9,9.9,9.9c5.5,0,9.9-4.4,9.9-9.9
	S107.8,36.4,102.3,36.4z"></path>
<linearGradient id="SVGID_1_" gradientUnits="userSpaceOnUse" x1="266.0234" y1="470.416" x2="264.5977" y2="32.713" class="gradient-element">
	<stop offset="0" class="primary-color-gradient" style="stop-color: #FFA4ED"></stop>
	<stop offset="1" class="secondary-color-gradient" style="stop-color: #DB81DA"></stop>
</linearGradient>
<path fill="url(#SVGID_1_)" d="M84,300.2l68.8-68.8c6.9-6.9,18-6.9,24.8,0l5,5c6.9,6.9,6.9,18,0,24.8L113.9,330c0,0,0,0,0,0
	c0.1,0-4.7,5.6-6.3,13.7c-3.4,17.1,9.7,34.5,21.3,46.1c9.9,9.9,24.8,21.7,39.7,21.7c9.1,0,16.3-4.4,19.4-6.6
	c0.8-0.5,1.5-1.1,2.1-1.8l67.3-67.3c6.9-6.9,18-6.8,24.8,0l5,5c6.9,6.9,6.9,18,0,24.8l-68.8,68.8c-0.3,0.3-19.7,19.2-49.8,19.2
	c-19.5,0-43.5-8-69.5-34.1c-34.2-34.2-36.7-64.7-32.8-84.2C70.5,313.9,83.5,300.7,84,300.2z M312.3,71.9l-68.8,68.8
	c-6.9,6.9-6.9,18,0,24.8l5,5c6.9,6.9,18,6.9,24.8,0l68.8-68.8c0,0,0,0,0,0c0,0.1,5.6-4.7,13.7-6.3c17.1-3.4,34.5,9.7,46.1,21.3
	c9.9,9.9,21.7,24.8,21.7,39.7c0,9.1-4.4,16.3-6.6,19.4c-0.5,0.8-1.1,1.5-1.8,2.1L348,245.2c-6.9,6.9-6.8,18,0,24.8l5,5
	c6.9,6.9,18,6.9,24.8,0l68.8-68.8c0.3-0.3,19.2-19.7,19.2-49.8c0-19.5-8-43.5-34.1-69.5c-34.2-34.2-64.7-36.7-84.2-32.8
	C326,58.4,312.8,71.4,312.3,71.9z"></path>
<path d="M168.5,461.7c-25.7,0-51-12.3-75.2-36.4c-36.7-36.7-39.3-70-35-91.4c4.7-23.5,18.5-37.8,20-39.3l80.5-80.5
	c3.1-3.1,8.2-3.1,11.3,0c3.1,3.1,3.1,8.2,0,11.3l-80.5,80.5c-0.1,0.1-11.8,12-15.6,31.2c-3.5,17.6-1.1,45.3,30.6,77
	c21.1,21.1,42.6,31.7,63.9,31.7c26.4,0,43.9-16.6,44.2-16.9l80.5-80.5c3.1-3.1,8.2-3.1,11.3,0c3.1,3.1,3.1,8.2,0,11.3L224,440.2
	C223.8,440.3,202.4,461.7,168.5,461.7z M366.1,294.8c-2,0-4.1-0.8-5.7-2.3c-3.1-3.1-3.1-8.2,0-11.3l80.5-80.5
	c0.1-0.1,11.8-12,15.7-31.2c3.5-17.6,1.1-45.3-30.6-77c-31.6-31.6-59.3-34.1-76.9-30.5c-19.1,3.8-31,15.5-31.2,15.6l-80.5,80.5
	c-3.1,3.1-8.2,3.1-11.3,0c-3.1-3.1-3.1-8.2,0-11.3l80.5-80.5c1.6-1.6,15.8-15.3,39.3-20c21.5-4.3,54.7-1.7,91.3,34.9
	c36.7,36.7,39.3,70,35,91.4c-4.9,24.3-19.5,38.8-20.1,39.4l-80.5,80.5C370.2,294,368.1,294.8,366.1,294.8z M157.2,179.3
	c0-4.4-3.6-8-8-8H85.9c-4.4,0-8,3.6-8,8s3.6,8,8,8h63.3C153.6,187.3,157.2,183.7,157.2,179.3z M220.5,137.1V73.8c0-4.4-3.6-8-8-8
	s-8,3.6-8,8v63.3c0,4.4,3.6,8,8,8S220.5,141.5,220.5,137.1z M452.7,327.1c0-4.4-3.6-8-8-8h-63.3c-4.4,0-8,3.6-8,8s3.6,8,8,8h63.3
	C449.1,335.1,452.7,331.5,452.7,327.1z M326.1,432.6v-63.3c0-4.4-3.6-8-8-8s-8,3.6-8,8v63.3c0,4.4,3.6,8,8,8S326.1,437,326.1,432.6z
	 M177.8,150.8c3.1-3.1,3.1-8.2,0-11.3L133,94.7c-3.1-3.1-8.2-3.1-11.3,0s-3.1,8.2,0,11.3l44.8,44.8c1.6,1.6,3.6,2.3,5.7,2.3
	C174.2,153.1,176.2,152.3,177.8,150.8z M408.9,411.7c3.1-3.1,3.1-8.2,0-11.3l-44.8-44.8c-3.1-3.1-8.2-3.1-11.3,0
	c-3.1,3.1-3.1,8.2,0,11.3l44.8,44.8c1.6,1.6,3.6,2.3,5.7,2.3S407.4,413.3,408.9,411.7z"></path>
</svg>