<svg version="1.1" id="Layer_1" xmlns="http://www.w3.org/2000/svg" xmlns:xlink="http://www.w3.org/1999/xlink" x="0px" y="0px" viewBox="0 0 512 512" enable-background="new 0 0 512 512" xml:space="preserve">
<g>
	<path fill="#DB81DA" class="secondary-color" d="M421.7,446.6h73.1v35.8h-73.1V446.6z"></path>
	<path fill="#DB81DA" class="secondary-color" d="M328.3,445.8h80.3v37.3h-80.3V445.8z M16.8,388.9v91.4h102.6L16.8,388.9z"></path>
</g>
<path d="M447.8,136.5h-78.3c-4.4,0-8-3.6-8-8s3.6-8,8-8h78.3c4.4,0,8,3.6,8,8S452.2,136.5,447.8,136.5z M488.5,155.4
	c0-4.4-3.6-8-8-8h-78.3c-4.4,0-8,3.6-8,8s3.6,8,8,8h78.3C485,163.4,488.5,159.8,488.5,155.4z M102.8,123.6H87v-15.8c0-4.4-3.6-8-8-8
	s-8,3.6-8,8v15.8H55.3c-4.4,0-8,3.6-8,8s3.6,8,8,8H71v15.8c0,4.4,3.6,8,8,8s8-3.6,8-8v-15.8h15.8c4.4,0,8-3.6,8-8
	S107.2,123.6,102.8,123.6z M232.6,47.5c0,5-4.1,9-9,9s-9-4.1-9-9s4.1-9,9-9S232.6,42.5,232.6,47.5z M202.6,47.5c0,5-4.1,9-9,9
	s-9-4.1-9-9s4.1-9,9-9S202.6,42.5,202.6,47.5z M172.6,47.5c0,5-4.1,9-9,9s-9-4.1-9-9s4.1-9,9-9S172.6,42.5,172.6,47.5z M394.6,55.5
	h87.6c4.4,0,8-3.6,8-8s-3.6-8-8-8h-87.6c-4.4,0-8,3.6-8,8S390.1,55.5,394.6,55.5z M494.4,380.6c0,14.6-11.8,26.4-26.4,26.4
	s-26.4-11.8-26.4-26.4s11.8-26.4,26.4-26.4S494.4,366,494.4,380.6z M478.4,380.6c0-5.7-4.7-10.4-10.4-10.4s-10.4,4.7-10.4,10.4
	s4.7,10.4,10.4,10.4S478.4,386.3,478.4,380.6z M307.7,413.3c0,5-4.1,9-9,9s-9-4.1-9-9s4.1-9,9-9S307.7,408.4,307.7,413.3z"></path>
<linearGradient id="SVGID_1_" gradientUnits="userSpaceOnUse" x1="236.7003" y1="421.1735" x2="238.2161" y2="127.1104" class="gradient-element">
	<stop offset="0" class="primary-color-gradient" style="stop-color: #FFA4ED"></stop>
	<stop offset="1" class="secondary-color-gradient" style="stop-color: #DB81DA"></stop>
</linearGradient>
<path fill="url(#SVGID_1_)" d="M294.8,353.4c-67.9,61.1-193.1,68.6-198.4,68.9l-12,0.7l0.7-12c0.3-5.3,7.8-130.5,68.9-198.4l0.9,0
	c0,0-5,26.2,15.7,47c23.4,23.6,86.8,22.9,109.6,47c19.7,20.8,15.6,47,15.6,47H294.8z M329.8,147.8L314.5,163l60.3,60.3l15.3-15.3
	L329.8,147.8z"></path>
<path d="M84.4,430.9c-2.1,0-4.2-0.8-5.7-2.3c-1.6-1.6-2.5-3.8-2.3-6.1l0.7-12c0.3-5.4,8-133.4,70.9-203.3
	c38.7-43,72.1-53.3,111.4-61.4l82.4-82.4c3.1-3.1,8.2-3.1,11.3,0c3.1,3.1,3.1,8.2,0,11.3L269,158.8c-1.1,1.1-2.5,1.9-4.1,2.2
	c-38.6,7.9-68.7,16.6-105.1,56.9C100.7,283.6,93.3,406.2,93,411.3l-0.2,3.1l3.1-0.2c5.2-0.3,127.6-7.5,193.5-66.8
	c40.3-36.3,49-66.5,56.9-105.1c0.3-1.4,0.9-2.7,1.9-3.7l-70-70c-3.1-3.1-3.1-8.2,0-11.3c3.1-3.1,8.2-3.1,11.3,0l70,70l73.1-73.1
	c3.1-3.1,8.2-3.1,11.3,0c3.1,3.1,3.1,8.2,0,11.3l-82.4,82.4c-8.1,39.3-18.4,72.7-61.4,111.4c-70.1,63.1-197.9,70.6-203.3,70.9
	l-12,0.7C84.7,430.9,84.5,430.9,84.4,430.9z M107.7,407.6c-4,0-7.5-3-7.9-7.2c-0.5-4.4,2.7-8.3,7.1-8.8
	c34.5-3.7,120-16.9,168.2-60.3c3.3-3,8.3-2.7,11.3,0.6c3,3.3,2.7,8.3-0.6,11.3c-51.6,46.5-141.1,60.4-177.2,64.3
	C108.3,407.6,108,407.6,107.7,407.6z"></path>
</svg>