<svg version="1.1" id="Layer_1" xmlns="http://www.w3.org/2000/svg" xmlns:xlink="http://www.w3.org/1999/xlink" x="0px" y="0px" viewBox="0 0 512 512" enable-background="new 0 0 512 512" xml:space="preserve">
<linearGradient id="SVGID_1_" gradientUnits="userSpaceOnUse" x1="221.3611" y1="347.9715" x2="222.498" y2="237.696" class="gradient-element">
	<stop offset="0" class="primary-color-gradient" style="stop-color: #FFA4ED"></stop>
	<stop offset="1" class="secondary-color-gradient" style="stop-color: #DB81DA"></stop>
</linearGradient>
<path fill="url(#SVGID_1_)" d="M405.6,294.9c-9.3-6.3-20.6-10-32.7-10c-16.1,0-30.1,7.2-41.2,17.1c-15.4,13.7-13.5,41-15.8,52.2h-94
	c-2.4-11.3,12.2-23.1-15.8-52.2c-10.3-10.8-25.1-17.1-41.2-17.1c-16.1,0-30.7,6.5-41.2,17.1c-10.5,10.5-17.1,25.1-17.1,41.2
	c0,3.8,0.4,7.5,1,11H37.9v-23.1H61v-69.3c0,0,277.2,0,300.3,0C383.7,261.8,400.1,276.9,405.6,294.9z"></path>
<path d="M372.9,408.4c-29,0-54.4-19.1-62.8-46.2h-82.3c-8.4,27.1-33.8,46.2-62.8,46.2c-36.3,0-65.8-29.5-65.8-65.8c0-4.4,3.6-8,8-8
	s8,3.6,8,8c0,27.4,22.3,49.8,49.8,49.8c23.6,0,44.1-16.7,48.8-39.8c0.8-3.7,4-6.4,7.8-6.4h94.7c3.8,0,7.1,2.7,7.8,6.4
	c4.7,23.1,25.2,39.8,48.8,39.8s44.1-16.7,48.8-39.8c0.8-3.7,4-6.4,7.8-6.4h12.7c21.1,0,26.7-17.4,26.7-26.7v-23.1
	c0-68-19.8-116.4-59-143.9c-29.6-20.8-59.8-21.4-60.1-21.4h-231c-49.2,0-49.8,47.7-49.8,49.8v87.8c0,4.4-3.6,8-8,8s-8-3.6-8-8v-87.8
	c0-5.4,1-24.2,13.3-41.1c8.2-11.3,24-24.7,52.5-24.7h231c1.4,0,135.1,2.1,135.1,181.3v23.1c0,20.7-14.9,42.7-42.7,42.7h-6.5
	C427.3,389.3,401.8,408.4,372.9,408.4z M372.9,377.6c-19.3,0-35-15.7-35-35s15.7-35,35-35c4.4,0,8,3.6,8,8s-3.6,8-8,8
	c-10.5,0-19,8.5-19,19s8.5,19,19,19s19-8.5,19-19c0-4.4,3.6-8,8-8s8,3.6,8,8C407.8,361.9,392.2,377.6,372.9,377.6z M164.9,377.6
	c-4.4,0-8-3.6-8-8s3.6-8,8-8c10.5,0,19-8.5,19-19s-8.5-19-19-19s-19,8.5-19,19c0,4.4-3.6,8-8,8s-8-3.6-8-8c0-19.3,15.7-35,35-35
	c19.3,0,35,15.7,35,35S184.2,377.6,164.9,377.6z M84.1,362.2H37.9c-4.4,0-8-3.6-8-8v-23.1c0-4.4,3.6-8,8-8H53v-24.7c0-4.4,3.6-8,8-8
	s8,3.6,8,8v32.7c0,4.4-3.6,8-8,8H45.9v7.1h38.2c4.4,0,8,3.6,8,8S88.5,362.2,84.1,362.2z M429.5,339.1c-3.7,0-7.1-2.6-7.8-6.4
	c-4.7-23.1-25.2-39.8-48.8-39.8s-44.1,16.7-48.8,39.8c-0.9,4.3-5.1,7.1-9.4,6.3c-4.3-0.9-7.1-5.1-6.3-9.4
	c6.2-30.5,33.3-52.6,64.4-52.6s58.3,22.1,64.4,52.6c0.9,4.3-1.9,8.6-6.3,9.4C430.5,339,430,339.1,429.5,339.1z M221.5,339.1
	c-3.7,0-7.1-2.6-7.8-6.4c-4.7-23.1-25.2-39.8-48.8-39.8c-4.4,0-8-3.6-8-8s3.6-8,8-8c31.2,0,58.3,22.1,64.4,52.6
	c0.9,4.3-1.9,8.6-6.3,9.4C222.6,339,222.1,339.1,221.5,339.1z M447.5,246.7H119.9c-4.4,0-8-3.6-8-8v-92.4c0-4.4,3.6-8,8-8h212.4
	c0,0,0,0,0.1,0l0.6,0c0.4,0,0.7,0,1.1,0.1c15.7,0.2,23.3,0.4,25.8,0.8c18.7,2.8,64.6,15.5,87.7,73.5c1.6,4.1-0.4,8.8-4.5,10.4
	c-4.1,1.6-8.8-0.4-10.4-4.5c-20.1-50.3-59.3-61.2-75.2-63.6c-1.1-0.2-5.1-0.4-17.2-0.5v61.1c0,4.4-3.6,8-8,8s-8-3.6-8-8v-61.3h-94.2
	v61.3c0,4.4-3.6,8-8,8s-8-3.6-8-8v-61.3h-86.2v76.4h319.6c4.4,0,8,3.6,8,8S451.9,246.7,447.5,246.7z"></path>
<path fill="#DB81DA" class="secondary-color" d="M490.4,379.2v44.5H446v-44.5H490.4z M446,490.6h44.5v-44.5H446V490.6z M377.6,490.6h44.5v-44.5h-44.5V490.6z
	"></path>
<path d="M27.2,64.1c0-14.6,11.8-26.4,26.4-26.4c4.4,0,8,3.6,8,8s-3.6,8-8,8c-5.7,0-10.4,4.7-10.4,10.4s4.7,10.4,10.4,10.4
	c4.4,0,8,3.6,8,8s-3.6,8-8,8C39,90.5,27.2,78.7,27.2,64.1z M137.3,450.4H63.5c-4.4,0-8,3.6-8,8s3.6,8,8,8h73.8c4.4,0,8-3.6,8-8
	S141.7,450.4,137.3,450.4z M203.6,78.6h3.9c4.4,0,8-3.6,8-8s-3.6-8-8-8h-3.9v-3.9c0-4.4-3.6-8-8-8s-8,3.6-8,8v3.9h-3.9
	c-4.4,0-8,3.6-8,8s3.6,8,8,8h3.9v3.9c0,4.4,3.6,8,8,8s8-3.6,8-8V78.6z M234,452h-3.9v-3.9c0-4.4-3.6-8-8-8s-8,3.6-8,8v3.9h-3.9
	c-4.4,0-8,3.6-8,8s3.6,8,8,8h3.9v3.9c0,4.4,3.6,8,8,8s8-3.6,8-8V468h3.9c4.4,0,8-3.6,8-8S238.5,452,234,452z M464.3,101.4
	c-4.2-4.2-11-4.2-15.2,0s-4.2,11,0,15.2c4.2,4.2,11,4.2,15.2,0C468.5,112.4,468.5,105.6,464.3,101.4z M372.2,66.2h-67.9
	c-4.4,0-8,3.6-8,8s3.6,8,8,8h67.9c4.4,0,8-3.6,8-8S376.6,66.2,372.2,66.2z M109.5,268.7c0-4.4-3.6-8-8-8H16.9c-4.4,0-8,3.6-8,8
	s3.6,8,8,8h84.6C106,276.7,109.5,273.2,109.5,268.7z"></path>
</svg>