<svg version="1.1" id="Layer_1" xmlns="http://www.w3.org/2000/svg" xmlns:xlink="http://www.w3.org/1999/xlink" x="0px" y="0px" viewBox="0 0 512 512" enable-background="new 0 0 512 512" xml:space="preserve">
<path fill="#DB81DA" class="secondary-color" d="M10,354.1h16.4v96.7H10V354.1z"></path>
<path d="M492.8,499.1c-5.5,0-9.9-4.4-9.9-9.9c0-5.5,4.4-9.9,9.9-9.9c5.5,0,9.9,4.4,9.9,9.9C502.8,494.6,498.3,499.1,492.8,499.1z
	 M492.8,483.1c-3.4,0-6.1,2.7-6.1,6.1c0,3.4,2.7,6.1,6.1,6.1c3.4,0,6.1-2.7,6.1-6.1C498.9,485.8,496.2,483.1,492.8,483.1z
	 M371.3,30.6c0-4.4-3.6-8-8-8h-43c-4.4,0-8,3.6-8,8s3.6,8,8,8h43C367.7,38.6,371.3,35,371.3,30.6z M101,40c0-4.4-3.6-8-8-8H35.6
	c-4.4,0-8,3.6-8,8s3.6,8,8,8H93C97.5,48,101,44.4,101,40z M488.9,30.6c0,5-4.1,9-9,9s-9-4.1-9-9s4.1-9,9-9S488.9,25.6,488.9,30.6z
	 M459.2,30.6c0,5-4.1,9-9,9s-9-4.1-9-9s4.1-9,9-9S459.2,25.6,459.2,30.6z"></path>
<linearGradient id="SVGID_1_" gradientUnits="userSpaceOnUse" x1="276.2086" y1="460.5122" x2="278.7346" y2="85.4021" class="gradient-element">
	<stop offset="0" class="primary-color-gradient" style="stop-color: #FFA4ED"></stop>
	<stop offset="1" class="secondary-color-gradient" style="stop-color: #DB81DA"></stop>
</linearGradient>
<path fill="url(#SVGID_1_)" d="M233.9,439.6h-81.1c-6.5,0-11.9-5.3-11.9-11.9V128.9c0-6.5,5.3-11.9,11.9-11.9h81.1
	c6.5,0,11.9,5.3,11.9,11.9v298.8C245.8,434.2,240.5,439.6,233.9,439.6z M402,117H301.7c-6.5,0-11.9,5.3-11.9,11.9v298.8
	c0,6.5,5.3,11.9,11.9,11.9H402c6.5,0,11.9-5.3,11.9-11.9V128.9C413.9,122.3,408.6,117,402,117z"></path>
<path d="M330,241.1v74.4c0,4.4-3.6,8-8,8s-8-3.6-8-8v-66.4h-16.8c-4.4,0-8-3.6-8-8s3.6-8,8-8H322C326.4,233.1,330,236.6,330,241.1z
	 M433.7,59.4H86.3c-24.9,0-45.2,20.3-45.2,45.2v335c0,4.4,3.6,8,8,8s8-3.6,8-8v-335c0-16.1,13.1-29.2,29.2-29.2h347.4
	c16.1,0,29.2,13.1,29.2,29.2V452c0,10.1-6.1,29.2-29.2,29.2H49.1c-4.4,0-8,3.6-8,8s3.6,8,8,8h384.6c18.5,0,29.3-8.7,35.1-16
	c6.4-8.1,10.1-18.7,10.1-29.2V104.6C478.9,79.7,458.6,59.4,433.7,59.4z M198,233.1c-4.4,0-8,3.6-8,8v74.4c0,4.4,3.6,8,8,8s8-3.6,8-8
	v-66.4h16.8c4.4,0,8-3.6,8-8s-3.6-8-8-8H198z M239.6,439.6V125H106.7v306.5h116.1c4.4,0,8,3.6,8,8s-3.6,8-8,8H98.7c-4.4,0-8-3.6-8-8
	V117c0-4.4,3.6-8,8-8h322.5c4.4,0,8,3.6,8,8v322.5c0,4.4-3.6,8-8,8H247.6C243.2,447.6,239.6,444,239.6,439.6z M255.6,431.6h157.7
	V125H255.6V431.6z"></path>
</svg>