<svg version="1.1" id="Layer_1" xmlns="http://www.w3.org/2000/svg" xmlns:xlink="http://www.w3.org/1999/xlink" x="0px" y="0px" viewBox="0 0 512 512" enable-background="new 0 0 512 512" xml:space="preserve">
<path d="M60.8,485.7c-5,0-9-4.1-9-9s4.1-9,9-9s9,4.1,9,9S65.8,485.7,60.8,485.7z M114.5,51.5c0-4.4-3.6-8-8-8H59c-4.4,0-8,3.6-8,8
	s3.6,8,8,8h47.6C110.9,59.5,114.5,55.9,114.5,51.5z M90.7,75.2V27.7c0-4.4-3.6-8-8-8s-8,3.6-8,8v47.6c0,4.4,3.6,8,8,8
	S90.7,79.7,90.7,75.2z M477.5,42.8c-5.9,0-10.8,4.8-10.8,10.8s4.8,10.8,10.8,10.8c5.9,0,10.8-4.8,10.8-10.8S483.4,42.8,477.5,42.8z
	 M457.2,64.6c0-14.6-11.8-26.4-26.4-26.4c-4.4,0-8,3.6-8,8s3.6,8,8,8c5.7,0,10.4,4.7,10.4,10.4S436.5,75,430.8,75c-4.4,0-8,3.6-8,8
	s3.6,8,8,8C445.3,91,457.2,79.2,457.2,64.6z M485.5,480.2c0-4.4-3.6-8-8-8H344.3c-4.4,0-8,3.6-8,8s3.6,8,8,8h133.2
	C481.9,488.2,485.5,484.6,485.5,480.2z M325.5,447.9c0-4.4-3.6-8-8-8H137.8c-4.4,0-8,3.6-8,8s3.6,8,8,8h179.7
	C321.9,455.9,325.5,452.3,325.5,447.9z"></path>
<linearGradient id="SVGID_1_" gradientUnits="userSpaceOnUse" x1="276.0175" y1="415.9012" x2="286.2491" y2="72.5749" class="gradient-element">
	<stop offset="0" class="primary-color-gradient" style="stop-color: #FFA4ED"></stop>
	<stop offset="1" class="secondary-color-gradient" style="stop-color: #DB81DA"></stop>
</linearGradient>
<path fill="url(#SVGID_1_)" d="M355.8,169.5c-21.3,0-38.6-17.3-38.6-38.6c0-29.1,22.1-43.3,53.4-60.2l16.1-8.7l3.7,23.8
	c1.9,12.2,4.2,26.1,4.2,45.1C394.5,152.2,377.2,169.5,355.8,169.5z M366.8,102.4c-18.3,11.2-23.8,18.4-23.8,28.4
	c0,7.1,5.8,12.9,12.9,12.9s12.9-5.8,12.9-12.9C368.7,119.8,367.9,110.7,366.8,102.4z M252.8,169.5c-21.3,0-38.6-17.3-38.6-38.6
	c0-29.1,22.1-43.3,53.4-60.2l16.1-8.7l3.7,23.8c1.9,12.2,4.2,26.1,4.2,45.1C291.4,152.2,274.1,169.5,252.8,169.5z M263.7,102.4
	c-18.3,11.2-23.8,18.4-23.8,28.4c0,7.1,5.8,12.9,12.9,12.9c7.1,0,12.9-5.8,12.9-12.9C265.7,119.8,264.8,110.7,263.7,102.4z
	 M149.7,169.5c-21.3,0-38.6-17.3-38.6-38.6c0-29.1,22.1-43.3,53.4-60.2l16.1-8.7l3.7,23.9c1.9,12.2,4.1,26,4.1,45
	C188.4,152.2,171,169.5,149.7,169.5z M160.7,102.4c-18.3,11.2-23.8,18.4-23.8,28.4c0,7.1,5.8,12.9,12.9,12.9
	c7.1,0,12.9-5.8,12.9-12.9C162.6,119.8,161.8,110.7,160.7,102.4z M469.8,304.3c-0.8-1.3-20.6-31.7-52.1-31.7
	c-24.4,0-39.1,16.7-50.9,30.1c-11.7,13.3-19.5,21.4-31.6,21.4c-12.1,0-19.9-8.1-31.6-21.4c-11.8-13.4-26.5-30.1-50.9-30.1
	c-24.4,0-39.1,16.7-50.9,30.1c-11.7,13.3-19.4,21.4-31.6,21.4s-19.9-8.1-31.6-21.4c-11.8-13.4-26.5-30.1-50.9-30.1
	c-0.9,0-1.7,0.3-2.6,0.3v154.3h347.8c21.3,0,38.6-17.3,38.6-38.6v-82.9L469.8,304.3z"></path>
<path d="M433.1,434.6H72.4c-25.4,0-46.1-20.7-46.1-46.1v-45.3c0-0.7,0.1-1.5,0.3-2.2c0,0,0,0,0,0c0,0,0,0,0,0c0,0,0,0,0,0
	c0,0,0,0,0,0c0,0,0,0,0,0c0,0,0,0,0,0c0,0,0,0,0,0c0,0,0,0,0,0c0.3-0.9,0.7-1.7,1.3-2.5c2.7-3.4,13.4-15,24.4-25.2
	c21.3-19.8,30.2-22.3,35.5-22.3c4.1,0,7.4,3.3,7.4,7.4s-3.3,7.4-7.4,7.4c-0.2,0-6.1,0.5-25.6,18.6c-9.1,8.5-17.4,17.3-21,21.5v42.6
	c0,17.2,14,31.2,31.2,31.2h360.7c17.2,0,31.2-14,31.2-31.2V233.9c0-17.2-14-31.2-31.2-31.2h-38.6c-4.1,0-7.4-3.3-7.4-7.4
	s3.3-7.4,7.4-7.4h38.6c25.4,0,46.1,20.7,46.1,46.1v154.6C479.2,413.9,458.6,434.6,433.1,434.6z M335.2,357.3c-4.1,0-7.4-3.3-7.4-7.4
	s3.3-7.4,7.4-7.4c21,0,33.9-14.7,45.3-27.6c11.3-12.8,21-23.9,37.1-23.9c4.1,0,7.4,3.3,7.4,7.4s-3.3,7.4-7.4,7.4
	c-8.5,0-14.4,5.8-26,18.9C379.6,338.4,363,357.3,335.2,357.3z M170.3,357.3c-4.1,0-7.4-3.3-7.4-7.4s3.3-7.4,7.4-7.4
	c21,0,33.9-14.7,45.3-27.6c11.3-12.8,21.1-23.9,37.1-23.9c4.1,0,7.4,3.3,7.4,7.4s-3.3,7.4-7.4,7.4c-8.5,0-14.4,5.7-26,18.9
	C214.7,338.4,198.1,357.3,170.3,357.3z M335.2,331.5c-16.1,0-25.9-11.1-37.1-23.9c-11.4-12.9-24.3-27.6-45.3-27.6
	c-21,0-33.9,14.7-45.3,27.6c-11.3,12.8-21.1,23.9-37.1,23.9c-16.1,0-25.8-11.1-37.1-23.9c-11.4-12.9-24.3-27.6-45.3-27.6
	c-4.1,0-7.4-3.3-7.4-7.4s3.3-7.4,7.4-7.4c27.8,0,44.4,18.9,56.5,32.7c11.5,13.1,17.5,18.9,26,18.9s14.4-5.7,26-18.9
	c12.1-13.8,28.7-32.7,56.5-32.7c27.8,0,44.4,18.9,56.5,32.7c11.5,13.1,17.5,18.9,26,18.9c8.5,0,14.4-5.8,26-18.9
	c12.1-13.8,28.7-32.7,56.5-32.7c11.1,0,22,3.3,32.3,9.7c3.5,2.2,4.6,6.8,2.4,10.3c-2.2,3.5-6.8,4.6-10.3,2.4
	c-7.9-4.9-16.1-7.5-24.4-7.5c-21,0-33.9,14.7-45.3,27.6C361.1,320.5,351.3,331.5,335.2,331.5z M33.8,304.6c-4.1,0-7.4-3.3-7.4-7.4
	v-63.2c0-25.4,20.7-46.1,46.1-46.1h57v-20.7c0-4.1,3.3-7.4,7.4-7.4s7.4,3.3,7.4,7.4v28.1c0,4.1-3.3,7.4-7.4,7.4H72.4
	c-17.2,0-31.2,14-31.2,31.2v63.2C41.2,301.3,37.9,304.6,33.8,304.6z M343,202.7h-77.3c-4.1,0-7.4-3.3-7.4-7.4v-28.1
	c0-4.1,3.3-7.4,7.4-7.4s7.4,3.3,7.4,7.4v20.7h62.4v-20.7c0-2.4,1.2-4.7,3.2-6.1c2-1.4,4.5-1.7,6.8-0.9c7.3,2.6,13.4,2.6,20.8,0
	c3.9-1.4,8.1,0.6,9.5,4.5c1.4,3.9-0.6,8.1-4.5,9.5c-7.2,2.6-13.9,3.4-20.8,2.4v18.7C350.4,199.4,347.1,202.7,343,202.7z
	 M239.9,202.7h-77.3c-4.1,0-7.4-3.3-7.4-7.4v-28.1c0-4.1,3.3-7.4,7.4-7.4s7.4,3.3,7.4,7.4v20.7h62.4v-20.7c0-4.1,3.3-7.4,7.4-7.4
	s7.4,3.3,7.4,7.4v28.1C247.3,199.4,244,202.7,239.9,202.7z"></path>
</svg>