<svg version="1.1" id="Layer_1" xmlns="http://www.w3.org/2000/svg" xmlns:xlink="http://www.w3.org/1999/xlink" x="0px" y="0px" viewBox="0 0 512 512" enable-background="new 0 0 512 512" xml:space="preserve">
<linearGradient id="SVGID_1_" gradientUnits="userSpaceOnUse" x1="267.5439" y1="411.4397" x2="267.5439" y2="98.0755" class="gradient-element">
	<stop offset="0" class="primary-color-gradient" style="stop-color: #FFA4ED"></stop>
	<stop offset="1" class="secondary-color-gradient" style="stop-color: #DB81DA"></stop>
</linearGradient>
<path fill="url(#SVGID_1_)" d="M372.4,125.1v294.1H162.6v-15c0-22.8,22.7-41.2,50.8-41.2c14.9,0,28.5-4.9,38.3-12.9
	c9.8-8,15.8-18.9,15.8-31.1V217.6H324v-65.9H268c4.4-31.2,37-52.4,76.7-52.4l18.2,6.3C366.1,105.5,372.4,122.5,372.4,125.1z"></path>
<path d="M350.8,425.8H184c-4.4,0-8-3.6-8-8s3.6-8,8-8h166.9c17.4,0,17.6-17.4,17.6-17.6V119.7c0-17.4-17.4-17.6-17.6-17.6H180.5
	c-17.4,0-17.6,17.4-17.6,17.6v298.1c0,4.4-3.6,8-8,8s-8-3.6-8-8V119.7c0-16.3,11.8-33.6,33.6-33.6h170.4c16.3,0,33.6,11.8,33.6,33.6
	v272.6C384.4,408.5,372.6,425.8,350.8,425.8z M325.3,374.7h-17c-4.4,0-8-3.6-8-8s3.6-8,8-8h9v-9c0-4.4,3.6-8,8-8s8,3.6,8,8v17
	C333.3,371.1,329.7,374.7,325.3,374.7z M274.2,374.7h-17c-4.4,0-8-3.6-8-8s3.6-8,8-8h9v-9c0-4.4,3.6-8,8-8s8,3.6,8,8v17
	C282.2,371.1,278.6,374.7,274.2,374.7z M223,374.7h-17c-4.4,0-8-3.6-8-8s3.6-8,8-8h9v-9c0-4.4,3.6-8,8-8s8,3.6,8,8v17
	C231,371.1,227.5,374.7,223,374.7z M325.3,323.6h-17c-4.4,0-8-3.6-8-8s3.6-8,8-8h9v-9c0-4.4,3.6-8,8-8s8,3.6,8,8v17
	C333.3,320,329.7,323.6,325.3,323.6z M274.2,323.6h-17c-4.4,0-8-3.6-8-8s3.6-8,8-8h9v-9c0-4.4,3.6-8,8-8s8,3.6,8,8v17
	C282.2,320,278.6,323.6,274.2,323.6z M223,323.6h-17c-4.4,0-8-3.6-8-8s3.6-8,8-8h9v-9c0-4.4,3.6-8,8-8s8,3.6,8,8v17
	C231,320,227.5,323.6,223,323.6z M325.3,272.5h-17c-4.4,0-8-3.6-8-8s3.6-8,8-8h9v-9c0-4.4,3.6-8,8-8s8,3.6,8,8v17
	C333.3,268.9,329.7,272.5,325.3,272.5z M274.2,272.5h-17c-4.4,0-8-3.6-8-8s3.6-8,8-8h9v-9c0-4.4,3.6-8,8-8s8,3.6,8,8v17
	C282.2,268.9,278.6,272.5,274.2,272.5z M223,272.5h-17c-4.4,0-8-3.6-8-8s3.6-8,8-8h9v-9c0-4.4,3.6-8,8-8s8,3.6,8,8v17
	C231,268.9,227.5,272.5,223,272.5z M325.3,221.4H206c-4.4,0-8-3.6-8-8v-68.1c0-4.4,3.6-8,8-8h119.3c4.4,0,8,3.6,8,8s-3.6,8-8,8H214
	v52.1h103.3v-35.8c0-4.4,3.6-8,8-8s8,3.6,8,8v43.8C333.3,217.8,329.7,221.4,325.3,221.4z"></path>
<g>
	<path fill="#DB81DA" class="secondary-color" d="M40.6,385.5V252.3h43.6v133.3H40.6z"></path>
	<path fill="#FFA4ED" class="primary-color" d="M39.9,464.5v-43.6h43.6v43.6H39.9z"></path>
</g>
<path d="M454.3,327.4c0,4.4-3.6,8-8,8h-3.9v3.9c0,4.4-3.6,8-8,8s-8-3.6-8-8v-3.9h-3.9c-4.4,0-8-3.6-8-8s3.6-8,8-8h3.9v-3.9
	c0-4.4,3.6-8,8-8s8,3.6,8,8v3.9h3.9C450.7,319.4,454.3,323,454.3,327.4z M66.1,82.5c4.4,0,8-3.6,8-8s-3.6-8-8-8
	c-14.6,0-26.4,11.8-26.4,26.4s11.8,26.4,26.4,26.4c4.4,0,8-3.6,8-8s-3.6-8-8-8c-5.7,0-10.4-4.7-10.4-10.4S60.4,82.5,66.1,82.5z
	 M430.8,472.3h-63.6c-4.4,0-8,3.6-8,8s3.6,8,8,8h63.6c4.4,0,8-3.6,8-8S435.2,472.3,430.8,472.3z M488.2,171.3h-15.8v-15.8
	c0-4.4-3.6-8-8-8s-8,3.6-8,8v15.8h-15.8c-4.4,0-8,3.6-8,8s3.6,8,8,8h15.8v15.8c0,4.4,3.6,8,8,8s8-3.6,8-8v-15.8h15.8
	c4.4,0,8-3.6,8-8S492.6,171.3,488.2,171.3z M389.1,46.7c0-4.4-3.6-8-8-8H277.8c-4.4,0-8,3.6-8,8s3.6,8,8,8h103.3
	C385.5,54.7,389.1,51.2,389.1,46.7z M407.5,46.7c0-5,4.1-9,9-9s9,4.1,9,9s-4.1,9-9,9S407.5,51.7,407.5,46.7z M437.5,46.7
	c0-5,4.1-9,9-9s9,4.1,9,9s-4.1,9-9,9S437.5,51.7,437.5,46.7z M467.5,46.7c0-5,4.1-9,9-9s9,4.1,9,9s-4.1,9-9,9S467.5,51.7,467.5,46.7
	z"></path>
</svg>