<svg version="1.1" id="Layer_1" xmlns="http://www.w3.org/2000/svg" xmlns:xlink="http://www.w3.org/1999/xlink" x="0px" y="0px" viewBox="0 0 512 512" enable-background="new 0 0 512 512" xml:space="preserve">
<linearGradient id="SVGID_1_" gradientUnits="userSpaceOnUse" x1="253.3687" y1="278.6308" x2="465.563" y2="278.6308" class="gradient-element">
	<stop offset="0" class="primary-color-gradient" style="stop-color: #FFA4ED"></stop>
	<stop offset="1" class="secondary-color-gradient" style="stop-color: #DB81DA"></stop>
</linearGradient>
<path fill="url(#SVGID_1_)" d="M461.7,140.2c2.1,0,3.9,1.7,3.9,3.9v46.5v176.1v46.5c0,2.1-1.7,3.9-3.9,3.9H409H257.2
	c-2.1,0-3.9-1.7-3.9-3.9v-5.5c0-22.6,18.3-40.9,40.9-40.9h85c16.4,0,29.7-13.3,29.7-29.7V215.7l28.2-2.2v-19.1
	c0-2.1-29.9-3.9-32.1-3.9h-30.6c-12.2,0-22.2-9.9-22.2-22.2v0c0-15.6,12.6-28.2,28.2-28.2H409H461.7z"></path>
<path d="M165.6,140.2c0-4.4,3.6-8,8-8h143.5c4.4,0,8,3.6,8,8s-3.6,8-8,8H173.6C169.2,148.2,165.6,144.7,165.6,140.2z M465.6,409
	H45.8V223.7h394.6c4.4,0,8-3.6,8-8v-25.2c0-4.4-3.6-8-8-8H45.8v-34.3h92.6c4.4,0,8-3.6,8-8V97.3c0-4.4-3.6-8-8-8s-8,3.6-8,8v34.9
	H37.8c-4.4,0-8,3.6-8,8v50.3c0,4.4,3.6,8,8,8h394.6v9.2H37.8c-4.4,0-8,3.6-8,8V417c0,4.4,3.6,8,8,8h427.7c4.4,0,8-3.6,8-8
	S470,409,465.6,409z M465.6,132.2H360.3V97.3c0-4.4-3.6-8-8-8s-8,3.6-8,8v42.9c0,4.4,3.6,8,8,8h105.2V382c0,4.4,3.6,8,8,8s8-3.6,8-8
	V140.2C473.6,135.8,470,132.2,465.6,132.2z M214,333.5c-4.4,0-8,3.6-8,8v25.2c0,4.4,3.6,8,8,8h75.5c4.4,0,8-3.6,8-8v-25.2
	c0-4.4-3.6-8-8-8h-25.2c-4.4,0-8,3.6-8,8s3.6,8,8,8h17.2v9.2H222v-9.2h17.2c4.4,0,8-3.6,8-8v-75.5c0-3.5-2.3-6.6-5.6-7.6
	c-3.3-1.1-6.9,0.2-9,3l-25.2,35.5c-2.6,3.6-1.7,8.6,1.9,11.2c3.6,2.6,8.6,1.7,11.2-1.9l10.6-15v42.3H214z"></path>
<path d="M496.2,382c0,4.4-3.6,8-8,8h-57.4c-4.4,0-8-3.6-8-8s3.6-8,8-8h57.4C492.7,374,496.2,377.5,496.2,382z M151.2,459.9H47.9
	c-4.4,0-8,3.6-8,8s3.6,8,8,8h103.3c4.4,0,8-3.6,8-8S155.6,459.9,151.2,459.9z M195.6,467.9c0,5-4.1,9-9,9s-9-4.1-9-9s4.1-9,9-9
	S195.6,462.9,195.6,467.9z M225.6,467.9c0,5-4.1,9-9,9s-9-4.1-9-9s4.1-9,9-9S225.6,462.9,225.6,467.9z M255.6,467.9c0,5-4.1,9-9,9
	s-9-4.1-9-9s4.1-9,9-9S255.6,462.9,255.6,467.9z M404.5,60.9c20.3,0,36.8-16.5,36.8-36.8c0-4.4-3.6-8-8-8s-8,3.6-8,8
	c0,11.4-9.3,20.8-20.8,20.8c-4.4,0-8,3.6-8,8S400.1,60.9,404.5,60.9z M483.3,60.9c4.4,0,8-3.6,8-8s-3.6-8-8-8
	c-11.4,0-20.8-9.3-20.8-20.8c0-4.4-3.6-8-8-8s-8,3.6-8,8C446.5,44.5,463,60.9,483.3,60.9z M454.5,110.9c4.4,0,8-3.6,8-8
	c0-11.4,9.3-20.8,20.8-20.8c4.4,0,8-3.6,8-8s-3.6-8-8-8c-20.3,0-36.8,16.5-36.8,36.8C446.5,107.4,450.1,110.9,454.5,110.9z
	 M433.3,110.9c4.4,0,8-3.6,8-8c0-20.3-16.5-36.8-36.8-36.8c-4.4,0-8,3.6-8,8s3.6,8,8,8c11.4,0,20.8,9.3,20.8,20.8
	C425.3,107.4,428.9,110.9,433.3,110.9z M60.2,64v15.8c0,4.4,3.6,8,8,8s8-3.6,8-8V64H92c4.4,0,8-3.6,8-8s-3.6-8-8-8H76.2V32.2
	c0-4.4-3.6-8-8-8s-8,3.6-8,8V48H44.4c-4.4,0-8,3.6-8,8s3.6,8,8,8H60.2z M492,468.9c0,14.6-11.8,26.4-26.4,26.4s-26.4-11.8-26.4-26.4
	s11.8-26.4,26.4-26.4S492,454.4,492,468.9z M476,468.9c0-5.7-4.7-10.4-10.4-10.4c-5.7,0-10.4,4.7-10.4,10.4
	c0,5.7,4.7,10.4,10.4,10.4C471.3,479.3,476,474.6,476,468.9z"></path>
<g>
	<path fill="#FFA4ED" class="primary-color" d="M217.1,43.1V21.3h58.2v21.8H217.1z M359.9,43.1V21.3h-58.2v21.8H359.9z"></path>
	<path fill="#DB81DA" class="secondary-color" d="M132.6,43.1V21.3h58.2v21.8H132.6z"></path>
</g>
</svg>