<svg version="1.1" id="Layer_1" xmlns="http://www.w3.org/2000/svg" xmlns:xlink="http://www.w3.org/1999/xlink" x="0px" y="0px" viewBox="0 0 512 512" enable-background="new 0 0 512 512" xml:space="preserve">
<linearGradient id="SVGID_1_" gradientUnits="userSpaceOnUse" x1="255.8248" y1="362.9875" x2="255.8248" y2="131.8808" class="gradient-element">
	<stop offset="0" class="primary-color-gradient" style="stop-color: #FFA4ED"></stop>
	<stop offset="1" class="secondary-color-gradient" style="stop-color: #DB81DA"></stop>
</linearGradient>
<path fill="url(#SVGID_1_)" d="M95.8,306.1c-11.3,10.8-18.4,26.1-18.4,42.9c0,4.1,0.4,8.1,1.2,11.9H41.7c-6.5,0-11.9-5.4-11.9-11.9
	v0c0-23.7,19.2-42.9,42.9-42.9H95.8z M422.4,218.2h-41.2l-44.1-66c-0.1-0.1-0.2-0.4-0.5-0.7c-11.1-15.7-32-14.4-43-2.6
	c15.4,4.7,23.4,15.9,23.7,16.4l35.3,52.9h-66.2v43.2c0,24.7-20,44.7-44.7,44.7h-63.8c11.3,10.8,18.4,26.1,18.4,42.9
	c0,4.1-0.4,8.1-1.2,11.9h124.7c-0.8-3.8-1.3-7.8-1.3-11.9c0-30.9,25.3-56.2,56.2-56.2c30.9,0,56.2,25.3,56.2,56.2
	c0,4.1-0.5,8.1-1.3,11.9h40.3c6.5,0,11.9-5.4,11.9-11.9v-71.4C481.8,230.5,442.9,218.2,422.4,218.2z"></path>
<path d="M136.9,281.5c-37.2,0-67.5,30.3-67.5,67.5s30.3,67.5,67.5,67.5s67.5-30.3,67.5-67.5S174.1,281.5,136.9,281.5z M136.9,400.5
	c-28.4,0-51.5-23.1-51.5-51.5s23.1-51.5,51.5-51.5s51.5,23.1,51.5,51.5S165.3,400.5,136.9,400.5z M204.3,146.8v71.4c0,4.4-3.6,8-8,8
	H147c-4.4,0-8-3.6-8-8c0-4.4,3.6-8,8-8h41.4v-55.4h-27.7c-10,0-16.7,10.8-18.1,13.1l-26.9,53.9c-1.4,2.8-4.2,4.4-7.2,4.4
	c-1.2,0-2.4-0.3-3.6-0.8c-4-2-5.6-6.8-3.6-10.7l27-54.1c0.1-0.2,0.2-0.4,0.3-0.6c2.9-5.1,13.7-21.1,31.9-21.1h35.7
	C200.8,138.8,204.3,142.4,204.3,146.8z M489.8,277.6V349c0,11-8.9,19.9-19.9,19.9h-13.6c-4.4,0-8-3.6-8-8s3.6-8,8-8h13.6
	c2.1,0,3.9-1.8,3.9-3.9v-71.4c0-50.9-49.4-51.5-51.5-51.5h-41.2c-2.7,0-5.2-1.3-6.7-3.6l-44.1-66c0-0.1-0.1-0.1-0.1-0.2
	c-0.5-0.8-17.2-25.4-50.7-25.4h-119c-25.7,0-38.6,24.9-39.1,25.9l-32.5,64.8c-1.4,2.7-4.1,4.4-7.2,4.4H65.5
	c-21.9,0-27.7,18.1-27.7,27.7V349c0,2.1,1.8,3.9,3.9,3.9h10.4c4.4,0,8,3.6,8,8s-3.6,8-8,8H41.7c-11,0-19.9-8.9-19.9-19.9v-95.2
	c0-10.1,3.6-20.4,9.8-28.2c5.6-7.1,16-15.5,33.9-15.5H77l30.3-60.4c1.8-3.6,18.5-34.7,53.4-34.7h119c40.9,0,61.9,29.4,64.1,32.7l0,0
	l41.8,62.5h36.9c5.5,0,24.9,1,42.2,13.6C476.1,232.2,489.8,248.4,489.8,277.6z M323.6,160.3L323.6,160.3c0.1,0.1,0.2,0.3,0.4,0.5
	l35.3,52.9c1.6,2.5,1.8,5.6,0.4,8.2c-1.4,2.6-4.1,4.2-7.1,4.2H251c-4.4,0-8-3.6-8-8c0-4.4,3.6-8,8-8h86.7l-26.9-40.3
	c-2-2.7-12.5-15.1-31.2-15.1h-51.5v63.4c0,4.4-3.6,8-8,8s-8-3.6-8-8v-71.4c0-4.4,3.6-8,8-8h59.5
	C300.1,138.8,315.8,149.9,323.6,160.3z M374.8,284.8c-35.4,0-64.2,28.8-64.2,64.2c0,1.3,0.1,2.6,0.1,3.9h-90.6c-4.4,0-8,3.6-8,8
	s3.6,8,8,8h93.6c8.4,25.7,32.6,44.3,61,44.3c35.4,0,64.2-28.8,64.2-64.2S410.2,284.8,374.8,284.8z M374.8,397.2
	c-26.6,0-48.2-21.6-48.2-48.2c0-26.6,21.6-48.2,48.2-48.2c26.6,0,48.2,21.6,48.2,48.2C423,375.6,401.3,397.2,374.8,397.2z"></path>
<path fill="#FFA4ED" class="primary-color" d="M430.3,483.7l60.9-60.9v60.9H430.3z"></path>
<path d="M468.6,182.5c0,4.4-3.6,8-8,8h-43c-4.4,0-8-3.6-8-8s3.6-8,8-8h43C465,174.5,468.6,178.1,468.6,182.5z M206,74.9h-73.8
	c-4.4,0-8,3.6-8,8s3.6,8,8,8H206c4.4,0,8-3.6,8-8S210.4,74.9,206,74.9z M45.6,107.9c0,4.4,3.6,8,8,8s8-3.6,8-8V92.1h15.8
	c4.4,0,8-3.6,8-8s-3.6-8-8-8H61.6V60.3c0-4.4-3.6-8-8-8s-8,3.6-8,8v15.8H29.8c-4.4,0-8,3.6-8,8s3.6,8,8,8h15.8V107.9z M389.1,105.3
	c20.3,0,36.8-16.5,36.8-36.8c0-4.4-3.6-8-8-8s-8,3.6-8,8c0,11.4-9.3,20.8-20.8,20.8c-4.4,0-8,3.6-8,8S384.6,105.3,389.1,105.3z
	 M467.8,105.3c4.4,0,8-3.6,8-8s-3.6-8-8-8c-11.4,0-20.8-9.3-20.8-20.8c0-4.4-3.6-8-8-8s-8,3.6-8,8
	C431.1,88.8,447.6,105.3,467.8,105.3z M467.8,110.5c-20.3,0-36.8,16.5-36.8,36.8c0,4.4,3.6,8,8,8s8-3.6,8-8
	c0-11.4,9.3-20.8,20.8-20.8c4.4,0,8-3.6,8-8S472.2,110.5,467.8,110.5z M417.8,155.3c4.4,0,8-3.6,8-8c0-20.3-16.5-36.8-36.8-36.8
	c-4.4,0-8,3.6-8,8s3.6,8,8,8c11.4,0,20.8,9.3,20.8,20.8C409.8,151.7,413.4,155.3,417.8,155.3z M142.4,446.2h-43c-4.4,0-8,3.6-8,8
	s3.6,8,8,8h43c4.4,0,8-3.6,8-8S146.8,446.2,142.4,446.2z M120.9,476.2H47.1c-4.4,0-8,3.6-8,8s3.6,8,8,8h73.8c4.4,0,8-3.6,8-8
	S125.3,476.2,120.9,476.2z"></path>
</svg>