<svg version="1.1" id="Layer_1" xmlns="http://www.w3.org/2000/svg" xmlns:xlink="http://www.w3.org/1999/xlink" x="0px" y="0px" viewBox="0 0 512 512" enable-background="new 0 0 512 512" xml:space="preserve">
<linearGradient id="SVGID_1_" gradientUnits="userSpaceOnUse" x1="269.764" y1="392.0947" x2="276.5851" y2="86.2842" class="gradient-element">
	<stop offset="0" class="primary-color-gradient" style="stop-color: #FFA4ED"></stop>
	<stop offset="1" class="secondary-color-gradient" style="stop-color: #DB81DA"></stop>
</linearGradient>
<path fill="url(#SVGID_1_)" d="M272,226c-57.4,68.8-80.3,103.2-80.3,126.2c0,25.3,20.6,45.9,45.9,45.9c13.7,0,26-6,34.4-15.6
	c8.4,9.5,20.7,15.6,34.4,15.6c25.3,0,45.9-20.6,45.9-45.9C352.3,329.3,329.3,294.9,272,226z M191.5,166.4
	c-46.9,30.4-81.7,77.1-91,90.3v-68c1.7-51.8,21.2-75.4,28.5-94.3c26,11,37.7,29.6,50.6,52c2.7,4.1,5.4,8.5,8.1,13.3
	C189,161.9,190.3,164.1,191.5,166.4z M368.6,170.6c2.7-4.7,5.5-9.1,8.1-13.3c10.8-18.7,27.8-35.2,49-48.2c6.6-4.1,4.1,8.5,6.1,16
	c5.2,19.4,8.5,27.3,9.9,68.1l4.9,61.1c-9.3-13.2-34.8-46.7-81.7-77.1C366.1,175,367.4,172.8,368.6,170.6z"></path>
<path d="M273.6,452.5c-53.8,0-104.3-18.8-142.3-53c-3.3-3-3.5-8-0.6-11.3c3-3.3,8-3.5,11.3-0.6c35,31.5,81.7,48.9,131.6,48.9
	s96.6-17.4,131.6-48.9c2.4-2.2,6-2.7,8.9-1.2l42.5,21.2c4,2,5.6,6.8,3.6,10.7s-6.8,5.6-10.7,3.6l-37.7-18.8
	C374.3,435,325.4,452.5,273.6,452.5z M308,406.6c-12.6,0-24.8-4.5-34.4-12.5c-9.6,8-21.8,12.5-34.4,12.5
	c-29.7,0-53.9-24.2-53.9-53.9c0-4.4,3.6-8,8-8h22.9c4.4,0,8,3.6,8,8c0,8.2,6.7,14.9,14.9,14.9c5.8,0,11-3.4,13.4-8.4l-23.8-23.8
	c-2.3-2.3-3-5.7-1.7-8.7c1.2-3,4.2-4.9,7.4-4.9h78.3c3.2,0,6.2,1.9,7.4,4.9s0.6,6.4-1.7,8.7l-23.8,23.8c2.5,5,7.6,8.4,13.4,8.4
	c8.2,0,14.9-6.7,14.9-14.9c0-4.4,3.6-8,8-8s8,3.6,8,8c0,17.1-13.9,30.9-30.9,30.9c-14.8,0-27.6-10.6-30.4-25.1
	c-0.5-2.6,0.3-5.3,2.2-7.2l13.6-13.6h-39.7l13.6,13.6c1.9,1.9,2.7,4.6,2.2,7.2c-2.8,14.5-15.6,25.1-30.4,25.1
	c-14.3,0-26.4-9.7-29.9-22.9h-7.1c3.7,17.1,18.9,29.9,37,29.9c10.9,0,21.2-4.7,28.4-12.9c1.5-1.7,3.7-2.7,6-2.7s4.5,1,6,2.7
	c7.2,8.2,17.6,12.9,28.4,12.9c20.9,0,37.9-17,37.9-37.9c0-4.4,3.6-8,8-8s8,3.6,8,8C361.9,382.4,337.7,406.6,308,406.6z M83.9,402.2
	c-2.9,0-5.8-1.6-7.2-4.4c-2-4-0.4-8.8,3.6-10.7l27-13.5c-2.9-3.8-5.6-7.6-8.2-11.6c-2.4-3.7-1.4-8.7,2.3-11.1
	c3.7-2.4,8.7-1.4,11.1,2.3c4,6.2,8.5,12.2,13.4,17.8c1.6,1.9,2.3,4.4,1.8,6.8c-0.5,2.4-2.1,4.5-4.3,5.6l-35.9,18
	C86.4,402,85.1,402.2,83.9,402.2z M427.3,384.3c-1.8,0-3.7-0.6-5.2-1.9c-3.4-2.9-3.8-7.9-0.9-11.3c4.8-5.7,9.3-11.7,13.4-17.8
	c2.2-3.4,6.6-4.6,10.3-2.8l33.6,16.8c4,2,5.6,6.8,3.6,10.7s-6.8,5.6-10.7,3.6L444,367.9c-3.3,4.7-6.9,9.2-10.6,13.6
	C431.8,383.3,429.6,384.3,427.3,384.3z M62,361.9c-2.9,0-5.8-1.6-7.2-4.4c-2-4-0.4-8.8,3.6-10.7l25.7-12.8
	c-6.5-15.1-10.9-30.9-13.3-47.3l-0.6-4.3c-0.3-1.9,0.2-3.9,1.2-5.5l2.4-3.6c0.8-1.2,7.9-12,19.8-26.7c0.4-64,5.7-108,16.4-134.3
	c8.5-21.1,20.8-31.3,37.5-31.3c29.5,0,58.4,34.2,78.4,65.1c16-5.2,32.1-7.8,47.7-7.8c15.7,0,31.7,2.6,47.7,7.8
	c20.1-30.9,48.9-65.1,78.4-65.1c16.7,0,28.9,10.3,37.5,31.3c10.6,26.3,16,70.2,16.4,134.3c11.5,14.2,18.5,24.7,19.8,26.7l2.4,3.6
	c1.1,1.6,1.5,3.6,1.2,5.5l-0.6,4.3c-2.7,19-8.3,37.3-16.6,54.5c-1.9,4-6.7,5.6-10.7,3.7c-4-1.9-5.6-6.7-3.7-10.7
	c7.6-15.7,12.7-32.4,15.1-49.8l0.2-1.3L460,282c-1.3-2-8.5-12.9-20.6-27.5c-1.2-1.4-1.8-3.2-1.8-5c-0.4-101.2-13.1-152.5-37.9-152.5
	c-18.4,0-43.2,23-68.3,63c-2,3.2-6,4.6-9.5,3.3c-16.3-5.9-32.6-8.9-48.4-8.9c-15.8,0-32.1,3-48.4,8.9c-3.5,1.3-7.5-0.1-9.5-3.3
	c-25-40-49.9-63-68.3-63c-24.8,0-37.5,51.3-37.9,152.5c0,1.8-0.6,3.6-1.8,5c-12.5,15.3-19.8,26.3-20.6,27.5l-0.7,1.1l0.2,1.3
	c2.5,17.4,7.6,34.1,15.1,49.8c1.9,3.9,0.3,8.7-3.6,10.6l-32.6,16.3C64.4,361.6,63.2,361.9,62,361.9z M319.4,316.5
	c-6.2,0-20.6-2.6-20.6-26.9c0-24.3,14.4-26.9,20.6-26.9s20.6,2.6,20.6,26.9C340.1,313.9,325.6,316.5,319.4,316.5z M319.4,278.7
	c-1.9,0-2.3,0.6-2.6,0.9c-0.6,0.8-2,3.3-2,10c0,10.9,3.1,10.9,4.6,10.9s4.6,0,4.6-10.9c0-6.7-1.4-9.2-2-10
	C321.8,279.2,321.3,278.7,319.4,278.7z M227.7,316.5c-6.2,0-20.6-2.6-20.6-26.9c0-24.3,14.4-26.9,20.6-26.9
	c6.2,0,20.6,2.6,20.6,26.9C248.3,313.9,233.9,316.5,227.7,316.5z M227.7,278.7c-1.9,0-2.3,0.6-2.6,0.9c-0.6,0.8-2,3.3-2,10
	c0,6.7,1.4,9.2,2,10c0.3,0.4,0.7,0.9,2.6,0.9c1.9,0,2.3-0.6,2.6-0.9c0.6-0.8,2-3.3,2-10c0-6.7-1.4-9.2-2-10
	C230,279.2,229.6,278.7,227.7,278.7z M422.2,231.2c-2.1,0-4.2-0.8-5.7-2.4c-17.8-18.4-36.3-33.7-54.9-45.6
	c-3.7-2.4-4.8-7.3-2.4-11.1s7.3-4.8,11.1-2.4c19.7,12.6,39.1,28.7,57.8,48c3.1,3.2,3,8.2-0.2,11.3
	C426.3,230.4,424.3,231.2,422.2,231.2z M124.9,231.2c-2,0-4-0.8-5.6-2.3c-3.2-3.1-3.2-8.1-0.2-11.3c18.7-19.2,38.1-35.4,57.8-48
	c3.7-2.4,8.7-1.3,11.1,2.4s1.3,8.7-2.4,11.1c-18.6,11.9-37.1,27.3-54.9,45.6C129.1,230.4,127,231.2,124.9,231.2z"></path>
<g>
	<path fill="#FFA4ED" class="primary-color" d="M23.3,166.4h35.2v21.6H23.3V166.4z"></path>
	<path fill="#DB81DA" class="secondary-color" d="M23.3,120.2h35.2v22.5H23.3V120.2z M23.3,51.3h77.3V28.8H23.3V51.3z M23.3,96.5h77.3V75H23.3V96.5z"></path>
</g>
<path d="M82.8,458.7c0,4.4-3.6,8-8,8H59v15.8c0,4.4-3.6,8-8,8s-8-3.6-8-8v-15.8H27.2c-4.4,0-8-3.6-8-8s3.6-8,8-8H43v-15.8
	c0-4.4,3.6-8,8-8s8,3.6,8,8v15.8h15.8C79.2,450.7,82.8,454.3,82.8,458.7z M278.2,45.9c-5.9,0-10.8,4.8-10.8,10.8
	c0,5.9,4.8,10.8,10.8,10.8S289,62.6,289,56.7C289,50.7,284.2,45.9,278.2,45.9z M433.3,56.7c0-5,4.1-9,9-9s9,4.1,9,9s-4.1,9-9,9
	S433.3,61.7,433.3,56.7z M385.5,56.7c0,5-4.1,9-9,9s-9-4.1-9-9s4.1-9,9-9S385.5,51.7,385.5,56.7z M478.8,238.3h-43c-4.4,0-8,3.6-8,8
	s3.6,8,8,8h43c4.4,0,8-3.6,8-8S483.2,238.3,478.8,238.3z"></path>
</svg>