<svg version="1.1" id="Layer_1" xmlns="http://www.w3.org/2000/svg" xmlns:xlink="http://www.w3.org/1999/xlink" x="0px" y="0px" viewBox="0 0 512 512" enable-background="new 0 0 512 512" xml:space="preserve">
<linearGradient id="SVGID_1_" gradientUnits="userSpaceOnUse" x1="375.8357" y1="458.7009" x2="379.2462" y2="215.4167" class="gradient-element">
	<stop offset="0" class="primary-color-gradient" style="stop-color: #FFA4ED"></stop>
	<stop offset="1" class="secondary-color-gradient" style="stop-color: #DB81DA"></stop>
</linearGradient>
<path fill="url(#SVGID_1_)" d="M398.8,379.6l18.6,92.8L354.5,441V346c-19.4,0-35.1-15.7-35.1-35.1c0-19.4,15.7-35.1,35.1-35.1v-46.8
	c45.1,0,81.8,36.7,81.8,81.8c0,22.9-9.5,43.6-24.8,58.5C407.7,373.1,403.4,376.6,398.8,379.6z"></path>
<path d="M109,190.3c-4.4,0-8-3.6-8-8s3.6-8,8-8h296v-15.4c0-4.4,3.6-8,8-8s8,3.6,8,8v23.4c0,4.4-3.6,8-8,8H109z M407.7,383.2
	c3.3-2.4,6.4-5.1,9.4-8c17.6-17,27.2-39.8,27.2-64.2c0-49.5-40.3-89.8-89.8-89.8s-89.8,40.3-89.8,89.8c0,5,0.3,9.2,1.1,13.1
	c0.8,4.3,5,7.2,9.3,6.4c4.3-0.8,7.2-5,6.4-9.3c-0.5-3-0.8-6.3-0.8-10.3c0-40.7,33.1-73.8,73.8-73.8s73.8,33.1,73.8,73.8
	c0,20-7.9,38.8-22.4,52.7c-3.7,3.5-7.5,6.6-11.5,9.2c-2.8,1.8-4.2,5.1-3.5,8.3l15.4,76.8l-48.3-24.1c-2.3-1.1-4.9-1.1-7.2,0
	l-48.3,24.1l15.3-76.7c0.6-3.2-0.7-6.4-3.4-8.2c-3.7-2.5-7.3-5.5-11.4-9.4c-1.5-1.4-3.5-2.3-5.6-2.3H46.8v-75.6c0-4.4-3.6-8-8-8
	s-8,3.6-8,8v83.6c0,4.4,3.6,8,8,8h255.6c2.3,2.1,4.6,4,6.8,5.8l-17.5,87.7c-0.6,3,0.6,6.1,3,7.9c2.4,1.9,5.7,2.2,8.4,0.8l59.3-29.7
	l59.3,29.7c1.1,0.6,2.4,0.8,3.6,0.8c1.7,0,3.4-0.6,4.9-1.6c2.4-1.9,3.6-4.9,3-7.9L407.7,383.2z M483.1,80.8H38.8c-4.4,0-8,3.6-8,8
	v163.8c0,4.4,3.6,8,8,8s8-3.6,8-8V96.8h428.3v264.6h-28.4c-4.4,0-8,3.6-8,8s3.6,8,8,8h36.4c4.4,0,8-3.6,8-8V88.8
	C491.1,84.4,487.6,80.8,483.1,80.8z M352.1,377.5c0.9,0,1.7-0.1,2.6-0.1c17.7-0.3,34.4-7.2,46.8-19.6c12.6-12.5,19.5-29.1,19.5-46.8
	c0-36.6-29.8-66.5-66.5-66.5s-66.5,29.8-66.5,66.5c0,4.4,3.6,8,8,8s8-3.6,8-8c0-27.8,22.6-50.5,50.5-50.5s50.5,22.6,50.5,50.5
	c0,27.9-22.2,50-50.6,50.5c-0.9,0-1.9,0-2.9,0.1c-3.8,0.1-7.8,0.3-13.7-0.9c-0.8-0.2-1.6-0.2-2.4-0.1h0c0,0,0,0,0,0c0,0,0,0,0,0
	c0,0,0,0,0,0c0,0,0,0,0,0c0,0,0,0,0,0c0,0,0,0,0,0c0,0,0,0,0,0c-1.3,0.2-2.6,0.7-3.6,1.4c0,0,0,0,0,0c0,0,0,0,0,0c0,0,0,0,0,0
	c0,0,0,0,0,0c0,0,0,0,0,0c0,0,0,0,0,0c0,0,0,0,0,0c0,0,0,0,0,0s0,0,0,0c0,0,0,0,0,0s0,0,0,0c0,0,0,0,0,0c0,0,0,0,0,0c0,0,0,0,0,0
	c0,0,0,0,0,0c0,0,0,0,0,0c0,0,0,0,0,0c0,0,0,0,0,0c0,0,0,0,0,0c0,0,0,0,0,0c-0.9,0.6-1.6,1.5-2.1,2.4c0,0,0,0,0,0c0,0,0,0,0,0
	c0,0,0,0,0,0c0,0,0,0,0,0c0,0,0,0,0,0c0,0,0,0,0,0c-0.4,0.7-0.7,1.4-0.8,2.2c0,0,0,0,0,0c0,0,0,0,0,0c0,0,0,0,0,0c0,0,0,0,0,0
	s0,0,0,0c0,0,0,0,0,0c0,0,0,0,0,0c0,0,0,0,0,0c0,0,0,0,0,0c0,0,0,0,0,0c0,0,0,0,0,0.1L316,428.5c-0.6,3,0.6,6.1,3,7.9
	c1.4,1.1,3.1,1.6,4.9,1.6c1.2,0,2.4-0.3,3.6-0.8l27.1-13.5l27.1,13.5c2.7,1.4,6,1.1,8.4-0.8c2.4-1.9,3.6-4.9,3-7.9l-8.1-40.6
	c-0.9-4.3-5.1-7.1-9.4-6.3c-4.3,0.9-7.1,5.1-6.3,9.4l4.9,24.6l-16-8c-2.3-1.1-4.9-1.1-7.2,0l-16,8l7.7-38.2
	C346.4,377.7,349.4,377.6,352.1,377.5z"></path>
<path fill="#DB81DA" class="secondary-color" d="M38.2,427.7l60.9,60.9H38.2V427.7z"></path>
<path fill="#000000" d="M201.5,437.8c3.1,3.1,3.1,8.2,0,11.3c-1.6,1.6-3.6,2.3-5.7,2.3s-4.1-0.8-5.7-2.3l-2.7-2.7l-2.7,2.7
	c-1.6,1.6-3.6,2.3-5.7,2.3c-2,0-4.1-0.8-5.7-2.3c-3.1-3.1-3.1-8.2,0-11.3l2.7-2.7l-2.7-2.7c-3.1-3.1-3.1-8.2,0-11.3
	c3.1-3.1,8.2-3.1,11.3,0l2.7,2.7l2.7-2.7c3.1-3.1,8.2-3.1,11.3,0c3.1,3.1,3.1,8.2,0,11.3l-2.7,2.7L201.5,437.8z M104.5,277.8H32.8
	c-4.4,0-8,3.6-8,8s3.6,8,8,8h71.6c4.4,0,8-3.6,8-8S108.9,277.8,104.5,277.8z M86.3,254.9c0-4.4-3.6-8-8-8H17.6c-4.4,0-8,3.6-8,8
	s3.6,8,8,8h60.7C82.8,262.9,86.3,259.4,86.3,254.9z M141.2,30.4H64c-4.4,0-8,3.6-8,8s3.6,8,8,8h77.2c4.4,0,8-3.6,8-8
	S145.6,30.4,141.2,30.4z M187.4,49.2c5.9,0,10.8-4.8,10.8-10.8s-4.8-10.8-10.8-10.8c-5.9,0-10.8,4.8-10.8,10.8
	S181.5,49.2,187.4,49.2z"></path>
</svg>