<svg version="1.1" id="Layer_1" xmlns="http://www.w3.org/2000/svg" xmlns:xlink="http://www.w3.org/1999/xlink" x="0px" y="0px" viewBox="0 0 512 512" enable-background="new 0 0 512 512" xml:space="preserve">
<linearGradient id="SVGID_1_" gradientUnits="userSpaceOnUse" x1="356.7788" y1="341.1084" x2="324.6996" y2="71.643" class="gradient-element">
	<stop offset="0" class="primary-color-gradient" style="stop-color: #FFA4ED"></stop>
	<stop offset="1" class="secondary-color-gradient" style="stop-color: #DB81DA"></stop>
</linearGradient>
<path fill="url(#SVGID_1_)" d="M404.5,101.6h-92.5c-15,0-28.2,9.7-32.7,24c-9.9,31.9-18.5,70-18.5,107.1c0,57.6,10.1,86.8,17.3,99.1
	c10.5,4.1,21,6.4,30.4,7.5c5.5,0.6,19,0.5,23.8,0c38.4-4.3,95.4-30.2,95.4-106.6C427.6,184.9,416.3,137.7,404.5,101.6z M322.1,198.6
	c-8.9,1.1-16.5-6.4-15.3-15.3c0.8-6.1,5.7-11,11.8-11.7c8.9-1.1,16.4,6.4,15.3,15.3C333.1,192.9,328.2,197.8,322.1,198.6z
	 M345.9,246.2c-8.9,1.1-16.4-6.4-15.3-15.3c0.8-6.1,5.7-11,11.8-11.8c8.9-1.1,16.4,6.4,15.3,15.3C357,240.6,352,245.5,345.9,246.2z
	 M345.9,150.9c-8.9,1.1-16.4-6.4-15.3-15.3c0.8-6.1,5.7-11,11.8-11.8c8.9-1.1,16.4,6.4,15.3,15.3C357,145.2,352,150.1,345.9,150.9z"></path>
<path d="M380,491.1H260.7c-4.4,0-8-3.6-8-8v-23.8c0-4.4,3.6-8,8-8h39.7v-105c-15.5-2.6-39-9.4-59.3-27.2c-23.9-20.8-36-49.9-36-86.4
	c0-98.8,47.8-195.6,49.8-199.7l3.2-6.5c1.9-4,6.7-5.6,10.7-3.7c4,1.9,5.6,6.7,3.7,10.7l-3.2,6.6c-2,4-48.2,97.6-48.2,192.6
	c0,84.5,73.5,97,88.3,98.6c4,0.5,7.1,3.9,7.1,8v119.9c0,4.4-3.6,8-8,8h-39.7v7.8H372v-7.8h-39.7c-4.4,0-8-3.6-8-8V415
	c0-4.4,3.6-8,8-8s8,3.6,8,8v36.3H380c4.4,0,8,3.6,8,8v23.8C388,487.5,384.4,491.1,380,491.1z M340.3,388.2v-42
	c15.5-2.6,39-9.4,59.3-27.2c23.9-20.8,36-49.9,36-86.4c0-98.8-47.8-195.6-49.8-199.6l-3.2-6.6c-1.3-2.7-4.1-4.5-7.2-4.5h-60.3
	c-4.4,0-8,3.6-8,8s3.6,8,8,8h55.3l1,2.1c2,3.9,48.2,97.5,48.2,192.6c0,84.5-73.5,97-88.3,98.6c-4,0.5-7.1,3.9-7.1,8v48.9
	c0,4.4,3.6,8,8,8S340.3,392.7,340.3,388.2z"></path>
<g>
	<path fill="#DB81DA" class="secondary-color" d="M174.5,487.3H24.1v-25.7h150.4V487.3z"></path>
	<path fill="#DB81DA" class="secondary-color" d="M76.9,361.3H30.5v-21.6h46.3V361.3z"></path>
</g>
<path d="M154.7,405.8c0,4.4-3.6,8-8,8h-93c-4.4,0-8-3.6-8-8s3.6-8,8-8h93C151.1,397.8,154.7,401.3,154.7,405.8z M90.6,93.7H148
	c4.4,0,8-3.6,8-8s-3.6-8-8-8H90.6c-4.4,0-8,3.6-8,8S86.2,93.7,90.6,93.7z M177.5,283.9H90.6c-4.4,0-8,3.6-8,8s3.6,8,8,8h86.8
	c4.4,0,8-3.6,8-8S181.9,283.9,177.5,283.9z M217.4,48.8c-3.5,3.5-3.5,9.3,0,12.8c3.5,3.5,9.3,3.5,12.8,0c3.5-3.5,3.5-9.3,0-12.8
	C226.6,45.3,220.9,45.3,217.4,48.8z M195.9,70.4c-3.5,3.5-3.5,9.2,0,12.7c3.5,3.5,9.2,3.5,12.7,0s3.5-9.2,0-12.7
	C205.1,66.9,199.4,66.9,195.9,70.4z M196.4,27.8c-3.5,3.5-3.5,9.3,0,12.8c3.5,3.5,9.3,3.5,12.8,0c3.5-3.5,3.5-9.3,0-12.8
	C205.7,24.3,199.9,24.3,196.4,27.8z M457.6,122.1c4.4,0,8-3.6,8-8s-3.6-8-8-8c-5.7,0-10.4-4.7-10.4-10.4s4.7-10.4,10.4-10.4
	c4.4,0,8-3.6,8-8s-3.6-8-8-8c-14.6,0-26.4,11.8-26.4,26.4S443.1,122.1,457.6,122.1z M61.2,173.6h3.9v3.9c0,4.4,3.6,8,8,8s8-3.6,8-8
	v-3.9H85c4.4,0,8-3.6,8-8s-3.6-8-8-8h-3.9v-3.9c0-4.4-3.6-8-8-8s-8,3.6-8,8v3.9h-3.9c-4.4,0-8,3.6-8,8S56.8,173.6,61.2,173.6z
	 M458.8,289.1c-4.2-1.4-8.7,1-10.1,5.2c-8.2,25.5-26,46.3-50,58.6l-12.6,6.5c-3.9,2-5.5,6.8-3.5,10.8c1.4,2.8,4.2,4.4,7.1,4.4
	c1.2,0,2.5-0.3,3.6-0.9l12.6-6.5c27.8-14.3,48.4-38.4,57.9-67.9C465.3,294.9,463,290.4,458.8,289.1z M33.1,25c-4.9,0-9,4-9,9
	s4,9,9,9s9-4,9-9S38,25,33.1,25z M466.3,174.5h-57.4c-4.4,0-8,3.6-8,8s3.6,8,8,8h57.4c4.4,0,8-3.6,8-8S470.7,174.5,466.3,174.5z"></path>
</svg>