<svg version="1.1" id="Layer_1" xmlns="http://www.w3.org/2000/svg" xmlns:xlink="http://www.w3.org/1999/xlink" x="0px" y="0px" viewBox="0 0 512 512" enable-background="new 0 0 512 512" xml:space="preserve">
<linearGradient id="SVGID_1_" gradientUnits="userSpaceOnUse" x1="278.318" y1="211.8967" x2="279.4548" y2="163.0125" class="gradient-element">
	<stop offset="0" class="primary-color-gradient" style="stop-color: #FFA4ED"></stop>
	<stop offset="1" class="secondary-color-gradient" style="stop-color: #DB81DA"></stop>
</linearGradient>
<path fill="url(#SVGID_1_)" d="M472.2,210.2H85.3V176c0-6.3,5.1-11.4,11.4-11.4h375.5V210.2z"></path>
<path d="M397.9,202.2c4.4,0,8,3.6,8,8s-3.6,8-8,8h-16.8c-4.4,0-8-3.6-8-8s3.6-8,8-8H397.9z M244.6,247.7h-22.8c-4.4,0-8,3.6-8,8
	v22.8c0,4.4,3.6,8,8,8s8-3.6,8-8v-14.8h14.8c4.4,0,8-3.6,8-8S249,247.7,244.6,247.7z M433.7,202.2c-4.4,0-8,3.6-8,8s3.6,8,8,8h38.5
	c4.4,0,8-3.6,8-8v-56.9c0-23.2-18.9-42.1-42.1-42.1H73.9c-23.2,0-42.1,18.9-42.1,42.1v227.6c0,23.2,18.9,42.1,42.1,42.1h364.1
	c23.2,0,42.1-18.9,42.1-42.1V248.7c0-4.4-3.6-8-8-8s-8,3.6-8,8v132.1c0,14.4-11.7,26.1-26.1,26.1H73.9c-14.4,0-26.1-11.7-26.1-26.1
	V153.3c0-14.4,11.7-26.1,26.1-26.1h364.1c14.4,0,26.1,11.7,26.1,26.1v48.9H433.7z M335.6,202.2c-4.4,0-8,3.6-8,8s3.6,8,8,8h17.8
	c4.4,0,8-3.6,8-8s-3.6-8-8-8H335.6z M244.6,315.9h-22.8c-4.4,0-8,3.6-8,8v22.8c0,4.4,3.6,8,8,8s8-3.6,8-8v-14.8h14.8
	c4.4,0,8-3.6,8-8S249,315.9,244.6,315.9z M267.4,338.7c-4.4,0-8,3.6-8,8s3.6,8,8,8c29.5,0,53.5-24,53.5-53.5
	c0-29.5-24-53.5-53.5-53.5c-4.4,0-8,3.6-8,8s3.6,8,8,8c20.7,0,37.5,16.8,37.5,37.5C304.9,321.9,288.1,338.7,267.4,338.7z
	 M310.9,210.2c0-4.4-3.6-8-8-8H62.6c-4.4,0-8,3.6-8,8s3.6,8,8,8h240.3C307.3,218.2,310.9,214.6,310.9,210.2z"></path>
<g>
	<path fill="#FFA4ED" class="primary-color" d="M485.5,85.2l-60.9-60.9h60.9V85.2z"></path>
	<path fill="#DB81DA" class="secondary-color" d="M382.2,448.1h111.2v43.6H382.2V448.1z"></path>
	<path fill="#DB81DA" class="secondary-color" d="M335.6,448.1h30.9v43.6h-30.9V448.1z"></path>
</g>
<path fill="#000000" d="M449.6,283.1c0,4.4-3.6,8-8,8h-69.1c-4.4,0-8-3.6-8-8s3.6-8,8-8h69.1C446,275.1,449.6,278.6,449.6,283.1z
	 M487.8,240.7h-100c-4.4,0-8,3.6-8,8s3.6,8,8,8h100c4.4,0,8-3.6,8-8S492.2,240.7,487.8,240.7z M276.2,448.4
	c-5.9,0-10.8,4.8-10.8,10.8c0,5.9,4.8,10.8,10.8,10.8s10.8-4.8,10.8-10.8C286.9,453.2,282.1,448.4,276.2,448.4z M58.8,83.6V67.9
	h15.8c4.4,0,8-3.6,8-8s-3.6-8-8-8H58.8V36.1c0-4.4-3.6-8-8-8s-8,3.6-8,8v15.8H27c-4.4,0-8,3.6-8,8s3.6,8,8,8h15.8v15.8
	c0,4.4,3.6,8,8,8S58.8,88,58.8,83.6z M85.3,463h-3.9v-3.9c0-4.4-3.6-8-8-8s-8,3.6-8,8v3.9h-3.9c-4.4,0-8,3.6-8,8s3.6,8,8,8h3.9v3.9
	c0,4.4,3.6,8,8,8s8-3.6,8-8V479h3.9c4.4,0,8-3.6,8-8S89.7,463,85.3,463z M148.1,30h-3.9v-3.9c0-4.4-3.6-8-8-8s-8,3.6-8,8V30h-3.9
	c-4.4,0-8,3.6-8,8s3.6,8,8,8h3.9v3.9c0,4.4,3.6,8,8,8s8-3.6,8-8V46h3.9c4.4,0,8-3.6,8-8S152.5,30,148.1,30z M377.3,46.6
	c0-5.9-4.8-10.8-10.8-10.8s-10.8,4.8-10.8,10.8s4.8,10.8,10.8,10.8S377.3,52.5,377.3,46.6z"></path>
</svg>