<svg version="1.1" id="Layer_1" xmlns="http://www.w3.org/2000/svg" xmlns:xlink="http://www.w3.org/1999/xlink" x="0px" y="0px" viewBox="0 0 512 512" enable-background="new 0 0 512 512" xml:space="preserve">
<linearGradient id="SVGID_1_" gradientUnits="userSpaceOnUse" x1="336.6439" y1="447.4592" x2="336.6439" y2="92.2912" class="gradient-element">
	<stop offset="0" class="primary-color-gradient" style="stop-color: #FFA4ED"></stop>
	<stop offset="1" class="secondary-color-gradient" style="stop-color: #DB81DA"></stop>
</linearGradient>
<path fill="url(#SVGID_1_)" d="M189.2,354.6c284-39.1-72.8-281.1,87.4-288.9c114.3-5.6,207.6,73.5,207.6,163.9
	c0,90.4-93.1,163.9-207.6,163.9c-7.1,0-14.1-0.3-21-0.8L189.2,459V354.6"></path>
<path d="M174.5,372.1c-1.4,2.8-4.2,4.5-7.2,4.5c-1.2,0-2.4-0.3-3.5-0.8c-30.6-15.1-56.3-36.1-74.2-60.8C70.9,289,61,259.5,61,229.6
	c0-94.8,96.7-171.9,215.6-171.9c65.8,0,127.1,23.5,168.3,64.5c3.1,3.1,3.1,8.2,0,11.3c-3.1,3.1-8.2,3.1-11.3,0
	c-38.2-38.1-95.5-59.9-157.1-59.9C166.5,73.7,77,143.6,77,229.6c0,53.7,35.1,102.9,93.9,131.8C174.8,363.3,176.4,368.1,174.5,372.1z
	 M479.7,171.9c-1.8-4-6.5-5.8-10.6-4c-4,1.8-5.8,6.5-4,10.6c7.3,16.4,11.1,33.6,11.1,51.1c0,85.9-89.5,155.9-199.6,155.9
	c-6.8,0-13.6-0.3-20.4-0.8l-3.7-0.3l-55.3,55.3v-85.1c0-4.4-3.6-8-8-8s-8,3.6-8,8v123.7l77.5-77.5c6,0.4,12,0.6,17.9,0.6
	c118.9,0,215.6-77.1,215.6-171.9C492.1,209.8,487.9,190.4,479.7,171.9z M203.5,223.1c5.5,0,9.9,4.4,9.9,9.9s-4.4,9.9-9.9,9.9
	c-5.5,0-9.9-4.4-9.9-9.9S198.1,223.1,203.5,223.1z M149.5,223.1c5.5,0,9.9,4.4,9.9,9.9s-4.4,9.9-9.9,9.9s-9.9-4.4-9.9-9.9
	S144.1,223.1,149.5,223.1z M311.5,223.1c5.5,0,9.9,4.4,9.9,9.9s-4.4,9.9-9.9,9.9c-5.5,0-9.9-4.4-9.9-9.9S306.1,223.1,311.5,223.1z
	 M257.5,223.1c5.5,0,9.9,4.4,9.9,9.9s-4.4,9.9-9.9,9.9c-5.5,0-9.9-4.4-9.9-9.9S252.1,223.1,257.5,223.1z M419.5,223.1
	c5.5,0,9.9,4.4,9.9,9.9s-4.4,9.9-9.9,9.9c-5.5,0-9.9-4.4-9.9-9.9S414.1,223.1,419.5,223.1z M365.5,223.1c5.5,0,9.9,4.4,9.9,9.9
	s-4.4,9.9-9.9,9.9c-5.5,0-9.9-4.4-9.9-9.9S360.1,223.1,365.5,223.1z"></path>
<path fill="#DB81DA" class="secondary-color" d="M499.1,68.1L452,21h47.1V68.1z"></path>
<path d="M470.7,139.1h-67.8c-4.4,0-8-3.6-8-8s3.6-8,8-8h67.8c4.4,0,8,3.6,8,8S475.1,139.1,470.7,139.1z M444,173c0,4.4,3.6,8,8,8
	h33.9c4.4,0,8-3.6,8-8s-3.6-8-8-8H452C447.6,165,444,168.5,444,173z M76.4,107.6c4.4,0,8-3.6,8-8c0-8,6.5-14.5,14.5-14.5
	c4.4,0,8-3.6,8-8s-3.6-8-8-8c-16.8,0-30.5,13.7-30.5,30.5C68.4,104,72,107.6,76.4,107.6z M37.3,85.1c8,0,14.5,6.5,14.5,14.5
	c0,4.4,3.6,8,8,8s8-3.6,8-8c0-16.8-13.7-30.5-30.5-30.5c-4.4,0-8,3.6-8,8S32.9,85.1,37.3,85.1z M37.3,68.6
	c16.8,0,30.5-13.7,30.5-30.5c0-4.4-3.6-8-8-8s-8,3.6-8,8c0,8-6.5,14.5-14.5,14.5c-4.4,0-8,3.6-8,8S32.9,68.6,37.3,68.6z M98.9,68.6
	c4.4,0,8-3.6,8-8s-3.6-8-8-8c-8,0-14.5-6.5-14.5-14.5c0-4.4-3.6-8-8-8s-8,3.6-8,8C68.4,54.9,82.1,68.6,98.9,68.6z M484.8,441.4H469
	v-15.8c0-4.4-3.6-8-8-8s-8,3.6-8,8v15.8h-15.8c-4.4,0-8,3.6-8,8s3.6,8,8,8H453v15.8c0,4.4,3.6,8,8,8s8-3.6,8-8v-15.8h15.8
	c4.4,0,8-3.6,8-8S489.2,441.4,484.8,441.4z M371.4,449.4c0,5.5-4.4,9.9-9.9,9.9c-5.5,0-9.9-4.4-9.9-9.9s4.4-9.9,9.9-9.9
	C366.9,439.5,371.4,443.9,371.4,449.4z M311.4,449.4c0,5.5-4.4,9.9-9.9,9.9c-5.5,0-9.9-4.4-9.9-9.9s4.4-9.9,9.9-9.9
	C306.9,439.5,311.4,443.9,311.4,449.4z M177.2,33.3h-27.1c-4.4,0-8,3.6-8,8s3.6,8,8,8h27.1c4.4,0,8-3.6,8-8S181.6,33.3,177.2,33.3z
	 M55,476.6H27.9c-4.4,0-8,3.6-8,8s3.6,8,8,8H55c4.4,0,8-3.6,8-8S59.4,476.6,55,476.6z M114.2,391.9H40.4c-4.4,0-8,3.6-8,8s3.6,8,8,8
	h73.8c4.4,0,8-3.6,8-8S118.6,391.9,114.2,391.9z"></path>
</svg>