<svg version="1.1" id="Layer_1" xmlns="http://www.w3.org/2000/svg" xmlns:xlink="http://www.w3.org/1999/xlink" x="0px" y="0px" viewBox="0 0 512 512" enable-background="new 0 0 512 512" xml:space="preserve">
<linearGradient id="SVGID_1_" gradientUnits="userSpaceOnUse" x1="380.2643" y1="481.7372" x2="380.2643" y2="23.3733" class="gradient-element">
	<stop offset="0" class="primary-color-gradient" style="stop-color: #FFA4ED"></stop>
	<stop offset="1" class="secondary-color-gradient" style="stop-color: #DB81DA"></stop>
</linearGradient>
<path fill="url(#SVGID_1_)" d="M488.4,73.2L414.3,165c0,0.2,0,0.5,0,0.7v269.1c0,18-14.6,32.5-32.5,32.5h-77.2
	c-18,0-32.5-14.6-32.5-32.5V144.2c0-18,14.6-32.5,32.5-32.5h55.7c8.6,0,16.9,3.4,23,9.5l6.7,6.8c1.1,1.1,43.9-54.8,47-58.6
	l18.9-23.1l32.5,26.2C488.5,72.6,488.6,72.9,488.4,73.2z"></path>
<path fill="#DB81DA" class="secondary-color" d="M74.7,12.3L13.8,73.3V12.3H74.7z"></path>
<path d="M505.2,429.9c0,4.4-3.6,8-8,8h-15.8v15.8c0,4.4-3.6,8-8,8s-8-3.6-8-8v-15.8h-15.8c-4.4,0-8-3.6-8-8s3.6-8,8-8h15.8v-15.8
	c0-4.4,3.6-8,8-8s8,3.6,8,8v15.8h15.8C501.6,421.9,505.2,425.5,505.2,429.9z M459.6,204.4c5.9,0,10.8-4.8,10.8-10.8
	s-4.8-10.8-10.8-10.8c-5.9,0-10.8,4.8-10.8,10.8S453.6,204.4,459.6,204.4z M264.7,20.6H161.9c-4.4,0-8,3.6-8,8s3.6,8,8,8h102.8
	c4.4,0,8-3.6,8-8S269.2,20.6,264.7,20.6z M401.7,20.6H298.9c-4.4,0-8,3.6-8,8s3.6,8,8,8h102.8c4.4,0,8-3.6,8-8
	S406.2,20.6,401.7,20.6z M86.8,241.6h-43c-4.4,0-8,3.6-8,8s3.6,8,8,8h43c4.4,0,8-3.6,8-8S91.2,241.6,86.8,241.6z M73.8,221.6
	c0-4.4-3.6-8-8-8h-43c-4.4,0-8,3.6-8,8c0,4.4,3.6,8,8,8h43C70.2,229.6,73.8,226.1,73.8,221.6z M451,254v85c0,4.4,3.6,8,8,8
	s8-3.6,8-8v-85c0-4.4-3.6-8-8-8S451,249.6,451,254z"></path>
<path d="M351.2,182.8c0,4.4-3.6,8-8,8H224.6c-4.4,0-8-3.6-8-8v-23.7c0-4.4,3.6-8,8-8s8,3.6,8,8v15.7h110.5
	C347.6,174.8,351.2,178.3,351.2,182.8z M343.2,245.9H232.6v-15.7c0-4.4-3.6-8-8-8s-8,3.6-8,8v23.7c0,4.4,3.6,8,8,8h118.5
	c4.4,0,8-3.6,8-8S347.6,245.9,343.2,245.9z M343.2,317H232.6v-15.7c0-4.4-3.6-8-8-8s-8,3.6-8,8V325c0,4.4,3.6,8,8,8h118.5
	c4.4,0,8-3.6,8-8S347.6,317,343.2,317z M224.6,364.4c-4.4,0-8,3.6-8,8v23.7c0,4.4,3.6,8,8,8h118.5c4.4,0,8-3.6,8-8s-3.6-8-8-8H232.6
	v-15.7C232.6,368,229,364.4,224.6,364.4z M208.9,159.1c0-4.4-3.6-8-8-8h-23.7c-4.4,0-8,3.6-8,8s3.6,8,8,8h15.7v15.7c0,4.4,3.6,8,8,8
	s8-3.6,8-8V159.1z M208.9,230.2c0-4.4-3.6-8-8-8h-23.7c-4.4,0-8,3.6-8,8s3.6,8,8,8h15.7v15.7c0,4.4,3.6,8,8,8s8-3.6,8-8V230.2z
	 M208.9,301.3c0-4.4-3.6-8-8-8h-23.7c-4.4,0-8,3.6-8,8s3.6,8,8,8h15.7V325c0,4.4,3.6,8,8,8s8-3.6,8-8V301.3z M200.9,404.1
	c4.4,0,8-3.6,8-8v-23.7c0-4.4-3.6-8-8-8h-23.7c-4.4,0-8,3.6-8,8s3.6,8,8,8h15.7v15.7C192.9,400.5,196.5,404.1,200.9,404.1z
	 M388.4,205c0.1,0,0.3,0,0.4,0c2.3-0.1,4.4-1.2,5.8-3L495,77.8c2.8-3.4,2.2-8.4-1.2-11.2l-32.7-26.8c-3.4-2.8-8.5-2.3-11.3,1.1
	c-0.1,0.1-0.2,0.2-0.2,0.3l-45.3,56l-38.7-38.7c-1.5-1.5-3.5-2.3-5.7-2.3H106.1c-4.4,0-8,3.6-8,8v403c0,4.4,3.6,8,8,8h308.2
	c4.4,0,8-3.6,8-8V216c0-4.4-3.6-8-8-8s-8,3.6-8,8v243.3H114.1v-387h242.6l37.5,37.5l-9.9,12.2L363,100.7c-3.1-3.1-8.2-3.1-11.3,0
	l-10,10c-3.1,3.1-3.1,8.2,0,11.3c3.1,3.1,8.2,3.1,11.3,0l4.3-4.3l21.9,21.9c1.6,1.6,3.8,2.4,6.1,2.3c2.3-0.1,4.4-1.2,5.8-3l66-81.7
	l20.3,16.6l-89.8,111.1l-54.5-54.5c-3.1-3.1-8.2-3.1-11.3,0c-3.1,3.1-3.1,8.2,0,11.3l60.8,60.7C384.2,204.2,386.3,205,388.4,205z"></path>
</svg>