<svg version="1.1" id="Layer_1" xmlns="http://www.w3.org/2000/svg" xmlns:xlink="http://www.w3.org/1999/xlink" x="0px" y="0px" viewBox="0 0 512 512" enable-background="new 0 0 512 512" xml:space="preserve">
<linearGradient id="SVGID_1_" gradientUnits="userSpaceOnUse" x1="311.245" y1="418.6947" x2="309.1064" y2="221.9423" class="gradient-element">
	<stop offset="0" class="primary-color-gradient" style="stop-color: #FFA4ED"></stop>
	<stop offset="1" class="secondary-color-gradient" style="stop-color: #DB81DA"></stop>
</linearGradient>
<path fill="url(#SVGID_1_)" d="M490.9,265v115.3c0,14.7-11.9,26.7-26.7,26.7h-308c-14.7,0-26.7-11.9-26.7-26.7V265
	c0-14.7,11.9-26.7,26.7-26.7h308C478.9,238.3,490.9,250.3,490.9,265z"></path>
<path d="M346.3,222.2h-24.1c-4.4,0-8-3.6-8-8s3.6-8,8-8h24.1c4.4,0,8,3.6,8,8S350.8,222.2,346.3,222.2z M402.5,214.2
	c0-4.4-3.6-8-8-8h-24.1c-4.4,0-8,3.6-8,8s3.6,8,8,8h24.1C398.9,222.2,402.5,218.7,402.5,214.2z M450.7,214.2c0-4.4-3.6-8-8-8h-24.1
	c-4.4,0-8,3.6-8,8s3.6,8,8,8h24.1C447.1,222.2,450.7,218.7,450.7,214.2z M450.7,358.8c0-4.4-3.6-8-8-8h-96.4c-4.4,0-8,3.6-8,8
	s3.6,8,8,8h96.4C447.1,366.8,450.7,363.2,450.7,358.8z M221.8,334.7c0-4.4-3.6-8-8-8H81.4c-4.4,0-8,3.6-8,8s3.6,8,8,8h132.5
	C218.3,342.7,221.8,339.1,221.8,334.7z M354.3,286.5c0-4.4-3.6-8-8-8h-265c-4.4,0-8,3.6-8,8s3.6,8,8,8h265
	C350.8,294.5,354.3,290.9,354.3,286.5z M258,214.2c0-4.4-3.6-8-8-8H81.4c-4.4,0-8,3.6-8,8s3.6,8,8,8H250
	C254.4,222.2,258,218.7,258,214.2z M450.7,214.2c0-4.4-3.6-8-8-8h-24.1c-4.4,0-8,3.6-8,8s3.6,8,8,8h24.1
	C447.1,222.2,450.7,218.7,450.7,214.2z M402.5,214.2c0-4.4-3.6-8-8-8h-24.1c-4.4,0-8,3.6-8,8s3.6,8,8,8h24.1
	C398.9,222.2,402.5,218.7,402.5,214.2z M354.3,214.2c0-4.4-3.6-8-8-8h-24.1c-4.4,0-8,3.6-8,8s3.6,8,8,8h24.1
	C350.8,222.2,354.3,218.7,354.3,214.2z M258,214.2c0-4.4-3.6-8-8-8H81.4c-4.4,0-8,3.6-8,8s3.6,8,8,8H250
	C254.4,222.2,258,218.7,258,214.2z M498.9,407V142c0-4.4-3.6-8-8-8H33.2c-4.4,0-8,3.6-8,8v48.2c0,4.4,3.6,8,8,8s8-3.6,8-8V150h441.7
	v249H41.2V238.3c0-4.4-3.6-8-8-8s-8,3.6-8,8V407c0,4.4,3.6,8,8,8h457.7C495.3,415,498.9,411.4,498.9,407z M450.7,214.2
	c0-4.4-3.6-8-8-8h-24.1c-4.4,0-8,3.6-8,8s3.6,8,8,8h24.1C447.1,222.2,450.7,218.7,450.7,214.2z M402.5,214.2c0-4.4-3.6-8-8-8h-24.1
	c-4.4,0-8,3.6-8,8s3.6,8,8,8h24.1C398.9,222.2,402.5,218.7,402.5,214.2z M354.3,214.2c0-4.4-3.6-8-8-8h-24.1c-4.4,0-8,3.6-8,8
	s3.6,8,8,8h24.1C350.8,222.2,354.3,218.7,354.3,214.2z M258,214.2c0-4.4-3.6-8-8-8H81.4c-4.4,0-8,3.6-8,8s3.6,8,8,8H250
	C254.4,222.2,258,218.7,258,214.2z"></path>
<g>
	<path fill="#DB81DA" class="secondary-color" d="M321.7,64.1V17.8h21.6v46.3H321.7z"></path>
	<path fill="#DB81DA" class="secondary-color" d="M366.2,64.1V17.8h22.5v46.3H366.2z M496.3,64.4V17.6h-88.6v46.8H496.3z"></path>
</g>
<path d="M70.8,472.3c3.1,3.1,3.1,8.2,0,11.3c-5,5-11.6,7.7-18.7,7.7s-13.7-2.7-18.7-7.7c-10.3-10.3-10.3-27,0-37.3
	c3.1-3.1,8.2-3.1,11.3,0c3.1,3.1,3.1,8.2,0,11.3c-4.1,4.1-4.1,10.6,0,14.7c2,2,4.6,3,7.3,3s5.4-1.1,7.3-3
	C62.6,469.2,67.7,469.2,70.8,472.3z M481.8,474c-5,0-9,4.1-9,9s4.1,9,9,9s9-4.1,9-9S486.8,474,481.8,474z M33.7,41.9c5,0,9-4.1,9-9
	s-4.1-9-9-9s-9,4.1-9,9S28.7,41.9,33.7,41.9z M361.4,95.8c0-4.4-3.6-8-8-8h-86.8c-4.4,0-8,3.6-8,8s3.6,8,8,8h86.8
	C357.9,103.8,361.4,100.2,361.4,95.8z M377.7,475.1h-86.8c-4.4,0-8,3.6-8,8s3.6,8,8,8h86.8c4.4,0,8-3.6,8-8S382.1,475.1,377.7,475.1
	z"></path>
</svg>