<svg version="1.1" id="Layer_1" xmlns="http://www.w3.org/2000/svg" xmlns:xlink="http://www.w3.org/1999/xlink" x="0px" y="0px" viewBox="0 0 512 512" enable-background="new 0 0 512 512" xml:space="preserve">
<g>
	<path fill="#DB81DA" class="secondary-color" d="M19.1,33.6l60.8,61L19,94.5L19.1,33.6z M249.6,18.7l0,15.4l237.1,0.3l0-15.4L249.6,18.7z"></path>
	<path fill="#FFA4ED" class="primary-color" d="M423.8,69.5l0-14.6l61.1,0.1l0,14.6L423.8,69.5z M397.7,69.4l0-14.6l-61.1-0.1l0,14.6L397.7,69.4z"></path>
	<path fill="#DB81DA" class="secondary-color" d="M421.2,478.1l0.1-61.1l61.1,0.1l-0.1,61.1L421.2,478.1z"></path>
</g>
<path d="M164.3,25C164.3,25,164.3,25,164.3,25c-4.9,0-8.8,4-8.9,8.8c0,4.9,4,8.8,8.8,8.9c0,0,0,0,0,0c2.4,0,4.6-0.9,6.2-2.6
	c1.7-1.7,2.6-3.9,2.6-6.3c0-2.4-0.9-4.6-2.6-6.3S166.7,25,164.3,25z M150.7,59.1C150.7,59.1,150.7,59.1,150.7,59.1
	c-2.4,0-4.6,0.9-6.3,2.6c-1.7,1.7-2.6,3.9-2.6,6.3c0,4.9,4,8.8,8.8,8.9c0,0,0,0,0,0c2.4,0,4.6-0.9,6.2-2.6c1.7-1.7,2.6-3.9,2.6-6.3
	c0-2.4-0.9-4.6-2.6-6.3C155.3,60,153.1,59.1,150.7,59.1z M212.7,68.3C212.7,68.3,212.7,68.3,212.7,68.3c-4.9,0-8.8,4-8.9,8.8
	c0,4.9,4,8.8,8.8,8.8c0,0,0,0,0,0c2.4,0,4.6-0.9,6.2-2.6c1.7-1.7,2.6-3.9,2.6-6.3c0-2.4-0.9-4.6-2.6-6.2
	C217.3,69.3,215.1,68.3,212.7,68.3z M442.7,317.3c0,4.4-3.6,8-8,8c0,0,0,0,0,0l-88.8-0.1c-4.4,0-8-3.6-8-8c0-4.4,3.6-8,8-8
	c0,0,0,0,0,0l88.8,0.1C439.1,309.3,442.7,312.9,442.7,317.3z M423.5,371.7c0,4.4-3.6,8-8,8c0,0,0,0,0,0l-175.4-0.2c-4.4,0-8-3.6-8-8
	c0-4.4,3.6-8,8-8c0,0,0,0,0,0l175.4,0.2C419.9,363.7,423.5,367.3,423.5,371.7z M38.9,186.9C38.9,186.9,38.9,186.9,38.9,186.9
	c-2.4,0-4.6,0.9-6.3,2.6c-1.7,1.7-2.6,3.9-2.6,6.3c0,4.9,4,8.8,8.8,8.9c0,0,0,0,0,0c2.4,0,4.6-0.9,6.2-2.6c1.7-1.7,2.6-3.9,2.6-6.3
	C47.7,190.9,43.8,186.9,38.9,186.9z M39,143.1C39,143.1,39,143.1,39,143.1c-2.4,0-4.6,0.9-6.3,2.6c-1.7,1.7-2.6,3.9-2.6,6.3
	c0,4.9,4,8.8,8.8,8.9c0,0,0,0,0,0c2.4,0,4.6-0.9,6.2-2.6c1.7-1.7,2.6-3.9,2.6-6.3c0-2.4-0.9-4.6-2.6-6.3
	C43.5,144,41.3,143.1,39,143.1z M479.6,134.9c0,4.4-3.6,8-8,8c0,0,0,0,0,0l-11.4,0l0,11.4c0,4.4-3.6,8-8,8c0,0,0,0,0,0
	c-4.4,0-8-3.6-8-8l0-11.4l-11.4,0c-4.4,0-8-3.6-8-8c0-4.4,3.6-8,8-8c0,0,0,0,0,0l11.4,0l0-11.4c0-4.4,3.6-8,8-8c0,0,0,0,0,0
	c4.4,0,8,3.6,8,8l0,11.4l11.4,0C476.1,126.9,479.7,130.5,479.6,134.9z M265.4,256c0-4.4,3.6-8,8-8c0,0,0,0,0,0l73.8,0.1
	c4.4,0,8,3.6,8,8c0,4.4-3.6,8-8,8c0,0,0,0,0,0l-73.8-0.1C269,264,265.4,260.4,265.4,256z"></path>
<linearGradient id="SVGID_1_" gradientUnits="userSpaceOnUse" x1="38.4791" y1="415.7109" x2="273.6762" y2="415.7109" class="gradient-element">
	<stop offset="0" class="primary-color-gradient" style="stop-color: #FFA4ED"></stop>
	<stop offset="1" class="secondary-color-gradient" style="stop-color: #DB81DA"></stop>
</linearGradient>
<path fill="url(#SVGID_1_)" d="M240.8,492.4l-169.6-0.2c-18.1,0-32.8-14.8-32.8-32.9c0-5.7,1.6-11.4,4.5-16.4L103.8,339
	c0,0,30.7,0.8,60.6,16.5c7,3.7,21.4,5.1,34.1,5.5c14.8,0.5,28.4,8.6,35.8,21.5l34.9,60.6c3,5.1,4.5,10.8,4.5,16.4
	C273.7,477.7,258.9,492.4,240.8,492.4z"></path>
<path d="M290.1,500.4C290.1,500.4,290,500.4,290.1,500.4l-218.8-0.3c-10.9,0-21.1-4.3-28.8-12c-7.7-7.7-11.9-18-11.9-28.9
	c0-7.1,2-14.2,5.6-20.5l93.1-159.5l0.2-159c0-2.1,0.8-4.2,2.4-5.7c1.5-1.5,3.5-2.3,5.6-2.3c0,0,0,0,0,0l87.5,0.1
	c2.1,0,4.2,0.8,5.7,2.4c1.5,1.5,2.3,3.5,2.3,5.7l-0.2,141c0,4.4-3.6,8-8,8c0,0,0,0,0,0c-4.4,0-8-3.6-8-8l0.2-133l-71.5-0.1
	l-0.2,153.1c0,1.4-0.4,2.8-1.1,4L49.9,446.9c-2.3,3.9-3.5,8.2-3.5,12.4c0,6.6,2.6,12.8,7.3,17.5c4.7,4.7,10.9,7.3,17.5,7.3
	l218.8,0.3c0,0,0,0,0,0c6.6,0,12.8-2.6,17.5-7.3c4.7-4.7,7.3-10.9,7.3-17.5c0-4.3-1.2-8.6-3.4-12.4l-91.4-156.6l-39.2-0.1
	c-4.4,0-8-3.6-8-8l0-21.9c0-2.1,0.8-4.2,2.4-5.7c1.5-1.5,3.5-2.3,5.6-2.3c0,0,0,0,0,0l13.9,0l0-5.9l-13.9,0c-4.4,0-8-3.6-8-8l0-21.9
	c0-2.1,0.8-4.2,2.4-5.7c1.5-1.5,3.5-2.3,5.6-2.3c0,0,0,0,0,0l13.9,0l0-5.9l-13.9,0c-4.4,0-8-3.6-8-8l0-21.9c0-4.4,3.6-8,8-8
	c0,0,0,0,0,0l13.9,0l0-13.9c0-4.4,3.6-8,8-8c0,0,0,0,0,0c4.4,0,8,3.6,8,8l0,21.9c0,4.4-3.6,8-8,8l-13.9,0l0,5.9l13.9,0
	c4.4,0,8,3.6,8,8l0,21.9c0,4.4-3.6,8-8,8c0,0,0,0,0,0l-13.9,0l0,5.9l13.9,0c4.4,0,8,3.6,8,8l0,21.9c0,2.1-0.8,4.2-2.4,5.7
	c-1.5,1.5-3.5,2.3-5.6,2.3c0,0,0,0,0,0l-13.9,0l0,5.9l35.6,0c0.3,0,0.6,0,0.9,0c1.2,0.1,2.2,0.5,3.2,1c1,0.5,1.8,1.3,2.5,2.2
	c0.2,0.3,0.4,0.5,0.5,0.8l93.6,160.5c3.7,6.3,5.6,13.4,5.6,20.5c0,10.9-4.3,21.1-12,28.8C311.2,496.2,301,500.4,290.1,500.4z"></path>
</svg>