<svg version="1.1" id="Layer_1" xmlns="http://www.w3.org/2000/svg" xmlns:xlink="http://www.w3.org/1999/xlink" x="0px" y="0px" viewBox="0 0 512 512" enable-background="new 0 0 512 512" xml:space="preserve">
<path d="M463.3,433.3c0,4.4-3.6,8-8,8h-3.9v3.9c0,4.4-3.6,8-8,8s-8-3.6-8-8v-3.9h-3.9c-4.4,0-8-3.6-8-8s3.6-8,8-8h3.9v-3.9
	c0-4.4,3.6-8,8-8s8,3.6,8,8v3.9h3.9C459.7,425.3,463.3,428.9,463.3,433.3z M143.3,103.6h-3.9v-3.9c0-4.4-3.6-8-8-8s-8,3.6-8,8v3.9
	h-3.9c-4.4,0-8,3.6-8,8s3.6,8,8,8h3.9v3.9c0,4.4,3.6,8,8,8s8-3.6,8-8v-3.9h3.9c4.4,0,8-3.6,8-8S147.8,103.6,143.3,103.6z"></path>
<g>
	<path fill="#FFA4ED" class="primary-color" d="M28.6,24.2L86.4,82l-57.8,57.8V24.2z"></path>
	<path fill="#DB81DA" class="secondary-color" d="M70.5,476.2V498H35.3H13.5v-21.8V441h21.8v35.1H70.5z"></path>
</g>
<linearGradient id="SVGID_1_" gradientUnits="userSpaceOnUse" x1="327.7939" y1="465.6157" x2="327.7939" y2="136.3571" class="gradient-element">
	<stop offset="0" class="primary-color-gradient" style="stop-color: #FFA4ED"></stop>
	<stop offset="1" class="secondary-color-gradient" style="stop-color: #DB81DA"></stop>
</linearGradient>
<path fill="url(#SVGID_1_)" d="M343.8,179.8v160.5h-172v-3.2c0-13.5,13.5-24.4,30.1-24.4c0.9,0,49.5,0,50.3-0.1
	c16.5-1.1,29.5-12.3,29.5-26v-78.2c0-20.5,20.5-37.1,45.7-37.1h13C342.2,171.4,343.8,172.6,343.8,179.8z M424.6,302.1
	c-1.4,0-2.8,0.3-4.1,0.8c4.6,1.8,7.9,6.7,7.9,12.3s-3.3,10.5-7.9,12.3c1.3,0.5,2.6,0.8,4.1,0.8c6.6,0,12-5.9,12-13.1
	S431.2,302.1,424.6,302.1z M471.8,232c-1.4,0-2.8,0.3-4.1,0.8c4.6,1.8,7.9,6.7,7.9,12.3s-3.3,10.5-7.9,12.3c1.3,0.5,2.6,0.8,4.1,0.8
	c6.6,0,12-5.9,12-13.1C483.8,237.9,478.4,232,471.8,232z M443.3,101.7c-1.4,0-2.8,0.3-4.1,0.8c4.6,1.8,7.9,6.7,7.9,12.3
	s-3.3,10.5-7.9,12.3c1.3,0.5,2.6,0.8,4.1,0.8c6.6,0,12-5.9,12-13.1S449.9,101.7,443.3,101.7z M326.2,425c-1.4,0-2.8,0.3-4.1,0.8
	c4.6,1.8,7.9,6.7,7.9,12.3s-3.3,10.5-7.9,12.3c1.3,0.5,2.6,0.8,4.1,0.8c6.6,0,12-5.9,12-13.1C338.2,430.9,332.8,425,326.2,425z
	 M245.3,445c-1.4,0-2.8,0.3-4.1,0.8c4.6,1.8,7.9,6.7,7.9,12.3s-3.3,10.5-7.9,12.3c1.3,0.5,2.6,0.8,4.1,0.8c6.6,0,12-5.9,12-13.1
	C257.2,450.9,251.8,445,245.3,445z"></path>
<path d="M472.3,218.4c-11.9,0-22,7.9-25.4,18.7h-98.5V214h51.5c4.4,0,8-3.6,8-8s-3.6-8-8-8h-51.5v-26.3c0-4.4-3.6-8-8-8h-6.1
	l23.6-40.9h60c3.4,10.8,13.5,18.7,25.4,18.7c14.7,0,26.7-12,26.7-26.7c0-14.7-12-26.7-26.7-26.7c-11.9,0-22,7.9-25.4,18.7h-64.7
	c-2.9,0-5.5,1.5-6.9,4l-30.6,52.9h-17.1V104c10.8-3.4,18.7-13.5,18.7-25.4c0-14.7-12-26.7-26.7-26.7S264,63.9,264,78.6
	c0,11.9,7.9,22,18.7,25.4v59.6h-38.3v-35.1c0-4.4-3.6-8-8-8s-8,3.6-8,8v35.1h-31.9V104c10.8-3.4,18.7-13.5,18.7-25.4
	c0-14.7-12-26.7-26.7-26.7c-14.7,0-26.7,12-26.7,26.7c0,11.9,7.9,22,18.7,25.4v59.6h-8.8c-4.4,0-8,3.6-8,8v23.8h-48.2
	c-2.8-11.8-13.3-20.6-26-20.6c-14.7,0-26.7,12-26.7,26.7s12,26.7,26.7,26.7c11.2,0,20.8-6.9,24.7-16.7c0.1,0,0.1,0,0.2,0h49.2v52.2
	H67.4C64,252.8,53.9,245,42,245c-14.7,0-26.7,12-26.7,26.7s12,26.7,26.7,26.7c11.9,0,22-7.9,25.4-18.7h96.2V314h-50.3
	c-4.4,0-8,3.6-8,8s3.6,8,8,8h50.3v10.4c0,4.4,3.6,8,8,8H187v32.5h-57c-2.1,0-4.2,0.8-5.7,2.3l-14.6,14.6c-4.4-3.1-9.7-5-15.5-5
	c-14.7,0-26.7,12-26.7,26.7s12,26.7,26.7,26.7c14.7,0,26.7-12,26.7-26.7c0-3.1-0.5-6-1.5-8.8l13.9-13.9H195c4.4,0,8-3.6,8-8v-40.5
	h32.7v84.4c-10.8,3.4-18.7,13.5-18.7,25.4c0,14.7,12,26.7,26.7,26.7s26.7-12,26.7-26.7c0-11.9-7.9-22-18.7-25.4v-84.4H277v43.9
	c0,4.4,3.6,8,8,8s8-3.6,8-8v-43.9h24.9v64.4c-10.8,3.4-18.7,13.5-18.7,25.4c0,14.7,12,26.7,26.7,26.7s26.7-12,26.7-26.7
	c0-11.9-7.9-22-18.7-25.4v-64.4h6.5c4.4,0,8-3.6,8-8v-19.1h50.5c2.8,11.8,13.3,20.6,26,20.6c14.7,0,26.7-12,26.7-26.7
	s-12-26.7-26.7-26.7c-11.2,0-20.8,6.9-24.7,16.7c-0.1,0-0.1,0-0.2,0h-51.5v-52.2h98.5c3.4,10.8,13.5,18.7,25.4,18.7
	c14.7,0,26.7-12,26.7-26.7S487,218.4,472.3,218.4z M443.4,104.1c5.9,0,10.7,4.8,10.7,10.7c0,5.9-4.8,10.7-10.7,10.7
	s-10.7-4.8-10.7-10.7C432.7,108.9,437.5,104.1,443.4,104.1z M290.6,68c5.9,0,10.7,4.8,10.7,10.7s-4.8,10.7-10.7,10.7
	S280,84.5,280,78.6S284.8,68,290.6,68z M188.4,68c5.9,0,10.7,4.8,10.7,10.7s-4.8,10.7-10.7,10.7c-5.9,0-10.7-4.8-10.7-10.7
	S182.6,68,188.4,68z M89.6,212.2c-5.9,0-10.7-4.8-10.7-10.7s4.8-10.7,10.7-10.7s10.7,4.8,10.7,10.7S95.4,212.2,89.6,212.2z
	 M42,282.3c-5.9,0-10.7-4.8-10.7-10.7S36.1,261,42,261s10.7,4.8,10.7,10.7S47.9,282.3,42,282.3z M94.3,430.1
	c-5.9,0-10.7-4.8-10.7-10.7s4.8-10.7,10.7-10.7c5.9,0,10.7,4.8,10.7,10.7S100.1,430.1,94.3,430.1z M243.7,468.8
	c-5.9,0-10.7-4.8-10.7-10.7s4.8-10.7,10.7-10.7s10.7,4.8,10.7,10.7S249.5,468.8,243.7,468.8z M325.9,448.8
	c-5.9,0-10.7-4.8-10.7-10.7s4.8-10.7,10.7-10.7s10.7,4.8,10.7,10.7S331.7,448.8,325.9,448.8z M424.7,304.5c5.9,0,10.7,4.8,10.7,10.7
	s-4.8,10.7-10.7,10.7s-10.7-4.8-10.7-10.7S418.9,304.5,424.7,304.5z M179.7,179.7h152.6v152.6H179.7V179.7z M472.3,255.7
	c-5.9,0-10.7-4.8-10.7-10.7s4.8-10.7,10.7-10.7s10.7,4.8,10.7,10.7S478.2,255.7,472.3,255.7z M210.3,294.7
	c0.9,14,12.6,25.2,26.8,25.2c7.4,0,14.1-3,18.9-7.8c4.9,4.8,11.5,7.8,18.9,7.8c14.2,0,25.9-11.1,26.8-25.2
	c9.9-4,16.8-13.6,16.8-24.9c0-5.2-1.5-10-4-14.1c7.5-9.3,8.1-22.8,0.7-32.8c-3.6-4.8-8.5-8.1-13.9-9.7c-1.9-13-13.1-23-26.6-23
	c-7.3,0-13.9,2.9-18.8,7.7c-4.8-4.8-11.5-7.7-18.8-7.7c-13.5,0-24.7,10-26.6,23c-5.4,1.6-10.3,4.9-13.9,9.7
	c-7.4,10-6.8,23.5,0.7,32.8c-2.5,4.1-4,8.9-4,14.1C193.5,281,200.4,290.7,210.3,294.7z M274.8,206.2c4.7,0,8.7,3,10.2,7.2
	c-2.6,0.9-5,2.1-7.3,3.8c-3.6,2.6-4.3,7.6-1.7,11.2c2.6,3.6,7.6,4.3,11.2,1.7c4.8-3.6,11.6-2.5,15.2,2.3c2.9,3.9,2.8,9,0.1,12.8
	c-3.3-1.4-6.9-2.3-10.8-2.3c-4.4,0-8,3.6-8,8s3.6,8,8,8c6,0,10.9,4.9,10.9,10.9c0,6-4.9,10.9-10.9,10.9c-4.4,0-8,3.6-8,8
	c0,2,0.8,3.9,2,5.3c-0.5,5.5-5.1,9.9-10.8,9.9c-6,0-10.9-4.9-10.9-10.9c0-0.5-0.1-1-0.1-1.4v-35.5c0-4.7,10.7-5.2,10.9-5.2
	c4.4,0,8-3.6,7.9-8c0-4.4-3.6-8-8-8c0,0,0,0,0,0c-3.6,0-7.4,0.5-10.8,1.6v-18.1c0.1-0.5,0.1-0.9,0.1-1.4c0-0.5,0-0.9,0-1.4
	C264.7,210.3,269.3,206.2,274.8,206.2z M209.6,232.4c3.6-4.8,10.4-5.8,15.2-2.3c3.6,2.6,8.6,1.9,11.2-1.7c2.6-3.6,1.9-8.6-1.7-11.2
	c-2.3-1.7-4.8-3-7.3-3.8c1.5-4.2,5.5-7.2,10.2-7.2c5.5,0,10.1,4.1,10.8,9.5c0,0.4,0,0.8,0,1.2c0,0,0,0.1,0,0.1v37.4
	c-1.4-1.3-3.3-2-5.3-2c0,0,0,0,0,0c-4.4,0-8,3.6-8,8c0,10.3,4.2,21.2,13.3,25.2v7.4c0,0,0,0,0,0c0,6-4.9,10.9-10.9,10.9
	c-5.7,0-10.3-4.4-10.8-9.9c1.3-1.4,2-3.3,2-5.3c0-4.4-3.6-8-8-8c-6,0-10.9-4.9-10.9-10.9c0-6,4.9-10.9,10.9-10.9c4.4,0,8-3.6,8-8
	s-3.6-8-8-8c-3.8,0-7.5,0.8-10.8,2.3C206.9,241.5,206.8,236.3,209.6,232.4z"></path>
</svg>