<svg version="1.1" id="Layer_1" xmlns="http://www.w3.org/2000/svg" xmlns:xlink="http://www.w3.org/1999/xlink" x="0px" y="0px" viewBox="0 0 512 512" enable-background="new 0 0 512 512" xml:space="preserve">
<path fill="#DB81DA" class="secondary-color" d="M88.1,24.9L27.2,85.9V24.9H88.1z"></path>
<path d="M490,471.5c0,4.4-3.6,8-8,8h-57.4c-4.4,0-8-3.6-8-8s3.6-8,8-8H482C486.5,463.5,490,467.1,490,471.5z M440.4,434.7
	c0-4.4-3.6-8-8-8H375c-4.4,0-8,3.6-8,8s3.6,8,8,8h57.4C436.8,442.7,440.4,439.1,440.4,434.7z M476.8,97.5c5,0,9-4.1,9-9s-4.1-9-9-9
	s-9,4.1-9,9S471.9,97.5,476.8,97.5z M476.8,127.5c5,0,9-4.1,9-9s-4.1-9-9-9s-9,4.1-9,9S471.9,127.5,476.8,127.5z M476.8,37.5
	c5,0,9-4.1,9-9s-4.1-9-9-9s-9,4.1-9,9S471.9,37.5,476.8,37.5z M476.8,67.9c5,0,9-4.1,9-9s-4.1-9-9-9s-9,4.1-9,9
	S471.9,67.9,476.8,67.9z M446.2,79.5c-4.9,0-9,4-9,9s4,9,9,9c4.9,0,9-4,9-9S451.1,79.5,446.2,79.5z M446.2,49.9c-4.9,0-9,4-9,9
	s4,9,9,9c4.9,0,9-4,9-9S451.1,49.9,446.2,49.9z M446.2,37.5c5,0,9-4.1,9-9s-4.1-9-9-9s-9,4.1-9,9S441.2,37.5,446.2,37.5z
	 M64.2,442.7c4.4,0,8-3.6,8-8s-3.6-8-8-8c-14.6,0-26.4,11.8-26.4,26.4s11.8,26.4,26.4,26.4c4.4,0,8-3.6,8-8s-3.6-8-8-8
	c-5.7,0-10.4-4.7-10.4-10.4S58.5,442.7,64.2,442.7z M163.8,50.3c-3.1-3.1-8.2-3.1-11.3,0l-2.8,2.8l-2.8-2.8c-3.1-3.1-8.2-3.1-11.3,0
	c-3.1,3.1-3.1,8.2,0,11.3l2.8,2.8l-2.8,2.8c-3.1,3.1-3.1,8.2,0,11.3c1.6,1.6,3.6,2.3,5.7,2.3s4.1-0.8,5.7-2.3l2.8-2.8l2.8,2.8
	c1.6,1.6,3.6,2.3,5.7,2.3s4.1-0.8,5.7-2.3c3.1-3.1,3.1-8.2,0-11.3l-2.8-2.8l2.8-2.8C166.9,58.5,166.9,53.4,163.8,50.3z"></path>
<linearGradient id="SVGID_1_" gradientUnits="userSpaceOnUse" x1="342.4885" y1="437.1983" x2="329.6568" y2="-26.8809" class="gradient-element">
	<stop offset="0" class="primary-color-gradient" style="stop-color: #FFA4ED"></stop>
	<stop offset="1" class="secondary-color-gradient" style="stop-color: #DB81DA"></stop>
</linearGradient>
<path fill="url(#SVGID_1_)" d="M431.5,336.2c-2.5-3.6-6.5-5.6-10.8-5.6c-43.7,0-58.7-17-63.9-28.9c37.3-11.1,49.7-58.8,50.2-61.1
	c0.9-4,0.1-8.1-2.4-11.5c-2.5-3.2-6.4-5.1-10.5-5.1c-26.8,0-45.9-16.6-57-29.8c33.9-10.5,43.7-44.2,43.7-63.4
	c0-7.3-6-13.3-13.3-13.3c-68.4,0-93.3-95.5-93.6-96.4c-1.5-6-6.8-10.1-12.9-10.1c-6.1,0-11.4,4.1-12.9,10.1c0,0.1-0.2,0.6-0.4,1.4
	l0,387.9c0,14.7,12,26.5,26.6,26.4h0c129.7-5.2,157.9-85.2,159.1-88.7C434.7,344.1,434,339.7,431.5,336.2z"></path>
<path d="M327.5,498.4H194.4c-4.4,0-8-3.6-8-8v-26.6c0-4.4,3.6-8,8-8h53.3c4.4,0,8,3.6,8,8s-3.6,8-8,8h-45.3v10.6h117.1v-10.6h-45.3
	c-4.4,0-8-3.6-8-8v-26.9c0-4.3,3.4-7.8,7.7-8c52.1-2.1,93.4-16.5,122.7-42.9c21.2-19.1,28.3-37.8,29.1-40.3c0.5-1.7,0.3-3.4-0.7-4.7
	c0,0-0.1-0.1-0.1-0.1c-1-1.4-2.5-2.2-4.3-2.2c-49.1,0-65.7-21.1-71.2-33.7c-0.9-2.1-0.9-4.5,0.1-6.6s2.8-3.7,5-4.3
	c33.1-9.8,44.6-54.8,44.7-55.3c0.3-1.2,0.3-3-0.9-4.7c-1-1.2-2.5-2-4.2-2c-29.5,0-50.6-17.8-63.1-32.7c-1.7-2.1-2.3-4.8-1.5-7.4
	s2.7-4.6,5.3-5.4c30-9.3,38-39.4,38-55.7c0-2.9-2.4-5.3-5.3-5.3c-30.7,0-57.9-17.6-78.7-50.9c-15-24-21.9-48.7-22.6-51.4
	c0-0.1,0-0.2-0.1-0.2c-0.6-2.4-2.7-4-5.2-4c-2.4,0-4.6,1.7-5.1,4c0,0.1,0,0.2-0.1,0.3c-1.2,4.5-8,28.1-22.8,51.6
	c-20.8,33.1-47.9,50.6-78.5,50.6c-2.9,0-5.3,2.4-5.3,5.3c0,16.3,8,46.4,38,55.7c2.6,0.8,4.6,2.8,5.3,5.4c0.8,2.6,0.2,5.3-1.5,7.4
	c-12.5,14.9-33.6,32.7-63.1,32.7c-1.7,0-3.2,0.7-4.2,2c-1.3,1.7-1.2,3.5-0.9,4.7c0.1,0.4,11.6,45.4,44.7,55.2c2.2,0.7,4,2.2,5,4.3
	s1,4.5,0.1,6.6c-6.7,15.4-24.4,33.7-71.2,33.7c-1.7,0-3.2,0.8-4.2,2.2c0,0-0.1,0.1-0.1,0.1c-1,1.4-1.3,3.1-0.7,4.8
	c0.9,2.6,23.4,66.6,124.1,80.7c0.1,0,0.3,0,0.4,0.1c0.1,0,0.2,0,0.3,0c0.4,0,0.9,0.1,1.6,0.2c4.3,0.8,7.2,5,6.3,9.4s-5,7.2-9.4,6.3
	c-0.1,0-0.2,0-0.3,0c-0.3,0-0.8-0.1-1.4-0.2c-56.9-8-90.7-31.5-109-49.8C88.5,372,81.7,352.9,81,350.8c-2.2-6.7-1.1-13.6,2.9-19.2
	c4-5.6,10.4-8.9,17.3-8.9c24.8,0,42.9-5.9,52.1-16.9c-34.9-17-46.1-62.7-46.2-63.2c-1.5-6.4-0.1-13,3.8-18.1c0,0,0.1-0.1,0.1-0.1
	c4.1-5.1,10.2-8.1,16.8-8.1c18.3,0,32.8-9,43.2-18.8c-29.6-15.3-37.9-47.8-37.9-66.4c0-11.8,9.6-21.3,21.3-21.3
	c60.7,0,84.8-86.7,85.8-90.4c0,0,0,0,0,0c2.4-9.5,10.9-16.1,20.7-16.1c9.8,0,18.3,6.6,20.7,16.1c1,3.8,25,90.4,85.8,90.4
	c11.8,0,21.3,9.6,21.3,21.3c0,18.5-8.3,51.1-37.9,66.4c10.4,9.8,24.9,18.8,43.2,18.8c6.6,0,12.7,3,16.8,8.1c0,0,0.1,0.1,0.1,0.1
	c3.9,5.1,5.3,11.7,3.8,18.1c-0.1,0.5-11.3,46.2-46.2,63.3c9.3,11,27.4,16.9,52.1,16.9c6.9,0,13.3,3.3,17.3,8.9
	c4,5.6,5.1,12.5,3,19.1c0,0,0,0.1,0,0.2c-1.4,4.1-9.6,25.5-33.6,47c-30.7,27.6-72.7,43.3-125.1,46.6v11.3h45.3c4.4,0,8,3.6,8,8v26.6
	C335.5,494.8,331.9,498.4,327.5,498.4z M314.2,391.9c-26.4,0-47.9-21.5-47.9-47.9c0-4.4,3.6-8,8-8s8,3.6,8,8
	c0,17.6,14.3,31.9,31.9,31.9s31.9-14.3,31.9-31.9c0-1-0.2-2.2-0.4-3.5l-0.1-0.8c-0.6-4.4,2.5-8.4,6.8-9c4.4-0.6,8.4,2.5,9,6.8
	l0.1,0.8c0.2,1.7,0.5,3.6,0.5,5.8C362.1,370.4,340.6,391.9,314.2,391.9z M327.5,352c-4.4,0-8-3.6-8-8c0-2.9-2.4-5.3-5.3-5.3
	s-5.3,2.4-5.3,5.3c0,4.4-3.6,8-8,8s-8-3.6-8-8c0-11.8,9.6-21.3,21.3-21.3s21.3,9.6,21.3,21.3C335.5,348.4,331.9,352,327.5,352z
	 M234.3,312c-26.4,0-47.9-21.5-47.9-47.9c0-4.4,3.6-8,8-8s8,3.6,8,8c0,17.6,14.3,31.9,31.9,31.9c17.6,0,31.9-14.3,31.9-31.9
	c0-4.4,3.6-8,8-8s8,3.6,8,8C282.3,290.5,260.8,312,234.3,312z M247.6,279.4c-4.4,0-8-3.6-8-8c0-2.9-2.4-5.3-5.3-5.3
	s-5.3,2.4-5.3,5.3c0,4.4-3.6,8-8,8s-8-3.6-8-8c0-11.8,9.6-21.3,21.3-21.3s21.3,9.6,21.3,21.3C255.6,275.8,252.1,279.4,247.6,279.4z
	 M260.9,205.5c-26.4,0-47.9-21.5-47.9-47.9c0-4.4,3.6-8,8-8s8,3.6,8,8c0,17.6,14.3,31.9,31.9,31.9c17.6,0,31.9-14.3,31.9-31.9
	c0-4.4,3.6-8,8-8s8,3.6,8,8C308.9,184,287.4,205.5,260.9,205.5z M274.3,168.9c-4.4,0-8-3.6-8-8c0-2.9-2.4-5.3-5.3-5.3
	c-2.9,0-5.3,2.4-5.3,5.3c0,4.4-3.6,8-8,8s-8-3.6-8-8c0-11.8,9.6-21.3,21.3-21.3c11.7,0,21.3,9.6,21.3,21.3
	C282.3,165.3,278.7,168.9,274.3,168.9z"></path>
</svg>