<svg version="1.1" id="Layer_1" xmlns="http://www.w3.org/2000/svg" xmlns:xlink="http://www.w3.org/1999/xlink" x="0px" y="0px" viewBox="0 0 512 512" enable-background="new 0 0 512 512" xml:space="preserve">
<linearGradient id="SVGID_1_" gradientUnits="userSpaceOnUse" x1="326.557" y1="330.9579" x2="326.557" y2="194.5368" class="gradient-element">
	<stop offset="0" class="primary-color-gradient" style="stop-color: #FFA4ED"></stop>
	<stop offset="1" class="secondary-color-gradient" style="stop-color: #DB81DA"></stop>
</linearGradient>
<path fill="url(#SVGID_1_)" d="M326.6,344.1c-40.1,0-72.7-32.6-72.7-72.7c0-40.1,32.6-72.7,72.7-72.7s72.7,32.6,72.7,72.7
	C399.2,311.5,366.6,344.1,326.6,344.1z"></path>
<path d="M469.5,146.9V396c0,21.6-17.6,39.1-39.1,39.1H98.1C76.6,435.2,59,417.6,59,396v-71.2c0-4.4,3.6-8,8-8s8,3.6,8,8V396
	c0,12.8,10.4,23.1,23.1,23.1h332.2c12.8,0,23.1-10.4,23.1-23.1V146.9c0-12.8-10.4-23.1-23.1-23.1H98.1c-12.8,0-23.1,10.4-23.1,23.1
	v155.3c0,4.4-3.6,8-8,8s-8-3.6-8-8V146.9c0-21.6,17.6-39.1,39.1-39.1h332.2C452,107.7,469.5,125.3,469.5,146.9z M255.2,370.5
	c0.4,0.3,0.7,0.5,1.1,0.8c0.7,0.5,1.4,1.1,2.2,1.6l0.2,0.1c0.3,0.3,0.7,0.5,1.1,0.8c0.4,0.3,0.9,0.5,1.3,0.7
	c19.7,12.5,42.3,19.2,65.5,19.2c67.4,0,122.2-54.8,122.2-122.2c0-67.4-54.8-122.2-122.2-122.2c-15.1,0-30.1,2.9-44.4,8.5
	c-4.1,1.6-6.1,6.3-4.5,10.4c1.6,4.1,6.3,6.1,10.4,4.5c12.5-4.9,25.5-7.4,38.6-7.4c58.6,0,106.2,47.6,106.2,106.2
	s-47.6,106.2-106.2,106.2c-20.6,0-40.6-6-57.9-17.3c-0.3-0.2-0.6-0.3-0.8-0.5c-0.1-0.1-0.2-0.1-0.3-0.2c-0.5-0.3-1-0.7-1.5-1.1
	c-0.5-0.3-0.9-0.7-1.3-1l-1.3-0.9c-1.2-0.9-2.4-1.7-3.5-2.6c-25.2-20.3-39.6-50.4-39.6-82.6c0-26.3,9.9-51.6,27.9-71.2
	c3-3.3,2.8-8.3-0.5-11.3c-3.3-3-8.3-2.8-11.3,0.5c-20.7,22.6-32,51.7-32,82c0,37,16.6,71.6,45.5,95c1.4,1.2,2.8,2.2,4.2,3.2
	L255.2,370.5z M271,170.7c-0.3-0.2-0.6-0.4-0.9-0.6c-0.1-0.1-0.2-0.1-0.2-0.2c-0.4-0.3-0.8-0.6-1.2-0.8c-0.4-0.3-0.9-0.5-1.4-0.7
	c-19.6-12.5-42.2-19.1-65.4-19.1c-67.4,0-122.2,54.8-122.2,122.2c0,4.4,3.6,8,8,8s8-3.6,8-8c0-58.6,47.6-106.2,106.2-106.2
	c20.6,0,40.6,6,57.9,17.3c0.3,0.2,0.6,0.4,0.9,0.5c0.1,0.1,0.2,0.2,0.4,0.3l0.2,0.1c0.2,0.2,0.5,0.4,0.7,0.5c2.8,2,4.9,3.5,6.8,5.1
	c2.1,1.7,4.3,3.7,6.8,6.1c0.1,0.1,0.2,0.2,0.4,0.3c20.8,20.2,32.2,47.2,32.2,76c0,28.7-11.5,55.7-32.4,76c-3.2,3.1-3.2,8.1-0.2,11.3
	c1.6,1.6,3.7,2.4,5.7,2.4c2,0,4-0.8,5.6-2.3c24.1-23.3,37.3-54.4,37.3-87.4c0-33.1-13.1-64.1-36.9-87.4c-0.1-0.1-0.1-0.1-0.2-0.2
	c-0.1-0.1-0.3-0.3-0.4-0.4c-2.7-2.6-5.2-4.9-7.6-6.8c-2.2-1.8-4.6-3.6-7.8-5.8L271,170.7z M240.6,370.3c-12.5,4.9-25.5,7.4-38.6,7.4
	c-46.6,0-88.4-31.2-101.8-75.8c-1.3-4.2-5.7-6.6-10-5.4c-4.2,1.3-6.6,5.7-5.4,10c7.4,24.7,22.8,46.8,43.5,62.5
	c21.4,16.2,46.8,24.7,73.6,24.7c15.1,0,30.1-2.9,44.5-8.5c4.1-1.6,6.1-6.3,4.5-10.4C249.3,370.7,244.7,368.7,240.6,370.3z"></path>
<path d="M31.7,60.5l2.8-2.8L31.7,55c-3.1-3.1-3.1-8.2,0-11.3c3.1-3.1,8.2-3.1,11.3,0l2.8,2.8l2.8-2.8c3.1-3.1,8.2-3.1,11.3,0
	c3.1,3.1,3.1,8.2,0,11.3l-2.8,2.8l2.8,2.8c3.1,3.1,3.1,8.2,0,11.3c-1.6,1.6-3.6,2.3-5.7,2.3s-4.1-0.8-5.7-2.3l-2.8-2.8L43,71.8
	c-1.6,1.6-3.6,2.3-5.7,2.3s-4.1-0.8-5.7-2.3C28.6,68.7,28.6,63.6,31.7,60.5z M488.1,457.4h-3.9v-3.9c0-4.4-3.6-8-8-8s-8,3.6-8,8v3.9
	h-3.9c-4.4,0-8,3.6-8,8s3.6,8,8,8h3.9v3.9c0,4.4,3.6,8,8,8s8-3.6,8-8v-3.9h3.9c4.4,0,8-3.6,8-8S492.5,457.4,488.1,457.4z M476.2,54
	c5.9,0,10.8-4.8,10.8-10.8c0-5.9-4.8-10.8-10.8-10.8c-5.9,0-10.8,4.8-10.8,10.8C465.5,49.2,470.3,54,476.2,54z M123.5,380.8h-113
	c-4.4,0-8,3.6-8,8s3.6,8,8,8h113c4.4,0,8-3.6,8-8S127.9,380.8,123.5,380.8z M131.6,294.2h-99c-4.4,0-8,3.6-8,8s3.6,8,8,8h99
	c4.4,0,8-3.6,8-8S136,294.2,131.6,294.2z"></path>
<g>
	<path fill="#DB81DA" class="secondary-color" d="M503.9,417.3h-21.8v-56.9h21.8V417.3z M17.9,496.4h26.9l-26.9-26.9V496.4z"></path>
	<path fill="#DB81DA" class="secondary-color" d="M431.7,480.9v21.8h-56.9v-21.8H431.7z M316.2,30.8v23.4h99.7V30.8H316.2z"></path>
</g>
</svg>