<svg version="1.1" id="Layer_1" xmlns="http://www.w3.org/2000/svg" xmlns:xlink="http://www.w3.org/1999/xlink" x="0px" y="0px" viewBox="0 0 512 512" enable-background="new 0 0 512 512" xml:space="preserve">
<linearGradient id="SVGID_1_" gradientUnits="userSpaceOnUse" x1="266.6091" y1="477.7845" x2="266.6091" y2="123.1016" class="gradient-element">
	<stop offset="0" class="primary-color-gradient" style="stop-color: #FFA4ED"></stop>
	<stop offset="1" class="secondary-color-gradient" style="stop-color: #DB81DA"></stop>
</linearGradient>
<path fill="url(#SVGID_1_)" d="M383,130.9v355.7h-90.5v-38.8h-51.7v38.8h-90.5v-20.4c0-31.1,25.2-56.3,56.3-56.3h0
	c33.2,0,60.1-26.9,60.1-60.1V210c0-47.3,38.3-85.6,85.6-85.6h24.3C380.1,124.4,383,127.3,383,130.9z"></path>
<path d="M383,495.3h-90.5c-0.1,0-0.1,0-0.2,0h-51.4c-0.1,0-0.1,0-0.2,0h-90.5c-0.1,0-0.1,0-0.2,0h-38.5c-4.8,0-8.7-3.9-8.7-8.7
	s3.9-8.7,8.7-8.7h30v-347c0-8.4,6.8-15.2,15.2-15.2h219.9c8.4,0,15.2,6.8,15.2,15.2v347h26.7c4.8,0,8.7,3.9,8.7,8.7
	s-3.9,8.7-8.7,8.7h-35.3C383.1,495.3,383.1,495.3,383,495.3z M301.2,477.8h73.1V133.1H158.9v344.7H232v-30.1c0-4.8,3.9-8.7,8.7-8.7
	h51.7c4.8,0,8.7,3.9,8.7,8.7V477.8z M249.5,477.8h34.3v-21.3h-34.3V477.8z M376.6,133.1L376.6,133.1L376.6,133.1z M358.5,394.8
	H174.7c-4.8,0-8.7-3.9-8.7-8.7s3.9-8.7,8.7-8.7h175v-30.1c0-4.8,3.9-8.7,8.7-8.7s8.7,3.9,8.7,8.7v38.8
	C367.2,390.9,363.3,394.8,358.5,394.8z M358.5,337.1H174.7c-4.8,0-8.7-3.9-8.7-8.7s3.9-8.7,8.7-8.7h175v-30.1c0-4.8,3.9-8.7,8.7-8.7
	s8.7,3.9,8.7,8.7v38.8C367.2,333.2,363.3,337.1,358.5,337.1z M358.5,279.4H174.7c-4.8,0-8.7-3.9-8.7-8.7s3.9-8.7,8.7-8.7h175v-30.1
	c0-4.8,3.9-8.7,8.7-8.7s8.7,3.9,8.7,8.7v38.8C367.2,275.4,363.3,279.4,358.5,279.4z M358.5,222.6H174.7c-4.8,0-8.7-3.9-8.7-8.7
	s3.9-8.7,8.7-8.7h175v-30.1c0-4.8,3.9-8.7,8.7-8.7s8.7,3.9,8.7,8.7v38.8C367.2,218.7,363.3,222.6,358.5,222.6z M358.5,165.9H174.7
	c-4.8,0-8.7-3.9-8.7-8.7s3.9-8.7,8.7-8.7h183.7c4.8,0,8.7,3.9,8.7,8.7S363.3,165.9,358.5,165.9z"></path>
<g>
	<path fill="#FFA4ED" class="primary-color" d="M448.1,138.4V27.2h43.6v111.2H448.1z"></path>
	<path fill="#DB81DA" class="secondary-color" d="M378.1,70.8V27.2h43.6v43.6H378.1z"></path>
</g>
<path d="M191.3,423.2c0,4.4-3.6,8-8,8H96.5c-4.4,0-8-3.6-8-8s3.6-8,8-8h86.8C187.8,415.2,191.3,418.8,191.3,423.2z M130.2,395.1
	c0-4.4-3.6-8-8-8H64.8c-4.4,0-8,3.6-8,8s3.6,8,8,8h57.4C126.7,403.1,130.2,399.5,130.2,395.1z M65.9,172v-15.8h15.8c4.4,0,8-3.6,8-8
	s-3.6-8-8-8H65.9v-15.8c0-4.4-3.6-8-8-8s-8,3.6-8,8v15.8H34.1c-4.4,0-8,3.6-8,8s3.6,8,8,8h15.8V172c0,4.4,3.6,8,8,8
	S65.9,176.4,65.9,172z M479.4,223.8h-3.9v-3.9c0-4.4-3.6-8-8-8s-8,3.6-8,8v3.9h-3.9c-4.4,0-8,3.6-8,8s3.6,8,8,8h3.9v3.9
	c0,4.4,3.6,8,8,8s8-3.6,8-8v-3.9h3.9c4.4,0,8-3.6,8-8S483.8,223.8,479.4,223.8z M113.5,44.6c0-14.6,11.8-26.4,26.4-26.4
	s26.4,11.8,26.4,26.4s-11.8,26.4-26.4,26.4S113.5,59.1,113.5,44.6z M129.5,44.6c0,5.7,4.7,10.4,10.4,10.4s10.4-4.7,10.4-10.4
	s-4.7-10.4-10.4-10.4S129.5,38.8,129.5,44.6z"></path>
</svg>