<svg version="1.1" id="Layer_1" xmlns="http://www.w3.org/2000/svg" xmlns:xlink="http://www.w3.org/1999/xlink" x="0px" y="0px" viewBox="0 0 512 512" enable-background="new 0 0 512 512" xml:space="preserve">
<g>
	<path fill="#DB81DA" class="secondary-color" d="M37.1,26.9h80.3v37.3H37.1V26.9z"></path>
	<path fill="#DB81DA" class="secondary-color" d="M130.4,27.6h73.1v35.8h-73.1V27.6z"></path>
</g>
<path d="M483.1,63.4c0,4.4-3.6,8-8,8h-15.8v15.8c0,4.4-3.6,8-8,8s-8-3.6-8-8V71.4h-15.8c-4.4,0-8-3.6-8-8s3.6-8,8-8h15.8V39.7
	c0-4.4,3.6-8,8-8s8,3.6,8,8v15.8h15.8C479.5,55.4,483.1,59,483.1,63.4z M435.7,428.7h-59.5c-4.4,0-8,3.6-8,8s3.6,8,8,8h59.5
	c4.4,0,8-3.6,8-8S440.1,428.7,435.7,428.7z M255.6,82.9h-3.9V79c0-4.4-3.6-8-8-8s-8,3.6-8,8v3.9h-3.9c-4.4,0-8,3.6-8,8s3.6,8,8,8
	h3.9v3.9c0,4.4,3.6,8,8,8s8-3.6,8-8v-3.9h3.9c4.4,0,8-3.6,8-8S260.1,82.9,255.6,82.9z M65.3,149.5H32.6c-4.4,0-8,3.6-8,8s3.6,8,8,8
	h32.7c4.4,0,8-3.6,8-8S69.7,149.5,65.3,149.5z M57.9,470.1c0,5-4.1,9-9,9s-9-4.1-9-9s4.1-9,9-9S57.9,465.1,57.9,470.1z"></path>
<linearGradient id="SVGID_1_" gradientUnits="userSpaceOnUse" x1="350.3407" y1="185.6783" x2="351.8564" y2="93.2151" class="gradient-element">
	<stop offset="0" class="primary-color-gradient" style="stop-color: #FFA4ED"></stop>
	<stop offset="1" class="secondary-color-gradient" style="stop-color: #DB81DA"></stop>
</linearGradient>
<path fill="url(#SVGID_1_)" d="M210.3,177.3c34-43.5,84.9-68.5,140.1-68.5c55.2,0,106.2,25,140.2,68.5h-37.1
	c-27.7-26.2-64.1-41.1-103.1-41.1c-39,0-75.3,14.9-103.1,41.1H210.3z"></path>
<path d="M187.6,353.2c-18.5,23.8-46.4,37.5-76.5,37.5c-53.5,0-97-43.5-97-97c0-53.5,43.5-97,97-97c27.6,0,54,11.9,72.4,32.6
	c2.9,3.3,2.6,8.4-0.7,11.3l-20.5,18.2c-1.6,1.4-3.7,2.1-5.8,2c-2.1-0.1-4.1-1.1-5.5-2.7c-10.2-11.5-24.8-18.1-40-18.1
	c-29.6,0-53.6,24.1-53.6,53.6c0,29.6,24.1,53.6,53.6,53.6c16.6,0,32-7.6,42.3-20.7c2.7-3.5,7.7-4.1,11.2-1.4
	c3.5,2.7,4.1,7.7,1.4,11.2c-13.3,17.1-33.3,26.9-54.9,26.9c-38.4,0-69.6-31.2-69.6-69.6S72.7,224,111.1,224
	c17.1,0,33.6,6.4,46.3,17.7l8.6-7.6c-14.9-13.8-34.5-21.5-54.9-21.5c-44.7,0-81,36.3-81,81c0,44.7,36.3,81,81,81
	c25.1,0,48.4-11.4,63.9-31.3c2.7-3.5,7.7-4.1,11.2-1.4C189.7,344.6,190.3,349.7,187.6,353.2z M254.6,196.6h-27.4c-4.4,0-8,3.6-8,8
	V286h-52.3c-4.4,0-8,3.6-8,8s3.6,8,8,8h59.5c0.1,0,0.3,0,0.4,0c0.1,0,0.3,0,0.4,0c4.4,0,8-3.6,8-8v-81.4h11.4v162h-11.4v-43.5
	c0-3.3-2-6.2-4.9-7.4c2.9-1.2,4.9-4.1,4.9-7.4c0-4.4-3.6-8-8-8h-29.7c-4.4,0-8,3.6-8,8s3.6,8,8,8H223c-2.3,1.4-3.8,3.9-3.8,6.8v51.5
	c0,4.4,3.6,8,8,8h27.4c4.4,0,8-3.6,8-8v-178C262.6,200.2,259,196.6,254.6,196.6z M409.6,344.6c-2.3-1.5-5.1-1.7-7.6-0.6
	c-3.5,1.6-16.1,3.3-24.1,3.3c-11.6,0-19.4-3.7-19.4-21.8V240h19.4c4.4,0,8-3.6,8-8s-3.6-8-8-8h-27.4c-4.4,0-8,3.6-8,8v93.4
	c0,24.4,12.6,37.8,35.4,37.8c4.4,0,12.3-0.5,19.4-1.7v11c-5.1,1.1-12,2.1-19.4,2.1c-29.3,0-46.8-16.5-46.8-44.3V232c0-4.4-3.6-8-8-8
	h-19.4v-11.4h19.4c4.4,0,8-3.6,8-8v-30.2l11.4-8.5v38.8c0,4.4,3.6,8,8,8s8-3.6,8-8v-54.8c0-3-1.7-5.8-4.4-7.2
	c-2.7-1.4-6-1.1-8.4,0.8L318.3,164c-2,1.5-3.2,3.9-3.2,6.4v26.2h-19.4c-4.4,0-8,3.6-8,8V232c0,4.4,3.6,8,8,8h19.4v90.4
	c0,36.6,24.6,60.3,62.8,60.3c10.9,0,22.8-1.8,30.2-4.6c3.1-1.2,5.2-4.2,5.2-7.5v-27.3C413.2,348.6,411.8,346.1,409.6,344.6z
	 M473.7,196.6c-4.4,0-8,3.6-8,8v170h-11.4v-170c0-4.4-3.6-8-8-8s-8,3.6-8,8v178c0,4.4,3.6,8,8,8h27.4c4.4,0,8-3.6,8-8v-178
	C481.7,200.2,478.1,196.6,473.7,196.6z"></path>
</svg>