<svg version="1.1" id="Layer_1" xmlns="http://www.w3.org/2000/svg" xmlns:xlink="http://www.w3.org/1999/xlink" x="0px" y="0px" viewBox="0 0 512 512" enable-background="new 0 0 512 512" xml:space="preserve">
<path d="M170.4,132.8c0,4.4-3.6,8-8,8h-3.9v3.9c0,4.4-3.6,8-8,8s-8-3.6-8-8v-3.9h-3.9c-4.4,0-8-3.6-8-8s3.6-8,8-8h3.9v-3.9
	c0-4.4,3.6-8,8-8s8,3.6,8,8v3.9h3.9C166.8,124.8,170.4,128.4,170.4,132.8z M438.3,31.2h-86.8c-4.4,0-8,3.6-8,8s3.6,8,8,8h86.8
	c4.4,0,8-3.6,8-8S442.8,31.2,438.3,31.2z M258.2,66.1h-57.4c-4.4,0-8,3.6-8,8s3.6,8,8,8h57.4c4.4,0,8-3.6,8-8S262.7,66.1,258.2,66.1
	z M258.2,99.1h-57.4c-4.4,0-8,3.6-8,8s3.6,8,8,8h57.4c4.4,0,8-3.6,8-8S262.7,99.1,258.2,99.1z M69.7,74.2H53.9V58.4c0-4.4-3.6-8-8-8
	s-8,3.6-8,8v15.8H22.1c-4.4,0-8,3.6-8,8s3.6,8,8,8h15.8V106c0,4.4,3.6,8,8,8s8-3.6,8-8V90.2h15.8c4.4,0,8-3.6,8-8
	S74.1,74.2,69.7,74.2z M122.9,91.9c-14.6,0-26.4-11.8-26.4-26.4s11.8-26.4,26.4-26.4s26.4,11.8,26.4,26.4S137.5,91.9,122.9,91.9z
	 M133.3,65.6c0-5.7-4.7-10.4-10.4-10.4s-10.4,4.7-10.4,10.4s4.7,10.4,10.4,10.4S133.3,71.3,133.3,65.6z"></path>
<linearGradient id="SVGID_1_" gradientUnits="userSpaceOnUse" x1="252.7102" y1="478.1775" x2="252.7102" y2="127.8235" class="gradient-element">
	<stop offset="0" class="primary-color-gradient" style="stop-color: #FFA4ED"></stop>
	<stop offset="1" class="secondary-color-gradient" style="stop-color: #DB81DA"></stop>
</linearGradient>
<path fill="url(#SVGID_1_)" d="M250.8,181.1v305.5H173v-33.3h-44.4v33.3H50.9V469c0-26.7,21.7-48.4,48.4-48.4h0
	c28.5,0,51.6-23.1,51.6-51.6v-120c0-40.6,32.9-73.5,73.5-73.5h20.9C248.3,175.6,250.8,178,250.8,181.1z M454.6,459.6V156.3
	c0-15-12.2-27.2-27.2-27.2h-53c-34.7,0-62.9,28.2-62.9,62.9v267.6c0,15,12.2,27.2,27.2,27.2h88.7
	C442.4,486.9,454.6,474.7,454.6,459.6z"></path>
<path d="M81.8,215.3c0-4.8,3.9-8.7,8.7-8.7h118.2c4.8,0,8.7,3.9,8.7,8.7s-3.9,8.7-8.7,8.7H90.6C85.7,224,81.8,220.1,81.8,215.3z
	 M90.6,265.9h118.2c4.8,0,8.7-3.9,8.7-8.7s-3.9-8.7-8.7-8.7H90.6c-4.8,0-8.7,3.9-8.7,8.7S85.7,265.9,90.6,265.9z M90.6,311.3h118.2
	c4.8,0,8.7-3.9,8.7-8.7s-3.9-8.7-8.7-8.7H90.6c-4.8,0-8.7,3.9-8.7,8.7S85.7,311.3,90.6,311.3z M90.6,353.2h118.2
	c4.8,0,8.7-3.9,8.7-8.7s-3.9-8.7-8.7-8.7H90.6c-4.8,0-8.7,3.9-8.7,8.7S85.7,353.2,90.6,353.2z M208.8,395.1c4.8,0,8.7-3.9,8.7-8.7
	s-3.9-8.7-8.7-8.7H90.6c-4.8,0-8.7,3.9-8.7,8.7s3.9,8.7,8.7,8.7H208.8z M493,486.9c0,4.4-3.6,8-8,8h-30.4c-4.4,0-8-3.6-8-8V89.4
	H295.6v3.9c0,47.2-12.1,90-36.1,127.4v258.1h99.6h71.5c4.4,0,8,3.6,8,8s-3.6,8-8,8h-71.5H253.6c-0.9,0.3-1.8,0.5-2.8,0.5H173
	c0,0,0,0,0,0h-44.4c0,0,0,0,0,0H50.9c0,0,0,0,0,0H23.5c-4.8,0-8.7-3.9-8.7-8.7s3.9-8.7,8.7-8.7h18.6V181.1c0-7.9,6.4-14.3,14.3-14.3
	h188.8c7.9,0,14.3,6.4,14.3,14.3v6.5c13.3-28.7,20.1-60.3,20.1-94.3V81.4c0-4.4,3.6-8,8-8h166.9c4.4,0,8,3.6,8,8v397.4H485
	C489.4,478.9,493,482.4,493,486.9z M59.6,477.8h60.3v-24.6c0-4.8,3.9-8.7,8.7-8.7H173c4.8,0,8.7,3.9,8.7,8.7v24.6h58.8c0,0,0,0,0,0
	h1.5V184.3H59.6V477.8z M164.3,462h-27v15.8h27V462z M430.7,407.3c-4.4,0-8,3.6-8,8v15.8H311.5c-4.4,0-8,3.6-8,8s3.6,8,8,8h119.2
	c4.4,0,8-3.6,8-8v-23.8C438.7,410.9,435.1,407.3,430.7,407.3z M430.7,359.6c-4.4,0-8,3.6-8,8v15.8H311.5c-4.4,0-8,3.6-8,8s3.6,8,8,8
	h119.2c4.4,0,8-3.6,8-8v-23.8C438.7,363.2,435.1,359.6,430.7,359.6z M430.7,311.9c-4.4,0-8,3.6-8,8v15.8H311.5c-4.4,0-8,3.6-8,8
	s3.6,8,8,8h119.2c4.4,0,8-3.6,8-8v-23.8C438.7,315.5,435.1,311.9,430.7,311.9z M430.7,264.2c-4.4,0-8,3.6-8,8v15.8H311.5
	c-4.4,0-8,3.6-8,8s3.6,8,8,8h119.2c4.4,0,8-3.6,8-8v-23.8C438.7,267.8,435.1,264.2,430.7,264.2z M430.7,216.5c-4.4,0-8,3.6-8,8v15.8
	H311.5c-4.4,0-8,3.6-8,8s3.6,8,8,8h119.2c4.4,0,8-3.6,8-8v-23.8C438.7,220.1,435.1,216.5,430.7,216.5z M430.7,168.8
	c-4.4,0-8,3.6-8,8v15.8H311.5c-4.4,0-8,3.6-8,8s3.6,8,8,8h119.2c4.4,0,8-3.6,8-8v-23.8C438.7,172.4,435.1,168.8,430.7,168.8z
	 M430.7,97.3c-4.4,0-8,3.6-8,8V145H311.5c-4.4,0-8,3.6-8,8s3.6,8,8,8h119.2c4.4,0,8-3.6,8-8v-47.7
	C438.7,100.8,435.1,97.3,430.7,97.3z"></path>
</svg>