<svg version="1.1" id="Layer_1" xmlns="http://www.w3.org/2000/svg" xmlns:xlink="http://www.w3.org/1999/xlink" x="0px" y="0px" viewBox="0 0 512 512" enable-background="new 0 0 512 512" xml:space="preserve">
<linearGradient id="SVGID_1_" gradientUnits="userSpaceOnUse" x1="284.2684" y1="452.9162" x2="284.2684" y2="161.3189" class="gradient-element">
	<stop offset="0" class="primary-color-gradient" style="stop-color: #FFA4ED"></stop>
	<stop offset="1" class="secondary-color-gradient" style="stop-color: #DB81DA"></stop>
</linearGradient>
<path fill="url(#SVGID_1_)" d="M404,215.8v94.4c0,8.5-1.2,16.9-3.7,25l-23.9,118.4H197.5c0,0-10.7-11.5-25.9-28.3
	c-15.5-17.2-3.4-44.7,19.7-44.7h60.3c38.3,0,69.3-31.2,69.3-69.7V182c0-7.5,6.8-13.1,14.1-11.6l32.6,6.6
	C396.4,184,404,205.4,404,215.8z"></path>
<path d="M197.5,460c-2.1,0-4.3-0.9-5.8-2.5c-0.3-0.4-33.2-35.6-65.7-72.6c-67.5-77-67.5-86.4-67.5-91.4c0-19.2,9-30.4,16.6-36.5
	c8.4-6.7,19.5-10.5,30.3-10.5c2.6,0,5.2,0.5,7.7,1.4c14.6,5.8,23.8,13.5,36.4,24.2c3.9,3.3,8.1,6.8,12.9,10.7V86
	c0-10.9,3.8-22,10.5-30.4c6-7.6,17.2-16.8,36.5-16.8c19.2,0,30.4,9,36.5,16.6c6.7,8.4,10.5,19.5,10.5,30.3v60.7l97.3,19.5
	c0.1,0,0.2,0,0.3,0.1l15.3,3.1c0.1,0,0.2,0,0.3,0.1c33.7,8.2,42.6,34,42.6,46.5v93.8c0,9.1-1.3,18.1-3.9,26.8l-23.8,117.4
	c-0.8,3.7-4,6.4-7.8,6.4H235.2c-4.4,0-8-3.6-8-8s3.6-8,8-8h134.7l22.6-111.3c0-0.2,0.1-0.5,0.2-0.7c2.2-7.3,3.3-14.9,3.3-22.6v-93.8
	c0-8.1-6.3-25-30.2-30.9l-5.7-1.1v45c0,4.4-3.6,8-8,8s-8-3.6-8-8v-48.2l-35.9-7.2v65.4c0,4.4-3.6,8-8,8s-8-3.6-8-8v-68.6l-35.9-7.2
	v85.8c0,4.4-3.6,8-8,8s-8-3.6-8-8V85.7c0-10.7-6.5-30.9-30.9-30.9S178.3,75.2,178.3,86v213.1c0,3-1.7,5.8-4.4,7.2
	c-2.7,1.4-5.9,1.1-8.4-0.7c-11.1-8.3-19.6-15.5-26.4-21.2c-11.9-10-19.7-16.7-31.9-21.5c-0.6-0.2-1.2-0.3-1.9-0.3
	c-10.7,0-30.8,6.4-30.9,30.6c0.8,3.2,8,18,65.3,83.2c31.7,36.1,63.3,69.9,63.6,70.3c3,3.2,2.8,8.3-0.4,11.3
	C201.4,459.3,199.4,460,197.5,460z"></path>
<g>
	<path fill="#FFA4ED" class="primary-color" d="M475.6,460.2H461v-53.8h14.6V460.2z"></path>
	<path fill="#DB81DA" class="secondary-color" d="M475.6,229.8H461V176h14.6V229.8z M475.6,252.8H461v53.8h14.6V252.8z M475.6,329.6H461v53.8h14.6V329.6z
		 M36,35v60.9L96.9,35H36z"></path>
</g>
<path d="M131.7,473c0,4.4-3.6,8-8,8H44.1c-4.4,0-8-3.6-8-8s3.6-8,8-8h79.5C128.1,465,131.7,468.6,131.7,473z M432.7,31.1
	c-4.4,0-8,3.6-8,8c0,11.4-9.3,20.8-20.8,20.8c-4.4,0-8,3.6-8,8s3.6,8,8,8c20.3,0,36.8-16.5,36.8-36.8
	C440.7,34.7,437.1,31.1,432.7,31.1z M482.7,75.8c4.4,0,8-3.6,8-8s-3.6-8-8-8c-11.4,0-20.8-9.3-20.8-20.8c0-4.4-3.6-8-8-8s-8,3.6-8,8
	C446,59.3,462.4,75.8,482.7,75.8z M482.7,81.1c-20.3,0-36.8,16.5-36.8,36.8c0,4.4,3.6,8,8,8s8-3.6,8-8c0-11.4,9.3-20.8,20.8-20.8
	c4.4,0,8-3.6,8-8S487.1,81.1,482.7,81.1z M404,81.1c-4.4,0-8,3.6-8,8s3.6,8,8,8c11.4,0,20.8,9.3,20.8,20.8c0,4.4,3.6,8,8,8
	s8-3.6,8-8C440.7,97.6,424.2,81.1,404,81.1z M89.7,179.7c4.4,0,8-3.6,8-8s-3.6-8-8-8c-5.7,0-10.4-4.7-10.4-10.4
	c0-5.7,4.7-10.4,10.4-10.4c4.4,0,8-3.6,8-8s-3.6-8-8-8c-14.6,0-26.4,11.8-26.4,26.4S75.1,179.7,89.7,179.7z M44.3,408.4h3.9v3.9
	c0,4.4,3.6,8,8,8s8-3.6,8-8v-3.9h3.9c4.4,0,8-3.6,8-8s-3.6-8-8-8h-3.9v-3.9c0-4.4-3.6-8-8-8s-8,3.6-8,8v3.9h-3.9c-4.4,0-8,3.6-8,8
	S39.9,408.4,44.3,408.4z"></path>
</svg>