<svg version="1.1" id="Layer_1" xmlns="http://www.w3.org/2000/svg" xmlns:xlink="http://www.w3.org/1999/xlink" x="0px" y="0px" viewBox="0 0 512 512" enable-background="new 0 0 512 512" xml:space="preserve">
<path d="M462.2,468.8c0,4.4-3.6,8-8,8h-86.8c-4.4,0-8-3.6-8-8s3.6-8,8-8h86.8C458.7,460.8,462.2,464.4,462.2,468.8z M401.1,440.7
	c0-4.4-3.6-8-8-8h-57.4c-4.4,0-8,3.6-8,8s3.6,8,8,8h57.4C397.6,448.7,401.1,445.1,401.1,440.7z M477.6,90.2h-86.8c-4.4,0-8,3.6-8,8
	s3.6,8,8,8h86.8c4.4,0,8-3.6,8-8S482.1,90.2,477.6,90.2z M144.5,438.6H85.3c-4.4,0-8,3.6-8,8s3.6,8,8,8h59.2c4.4,0,8-3.6,8-8
	S149,438.6,144.5,438.6z"></path>
<path fill="#DB81DA" class="secondary-color" d="M334.2,44.4V22.6H480v21.8H334.2z"></path>
<linearGradient id="SVGID_1_" gradientUnits="userSpaceOnUse" x1="236.1506" y1="274.9283" x2="447.1944" y2="274.9283" class="gradient-element">
	<stop offset="0" class="primary-color-gradient" style="stop-color: #FFA4ED"></stop>
	<stop offset="1" class="secondary-color-gradient" style="stop-color: #DB81DA"></stop>
</linearGradient>
<path fill="url(#SVGID_1_)" d="M447.2,338.9c0,20.2-7.9,39.2-22.1,53.5c-14.3,14.3-33.3,22.1-53.5,22.1c-20.2,0-39.2-7.9-53.5-22.1
	c-5.6-5.6-39.9-38-77.3-73.3c-6.1-5.7-6.2-15.3-0.3-21.2h0c5.7-5.7,14.8-5.8,20.6-0.3c20.6,19.4,47,44.7,70.1,66.3
	c33.3,31.2,58,22.4,76,4.3c27-27.2,0-58.5,0-58.5L248.4,161c-5.6-5.4-2.4-16,3-21.5l0,0c5.3-5.3,13.9-5.4,19.4-0.3
	c55.7,52.9,146,138,154.2,146.3C439.3,299.7,447.2,318.7,447.2,338.9z"></path>
<path d="M371.6,422.5c-22.4,0-43.4-8.7-59.1-24.5c-7.1-7.1-62-58.8-110.3-104.5c-36.8-34.7-68.7-64.7-71.9-68
	c-24.7-24.7-24.7-64.9,0-89.6c24.7-24.7,64.9-24.7,89.6,0c11.8,11.8,119.5,112.4,152.2,142.9c3.2,3,3.4,8.1,0.4,11.3
	c-3,3.2-8.1,3.4-11.3,0.4c-42-39.2-140.9-131.6-152.6-143.3c-18.5-18.4-48.5-18.4-67,0c-18.5,18.5-18.5,48.5,0,67
	c3.1,3.1,36.3,34.4,71.5,67.7c48.5,45.7,103.4,97.5,110.7,104.8c12.8,12.8,29.7,19.8,47.8,19.8s35.1-7,47.8-19.8
	c12.8-12.8,19.8-29.7,19.8-47.8c0-18.1-7-35-19.8-47.8c-5.1-5.1-43.3-41.2-83.7-79.5c-48.6-46-103.6-98.1-112.9-107.3
	c-16.6-16.6-38.7-25.7-62.1-25.7c-23.5,0-45.5,9.1-62.1,25.7c-16.6,16.6-25.7,38.7-25.7,62.1c0,23.5,9.1,45.5,25.7,62.1
	c26.5,26.6,134.7,127.6,167.3,158c3.2,3,3.4,8.1,0.4,11.3c-3,3.2-8.1,3.4-11.3,0.4C222.3,367.9,114,266.7,87.2,239.9
	c-19.6-19.6-30.4-45.7-30.4-73.4c0-27.8,10.8-53.8,30.4-73.5c19.6-19.6,45.7-30.4,73.5-30.4c27.8,0,53.8,10.8,73.5,30.4
	c9.1,9.1,64,61.1,112.5,107c42.3,40,78.8,74.5,84,79.8c15.8,15.8,24.5,36.8,24.5,59.1c0,22.3-8.7,43.3-24.5,59.1
	C414.9,413.8,393.9,422.5,371.6,422.5z M409.8,377.1c10.2-10.2,15.8-23.8,15.8-38.2c0-14.4-5.6-28-15.8-38.2
	c-3.1-3.1-8.2-3.1-11.3,0c-3.1,3.1-3.1,8.2,0,11.3c7.2,7.2,11.1,16.7,11.1,26.9c0,10.2-4,19.7-11.1,26.9
	c-14.8,14.8-38.9,14.8-53.8,0c-7.8-7.8-63.8-60.7-113.3-107.3c-33.9-32-66-62.2-68.9-65.1c-6.9-6.9-6.9-18.2,0-25.1
	c6.9-6.9,18.2-6.9,25.1,0c9,9,59,55.9,99.4,93.6c3.2,3,8.3,2.8,11.3-0.4c3-3.2,2.8-8.3-0.4-11.3c-57.8-54-92-86.2-99-93.2
	c-13.2-13.2-34.6-13.2-47.7,0c-13.1,13.2-13.1,34.6,0,47.7c3.1,3.1,32.3,30.6,69.2,65.5c46.9,44.3,105.4,99.3,113,107
	c10.5,10.5,24.4,15.8,38.2,15.8C385.4,392.9,399.3,387.6,409.8,377.1z"></path>
</svg>