<svg version="1.1" id="Layer_1" xmlns="http://www.w3.org/2000/svg" xmlns:xlink="http://www.w3.org/1999/xlink" x="0px" y="0px" viewBox="0 0 512 512" enable-background="new 0 0 512 512" xml:space="preserve">
<g>
	<linearGradient id="SVGID_1_" gradientUnits="userSpaceOnUse" x1="96.4561" y1="307.6874" x2="422.8607" y2="307.6874" class="gradient-element">
		<stop offset="0" class="primary-color-gradient" style="stop-color: #FFA4ED"></stop>
		<stop offset="1" class="secondary-color-gradient" style="stop-color: #DB81DA"></stop>
	</linearGradient>
	<path fill="url(#SVGID_1_)" d="M226.2,459.4h-93.7c-12.1,0-23-4.9-30.9-12.8c-8.2-8.1-4.3-29.7-4.3-31.3c0-23.4,15.7-22,39.1-22
		h174.2c26.2,0,47.5-6.3,47.5-32.5l-3.2-158.2c0-26.2,14.2-46.4,40.4-46.4l0,0c11.3,0,27.5-2.9,27.5,8.4v246
		c0,36.8-29.8,48.7-66.5,48.7H226.2z M219.8,444"></path>
	<linearGradient id="SVGID_2_" gradientUnits="userSpaceOnUse" x1="256.1475" y1="395.0634" x2="256.1475" y2="206.5596">
		<stop offset="0" class="primary-color-gradient" style="stop-color: #FFA4ED"></stop>
		<stop offset="1" class="secondary-color-gradient" style="stop-color: #DB81DA"></stop>
	</linearGradient>
	<path fill="url(#SVGID_2_)" d="M235.5,395.1h-57.8c-7.5,0-14.2-3-19.1-8c-5.1-5.1-2.6-18.5-2.6-19.4c0-14.5,9.7-13.6,24.1-13.6
		h107.5c16.2,0,29.3-3.9,29.3-20.2l-2-98.3c0-16.3,8.8-28.8,24.9-28.8l0,0c7,0,17-1.8,17,5.2v152.8c0,22.8-18.4,30.3-41.1,30.3
		H235.5z M231.6,385.5"></path>
</g>
<path d="M395.7,463.5H117.8c-16.2,0-29.4-13.2-29.4-29.4V251.5c0-4.4,3.6-8,8-8s8,3.6,8,8v182.6c0,7.4,6,13.4,13.4,13.4h277.8
	c7.4,0,13.4-6,13.4-13.4V317.8c0-4.4,3.6-8,8-8s8,3.6,8,8v116.3C425,450.3,411.9,463.5,395.7,463.5z M352.9,399.4H160.6
	c-4.4,0-8-3.6-8-8V164.3H96.5c-4.4,0-8-3.6-8-8v-42.7c0-16.2,13.2-29.4,29.4-29.4h64.8l0.6-0.9c12-18,32.6-41.8,73.5-41.8
	c40.9,0,61.5,23.9,73.5,41.8l0.6,0.9h64.8c16.2,0,29.4,13.2,29.4,29.4v163.4c0,4.4-3.6,8-8,8s-8-3.6-8-8V113.5
	c0-7.4-6-13.4-13.4-13.4h-69.1c-2.7,0-5.2-1.3-6.7-3.6l-3-4.5c-11.4-17.2-27.5-34.7-60.2-34.7c-32.6,0-48.7,17.5-60.2,34.7l-3,4.5
	c-1.5,2.2-4,3.6-6.7,3.6h-69.1c-7.4,0-13.4,6-13.4,13.4v34.7h56.1c4.4,0,8,3.6,8,8v227.1h176.3v-65.6c0-4.4,3.6-8,8-8s8,3.6,8,8
	v73.6C360.9,395.8,357.3,399.4,352.9,399.4z M352.9,284.9c-4.4,0-8-3.6-8-8v-99.3c0-4.4,3.6-8,8-8s8,3.6,8,8v99.3
	C360.9,281.3,357.3,284.9,352.9,284.9z M96.5,212c-4.4,0-8-3.6-8-8v-26.3c0-4.4,3.6-8,8-8s8,3.6,8,8V204
	C104.5,208.4,100.9,212,96.5,212z M395.7,164.3H181.9c-4.4,0-8-3.6-8-8s3.6-8,8-8h213.7c4.4,0,8,3.6,8,8S400.1,164.3,395.7,164.3z"></path>
<g>
	<path fill="#DB81DA" class="secondary-color" d="M497.7,138h-43.6V94.4h43.6V138z"></path>
	<path fill="#FFA4ED" class="primary-color" d="M497.7,68h-43.6V24.4h43.6V68z"></path>
</g>
<path d="M373.6,284.9h-78.7c-4.4,0-8-3.6-8-8s3.6-8,8-8h78.7c4.4,0,8,3.6,8,8S378,284.9,373.6,284.9z M460.4,309.8h-86.8
	c-4.4,0-8,3.6-8,8s3.6,8,8,8h86.8c4.4,0,8-3.6,8-8S464.9,309.8,460.4,309.8z M35.6,71.4c1.6,1.6,3.6,2.3,5.7,2.3s4.1-0.8,5.7-2.3
	c3.1-3.1,3.1-8.2,0-11.3c-4.1-4.1-4.1-10.6,0-14.7c2-2,4.6-3,7.3-3s5.4,1.1,7.3,3c3.1,3.1,8.2,3.1,11.3,0c3.1-3.1,3.1-8.2,0-11.3
	c-4.9-4.9-11.4-7.6-18.4-7.7c-0.1-6.9-2.8-13.5-7.7-18.4c-3.1-3.1-8.2-3.1-11.3,0c-3.1,3.1-3.1,8.2,0,11.3c4.1,4.1,4.1,10.6,0,14.7
	C31.5,38,24.9,38,20.8,34c-3.1-3.1-8.2-3.1-11.3,0c-3.1,3.1-3.1,8.2,0,11.3c4.9,4.9,11.4,7.6,18.4,7.7C28,59.9,30.7,66.5,35.6,71.4z
	 M76.4,206.2c6,6,13.9,9.2,22.3,9.2s16.3-3.3,22.3-9.2c3.1-3.1,3.1-8.2,0-11.3c-3.1-3.1-8.2-3.1-11.3,0c-2.9,2.9-6.8,4.5-11,4.5
	s-8-1.6-11-4.5c-3.1-3.1-8.2-3.1-11.3,0C73.3,198,73.3,203.1,76.4,206.2z M133.2,207.1c-3.1-3.1-8.2-3.1-11.3,0
	c-6,6-9.2,13.9-9.2,22.3c0,8.4,3.3,16.3,9.2,22.3c1.6,1.6,3.6,2.3,5.7,2.3c2,0,4.1-0.8,5.7-2.3c3.1-3.1,3.1-8.2,0-11.3
	c-2.9-2.9-4.5-6.8-4.5-11s1.6-8,4.5-11C136.3,215.3,136.3,210.3,133.2,207.1z M98.7,243.4c-8.4,0-16.3,3.3-22.3,9.2
	c-3.1,3.1-3.1,8.2,0,11.3c3.1,3.1,8.2,3.1,11.3,0c2.9-2.9,6.8-4.5,11-4.5s8,1.6,11,4.5c1.6,1.6,3.6,2.3,5.7,2.3c2,0,4.1-0.8,5.7-2.3
	c3.1-3.1,3.1-8.2,0-11.3C115,246.7,107.1,243.4,98.7,243.4z M64.1,251.7c1.6,1.6,3.6,2.3,5.7,2.3s4.1-0.8,5.7-2.3
	c5.9-6,9.2-13.9,9.2-22.3c0-8.4-3.3-16.3-9.2-22.3c-3.1-3.1-8.2-3.1-11.3,0c-3.1,3.1-3.1,8.2,0,11.3c2.9,2.9,4.5,6.8,4.5,11
	s-1.6,8-4.5,11C61,243.5,61,248.6,64.1,251.7z M113.2,380H26.3c-4.4,0-8,3.6-8,8s3.6,8,8,8h86.8c4.4,0,8-3.6,8-8
	S117.6,380,113.2,380z M484,425.4c-3.5-3.5-9.2-3.5-12.7,0c-3.5,3.5-3.5,9.2,0,12.7c3.5,3.5,9.2,3.5,12.7,0S487.5,428.9,484,425.4z"></path>
</svg>