<svg version="1.1" id="Layer_1" xmlns="http://www.w3.org/2000/svg" xmlns:xlink="http://www.w3.org/1999/xlink" x="0px" y="0px" viewBox="0 0 512 512" enable-background="new 0 0 512 512" xml:space="preserve">
<linearGradient id="SVGID_1_" gradientUnits="userSpaceOnUse" x1="223.5286" y1="383.3321" x2="223.5286" y2="130.4198" class="gradient-element">
	<stop offset="0" class="primary-color-gradient" style="stop-color: #FFA4ED"></stop>
	<stop offset="1" class="secondary-color-gradient" style="stop-color: #DB81DA"></stop>
</linearGradient>
<path fill="url(#SVGID_1_)" d="M370.9,244c0,81.4-66,147.5-147.5,147.5c-78.6,0-142.9-61.5-147.3-139.1c7.1-2.4,17.5-1.9,20.9,6.4
	c19.7,47.5,54.5,82.5,103.5,90.2c41.7,6.6,69.3-9.4,82.8-24.8c38.9-44.6,42.5-137.4-58.3-190.1c-15.8-8.2-6.4-33.6,11.3-33.6h0.6
	c10.9,0,21.5,1.1,31.8,3.1C328.1,122.8,370.9,178.4,370.9,244z"></path>
<path d="M73.8,117.3c-1.4,1.1-3.1,1.6-4.8,1.6c-2.4,0-4.8-1.1-6.4-3.2c-2.7-3.5-1.9-8.5,1.6-11.2l90.1-67.6
	c3.5-2.6,8.5-1.9,11.2,1.6l13.5,18c2.7,3.5,1.9,8.5-1.6,11.2c-3.5,2.7-8.5,1.9-11.2-1.6l-8.7-11.6L73.8,117.3z M273.5,374.1
	c-15.9,6.2-32.8,9.4-50.1,9.4c-26.9,0-48-5.6-68.5-18.1c-0.1-0.1-0.2-0.1-0.3-0.2c-0.8-0.5-1.6-0.8-2.5-0.9c0,0,0,0,0,0
	c-1.2-0.2-2.4-0.2-3.5,0.2c-1.2,0.3-2.3,0.9-3.3,1.8c-0.6,0.6-1.2,1.3-1.6,2.1c-0.1,0.1-0.1,0.2-0.2,0.3l-26.2,51.1l-5.8-3
	l16.8-33.6c2-4,0.4-8.8-3.6-10.7s-8.8-0.4-10.7,3.6l-20.4,40.8c-2,3.9-0.4,8.7,3.5,10.7l20,10.1c1.2,0.6,2.4,0.9,3.6,0.9
	c2.9,0,5.7-1.6,7.1-4.3l26.1-50.8c20.8,11.2,42.6,16.2,69.4,16.2c19.4,0,38.2-3.5,56-10.5c4.1-1.6,6.1-6.2,4.5-10.4
	C282.3,374.5,277.7,372.5,273.5,374.1z M226.2,138.8c-4.4,0-8,3.6-8,8v106c0,2.1,0.9,4.2,2.4,5.7c1.5,1.5,3.5,2.3,5.6,2.3
	c0,0,0.1,0,0.1,0l81-1.2c4.4-0.1,7.9-3.7,7.9-8.1c-0.1-4.4-3.6-7.9-8-7.9c0,0-0.1,0-0.1,0l-72.9,1.1v-97.9
	C234.2,142.3,230.6,138.8,226.2,138.8z M382.6,104.5l-90.1-67.6c-1.7-1.3-3.8-1.8-5.9-1.5c-2.1,0.3-4,1.4-5.3,3.1l-13.5,18
	c-2.6,3.5-1.9,8.5,1.6,11.2c3.5,2.6,8.5,1.9,11.2-1.6l8.7-11.6l83.7,62.8c1.4,1.1,3.1,1.6,4.8,1.6c2.4,0,4.8-1.1,6.4-3.2
	C386.9,112.2,386.2,107.2,382.6,104.5z M377.8,245.1c0-85.1-69.3-154.4-154.4-154.4C138.3,90.7,69,159.9,69,245.1
	c0,44.6,19.4,87.1,53.1,116.5c3.3,2.9,8.4,2.5,11.3-0.8c2.9-3.3,2.6-8.4-0.8-11.3C102.4,323.1,85,285.1,85,245.1
	c0-76.3,62.1-138.4,138.4-138.4c76.3,0,138.4,62.1,138.4,138.4c0,49.2-26.5,95.1-69.1,119.8c-3.7,2.1-5,6.7-3.1,10.5l29.3,58.6
	c1.4,2.8,4.2,4.4,7.2,4.4c1.2,0,2.4-0.3,3.6-0.8c4-2,5.6-6.8,3.6-10.7l-26-52C350.9,346.4,377.8,297.4,377.8,245.1z"></path>
<path d="M483.5,468.6c0,4.4-3.6,8-8,8H212.1c-4.4,0-8-3.6-8-8s3.6-8,8-8h263.3C479.9,460.6,483.5,464.2,483.5,468.6z M71.8,457.6H56
	v-15.8c0-4.4-3.6-8-8-8s-8,3.6-8,8v15.8H24.2c-4.4,0-8,3.6-8,8s3.6,8,8,8H40v15.8c0,4.4,3.6,8,8,8s8-3.6,8-8v-15.8h15.8
	c4.4,0,8-3.6,8-8S76.2,457.6,71.8,457.6z M501.7,59.7c-20.3,0-36.8,16.5-36.8,36.8c0,4.4,3.6,8,8,8s8-3.6,8-8
	c0-11.4,9.3-20.8,20.8-20.8c4.4,0,8-3.6,8-8S506.2,59.7,501.7,59.7z M423,75.7c11.4,0,20.8,9.3,20.8,20.8c0,4.4,3.6,8,8,8s8-3.6,8-8
	c0-20.3-16.5-36.8-36.8-36.8c-4.4,0-8,3.6-8,8S418.6,75.7,423,75.7z M423,54.5c20.3,0,36.8-16.5,36.8-36.8c0-4.4-3.6-8-8-8
	s-8,3.6-8,8c0,11.4-9.3,20.8-20.8,20.8c-4.4,0-8,3.6-8,8S418.6,54.5,423,54.5z M501.7,54.5c4.4,0,8-3.6,8-8s-3.6-8-8-8
	c-11.4,0-20.8-9.3-20.8-20.8c0-4.4-3.6-8-8-8s-8,3.6-8,8C465,38,481.5,54.5,501.7,54.5z M326,438.3h125.5c4.4,0,8-3.6,8-8
	s-3.6-8-8-8H326c-4.4,0-8,3.6-8,8S321.6,438.3,326,438.3z"></path>
<g>
	<path fill="#DB81DA" class="secondary-color" d="M78.5,20.5L17.5,81.4V20.5H78.5z"></path>
	<path fill="#FFA4ED" class="primary-color" d="M464.6,142.9h21.8v142.8h-21.8V142.9z"></path>
	<path fill="#DB81DA" class="secondary-color" d="M428.7,142.9h21.8v142.8h-21.8V142.9z"></path>
</g>
</svg>