<svg version="1.1" id="Layer_1" xmlns="http://www.w3.org/2000/svg" xmlns:xlink="http://www.w3.org/1999/xlink" x="0px" y="0px" viewBox="0 0 512 512" enable-background="new 0 0 512 512" xml:space="preserve">
<linearGradient id="SVGID_1_" gradientUnits="userSpaceOnUse" x1="294.0648" y1="386.9329" x2="294.0648" y2="112.385" class="gradient-element">
	<stop offset="0" class="primary-color-gradient" style="stop-color: #FFA4ED"></stop>
	<stop offset="1" class="secondary-color-gradient" style="stop-color: #DB81DA"></stop>
</linearGradient>
<path fill="url(#SVGID_1_)" d="M130,398.3h284.7c38.9,0,71.4-30.9,72-69.9c0.6-39.6-31.5-72.1-71-72.1H415
	c-5.2-36.4-34.2-65.2-70.7-70.2c0,0-11-95.4-105.9-95.4h-0.3c-9.8,0-15.5,11.1-10,19.2c6.1,9,10.4,18.1,13.5,26.2
	c5.4,14.5,16.3,26.4,30.3,32.9c22.7,10.5,39.9,31,45.8,55.9c1,4.3,4.7,7.4,9.1,7.8c0,0,0,0,0.1,0c36.4,3.5,64.8,34.5,64.1,72
	c-0.7,38.8-33.2,69.6-72,69.6H130v0l-4.4,0c-13.4,0-19.9,4-22.8,8.7c-4.2,6.7,0.8,15.3,8.6,15.3H130z"></path>
<path d="M415.9,406.3H132c-56.6,0-102.6-46-102.6-102.6c0-57.6,34.4-96.9,94.6-108.8c1.2-62,52.1-112.1,114.4-112.1
	c43.2,0,82.3,24,102,62.5c2,3.9,0.5,8.8-3.5,10.8c-3.9,2-8.8,0.5-10.8-3.5c-17-33.2-50.6-53.8-87.7-53.8
	c-54.3,0-98.4,44.2-98.4,98.4v4.4c0,3.9-2.9,7.3-6.7,7.9c-56.7,9-87.9,42.4-87.9,94.2c0,47.8,38.9,86.6,86.6,86.6h283.9
	c34.7,0,63-28.2,63-63s-28.2-63-63-63H415c-4,0-7.4-2.9-7.9-6.9c-4.7-32.8-31-58.9-63.8-63.4c-4.4-0.6-7.4-4.6-6.8-9
	c0.6-4.4,4.6-7.4,9-6.8c37.7,5.1,68.2,33.6,76.3,70.3c40.8,3,73.1,37.2,73.1,78.7C494.8,370.9,459.4,406.3,415.9,406.3z"></path>
<g>
	<path fill="#FFA4ED" class="primary-color" d="M175.4,472.6v-21.8h142.8v21.8H175.4z"></path>
	<path fill="#DB81DA" class="secondary-color" d="M9,472.6v-21.8h142.8v21.8H9z"></path>
</g>
<path d="M372,157.6h-104c-4.4,0-8-3.6-8-8s3.6-8,8-8h104c4.4,0,8,3.6,8,8S376.4,157.6,372,157.6z M418,186.7c0-4.4-3.6-8-8-8h-81.7
	c-4.4,0-8,3.6-8,8s3.6,8,8,8H410C414.4,194.7,418,191.1,418,186.7z M482.5,68.2h-3.9v-3.9c0-4.4-3.6-8-8-8s-8,3.6-8,8v3.9h-3.9
	c-4.4,0-8,3.6-8,8s3.6,8,8,8h3.9v3.9c0,4.4,3.6,8,8,8s8-3.6,8-8v-3.9h3.9c4.4,0,8-3.6,8-8S486.9,68.2,482.5,68.2z M451.9,438.3
	c0,4.4-3.6,8-8,8h-59.2c-4.4,0-8-3.6-8-8s3.6-8,8-8h59.2C448.3,430.3,451.9,433.9,451.9,438.3z M88.5,154c0,4.4-3.6,8-8,8H21.3
	c-4.4,0-8-3.6-8-8s3.6-8,8-8h59.2C84.9,146,88.5,149.6,88.5,154z M54,71.9c-4.2-4.2-4.2-11,0-15.2c4.2-4.2,11-4.2,15.2,0
	c4.2,4.2,4.2,11,0,15.2S58.2,76.1,54,71.9z"></path>
</svg>