<svg version="1.1" id="Layer_1" xmlns="http://www.w3.org/2000/svg" xmlns:xlink="http://www.w3.org/1999/xlink" x="0px" y="0px" viewBox="0 0 512 512" enable-background="new 0 0 512 512" xml:space="preserve">
<linearGradient id="SVGID_1_" gradientUnits="userSpaceOnUse" x1="298.3548" y1="358.9639" x2="298.3548" y2="94.9771" class="gradient-element">
	<stop offset="0" class="primary-color-gradient" style="stop-color: #FFA4ED"></stop>
	<stop offset="1" class="secondary-color-gradient" style="stop-color: #DB81DA"></stop>
</linearGradient>
<path fill="url(#SVGID_1_)" d="M405.9,351c-4.4,1.8-9.2,2.8-14.3,2.8H180.4c-20.9,0-37.8-16.9-37.8-37.8l0,0
	c0-20.9,16.9-37.8,37.8-37.8h22.1c2.3-0.2,4.4-0.6,6.5-1.2c5.2-1.4,9.9-3.7,14.1-6.8c16-12.4,17.4-34.3,17.4-34.3l0.2-8.5v-102v-9.8
	c0-15.3,12.4-27.6,27.6-27.6s55.7,31.9,63.4,82c31.3,4.3,56.3,29.1,60.8,60.3h0.7c33.6,0,61,27.4,61,61
	C454.1,320.7,433.4,345.1,405.9,351z"></path>
<path d="M393.1,360.4H162.5c-4.4,0-8-3.6-8-8s3.6-8,8-8h230.6c29.2,0,53-23.8,53-53c0-29-23.8-52.6-53-52.6c-4.4,0-8-3.6-8-8
	s3.6-8,8-8c38,0,69,30.8,69,68.6C462.1,329.5,431.1,360.4,393.1,360.4z M128.8,357.7c-0.7,0-1.3-0.1-2-0.3
	c-39.4-10.2-67-45.7-67-86.4c0-49.8,29.5-83.9,81.4-94.4c1.6-53.5,45.6-96.6,99.4-96.6c24.7,0,48.5,9.2,66.8,25.8
	c16.7,15.1,27.7,35.3,31.3,57.3c21.5,4.3,37.9,15.5,48.9,33.3c2.3,3.8,1.2,8.7-2.6,11c-3.8,2.3-8.7,1.2-11-2.6
	c-9.4-15.2-24-24.3-43.5-26.9c-3.7-0.5-6.5-3.4-6.9-7.1c-4.4-42.6-40.1-74.8-83-74.8c-46,0-83.5,37.5-83.5,83.5v3.8
	c0,3.9-2.9,7.3-6.7,7.9c-48.1,7.6-74.6,36-74.6,79.8c0,33.4,22.6,62.5,55,70.9c4.3,1.1,6.8,5.5,5.7,9.8
	C135.6,355.3,132.4,357.7,128.8,357.7z"></path>
<g>
	<path fill="#FFA4ED" class="primary-color" d="M421.4,446.3h73.1v35.8h-73.1V446.3z"></path>
	<path fill="#DB81DA" class="secondary-color" d="M328,445.5h80.3v37.3H328V445.5z M16.5,388.6V480h102.6L16.5,388.6z"></path>
</g>
<path d="M255.1,414c0,4.4-3.6,8-8,8h-78.3c-4.4,0-8-3.6-8-8s3.6-8,8-8h78.3C251.6,406,255.1,409.6,255.1,414z M431.2,222.8h-78.3
	c-4.4,0-8,3.6-8,8s3.6,8,8,8h78.3c4.4,0,8-3.6,8-8S435.6,222.8,431.2,222.8z M399.2,200.8c0-4.4-3.6-8-8-8h-78.3c-4.4,0-8,3.6-8,8
	s3.6,8,8,8h78.3C395.6,208.8,399.2,205.3,399.2,200.8z M102.5,123.3H86.7v-15.8c0-4.4-3.6-8-8-8s-8,3.6-8,8v15.8H55
	c-4.4,0-8,3.6-8,8s3.6,8,8,8h15.8v15.8c0,4.4,3.6,8,8,8s8-3.6,8-8v-15.8h15.8c4.4,0,8-3.6,8-8S106.9,123.3,102.5,123.3z M354.3,47.2
	c0-5,4.1-9,9-9s9,4.1,9,9s-4.1,9-9,9S354.3,52.2,354.3,47.2z M324.3,47.2c0-5,4.1-9,9-9s9,4.1,9,9s-4.1,9-9,9S324.3,52.2,324.3,47.2
	z M294.3,47.2c0-5,4.1-9,9-9s9,4.1,9,9s-4.1,9-9,9S294.3,52.2,294.3,47.2z M394.3,55.2h87.6c4.4,0,8-3.6,8-8s-3.6-8-8-8h-87.6
	c-4.4,0-8,3.6-8,8S389.8,55.2,394.3,55.2z M494.1,380.3c0,14.6-11.8,26.4-26.4,26.4s-26.4-11.8-26.4-26.4s11.8-26.4,26.4-26.4
	S494.1,365.7,494.1,380.3z M478.1,380.3c0-5.7-4.7-10.4-10.4-10.4s-10.4,4.7-10.4,10.4s4.7,10.4,10.4,10.4S478.1,386,478.1,380.3z
	 M307.4,413.1c0,5-4.1,9-9,9s-9-4.1-9-9s4.1-9,9-9S307.4,408.1,307.4,413.1z"></path>
</svg>