<svg version="1.1" id="Layer_1" xmlns="http://www.w3.org/2000/svg" xmlns:xlink="http://www.w3.org/1999/xlink" x="0px" y="0px" viewBox="0 0 512 512" enable-background="new 0 0 512 512" xml:space="preserve">
<path fill="#000000" d="M492.9,289.4c0,4.4-3.6,8-8,8h-48.3c-4.4,0-8-3.6-8-8s3.6-8,8-8h48.3C489.3,281.4,492.9,285,492.9,289.4z
	 M466,351.8h-82.9c-4.4,0-8,3.6-8,8s3.6,8,8,8H466c4.4,0,8-3.6,8-8S470.4,351.8,466,351.8z M430.2,76H446v15.8c0,4.4,3.6,8,8,8
	s8-3.6,8-8V76h15.8c4.4,0,8-3.6,8-8s-3.6-8-8-8H462V44.3c0-4.4-3.6-8-8-8s-8,3.6-8,8V60h-15.8c-4.4,0-8,3.6-8,8S425.8,76,430.2,76z
	 M69.1,31.9c-4.4,0-8,3.6-8,8c0,11.4-9.3,20.8-20.7,20.8c-4.4,0-8,3.6-8,8s3.6,8,8,8c20.3,0,36.7-16.5,36.7-36.8
	C77.1,35.5,73.5,31.9,69.1,31.9z M119.1,60.6c-11.4,0-20.8-9.3-20.8-20.8c0-4.4-3.6-8-8-8s-8,3.6-8,8c0,20.3,16.5,36.8,36.8,36.8
	c4.4,0,8-3.6,8-8S123.5,60.6,119.1,60.6z M119.1,81.9c-20.3,0-36.8,16.5-36.8,36.8c0,4.4,3.6,8,8,8s8-3.6,8-8
	c0-11.4,9.3-20.8,20.8-20.8c4.4,0,8-3.6,8-8S123.5,81.9,119.1,81.9z M40.4,81.9c-4.4,0-8,3.6-8,8s3.6,8,8,8
	c11.4,0,20.7,9.3,20.7,20.8c0,4.4,3.6,8,8,8s8-3.6,8-8C77.1,98.4,60.6,81.9,40.4,81.9z M50.7,452.7c-3.1-3.1-8.2-3.1-11.3,0
	l-2.8,2.8l-2.8-2.8c-3.1-3.1-8.2-3.1-11.3,0c-3.1,3.1-3.1,8.2,0,11.3l2.7,2.7l-2.7,2.7c-3.1,3.1-3.1,8.2,0,11.3
	c1.6,1.6,3.6,2.3,5.7,2.3s4.1-0.8,5.7-2.3l2.8-2.8l2.8,2.8c1.6,1.6,3.6,2.3,5.7,2.3s4.1-0.8,5.7-2.3c3.1-3.1,3.1-8.2,0-11.3
	l-2.7-2.7l2.7-2.7C53.9,460.9,53.9,455.8,50.7,452.7z M51,216.8c-5.9,0-10.8,4.8-10.8,10.8s4.8,10.8,10.8,10.8s10.8-4.8,10.8-10.8
	S57,216.8,51,216.8z"></path>
<linearGradient id="SVGID_1_" gradientUnits="userSpaceOnUse" x1="317.7045" y1="280.0983" x2="315.0345" y2="33.3907" class="gradient-element">
	<stop offset="0" class="primary-color-gradient" style="stop-color: #FFA4ED"></stop>
	<stop offset="1" class="secondary-color-gradient" style="stop-color: #DB81DA"></stop>
</linearGradient>
<path fill="url(#SVGID_1_)" d="M183,81.6l-16,16l32.1,32.1l16-16L183,81.6z M420.2,198.6v22.7h45.4v-22.7H420.2z M407.7,81.6
	l-32.1,32.1l16,16l32.1-32.1L407.7,81.6z M284,39.7v45.4h22.7V39.7H284z M295.4,107.8c-43.1,0-80,26.8-95,64.6
	c16.3,2.1,33.2,13,41.4,18.9c7.7-22.2,28.8-38.1,53.6-38.1c31.3,0,56.7,25.4,56.7,56.7c0,18-8.4,34-21.5,44.4
	c18.2,8.5,29.3,20.3,35.6,29.1c19.3-18.6,31.3-44.6,31.3-73.5C397.5,153.5,351.8,107.8,295.4,107.8z"></path>
<path d="M385.2,433.5H118.5c-24.6,0-47.7-9.7-65.2-27.2c-17.4-17.4-26.9-40.3-26.8-64.6c0.1-43.3,23.2-76.2,63.7-91
	c3.7-19.8,13.1-37.8,27.4-52.3c15.3-15.6,34.9-25.7,56.4-29.1c4.4-0.7,8.5,2.3,9.2,6.6c0.7,4.4-2.3,8.5-6.6,9.2
	c-37.5,6-66.1,35.3-71.3,72.8c-0.4,3-2.6,5.6-5.5,6.5c-36.8,11.8-57.1,39.3-57.2,77.4c0,20,7.8,38.9,22.2,53.3
	c14.5,14.5,33.6,22.5,53.9,22.5h266.7c20,0,38.5-12.2,46-30.4c1.7-4.1,6.4-6,10.5-4.3c4.1,1.7,6,6.4,4.3,10.5
	C435.8,417.7,412,433.5,385.2,433.5z M442.1,367.8c-4,0-7.5-3-7.9-7.1c-2.8-24-22.6-40.7-48.1-40.7H373c-3.8,0-7.1-2.7-7.8-6.4
	c-1.5-7.1-3.9-13.9-7.3-20.4c-0.1-0.1-0.1-0.2-0.2-0.3c-0.5-0.9-1-1.8-1.5-2.6c-0.3-0.5-0.5-1-0.7-1.5c-4.6-7.6-11.8-14.6-11.9-14.7
	c0,0-0.1-0.1-0.1-0.1C329,259.8,309.8,252,289.7,252c-2.7,0-5.5,0.2-8.3,0.5c-3.9,0.5-7.6-2-8.6-5.8c-6-21.2-20.4-39.9-39.8-51.1
	c-6.3-3.7-13.5-6.4-21.3-8.2l-14.6-3.4c-2.2-0.5-4.1-1.9-5.2-3.9c-1.1-2-1.3-4.4-0.6-6.5c15.3-44.1,57.1-73.7,104-73.7
	c60.7,0,110.1,49.4,110.1,110.1c0,29.3-11.7,57.4-32.4,78c2.6,5.2,4.6,10.6,6.2,16.1h6.8c33.3,0,60.2,23.1,64,54.8
	c0.5,4.4-2.6,8.4-7,8.9C442.8,367.8,442.5,367.8,442.1,367.8z M354.7,262.6c0.6,0.6,5.2,5,9.9,11.1c15.9-17.3,24.9-40.1,24.9-63.8
	c0-51.9-42.2-94.1-94.1-94.1c-37,0-70.3,21.6-85.5,54.6l5.5,1.3c9.4,2.2,18,5.5,25.7,10c20.9,12.2,37.1,31.8,45.1,54.3
	c1.2,0,2.3-0.1,3.5-0.1C314,236,337.1,245.4,354.7,262.6z"></path>
</svg>