<svg version="1.1" id="Layer_1" xmlns="http://www.w3.org/2000/svg" xmlns:xlink="http://www.w3.org/1999/xlink" x="0px" y="0px" viewBox="0 0 512 512" enable-background="new 0 0 512 512" xml:space="preserve">
<linearGradient id="SVGID_1_" gradientUnits="userSpaceOnUse" x1="294.4852" y1="450.4337" x2="294.4852" y2="99.2211" class="gradient-element">
	<stop offset="0" class="primary-color-gradient" style="stop-color: #FFA4ED"></stop>
	<stop offset="1" class="secondary-color-gradient" style="stop-color: #DB81DA"></stop>
</linearGradient>
<path fill="url(#SVGID_1_)" d="M198.5,328.4h-33.9c-11.6,0-22.5-2.5-32.4-7c-6.7-3-4.6-13,2.8-13h63.6V328.4z M401.6,209.9h-0.7
	c-4.4-30.4-28.6-54.5-59-58.6c0,0-9.2-79.6-88.4-79.6h-0.2c-8.1,0-12.9,9.3-8.4,16c5.1,7.5,8.7,15.1,11.3,21.9
	c4.5,12.1,13.6,22,25.3,27.5c19,8.8,33.3,25.9,38.2,46.7c0.9,3.6,3.9,6.2,7.6,6.5c0,0,0,0,0.1,0c30.4,2.9,54.1,28.9,53.5,60.1
	c-0.6,32.4-27.7,58.2-60.1,58.2h-64.5v0l-3.7,0c-11.1,0-20,9-20,20l0,0v87.4c0,5.4-4.4,9.8-9.8,9.8h-11.3c-3.1,0-5.7,2.5-5.7,5.7
	v5.7c0,3.1,2.5,5.7,5.7,5.7l19.3,22.3l81.5-90.2l-21-21l-35,25.2v-50.6h144.5c32.5,0,59.7-25.8,60.1-58.4
	C461.4,236.9,434.6,209.9,401.6,209.9z"></path>
<path d="M468.9,269.1c0,37.1-30.2,67.3-67.3,67.3H265.7v28.4l18.2-18.2c3.1-3.1,8.2-3.1,11.3,0l24,24c3.1,3.1,3.1,8.2,0,11.3
	l-84.9,84.9c-1.6,1.6-3.6,2.3-5.7,2.3c-2,0-4.1-0.8-5.7-2.3l-85-84.9c-1.5-1.5-2.3-3.5-2.3-5.7c0-2.1,0.8-4.2,2.3-5.7l24-24
	c1.5-1.5,3.5-2.3,5.7-2.3c0,0,0,0,0,0c2.1,0,4.2,0.8,5.7,2.3l19.7,19.7L192.9,239c0-2.1,0.8-4.2,2.3-5.7c1.5-1.5,3.5-2.3,5.7-2.3
	H257c4.4,0,8,3.6,8,8v39.5c0,4.4-3.6,8-8,8s-8-3.6-8-8V247h-40.1l0.1,138.7c0,3.2-1.9,6.2-4.9,7.4c-3,1.2-6.4,0.6-8.7-1.7
	l-27.7-27.7L155,376.2l73.7,73.6l73.6-73.6l-12.7-12.7l-26.2,26.2c-2.3,2.3-5.7,3-8.7,1.7c-3-1.2-4.9-4.2-4.9-7.4v-79.3
	c0-4.4,3.6-8,8-8s8,3.6,8,8v15.5h135.9c28.3,0,51.3-23,51.3-51.3s-23-51.3-51.3-51.3h-0.7c-4,0-7.4-2.9-7.9-6.9
	c-3.9-26.9-25.3-48.2-52.2-51.8c-4.4-0.6-7.4-4.6-6.8-9c0.6-4.4,4.6-7.4,9-6.8c31.7,4.3,57.4,28.1,64.6,58.8
	C441.9,205.1,468.9,234,468.9,269.1z M179.2,336.4c4.4,0,8-3.6,8-8s-3.6-8-8-8h-14.6c-39.2,0-71-31.9-71-71
	c0-42.5,25.7-69.9,72.3-77.3c3.9-0.6,6.7-4,6.7-7.9v-3.7c0-44.6,36.3-80.9,80.9-80.9c30.5,0,58.1,16.9,72.1,44.2
	c2,3.9,6.8,5.5,10.8,3.5c3.9-2,5.5-6.8,3.5-10.8c-16.7-32.6-49.8-52.9-86.3-52.9c-52.4,0-95.2,41.8-96.8,93.9
	c-50.4,10.3-79.1,43.5-79.1,91.9c0,48,39,87,87,87H179.2z"></path>
<g>
	<path fill="#FFA4ED" class="primary-color" d="M21.6,433.1h16.4v16.4H21.6V433.1z"></path>
	<path fill="#FFA4ED" class="primary-color" d="M21.6,292.1h16.4v114.4H21.6V292.1z"></path>
	<path fill="#DB81DA" class="secondary-color" d="M21.6,473.1h16.4v16.4H21.6V473.1z M475,108.7l-60.9-60.9H475V108.7z"></path>
</g>
<path d="M53.4,49.4c0,4.4-3.6,8-8,8h-3.9v3.9c0,4.4-3.6,8-8,8s-8-3.6-8-8v-3.9h-3.9c-4.4,0-8-3.6-8-8s3.6-8,8-8h3.9v-3.9
	c0-4.4,3.6-8,8-8s8,3.6,8,8v3.9h3.9C49.8,41.4,53.4,45,53.4,49.4z M373,120.7c0-4.4-3.6-8-8-8h-86.8c-4.4,0-8,3.6-8,8s3.6,8,8,8H365
	C369.4,128.7,373,125.1,373,120.7z M404.7,151.7c0-4.4-3.6-8-8-8h-68.2c-4.4,0-8,3.6-8,8s3.6,8,8,8h68.2
	C401.1,159.7,404.7,156.1,404.7,151.7z M456,461.2h-86.8c-4.4,0-8,3.6-8,8s3.6,8,8,8H456c4.4,0,8-3.6,8-8S460.4,461.2,456,461.2z
	 M402.8,441.1c0-4.4-3.6-8-8-8h-57.4c-4.4,0-8,3.6-8,8s3.6,8,8,8h57.4C399.3,449.1,402.8,445.5,402.8,441.1z M115.4,112.7H99.6V96.9
	c0-4.4-3.6-8-8-8s-8,3.6-8,8v15.8H67.9c-4.4,0-8,3.6-8,8s3.6,8,8,8h15.8v15.8c0,4.4,3.6,8,8,8s8-3.6,8-8v-15.8h15.8c4.4,0,8-3.6,8-8
	S119.8,112.7,115.4,112.7z"></path>
</svg>