<svg version="1.1" id="Layer_1" xmlns="http://www.w3.org/2000/svg" xmlns:xlink="http://www.w3.org/1999/xlink" x="0px" y="0px" viewBox="0 0 512 512" enable-background="new 0 0 512 512" xml:space="preserve">
<path fill="#000000" d="M166.6,192.5c0,4.4-3.6,8-8,8h-43c-4.4,0-8-3.6-8-8s3.6-8,8-8h43C163,184.5,166.6,188,166.6,192.5z
	 M146.9,214.5H73.1c-4.4,0-8,3.6-8,8c0,4.4,3.6,8,8,8h73.8c4.4,0,8-3.6,8-8C154.9,218,151.3,214.5,146.9,214.5z M485.6,238.1h-15.8
	v-15.8c0-4.4-3.6-8-8-8s-8,3.6-8,8v15.8H438c-4.4,0-8,3.6-8,8s3.6,8,8,8h15.8v15.8c0,4.4,3.6,8,8,8s8-3.6,8-8v-15.8h15.8
	c4.4,0,8-3.6,8-8S490,238.1,485.6,238.1z M91.7,375.4c-4.4,0-8,3.6-8,8c0,11.4-9.3,20.8-20.8,20.8c-4.4,0-8,3.6-8,8s3.6,8,8,8
	c20.3,0,36.8-16.5,36.8-36.8C99.7,379,96.1,375.4,91.7,375.4z M141.7,404.2c-11.4,0-20.8-9.3-20.8-20.8c0-4.4-3.6-8-8-8s-8,3.6-8,8
	c0,20.3,16.5,36.8,36.8,36.8c4.4,0,8-3.6,8-8S146.1,404.2,141.7,404.2z M141.7,425.4c-20.3,0-36.8,16.5-36.8,36.8c0,4.4,3.6,8,8,8
	s8-3.6,8-8c0-11.4,9.3-20.8,20.8-20.8c4.4,0,8-3.6,8-8S146.1,425.4,141.7,425.4z M62.9,425.4c-4.4,0-8,3.6-8,8s3.6,8,8,8
	c11.4,0,20.8,9.3,20.8,20.8c0,4.4,3.6,8,8,8s8-3.6,8-8C99.7,441.9,83.2,425.4,62.9,425.4z M441.7,447.7c-5.9,0-10.8,4.8-10.8,10.7
	c0,5.9,4.8,10.8,10.8,10.8c5.9,0,10.8-4.8,10.8-10.8C452.4,452.5,447.6,447.7,441.7,447.7z"></path>
<g>
	<path fill="#DB81DA" class="secondary-color" d="M98.2,33.7v35.2H75.7V33.7H98.2z"></path>
	<path fill="#FFA4ED" class="primary-color" d="M52,33.7v35.2H30.4V33.7H52z"></path>
</g>
<linearGradient id="SVGID_1_" gradientUnits="userSpaceOnUse" x1="308.6751" y1="322.446" x2="303.3286" y2="62.6044" class="gradient-element">
	<stop offset="0" class="primary-color-gradient" style="stop-color: #FFA4ED"></stop>
	<stop offset="1" class="secondary-color-gradient" style="stop-color: #DB81DA"></stop>
</linearGradient>
<path fill="url(#SVGID_1_)" d="M482.9,142.9c0,63-51.1,114.1-114.1,114.1c-16.8,0-32.7-3.7-47-10.3L254.7,325h-25.3L127.6,206.2
	h228.5L465.5,82.4C487,103.1,482.9,110.6,482.9,142.9z"></path>
<path d="M330.8,493.1H145.3v-39.8l76-16.7V327.9L74.2,156.2c-5.2-6.2-6.3-14.6-3.1-21.9c3.4-7.4,10.8-12.1,18.8-12.1h158.6
	c4.6-26.9,18.1-51.5,38.6-70c22.5-20.3,51.5-31.4,81.6-31.4c67.3,0,122.1,54.8,122.1,122.1c0,67.3-54.8,122.1-122.1,122.1
	c-15.4,0-30.4-2.9-44.8-8.5l-61.3,71.5v105.9c0,4.4-3.6,8-8,8s-8-3.6-8-8V322l72.9-85l5.5,2.5c13.9,6.3,28.6,9.4,43.7,9.4
	c58.5,0,106.1-47.6,106.1-106.1S427.3,36.8,368.8,36.8c-54.2,0-99.5,40.5-105.4,94.3l-0.8,7.1H90c-1.8,0-3.5,1.1-4.3,2.7
	c-0.7,1.7-0.5,3.6,0.7,5.1L237.4,322v127.4l-76,16.7v10.9h169.4c4.4,0,8,3.6,8,8S335.2,493.1,330.8,493.1z M345.2,231.6l64.6-75.3
	l0.1-0.1c5.2-6.2,6.3-14.6,3-22c-3.3-7.3-10.7-12-18.8-12h-94.4l-1.2,6.6c-0.8,4.3-1.1,8.7-1.1,14.1c0,4.4,3.6,8,8,8s8-3.6,8-8
	c0-1.7,0-3.2,0.1-4.7h80.6c1.8,0,3.5,1.1,4.2,2.6c0.8,1.7,0.5,3.7-0.7,5.1l-64.6,75.2c-2.9,3.4-2.5,8.4,0.9,11.3
	c1.5,1.3,3.4,1.9,5.2,1.9C341.4,234.4,343.6,233.4,345.2,231.6z"></path>
</svg>