<svg version="1.1" id="Layer_1" xmlns="http://www.w3.org/2000/svg" xmlns:xlink="http://www.w3.org/1999/xlink" x="0px" y="0px" viewBox="0 0 512 512" enable-background="new 0 0 512 512" xml:space="preserve">
<linearGradient id="SVGID_1_" gradientUnits="userSpaceOnUse" x1="258.0678" y1="442.0468" x2="258.0678" y2="57.8529" class="gradient-element">
	<stop offset="0" class="primary-color-gradient" style="stop-color: #FFA4ED"></stop>
	<stop offset="1" class="secondary-color-gradient" style="stop-color: #DB81DA"></stop>
</linearGradient>
<path fill="url(#SVGID_1_)" d="M486,306.2c-16.9-16.9-133.9-133.9-134-134.1l0,1.2v53.5c0,3,3.9,4,5.4,1.4c2.6-4.5,7.3-6.9,12-6.9
	c3.4,0,6.8,1.2,9.5,3.9l74.9,72.3c3.1,3,3.1,7.9,0.1,10.9L344.3,420.8c0,0-0.1,0.1-0.1,0.1c-5.5,5.5-5.4,14.5,0.1,20l7,7L486,310.3
	C487.1,309.2,487.1,307.4,486,306.2z M30.1,193.6c16.9,16.9,133.9,133.9,134,134.1l0-1.2V273c0-3-3.9-4-5.4-1.4
	c-2.6,4.5-7.3,6.9-12,6.9c-3.4,0-6.8-1.2-9.5-3.9l-74.9-72.3c-3.1-3-3.1-7.9-0.1-10.9L171.9,79.1c0,0,0.1-0.1,0.1-0.1
	c5.5-5.5,5.4-14.5-0.1-20l-7-7L30.1,189.5C29,190.6,29,192.5,30.1,193.6z M255.4,360.5h0.3l-29,88.7h-33.6h0
	c-15.6,0-31.7-3.2-26.8-18.1l19.1-55.3c3-9.1,11.5-15.3,21.1-15.3h0c9.1,0,17.1-5.8,19.9-14.5l81-250.6
	c6.1-18.9,23.8-31.8,43.6-31.8h0.2L255.4,360.5z"></path>
<path d="M488.6,322.2L362.8,448c-1.6,1.6-3.6,2.3-5.7,2.3c-2,0-4.1-0.8-5.7-2.3c-3.1-3.1-3.1-8.2,0-11.3l125.8-125.8
	c1-0.9,1.1-2.1,1.1-2.6c0-0.6-0.1-1.7-1.1-2.6l-124-124v45.5c0,4.4-3.6,8-8,8s-8-3.6-8-8v-64.8c0-3.2,1.9-6.2,4.9-7.4
	c3-1.2,6.4-0.6,8.7,1.7l137.6,137.6C496.3,302,496.3,314.5,488.6,322.2z M391.6,308.3c0,1.3-0.5,2.6-1.5,3.5l-38.3,38.3
	c-3.1,3.1-3.1,8.2,0,11.3c1.6,1.6,3.6,2.3,5.7,2.3c2,0,4.1-0.8,5.7-2.3l38.3-38.3c8.2-8.2,8.2-21.5,0-29.6l-42.9-42.9
	c-3.1-3.1-8.2-3.1-11.3,0c-3.1,3.1-3.1,8.2,0,11.3l42.9,42.9C391.1,305.7,391.6,307,391.6,308.3z M170.8,345.5c1,0,2.1-0.2,3.1-0.6
	c3-1.2,4.9-4.2,4.9-7.4v-64.8c0-4.4-3.6-8-8-8s-8,3.6-8,8v45.5l-124-124c-1.4-1.4-1.4-3.8,0-5.3L164.6,63.1c3.1-3.1,3.1-8.2,0-11.3
	c-3.1-3.1-8.2-3.1-11.3,0L27.5,177.6c-3.7,3.7-5.8,8.7-5.8,13.9c0,5.3,2,10.2,5.8,13.9l137.6,137.6
	C166.7,344.7,168.8,345.5,170.8,345.5z M126,188l38.3-38.3c3.1-3.1,3.1-8.2,0-11.3c-3.1-3.1-8.2-3.1-11.3,0l-38.3,38.3
	c-8.2,8.2-8.2,21.5,0,29.6l42.9,42.9c1.6,1.6,3.6,2.3,5.7,2.3s4.1-0.8,5.7-2.3c3.1-3.1,3.1-8.2,0-11.3L126,195.1
	C124.1,193.1,124.1,190,126,188z M353.9,56.1c-4.2-1.4-8.7,0.9-10.1,5.2L220.9,441.2h-49.8L290.6,71.7h27.9c4.4,0,8-3.6,8-8
	s-3.6-8-8-8h-33.7c-3.5,0-6.5,2.2-7.6,5.5L152.5,446.8c-0.8,2.4-0.4,5.1,1.1,7.2s3.9,3.3,6.5,3.3h66.6c3.5,0,6.5-2.2,7.6-5.5
	L359,66.2C360.4,62,358.1,57.5,353.9,56.1z"></path>
<path d="M360.1,111.1c0-4.4,3.6-8,8-8h57.4c4.4,0,8,3.6,8,8s-3.6,8-8,8h-57.4C363.7,119.1,360.1,115.5,360.1,111.1z M113.3,354.3
	c0-4.4-3.6-8-8-8H18.4c-4.4,0-8,3.6-8,8s3.6,8,8,8h86.8C109.7,362.3,113.3,358.8,113.3,354.3z M134,377.2H76.6c-4.4,0-8,3.6-8,8
	s3.6,8,8,8H134c4.4,0,8-3.6,8-8S138.4,377.2,134,377.2z M482,130.8H354.8c-4.4,0-8,3.6-8,8s3.6,8,8,8H482c4.4,0,8-3.6,8-8
	S486.4,130.8,482,130.8z M21.3,52c0-14.6,11.8-26.4,26.4-26.4S74.1,37.4,74.1,52S62.2,78.4,47.7,78.4S21.3,66.5,21.3,52z M37.3,52
	c0,5.7,4.7,10.4,10.4,10.4S58.1,57.7,58.1,52s-4.7-10.4-10.4-10.4S37.3,46.3,37.3,52z M312,439.8h-3.9v-3.9c0-4.4-3.6-8-8-8
	s-8,3.6-8,8v3.9h-3.9c-4.4,0-8,3.6-8,8s3.6,8,8,8h3.9v3.9c0,4.4,3.6,8,8,8s8-3.6,8-8v-3.9h3.9c4.4,0,8-3.6,8-8
	S316.4,439.8,312,439.8z"></path>
<g>
	<path fill="#DB81DA" class="secondary-color" d="M423.5,473.6l60.9-60.9v60.9H423.5z"></path>
	<path fill="#FFA4ED" class="primary-color" d="M488.8,17.8V81H454V17.8H488.8z"></path>
</g>
</svg>