<svg version="1.1" id="Layer_1" xmlns="http://www.w3.org/2000/svg" xmlns:xlink="http://www.w3.org/1999/xlink" x="0px" y="0px" viewBox="0 0 512 512" enable-background="new 0 0 512 512" xml:space="preserve">
<path fill="#FFA4ED" class="primary-color" d="M419.3,28.7h27.4v27.4h-27.4V28.7z M488,56.1V28.7h-27.4v27.4H488z M488,98.3V70.8h-27.4v27.4H488z"></path>
<path d="M89.6,109.2c0,4.4-3.6,8-8,8h-55c-4.4,0-8-3.6-8-8s3.6-8,8-8h55C86,101.2,89.6,104.8,89.6,109.2z M472.3,449.2h-92.9
	c-4.4,0-8,3.6-8,8s3.6,8,8,8h92.9c4.4,0,8-3.6,8-8S476.7,449.2,472.3,449.2z M481.9,158.5c4.2-4.2,4.2-11,0-15.2
	c-4.2-4.2-11-4.2-15.2,0s-4.2,11,0,15.2C470.9,162.7,477.7,162.7,481.9,158.5z M482.8,307.9h-3.9V304c0-4.4-3.6-8-8-8s-8,3.6-8,8
	v3.9H459c-4.4,0-8,3.6-8,8s3.6,8,8,8h3.9v3.9c0,4.4,3.6,8,8,8s8-3.6,8-8v-3.9h3.9c4.4,0,8-3.6,8-8S487.2,307.9,482.8,307.9z"></path>
<linearGradient id="SVGID_1_" gradientUnits="userSpaceOnUse" x1="279.8812" y1="429.5661" x2="279.8812" y2="177.1239" class="gradient-element">
	<stop offset="0" class="primary-color-gradient" style="stop-color: #FFA4ED"></stop>
	<stop offset="1" class="secondary-color-gradient" style="stop-color: #DB81DA"></stop>
</linearGradient>
<path fill="url(#SVGID_1_)" d="M398.2,227.1l-43.4-5c0-15.1-1.9-19.2-17-19.2c-16.8,0-28.6,5.2-36.6,15.4
	c-8,10.1-12.3,25.1-14.1,44.7c-0.3,2.8-0.4,5.7-0.4,8.6v0.8c0,85.7,0.5,76.1-43.4,76.1H190c-60.3,0-63.2,9.6-63,39.5
	c0.1,9.9,24.4,25,34.3,25h122.2c23.2,0,42-18.8,42-42l56,1.1l32.9-30.5l18.2-71.8C435,252.5,415.5,229.1,398.2,227.1z M392.8,289.7
	c-8.5,40.8-27.1,57.7-27.1,57.7h-30.3c11.2-28.3,16.5-63.3,18.9-88.3C378.1,250.9,401.3,248.9,392.8,289.7z"></path>
<path d="M270.2,421.1h-95.5c-17.4,0-32.8-6.4-45.8-19c-10.7-10.3-19.8-24.9-27.1-43.4c-12.8-32.4-17.8-71-19.8-97.7
	c0-0.1,0-0.2,0-0.4c0-0.9,0.1-1.9,0.4-2.7c0.4-1.2,1-2.2,1.8-3.1c0,0,0,0,0,0c0.8-0.9,1.8-1.5,2.9-2c0.8-0.3,1.7-0.5,2.6-0.6
	c0.1,0,0.3,0,0.4,0H318c4.4,0,8,3.6,8,8s-3.6,8-8,8H98.7c4.4,47.1,20.1,136.8,76,136.8h95.5c19.9,0,36.5-11.5,49.3-34.1
	c1.4-2.5,4.1-4.1,7-4.1h39.2c21.9,0,35.7-17.6,43.5-32.3c9.5-18.1,15.4-42.9,15.4-64.7c0-39.3-38.1-39.7-39.7-39.7h-30.1
	c-3.5,0-6.6-2.3-7.7-5.7c-3.2-10.6-13.8-13.4-19.6-13.4H117.5c-12.4,0-17.4,7.4-19.4,13.6c-1.4,4.2-5.9,6.5-10.1,5.1
	c-4.2-1.4-6.5-5.9-5.1-10.1c5-15.4,18-24.6,34.6-24.6h210.1c12,0,25.9,6,32.6,19.1h24.7c4.6,0,20.5,0.8,34.8,11.2
	c9.6,7,21,20.4,21,44.5c0,24.6-6.4,51.6-17.2,72.1c-14,26.8-34,40.9-57.6,40.9h-34.7C315.5,408.2,295.1,421.1,270.2,421.1z
	 M365.7,355.4h-30.3c-2.6,0-5.1-1.3-6.6-3.5s-1.8-5-0.8-7.4c11.1-28,16-61.4,18.2-84.6c0.4-4.4,4.3-7.6,8.7-7.2
	c4.4,0.4,7.6,4.3,7.2,8.7c-2,21.3-6.3,50.9-15.3,78h18.9c4.4,0,8,3.6,8,8S370.1,355.4,365.7,355.4z M221.8,178.8
	c-3.2,0-6.2-1.9-7.4-5c-9.2-23.1-0.2-34.3,9.3-46.2c9.7-12.1,19.7-24.6,9.8-49.2c-1.6-4.1,0.3-8.8,4.4-10.4
	c4.1-1.6,8.8,0.3,10.4,4.4c13.4,33.3-2,52.5-12.1,65.1c-8.7,10.9-12.7,15.9-7,30.4c1.6,4.1-0.4,8.8-4.5,10.4
	C223.8,178.6,222.8,178.8,221.8,178.8z M164.5,178.8c-3.2,0-6.2-1.9-7.4-5c-9.2-23.1-0.2-34.3,9.3-46.2c9.7-12.1,19.7-24.6,9.8-49.2
	c-1.6-4.1,0.3-8.8,4.4-10.4c4.1-1.6,8.8,0.3,10.4,4.4c13.4,33.3-2,52.5-12.1,65.1c-8.7,10.9-12.7,15.9-7,30.4
	c1.6,4.1-0.4,8.8-4.5,10.4C166.5,178.6,165.5,178.8,164.5,178.8z M279.1,178.8c-3.2,0-6.2-1.9-7.4-5c-9.3-23-0.3-34.3,9.2-46.2
	c9.7-12.1,19.7-24.6,9.8-49.3c-1.6-4.1,0.4-8.8,4.5-10.4c4.1-1.6,8.8,0.4,10.4,4.5c13.3,33.4-2,52.5-12.2,65.2
	c-8.8,11-12.7,15.9-6.9,30.3c1.7,4.1-0.3,8.8-4.4,10.4C281.1,178.6,280.1,178.8,279.1,178.8z"></path>
</svg>