<svg version="1.1" id="Layer_1" xmlns="http://www.w3.org/2000/svg" xmlns:xlink="http://www.w3.org/1999/xlink" x="0px" y="0px" viewBox="0 0 512 512" enable-background="new 0 0 512 512" xml:space="preserve">
<linearGradient id="SVGID_1_" gradientUnits="userSpaceOnUse" x1="247.4899" y1="423.2754" x2="247.4899" y2="145.4976" class="gradient-element">
	<stop offset="0" class="primary-color-gradient" style="stop-color: #FFA4ED"></stop>
	<stop offset="1" class="secondary-color-gradient" style="stop-color: #DB81DA"></stop>
</linearGradient>
<path fill="url(#SVGID_1_)" d="M321.4,284.7c0,76.9-62.2,138.9-139,138.9c-67.6,0-123.8-48.2-136.4-112c-2.7-14,7.9-27,22.2-27h0
	c10.7,0,20.1,7.5,22.1,18c8.5,43.6,47.2,76.5,93.4,75.8c50.5-0.7,91.8-42,92.5-92.5c0.6-46.3-32.2-85-75.8-93.4
	c-10.5-2-18-11.4-18-22.1c0-14.2,13-24.9,27-22.2C273.2,160.8,321.4,217.1,321.4,284.7z M398.3,369.4V367v-52.2v-0.3h49.1v-52.2
	h-63.7c-14.4,0-26.1,11.7-26.1,26.1c0,12.1,8.2,22.3,19.4,25.2v1.1h-23.7c-14.4,0-26.1,11.7-26.1,26.1v0c0,14.4,11.7,26.1,26.1,26.1
	h23.7v3.3c-11.2,2.9-19.4,13.1-19.4,25.2v0c0,14.4,11.7,26.1,26.1,26.1h65.7v-52.2H398.3z"></path>
<path d="M449.4,361.4h-43.1v-38.9h41.1c4.4,0,8-3.6,8-8v-52.2c0-4.4-3.6-8-8-8H326.3c-0.8-4-1.8-7.9-3-11.8h35.9c4.4,0,8-3.6,8-8
	s-3.6-8-8-8h-73.8c-4.4,0-8,3.6-8,8s3.6,8,8,8h21.1c2.5,7.2,4.2,14.7,5.4,22.2c0.2,1.3,0.4,2.6,0.5,3.9c0.1,0.5,0.1,0.9,0.1,1.4
	c0.1,1.3,0.3,2.6,0.4,3.9c0.1,0.6,0.1,1.3,0.1,1.9c0.1,1.1,0.2,2.3,0.2,3.4c0.1,1.8,0.1,3.6,0.1,5.3c0,1.2,0,2.3,0,3.5
	c0,0.4,0,0.8,0,1.2c0,0.8-0.1,1.5-0.1,2.3c0,0.5-0.1,1-0.1,1.5c0,0.6-0.1,1.3-0.1,1.9c0,0.6-0.1,1.2-0.2,1.8c0,0.5-0.1,1-0.1,1.5
	c-0.1,0.7-0.2,1.4-0.2,2.1c0,0.4-0.1,0.8-0.1,1.2c-0.1,0.8-0.2,1.6-0.3,2.4c0,0.3-0.1,0.5-0.1,0.8c-0.1,0.9-0.3,1.8-0.4,2.7
	c0,0.2-0.1,0.3-0.1,0.5c-0.2,1-0.4,1.9-0.6,2.9c0,0.1,0,0.1,0,0.2c-12.3,59.6-65.1,104.5-128.3,104.5c-72.2,0-131-58.8-131-131
	c0-72.2,58.8-131,131-131c42.2,0,82,20.5,106.6,54.8c0.7,1,1.6,1.8,2.6,2.3c1.4,1.1,3.2,1.8,5.1,1.8h43c4.4,0,8-3.6,8-8s-3.6-8-8-8
	h-39.6c-27.7-37-71.5-59-117.7-59c-81.1,0-147,65.9-147,147s65.9,147,147,147c12,0,23.6-1.4,34.7-4.2c1.4,1.3,3.3,2.1,5.4,2.1h226.9
	c4.4,0,8-3.6,8-8v-52.2C457.4,365,453.8,361.4,449.4,361.4z M324.4,322.8h65.9V359h-81.1C315.9,347.7,321,335.6,324.4,322.8z
	 M328.7,270.4h110.7v36.2H327.8c0.1-0.4,0.1-0.7,0.1-1.1c0.2-1.2,0.3-2.3,0.5-3.5c0.1-0.5,0.1-1,0.2-1.5c0.2-1.6,0.3-3.1,0.4-4.7
	c0-0.2,0-0.4,0-0.6c0.1-1.4,0.2-2.9,0.2-4.3c0-0.4,0-0.9,0-1.3c0.1-1.6,0.1-3.3,0.1-4.9c0-1.1,0-2.3,0-3.4c0-0.3,0-0.5,0-0.8
	c0-0.9-0.1-1.8-0.1-2.6c0-0.3,0-0.5,0-0.8c0-0.9-0.1-1.8-0.2-2.7c0-0.2,0-0.4,0-0.6c-0.1-1-0.2-2.1-0.3-3.1
	C328.7,270.5,328.7,270.4,328.7,270.4z M441.4,413.6H253.1c16.5-9.1,31.2-21.3,43.3-36.2h145V413.6z M153.2,264.5
	c0,14,10.4,24.7,27.2,27.9c18.5,3.5,26.7,7.3,26.7,20c0,4.7-1.9,20-26,20c-7.8,0-14.8-2-20.9-5.8l-11.9,11.9
	c-1.6,1.6-3.6,2.3-5.7,2.3c-2,0-4.1-0.8-5.7-2.3c-3.1-3.1-3.1-8.2,0-11.3l22.6-22.6l5.7,5.7c4.1,4.1,9.3,6.1,15.8,6.1
	c4.9,0,7.4-0.9,8.4-1.4c1.1-0.6,1.5-1,1.5-2.6c0-0.2,0-0.5,0-0.6c-1.2-0.7-4.6-2-13.7-3.7c-24.4-4.7-40.2-21.8-40.2-43.6
	c0-19.1,11.3-34.9,29.4-41.1c4.2-1.4,8.7,0.8,10.2,5c1.4,4.2-0.8,8.7-5,10.2C160.2,242.5,153.2,252.2,153.2,264.5z M212.3,374
	c-1.8-4.1,0.1-8.8,4.2-10.5c31.5-13.6,51.8-44.6,51.8-78.8c0-40.7-28.2-75.2-67.1-83.8v22.3c8.7,2.8,16.8,7.9,24.1,15.2l5.7,5.7
	l-22.6,22.6c-1.6,1.6-3.6,2.3-5.7,2.3c-2,0-4.1-0.8-5.7-2.3c-3.1-3.1-3.1-8.2,0-11.3l10.9-10.9c-5.1-3.7-10.5-6.2-16.2-7.2l-6.5-1.2
	v-42.5c-0.3-1-0.4-2-0.2-3c0.1-1.1,0.5-2.2,1-3.1c1.3-2.7,4-4.6,7.2-4.6c1.5,0,2.8,0.4,4,1.1c49.9,7.2,87.1,50,87.1,100.8
	c0,40.7-24.1,77.4-61.4,93.5c-1,0.4-2.1,0.7-3.2,0.7C216.5,378.8,213.6,377,212.3,374z M201.2,353.3v23.6c0,0,0,0.1,0,0.1
	c0.5,4.4-2.6,8.4-7,8.9c-3.9,0.4-7.8,0.7-11.8,0.7c-56.2,0-101.8-45.7-101.8-101.8c0-49.7,35.5-91.9,84.4-100.4
	c4.4-0.7,8.5,2.2,9.2,6.5c0.8,4.4-2.2,8.5-6.5,9.2c-41.2,7.1-71.1,42.7-71.1,84.6c0,47.3,38.5,85.8,85.8,85.8c0.9,0,1.9,0,2.8,0
	v-29.7l6.3-1.3c14.8-3.1,23.6-13.2,23.6-26.9c0-4.4,3.6-8,8-8s8,3.6,8,8C231.1,331.8,219.8,347,201.2,353.3z"></path>
<path fill="#FFA4ED" class="primary-color" d="M35.6,413.7H13.9v-56.9h21.8V413.7z M35.6,431.8H13.9v58.7h56.9v-21.8H35.6V431.8z M89,468.7v21.8h56.9
	v-21.8H89z"></path>
<path d="M400,66.6c0,4.4-3.6,8-8,8h-15.8v15.8c0,4.4-3.6,8-8,8s-8-3.6-8-8V74.6h-15.8c-4.4,0-8-3.6-8-8s3.6-8,8-8h15.8V42.9
	c0-4.4,3.6-8,8-8s8,3.6,8,8v15.8H392C396.4,58.6,400,62.2,400,66.6z M77.9,32c-4.4,0-8,3.6-8,8c0,11.4-9.3,20.8-20.8,20.8
	c-4.4,0-8,3.6-8,8s3.6,8,8,8c20.3,0,36.8-16.5,36.8-36.8C85.9,35.6,82.3,32,77.9,32z M127.9,60.7c-11.4,0-20.8-9.3-20.8-20.8
	c0-4.4-3.6-8-8-8s-8,3.6-8,8c0,20.3,16.5,36.8,36.8,36.8c4.4,0,8-3.6,8-8S132.3,60.7,127.9,60.7z M127.9,82
	c-20.3,0-36.8,16.5-36.8,36.8c0,4.4,3.6,8,8,8s8-3.6,8-8c0-11.4,9.3-20.8,20.8-20.8c4.4,0,8-3.6,8-8S132.3,82,127.9,82z M49.2,82
	c-4.4,0-8,3.6-8,8s3.6,8,8,8c11.4,0,20.8,9.3,20.8,20.8c0,4.4,3.6,8,8,8s8-3.6,8-8C85.9,98.5,69.4,82,49.2,82z M455.7,189.8
	c5.9,0,10.8-4.8,10.8-10.8s-4.8-10.8-10.8-10.8c-5.9,0-10.8,4.8-10.8,10.8S449.7,189.8,455.7,189.8z M465.8,454.7c-4.4,0-8,3.6-8,8
	c0,5.7-4.7,10.4-10.4,10.4s-10.4-4.7-10.4-10.4c0-4.4-3.6-8-8-8s-8,3.6-8,8c0,14.6,11.8,26.4,26.4,26.4s26.4-11.8,26.4-26.4
	C473.8,458.3,470.2,454.7,465.8,454.7z"></path>
</svg>