<svg version="1.1" id="Layer_1" xmlns="http://www.w3.org/2000/svg" xmlns:xlink="http://www.w3.org/1999/xlink" x="0px" y="0px" viewBox="0 0 512 512" enable-background="new 0 0 512 512" xml:space="preserve">
<linearGradient id="SVGID_1_" gradientUnits="userSpaceOnUse" x1="258.1281" y1="400.9391" x2="258.1281" y2="95.1173" class="gradient-element">
	<stop offset="0" class="primary-color-gradient" style="stop-color: #FFA4ED"></stop>
	<stop offset="1" class="secondary-color-gradient" style="stop-color: #DB81DA"></stop>
</linearGradient>
<path fill="url(#SVGID_1_)" d="M408.7,249.3c0,83.2-67.4,150.6-150.6,150.6s-150.6-67.4-150.6-150.6S175,98.8,258.1,98.8
	S408.7,166.2,408.7,249.3z"></path>
<path d="M259.8,489.2C127.5,489.2,20,381.6,20,249.3C20,117.1,127.5,9.5,259.8,9.5s239.8,107.6,239.8,239.8
	c0,56.5-20.1,111.5-56.7,154.7c-36.1,42.7-86.1,71.6-140.8,81.3c-3.9,0.7-7.5-1.9-8.2-5.7c-0.7-3.9,1.9-7.5,5.7-8.2
	c107.7-19.2,185.8-112.6,185.8-222.1c0-124.4-101.2-225.6-225.6-225.6S34.1,124.9,34.1,249.3C34.1,373.8,135.4,475,259.8,475
	c4.6,0,8.9-0.1,13.3-0.4c3.9-0.2,7.3,2.7,7.5,6.6c0.2,3.9-2.7,7.3-6.6,7.5C269.3,489,264.6,489.2,259.8,489.2z M354,379.6H162.3
	c-2.7,0-5.1-1.5-6.3-3.9l-13-25.9c-0.8-1.7-1-3.6-0.4-5.4c0.6-1.8,1.9-3.3,3.6-4.1c26.2-13.1,34.9-29.3,36.2-70.2h-20.1
	c-3.9,0-7.1-3.2-7.1-7.1s3.2-7.1,7.1-7.1h27.4c1.9,0,3.7,0.8,5,2.1c1.3,1.3,2.1,3.2,2,5.1c-0.6,47.5-10.3,70.4-38,86.5l7.9,15.9H354
	c3.9,0,7.1,3.2,7.1,7.1S357.9,379.6,354,379.6z M195.3,352.3c-1.6,0-3.1-0.5-4.5-1.6c-3-2.5-3.5-6.9-1.1-10
	c13.9-17.2,19.8-39.7,20.2-77.8c0-3.9,3.2-7,7.1-7c0,0,0.1,0,0.1,0c3.9,0,7.1,3.2,7,7.2c-0.3,30.4-3.4,61.8-23.3,86.5
	C199.4,351.4,197.3,352.3,195.3,352.3z M326.6,242.7H217.1c-3.9,0-7.1-3.2-7.1-7.1v-41.1c0-47.8,23.1-76.3,61.8-76.3
	c3.9,0,7.1,3.2,7.1,7.1s-3.2,7.1-7.1,7.1c-41.5,0-47.7,38.9-47.7,62.2v34h102.4c3.9,0,7.1,3.2,7.1,7.1S330.5,242.7,326.6,242.7z
	 M184.6,242.7c-3.9,0-7.1-3.2-7.1-7.1v-41.1c0-34,6.8-61.4,20.2-81.6c16.2-24.4,41.2-36.8,74.2-36.8c29.5,0,53.4,11.4,69,32.9
	c16.7,23,20.2,51.3,20.2,71c0,3.9-3.2,7.1-7.1,7.1h-27.4c-3.9,0-7.1-3.2-7.1-7.1s3.2-7.1,7.1-7.1h20.1
	c-1.4-26.2-11.8-82.6-74.9-82.6c-27.9,0-48.9,10.3-62.3,30.5c-11.7,17.6-17.8,43.1-17.8,73.7v41.1
	C191.7,239.6,188.5,242.7,184.6,242.7z"></path>
<path fill="#DB81DA" class="secondary-color" d="M491.8,91.4l-60.9-60.9h60.9V91.4z"></path>
<path d="M412.8,144.5c0-4.4,3.6-8,8-8H489c4.4,0,8,3.6,8,8s-3.6,8-8,8h-68.2C416.3,152.5,412.8,148.9,412.8,144.5z M490.5,469.6
	h-86.8c-4.4,0-8,3.6-8,8s3.6,8,8,8h86.8c4.4,0,8-3.6,8-8S495,469.6,490.5,469.6z M437.4,449.5c0-4.4-3.6-8-8-8H372c-4.4,0-8,3.6-8,8
	s3.6,8,8,8h57.4C433.9,457.5,437.4,453.9,437.4,449.5z M36.5,471.7c-5,0-9,4.1-9,9s4.1,9,9,9s9-4.1,9-9S41.5,471.7,36.5,471.7z
	 M36.5,459.3c4.9,0,9-4,9-9s-4-9-9-9s-9,4-9,9S31.6,459.3,36.5,459.3z M69.8,472.5c-4.6-2-9.9,0.1-11.9,4.6S58,487,62.5,489
	c4.6,2,9.9-0.1,11.9-4.6C76.4,479.8,74.3,474.5,69.8,472.5z M45,53h-3.9v-3.9c0-4.4-3.6-8-8-8s-8,3.6-8,8V53h-3.9c-4.4,0-8,3.6-8,8
	s3.6,8,8,8h3.9v3.9c0,4.4,3.6,8,8,8s8-3.6,8-8V69H45c4.4,0,8-3.6,8-8S49.4,53,45,53z"></path>
</svg>