<svg version="1.1" id="Layer_1" xmlns="http://www.w3.org/2000/svg" xmlns:xlink="http://www.w3.org/1999/xlink" x="0px" y="0px" viewBox="0 0 512 512" enable-background="new 0 0 512 512" xml:space="preserve">
<path fill="#DB81DA" class="secondary-color" d="M39.9,420l60.9,60.9H39.9V420z"></path>
<path d="M144.3,366.2c0,4.4-3.6,8-8,8H49.5c-4.4,0-8-3.6-8-8s3.6-8,8-8h86.8C140.7,358.2,144.3,361.7,144.3,366.2z M463.4,452h-59.2
	c-4.4,0-8,3.6-8,8s3.6,8,8,8h59.2c4.4,0,8-3.6,8-8S467.8,452,463.4,452z M68.7,102.3c4.4,0,8-3.6,8-8s-3.6-8-8-8
	c-5.7,0-10.4-4.7-10.4-10.4S63,65.5,68.7,65.5c4.4,0,8-3.6,8-8s-3.6-8-8-8c-14.6,0-26.4,11.8-26.4,26.4S54.2,102.3,68.7,102.3z
	 M475.2,49.2h-3.9v-3.9c0-4.4-3.6-8-8-8s-8,3.6-8,8v3.9h-3.9c-4.4,0-8,3.6-8,8s3.6,8,8,8h3.9v3.9c0,4.4,3.6,8,8,8s8-3.6,8-8v-3.9
	h3.9c4.4,0,8-3.6,8-8S479.7,49.2,475.2,49.2z"></path>
<linearGradient id="SVGID_1_" gradientUnits="userSpaceOnUse" x1="261.5554" y1="394.4712" x2="264.4069" y2="89.3623" class="gradient-element">
	<stop offset="0" class="primary-color-gradient" style="stop-color: #FFA4ED"></stop>
	<stop offset="1" class="secondary-color-gradient" style="stop-color: #DB81DA"></stop>
</linearGradient>
<path fill="url(#SVGID_1_)" d="M405,245.1c0,78.4-63.6,142-142,142s-142-63.6-142-142s63.6-142,142-142S405,166.6,405,245.1z"></path>
<path d="M263.1,471.6c-20.1,0-40.3-2.7-60-8.1c-50.9-14-95.6-45.4-125.7-88.4c-2.2-3.2-1.5-7.6,1.7-9.9c3.2-2.2,7.6-1.5,9.9,1.7
	c59.1,84.4,169.8,114.1,263.2,70.8C458.5,388.6,504.9,262,455.7,155.7C406.4,49.5,279.9,3.1,173.6,52.3
	c-51.4,23.8-90.4,66.3-110,119.7s-17.2,111,6.6,162.4c1.6,3.6,0.1,7.8-3.5,9.4c-3.5,1.6-7.8,0.1-9.4-3.5
	c-25.4-54.8-27.9-116.3-7-173.2c20.9-56.9,62.5-102.2,117.4-127.6C281-13.1,416,36.4,468.6,149.8c52.5,113.4,3,248.3-110.3,300.9
	C328.2,464.6,295.7,471.6,263.1,471.6z M275.9,394.2c-3.9,0-7.1-3.2-7.1-7.1v-18.8c-6.8,0.1-13.6-0.3-19.9-1.3
	c-3.9-0.6-6.5-4.2-5.9-8.1c0.6-3.9,4.2-6.5,8.1-5.9c7.5,1.2,16,1.5,24.1,0.7c2-0.2,3.9,0.5,5.4,1.8s2.3,3.2,2.3,5.2v26.3
	C283,391,279.8,394.2,275.9,394.2z M224.2,394.2c-3.9,0-7.1-3.2-7.1-7.1v-30.8c-24-13.2-38.7-35.7-38.7-59.6c0-3.9,3.2-7.1,7.1-7.1
	h25.8c3.9,0,7.1,3.2,7.1,7.1c0,16.6,22.5,31.7,47.3,31.7c12.6,0,41.9-3,41.9-30.6c0-3.9,3.2-7.1,7.1-7.1s7.1,3.2,7.1,7.1
	c0,27.6-21.5,44.7-56,44.7c-15.5,0-30.4-4.6-42.2-12.9c-9.9-7-16.3-16.2-18.5-25.8h-11.9c2.7,17.2,15,32.4,34.2,41.8
	c2.4,1.2,4,3.7,4,6.4v35.1C231.3,391,228.1,394.2,224.2,394.2z M301.7,361.9c-2.8,0-5.4-1.7-6.6-4.4c-1.5-3.6,0.2-7.8,3.9-9.3
	c21.5-8.8,34.3-27.7,34.3-50.4c0-30-23.8-52.2-68.9-64.1c-42.8-11.4-60.2-25.2-60.2-47.5c0-26.7,28.7-38.6,57.1-38.6
	c3.9,0,7.1,3.2,7.1,7.1s-3.2,7.1-7.1,7.1c-15.9,0-42.9,5.2-42.9,24.5c0,7.2,0,20.5,49.7,33.8c65.6,17.4,79.4,52,79.4,77.8
	c0,28.7-16.1,52.4-43.1,63.6C303.5,361.7,302.6,361.9,301.7,361.9z M340.4,200.5h-25.8c-3.9,0-7.1-3.2-7.1-7.1s3.2-7.1,7.1-7.1h18.2
	c-2.7-17.2-15.3-32.9-34.2-42c-3.5-1.7-5-6-3.3-9.5c1.7-3.5,6-5,9.5-3.3c26.4,12.8,42.7,36.5,42.7,61.9
	C347.5,197.3,344.3,200.5,340.4,200.5z M185.5,193.3c-3.9,0-7.1-3.2-7.1-7.1c0-24.2,14.4-44.7,38.7-55.7V103c0-3.9,3.2-7.1,7.1-7.1
	s7.1,3.2,7.1,7.1v32.2c0,2.9-1.8,5.6-4.5,6.6c-21.7,8.4-34.2,24.5-34.2,44.4C192.6,190.1,189.4,193.3,185.5,193.3z M275.9,137
	c-0.4,0-0.7,0-1.1-0.1c-7.3-1.1-15.8-1.3-24.1-0.5c-3.9,0.4-7.4-2.5-7.7-6.4c-0.4-3.9,2.5-7.4,6.4-7.7c6.6-0.6,13.2-0.7,19.4-0.3
	v-19c0-3.9,3.2-7.1,7.1-7.1s7.1,3.2,7.1,7.1v26.9c0,2.1-0.9,4-2.5,5.4C279.2,136.4,277.5,137,275.9,137z"></path>
</svg>