<svg version="1.1" id="Layer_1" xmlns="http://www.w3.org/2000/svg" xmlns:xlink="http://www.w3.org/1999/xlink" x="0px" y="0px" viewBox="0 0 512 512" enable-background="new 0 0 512 512" xml:space="preserve">
<path fill="#DB81DA" class="secondary-color" d="M380,22.4h44.5v44.5H380V22.4z M491.4,66.9V22.4h-44.5v44.5H491.4z M491.4,135.2V90.8h-44.5v44.5H491.4z"></path>
<path d="M30.8,107c-4.2-4.2-4.2-11,0-15.2s11-4.2,15.2,0c4.2,4.2,4.2,11,0,15.2C41.8,111.2,35,111.2,30.8,107z M45.4,464.6h-3.9
	v-3.9c0-4.4-3.6-8-8-8s-8,3.6-8,8v3.9h-3.9c-4.4,0-8,3.6-8,8s3.6,8,8,8h3.9v3.9c0,4.4,3.6,8,8,8s8-3.6,8-8v-3.9h3.9c4.4,0,8-3.6,8-8
	S49.9,464.6,45.4,464.6z M207.2,26.3h-3.9v-3.9c0-4.4-3.6-8-8-8s-8,3.6-8,8v3.9h-3.9c-4.4,0-8,3.6-8,8s3.6,8,8,8h3.9v3.9
	c0,4.4,3.6,8,8,8s8-3.6,8-8v-3.9h3.9c4.4,0,8-3.6,8-8S211.6,26.3,207.2,26.3z M480.7,173.4c-4.2-4.2-11-4.2-15.2,0
	c-4.2,4.2-4.2,11,0,15.2c4.2,4.2,11,4.2,15.2,0C484.9,184.4,484.9,177.6,480.7,173.4z M39.7,46.7h51.5c4.4,0,8-3.6,8-8s-3.6-8-8-8
	H39.7c-4.4,0-8,3.6-8,8S35.3,46.7,39.7,46.7z M126.8,182.8H75.3c-4.4,0-8,3.6-8,8s3.6,8,8,8h51.5c4.4,0,8-3.6,8-8
	S131.2,182.8,126.8,182.8z M32.3,158.8c0,4.4,3.6,8,8,8h79.1c4.4,0,8-3.6,8-8s-3.6-8-8-8H40.3C35.9,150.8,32.3,154.4,32.3,158.8z"></path>
<linearGradient id="SVGID_1_" gradientUnits="userSpaceOnUse" x1="280.2803" y1="449.3882" x2="280.2803" y2="140.1671" class="gradient-element">
	<stop offset="0" class="primary-color-gradient" style="stop-color: #FFA4ED"></stop>
	<stop offset="1" class="secondary-color-gradient" style="stop-color: #DB81DA"></stop>
</linearGradient>
<path fill="url(#SVGID_1_)" d="M462.4,253.8v48.6h-161c-19.6-29.3-15.2-24.3-41-48.6H462.4z M438.1,205.2H171v-48.6h242.8v23.1h24.3
	V205.2z M317.2,350.9c0.5,4,0.7,8,0.7,12.1c0,12.7-2.2,25-6.3,36.4H436v-19.4l-22.2-1.1v-28.1H317.2z M268.1,363.1
	c0-46.9-38-85-85-85c-46.9,0-85,38.1-85,85c0,46.9,38,85,85,85C230.1,448.1,268.1,410,268.1,363.1z"></path>
<path d="M183.2,504.6c-78,0-141.5-63.5-141.5-141.5c0-31.4,10.1-61.2,29.2-86c18.5-24,44.7-41.8,73.7-50c4.3-1.2,8.7,1.3,9.9,5.5
	s-1.3,8.7-5.5,9.9c-53.8,15.2-91.3,64.9-91.3,120.7c0,69.2,56.3,125.5,125.5,125.5c37.6,0,72.9-16.6,96.8-45.7
	c1.5-1.8,3.8-2.9,6.2-2.9h143.9v-56.8h-16.3c-4.4,0-8-3.6-8-8v-24.3c0-4.4,3.6-8,8-8h40.6v-32.6H341c-4.4,0-8-3.6-8-8s3.6-8,8-8
	h113.4v-32.6h-40.6c-4.4,0-8-3.6-8-8s3.6-8,8-8h40.6v-8.3h-16.3c-4.4,0-8-3.6-8-8V189h-16.3c-4.4,0-8-3.6-8-8v-40.6h-40.6
	c-4.4,0-8-3.6-8-8s3.6-8,8-8h40.6V91.8H179v56.8h89.1c4.4,0,8,3.6,8,8s-3.6,8-8,8H179v32.6h16.3c4.4,0,8,3.6,8,8v24.9
	c0,2.2-0.9,4.4-2.6,5.9c-1.7,1.5-3.9,2.3-6.1,2.1c-4.4-0.4-8-0.6-11.4-0.6s-7,0.2-11.4,0.6c-4.4,0.4-8.3-2.8-8.7-7.2
	c-0.4-4.4,2.8-8.3,7.2-8.7c4.9-0.4,8.9-0.6,12.9-0.6c1.4,0,2.7,0,4.1,0.1v-8.4H171c-4.4,0-8-3.6-8-8V83.8c0-4.4,3.6-8,8-8h242.8
	c4.4,0,8,3.6,8,8V173h16.3c4.4,0,8,3.6,8,8v40.6h16.3c4.4,0,8,3.6,8,8v121.4c0,4.4-3.6,8-8,8h-40.6v8.3h16.3c4.4,0,8,3.6,8,8v72.8
	c0,4.4-3.6,8-8,8H289.9C262.9,487,224.3,504.6,183.2,504.6z M302,431.8c-1.2,0-2.5-0.3-3.6-0.9c-3.9-2-5.5-6.8-3.5-10.8
	c3.7-7.2,6.7-14.9,9-22.8c1-3.4,4.1-5.8,7.7-5.8H341c4.4,0,8,3.6,8,8s-3.6,8-8,8h-23.5c-2.3,6.9-5.1,13.5-8.3,19.9
	C307.7,430.2,304.9,431.8,302,431.8z M316.1,383.2c-0.2,0-0.5,0-0.7,0c-4.4-0.4-7.6-4.3-7.2-8.7c0.4-4.3,0.6-8,0.6-11.4
	c0-19.9-4.7-39.1-13.8-57.1c-2-3.9-0.5-8.8,3.5-10.8c3.9-2,8.8-0.5,10.8,3.5c10.3,20.2,15.6,41.8,15.6,64.3c0,3.9-0.2,8-0.7,12.9
	C323.7,380.1,320.2,383.2,316.1,383.2z M286.2,286.1c-2.3,0-4.6-1-6.2-2.9c-7-8.5-15.4-16.2-24.8-22.8c-2.9-2-4.1-5.6-3-9
	c1.1-3.3,4.1-5.6,7.6-5.6H341c4.4,0,8,3.6,8,8s-3.6,8-8,8h-59c3.7,3.6,7.1,7.3,10.3,11.2c2.8,3.4,2.3,8.4-1.1,11.3
	C289.8,285.5,288,286.1,286.2,286.1z M316.7,213.3h-97.1c-4.4,0-8-3.6-8-8s3.6-8,8-8h97.1c4.4,0,8,3.6,8,8S321.1,213.3,316.7,213.3z
	 M183.2,456.1c-51.3,0-93-41.7-93-93c0-51.3,41.7-93,93-93c51.3,0,93,41.7,93,93C276.1,414.3,234.4,456.1,183.2,456.1z M183.2,286.1
	c-42.4,0-77,34.5-77,77s34.5,77,77,77s77-34.5,77-77S225.6,286.1,183.2,286.1z"></path>
</svg>