<svg version="1.1" id="Layer_1" xmlns="http://www.w3.org/2000/svg" xmlns:xlink="http://www.w3.org/1999/xlink" x="0px" y="0px" viewBox="0 0 512 512" enable-background="new 0 0 512 512" xml:space="preserve">
<g>
	<linearGradient id="SVGID_1_" gradientUnits="userSpaceOnUse" x1="307.6146" y1="482.9081" x2="307.6146" y2="406.3538" class="gradient-element">
		<stop offset="0" class="primary-color-gradient" style="stop-color: #FFA4ED"></stop>
		<stop offset="1" class="secondary-color-gradient" style="stop-color: #DB81DA"></stop>
	</linearGradient>
	<path fill="url(#SVGID_1_)" d="M353.9,482.8h-63.7c-16,0-28.9-12.9-28.9-28.9v-20.1c0-10.9,7.1-20.4,17.5-23.7
		c2.2-0.7,4.5-1.5,6.8-2.5c0,0-3.3,12.2,22.9,23.7C334.8,442.7,351.1,450.3,353.9,482.8z"></path>
	<linearGradient id="SVGID_2_" gradientUnits="userSpaceOnUse" x1="310.7397" y1="354.0217" x2="260.5901" y2="354.0217">
		<stop offset="0" class="primary-color-gradient" style="stop-color: #FFA4ED"></stop>
		<stop offset="1" class="secondary-color-gradient" style="stop-color: #DB81DA"></stop>
	</linearGradient>
	<path fill="url(#SVGID_2_)" d="M261.1,297.5c1.7-1,46.5,5.2,46.5,5.2s4.6,27.7,0,66.6c-2.7,22.5-17.8,34.2-30.1,40.1
		c-7.6,3.7-16.4-2-16.4-10.4v-96.9C261.1,302.1,259.4,298.5,261.1,297.5z"></path>
	<linearGradient id="SVGID_3_" gradientUnits="userSpaceOnUse" x1="453.4386" y1="251.1384" x2="453.4386" y2="174.5842">
		<stop offset="0" class="primary-color-gradient" style="stop-color: #FFA4ED"></stop>
		<stop offset="1" class="secondary-color-gradient" style="stop-color: #DB81DA"></stop>
	</linearGradient>
	<path fill="url(#SVGID_3_)" d="M499.7,251H436c-16,0-28.9-12.9-28.9-28.9V202c0-10.9,7.1-20.4,17.5-23.7c2.2-0.7,4.5-1.5,6.8-2.5
		c0,0-3.3,12.2,22.9,23.7C480.6,210.9,496.9,218.6,499.7,251z"></path>
	<linearGradient id="SVGID_4_" gradientUnits="userSpaceOnUse" x1="456.5637" y1="122.2521" x2="406.4142" y2="122.2521">
		<stop offset="0" class="primary-color-gradient" style="stop-color: #FFA4ED"></stop>
		<stop offset="1" class="secondary-color-gradient" style="stop-color: #DB81DA"></stop>
	</linearGradient>
	<path fill="url(#SVGID_4_)" d="M407,65.8c1.7-1,46.5,5.2,46.5,5.2s4.6,27.7,0,66.6c-2.7,22.5-17.8,34.2-30.1,40.1
		c-7.6,3.7-16.4-2-16.4-10.4V70.4C407,70.4,405.3,66.7,407,65.8z"></path>
	<linearGradient id="SVGID_5_" gradientUnits="userSpaceOnUse" x1="164.141" y1="245.8338" x2="164.141" y2="169.2796">
		<stop offset="0" class="primary-color-gradient" style="stop-color: #FFA4ED"></stop>
		<stop offset="1" class="secondary-color-gradient" style="stop-color: #DB81DA"></stop>
	</linearGradient>
	<path fill="url(#SVGID_5_)" d="M210.4,245.7h-63.7c-16,0-28.9-12.9-28.9-28.9v-20.1c0-10.9,7.1-20.4,17.5-23.7
		c2.2-0.7,4.5-1.5,6.8-2.5c0,0-3.3,12.2,22.9,23.7C191.3,205.6,207.6,213.3,210.4,245.7z"></path>
	<linearGradient id="SVGID_6_" gradientUnits="userSpaceOnUse" x1="167.2662" y1="116.9475" x2="117.1166" y2="116.9475">
		<stop offset="0" class="primary-color-gradient" style="stop-color: #FFA4ED"></stop>
		<stop offset="1" class="secondary-color-gradient" style="stop-color: #DB81DA"></stop>
	</linearGradient>
	<path fill="url(#SVGID_6_)" d="M117.7,60.5c1.7-1,46.5,5.2,46.5,5.2s4.6,27.7,0,66.6c-2.7,22.5-17.8,34.2-30.1,40.1
		c-7.6,3.7-16.4-2-16.4-10.4V65.1C117.7,65.1,116,61.4,117.7,60.5z"></path>
</g>
<path d="M76,258.3h131.1c4.3,0,7.8-3.3,8-7.6c0.7-14.5-6.9-45.5-40.7-59.2c-20.1-8.1-27-14.4-29.3-17.1
	c12.5-9.5,18.9-23.1,21.7-30.6c1.8-4.8,2.6-9.9,2.6-15.1V86.8c1.1,0.6,2.4,0.9,3.6,0.9c1.2,0,2.5-0.3,3.6-0.9
	c18.3-9.4,38-15.5,58.4-18.3c4.4-0.6,7.4-4.6,6.8-9c-0.6-4.4-4.6-7.4-9-6.8c-22.2,3-43.5,9.7-63.5,19.9V60.9c0-2.6-1.3-5.1-3.5-6.6
	c-2.2-1.5-4.9-1.8-7.4-0.9c-7.3,2.8-14.7,1-23.2-1.2c-11.7-2.9-26.3-6.6-41.6,4.3c-3.6,2.6-4.5,7.6-1.9,11.2s7.6,4.5,11.2,1.9
	c8.8-6.3,16.6-4.8,28.5-1.8c6.7,1.7,14.1,3.5,22,3v57.9c0,3.3-0.6,6.6-1.7,9.6c-4.1,11.4-14.6,30.4-38.5,30.4
	c-22.4,0-33.2-15.3-38.4-28.1c-1.3-3.3-2-6.8-2-10.5l0-63.2c0-7.5,4.6-13.1,8.5-16.4c9.1-7.9,23.1-11.5,36.5-9.5
	c4.8,0.7,9.2,2,13.5,3.2c11.3,3.2,23,6.5,38.4,0.1c4.1-1.7,6-6.4,4.3-10.5s-6.4-6-10.5-4.3c-10.3,4.3-17.7,2.2-27.9-0.7
	c-4.6-1.3-9.8-2.8-15.5-3.6c-17.9-2.7-36.8,2.4-49.3,13.2c-9,7.8-14,17.9-14,28.5l0,63.2c0,5.7,1.1,11.2,3.1,16.4
	c2.8,6.9,9.2,19.4,21.3,28.2c-2.1,2.4-6.9,6.8-17.9,12C6.9,208.1,11.8,249.6,12,251.3c0.5,4,3.9,6.9,7.9,6.9h40
	c0.7,20.1,4.3,39.8,10.9,58.7c1.1,3.3,4.2,5.4,7.6,5.4c0.9,0,1.8-0.1,2.6-0.4c4.2-1.4,6.4-6,4.9-10.2
	C80.1,294.5,76.7,276.6,76,258.3z M69.4,201.5c0.1-0.1,0.3-0.1,0.4-0.2c0.1,0,0.2-0.1,0.2-0.1c0,0,0.1,0,0.1-0.1c0,0,0,0,0,0
	c14.9-7.1,22.2-13.9,25.6-19.2c5.1,1.6,10.9,2.6,17.3,2.6c6.6,0,12.4-1,17.6-2.7c4.2,6.6,14.6,15.1,37.6,24.4c22,8.9,28.3,26,30,36
	H28.3C30,232.2,37.5,213.5,69.4,201.5z M419.3,373.6c-22.1,28.7-51.8,50.9-85.2,64.2c20.1,15.4,25,38.2,24.4,50
	c-0.2,4.3-3.7,7.6-8,7.6H163.5c-4.3,0-7.8-3.4-8-7.7c-0.1-1.4-0.3-13.9,8-29.9c2-3.9,6.9-5.4,10.8-3.4c3.9,2,5.4,6.9,3.4,10.8
	c-2.8,5.5-4.4,10.4-5.2,14.2h169.4c-1.7-9.6-7.6-25.8-27.6-34.9c-0.7,0.2-1.4,0.4-2.1,0.6c-0.7,0.2-1.4,0.3-2.1,0.3
	c-3.5,0-6.8-2.4-7.7-5.9c0,0,0-0.1,0-0.1c-16.5-7.7-24.5-14.6-28.1-20.3c-5.2,1.7-11,2.7-17.6,2.7c-6.5,0-12.6-1-18.3-3
	c-4.3,5.7-13.6,15.2-31.4,23.7c-0.3,0.1-0.6,0.3-0.9,0.4c-0.1,0-0.1,0-0.2,0.1c-0.3,0.1-0.6,0.2-0.9,0.2c-0.1,0-0.2,0-0.3,0
	c-0.4,0.1-0.8,0.1-1.1,0.1c0,0,0,0,0,0c0,0,0,0,0,0c0,0,0,0,0,0c-0.4,0-0.7,0-1.1-0.1c-0.1,0-0.2-0.1-0.3-0.1
	c-0.3-0.1-0.5-0.1-0.8-0.2c0,0-0.1,0-0.1,0c-38.8-12-72.7-35.3-98.1-67.3c-2.7-3.5-2.2-8.5,1.3-11.2c3.5-2.7,8.5-2.2,11.2,1.3
	c22.7,28.7,52.8,49.7,87.2,61c11.1-5.7,17.6-11.6,21-15.5c-8.7-6.5-15.7-15.8-20.4-27.6c-2.1-5.2-3.1-10.7-3.1-16.4v-63.2
	c0-10.6,5-20.7,14-28.5c12.6-10.8,31.5-15.9,49.3-13.2c5.8,0.9,10.9,2.3,15.5,3.6c10.2,2.9,17.6,5,27.9,0.7
	c4.1-1.7,8.8,0.2,10.5,4.3c1.7,4.1-0.2,8.8-4.3,10.5c-15.4,6.4-27.1,3.1-38.4-0.1c-4.3-1.2-8.8-2.5-13.5-3.2
	c-13.4-2-27.4,1.6-36.5,9.5c-3.9,3.3-8.5,8.9-8.5,16.4v63.2c0,3.6,0.7,7.2,2,10.5c5.2,12.8,16,28.1,38.4,28.1
	c23.9,0,34.4-19.1,38.5-30.4c1.1-3.1,1.7-6.3,1.7-9.6v-57.9c-7.9,0.5-15.2-1.3-22-3c-11.9-3-19.6-4.5-28.5,1.8
	c-3.6,2.6-8.6,1.7-11.2-1.9c-2.6-3.6-1.7-8.6,1.9-11.2c15.3-10.8,29.9-7.2,41.6-4.3c8.5,2.1,15.9,4,23.2,1.2
	c2.5-0.9,5.2-0.6,7.4,0.9s3.5,4,3.5,6.6v67.7c0,5.2-0.9,10.3-2.6,15.1c-2.7,7.5-9.1,21.2-21.7,30.6c2.2,2.7,8.6,8.5,26.7,16.1
	c36-11.2,68.2-33.6,91.3-63.7c2.7-3.5,7.7-4.1,11.2-1.5C421.3,365,422,370.1,419.3,373.6z M463.7,196.8c-20.1-8.1-27-14.4-29.3-17.1
	c12.5-9.5,18.9-23.1,21.7-30.6c1.8-4.8,2.6-9.9,2.6-15.1V66.2c0-2.6-1.3-5.1-3.5-6.6c-2.2-1.5-4.9-1.8-7.4-0.9
	c-7.3,2.8-14.7,1-23.2-1.2c-11.7-2.9-26.3-6.6-41.6,4.3c-3.6,2.6-4.5,7.6-1.9,11.2c2.6,3.6,7.5,4.5,11.2,1.9
	c8.8-6.3,16.6-4.8,28.5-1.8c6.7,1.7,14.1,3.5,22,3v57.9c0,3.3-0.6,6.6-1.7,9.6c-4.1,11.4-14.6,30.4-38.5,30.4
	c-22.4,0-33.2-15.3-38.4-28.1c-1.3-3.3-2-6.8-2-10.5V72.1c0-7.5,4.6-13.1,8.5-16.4c9.1-7.9,23.1-11.5,36.5-9.5
	c4.8,0.7,9.2,2,13.5,3.2c11.3,3.2,23,6.5,38.4,0.1c4.1-1.7,6-6.4,4.3-10.5c-1.7-4.1-6.4-6-10.5-4.3C442.6,39,435.2,36.9,425,34
	c-4.6-1.3-9.8-2.8-15.5-3.6c-17.9-2.7-36.8,2.4-49.3,13.2c-8.4,7.3-13.3,16.6-14,26.4c-22.4-10.6-46.3-16.9-71.3-18.7
	c-4.4-0.3-8.2,3-8.5,7.4c-0.3,4.4,3,8.2,7.4,8.6c25.5,1.8,49.8,8.8,72.3,20.6v47.5c0,5.7,1.1,11.2,3.1,16.4
	c4.9,12.2,12.2,21.7,21.3,28.2c-2.2,2.6-7,6.8-17.7,11.9c-26,8.2-38.7,24.8-44.7,37.3c-6.6,13.7-6.9,25.6-6.9,26.1
	c0,2.1,0.8,4.2,2.3,5.8s3.6,2.4,5.7,2.4h135.2c-1.1,16.5-4.3,32.6-9.7,48.2c-1.4,4.2,0.8,8.7,4.9,10.2c0.9,0.3,1.8,0.4,2.6,0.4
	c3.3,0,6.4-2.1,7.6-5.4c6-17.2,9.5-35.2,10.6-53.4h35.9c4.3,0,7.8-3.3,8-7.6C505.1,241.4,497.5,210.4,463.7,196.8z M460,247.6
	c-1.3-2.6-4-4.3-7.1-4.3s-5.8,1.8-7.1,4.3H318.5c2.7-11.5,11.6-31.9,39.7-40.6c0,0,0.1,0,0.1,0c0.1,0,0.2-0.1,0.3-0.1
	c0.2-0.1,0.3-0.1,0.5-0.2c0,0,0.1,0,0.1-0.1c15-7.2,22.3-14,25.8-19.3c5.4,1.7,11.2,2.6,17.3,2.6c6.6,0,12.4-1,17.6-2.7
	c4.2,6.6,14.6,15.1,37.6,24.4c22,8.9,28.3,26,30,36H460z"></path>
<g>
	<path fill="#DB81DA" class="secondary-color" d="M8.4,335.8h35.2v22.5H8.4V335.8z M8.4,424h35.2v-22.5H8.4V424z"></path>
	<path fill="#FFA4ED" class="primary-color" d="M8.4,369.2h35.2v21.6H8.4V369.2z"></path>
</g>
<path d="M79.7,440c-14.6,0-26.4,11.8-26.4,26.4s11.8,26.4,26.4,26.4s26.4-11.8,26.4-26.4S94.2,440,79.7,440z M79.7,476.8
	c-5.7,0-10.4-4.7-10.4-10.4S74,456,79.7,456s10.4,4.7,10.4,10.4S85.4,476.8,79.7,476.8z M208.7,458c0,4.4-3.6,8-8,8h-69
	c-4.4,0-8-3.6-8-8s3.6-8,8-8h69C205.1,450,208.7,453.6,208.7,458z M506.2,157.2c0,4.4-3.6,8-8,8h-3.9v3.9c0,4.4-3.6,8-8,8
	s-8-3.6-8-8v-3.9h-3.9c-4.4,0-8-3.6-8-8s3.6-8,8-8h3.9v-3.9c0-4.4,3.6-8,8-8s8,3.6,8,8v3.9h3.9C502.6,149.2,506.2,152.8,506.2,157.2
	z M51.6,31.4c0,4.4-3.6,8-8,8h-3.9v3.9c0,4.4-3.6,8-8,8s-8-3.6-8-8v-3.9h-3.9c-4.4,0-8-3.6-8-8s3.6-8,8-8h3.9v-3.9c0-4.4,3.6-8,8-8
	s8,3.6,8,8v3.9h3.9C48,23.4,51.6,27,51.6,31.4z M495,436.8c0,4.4-3.6,8-8,8c-11.4,0-20.8,9.3-20.8,20.8c0,4.4-3.6,8-8,8s-8-3.6-8-8
	c0-20.3,16.5-36.8,36.8-36.8C491.4,428.8,495,432.3,495,436.8z M445,465.5c0,4.4-3.6,8-8,8s-8-3.6-8-8c0-11.4-9.3-20.8-20.8-20.8
	c-4.4,0-8-3.6-8-8s3.6-8,8-8C428.5,428.8,445,445.3,445,465.5z M445,386.8c0,20.3-16.5,36.8-36.8,36.8c-4.4,0-8-3.6-8-8s3.6-8,8-8
	c11.4,0,20.8-9.3,20.8-20.8c0-4.4,3.6-8,8-8S445,382.3,445,386.8z M495,415.5c0,4.4-3.6,8-8,8c-20.3,0-36.8-16.5-36.8-36.8
	c0-4.4,3.6-8,8-8s8,3.6,8,8c0,11.4,9.3,20.8,20.8,20.8C491.4,407.5,495,411.1,495,415.5z M143.4,307.3c5.5,0,9.9-4.4,9.9-9.9
	c0-5.5-4.4-9.9-9.9-9.9s-9.9,4.4-9.9,9.9C133.5,302.9,137.9,307.3,143.4,307.3z M330.7,22.5c-5.5,0-9.9,4.4-9.9,9.9s4.4,9.9,9.9,9.9
	c5.5,0,9.9-4.4,9.9-9.9S336.1,22.5,330.7,22.5z M409.8,317.8h-59.2c-4.4,0-8-3.6-8-8s3.6-8,8-8h59.2c4.4,0,8,3.6,8,8
	S414.2,317.8,409.8,317.8z"></path>
</svg>