<svg version="1.1" id="Layer_1" xmlns="http://www.w3.org/2000/svg" xmlns:xlink="http://www.w3.org/1999/xlink" x="0px" y="0px" viewBox="0 0 512 512" enable-background="new 0 0 512 512" xml:space="preserve">
<path d="M51.3,360.3c-14.6,0-26.4-11.8-26.4-26.4s11.8-26.4,26.4-26.4c4.4,0,8,3.6,8,8s-3.6,8-8,8c-5.7,0-10.4,4.7-10.4,10.4
	c0,5.7,4.7,10.4,10.4,10.4c4.4,0,8,3.6,8,8S55.7,360.3,51.3,360.3z M150,435.8H70.5c-4.4,0-8,3.6-8,8s3.6,8,8,8H150c4.4,0,8-3.6,8-8
	S154.5,435.8,150,435.8z M113.5,410.3c0-4.4-3.6-8-8-8h-59c-4.4,0-8,3.6-8,8s3.6,8,8,8h59C110,418.3,113.5,414.7,113.5,410.3z
	 M60.5,85.6c4.2-4.2,4.2-11,0-15.2s-11-4.2-15.2,0c-4.2,4.2-4.2,11,0,15.2C49.5,89.8,56.3,89.8,60.5,85.6z M460.8,462.8
	c-4.2,4.2-4.2,11,0,15.2s11,4.2,15.2,0c4.2-4.2,4.2-11,0-15.2C471.8,458.6,465,458.6,460.8,462.8z M480.3,282.1h-3.9v-3.9
	c0-4.4-3.6-8-8-8s-8,3.6-8,8v3.9h-3.9c-4.4,0-8,3.6-8,8s3.6,8,8,8h3.9v3.9c0,4.4,3.6,8,8,8s8-3.6,8-8v-3.9h3.9c4.4,0,8-3.6,8-8
	S484.7,282.1,480.3,282.1z M456.7,82.1v-3.9h3.9c4.4,0,8-3.6,8-8s-3.6-8-8-8h-3.9v-3.9c0-4.4-3.6-8-8-8s-8,3.6-8,8v3.9h-3.9
	c-4.4,0-8,3.6-8,8s3.6,8,8,8h3.9v3.9c0,4.4,3.6,8,8,8S456.7,86.5,456.7,82.1z M326.1,127.6h-41.3c-4.4,0-8,3.6-8,8s3.6,8,8,8h41.3
	c4.4,0,8-3.6,8-8S330.5,127.6,326.1,127.6z"></path>
<linearGradient id="SVGID_1_" gradientUnits="userSpaceOnUse" x1="322.2747" y1="258.4667" x2="456.5247" y2="258.4667" class="gradient-element">
	<stop offset="0" class="primary-color-gradient" style="stop-color: #FFA4ED"></stop>
	<stop offset="1" class="secondary-color-gradient" style="stop-color: #DB81DA"></stop>
</linearGradient>
<path fill="url(#SVGID_1_)" d="M388.4,309.6c0,0-9.1,2.3-0.4,6.4c17.1,8.1,30.3,23.3,35.8,41.7c3.1,5.6,4.9,12.1,4.9,19
	c0,6.9-1.8,13.4-4.9,19c-6.8,23.1-25.7,41-49.4,46.4c4.8,1.1,9.8,1.7,15,1.7c37.4,0,67.7-30.7,67.1-68.2
	C456,338.8,425.2,309.6,388.4,309.6z M391.4,73.1c-5.9-0.2-11.6,0.4-17,1.7c23.6,5.4,42.6,23.3,49.4,46.4c3.1,5.6,4.9,12.1,4.9,19
	s-1.8,13.4-4.9,19c-8.2,27.8-34,48.1-64.4,48.1h30c38.4,0,69.4-32.5,67-71.4C454.2,101.5,425.8,74.1,391.4,73.1z M322.3,214.3v88.3
	c0,7.7,6.2,13.9,13.9,13.9h0c7.7,0,13.9-6.2,13.9-13.9v-88.3c0-7.7-6.2-13.9-13.9-13.9h0C328.5,200.4,322.3,206.6,322.3,214.3z"></path>
<path d="M389.4,451.8c-41.4,0-75.1-33.7-75.1-75.1v-31.3H228v31.3c0,41.4-33.7,75.1-75.1,75.1c-15.6,0-30.6-4.8-43.4-13.8
	c-3.6-2.6-4.5-7.6-1.9-11.2c2.6-3.6,7.6-4.5,11.2-1.9c10,7.1,21.8,10.9,34.1,10.9c32.6,0,59.1-26.5,59.1-59.1v-39.3c0-4.4,3.6-8,8-8
	h102.2c4.4,0,8,3.6,8,8v39.3c0,32.6,26.5,59.1,59.1,59.1s59.1-26.5,59.1-59.1c0-32.6-26.5-59.1-59.1-59.1c-4.4,0-8-3.6-8-8
	s3.6-8,8-8c41.4,0,75.1,33.7,75.1,75.1C464.5,418.1,430.8,451.8,389.4,451.8z M389.4,424c-26.1,0-47.3-21.2-47.3-47.3v-39.3
	c0-4.4,3.6-8,8-8h39.3c26.1,0,47.3,21.2,47.3,47.3C436.7,402.8,415.5,424,389.4,424z M358.1,345.4v31.3c0,17.3,14,31.3,31.3,31.3
	s31.3-14,31.3-31.3s-14-31.3-31.3-31.3H358.1z M152.9,424c-26.1,0-47.3-21.2-47.3-47.3c0-26.1,21.2-47.3,47.3-47.3h39.3
	c4.4,0,8,3.6,8,8v39.3C200.2,402.8,179,424,152.9,424z M152.9,345.4c-17.3,0-31.3,14-31.3,31.3s14,31.3,31.3,31.3
	c17.3,0,31.3-14,31.3-31.3v-31.3H152.9z M94.8,418.3c-2.8,0-5.4-1.4-6.9-4c-6.6-11.4-10.1-24.4-10.1-37.6
	c0-41.4,33.7-75.1,75.1-75.1h31.3v-86.2h-31.3c-41.4,0-75.1-33.7-75.1-75.1c0-41.4,33.7-75.1,75.1-75.1S228,98.8,228,140.2v31.3
	h63.8c4.4,0,8,3.6,8,8s-3.6,8-8,8H220c-4.4,0-8-3.6-8-8v-39.3c0-32.6-26.5-59.1-59.1-59.1c-32.6,0-59.1,26.5-59.1,59.1
	c0,32.6,26.5,59.1,59.1,59.1h39.3c4.4,0,8,3.6,8,8v102.2c0,4.4-3.6,8-8,8h-39.3c-32.6,0-59.1,26.5-59.1,59.1c0,10.4,2.7,20.6,8,29.6
	c2.2,3.8,0.9,8.7-2.9,10.9C97.6,418,96.2,418.3,94.8,418.3z M350.1,317.6c-4.4,0-8-3.6-8-8V207.3c0-4.4,3.6-8,8-8h39.3
	c32.6,0,59.1-26.5,59.1-59.1c0-32.6-26.5-59.1-59.1-59.1s-59.1,26.5-59.1,59.1v39.3c0,4.4-3.6,8-8,8s-8-3.6-8-8v-39.3
	c0-41.4,33.7-75.1,75.1-75.1c41.4,0,75.1,33.7,75.1,75.1c0,41.4-33.7,75.1-75.1,75.1h-31.3v94.2C358.1,314,354.5,317.6,350.1,317.6z
	 M322.3,317.6H220c-4.4,0-8-3.6-8-8s3.6-8,8-8h94.2v-86.2H228V279c0,4.4-3.6,8-8,8s-8-3.6-8-8v-71.7c0-4.4,3.6-8,8-8h102.2
	c4.4,0,8,3.6,8,8v102.2C330.3,314,326.7,317.6,322.3,317.6z M389.4,187.5h-39.3c-4.4,0-8-3.6-8-8v-39.3c0-26.1,21.2-47.3,47.3-47.3
	c26.1,0,47.3,21.2,47.3,47.3C436.7,166.3,415.5,187.5,389.4,187.5z M358.1,171.5h31.3c17.3,0,31.3-14,31.3-31.3
	c0-17.3-14-31.3-31.3-31.3s-31.3,14-31.3,31.3V171.5z M192.2,187.5h-39.3c-26.1,0-47.3-21.2-47.3-47.3c0-26.1,21.2-47.3,47.3-47.3
	s47.3,21.2,47.3,47.3v39.3C200.2,183.9,196.6,187.5,192.2,187.5z M152.9,108.9c-17.3,0-31.3,14-31.3,31.3c0,17.3,14,31.3,31.3,31.3
	h31.3v-31.3C184.2,123,170.2,108.9,152.9,108.9z"></path>
</svg>