<svg version="1.1" id="Layer_1" xmlns="http://www.w3.org/2000/svg" xmlns:xlink="http://www.w3.org/1999/xlink" x="0px" y="0px" viewBox="0 0 512 512" enable-background="new 0 0 512 512" xml:space="preserve">
<path d="M115.5,481.5c0,4.4-3.6,8-8,8h-43c-4.4,0-8-3.6-8-8s3.6-8,8-8h43C111.9,473.5,115.5,477.1,115.5,481.5z M412.5,58h43
	c4.4,0,8-3.6,8-8s-3.6-8-8-8h-43c-4.4,0-8,3.6-8,8S408.1,58,412.5,58z M463.5,84c0-4.4-3.6-8-8-8h-67c-4.4,0-8,3.6-8,8s3.6,8,8,8h67
	C459.9,92,463.5,88.4,463.5,84z M79.2,108.7c0-4.4-3.6-8-8-8c-5.7,0-10.4-4.7-10.4-10.4S65.5,80,71.2,80c4.4,0,8-3.6,8-8s-3.6-8-8-8
	c-14.6,0-26.4,11.8-26.4,26.4s11.8,26.4,26.4,26.4C75.6,116.7,79.2,113.2,79.2,108.7z M470.2,468.4c0,14.6-11.8,26.4-26.4,26.4
	c-0.1,0-0.2,0-0.3,0c-0.1,0-0.2,0-0.3,0c-14.6,0-26.4-11.8-26.4-26.4s11.8-26.4,26.4-26.4c0.1,0,0.2,0,0.3,0c0.1,0,0.2,0,0.3,0
	C458.4,442,470.2,453.8,470.2,468.4z M454.2,468.4c0-5.7-4.7-10.4-10.4-10.4c-0.1,0-0.2,0-0.3,0c-0.1,0-0.2,0-0.3,0
	c-5.7,0-10.4,4.7-10.4,10.4s4.7,10.4,10.4,10.4c0.1,0,0.2,0,0.3,0c0.1,0,0.2,0,0.3,0C449.5,478.7,454.2,474.1,454.2,468.4z"></path>
<linearGradient id="SVGID_1_" gradientUnits="userSpaceOnUse" x1="291.4676" y1="448.389" x2="291.4676" y2="98.8936" class="gradient-element">
	<stop offset="0" class="primary-color-gradient" style="stop-color: #FFA4ED"></stop>
	<stop offset="1" class="secondary-color-gradient" style="stop-color: #DB81DA"></stop>
</linearGradient>
<path fill="url(#SVGID_1_)" d="M432.8,340.4c-39.6,94.5-149.5,139.1-243.8,98.9c-15.8-6.7-30.2-15.4-43-25.6
	c-14.4-11.5-13.8-33.9,1.6-44c0.6-0.4,1.3-0.8,1.9-1.2c0.4,0.3,0.7,0.6,1.1,0.9c10.3,8.3,24.3,11.5,34.7,20.7
	c64.3,56.8,182.4,11.7,214.3-64.5c32-76.3-21.8-179.2-98.1-211c-0.1,0-0.2-0.1-0.3-0.1c-2.9-1.2-9.8,5.7-8.6-1.9
	c6.9-14,24.1-21.9,40.1-15.2c0.1,0.1,0.2,0.1,0.4,0.2C427.8,137,472.5,245.7,432.8,340.4z M284.2,337.4l13.6,6.8l31.4,15.7l-63-189
	c-1.2-3.6-6.6-2.8-6.6,1.1v125.7C259.6,314.5,269.1,329.9,284.2,337.4z"></path>
<path d="M259.6,462.1c-107.8,0-195.4-87.7-195.4-195.4c0-48.7,18.1-95.4,51-131.5c31-34,72.6-55.9,117.7-62.1V60.5c0-4.4,3.6-8,8-8
	h37.5c4.4,0,8,3.6,8,8v12.6c40,5.5,78,23.7,107.5,51.7c31.2,29.5,52.1,69,58.7,111.1c0.7,4.4-2.3,8.5-6.6,9.2
	c-4.4,0.7-8.5-2.3-9.2-6.6C424,158,358.5,96.2,277.5,88.1c-4.1-0.4-7.2-3.8-7.2-8V68.5h-21.5v11.7c0,4.1-3.1,7.6-7.2,8
	c-92.1,9.2-161.5,85.9-161.5,178.5c0,98.9,80.5,179.4,179.4,179.4c84.5,0,158.4-60,175.6-142.7c0.9-4.3,5.1-7.1,9.5-6.2
	c4.3,0.9,7.1,5.1,6.2,9.5c-9,43.3-32.9,82.7-67.3,111C348.7,446.3,304.7,462.1,259.6,462.1z M259.6,424.6
	c-87.1,0-157.9-70.9-157.9-157.9c0-87.1,70.9-157.9,157.9-157.9c39.3,0,77,14.6,106.1,41.1c28.9,26.3,47,62.1,51,100.7
	c0.4,4.4-2.8,8.3-7.1,8.8c-4.4,0.5-8.3-2.8-8.8-7.1c-7.4-72.7-68.1-127.4-141.2-127.4c-78.3,0-141.9,63.7-141.9,141.9
	c0,78.3,63.7,141.9,141.9,141.9c71.1,0,131.6-53.1,140.8-123.6c0.6-4.4,4.6-7.5,9-6.9c4.4,0.6,7.5,4.6,6.9,9
	C406,365.5,338.7,424.6,259.6,424.6z M329.1,367.9c-3.3,0-6.5-2.1-7.6-5.5l-62-185.9l-55.9,167.6l52.3-26.1c2.3-1.1,4.9-1.1,7.2,0
	l38.1,19.1c4,2,5.6,6.8,3.6,10.7c-2,4-6.8,5.6-10.7,3.6L259.6,334l-66,33c-2.9,1.4-6.4,1-8.8-1.1c-2.4-2.1-3.4-5.5-2.3-8.6
	L252,148.6c1.1-3.3,4.1-5.5,7.6-5.5s6.5,2.2,7.6,5.5l69.6,208.7c1.4,4.2-0.9,8.7-5.1,10.1C330.8,367.7,330,367.9,329.1,367.9z"></path>
</svg>