<svg version="1.1" id="Layer_1" xmlns="http://www.w3.org/2000/svg" xmlns:xlink="http://www.w3.org/1999/xlink" x="0px" y="0px" viewBox="0 0 512 512" enable-background="new 0 0 512 512" xml:space="preserve">
<linearGradient id="SVGID_1_" gradientUnits="userSpaceOnUse" x1="242.0016" y1="291.1955" x2="391.3255" y2="291.1955" class="gradient-element">
	<stop offset="0" class="primary-color-gradient" style="stop-color: #FFA4ED"></stop>
	<stop offset="1" class="secondary-color-gradient" style="stop-color: #DB81DA"></stop>
</linearGradient>
<path fill="url(#SVGID_1_)" d="M362.9,477.9h-92.5c-15.7,0-28.4-12.7-28.4-28.4V170.2c0-36.2,29.4-65.6,65.6-65.6h55.3
	c15.7,0,28.4,12.7,28.4,28.4v316.5C391.3,465.1,378.6,477.9,362.9,477.9z"></path>
<path d="M449.1,477.9c0,4.4-3.6,8-8,8h-49.8c-4.4,0-8-3.6-8-8V62.8H225.1v4.4c0,54.2-16.1,104.6-46.5,145.8
	c-25.3,34.2-50.5,49.3-50.7,49.4l-2.3,1.3v97.7c0,4.4-3.6,8-8,8s-8-3.6-8-8V259c0-2.9,1.6-5.6,4.1-7l6.4-3.6
	c0.2-0.1,23.4-14.6,46-45.4c28.6-38.9,43.1-84.6,43.1-135.9V54.8c0-4.4,3.6-8,8-8h174.2c4.4,0,8,3.6,8,8v415.1h41.8
	C445.5,469.9,449.1,473.4,449.1,477.9z M366.4,469.9h-74.7H125.6v-74.6c0-4.4-3.6-8-8-8s-8,3.6-8,8v74.6H67.8c-4.4,0-8,3.6-8,8
	s3.6,8,8,8h49.8h174.2h74.7c4.4,0,8-3.6,8-8S370.9,469.9,366.4,469.9z M366.4,395.2c-4.4,0-8,3.6-8,8v16.9H242c-4.4,0-8,3.6-8,8
	s3.6,8,8,8h124.4c4.4,0,8-3.6,8-8v-24.9C374.4,398.8,370.9,395.2,366.4,395.2z M366.4,345.4c-4.4,0-8,3.6-8,8v16.9H242
	c-4.4,0-8,3.6-8,8s3.6,8,8,8h124.4c4.4,0,8-3.6,8-8v-24.9C374.4,349,370.9,345.4,366.4,345.4z M366.4,295.6c-4.4,0-8,3.6-8,8v16.9
	H242c-4.4,0-8,3.6-8,8s3.6,8,8,8h124.4c4.4,0,8-3.6,8-8v-24.9C374.4,299.2,370.9,295.6,366.4,295.6z M366.4,245.9c-4.4,0-8,3.6-8,8
	v16.9H242c-4.4,0-8,3.6-8,8s3.6,8,8,8h124.4c4.4,0,8-3.6,8-8v-24.9C374.4,249.4,370.9,245.9,366.4,245.9z M366.4,196.1
	c-4.4,0-8,3.6-8,8V221H242c-4.4,0-8,3.6-8,8s3.6,8,8,8h124.4c4.4,0,8-3.6,8-8v-24.9C374.4,199.7,370.9,196.1,366.4,196.1z
	 M366.4,146.3c-4.4,0-8,3.6-8,8v16.9H242c-4.4,0-8,3.6-8,8s3.6,8,8,8h124.4c4.4,0,8-3.6,8-8v-24.9
	C374.4,149.9,370.9,146.3,366.4,146.3z M366.4,71.7c-4.4,0-8,3.6-8,8v41.8H242c-4.4,0-8,3.6-8,8s3.6,8,8,8h124.4c4.4,0,8-3.6,8-8
	V79.7C374.4,75.2,370.9,71.7,366.4,71.7z"></path>
<path d="M158.8,134.7c0,4.4-3.6,8-8,8h-44.5c-4.4,0-8-3.6-8-8s3.6-8,8-8h44.5C155.2,126.7,158.8,130.3,158.8,134.7z M138.1,353.4
	H93.6c-4.4,0-8,3.6-8,8s3.6,8,8,8h44.5c4.4,0,8-3.6,8-8S142.5,353.4,138.1,353.4z M138.1,387.2H51.2c-4.4,0-8,3.6-8,8s3.6,8,8,8
	h86.9c4.4,0,8-3.6,8-8S142.5,387.2,138.1,387.2z M477.9,111.5l-13.4-8.3l8.3-13.4c2.3-3.8,1.1-8.7-2.6-11c-3.8-2.3-8.7-1.1-11,2.6
	l-8.3,13.4l-13.4-8.3c-3.8-2.3-8.7-1.1-11,2.6c-2.3,3.8-1.1,8.7,2.6,11l13.4,8.3l-8.3,13.4c-2.3,3.8-1.1,8.7,2.6,11
	c1.3,0.8,2.8,1.2,4.2,1.2c2.7,0,5.3-1.4,6.8-3.8l8.3-13.4l13.4,8.3c1.3,0.8,2.8,1.2,4.2,1.2c2.7,0,5.3-1.4,6.8-3.8
	C482.9,118.7,481.7,113.8,477.9,111.5z M57.5,204.5c0-4.4-3.6-8-8-8c-5.7,0-10.4-4.7-10.4-10.4s4.7-10.4,10.4-10.4c4.4,0,8-3.6,8-8
	s-3.6-8-8-8c-14.6,0-26.4,11.8-26.4,26.4s11.8,26.4,26.4,26.4C53.9,212.5,57.5,208.9,57.5,204.5z M436.4,189.2
	c-4.2,4.2-4.2,11,0,15.2c4.2,4.2,11,4.2,15.2,0c4.2-4.2,4.2-11,0-15.2C447.4,185,440.6,185,436.4,189.2z M49.5,93.6h3.9v3.9
	c0,4.4,3.6,8,8,8s8-3.6,8-8v-3.9h3.9c4.4,0,8-3.6,8-8s-3.6-8-8-8h-3.9v-3.9c0-4.4-3.6-8-8-8s-8,3.6-8,8v3.9h-3.9c-4.4,0-8,3.6-8,8
	S45.1,93.6,49.5,93.6z"></path>
<g>
	<path fill="#DB81DA" class="secondary-color" d="M455,275.2h21.8v56.9H455V275.2z"></path>
	<path fill="#FFA4ED" class="primary-color" d="M78,293.6v21.8H21v-21.8H78z"></path>
</g>
</svg>