<svg version="1.1" id="Layer_1" xmlns="http://www.w3.org/2000/svg" xmlns:xlink="http://www.w3.org/1999/xlink" x="0px" y="0px" viewBox="0 0 512 512" enable-background="new 0 0 512 512" xml:space="preserve">
<linearGradient id="SVGID_1_" gradientUnits="userSpaceOnUse" x1="277.475" y1="419.3724" x2="277.475" y2="217.3697" class="gradient-element">
	<stop offset="0" class="primary-color-gradient" style="stop-color: #FFA4ED"></stop>
	<stop offset="1" class="secondary-color-gradient" style="stop-color: #DB81DA"></stop>
</linearGradient>
<path fill="url(#SVGID_1_)" d="M313.4,357.1l-193.1,44.7c0,0-21.2-7-6.1-18.6c3.2-2.4,209.8-158.7,220.1-167.1
	c62.7-51.9,112,50.1,112,50.1l-17.4,10.4L313.4,357.1z"></path>
<path d="M443.8,275.3l-125.5,94.2c-1,0.8-2.1,1.3-3.4,1.6c0,0,0,0,0,0c0,0,0,0,0,0h0c0,0,0,0,0,0l-2.1,0.4L96.9,414.7
	c-0.5,0.1-1,0.2-1.6,0.2c-2.3,0-4.5-1-6-2.7c-1.7-1.9-2.3-4.4-1.8-6.9c0-0.9,0.1-1.9,0.4-2.8l18.2-54.6c0.3-0.8,0.7-1.6,1.2-2.3
	l46.4-139.5c0.5-1.4,1.3-2.7,2.5-3.6l121.7-101.3c3.4-2.8,8.4-2.4,11.3,1c2.8,3.4,2.4,8.4-1,11.3l-119.9,99.9l-43.3,130
	c27.4,4.9,32.3,28.2,33.1,42.8l146.1-29.2l-11.6-64.7h-53c-4.4,0-8-3.6-8-8V231l-34.9-7.1c-4.3-0.9-7.1-5.1-6.3-9.4
	c0.9-4.3,5.1-7.1,9.4-6.3l41.3,8.4c3.7,0.8,6.4,4,6.4,7.8v51.7h51.7c3.9,0,7.2,2.8,7.9,6.6L319,349l115.2-86.5
	c3.5-2.7,8.5-1.9,11.2,1.6C448,267.7,447.3,272.7,443.8,275.3z"></path>
<path d="M243.7,452.8c0,4.4-3.6,8-8,8H35.3c-4.4,0-8-3.6-8-8s3.6-8,8-8h200.4C240.1,444.8,243.7,448.4,243.7,452.8z M257.7,78.8
	c0-4.4-3.6-8-8-8h-51.5c-4.4,0-8,3.6-8,8s3.6,8,8,8h51.5C254.2,86.8,257.7,83.2,257.7,78.8z M373.6,106.3c0-4.4-3.6-8-8-8H258.2
	c-4.4,0-8,3.6-8,8s3.6,8,8,8h107.4C370,114.3,373.6,110.7,373.6,106.3z M447.1,363.6c-4.3,0-8.3-1.7-11.3-4.7
	c-3.1-3.1-8.2-3.1-11.3,0s-3.1,8.2,0,11.3c6,6,14.1,9.4,22.6,9.4c8.5,0,16.6-3.3,22.6-9.4c6-6,9.4-14.1,9.4-22.6
	c0-8.5-3.3-16.6-9.4-22.6c-3.1-3.1-8.2-3.1-11.3,0c-3.1,3.1-3.1,8.2,0,11.3c3,3,4.7,7,4.7,11.3c0,4.3-1.7,8.3-4.7,11.3
	C455.4,361.9,451.3,363.6,447.1,363.6z M43.4,265h3.9v3.9c0,4.4,3.6,8,8,8s8-3.6,8-8V265h3.9c4.4,0,8-3.6,8-8s-3.6-8-8-8h-3.9v-3.9
	c0-4.4-3.6-8-8-8s-8,3.6-8,8v3.9h-3.9c-4.4,0-8,3.6-8,8S39,265,43.4,265z M422.4,75.7h15.8v15.8c0,4.4,3.6,8,8,8s8-3.6,8-8V75.7H470
	c4.4,0,8-3.6,8-8s-3.6-8-8-8h-15.8V43.9c0-4.4-3.6-8-8-8s-8,3.6-8,8v15.8h-15.8c-4.4,0-8,3.6-8,8S418,75.7,422.4,75.7z M55.9,115.5
	c20.3,0,36.8-16.5,36.8-36.8c0-4.4-3.6-8-8-8s-8,3.6-8,8c0,11.4-9.3,20.8-20.8,20.8c-4.4,0-8,3.6-8,8S51.5,115.5,55.9,115.5z
	 M134.7,115.5c4.4,0,8-3.6,8-8s-3.6-8-8-8c-11.4,0-20.8-9.3-20.8-20.8c0-4.4-3.6-8-8-8s-8,3.6-8,8C97.9,99,114.4,115.5,134.7,115.5z
	 M105.9,165.5c4.4,0,8-3.6,8-8c0-11.4,9.3-20.8,20.8-20.8c4.4,0,8-3.6,8-8s-3.6-8-8-8c-20.3,0-36.8,16.5-36.8,36.8
	C97.9,161.9,101.5,165.5,105.9,165.5z M55.9,136.8c11.4,0,20.8,9.3,20.8,20.8c0,4.4,3.6,8,8,8s8-3.6,8-8c0-20.3-16.5-36.8-36.8-36.8
	c-4.4,0-8,3.6-8,8S51.5,136.8,55.9,136.8z M411.8,274.1h51.5c4.4,0,8-3.6,8-8s-3.6-8-8-8h-51.5c-4.4,0-8,3.6-8,8
	S407.4,274.1,411.8,274.1z M463.4,412.4h-52.4l-0.2-40.8c0-3-1.7-5.7-4.3-7c-2.6-1.4-5.8-1.2-8.2,0.5l-71.5,48.8
	c-3.6,2.5-4.6,7.5-2.1,11.1c1.5,2.3,4.1,3.5,6.6,3.5c1.6,0,3.1-0.5,4.5-1.4l59-40.3l0.2,33.7c0,4.4,3.6,8,8,8h60.4c4.4,0,8-3.6,8-8
	S467.8,412.4,463.4,412.4z"></path>
<path fill="#FFA4ED" class="primary-color" d="M484.8,177.3h-34.7v-34.7h34.7V177.3z"></path>
</svg>