<svg version="1.1" id="Layer_1" xmlns="http://www.w3.org/2000/svg" xmlns:xlink="http://www.w3.org/1999/xlink" x="0px" y="0px" viewBox="0 0 512 512" enable-background="new 0 0 512 512" xml:space="preserve">
<path d="M103.4,40.3c0,4.4-3.6,8-8,8H41.9c-4.4,0-8-3.6-8-8s3.6-8,8-8h53.5C99.8,32.3,103.4,35.9,103.4,40.3z M225.3,60.5h-87.8
	c-4.4,0-8,3.6-8,8s3.6,8,8,8h87.8c4.4,0,8-3.6,8-8S229.7,60.5,225.3,60.5z M464.4,45.1h-14.5V30.6c0-4.4-3.6-8-8-8s-8,3.6-8,8v14.5
	h-14.5c-4.4,0-8,3.6-8,8s3.6,8,8,8h14.5v14.5c0,4.4,3.6,8,8,8s8-3.6,8-8V61.1h14.5c4.4,0,8-3.6,8-8S468.8,45.1,464.4,45.1z"></path>
<linearGradient id="SVGID_1_" gradientUnits="userSpaceOnUse" x1="265.8698" y1="354.0198" x2="265.8698" y2="157.8628" class="gradient-element">
	<stop offset="0" class="primary-color-gradient" style="stop-color: #FFA4ED"></stop>
	<stop offset="1" class="secondary-color-gradient" style="stop-color: #DB81DA"></stop>
</linearGradient>
<path fill="url(#SVGID_1_)" d="M69.6,152.9c-11.8,0-21.4,9.6-21.4,21.4v166.5c0,11.6,9.4,21,21,21h414.5V152.9H69.6z M192.3,341.2
	h-67.8V228.8v-54.5h67.8V341.2z M286.3,311.8l3.3,29.4h-70.3l3.3-29.4c0.4-3.5,3.1-6.5,6.4-7.4l-16-70.3l1.7-1.7
	c23.5-23.5,35.4-43.1,35.4-58.1l8.7,0c0,15.1,11.9,34.6,35.4,58.1l1.7,1.7l-16,70.3C283.3,305.3,285.9,308.2,286.3,311.8z
	 M380.5,341.2l-71.4,0l0.1-47.6c0-6.3,4.2-12.1,10-14.1v-95.1c0-1.2,1.4-1.8,2.2-0.9l49.2,49.2l0,46.9c2.1,0.7,4,1.9,5.6,3.5
	c2.8,2.8,4.4,6.6,4.4,10.6L380.5,341.2z"></path>
<path d="M304.7,231.6L289,300.5c2.9,2.7,4.8,6.3,5.2,10.4l3.3,29.4c0.5,4.4-2.7,8.3-7.1,8.8c-0.3,0-0.6,0.1-0.9,0.1
	c-4,0-7.5-3-7.9-7.1l-3.3-29.4c0-0.3-0.3-0.5-0.5-0.6l-7.5-2l16.7-73.5c-10.5-10.7-18.8-20.5-24.7-29.7v44.4c0,4.4-3.6,8-8,8
	s-8-3.6-8-8V207c-5.9,9.1-14.1,19-24.7,29.7l16.7,73.5l-7.5,2c-0.2,0.1-0.4,0.4-0.5,0.6l-3.3,29.4c-0.5,4.4-4.4,7.6-8.8,7.1
	c-4.4-0.5-7.6-4.4-7.1-8.8l3.3-29.4c0.4-4,2.4-7.6,5.3-10.3l-15.7-69l4.8-4.8c27.4-27.4,33.1-43.6,33.1-52.5l0-8l12.2,0
	c0.1,0,0.2,0,0.3,0l12.2,0l0,8c0,8.8,5.7,25.1,33.1,52.5L304.7,231.6z M192.3,349.2c4.4,0,8-3.6,8-8V166.3h-83.8v174.9
	c0,4.4,3.6,8,8,8s8-3.6,8-8v-7.7h19.4c4.4,0,8-3.6,8-8s-3.6-8-8-8h-19.4v-40.9h19.4c4.4,0,8-3.6,8-8s-3.6-8-8-8h-19.4v-31.4h19.4
	c4.4,0,8-3.6,8-8c0-4.4-3.6-8-8-8h-19.4v-30.9h51.8v158.9C184.3,345.6,187.9,349.2,192.3,349.2z M372.5,341.2l0.1-47.6
	c0-1.9-0.7-3.6-2.1-4.9c-0.8-0.8-1.6-1.3-2.6-1.7l-1.1-0.4h-43.8l-1.1,0.4c-2.6,0.9-4.6,3.8-4.6,6.6l-0.1,47.6c0,4.4-3.6,8-8,8
	c0,0,0,0,0,0c-4.4,0-8-3.6-8-8l0.1-47.6c0-7.6,3.9-14.7,10-18.9v-90.3c0-3.8,2.3-7.2,5.7-8.6c3.5-1.4,7.5-0.7,10.1,2l51.5,51.5v45.4
	c1.2,0.8,2.3,1.7,3.3,2.7c4.3,4.3,6.7,10.1,6.7,16.3l-0.1,47.6c0,4.4-3.6,8-8,8c0,0,0,0,0,0C376.1,349.2,372.5,345.6,372.5,341.2z
	 M362.5,235.9l-35.4-35.4v70.1h35.4V235.9z M489,101.4c-4.4,0-8,3.6-8,8v244.4H378.5c-4.4,0-8,3.6-8,8s3.6,8,8,8H481V415H257.2
	c-4.4,0-8,3.6-8,8c0,0.5,0,39.7,0,39.7H78.8c-4.4,0-8,3.6-8,8s3.6,8,8,8h356.8c4.4,0,8-3.6,8-8s-3.6-8-8-8H265.2V431h216.2
	c8.6,0,15.6-7,15.6-15.6v-306C497,105,493.4,101.4,489,101.4z M59,382.1c5,0,9,4,9,9s-4,9-9,9s-9-4-9-9S54.1,382.1,59,382.1z
	 M87.5,382.1c5,0,9,4,9,9s-4,9-9,9s-9-4-9-9S82.5,382.1,87.5,382.1z M124.9,391.1c0,5-4,9-9,9s-9-4-9-9s4-9,9-9
	S124.9,386.1,124.9,391.1z M233.1,423c0-4.4-3.6-8-8-8H29.9V117.4h431.2c4.4,0,8-3.6,8-8s-3.6-8-8-8H29.4c-8.6,0-15.6,7-15.6,15.6
	v298.4c0,8.6,7,15.6,15.6,15.6h195.7C229.5,431,233.1,427.5,233.1,423z"></path>
</svg>