<svg version="1.1" id="Layer_1" xmlns="http://www.w3.org/2000/svg" xmlns:xlink="http://www.w3.org/1999/xlink" x="0px" y="0px" viewBox="0 0 512 512" enable-background="new 0 0 512 512" xml:space="preserve">
<g>
	<linearGradient id="SVGID_1_" gradientUnits="userSpaceOnUse" x1="182.7829" y1="254.1044" x2="182.7829" y2="177.6031" class="gradient-element">
		<stop offset="0" class="primary-color-gradient" style="stop-color: #FFA4ED"></stop>
		<stop offset="1" class="secondary-color-gradient" style="stop-color: #DB81DA"></stop>
	</linearGradient>
	<path fill="url(#SVGID_1_)" d="M224,224.6c-15.3,14.2-34.2,24.6-55.3,29.4c-15.2-0.9-27.2-13.4-27.2-28.8v-20.1
		c0-10.9,7.1-20.4,17.5-23.7c2.2-0.7,4.5-1.5,6.8-2.5c0,0-3.3,12.2,22.9,23.7C204.2,209.2,216.2,214.7,224,224.6z"></path>
	<linearGradient id="SVGID_2_" gradientUnits="userSpaceOnUse" x1="190.9602" y1="125.2702" x2="140.8106" y2="125.2702">
		<stop offset="0" class="primary-color-gradient" style="stop-color: #FFA4ED"></stop>
		<stop offset="1" class="secondary-color-gradient" style="stop-color: #DB81DA"></stop>
	</linearGradient>
	<path fill="url(#SVGID_2_)" d="M141.4,68.8c1.7-1,46.5,5.2,46.5,5.2s4.6,27.7,0,66.6c-2.7,22.5-17.8,34.2-30.1,40.1
		c-7.6,3.7-16.4-2-16.4-10.4V73.4C141.4,73.4,139.7,69.7,141.4,68.8z"></path>
	<linearGradient id="SVGID_3_" gradientUnits="userSpaceOnUse" x1="414.1145" y1="486.4207" x2="414.1145" y2="409.9193">
		<stop offset="0" class="primary-color-gradient" style="stop-color: #FFA4ED"></stop>
		<stop offset="1" class="secondary-color-gradient" style="stop-color: #DB81DA"></stop>
	</linearGradient>
	<path fill="url(#SVGID_3_)" d="M455.4,456.9c-15.3,14.2-34.2,24.6-55.3,29.4c-15.2-0.9-27.2-13.4-27.2-28.8v-20.1
		c0-10.9,7.1-20.4,17.5-23.7c2.2-0.7,4.5-1.5,6.8-2.5c0,0-3.3,12.2,22.9,23.7C435.6,441.5,447.5,447,455.4,456.9z"></path>
	<linearGradient id="SVGID_4_" gradientUnits="userSpaceOnUse" x1="422.2918" y1="357.5864" x2="372.1422" y2="357.5864">
		<stop offset="0" class="primary-color-gradient" style="stop-color: #FFA4ED"></stop>
		<stop offset="1" class="secondary-color-gradient" style="stop-color: #DB81DA"></stop>
	</linearGradient>
	<path fill="url(#SVGID_4_)" d="M372.7,301.1c1.7-1,46.5,5.2,46.5,5.2s4.6,27.7,0,66.6c-2.7,22.5-17.8,34.2-30.1,40.1
		c-7.6,3.7-16.4-2-16.4-10.4v-96.9C372.7,305.7,371,302,372.7,301.1z"></path>
</g>
<path d="M401.6,242.5l39.4-80.8c1.9,0.5,4,0.7,6.1,0.7c14.6,0,26.4-11.8,26.4-26.4s-11.8-26.4-26.4-26.4s-26.4,11.8-26.4,26.4
	c0,6.7,2.5,12.7,6.6,17.4l-42.2,86.5c-4-0.4-8.1-0.6-12.2-0.6c-31.5,0-60.3,11.3-82.7,30.1c-0.4-1.3-1-2.6-2.1-3.6l-47.5-47
	c18.8-22.4,30.1-51.3,30.1-82.7c0-13.8-2.2-27-6.2-39.5l50.1-47.4h70.1c3.4,10.7,13.4,18.4,25.1,18.4c14.6,0,26.4-11.8,26.4-26.4
	s-11.8-26.4-26.4-26.4c-11.8,0-21.8,7.7-25.1,18.4h-73.3c-2,0-4,0.8-5.5,2.2L258,80.6C237.3,37.1,192.8,7,141.5,7
	c-71.2,0-129,57.9-129,129c0,68.5,53.6,124.6,121,128.8v51.7c0,1.8,0.6,3.5,1.7,5l14.3,18.1c-1.2,3-1.9,6.3-1.9,9.7
	c0,14.6,11.8,26.4,26.4,26.4s26.4-11.8,26.4-26.4s-11.8-26.4-26.4-26.4c-5.2,0-10,1.5-14.1,4.1l-10.5-13.3v-48.9
	c30.8-1.9,58.7-14.6,80-34.5l47.3,46.8c0.9,0.9,1.9,1.5,3.1,1.9c-22.3,23.2-36,54.7-36,89.3c0,17.8,3.6,34.8,10.2,50.2H81.2
	c-3.4-10.7-13.4-18.4-25.1-18.4c-14.6,0-26.4,11.8-26.4,26.4S41.5,453,56,453c11.8,0,21.8-7.7,25.1-18.4h181
	c22.6,37.6,63.8,62.8,110.7,62.8c71.2,0,129-57.9,129-129C501.9,307.1,459,255.6,401.6,242.5z M447.1,125.6
	c5.7,0,10.4,4.7,10.4,10.4s-4.7,10.4-10.4,10.4s-10.4-4.7-10.4-10.4S441.3,125.6,447.1,125.6z M409.8,30.8c5.7,0,10.4,4.7,10.4,10.4
	s-4.7,10.4-10.4,10.4s-10.4-4.7-10.4-10.4S404.1,30.8,409.8,30.8z M184.5,349.3c0,5.7-4.7,10.4-10.4,10.4s-10.4-4.7-10.4-10.4
	s4.7-10.4,10.4-10.4S184.5,343.6,184.5,349.3z M141.5,249.1c-27.5,0-52.7-9.9-72.3-26.2c6.3-5.7,14.2-10,23.4-12.8c0,0,0.1,0,0.1,0
	c0.1,0,0.2-0.1,0.3-0.1c0.2-0.1,0.3-0.1,0.5-0.2c0,0,0.1,0,0.1-0.1c15-7.2,22.3-14,25.8-19.3c5.4,1.7,11.2,2.6,17.3,2.6
	c6.6,0,12.4-1,17.6-2.7c4.2,6.6,14.6,15.1,37.6,24.4c7,2.8,12.9,6.7,17.6,11.5C190.7,240.5,167.1,249.1,141.5,249.1z M28.5,136
	c0-62.3,50.7-113,113-113c62.3,0,113,50.7,113,113c0,31-12.5,59.1-32.8,79.5c-6.4-6.7-14.3-12-23.7-15.8
	c-20.1-8.1-27-14.4-29.3-17.1c12.5-9.5,18.9-23.1,21.7-30.6c1.8-4.8,2.6-9.9,2.6-15.1V69.2c0-2.6-1.3-5.1-3.5-6.6
	c-2.2-1.5-4.9-1.8-7.4-0.9c-7.3,2.8-14.7,1-23.2-1.2c-11.7-2.9-26.3-6.6-41.6,4.3c-3.6,2.6-4.5,7.6-1.9,11.2s7.6,4.5,11.2,1.9
	c8.8-6.3,16.6-4.7,28.5-1.8c6.7,1.7,14.1,3.5,22,3v57.9c0,3.3-0.6,6.6-1.7,9.6c-4.1,11.4-14.6,30.4-38.5,30.4
	c-22.4,0-33.2-15.3-38.4-28.1c-1.3-3.3-2-6.8-2-10.5V75.2c0-7.5,4.6-13.1,8.5-16.4c9.1-7.9,23.1-11.5,36.5-9.5
	c4.8,0.7,9.2,2,13.5,3.2c11.3,3.2,23,6.5,38.4,0.1c4.1-1.7,6-6.4,4.3-10.5c-1.7-4.1-6.4-6-10.5-4.3c-10.3,4.3-17.7,2.2-27.9-0.7
	c-4.6-1.3-9.8-2.8-15.5-3.6c-17.9-2.7-36.8,2.4-49.3,13.2c-9,7.8-14,17.9-14,28.5v63.2c0,5.7,1.1,11.2,3.1,16.4
	C88.5,167,95.8,176.5,105,183c-2.2,2.6-7,6.8-17.7,11.9c-11.6,3.7-21.6,9.3-29.6,16.8C39.5,191.7,28.5,165.1,28.5,136z M56,437
	c-5.7,0-10.4-4.7-10.4-10.4s4.7-10.4,10.4-10.4c5.7,0,10.4,4.7,10.4,10.4S61.8,437,56,437z M300.6,455.2c6.3-5.7,14.2-10,23.4-12.8
	c0,0,0.1,0,0.1,0c0.1,0,0.2-0.1,0.4-0.1c0.2-0.1,0.3-0.1,0.5-0.2c0,0,0.1,0,0.1-0.1c15-7.2,22.3-14,25.8-19.3
	c5.4,1.7,11.2,2.6,17.3,2.6c6.6,0,12.4-1,17.6-2.7c4.2,6.6,14.6,15.1,37.6,24.4c7,2.8,12.9,6.7,17.6,11.5
	c-19,14.4-42.6,22.9-68.2,22.9C345.4,481.4,320.2,471.5,300.6,455.2z M453.1,447.9c-6.4-6.7-14.3-12-23.7-15.8
	c-20.1-8.1-27-14.4-29.3-17.1c12.5-9.5,18.9-23.1,21.7-30.6c1.8-4.8,2.6-9.9,2.6-15.1l0-67.7c0-2.6-1.3-5.1-3.5-6.6
	c-2.2-1.5-4.9-1.8-7.4-0.9c-7.3,2.8-14.7,1-23.2-1.2c-11.7-2.9-26.3-6.6-41.6,4.3c-3.6,2.6-4.5,7.6-1.9,11.2s7.5,4.5,11.2,1.9
	c8.8-6.3,16.6-4.8,28.5-1.8c6.7,1.7,14.1,3.5,22,3l0,57.9c0,3.3-0.6,6.6-1.7,9.6c-4.1,11.4-14.6,30.4-38.5,30.4
	c-22.4,0-33.2-15.3-38.4-28.1c-1.3-3.3-2-6.8-2-10.5l0-63.2c0-7.5,4.6-13.1,8.5-16.4c9.1-7.9,23.1-11.5,36.5-9.5
	c4.8,0.7,9.2,2,13.5,3.2c11.3,3.2,23,6.5,38.4,0.1c4.1-1.7,6-6.4,4.3-10.5c-1.7-4.1-6.4-6-10.5-4.3c-10.3,4.3-17.7,2.2-27.9-0.7
	c-4.6-1.3-9.8-2.8-15.5-3.6c-17.9-2.7-36.8,2.4-49.3,13.2c-9,7.8-14,17.9-14,28.5l0,63.2c0,5.7,1.1,11.2,3.2,16.4
	c4.9,12.2,12.2,21.7,21.3,28.2c-2.2,2.6-7,6.8-17.7,11.9c-11.6,3.7-21.6,9.3-29.6,16.8c-18.1-20.1-29.2-46.6-29.2-75.7
	c0-62.3,50.7-113,113-113s113,50.7,113,113C485.9,399.4,473.4,427.5,453.1,447.9z"></path>
<g>
	<path fill="#DB81DA" class="secondary-color" d="M22.2,278h68.5v21.4H22.2V278z"></path>
	<path fill="#FFA4ED" class="primary-color" d="M22.2,318.8h68.5v21.4H22.2V318.8z"></path>
	<path fill="#FFA4ED" class="primary-color" d="M22.2,359.6h68.5V381H22.2V359.6z"></path>
</g>
<path d="M336.3,117.6c0,3.5-2.8,6.2-6.2,6.2h-3v3c0,3.5-2.8,6.2-6.2,6.2s-6.2-2.8-6.2-6.2v-3h-3c-3.5,0-6.2-2.8-6.2-6.2
	s2.8-6.2,6.2-6.2h3v-3c0-3.5,2.8-6.2,6.2-6.2s6.2,2.8,6.2,6.2v3h3C333.5,111.4,336.3,114.2,336.3,117.6z M229.5,464.4h-3v-3
	c0-3.5-2.8-6.2-6.2-6.2s-6.2,2.8-6.2,6.2v3h-3c-3.5,0-6.2,2.8-6.2,6.2s2.8,6.2,6.2,6.2h3v3c0,3.5,2.8,6.2,6.2,6.2s6.2-2.8,6.2-6.2
	v-3h3c3.5,0,6.2-2.8,6.2-6.2S233,464.4,229.5,464.4z M493.9,211.5h-3v-3c0-3.5-2.8-6.2-6.2-6.2s-6.2,2.8-6.2,6.2v3h-3
	c-3.5,0-6.2,2.8-6.2,6.2c0,3.5,2.8,6.2,6.2,6.2h3v3c0,3.5,2.8,6.2,6.2,6.2s6.2-2.8,6.2-6.2v-3h3c3.5,0,6.2-2.8,6.2-6.2
	C500.2,214.3,497.4,211.5,493.9,211.5z M490.2,480.2c0,5.5-4.4,9.9-9.9,9.9s-9.9-4.4-9.9-9.9s4.4-9.9,9.9-9.9
	S490.2,474.8,490.2,480.2z M470.3,40.2c0-5.5,4.4-9.9,9.9-9.9s9.9,4.4,9.9,9.9s-4.4,9.9-9.9,9.9S470.3,45.7,470.3,40.2z"></path>
</svg>