<svg version="1.1" id="Layer_1" xmlns="http://www.w3.org/2000/svg" xmlns:xlink="http://www.w3.org/1999/xlink" x="0px" y="0px" viewBox="0 0 512 512" enable-background="new 0 0 512 512" xml:space="preserve">
<linearGradient id="SVGID_1_" gradientUnits="userSpaceOnUse" x1="198.8255" y1="326.5605" x2="431.5754" y2="326.5605" class="gradient-element">
	<stop offset="0" class="primary-color-gradient" style="stop-color: #FFA4ED"></stop>
	<stop offset="1" class="secondary-color-gradient" style="stop-color: #DB81DA"></stop>
</linearGradient>
<path fill="url(#SVGID_1_)" d="M265.6,466.5h-50.6c-8.9,0-16.1-7.2-16.1-16.1v-13.3c0-21.1,17.1-38.2,38.2-38.2h49.8
	c8.9,0,16.1-7.2,16.1-16.1V250.7c0-35.4,28.7-64.1,64.1-64.1h48.5c8.9,0,16.1,7.2,16.1,16.1v90.1l-0.3,0.3l-35.7,35.7L279.2,445.2
	C273,451.4,268.7,458.4,265.6,466.5z M303.8,466.5h111.6c8.9,0,16.1-7.2,16.1-16.1V338.7L303.8,466.5z"></path>
<path d="M355.5,324.7H216.3c-4.9,0-8.9-4-8.9-8.9s4-8.9,8.9-8.9h139.2c4.9,0,8.9,4,8.9,8.9S360.3,324.7,355.5,324.7z M375.8,251.2
	c0-4.9-4-8.9-8.9-8.9H216.3c-4.9,0-8.9,4-8.9,8.9s4,8.9,8.9,8.9H367C371.9,260.1,375.8,256.1,375.8,251.2z M216.3,371.5
	c-4.9,0-8.9,4-8.9,8.9s4,8.9,8.9,8.9h74.6c4.9,0,8.9-4,8.9-8.9s-4-8.9-8.9-8.9H216.3z M501.3,281.5L325.2,457.6h97.5v-83.8
	c0-4.9,4-8.9,8.9-8.9s8.9,4,8.9,8.9v92.6c0,4.9-4,8.9-8.9,8.9H307.4c0,0,0,0,0,0c-11.6,10.7-26.9,17.5-45.5,20.1
	c-0.4,0.1-0.8,0.1-1.2,0.1c-2.3,0-4.6-0.9-6.3-2.6c-2-2-2.9-4.7-2.5-7.5c0.5-3.5,1.1-6.9,1.8-10.1H151.7c-4.9,0-8.9-4-8.9-8.9v-366
	c0-4.9,4-8.9,8.9-8.9h183c12.9,0,24.7,5.7,32.4,15.6c4,5.2,44.5,46.6,70.7,73.2c2.5,2.5,3.2,6.3,1.9,9.6c-1.4,3.3-4.6,5.4-8.2,5.4
	H216.3c-4.9,0-8.9-4-8.9-8.9s4-8.9,8.9-8.9h141.8v-54c-2.4-2.6-4.2-4.6-5-5.6c-4.4-5.7-11-8.8-18.5-8.8H160.6v348.3h99.2
	c3.4-7.1,7.7-13.2,13.2-18.7l116.4-116.4c3.5-3.5,9.1-3.5,12.5,0c3.5,3.5,3.5,9.1,0,12.5L285.5,451.5c-6.4,6.4-10.6,13.8-13.4,23.7
	c10.1-3,18.3-7.8,25-14.4l191.1-191.1c0.3-1.3,0.4-4.8-2.7-7.9c-2-2-6.8-2.9-8.2-2.1l-36.7,36.7c-0.3,0.3-0.6,0.5-0.9,0.8
	c-1.4,3-4.5,5-8,5c-4.9,0-8.9-4-8.9-8.9v-73c0-4.9,4-8.9,8.9-8.9s8.9,4,8.9,8.9v51.1l24.3-24.3c3.5-3.5,8.5-5.4,14.2-5.4
	c0.1,0,0.1,0,0.2,0c7.1,0,14.4,3,19,7.7C507.9,259.5,507.9,274.9,501.3,281.5z M375.8,177.8h34.5c-10-10.2-23.3-23.7-34.5-35.4
	V177.8z"></path>
<g>
	<path fill="#DB81DA" class="secondary-color" d="M64.1,209.4v39.3H26.8v-39.3H64.1z M64.1,406.1v-39.3H26.8v39.3H64.1z"></path>
	<path fill="#FFA4ED" class="primary-color" d="M63.4,263.6v35.8H27.6v-35.8H63.4z M63.4,351.8V316H27.6v35.8H63.4z"></path>
</g>
<path d="M255.3,43.3c0,4.4-3.6,8-8,8h-43c-4.4,0-8-3.6-8-8s3.6-8,8-8h43C251.7,35.3,255.3,38.9,255.3,43.3z M118.3,151.1H44.5
	c-4.4,0-8,3.6-8,8s3.6,8,8,8h73.8c4.4,0,8-3.6,8-8S122.7,151.1,118.3,151.1z M78.6,458.5H62.8v-15.8c0-4.4-3.6-8-8-8s-8,3.6-8,8
	v15.8H31c-4.4,0-8,3.6-8,8s3.6,8,8,8h15.8v15.8c0,4.4,3.6,8,8,8s8-3.6,8-8v-15.8h15.8c4.4,0,8-3.6,8-8S83,458.5,78.6,458.5z
	 M459.2,135c4.4,0,8-3.6,8-8c0-11.4,9.3-20.8,20.8-20.8c4.4,0,8-3.6,8-8s-3.6-8-8-8c-20.3,0-36.8,16.5-36.8,36.8
	C451.2,131.4,454.8,135,459.2,135z M409.2,106.2c11.4,0,20.8,9.3,20.8,20.8c0,4.4,3.6,8,8,8s8-3.6,8-8c0-20.3-16.5-36.8-36.8-36.8
	c-4.4,0-8,3.6-8,8S404.8,106.2,409.2,106.2z M409.2,85c20.3,0,36.8-16.5,36.8-36.8c0-4.4-3.6-8-8-8s-8,3.6-8,8
	c0,11.4-9.3,20.8-20.8,20.8c-4.4,0-8,3.6-8,8S404.8,85,409.2,85z M488,85c4.4,0,8-3.6,8-8s-3.6-8-8-8c-11.4,0-20.8-9.3-20.8-20.8
	c0-4.4-3.6-8-8-8s-8,3.6-8,8C451.2,68.5,467.7,85,488,85z M31.1,43.3c0-5.5,4.4-9.9,9.9-9.9s9.9,4.4,9.9,9.9s-4.4,9.9-9.9,9.9
	S31.1,48.8,31.1,43.3z M86.4,43.3c0-5.5,4.4-9.9,9.9-9.9s9.9,4.4,9.9,9.9s-4.4,9.9-9.9,9.9S86.4,48.8,86.4,43.3z M161.6,43.3
	c0,5.5-4.4,9.9-9.9,9.9s-9.9-4.4-9.9-9.9s4.4-9.9,9.9-9.9S161.6,37.9,161.6,43.3z M497,211.5h-92.7c-4.9,0-8.9,4-8.9,8.9
	s4,8.9,8.9,8.9H497c4.9,0,8.9-4,8.9-8.9S501.9,211.5,497,211.5z"></path>
</svg>