<svg version="1.1" id="Layer_1" xmlns="http://www.w3.org/2000/svg" xmlns:xlink="http://www.w3.org/1999/xlink" x="0px" y="0px" viewBox="0 0 512 512" enable-background="new 0 0 512 512" xml:space="preserve">
<g>
	<path fill="#FFA4ED" class="primary-color" d="M448.3,138.3V27.1h43.6v111.2H448.3z"></path>
	<path fill="#DB81DA" class="secondary-color" d="M378.2,70.7V27.1h43.6v43.6H378.2z"></path>
</g>
<path d="M424.2,409.3c-14.6,0-26.4,11.8-26.4,26.4s11.8,26.4,26.4,26.4s26.4-11.8,26.4-26.4S438.7,409.3,424.2,409.3z M424.2,446.1
	c-5.7,0-10.4-4.7-10.4-10.4s4.7-10.4,10.4-10.4s10.4,4.7,10.4,10.4S429.9,446.1,424.2,446.1z M191.5,423.1c0,4.4-3.6,8-8,8H96.7
	c-4.4,0-8-3.6-8-8s3.6-8,8-8h86.8C187.9,415.1,191.5,418.6,191.5,423.1z M122.4,402.9H65c-4.4,0-8-3.6-8-8s3.6-8,8-8h57.4
	c4.4,0,8,3.6,8,8S126.8,402.9,122.4,402.9z M58.1,179.8c-4.4,0-8-3.6-8-8v-15.8H34.3c-4.4,0-8-3.6-8-8s3.6-8,8-8h15.8v-15.8
	c0-4.4,3.6-8,8-8s8,3.6,8,8v15.8h15.8c4.4,0,8,3.6,8,8s-3.6,8-8,8H66.1v15.8C66.1,176.3,62.5,179.8,58.1,179.8z M487.6,231.7
	c0,4.4-3.6,8-8,8h-3.9v3.9c0,4.4-3.6,8-8,8s-8-3.6-8-8v-3.9h-3.9c-4.4,0-8-3.6-8-8s3.6-8,8-8h3.9v-3.9c0-4.4,3.6-8,8-8s8,3.6,8,8
	v3.9h3.9C484,223.7,487.6,227.3,487.6,231.7z M140.1,70.8c14.6,0,26.4-11.8,26.4-26.4s-11.8-26.4-26.4-26.4s-26.4,11.8-26.4,26.4
	S125.5,70.8,140.1,70.8z M140.1,34.1c5.7,0,10.4,4.7,10.4,10.4s-4.7,10.4-10.4,10.4s-10.4-4.7-10.4-10.4S134.4,34.1,140.1,34.1z"></path>
<linearGradient id="SVGID_1_" gradientUnits="userSpaceOnUse" x1="277.0904" y1="364.261" x2="277.0904" y2="170.4048" class="gradient-element">
	<stop offset="0" class="primary-color-gradient" style="stop-color: #FFA4ED"></stop>
	<stop offset="1" class="secondary-color-gradient" style="stop-color: #DB81DA"></stop>
</linearGradient>
<path fill="url(#SVGID_1_)" d="M367.7,194.1c0,7.6-2.6,13.9-7.8,18.9c-5.2,5-12,7.5-20.5,7.5c-4.4,0-8.4-0.7-11.9-2
	c3.2-1.2,6.1-3,8.6-5.4c5.2-5,7.7-11.3,7.7-18.9c0-7.8-2.6-14.2-7.9-19.2c-2.5-2.4-5.3-4.2-8.4-5.4c3.5-1.4,7.5-2.1,11.9-2.1
	c8.2,0,15,2.5,20.3,7.6C365,180,367.7,186.3,367.7,194.1z M198.4,240.4c-4.4,0-8.3,0.7-11.9,2.1c3.1,1.2,5.9,3.1,8.4,5.4
	c5.3,5,7.9,11.4,7.9,19.2c0,7.6-2.6,13.9-7.7,18.9c-2.5,2.4-5.3,4.2-8.6,5.4c3.5,1.4,7.5,2,11.9,2c8.5,0,15.3-2.5,20.5-7.5
	c5.2-5,7.8-11.3,7.8-18.9c0-7.8-2.6-14.2-7.9-19.2C213.4,242.9,206.6,240.4,198.4,240.4z M292.9,313.4c-4.4,0-8.3,0.7-11.9,2.1
	c3.1,1.2,5.9,3.1,8.4,5.4c5.3,5,7.9,11.4,7.9,19.2c0,7.6-2.6,13.9-7.7,18.9c-2.5,2.4-5.3,4.2-8.6,5.4c3.5,1.4,7.5,2,11.9,2
	c8.5,0,15.3-2.5,20.5-7.5c5.2-5,7.8-11.3,7.8-18.9c0-7.8-2.6-14.2-7.9-19.2C307.9,315.9,301.1,313.4,292.9,313.4z"></path>
<path d="M121.2,193.9c0-4.4,3.6-8,8-8h169.1c0.5-2.6,1.3-5.1,2.4-7.6c1.7-4.1,6.4-6,10.5-4.3c4.1,1.7,6,6.4,4.3,10.5
	c-1.3,3-1.9,6.1-1.9,9.4c0,13.3,10.8,24.1,24.1,24.1s24.1-10.8,24.1-24.1c0-13.3-10.8-24.1-24.1-24.1c-3.7,0-7.2,0.8-10.4,2.4
	c-4,1.9-8.8,0.2-10.7-3.7c-1.9-4-0.2-8.8,3.7-10.7c5.5-2.6,11.3-4,17.4-4c19.4,0,35.6,13.8,39.3,32.1H400c4.4,0,8,3.6,8,8
	s-3.6,8-8,8h-23.1c-3.7,18.3-19.9,32.1-39.3,32.1s-35.6-13.8-39.3-32.1H129.2C124.8,201.9,121.2,198.3,121.2,193.9z M408,340
	c0,4.4-3.6,8-8,8h-69.7c-3.7,18.3-19.9,32.1-39.3,32.1c-19.4,0-35.6-13.8-39.3-32.1H129.2c-4.4,0-8-3.6-8-8s3.6-8,8-8h122.5
	c3.7-18.3,19.9-32.1,39.3-32.1c19.4,0,35.6,13.8,39.3,32.1H400C404.4,332,408,335.6,408,340z M315.1,340c0-13.3-10.8-24.1-24.1-24.1
	c-13.3,0-24.1,10.8-24.1,24.1s10.8,24.1,24.1,24.1C304.3,364.1,315.1,353.3,315.1,340z M408,267c0,4.4-3.6,8-8,8H235.8
	c-3.7,18.3-19.9,32.1-39.3,32.1c-19.4,0-35.6-13.8-39.3-32.1h-28c-4.4,0-8-3.6-8-8s3.6-8,8-8h28c3.7-18.3,19.9-32.1,39.3-32.1
	c19.4,0,35.6,13.8,39.3,32.1H400C404.4,259,408,262.5,408,267z M220.6,267c0-13.3-10.8-24.1-24.1-24.1s-24.1,10.8-24.1,24.1
	s10.8,24.1,24.1,24.1S220.6,280.2,220.6,267z"></path>
</svg>