<svg version="1.1" id="Layer_1" xmlns="http://www.w3.org/2000/svg" xmlns:xlink="http://www.w3.org/1999/xlink" x="0px" y="0px" viewBox="0 0 512 512" enable-background="new 0 0 512 512" xml:space="preserve">
<path d="M61.8,216.5c-4.4,0-8-3.6-8-8s3.6-8,8-8c5.7,0,10.4-4.7,10.4-10.4s-4.7-10.4-10.4-10.4c-4.4,0-8-3.6-8-8s3.6-8,8-8
	c14.6,0,26.4,11.8,26.4,26.4S76.4,216.5,61.8,216.5z M90.4,288.7h-3.9v-3.9c0-4.4-3.6-8-8-8s-8,3.6-8,8v3.9h-3.9c-4.4,0-8,3.6-8,8
	s3.6,8,8,8h3.9v3.9c0,4.4,3.6,8,8,8s8-3.6,8-8v-3.9h3.9c4.4,0,8-3.6,8-8S94.9,288.7,90.4,288.7z"></path>
<g>
	<path fill="#FFA4ED" class="primary-color" d="M28.6,24.2L86.4,82l-57.8,57.8V24.2z"></path>
	<path fill="#DB81DA" class="secondary-color" d="M70.5,476.2V498H35.3H13.5v-21.8V441h21.8v35.1H70.5z"></path>
</g>
<linearGradient id="SVGID_1_" gradientUnits="userSpaceOnUse" x1="430.3116" y1="470.8263" x2="425.1721" y2="150.4642" class="gradient-element">
	<stop offset="0" class="primary-color-gradient" style="stop-color: #FFA4ED"></stop>
	<stop offset="1" class="secondary-color-gradient" style="stop-color: #DB81DA"></stop>
</linearGradient>
<path fill="url(#SVGID_1_)" d="M494.9,160.9v321.6h-134V160.9h26.8C399.5,160.9,494.9,160.9,494.9,160.9L494.9,160.9z"></path>
<path d="M494.9,490.6H146.5c-4.4,0-8-3.6-8-8V26.9c0-4.4,3.6-8,8-8h227.8c5.4,0,10.6,0.8,15.5,2.4c0.5-0.1,1.1-0.2,1.6-0.2
	c2.9,0,5.5,1.6,6.9,3.9c5.4,3,10.2,7.1,14.1,12c7.2,9.4,85.5,114.5,88.8,119c1.8,2.4,2.1,5.7,0.7,8.4c-1.4,2.7-4.1,4.4-7.1,4.4
	H226.9c-4.4,0-8-3.6-8-8v-26.8c0-4.4,3.6-8,8-8s8,3.6,8,8v18.8h148.6V36.1c-2.9-0.8-6-1.2-9.1-1.2H154.5v439.6h332.4V187.7
	c0-4.4,3.6-8,8-8s8,3.6,8,8v294.8C502.9,487,499.3,490.6,494.9,490.6z M399.5,152.9h79.4c-21.7-29.2-73.5-98.7-79.1-106
	c-0.1-0.1-0.2-0.2-0.3-0.4V152.9z M200.1,437c-4.4,0-8-3.6-8-8s3.6-8,8-8c11.4,0,25.8-6.6,32.2-21.3c2.7-6.1,8.1-10.4,14.6-11.6
	c6.5-1.2,13.2,0.9,17.9,5.6c0,0,0.1,0.1,0.1,0.1c0,0,0.1,0.1,0.1,0.1c3.7,3.9,6.5,6.6,8.1,8c5.6,4.6,17.5,11,27.3,6.4
	c8.1-3.7,12.2-13.2,12.2-28.4c0-4.4,3.6-8,8-8s8,3.6,8,8c0,27.4-11.6,38.5-21.4,42.9c-16,7.5-33.9,0-44.3-8.6c0,0-0.1-0.1-0.1-0.1
	c-2-1.8-5-4.6-9.2-9c0,0,0,0-0.1-0.1c-1.4-1.4-3-1.3-3.7-1.1c-0.8,0.1-2.2,0.6-2.9,2.3C237.6,427.4,216.7,437,200.1,437z
	 M414.5,329.7H226.9c-4.4,0-8-3.6-8-8s3.6-8,8-8h187.6c4.4,0,8,3.6,8,8S418.9,329.7,414.5,329.7z M414.5,276.1H226.9
	c-4.4,0-8-3.6-8-8s3.6-8,8-8h187.6c4.4,0,8,3.6,8,8S418.9,276.1,414.5,276.1z M414.5,222.5H226.9c-4.4,0-8-3.6-8-8s3.6-8,8-8h187.6
	c4.4,0,8,3.6,8,8S418.9,222.5,414.5,222.5z M334.1,115.3H226.9c-4.4,0-8-3.6-8-8s3.6-8,8-8h107.2c4.4,0,8,3.6,8,8
	S338.5,115.3,334.1,115.3z"></path>
</svg>