<svg version="1.1" id="Layer_1" xmlns="http://www.w3.org/2000/svg" xmlns:xlink="http://www.w3.org/1999/xlink" x="0px" y="0px" viewBox="0 0 512 512" enable-background="new 0 0 512 512" xml:space="preserve">
<path d="M81.7,32.5c3.1,3.1,3.1,8.2,0,11.3c-3.1,3.1-8.2,3.1-11.3,0c-2-2-4.6-3-7.3-3c-2.8,0-5.4,1.1-7.3,3
	c-4.1,4.1-4.1,10.6,0,14.7c3.1,3.1,3.1,8.2,0,11.3c-1.6,1.6-3.6,2.3-5.7,2.3c-2,0-4.1-0.8-5.7-2.3c-5.1-5.1-7.6-11.7-7.7-18.4
	c-6.9-0.1-13.5-2.8-18.4-7.7c-3.1-3.1-3.1-8.2,0-11.3c3.1-3.1,8.2-3.1,11.3,0c2,2,4.6,3,7.3,3s5.4-1.1,7.3-3
	c4.1-4.1,4.1-10.6,0-14.7c-3.1-3.1-3.1-8.2,0-11.3c3.1-3.1,8.2-3.1,11.3,0c5.1,5.1,7.6,11.7,7.7,18.4C70.3,24.9,76.8,27.6,81.7,32.5
	z M413.2,40c8.1,0,16.1-3.1,22.3-9.2c3.1-3.1,3.1-8.2,0-11.3c-3.1-3.1-8.2-3.1-11.3,0c-6,6-15.9,6-21.9,0c-3.1-3.1-8.2-3.1-11.3,0
	c-3.1,3.1-3.1,8.2,0,11.3C397.1,36.9,405.1,40,413.2,40z M443.2,54c0-4.1,1.6-8,4.5-11c3.1-3.1,3.1-8.2,0-11.3
	c-3.1-3.1-8.2-3.1-11.3,0c-6,6-9.2,13.9-9.2,22.3c0,8.4,3.3,16.3,9.2,22.3c1.6,1.6,3.6,2.3,5.7,2.3s4.1-0.8,5.7-2.3
	c3.1-3.1,3.1-8.2,0-11.3C444.8,62.1,443.2,58.2,443.2,54z M390.9,77.3c-3.1,3.1-3.1,8.2,0,11.3c3.1,3.1,8.2,3.1,11.3,0
	c6-6,15.9-6,21.9,0c1.6,1.6,3.6,2.3,5.7,2.3c2,0,4.1-0.8,5.7-2.3c3.1-3.1,3.1-8.2,0-11.3C423.2,65,403.2,65,390.9,77.3z M399.2,54
	c0-8.4-3.3-16.3-9.2-22.3c-3.1-3.1-8.2-3.1-11.3,0c-3.1,3.1-3.1,8.2,0,11.3c2.9,2.9,4.5,6.8,4.5,11c0,4.1-1.6,8-4.5,11
	c-3.1,3.1-3.1,8.2,0,11.3c1.6,1.6,3.6,2.3,5.7,2.3c2,0,4.1-0.8,5.7-2.3C395.9,70.4,399.2,62.5,399.2,54z"></path>
<g>
	<path fill="#DB81DA" class="secondary-color" d="M506.5,136.5h-43.6V92.9h43.6V136.5z"></path>
	<path fill="#DB81DA" class="secondary-color" d="M506.5,66.5h-43.6V22.9h43.6V66.5z"></path>
	<path fill="#DB81DA" class="secondary-color" d="M478.9,455.9v21.8H336v-21.8H478.9z"></path>
</g>
<linearGradient id="SVGID_1_" gradientUnits="userSpaceOnUse" x1="164.1065" y1="388.1259" x2="169.8094" y2="75.8883" class="gradient-element">
	<stop offset="0" class="primary-color-gradient" style="stop-color: #FFA4ED"></stop>
	<stop offset="1" class="secondary-color-gradient" style="stop-color: #DB81DA"></stop>
</linearGradient>
<path fill="url(#SVGID_1_)" d="M236.6,133.4v250.2c0,12.8-11.7,22.4-24.3,19.9c-67.5-13.8-118.2-73.4-118.2-145
	c0-71.5,50.8-131.2,118.2-145C224.9,111,236.6,120.6,236.6,133.4z"></path>
<path d="M249.2,480.2c-122.2,0-221.7-99.5-221.7-221.7c0-52.3,18.6-103.1,52.4-143c33.4-39.5,79.6-66.1,130.2-75.1
	c4.3-0.8,8.5,2.1,9.3,6.5c0.8,4.4-2.1,8.5-6.5,9.3C114.7,73.7,43.5,158.7,43.5,258.5c0,113.4,92.3,205.7,205.7,205.7
	c4.2,0,8.1-0.1,12.1-0.4c4.4-0.3,8.2,3.1,8.5,7.5s-3.1,8.2-7.5,8.5C257.9,480.1,253.7,480.2,249.2,480.2z M286.9,476.9
	c-3.8,0-7.2-2.7-7.9-6.6c-0.8-4.3,2.1-8.5,6.5-9.3c98.2-17.5,169.4-102.7,169.4-202.4c0-113.4-92.3-205.7-205.7-205.7
	c-1.5,0-3.1,0-4.6,0v393.7c0,4.4-3.6,8-8,8s-8-3.6-8-8V45.2c0-4.2,3.3-7.7,7.5-8c4.3-0.3,8.6-0.4,13.1-0.4
	c122.2,0,221.7,99.5,221.7,221.7c0,52.3-18.6,103-52.4,143c-33.4,39.5-79.6,66.2-130.2,75.2C287.8,476.8,287.3,476.9,286.9,476.9z"></path>
</svg>