<svg version="1.1" id="Layer_1" xmlns="http://www.w3.org/2000/svg" xmlns:xlink="http://www.w3.org/1999/xlink" x="0px" y="0px" viewBox="0 0 512 512" enable-background="new 0 0 512 512" xml:space="preserve">
<path d="M191.1,480.5c0,4.4-3.6,8-8,8H17.5c-4.4,0-8-3.6-8-8s3.6-8,8-8h165.6C187.5,472.5,191.1,476.1,191.1,480.5z M487.4,50.5
	h-86.8c-4.4,0-8,3.6-8,8s3.6,8,8,8h86.8c4.4,0,8-3.6,8-8S491.8,50.5,487.4,50.5z M112.9,123.5h57.4c4.4,0,8-3.6,8-8s-3.6-8-8-8
	h-57.4c-4.4,0-8,3.6-8,8S108.4,123.5,112.9,123.5z M20.4,171h86.1c4.4,0,8-3.6,8-8s-3.6-8-8-8H20.4c-4.4,0-8,3.6-8,8
	S15.9,171,20.4,171z M379.5,445.9h-15.8v-15.8c0-4.4-3.6-8-8-8s-8,3.6-8,8v15.8h-15.8c-4.4,0-8,3.6-8,8s3.6,8,8,8h15.8v15.8
	c0,4.4,3.6,8,8,8s8-3.6,8-8v-15.8h15.8c4.4,0,8-3.6,8-8S383.9,445.9,379.5,445.9z M31.3,64.9H47v15.8c0,4.4,3.6,8,8,8s8-3.6,8-8
	V64.9h15.8c4.4,0,8-3.6,8-8s-3.6-8-8-8H63V33.2c0-4.4-3.6-8-8-8s-8,3.6-8,8v15.8H31.3c-4.4,0-8,3.6-8,8S26.8,64.9,31.3,64.9z"></path>
<g>
	<path fill="#DB81DA" class="secondary-color" d="M98.4,429.7v21.8H11.7v-21.8H98.4z"></path>
	<path fill="#DB81DA" class="secondary-color" d="M435.2,491.4l56.9-56.9v56.9H435.2z"></path>
</g>
<linearGradient id="SVGID_1_" gradientUnits="userSpaceOnUse" x1="380.1537" y1="389.2071" x2="380.1537" y2="125.3346" class="gradient-element">
	<stop offset="0" class="primary-color-gradient" style="stop-color: #FFA4ED"></stop>
	<stop offset="1" class="secondary-color-gradient" style="stop-color: #DB81DA"></stop>
</linearGradient>
<path fill="url(#SVGID_1_)" d="M268.2,136.3v168.4c0,16.7,10.1,32,25.8,38c14.3,5.5,23.7,14,33.4,22.8c16.3,15,35,31.9,74.8,31.9
	c0.8,0,76.7,9.2,90-104.9c-12.3-78.9-63.4-167.4-191.9-184.3C283.3,106,268.2,119.1,268.2,136.3z M332.6,241.1
	c-17.4,2.2-32.2-12.5-29.9-29.9c1.5-11.9,11.1-21.4,22.9-22.9c17.4-2.2,32.2,12.5,29.9,29.9C354,230.1,344.4,239.6,332.6,241.1z
	 M405.4,287.9c-16.1,2.1-29.8-11.6-27.7-27.7c1.4-11,10.2-19.8,21.2-21.2c16.1-2.1,29.8,11.6,27.7,27.7
	C425.2,277.6,416.4,286.5,405.4,287.9z"></path>
<path d="M402.2,405.4c-43.1,0-63.7-18.9-80.2-34l-0.1-0.1c-15.8-14.4-29.5-26.8-65.9-26.8c-36.4,0-50.1,12.4-65.9,26.8
	c-16.6,15.2-37.1,34.1-80.2,34.1c-0.2,0-23.9-0.2-47.3-15.5c-21-13.7-45.9-42.5-45.9-102.2c0-0.7,0.7-74.8,59.5-130.6
	c3.2-3,8.3-2.9,11.3,0.3c3,3.2,2.9,8.3-0.3,11.3c-53.4,50.6-54.5,118.3-54.5,119c0,41.8,12.8,71.5,38.1,88.4
	c19.2,12.8,39,13.2,39.2,13.2c36.8,0,53.4-15.2,69.3-29.8c0,0,0.1-0.1,0.1-0.1c16.7-15.2,34.1-31,76.7-31c42.6,0,59.9,15.8,76.7,31
	l0.1,0.1c16,14.7,32.5,29.8,69.4,29.8c0.1,0,19.9-0.4,39.1-13.2c25.3-16.8,38.1-46.6,38.1-88.4c0-0.4-0.7-44.7-29-88.3
	c-37.2-57.3-102.6-86.4-194.4-86.4c-30.3,0-58.3,3.3-83.2,9.8c-4.3,1.1-8.6-1.4-9.8-5.7c-1.1-4.3,1.4-8.6,5.7-9.8
	c26.2-6.9,55.6-10.4,87.3-10.4c53.5,0,99.4,9.8,136.4,29.2c29.9,15.7,54.1,37.6,71.8,65.1c30.8,47.9,31.2,95.9,31.2,96.4
	c0,59.6-25,88.5-45.9,102.2C426.1,405.2,402.4,405.4,402.2,405.4z M402.2,300.5c-20.5,0-37.1-16.6-37.1-37.1s16.6-37.1,37.1-37.1
	s37.1,16.6,37.1,37.1S422.6,300.5,402.2,300.5z M402.2,242.3c-11.6,0-21.1,9.5-21.1,21.1s9.5,21.1,21.1,21.1s21.1-9.5,21.1-21.1
	S413.8,242.3,402.2,242.3z M175.6,298.1h-34c-4.4,0-8-3.6-8-8v-26h-26c-4.4,0-8-3.6-8-8v-34c0-4.4,3.6-8,8-8h26v-26c0-4.4,3.6-8,8-8
	h34c4.4,0,8,3.6,8,8v26h26c4.4,0,8,3.6,8,8v34c0,4.4-3.6,8-8,8h-26v26C183.6,294.5,180,298.1,175.6,298.1z M149.6,282.1h18v-26
	c0-4.4,3.6-8,8-8h26v-18h-26c-4.4,0-8-3.6-8-8v-26h-18v26c0,4.4-3.6,8-8,8h-26v18h26c4.4,0,8,3.6,8,8V282.1z M329.1,251.8
	c-20.5,0-37.1-16.6-37.1-37.1c0-20.5,16.6-37.1,37.1-37.1c20.5,0,37.1,16.6,37.1,37.1C366.2,235.2,349.5,251.8,329.1,251.8z
	 M329.1,193.6c-11.6,0-21.1,9.5-21.1,21.1s9.5,21.1,21.1,21.1s21.1-9.5,21.1-21.1S340.7,193.6,329.1,193.6z"></path>
</svg>