<svg version="1.1" id="Layer_1" xmlns="http://www.w3.org/2000/svg" xmlns:xlink="http://www.w3.org/1999/xlink" x="0px" y="0px" viewBox="0 0 512 512" enable-background="new 0 0 512 512" xml:space="preserve">
<g>
	<linearGradient id="SVGID_1_" gradientUnits="userSpaceOnUse" x1="263.2091" y1="442.8721" x2="263.2091" y2="211.6781" class="gradient-element">
		<stop offset="0" class="primary-color-gradient" style="stop-color: #FFA4ED"></stop>
		<stop offset="1" class="secondary-color-gradient" style="stop-color: #DB81DA"></stop>
	</linearGradient>
	<path fill-rule="evenodd" clip-rule="evenodd" fill="url(#SVGID_1_)" d="M406.2,281.2v81.3c0,0-14.6,0-25.4,0
		c-2.2,0-7.2,2.3-14.1,6c-15.9,8.7-41.3,25-62,37.8c-15.1,9.4-27.6,17-31.9,18.3c-6.2,1.9-13.9,4.3-22.3,6.8
		c-39.3,12-96,29-109.6,32c-8.9,2-16.3-4.4-19.4-14.2c-1-3.2-1.4-6.4-1.2-9.3c22.9-6.7,52.1-15.5,75.3-22.5
		c8.4-2.6,16.1-4.9,22.3-6.8c4.3-1.3,16.8-8.9,31.9-18.3c20.6-12.9,46.1-29.2,62-37.8c6.8-3.7,11.9-6,14.1-6
		c10.8,0,5.1-81.3,5.1-81.3c-1.9-3.3-5.4-9.4-11.4-15.2c0.6-0.1,1.2-0.1,1.8-0.2c-22.2,2.3-34,9.1-57.4,9.1h-22.7v-21
		c0-13.2,8.7-24.8,21.3-28.8c2.7-0.9,5.4-1.9,8.3-3.1c0,0-4.1,14.8,27.9,28.8c10.2,4.4,19.1,8.4,26.6,13c0.8,0.5,1.5,0.9,2.2,1.4
		c-0.3,0-0.6,0-0.9,0.1c2.9-0.2,6-0.3,9.4-0.3c32.6,0,45.6,22.5,50,30.1H406.2z M277.5,306.6h-36.4v45.7l27.7-8.6L277.5,306.6z"></path>
	<linearGradient id="SVGID_2_" gradientUnits="userSpaceOnUse" x1="301.2369" y1="142.8666" x2="240.2279" y2="142.8666">
		<stop offset="0" class="primary-color-gradient" style="stop-color: #FFA4ED"></stop>
		<stop offset="1" class="secondary-color-gradient" style="stop-color: #DB81DA"></stop>
	</linearGradient>
	<path fill="url(#SVGID_2_)" d="M240.9,74.1c2.1-1.2,56.6,6.3,56.6,6.3s5.6,33.7,0,81c-3.2,27.3-21.7,41.6-36.6,48.8
		c-9.3,4.5-20-2.4-20-12.7V79.8C240.9,79.8,238.8,75.3,240.9,74.1z"></path>
</g>
<path d="M406.2,310.7c4.4,0,8-3.6,8-8v-21.5c0-4.4-3.6-8-8-8h-15.8c-2.8-4.4-7.2-10.5-13.9-16.1c-11.2-9.3-24.9-14.1-40.7-14.1
	c-8.4,0-15.5,0.6-21.9,1.6c1-3.9-0.9-8-4.7-9.5c-28.5-11.5-35.7-20-37.4-22.9c15.8-11.3,23.8-28.2,27.1-37.5
	c2.1-5.7,3.1-11.7,3.1-17.8l0-82.4c0-2.6-1.3-5.1-3.5-6.6c-2.2-1.5-4.9-1.8-7.4-0.9c-9.4,3.6-18.6,1.3-29.3-1.4
	c-14.7-3.7-31.3-7.8-49.2,4.9c-3.6,2.6-4.5,7.6-1.9,11.2c2.6,3.6,7.5,4.5,11.2,1.9c11.9-8.5,22.6-5.8,36-2.4c8.6,2.1,18,4.5,28,3.4
	l0,72.3c0,4.2-0.7,8.4-2.1,12.3c-5.2,14.2-18.3,38.1-48.5,38.1c-29.7,0-43-22.1-48.3-35.3c-1.7-4.2-2.6-8.7-2.6-13.4l0-76.9
	c0-9.8,5.9-17,10.9-21.3c11.5-9.9,29-14.5,45.8-12c5.9,0.9,11.4,2.4,16.7,3.9c13.4,3.8,27.3,7.7,45.5,0.2c4.1-1.7,6-6.4,4.3-10.5
	c-1.7-4.1-6.4-6-10.5-4.3c-13,5.4-22.8,2.7-35-0.8c-5.8-1.6-11.8-3.3-18.7-4.4c-21.3-3.2-43.7,2.8-58.6,15.7
	c-10.6,9.1-16.5,21-16.5,33.4l0,76.9c0,6.7,1.2,13.2,3.7,19.3c3.3,8.3,11.1,23.4,25.8,33.9c-4.2,5.2-13.4,14.1-30.8,22.4
	c-0.3,0.1-0.6,0.3-0.9,0.5c-3.2,2.1-31.8,20.7-42,33.7c-22.1,28.2-21.1,86.5-21,89c0.1,4.4,3.7,7.8,8,7.8c0.1,0,0.1,0,0.2,0
	c4.4-0.1,7.9-3.7,7.8-8.2c0-0.5-0.9-55,17.7-78.8c7.1-9.1,29.2-24.4,37.6-29.9c22.2-10.7,33.1-22.5,37.8-29
	c6.6,2.4,14.2,3.9,22.9,3.9c8.4,0,15.7-1.4,22.2-3.8c4.1,7.2,14.6,17,40.3,28c-1,0.2-1.9,0.4-2.9,0.7c-9.6,2.3-18.7,4.4-31.3,4.4
	H213c-13.4,0-28.3,12.1-28.3,29.5c0,20.2,12.5,32.2,33.3,32.2H274c0.6,0,1.1,0,1.5,0.1c-0.1,0.2-0.1,0.4-0.2,0.6
	c-0.3,0.9-1,2.4-2.4,4.3c-6.3,8.7-12.5,17-18.5,24.8h-95.8c-16.2,0-29.3,13.1-29.3,29.3c0,0.6,0,1.2,0.1,1.8
	c-14.7,1.7-26,14.2-26,29.1c0,0.7,0,1.4,0.1,2c0.6,9.1,5.3,17.1,12.4,22c-3.9,6.5-4.6,14.6-1.9,23.2c4,12.6,13.2,20.1,23.7,20.1
	c1.7,0,3.4-0.2,5.1-0.6c16.1-3.6,88.4-25.6,110.2-32.2c7.5-2.3,14.3-4.4,20.1-6.1l2.3-0.7c4.5-1.4,13.7-6.6,33.8-19.2
	c4.2-2.6,8.6-5.4,13.1-8.2c17.7-11.1,36-22.6,48.4-29.4c7.3-4,10-4.9,10.6-5h25c4.4,0,8-3.6,8-8v-20.4c0-4.4-3.6-8-8-8s-8,3.6-8,8
	v12.4h-17.4c-3.1,0-7.2,1.2-17.9,7c-12.9,7-31.4,18.6-49.3,29.9c-4.5,2.8-8.9,5.6-13.1,8.2c-17.2,10.7-27.3,16.6-30,17.4l-2.2,0.7
	c-5.8,1.8-12.6,3.9-20,6.1c-44.6,13.6-96.7,29.1-109,31.9c-6.4,1.4-9.4-7.1-10-8.8c-1-3.1-1.7-7.5,0.7-10.7c0.9-1.3,2.3-2.4,4.1-3.3
	c0,0,0.1,0,0.1,0c0.3-0.2,0.7-0.3,1.2-0.5c13.9-5.7,101.7-45.5,105.5-47.2c1-0.5,1.9-1.1,2.7-2c0,0,0,0,0,0c0.1-0.2,0.7-0.8,1.6-1.9
	c0.2-0.2,0.3-0.4,0.5-0.6c2.3-2.7,7-8.3,13.8-16.8c1.6-2,3.3-4.2,5.2-6.6c0,0,0,0,0,0c6.8-8.8,13.9-18.3,21.2-28.3
	c1.9-2.7,3.4-5.4,4.4-8c3-7.9,0.6-13.2-1.1-15.6c-2.1-3.1-6.5-6.7-15.1-6.7h-55.9c-12.2,0-17.3-4.8-17.3-16.2
	c0-8.4,7.9-13.5,12.3-13.5h50.8c14.4,0,24.9-2.5,35-4.8c10.4-2.4,21.1-5,37-5c28,0,38.9,19,43.1,26.1c1.4,2.5,4.1,4,6.9,4h12.3v13.5
	C398.2,307.1,401.7,310.7,406.2,310.7z M158.6,360.3h83.1c-2.7,3.4-4.9,6-6.6,7.9l-25.4,1.7l-64.5,4.4c0-0.2,0-0.5,0-0.7
	C145.3,366.3,151.3,360.3,158.6,360.3z M131.9,391.3c0.5,0,1-0.1,1.5-0.1c0.1,0,0.1,0,0.2,0l0.2,0c0.2,0,0.3,0,0.5,0l1.3-0.1
	c0.2,0,0.3,0,0.5,0l0.2,0c0,0,0.1,0,0.1,0l1.2-0.1c1.4-0.1,2.3-0.2,2.3-0.2l58.5-4c-2.1,1-4.3,1.9-6.4,2.9c-0.1,0.1-0.2,0.1-0.4,0.2
	c-1.3,0.6-2.6,1.2-4,1.8c-0.2,0.1-0.4,0.2-0.6,0.3c-1.9,0.9-3.9,1.7-5.8,2.6c-0.1,0-0.1,0-0.2,0.1c-0.7,0.3-1.3,0.6-2,0.9
	c-0.1,0.1-0.2,0.1-0.3,0.2c-1.9,0.9-3.8,1.7-5.7,2.6c-0.2,0.1-0.4,0.2-0.6,0.3c-0.5,0.2-1,0.4-1.5,0.7c-0.2,0.1-0.5,0.2-0.7,0.3
	c-0.6,0.3-1.1,0.5-1.7,0.8c-0.1,0.1-0.3,0.1-0.4,0.2c-0.6,0.3-1.1,0.5-1.7,0.8c-0.2,0.1-0.5,0.2-0.7,0.3c-1,0.4-2,0.9-2.9,1.3
	c-0.2,0.1-0.4,0.2-0.6,0.3c-0.4,0.2-0.9,0.4-1.3,0.6c-0.3,0.2-0.7,0.3-1,0.5c-0.4,0.2-0.7,0.3-1.1,0.5c-0.5,0.2-0.9,0.4-1.4,0.6
	c-0.3,0.1-0.5,0.2-0.8,0.4c-0.6,0.3-1.2,0.5-1.8,0.8c-0.2,0.1-0.5,0.2-0.7,0.3c-0.5,0.2-1.1,0.5-1.6,0.7c-0.3,0.1-0.5,0.2-0.8,0.4
	c-0.5,0.2-1,0.4-1.5,0.7c-0.2,0.1-0.3,0.2-0.5,0.2c-0.5,0.2-1,0.4-1.5,0.7c-0.2,0.1-0.4,0.2-0.6,0.3c-1.3,0.6-2.6,1.1-3.8,1.7
	c-0.1,0-0.2,0.1-0.3,0.1c-0.5,0.2-1,0.5-1.5,0.7c-0.1,0.1-0.2,0.1-0.4,0.2c-0.5,0.2-1,0.4-1.4,0.6c-0.1,0-0.2,0.1-0.3,0.1
	c-1.1,0.5-2.2,1-3.2,1.4c0,0,0,0-0.1,0c-0.5,0.2-0.9,0.4-1.4,0.6c-0.1,0-0.1,0-0.2,0.1c-1.4,0.6-2.6,1.1-3.7,1.6c0,0,0,0,0,0
	c-0.3,0.1-0.6,0.3-0.9,0.4c0,0-0.1,0-0.1,0.1c-0.3,0.1-0.5,0.2-0.7,0.3c0,0,0,0,0,0c-5.5-1.4-9.6-6.1-10-12c0-0.3,0-0.6,0-0.9
	C119.4,397.6,124.8,391.8,131.9,391.3z"></path>
<path fill="#DB81DA" class="secondary-color" d="M12.9,345.2h21.8V491H12.9V345.2z"></path>
<path d="M469.9,47.3c0-5.7-4.7-10.4-10.4-10.4c-4.4,0-8-3.6-8-8s3.6-8,8-8c14.6,0,26.4,11.8,26.4,26.4S474,73.7,459.5,73.7
	c-4.4,0-8-3.6-8-8s3.6-8,8-8C465.2,57.7,469.9,53,469.9,47.3z M383.3,317.2h50c4.4,0,8-3.6,8-8s-3.6-8-8-8h-50c-4.4,0-8,3.6-8,8
	S378.8,317.2,383.3,317.2z M478.2,328h-89.8c-4.4,0-8,3.6-8,8s3.6,8,8,8h89.8c4.4,0,8-3.6,8-8S482.6,328,478.2,328z M412,396.6
	c-4.4,0-8,3.6-8,8c0,11.4-9.3,20.8-20.8,20.8c-4.4,0-8,3.6-8,8s3.6,8,8,8c20.3,0,36.8-16.5,36.8-36.8
	C420,400.2,416.4,396.6,412,396.6z M462,425.3c-11.4,0-20.8-9.3-20.8-20.8c0-4.4-3.6-8-8-8s-8,3.6-8,8c0,20.3,16.5,36.8,36.8,36.8
	c4.4,0,8-3.6,8-8S466.4,425.3,462,425.3z M462,446.6c-20.3,0-36.8,16.5-36.8,36.8c0,4.4,3.6,8,8,8s8-3.6,8-8
	c0-11.4,9.3-20.8,20.8-20.8c4.4,0,8-3.6,8-8S466.4,446.6,462,446.6z M383.3,446.6c-4.4,0-8,3.6-8,8s3.6,8,8,8
	c11.4,0,20.8,9.3,20.8,20.8c0,4.4,3.6,8,8,8s8-3.6,8-8C420,463.1,403.5,446.6,383.3,446.6z M120.3,40c-7.2,0-13.1,5.9-13.1,13.1
	c0,7.2,5.9,13.1,13.1,13.1s13.1-5.9,13.1-13.1C133.3,45.8,127.5,40,120.3,40z M268.4,493.3c0,5-4.1,9-9,9s-9-4.1-9-9s4.1-9,9-9
	S268.4,488.3,268.4,493.3z M298.4,493.3c0,5-4.1,9-9,9s-9-4.1-9-9s4.1-9,9-9S298.4,488.3,298.4,493.3z M328.4,493.3c0,5-4.1,9-9,9
	s-9-4.1-9-9s4.1-9,9-9S328.4,488.3,328.4,493.3z M87.3,189.7c0,14.6-11.8,26.4-26.4,26.4s-26.4-11.8-26.4-26.4s11.8-26.4,26.4-26.4
	S87.3,175.1,87.3,189.7z M71.3,189.7c0-5.7-4.7-10.4-10.4-10.4c-5.7,0-10.4,4.7-10.4,10.4S55.2,200,60.9,200
	C66.6,200,71.3,195.4,71.3,189.7z M405.7,183.6h3.9v3.9c0,4.4,3.6,8,8,8s8-3.6,8-8v-3.9h3.9c4.4,0,8-3.6,8-8s-3.6-8-8-8h-3.9v-3.9
	c0-4.4-3.6-8-8-8s-8,3.6-8,8v3.9h-3.9c-4.4,0-8,3.6-8,8S401.3,183.6,405.7,183.6z"></path>
</svg>