<svg version="1.1" id="Layer_1" xmlns="http://www.w3.org/2000/svg" xmlns:xlink="http://www.w3.org/1999/xlink" x="0px" y="0px" viewBox="0 0 512 512" enable-background="new 0 0 512 512" xml:space="preserve">
<path d="M485.6,477c0,5-4.1,9-9,9s-9-4.1-9-9s4.1-9,9-9S485.6,472,485.6,477z M446.1,468c-4.9,0-9,4-9,9s4,9,9,9s9-4,9-9
	S451,468,446.1,468z M472.9,455.6c4.6,2,9.9-0.1,11.9-4.6c2-4.6-0.1-9.9-4.6-11.9c-4.6-2-9.9,0.1-11.9,4.7
	C466.3,448.3,468.3,453.6,472.9,455.6z M94.9,71.7H37.5c-4.4,0-8,3.6-8,8s3.6,8,8,8h57.4c4.4,0,8-3.6,8-8S99.3,71.7,94.9,71.7z
	 M153.9,36.3H67c-4.4,0-8,3.6-8,8s3.6,8,8,8h86.8c4.4,0,8-3.6,8-8S158.3,36.3,153.9,36.3z M363,462.6h-86.8c-4.4,0-8,3.6-8,8
	s3.6,8,8,8H363c4.4,0,8-3.6,8-8S367.4,462.6,363,462.6z M334.2,64.2h3.9v3.9c0,4.4,3.6,8,8,8s8-3.6,8-8v-3.9h3.9c4.4,0,8-3.6,8-8
	s-3.6-8-8-8h-3.9v-3.9c0-4.4-3.6-8-8-8s-8,3.6-8,8v3.9h-3.9c-4.4,0-8,3.6-8,8S329.8,64.2,334.2,64.2z"></path>
<g>
	<path fill="#DB81DA" class="secondary-color" d="M55.9,487.5H21.2v-34.7h34.7V487.5z"></path>
	<path fill="#FFA4ED" class="primary-color" d="M493.9,56.2h-34.7V21.5h34.7V56.2z"></path>
	<path fill="#DB81DA" class="secondary-color" d="M441.7,56.2h-34.7V21.5h34.7V56.2z"></path>
</g>
<linearGradient id="SVGID_1_" gradientUnits="userSpaceOnUse" x1="269.6281" y1="369.0111" x2="269.6281" y2="154.1479" class="gradient-element">
	<stop offset="0" class="primary-color-gradient" style="stop-color: #FFA4ED"></stop>
	<stop offset="1" class="secondary-color-gradient" style="stop-color: #DB81DA"></stop>
</linearGradient>
<path fill="url(#SVGID_1_)" d="M387.5,363.8H151.8c-15,0-27.2-12.2-27.2-27.2V190.2c0-15,12.2-27.2,27.2-27.2h235.7
	c15,0,27.2,12.2,27.2,27.2v146.4C414.7,351.7,402.5,363.8,387.5,363.8z"></path>
<path d="M94.3,118.4c0-4.4,3.6-8,8-8h66.9c4.4,0,8,3.6,8,8s-3.6,8-8,8h-66.9C97.8,126.4,94.3,122.8,94.3,118.4z M79.9,311.2
	c-4.4,0-8,3.6-8,8v66.9c0,4.4,3.6,8,8,8s8-3.6,8-8v-66.9C87.9,314.8,84.4,311.2,79.9,311.2z M79.9,132.7c-4.4,0-8,3.6-8,8v66.9
	c0,4.4,3.6,8,8,8s8-3.6,8-8v-66.9C87.9,136.3,84.4,132.7,79.9,132.7z M79.9,221.9c-4.4,0-8,3.6-8,8v66.9c0,4.4,3.6,8,8,8s8-3.6,8-8
	v-66.9C87.9,225.5,84.4,221.9,79.9,221.9z M289.6,243.5c1.6,1.5,3.6,2.3,5.6,2.3c2.1,0,4.1-0.8,5.7-2.4l15.7-15.9
	c3.1-3.1,3.1-8.2-0.1-11.3c-9.3-9.2-20.3-14.2-34.8-16c-4.4-0.5-8.4,2.6-8.9,7c-0.5,4.4,2.6,8.4,7,8.9c7.7,0.9,13.9,3,19.2,6.4
	l-9.5,9.6C286.5,235.4,286.5,240.4,289.6,243.5z M261.6,252c-0.1,4.4,3.4,8.1,7.8,8.2l1.4,0c4.9,0.1,13,0.3,20.3,3.1
	c10,4,15.1,11.5,15.1,22.3c0,18.3-18.7,23.4-26.8,24.7c-4.4,0.7-7.3,4.8-6.6,9.2c0.6,3.9,4,6.7,7.9,6.7c0.4,0,0.9,0,1.3-0.1
	c24.8-4.1,40.2-19.6,40.2-40.5c0-17.3-9.2-30.9-25.3-37.2c-9.9-3.9-20.3-4.1-25.8-4.2l-1.3,0C265.5,244.1,261.7,247.6,261.6,252z
	 M169.2,400.5h-66.9c-4.4,0-8,3.6-8,8s3.6,8,8,8h66.9c4.4,0,8-3.6,8-8S173.6,400.5,169.2,400.5z M146.9,244.3c-4.4,0-8,3.6-8,8v22.3
	c0,4.4,3.6,8,8,8h44.6c4.4,0,8-3.6,8-8s-3.6-8-8-8h-36.6v-14.3C154.9,247.8,151.3,244.3,146.9,244.3z M191.5,126.4h66.9
	c4.4,0,8-3.6,8-8s-3.6-8-8-8h-66.9c-4.4,0-8,3.6-8,8S187.1,126.4,191.5,126.4z M347.7,110.4h-66.9c-4.4,0-8,3.6-8,8s3.6,8,8,8h66.9
	c4.4,0,8-3.6,8-8S352.2,110.4,347.7,110.4z M459.3,221.9c-4.4,0-8,3.6-8,8v66.9c0,4.4,3.6,8,8,8s8-3.6,8-8v-66.9
	C467.3,225.5,463.7,221.9,459.3,221.9z M437,110.4H370c-4.4,0-8,3.6-8,8s3.6,8,8,8H437c4.4,0,8-3.6,8-8S441.4,110.4,437,110.4z
	 M459.3,311.2c-4.4,0-8,3.6-8,8v66.9c0,4.4,3.6,8,8,8s8-3.6,8-8v-66.9C467.3,314.8,463.7,311.2,459.3,311.2z M459.3,132.7
	c-4.4,0-8,3.6-8,8v66.9c0,4.4,3.6,8,8,8s8-3.6,8-8v-66.9C467.3,136.3,463.7,132.7,459.3,132.7z M347.7,400.5h-66.9c-4.4,0-8,3.6-8,8
	s3.6,8,8,8h66.9c4.4,0,8-3.6,8-8S352.2,400.5,347.7,400.5z M258.5,400.5h-66.9c-4.4,0-8,3.6-8,8s3.6,8,8,8h66.9c4.4,0,8-3.6,8-8
	S262.9,400.5,258.5,400.5z M437,400.5H370c-4.4,0-8,3.6-8,8s3.6,8,8,8H437c4.4,0,8-3.6,8-8S441.4,400.5,437,400.5z M277.6,274.4
	c-0.1-4.4-3.7-7.9-8.1-7.9c-5.3,0.1-10.2-0.3-14.4-1.1c-2.5-0.5-4.9-1.2-7-2c-9.9-3.9-15.1-11.6-15.1-22.3
	c0-18.3,18.7-23.4,26.8-24.7c3.9-0.6,6.7-4,6.7-7.9v-23.2c0-4.4-3.6-8-8-8s-8,3.6-8,8v16.8c-20.8,5.6-33.5,20.1-33.5,39
	c0,17.3,9.2,30.9,25.3,37.2c7.3,2.9,15.7,4.3,25.7,4.3c0.6,0,1.2,0,1.8,0C274.2,282.5,277.7,278.9,277.6,274.4z M259.4,310.6
	c-7.7-0.9-13.9-3-19.2-6.4l9.5-9.6c3.1-3.1,3.1-8.2-0.1-11.3c-3.1-3.1-8.2-3.1-11.3,0.1l-15.7,15.9c-3.1,3.1-3.1,8.2,0.1,11.3
	c7.7,7.6,16.7,12.4,27.8,14.8v16.2c0,4.4,3.6,8,8,8s8-3.6,8-8v-22.9C266.5,314.5,263.4,311.1,259.4,310.6z"></path>
</svg>