<svg version="1.1" id="Layer_1" xmlns="http://www.w3.org/2000/svg" xmlns:xlink="http://www.w3.org/1999/xlink" x="0px" y="0px" viewBox="0 0 512 512" enable-background="new 0 0 512 512" xml:space="preserve">
<linearGradient id="SVGID_1_" gradientUnits="userSpaceOnUse" x1="131.7556" y1="349.3" x2="131.7556" y2="265.1695" class="gradient-element">
	<stop offset="0" class="primary-color-gradient" style="stop-color: #FFA4ED"></stop>
	<stop offset="1" class="secondary-color-gradient" style="stop-color: #DB81DA"></stop>
</linearGradient>
<path fill="url(#SVGID_1_)" d="M56.7,295.9c-6.1,4.3-10.6,11-11.8,18.9c-0.3,1.9-0.4,3.8-0.3,5.7l-17.4-2.6
	c-3.1-0.5-5.2-3.4-4.8-6.5l0,0c1.7-11.2,12.1-18.9,23.3-17.2L56.7,295.9z M216.9,277.8l-64.1-9.7l-3.1,20.4
	c-1.8,11.6-12.6,19.6-24.3,17.9l-30.1-4.6c4.6,5.9,6.8,13.6,5.6,21.6c-0.3,1.9-0.8,3.8-1.4,5.5l58.8,8.9c-0.1-1.9,0-3.8,0.2-5.7
	c2.2-14.6,15.9-24.7,30.5-22.5c14.6,2.2,24.7,15.9,22.5,30.5c-0.3,1.9-0.8,3.8-1.5,5.5l19,2.9c3.1,0.5,6-1.7,6.5-4.8l5.1-33.6
	C244,287.9,226.6,279.3,216.9,277.8z"></path>
<linearGradient id="SVGID_2_" gradientUnits="userSpaceOnUse" x1="381.6721" y1="349.3" x2="381.6721" y2="265.1695">
	<stop offset="0" class="primary-color-gradient" style="stop-color: #FFA4ED"></stop>
	<stop offset="1" class="secondary-color-gradient" style="stop-color: #DB81DA"></stop>
</linearGradient>
<path fill="url(#SVGID_2_)" d="M467.6,294.2c11.2-1.7,21.6,6,23.3,17.2v0c0.5,3.1-1.7,6-4.8,6.5l-17.4,2.6c0.1-1.9,0-3.8-0.3-5.7
	c-1.2-7.9-5.6-14.6-11.8-18.9L467.6,294.2z M272.8,310.1l5.1,33.6c0.5,3.1,3.4,5.2,6.5,4.8l19-2.9c-0.7-1.7-1.2-3.6-1.5-5.5
	c-2.2-14.6,7.9-28.3,22.5-30.5c14.6-2.2,28.3,7.9,30.5,22.5c0.3,1.9,0.4,3.8,0.2,5.7l58.8-8.9c-0.6-1.8-1.1-3.6-1.4-5.5
	c-1.2-7.9,1-15.6,5.6-21.6l-30.1,4.6c-11.6,1.8-22.5-6.2-24.3-17.9l-3.1-20.4l-64.1,9.7C286.8,279.3,269.4,287.9,272.8,310.1z"></path>
<path fill="#FFA4ED" class="primary-color" d="M491,403.1V485h-81.9L491,403.1z M24,117.9L105.9,36H24V117.9z"></path>
<path d="M315.6,96.5c0,4.4-3.6,8-8,8h-43c-4.4,0-8-3.6-8-8s3.6-8,8-8h43C312,88.5,315.6,92.1,315.6,96.5z M294,67.9c0-4.4-3.6-8-8-8
	h-73.8c-4.4,0-8,3.6-8,8s3.6,8,8,8H286C290.4,75.9,294,72.3,294,67.9z M56.8,154.1h15.8v15.8c0,4.4,3.6,8,8,8s8-3.6,8-8v-15.8h15.8
	c4.4,0,8-3.6,8-8s-3.6-8-8-8H88.6v-15.8c0-4.4-3.6-8-8-8s-8,3.6-8,8v15.8H56.8c-4.4,0-8,3.6-8,8S52.4,154.1,56.8,154.1z M386.8,59.5
	c-4.4,0-8,3.6-8,8c0,11.4-9.3,20.8-20.8,20.8c-4.4,0-8,3.6-8,8s3.6,8,8,8c20.3,0,36.8-16.5,36.8-36.8
	C394.8,63.1,391.2,59.5,386.8,59.5z M436.8,104.3c4.4,0,8-3.6,8-8s-3.6-8-8-8c-11.4,0-20.8-9.3-20.8-20.8c0-4.4-3.6-8-8-8
	s-8,3.6-8,8C400.1,87.8,416.6,104.3,436.8,104.3z M436.8,109.5c-20.3,0-36.8,16.5-36.8,36.8c0,4.4,3.6,8,8,8s8-3.6,8-8
	c0-11.4,9.3-20.8,20.8-20.8c4.4,0,8-3.6,8-8S441.2,109.5,436.8,109.5z M358.1,109.5c-4.4,0-8,3.6-8,8s3.6,8,8,8
	c11.4,0,20.8,9.3,20.8,20.8c0,4.4,3.6,8,8,8s8-3.6,8-8C394.8,126,378.3,109.5,358.1,109.5z M149.4,406.2h-43c-4.4,0-8,3.6-8,8
	s3.6,8,8,8h43c4.4,0,8-3.6,8-8S153.8,406.2,149.4,406.2z M127.9,436.2H54.1c-4.4,0-8,3.6-8,8s3.6,8,8,8h73.8c4.4,0,8-3.6,8-8
	S132.3,436.2,127.9,436.2z"></path>
<path d="M218.1,269.9l-15.2-2.3l-14.2-30.3c-2.4-5.5-12.3-19.6-31.1-22.5l-24.4-3.7c-0.5-0.2-1.1-0.4-1.6-0.5
	c-0.8-0.1-1.5-0.2-2.3-0.1l-27.7-4.2c-18.9-2.9-30.5,12.5-31.7,14.3l-17.1,24.2l-2.9-0.4c-16.1-2.4-26.7,9-28.5,21l-6.8,44.9
	c-0.5,3.6,0.3,7.2,2.5,10.2c2.2,2.9,5.3,4.9,9,5.4l11.4,1.6c1.1,4.7,3.2,9.2,6.1,13.2c5.8,7.8,14.2,13,23.8,14.4
	c1.8,0.3,3.7,0.4,5.5,0.4c17.7,0,33.2-12.9,35.9-30.9c1.5-9.6-0.9-19.2-6.7-27c-5.8-7.8-14.2-13-23.8-14.4
	c-19-2.9-36.9,9.6-40.9,28.1l-6.7-0.9l6.5-42.5c0.1-0.9,1.6-8.9,10.3-7.6l7.7,1.2c3,0.5,6-0.8,7.7-3.3l19.9-28.2
	c0.1-0.1,6.7-9.2,16.3-7.7l21.5,3.3l-5.5,29l-26.8-4.2c-4.4-0.7-8.5,2.3-9.1,6.7c-0.7,4.4,2.3,8.5,6.7,9.1l34.1,5.3
	c0.4,0.1,0.8,0.1,1.2,0.1c0.6,0,1.2-0.1,1.7-0.2c3.2-0.5,5.9-3,6.6-6.4l7-37l18.8,2.9c13.2,2,18.5,12.4,18.9,13.2c0,0,0,0.1,0.1,0.1
	l9.7,20.7l-32-4.9c-4.4-0.7-8.4,2.3-9.1,6.7c-0.7,4.4,2.3,8.4,6.7,9.1l42.1,6.4c0.4,0.1,0.8,0.1,1.2,0.1c0.4,0,0.8,0,1.2-0.1
	c0.7,0.3,1.5,0.6,2.2,0.7l19.4,2.9c3.5,0.5,8.6,2.4,12.4,6.1c4.3,4.2,5.8,9.8,4.7,17l-4.8,31.3l-8.2-1.4c0.6-8.3-1.7-16.5-6.7-23.3
	c-5.5-7.5-13.6-12.4-22.8-13.8c-9.2-1.4-18.3,0.9-25.8,6.4c-6.8,5-11.5,12.2-13.3,20.4l-27.8-4.5c-4.4-0.7-8.5,2.2-9.2,6.6
	c-0.7,4.4,2.2,8.5,6.6,9.2l30.7,5c3.4,13.1,14.3,23.6,28.5,25.7c0,0,0,0,0,0c1.8,0.3,3.5,0.4,5.2,0.4c12.3,0,23.5-6.6,29.7-16.7
	l12.9,2.3c0.1,0,0.1,0,0.2,0c0.7,0.1,1.4,0.2,2.1,0.2c6.6,0,12.5-4.9,13.5-11.6l5.1-33.6c2.4-15.5-3.7-25.3-9.3-30.8
	C233.8,275,225.9,271.1,218.1,269.9z M52.8,316c1.5-10.1,10.2-17.3,20.1-17.3c1,0,2,0.1,3.1,0.2c5.3,0.8,10.1,3.7,13.3,8.1
	c3.2,4.4,4.6,9.8,3.8,15.1c-1.7,11.1-12.1,18.8-23.2,17.1c-5.3-0.8-10.1-3.7-13.3-8.1C53.4,326.7,52,321.3,52.8,316z M196.2,351.2
	c-4.1,3-9,4.2-13.9,3.5h0c-10.2-1.6-17.3-11.2-15.8-21.4c1.6-10.2,11.1-17.3,21.4-15.8c10.2,1.6,17.3,11.2,15.8,21.4
	C202.9,343.8,200.3,348.2,196.2,351.2z M498.8,310.2l-6.8-44.9c-0.9-5.7-3.7-11.2-7.9-15c-5.4-5-12.7-7.1-20.6-5.9l-2.9,0.4
	l-17.1-24.2c-1.3-1.8-12.8-17.1-31.7-14.3l-27.7,4.2c-0.7-0.1-1.5,0-2.3,0.1c-0.6,0.1-1.1,0.3-1.6,0.5l-24.4,3.7
	c-18.8,2.9-28.7,17-31.1,22.5l-14.2,30.3l-15.2,2.3c-7.8,1.2-15.7,5.1-21.2,10.6c-5.5,5.5-11.6,15.3-9.3,30.8l5.1,33.6
	c1,6.8,6.9,11.6,13.5,11.6c0.7,0,1.4-0.1,2.1-0.2c0.1,0,0.1,0,0.2,0l12.9-2.3c2.3,3.8,5.4,7.2,9.1,9.9c6.1,4.5,13.2,6.8,20.6,6.8
	c1.7,0,3.5-0.1,5.3-0.4c0,0,0,0,0,0c9.2-1.4,17.2-6.3,22.8-13.8c2.7-3.7,4.6-7.7,5.7-12l30.7-5c4.4-0.7,7.3-4.8,6.6-9.2
	c-0.7-4.4-4.8-7.3-9.2-6.6l-27.8,4.5c-3.9-17.7-21-29.6-39.2-26.8c-18.1,2.8-30.8,19.1-29.5,37.1l-8.2,1.4l-4.8-31.3
	c-1.1-7.2,0.4-12.8,4.7-17c3.7-3.7,8.8-5.6,12.4-6.1l19.4-2.9c0.8-0.1,1.5-0.4,2.2-0.7c0.4,0.1,0.8,0.1,1.2,0.1c0.4,0,0.8,0,1.2-0.1
	l42.1-6.4c4.4-0.7,7.4-4.7,6.7-9.1c-0.7-4.4-4.7-7.4-9.1-6.7l-32,4.9l9.7-20.7c0,0,0-0.1,0.1-0.1c0.4-0.8,5.7-11.2,18.9-13.2
	l18.8-2.9l7,37c0.6,3.4,3.3,5.9,6.6,6.4c0.6,0.1,1.1,0.2,1.7,0.2c0.4,0,0.8,0,1.2-0.1l34.1-5.3c4.4-0.7,7.4-4.8,6.7-9.1
	c-0.7-4.4-4.8-7.3-9.1-6.7l-26.8,4.2l-5.5-29l21.5-3.3c9.6-1.5,16,7.3,16.2,7.7l19.9,28.2c1.7,2.5,4.7,3.8,7.7,3.3l7.7-1.2
	c3.1-0.5,5.5,0.1,7.3,1.8c1.8,1.7,2.7,4.1,3,5.7l6.5,42.5l-6.7,0.9c-4.1-18.5-21.9-31-40.9-28.1c-9.6,1.5-18,6.6-23.8,14.4
	c-5.8,7.8-8.1,17.4-6.7,27c2.7,18,18.3,30.9,35.9,30.9c1.8,0,3.6-0.1,5.5-0.4c9.6-1.5,18-6.6,23.8-14.4c3-4,5-8.5,6.1-13.2l11.5-1.6
	c3.6-0.5,6.8-2.5,9-5.4C498.5,317.4,499.4,313.8,498.8,310.2z M325.5,317.5c0.9-0.1,1.9-0.2,2.8-0.2c4,0,7.8,1.3,11.1,3.7
	c4.1,3,6.7,7.3,7.5,12.3c1.6,10.2-5.5,19.8-15.8,21.4c-10.3,1.6-19.8-5.5-21.4-15.8C308.2,328.6,315.3,319,325.5,317.5z
	 M456.8,331.1c-3.2,4.4-8,7.3-13.3,8.1c-11.1,1.7-21.5-6-23.2-17.1c-0.8-5.3,0.5-10.7,3.8-15.1c3.2-4.4,8-7.3,13.3-8.1
	c11.1-1.7,21.5,6,23.2,17.1C461.4,321.3,460.1,326.7,456.8,331.1z M264,185v46c0,4.4-3.6,8-8,8s-8-3.6-8-8v-46c0-4.4,3.6-8,8-8
	S264,180.6,264,185z M195.4,223.7c-3.2-3.1-3.2-8.1-0.2-11.3c3.1-3.2,8.1-3.2,11.3-0.2l34,33c3.2,3.1,3.2,8.1,0.2,11.3
	c-1.6,1.6-3.7,2.4-5.7,2.4c-2,0-4-0.8-5.6-2.3L195.4,223.7z M273.3,256.6c-3.1-3.2-3-8.2,0.2-11.3l34-33c3.2-3.1,8.2-3,11.3,0.2
	c3.1,3.2,3,8.2-0.2,11.3l-34,33c-1.6,1.5-3.6,2.3-5.6,2.3C276.9,259,274.8,258.2,273.3,256.6z"></path>
</svg>