<svg version="1.1" id="Layer_1" xmlns="http://www.w3.org/2000/svg" xmlns:xlink="http://www.w3.org/1999/xlink" x="0px" y="0px" viewBox="0 0 512 512" enable-background="new 0 0 512 512" xml:space="preserve">
<linearGradient id="SVGID_1_" gradientUnits="userSpaceOnUse" x1="310.3775" y1="414.8269" x2="310.3775" y2="86.9705" class="gradient-element">
	<stop offset="0" class="primary-color-gradient" style="stop-color: #FFA4ED"></stop>
	<stop offset="1" class="secondary-color-gradient" style="stop-color: #DB81DA"></stop>
</linearGradient>
<path fill="url(#SVGID_1_)" d="M422.7,249.3c-0.1,89.8-74,162.9-163.8,162.2c-15.1-0.1-29.6-2.3-43.4-6.2
	c-15.5-4.4-22.6-22.8-13.5-36.1c28.5-42,139.3-22.5,139.3-120.8c0-110.2-83.2-78.8-105.7-122.1c-9.4-18.1,4-39.8,24.3-39.8
	c0.1,0,0.2,0,0.3,0C350.1,86.5,422.9,159.4,422.7,249.3z"></path>
<path fill="#DB81DA" class="secondary-color" d="M473.5,110.2l-75.8-75.8h75.8V110.2z"></path>
<path d="M466.6,460.1c0,4.4-3.6,8-8,8h-3.9v3.9c0,4.4-3.6,8-8,8s-8-3.6-8-8v-3.9h-3.9c-4.4,0-8-3.6-8-8s3.6-8,8-8h3.9v-3.9
	c0-4.4,3.6-8,8-8s8,3.6,8,8v3.9h3.9C463,452.1,466.6,455.7,466.6,460.1z M115.7,261.4H56.5c-4.4,0-8,3.6-8,8s3.6,8,8,8h59.2
	c4.4,0,8-3.6,8-8S120.1,261.4,115.7,261.4z M133.2,231.3H27.4c-4.4,0-8,3.6-8,8s3.6,8,8,8h105.9c4.4,0,8-3.6,8-8
	S137.6,231.3,133.2,231.3z M72.9,57.3h59.2c4.4,0,8-3.6,8-8s-3.6-8-8-8H72.9c-4.4,0-8,3.6-8,8S68.5,57.3,72.9,57.3z M250.1,458.1
	h-59.2c-4.4,0-8,3.6-8,8s3.6,8,8,8h59.2c4.4,0,8-3.6,8-8S254.5,458.1,250.1,458.1z"></path>
<path d="M262,82.1c-42.7,0-83.5,16-114.8,45.1c-31.1,28.9-50.1,68.1-53.4,110.3c-0.3,4.4,2.9,8.3,7.3,8.6c4.4,0.3,8.3-2.9,8.6-7.3
	c2.8-34.9,17.4-66.5,39.8-90.8l36.7,36.7c2.2,2.2,5.4,2.9,8.3,1.9c2.9-1,5-3.5,5.3-6.6c0.5-3.6,2.1-6.9,4.7-9.5
	c3.1-3.1,7.2-4.8,11.6-4.8c4.4,0,8.5,1.7,11.6,4.8c6.4,6.4,6.4,16.8,0,23.1c-2.6,2.6-5.9,4.2-9.5,4.7c-3,0.4-5.6,2.5-6.6,5.3
	c-1,2.9-0.2,6.1,1.9,8.3l38.2,38.2l-29.4,29.4c-1.2-1.9-2.7-3.7-4.4-5.4c-12.6-12.6-33.1-12.6-45.8,0c-12.6,12.6-12.6,33.1,0,45.8
	c1.7,1.7,3.5,3.1,5.4,4.4l-29,29c-20.5-22.7-34.3-51.7-38.1-84c-0.5-4.4-4.5-7.5-8.9-7c-4.4,0.5-7.5,4.5-7,8.9
	c10.1,84.8,82.1,148.7,167.6,148.7c93.1,0,168.8-75.7,168.8-168.8C430.7,157.8,355,82.1,262,82.1z M375.5,353l-37.7-37.7
	c-2.2-2.2-5.4-2.9-8.3-1.9c-2.9,1-5,3.5-5.3,6.6c-0.5,3.6-2.1,6.9-4.7,9.5c-3.1,3.1-7.2,4.8-11.6,4.8c-4.4,0-8.5-1.7-11.6-4.8
	c-6.4-6.4-6.4-16.8,0-23.1c2.6-2.6,5.9-4.2,9.5-4.7c3-0.4,5.6-2.5,6.6-5.3c1-2.9,0.2-6.1-1.9-8.3l-38.2-38.2l29.4-29.4
	c1.2,1.9,2.7,3.7,4.4,5.4c12.6,12.6,33.1,12.6,45.8,0c12.6-12.6,12.6-33.1,0-45.8c-1.7-1.7-3.5-3.1-5.4-4.4l28.1-28.1
	c24.9,27.2,40.2,63.4,40.2,103.1C414.7,290.1,399.9,326,375.5,353z M238.9,159.1c-6.1-6.1-14.2-9.5-22.9-9.5
	c-8.6,0-16.8,3.4-22.9,9.5c-1.7,1.7-3.1,3.5-4.4,5.4l-27.9-27.9c27.1-24,62.6-38.5,101.1-38.5c38.8,0,74.2,14.5,101.2,38.4
	l-36.7,36.7c-2.2,2.2-2.9,5.4-1.9,8.3c1,2.9,3.5,5,6.6,5.3c3.6,0.5,6.9,2.1,9.5,4.7c6.4,6.4,6.4,16.8,0,23.1
	c-6.4,6.4-16.8,6.4-23.1,0c-2.6-2.6-4.2-5.9-4.7-9.5c-0.4-3-2.5-5.6-5.3-6.6c-2.9-1-6.1-0.2-8.3,1.9L262,237.7l-28.5-28.5
	c1.9-1.2,3.7-2.7,5.4-4.4C251.5,192.2,251.5,171.7,238.9,159.1z M159.8,364.4l37.8-37.8c2.2-2.2,2.9-5.4,1.9-8.3
	c-1-2.9-3.5-5-6.6-5.3c-3.6-0.5-6.9-2.1-9.5-4.7c-6.4-6.4-6.4-16.8,0-23.1c6.4-6.4,16.8-6.4,23.1,0c2.6,2.6,4.2,5.9,4.7,9.5
	c0.4,3,2.5,5.6,5.3,6.6c2.9,1,6.1,0.2,8.3-1.9l37.2-37.2l28.5,28.5c-1.9,1.2-3.7,2.7-5.4,4.4c-12.6,12.6-12.6,33.1,0,45.8
	c6.1,6.1,14.2,9.5,22.9,9.5s16.8-3.4,22.9-9.5c1.7-1.7,3.1-3.5,4.4-5.4l29,29c-27.1,24.4-62.9,39.3-102.2,39.3
	C222.9,403.6,187,388.9,159.8,364.4z"></path>
</svg>