<svg version="1.1" id="Layer_1" xmlns="http://www.w3.org/2000/svg" xmlns:xlink="http://www.w3.org/1999/xlink" x="0px" y="0px" viewBox="0 0 512 512" enable-background="new 0 0 512 512" xml:space="preserve">
<linearGradient id="SVGID_1_" gradientUnits="userSpaceOnUse" x1="256.3989" y1="400.0506" x2="256.3989" y2="111.2879" class="gradient-element">
	<stop offset="0" class="primary-color-gradient" style="stop-color: #FFA4ED"></stop>
	<stop offset="1" class="secondary-color-gradient" style="stop-color: #DB81DA"></stop>
</linearGradient>
<path fill="url(#SVGID_1_)" d="M355.9,346c-0.1,9.8-7.6,18.1-18.2,21.4v31.6h28.6c1.3,0.4,2.7,0.6,4.2,0.6H411v-35.2c0,0,0,0,0,0
	V331h-55.1V346z M355.9,289.9h13.6c-3.8,0-7.3,1.6-9.8,4.1H411v-73.3h-55.1V289.9z M408,113.2h-11.5c-22.4,0-40.5,14.7-40.5,32.9
	v37.5H411v-68C411,114.3,409.7,113.2,408,113.2z M219.7,369.5v29.6h73.3v-29.6H219.7z M101.8,398.2v0.9h73.3v-29.6h-44.7
	C114.6,369.5,101.8,382.3,101.8,398.2z"></path>
<path d="M175.1,190.4h-73.3c-3.7,0-6.7-3-6.7-6.7v-73.3c0-3.7,3-6.7,6.7-6.7h73.3c3.7,0,6.7,3,6.7,6.7v73.3
	C181.8,187.4,178.8,190.4,175.1,190.4z M108.5,176.9h59.9V117h-59.9V176.9z M293.1,190.4h-73.3c-3.7,0-6.7-3-6.7-6.7v-73.3
	c0-3.7,3-6.7,6.7-6.7h73.3c3.7,0,6.7,3,6.7,6.7v73.3C299.8,187.4,296.8,190.4,293.1,190.4z M226.5,176.9h59.9V117h-59.9V176.9z
	 M411,190.4h-73.3c-3.7,0-6.7-3-6.7-6.7v-73.3c0-3.7,3-6.7,6.7-6.7H411c3.7,0,6.7,3,6.7,6.7v73.3C417.8,187.4,414.8,190.4,411,190.4
	z M344.4,176.9h59.9V117h-59.9V176.9z M181.8,294v-73.3c0-3.7-3-6.7-6.7-6.7h-73.3c-3.7,0-6.7,3-6.7,6.7V239c0,3.7,3,6.7,6.7,6.7
	s6.7-3,6.7-6.7v-11.6h59.9v59.9h-59.9v-21c0-3.7-3-6.7-6.7-6.7s-6.7,3-6.7,6.7V294c0,3.7,3,6.7,6.7,6.7h73.3
	C178.8,300.8,181.8,297.7,181.8,294z M293.1,300.8h-73.3c-3.7,0-6.7-3-6.7-6.7v-73.3c0-3.7,3-6.7,6.7-6.7h73.3c3.7,0,6.7,3,6.7,6.7
	V294C299.8,297.7,296.8,300.8,293.1,300.8z M226.5,287.3h59.9v-59.9h-59.9V287.3z M411,300.8h-73.3c-3.7,0-6.7-3-6.7-6.7v-73.3
	c0-3.7,3-6.7,6.7-6.7H411c3.7,0,6.7,3,6.7,6.7V294C417.8,297.7,414.8,300.8,411,300.8z M344.4,287.3h59.9v-59.9h-59.9V287.3z
	 M175.1,411.1h-73.3c-3.7,0-6.7-3-6.7-6.7V331c0-3.7,3-6.7,6.7-6.7h73.3c3.7,0,6.7,3,6.7,6.7v73.3
	C181.8,408.1,178.8,411.1,175.1,411.1z M108.5,397.6h59.9v-59.9h-59.9V397.6z M293.1,411.1h-73.3c-3.7,0-6.7-3-6.7-6.7V331
	c0-3.7,3-6.7,6.7-6.7h73.3c3.7,0,6.7,3,6.7,6.7v73.3C299.8,408.1,296.8,411.1,293.1,411.1z M226.5,397.6h59.9v-59.9h-59.9V397.6z
	 M411,411.1h-73.3c-3.7,0-6.7-3-6.7-6.7V331c0-3.7,3-6.7,6.7-6.7H411c3.7,0,6.7,3,6.7,6.7v73.3C417.8,408.1,414.8,411.1,411,411.1z
	 M344.4,397.6h59.9v-59.9h-59.9V397.6z"></path>
<path fill="#DB81DA" class="secondary-color" d="M472.8,112.2l-75.8-75.8h75.8V112.2z"></path>
<path d="M465.8,462.1c0,4.4-3.6,8-8,8h-3.9v3.9c0,4.4-3.6,8-8,8s-8-3.6-8-8v-3.9H434c-4.4,0-8-3.6-8-8s3.6-8,8-8h3.9v-3.9
	c0-4.4,3.6-8,8-8s8,3.6,8,8v3.9h3.9C462.2,454.1,465.8,457.7,465.8,462.1z M114.9,258.3H55.7c-4.4,0-8,3.6-8,8s3.6,8,8,8h59.2
	c4.4,0,8-3.6,8-8S119.3,258.3,114.9,258.3z M132.5,233.3H26.6c-4.4,0-8,3.6-8,8s3.6,8,8,8h105.9c4.4,0,8-3.6,8-8
	S136.9,233.3,132.5,233.3z M72.2,59.3h59.2c4.4,0,8-3.6,8-8s-3.6-8-8-8H72.2c-4.4,0-8,3.6-8,8S67.7,59.3,72.2,59.3z M249.3,460.1
	h-59.2c-4.4,0-8,3.6-8,8s3.6,8,8,8h59.2c4.4,0,8-3.6,8-8S253.8,460.1,249.3,460.1z"></path>
</svg>