<svg version="1.1" id="Layer_1" xmlns="http://www.w3.org/2000/svg" xmlns:xlink="http://www.w3.org/1999/xlink" x="0px" y="0px" viewBox="0 0 512 512" enable-background="new 0 0 512 512" xml:space="preserve">
<linearGradient id="SVGID_1_" gradientUnits="userSpaceOnUse" x1="259.7448" y1="406.7135" x2="259.7448" y2="104.9196" class="gradient-element">
	<stop offset="0" class="primary-color-gradient" style="stop-color: #FFA4ED"></stop>
	<stop offset="1" class="secondary-color-gradient" style="stop-color: #DB81DA"></stop>
</linearGradient>
<path fill="url(#SVGID_1_)" d="M491.6,146.3v16.1h-74.1l-0.6-28.7c0-28.8,15.6-36.9,44.4-36.9c6.2,0,13.8,9.3,19.8,20.1
	C487.2,127.7,491.6,140.1,491.6,146.3z M420.5,313.4c0,28.8-23.3,52.1-52.1,52.1H71.8c-25.7,0-42.9-1.6-42.9,24.1
	c0,1.7-4.3,3,4.7,11.9c8.6,8.7,20.6,14.1,33.9,14.1h351c40.4,0,73.1-32.7,73.1-73.1V219.4h-31.3c-22.8,0-41.2,18.7-40.8,41.6
	L420.5,313.4z"></path>
<path d="M438.5,422.9H73c-31.3,0-56.7-25.5-56.7-56.7V146.8c0-31.3,25.5-56.7,56.7-56.7h365.5c31.3,0,56.7,25.5,56.7,56.7v21.6
	c0,4.4-3.6,8-8,8H74.4v32h412.9c4.4,0,8,3.6,8,8s-3.6,8-8,8H66.4c-4.4,0-8-3.6-8-8v-48c0-4.4,3.6-8,8-8h412.9v-13.6
	c0-22.5-18.3-40.7-40.7-40.7H73c-22.5,0-40.7,18.3-40.7,40.7v219.3c0,22.5,18.3,40.7,40.7,40.7h365.5c22.5,0,40.7-18.3,40.7-40.7
	V249.9c0-4.4,3.6-8,8-8s8,3.6,8,8v116.2C495.2,397.4,469.8,422.9,438.5,422.9z M414.1,325.4h-97.5c-4.4,0-8-3.6-8-8s3.6-8,8-8h97.5
	c4.4,0,8,3.6,8,8S418.6,325.4,414.1,325.4z M278,325.4h-57.5c-4.4,0-8-3.6-8-8s3.6-8,8-8H278c4.4,0,8,3.6,8,8S282.4,325.4,278,325.4
	z"></path>
<g>
	<path fill="#DB81DA" class="secondary-color" d="M473.1,462.6v23.2h-22.5v-23.2H473.1z M360.7,485.7h22.5v-23.2h-22.5V485.7z"></path>
	<path fill="#FFA4ED" class="primary-color" d="M427.7,462.6v23.2h-21.6v-23.2H427.7z M316.3,485.7h21.6v-23.2h-21.6V485.7z"></path>
</g>
<path d="M109,467.2c0,4.4-3.6,8-8,8H41.8c-4.4,0-8-3.6-8-8s3.6-8,8-8H101C105.4,459.2,109,462.8,109,467.2z M487.2,37.2h-175
	c-4.4,0-8,3.6-8,8s3.6,8,8,8h175c4.4,0,8-3.6,8-8S491.7,37.2,487.2,37.2z M55.4,69.2h3.9v3.9c0,4.4,3.6,8,8,8s8-3.6,8-8v-3.9h3.9
	c4.4,0,8-3.6,8-8s-3.6-8-8-8h-3.9v-3.9c0-4.4-3.6-8-8-8s-8,3.6-8,8v3.9h-3.9c-4.4,0-8,3.6-8,8S51,69.2,55.4,69.2z"></path>
</svg>