<svg version="1.1" id="Layer_1" xmlns="http://www.w3.org/2000/svg" xmlns:xlink="http://www.w3.org/1999/xlink" x="0px" y="0px" viewBox="0 0 512 512" enable-background="new 0 0 512 512" xml:space="preserve">
<linearGradient id="SVGID_1_" gradientUnits="userSpaceOnUse" x1="251.3358" y1="396.8794" x2="251.3358" y2="116.6072" class="gradient-element">
	<stop offset="0" class="primary-color-gradient" style="stop-color: #FFA4ED"></stop>
	<stop offset="1" class="secondary-color-gradient" style="stop-color: #DB81DA"></stop>
</linearGradient>
<path fill="url(#SVGID_1_)" d="M400.6,110.5v119.6h-62.8v-84.9c0-20.7,20.7-37.5,46.2-37.5h13.1C399,107.7,400.6,109,400.6,110.5z
	 M102.1,396.8v1h125v-33.7h-92.4C116.7,364.2,102.1,378.8,102.1,396.8z M370,273.5h-16.7c-8.6,0-15.5,6.9-15.5,15.5v48.4
	c-0.1,14.5-14.5,26.2-32.4,26.2c-2.2,0-4.3,0.2-6.3,0.5h-11.8c-6.7,0-12.1,5.4-12.1,12.1v9c-0.2,1-0.2,2-0.2,3.1v8.9h0.2v0.6h74.3
	c1.5,0.4,3.1,0.7,4.7,0.7h46.3v-1.3v-38.8c0,0,0,0,0,0v-84.9h0H370z"></path>
<path d="M226.7,237.6H103.1c-3.8,0-6.9-3.1-6.9-6.9V107.1c0-3.8,3.1-6.9,6.9-6.9h123.6c3.8,0,6.9,3.1,6.9,6.9v123.6
	C233.6,234.5,230.5,237.6,226.7,237.6z M109.9,223.8h109.9V114H109.9V223.8z M400.6,237.6H276.9c-3.8,0-6.9-3.1-6.9-6.9V107.1
	c0-3.8,3.1-6.9,6.9-6.9h123.6c3.8,0,6.9,3.1,6.9,6.9v123.6C407.4,234.5,404.4,237.6,400.6,237.6z M283.8,223.8h109.9V114H283.8
	V223.8z M226.7,405.4H103.1c-3.8,0-6.9-3.1-6.9-6.9V274.8c0-3.8,3.1-6.9,6.9-6.9h123.6c3.8,0,6.9,3.1,6.9,6.9v123.6
	C233.6,402.3,230.5,405.4,226.7,405.4z M109.9,391.6h109.9V281.7H109.9V391.6z M400.6,405.4H276.9c-3.8,0-6.9-3.1-6.9-6.9V274.8
	c0-3.8,3.1-6.9,6.9-6.9h123.6c3.8,0,6.9,3.1,6.9,6.9v123.6C407.4,402.3,404.4,405.4,400.6,405.4z M283.8,391.6h109.9V281.7H283.8
	V391.6z"></path>
<path fill="#000000" d="M441.9,76.2c0-4.4,3.6-8,8-8h3.9v-3.9c0-4.4,3.6-8,8-8s8,3.6,8,8v3.9h3.9c4.4,0,8,3.6,8,8s-3.6,8-8,8h-3.9
	v3.9c0,4.4-3.6,8-8,8s-8-3.6-8-8v-3.9h-3.9C445.5,84.2,441.9,80.6,441.9,76.2z M461.8,365.9c-4.4,0-8,3.6-8,8s3.6,8,8,8h19.7
	c4.4,0,8-3.6,8-8s-3.6-8-8-8H461.8z M479.2,470.3H420c-4.4,0-8,3.6-8,8s3.6,8,8,8h59.2c4.4,0,8-3.6,8-8S483.6,470.3,479.2,470.3z
	 M457.2,438.3c0-4.4-3.6-8-8-8H321.9c-4.4,0-8,3.6-8,8s3.6,8,8,8h127.3C453.6,446.3,457.2,442.7,457.2,438.3z M130.9,185.5H71.7
	c-4.4,0-8,3.6-8,8s3.6,8,8,8h59.2c4.4,0,8-3.6,8-8S135.3,185.5,130.9,185.5z M79.7,154c0-4.4-3.6-8-8-8H12.5c-4.4,0-8,3.6-8,8
	s3.6,8,8,8h59.2C76.1,162,79.7,158.5,79.7,154z M60.4,71.9c4.2-4.2,4.2-11,0-15.2c-4.2-4.2-11-4.2-15.2,0c-4.2,4.2-4.2,11,0,15.2
	S56.3,76.1,60.4,71.9z"></path>
</svg>