<svg version="1.1" id="Layer_1" xmlns="http://www.w3.org/2000/svg" xmlns:xlink="http://www.w3.org/1999/xlink" x="0px" y="0px" viewBox="0 0 512 512" enable-background="new 0 0 512 512" xml:space="preserve">
<linearGradient id="SVGID_1_" gradientUnits="userSpaceOnUse" x1="267.0987" y1="398.6909" x2="267.0987" y2="164.7461" class="gradient-element">
	<stop offset="0" class="primary-color-gradient" style="stop-color: #FFA4ED"></stop>
	<stop offset="1" class="secondary-color-gradient" style="stop-color: #DB81DA"></stop>
</linearGradient>
<path fill="url(#SVGID_1_)" d="M275.6,280.8c-8.8-8.8-8.8-23.1,0-31.9l53.6-53.6c6.1-6.1,0.6-11.6,0.5-11.6l-9.4-9.4
	c-3.6-3.6-3.6-9.5,0-13.2l6.1-6.1c3.6-3.6,9.5-3.6,13.2,0l34.1,34.1c2.1,2.1,3,5,2.6,7.7l2.9,2.9l-73.2,73.2l77.1,77.1L364,369.3
	l-1-1l-28.9,28.9l-38-38l22.9-22.9c5-5.1,1.8-9.9,0.7-11.1L278,283.3l0.1-0.1L275.6,280.8z M157.3,369.3l24.6,24.6l81.2-81.2
	l-3.7-3.7c-13-13-34.2-13-47.2,0l-47.3,47.3c-1.2,1-6.1,4.4-11.3-0.8c-6.1-6.1,0.3,13.1,0.7,13.5
	C154.4,369.2,155.7,369.3,157.3,369.3z"></path>
<path d="M196.5,174.1c-3.1-3.1-3.1-8.2,0-11.3c3.1-3.1,8.2-3.1,11.3,0l48.7,48.7l70.7-70.7c3.1-3.1,8.2-3.1,11.3,0l47.4,47.4
	c1.5,1.5,2.3,3.5,2.3,5.7c0,2.1-0.8,4.2-2.3,5.7l-70.7,70.7L360,315c3.1,3.1,3.1,8.2,0,11.3c-1.6,1.6-3.6,2.3-5.7,2.3
	c-2,0-4.1-0.8-5.7-2.3l-50.5-50.5c-1.5-1.5-2.3-3.5-2.3-5.7s0.8-4.2,2.3-5.7l70.7-70.7l-36-36l-70.7,70.7c-1.5,1.5-3.5,2.3-5.7,2.3
	s-4.2-0.8-5.7-2.3L196.5,174.1z M385.9,340.8c-3.1-3.1-8.2-3.1-11.3,0l-41.7,41.7l-70.7-70.7c-1.5-1.5-3.5-2.3-5.7-2.3
	s-4.2,0.8-5.7,2.3l-70.7,70.7l-36-36l70.7-70.7c1.5-1.5,2.3-3.5,2.3-5.7s-0.8-4.2-2.3-5.7l-70.7-70.7l41.7-41.7
	c3.1-3.1,3.1-8.2,0-11.3c-3.1-3.1-8.2-3.1-11.3,0l-47.3,47.4c-3.1,3.1-3.1,8.2,0,11.3l70.7,70.7l-70.7,70.7c-3.1,3.1-3.1,8.2,0,11.3
	l47.3,47.4c1.5,1.5,3.5,2.3,5.7,2.3s4.2-0.8,5.7-2.3l70.7-70.7l70.7,70.7c1.5,1.5,3.5,2.3,5.7,2.3s4.2-0.8,5.7-2.3l47.4-47.4
	C389,349,389,344,385.9,340.8z"></path>
<g>
	<path fill="#FFA4ED" class="primary-color" d="M479.6,127.5v116.4l-58.2-58.2L479.6,127.5z M175.6,60.6h57.8V17h-57.8V60.6z"></path>
	<path fill="#DB81DA" class="secondary-color" d="M18.2,481.9h60.6v14.6H18.2V481.9z M41.2,17v43.6h115.6V17H41.2z"></path>
</g>
<path d="M56.2,136.8H40.4c-4.4,0-8-3.6-8-8s3.6-8,8-8h15.8V105c0-4.4,3.6-8,8-8s8,3.6,8,8v15.8h15.8c4.4,0,8,3.6,8,8s-3.6,8-8,8
	H72.2v15.8c0,4.4-3.6,8-8,8s-8-3.6-8-8V136.8z M483.2,331.6h-15.8v-15.8c0-4.4-3.6-8-8-8s-8,3.6-8,8v15.8h-15.8c-4.4,0-8,3.6-8,8
	s3.6,8,8,8h15.8v15.8c0,4.4,3.6,8,8,8s8-3.6,8-8v-15.8h15.8c4.4,0,8-3.6,8-8S487.6,331.6,483.2,331.6z M430.3,46
	c0-14.6,11.8-26.4,26.4-26.4s26.4,11.8,26.4,26.4s-11.8,26.4-26.4,26.4S430.3,60.6,430.3,46z M446.3,46c0,5.7,4.7,10.4,10.4,10.4
	s10.4-4.7,10.4-10.4c0-5.7-4.7-10.4-10.4-10.4S446.3,40.3,446.3,46z M115.9,250c0-4.4-3.6-8-8-8H48.5c-4.4,0-8,3.6-8,8s3.6,8,8,8
	h59.5C112.4,258,115.9,254.5,115.9,250z M149.2,415.5H70.6c-4.4,0-8,3.6-8,8s3.6,8,8,8h78.6c4.4,0,8-3.6,8-8
	S153.6,415.5,149.2,415.5z M155.6,282h-45.7c-4.4,0-8,3.6-8,8s3.6,8,8,8h45.7c4.4,0,8-3.6,8-8S160.1,282,155.6,282z M378.4,304.1
	h59.5c4.4,0,8-3.6,8-8s-3.6-8-8-8h-59.5c-4.4,0-8,3.6-8,8S374,304.1,378.4,304.1z M383.8,312.6h-59.5c-4.4,0-8,3.6-8,8s3.6,8,8,8
	h59.5c4.4,0,8-3.6,8-8S388.2,312.6,383.8,312.6z M464.8,457.5c-5.9,0-10.8,4.8-10.8,10.8c0,5.9,4.8,10.8,10.8,10.8
	c5.9,0,10.8-4.8,10.8-10.8C475.5,462.3,470.7,457.5,464.8,457.5z M416.8,457.5c-5.9,0-10.8,4.8-10.8,10.8c0,5.9,4.8,10.8,10.8,10.8
	c5.9,0,10.8-4.8,10.8-10.8C427.5,462.3,422.7,457.5,416.8,457.5z M364.8,457.5c-5.9,0-10.8,4.8-10.8,10.8c0,5.9,4.8,10.8,10.8,10.8
	c5.9,0,10.8-4.8,10.8-10.8C375.5,462.3,370.7,457.5,364.8,457.5z M371.6,78.8c0-4.4-3.6-8-8-8H285c-4.4,0-8,3.6-8,8s3.6,8,8,8h78.6
	C368,86.8,371.6,83.2,371.6,78.8z"></path>
</svg>