<svg version="1.1" id="Layer_1" xmlns="http://www.w3.org/2000/svg" xmlns:xlink="http://www.w3.org/1999/xlink" x="0px" y="0px" viewBox="0 0 512 512" enable-background="new 0 0 512 512" xml:space="preserve">
<g>
	<path fill="#FFA4ED" class="primary-color" d="M449.4,27.5h16.4v16.4h-16.4V27.5z"></path>
	<path fill="#DB81DA" class="secondary-color" d="M378.5,95h16.4v16.4h-16.4V95z M418.9,65.9v49h43v-49H418.9z"></path>
	<path fill="#DB81DA" class="secondary-color" d="M480.4,27.5h16.4v114.4h-16.4V27.5z M440.4,316.5v44.6h41.3v-44.6H440.4z M481.6,426.5v-44.6h-41.3v44.6
		H481.6z"></path>
</g>
<path d="M154.5,469.6c0,4.4-3.6,8-8,8H45.4c-4.4,0-8-3.6-8-8s3.6-8,8-8h101.1C150.9,461.6,154.5,465.2,154.5,469.6z M73.4,358.9v3.9
	h-3.9c-4.4,0-8,3.6-8,8s3.6,8,8,8h3.9v3.9c0,4.4,3.6,8,8,8s8-3.6,8-8v-3.9h3.9c4.4,0,8-3.6,8-8s-3.6-8-8-8h-3.9v-3.9
	c0-4.4-3.6-8-8-8S73.4,354.5,73.4,358.9z M373.9,43.3c0-4.4-3.6-8-8-8h-43c-4.4,0-8,3.6-8,8s3.6,8,8,8h43
	C370.3,51.3,373.9,47.8,373.9,43.3z M39,141.4c0,4.4,3.6,8,8,8s8-3.6,8-8v-15.8h15.8c4.4,0,8-3.6,8-8s-3.6-8-8-8H55V93.8
	c0-4.4-3.6-8-8-8s-8,3.6-8,8v15.8H23.2c-4.4,0-8,3.6-8,8s3.6,8,8,8H39V141.4z M37.1,43.3c0-5.5,4.4-9.9,9.9-9.9s9.9,4.4,9.9,9.9
	s-4.4,9.9-9.9,9.9S37.1,48.8,37.1,43.3z M92.4,43.3c0-5.5,4.4-9.9,9.9-9.9c5.5,0,9.9,4.4,9.9,9.9s-4.4,9.9-9.9,9.9
	C96.9,53.2,92.4,48.8,92.4,43.3z M167.6,43.3c0,5.5-4.4,9.9-9.9,9.9s-9.9-4.4-9.9-9.9s4.4-9.9,9.9-9.9S167.6,37.9,167.6,43.3z
	 M482.5,448.5h-43c-4.4,0-8,3.6-8,8s3.6,8,8,8h43c4.4,0,8-3.6,8-8S486.9,448.5,482.5,448.5z M455,478.5h-93c-4.4,0-8,3.6-8,8
	s3.6,8,8,8h93c4.4,0,8-3.6,8-8S459.4,478.5,455,478.5z"></path>
<linearGradient id="SVGID_1_" gradientUnits="userSpaceOnUse" x1="152.0654" y1="303.8179" x2="402.4646" y2="303.8179" class="gradient-element">
	<stop offset="0" class="primary-color-gradient" style="stop-color: #FFA4ED"></stop>
	<stop offset="1" class="secondary-color-gradient" style="stop-color: #DB81DA"></stop>
</linearGradient>
<path fill="url(#SVGID_1_)" d="M402.5,315.4L336,385.6c-7.6-7.2-13.5-12.8-16.8-15.9c-24-22.8-44.2-31.9-70.6-31.9
	c-8.7,0-16.7,1-24.3,3.1c-20.3,5.6-42.1-0.5-56.6-15.8l0,0c-28.3-29.9-16.6-78.9,22.1-92.9c18.4-6.6,38.2-10.2,58.8-10.2
	C315.5,222,373.5,259.9,402.5,315.4z"></path>
<path d="M260.2,450c-2.9,0-5.6-1.5-7.1-4.2l-12.3-23.2c-2.1-3.9-0.6-8.7,3.3-10.8c3.9-2.1,8.7-0.6,10.8,3.3l8.6,16.1l6.3-3.4
	l-8.6-16.1c-1.3-2.5-1.2-5.6,0.3-8c1.5-2.4,2.3-5.2,2.3-8c0-8.1-6.6-14.9-14.6-15.1c-2.9-0.1-5.4-1.7-6.8-4.2l-46.7-87.6l-13.4,7.1
	c-3.9,2.1-8.7,0.6-10.8-3.3s-0.6-8.7,3.3-10.8l20.4-10.9c3.9-2.1,8.7-0.6,10.8,3.3l48.5,91c14.5,2.7,25.3,15.4,25.3,30.6
	c0,4.2-0.8,8.3-2.5,12.2l10.4,19.5c1,1.9,1.2,4.1,0.6,6.1c-0.6,2-2,3.7-3.9,4.7L263.9,449C262.7,449.6,261.4,450,260.2,450z
	 M336,393.6c-2,0-4-0.7-5.5-2.2c-3.2-3-3.3-8.1-0.3-11.3l128-135.2l-1.8-2.4c-48.5-65.8-126.2-105-207.9-105
	c-81.6,0-159.3,39.3-207.9,105l-1.8,2.4L167,380.1c3,3.2,2.9,8.3-0.3,11.3c-3.2,3-8.3,2.9-11.3-0.3L22.7,251
	c-2.7-2.8-2.9-7.1-0.6-10.3l5.8-7.8c51.5-69.8,134.1-111.5,220.8-111.5c86.7,0,169.2,41.7,220.7,111.5l5.8,7.8
	c2.3,3.1,2,7.4-0.6,10.3L341.8,391.1C340.2,392.8,338.1,393.6,336,393.6z M140.4,225.2c-2.9,0-5.6-1.5-7.1-4.2l-16.1-30.3
	c-2.1-3.9-0.6-8.7,3.3-10.8c3.9-2.1,8.7-0.6,10.8,3.3l16.1,30.3c2.1,3.9,0.6,8.7-3.3,10.8C143,224.9,141.7,225.2,140.4,225.2z
	 M336.3,214.3c-1.3,0-2.6-0.3-3.8-0.9c-3.9-2.1-5.4-6.9-3.3-10.8l16.1-30.3c2.1-3.9,6.9-5.4,10.8-3.3c3.9,2.1,5.4,6.9,3.3,10.8
	l-16.1,30.3C341.9,212.8,339.2,214.3,336.3,214.3z M237,195.3c-4.4,0-8-3.6-8-8v-34.4c0-4.4,3.6-8,8-8s8,3.6,8,8v34.4
	C245,191.7,241.4,195.3,237,195.3z"></path>
</svg>