<svg version="1.1" id="Layer_1" xmlns="http://www.w3.org/2000/svg" xmlns:xlink="http://www.w3.org/1999/xlink" x="0px" y="0px" viewBox="0 0 512 512" enable-background="new 0 0 512 512" xml:space="preserve">
<linearGradient id="SVGID_1_" gradientUnits="userSpaceOnUse" x1="99.2515" y1="282.3497" x2="408.2476" y2="282.3497" class="gradient-element">
	<stop offset="0" class="primary-color-gradient" style="stop-color: #FFA4ED"></stop>
	<stop offset="1" class="secondary-color-gradient" style="stop-color: #DB81DA"></stop>
</linearGradient>
<path fill="url(#SVGID_1_)" d="M256.4,448.3l-99.8-10.5c-15.9,0-30.2-6.4-40.6-16.8c-10.3-10.2-16.7-24.4-16.8-40.1
	c-0.3-31.9,26.6-42.3,58.4-42.3l98.9,2.4c34.4,0,62.4-50.1,62.4-84.5v-78.3c0-34.4,27.9-51.4,62.4-51.4l26.9-11v268.7
	c0,27.2-22,49.2-49.2,63.9H256.4z M256.4,448.9"></path>
<path d="M256.4,456.9c-57.1,0-94.1-8.4-115.2-15.5c-16.4-5.5-43.8-17.3-43.8-34.5V113.6c0-1.3,0.3-2.4,0.8-3.5
	c-0.5-1.6-0.8-3.3-0.8-5.1c0-17.2,27.4-29,43.8-34.5c21-7.1,58.1-15.5,115.2-15.5c57.1,0,94.1,8.4,115.2,15.5
	C388,76,415.4,87.8,415.4,105s-27.4,29-43.8,34.5c-21,7.1-58.1,15.5-115.2,15.5c-57.1,0-94.1-8.4-115.2-15.5
	c-8.1-2.7-18.9-7-27.8-12.7v78.9c0.3,1.8,7.5,11,35.2,19.9c19.9,6.4,54.7,14,107.8,14c53,0,87.9-7.6,107.8-14
	c27.5-8.9,34.8-18,35.2-19.9v-58.7c0-4.4,3.6-8,8-8s8,3.6,8,8v159.5c0,0.1,0,0.1,0,0.2c-0.4,17-28.1,28.7-44.5,34.2
	c-21.1,7-58.1,15.4-114.4,15.4c-56.3,0-93.3-8.4-114.4-15.4c-8.3-2.8-19.5-7.1-28.5-12.9v79c0.2,1.7,7.2,10.9,34.5,19.8
	c19.8,6.4,54.7,14.1,108.5,14.1s88.7-7.7,108.5-14.1c27.3-8.9,34.2-18.1,34.5-19.9l0-58.7c0-4.4,3.6-8,8-8s8,3.6,8,8V407
	c0,17.2-27.4,29-43.8,34.5C350.6,448.5,313.5,456.9,256.4,456.9z M113.5,306.3c0.3,1.8,7.5,11,35.2,19.9c19.9,6.4,54.7,14,107.8,14
	c53,0,87.9-7.6,107.8-14c27.5-8.9,34.8-18,35.2-19.9v-79c-9.1,5.8-20.2,10.2-28.5,12.9c-21.1,7-58.1,15.4-114.4,15.4
	c-56.3,0-93.3-8.4-114.4-15.4c-8.3-2.8-19.5-7.1-28.5-12.9V306.3z M113.5,105c0.4,1.9,7.5,11,34.5,19.8
	c19.8,6.4,54.7,14.1,108.5,14.1s88.7-7.7,108.5-14.1c27-8.8,34.1-17.9,34.5-19.8c-0.4-1.9-7.5-11-34.5-19.8
	c-19.8-6.4-54.7-14.1-108.5-14.1S167.8,78.7,148,85.2C121,94,113.9,103.1,113.5,105z"></path>
<path fill="#000000" d="M463.9,252.6c0,4.4-3.6,8-8,8h-43c-4.4,0-8-3.6-8-8s3.6-8,8-8h43C460.3,244.6,463.9,248.2,463.9,252.6z
	 M434.4,274.6h-73.8c-4.4,0-8,3.6-8,8s3.6,8,8,8h73.8c4.4,0,8-3.6,8-8S438.8,274.6,434.4,274.6z M483.5,53h-15.8V37.2
	c0-4.4-3.6-8-8-8s-8,3.6-8,8V53H436c-4.4,0-8,3.6-8,8s3.6,8,8,8h15.8v15.8c0,4.4,3.6,8,8,8s8-3.6,8-8V69h15.8c4.4,0,8-3.6,8-8
	S487.9,53,483.5,53z M54.8,64h-3.9v-3.9c0-4.4-3.6-8-8-8s-8,3.6-8,8V64H31c-4.4,0-8,3.6-8,8s3.6,8,8,8h3.9v3.9c0,4.4,3.6,8,8,8
	s8-3.6,8-8V80h3.9c4.4,0,8-3.6,8-8S59.2,64,54.8,64z M50.2,203.2c-5.9,0-10.8,4.8-10.8,10.8s4.8,10.8,10.8,10.8s10.8-4.8,10.8-10.8
	S56.1,203.2,50.2,203.2z M50.2,273.2c-5.9,0-10.8,4.8-10.8,10.8s4.8,10.8,10.8,10.8s10.8-4.8,10.8-10.8S56.1,273.2,50.2,273.2z
	 M50.2,334.2c-5.9,0-10.8,4.8-10.8,10.8s4.8,10.8,10.8,10.8s10.8-4.8,10.8-10.8S56.1,334.2,50.2,334.2z"></path>
<path fill="#FFA4ED" class="primary-color" d="M458.4,429.2v-34.7H493v34.7H458.4z M493,481.4v-34.7h-34.7v34.7H493z M439.7,481.4v-34.7h-34.7v34.7H439.7z
	"></path>
</svg>