<svg version="1.1" id="Layer_1" xmlns="http://www.w3.org/2000/svg" xmlns:xlink="http://www.w3.org/1999/xlink" x="0px" y="0px" viewBox="0 0 512 512" enable-background="new 0 0 512 512" xml:space="preserve">
<linearGradient id="SVGID_1_" gradientUnits="userSpaceOnUse" x1="276.0491" y1="288.92" x2="276.0491" y2="243.2621" class="gradient-element">
	<stop offset="0" class="primary-color-gradient" style="stop-color: #FFA4ED"></stop>
	<stop offset="1" class="secondary-color-gradient" style="stop-color: #DB81DA"></stop>
</linearGradient>
<path fill="url(#SVGID_1_)" d="M423.3,237.3v44.3c0,4.9-4.6,8.8-10.2,8.8H132c-5.7,0-2.2-8.9-2.3-13.7c0-4.9,4.6-4.9,10.2-4.9h211.7
	c9.7,0,10.2-7.9,10.2-12.7v-1.5c0-11.1,10.5-20.2,23.5-20.2h27.6C418.8,237.3,423.3,232.5,423.3,237.3z"></path>
<path d="M423.3,305.7H128c-5.2,0-9.4-4.2-9.4-9.4V232c0-5.2,4.2-9.4,9.4-9.4h295.4c5.2,0,9.4,4.2,9.4,9.4s-4.2,9.4-9.4,9.4h-286V287
	H414v-22.8c0-5.2,4.2-9.4,9.4-9.4s9.4,4.2,9.4,9.4v32.2C432.7,301.5,428.5,305.7,423.3,305.7z"></path>
<g>
	<path fill="#DB81DA" class="secondary-color" d="M174.5,487.3H24.1v-25.7h150.4V487.3z"></path>
	<path fill="#FFA4ED" class="primary-color" d="M251.3,486.8h-46.3v-21.6h46.3V486.8z"></path>
</g>
<path d="M154.7,405.8c0,4.4-3.6,8-8,8h-93c-4.4,0-8-3.6-8-8s3.6-8,8-8h93C151.1,397.8,154.7,401.3,154.7,405.8z M134,81.6h57.4
	c4.4,0,8-3.6,8-8s-3.6-8-8-8H134c-4.4,0-8,3.6-8,8S129.6,81.6,134,81.6z M233.5,352.9h-86.8c-4.4,0-8,3.6-8,8s3.6,8,8,8h86.8
	c4.4,0,8-3.6,8-8S237.9,352.9,233.5,352.9z M398.9,190.5h57.4c4.4,0,8-3.6,8-8s-3.6-8-8-8h-57.4c-4.4,0-8,3.6-8,8
	S394.5,190.5,398.9,190.5z M332.5,424.8c-3.5,3.5-3.5,9.3,0,12.8s9.3,3.5,12.8,0s3.5-9.3,0-12.8S336,421.2,332.5,424.8z M354,446.3
	c-3.5,3.5-3.5,9.2,0,12.7c3.5,3.5,9.2,3.5,12.7,0c3.5-3.5,3.5-9.2,0-12.7S357.5,442.8,354,446.3z M311.5,445.7
	c-3.5,3.5-3.5,9.3,0,12.8s9.3,3.5,12.8,0s3.5-9.3,0-12.8S315,442.2,311.5,445.7z M457.6,122.1c4.4,0,8-3.6,8-8s-3.6-8-8-8
	c-5.7,0-10.4-4.7-10.4-10.4s4.7-10.4,10.4-10.4c4.4,0,8-3.6,8-8s-3.6-8-8-8c-14.6,0-26.4,11.8-26.4,26.4S443.1,122.1,457.6,122.1z
	 M61.2,173.6h3.9v3.9c0,4.4,3.6,8,8,8s8-3.6,8-8v-3.9H85c4.4,0,8-3.6,8-8s-3.6-8-8-8h-3.9v-3.9c0-4.4-3.6-8-8-8s-8,3.6-8,8v3.9h-3.9
	c-4.4,0-8,3.6-8,8S56.8,173.6,61.2,173.6z M472.8,392.6l-10-10c-22.1-22.1-51.4-34.3-82.4-34.3c-4.4,0-8,3.6-8,8s3.6,8,8,8
	c26.8,0,52,10.5,71.1,29.6l10,10c1.6,1.6,3.6,2.3,5.7,2.3s4.1-0.8,5.7-2.3C475.9,400.8,475.9,395.7,472.8,392.6z M33.1,25
	c-4.9,0-9,4-9,9s4,9,9,9s9-4,9-9S38,25,33.1,25z"></path>
</svg>