<svg version="1.1" id="Layer_1" xmlns="http://www.w3.org/2000/svg" xmlns:xlink="http://www.w3.org/1999/xlink" x="0px" y="0px" viewBox="0 0 512 512" enable-background="new 0 0 512 512" xml:space="preserve">
<linearGradient id="SVGID_1_" gradientUnits="userSpaceOnUse" x1="323.4984" y1="436.7377" x2="323.4984" y2="79.0114" class="gradient-element">
	<stop offset="0" class="primary-color-gradient" style="stop-color: #FFA4ED"></stop>
	<stop offset="1" class="secondary-color-gradient" style="stop-color: #DB81DA"></stop>
</linearGradient>
<path fill="url(#SVGID_1_)" d="M406.6,169.4c0,32.7-16.8,62.7-44.3,79.8v169.3c0,18.3-14.9,33.2-33.2,33.2c-8.3,0-18-5.7-20.8-7.5
	c-2.6-1.8-56.7-39.5-56.7-103.3c0-8.2-6-11.1-11.1-11.1V109.1c17.7-21.1,44-33.9,72-33.9C364.3,75.2,406.6,117.5,406.6,169.4z"></path>
<path d="M329,459.2c-9.9,0-20.6-6-24.8-8.6c-0.1-0.1-0.2-0.1-0.2-0.2c-2.4-1.7-60-41.8-60-109.4c0-4.1,3.3-7.4,7.4-7.4
	s7.4,3.3,7.4,7.4c0,59,49.9,94.6,53.4,97c4.9,3,11.8,6.3,16.7,6.3c14.2,0,25.8-11.6,25.8-25.8V249.2c0-2.6,1.3-5,3.5-6.3
	c25.5-15.9,40.8-43.4,40.8-73.5c0-47.8-38.9-86.7-86.7-86.7c-25.6,0-49.7,11.3-66.3,30.9c-1.4,1.7-3.5,2.6-5.7,2.6c0,0,0,0,0,0
	c-2.2,0-4.3-1-5.7-2.6C218.2,94,194,82.7,168.5,82.7c-47.8,0-86.7,38.9-86.7,86.7c0,8.3,1.2,16.5,3.5,24.4c2.3,7.8,5.6,15.2,10,22
	c6.9,10.8,16.3,20.2,27.3,27c2.2,1.4,3.5,3.7,3.5,6.3v169.3c0,14.2,11.6,25.8,25.8,25.8c5,0,12-3.3,17-6.5c3.4-2.4,53-37.9,53-96.8
	c0-4.1,3.3-7.4,7.4-7.4s7.4,3.3,7.4,7.4c0,67.4-57.2,107.5-59.6,109.2c-0.1,0.1-0.2,0.1-0.2,0.2c-5.2,3.3-15.4,8.9-25.1,8.9
	c-22.4,0-40.7-18.2-40.7-40.7V253.2c-11.3-7.7-21.1-17.8-28.5-29.4c-5.1-8-9.1-16.7-11.7-25.9c-2.7-9.3-4.1-18.9-4.1-28.6
	c0-56,45.6-101.6,101.6-101.6c27.2,0,52.9,10.8,72,30c19-19.2,44.8-30,72-30c56,0,101.6,45.6,101.6,101.6
	c0,33.9-16.5,64.9-44.3,83.9v165.3C369.7,441,351.5,459.2,329,459.2z"></path>
<g>
	<path fill="#DB81DA" class="secondary-color" d="M29.4,412.8H14.8v-60.6h14.6V412.8z M29.4,262.9H14.8v60.6h14.6V262.9z M29.4,484.7v-46H14.8v46v14.6h14.6
		h46v-14.6H29.4z"></path>
	<path fill="#DB81DA" class="secondary-color" d="M508.2,245.3L450,187.1l58.2-58.2V245.3z"></path>
</g>
<path d="M344.6,42.1c0-4.4,3.6-8,8-8h15.8V18.3c0-4.4,3.6-8,8-8s8,3.6,8,8v15.8h15.8c4.4,0,8,3.6,8,8s-3.6,8-8,8h-15.8v15.8
	c0,4.4-3.6,8-8,8s-8-3.6-8-8V50.1h-15.8C348.2,50.1,344.6,46.5,344.6,42.1z M488,440.1h-15.8v-15.8c0-4.4-3.6-8-8-8s-8,3.6-8,8v15.8
	h-15.8c-4.4,0-8,3.6-8,8s3.6,8,8,8h15.8v15.8c0,4.4,3.6,8,8,8s8-3.6,8-8v-15.8H488c4.4,0,8-3.6,8-8S492.4,440.1,488,440.1z
	 M509,65.8c0,14.6-11.8,26.4-26.4,26.4s-26.4-11.8-26.4-26.4s11.8-26.4,26.4-26.4S509,51.3,509,65.8z M493,65.8
	c0-5.7-4.7-10.4-10.4-10.4s-10.4,4.7-10.4,10.4s4.7,10.4,10.4,10.4S493,71.6,493,65.8z M141,34.1H81.6c-4.4,0-8,3.6-8,8s3.6,8,8,8
	H141c4.4,0,8-3.6,8-8S145.4,34.1,141,34.1z M439.8,340.5c0-4.4-3.6-8-8-8h-43c-4.4,0-8,3.6-8,8s3.6,8,8,8h43
	C436.2,348.5,439.8,345,439.8,340.5z M260.3,470.2h-73.8c-4.4,0-8,3.6-8,8s3.6,8,8,8h73.8c4.4,0,8-3.6,8-8S264.7,470.2,260.3,470.2z
	 M410.3,362.5h-73.8c-4.4,0-8,3.6-8,8s3.6,8,8,8h73.8c4.4,0,8-3.6,8-8S414.7,362.5,410.3,362.5z"></path>
</svg>