<svg version="1.1" id="Layer_1" xmlns="http://www.w3.org/2000/svg" xmlns:xlink="http://www.w3.org/1999/xlink" x="0px" y="0px" viewBox="0 0 512 512" enable-background="new 0 0 512 512" xml:space="preserve">
<linearGradient id="SVGID_1_" gradientUnits="userSpaceOnUse" x1="191.5992" y1="314.8969" x2="432.0289" y2="314.8969" class="gradient-element">
	<stop offset="0" class="primary-color-gradient" style="stop-color: #FFA4ED"></stop>
	<stop offset="1" class="secondary-color-gradient" style="stop-color: #DB81DA"></stop>
</linearGradient>
<path fill="url(#SVGID_1_)" d="M402.7,145.1c-36.5,0-66.4,30.6-69.6,69.7v105.2c0,36.6-29.6,66.2-66.2,66.2h-11.8
	c-19.8,0-38.6,9.8-49.3,26.4c-8.9,13.8-14.1,30.7-14.1,48.9v23.1H432V145.1H402.7z M386.2,321.5h0.3v45c0,3.4-2.8,6.1-6.1,6.1h-8.9
	c-3.4,0-6.2-2.8-6.2-6.1v-45.3c-2.4-1.7-4.3-3.9-5.6-6.4c-1.4-2.6-2.1-5.5-2.1-8.6c0-10.2,8.2-18.4,18.4-18.4
	c10.2,0,18.4,8.2,18.4,18.4C394.3,312.6,391.1,318.2,386.2,321.5z"></path>
<path d="M462.8,44.3c0,4.4-3.6,8-8,8h-3.9v3.9c0,4.4-3.6,8-8,8s-8-3.6-8-8v-3.9H431c-4.4,0-8-3.6-8-8s3.6-8,8-8h3.9v-3.9
	c0-4.4,3.6-8,8-8s8,3.6,8,8v3.9h3.9C459.2,36.3,462.8,39.8,462.8,44.3z M161.8,31.3H36.3c-4.4,0-8,3.6-8,8s3.6,8,8,8h125.5
	c4.4,0,8-3.6,8-8S166.2,31.3,161.8,31.3z"></path>
<path d="M440,484.7c0,4.4-3.6,8-8,8H131.4c-26.3,0-47.7-23.9-47.7-53.4v-295c0-29.4,21.4-53.4,47.7-53.4H432c4.4,0,8,3.6,8,8
	s-3.6,8-8,8H131.4c-17.5,0-31.7,16.8-31.7,37.4v295c0,20.6,14.2,37.4,31.7,37.4h29V169.8c0-4.4,3.6-8,8-8s8,3.6,8,8v306.9H432
	C436.5,476.7,440,480.2,440,484.7z M432,137.1H137c-4.4,0-8,3.6-8,8s3.6,8,8,8h287V456c0,4.4,3.6,8,8,8s8-3.6,8-8V145.1
	C440,140.7,436.5,137.1,432,137.1z M357.3,366.6V325c-4.9-4.9-7.8-11.6-7.8-18.7c0-14.6,11.8-26.4,26.4-26.4s26.4,11.8,26.4,26.4
	c0,7.1-2.8,13.8-7.8,18.7v41.6c0,7.8-6.3,14.2-14.2,14.2h-8.9C363.6,380.7,357.3,374.4,357.3,366.6z M365.5,306.3
	c0,3.3,1.6,6.5,4.3,8.4c2.1,1.4,3.5,3.9,3.5,6.6v43.4h5.2v-40.9c-1-3.4,0.3-7,3.2-8.9c2.9-1.9,4.6-5.2,4.6-8.6
	c0-5.7-4.7-10.4-10.4-10.4S365.5,300.5,365.5,306.3z"></path>
</svg>