<svg version="1.1" id="Layer_1" xmlns="http://www.w3.org/2000/svg" xmlns:xlink="http://www.w3.org/1999/xlink" x="0px" y="0px" viewBox="0 0 512 512" enable-background="new 0 0 512 512" xml:space="preserve">
<linearGradient id="SVGID_1_" gradientUnits="userSpaceOnUse" x1="283.5951" y1="452.1339" x2="283.5951" y2="102.0805" class="gradient-element">
	<stop offset="0" class="primary-color-gradient" style="stop-color: #FFA4ED"></stop>
	<stop offset="1" class="secondary-color-gradient" style="stop-color: #DB81DA"></stop>
</linearGradient>
<path fill-rule="evenodd" clip-rule="evenodd" fill="url(#SVGID_1_)" d="M329.8,199.8v-90.5c0-7.3,7.9-11.8,14.2-8.2
	c13.6,7.9,32.1,28.2,31,79.9c0,0-8.5,8.3-22.6,2.5C338.3,177.6,329.8,199.8,329.8,199.8z M418.7,153.3c14,5.8,22.6-2.5,22.6-2.5
	c1.1-51.7-17.3-72-31-79.9c-6.3-3.7-14.2,0.9-14.2,8.2v71.8C396.1,150.8,404.6,147.5,418.7,153.3z M353.8,286.5
	c-11.7,0-25,4.2-35.2,9.5c16.7,10.8,29.1,30.9,29.1,61.7c0,39.4-24.1,53.3-65.8,64.1c10.3,2.7,54.8,7.6,66.8,10.3
	c48.1,11.1,66.8-25.3,66.8-74.4C415.6,308.6,383.7,286.5,353.8,286.5z M158.1,278.3c-12.3,0-26.3,4.4-37,10
	c17.5,11.3,30.7,32.6,30.7,64.9c0,41.5-25.3,74.3-69.3,85.7c10.8,2.8,22.7,4.3,35.7,4.3c65.6,0,105-38.3,105-90
	C223.1,301.5,189.6,278.3,158.1,278.3z M432.5,160.5c0.2,0.6,0.3,1.1,0.3,1.7c0,6.4-3.5,10.8-39.3,86.5h52
	c35.9-75.7,39.3-80.1,39.3-86.5C484.8,151.7,451.2,143.8,432.5,160.5z"></path>
<path d="M97.9,408.3c0.9,4.3-1.9,8.5-6.3,9.4c-2.1,0.4-4.1,0.6-6.2,0.6c-10.6,0-20.7-4.9-25.6-8.3c-18.6-13-28.4-32.6-28.4-56.7
	c0-28.1,16.8-58,48-58c4.4,0,8,3.6,8,8s-3.6,8-8,8c-23.3,0-32,25.8-32,42c0,18.6,7.5,33.7,21.6,43.6c3.9,2.7,12.6,6.5,19.4,5.2
	C92.9,401.1,97.1,403.9,97.9,408.3z M159.4,295.3c-4.4,0-8,3.6-8,8s3.6,8,8,8c23.3,0,32,25.8,32,42c0,18.6-7.5,33.7-21.6,43.6
	c-3.9,2.7-12.6,6.5-19.4,5.2c-4.3-0.9-8.5,1.9-9.4,6.3c-0.9,4.3,1.9,8.5,6.3,9.4c2.1,0.4,4.1,0.6,6.2,0.6c10.6,0,20.7-4.9,25.6-8.3
	c18.6-13,28.4-32.7,28.4-56.7C207.4,325.1,190.6,295.3,159.4,295.3z M82.6,375c-4.1,4.1-4.1,10.9,0,15c4.1,4.1,10.9,4.1,15,0
	c4.1-4.1,4.1-10.9,0-15S86.7,370.9,82.6,375z M82.6,323.5c-4.1,4.1-4.1,10.9,0,15c4.1,4.1,10.9,4.1,15,0c4.1-4.1,4.1-10.9,0-15
	S86.7,319.4,82.6,323.5z M60.1,349.3c-4.1,4.1-4.1,10.9,0,15s10.9,4.1,15,0c4.1-4.1,4.1-10.9,0-15C71,345.1,64.2,345.1,60.1,349.3z
	 M160.2,338.5c4.1-4.1,4.1-10.9,0-15c-4.1-4.1-10.9-4.1-15,0s-4.1,10.9,0,15C149.4,342.7,156.1,342.7,160.2,338.5z M160.2,390
	c4.1-4.1,4.1-10.9,0-15c-4.1-4.1-10.9-4.1-15,0s-4.1,10.9,0,15C149.4,394.2,156.1,394.2,160.2,390z M182.7,364.3
	c4.1-4.1,4.1-10.9,0-15c-4.1-4.1-10.9-4.1-15,0c-4.1,4.1-4.1,10.9,0,15S178.6,368.4,182.7,364.3z M379.1,295.8
	c0.1-0.1,0.3-0.2,0.4-0.3c4.2,1.4,8,3.7,11.3,7.1c11,11,15.3,29.9,17,43.9c0.5,4.4,4.5,7.5,8.9,7c4.4-0.5,7.5-4.5,7-8.9
	c-2-16.5-7.4-39.1-21.6-53.3c-8.5-8.5-19.1-13-31.3-13.2c0,0-0.1,0-0.1,0l-1.5,0c-21.9,0.2-80.8,9.6-137.1,21.9
	c-4.3,0.9-7,5.2-6.1,9.5c0.9,4.3,5.2,7,9.5,6.1c27.2-6,55.6-11.3,79.7-15.2c-7,12.6-15.3,33.6-15.3,59.5c0,4.4,3.6,8,8,8
	c0,0,0,0,0,0c4.4,0,8-3.6,8-8c0.1-31.3,13.9-54.3,18.7-59.9c0.7-0.8,1.2-1.8,1.5-2.7c8.9-1.2,16.7-2.1,23.1-2.7
	c-8.6,12.4-18.4,34.1-18.4,65.2c0,15.5,2.1,29.2,6.3,40.6c1.2,3.2,4.3,5.2,7.5,5.2c0.9,0,1.9-0.2,2.8-0.5c4.1-1.5,6.3-6.1,4.7-10.3
	c-3.5-9.6-5.3-21.4-5.3-35C356.8,319.9,375.4,298.4,379.1,295.8z M501.1,348.9c-11,16.7-29.6,26-49.9,24.8l-13.2,0
	c-4.2,0-9.1,0-14.2,0c-0.8,6.6-2.2,15.4-4.8,24.2c-11.4,38.1-35.5,43.8-48.9,43.8c0,0-0.1,0-0.1,0c-22.6,0-95.5-11.4-159.6-26.8
	c-2.6,3.1-5.5,6-8.5,8.7c-20.3,18.1-48.8,27.6-82.4,27.6c-33.6,0-62.1-9.5-82.4-27.6c-19.7-17.5-30.6-42.5-30.6-70.3
	c0-26,7.9-47.6,22.7-62.5c11.8-11.8,27.4-18.9,44.4-20.2l-18.6-32.1c-1.8-3.1-1.3-7.1,1.3-9.7c2.6-2.6,6.5-3.1,9.7-1.3l38.4,22.2
	l7.4-27.5c0.9-3.5,4.1-5.9,7.7-5.9c0,0,0,0,0,0c3.6,0,6.8,2.4,7.7,5.9l7.4,27.5l38.4-22.2c3.1-1.8,7.1-1.3,9.7,1.3
	c2.6,2.6,3.1,6.5,1.3,9.7l-1.3,2.3h92.8c-7.8-5.1-16.6-5.6-27.7-5.6c-2.6,0-5-1.2-6.5-3.3c-1.5-2.1-1.9-4.8-1.1-7.2
	c4.9-14.8-1-25.3-7.6-29.9c-7.2-4.9-16-4.2-23.6,2.1c-2.6,2.1-6.2,2.4-9.1,0.8c-2.9-1.7-4.5-4.9-3.9-8.2
	c2.3-13.8-1.7-23.8-11.2-28.2c-9.4-4.3-21.5-1.6-28.1,6.2c-1.5,1.7-3.6,2.8-5.9,2.9c-2.3,0.1-4.5-0.8-6-2.4
	c-6.1-6.3-16.2-9.6-26.9-8.8c-7.6,0.6-12,2.9-13.3,4.1c0.4,4.7,3.5,13.1,11.4,33.8c1.6,4.1-0.5,8.8-4.6,10.3
	c-4.1,1.6-8.8-0.5-10.3-4.6c-9.5-24.8-12.5-33-12.5-40.4c0-6.6,5-12.4,13.6-15.9c6.6-2.7,14.8-3.9,23.1-3.3
	c-2.8-11.5-4.3-21.3-4.3-29.4c0-14.9,6.8-26.5,18.7-31.8c9.4-4.2,20.6-3.6,30.6,1.2c5.1-14,16.5-23.3,31.3-24.9
	c14.8-1.6,32.4,5.6,42.2,24.5c6.4-3.1,14-4.4,21.8-3.7c12.4,1.2,23.2,7.6,29,16.9c2.3,3.8,1.2,8.7-2.6,11c-3.8,2.3-8.7,1.2-11-2.6
	c-3.2-5.1-9.5-8.7-16.9-9.4c-7.2-0.7-14.1,1.4-18,5.6c-2,2.1-4.9,3-7.7,2.3c-2.8-0.6-5-2.7-5.8-5.5c-5.4-17.6-18.6-24.4-29.2-23.3
	c-8.6,0.9-18.3,7.4-19.7,22.7c-0.3,3-2.2,5.6-5,6.7c-2.8,1.1-6,0.5-8.3-1.5c-7.3-6.5-16.9-8.8-24-5.6c-5.9,2.6-9.2,8.7-9.2,17.2
	c0,8.5,2.1,20.1,6,33.8c2.5,1.1,5,2.5,7.3,4.1c11.5-8.9,27.7-11.1,41.3-4.9c12.1,5.6,19.4,16.5,20.9,30.5c9.9-3,20.5-1.6,29.3,4.4
	c10.1,6.9,18.1,20.8,16.1,37.9c11.7,0.8,22.9,3.5,33,13c1.6-1.5,3.2-2.8,4.9-4c-8-15.1-12.6-34.8-12.6-55.4
	c0-46.9,22.5-83.7,51.2-83.7c7.6,0,14.7,2.6,21.1,7.2c9.1-24.5,25.5-39.6,43.8-39.6c24.7,0,45.4,27.4,50.2,66.7
	c0.5,4.4-2.6,8.4-7,8.9c-0.3,0-0.7,0.1-1,0.1c-4,0-7.4-3-7.9-7c-3.7-30-18.5-52.6-34.3-52.6c-12.7,0-25,14.6-31.2,36.6
	c7.5,10.5,13,24.6,15.7,40.7c1.9-1.4,4-2.6,6.3-3.7c13.5-6.2,29.8-4,41.3,4.9c14.6-10.2,34.7-10.6,48.1-5.2
	c8.6,3.5,13.6,9.3,13.6,15.9c0,6.3-1.5,9.3-15.4,38.4c-4.8,9.9-11,22.9-19.2,40.1h19.1c9.4,0,16.2,7.9,16.2,18.8
	c0,10.9-6.8,18.8-16.2,18.8c-4.4,0-8-3.6-8-8c0-4.3,3.4-7.8,7.6-8c0.8-1.2,0.8-4.4,0-5.6h-31.4c0,0,0,0-0.1,0c0,0,0,0-0.1,0H287.6
	c0,0-0.1,0-0.1,0h-0.1c0,0,0,0,0,0c0,0,0,0,0,0H174.1c-0.3,0-0.5,0-0.8,0l-3,5.3c-2.2,3.8-7.1,5.1-10.9,2.9
	c-3.2-1.8-4.6-5.5-3.8-8.9l-22.1,12.7c-2.2,1.2-4.8,1.4-7.1,0.5c-2.3-1-4-2.9-4.7-5.3l-2.3-8.7l-2.3,8.7c-0.6,2.4-2.4,4.4-4.7,5.3
	c-2.3,1-4.9,0.8-7.1-0.5l-21.6-12.4l8.9,15.3c8.9,1.7,18.2,4.8,26.8,9.3c10.7-5.4,25.7-10.6,40-10.6c35.1,0,73,26,73,83
	c0,17.3-4.2,33.6-12.1,47.6c9.8,2.3,19.9,4.5,29.9,6.6c-4.1-15.3-4.7-35.2-4.7-47.5c-0.1-5,0.2-10.2,0.8-16.5
	c0.4-4.4,4.4-7.6,8.7-7.2c4.4,0.4,7.6,4.3,7.2,8.7c-0.5,5.7-0.8,10.4-0.7,14.8c0,0.1,0,0.1,0,0.2c-0.1,23.1,2.5,42.5,6.9,51.2
	c45,8.8,86.3,14.6,101.6,14.6c0,0,0.1,0,0.1,0c15.9,0,27.2-10.9,33.6-32.4c2.1-7,3.3-14,4-19.6h-5.1c-15.6,0-18.8,0-19,0
	c-4.4-0.1-7.9-3.7-7.9-8.1c0.1-4.4,3.6-7.9,8-7.9c0,0,0.1,0,0.1,0c0.6,0,9.5,0,18.8,0l13.9,0l3.5,0c6.4,0,12.7,0,18,0l13.4,0
	c0.2,0,0.3,0,0.5,0c14.6,0.9,28-5.7,35.8-17.6c7-10.6,8.1-23.1,2.9-33.6c-5.2-10.5-11.6-10.1-23.7-5.4l-0.1,0c-2,0.9-5,2-7.2,2.5
	c-4.2,0.9-8.4-1.7-9.5-5.9c-0.4-1.5-0.6-3.4-0.6-5.9c0-1.1-0.4-11.4-11.4-11.4c-1.1,0-11.4,0.4-11.4,11.4c0,4.4-3.6,8-8,8h0
	c-4.4,0-8-3.6-8-8c0-17.8,13.7-27.3,27.3-27.4c14.8,0,23.9,9.4,26.6,20.4c10.2-3.6,29.1-7.8,40.3,14.5
	C512.7,315,511.3,333.5,501.1,348.9z M385.2,189.3c0.5,3.3-1,6.6-3.9,8.2c-2.9,1.7-6.5,1.3-9.1-0.8c-7.5-6.2-16.4-7-23.6-2.1
	c-6.6,4.5-12.6,15.1-7.6,29.9c0.8,2.4,0.4,5.1-1.1,7.2c-1.5,2.1-3.9,3.3-6.5,3.3c-9.2,0-16.7,0.3-23.3,3.2c-0.2,0.1-0.4,0.2-0.6,0.3
	c-1.3,0.6-2.6,1.3-3.9,2.1h134.7c9.9-20.8,17.1-35.9,22.5-47.1c10.3-21.3,13.3-27.6,13.8-30.5c-1.4-1.2-5.8-3.5-13.3-4.1
	c-10.7-0.8-20.8,2.4-26.9,8.8c-1.6,1.6-3.7,2.5-6,2.4c-2.3-0.1-4.4-1.1-5.9-2.9c-6.6-7.9-18.7-10.6-28.2-6.2
	C386.9,165.5,383,175.5,385.2,189.3z M309.9,221.5c4.5-1.2,9-1.9,13.6-2.2c-2-17.1,6-30.9,16.1-37.9c8.8-6,19.4-7.5,29.3-4.4
	c0.1-1,0.3-2.1,0.4-3.1c0-0.3,0-0.6,0-0.9c0-22.9-6.3-43.6-15.6-55.9c-0.6-0.6-1.1-1.2-1.5-1.9c-5.3-6.3-11.5-9.9-18.1-9.9
	c-19.1,0-35.2,31-35.2,67.7C298.8,191.4,302.8,208.7,309.9,221.5z M216.4,353.2c0-46.3-28.6-67-57-67c-10.7,0-24.8,4.2-36,10.6
	c-2.5,1.4-5.5,1.4-8,0c-8.9-5.1-23-10.6-36-10.6c-28.4,0-57,20.7-57,67c0,47.5,34.6,78.9,89,81.7v-121c0-4.4,3.6-8,8-8s8,3.6,8,8
	v121C181.8,432.2,216.4,400.7,216.4,353.2z"></path>
<g>
	<path fill="#FFA4ED" class="primary-color" d="M486.4,408.2v27.1h-27.1v-27.1H486.4z M459.3,476h27.1v-27.1h-27.1V476z M417.7,476h27.1v-27.1h-27.1V476z"></path>
	<path fill="#DB81DA" class="secondary-color" d="M339.1,26.9l-28.6,28.6l-28.6-28.6H339.1z"></path>
</g>
<path fill="#000000" d="M64.8,113.1c-4.4,0-8-3.6-8-8v-3.7h-3.7c-4.4,0-8-3.6-8-8s3.6-8,8-8h3.7v-3.7c0-4.4,3.6-8,8-8s8,3.6,8,8v3.7
	h3.7c4.4,0,8,3.6,8,8s-3.6,8-8,8h-3.7v3.7C72.8,109.5,69.2,113.1,64.8,113.1z M111.6,467H69.2c-4.4,0-8,3.6-8,8s3.6,8,8,8h42.4
	c4.4,0,8-3.6,8-8S116.1,467,111.6,467z M480.4,34.1c-4.1-4.1-10.9-4.1-15,0c-4.1,4.1-4.1,10.9,0,15c4.1,4.1,10.9,4.1,15,0
	C484.5,45,484.5,38.3,480.4,34.1z"></path>
</svg>