<svg version="1.1" id="Layer_1" xmlns="http://www.w3.org/2000/svg" xmlns:xlink="http://www.w3.org/1999/xlink" x="0px" y="0px" viewBox="0 0 512 512" enable-background="new 0 0 512 512" xml:space="preserve">
<linearGradient id="SVGID_1_" gradientUnits="userSpaceOnUse" x1="146.4129" y1="205.202" x2="150.9603" y2="43.7704" class="gradient-element">
	<stop offset="0" class="primary-color-gradient" style="stop-color: #FFA4ED"></stop>
	<stop offset="1" class="secondary-color-gradient" style="stop-color: #DB81DA"></stop>
</linearGradient>
<path fill="url(#SVGID_1_)" d="M94.3,220.7c-16.3-15.7-25.4-37.2-25.8-60.6c-0.4-25.4,9.9-50.8,28.3-69.8
	C115.7,71,141.3,60,167.3,60c22.8,0,44.1,8.5,60,23.8c0.6,0.6,1.1,1.2,1.7,1.8L98.4,224.2C97.1,223.1,95.7,221.9,94.3,220.7z"></path>
<path d="M200.8,217.2l79.3,79.3c3.1,3.1,3.1,8.2,0,11.3c-1.6,1.6-3.6,2.3-5.7,2.3s-4.1-0.8-5.7-2.3l-79.3-79.3
	c-3.1-3.1-3.1-8.2,0-11.3C192.6,214,197.7,214,200.8,217.2z M238.4,202.2c-0.3-0.6-0.7-1.1-1.2-1.6l-16.5-16.5
	c-3.1-3.1-8.2-3.1-11.3,0c-3.1,3.1-3.1,8.2,0,11.3l15.1,15.1c0.3,0.6,0.7,1.1,1.2,1.6l72.6,72.6c1.5,1.5,3.5,2.3,5.7,2.3h64.5
	c0.5,0,0.9,0.1,1.3,0.3c0.4,0.2,0.8,0.4,1.1,0.7c0,0,0,0,0,0l80.7,80.7c0.9,0.9,1,1.9,1,2.5c0,0.5-0.1,1.6-1,2.5c-0.9,0.9-2,1-2.5,1
	c-0.5,0-1.6-0.1-2.5-1l-77.3-77.3c-3.1-3.1-8.2-3.1-11.3,0c-3.1,3.1-3.1,8.2,0,11.3l77.3,77.3c3.7,3.7,8.6,5.7,13.8,5.7
	c5.2,0,10.1-2,13.8-5.7c3.7-3.7,5.7-8.6,5.7-13.8c0-5.2-2-10.1-5.7-13.8L382.5,277c-0.2-0.2-0.4-0.5-0.7-0.7
	c-1.7-1.6-3.7-2.9-5.9-3.8c-2.4-1-4.9-1.5-7.5-1.5h-61.1L238.4,202.2z M164.3,125.9c-0.7,7.4-7.3,15.1-14.9,17.5
	c-4.2,1.3-6.6,5.8-5.2,10c1.1,3.4,4.2,5.6,7.6,5.6c0.8,0,1.6-0.1,2.4-0.4c13.9-4.3,24.8-17.6,26.1-31.4c0,0,0-0.1,0-0.1
	c0.8-9.3-2.7-17.8-9.5-23.3c-7.2-5.8-16.8-7.4-26.3-4.3c-13.9,4.3-24.8,17.6-26.1,31.4c-0.8,9.3,2.6,17.8,9.5,23.4
	c3.4,2.8,8.5,2.2,11.2-1.2c2.8-3.4,2.2-8.5-1.2-11.2c-2.7-2.2-4-5.6-3.6-9.5c0.7-7.3,7.4-15.2,15-17.6c4.3-1.4,8.5-0.8,11.4,1.5
	C163.4,118.5,164.6,121.9,164.3,125.9C164.3,125.9,164.3,125.9,164.3,125.9z M451.6,426.7c-3.1,3.1-3.1,8.2,0,11.3
	c0.9,0.9,1,2,1,2.5s-0.1,1.6-1,2.5c-0.9,0.9-2,1-2.5,1c-0.5,0-1.6-0.1-2.5-1l-61-61c-2.3-2.3-5.7-3-8.7-1.7c-3,1.2-4.9,4.2-4.9,7.4
	v52.9c0,1.9-1.6,3.5-3.5,3.5s-3.5-1.6-3.5-3.5v-75.9c0-2.1-0.8-4.2-2.3-5.7l-39.4-39.4c-1.5-1.5-3.5-2.3-5.7-2.3h-64.4
	c-0.5,0-0.9-0.1-1.3-0.3c-0.4-0.2-0.8-0.4-1.1-0.8l-78.2-78.2c-1.8-1.8-4.2-2.6-6.7-2.3c-24.7,3.3-48.7-4.3-65.7-20.8
	c-14.7-14.2-23-33.7-23.3-54.9c-0.4-23.3,9.1-46.7,26-64c33.6-34.6,87-37.4,119.1-6.4c14.7,14.2,23,33.7,23.3,54.9
	c0.1,4.2-0.2,8.4-0.8,12.6c-0.3,2.5,0.5,5,2.3,6.7l66.7,66.7c3.1,3.1,8.2,3.1,11.3,0c3.1-3.1,3.1-8.2,0-11.3l-63.9-63.9
	c0.3-3.7,0.5-7.4,0.4-11c-0.4-25.5-10.4-49-28.2-66.2c-38.4-37.1-102-34.1-141.7,6.8c-19.9,20.4-31,47.9-30.6,75.4
	c0.4,25.5,10.4,49,28.2,66.2c19.7,19,46.8,28.2,75,25.6l75.5,75.5c1.8,1.8,4,3.3,6.4,4.3c2.3,1,4.8,1.5,7.3,1.5c0,0,0.1,0,0.1,0
	h61.1l34.7,34.7v72.6c0,10.8,8.8,19.5,19.5,19.5s19.5-8.8,19.5-19.5v-33.6l47.4,47.4c3.7,3.7,8.6,5.7,13.8,5.7
	c5.2,0,10.1-2,13.8-5.7c3.7-3.7,5.7-8.6,5.7-13.8s-2-10.1-5.7-13.8C459.8,423.6,454.7,423.6,451.6,426.7z"></path>
<path fill="#DB81DA" class="secondary-color" d="M142.2,361l22.7,22.7l-22.7,22.7V361z"></path>
<path d="M410.9,176.6c0,4.4-3.6,8-8,8h-43c-4.4,0-8-3.6-8-8s3.6-8,8-8h43C407.3,168.6,410.9,172.2,410.9,176.6z M308.6,375.7h-73.8
	c-4.4,0-8,3.6-8,8s3.6,8,8,8h73.8c4.4,0,8-3.6,8-8S313,375.7,308.6,375.7z M43,72.7c0,4.4,3.6,8,8,8s8-3.6,8-8V56.9h15.8
	c4.4,0,8-3.6,8-8s-3.6-8-8-8H59V25.1c0-4.4-3.6-8-8-8s-8,3.6-8,8v15.8H27.3c-4.4,0-8,3.6-8,8s3.6,8,8,8H43V72.7z M469.8,237.9V234
	h3.9c4.4,0,8-3.6,8-8s-3.6-8-8-8h-3.9v-3.9c0-4.4-3.6-8-8-8s-8,3.6-8,8v3.9h-3.9c-4.4,0-8,3.6-8,8s3.6,8,8,8h3.9v3.9
	c0,4.4,3.6,8,8,8S469.8,242.3,469.8,237.9z M49.7,278.6c-5.9,0-10.8,4.8-10.8,10.8c0,5.9,4.8,10.8,10.8,10.8s10.8-4.8,10.8-10.8
	C60.4,283.4,55.6,278.6,49.7,278.6z M473.6,430.1c-5.9,0-10.8,4.8-10.8,10.8s4.8,10.8,10.8,10.8c5.9,0,10.8-4.8,10.8-10.8
	S479.6,430.1,473.6,430.1z M452.6,77.7c-4.4,0-8,3.6-8,8s3.6,8,8,8c14.6,0,26.4-11.8,26.4-26.4s-11.8-26.4-26.4-26.4
	c-4.4,0-8,3.6-8,8s3.6,8,8,8c5.7,0,10.4,4.7,10.4,10.4S458.3,77.7,452.6,77.7z M78.9,442.5c-4.4,0-8,3.6-8,8
	c0,5.7-4.7,10.4-10.4,10.4s-10.4-4.7-10.4-10.4c0-4.4-3.6-8-8-8s-8,3.6-8,8c0,14.6,11.8,26.4,26.4,26.4s26.4-11.8,26.4-26.4
	C86.9,446.1,83.3,442.5,78.9,442.5z"></path>
</svg>