<svg version="1.1" id="Layer_1" xmlns="http://www.w3.org/2000/svg" xmlns:xlink="http://www.w3.org/1999/xlink" x="0px" y="0px" viewBox="0 0 512 512" enable-background="new 0 0 512 512" xml:space="preserve">
<g>
	<linearGradient id="SVGID_1_" gradientUnits="userSpaceOnUse" x1="173.6115" y1="439.4207" x2="173.6115" y2="194.2793" class="gradient-element">
		<stop offset="0" class="primary-color-gradient" style="stop-color: #FFA4ED"></stop>
		<stop offset="1" class="secondary-color-gradient" style="stop-color: #DB81DA"></stop>
	</linearGradient>
	<path fill="url(#SVGID_1_)" d="M160.2,336.3c0,37.8,0.1,86.4,0.1,104.6c0,2.5,0.1,5.1-0.5,7.4c-1.1,5-5.8,8.5-11.4,8.6
		c-15,0.1-30,0.1-44.9,0c-7.3-0.1-11.9-5-12-12.5c0-2.5,0-4.9,0-7.4c9,0,17.9,0,26.9-0.1c5.6,0,10.3-3.6,11.4-8.6
		c0.6-2.4,0.5-5,0.5-7.4c0-16.1-0.1-55.9-0.1-91c0,0,0,0,0,0l-38.7-6.6v-17l62.4,7.7c4.4,0.5,8.7,1.7,12.8,3.4
		c13.7,5.8,27.2,12.3,40.5,19.1c10,5.1,18.6-0.1,18.6-11.3c0-43.3,0-74.3,0-117.6c3.7-1.9,7.4-3.8,11.1-5.8
		c10.1-5.3,18.8-0.2,18.8,11.3c0,48.1,0,96.2,0,144.3c0,11.2-8.7,16.4-18.6,11.3C212.2,356.2,186.9,344.6,160.2,336.3z"></path>
	<linearGradient id="SVGID_2_" gradientUnits="userSpaceOnUse" x1="194.6608" y1="204.8129" x2="194.6608" y2="72.2297">
		<stop offset="0" class="primary-color-gradient" style="stop-color: #FFA4ED"></stop>
		<stop offset="1" class="secondary-color-gradient" style="stop-color: #DB81DA"></stop>
	</linearGradient>
	<path fill="url(#SVGID_2_)" d="M157.3,214.3c-10.6-10.6-10.6-27.9,0-38.5l45.3-45.3c7.9-7.9,12.3-18.5,12.3-29.5
		c0-2.2-0.1-4.4-0.6-6.4c-0.8-5.2-2.5-10.2-5.1-14.6c-1.5-2.6,1.1-5.7,3.9-4.6c5.5,2.1,10.4,5.4,14.5,9.5
		c6.1,6.1,10.4,14.2,11.7,23.1c0.5,2,0.6,4.1,0.6,6.4c0,11-4.4,21.6-12.3,29.5L157.3,214.3L157.3,214.3z"></path>
	<linearGradient id="SVGID_3_" gradientUnits="userSpaceOnUse" x1="340.9586" y1="444.2695" x2="340.9586" y2="297.7162">
		<stop offset="0" class="primary-color-gradient" style="stop-color: #FFA4ED"></stop>
		<stop offset="1" class="secondary-color-gradient" style="stop-color: #DB81DA"></stop>
	</linearGradient>
	<path fill="url(#SVGID_3_)" d="M443.5,301v153.8h-90.9h-11.6H238.4v-20.1c0-12.7,10.3-23,23-23h37.5c23.3,0,42.2-18.9,42.2-42.2
		v-25.8c0-23.6,19.1-42.8,42.8-42.8H443.5z"></path>
	<linearGradient id="SVGID_4_" gradientUnits="userSpaceOnUse" x1="325.8895" y1="163.8739" x2="468.3585" y2="163.8739">
		<stop offset="0" class="primary-color-gradient" style="stop-color: #FFA4ED"></stop>
		<stop offset="1" class="secondary-color-gradient" style="stop-color: #DB81DA"></stop>
	</linearGradient>
	<path fill="url(#SVGID_4_)" d="M325.9,89.5v124.5H339v32.3l53.9-32.3h75.5V81.5H333.9C329.5,81.5,325.9,85.1,325.9,89.5z"></path>
</g>
<path d="M254.3,194.4c6,3.6,9.5,10.5,9.5,18.8l0,27.8c0,4.4-3.6,8-8,8c0,0,0,0,0,0c-4.4,0-8-3.6-8-8l0-27.8c0-2.5-0.7-4.4-1.7-5.1
	c-1.1-0.7-3.1-0.3-5.4,0.8c-20.3,10.7-38.7,19.2-56.4,25.8c-21.5,8.1-52.6,14.7-73.9,15.7c-0.1,0-0.3,0-0.4,0c-4.2,0-7.8-3.3-8-7.6
	c-0.2-4.4,3.2-8.2,7.6-8.4c19.9-0.9,48.9-7.1,69.1-14.7c17-6.4,34.8-14.5,54.5-24.9C240.5,190.9,248.2,190.7,254.3,194.4z
	 M168.2,441.8c0,2.5,0,5.4-0.7,8.4c-2,8.6-9.8,14.7-19.2,14.8c-8.3,0.1-16,0.1-23.5,0.1c-7.5,0-14.7,0-21.6-0.1
	c-11.6-0.1-19.8-8.5-19.9-20.5c-0.1-11.3,0-22.8,0-33.9c0-4.7,0-9.4,0-14.1l0-13.1c0-15.7,0-36.6,0-49.2c-1.6,0.3-3.3,0.5-5.2,0.5
	c-0.2,0-0.4,0-0.7,0c-25-0.5-46.4-20.9-48.7-46.5c-2.2-25.1,15.3-48.9,39.9-54.1c3.3-0.7,6.8-1.1,10.2-1.1c0,0,0,0,0,0
	c11.7,0,20.2,8.4,20.3,20.1c0.1,7.2,0.1,14.5,0,21.5c0,3.1,0,6.2,0,9.3c0,2.9,0,5.9,0,8.8c0,6.9,0,13.9,0,20.8c0,2.1-0.2,4-0.6,5.6
	c15.1,1,41.4,3.4,49.5,5.5c35.3,9.1,67.9,24.6,92.4,37c2.2,1.1,4.2,1.4,5.3,0.7c1.1-0.6,1.7-2.5,1.7-4.9c0-28.8,0-57.7,0-86.5
	c0-4.4,3.6-8,8-8c4.4,0,8,3.6,8,8c0,28.8,0,57.7,0,86.5c0,8.2-3.4,14.9-9.3,18.6c-3,1.8-6.3,2.7-9.8,2.7c-3.6,0-7.4-0.9-11.1-2.8
	c-18-9.2-40.6-20-65.2-28.5c-0.2,18.6-0.1,43.6-0.1,65.9c0,10.1,0,19.6,0,27.6L168.2,441.8z M82.3,317.6c0.7-0.7,1.1-2.2,1.1-4.2
	c0-6.9,0-13.8,0-20.7c0-2.9,0-5.9,0-8.8c0-3.1,0-6.2,0-9.4c0-7,0-14.2,0-21.3c0-2.9-1.4-4.2-4.3-4.2c0,0,0,0,0,0
	c-2.4,0-4.6,0.2-6.9,0.7c-16.9,3.6-28.9,19.9-27.3,37.1c1.5,17.2,16.4,31.5,33.1,31.9C80,318.7,81.6,318.3,82.3,317.6z M152.4,342.6
	c0-0.1,0-0.1,0-0.2c-2.7-0.8-5.4-1.5-8.1-2.2c-6.1-1.6-29.8-3.9-44.9-4.9c0,12.6,0,32.8,0,48.1l0,13.1c0,4.7,0,9.4,0,14.1
	c0,11.1,0,22.6,0,33.8c0,4,1.9,4.6,4,4.6c13.6,0.1,28.2,0.1,44.8,0c1.9,0,3.4-1,3.7-2.3c0.3-1.2,0.3-3,0.3-4.8l0-0.9
	c0-8,0-17.5,0-27.6C152.2,389.1,152.1,361.6,152.4,342.6z M468.4,132.9c4.4,0,8-3.6,8-8V41.5c0-4.4-3.6-8-8-8H295.9
	c-4.4,0-8,3.6-8,8v172.5c0,4.4,3.6,8,8,8H331v24.3c0,2.9,1.6,5.5,4.1,7c1.2,0.7,2.6,1,3.9,1c1.4,0,2.9-0.4,4.1-1.1l52-31.2h73.2
	c4.4,0,8-3.6,8-8v-56c0-4.4-3.6-8-8-8s-8,3.6-8,8v48h-67.5c-1.5,0-2.9,0.4-4.1,1.1L347,232.1v-18.2c0-4.4-3.6-8-8-8h-35.1V49.5
	h156.5v75.5C460.4,129.4,463.9,132.9,468.4,132.9z M419.3,99H341c-4.4,0-8,3.6-8,8s3.6,8,8,8h78.3c4.4,0,8-3.6,8-8
	S423.7,99,419.3,99z M419.3,149H341c-4.4,0-8,3.6-8,8s3.6,8,8,8h78.3c4.4,0,8-3.6,8-8S423.7,149,419.3,149z M105.2,173.5
	c1.6,1.6,3.6,2.3,5.7,2.3s4.1-0.8,5.7-2.3c3.1-3.1,3.1-8.2,0-11.3l-23.9-23.9c-6.4-6.4-9.9-14.9-9.9-23.9c0-2,0.1-3.4,0.4-4.5
	c0.1-0.2,0.1-0.5,0.1-0.7c1-7,4.3-13.5,9.4-18.6c6.4-6.4,14.9-9.9,23.9-9.9s17.5,3.5,23.9,9.9l11.3,11.3c3.1,3.1,8.2,3.1,11.3,0
	c1.4-1.4,2.2-3.3,2.3-5.2c1.9-0.1,3.7-0.9,5.2-2.3l3.9-3.9c6.4-6.4,14.9-9.9,23.9-9.9c9,0,17.5,3.5,23.9,9.9
	c5.1,5.1,8.4,11.6,9.4,18.6c0,0.2,0.1,0.5,0.1,0.7c0.3,1.1,0.4,2.5,0.4,4.5c0,9-3.5,17.5-9.9,23.9L157.3,203l-25.2-25.2
	c-3.1-3.1-8.2-3.1-11.3,0c-3.1,3.1-3.1,8.2,0,11.3l30.9,30.9c1.5,1.5,3.5,2.3,5.7,2.3c2.1,0,4.2-0.8,5.7-2.3l70.4-70.4
	c9.4-9.4,14.6-21.9,14.6-35.2c0-2.2-0.1-5-0.7-7.9c-1.6-10.4-6.4-19.8-13.9-27.3c-9.4-9.4-21.9-14.6-35.2-14.6s-25.7,5.2-35.2,14.6
	l-3.9,3.9c-0.6,0.6-1.1,1.4-1.5,2.1l-6-6c-9.4-9.4-21.9-14.6-35.2-14.6c-13.3,0-25.7,5.2-35.2,14.6c-7.5,7.5-12.3,17-13.9,27.3
	c-0.6,2.9-0.7,5.7-0.7,7.9c0,13.3,5.2,25.7,14.6,35.2L105.2,173.5z M451.5,301c0,0.4,0,0.8-0.1,1.1c0.1,0.4,0.1,0.8,0.1,1.1v151.5
	c0,4.4-3.6,8-8,8H238.4c-4.4,0-8-3.6-8-8c0-0.1,0-0.1,0-0.2c0-0.1,0-0.1,0-0.2v-55.5c0-4.4,3.6-8,8-8s8,3.6,8,8V431l51-66.1
	l-17-17.8c-3.1-3.2-2.9-8.3,0.3-11.3c3.2-3.1,8.3-2.9,11.3,0.3l49.3,51.6l84.3-78.7H283.2c-4.4,0-8-3.6-8-8s3.6-8,8-8h160.3
	C447.9,293,451.5,296.6,451.5,301z M427.2,446.4l-52.5-68l-28.3,26.4c-3.2,3-8.2,2.8-11.2-0.3l-26.6-27.8l-53.9,69.8H427.2z
	 M435.5,321.7l-49.1,45.8l49.1,63.6V321.7z"></path>
<path fill="#DB81DA" class="secondary-color" d="M75.7,44.8H40.5V80H18.8V44.8V23.1h21.8h35.1V44.8z"></path>
<path d="M489.3,264h-57.4c-4.4,0-8-3.6-8-8s3.6-8,8-8h57.4c4.4,0,8,3.6,8,8S493.7,264,489.3,264z M310.6,70.1c0-4.4-3.6-8-8-8h-57.4
	c-4.4,0-8,3.6-8,8s3.6,8,8,8h57.4C307,78.1,310.6,74.6,310.6,70.1z M309.8,241c0-4.4-3.6-8-8-8h-56c-4.4,0-8,3.6-8,8s3.6,8,8,8h56
	C306.3,249,309.8,245.4,309.8,241z M275.4,271c0-4.4-3.6-8-8-8h-73.8c-4.4,0-8,3.6-8,8s3.6,8,8,8h73.8
	C271.8,279,275.4,275.4,275.4,271z"></path>
</svg>