<svg version="1.1" id="Layer_1" xmlns="http://www.w3.org/2000/svg" xmlns:xlink="http://www.w3.org/1999/xlink" x="0px" y="0px" viewBox="0 0 512 512" enable-background="new 0 0 512 512" xml:space="preserve">
<g>
	<path fill="#DB81DA" class="secondary-color" d="M499.5,377.2v45.3h-45.3v-45.3H499.5z M454.2,490.6h45.3v-45.3h-45.3V490.6z M384.6,490.6h45.3v-45.3h-45.3
		V490.6z"></path>
	<path fill="#DB81DA" class="secondary-color" d="M87.4,29.6L30.4,90V29.6H87.4z"></path>
</g>
<path d="M73.8,392.8c0,20.3-16.5,36.8-36.8,36.8c-4.4,0-8-3.6-8-8s3.6-8,8-8c11.4,0,20.8-9.3,20.8-20.8c0-4.4,3.6-8,8-8
	S73.8,388.4,73.8,392.8z M115.8,413.6c-11.4,0-20.8-9.3-20.8-20.8c0-4.4-3.6-8-8-8s-8,3.6-8,8c0,20.3,16.5,36.8,36.8,36.8
	c4.4,0,8-3.6,8-8S120.2,413.6,115.8,413.6z M115.8,434.8c-20.3,0-36.8,16.5-36.8,36.8c0,4.4,3.6,8,8,8s8-3.6,8-8
	c0-11.4,9.3-20.8,20.8-20.8c4.4,0,8-3.6,8-8S120.2,434.8,115.8,434.8z M37,434.8c-4.4,0-8,3.6-8,8s3.6,8,8,8
	c11.4,0,20.8,9.3,20.8,20.8c0,4.4,3.6,8,8,8s8-3.6,8-8C73.8,451.3,57.3,434.8,37,434.8z M113.9,97.7c5.9,0,10.8-4.8,10.8-10.8
	s-4.8-10.8-10.8-10.8s-10.8,4.8-10.8,10.8S108,97.7,113.9,97.7z M37,281c5.9,0,10.8-4.8,10.8-10.8S43,259.5,37,259.5
	s-10.8,4.8-10.8,10.8S31.1,281,37,281z M473.2,71.2h-15.8V55.4c0-4.4-3.6-8-8-8s-8,3.6-8,8v15.8h-15.8c-4.4,0-8,3.6-8,8s3.6,8,8,8
	h15.8v15.8c0,4.4,3.6,8,8,8s8-3.6,8-8V87.2h15.8c4.4,0,8-3.6,8-8S477.6,71.2,473.2,71.2z M408.4,399.8h-3.9v-3.9c0-4.4-3.6-8-8-8
	s-8,3.6-8,8v3.9h-3.9c-4.4,0-8,3.6-8,8s3.6,8,8,8h3.9v3.9c0,4.4,3.6,8,8,8s8-3.6,8-8v-3.9h3.9c4.4,0,8-3.6,8-8
	S412.8,399.8,408.4,399.8z M131.7,226.3H42.4c-4.4,0-8,3.6-8,8s3.6,8,8,8h89.4c4.4,0,8-3.6,8-8S136.1,226.3,131.7,226.3z"></path>
<linearGradient id="SVGID_1_" gradientUnits="userSpaceOnUse" x1="263.7784" y1="354.1215" x2="265.2942" y2="170.7109" class="gradient-element">
	<stop offset="0" class="primary-color-gradient" style="stop-color: #FFA4ED"></stop>
	<stop offset="1" class="secondary-color-gradient" style="stop-color: #DB81DA"></stop>
</linearGradient>
<path fill="url(#SVGID_1_)" d="M349.4,266.1c0,34.7-20.8,65.6-53,78.6l-13,5.3V182.2l13,5.3C328.5,200.5,349.4,231.4,349.4,266.1z
	 M179.7,266.1c0,34.7,20.8,65.6,53,78.6l13,5.3V182.2l-13,5.3C200.5,200.5,179.7,231.4,179.7,266.1z"></path>
<path d="M264.5,435.4c-88.9,0-162.6-69.6-167.8-158.4c-0.1-2.2,0.7-4.4,2.2-6c1.5-1.6,3.6-2.5,5.8-2.5h29.9c4.4,0,8,3.6,8,8
	s-3.6,8-8,8h-21.2c8.7,76.3,73.5,134.8,151.1,134.8c84,0,152.3-68.3,152.3-152.3c0-84-68.3-152.3-152.3-152.3
	c-76.5,0-135.3,48.5-146.1,120.7c-0.7,4.4-4.7,7.4-9.1,6.7c-4.4-0.7-7.4-4.7-6.7-9.1c12.1-80.3,77.2-134.3,161.9-134.3
	c92.8,0,168.3,75.5,168.3,168.3S357.3,435.4,264.5,435.4z M245.6,359c-1,0-2-0.2-3-0.6l-13-5.3c-35.2-14.3-58-48.1-58-86
	c0-38,22.8-71.8,58-86l13-5.3c2.5-1,5.3-0.7,7.5,0.8c2.2,1.5,3.5,4,3.5,6.6v36.1c0,4.4-3.6,8-8,8s-8-3.6-8-8v-24.2l-2,0.8
	c-29.2,11.8-48,39.8-48,71.2c0,31.4,18.9,59.4,48,71.2l2,0.8V256c0-4.4,3.6-8,8-8s8,3.6,8,8v95c0,2.7-1.3,5.1-3.5,6.6
	C248.8,358.5,247.2,359,245.6,359z M283.4,359c-1.6,0-3.1-0.5-4.5-1.4c-2.2-1.5-3.5-4-3.5-6.6V183.2c0-2.7,1.3-5.1,3.5-6.6
	c2.2-1.5,5-1.8,7.5-0.8l13,5.3c35.2,14.3,58,48.1,58,86c0,38-22.8,71.8-58,86l0,0l-13,5.3C285.4,358.8,284.4,359,283.4,359z
	 M296.3,345.7L296.3,345.7L296.3,345.7z M291.4,195.1v144l2-0.8c29.2-11.8,48-39.8,48-71.2c0-31.4-18.9-59.4-48-71.2L291.4,195.1z"></path>
</svg>