<svg version="1.1" id="Layer_1" xmlns="http://www.w3.org/2000/svg" xmlns:xlink="http://www.w3.org/1999/xlink" x="0px" y="0px" viewBox="0 0 512 512" enable-background="new 0 0 512 512" xml:space="preserve">
<linearGradient id="SVGID_1_" gradientUnits="userSpaceOnUse" x1="311.3072" y1="448.7655" x2="311.3072" y2="69.585" class="gradient-element">
	<stop offset="0" class="primary-color-gradient" style="stop-color: #FFA4ED"></stop>
	<stop offset="1" class="secondary-color-gradient" style="stop-color: #DB81DA"></stop>
</linearGradient>
<path fill="url(#SVGID_1_)" d="M440.5,257.3c-0.2,103.9-85.5,188.4-189.4,187.6c-17.4-0.1-34.3-2.6-50.2-7.2
	c-18-5.1-22.6-24.5-15.6-41.8c20.5-50.7,160.4-18.5,161.1-139.7c0.7-121.8-110.4-107.9-122.2-141.2c-7.9-22.2,4.6-46,28.1-46.1
	c0.1,0,0.3,0,0.4,0C356.5,69,440.7,153.4,440.5,257.3z"></path>
<path d="M100.1,364c-2.6,0-5.2-1.3-6.8-3.7c-19.6-30.8-30-66.5-30-103.3c0-106.3,86.5-192.8,192.8-192.8S448.9,150.7,448.9,257
	c0,26-5.1,51.3-15.2,75c-1.7,4.1-6.4,6-10.5,4.3c-4.1-1.7-6-6.4-4.3-10.5c9.2-21.8,13.9-44.9,13.9-68.8
	c0-97.5-79.3-176.8-176.8-176.8S79.4,159.5,79.4,257c0,33.7,9.5,66.4,27.5,94.7c2.4,3.7,1.3,8.7-2.5,11
	C103,363.6,101.5,364,100.1,364z M416.3,364.2c2.5-3.7,1.5-8.6-2.2-11.1c-3.7-2.5-8.6-1.5-11.1,2.2c-32.9,49.1-87.9,78.4-146.9,78.4
	c-26,0-51-5.5-74.3-16.3c-4-1.9-8.8-0.1-10.6,3.9c-1.9,4-0.1,8.8,3.9,10.6c25.5,11.8,52.8,17.8,81.1,17.8
	C320.5,449.7,380.4,417.8,416.3,364.2z M283.7,321.1c17.1-7.4,30.3-20.9,37.3-38.3c1.6-4.1-0.4-8.8-4.5-10.4
	c-4.1-1.6-8.8,0.4-10.4,4.5c-5.3,13.3-15.5,23.8-28.7,29.5c-13.2,5.7-27.8,5.9-41.1,0.5c-27.5-11-41-42.3-30-69.9
	c5.3-13.3,15.5-23.8,28.7-29.5c13.2-5.7,27.8-5.9,41.1-0.5c12.8,5.1,23,14.8,28.8,27.2c1.9,4,6.6,5.7,10.6,3.9
	c4-1.9,5.7-6.6,3.9-10.6c-7.5-16.2-20.8-28.7-37.4-35.3c-17.3-6.9-36.3-6.7-53.4,0.7c-17.1,7.4-30.3,20.9-37.3,38.3
	c-14.2,35.7,3.2,76.4,39,90.6c8.4,3.3,17.1,5,25.9,5C265.5,326.8,274.8,324.9,283.7,321.1z M284.3,257c0-15.5-12.6-28.2-28.2-28.2
	s-28.2,12.6-28.2,28.2s12.6,28.2,28.2,28.2S284.3,272.5,284.3,257z M268.3,257c0,6.7-5.5,12.2-12.2,12.2s-12.2-5.5-12.2-12.2
	s5.5-12.2,12.2-12.2S268.3,250.3,268.3,257z"></path>
<path d="M398.8,335.3h-57.4c-4.4,0-8-3.6-8-8s3.6-8,8-8h57.4c4.4,0,8,3.6,8,8S403.2,335.3,398.8,335.3z M477.4,356c0-4.4-3.6-8-8-8
	h-86.8c-4.4,0-8,3.6-8,8s3.6,8,8,8h86.8C473.8,364,477.4,360.4,477.4,356z M464.7,58.3c-5.9,0-10.8,4.8-10.8,10.8
	s4.8,10.8,10.8,10.8S475.4,75,475.4,69S470.6,58.3,464.7,58.3z M95.8,53.8c0-4.4-3.6-8-8-8H40.2c-4.4,0-8,3.6-8,8s3.6,8,8,8h47.6
	C92.2,61.8,95.8,58.2,95.8,53.8z M72,77.6V30c0-4.4-3.6-8-8-8s-8,3.6-8,8v47.6c0,4.4,3.6,8,8,8S72,82,72,77.6z M135.9,352.2
	c0-4.4-3.6-8-8-8s-8,3.6-8,8c0,11.4-9.3,20.8-20.8,20.8c-4.4,0-8,3.6-8,8s3.6,8,8,8C119.4,388.9,135.9,372.4,135.9,352.2z
	 M185.9,380.9c0-4.4-3.6-8-8-8c-11.4,0-20.7-9.3-20.7-20.8c0-4.4-3.6-8-8-8s-8,3.6-8,8c0,20.3,16.5,36.8,36.7,36.8
	C182.3,388.9,185.9,385.3,185.9,380.9z M157.1,430.9c0-11.4,9.3-20.8,20.7-20.8c4.4,0,8-3.6,8-8s-3.6-8-8-8
	c-20.3,0-36.7,16.5-36.7,36.8c0,4.4,3.6,8,8,8S157.1,435.3,157.1,430.9z M135.9,430.9c0-20.3-16.5-36.8-36.8-36.8c-4.4,0-8,3.6-8,8
	s3.6,8,8,8c11.4,0,20.8,9.3,20.8,20.8c0,4.4,3.6,8,8,8S135.9,435.3,135.9,430.9z M500.2,314.4c0-4.4-3.6-8-8-8h-23.8
	c-4.4,0-8,3.6-8,8s3.6,8,8,8h23.8C496.6,322.4,500.2,318.8,500.2,314.4z M488.3,326.3v-23.8c0-4.4-3.6-8-8-8s-8,3.6-8,8v23.8
	c0,4.4,3.6,8,8,8S488.3,330.7,488.3,326.3z"></path>
<g>
	<path fill="#DB81DA" class="secondary-color" d="M37.1,457.1l-26.8,26.8V289.6h26.8V457.1z M55.6,476.4l-26.8,26.8h184.8v-26.8H55.6z"></path>
	<path fill="#FFA4ED" class="primary-color" d="M490.9,478.9v21.8H434v-21.8H490.9z M434,434v21.8h56.9V434H434z"></path>
</g>
</svg>