<svg version="1.1" id="Layer_1" xmlns="http://www.w3.org/2000/svg" xmlns:xlink="http://www.w3.org/1999/xlink" x="0px" y="0px" viewBox="0 0 512 512" enable-background="new 0 0 512 512" xml:space="preserve">
<linearGradient id="SVGID_1_" gradientUnits="userSpaceOnUse" x1="278.7041" y1="435.2439" x2="278.7041" y2="70.6772" class="gradient-element">
	<stop offset="0" class="primary-color-gradient" style="stop-color: #FFA4ED"></stop>
	<stop offset="1" class="secondary-color-gradient" style="stop-color: #DB81DA"></stop>
</linearGradient>
<path fill="url(#SVGID_1_)" d="M145.7,388.4l220.6-264.7c9-10.7,24.9-12.2,35.7-3.2v0L148.9,424l0,0
	C138.2,415.1,136.7,399.1,145.7,388.4z M383.1,281.6c0,0-0.1,0-0.1,0c-9.1,0-15.1,9.8-10.9,17.9c10.1,19.4,47.5,5.3,47.5,54.8
	c0,44.1-49.7,35.4-62.5,54.2c-4.1,6-0.9,14.2,6.1,16.2c6.2,1.8,12.7,2.7,19.5,2.8c40.3,0.3,73.5-32.5,73.6-72.9
	C456.2,314.3,423.5,281.6,383.1,281.6z M129.2,81.8c0,0-0.1,0-0.1,0c-9.1,0-15.1,9.8-10.9,17.9c10.1,19.4,47.5,5.3,47.5,54.8
	c0,44.1-49.7,35.4-62.5,54.2c-4.1,6-0.9,14.2,6.1,16.2c6.2,1.8,12.7,2.7,19.5,2.8c40.3,0.3,73.5-32.5,73.6-72.9
	C202.3,114.5,169.6,81.8,129.2,81.8z"></path>
<path d="M129.5,238.7c-46.3,0-83.9-37.6-83.9-83.9c0-46.3,37.6-83.9,83.9-83.9c46.3,0,83.9,37.6,83.9,83.9
	C213.4,201.1,175.7,238.7,129.5,238.7z M129.5,86.9c-37.4,0-67.9,30.5-67.9,67.9c0,37.4,30.5,67.9,67.9,67.9
	c37.4,0,67.9-30.5,67.9-67.9C197.4,117.3,166.9,86.9,129.5,86.9z M129.5,188.1c-18.4,0-33.3-14.9-33.3-33.3s14.9-33.3,33.3-33.3
	s33.3,14.9,33.3,33.3S147.8,188.1,129.5,188.1z M129.5,137.5c-9.5,0-17.3,7.8-17.3,17.3c0,9.5,7.8,17.3,17.3,17.3
	c9.5,0,17.3-7.8,17.3-17.3C146.8,145.2,139,137.5,129.5,137.5z M382.5,441.1c-46.3,0-83.9-37.6-83.9-83.9
	c0-46.3,37.6-83.9,83.9-83.9c4.4,0,8,3.6,8,8s-3.6,8-8,8c-37.4,0-67.9,30.5-67.9,67.9c0,37.4,30.5,67.9,67.9,67.9
	c37.4,0,67.9-30.5,67.9-67.9c0-4.4,3.6-8,8-8s8,3.6,8,8C466.4,403.5,428.8,441.1,382.5,441.1z M382.5,390.5
	c-18.4,0-33.3-14.9-33.3-33.3c0-18.4,14.9-33.3,33.3-33.3c4.4,0,8,3.6,8,8s-3.6,8-8,8c-9.5,0-17.3,7.8-17.3,17.3s7.8,17.3,17.3,17.3
	s17.3-7.8,17.3-17.3c0-4.4,3.6-8,8-8s8,3.6,8,8C415.8,375.6,400.9,390.5,382.5,390.5z M155.1,429.2l253.1-303.6
	c1.4-1.6,2-3.8,1.8-5.9c-0.2-2.1-1.3-4.1-3-5.4l-19.8-15.9c-3.4-2.8-8.5-2.2-11.2,1.2c-2.8,3.4-2.2,8.5,1.2,11.2l13.4,10.8
	L147.9,412.8l-26.6-22.2L369.2,93.1c2.8-3.4,2.4-8.4-1-11.3c-3.4-2.8-8.4-2.4-11.3,1l-253,303.6c-1.4,1.6-2,3.7-1.8,5.8
	c0.2,2.1,1.2,4.1,2.8,5.4l38.9,32.4c1.5,1.2,3.3,1.9,5.1,1.9C151.2,432,153.5,431.1,155.1,429.2z"></path>
<path fill="#000000" d="M437.8,220.6c-4.2-4.2-4.2-11,0-15.2c4.2-4.2,11-4.2,15.2,0s4.2,11,0,15.2
	C448.8,224.8,442,224.8,437.8,220.6z M72.9,337.4H69v-3.9c0-4.4-3.6-8-8-8s-8,3.6-8,8v3.9h-3.9c-4.4,0-8,3.6-8,8s3.6,8,8,8H53v3.9
	c0,4.4,3.6,8,8,8s8-3.6,8-8v-3.9h3.9c4.4,0,8-3.6,8-8S77.4,337.4,72.9,337.4z M444.8,68.7h3.9v3.9c0,4.4,3.6,8,8,8s8-3.6,8-8v-3.9
	h3.9c4.4,0,8-3.6,8-8s-3.6-8-8-8h-3.9v-3.9c0-4.4-3.6-8-8-8s-8,3.6-8,8v3.9h-3.9c-4.4,0-8,3.6-8,8S440.3,68.7,444.8,68.7z
	 M384.8,289.6h51.5c4.4,0,8-3.6,8-8s-3.6-8-8-8h-51.5c-4.4,0-8,3.6-8,8S380.4,289.6,384.8,289.6z M470.8,323.9h-90.2
	c-4.4,0-8,3.6-8,8s3.6,8,8,8h90.2c4.4,0,8-3.6,8-8S475.2,323.9,470.8,323.9z M252.5,447.2c-4.2,4.2-4.2,11,0,15.2
	c4.2,4.2,11,4.2,15.2,0c4.2-4.2,4.2-11,0-15.2S256.7,443,252.5,447.2z"></path>
</svg>