<svg version="1.1" id="Layer_1" xmlns="http://www.w3.org/2000/svg" xmlns:xlink="http://www.w3.org/1999/xlink" x="0px" y="0px" viewBox="0 0 512 512" enable-background="new 0 0 512 512" xml:space="preserve">
<linearGradient id="SVGID_1_" gradientUnits="userSpaceOnUse" x1="270.3594" y1="434.0222" x2="270.3594" y2="66.6876" class="gradient-element">
	<stop offset="0" class="primary-color-gradient" style="stop-color: #FFA4ED"></stop>
	<stop offset="1" class="secondary-color-gradient" style="stop-color: #DB81DA"></stop>
</linearGradient>
<path fill="url(#SVGID_1_)" d="M452.7,264.7c0,102.1-82.8,184.9-184.9,184.9c-82.2,0-151.9-53.7-175.9-127.9
	c-2.6-12.9-3.9-26.3-3.9-39.9V281c0.1-22.3,31.8-34,42.1-14.2c66,126.3,182.4,121.8,238.2,73c19.3-16.9,39.3-51.5,31.1-103.8
	c-9.7-61.4-53.5-105-113-129.7c-10.4-4.3-10.9-17.4-8-26.2C375.6,85.6,452.7,166.1,452.7,264.7z"></path>
<path d="M462.3,264.8c0,107-87,194-194,194c-103.2,0-188.3-80.7-193.7-183.7c-0.2-4.4,3.2-8.2,7.6-8.4c4.4-0.2,8.2,3.2,8.4,7.6
	c4.9,94.5,83,168.5,177.7,168.5c98.1,0,178-79.8,178-178s-79.8-178-178-178c-91.1,0-167.2,68.2-176.9,158.7
	c-0.5,4.4-4.4,7.6-8.8,7.1c-4.4-0.5-7.6-4.4-7.1-8.8c5.1-47.3,27.4-90.9,62.8-122.9c35.7-32.3,81.9-50,130-50
	C375.3,70.8,462.3,157.9,462.3,264.8z M123.1,264.8c0-80.1,65.1-145.2,145.2-145.2c80.1,0,145.2,65.1,145.2,145.2
	c0,80.1-65.1,145.2-145.2,145.2C188.3,410,123.1,344.9,123.1,264.8z M139.1,264.8c0,71.2,58,129.2,129.2,129.2s129.2-58,129.2-129.2
	s-58-129.2-129.2-129.2S139.1,193.6,139.1,264.8z M219,256.7h3.7v101c0,4.4,3.6,8,8,8s8-3.6,8-8v-101h4.3
	c15.2,0,27.6-12.4,27.6-27.6v-50.9c0-4.4-3.6-8-8-8s-8,3.6-8,8v50.9c0,6.4-5.2,11.6-11.6,11.6h-4.3v-62.5c0-4.4-3.6-8-8-8
	s-8,3.6-8,8v62.5H219c-6.4,0-11.6-5.2-11.6-11.6v-50.9c0-4.4-3.6-8-8-8s-8,3.6-8,8v50.9C191.4,244.3,203.8,256.7,219,256.7z
	 M281.4,236.3v-12.3c0-53.2,38.9-53.8,39.3-53.8c4.4,0,8,3.6,8,8v179.5c0,4.4-3.6,8-8,8s-8-3.6-8-8v-65c-2.4,2.6-6.3,3.5-9.6,1.8
	C281.1,283.2,281.3,241.5,281.4,236.3z M310.3,280.3c0.9,0.5,1.6,1.1,2.3,1.8v-93.5c-6.8,3.5-15.3,12.6-15.3,35.6v12.3
	c0,0.1,0,0.1,0,0.2C297.1,248.5,300,274.9,310.3,280.3z"></path>
<path d="M115.2,244.7c0,4.4-3.6,8-8,8h-43c-4.4,0-8-3.6-8-8s3.6-8,8-8h43C111.6,236.7,115.2,240.2,115.2,244.7z M93.7,274.7
	c0-4.4-3.6-8-8-8H11.9c-4.4,0-8,3.6-8,8s3.6,8,8,8h73.8C90.1,282.7,93.7,279.1,93.7,274.7z M47.5,81.2h15.8V97c0,4.4,3.6,8,8,8
	s8-3.6,8-8V81.2h15.8c4.4,0,8-3.6,8-8s-3.6-8-8-8H79.3V49.4c0-4.4-3.6-8-8-8s-8,3.6-8,8v15.8H47.5c-4.4,0-8,3.6-8,8
	S43.1,81.2,47.5,81.2z M482.8,412.7c-5.9,0-10.8,4.8-10.8,10.8s4.8,10.8,10.8,10.8s10.8-4.8,10.8-10.8S488.8,412.7,482.8,412.7z
	 M36.8,373c0,5.9,4.8,10.8,10.8,10.8s10.8-4.8,10.8-10.8c0-5.9-4.8-10.8-10.8-10.8S36.8,367,36.8,373z M416.9,75.8c4.4,0,8-3.6,8-8
	s-3.6-8-8-8c-5.7,0-10.4-4.7-10.4-10.4S411.1,39,416.9,39c4.4,0,8-3.6,8-8s-3.6-8-8-8c-14.6,0-26.4,11.8-26.4,26.4
	S402.3,75.8,416.9,75.8z M444.6,474.8H261.4c-4.4,0-8,3.6-8,8s3.6,8,8,8h183.3c4.4,0,8-3.6,8-8S449,474.8,444.6,474.8z M104.7,438.4
	H30.9c-4.4,0-8,3.6-8,8s3.6,8,8,8h73.8c4.4,0,8-3.6,8-8S109.1,438.4,104.7,438.4z M489.3,112c0-14.6-11.8-26.4-26.4-26.4
	c-4.4,0-8,3.6-8,8s3.6,8,8,8c5.7,0,10.4,4.7,10.4,10.4s-4.7,10.4-10.4,10.4c-4.4,0-8,3.6-8,8s3.6,8,8,8
	C477.4,138.4,489.3,126.6,489.3,112z"></path>
</svg>