<svg version="1.1" id="Layer_1" xmlns="http://www.w3.org/2000/svg" xmlns:xlink="http://www.w3.org/1999/xlink" x="0px" y="0px" viewBox="0 0 512 512" enable-background="new 0 0 512 512" xml:space="preserve">
<path fill="#000000" d="M501.1,456.2c0,4.4-3.6,8-8,8h-3.9v3.9c0,4.4-3.6,8-8,8s-8-3.6-8-8v-3.9h-3.9c-4.4,0-8-3.6-8-8s3.6-8,8-8
	h3.9v-3.9c0-4.4,3.6-8,8-8s8,3.6,8,8v3.9h3.9C497.5,448.2,501.1,451.8,501.1,456.2z M185.6,464.8h-43c-4.4,0-8,3.6-8,8s3.6,8,8,8h43
	c4.4,0,8-3.6,8-8S190,464.8,185.6,464.8z M488,122.3c4.2-4.2,4.2-11,0-15.2c-4.2-4.2-11-4.2-15.2,0c-4.2,4.2-4.2,11,0,15.2
	C477,126.5,483.8,126.5,488,122.3z M394.7,38.5h-15.8V22.7c0-4.4-3.6-8-8-8s-8,3.6-8,8v15.8h-15.8c-4.4,0-8,3.6-8,8s3.6,8,8,8h15.8
	v15.8c0,4.4,3.6,8,8,8s8-3.6,8-8V54.5h15.8c4.4,0,8-3.6,8-8S399.1,38.5,394.7,38.5z M26.1,24c-4.2,4.2-4.2,11,0,15.2
	c4.2,4.2,11,4.2,15.2,0c4.2-4.2,4.2-11,0-15.2C37.1,19.8,30.3,19.8,26.1,24z"></path>
<g>
	<path fill="#DB81DA" class="secondary-color" d="M358,444.9v44.6h-41.3v-44.6H358z M373.6,444.9v44.6h41.3v-44.6H373.6z"></path>
	<path fill="#DB81DA" class="secondary-color" d="M12,496.5V416l40.3,40.3L12,496.5z"></path>
	<path fill="#FFA4ED" class="primary-color" d="M102.2,11.5h77.3V34h-77.3V11.5z"></path>
</g>
<linearGradient id="SVGID_1_" gradientUnits="userSpaceOnUse" x1="347.8296" y1="406.6116" x2="342.2937" y2="106.566" class="gradient-element">
	<stop offset="0" class="primary-color-gradient" style="stop-color: #FFA4ED"></stop>
	<stop offset="1" class="secondary-color-gradient" style="stop-color: #DB81DA"></stop>
</linearGradient>
<path fill="url(#SVGID_1_)" d="M430.6,257.6c0,93.3-55.4,152.1-121.2,171.3c-23.7,6.9-47.4-11-47.4-35.7v-6.6
	c0-16.4,10.7-31.1,26.4-35.7c40.4-11.8,70-49.2,70-93.3c0-44.2-29.6-81.6-70-93.3c-15.7-4.6-26.4-19.2-26.4-35.6v-8.2
	c0-23.6,21.8-41.4,44.8-36.3C373.8,98.9,430.6,149.1,430.6,257.6z"></path>
<path d="M261.3,362.8c58,0,105.2-47.2,105.2-105.2s-47.2-105.2-105.2-105.2s-105.2,47.2-105.2,105.2S203.3,362.8,261.3,362.8z
	 M261.3,168.5c49.2,0,89.2,40,89.2,89.2c0,49.2-40,89.2-89.2,89.2c-49.2,0-89.2-40-89.2-89.2C172.1,208.5,212.1,168.5,261.3,168.5z
	 M475.6,129v147.6c0,15.3-7.8,33.9-25,43.6L449.8,425c0,4.4-3.6,7.9-8,7.9c0,0,0,0,0,0l-27.4-0.1c-2.1,0-4.2-0.9-5.6-2.4
	c-1.5-1.5-2.3-3.5-2.3-5.7l0.2-50.9c-14.3,17.8-31.9,33-51.7,44.6c-28.3,16.5-60.7,25.2-93.6,25.2c-57.9,0-112.2-27.2-147.1-72.3
	v51.9c0,4.4-3.6,8-8,8h-31c-4.4,0-8-3.6-8-8V232.1c-22.7-4.4-38.4-24.3-38.4-49.9V86.4c0-4.4,3.6-8,8-8h19.8c4.4,0,8,3.6,8,8
	s-3.6,8-8,8H44.8v87.8c0,19.8,12.6,34.1,30.7,34.8c5.2,0.2,8,4.3,8,8c0,0.7-0.1,1.4-0.3,2.1v188.2h15v-70.5c0-3.6,2.4-6.8,5.9-7.7
	c3.5-0.9,7.2,0.6,9,3.8c0,0.1,0.1,0.2,0.1,0.3c30.1,53.4,86.8,86.6,148,86.6c59.9,0,116-32.1,146.6-83.7c1.8-3.1,5.5-4.6,9-3.6
	c3.5,1,5.9,4.1,5.9,7.8l-0.3,68.7l11.5,0.1l0.8-101.8c0-3.4,2.1-6.2,5.1-7.4c15.7-6.7,19.9-22.7,19.9-31.1V129c0-31.1-11-37-31.2-37
	h-4.4l-0.3,76.6c0,3.6-2.5,6.8-5.9,7.7c-3.5,0.9-7.2-0.6-9-3.7c-30.4-52.5-86.9-85.1-147.4-85.1c-28.2,0-56,7-80.5,20.3
	c-3.9,2.1-8.7,0.7-10.8-3.2c-2.1-3.9-0.7-8.7,3.2-10.8c26.8-14.6,57.3-22.3,88.1-22.3c33.2,0,65.8,8.9,94.3,25.7
	c20.1,11.8,37.8,27.3,52.1,45.6l0.3-58.7c0-4.4,3.6-8,8-8h12.4C461,76,475.6,92.3,475.6,129z M71.4,170.3V86.4c0-4.4,3.6-8,8-8h31.8
	c4.4,0,8,3.6,8,8v83.8c0,4.4-3.6,8-8,8s-8-3.6-8-8V94.4H87.4v75.9c0,4.4-3.6,8-8,8S71.4,174.7,71.4,170.3z M125.4,86.3
	c0-4.4,3.6-8,8-8h18.8c4.4,0,8,3.6,8,8v95.8c0,25.1-18.1,46-42.1,50.2c-0.3,1.8-0.6,3.5-0.8,5.1c-0.9,6.9-1.3,13.7-1.3,20.2
	c0,4.4-3.6,8-8,8s-8-3.6-8-8c0-7.2,0.5-14.6,1.4-22.2c0.5-3.9,1.2-7.9,2.3-12.2c0.8-3.5,3.8-6,7.4-6.2c18.6-0.9,33.2-16.2,33.2-34.9
	V94.3h-10.8C129,94.3,125.4,90.8,125.4,86.3z"></path>
</svg>