<svg version="1.1" id="Layer_1" xmlns="http://www.w3.org/2000/svg" xmlns:xlink="http://www.w3.org/1999/xlink" x="0px" y="0px" viewBox="0 0 512 512" enable-background="new 0 0 512 512" xml:space="preserve">
<linearGradient id="SVGID_1_" gradientUnits="userSpaceOnUse" x1="180.4294" y1="267.9202" x2="426.0085" y2="267.9202" class="gradient-element">
	<stop offset="0" class="primary-color-gradient" style="stop-color: #FFA4ED"></stop>
	<stop offset="1" class="secondary-color-gradient" style="stop-color: #DB81DA"></stop>
</linearGradient>
<path fill="url(#SVGID_1_)" d="M426,243.1h-35.2c-16.2,0-24.1,12.2-41.8,42.2c-5.1,8.6-10.7,18-17.3,28.2
	c-14,21.6-28.4,34.2-41.2,45.3c-19.9,17.4-37.2,32.5-52.7,78.8l-2.9,8.6h-21.7c-13.9,0-26-7.4-32.7-18.5l1.3-3.8
	c15.6-46.3,32.8-61.3,52.7-78.8c12.8-11.2,27.2-23.8,41.2-45.4c6.6-10.2,12.2-19.6,17.3-28.2c6.3-10.6,11.3-19,16-25.4
	c1.4-2,13.9-47.9,13.9-47.9v-58c0-28,22.7-50.8,50.8-50.8H426V243.1z"></path>
<path d="M234.8,454.2h-21.7c-25.4,0-46.1-20.7-46.1-46c0-41.6,24.2-79.5,42.5-104.4c2.6-3.6,7.6-4.3,11.2-1.7s4.3,7.6,1.7,11.2
	c-16.9,23.1-39.4,58.1-39.4,95c0,16.6,13.5,30,30.1,30H229l1.1-3.2c16.3-48.3,35.1-64.8,55-82.2c12.4-10.8,26.4-23.1,39.8-43.7
	c6.6-10.2,12.5-20,17.1-27.9c17.6-29.7,27.4-46.1,48.8-46.1H429c4.4,0,8,3.6,8,8s-3.6,8-8,8h-38.1c-11.1,0-16.9,7.7-35.1,38.3
	c-4.8,8-10.7,18-17.5,28.5c-14.6,22.5-29.5,35.5-42.6,47c-19.9,17.3-35.5,31-50.4,75.3l-2.9,8.6C241.3,452,238.2,454.2,234.8,454.2z
	 M86.2,293.8c-11,0-23.4,0-33.6-4.4c-13.1-5.6-19.7-17-19.7-33.7c0-27.5,12.2-41.8,25.9-45.2L82,123.7
	c12.7-50.9,31.5-66.4,80.4-66.4h101.6c44,0,68.4,9.1,87.9,16.4c14,5.2,24.1,9,39,9H429c4.4,0,8,3.6,8,8V205c0,4.4-3.6,8-8,8
	s-8-3.6-8-8V98.7h-30.1c-17.8,0-30.2-4.6-44.5-10c-18.4-6.9-41.3-15.4-82.4-15.4H162.3c-21.7,0-34.8,3.2-43.7,10.6
	c-6.1,5.1-11,12.7-15.3,24.2h60.1c4.4,0,8,3.6,8,8s-3.6,8-8,8h-65c-0.3,1.2-0.6,2.3-0.9,3.6c0,0,0,0.1,0,0.1l-8.3,31.1h63.7
	c4.4,0,8,3.6,8,8s-3.6,8-8,8H84.9l-9.3,34.8H140c4.4,0,8,3.6,8,8c0,4.4-3.6,8-8,8H67c-0.3,0-0.6,0-0.9-0.1c-0.3,0-0.6,0.1-0.9,0.1
	c-9.6,0-16.3,12.3-16.3,29.9c0,13,5.1,16.9,10.1,19c7.2,3.1,17.4,3.1,27.3,3.1c0.1,0,0.1,0,0.2,0h164.8c4.4,0,8,3.6,8,8s-3.6,8-8,8
	H86.4C86.4,293.8,86.3,293.8,86.2,293.8z"></path>
<path d="M454.7,251.1h-57.4c-4.4,0-8-3.6-8-8s3.6-8,8-8h57.4c4.4,0,8,3.6,8,8S459.1,251.1,454.7,251.1z M398.8,205c0,4.4,3.6,8,8,8
	h79.5c4.4,0,8-3.6,8-8s-3.6-8-8-8h-79.5C402.4,197,398.8,200.5,398.8,205z M111.3,422.6c-20.3,0-36.8,16.5-36.8,36.8
	c0,4.4,3.6,8,8,8s8-3.6,8-8c0-11.4,9.3-20.8,20.8-20.8c4.4,0,8-3.6,8-8S115.7,422.6,111.3,422.6z M32.5,422.6c-4.4,0-8,3.6-8,8
	s3.6,8,8,8c11.4,0,20.7,9.3,20.7,20.8c0,4.4,3.6,8,8,8s8-3.6,8-8C69.3,439.1,52.8,422.6,32.5,422.6z M61.3,372.6c-4.4,0-8,3.6-8,8
	c0,11.4-9.3,20.8-20.7,20.8c-4.4,0-8,3.6-8,8s3.6,8,8,8c20.3,0,36.7-16.5,36.7-36.8C69.3,376.2,65.7,372.6,61.3,372.6z M111.3,401.4
	c-11.4,0-20.8-9.3-20.8-20.8c0-4.4-3.6-8-8-8s-8,3.6-8,8c0,20.3,16.5,36.8,36.8,36.8c4.4,0,8-3.6,8-8S115.7,401.4,111.3,401.4z
	 M359.1,344.3c-3.1,3.1-3.1,8.2,0,11.3c4.1,4.1,4.1,10.6,0,14.7c-4.1,4.1-10.6,4.1-14.7,0c-3.1-3.1-8.2-3.1-11.3,0
	c-3.1,3.1-3.1,8.2,0,11.3c5.1,5.1,11.9,7.7,18.7,7.7s13.5-2.6,18.7-7.7c10.3-10.3,10.3-27,0-37.3
	C367.3,341.2,362.3,341.2,359.1,344.3z M134.2,323H30.9c-4.4,0-8,3.6-8,8s3.6,8,8,8h103.3c4.4,0,8-3.6,8-8S138.6,323,134.2,323z
	 M492.5,286.2h-56.3c-4.4,0-8,3.6-8,8s3.6,8,8,8h56.3c4.4,0,8-3.6,8-8S496.9,286.2,492.5,286.2z M476.9,50.2c0-5,4.1-9,9-9
	s9,4.1,9,9s-4.1,9-9,9S476.9,55.1,476.9,50.2z M446.9,50.2c0-5,4.1-9,9-9s9,4.1,9,9s-4.1,9-9,9S446.9,55.1,446.9,50.2z M416.9,50.2
	c0-5,4.1-9,9-9s9,4.1,9,9s-4.1,9-9,9S416.9,55.1,416.9,50.2z M386.9,50.2c0-5,4.1-9,9-9s9,4.1,9,9s-4.1,9-9,9S386.9,55.1,386.9,50.2
	z"></path>
<g>
	<path fill="#DB81DA" class="secondary-color" d="M82.3,20.5L21.4,81.5V20.5H82.3z"></path>
	<path fill="#FFA4ED" class="primary-color" d="M436.2,417.7v-45.3h45.3v45.3H436.2z M481.5,485.8v-45.3h-45.3v45.3H481.5z M411.9,485.8v-45.3h-45.3v45.3
		H411.9z"></path>
</g>
</svg>