<svg version="1.1" id="Layer_1" xmlns="http://www.w3.org/2000/svg" xmlns:xlink="http://www.w3.org/1999/xlink" x="0px" y="0px" viewBox="0 0 512 512" enable-background="new 0 0 512 512" xml:space="preserve">
<linearGradient id="SVGID_1_" gradientUnits="userSpaceOnUse" x1="256" y1="422.361" x2="256" y2="108.2591" class="gradient-element">
	<stop offset="0" class="primary-color-gradient" style="stop-color: #FFA4ED"></stop>
	<stop offset="1" class="secondary-color-gradient" style="stop-color: #DB81DA"></stop>
</linearGradient>
<path fill="url(#SVGID_1_)" d="M403.3,237.3v44.3c0,4.9-4.6,8.8-10.2,8.8H112c-5.7,0-2.2-8.9-2.3-13.7c0-4.9,4.6-4.9,10.2-4.9h211.7
	c9.7,0,10.2-7.9,10.2-12.7v-1.5c0-11.1,10.5-20.2,23.5-20.2H393C398.7,237.3,403.3,232.5,403.3,237.3z M239.2,195.5
	c4.8,1.8,10,2.7,15.4,2.7c25,0,45.4-20.4,45.4-45.4c0-25-20.4-45.4-45.4-45.4c-5.4,0-10.6,1-15.4,2.7c17.5,6.3,30,23.1,30,42.7
	C269.2,172.4,256.7,189.2,239.2,195.5z M255.8,331.6c-4.9,0-9.7,1-14.1,2.7c16,6.3,27.5,23.1,27.5,42.7c0,19.6-11.5,36.4-27.5,42.7
	c4.4,1.8,9.1,2.7,14.1,2.7c22.9,0,41.6-20.4,41.6-45.4C297.4,352,278.7,331.6,255.8,331.6z"></path>
<path fill="#FFA4ED" class="primary-color" d="M88.1,24.9L27.2,85.9V24.9H88.1z"></path>
<path d="M490,471.5c0,4.4-3.6,8-8,8h-57.4c-4.4,0-8-3.6-8-8s3.6-8,8-8H482C486.5,463.5,490,467.1,490,471.5z M440.4,422.8
	c0-4.4-3.6-8-8-8H375c-4.4,0-8,3.6-8,8s3.6,8,8,8h57.4C436.8,430.8,440.4,427.2,440.4,422.8z M354.4,143.6h-86.8c-4.4,0-8,3.6-8,8
	s3.6,8,8,8h86.8c4.4,0,8-3.6,8-8S358.8,143.6,354.4,143.6z M476.8,97.5c5,0,9-4.1,9-9s-4.1-9-9-9s-9,4.1-9,9S471.9,97.5,476.8,97.5z
	 M476.8,127.5c5,0,9-4.1,9-9s-4.1-9-9-9s-9,4.1-9,9S471.9,127.5,476.8,127.5z M476.8,37.5c5,0,9-4.1,9-9s-4.1-9-9-9s-9,4.1-9,9
	S471.9,37.5,476.8,37.5z M476.8,67.9c5,0,9-4.1,9-9s-4.1-9-9-9s-9,4.1-9,9S471.9,67.9,476.8,67.9z M446.2,79.5c-4.9,0-9,4-9,9
	s4,9,9,9c4.9,0,9-4,9-9S451.1,79.5,446.2,79.5z M446.2,49.9c-4.9,0-9,4-9,9s4,9,9,9c4.9,0,9-4,9-9S451.1,49.9,446.2,49.9z
	 M446.2,37.5c5,0,9-4.1,9-9s-4.1-9-9-9s-9,4.1-9,9S441.2,37.5,446.2,37.5z M64.2,442.7c4.4,0,8-3.6,8-8s-3.6-8-8-8
	c-14.6,0-26.4,11.8-26.4,26.4s11.8,26.4,26.4,26.4c4.4,0,8-3.6,8-8s-3.6-8-8-8c-5.7,0-10.4-4.7-10.4-10.4S58.5,442.7,64.2,442.7z
	 M163.8,50.3c-3.1-3.1-8.2-3.1-11.3,0l-2.8,2.8l-2.8-2.8c-3.1-3.1-8.2-3.1-11.3,0c-3.1,3.1-3.1,8.2,0,11.3l2.8,2.8l-2.8,2.8
	c-3.1,3.1-3.1,8.2,0,11.3c1.6,1.6,3.6,2.3,5.7,2.3s4.1-0.8,5.7-2.3l2.8-2.8l2.8,2.8c1.6,1.6,3.6,2.3,5.7,2.3s4.1-0.8,5.7-2.3
	c3.1-3.1,3.1-8.2,0-11.3l-2.8-2.8l2.8-2.8C166.9,58.5,166.9,53.4,163.8,50.3z"></path>
<path d="M413.1,264.2v32.2c0,5.2-4.2,9.4-9.4,9.4H108.3c-5.2,0-9.4-4.2-9.4-9.4V232c0-5.2,4.2-9.4,9.4-9.4h295.4
	c5.2,0,9.4,4.2,9.4,9.4s-4.2,9.4-9.4,9.4h-286V287h276.6v-22.8c0-5.2,4.2-9.4,9.4-9.4S413.1,259,413.1,264.2z M256,206.1
	c24,0,45.2-16.2,51.5-39.3c1.2-4.5,1.9-9.2,1.9-14c0-5.2-4.2-9.4-9.4-9.4s-9.4,4.2-9.4,9.4c0,3.1-0.4,6.1-1.2,9.1
	c-4.1,15-17.8,25.5-33.4,25.5c-19.1,0-34.6-15.5-34.6-34.6s15.5-34.6,34.6-34.6c10.9,0,21,5,27.6,13.7c3.1,4.1,9,4.9,13.1,1.8
	c4.1-3.1,4.9-9,1.8-13.1c-10.2-13.4-25.7-21.1-42.5-21.1c-29.4,0-53.3,23.9-53.3,53.3C202.7,182.2,226.6,206.1,256,206.1z
	 M309.3,378.8c0,29.4-23.9,53.3-53.3,53.3s-53.3-23.9-53.3-53.3s23.9-53.3,53.3-53.3S309.3,349.4,309.3,378.8z M290.6,378.8
	c0-19.1-15.5-34.6-34.6-34.6s-34.6,15.5-34.6,34.6s15.5,34.6,34.6,34.6S290.6,397.9,290.6,378.8z"></path>
</svg>