<svg version="1.1" id="Layer_1" xmlns="http://www.w3.org/2000/svg" xmlns:xlink="http://www.w3.org/1999/xlink" x="0px" y="0px" viewBox="0 0 512 512" enable-background="new 0 0 512 512" xml:space="preserve">
<g>
	<linearGradient id="SVGID_1_" gradientUnits="userSpaceOnUse" x1="406.5063" y1="256.9677" x2="264.7923" y2="256.9677" class="gradient-element">
		<stop offset="0" class="primary-color-gradient" style="stop-color: #FFA4ED"></stop>
		<stop offset="1" class="secondary-color-gradient" style="stop-color: #DB81DA"></stop>
	</linearGradient>
	<path fill="url(#SVGID_1_)" d="M399.4,251.7c-8.4,70.3-60.7,83.4-83.8,90.1c10.5-0.1,20.5-1.8,27.9-6.1c24.8-14.5-0.6,9.3-0.6,9.3
		l-34.2,63L272,346l-7.8-11.7c0,0,19.7,5.7,40.9,7.2v-226c0,0-3.4-7.4,0-9.4c3.4-1.9,94.4,10.6,94.4,10.6S408.9,172.9,399.4,251.7z"></path>
	<linearGradient id="SVGID_2_" gradientUnits="userSpaceOnUse" x1="307.9395" y1="490.9592" x2="307.9395" y2="353.4968">
		<stop offset="0" class="primary-color-gradient" style="stop-color: #FFA4ED"></stop>
		<stop offset="1" class="secondary-color-gradient" style="stop-color: #DB81DA"></stop>
	</linearGradient>
	<path fill="url(#SVGID_2_)" d="M381.8,369.2V491l-95.8,0h-51.8V373.3l38.7-19.8l32.6,54.5l38.2-54.5l23.6,10.4L381.8,369.2z"></path>
</g>
<path d="M176.7,204.1c0,4.4-3.6,8-8,8H67.6c-4.4,0-8-3.6-8-8s3.6-8,8-8h101.1C173.1,196.1,176.7,199.7,176.7,204.1z M459,273.3h-3.9
	v-3.9c0-4.4-3.6-8-8-8s-8,3.6-8,8v3.9h-3.9c-4.4,0-8,3.6-8,8s3.6,8,8,8h3.9v3.9c0,4.4,3.6,8,8,8s8-3.6,8-8v-3.9h3.9c4.4,0,8-3.6,8-8
	S463.4,273.3,459,273.3z M466.6,69.1c4.2-4.2,4.2-11,0-15.2c-4.2-4.2-11-4.2-15.2,0c-4.2,4.2-4.2,11,0,15.2
	C455.6,73.3,462.4,73.3,466.6,69.1z M55.9,91.3c4.4,0,8-3.6,8-8s-3.6-8-8-8c-5.7,0-10.4-4.7-10.4-10.4s4.7-10.4,10.4-10.4
	c4.4,0,8-3.6,8-8s-3.6-8-8-8c-14.6,0-26.4,11.8-26.4,26.4S41.4,91.3,55.9,91.3z M119.9,417.3H77c-4.4,0-8,3.6-8,8s3.6,8,8,8h43
	c4.4,0,8-3.6,8-8S124.4,417.3,119.9,417.3z M98.5,447.3H24.7c-4.4,0-8,3.6-8,8s3.6,8,8,8h73.8c4.4,0,8-3.6,8-8
	S102.9,447.3,98.5,447.3z M42.1,373c-3.6,0-6.5,2.9-6.5,6.5s2.9,6.5,6.5,6.5h35.1c3.6,0,6.5-2.9,6.5-6.5s-2.9-6.5-6.5-6.5H42.1z
	 M35.3,312.2c20.3,0,36.7-16.5,36.7-36.8c0-4.4-3.6-8-8-8s-8,3.6-8,8c0,11.4-9.3,20.8-20.7,20.8c-4.4,0-8,3.6-8,8
	S30.9,312.2,35.3,312.2z M114,312.2c4.4,0,8-3.6,8-8s-3.6-8-8-8c-11.4,0-20.8-9.3-20.8-20.8c0-4.4-3.6-8-8-8s-8,3.6-8,8
	C77.3,295.7,93.8,312.2,114,312.2z M85.3,362.2c4.4,0,8-3.6,8-8c0-11.4,9.3-20.8,20.8-20.8c4.4,0,8-3.6,8-8s-3.6-8-8-8
	c-20.3,0-36.8,16.5-36.8,36.8C77.3,358.6,80.9,362.2,85.3,362.2z M35.3,333.5c11.4,0,20.7,9.3,20.7,20.8c0,4.4,3.6,8,8,8s8-3.6,8-8
	c0-20.3-16.5-36.8-36.7-36.8c-4.4,0-8,3.6-8,8S30.9,333.5,35.3,333.5z M30.9,168.2c0,4.4,3.6,8,8,8h66.9c4.4,0,8-3.6,8-8s-3.6-8-8-8
	H38.9C34.5,160.2,30.9,163.8,30.9,168.2z M168.7,59.4h-3.9v-3.9c0-4.4-3.6-8-8-8s-8,3.6-8,8v3.9h-3.9c-4.4,0-8,3.6-8,8s3.6,8,8,8
	h3.9v3.9c0,4.4,3.6,8,8,8s8-3.6,8-8v-3.9h3.9c4.4,0,8-3.6,8-8S173.1,59.4,168.7,59.4z"></path>
<path d="M499.8,447.5c-7.8-20.2-24.6-47.1-60.6-64.4c-2-1.8-4.3-3.4-6.8-4.7c-0.1,0-0.2-0.1-0.3-0.1l-47-21.6
	c-2.5-1.1-5.4-0.9-7.7,0.5c-1,0.6-1.8,1.5-2.4,2.5c-12.5-4.4-23.5-8.6-27.1-10.9c-0.9-0.6-1.8-0.9-2.8-1.1
	c13.3-4.8,25.3-12.6,35.8-23.3c15.8-16,24.8-35.1,29.6-48.4c3.2-8.9,4.9-18.2,4.9-27.8V110.9c0-2.6-1.3-5.1-3.5-6.6
	c-2.2-1.5-4.9-1.8-7.4-0.9c-17.3,6.6-34.2,2.4-52-2.1c-23.3-5.8-49.7-12.4-77.6,7.3c-3.6,2.6-4.5,7.6-1.9,11.2
	c2.6,3.6,7.5,4.5,11.2,1.9c21.9-15.5,41.6-10.6,64.4-4.9c16.2,4.1,32.9,8.2,50.8,4.6v126.7c0,7.7-1.3,15.2-3.9,22.3
	c-9.1,25-32.3,67.1-85.9,67.1c-52.6,0-76.1-38.9-85.5-62.1c-3.1-7.7-4.6-15.8-4.6-24.3V123c0-18.4,10.9-31.6,20-39.5
	c20.3-17.5,51.2-25.6,80.7-21.2c10.2,1.5,19.5,4.2,28.5,6.7c22.5,6.4,43.8,12.4,72.4,0.5c4.1-1.7,6-6.4,4.3-10.5s-6.4-6-10.5-4.3
	c-23.5,9.8-40.4,5-61.9-1.1c-9.5-2.7-19.3-5.5-30.5-7.1c-33.9-5.1-69.8,4.4-93.5,24.9c-16.5,14.2-25.6,32.5-25.6,51.6v128.2
	c0,10.5,1.9,20.7,5.8,30.2c5,12.6,14.4,30.6,30.4,45.5c9,8.3,19,14.7,29.9,19.2c-0.2,0.1-0.5,0.2-0.7,0.4c-3.6,2-15.2,7-28.5,12.5
	c-0.5-0.7-1.2-1.3-1.9-1.8c-2.3-1.5-5.2-1.7-7.7-0.5l-47,21.6c-0.1,0-0.2,0.1-0.3,0.1c-4.6,2.3-8.4,5.6-11.2,9.6
	c-29.7,17.2-44.2,41.1-51.3,59.5c-9.1,23.5-8.3,43.1-8.2,43.9c0.2,4.4,4,7.8,8.4,7.6c4.4-0.2,7.8-3.9,7.6-8.4
	c0-0.2-0.7-17.5,7.4-37.9c6.6-16.8,16.9-30.7,30.8-41.7l19.4,81.9c0.9,3.7,4.2,6.2,7.8,6.2c0.6,0,1.2-0.1,1.9-0.2
	c4.3-1,7-5.3,5.9-9.6l-19.5-82.2c-0.1-2.4,0.4-4.8,1.4-7c3.9-2.1,8-4,12.3-5.8c2.2-0.9,5.3-2.1,9.1-3.6c7-2.8,14.1-5.7,21-8.5V491
	c0,4.4,3.6,8,8,8s8-3.6,8-8V375.6c11.4-4.7,21.3-8.8,27.9-11.8l32.2,48.7c1.5,2.2,4,3.6,6.7,3.6c0,0,0,0,0,0c2.7,0,5.2-1.3,6.7-3.6
	l30.8-46.6c6.4,2.8,15.6,6.2,27.4,10.3V491c0,4.4,3.6,8,8,8s8-3.6,8-8V381.7c0.3,0.1,0.6,0.2,1,0.3c13.4,4.6,26.1,8.9,34,12.1
	c1.8,0.7,3.5,1.5,5.2,2.2c2.5,2.9,3.8,6.6,3.7,10.5l-19.5,82.2c-1,4.3,1.6,8.6,5.9,9.6c0.6,0.1,1.2,0.2,1.9,0.2
	c3.6,0,6.9-2.5,7.8-6.2l19.7-82.9c0.1-0.4,0.2-0.8,0.2-1.3c0-0.3,0-0.7,0-1c16.1,11.4,27.8,26.5,35.1,45c8.1,20.5,7.4,37.8,7.4,37.9
	c-0.2,4.4,3.2,8.1,7.6,8.4c0.1,0,0.3,0,0.4,0c4.2,0,7.8-3.3,8-7.6C508.1,490.5,508.9,471,499.8,447.5z M308.8,393.5l-29-43.9
	c9.3,2.6,19.3,4,29.8,4c9.9,0,19.3-1.2,28.2-3.7c-0.3,0.3-0.6,0.7-0.9,1.1L308.8,393.5z M357.3,459.6h15.8v16h-15.8v15.8h-16v-15.8
	h-15.8v-16h15.8v-15.8h16V459.6z"></path>
</svg>