<svg version="1.1" id="Layer_1" xmlns="http://www.w3.org/2000/svg" xmlns:xlink="http://www.w3.org/1999/xlink" x="0px" y="0px" viewBox="0 0 512 512" enable-background="new 0 0 512 512" xml:space="preserve">
<g>
	<path fill="#DB81DA" class="secondary-color" d="M17.7,424.8h21.8v56.9H17.7V424.8z"></path>
	<path fill="#DB81DA" class="secondary-color" d="M421.3,457.7h56.9v21.8h-56.9V457.7z M421.3,25.9v21.8h35.1v36.9h21.8V47.7v-20v-1.8H421.3z"></path>
</g>
<path d="M488.3,371.8c0,4.4-3.6,8-8,8h-15.8v15.8c0,4.4-3.6,8-8,8s-8-3.6-8-8v-15.8h-15.8c-4.4,0-8-3.6-8-8s3.6-8,8-8h15.8v-15.8
	c0-4.4,3.6-8,8-8s8,3.6,8,8v15.8h15.8C484.7,363.8,488.3,367.4,488.3,371.8z M116.2,26.6H42.4c-4.4,0-8,3.6-8,8s3.6,8,8,8h73.8
	c4.4,0,8-3.6,8-8S120.7,26.6,116.2,26.6z M74.2,321.1c4.4,0,8-3.6,8-8s-3.6-8-8-8c-14.6,0-26.4,11.8-26.4,26.4s11.8,26.4,26.4,26.4
	c4.4,0,8-3.6,8-8s-3.6-8-8-8c-5.7,0-10.4-4.7-10.4-10.4S68.4,321.1,74.2,321.1z M216.5,36.8c0,5-4.1,9-9,9s-9-4.1-9-9s4.1-9,9-9
	S216.5,31.8,216.5,36.8z M246.5,36.8c0,5-4.1,9-9,9s-9-4.1-9-9s4.1-9,9-9S246.5,31.8,246.5,36.8z M276.5,36.8c0,5-4.1,9-9,9
	s-9-4.1-9-9s4.1-9,9-9S276.5,31.8,276.5,36.8z"></path>
<linearGradient id="SVGID_1_" gradientUnits="userSpaceOnUse" x1="260.3802" y1="320.978" x2="261.5171" y2="29.9464" class="gradient-element">
	<stop offset="0" class="primary-color-gradient" style="stop-color: #FFA4ED"></stop>
	<stop offset="1" class="secondary-color-gradient" style="stop-color: #DB81DA"></stop>
</linearGradient>
<path fill="url(#SVGID_1_)" d="M395.4,349.6c0,5.4-0.4,13.3-1.8,22.3c-8.4-44.3-24.6-65.1-89.3-78.7c-34.1-7.2-43.4-20.4-43.4-45.6
	s0-142.5,0-142.5c19.2,0,40,2.9,58.5,9.8c8.1,3,15.7,6.7,22.9,11.6c12.8,8.7,22.9,20.5,28,35.8C383.2,201.1,395.4,324.5,395.4,349.6
	z M126.4,56.1c-13.1,0-24.1,8.3-32.3,15.5c-31.9,28.1-65.5,97.6-65.5,119c0,18.9,17.8,36.7,36.7,36.7c12.3,0,18.4-11,26.7-26.2
	c9.5-17.4,24-43.6,54.1-73.7c16.4-16.4,29.9-24.8,40.6-28.4c-5.3-5.4-10.6-10.7-14.6-14.7C158.1,70,143.2,56.1,126.4,56.1z
	 M349.7,84.3c-3.9,4-9.2,9.4-14.6,14.7c10.7,3.6,24.2,12,40.6,28.4c30.1,30.1,44.5,56.3,54,73.7c8.4,15.2,14.4,26.2,26.7,26.2
	c18.9,0,36.7-17.8,36.7-36.7c0-21.4-33.7-90.9-65.5-119c-8.2-7.2-19.2-15.5-32.3-15.5C378.6,56.1,363.6,70,349.7,84.3z"></path>
<path d="M260.9,479.8c-56.2,0-96.8-18.1-120.7-53.9c-19-28.4-21.8-60-21.8-76.3c0-23.7,10.5-144.9,24.7-187.5
	c1.4-4.2,5.9-6.5,10.1-5.1c4.2,1.4,6.5,5.9,5.1,10.1c-13.7,41.2-23.9,159.3-23.9,182.4c0,34.4,12.3,114.3,126.5,114.3
	s126.5-79.9,126.5-114.3c0-24.8-12-146.6-24.7-184.7c-1.4-4.2,0.9-8.7,5.1-10.1c4.2-1.4,8.7,0.9,10.1,5.1
	c13.1,39.4,25.5,164.4,25.5,189.8c0,16.3-2.8,47.9-21.8,76.3C357.7,461.7,317.1,479.8,260.9,479.8z M273.1,455c-4.4,0-8-3.6-8-8
	v-49.6c0-3.9,2.8-7.2,6.6-7.9c20.8-3.6,42.3-17.8,42.3-35.2c0-17.6-20.3-21.2-53.1-21.2s-53.1,3.5-53.1,21.2
	c0,17.4,21.5,31.6,42.3,35.2c3.8,0.7,6.6,4,6.6,7.9V447c0,4.4-3.6,8-8,8s-8-3.6-8-8v-43.2c-25.3-6.5-48.9-24.6-48.9-49.5
	c0-11.4,4.8-26.5,27.7-33.2c13.5-4,29.6-4,41.4-4s27.9,0,41.4,4c22.9,6.7,27.7,21.8,27.7,33.2c0,25-23.6,43.1-48.9,49.5V447
	C281.1,451.4,277.5,455,273.1,455z M309.8,273.8c-6.4,0-21.4-2.7-21.4-28.2c0-25.4,15-28.2,21.4-28.2s21.4,2.7,21.4,28.2
	C331.2,271.1,316.2,273.8,309.8,273.8z M309.8,233.5c-1.8,0-5.4,0-5.4,12.2c0,12.2,3.7,12.2,5.4,12.2c1.8,0,5.4,0,5.4-12.2
	C315.2,233.5,311.6,233.5,309.8,233.5z M212,273.8c-6.4,0-21.4-2.7-21.4-28.2c0-25.4,15-28.2,21.4-28.2s21.4,2.7,21.4,28.2
	C233.4,271.1,218.4,273.8,212,273.8z M212,233.5c-1.8,0-5.4,0-5.4,12.2c0,12.2,3.7,12.2,5.4,12.2s5.4,0,5.4-12.2
	C217.4,233.5,213.8,233.5,212,233.5z M456.5,235.3c-17,0-24.8-14.1-33.7-30.3c-9.3-17-23.4-42.6-52.7-71.9c-3.1-3.1-3.1-8.2,0-11.3
	c3.1-3.1,8.2-3.1,11.3,0c30.9,30.9,45.7,57.8,55.4,75.5c8.2,14.9,12.5,22.1,19.7,22.1c14.5,0,28.7-14.2,28.7-28.7
	c0-18.1-31.5-85.4-62.8-113c-7.1-6.3-16.6-13.5-27-13.5c-13.6,0-27.2,12.7-40,25.7c-9.2,9.4-25.6,25.8-30.4,30.6
	c-2.2,2.2-5.5,2.9-8.5,1.8c-20.6-7.7-41.7-9.3-55.7-9.3c-13.9,0-34.8,1.7-55.4,9.5c-3,1.1-6.3,0.4-8.5-1.8
	c-4.8-4.9-21.4-21.4-30.6-30.9c-12.7-13-26.3-25.7-40-25.7c-10.4,0-19.9,7.2-27,13.5c-31.3,27.6-62.8,94.9-62.8,113
	c0,14.5,14.2,28.7,28.7,28.7c7.3,0,11.5-7.2,19.7-22.1c9.8-17.8,24.5-44.6,55.4-75.5c3.1-3.1,8.2-3.1,11.3,0c3.1,3.1,3.1,8.2,0,11.3
	c-29.3,29.3-43.4,54.9-52.7,71.9c-9,16.3-16.7,30.4-33.7,30.4c-23.4,0-44.7-21.3-44.7-44.7c0-14.3,11.2-40.7,21.7-60.7
	c14.5-27.6,31.5-51,46.5-64.3c9.2-8.1,21.8-17.5,37.6-17.5c19.8,0,36.3,15.1,51.4,30.5c7.6,7.7,20,20.3,26.9,27.2
	c21.2-7.2,42-8.8,56.2-8.8c14.3,0,35.2,1.5,56.4,8.6c6.8-6.8,19.2-19.2,26.7-27c15.1-15.4,31.5-30.5,51.4-30.5
	c15.8,0,28.4,9.4,37.6,17.5c15,13.2,32,36.7,46.5,64.3c10.5,20,21.7,46.4,21.7,60.7C501.2,214,479.9,235.3,456.5,235.3z"></path>
</svg>