<svg version="1.1" id="Layer_1" xmlns="http://www.w3.org/2000/svg" xmlns:xlink="http://www.w3.org/1999/xlink" x="0px" y="0px" viewBox="0 0 512 512" enable-background="new 0 0 512 512" xml:space="preserve">
<linearGradient id="SVGID_1_" gradientUnits="userSpaceOnUse" x1="340.9613" y1="450.7407" x2="340.9613" y2="92.3235" class="gradient-element">
	<stop offset="0" class="primary-color-gradient" style="stop-color: #FFA4ED"></stop>
	<stop offset="1" class="secondary-color-gradient" style="stop-color: #DB81DA"></stop>
</linearGradient>
<path fill="url(#SVGID_1_)" d="M463.8,269.8c-0.2,98.2-80.9,178.1-179,177.4c-16.5-0.1-32.4-2.5-47.5-6.8
	c-17-4.8-24.7-24.9-14.8-39.5c31.2-45.9,152.2-24.6,152.2-132c0-120.4-91-86.2-115.5-133.4c-10.3-19.7,4.3-43.5,26.6-43.6
	c0.1,0,0.2,0,0.4,0C384.4,91.8,464,171.5,463.8,269.8z"></path>
<path d="M296.6,402.4h-20.9c-4.4,0-8-3.6-8-8V369c-30.7-7.5-52.3-30.9-52.3-57.8c0-4.4,3.6-8,8-8h20.9c4.4,0,8,3.6,8,8s-3.6,8-8,8
	h-12c4.2,17.4,21.6,31.7,44.6,35.3c3.9,0.6,6.7,4,6.7,7.9v23.9h12.9c4.4,0,8,3.6,8,8S301,402.4,296.6,402.4z M296.6,371.1
	c-4.1,0-7.6-3.1-8-7.3c-0.4-4.4,2.9-8.3,7.3-8.7c33.2-2.9,45-25,45-43c0-17.2-10-30.9-29.7-40.8c-6.9-3.5-15.1-6.5-24.4-8.9
	c-35.8-9.5-50.4-21.3-50.4-40.6c0-17.3,14.7-29.9,38.4-32.8c2.3-0.3,4.6,0.4,6.3,1.9c1.7,1.5,2.7,3.7,2.7,6v26
	c1.5,0.6,3.2,1.1,4.9,1.6v-26.9c0-4.4,3.6-8,8-8s8,3.6,8,8v37.6c0,2.5-1.2,4.9-3.2,6.4c-2,1.5-4.6,2-7,1.3c-0.5-0.1-0.9-0.3-1.3-0.4
	c-0.3-0.1-0.6-0.2-1-0.3c-7.7-2.1-14.1-4.2-19.6-6.5c-3-1.3-4.9-4.2-4.9-7.4v-21.6c-7.2,2.2-15.4,6.5-15.4,15.1
	c0,4.8,0,14.9,38.5,25.1c10.3,2.7,19.5,6.1,27.4,10.1c31.9,16,38.5,38.8,38.5,55.1c0,26.7-18.4,55.3-59.5,59
	C297.1,371.1,296.8,371.1,296.6,371.1z M296.6,350.1c-2,0-3.8-0.7-5.3-2c-1.7-1.5-2.7-3.7-2.7-6v-35c-1.5-0.7-3.2-1.3-4.9-1.9V341
	c0,4.4-3.6,8-8,8s-8-3.6-8-8v-46.6c0-2.5,1.2-4.8,3.1-6.3c2-1.5,4.5-2,6.9-1.4l2.4,0.6c7.6,2,14.6,4.6,20.2,7.6
	c2.6,1.4,4.3,4.1,4.3,7.1v30.3c8.2-2.7,15.4-8.4,15.4-20.1c0-4.4,3.6-8,8-8s8,3.6,8,8c0,20.9-14.4,35.1-38.4,37.9
	C297.2,350.1,296.9,350.1,296.6,350.1z M348.9,235.7H328c-4.4,0-8-3.6-8-8s3.6-8,8-8h12c-4.1-17.6-21.6-31.9-44.5-35.4
	c-4.4-0.7-7.4-4.7-6.7-9.1c0.7-4.4,4.7-7.4,9.1-6.7c34.2,5.2,59,30.1,59,59.2C356.9,232.1,353.3,235.7,348.9,235.7z M223.4,229.8
	c-4.4,0-8-3.6-8-8c0-26.8,20.7-47.3,52.3-52.8v-24.5c0-4.4,3.6-8,8-8h20.9c4.4,0,8,3.6,8,8s-3.6,8-8,8h-12.9V176
	c0,4.1-3.1,7.6-7.2,8c-27.3,2.6-45,17.5-45,37.9C231.4,226.3,227.9,229.8,223.4,229.8z M471.8,269.5c0-102.4-83.3-185.7-185.7-185.7
	s-185.7,83.3-185.7,185.7c0,4.4,3.6,8,8,8s8-3.6,8-8c0-93.5,76.1-169.7,169.7-169.7s169.7,76.1,169.7,169.7
	c0,93.5-76.1,169.7-169.7,169.7c-82.3,0-152.5-58.8-167-139.7c-0.8-4.4-4.9-7.2-9.3-6.5c-4.3,0.8-7.2,4.9-6.5,9.3
	c7.6,42.3,29.9,81,63,109c33.4,28.3,76,43.9,119.7,43.9C388.5,455.1,471.8,371.8,471.8,269.5z"></path>
<g>
	<path fill="#DB81DA" class="secondary-color" d="M493.4,372.2v102.6H402L493.4,372.2z"></path>
	<path fill="#FFA4ED" class="primary-color" d="M21.8,66.5V22.9h43.6v43.6H21.8z"></path>
	<path fill="#FFA4ED" class="primary-color" d="M21.8,147.1v-43.6h43.6v43.6H21.8z"></path>
</g>
<path d="M118.9,87.5c0-5.9,4.8-10.8,10.8-10.8s10.8,4.8,10.8,10.8s-4.8,10.8-10.8,10.8S118.9,93.5,118.9,87.5z M101.8,363.1
	c0-4.4-3.6-8-8-8h-72c-4.4,0-8,3.6-8,8s3.6,8,8,8h72C98.2,371.1,101.8,367.6,101.8,363.1z M206.6,473.9H65.4c-4.4,0-8,3.6-8,8
	s3.6,8,8,8h141.2c4.4,0,8-3.6,8-8S211,473.9,206.6,473.9z M88.1,277.5h95.7c4.4,0,8-3.6,8-8s-3.6-8-8-8H88.1c-4.4,0-8,3.6-8,8
	S83.7,277.5,88.1,277.5z M43.6,307.7h104.1c4.4,0,8-3.6,8-8s-3.6-8-8-8H43.6c-4.4,0-8,3.6-8,8S39.2,307.7,43.6,307.7z M487.6,79.5
	h-15.8V63.7c0-4.4-3.6-8-8-8s-8,3.6-8,8v15.8H440c-4.4,0-8,3.6-8,8s3.6,8,8,8h15.8v15.8c0,4.4,3.6,8,8,8s8-3.6,8-8V95.5h15.8
	c4.4,0,8-3.6,8-8S492,79.5,487.6,79.5z"></path>
</svg>