<svg version="1.1" id="Layer_1" xmlns="http://www.w3.org/2000/svg" xmlns:xlink="http://www.w3.org/1999/xlink" x="0px" y="0px" viewBox="0 0 512 512" enable-background="new 0 0 512 512" xml:space="preserve">
<path d="M211.6,399.3c0,4.4-3.6,8-8,8h-3.9v3.9c0,4.4-3.6,8-8,8s-8-3.6-8-8v-3.9h-3.9c-4.4,0-8-3.6-8-8s3.6-8,8-8h3.9v-3.9
	c0-4.4,3.6-8,8-8s8,3.6,8,8v3.9h3.9C208.1,391.3,211.6,394.9,211.6,399.3z M75.5,444.6c-4.4,0-8,3.6-8,8c0,5.7-4.7,10.4-10.4,10.4
	s-10.4-4.7-10.4-10.4c0-4.4-3.6-8-8-8s-8,3.6-8,8c0,14.6,11.8,26.4,26.4,26.4s26.4-11.8,26.4-26.4C83.5,448.2,79.9,444.6,75.5,444.6
	z M376.7,214.5h-73.8c-4.4,0-8,3.6-8,8c0,4.4,3.6,8,8,8h73.8c4.4,0,8-3.6,8-8C384.7,218.1,381.1,214.5,376.7,214.5z M487.8,168.9
	c0,14.6-11.8,26.4-26.4,26.4S435,183.5,435,168.9s11.8-26.4,26.4-26.4S487.8,154.4,487.8,168.9z M471.8,168.9
	c0-5.7-4.7-10.4-10.4-10.4s-10.4,4.7-10.4,10.4s4.7,10.4,10.4,10.4S471.8,174.6,471.8,168.9z M398.2,184.5h-43c-4.4,0-8,3.6-8,8
	s3.6,8,8,8h43c4.4,0,8-3.6,8-8S402.6,184.5,398.2,184.5z M425.8,72h-15.8V56.2c0-4.4-3.6-8-8-8s-8,3.6-8,8V72h-15.8
	c-4.4,0-8,3.6-8,8s3.6,8,8,8h15.8v15.8c0,4.4,3.6,8,8,8s8-3.6,8-8V88h15.8c4.4,0,8-3.6,8-8S430.3,72,425.8,72z"></path>
<g>
	<path fill="#DB81DA" class="secondary-color" d="M74.4,77.3H39.7V42.6h34.7V77.3z M129.7,42.6H95v34.7h34.7V42.6z"></path>
	<path fill="#FFA4ED" class="primary-color" d="M184.9,77.3h-34.7V42.6h34.7V77.3z"></path>
</g>
<linearGradient id="SVGID_1_" gradientUnits="userSpaceOnUse" x1="262.4294" y1="478.1457" x2="253.3347" y2="82.5246" class="gradient-element">
	<stop offset="0" class="primary-color-gradient" style="stop-color: #FFA4ED"></stop>
	<stop offset="1" class="secondary-color-gradient" style="stop-color: #DB81DA"></stop>
</linearGradient>
<path fill="url(#SVGID_1_)" d="M121.6,147.2c-3.7,3.7-7.4,7.6-10.8,11.8l-7.9,9.7L72.4,135l18.4-18.4L121.6,147.2z M432.7,399.3
	v19.9l10.3-10.3L432.7,399.3z M166,194.1c-4.5,4.7-8.9,9.6-13,14.3l-6.5,7.4l236.6,252.8l29.9-29.9L166,194.1
	C166,194.2,166.1,194.1,166,194.1z"></path>
<path d="M451,408.7c0,2.2-0.8,4.3-2.3,5.8l-59.9,59.9c-1.5,1.5-3.5,2.3-5.7,2.3c0,0-0.1,0-0.1,0c-2.2,0-4.2-1-5.7-2.5L147.2,227.1
	c-38,48.6-58.3,95.8-58.5,96.3l-21,49.7c-1.5,3.5-5.2,5.5-9,4.7c-3.7-0.8-6.4-4-6.4-7.8v-54c0-58.6,13.7-108.1,40.7-147.2
	l-26.4-28.4c-2.9-3.2-2.8-8.1,0.2-11.1l36.9-36.9c3-3,8-3.1,11.1-0.2l28.4,26.5c39.3-26.7,90-40.8,147.1-40.8h51.9
	c3.8,0,7,2.6,7.8,6.3c0.8,3.7-1.1,7.4-4.6,9l-47.4,21c-0.6,0.2-52.9,23.6-97.1,58.2L414,370.9c3.2,3,3.4,8.1,0.4,11.3
	c-3,3.2-8.1,3.4-11.3,0.4L183.2,177.9c-1.7-1.6-2.6-3.8-2.5-6.1c0.1-2.3,1.1-4.5,2.9-5.9c47.5-39.4,107.4-66,108-66.2l12.8-5.7h-14
	c-56.3,0-105.8,14.4-143.1,41.5c-3.1,2.3-7.4,2-10.2-0.6l-27.5-25.6l-25.9,25.9l19.6,21c0.4-0.4,0.7-0.9,1.1-1.3
	c8.6-10.4,11.7-14,12.9-15.1c3.2-3.1,8.2-3,11.3,0.1c3.1,3.2,3,8.2-0.1,11.3c-1,1.1-7.5,8.8-11.8,14c-4.8,5.8-7.3,8.7-8.4,10
	C81.6,212,68.2,259.4,68.2,316v14.6l5.7-13.4c0.2-0.5,23.3-54.4,66.6-107.4c1.5-1.8,3.6-2.9,5.9-2.9c2.3-0.1,4.5,0.9,6.1,2.5
	l230.7,247.8l48.1-48.1l-4.3-4l-18.7,18.7c-3.1,3.1-8.2,3.1-11.3,0c-3.1-3.1-3.1-8.2,0-11.3l24.1-24.1c3-3,8-3.1,11.1-0.2l16,14.9
	C450,404.5,450.9,406.6,451,408.7z"></path>
</svg>