<svg version="1.1" id="Layer_1" xmlns="http://www.w3.org/2000/svg" xmlns:xlink="http://www.w3.org/1999/xlink" x="0px" y="0px" viewBox="0 0 512 512" enable-background="new 0 0 512 512" xml:space="preserve">
<linearGradient id="SVGID_1_" gradientUnits="userSpaceOnUse" x1="272.3105" y1="451.034" x2="272.3105" y2="125.0401" class="gradient-element">
	<stop offset="0" class="primary-color-gradient" style="stop-color: #FFA4ED"></stop>
	<stop offset="1" class="secondary-color-gradient" style="stop-color: #DB81DA"></stop>
</linearGradient>
<path fill="url(#SVGID_1_)" d="M260.3,466.1l157.9-157.9c5.5-5.5,1.6-14.9-6.2-14.9h-89.6c-4.8,0-8.7-3.9-8.7-8.7V121.1
	c0-4.8-3.9-8.7-8.7-8.7h-16.8c-4.9,0-8.8,4-8.8,8.8v157.5c0,29.3-23.8,53.1-53.1,53.1h-95.2c-6.5,0-9.7,7.8-5.1,12.4l122,122
	C251.4,469.5,256.9,469.5,260.3,466.1z"></path>
<path d="M422.3,313.8L264.4,471.8c-3.3,3.3-7.5,4.9-11.8,4.9c-4.3,0-8.6-1.6-11.8-4.9L82.9,313.8c-4.8-4.8-6.2-11.9-3.6-18.2
	c2.6-6.3,8.7-10.3,15.4-10.3h89.6c0.4,0,0.7-0.3,0.7-0.7V123.1c0-9.2,7.5-16.7,16.7-16.7h25.7c4.4,0,8,3.6,8,8s-3.6,8-8,8h-25.7
	c-0.4,0-0.7,0.3-0.7,0.7v161.5c0,9.2-7.5,16.7-16.7,16.7H94.7c-0.2,0-0.5,0-0.7,0.4c-0.2,0.4,0,0.6,0.2,0.8l157.9,157.9
	c0.3,0.3,0.7,0.3,1,0L411,302.5c0.1-0.1,0.3-0.3,0.2-0.8c-0.2-0.4-0.5-0.4-0.7-0.4H321c-9.2,0-16.7-7.5-16.7-16.7v-197
	c0-4.4,3.6-8,8-8s8,3.6,8,8v197c0,0.4,0.3,0.7,0.7,0.7h89.6c6.8,0,12.8,4,15.4,10.3C428.6,301.9,427.1,309,422.3,313.8z"></path>
<g>
	<path fill="#FFA4ED" class="primary-color" d="M483.5,169.1v35.8h-35.8v-35.8H483.5z"></path>
	<path fill="#DB81DA" class="secondary-color" d="M484.2,107.4v39.3h-37.3v-39.3H484.2z M389.4,481.6h91.4V379L389.4,481.6z"></path>
</g>
<path d="M235.3,43.4v112.8c0,4.4-3.6,8-8,8s-8-3.6-8-8V43.4c0-4.4,3.6-8,8-8S235.3,38.9,235.3,43.4z M137.7,204.6c0-4.4-3.6-8-8-8
	c-20.3,0-36.8,16.5-36.8,36.7c0,4.4,3.6,8,8,8s8-3.6,8-8c0-11.4,9.3-20.7,20.8-20.7C134.1,212.6,137.7,209,137.7,204.6z M50.9,196.6
	c-4.4,0-8,3.6-8,8s3.6,8,8,8c11.4,0,20.8,9.3,20.8,20.7c0,4.4,3.6,8,8,8s8-3.6,8-8C87.7,213,71.2,196.6,50.9,196.6z M79.7,146.6
	c-4.4,0-8,3.6-8,8c0,11.4-9.3,20.8-20.8,20.8c-4.4,0-8,3.6-8,8s3.6,8,8,8c20.3,0,36.8-16.5,36.8-36.8
	C87.7,150.1,84.1,146.6,79.7,146.6z M129.7,191.3c4.4,0,8-3.6,8-8s-3.6-8-8-8c-11.4,0-20.8-9.3-20.8-20.8c0-4.4-3.6-8-8-8
	s-8,3.6-8,8C92.9,174.8,109.4,191.3,129.7,191.3z M79.9,481.6c0,5-4.1,9-9,9s-9-4.1-9-9s4.1-9,9-9S79.9,476.7,79.9,481.6z
	 M109.9,481.6c0,5-4.1,9-9,9s-9-4.1-9-9s4.1-9,9-9S109.9,476.7,109.9,481.6z M139.9,481.6c0,5-4.1,9-9,9s-9-4.1-9-9s4.1-9,9-9
	S139.9,476.7,139.9,481.6z M100.9,461.2c-2.3,0-4.6-0.9-6.4-2.6c-3.5-3.5-3.5-9.3,0-12.8c0,0,0,0,0,0c3.5-3.5,9.3-3.5,12.8,0
	c3.5,3.5,3.5,9.3,0,12.8C105.5,460.3,103.2,461.2,100.9,461.2z M63.5,459.6c-3.5-3.5-3.5-9.3,0-12.8c0,0,0,0,0,0
	c3.5-3.5,9.3-3.5,12.8,0c3.5,3.5,3.5,9.3,0,12.8c-1.8,1.8-4.1,2.6-6.4,2.6C67.6,462.2,65.3,461.3,63.5,459.6z M44.9,445.8
	c3.5,3.5,3.5,9.2,0,12.8c-1.7,1.7-4,2.6-6.4,2.6c-2.4,0-4.7-0.9-6.4-2.6c-3.5-3.5-3.5-9.2,0-12.8c1.7-1.7,4-2.6,6.4-2.6
	C41,443.1,43.2,444,44.9,445.8z M362.2,35.4c-4.4,0-8,3.6-8,8v192.1c0,4.4,3.6,8,8,8s8-3.6,8-8V43.4
	C370.2,38.9,366.7,35.4,362.2,35.4z M198.1,27.8H32.5c-4.4,0-8,3.6-8,8s3.6,8,8,8h165.6c4.4,0,8-3.6,8-8S202.5,27.8,198.1,27.8z"></path>
</svg>