<svg version="1.1" id="Layer_1" xmlns="http://www.w3.org/2000/svg" xmlns:xlink="http://www.w3.org/1999/xlink" x="0px" y="0px" viewBox="0 0 512 512" enable-background="new 0 0 512 512" xml:space="preserve">
<linearGradient id="SVGID_1_" gradientUnits="userSpaceOnUse" x1="282.6309" y1="435.0468" x2="282.6309" y2="198.9113" class="gradient-element">
	<stop offset="0" class="primary-color-gradient" style="stop-color: #FFA4ED"></stop>
	<stop offset="1" class="secondary-color-gradient" style="stop-color: #DB81DA"></stop>
</linearGradient>
<path fill="url(#SVGID_1_)" d="M442.3,275.9V367c0,40.4-32.8,73.2-73.1,73.2h-213c-11.2,0-20-2.5-27.6-7c-10.1-6-5.7-21.6,6.1-21.6
	h0c2.2,0,4.3,0.4,6.3,1.2c6.2,2.6,22.3,4.1,26.6,4.1h202.7c27,0,48.8-21.8,48.8-48.8v-18.9c0-27-21.8-48.8-48.8-48.8h-34.4
	c-26.9,0-48.8-21.8-48.8-48.8v0c0-26.9,21.8-48.8,48.8-48.8h33.4C409.6,202.8,442.3,235.5,442.3,275.9z"></path>
<path d="M171,440.2c0,4.6-3.8,8.4-8.4,8.4c-43.2,0-78.3-35.1-78.3-78.3s35.1-78.3,78.3-78.3h209.8c20,0,38,6.4,52.1,18.5
	c3.5,3,3.9,8.3,0.9,11.8c-3,3.5-8.3,3.9-11.8,0.9c-11-9.5-25.2-14.5-41.1-14.5H162.6c-33.9,0-61.5,27.6-61.5,61.5
	c0,33.9,27.6,61.5,61.5,61.5C167.3,431.8,171,435.6,171,440.2z M92.7,308.7c4.6,0,8.4-3.8,8.4-8.4V277c0-33.9,27.6-61.5,61.5-61.5
	h81.6c3.4,0,6.5-2,7.7-5.2c1.3-3.1,0.6-6.7-1.8-9.1l-47.6-47.6l4.6-4.6l42.7,42.7c2.4,2.4,6,3.1,9.1,1.8c3.1-1.3,5.2-4.4,5.2-7.7
	V29.1h14.9c4.6,0,8.4-3.8,8.4-8.4s-3.8-8.4-8.4-8.4h-23.3c-4.6,0-8.4,3.8-8.4,8.4v144.9l-34.4-34.4c-1.6-1.6-3.7-2.5-5.9-2.5
	s-4.4,0.9-5.9,2.5l-16.5,16.5c-3.3,3.3-3.3,8.6,0,11.9l39.2,39.2h-61.3c-43.2,0-78.3,35.1-78.3,78.3v23.3
	C84.3,305,88.1,308.7,92.7,308.7z M124.4,370.3c0-4.6-3.8-8.4-8.4-8.4c-4.6,0-8.4,3.8-8.4,8.4c0,30.3,24.7,55,55,55h209.8
	c30.3,0,55-24.7,55-55c0-4.6-3.8-8.4-8.4-8.4s-8.4,3.8-8.4,8.4c0,21.1-17.1,38.2-38.2,38.2H162.6
	C141.6,408.5,124.4,391.3,124.4,370.3z M372.4,198.7h-61.3l39.2-39.2c3.3-3.3,3.3-8.6,0-11.9l-16.5-16.5c-1.6-1.6-3.7-2.5-5.9-2.5
	s-4.4,0.9-5.9,2.5l-48.7,48.7c-3.3,3.3-3.3,8.6,0,11.9s8.6,3.3,11.9,0l42.7-42.7l4.6,4.6l-47.6,47.6c-2.4,2.4-3.1,6-1.8,9.1
	c1.3,3.1,4.4,5.2,7.7,5.2h81.6c33.9,0,61.5,27.6,61.5,61.5v93.2c0,33.9-27.6,61.5-61.5,61.5c-4.6,0-8.4,3.8-8.4,8.4s3.8,8.4,8.4,8.4
	c43.2,0,78.3-35.1,78.3-78.3V277C450.7,233.9,415.6,198.7,372.4,198.7z M162.6,365.8c4.6,0,8.4-3.8,8.4-8.4s-3.8-8.4-8.4-8.4
	c-11.7,0-21.2,9.5-21.2,21.2s9.5,21.2,21.2,21.2c4.6,0,8.4-3.8,8.4-8.4s-3.8-8.4-8.4-8.4c-2.4,0-4.4-2-4.4-4.4
	S160.2,365.8,162.6,365.8z"></path>
<g>
	<path fill="#FFA4ED" class="primary-color" d="M73.9,76.6H39.2V42h34.7V76.6z M129.1,42H94.4v34.7h34.7V42z"></path>
	<path fill="#FFA4ED" class="primary-color" d="M184.4,76.6h-34.7V42h34.7V76.6z"></path>
</g>
<path d="M82.9,451.9c0,14.6-11.8,26.4-26.4,26.4s-26.4-11.8-26.4-26.4c0-4.4,3.6-8,8-8s8,3.6,8,8c0,5.7,4.7,10.4,10.4,10.4
	s10.4-4.7,10.4-10.4c0-4.4,3.6-8,8-8S82.9,447.5,82.9,451.9z M47.1,155.8H51v3.9c0,4.4,3.6,8,8,8s8-3.6,8-8v-3.9h3.9
	c4.4,0,8-3.6,8-8s-3.6-8-8-8H67v-3.9c0-4.4-3.6-8-8-8s-8,3.6-8,8v3.9h-3.9c-4.4,0-8,3.6-8,8S42.7,155.8,47.1,155.8z M108.9,273.7
	H35.1c-4.4,0-8,3.6-8,8s3.6,8,8,8h73.8c4.4,0,8-3.6,8-8S113.3,273.7,108.9,273.7z M130.4,243.7h-43c-4.4,0-8,3.6-8,8s3.6,8,8,8h43
	c4.4,0,8-3.6,8-8S134.8,243.7,130.4,243.7z M487.2,168.3c0,14.6-11.8,26.4-26.4,26.4s-26.4-11.8-26.4-26.4s11.8-26.4,26.4-26.4
	S487.2,153.7,487.2,168.3z M471.2,168.3c0-5.7-4.7-10.4-10.4-10.4s-10.4,4.7-10.4,10.4c0,5.7,4.7,10.4,10.4,10.4
	S471.2,174,471.2,168.3z M425.3,71.3h-15.8V55.6c0-4.4-3.6-8-8-8s-8,3.6-8,8v15.8h-15.8c-4.4,0-8,3.6-8,8s3.6,8,8,8h15.8v15.8
	c0,4.4,3.6,8,8,8s8-3.6,8-8V87.3h15.8c4.4,0,8-3.6,8-8S429.7,71.3,425.3,71.3z"></path>
</svg>