<svg version="1.1" id="Layer_1" xmlns="http://www.w3.org/2000/svg" xmlns:xlink="http://www.w3.org/1999/xlink" x="0px" y="0px" viewBox="0 0 512 512" enable-background="new 0 0 512 512" xml:space="preserve">
<linearGradient id="SVGID_1_" gradientUnits="userSpaceOnUse" x1="261.2362" y1="476.9018" x2="261.2362" y2="33.0749" class="gradient-element">
	<stop offset="0" class="primary-color-gradient" style="stop-color: #FFA4ED"></stop>
	<stop offset="1" class="secondary-color-gradient" style="stop-color: #DB81DA"></stop>
</linearGradient>
<path fill="url(#SVGID_1_)" d="M220.3,226.6h-35.4v35.4h-36l-27.5-26.5v-8.9h35.4c9.7,0,17.7-8,17.7-17.7v-19.5
	c0-8.8,7.1-15.9,15.9-15.9h19.5c19.4,0,35.4-15.9,35.4-35.4c0,0,1.9-31.1-14-48.6c-2.5-0.6-5-1.1-7.6-1.5c10.4-1.9,21-2.9,31.9-2.9
	c13.4,0,26.5,1.6,39.1,4.4c15.9,17.5,14,48.6,14,48.6c0,19.5-15.9,35.4-35.4,35.4H238v35.4C238,218.6,230,226.6,220.3,226.6z
	 M39.4,241.3c-2,0-3.9,0.3-5.6,1c6.4,2.3,11,8.4,11,15.6c0,7.2-4.6,13.3-11,15.6c1.8,0.6,3.6,1,5.6,1c9.1,0,16.6-7.5,16.6-16.6
	S48.5,241.3,39.4,241.3z M251,56.4c1.8,0.6,3.6,1,5.6,1c9.1,0,16.6-7.5,16.6-16.6c0-9.1-7.5-16.6-16.6-16.6c-2,0-3.9,0.3-5.6,1
	c6.4,2.3,11,8.4,11,15.6C262,47.9,257.4,54.1,251,56.4z M255.3,458.3c-2,0-3.9,0.3-5.6,1c6.4,2.3,11,8.4,11,15.6
	c0,7.2-4.6,13.3-11,15.6c1.8,0.6,3.6,1,5.6,1c9.1,0,16.6-7.5,16.6-16.6C271.9,465.8,264.5,458.3,255.3,458.3z M472.1,241.3
	c-2,0-3.9,0.3-5.6,1c6.4,2.3,11,8.4,11,15.6c0,7.2-4.6,13.3-11,15.6c1.8,0.6,3.6,1,5.6,1c9.1,0,16.6-7.5,16.6-16.6
	S481.2,241.3,472.1,241.3z M360,357.3c-4.6-14.3-17.7-24.6-33.6-24.6h-17.7v-53.1c0-9.7-8-17.7-17.7-17.7h-63.5
	c9.7,0,17.7,8,17.7,17.7v35.6c0,9.6,7.8,17.5,17.5,17.5h0.2c15.9,0,29,10.3,33.6,24.6c0.1-0.1,0.1-0.2,0.2-0.2
	c2.2,6.7,3.5,17,4.2,26.2c0.9,11-4.3,21.7-13.5,27.6c-15,9.6-31.5,17-49.1,21.8l0,5.2c5.7,0.5,11.5,0.9,17.3,0.9
	c41.4,0,79.6-14.3,109.6-38.2c-0.2-7.8-1.1-31.5-5.1-43.5C360.1,357.1,360.1,357.2,360,357.3z"></path>
<path d="M442.4,257.8c0,16.4,13.4,29.8,29.8,29.8s29.8-13.4,29.8-29.8c0-13.7-9.3-25.2-21.8-28.7c0-0.2,0-0.5-0.1-0.7
	c-0.1-0.4-0.3-2.1-0.7-3.9c-0.6-3.8-0.8-5.1-0.9-5.6c-3.1-16-7.8-31.5-14-46.1c-15.7-36.7-40.8-68.7-72.6-92.5
	c-30.9-23.1-67.4-38-105.5-43.2c-0.5-0.1-1.1-0.1-1.6-0.1C282.9,22.4,270.3,11,255.1,11c-15.2,0-27.8,11.4-29.6,26.2
	c-0.5,0-1,0-1.6,0.1c-19.4,2.6-38.7,8-57.4,16c-35.9,15.3-67.4,39.8-91,70.6c-22.9,29.9-38.1,65.4-44.1,102.6
	c-0.1,0.8-0.1,1.6,0,2.3c-13.3,3-23.2,14.9-23.2,29.1c0,13.7,9.3,25.2,21.8,28.7c0,0.4,0,0.7,0,1.1c1.6,14.4,4.7,28.7,9.1,42.5
	c2.4,7.7,5,14.5,7.7,20.9c20,46.8,55.6,86,100.3,110.2c23.5,12.8,48.8,21.3,75.3,25.3c0.4,0.1,0.8,0.1,5.2,0.5c0.1,0,0.2,0,0.2,0
	c4.7,10.4,15.1,17.7,27.2,17.7c12.1,0,22.5-7.2,27.2-17.5c0.1,0,0.3,0,0.4,0c4.2-0.3,4.5-0.4,5-0.4c19.5-2.8,38.7-8.2,57.1-16
	c33.8-14.4,63.8-37,86.8-65.3c22.3-27.4,38.1-60.1,45.7-94.7c1-4.3-1.8-8.6-6.1-9.5c-4.3-1-8.6,1.8-9.5,6.1
	c-14.7,66.4-60.7,122-123.2,148.7c-17,7.3-34.8,12.3-52.9,14.9c-0.2,0-0.5,0-0.9,0.1c-1.5-11.4-9.6-20.9-20.3-24.3
	c38.4-1.8,75.8-15.8,105.9-39.7c44.6-35.2,70.2-88,70.2-144.9c0-32.1-8.3-63.6-24.1-91.3c-15.3-26.9-37.3-49.7-63.6-65.9
	c-3.8-2.3-8.7-1.2-11,2.6c-2.3,3.8-1.2,8.7,2.6,11c50.2,31,80.2,84.7,80.2,143.7c0,46.5-18.8,90.1-52,121.8
	c-0.7-10-2.1-21.6-4.7-29.2c-0.2-0.7-0.6-1.4-1-2c-6.4-16.7-22.3-27.8-40.4-27.8h-9.7v-45c0-14.2-11.5-25.7-25.7-25.7h-98.1v-19.4
	h27.4c14.2,0,25.7-11.5,25.7-25.7v-27.4h27.4c23.8,0,43.2-19.3,43.4-43.1c0.2-3.5,1.3-35.1-16-54.2c0,0,0,0-0.1-0.1
	c-0.1-0.1-0.2-0.2-0.3-0.3c-0.1-0.1-0.2-0.2-0.3-0.3c-0.1-0.1-0.2-0.1-0.2-0.2c-0.1-0.1-0.2-0.2-0.4-0.3c-0.1,0-0.1-0.1-0.2-0.1
	c-0.2-0.1-0.3-0.2-0.5-0.3c0,0-0.1,0-0.1-0.1c-0.2-0.1-0.4-0.2-0.6-0.3c0,0-0.1,0-0.1,0c-0.2-0.1-0.4-0.2-0.6-0.2
	c-0.1,0-0.1,0-0.2,0c-0.2-0.1-0.4-0.1-0.6-0.2c0,0,0,0,0,0c-13.6-3.1-27.3-4.6-40.8-4.6C177,77.1,106.9,127,81.2,201.3
	c-6.9,19.1-10.4,39.5-10.4,60.7c0,46.2,17.1,90.4,48.3,124.5c30.9,33.9,72.9,54.9,118.3,59.4c0,0,0.1,0,0.1,0c0,0,0,0,0,0
	c2.9,0.3,5.8,0.5,8.5,0.6c-10.7,3.4-18.9,12.8-20.5,24.2c-0.4,0-0.7-0.1-0.9-0.1c-24.5-3.7-48-11.6-69.9-23.5
	c-41.6-22.5-74.7-58.9-93.2-102.4c-2.5-5.9-4.9-12.3-7.2-19.4c-4-12.6-6.8-25.7-8.3-38.8c12.5-3.5,21.7-15,21.7-28.7
	c0-13.2-8.7-24.5-20.7-28.4c0-0.2,0.1-0.3,0.1-0.5c11.5-72.2,58.4-132.4,125.6-161.1c17.3-7.4,35.3-12.4,53.3-14.8
	c0.6-0.1,1.1-0.2,1.7-0.4c4.6,10.5,15.1,17.9,27.3,17.9c12.2,0,22.8-7.4,27.4-18c0.5,0.2,1.1,0.3,1.7,0.4
	c73.2,10,136.6,58.3,165.6,126.1c5.8,13.5,10.2,27.9,13,42.8c0.1,0.5,0.5,2.9,0.9,5.2c0.1,0.7,0.2,1.5,0.3,2.1
	C451.5,232.8,442.4,244.3,442.4,257.8z M255.7,93.1c11.5,0,23.1,1.2,34.7,3.7c11.7,15.1,10.4,40.6,10.3,40.9c0,0.2,0,0.3,0,0.5
	c0,15.1-12.3,27.4-27.4,27.4H238c-4.4,0-8,3.6-8,8v35.4c0,5.3-4.3,9.7-9.7,9.7h-35.4c-4.4,0-8,3.6-8,8v35.4c0,4.4,3.6,8,8,8H291
	c5.3,0,9.7,4.3,9.7,9.7v53c0,4.4,3.6,8,8,8h17.7c11.9,0,22.3,7.7,26,19c0.2,0.6,0.5,1.2,0.8,1.8c2.3,8.4,3.5,22.9,4,35.3
	c-29.1,22-65,34-101.5,34c-3,0-6.1-0.1-9.4-0.3L246,368c0-4.4-3.5-7.9-7.9-8c-0.1,0-13.1-0.3-21.1-9.9c-6.4-7.6-8.4-19.3-5.9-34.8
	c0.4-2.6-0.5-5.2-2.4-7L98,201.8C122.8,136.6,185.5,93.1,255.7,93.1z M86.8,261.9c0-14.9,1.9-29.4,5.7-43.3L194.7,317
	c-2.2,18.4,1.3,33,10.2,43.6c7.9,9.2,18.1,13,25.1,14.4l0.3,53.8C147.9,416.6,86.8,346.3,86.8,261.9z M255.1,461.1
	c7.6,0,13.8,6.2,13.8,13.8s-6.2,13.8-13.8,13.8s-13.8-6.2-13.8-13.8S247.5,461.1,255.1,461.1z M51.9,257.8c0,7.6-6.2,13.8-13.8,13.8
	c-7.6,0-13.8-6.2-13.8-13.8S30.5,244,38.1,244C45.7,244,51.9,250.2,51.9,257.8z M255.1,54.6c-7.6,0-13.8-6.2-13.8-13.8
	S247.5,27,255.1,27s13.8,6.2,13.8,13.8S262.7,54.6,255.1,54.6z M472.2,244c7.6,0,13.8,6.2,13.8,13.8s-6.2,13.8-13.8,13.8
	s-13.8-6.2-13.8-13.8S464.6,244,472.2,244z"></path>
<path fill="#000000" d="M33.8,62l2.6-2.6l-2.6-2.6c-3.1-3.1-3.1-8.2,0-11.3c3.1-3.1,8.2-3.1,11.3,0l2.6,2.6l2.6-2.6
	c3.1-3.1,8.2-3.1,11.3,0c3.1,3.1,3.1,8.2,0,11.3L59,59.4l2.6,2.6c3.1,3.1,3.1,8.2,0,11.3c-1.6,1.6-3.6,2.3-5.7,2.3s-4.1-0.8-5.7-2.3
	l-2.6-2.6l-2.6,2.6c-1.6,1.6-3.6,2.3-5.7,2.3s-4.1-0.8-5.7-2.3C30.6,70.2,30.6,65.2,33.8,62z M483.9,453.4h-3.7v-3.7
	c0-4.4-3.6-8-8-8s-8,3.6-8,8v3.7h-3.7c-4.4,0-8,3.6-8,8s3.6,8,8,8h3.7v3.7c0,4.4,3.6,8,8,8s8-3.6,8-8v-3.7h3.7c4.4,0,8-3.6,8-8
	S488.3,453.4,483.9,453.4z M507.6,154.4C480.4,90.6,430.5,39.9,367,11.7c-4.9-2.2-10.6,0-12.7,4.9c-2.2,4.9,0,10.6,4.9,12.7
	c58.9,26.2,105.4,73.3,130.7,132.6c1.6,3.7,5.1,5.9,8.9,5.9c1.3,0,2.5-0.3,3.8-0.8C507.4,165,509.7,159.3,507.6,154.4z M134,485.5
	c-50.2-27.2-90.1-71.1-112.5-123.6c-2.1-4.9-7.8-7.2-12.7-5.1c-4.9,2.1-7.2,7.8-5.1,12.7c24.1,56.5,67.1,103.8,121.1,133
	c1.5,0.8,3,1.2,4.6,1.2c3.4,0,6.8-1.8,8.5-5.1C140.4,493.9,138.7,488,134,485.5z M472.2,55.7c5.9,0,10.6-4.7,10.6-10.6
	c0-5.9-4.7-10.6-10.6-10.6c-5.9,0-10.6,4.7-10.6,10.6C461.6,50.9,466.3,55.7,472.2,55.7z"></path>
<g>
	<path fill="#DB81DA" class="secondary-color" d="M428.2,476.6v21.5h-56.2v-21.5H428.2z"></path>
	<path fill="#FFA4ED" class="primary-color" d="M499.4,413.9h-21.5v-56.2h21.5V413.9z M20.2,465.5L46.7,492H20.2V465.5z"></path>
</g>
</svg>