<svg version="1.1" id="Layer_1" xmlns="http://www.w3.org/2000/svg" xmlns:xlink="http://www.w3.org/1999/xlink" x="0px" y="0px" viewBox="0 0 512 512" enable-background="new 0 0 512 512" xml:space="preserve">
<linearGradient id="SVGID_1_" gradientUnits="userSpaceOnUse" x1="411" y1="351" x2="411" y2="175" class="gradient-element">
	<stop offset="0" class="primary-color-gradient" style="stop-color: #FFA4ED"></stop>
	<stop offset="1" class="secondary-color-gradient" style="stop-color: #DB81DA"></stop>
</linearGradient>
<path fill="url(#SVGID_1_)" d="M451,351h-80V175h80V351z"></path>
<linearGradient id="SVGID_2_" gradientUnits="userSpaceOnUse" x1="16" y1="285.4146" x2="496" y2="285.4146">
	<stop offset="0" class="primary-color-gradient" style="stop-color: #FFA4ED"></stop>
	<stop offset="1" class="secondary-color-gradient" style="stop-color: #DB81DA"></stop>
</linearGradient>
<path fill="url(#SVGID_2_)" d="M496,173.4v312H280H64c-13.3,0-25.3-5.4-33.9-14.1c-8.7-8.6-14.1-20.6-14.1-33.9
	c0-26.5,21.5-48,48-48h0.7v-304H128v304h243.5L411,447l40-64l0.5-209.6H496z"></path>
<path d="M496,165.4h-36.5v-22.7v-32c0-4.4-3.6-8-8-8h-80c-4.4,0-8,3.6-8,8v32v32v176v32c0,0,0,0.1,0,0.1c0,0.1,0,0.2,0,0.3
	c0,0.2,0,0.5,0.1,0.7c0,0.1,0,0.2,0,0.3c0,0.3,0.1,0.6,0.2,0.8c0,0,0,0.1,0,0.1c0.1,0.3,0.2,0.6,0.3,0.9c0,0.1,0.1,0.1,0.1,0.2
	c0.1,0.2,0.2,0.5,0.4,0.7c0,0,0,0.1,0.1,0.1l32.6,52.2H273.7c-4.4,0-8,3.6-8,8s3.6,8,8,8h137.6c3.2,0,5.9-1.9,7.2-4.5l39.8-63.7
	c0,0,0-0.1,0.1-0.1c0.1-0.2,0.3-0.5,0.4-0.7c0-0.1,0.1-0.1,0.1-0.2c0.1-0.3,0.2-0.6,0.3-0.9c0,0,0-0.1,0-0.1
	c0.1-0.3,0.1-0.5,0.2-0.8c0-0.1,0-0.2,0-0.3c0-0.2,0.1-0.5,0.1-0.7c0-0.1,0-0.2,0-0.3c0,0,0-0.1,0-0.1v-32V181.4H488v296H64
	c-10.7,0-20.8-4.2-28.3-11.8c-7.6-7.5-11.7-17.5-11.7-28.2c0-22.1,17.9-40,40-40h64c4.4,0,8-3.6,8-8v-208h204c4.4,0,8-3.6,8-8
	s-3.6-8-8-8H128c-4.4,0-8,3.6-8,8v208H64c-1,0-1.9,0-2.9,0.1c-0.3,0-0.6,0.1-1,0.1c-0.6,0-1.3,0.1-1.9,0.1c-0.4,0-0.8,0.1-1.1,0.1
	c-0.6,0.1-1.1,0.1-1.7,0.2c-0.4,0.1-0.8,0.1-1.2,0.2c-0.5,0.1-1.1,0.2-1.6,0.3c-0.4,0.1-0.8,0.2-1.2,0.3c-0.5,0.1-1,0.2-1.5,0.4
	c-0.4,0.1-0.8,0.2-1.2,0.3c-0.5,0.1-1,0.3-1.4,0.4c-0.4,0.1-0.8,0.3-1.2,0.4c-0.5,0.2-0.9,0.3-1.4,0.5c-0.4,0.1-0.8,0.3-1.2,0.5
	c-0.5,0.2-0.9,0.4-1.4,0.5c-0.4,0.2-0.8,0.4-1.2,0.5c-0.4,0.2-0.9,0.4-1.3,0.6c-0.4,0.2-0.8,0.4-1.2,0.6c-0.4,0.2-0.8,0.4-1.3,0.7
	c-0.4,0.2-0.8,0.4-1.1,0.7c-0.4,0.2-0.8,0.5-1.2,0.7c-0.4,0.2-0.7,0.5-1.1,0.7c-0.4,0.3-0.8,0.5-1.2,0.8c-0.4,0.2-0.7,0.5-1.1,0.7
	c-0.4,0.3-0.8,0.5-1.2,0.8c-0.3,0.3-0.7,0.5-1,0.8c-0.4,0.3-0.7,0.6-1.1,0.9c-0.3,0.3-0.7,0.6-1,0.8c-0.4,0.3-0.7,0.6-1.1,0.9
	c-0.3,0.3-0.6,0.6-0.9,0.9c-0.3,0.3-0.7,0.7-1,1c-0.1,0.1-0.1,0.1-0.2,0.2V133.4c0-22.1,17.9-40,40-40h56v47.3c0,4.4,3.6,8,8,8
	s8-3.6,8-8V85.4c0-4.4-3.6-8-8-8H64c-30.9,0-56,25.1-56,56v304c0,15,5.8,29.1,16.4,39.6C34.9,487.6,49,493.4,64,493.4h432
	c4.4,0,8-3.6,8-8v-312C504,169,500.4,165.4,496,165.4z M443.5,342.7h-24v-160h24V342.7z M379.5,342.7v-160h24v160H379.5z
	 M379.5,358.7h32h32v16h-64V358.7z M379.5,165.4v-14.7h64v14.7H379.5z M379.5,118.7h64v16h-64V118.7z M411.5,431.6l-25.6-40.9h51.1
	L411.5,431.6z M321.3,229.1c0,4.4-3.6,8-8,8H175.7c-4.4,0-8-3.6-8-8s3.6-8,8-8h137.6C317.7,221.1,321.3,224.7,321.3,229.1z
	 M321.3,269.1c0,4.4-3.6,8-8,8H175.7c-4.4,0-8-3.6-8-8s3.6-8,8-8h137.6C317.7,261.1,321.3,264.7,321.3,269.1z M321.3,309.1
	c0,4.4-3.6,8-8,8H175.7c-4.4,0-8-3.6-8-8s3.6-8,8-8h137.6C317.7,301.1,321.3,304.7,321.3,309.1z"></path>
<path d="M313.3,125.9H175.7c-4.4,0-8-3.6-8-8s3.6-8,8-8h137.6c4.4,0,8,3.6,8,8S317.7,125.9,313.3,125.9z M169.2,61.3V13.8
	c0-4.4-3.6-8-8-8s-8,3.6-8,8v47.6c0,4.4,3.6,8,8,8S169.2,65.7,169.2,61.3z M361.8,62c0-4.4-3.6-8-8-8H216.2c-4.4,0-8,3.6-8,8
	s3.6,8,8,8h137.6C358.2,70,361.8,66.4,361.8,62z M393.7,62c0-5-4.1-9-9-9s-9,4.1-9,9s4.1,9,9,9S393.7,67,393.7,62z M391.7,62
	c0,3.8-3.1,7-7,7s-7-3.1-7-7s3.1-7,7-7S391.7,58.2,391.7,62z M423.7,62c0-5-4.1-9-9-9s-9,4.1-9,9s4.1,9,9,9S423.7,67,423.7,62z
	 M421.7,62c0,3.8-3.1,7-7,7s-7-3.1-7-7s3.1-7,7-7S421.7,58.2,421.7,62z M453.7,62c0-5-4.1-9-9-9s-9,4.1-9,9s4.1,9,9,9
	S453.7,67,453.7,62z M451.7,62c0,3.8-3.1,7-7,7s-7-3.1-7-7s3.1-7,7-7S451.7,58.2,451.7,62z M361.8,62c0-4.4-3.6-8-8-8H216.2
	c-4.4,0-8,3.6-8,8s3.6,8,8,8h137.6C358.2,70,361.8,66.4,361.8,62z M393.7,62c0-5-4.1-9-9-9s-9,4.1-9,9s4.1,9,9,9S393.7,67,393.7,62z
	 M423.7,62c0-5-4.1-9-9-9s-9,4.1-9,9s4.1,9,9,9S423.7,67,423.7,62z M453.7,62c0-5-4.1-9-9-9s-9,4.1-9,9s4.1,9,9,9S453.7,67,453.7,62
	z"></path>
</svg>