<svg version="1.1" id="Layer_1" xmlns="http://www.w3.org/2000/svg" xmlns:xlink="http://www.w3.org/1999/xlink" x="0px" y="0px" viewBox="0 0 512 512" enable-background="new 0 0 512 512" xml:space="preserve">
<path fill="#FFA4ED" class="primary-color" d="M437,12.7l57.8,57.8L437,128.3V12.7z"></path>
<path d="M80.9,56.4c0,4.4-3.6,8-8,8H57.1v15.8c0,4.4-3.6,8-8,8s-8-3.6-8-8V64.4H25.3c-4.4,0-8-3.6-8-8s3.6-8,8-8h15.8V32.6
	c0-4.4,3.6-8,8-8s8,3.6,8,8v15.8h15.8C77.3,48.4,80.9,51.9,80.9,56.4z M309.5,82h-43c-4.4,0-8,3.6-8,8s3.6,8,8,8h43c4.4,0,8-3.6,8-8
	S313.9,82,309.5,82z M164,67h73.8c4.4,0,8-3.6,8-8s-3.6-8-8-8H164c-4.4,0-8,3.6-8,8S159.6,67,164,67z M485.1,434.2
	c-5.9,0-10.8,4.8-10.8,10.8s4.8,10.8,10.8,10.8c5.9,0,10.8-4.8,10.8-10.8S491,434.2,485.1,434.2z M377.2,24.1H224.7
	c-4.4,0-8,3.6-8,8s3.6,8,8,8h152.5c4.4,0,8-3.6,8-8S381.6,24.1,377.2,24.1z M270.2,477H117.7c-4.4,0-8,3.6-8,8s3.6,8,8,8h152.5
	c4.4,0,8-3.6,8-8S274.6,477,270.2,477z"></path>
<linearGradient id="SVGID_1_" gradientUnits="userSpaceOnUse" x1="315.4733" y1="433.9413" x2="315.4733" y2="159.6847" class="gradient-element">
	<stop offset="0" class="primary-color-gradient" style="stop-color: #FFA4ED"></stop>
	<stop offset="1" class="secondary-color-gradient" style="stop-color: #DB81DA"></stop>
</linearGradient>
<path fill="url(#SVGID_1_)" d="M466.6,181.7v135.8v3.6v95c0,14.3-11.6,25.8-25.8,25.8h-22.2v0.7H211.9c-26.3,0-47.6-21.3-47.6-47.6
	v0c0-26.3,21.3-47.6,47.6-47.6h126.6l38.9,62.3l38.9-62.3h0.6v-1l0.5-0.7H417v-24.6v-3.6V204.9H301.8c-16.9,0-30.6-13.7-30.6-30.6
	c0-16.9,13.7-30.6,30.6-30.6H417h11.5h6.2v0.5C452.8,147.2,466.6,162.8,466.6,181.7z"></path>
<linearGradient id="SVGID_2_" gradientUnits="userSpaceOnUse" x1="342.7819" y1="225.7123" x2="419.4975" y2="225.7123">
	<stop offset="0" class="primary-color-gradient" style="stop-color: #FFA4ED"></stop>
	<stop offset="1" class="secondary-color-gradient" style="stop-color: #DB81DA"></stop>
</linearGradient>
<path fill="url(#SVGID_2_)" d="M419.5,137.7v176h-76.7v-176H419.5z"></path>
<path d="M466.6,282.2c4.4,0,8-3.6,8-8V172.5c0-18.1-14.7-32.8-32.8-32.8h-16.3v-2v-32v-32c0-4.4-3.6-8-8-8h-80c-4.4,0-8,3.6-8,8v32
	v32v2h-32.7c-18.1,0-22.2-2.3-40.5-22.4c-17.3-19-35.2-27.1-59.8-27.1H70.3c-18.1,0-32.8,14.7-32.8,32.8v297.2
	c0,18.1,14.7,32.8,32.8,32.8h371.6c18.1,0,32.8-14.7,32.8-32.8V301h-49.1V155.8h16.3c9.2,0,16.8,7.5,16.8,16.8v101.7
	C458.6,278.6,462.2,282.2,466.6,282.2z M377.5,394.6l-25.4-40.7H390c0.6,0,1.2-0.1,1.8-0.2h11.3L377.5,394.6z M409.5,129.7h-32h-32
	v-16h64V129.7z M329.5,313.7v24.2H103V234.5c0-10.1,6.1-29.2,29.2-29.2l197.3-0.3V313.7z M409.5,321.7v16h-64v-16h32H409.5z
	 M345.5,305.7v-150h24v150H345.5z M345.5,81.7h64v16h-64V81.7z M458.6,420.2c0,9.2-7.5,16.8-16.8,16.8H70.3
	c-9.2,0-16.8-7.5-16.8-16.8V123c0-9.2,7.5-16.8,16.8-16.8h126.2c20.2,0,33.6,6.1,48,21.9c19,20.9,27.2,27.6,52.4,27.6h32.7V189
	l-197.3,0.3c-18.5,0-29.3,8.7-35.1,16C90.7,213.4,87,224,87,234.5v119.5h246.2l30.1,48.2H239.7c-4.4,0-8,3.6-8,8s3.6,8,8,8h137.6
	c3.2,0,5.9-1.9,7.2-4.5l39.8-63.7c0,0,0-0.1,0.1-0.1c0.1-0.2,0.3-0.5,0.4-0.7c0-0.1,0.1-0.1,0.1-0.2c0.1-0.3,0.2-0.6,0.3-0.9
	c0,0,0-0.1,0-0.1c0.1-0.3,0.1-0.5,0.2-0.8c0-0.1,0-0.2,0-0.3c0-0.2,0.1-0.5,0.1-0.7c0-0.1,0-0.2,0-0.3c0,0,0-0.1,0-0.1V317h33.1
	V420.2z M409.5,305.7h-24v-150h24V305.7z M130.7,256.7c0-4.4,3.6-8,8-8h74.9c4.4,0,8,3.6,8,8s-3.6,8-8,8h-74.9
	C134.3,264.7,130.7,261.1,130.7,256.7z M138.7,301.9h171.2c4.4,0,8,3.6,8,8s-3.6,8-8,8H138.7c-4.4,0-8-3.6-8-8
	S134.3,301.9,138.7,301.9z"></path>
</svg>