<svg version="1.1" id="Layer_1" xmlns="http://www.w3.org/2000/svg" xmlns:xlink="http://www.w3.org/1999/xlink" x="0px" y="0px" viewBox="0 0 512 512" enable-background="new 0 0 512 512" xml:space="preserve">
<linearGradient id="SVGID_1_" gradientUnits="userSpaceOnUse" x1="293.821" y1="437.0468" x2="293.821" y2="97.0233" class="gradient-element">
	<stop offset="0" class="primary-color-gradient" style="stop-color: #FFA4ED"></stop>
	<stop offset="1" class="secondary-color-gradient" style="stop-color: #DB81DA"></stop>
</linearGradient>
<path fill="url(#SVGID_1_)" d="M254.7,89.9l208.7,117.4l-78.3,44.1v131.3c0,0,1.7,50.1-64.5,65.2c-66.2,15.1-117.4,7.8-141-2.6
	s-55.4-21.8-55.4-62.5s43.1,3.9,111.8,8.1c68.8,4.2,109.3-11.8,109.3-41.8s-2-75-2-75l-83.9,43c0,0-41.1-34.5,13.9-76.8
	S254.7,165,254.7,165C215.3,144.8,226.6,118.4,254.7,89.9z"></path>
<path d="M254.7,463.2c-55.9,0-96-11.4-119.2-33.9c-18.7-18.2-19.3-37.2-19.3-39.3V256.4l-74.2-41.5c-2.5-1.4-4.1-4.1-4.1-7
	s1.5-5.6,4.1-7L250.8,83c2.4-1.4,5.4-1.4,7.9,0l208.7,117.4c2.5,1.4,4.1,4.1,4.1,7c0,2.9-1.6,5.6-4.1,7l-22,12.4V403
	c0,4.4-3.6,8-8,8s-8-3.6-8-8V222.1c0-2.9,1.6-5.5,4.1-7l13.7-7.8L254.7,99.1L62.3,207.8l65.9,36.9c2.5,1.4,4.1,4.1,4.1,7V390
	c0,0.6,0.2,14.1,14.5,28c13.8,13.4,43.8,29.3,107.9,29.3c64.1,0,94.1-15.9,107.9-29.3c14.3-13.8,14.5-27.4,14.5-28V251.4
	c0-2.9,1.6-5.5,4.1-7l26.1-14.7c3.8-2.2,8.7-0.8,10.9,3c2.2,3.8,0.8,8.7-3,10.9l-22,12.4V390c0,2.1-0.5,21.2-19.3,39.3
	C350.7,451.8,310.6,463.2,254.7,463.2z M254.7,332.7c-1.3,0-2.7-0.3-3.9-1l-104.4-58.4c-3.9-2.2-5.2-7-3.1-10.9
	c2.2-3.9,7-5.2,10.9-3.1l100.4,56.2l100.4-56.5c3.9-2.2,8.7-0.8,10.9,3.1c2.2,3.9,0.8,8.7-3.1,10.9l-104.4,58.7
	C257.4,332.4,256,332.7,254.7,332.7z"></path>
<path fill="#FFA4ED" class="primary-color" d="M461,114.7L400,53.8H461V114.7z M67.2,488.7h34.7V454H67.2V488.7z M15.1,488.7h34.7V454H15.1V488.7z
	 M15.1,435.4h34.7v-34.7H15.1V435.4z"></path>
<path d="M171.9,347.7h-43c-4.4,0-8-3.6-8-8s3.6-8,8-8h43c4.4,0,8,3.6,8,8S176.3,347.7,171.9,347.7z M158.4,369.7c0-4.4-3.6-8-8-8
	H76.6c-4.4,0-8,3.6-8,8s3.6,8,8,8h73.8C154.8,377.7,158.4,374.1,158.4,369.7z M492.8,455c0-4.4-3.6-8-8-8h-47.6c-4.4,0-8,3.6-8,8
	s3.6,8,8,8h47.6C489.2,463,492.8,459.4,492.8,455z M469,478.8v-47.6c0-4.4-3.6-8-8-8s-8,3.6-8,8v47.6c0,4.4,3.6,8,8,8
	S469,483.2,469,478.8z M57.4,75.3c0-4.4-3.6-8-8-8H25.6c-4.4,0-8,3.6-8,8s3.6,8,8,8h23.8C53.8,83.3,57.4,79.8,57.4,75.3z M45.5,87.2
	V63.4c0-4.4-3.6-8-8-8s-8,3.6-8,8v23.8c0,4.4,3.6,8,8,8S45.5,91.6,45.5,87.2z M167.5,45.6c0-14.6-11.8-26.4-26.4-26.4
	c-4.4,0-8,3.6-8,8s3.6,8,8,8c5.7,0,10.4,4.7,10.4,10.4S146.9,56,141.1,56c-4.4,0-8,3.6-8,8s3.6,8,8,8
	C155.7,72,167.5,60.2,167.5,45.6z M402.4,103.7c0-4.4-3.6-8-8-8h-43c-4.4,0-8,3.6-8,8s3.6,8,8,8h43
	C398.8,111.7,402.4,108.1,402.4,103.7z"></path>
</svg>