<svg version="1.1" id="Layer_1" xmlns="http://www.w3.org/2000/svg" xmlns:xlink="http://www.w3.org/1999/xlink" x="0px" y="0px" viewBox="0 0 512 512" enable-background="new 0 0 512 512" xml:space="preserve">
<linearGradient id="SVGID_1_" gradientUnits="userSpaceOnUse" x1="262.1547" y1="397.0653" x2="262.1547" y2="102.8583" class="gradient-element">
	<stop offset="0" class="primary-color-gradient" style="stop-color: #FFA4ED"></stop>
	<stop offset="1" class="secondary-color-gradient" style="stop-color: #DB81DA"></stop>
</linearGradient>
<path fill="url(#SVGID_1_)" d="M259,287.2c-3.9-132.6,0.1-121.6,1.2-198.2c0-3.1,4.1-4.2,5.7-1.6l128.3,199.3
	c4.8,7.8-0.8,17.9-10,17.9H276.8C267.2,304.5,259.3,296.8,259,287.2z M384.1,346.2h-96.3c-12.2,0-21.9,10.2-21.3,22.3v-5.8
	c0.5,11.6-8.8,21.3-20.4,21.2l-111.7-0.9c-7.5-0.1-8.1,17-0.6,17.5c0.3,0,0.5,0,0.8,0h249.6c6.5,0,11.8-5.3,11.8-11.8v-30.7
	C395.9,351.5,390.6,346.2,384.1,346.2z"></path>
<g>
	<path fill="#FFA4ED" class="primary-color" d="M53.5,61.2H18.8V26.5h34.7V61.2z M108.7,26.5H74.1v34.7h34.7V26.5z"></path>
	<path fill="#DB81DA" class="secondary-color" d="M258,474.4v12.9H20.9v-12.9H258z"></path>
</g>
<path d="M105.8,404.1c0,4.4-3.6,8-8,8H94v3.9c0,4.4-3.6,8-8,8s-8-3.6-8-8v-3.9h-3.9c-4.4,0-8-3.6-8-8s3.6-8,8-8H78v-3.9
	c0-4.4,3.6-8,8-8s8,3.6,8,8v3.9h3.9C102.3,396.1,105.8,399.7,105.8,404.1z M419.6,64.3h3.9v3.9c0,4.4,3.6,8,8,8s8-3.6,8-8v-3.9h3.9
	c4.4,0,8-3.6,8-8s-3.6-8-8-8h-3.9v-3.9c0-4.4-3.6-8-8-8s-8,3.6-8,8v3.9h-3.9c-4.4,0-8,3.6-8,8S415.2,64.3,419.6,64.3z M418.7,437.5
	h59.2c4.4,0,8-3.6,8-8s-3.6-8-8-8h-59.2c-4.4,0-8,3.6-8,8S414.3,437.5,418.7,437.5z M476.4,467.8H349.1c-4.4,0-8,3.6-8,8s3.6,8,8,8
	h127.3c4.4,0,8-3.6,8-8S480.8,467.8,476.4,467.8z M71.3,274c0-4.4-3.6-8-8-8H43.6c-4.4,0-8,3.6-8,8s3.6,8,8,8h19.7
	C67.7,282,71.3,278.4,71.3,274z"></path>
<path d="M385.1,312.5H135.4c-4.4,0-8-3.6-8-8s3.6-8,8-8h249.7c2,0,3-1.3,3.3-1.9c0.3-0.6,1-2.1-0.1-3.8L263.5,88.5
	c-1-1.6-2.4-1.8-3.2-1.8s-2.2,0.2-3.2,1.8L132.2,290.8c-2.3,3.8-7.2,4.9-11,2.6c-3.8-2.3-4.9-7.2-2.6-11L243.5,80
	c3.6-5.9,9.9-9.4,16.8-9.4s13.2,3.5,16.8,9.4L402,282.4c3.8,6.2,4,13.7,0.4,20C398.9,308.8,392.4,312.5,385.1,312.5z M404.6,388.7
	v-30.7c0-10.8-8.8-19.5-19.5-19.5H123.7c-4.2,0-7.7,3.4-7.7,7.7s3.4,7.7,7.7,7.7h261.4c2.3,0,4.2,1.9,4.2,4.2v30.7
	c0,2.3-1.9,4.2-4.2,4.2H135.5c-2.3,0-4.2-1.9-4.2-4.2v-17.3c0-4.2-3.4-7.7-7.7-7.7s-7.7,3.4-7.7,7.7v17.3c0,10.8,8.8,19.5,19.5,19.5
	h249.6C395.8,408.3,404.6,399.5,404.6,388.7z"></path>
</svg>