<svg version="1.1" id="Layer_1" xmlns="http://www.w3.org/2000/svg" xmlns:xlink="http://www.w3.org/1999/xlink" x="0px" y="0px" viewBox="0 0 512 512" enable-background="new 0 0 512 512" xml:space="preserve">
<linearGradient id="SVGID_1_" gradientUnits="userSpaceOnUse" x1="261.5331" y1="350.9718" x2="260.0173" y2="143.3086" class="gradient-element">
	<stop offset="0" class="primary-color-gradient" style="stop-color: #FFA4ED"></stop>
	<stop offset="1" class="secondary-color-gradient" style="stop-color: #DB81DA"></stop>
</linearGradient>
<path fill="url(#SVGID_1_)" d="M365.7,352.9H157.4l15.6-173c0-12.8,11-23.8,24.6-23.8h127.9c13.6,0,24.6,11,24.6,24.6L365.7,352.9z"></path>
<path d="M428.8,419.9c-4.4,0-8-3.6-8-8v-39.4c0-6.4-5.2-11.7-11.7-11.7H114c-6.4,0-11.7,5.2-11.7,11.7v31.4h287.2c4.4,0,8,3.6,8,8
	s-3.6,8-8,8H94.3c-4.4,0-8-3.6-8-8v-39.4c0-15.3,12.4-27.7,27.7-27.7h285.4l-18.3-183c-2.1-21.2-19.6-37.2-40.8-37.2H182.8
	c-21.2,0-38.7,16-40.8,37.1L126,322.4c-0.4,4.4-4.4,7.6-8.8,7.2c-4.4-0.4-7.6-4.4-7.2-8.8l16.1-160.5c2.9-29.4,27.3-51.6,56.7-51.6
	h157.4c29.4,0,53.8,22.2,56.7,51.6l18.5,185.3c12.2,2.9,21.3,13.9,21.3,26.9v39.4C436.8,416.4,433.2,419.9,428.8,419.9z"></path>
<g>
	<path fill="#DB81DA" class="secondary-color" d="M479.8,152.6v34.7h-34.7v-34.7H479.8z M33.3,451.6v34.7h34.7v-34.7H33.3z"></path>
	<path fill="#FFA4ED" class="primary-color" d="M115.5,451.6v34.7H80.8v-34.7H115.5z"></path>
</g>
<path d="M42.6,70.6c0-4.4,3.6-8,8-8h15.8V46.8c0-4.4,3.6-8,8-8s8,3.6,8,8v15.8h15.8c4.4,0,8,3.6,8,8s-3.6,8-8,8H82.4v15.8
	c0,4.4-3.6,8-8,8s-8-3.6-8-8V78.6H50.6C46.2,78.6,42.6,75,42.6,70.6z M367.5,86.2c20.3,0,36.8-16.5,36.8-36.8c0-4.4-3.6-8-8-8
	s-8,3.6-8,8c0,11.4-9.3,20.8-20.8,20.8c-4.4,0-8,3.6-8,8S363.1,86.2,367.5,86.2z M446.3,86.2c4.4,0,8-3.6,8-8s-3.6-8-8-8
	c-11.4,0-20.8-9.3-20.8-20.8c0-4.4-3.6-8-8-8s-8,3.6-8,8C409.5,69.7,426,86.2,446.3,86.2z M417.5,136.2c4.4,0,8-3.6,8-8
	c0-11.4,9.3-20.8,20.8-20.8c4.4,0,8-3.6,8-8s-3.6-8-8-8c-20.3,0-36.8,16.5-36.8,36.8C409.5,132.7,413.1,136.2,417.5,136.2z
	 M396.3,136.2c4.4,0,8-3.6,8-8c0-20.3-16.5-36.8-36.8-36.8c-4.4,0-8,3.6-8,8s3.6,8,8,8c11.4,0,20.8,9.3,20.8,20.8
	C388.3,132.7,391.9,136.2,396.3,136.2z M445.1,292.9c-5.9,0-10.8,4.8-10.8,10.8s4.8,10.8,10.8,10.8s10.8-4.8,10.8-10.8
	S451,292.9,445.1,292.9z M62.5,307.5h-3.9v-3.9c0-4.4-3.6-8-8-8s-8,3.6-8,8v3.9h-3.9c-4.4,0-8,3.6-8,8s3.6,8,8,8h3.9v3.9
	c0,4.4,3.6,8,8,8s8-3.6,8-8v-3.9h3.9c4.4,0,8-3.6,8-8S66.9,307.5,62.5,307.5z M156.2,163.3c0-4.4-3.6-8-8-8H74.4c-4.4,0-8,3.6-8,8
	s3.6,8,8,8h73.8C152.6,171.3,156.2,167.7,156.2,163.3z M465.7,444.6h-73.8c-4.4,0-8,3.6-8,8s3.6,8,8,8h73.8c4.4,0,8-3.6,8-8
	S470.1,444.6,465.7,444.6z M186.7,188.5h-73.8c-4.4,0-8,3.6-8,8s3.6,8,8,8h73.8c4.4,0,8-3.6,8-8S191.1,188.5,186.7,188.5z"></path>
</svg>