<svg version="1.1" id="Layer_1" xmlns="http://www.w3.org/2000/svg" xmlns:xlink="http://www.w3.org/1999/xlink" x="0px" y="0px" viewBox="0 0 512 512" enable-background="new 0 0 512 512" xml:space="preserve">
<g>
	<linearGradient id="SVGID_1_" gradientUnits="userSpaceOnUse" x1="415.2397" y1="265.7237" x2="289.254" y2="265.7237" class="gradient-element">
		<stop offset="0" class="primary-color-gradient" style="stop-color: #FFA4ED"></stop>
		<stop offset="1" class="secondary-color-gradient" style="stop-color: #DB81DA"></stop>
	</linearGradient>
	<path fill="url(#SVGID_1_)" d="M409,278.5c-6.5,54.7-54,74.2-74.5,80.1c9.3-0.1,18.3-1.6,24.9-5.4c22-12.9,0,15.9,0,15.9l-34,13.6
		l-36.6-21.8h2.7l-2.7-8.9c0,0,17.5,5.1,36.3,6.4v-201c0,0-3.1-6.6,0-8.3c3.1-1.7,83.9,9.4,83.9,9.4S417.3,208.4,409,278.5z"></path>
	<linearGradient id="SVGID_2_" gradientUnits="userSpaceOnUse" x1="374.9305" y1="501.7318" x2="374.9305" y2="359.2311">
		<stop offset="0" class="primary-color-gradient" style="stop-color: #FFA4ED"></stop>
		<stop offset="1" class="secondary-color-gradient" style="stop-color: #DB81DA"></stop>
	</linearGradient>
	<path fill="url(#SVGID_2_)" d="M343.3,483.1L343.3,483.1l-35.3,0l11.5-32.5l-22.8-21.3l11-19.3l-50.4-22.8V352l67.9,30.7l47-21.2
		l20.9-9.4v29.2c4.8,3,10.5,6,17.3,8.9c47.4,20.7,76.6,34.5,81.8,93H343.3z"></path>
	<linearGradient id="SVGID_3_" gradientUnits="userSpaceOnUse" x1="107.1364" y1="335.3228" x2="107.1364" y2="178.5484">
		<stop offset="0" class="primary-color-gradient" style="stop-color: #FFA4ED"></stop>
		<stop offset="1" class="secondary-color-gradient" style="stop-color: #DB81DA"></stop>
	</linearGradient>
	<path fill="url(#SVGID_3_)" d="M192.3,178.5H18c-4.4,0-4,3.6-4,8v94.8h112.5l49,53.9v-53.9h24.8v-94.8
		C200.3,182.1,196.7,178.5,192.3,178.5z"></path>
</g>
<path d="M499.1,452.3c-7.5-19.5-24.4-45.9-62-61.1c-14.3-5.8-26.4-11.6-35.8-17.3V352c0-2.7-1.4-5.2-3.7-6.7
	c-2.3-1.5-5.2-1.7-7.6-0.6l-3.2,1.4c2.2-1.8,4.3-3.8,6.4-5.9c14.2-14.3,22.3-31.5,26.6-43.3c2.9-8,4.4-16.4,4.4-25V149.7
	c0-2.6-1.3-5.1-3.5-6.6c-2.2-1.5-4.9-1.8-7.4-0.9c-15.1,5.8-30,2.1-45.7-1.9c-20.9-5.2-44.6-11.1-69.7,6.7
	c-3.6,2.6-4.5,7.6-1.9,11.2c2.6,3.6,7.6,4.5,11.2,1.9c19.1-13.6,36.5-9.2,56.6-4.2c14.2,3.6,28.9,7.2,44.5,4.3v111.6
	c0,6.7-1.1,13.3-3.4,19.5c-8,22.1-28.5,59.1-75.5,59.1c-46.3,0-67-34.3-75.2-54.7c-2.7-6.7-4.1-13.9-4.1-21.3v-114
	c0-16,9.5-27.6,17.5-34.4c17.8-15.4,45.1-22.5,71-18.6c9,1.3,17.2,3.7,25.2,5.9c19.3,5.5,39.2,11.1,65,0.4c4.1-1.7,6-6.4,4.3-10.5
	s-6.4-6-10.5-4.3c-20.6,8.6-35.5,4.3-54.5-1c-8.5-2.4-17.2-4.9-27.2-6.4c-30.4-4.6-62.6,4-83.8,22.3c-14.9,12.8-23.1,29.3-23.1,46.6
	v110.2h-58.7c-2.1,0-4.2,0.9-5.7,2.4s-2.3,3.6-2.3,5.7l0.2,36.5L127,273.2c-1.5-1.6-3.6-2.5-5.8-2.5H26.1V130.5h196.5
	c4.4,0,8-3.6,8-8s-3.6-8-8-8H18.1c-4.4,0-8,3.6-8,8v156.2c0,4.4,3.6,8,8,8h99.7l51.9,54.2c1.5,1.6,3.6,2.5,5.8,2.5c1,0,2-0.2,3-0.6
	c3-1.2,5-4.2,5-7.5l-0.3-48.6h51.7c0.9,5.2,2.2,10.2,4.2,15.1c4.5,11.2,12.9,27.5,27.3,40.8c4.9,4.6,10.2,8.5,15.8,11.8l-21.4-9.7
	c-2.5-1.1-5.4-0.9-7.6,0.6c-2.3,1.5-3.7,4-3.7,6.7v26.9c-7.8,4.1-16.8,8.2-27,12.4c-37.6,15.2-54.4,41.6-62,61.1
	c-8.2,21.1-7.4,38.6-7.4,39.4c0.2,4.3,3.7,7.6,8,7.6c0.1,0,0.3,0,0.4,0c4.4-0.2,7.8-4,7.6-8.4c0-0.6-2.2-60,59.4-84.9
	c9.5-3.8,18.1-7.7,25.7-11.6c0,0,0,0,0.1,0l42.4,19.1l-6.7,11.7c-1.8,3.2-1.2,7.3,1.5,9.8l18.9,17.7l-9.8,27.6
	c-0.3,0.9-0.5,1.9-0.5,2.8H187.3c-4.4,0-8,3.6-8,8s3.6,8,8,8h311.2c4.3,0,7.8-3.3,8-7.6C506.5,490.9,507.3,473.4,499.1,452.3z
	 M341.2,401.9h-7.8v-14.1l51.9-23.4V382L341.2,401.9z M329.1,366.5c5.2,0,10.2-0.4,15.1-1.1l-18.8,8.5l-26.6-12
	C308.2,364.9,318.3,366.5,329.1,366.5z M265.5,364.3l51.9,23.4v14.1h-7.8L265.5,382V364.3z M312.5,417.9h25.7l5.6,9.8l-18,16.8
	c0,0,0,0,0,0l-0.5,0.4l-18.4-17.3L312.5,417.9z M323.6,463.7c0.3,0.1,0.5,0.1,0.8,0.1c0.1,0,0.1,0,0.2,0c0.3,0,0.6,0,0.8,0
	c0,0,0.1,0,0.1,0c0.1,0,0.1,0,0.2,0c0.3,0,0.5,0,0.8-0.1c0.1,0,0.1,0,0.2,0c0.3-0.1,0.6-0.1,1-0.2c0,0,0,0,0,0l4.2,11.5h-12.5
	l4-11.4C323.5,463.7,323.6,463.7,323.6,463.7z M351.3,483.3c0-1-0.1-2-0.5-2.9l-10.2-27.7l18.7-17.5c2.7-2.5,3.3-6.6,1.5-9.8
	l-6.7-11.7l42.4-19.1c1.4-0.6,2.6-1.7,3.4-2.9c8.9,4.8,19.3,9.7,31.2,14.5c25.7,10.4,43.4,27.7,52.8,51.4
	c4.1,10.3,5.6,19.6,6.2,25.8H351.3z M194.5,242.5c0,4.4-3.6,8-8,8H48.9c-4.4,0-8-3.6-8-8s3.6-8,8-8h137.6
	C190.9,234.5,194.5,238.1,194.5,242.5z M194.5,202.5c0,4.4-3.6,8-8,8H48.9c-4.4,0-8-3.6-8-8s3.6-8,8-8h137.6
	C190.9,194.5,194.5,198.1,194.5,202.5z M194.5,162.5c0,4.4-3.6,8-8,8H48.9c-4.4,0-8-3.6-8-8s3.6-8,8-8h137.6
	C190.9,154.5,194.5,158.1,194.5,162.5z"></path>
<g>
	<path fill="#FFA4ED" class="primary-color" d="M416.8,33.3V18.7h14.6v14.6H416.8z"></path>
	<path fill="#FFA4ED" class="primary-color" d="M291.4,33.3V18.7h101.8v14.6H291.4z"></path>
</g>
<path d="M44.3,421.3c-4.4,0-8-3.6-8-8s3.6-8,8-8c11.4,0,20.8-9.3,20.8-20.8c0-4.4,3.6-8,8-8s8,3.6,8,8
	C81,404.8,64.5,421.3,44.3,421.3z M131,413.3c0-4.4-3.6-8-8-8c-11.4,0-20.8-9.3-20.8-20.8c0-4.4-3.6-8-8-8s-8,3.6-8,8
	c0,20.3,16.5,36.8,36.8,36.8C127.4,421.3,131,417.7,131,413.3z M102.3,463.3c0-11.4,9.3-20.8,20.8-20.8c4.4,0,8-3.6,8-8s-3.6-8-8-8
	c-20.3,0-36.8,16.5-36.8,36.8c0,4.4,3.6,8,8,8S102.3,467.7,102.3,463.3z M81,463.3c0-20.3-16.5-36.8-36.8-36.8c-4.4,0-8,3.6-8,8
	s3.6,8,8,8c11.4,0,20.8,9.3,20.8,20.8c0,4.4,3.6,8,8,8S81,467.7,81,463.3z M483,137.2c0-5-4.1-9-9-9s-9,4.1-9,9s4.1,9,9,9
	S483,142.2,483,137.2z M483,167.2c0-5-4.1-9-9-9s-9,4.1-9,9s4.1,9,9,9S483,172.2,483,167.2z M483,197.2c0-5-4.1-9-9-9s-9,4.1-9,9
	s4.1,9,9,9S483,202.2,483,197.2z M482,106.3V18.7c0-4.4-3.6-8-8-8s-8,3.6-8,8v87.6c0,4.4,3.6,8,8,8S482,110.7,482,106.3z M482,314.2
	v-87.6c0-4.4-3.6-8-8-8s-8,3.6-8,8v87.6c0,4.4,3.6,8,8,8S482,318.6,482,314.2z M254.7,67.8c0-4.4-3.6-8-8-8h-89.9c-4.4,0-8,3.6-8,8
	s3.6,8,8,8h89.9C251.1,75.8,254.7,72.2,254.7,67.8z M180.4,35.8c0-4.4-3.6-8-8-8H113c-4.4,0-8,3.6-8,8s3.6,8,8,8h59.5
	C176.9,43.8,180.4,40.3,180.4,35.8z M52.8,67.8c0-4.4-3.6-8-8-8H21c-4.4,0-8,3.6-8,8s3.6,8,8,8h23.8C49.2,75.8,52.8,72.2,52.8,67.8z
	 M40.9,79.7V55.9c0-4.4-3.6-8-8-8s-8,3.6-8,8v23.8c0,4.4,3.6,8,8,8S40.9,84.1,40.9,79.7z"></path>
</svg>