<svg version="1.1" id="Layer_1" xmlns="http://www.w3.org/2000/svg" xmlns:xlink="http://www.w3.org/1999/xlink" x="0px" y="0px" viewBox="0 0 512 512" enable-background="new 0 0 512 512" xml:space="preserve">
<path fill="#DB81DA" class="secondary-color" d="M36.6,414.3H14.8v-56.9h21.8V414.3z M146.9,491.2v-21.8H89.9v21.8H146.9z M36.6,469.4v-36.9H14.8v36.9v20
	v1.8h56.9v-21.8H36.6z"></path>
<path d="M213.2,233.6c2.3,1.8,4.5,3.7,6.6,5.7c-1.5-1.2-3.1-2.5-4.8-3.9C214.4,234.9,213.8,234.3,213.2,233.6z M95.2,65.6h-43
	c-4.4,0-8,3.6-8,8s3.6,8,8,8h43c4.4,0,8-3.6,8-8S99.6,65.6,95.2,65.6z M424.3,80.7c0,4.4,3.6,8,8,8s8-3.6,8-8V64.9h15.8
	c4.4,0,8-3.6,8-8s-3.6-8-8-8h-15.8V33.1c0-4.4-3.6-8-8-8s-8,3.6-8,8v15.8h-15.8c-4.4,0-8,3.6-8,8s3.6,8,8,8h15.8V80.7z M467.4,145.7
	c-5.9,0-10.8,4.8-10.8,10.8s4.8,10.8,10.8,10.8c5.9,0,10.8-4.8,10.8-10.8S473.3,145.7,467.4,145.7z M466.8,455.3c-4.4,0-8,3.6-8,8
	c0,5.7-4.7,10.4-10.4,10.4c-5.7,0-10.4-4.7-10.4-10.4c0-4.4-3.6-8-8-8s-8,3.6-8,8c0,14.6,11.8,26.4,26.4,26.4s26.4-11.8,26.4-26.4
	C474.8,458.9,471.2,455.3,466.8,455.3z"></path>
<linearGradient id="SVGID_1_" gradientUnits="userSpaceOnUse" x1="230.0317" y1="355.8478" x2="233.0632" y2="219.4281" class="gradient-element">
	<stop offset="0" class="primary-color-gradient" style="stop-color: #FFA4ED"></stop>
	<stop offset="1" class="secondary-color-gradient" style="stop-color: #DB81DA"></stop>
</linearGradient>
<path fill="url(#SVGID_1_)" d="M304.2,244.3h-49.6c12.9,0,23.4,10.5,23.4,23.4c0,8.7-4.7,16.2-11.7,20.3v26.6h-23.4V288
	c-7-4-11.7-11.6-11.7-20.3c0-12.9,10.5-23.4,23.4-23.4h-96.4c-11.5,0-20.7,9.3-20.7,20.7v75.7c0,11.4,9.3,20.7,20.7,20.7h146
	c11.4,0,20.7-9.3,20.7-20.7V265C324.9,253.6,315.6,244.3,304.2,244.3z"></path>
<path d="M254.6,463.1c-48.8,0-96.2-17.4-133.5-49c-36.8-31.2-61.7-74.4-70.2-121.6c-0.8-4.3,2.1-8.5,6.5-9.3
	c4.4-0.8,8.5,2.1,9.3,6.5c16.3,91.2,95.4,157.4,188,157.4c105.4,0,191.1-85.7,191.1-191.1c0-1.2,0-2.5-0.1-3.7h-73.9
	c-4.4,0-8-3.6-8-8v-38.9h-15.4c-4.4,0-8-3.6-8-8c0-47.3-38.4-85.7-85.7-85.7s-85.7,38.4-85.7,85.7c0,4.4-3.6,8-8,8h-15.4v38.9
	c0,4.4-3.6,8-8,8s-8-3.6-8-8v-46.9c0-4.4,3.6-8,8-8h15.7c4.1-52.4,48-93.7,101.4-93.7s97.3,41.3,101.4,93.7h15.7c4.4,0,8,3.6,8,8
	v38.9h73.4c4.2,0,7.7,3.3,8,7.5c0.1,1,0.1,2.1,0.2,3.1c0.2,2.9,0.4,5.9,0.4,9.1C461.8,370.2,368.8,463.1,254.6,463.1z M371.8,369.4
	h-23.4c-4.4,0-8-3.6-8-8s3.6-8,8-8h15.4v-85.7c0-4.4,3.6-8,8-8s8,3.6,8,8v93.7C379.8,365.8,376.2,369.4,371.8,369.4z M324.9,369.4
	H137.5c-4.4,0-8-3.6-8-8v-85.7H56.1c-4.2,0-7.7-3.3-8-7.5c-0.1-1-0.1-2.1-0.2-3.1c-0.2-2.9-0.4-5.9-0.4-9.1
	c0-114.2,92.9-207.1,207.1-207.1c48.8,0,96.2,17.4,133.5,49c36.8,31.2,61.7,74.4,70.2,121.6c0.8,4.3-2.1,8.5-6.5,9.3
	c-4.3,0.8-8.5-2.1-9.3-6.5c-16.3-91.2-95.4-157.4-188-157.4C149.2,64.9,63.5,150.6,63.5,256c0,1.2,0,2.5,0.1,3.7h73.9
	c4.4,0,8,3.6,8,8v85.7h179.4c4.4,0,8,3.6,8,8S329.3,369.4,324.9,369.4z M266.3,322.6h-23.4c-4.4,0-8-3.6-8-8v-22.4
	c-7.3-5.9-11.7-14.9-11.7-24.5c0-17.3,14.1-31.4,31.4-31.4c17.3,0,31.4,14.1,31.4,31.4c0,9.5-4.4,18.5-11.7,24.5v22.4
	C274.3,319,270.8,322.6,266.3,322.6z M250.9,306.6h7.4V288c0-2.9,1.5-5.5,4-6.9c4.8-2.8,7.7-7.9,7.7-13.4c0-8.5-6.9-15.4-15.4-15.4
	c-8.5,0-15.4,6.9-15.4,15.4c0,5.5,3,10.6,7.7,13.4c2.5,1.4,4,4.1,4,6.9V306.6z M324.9,205.4H184.4c-4.4,0-8-3.6-8-8
	c0-43.2,35.1-78.3,78.3-78.3c25.1,0,48.8,12.2,63.5,32.6c2.6,3.6,1.8,8.6-1.8,11.2c-3.6,2.6-8.6,1.8-11.2-1.8
	c-11.7-16.2-30.6-25.9-50.6-25.9c-31.6,0-57.8,23.7-61.8,54.3h132c4.4,0,8,3.6,8,8S329.3,205.4,324.9,205.4z"></path>
</svg>