<svg version="1.1" id="Layer_1" xmlns="http://www.w3.org/2000/svg" xmlns:xlink="http://www.w3.org/1999/xlink" x="0px" y="0px" viewBox="0 0 512 512" enable-background="new 0 0 512 512" xml:space="preserve">
<linearGradient id="SVGID_1_" gradientUnits="userSpaceOnUse" x1="99.2515" y1="282.3497" x2="408.2476" y2="282.3497" class="gradient-element">
	<stop offset="0" class="primary-color-gradient" style="stop-color: #FFA4ED"></stop>
	<stop offset="1" class="secondary-color-gradient" style="stop-color: #DB81DA"></stop>
</linearGradient>
<path fill="url(#SVGID_1_)" d="M256.4,448.3l-99.8-10.5c-15.9,0-30.2-6.4-40.6-16.8c-10.3-10.2-16.7-24.4-16.8-40.1
	c-0.3-31.9,26.6-42.3,58.4-42.3l98.9,2.4c34.4,0,62.4-50.1,62.4-84.5v-78.3c0-34.4,27.9-51.4,62.4-51.4l26.9-11v268.7
	c0,27.2-20.1,36.8-47.2,51.5L256.4,448.3z M256.4,448.9"></path>
<path d="M60.9,283.9c0,5.9-4.8,10.8-10.8,10.8s-10.8-4.8-10.8-10.8s4.8-10.8,10.8-10.8S60.9,278,60.9,283.9z M50.2,334.2
	c-5.9,0-10.8,4.8-10.8,10.8s4.8,10.8,10.8,10.8s10.8-4.8,10.8-10.8S56.1,334.2,50.2,334.2z M50.2,203.2c-5.9,0-10.8,4.8-10.8,10.8
	s4.8,10.8,10.8,10.8s10.8-4.8,10.8-10.8S56.1,203.2,50.2,203.2z M455.9,244.6h-43c-4.4,0-8,3.6-8,8s3.6,8,8,8h43c4.4,0,8-3.6,8-8
	S460.3,244.6,455.9,244.6z M483.5,53h-15.8V37.2c0-4.4-3.6-8-8-8s-8,3.6-8,8V53H436c-4.4,0-8,3.6-8,8s3.6,8,8,8h15.8v15.8
	c0,4.4,3.6,8,8,8s8-3.6,8-8V69h15.8c4.4,0,8-3.6,8-8S487.9,53,483.5,53z M434.4,274.6h-73.8c-4.4,0-8,3.6-8,8s3.6,8,8,8h73.8
	c4.4,0,8-3.6,8-8S438.8,274.6,434.4,274.6z M54.8,64h-3.9v-3.9c0-4.4-3.6-8-8-8s-8,3.6-8,8V64H31c-4.4,0-8,3.6-8,8s3.6,8,8,8h3.9
	v3.9c0,4.4,3.6,8,8,8s8-3.6,8-8V80h3.9c4.4,0,8-3.6,8-8S59.2,64,54.8,64z"></path>
<path fill="#FFA4ED" class="primary-color" d="M458.4,429.2v-34.7H493v34.7H458.4z M493,481.4v-34.7h-34.7v34.7H493z M439.7,481.4v-34.7h-34.7v34.7H439.7z
	"></path>
<path d="M407.4,138.9c-4.4,0-8,3.6-8,8v58.7c-0.2,1.2-3.3,5.7-14.2,11.4c-7.4,3.9-20.5,9.3-41.2,14c-1.4-2.5-4-4.1-7-4.1h-32.3
	c-0.1,0-0.2,0-0.3,0h-88.9c3.7-18.7,20.3-32.8,40.1-32.8c13.1,0,25.5,6.4,33.2,17c2.6,3.6,7.6,4.4,11.2,1.8
	c3.6-2.6,4.4-7.6,1.8-11.2c-10.7-14.8-27.9-23.7-46.1-23.7c-28.6,0-52.4,21.3-56.3,48.8h-25.1c-2.9,0-5.4,1.5-6.8,3.8
	c-39.3-9-53.3-21.4-53.9-25v-78.9c8.9,5.7,19.7,10,27.8,12.7c21,7.1,58.1,15.5,115.2,15.5c57.1,0,94.1-8.4,115.2-15.5
	c16.4-5.5,43.8-17.3,43.8-34.5S388,76,371.6,70.5c-21-7.1-58.1-15.5-115.2-15.5c-57.1,0-94.1,8.4-115.2,15.5
	C124.9,76,97.5,87.8,97.5,105c0,1.7,0.3,3.4,0.8,5.1c-0.5,1.1-0.8,2.2-0.8,3.5V407c0,17.2,27.4,29,43.8,34.5
	c21,7.1,58.1,15.5,115.2,15.5c57.1,0,94.1-8.4,115.2-15.5c16.4-5.5,43.8-17.3,43.8-34.5v-58.7c0-4.4-3.6-8-8-8s-8,3.6-8,8l0,58.7
	c-0.2,1.8-7.2,11-34.5,19.9c-19.8,6.4-54.7,14.1-108.5,14.1s-88.7-7.7-108.5-14.1c-27.3-8.9-34.2-18.1-34.5-19.8v-79.1
	c13.4,8.6,33.3,15.2,52.7,19.6v1.4c0,4.4,3.6,8,8,8h130.2c4.4,0,8-3.6,8-8s-3.6-8-8-8H182.2v-98h122.2c0.1,0,0.2,0,0.3,0H329v106
	c0,4.4,3.6,8,8,8s8-3.6,8-8v-1c34.4-7.4,70-21.9,70.4-41.2c0-0.1,0-0.1,0-0.2V146.9C415.4,142.5,411.8,138.9,407.4,138.9z M148,85.2
	c19.8-6.4,54.7-14.1,108.5-14.1s88.7,7.7,108.5,14.1c27,8.8,34.1,17.9,34.5,19.8c-0.4,1.9-7.5,11-34.5,19.8
	c-19.8,6.4-54.7,14.1-108.5,14.1s-88.7-7.7-108.5-14.1c-27-8.8-34.1-17.9-34.5-19.8C113.9,103.1,121,94,148,85.2z M113.5,306.3
	v-79.1c13.4,8.6,33.3,15.2,52.7,19.6v84.3C127.8,322.1,114.1,309.9,113.5,306.3z M399.4,306.3c-0.2,1.2-3.3,5.7-14.2,11.4
	c-7.3,3.8-20,9.2-40.2,13.7v-84.3c20.2-4.4,40.7-11.1,54.4-19.9V306.3z M247.5,324.3h16.3c4.4,0,8-3.6,8-8v-14.4
	c5.1-4.6,8.1-11.2,8.1-18.1c0-13.4-10.9-24.3-24.3-24.3s-24.3,10.9-24.3,24.3c0,7,3,13.6,8.1,18.1v14.4
	C239.5,320.7,243.1,324.3,247.5,324.3z M255.6,275.4c4.6,0,8.3,3.7,8.3,8.3c0,2.9-1.6,5.7-4.1,7.2c-2.5,1.4-4,4.1-4,6.9v10.5h-0.3
	v-10.5c0-2.9-1.5-5.5-4-6.9c-2.6-1.5-4.1-4.2-4.1-7.2C247.3,279.2,251,275.4,255.6,275.4z"></path>
</svg>