<svg version="1.1" id="Layer_1" xmlns="http://www.w3.org/2000/svg" xmlns:xlink="http://www.w3.org/1999/xlink" x="0px" y="0px" viewBox="0 0 512 512" enable-background="new 0 0 512 512" xml:space="preserve">
<linearGradient id="SVGID_1_" gradientUnits="userSpaceOnUse" x1="285.9459" y1="434.5685" x2="285.9459" y2="86.4249" class="gradient-element">
	<stop offset="0" class="primary-color-gradient" style="stop-color: #FFA4ED"></stop>
	<stop offset="1" class="secondary-color-gradient" style="stop-color: #DB81DA"></stop>
</linearGradient>
<path fill="url(#SVGID_1_)" d="M160.3,342.9l49,0c47.9,0,86.7-38.8,86.7-86.7v-94.8c0-59.9,29.4-93.5,76.2-56
	C414,138.8,441,190,442,247.6c1.7,104.7-84.4,190.8-189.1,189c-41.9-0.7-80.4-15.2-111.1-39.2C118.9,379.6,131.3,342.9,160.3,342.9z
	"></path>
<path fill="#FFA4ED" class="primary-color" d="M344.1,489.7v-21.8h145.9v21.8H344.1z"></path>
<path d="M261.2,478.8c0,4.4-3.6,8-8,8c-42.4,0-84-11.4-120.2-32.8c-35.2-20.9-64.6-50.7-84.9-86.2c-2.2-3.8-0.9-8.7,3-10.9
	c3.8-2.2,8.7-0.9,10.9,3c39.2,68.4,112.4,111,191.2,111C257.6,470.8,261.2,474.4,261.2,478.8z M253.2,14.5
	C194.8,14.5,138.7,36,95.3,75c-3.3,3-3.6,8-0.6,11.3c1.6,1.8,3.8,2.6,5.9,2.6c1.9,0,3.8-0.7,5.3-2.1c40.5-36.4,92.7-56.5,147.2-56.5
	c4.4,0,8-3.6,8-8S257.6,14.5,253.2,14.5z M402.6,78.3c20.3,0,36.8-16.5,36.8-36.8c0-4.4-3.6-8-8-8s-8,3.6-8,8
	c0,11.4-9.3,20.8-20.8,20.8c-4.4,0-8,3.6-8,8S398.2,78.3,402.6,78.3z M481.4,78.3c4.4,0,8-3.6,8-8s-3.6-8-8-8
	c-11.4,0-20.8-9.3-20.8-20.8c0-4.4-3.6-8-8-8s-8,3.6-8,8C444.6,61.9,461.1,78.3,481.4,78.3z M481.4,83.6
	c-20.3,0-36.8,16.5-36.8,36.8c0,4.4,3.6,8,8,8s8-3.6,8-8c0-11.4,9.3-20.8,20.8-20.8c4.4,0,8-3.6,8-8S485.8,83.6,481.4,83.6z
	 M402.6,99.6c11.4,0,20.8,9.3,20.8,20.8c0,4.4,3.6,8,8,8s8-3.6,8-8c0-20.3-16.5-36.8-36.8-36.8c-4.4,0-8,3.6-8,8
	S398.2,99.6,402.6,99.6z M460.1,334.9h-57.4c-4.4,0-8,3.6-8,8s3.6,8,8,8h57.4c4.4,0,8-3.6,8-8S464.5,334.9,460.1,334.9z M415.2,373
	h-57.4c-4.4,0-8,3.6-8,8s3.6,8,8,8h57.4c4.4,0,8-3.6,8-8S419.7,373,415.2,373z M61.2,74c4.4,0,8-3.6,8-8s-3.6-8-8-8
	c-5.7,0-10.4-4.7-10.4-10.4s4.7-10.4,10.4-10.4c4.4,0,8-3.6,8-8s-3.6-8-8-8c-7.3,0-13.9,3-18.7,7.8c-4.8-4.8-11.4-7.8-18.7-7.8
	c-4.4,0-8,3.6-8,8s3.6,8,8,8c5.7,0,10.4,4.7,10.4,10.4S29.5,58,23.8,58c-4.4,0-8,3.6-8,8s3.6,8,8,8c7.3,0,13.9-3,18.7-7.8
	C47.3,71,53.9,74,61.2,74z"></path>
<path d="M256,56.6c-48,0-94.1,17.7-129.7,49.7c-3.3,3-3.6,8-0.6,11.3c3,3.3,8,3.6,11.3,0.6c19.5-17.6,42.4-30.4,67.1-37.9
	c-6.4,6.3-12.3,13.8-17.6,22.6c-7.3,11.9-13.5,25.9-18.5,41.7H99c-1.5,0-2.8,0.4-4,1.1c-1.7,0.6-3.3,1.7-4.3,3.4
	c-13.1,21.2-21.8,44.4-25.9,69c-0.7,4.4,2.2,8.5,6.6,9.2c0.5,0.1,0.9,0.1,1.3,0.1c3.8,0,7.2-2.8,7.9-6.7c3.6-21.3,11-41.5,21.9-60.1
	h61c-3,12-5.4,24.7-7.2,38.2h-8.9c-4.4,0-8,3.6-8,8V243L71,242.6c0,0,0,0,0,0c-0.2,0-0.3,0-0.5,0c-0.2,0-0.3,0-0.5,0
	c-4.4,0-8,3.6-8,8c0,20.9,3.3,41.4,9.8,61.1c1.1,3.4,4.2,5.5,7.6,5.5c0.8,0,1.7-0.1,2.5-0.4c4.2-1.4,6.5-5.9,5.1-10.1
	c-5.1-15.5-8.1-31.6-8.8-48l61,0.3v75.9H99c-0.8,0-1.6,0.1-2.3,0.3c-2-0.6-4.3-0.4-6.2,0.7c-3.8,2.2-5.2,7.1-3,10.9
	c16.7,29.2,40.8,53.6,69.7,70.8c29.8,17.7,63.9,27,98.8,27c56.1,0,102.7-19.6,138.5-58.2c3-3.2,2.8-8.3-0.4-11.3
	c-3.2-3-8.3-2.8-11.3,0.4c-21.4,23.1-47.2,38.7-76.9,46.8c14.7-13.9,27-34.4,36.1-61c0.8-2.4,0.4-4.9-0.8-6.9
	c-1.3-2.6-4-4.4-7.2-4.4H155.2V214.8H320c0.1,0,0.1,0,0.2,0c0.1,0,0.1,0,0.2,0h34.8V358c0,4.4,3.6,8,8,8s8-3.6,8-8v-7.1H413
	c0.8,0,1.6-0.1,2.3-0.3c0.7,0.2,1.5,0.3,2.2,0.3c2.7,0,5.4-1.4,6.9-4c17.2-29.3,25.6-60.8,25.6-96.3C450,143.6,363,56.6,256,56.6z
	 M263.6,426.6l0.4-37.5c0-4.4-3.5-8-7.9-8.1c0,0-0.1,0-0.1,0c-4.4,0-8,3.5-8,7.9l-0.4,37.6c-30.2-4.4-48.6-33.8-59.3-60.5h134.9
	C313.4,390.4,294.8,422.1,263.6,426.6z M171.2,366c0.1,0.2,0.1,0.4,0.2,0.6c8.5,23.1,19.6,41.4,32.7,54.3
	c-38.4-11.7-72.1-36.3-95.2-69.9h30.3v7.1c0,4.4,3.6,8,8,8H171.2z M363.2,198.8h-7.9c-1.8-13.4-4.2-26.2-7.2-38.2h61.4
	c14.3,24.3,23,52.2,24.3,82h-62.6v-35.8C371.2,202.4,367.6,198.8,363.2,198.8z M398.9,144.6h-55.3c-5-15.7-11.2-29.8-18.5-41.7
	c-5.4-8.9-11.4-16.5-17.8-22.8C344.3,91.3,376.3,114.3,398.9,144.6z M320.2,198.8c-0.1,0-0.1,0-0.2,0H199
	c3.9-27.5,27.6-48.8,56.2-48.8c18.2,0,35.4,8.8,46.1,23.7c2.6,3.6,7.6,4.4,11.2,1.8c3.6-2.6,4.4-7.6,1.8-11.2
	c-13.7-19-35.8-30.3-59.1-30.3c-37.4,0-68.4,28.4-72.4,64.8h-10.6c8-57.9,31.6-117.6,75.2-124.1V111c0,4.4,3.6,8,8,8s8-3.6,8-8V74.6
	c43.9,6.1,67.7,66,75.7,124.2h-18.8C320.3,198.8,320.3,198.8,320.2,198.8z M412.9,334.9h-41.7v-76.3h62.6
	C432.7,286.4,425.8,311.4,412.9,334.9z M244.4,322.8H266c4.4,0,8-3.6,8-8v-20.4c6.8-5.6,10.8-14,10.8-22.8
	c0-16.3-13.3-29.6-29.6-29.6c-16.3,0-29.6,13.3-29.6,29.6c0,8.9,4,17.3,10.8,22.8v20.4C236.4,319.2,240,322.8,244.4,322.8z
	 M255.2,258c7.5,0,13.6,6.1,13.6,13.6c0,4.8-2.6,9.3-6.8,11.8c-2.5,1.4-4,4.1-4,6.9v16.5h-5.6v-16.5c0-2.9-1.5-5.5-4-6.9
	c-4.2-2.4-6.8-6.9-6.8-11.8C241.6,264.1,247.7,258,255.2,258z"></path>
</svg>