<svg version="1.1" id="Layer_1" xmlns="http://www.w3.org/2000/svg" xmlns:xlink="http://www.w3.org/1999/xlink" x="0px" y="0px" viewBox="0 0 512 512" enable-background="new 0 0 512 512" xml:space="preserve">
<linearGradient id="SVGID_1_" gradientUnits="userSpaceOnUse" x1="71.1967" y1="290.9821" x2="435.6385" y2="290.9821" class="gradient-element">
	<stop offset="0" class="primary-color-gradient" style="stop-color: #FFA4ED"></stop>
	<stop offset="1" class="secondary-color-gradient" style="stop-color: #DB81DA"></stop>
</linearGradient>
<path fill="url(#SVGID_1_)" d="M219.6,422.1H119.2c-13.3,0-25.3-5.4-33.9-14.1c-8.6-8.6-14-20.4-14.1-33.5
	c-0.2-26.6,22.2-25.4,48.8-25.4h188.9c28.8,0,37.1,7.7,37.1-21.1l-2-123.8c0-28.8,40.4-44.3,69.2-44.3h0c12.4,0,22.5,10.1,22.5,22.5
	v206.5c0,18.4-14.9,33.3-33.3,33.3H219.6z M219.6,422.1"></path>
<g>
	<path fill="#DB81DA" class="secondary-color" d="M91.3,22.1v35.2H68.8V22.1H91.3z M160.2,22.1v77.3h22.5V22.1H160.2z"></path>
	<path fill="#FFA4ED" class="primary-color" d="M45.1,22.1v35.2H23.6V22.1H45.1z M115,22.1v77.3h21.6V22.1H115z"></path>
</g>
<path d="M375.3,95.8c0-4.4,3.6-8,8-8h43c4.4,0,8,3.6,8,8s-3.6,8-8,8h-43C378.9,103.8,375.3,100.2,375.3,95.8z M331,133.8h73.8
	c4.4,0,8-3.6,8-8s-3.6-8-8-8H331c-4.4,0-8,3.6-8,8S326.6,133.8,331,133.8z M441.8,444.8H368c-4.4,0-8,3.6-8,8s3.6,8,8,8h73.8
	c4.4,0,8-3.6,8-8S446.2,444.8,441.8,444.8z M492.2,49h-15.8V33.3c0-4.4-3.6-8-8-8s-8,3.6-8,8V49h-15.8c-4.4,0-8,3.6-8,8s3.6,8,8,8
	h15.8v15.8c0,4.4,3.6,8,8,8s8-3.6,8-8V65h15.8c4.4,0,8-3.6,8-8S496.6,49,492.2,49z M41,415.5c-4.4,0-8,3.6-8,8
	c0,11.4-9.3,20.8-20.8,20.8c-4.4,0-8,3.6-8,8s3.6,8,8,8c20.3,0,36.8-16.5,36.8-36.8C49,419.1,45.4,415.5,41,415.5z M91,444.3
	c-11.4,0-20.8-9.3-20.8-20.8c0-4.4-3.6-8-8-8s-8,3.6-8,8c0,20.3,16.5,36.8,36.8,36.8c4.4,0,8-3.6,8-8S95.4,444.3,91,444.3z
	 M91,465.5c-20.3,0-36.8,16.5-36.8,36.8c0,4.4,3.6,8,8,8s8-3.6,8-8c0-11.4,9.3-20.8,20.8-20.8c4.4,0,8-3.6,8-8S95.4,465.5,91,465.5z
	 M12.3,465.5c-4.4,0-8,3.6-8,8s3.6,8,8,8c11.4,0,20.8,9.3,20.8,20.8c0,4.4,3.6,8,8,8s8-3.6,8-8C49,482,32.5,465.5,12.3,465.5z
	 M360.2,474.7H228.8c-4.4,0-8,3.6-8,8s3.6,8,8,8h131.4c4.4,0,8-3.6,8-8S364.6,474.7,360.2,474.7z M269.6,96.9
	c0-14.6,11.8-26.4,26.4-26.4s26.4,11.8,26.4,26.4s-11.8,26.4-26.4,26.4S269.6,111.5,269.6,96.9z M285.6,96.9
	c0,5.7,4.7,10.4,10.4,10.4s10.4-4.7,10.4-10.4s-4.7-10.4-10.4-10.4S285.6,91.2,285.6,96.9z"></path>
<path d="M429.8,217.1v-32.7c0-7.4-6-13.4-13.4-13.4H291.2c-22.2,0-29.4-5.9-46-24.2c-12.2-13.4-23.5-18.6-40.6-18.6h-109
	c-7.4,0-13.4,6-13.4,13.4v256.6c0,7.4,6,13.4,13.4,13.4h320.8c7.4,0,13.4-6,13.4-13.4V256.6H352v91.2c0,4.4-3.6,8-8,8s-8-3.6-8-8
	v-106h-24.3c-0.1,0-0.2,0-0.3,0H189.2v98h122.2c4.4,0,8,3.6,8,8s-3.6,8-8,8H181.2c-4.4,0-8-3.6-8-8v-91.2h-59.6v123.6
	c0,4.4-3.6,8-8,8s-8-3.6-8-8V248.6c0-4.4,3.6-8,8-8h67.6v-6.7c0-4.4,3.6-8,8-8h25.1c3.9-27.6,27.7-48.8,56.3-48.8
	c18.2,0,35.4,8.8,46.1,23.7c2.6,3.6,1.8,8.6-1.8,11.2c-3.6,2.6-8.6,1.8-11.2-1.8c-7.7-10.7-20.1-17-33.2-17
	c-19.8,0-36.3,14.1-40.1,32.8h88.9c0.1,0,0.2,0,0.3,0H344c4.4,0,8,3.6,8,8v6.7h85.8c4.4,0,8,3.6,8,8v149.7
	c0,16.2-13.2,29.4-29.4,29.4H95.6c-16.2,0-29.4-13.2-29.4-29.4V141.7c0-16.2,13.2-29.4,29.4-29.4h109c21.6,0,37.2,7.1,52.4,23.8
	c15.6,17.2,18.8,19,34.2,19h125.2c16.2,0,29.4,13.2,29.4,29.4v32.7c0,4.4-3.6,8-8,8S429.8,221.5,429.8,217.1z M246.5,315.3v-14.4
	c-5.1-4.6-8.1-11.2-8.1-18.1c0-13.4,10.9-24.3,24.3-24.3s24.3,10.9,24.3,24.3c0,7-3,13.6-8.1,18.1v14.4c0,4.4-3.6,8-8,8h-16.3
	C250.1,323.3,246.5,319.7,246.5,315.3z M254.3,282.7c0,2.9,1.6,5.7,4.1,7.2c2.5,1.4,4,4.1,4,6.9v10.5h0.3v-10.5c0-2.9,1.5-5.5,4-6.9
	c2.6-1.5,4.1-4.2,4.1-7.2c0-4.6-3.7-8.3-8.3-8.3C258,274.4,254.3,278.2,254.3,282.7z"></path>
</svg>