<svg version="1.1" id="Layer_1" xmlns="http://www.w3.org/2000/svg" xmlns:xlink="http://www.w3.org/1999/xlink" x="0px" y="0px" viewBox="0 0 512 512" enable-background="new 0 0 512 512" xml:space="preserve">
<linearGradient id="SVGID_1_" gradientUnits="userSpaceOnUse" x1="253.795" y1="385.7428" x2="253.795" y2="85.1324" class="gradient-element">
	<stop offset="0" class="primary-color-gradient" style="stop-color: #FFA4ED"></stop>
	<stop offset="1" class="secondary-color-gradient" style="stop-color: #DB81DA"></stop>
</linearGradient>
<path fill="url(#SVGID_1_)" d="M147.5,385.7H53.4v-39.2c0-24.8,20.1-44.9,44.9-44.9h49.2V385.7z M337.6,85.1
	c-46.2,0-83.6,37.4-83.6,83.6v50.5c0,44-34.5,79.9-77.8,82.3h187.3v84.2h90.7V85.1H337.6z"></path>
<g>
	<path fill="#DB81DA" class="secondary-color" d="M431.7,501.9v-21.8h56.9v21.8H431.7z M393.6,501.9v-21.8h-56.9v21.8H393.6z"></path>
	<path fill="#FFA4ED" class="primary-color" d="M431.8,469.9v-21.8h56.9v21.8H431.8z"></path>
</g>
<path d="M503.4,52.2c0,4.4-3.6,8-8,8h-15.8v15.8c0,4.4-3.6,8-8,8s-8-3.6-8-8V60.2h-15.8c-4.4,0-8-3.6-8-8s3.6-8,8-8h15.8V28.4
	c0-4.4,3.6-8,8-8s8,3.6,8,8v15.8h15.8C499.8,44.2,503.4,47.7,503.4,52.2z M129.9,462H42.3c-4.4,0-8,3.6-8,8s3.6,8,8,8h87.6
	c4.4,0,8-3.6,8-8S134.3,462,129.9,462z M295.2,40.2H117.6c-4.4,0-8,3.6-8,8s3.6,8,8,8h177.6c4.4,0,8-3.6,8-8S299.6,40.2,295.2,40.2z
	 M41.8,48.2c0-5,4.1-9,9-9s9,4.1,9,9s-4.1,9-9,9S41.8,53.2,41.8,48.2z M71.8,48.2c0-5,4.1-9,9-9s9,4.1,9,9s-4.1,9-9,9
	S71.8,53.2,71.8,48.2z M391,42c0,14.6-11.8,26.4-26.4,26.4S338.2,56.6,338.2,42s11.8-26.4,26.4-26.4S391,27.5,391,42z M375,42
	c0-5.7-4.7-10.4-10.4-10.4s-10.4,4.7-10.4,10.4s4.7,10.4,10.4,10.4S375,47.8,375,42z"></path>
<path d="M454.2,123.5c-4.4,0-8,3.6-8,8v233.1L331.8,216.4c-0.1-0.1-0.1-0.1-0.2-0.2L458.3,92c2.4-1.4,3.9-4,3.9-6.9
	c0-2.8-1.5-5.3-3.7-6.7c-1.8-1.2-3.9-1.6-6-1.3H54.5c-2.5-0.5-5.2,0.3-7.2,2.3c-2.1,2.2-2.8,5.3-1.9,8.1V335c0,4.4,3.6,8,8,8
	s8-3.6,8-8V104.4l114.5,111.8c0,0.1-0.1,0.1-0.1,0.2L47.1,383.1c-1.9,2.4-2.2,5.7-0.8,8.4c1.3,2.7,4.1,4.5,7.2,4.5h85.8v57
	c0,4.4,3.6,8,8,8H334c4.4,0,8-3.6,8-8s-3.6-8-8-8H155.2V309.8H320c0.1,0,0.2,0,0.4,0h34.8V453c0,4.4,3.6,8,8,8s8-3.6,8-8v-57h83
	c3.1,0,5.8-1.7,7.2-4.5c0.6-1.3,0.9-2.6,0.8-4c0-0.2,0-0.4,0-0.6V131.5C462.2,127,458.6,123.5,454.2,123.5z M72.8,93.1h361.5
	L287.8,236.8c-10-5-21.1-7.8-32.6-7.8c-12.5,0-24.2,3.2-34.4,8.7L72.8,93.1z M147.2,293.8c-4.4,0-8,3.6-8,8V380H69.7l117.7-152.5
	l20,19.5c-13.4,11.7-22.5,28.2-24.5,46.8H147.2z M371.2,380v-78.2c0-4.4-3.6-8-8-8h-42.8c-0.1,0-0.2,0-0.4,0H199
	c3.9-27.5,27.6-48.8,56.2-48.8c18.2,0,35.4,8.8,46.1,23.7c2.6,3.6,7.6,4.4,11.2,1.8c3.6-2.6,4.4-7.6,1.8-11.2
	c-3.7-5.1-8-9.7-12.8-13.6l18.6-18.2L437.9,380H371.2z M244.4,417.8H266c4.4,0,8-3.6,8-8v-20.4c6.8-5.6,10.8-14,10.8-22.8
	c0-16.3-13.3-29.6-29.6-29.6c-16.3,0-29.6,13.3-29.6,29.6c0,8.9,4,17.3,10.8,22.8v20.4C236.4,414.2,240,417.8,244.4,417.8z
	 M255.2,353c7.5,0,13.6,6.1,13.6,13.6c0,4.8-2.6,9.3-6.8,11.8c-2.5,1.4-4,4.1-4,6.9v16.5h-5.6v-16.5c0-2.9-1.5-5.5-4-6.9
	c-4.2-2.4-6.8-6.9-6.8-11.8C241.6,359.1,247.7,353,255.2,353z"></path>
</svg>