<svg version="1.1" id="Layer_1" xmlns="http://www.w3.org/2000/svg" xmlns:xlink="http://www.w3.org/1999/xlink" x="0px" y="0px" viewBox="0 0 512 512" enable-background="new 0 0 512 512" xml:space="preserve">
<path fill="#DB81DA" class="secondary-color" d="M476.5,95.7l-36.9-36.5L476,22.3L476.5,95.7z"></path>
<linearGradient id="SVGID_1_" gradientUnits="userSpaceOnUse" x1="265.0349" y1="376.0489" x2="269.5782" y2="130.7098" class="gradient-element">
	<stop offset="0" class="primary-color-gradient" style="stop-color: #FFA4ED"></stop>
	<stop offset="1" class="secondary-color-gradient" style="stop-color: #DB81DA"></stop>
</linearGradient>
<path fill="url(#SVGID_1_)" d="M491.3,366.8H63.8c-11.6,0-21-9.4-21-21V167.8c0-11.8,9.6-21.4,21.4-21.4h427.1V366.8z"></path>
<path d="M433.2,100.5c0,4.4-3.6,8-8,8h-15.8v15.8c0,4.4-3.6,8-8,8s-8-3.6-8-8v-15.8h-15.8c-4.4,0-8-3.6-8-8s3.6-8,8-8h15.8V76.7
	c0-4.4,3.6-8,8-8s8,3.6,8,8v15.8h15.8C429.7,92.5,433.2,96.1,433.2,100.5z M234.6,51.5c0,5-4.1,9-9,9s-9-4.1-9-9s4.1-9,9-9
	S234.6,46.5,234.6,51.5z M73.7,50.9c0,14.6-11.8,26.4-26.4,26.4S21,65.4,21,50.9s11.8-26.4,26.4-26.4S73.7,36.3,73.7,50.9z
	 M57.7,50.9c0-5.7-4.7-10.4-10.4-10.4S37,45.1,37,50.9s4.7,10.4,10.4,10.4S57.7,56.6,57.7,50.9z M139.7,50.9
	c0,14.6-11.8,26.4-26.4,26.4S87,65.4,87,50.9s11.8-26.4,26.4-26.4S139.7,36.3,139.7,50.9z M123.7,50.9c0-5.7-4.7-10.4-10.4-10.4
	S103,45.1,103,50.9s4.7,10.4,10.4,10.4S123.7,56.6,123.7,50.9z M481.7,482.1c-0.6,3.9-4,6.8-8,6.8c-1.6,0-3.2-0.4-4.5-1.2
	c-1.7-0.7-2.8-1.7-3.6-2.6c-2.8-2.2-3.2-5.5-2.9-7.4c0.6-3.9,4-6.8,8-6.8c1.6,0,3.2,0.4,4.5,1.2c1.6,0.7,2.8,1.7,3.6,2.6
	C481.6,476.8,482,480.1,481.7,482.1z"></path>
<path d="M505,100.5v322.9c0,8.8-7.2,16-16,16H263.4v33.9h178.4c4.4,0,8,3.6,8,8s-3.6,8-8,8H65.3c-4.4,0-8-3.6-8-8s3.6-8,8-8h182.1
	v-38.8c0-0.5,0.1-1,0.1-1.5c-0.1-0.5-0.1-1-0.1-1.5c0-4.4,3.6-8,8-8H489v-48.6H383.4c-4.4,0-8-3.6-8-8s3.6-8,8-8H489V100.5
	c0-4.4,3.6-8,8-8S505,96.1,505,100.5z M54.3,388.6c5,0,9,4.1,9,9s-4.1,9-9,9s-9-4.1-9-9S49.3,388.6,54.3,388.6z M84.3,388.6
	c5,0,9,4.1,9,9s-4.1,9-9,9s-9-4.1-9-9S79.3,388.6,84.3,388.6z M106.3,388.6c5,0,9,4.1,9,9s-4.1,9-9,9s-9-4.1-9-9
	S101.3,388.6,106.3,388.6z M229.6,431.4c0-4.4-3.6-8-8-8H23.1V108.5h372.5c4.4,0,8-3.6,8-8s-3.6-8-8-8H23.1c-8.8,0-16,7.2-16,16
	v314.9c0,8.8,7.2,16,16,16h198.5C226,439.4,229.6,435.8,229.6,431.4z M233.8,310.7v-17c-5.8-5-9.3-12.4-9.3-20.2
	c0-14.7,11.9-26.6,26.6-26.6s26.6,11.9,26.6,26.6c0,7.8-3.5,15.2-9.3,20.2v17c0,4.4-3.6,8-8,8h-18.6
	C237.4,318.7,233.8,315.1,233.8,310.7z M240.5,273.5c0,3.8,2,7.3,5.3,9.2c2.5,1.4,4,4.1,4,6.9v13.1h2.6v-13.1c0-2.9,1.5-5.5,4-6.9
	c3.3-1.9,5.3-5.4,5.3-9.2c0-5.8-4.7-10.6-10.6-10.6S240.5,267.7,240.5,273.5z M344.1,355.8c4.4,0,8-3.6,8-8V217.8c0-4.4-3.6-8-8-8
	h-36.8c-0.1,0-0.2,0-0.3,0H204.1c3.8-22.5,23.5-39.8,47.1-39.8c15.3,0,29.8,7.4,38.8,19.9c2.6,3.6,7.6,4.4,11.2,1.8
	c3.6-2.6,4.4-7.6,1.8-11.2c-12-16.6-31.3-26.5-51.7-26.5c-32.4,0-59.3,24.4-63.3,55.8h-29.7c-4.4,0-8,3.6-8,8v130.1c0,4.4,3.6,8,8,8
	h148.7c4.4,0,8-3.6,8-8s-3.6-8-8-8H166.2V225.8h140.7c0.1,0,0.2,0,0.3,0h28.8v122.1C336.1,352.3,339.6,355.8,344.1,355.8z"></path>
</svg>