<svg version="1.1" id="Layer_1" xmlns="http://www.w3.org/2000/svg" xmlns:xlink="http://www.w3.org/1999/xlink" x="0px" y="0px" viewBox="0 0 512 512" enable-background="new 0 0 512 512" xml:space="preserve">
<linearGradient id="SVGID_1_" gradientUnits="userSpaceOnUse" x1="254.31" y1="476.0468" x2="254.31" y2="55.5233" class="gradient-element">
	<stop offset="0" class="primary-color-gradient" style="stop-color: #FFA4ED"></stop>
	<stop offset="1" class="secondary-color-gradient" style="stop-color: #DB81DA"></stop>
</linearGradient>
<path fill="url(#SVGID_1_)" d="M356.9,479.1H76.4v-23.7h47.4v0c0-22.6,18.2-40.9,40.8-41l60.5-0.4c26.3-0.2,47.5-21.5,47.5-47.8
	V133.4c0-44.9,36.4-81.4,81.4-81.4h30.8v403.3h47.4v23.7h-51.6"></path>
<path d="M356.9,487.1H76.4c-4.4,0-8-3.6-8-8v-23.7c0-4.4,3.6-8,8-8h39.4v-48.2c0-4.4,3.6-8,8-8s8,3.6,8,8v56.2c0,4.4-3.6,8-8,8H84.4
	v7.7h272.5c4.4,0,8,3.6,8,8S361.3,487.1,356.9,487.1z M440.2,479.1v-23.7c0-4.4-3.6-8-8-8h-39.4V52.1c0-4.4-3.6-8-8-8H218.7
	c-4.4,0-8,3.6-8,8v11.9c0,48.8-13.8,92.2-41,129.3c-21.5,29.3-43.6,43.1-43.8,43.2l-6.1,3.4c-2.5,1.4-4.1,4.1-4.1,7v122.4
	c0,4.4,3.6,8,8,8s8-3.6,8-8V251.5l2-1.1c0.2-0.1,24.3-14.5,48.5-47.2c29.1-39.4,44.4-87.5,44.4-139.2v-3.9h150.1v395.3
	c0,4.4,3.6,8,8,8h39.4v7.7h-43.6c-4.4,0-8,3.6-8,8s3.6,8,8,8h51.6C436.7,487.1,440.2,483.5,440.2,479.1z M369.1,431.7
	c0-4.4-3.6-8-8-8H250.5v-15.7c0-4.4-3.6-8-8-8s-8,3.6-8,8v23.7c0,4.4,3.6,8,8,8h118.6C365.5,439.7,369.1,436.1,369.1,431.7z
	 M369.1,384.2c0-4.4-3.6-8-8-8H250.5v-15.7c0-4.4-3.6-8-8-8s-8,3.6-8,8v23.7c0,4.4,3.6,8,8,8h118.6
	C365.5,392.2,369.1,388.6,369.1,384.2z M369.1,336.8c0-4.4-3.6-8-8-8H250.5V313c0-4.4-3.6-8-8-8s-8,3.6-8,8v23.7c0,4.4,3.6,8,8,8
	h118.6C365.5,344.8,369.1,341.2,369.1,336.8z M369.1,289.3c0-4.4-3.6-8-8-8H250.5v-15.7c0-4.4-3.6-8-8-8s-8,3.6-8,8v23.7
	c0,4.4,3.6,8,8,8h118.6C365.5,297.3,369.1,293.7,369.1,289.3z M369.1,241.9c0-4.4-3.6-8-8-8H250.5v-15.7c0-4.4-3.6-8-8-8s-8,3.6-8,8
	v23.7c0,4.4,3.6,8,8,8h118.6C365.5,249.9,369.1,246.3,369.1,241.9z M369.1,194.4c0-4.4-3.6-8-8-8H250.5v-15.7c0-4.4-3.6-8-8-8
	s-8,3.6-8,8v23.7c0,4.4,3.6,8,8,8h118.6C365.5,202.4,369.1,198.8,369.1,194.4z M369.1,147c0-4.4-3.6-8-8-8H250.5v-15.7
	c0-4.4-3.6-8-8-8s-8,3.6-8,8V147c0,4.4,3.6,8,8,8h118.6C365.5,155,369.1,151.4,369.1,147z"></path>
<path d="M89.8,86.5c0-4.4,3.6-8,8-8h43c4.4,0,8,3.6,8,8s-3.6,8-8,8h-43C93.4,94.5,89.8,90.9,89.8,86.5z M119.3,124.5
	c4.4,0,8-3.6,8-8s-3.6-8-8-8H45.5c-4.4,0-8,3.6-8,8s3.6,8,8,8H119.3z M155.5,361.2h-43c-4.4,0-8,3.6-8,8s3.6,8,8,8h43
	c4.4,0,8-3.6,8-8S159.9,361.2,155.5,361.2z M134,391.2H60.2c-4.4,0-8,3.6-8,8s3.6,8,8,8H134c4.4,0,8-3.6,8-8S138.4,391.2,134,391.2z
	 M443,24.5c-4.4,0-8,3.6-8,8c0,11.4-9.3,20.8-20.8,20.8c-4.4,0-8,3.6-8,8s3.6,8,8,8c20.3,0,36.8-16.5,36.8-36.8
	C451,28.1,447.5,24.5,443,24.5z M493,69.2c4.4,0,8-3.6,8-8s-3.6-8-8-8c-11.4,0-20.8-9.3-20.8-20.8c0-4.4-3.6-8-8-8s-8,3.6-8,8
	C456.3,52.7,472.8,69.2,493,69.2z M493,74.5c-20.3,0-36.8,16.5-36.8,36.8c0,4.4,3.6,8,8,8s8-3.6,8-8c0-11.4,9.3-20.8,20.8-20.8
	c4.4,0,8-3.6,8-8S497.5,74.5,493,74.5z M414.3,74.5c-4.4,0-8,3.6-8,8s3.6,8,8,8c11.4,0,20.8,9.3,20.8,20.8c0,4.4,3.6,8,8,8
	s8-3.6,8-8C451,91,434.5,74.5,414.3,74.5z M479.5,228.4c-5.9,0-10.8,4.8-10.8,10.8c0,5.9,4.8,10.8,10.8,10.8
	c5.9,0,10.8-4.8,10.8-10.8C490.3,233.2,485.5,228.4,479.5,228.4z M54.8,208.6c0,4.4,3.6,8,8,8s8-3.6,8-8v-3.9h3.9c4.4,0,8-3.6,8-8
	s-3.6-8-8-8h-3.9v-3.9c0-4.4-3.6-8-8-8s-8,3.6-8,8v3.9h-3.9c-4.4,0-8,3.6-8,8s3.6,8,8,8h3.9V208.6z"></path>
</svg>