<svg version="1.1" id="Layer_1" xmlns="http://www.w3.org/2000/svg" xmlns:xlink="http://www.w3.org/1999/xlink" x="0px" y="0px" viewBox="0 0 512 512" enable-background="new 0 0 512 512" xml:space="preserve">
<linearGradient id="SVGID_1_" gradientUnits="userSpaceOnUse" x1="295.1296" y1="356.3273" x2="295.1296" y2="163.36" class="gradient-element">
	<stop offset="0" class="primary-color-gradient" style="stop-color: #FFA4ED"></stop>
	<stop offset="1" class="secondary-color-gradient" style="stop-color: #DB81DA"></stop>
</linearGradient>
<path fill="url(#SVGID_1_)" d="M345.6,277.3h84.7v75.4h-74.8c-1.7,0-3.3-0.3-4.8-0.7H160.3v2.4c-0.2,1-0.3,2.1-0.3,3.1v-6.1h0.3
	v-6.1c0-6.8,5.5-12.2,12.2-12.2h11.9c2-0.3,119.5-0.5,121.7-0.5c18,0,32.6-11.8,32.7-26.4v-22C338.8,280.4,341.8,277.3,345.6,277.3z
	 M354.5,157.2c-8.7,0-15.7,7-15.7,15.7v59h11.9c1.5,0.4,3.1,0.7,4.8,0.7h74.8v-25.4c0,0,0,0,0,0v-50H354.5z"></path>
<path d="M437,366.6H156.3c-4.4,0-8-3.6-8-8v-27.7c0-4.4,3.6-8,8-8s8,3.6,8,8v19.7H429v-70.2H164.3v11.7c0,4.4-3.6,8-8,8s-8-3.6-8-8
	v-19.7c0-4.4,3.6-8,8-8H437c4.4,0,8,3.6,8,8v86.2C445,363,441.5,366.6,437,366.6z M445,238.5v-86.2c0-4.4-3.6-8-8-8H156.3
	c-4.4,0-8,3.6-8,8v19.7c0,4.4,3.6,8,8,8s8-3.6,8-8v-11.7H429v70.2H164.3v-19.7c0-4.4-3.6-8-8-8s-8,3.6-8,8v27.7c0,4.4,3.6,8,8,8H437
	C441.5,246.5,445,242.9,445,238.5z"></path>
<g>
	<path fill="#FFA4ED" class="primary-color" d="M499.7,376.6v45.3h-45.3v-45.3H499.7z M454.4,490h45.3v-45.3h-45.3V490z M384.8,490h45.3v-45.3h-45.3V490z"></path>
	<path fill="#DB81DA" class="secondary-color" d="M87.5,29L30.6,89.5V29H87.5z"></path>
</g>
<path d="M124.4,300.1H49.3c-4.4,0-8-3.6-8-8s3.6-8,8-8h75.1c4.4,0,8,3.6,8,8S128.9,300.1,124.4,300.1z M224.8,329.6c0-4.4-3.6-8-8-8
	H103.2c-4.4,0-8,3.6-8,8s3.6,8,8,8h113.7C221.3,337.6,224.8,334,224.8,329.6z M55.3,132c-4.4,0-8,3.6-8,8c0,11.4-9.3,20.8-20.8,20.8
	c-4.4,0-8,3.6-8,8s3.6,8,8,8c20.3,0,36.8-16.5,36.8-36.8C63.3,135.6,59.8,132,55.3,132z M113.3,168.7c0,4.4-3.6,8-8,8
	c-20.3,0-36.8-16.5-36.8-36.8c0-4.4,3.6-8,8-8s8,3.6,8,8c0,11.4,9.3,20.8,20.8,20.8C109.8,160.7,113.3,164.3,113.3,168.7z
	 M113.3,190c0,4.4-3.6,8-8,8c-11.4,0-20.8,9.3-20.8,20.8c0,4.4-3.6,8-8,8s-8-3.6-8-8c0-20.3,16.5-36.8,36.8-36.8
	C109.8,182,113.3,185.6,113.3,190z M63.3,218.7c0,4.4-3.6,8-8,8s-8-3.6-8-8c0-11.4-9.3-20.8-20.8-20.8c-4.4,0-8-3.6-8-8s3.6-8,8-8
	C46.9,182,63.3,198.5,63.3,218.7z M124.9,86.4c0,5.9-4.8,10.8-10.8,10.8s-10.8-4.8-10.8-10.8s4.8-10.8,10.8-10.8
	S124.9,80.5,124.9,86.4z M97.6,431.6c0,5.9-4.8,10.8-10.8,10.8s-10.8-4.8-10.8-10.8s4.8-10.8,10.8-10.8S97.6,425.7,97.6,431.6z
	 M481.4,78.6c0,4.4-3.6,8-8,8h-15.8v15.8c0,4.4-3.6,8-8,8s-8-3.6-8-8V86.6h-15.8c-4.4,0-8-3.6-8-8s3.6-8,8-8h15.8V54.8
	c0-4.4,3.6-8,8-8s8,3.6,8,8v15.8h15.8C477.8,70.6,481.4,74.2,481.4,78.6z M290.7,438.5c0,4.4-3.6,8-8,8h-3.9v3.9c0,4.4-3.6,8-8,8
	c-4.4,0-8-3.6-8-8v-3.9H259c-4.4,0-8-3.6-8-8s3.6-8,8-8h3.9v-3.9c0-4.4,3.6-8,8-8c4.4,0,8,3.6,8,8v3.9h3.9
	C287.2,430.5,290.7,434,290.7,438.5z M382.3,79.7c0,4.4-3.6,8-8,8H195.5c-4.4,0-8-3.6-8-8s3.6-8,8-8h178.7
	C378.7,71.7,382.3,75.3,382.3,79.7z"></path>
</svg>