<svg version="1.1" id="Layer_1" xmlns="http://www.w3.org/2000/svg" xmlns:xlink="http://www.w3.org/1999/xlink" x="0px" y="0px" viewBox="0 0 512 512" enable-background="new 0 0 512 512" xml:space="preserve">
<g>
	<path fill="#DB81DA" class="secondary-color" d="M494.5,329v161.2H472V329H494.5z"></path>
	<path fill="#FFA4ED" class="primary-color" d="M51.9,466.6h40.8V492H51.9H26.6v-25.3v-40.8h25.3V466.6z M427.5,443.8v46.3h21.6v-46.3H427.5z"></path>
</g>
<path d="M452.9,402.2c0,4.4-3.6,8-8,8h-48.1c-4.4,0-8-3.6-8-8s3.6-8,8-8h48.1C449.4,394.2,452.9,397.7,452.9,402.2z M162,430.3H84.6
	c-4.4,0-8,3.6-8,8s3.6,8,8,8H162c4.4,0,8-3.6,8-8S166.4,430.3,162,430.3z M116.7,288c0-4.4-3.6-8-8-8H39.9c-4.4,0-8,3.6-8,8
	s3.6,8,8,8h68.8C113.1,296,116.7,292.4,116.7,288z M381.8,78.1h-75.1c-4.4,0-8,3.6-8,8s3.6,8,8,8h75.1c4.4,0,8-3.6,8-8
	S386.2,78.1,381.8,78.1z M306,54.8v3.9c0,4.4,3.6,8,8,8s8-3.6,8-8v-3.9h3.9c4.4,0,8-3.6,8-8s-3.6-8-8-8H322v-3.9c0-4.4-3.6-8-8-8
	s-8,3.6-8,8v3.9h-3.9c-4.4,0-8,3.6-8,8s3.6,8,8,8H306z"></path>
<g>
	<linearGradient id="SVGID_1_" gradientUnits="userSpaceOnUse" x1="302.5204" y1="481.9747" x2="302.5204" y2="270.4526" class="gradient-element">
		<stop offset="0" class="primary-color-gradient" style="stop-color: #FFA4ED"></stop>
		<stop offset="1" class="secondary-color-gradient" style="stop-color: #DB81DA"></stop>
	</linearGradient>
	<path fill="url(#SVGID_1_)" d="M407,277.1l-17.2,206.8H200.2l-2.1-25.2c-1.7-20.2,14.3-37.6,34.6-37.6h27.5
		c19.2,0,34.7-15.5,34.7-34.7V277.1H407z"></path>
	<linearGradient id="SVGID_2_" gradientUnits="userSpaceOnUse" x1="120" y1="208.0306" x2="120" y2="13.9175">
		<stop offset="0" class="primary-color-gradient" style="stop-color: #FFA4ED"></stop>
		<stop offset="1" class="secondary-color-gradient" style="stop-color: #DB81DA"></stop>
	</linearGradient>
	<path fill="url(#SVGID_2_)" d="M25,215.1h190V66.8l-30.1-30.1C182,33.7,163,20.9,163,25l1,111c0,19.5-2.8,34.6-22.2,34.6H62.3
		c-20.6,0-37.3,16.7-37.3,37.3V215.1z M164.3,101.1"></path>
	<linearGradient id="SVGID_3_" gradientUnits="userSpaceOnUse" x1="60.4641" y1="158.8641" x2="168.0422" y2="158.8641">
		<stop offset="0" class="primary-color-gradient" style="stop-color: #FFA4ED"></stop>
		<stop offset="1" class="secondary-color-gradient" style="stop-color: #DB81DA"></stop>
	</linearGradient>
	<path fill="url(#SVGID_3_)" d="M148.2,126.2H168v32.7v32.7h-53.2H60.5v-11.8c0-9,7.3-9.5,16.3-9.5h38.7c16.2,0,16.3-1.3,16.3-27.7
		v0C131.8,133.5,139.1,126.2,148.2,126.2z"></path>
</g>
<path d="M402.3,430.6l-4.5,54c-0.3,4.1-3.8,7.3-8,7.3H200.2c-4.2,0-7.6-3.2-8-7.3L175,275.9c0-0.1,0-0.2,0-0.3c0-0.1,0-0.2,0-0.4
	c0,0,0,0,0-0.1c0-0.2,0-0.3,0-0.5c0-0.1,0-0.2,0-0.3c0-0.2,0-0.3,0.1-0.5c0-0.1,0-0.2,0.1-0.3c0-0.1,0.1-0.3,0.1-0.4
	c0-0.1,0.1-0.2,0.1-0.3c0-0.1,0.1-0.2,0.1-0.4c0-0.1,0.1-0.2,0.1-0.4c0-0.1,0.1-0.2,0.2-0.3c0.1-0.1,0.1-0.2,0.2-0.4
	c0.1-0.1,0.1-0.2,0.2-0.3c0.1-0.1,0.1-0.2,0.2-0.3c0.1-0.1,0.2-0.2,0.2-0.3c0.1-0.1,0.2-0.2,0.2-0.3c0.1-0.1,0.2-0.2,0.3-0.3
	c0.1-0.1,0.2-0.2,0.2-0.3c0.1-0.1,0.2-0.2,0.3-0.3c0.1-0.1,0.2-0.1,0.2-0.2c0.1-0.1,0.2-0.2,0.4-0.3c0.1-0.1,0.2-0.1,0.3-0.2
	c0.1-0.1,0.3-0.2,0.4-0.2c0.1-0.1,0.2-0.1,0.3-0.2c0.1-0.1,0.2-0.1,0.4-0.2c0.1-0.1,0.2-0.1,0.3-0.2c0.1,0,0.2-0.1,0.3-0.1
	c0.1,0,0.3-0.1,0.4-0.1c0.1,0,0.2-0.1,0.3-0.1c0.2,0,0.3-0.1,0.5-0.1c0.1,0,0.2,0,0.3,0c0.2,0,0.3,0,0.5-0.1c0,0,0,0,0.1,0
	c0.1,0,0.2,0,0.3,0c0.1,0,0.2,0,0.3,0c0,0,0,0,0,0l182.3,0.4c4.4,0,8,3.6,8,8c0,4.4-3.6,8-8,8c0,0,0,0,0,0l-173.6-0.4l15.9,192.7
	h174.8l3.9-46.7c0.4-4.4,4.2-7.7,8.6-7.3C399.4,422.3,402.6,426.2,402.3,430.6z M502.2,112.3c0-9.1-3.6-17.6-10-24
	c-6.4-6.4-15-9.9-24-9.9c0,0,0,0-0.1,0l-0.7,0L467.4,43c0-9.1-3.6-17.6-10-24c-6.4-6.4-15-9.9-24-9.9c0,0,0,0-0.1,0l-26,0.1
	c-2.1,0-4.2,0.9-5.7,2.4c-1.5,1.5-2.3,3.5-2.3,5.7l0.5,206.5c0,4.4,3.6,8,8,8c0,0,0,0,0,0c4.4,0,8-3.6,8-8L415.3,25l18,0
	c0,0,0,0,0,0c9.9,0,18,8.1,18,18l0.1,43.4c0,2.1,0.9,4.2,2.4,5.7c1.5,1.5,3.5,2.3,5.6,2.3c0,0,0,0,0,0l8.7,0c0,0,0,0,0,0
	c4.8,0,9.3,1.9,12.7,5.3c3.4,3.4,5.3,7.9,5.3,12.7l0.1,69.4c0,9.9-8.1,18.1-18,18.1l-8.7,0c-2.1,0-4.2,0.9-5.7,2.4
	c-1.5,1.5-2.3,3.5-2.3,5.7l0.1,43.4c0,9.9-8.1,18.1-18,18.1l-18,0l0-10.1c0-4.4-3.6-8-8-8c0,0,0,0,0,0c-4.4,0-8,3.6-8,8l0,13.2
	c-0.3,0.7-0.5,1.5-0.6,2.3l-10.6,127c-0.4,4.4,2.9,8.3,7.3,8.6c0.2,0,0.5,0,0.7,0c4.1,0,7.6-3.2,8-7.3l9.8-117.8l19.4,0
	c18.8,0,34-15.3,34-34.1l-0.1-35.4l0.7,0c18.8,0,34-15.3,34-34.1L502.2,112.3z M223,215.1V66.8c0-2.1-0.9-4.2-2.4-5.7l-30-29.8
	c-3.1-3.1-8.2-3.1-11.3,0c-3.1,3.1-3.1,8.2,0,11.3L207,70.1v137H33v-174h123.3v60H71V56.7c0-4.4-3.6-8-8-8s-8,3.6-8,8v44.3
	c0,4.4,3.6,8,8,8h101.3c4.4,0,8-3.6,8-8v-76c0-4.4-3.6-8-8-8H25c-4.4,0-8,3.6-8,8v190c0,4.4,3.6,8,8,8h190
	C219.4,223.1,223,219.5,223,215.1z M139,83.7c4.4,0,8-3.6,8-8V50.4c0-4.4-3.6-8-8-8h-12.7c-4.4,0-8,3.6-8,8s3.6,8,8,8h4.7v17.3
	C131,80.1,134.6,83.7,139,83.7z M172.3,126.1v62c0,4.4-3.6,8-8,8h-101c-4.4,0-8-3.6-8-8v-62c0-4.4,3.6-8,8-8h101
	C168.8,118.1,172.3,121.7,172.3,126.1z M156.3,134.1h-85v46h85V134.1z M238,165c37.4,0,68.4,27.9,73.3,64l-18.6-18.6
	c-3.1-3.1-8.2-3.1-11.3,0c-3.1,3.1-3.1,8.2,0,11.3l32.5,32.5c1.6,1.6,3.6,2.3,5.7,2.3c2,0,4-0.8,5.6-2.3l34-33
	c3.2-3.1,3.2-8.1,0.2-11.3c-3.1-3.2-8.1-3.2-11.3-0.2l-20.4,19.8c-4.7-45.2-43.1-80.6-89.5-80.6c-4.4,0-8,3.6-8,8S233.6,165,238,165
	z"></path>
</svg>