<svg version="1.1" id="Layer_1" xmlns="http://www.w3.org/2000/svg" xmlns:xlink="http://www.w3.org/1999/xlink" x="0px" y="0px" viewBox="0 0 512 512" enable-background="new 0 0 512 512" xml:space="preserve">
<g>
	<path fill="#DB81DA" class="secondary-color" d="M494.5,329v161.2H472V329H494.5z"></path>
	<path fill="#FFA4ED" class="primary-color" d="M51.9,425.8v40.8h40.8V492H51.9H26.6v-25.3v-40.8H51.9z M427.5,443.8v46.3h21.6v-46.3H427.5z"></path>
</g>
<path d="M452.9,402.2c0,4.4-3.6,8-8,8h-48.1c-4.4,0-8-3.6-8-8s3.6-8,8-8h48.1C449.4,394.2,452.9,397.7,452.9,402.2z M162,430.3H84.6
	c-4.4,0-8,3.6-8,8s3.6,8,8,8H162c4.4,0,8-3.6,8-8S166.4,430.3,162,430.3z M116.7,288c0-4.4-3.6-8-8-8H39.9c-4.4,0-8,3.6-8,8
	s3.6,8,8,8h68.8C113.1,296,116.7,292.4,116.7,288z M381.8,78.1h-75.1c-4.4,0-8,3.6-8,8s3.6,8,8,8h75.1c4.4,0,8-3.6,8-8
	S386.2,78.1,381.8,78.1z M306,54.8v3.9c0,4.4,3.6,8,8,8s8-3.6,8-8v-3.9h3.9c4.4,0,8-3.6,8-8s-3.6-8-8-8H322v-3.9c0-4.4-3.6-8-8-8
	s-8,3.6-8,8v3.9h-3.9c-4.4,0-8,3.6-8,8s3.6,8,8,8H306z"></path>
<g>
	<linearGradient id="SVGID_1_" gradientUnits="userSpaceOnUse" x1="302.5204" y1="481.9747" x2="302.5204" y2="270.4526" class="gradient-element">
		<stop offset="0" class="primary-color-gradient" style="stop-color: #FFA4ED"></stop>
		<stop offset="1" class="secondary-color-gradient" style="stop-color: #DB81DA"></stop>
	</linearGradient>
	<path fill="url(#SVGID_1_)" d="M407,277.1l-17.2,206.8H200.2l-2.1-25.2c-1.7-20.2,14.3-37.6,34.6-37.6h27.5
		c19.2,0,34.7-15.5,34.7-34.7V277.1H407z"></path>
	<linearGradient id="SVGID_2_" gradientUnits="userSpaceOnUse" x1="150.1458" y1="167.0321" x2="150.1458" y2="44.6472">
		<stop offset="0" class="primary-color-gradient" style="stop-color: #FFA4ED"></stop>
		<stop offset="1" class="secondary-color-gradient" style="stop-color: #DB81DA"></stop>
	</linearGradient>
	<path fill="url(#SVGID_2_)" d="M219.6,54.5v60.6v1.6v42.4c0,6.4-5.2,11.5-11.5,11.5h-13.9v0.3h-92.2c-11.7,0-21.2-9.5-21.2-21.2v0
		c0-11.7,9.5-21.2,21.2-21.2h91.5v-11.7v-1.6V64.8H142c-7.5,0-13.7-6.1-13.7-13.7l0,0c0-7.5,6.1-13.7,13.7-13.7h51.4h5.1h2.8v0.2
		C209.4,39.1,219.6,46.1,219.6,54.5z"></path>
</g>
<path d="M402.3,430.6l-4.5,54c-0.3,4.1-3.8,7.3-8,7.3H200.2c-4.2,0-7.6-3.2-8-7.3L175,275.9c0-0.1,0-0.2,0-0.3c0-0.1,0-0.2,0-0.4
	c0,0,0,0,0-0.1c0-0.2,0-0.3,0-0.5c0-0.1,0-0.2,0-0.3c0-0.2,0-0.3,0.1-0.5c0-0.1,0-0.2,0.1-0.3c0-0.1,0.1-0.3,0.1-0.4
	c0-0.1,0.1-0.2,0.1-0.3c0-0.1,0.1-0.2,0.1-0.4c0-0.1,0.1-0.2,0.1-0.4c0-0.1,0.1-0.2,0.2-0.3c0.1-0.1,0.1-0.2,0.2-0.4
	c0.1-0.1,0.1-0.2,0.2-0.3c0.1-0.1,0.1-0.2,0.2-0.3c0.1-0.1,0.2-0.2,0.2-0.3c0.1-0.1,0.2-0.2,0.2-0.3c0.1-0.1,0.2-0.2,0.3-0.3
	c0.1-0.1,0.2-0.2,0.2-0.3c0.1-0.1,0.2-0.2,0.3-0.3c0.1-0.1,0.2-0.1,0.2-0.2c0.1-0.1,0.2-0.2,0.4-0.3c0.1-0.1,0.2-0.1,0.3-0.2
	c0.1-0.1,0.3-0.2,0.4-0.2c0.1-0.1,0.2-0.1,0.3-0.2c0.1-0.1,0.2-0.1,0.4-0.2c0.1-0.1,0.2-0.1,0.3-0.2c0.1,0,0.2-0.1,0.3-0.1
	c0.1,0,0.3-0.1,0.4-0.1c0.1,0,0.2-0.1,0.3-0.1c0.2,0,0.3-0.1,0.5-0.1c0.1,0,0.2,0,0.3,0c0.2,0,0.3,0,0.5-0.1c0,0,0,0,0.1,0
	c0.1,0,0.2,0,0.3,0c0.1,0,0.2,0,0.3,0c0,0,0,0,0,0l182.3,0.4c4.4,0,8,3.6,8,8c0,4.4-3.6,8-8,8c0,0,0,0,0,0l-173.6-0.4l15.9,192.7
	h174.8l3.9-46.7c0.4-4.4,4.2-7.7,8.6-7.3C399.4,422.3,402.6,426.2,402.3,430.6z M502.2,112.3c0-9.1-3.6-17.6-10-24
	c-6.4-6.4-15-9.9-24-9.9c0,0,0,0-0.1,0l-0.7,0L467.4,43c0-9.1-3.6-17.6-10-24c-6.4-6.4-15-9.9-24-9.9c0,0,0,0-0.1,0l-26,0.1
	c-2.1,0-4.2,0.9-5.7,2.4c-1.5,1.5-2.3,3.5-2.3,5.7l0.5,206.5c0,4.4,3.6,8,8,8c0,0,0,0,0,0c4.4,0,8-3.6,8-8L415.3,25l18,0
	c0,0,0,0,0,0c9.9,0,18,8.1,18,18l0.1,43.4c0,2.1,0.9,4.2,2.4,5.7c1.5,1.5,3.5,2.3,5.6,2.3c0,0,0,0,0,0l8.7,0c0,0,0,0,0,0
	c4.8,0,9.3,1.9,12.7,5.3c3.4,3.4,5.3,7.9,5.3,12.7l0.1,69.4c0,9.9-8.1,18.1-18,18.1l-8.7,0c-2.1,0-4.2,0.9-5.7,2.4
	c-1.5,1.5-2.3,3.5-2.3,5.7l0.1,43.4c0,9.9-8.1,18.1-18,18.1l-18,0l0-10.1c0-4.4-3.6-8-8-8c0,0,0,0,0,0c-4.4,0-8,3.6-8,8l0,13.2
	c-0.3,0.7-0.5,1.5-0.6,2.3l-10.6,127c-0.4,4.4,2.9,8.3,7.3,8.6c0.2,0,0.5,0,0.7,0c4.1,0,7.6-3.2,8-7.3l9.8-117.8l19.4,0
	c18.8,0,34-15.3,34-34.1l-0.1-35.4l0.7,0c18.8,0,34-15.3,34-34.1L502.2,112.3z M238,165c37.4,0,68.4,27.9,73.3,64l-18.6-18.6
	c-3.1-3.1-8.2-3.1-11.3,0c-3.1,3.1-3.1,8.2,0,11.3l32.5,32.5c1.6,1.6,3.6,2.3,5.7,2.3c2,0,4-0.8,5.6-2.3l34-33
	c3.2-3.1,3.2-8.1,0.2-11.3c-3.1-3.2-8.1-3.2-11.3-0.2l-20.4,19.8c-4.7-45.2-43.1-80.6-89.5-80.6c-4.4,0-8,3.6-8,8S233.6,165,238,165
	z M208.5,180c10.5,0,19.1-8.5,19.1-19.1v-57.6h-26.1V81.5c0-16-12.7-24.6-24.6-24.6H74.1c-16,0-24.6,12.7-24.6,24.6v54.3h118.6
	c4.4,0,8-3.6,8-8s-3.6-8-8-8H65.5V81.5c0-0.9,0.2-8.6,8.6-8.6h102.8c0.9,0,8.6,0.2,8.6,8.6v37.8h26.1v41.6c0,1.7-1.4,3.1-3.1,3.1
	L39,164c-0.1,0-0.1,0-0.2,0c-0.1,0-0.2,0-0.3,0c-1.4,0-2.5-1.1-2.5-2.5c0-0.8-0.1-1.6-0.3-2.3v-131c0-1.7,1.4-3.1,3.1-3.1H95
	c7.8,0,12.5,2.2,18.1,8.3c9.1,10,13.7,13.8,26.6,13.8h68.7c1.7,0,3.1,1.4,3.1,3.1v34.3c0,4.4,3.6,8,8,8s8-3.6,8-8V50.4
	c0-10.5-8.5-19.1-19.1-19.1h-68.7c-6.4,0-7,0-14.8-8.5c-8.5-9.4-17.8-13.6-30-13.6H38.7c-10.5,0-19.1,8.5-19.1,19.1V162
	c0,1.2,0.3,2.3,0.7,3.3c1.8,8.4,9.2,14.7,18.1,14.7c0.1,0,0.2,0,0.3,0c0.1,0,0.2,0,0.3,0L208.5,180z M81.3,80.8c-4.4,0-8,3.6-8,8
	s3.6,8,8,8h33.4c4.4,0,8-3.6,8-8s-3.6-8-8-8H81.3z"></path>
</svg>