<svg version="1.1" id="Layer_1" xmlns="http://www.w3.org/2000/svg" xmlns:xlink="http://www.w3.org/1999/xlink" x="0px" y="0px" viewBox="0 0 512 512" enable-background="new 0 0 512 512" xml:space="preserve">
<g>
	<linearGradient id="SVGID_1_" gradientUnits="userSpaceOnUse" x1="325.6278" y1="310.1245" x2="325.6278" y2="76.1797" class="gradient-element">
		<stop offset="0" class="primary-color-gradient" style="stop-color: #FFA4ED"></stop>
		<stop offset="1" class="secondary-color-gradient" style="stop-color: #DB81DA"></stop>
	</linearGradient>
	<path fill="url(#SVGID_1_)" d="M275.1,192.2c-8.8-8.8-8.8-23.1,0-31.9l53.6-53.6c6.1-6.1,0.6-11.6,0.5-11.6l-9.4-9.4
		c-3.6-3.6-3.6-9.5,0-13.2l6.1-6.1c3.6-3.6,9.5-3.6,13.2,0l34.1,34.1c2.1,2.1,3,5,2.6,7.7l2.9,2.9l-73.2,73.2l77.1,77.1l-19.2,19.2
		l-1-1l-28.9,28.9l-38-38l22.9-22.9c5-5.1,1.8-9.9,0.7-11.1l-41.7-41.7l0.1-0.1L275.1,192.2z"></path>
	<linearGradient id="SVGID_2_" gradientUnits="userSpaceOnUse" x1="260.3904" y1="441.4535" x2="260.3904" y2="392.4428">
		<stop offset="0" class="primary-color-gradient" style="stop-color: #FFA4ED"></stop>
		<stop offset="1" class="secondary-color-gradient" style="stop-color: #DB81DA"></stop>
	</linearGradient>
	<path fill="url(#SVGID_2_)" d="M422.7,389.8v31.8v7.3v12.2H98v-0.3c0-10.6,8.6-19.3,19.3-19.3h200.1c0.1,0,0.3,0,0.4-0.1
		c6.4-0.6,7.6-5.1,7.8-7.4c0-0.2,0-0.4,0-0.6c0-0.1,0-0.1,0-0.2c0-0.3,0.1-1,0.1-1.3c1.3-12.5,11.9-22.2,24.7-22.2H422.7z"></path>
	<linearGradient id="SVGID_3_" gradientUnits="userSpaceOnUse" x1="206.5096" y1="305.9101" x2="206.5096" y2="215.5226">
		<stop offset="0" class="primary-color-gradient" style="stop-color: #FFA4ED"></stop>
		<stop offset="1" class="secondary-color-gradient" style="stop-color: #DB81DA"></stop>
	</linearGradient>
	<path fill="url(#SVGID_3_)" d="M153.8,280.5c-0.4-0.4-6.8-19.6-0.7-13.5c5.2,5.2,10.1,1.9,11.3,0.8l47.3-47.3c13-13,34.2-13,47.2,0
		l3.7,3.7l-81.2,81.2l-24.6-24.6C155.2,280.7,153.9,280.6,153.8,280.5z"></path>
</g>
<path fill="#DB81DA" class="secondary-color" d="M34.1,410.4H19.5v-60.6h14.6V410.4z M34.1,260.6H19.5v60.6h14.6V260.6z M34.1,482.3v-46H19.5v46v14.6h14.6
	h46v-14.6H34.1z"></path>
<path fill="#FFA4ED" class="primary-color" d="M480.9,244.3l-58.2-58.2l58.2-58.2V244.3z"></path>
<path d="M439.2,264.6h-59.5c-4.4,0-8-3.6-8-8s3.6-8,8-8h59.5c4.4,0,8,3.6,8,8S443.6,264.6,439.2,264.6z M393.1,232.1
	c0-4.4-3.6-8-8-8h-59.5c-4.4,0-8,3.6-8,8s3.6,8,8,8h59.5C389.5,240.1,393.1,236.5,393.1,232.1z M429,64.9
	c0-14.6,11.8-26.4,26.4-26.4s26.4,11.8,26.4,26.4s-11.8,26.4-26.4,26.4S429,79.4,429,64.9z M445,64.9c0,5.7,4.7,10.4,10.4,10.4
	s10.4-4.7,10.4-10.4s-4.7-10.4-10.4-10.4S445,59.1,445,64.9z M86.1,331.1c-5,0-9,4.1-9,9s4.1,9,9,9s9-4.1,9-9S91.1,331.1,86.1,331.1
	z M85.1,298.9c5,0,9-4.1,9-9s-4.1-9-9-9s-9,4.1-9,9S80.1,298.9,85.1,298.9z M225.6,60.5c5,0,9-4.1,9-9s-4.1-9-9-9s-9,4.1-9,9
	S220.6,60.5,225.6,60.5z M73.5,153v-15.8h15.8c4.4,0,8-3.6,8-8s-3.6-8-8-8H73.5v-15.8c0-4.4-3.6-8-8-8s-8,3.6-8,8v15.8H41.7
	c-4.4,0-8,3.6-8,8s3.6,8,8,8h15.8V153c0,4.4,3.6,8,8,8S73.5,157.4,73.5,153z M95.9,218.3H92v-3.9c0-4.4-3.6-8-8-8s-8,3.6-8,8v3.9
	h-3.9c-4.4,0-8,3.6-8,8s3.6,8,8,8H76v3.9c0,4.4,3.6,8,8,8s8-3.6,8-8v-3.9h3.9c4.4,0,8-3.6,8-8S100.3,218.3,95.9,218.3z M473.7,470.8
	c-5,0-9,4.1-9,9s4.1,9,9,9s9-4.1,9-9S478.7,470.8,473.7,470.8z M113.8,33.1H54.3c-4.4,0-8,3.6-8,8s3.6,8,8,8h59.5c4.4,0,8-3.6,8-8
	S118.2,33.1,113.8,33.1z M484.5,332.1h-15.8v-15.8c0-4.4-3.6-8-8-8s-8,3.6-8,8v15.8H437c-4.4,0-8,3.6-8,8s3.6,8,8,8h15.8v15.8
	c0,4.4,3.6,8,8,8s8-3.6,8-8v-15.8h15.8c4.4,0,8-3.6,8-8S488.9,332.1,484.5,332.1z M258.4,297.3h-78.6c-4.4,0-8,3.6-8,8s3.6,8,8,8
	h78.6c4.4,0,8-3.6,8-8S262.8,297.3,258.4,297.3z M258.4,264.2h-45.7c-4.4,0-8,3.6-8,8s3.6,8,8,8h45.7c4.4,0,8-3.6,8-8
	S262.8,264.2,258.4,264.2z"></path>
<path d="M422.7,456.3H89.3c-4.4,0-8-3.6-8-8v-66.7c0-4.4,3.6-8,8-8s8,3.6,8,8v58.7h317.5v-50.7H116.8c-4.4,0-8-3.6-8-8s3.6-8,8-8
	h305.9c4.4,0,8,3.6,8,8v66.7C430.7,452.8,427.2,456.3,422.7,456.3z M332.4,313.3c-2.1,0-4.2-0.8-5.7-2.3L256,240.2l-70.7,70.7
	c-1.5,1.5-3.5,2.3-5.7,2.3s-4.2-0.8-5.7-2.3l-47.4-47.4c-3.1-3.1-3.1-8.2,0-11.3l70.7-70.7l-70.7-70.7c-1.5-1.5-2.3-3.5-2.3-5.7
	s0.8-4.2,2.3-5.7L174,52.2c3.1-3.1,8.2-3.1,11.3,0c3.1,3.1,3.1,8.2,0,11.3l-41.7,41.7l70.7,70.7c1.5,1.5,2.3,3.5,2.3,5.7
	s-0.8,4.2-2.3,5.7l-70.7,70.7l36,36l70.7-70.7c1.5-1.5,3.5-2.3,5.7-2.3s4.2,0.8,5.7,2.3l70.7,70.7l41.7-41.7c3.1-3.1,8.2-3.1,11.3,0
	c3.1,3.1,3.1,8.2,0,11.3L338,310.9C336.5,312.4,334.5,313.3,332.4,313.3z M353.9,240.1c-2,0-4.1-0.8-5.7-2.3l-50.5-50.5
	c-1.5-1.5-2.3-3.5-2.3-5.7s0.8-4.2,2.3-5.7l70.7-70.7l-36-36l-70.7,70.7c-1.5,1.5-3.5,2.3-5.7,2.3s-4.2-0.8-5.7-2.3L196,85.6
	c-3.1-3.1-3.1-8.2,0-11.3c3.1-3.1,8.2-3.1,11.3,0l48.7,48.7l70.7-70.7c3.1-3.1,8.2-3.1,11.3,0l47.4,47.4c1.5,1.5,2.3,3.5,2.3,5.7
	c0,2.1-0.8,4.2-2.3,5.7l-70.7,70.7l44.9,44.9c3.1,3.1,3.1,8.2,0,11.3C358,239.3,355.9,240.1,353.9,240.1z"></path>
</svg>