<svg version="1.1" id="Layer_1" xmlns="http://www.w3.org/2000/svg" xmlns:xlink="http://www.w3.org/1999/xlink" x="0px" y="0px" viewBox="0 0 512 512" enable-background="new 0 0 512 512" xml:space="preserve">
<path d="M118.8,458.9c0,4.4-3.6,8-8,8c-11.4,0-20.7,9.3-20.7,20.8c0,4.4-3.6,8-8,8s-8-3.6-8-8c0-20.3,16.5-36.8,36.7-36.8
	C115.3,450.9,118.8,454.5,118.8,458.9z M32.1,450.9c-4.4,0-8,3.6-8,8s3.6,8,8,8c11.4,0,20.8,9.3,20.8,20.8c0,4.4,3.6,8,8,8
	s8-3.6,8-8C68.8,467.4,52.4,450.9,32.1,450.9z M60.8,400.9c-4.4,0-8,3.6-8,8c0,11.4-9.3,20.8-20.8,20.8c-4.4,0-8,3.6-8,8s3.6,8,8,8
	c20.3,0,36.8-16.5,36.8-36.8C68.8,404.5,65.3,400.9,60.8,400.9z M110.8,429.7c-11.4,0-20.7-9.3-20.7-20.8c0-4.4-3.6-8-8-8
	s-8,3.6-8,8c0,20.3,16.5,36.8,36.7,36.8c4.4,0,8-3.6,8-8S115.3,429.7,110.8,429.7z M399.9,28.4c0-4.4-3.6-8-8-8h-87.6
	c-4.4,0-8,3.6-8,8s3.6,8,8,8h87.6C396.4,36.4,399.9,32.8,399.9,28.4z M481,60.7c0-4.4-3.6-8-8-8H360.2c-4.4,0-8,3.6-8,8s3.6,8,8,8
	H473C477.4,68.7,481,65.1,481,60.7z M481,109.3c0,5-4.1,9-9,9s-9-4.1-9-9s4.1-9,9-9S481,104.3,481,109.3z M451,109.3c0,5-4.1,9-9,9
	s-9-4.1-9-9s4.1-9,9-9S451,104.3,451,109.3z M421,109.3c0,5-4.1,9-9,9s-9-4.1-9-9s4.1-9,9-9S421,104.3,421,109.3z"></path>
<g>
	<path fill="#DB81DA" class="secondary-color" d="M18,8.1l57.8,57.8L18,123.7V8.1z"></path>
	<path fill="#FFA4ED" class="primary-color" d="M361.4,480.8v21.8h-56.9v-21.8H361.4z M501.3,236.5h-21.8v56.9h21.8V236.5z M442.6,502.6h36.9h20h1.8v-56.9
		h-21.8v35.1h-36.9V502.6z"></path>
</g>
<linearGradient id="SVGID_1_" gradientUnits="userSpaceOnUse" x1="344.0168" y1="490.8689" x2="344.0168" y2="66.1252" class="gradient-element">
	<stop offset="0" class="primary-color-gradient" style="stop-color: #FFA4ED"></stop>
	<stop offset="1" class="secondary-color-gradient" style="stop-color: #DB81DA"></stop>
</linearGradient>
<path fill="url(#SVGID_1_)" d="M353.6,339.1c27.1-30.9,43.6-71.3,43.6-115.5c0-96.9-78.8-175.7-175.7-175.7h-1v0
	c0,25.6,16.5,48.4,41,56.2c50.6,16.3,85.3,62.5,85.3,120c0,57.8-35.1,104.3-86.2,120.3c-23.9,7.5-40.1,29.9-40.1,55v0h1
	c31.9,0,61.8-8.7,87.6-23.8l15.7-9c5-3.1,11.4-2.4,15.6,1.7l101.5,98.7c3.3,3.2,8.7,3.2,12-0.1l13.6-13.7L353.6,339.1z"></path>
<path d="M474.5,451.1c0,2.1-0.8,4.2-2.3,5.7l-21.8,21.8c-1.6,1.6-3.6,2.3-5.7,2.3c-2,0-4-0.8-5.6-2.3L323.5,366.3
	c-3.2-3.1-3.2-8.1-0.2-11.3c3.1-3.2,8.1-3.2,11.3-0.2l110,106.9l10.6-10.6L346.9,342.8c-3-3-3.1-7.8-0.4-10.9
	c26.9-30.7,41.7-69.8,41.7-110.3c0-92.5-75.2-167.7-167.7-167.7S52.8,129.1,52.8,221.6S128,389.3,220.5,389.3
	c29.2,0,58.1-7.8,83.5-22.7c3.8-2.2,8.7-0.9,10.9,2.9c2.2,3.8,0.9,8.7-2.9,10.9c-27.9,16.2-59.6,24.8-91.6,24.8
	c-101.3,0-183.7-82.4-183.7-183.7S119.2,37.9,220.5,37.9s183.7,82.4,183.7,183.7c0,41.8-14.4,82.4-40.8,115.1l108.7,108.7
	C473.7,446.9,474.5,448.9,474.5,451.1z M301.8,305.1c0.2-0.2,0.3-0.3,0.5-0.5c-1.2,0.8-2.7,1.3-4.3,1.3H134.3c-4.4,0-8-3.6-8-8
	v-32.7c0-4.4,3.6-8,8-8c0.6,0,1.2,0.1,1.8,0.2c0.6-0.1,1.2-0.2,1.8-0.2H298c4.4,0,8,3.6,8,8v32.7c0,1.5-0.4,2.9-1.1,4.1
	c20.4-21.7,31.5-49.9,31.5-79.9c0-64.5-52.5-116.9-116.9-116.9c-64.5,0-116.9,52.5-116.9,116.9c0,4.4-3.6,8-8,8s-8-3.6-8-8
	c0-73.3,59.6-132.9,132.9-132.9s132.9,59.6,132.9,132.9c0,35.7-14,69.3-39.4,94.4C288,341.3,254.8,355,219.5,355c-4.4,0-8-3.6-8-8
	s3.6-8,8-8C250.5,339,279.8,327,301.8,305.1z M290,273.2H142.3v16.7H290V273.2z M149.7,227.9l23.2,23.2c1.5,1.5,3.5,2.3,5.7,2.3
	c2.1,0,4.2-0.8,5.7-2.3l31.8-31.8l31.8,31.8c1.5,1.5,3.5,2.3,5.7,2.3s4.2-0.8,5.7-2.3l23.2-23.2c3.1-3.1,3.1-8.2,0-11.3
	c-3.1-3.1-8.2-3.1-11.3,0l-17.6,17.6l-31.8-31.8c-1.5-1.5-3.5-2.3-5.7-2.3s-4.2,0.8-5.7,2.3l-31.8,31.8l-11.9-11.9l31.8-31.8
	c1.5-1.5,2.3-3.5,2.3-5.7s-0.8-4.2-2.3-5.7l-31.8-31.8l12.1-12.1l31.7,32c1.5,1.5,3.5,2.4,5.7,2.4c2.1,0,4.2-0.8,5.7-2.3l31.8-31.8
	l11.9,11.9l-31.8,31.8c-1.5,1.5-2.3,3.5-2.3,5.7s0.8,4.2,2.3,5.7l17.8,17.8c1.6,1.6,3.6,2.3,5.7,2.3s4.1-0.8,5.7-2.3
	c3.1-3.1,3.1-8.2,0-11.3l-12.1-12.1l31.8-31.8c1.5-1.5,2.3-3.5,2.3-5.7c0-2.1-0.8-4.2-2.3-5.7l-23.2-23.2c-3.1-3.1-8.2-3.1-11.3,0
	l-31.8,31.8l-31.5-31.8c-1.6-1.6-3.7-2.4-5.9-2.4c-2.1,0-4.2,0.7-5.8,2.3l-23.2,23.2c-1.5,1.5-2.3,3.5-2.3,5.7s0.8,4.2,2.3,5.7
	l31.8,31.8l-31.8,31.8C146.6,219.7,146.6,224.8,149.7,227.9z"></path>
</svg>