<svg version="1.1" id="Layer_1" xmlns="http://www.w3.org/2000/svg" xmlns:xlink="http://www.w3.org/1999/xlink" x="0px" y="0px" viewBox="0 0 512 512" enable-background="new 0 0 512 512" xml:space="preserve">
<linearGradient id="SVGID_1_" gradientUnits="userSpaceOnUse" x1="99.2515" y1="282.3497" x2="408.2476" y2="282.3497" class="gradient-element">
	<stop offset="0" class="primary-color-gradient" style="stop-color: #FFA4ED"></stop>
	<stop offset="1" class="secondary-color-gradient" style="stop-color: #DB81DA"></stop>
</linearGradient>
<path fill="url(#SVGID_1_)" d="M256.4,448.3l-99.8-10.5c-15.9,0-30.2-6.4-40.6-16.8c-10.3-10.2-16.7-24.4-16.8-40.1
	c-0.3-31.9,26.6-42.3,58.4-42.3l98.9,2.4c34.4,0,62.4-50.1,62.4-84.5v-78.3c0-34.4,27.9-51.4,62.4-51.4l26.9-11v268.7
	c0,27.2-27.1,38.8-54.2,53.5L256.4,448.3z M256.4,448.9"></path>
<path fill="#000000" d="M60.9,283.9c0,5.9-4.8,10.8-10.8,10.8s-10.8-4.8-10.8-10.8s4.8-10.8,10.8-10.8S60.9,278,60.9,283.9z
	 M50.2,334.2c-5.9,0-10.8,4.8-10.8,10.8s4.8,10.8,10.8,10.8s10.8-4.8,10.8-10.8S56.1,334.2,50.2,334.2z M50.2,203.2
	c-5.9,0-10.8,4.8-10.8,10.8s4.8,10.8,10.8,10.8s10.8-4.8,10.8-10.8S56.1,203.2,50.2,203.2z M434.4,274.6h-73.8c-4.4,0-8,3.6-8,8
	s3.6,8,8,8h73.8c4.4,0,8-3.6,8-8S438.8,274.6,434.4,274.6z M54.8,64h-3.9v-3.9c0-4.4-3.6-8-8-8s-8,3.6-8,8V64H31c-4.4,0-8,3.6-8,8
	s3.6,8,8,8h3.9v3.9c0,4.4,3.6,8,8,8s8-3.6,8-8V80h3.9c4.4,0,8-3.6,8-8S59.2,64,54.8,64z M483.5,53h-15.8V37.2c0-4.4-3.6-8-8-8
	s-8,3.6-8,8V53H436c-4.4,0-8,3.6-8,8s3.6,8,8,8h15.8v15.8c0,4.4,3.6,8,8,8s8-3.6,8-8V69h15.8c4.4,0,8-3.6,8-8S487.9,53,483.5,53z
	 M455.9,244.6h-43c-4.4,0-8,3.6-8,8s3.6,8,8,8h43c4.4,0,8-3.6,8-8S460.3,244.6,455.9,244.6z"></path>
<path fill="#FFA4ED" class="primary-color" d="M458.4,429.2v-34.7H493v34.7H458.4z M493,481.4v-34.7h-34.7v34.7H493z M439.7,481.4v-34.7h-34.7v34.7H439.7z
	"></path>
<path d="M407.4,138.9c-4.4,0-8,3.6-8,8v58.7c-0.3,1.5-5.1,8.3-24,15.9c-12.3,5-33.4,11.5-65.6,15.2l35-35c1.5-1.5,2.3-3.5,2.3-5.7
	c0-2.1-0.8-4.2-2.3-5.7l-30-30c-3.1-3.1-8.2-3.1-11.3,0l-42.7,42.7l-28.8-28.8c-3.1-3.1-8.2-3.1-11.3,0c-3.1,3.1-3.1,8.2,0,11.3
	l34.4,34.4c1.5,1.5,3.5,2.3,5.7,2.3c2.1,0,4.2-0.8,5.7-2.3l42.7-42.7l18.7,18.7l-42.7,42.7c-1.5,1.5-2.3,3.5-2.3,5.7
	s0.8,4.2,2.3,5.7l32,32c1.6,1.6,3.6,2.3,5.7,2.3s4.1-0.8,5.7-2.3c3.1-3.1,3.1-8.2,0-11.3l-18-18c35.6-4,58.9-11.3,72.4-17
	c5.4-2.3,11.3-5.1,16.5-8.4v79c-0.4,1.9-7.7,11.1-35.2,19.9c-19.9,6.4-54.7,14-107.8,14c-53,0-87.9-7.6-107.8-14
	c-27.6-8.9-34.9-18.1-35.2-19.9v-79c5.8,3.7,12.5,6.9,18.7,9.4c14.7,5.9,39.8,13.3,78.2,16.9l-33.5,33.5c-3.1,3.1-3.1,8.2,0,11.3
	l30,30c1.5,1.5,3.5,2.3,5.7,2.3s4.2-0.8,5.7-2.3l42.7-42.7l42.7,42.7c1.5,1.5,3.5,2.3,5.7,2.3s4.2-0.8,5.7-2.3l30-30
	c3.1-3.1,3.1-8.2,0-11.3c-3.1-3.1-8.2-3.1-11.3,0l-24.3,24.3l-42.7-42.7c-1.5-1.5-3.5-2.3-5.7-2.3s-4.2,0.8-5.7,2.3l-42.7,42.7
	l-18.7-18.7l42.7-42.7c1.5-1.5,2.3-3.5,2.3-5.7s-0.8-4.2-2.3-5.7L193.8,196l24.3-24.3c3.1-3.1,3.1-8.2,0-11.3
	c-3.1-3.1-8.2-3.1-11.3,0l-30,30c-3.1,3.1-3.1,8.2,0,11.3l36.1,36.1c-71.5-6.5-98.6-26.9-99.4-32v-78.9c8.9,5.7,19.7,10,27.8,12.7
	c21,7.1,58.1,15.5,115.2,15.5c57.1,0,94.1-8.4,115.2-15.5c16.4-5.5,43.8-17.3,43.8-34.5S388,76,371.6,70.5
	c-21-7.1-58.1-15.5-115.2-15.5c-57.1,0-94.1,8.4-115.2,15.5C124.9,76,97.5,87.8,97.5,105c0,0.5,0,1,0.1,1.5c0,0.3-0.1,0.7-0.1,1.1
	V407c0,17.2,27.4,29,43.8,34.5c21,7.1,58.1,15.5,115.2,15.5c57.1,0,94.1-8.4,115.2-15.5c16.4-5.5,43.8-17.3,43.8-34.5v-58.7
	c0-4.4-3.6-8-8-8s-8,3.6-8,8l0,58.7c-0.2,1.8-7.2,11-34.5,19.9c-19.8,6.4-54.7,14.1-108.5,14.1s-88.7-7.7-108.5-14.1
	c-27.3-8.9-34.2-18.1-34.5-19.8v-79c9.1,5.8,20.2,10.2,28.5,12.9c21.1,7,58.1,15.4,114.4,15.4c56.3,0,93.3-8.4,114.4-15.4
	c16.5-5.5,44.2-17.2,44.5-34.2c0-0.1,0-0.1,0-0.2V146.9C415.4,142.5,411.8,138.9,407.4,138.9z M148,85.2
	c19.8-6.4,54.7-14.1,108.5-14.1s88.7,7.7,108.5,14.1c27,8.8,34.1,17.9,34.5,19.8c-0.4,1.9-7.5,11-34.5,19.8
	c-19.8,6.4-54.7,14.1-108.5,14.1s-88.7-7.7-108.5-14.1c-27-8.8-34.1-17.9-34.5-19.8C113.9,103.1,121,94,148,85.2z M163.3,371.1v34.2
	h195.2v-26.2H172.7c-4.4,0-8-3.6-8-8s3.6-8,8-8h193.8c4.4,0,8,3.6,8,8v42.2c0,4.4-3.6,8-8,8H155.3c-4.4,0-8-3.6-8-8v-42.2
	c0-4.4,3.6-8,8-8S163.3,366.7,163.3,371.1z"></path>
</svg>