<svg version="1.1" id="Layer_1" xmlns="http://www.w3.org/2000/svg" xmlns:xlink="http://www.w3.org/1999/xlink" x="0px" y="0px" viewBox="0 0 512 512" enable-background="new 0 0 512 512" xml:space="preserve">
<linearGradient id="SVGID_1_" gradientUnits="userSpaceOnUse" x1="265.0349" y1="376.0489" x2="269.5782" y2="130.7098" class="gradient-element">
	<stop offset="0" class="primary-color-gradient" style="stop-color: #FFA4ED"></stop>
	<stop offset="1" class="secondary-color-gradient" style="stop-color: #DB81DA"></stop>
</linearGradient>
<path fill="url(#SVGID_1_)" d="M491.3,366.8H63.8c-11.6,0-21-9.4-21-21V167.8c0-11.8,9.6-21.4,21.4-21.4h427.1V366.8z"></path>
<path fill="#DB81DA" class="secondary-color" d="M478.2,32l-36.7,36.7L404.8,32H478.2z M317.8,32l36.7,36.7L391.2,32H317.8z"></path>
<path d="M433.2,100.5c0,4.4-3.6,8-8,8h-15.8v15.8c0,4.4-3.6,8-8,8s-8-3.6-8-8v-15.8h-15.8c-4.4,0-8-3.6-8-8s3.6-8,8-8h15.8V76.7
	c0-4.4,3.6-8,8-8s8,3.6,8,8v15.8h15.8C429.7,92.5,433.2,96.1,433.2,100.5z M70,32.3c0,7.8-6.4,14.2-14.2,14.2
	c-7.8,0-14.2-6.4-14.2-14.2c0-7.8,6.4-14.2,14.2-14.2C63.6,18.1,70,24.5,70,32.3z M70,68.3c0,7.8-6.4,14.2-14.2,14.2
	c-7.8,0-14.2-6.4-14.2-14.2c0-7.8,6.4-14.2,14.2-14.2C63.6,54.1,70,60.5,70,68.3z M168.7,46.9c0,14.6-11.8,26.4-26.4,26.4
	S116,61.4,116,46.9s11.8-26.4,26.4-26.4S168.7,32.3,168.7,46.9z M152.7,46.9c0-5.7-4.7-10.4-10.4-10.4S132,41.1,132,46.9
	s4.7,10.4,10.4,10.4S152.7,52.6,152.7,46.9z M481.7,482.1c-0.6,3.9-4,6.8-8,6.8c-1.6,0-3.2-0.4-4.5-1.2c-1.7-0.7-2.8-1.7-3.6-2.6
	c-2.8-2.2-3.2-5.5-2.9-7.4c0.6-3.9,4-6.8,8-6.8c1.6,0,3.2,0.4,4.5,1.2c1.6,0.7,2.8,1.7,3.6,2.6C481.6,476.8,482,480.1,481.7,482.1z"></path>
<path d="M505,100.5v322.9c0,8.8-7.2,16-16,16H263.4v33.9h178.4c4.4,0,8,3.6,8,8s-3.6,8-8,8H65.3c-4.4,0-8-3.6-8-8s3.6-8,8-8h182.1
	v-38.8c0-0.5,0.1-1,0.1-1.5c-0.1-0.5-0.1-1-0.1-1.5c0-4.4,3.6-8,8-8H489v-48.6h-88c-4.4,0-8-3.6-8-8s3.6-8,8-8h88V100.5
	c0-4.4,3.6-8,8-8S505,96.1,505,100.5z M54.3,388.6c5,0,9,4.1,9,9s-4.1,9-9,9s-9-4.1-9-9S49.3,388.6,54.3,388.6z M84.3,388.6
	c5,0,9,4.1,9,9s-4.1,9-9,9s-9-4.1-9-9S79.3,388.6,84.3,388.6z M106.3,388.6c5,0,9,4.1,9,9s-4.1,9-9,9s-9-4.1-9-9
	S101.3,388.6,106.3,388.6z M229.6,431.4c0-4.4-3.6-8-8-8H23.1V108.5h372.5c4.4,0,8-3.6,8-8s-3.6-8-8-8H23.1c-8.8,0-16,7.2-16,16
	v314.9c0,8.8,7.2,16,16,16h198.5C226,439.4,229.6,435.8,229.6,431.4z M159,317.1h206.5c4.4,0,8,3.6,8,8v42.2c0,4.4-3.6,8-8,8H154.3
	c-4.4,0-8-3.6-8-8v-42.2c0-4.4,3.6-8,8-8c0.8,0,1.6,0.1,2.4,0.4C157.4,317.2,158.2,317.1,159,317.1z M162.3,359.3h195.2v-26.2H162.3
	V359.3z M217.2,137.3c-3.1-3.1-8.2-3.1-11.3,0l-30,30c-3.1,3.1-3.1,8.2,0,11.3l42.7,42.7l-42.7,42.7c-3.1,3.1-3.1,8.2,0,11.3l30,30
	c1.5,1.5,3.5,2.3,5.7,2.3s4.2-0.8,5.7-2.3l42.7-42.7l42.7,42.7c1.5,1.5,3.5,2.3,5.7,2.3s4.2-0.8,5.7-2.3l29.5-29.5
	c0.1-0.1,0.1-0.1,0.2-0.2c0.1-0.1,0.2-0.2,0.2-0.3l0,0c3.1-3.1,3.1-8.2,0-11.3c-0.6-0.6-1.2-1-1.9-1.4l-40.9-41.3l42.7-42.7
	c1.5-1.5,2.3-3.5,2.3-5.7c0-2.1-0.8-4.2-2.3-5.7l-30-30c-3.1-3.1-8.2-3.1-11.3,0l-42.7,42.7l-22.8-22.8c-3.1-3.1-8.2-3.1-11.3,0
	c-3.1,3.1-3.1,8.2,0,11.3l28.4,28.4c1.5,1.5,3.5,2.3,5.7,2.3s4.2-0.8,5.7-2.3l42.7-42.7l18.7,18.7l-42.7,42.7
	c-3.1,3.1-3.1,8.2,0,11.3l42.5,43l-18.5,18.5l-42.7-42.7c-1.5-1.5-3.5-2.3-5.7-2.3s-4.2,0.8-5.7,2.3l-42.7,42.7l-18.7-18.7
	l42.7-42.7c1.5-1.5,2.3-3.5,2.3-5.7c0-2.1-0.8-4.2-2.3-5.7L192.8,173l24.3-24.3C220.3,145.5,220.3,140.5,217.2,137.3z"></path>
</svg>