<svg version="1.1" id="Layer_1" xmlns="http://www.w3.org/2000/svg" xmlns:xlink="http://www.w3.org/1999/xlink" x="0px" y="0px" viewBox="0 0 512 512" enable-background="new 0 0 512 512" xml:space="preserve">
<g>
	<path fill="#DB81DA" class="secondary-color" d="M33.6,417.1L94.5,478H33.6V417.1z M359.8,447.5h51.9v37.3h-51.9V447.5z"></path>
	<path fill="#DB81DA" class="secondary-color" d="M439.1,448.3h47.2v35.8h-47.2V448.3z"></path>
</g>
<path d="M445.6,49.1c-14.6,0-26.4,11.8-26.4,26.4s11.8,26.4,26.4,26.4S472,90,472,75.5S460.2,49.1,445.6,49.1z M445.6,85.9
	c-5.7,0-10.4-4.7-10.4-10.4s4.7-10.4,10.4-10.4S456,69.7,456,75.5S451.3,85.9,445.6,85.9z M115.1,86.1c0,4.4-3.6,8-8,8
	c-11.4,0-20.8,9.3-20.8,20.8c0,4.4-3.6,8-8,8s-8-3.6-8-8c0-20.3,16.5-36.8,36.8-36.8C111.5,78.1,115.1,81.7,115.1,86.1z M65.1,114.8
	c0,4.4-3.6,8-8,8s-8-3.6-8-8c0-11.4-9.3-20.8-20.8-20.8c-4.4,0-8-3.6-8-8s3.6-8,8-8C48.6,78.1,65.1,94.6,65.1,114.8z M65.1,36.1
	c0,20.3-16.5,36.8-36.8,36.8c-4.4,0-8-3.6-8-8s3.6-8,8-8c11.4,0,20.8-9.3,20.8-20.8c0-4.4,3.6-8,8-8S65.1,31.7,65.1,36.1z
	 M115.1,64.8c0,4.4-3.6,8-8,8c-20.3,0-36.8-16.5-36.8-36.8c0-4.4,3.6-8,8-8s8,3.6,8,8c0,11.4,9.3,20.8,20.8,20.8
	C111.5,56.8,115.1,60.4,115.1,64.8z M452.2,371.5c0,4.4-3.6,8-8,8h-43c-4.4,0-8-3.6-8-8s3.6-8,8-8h43
	C448.6,363.5,452.2,367,452.2,371.5z M430.7,401.5c0,4.4-3.6,8-8,8h-73.8c-4.4,0-8-3.6-8-8s3.6-8,8-8h73.8
	C427.1,393.5,430.7,397,430.7,401.5z M58.1,354.3c0,4.4-3.6,8-8,8h-3.9v3.9c0,4.4-3.6,8-8,8s-8-3.6-8-8v-3.9h-3.9c-4.4,0-8-3.6-8-8
	s3.6-8,8-8h3.9v-3.9c0-4.4,3.6-8,8-8s8,3.6,8,8v3.9h3.9C54.5,346.3,58.1,349.9,58.1,354.3z"></path>
<linearGradient id="SVGID_1_" gradientUnits="userSpaceOnUse" x1="230.7677" y1="341.1454" x2="204.7906" y2="59.7267" class="gradient-element">
	<stop offset="0" class="primary-color-gradient" style="stop-color: #FFA4ED"></stop>
	<stop offset="0.4525" class="secondary-color-gradient" style="stop-color: #DB81DA"></stop>
</linearGradient>
<path fill="url(#SVGID_1_)" d="M106.2,315.9h201.9l-17.2,22.3H116.1L106.2,315.9z M113.1,226.6L109,249h216.2l17.2-22.3H113.1z"></path>
<path d="M258.3,468.9c-45.1,0-87.6-14.9-122.9-43.1c-32.5-26-56.3-62-67.3-101.9H46.3c-4.4,0-8-3.6-8-8v-22.3c0-4.4,3.6-8,8-8
	s8,3.6,8,8v14.3h19.9c3.7,0,6.9,2.5,7.8,6.1c19.8,81.8,92.3,138.9,176.3,138.9c32.4,0,64.2-8.8,92.4-25.5v-22.4c0-4.4,3.6-8,8-8
	s8,3.6,8,8v26.9c0,2.8-1.4,5.3-3.8,6.8C331.3,458.5,295.1,468.9,258.3,468.9z M299.5,323.9H112.3c-4.4,0-8-3.6-8-8s3.6-8,8-8h180.9
	l4.7-19.5H111.8c-0.9,0-1.7-0.1-2.5-0.4c-1.1-0.3-2.1-0.9-2.9-1.6c0,0,0,0,0,0c-0.9-0.8-1.7-1.9-2.1-3.1c-0.3-0.7-0.5-1.5-0.5-2.3
	c-2.8-33.1,7.7-56.7,8.1-57.7c1.3-2.9,4.1-4.7,7.3-4.7h208.3l4.8-20.6H141.4c-2.9,0-5.6-1.6-7-4.1c-1.4-2.5-1.4-5.6,0.2-8.1
	c0.4-0.7,10.1-16.2,28.7-31.7c24.8-20.5,53.8-31.1,84-30.4c4.4,0.1,7.9,3.8,7.8,8.2c-0.1,4.4-3.7,7.9-8.2,7.8
	c-26.4-0.6-51,8.3-73,26.4c-6.7,5.5-12.2,11.1-16.3,15.9h184.9c2.4,0,4.8,1.1,6.3,3s2.1,4.4,1.5,6.8l-8.6,36.6
	c-0.8,3.6-4.1,6.2-7.8,6.2H124.7c-2.2,6.8-5.8,20.5-5.4,37.8h188.8c2.5,0,4.8,1.1,6.3,3.1c1.5,1.9,2.1,4.5,1.5,6.8l-8.6,35.5
	C306.4,321.4,303.2,323.9,299.5,323.9z M68.6,279.3c-4.4,0-8-3.6-8-8c0-12,1.2-24.2,3.6-36.6H46.3c-4.4,0-8-3.6-8-8s3.6-8,8-8h27.8
	c2.5,0,4.8,1.1,6.3,3.1c1.5,1.9,2.1,4.4,1.5,6.8c-3.5,14.5-5.3,28.9-5.3,42.7C76.6,275.7,73,279.3,68.6,279.3z M88.6,195.1
	c-1.2,0-2.4-0.3-3.6-0.8c-4-2-5.6-6.8-3.6-10.7c16.1-32.5,40.9-59.9,71.5-79.3c31.5-20,67.9-30.6,105.4-30.6
	c41.8,0,81.8,13,115.8,37.6c3.2,2.3,4.2,6.6,2.4,10.1L356,161.2c-2,3.9-6.8,5.5-10.8,3.5c-3.9-2-5.5-6.8-3.5-10.8l17.3-33.6
	c-30-20.1-64.7-30.6-100.8-30.6c-69.2,0-131.5,38.7-162.5,101C94.3,193.5,91.5,195.1,88.6,195.1z M323.4,402.9
	c25.8-10.9,41.2-24.9,41.8-25.5c3.2-3,3.5-8.1,0.5-11.3c-3-3.3-8.1-3.5-11.3-0.5c-0.6,0.5-56.3,50.8-132.3,28.2
	c-4.2-1.3-8.7,1.2-9.9,5.4c-1.3,4.2,1.2,8.7,5.4,9.9c15.6,4.6,30.4,6.5,44.1,6.5C286.7,415.6,308,409.4,323.4,402.9z"></path>
</svg>