<svg version="1.1" id="Layer_1" xmlns="http://www.w3.org/2000/svg" xmlns:xlink="http://www.w3.org/1999/xlink" x="0px" y="0px" viewBox="0 0 512 512" enable-background="new 0 0 512 512" xml:space="preserve">
<linearGradient id="SVGID_1_" gradientUnits="userSpaceOnUse" x1="226.3181" y1="444.125" x2="226.3181" y2="131.4142" class="gradient-element">
	<stop offset="0" class="primary-color-gradient" style="stop-color: #FFA4ED"></stop>
	<stop offset="1" class="secondary-color-gradient" style="stop-color: #DB81DA"></stop>
</linearGradient>
<path fill="url(#SVGID_1_)" d="M297,146.8v305l-141.4-48v-38.8c0-15.3,15.3-27.8,34.2-27.8h0c20.1,0,36.5-13.3,36.5-29.6V159.4
	c0-23.3,13.3-36.1,52-18.9l14.8,3.1C295.3,143.6,297,145.1,297,146.8z"></path>
<path fill="#FFA4ED" class="primary-color" d="M432,65.1h-45.3V19.8H432V65.1z M500.1,19.8h-45.3v45.3h45.3V19.8z M500.1,89.4h-45.3v45.3h45.3V89.4z"></path>
<path d="M452,458.8c0,4.4-3.6,8-8,8H340.7c-4.4,0-8-3.6-8-8s3.6-8,8-8H444C448.4,450.8,452,454.3,452,458.8z M478.6,198.2h-15.8
	v-15.8c0-4.4-3.6-8-8-8s-8,3.6-8,8v15.8H431c-4.4,0-8,3.6-8,8s3.6,8,8,8h15.8V230c0,4.4,3.6,8,8,8s8-3.6,8-8v-15.8h15.8
	c4.4,0,8-3.6,8-8S483,198.2,478.6,198.2z M32.1,58.9c0-14.6,11.8-26.4,26.4-26.4s26.4,11.8,26.4,26.4S73.1,85.2,58.5,85.2
	S32.1,73.4,32.1,58.9z M48.1,58.9c0,5.7,4.7,10.4,10.4,10.4s10.4-4.7,10.4-10.4s-4.7-10.4-10.4-10.4S48.1,53.1,48.1,58.9z
	 M77.3,437.7c-20-18.2-31.6-42.9-32.9-69.7c-0.2-4.4-3.9-7.8-8.4-7.6c-4.4,0.2-7.8,4-7.6,8.4c1.4,31,15,59.7,38.1,80.7l10.5,9.5
	c1.5,1.4,3.5,2.1,5.4,2.1c2.2,0,4.3-0.9,5.9-2.6c3-3.3,2.7-8.3-0.5-11.3L77.3,437.7z"></path>
<path d="M427.6,268.9l-25.1-25.1c-3.1-3.1-8.1-3.1-11.1,0s-3.1,8.1,0,11.1l11.3,11.3h-28.5V94.3c0-4.8-3.9-8.6-8.6-8.6H152.3
	c-4.8,0-8.6,3.9-8.6,8.6v309.6c0,4.8,3.9,8.6,8.6,8.6c0.3,0,0.6,0,0.9,0l144.7,48.9c0.8,0.3,1.7,0.4,2.5,0.4c1.6,0,3.2-0.5,4.6-1.5
	c2.1-1.5,3.3-3.9,3.3-6.4v-41.4h57.3c4.8,0,8.6-3.9,8.6-8.6V299.5c0-4.8-3.9-8.6-8.6-8.6s-8.6,3.9-8.6,8.6v95.7h-48.7v-251
	c0-3.4-2.2-6.4-5.4-7.5l-100.4-33.9h154.5v163.3h-25.1c-4.3,0-7.9,3.5-7.9,7.9s3.5,7.9,7.9,7.9h71.6l-12,12c-3.1,3.1-3.1,8.1,0,11.1
	c1.5,1.5,3.6,2.3,5.6,2.3s4-0.8,5.6-2.3l25.1-25.1C430.7,276.9,430.7,272,427.6,268.9z M292.5,442.9l-131.6-44.4v-293l131.6,44.4
	V442.9z"></path>
</svg>