<svg version="1.1" id="Layer_1" xmlns="http://www.w3.org/2000/svg" xmlns:xlink="http://www.w3.org/1999/xlink" x="0px" y="0px" viewBox="0 0 512 512" enable-background="new 0 0 512 512" xml:space="preserve">
<linearGradient id="SVGID_1_" gradientUnits="userSpaceOnUse" x1="245.4793" y1="385.531" x2="266.5331" y2="150.9312" class="gradient-element">
	<stop offset="0" class="primary-color-gradient" style="stop-color: #FFA4ED"></stop>
	<stop offset="1" class="secondary-color-gradient" style="stop-color: #DB81DA"></stop>
</linearGradient>
<path fill="url(#SVGID_1_)" d="M385.5,160.5V372c0,14.3-11.6,25.8-25.8,25.8H152.3c-14.3,0-25.8-11.6-25.8-25.8V164.6
	c0-14.3,11.6-25.8,25.8-25.8h214.3L217.1,286.9l20.3,20.3L385.5,160.5z"></path>
<path d="M30.8,53c-4.2-4.2-4.2-11,0-15.2c4.2-4.2,11-4.2,15.2,0c4.2,4.2,4.2,11,0,15.2C41.8,57.2,35,57.2,30.8,53z M23.2,244.6h3.9
	v3.9c0,4.4,3.6,8,8,8s8-3.6,8-8v-3.9H47c4.4,0,8-3.6,8-8s-3.6-8-8-8h-3.9v-3.9c0-4.4-3.6-8-8-8s-8,3.6-8,8v3.9h-3.9
	c-4.4,0-8,3.6-8,8S18.8,244.6,23.2,244.6z M489.9,48.1H486v-3.9c0-4.4-3.6-8-8-8s-8,3.6-8,8v3.9h-3.9c-4.4,0-8,3.6-8,8s3.6,8,8,8
	h3.9V68c0,4.4,3.6,8,8,8s8-3.6,8-8v-3.9h3.9c4.4,0,8-3.6,8-8S494.3,48.1,489.9,48.1z M323.7,37.8c-4.2,4.2-4.2,11,0,15.2
	c4.2,4.2,11,4.2,15.2,0s4.2-11,0-15.2C334.7,33.6,327.9,33.6,323.7,37.8z M45.1,479.2c-2,2-4.6,3-7.3,3c-2.8,0-5.4-1.1-7.3-3
	c-2-2-3-4.6-3-7.3s1.1-5.4,3-7.3c3.1-3.1,3.1-8.2,0-11.3s-8.2-3.1-11.3,0c-5,5-7.7,11.6-7.7,18.7s2.7,13.7,7.7,18.7
	c5,5,11.6,7.7,18.7,7.7c7,0,13.7-2.7,18.7-7.7c3.1-3.1,3.1-8.2,0-11.3C53.3,476.1,48.2,476.1,45.1,479.2z M487.4,364.4
	c0-4.4-3.6-8-8-8h-43c-4.4,0-8,3.6-8,8s3.6,8,8,8h43C483.8,372.4,487.4,368.8,487.4,364.4z M465.9,394.4c0-4.4-3.6-8-8-8h-73.8
	c-4.4,0-8,3.6-8,8s3.6,8,8,8h73.8C462.3,402.4,465.9,398.8,465.9,394.4z"></path>
<g>
	<path fill="#DB81DA" class="secondary-color" d="M488.9,426.9v60.5h-60.5L488.9,426.9z M170.5,480.4v17.6h55.9v-17.6H170.5z"></path>
	<path fill="#DB81DA" class="secondary-color" d="M156,480.4v17.6h-53.6v-17.6H156z"></path>
</g>
<path d="M443,463.3H69c-4.4,0-8-3.6-8-8v-374c0-4.4,3.6-8,8-8h201.4c4.4,0,8,3.6,8,8s-3.6,8-8,8H77v358h358v-49.5c0-4.4,3.6-8,8-8
	s8,3.6,8,8v57.5C451,459.7,447.4,463.3,443,463.3z M443,372.4c-4.4,0-8-3.6-8-8V253.9c0-4.4,3.6-8,8-8s8,3.6,8,8v110.5
	C451,368.8,447.4,372.4,443,372.4z M237.4,315.2c-2,0-4.1-0.8-5.7-2.3l-20.3-20.3c-3.1-3.1-3.1-8.2,0-11.3L374.6,118h-75.4
	c-4.4,0-8-3.6-8-8V81.3c0-4.4,3.6-8,8-8H443c4.4,0,8,3.6,8,8v143.9c0,4.4-3.6,8-8,8s-8-3.6-8-8V89.3H307.2V102h86.7
	c3.2,0,6.2,1.9,7.4,4.9s0.6,6.4-1.7,8.7L228.4,286.9l9.1,9.1l170.7-169.2c2.3-2.3,5.7-2.9,8.7-1.7c3,1.2,4.9,4.2,4.9,7.4l-0.2,84.6
	h1.4c4.4,0,8,3.6,8,8c0,4.4-3.6,8-8,8h-9.4c-2.1,0-4.2-0.8-5.7-2.4c-1.5-1.5-2.3-3.5-2.3-5.7l0.2-73.3L243,312.9
	C241.5,314.5,239.4,315.2,237.4,315.2z"></path>
</svg>