<svg version="1.1" id="Layer_1" xmlns="http://www.w3.org/2000/svg" xmlns:xlink="http://www.w3.org/1999/xlink" x="0px" y="0px" viewBox="0 0 512 512" enable-background="new 0 0 512 512" xml:space="preserve">
<linearGradient id="SVGID_1_" gradientUnits="userSpaceOnUse" x1="362.347" y1="324.1184" x2="362.347" y2="199.1024" class="gradient-element">
	<stop offset="0" class="primary-color-gradient" style="stop-color: #FFA4ED"></stop>
	<stop offset="1" class="secondary-color-gradient" style="stop-color: #DB81DA"></stop>
</linearGradient>
<path fill="url(#SVGID_1_)" d="M451,232.9c0,0,0,86.6-86.6,86.6c-31.6,0-51.6-11.5-64.4-26.2c-6.7-7.7-1.3-19.8,8.9-20.1h0
	c3.9-0.1,7.5,1.6,9.9,4.6c8.2,10.1,21.3,18.2,42.7,18.2c55.9,0,55.9-55.9,55.9-55.9c0-27.9-27.9-27.9-27.9-27.9H285
	c-6.2,0-11.3-5-11.3-11.3v0c0-6.2,5-11.3,11.3-11.3h122.8C407.7,189.6,451,189.6,451,232.9z"></path>
<path d="M432.9,188.3c-12.4-6.2-24.7-6.3-25.2-6.3H104.6c-26.5,0-39.1,14.2-45,26.1c-6.2,12.4-6.3,24.7-6.3,25.2
	c0,1,0.1,23.8,11.7,46.9C75.9,302,99.1,328,147.9,328s72-26,82.9-47.7c7.5-15.1,10.2-30,11.2-38.9h28.3c0.9,8.8,3.6,23.8,11.2,38.9
	c10.9,21.8,34.1,47.7,82.9,47.7s72-26,82.9-47.7c11.5-23.1,11.7-45.9,11.7-46.9C459,206.9,444.8,194.3,432.9,188.3z M433,273.1
	c-12.9,25.8-36,38.9-68.6,38.9c-77.4,0-78.6-75.4-78.6-78.6c0-4.4-3.6-8-8-8h-43.3c-4.4,0-8,3.6-8,8c0,3.2-1.2,78.6-78.6,78.6
	c-77.4,0-78.6-75.4-78.6-78.6c0-0.1,0.1-9.5,4.8-18.5c5.8-11.3,15.8-16.8,30.5-16.8h303.1c1.4,0,35.3,0.4,35.3,35.3
	C443,233.6,442.9,253.4,433,273.1z M426.7,240.6c0,0.7-0.1,16.3-8,32.1c-7.5,15.1-23.6,33.1-57.2,33.1c-30.3,0-46-14.8-53.9-27.3
	c-2.7-4.3-1.5-10,2.9-12.8c4.3-2.7,10-1.5,12.8,2.9c7.9,12.4,20.8,18.7,38.3,18.7c19.2,0,32.7-7.5,40.4-22.3
	c6.1-11.9,6.3-24.2,6.3-24.3c0-7.8-2.7-12.9-8.4-15.9c-4.9-2.6-10.3-2.7-10.3-2.7H118.9c-7.8,0-12.9,2.7-15.9,8.4
	c-2.5,4.7-2.7,9.8-2.7,10.3c0,0.9,0.4,12.8,6.3,24.3c7.6,14.8,21.2,22.3,40.4,22.3c15.9,0,28-5.2,36-15.4c3.1-4,9-4.8,13-1.6
	c4,3.1,4.8,9,1.6,13c-11.5,14.7-29,22.5-50.6,22.5c-33.6,0-49.6-18-57.2-33.1c-7.9-15.7-8-31.4-8-32.1c0-15,9.9-37.2,37.2-37.2
	h270.6C404.4,203.4,426.7,213.3,426.7,240.6z"></path>
<path d="M79.4,35.7c0,20.3-16.5,36.8-36.8,36.8c-4.4,0-8-3.6-8-8s3.6-8,8-8c11.4,0,20.8-9.3,20.8-20.8c0-4.4,3.6-8,8-8
	S79.4,31.3,79.4,35.7z M121.4,56.5c-11.4,0-20.8-9.3-20.8-20.8c0-4.4-3.6-8-8-8s-8,3.6-8,8c0,20.3,16.5,36.8,36.8,36.8
	c4.4,0,8-3.6,8-8S125.8,56.5,121.4,56.5z M121.4,77.7c-20.3,0-36.8,16.5-36.8,36.8c0,4.4,3.6,8,8,8s8-3.6,8-8
	c0-11.4,9.3-20.8,20.8-20.8c4.4,0,8-3.6,8-8S125.8,77.7,121.4,77.7z M42.6,77.7c-4.4,0-8,3.6-8,8s3.6,8,8,8
	c11.4,0,20.8,9.3,20.8,20.8c0,4.4,3.6,8,8,8s8-3.6,8-8C79.4,94.2,62.9,77.7,42.6,77.7z M42.6,433.8c-5.9,0-10.8,4.8-10.8,10.8
	c0,5.9,4.8,10.8,10.8,10.8s10.8-4.8,10.8-10.8C53.4,438.6,48.6,433.8,42.6,433.8z M342.5,436.5h-56c-4.4,0-8,3.6-8,8s3.6,8,8,8h56
	c4.4,0,8-3.6,8-8S346.9,436.5,342.5,436.5z M292.3,419.3c0-4.4-3.6-8-8-8h-35c-4.4,0-8,3.6-8,8s3.6,8,8,8h35
	C288.8,427.3,292.3,423.7,292.3,419.3z M482.4,440.4c-3.1-3.1-8.2-3.1-11.3,0L460,451.6l-11.2-11.2c-3.1-3.1-8.2-3.1-11.3,0
	c-3.1,3.1-3.1,8.2,0,11.3l11.2,11.2l-11.2,11.2c-3.1,3.1-3.1,8.2,0,11.3c1.6,1.6,3.6,2.3,5.7,2.3s4.1-0.8,5.7-2.3l11.2-11.2
	l11.2,11.2c1.6,1.6,3.6,2.3,5.7,2.3s4.1-0.8,5.7-2.3c3.1-3.1,3.1-8.2,0-11.3l-11.2-11.2l11.2-11.2
	C485.6,448.6,485.6,443.6,482.4,440.4z M486.6,137.5h-86.8c-4.4,0-8,3.6-8,8s3.6,8,8,8h86.8c4.4,0,8-3.6,8-8S491,137.5,486.6,137.5z
	 M258.4,121.9h57.4c4.4,0,8-3.6,8-8s-3.6-8-8-8h-57.4c-4.4,0-8,3.6-8,8S253.9,121.9,258.4,121.9z"></path>
<path fill="#DB81DA" class="secondary-color" d="M63.5,473.4l57.8-57.8l57.8,57.8H63.5z M356.7,58.1H483V35.9H356.7V58.1z M419.9,67.6H483v22.2h-63.1V67.6z"></path>
</svg>