<svg version="1.1" id="Layer_1" xmlns="http://www.w3.org/2000/svg" xmlns:xlink="http://www.w3.org/1999/xlink" x="0px" y="0px" viewBox="0 0 512 512" enable-background="new 0 0 512 512" xml:space="preserve">
<linearGradient id="SVGID_1_" gradientUnits="userSpaceOnUse" x1="304.9338" y1="439.7354" x2="304.9338" y2="94.1891" class="gradient-element">
	<stop offset="0" class="primary-color-gradient" style="stop-color: #FFA4ED"></stop>
	<stop offset="1" class="secondary-color-gradient" style="stop-color: #DB81DA"></stop>
</linearGradient>
<path fill="url(#SVGID_1_)" d="M287.9,212.9c-2.4,8.1-3.7,17.3-3.7,27.9v35.8h-31.8v42.5h31.8v127.4h-73.9h-33.3H168v-0.7
	c-25.3-4.2-44.6-26.2-44.6-52.7v-22.7h20.8c13.1,0,23.8-10.7,23.8-23.8l0,0C168,249.3,200.2,212.9,287.9,212.9z M455.9,84.5h-62.7
	v128c-1,0-1.9-0.1-2.9-0.1c-6.1-0.3-13.8-0.5-21.2-0.5c-28.2,0-42.5,13.3-42.5,39.6v25.2h61.8l-7.1,42.5h-54.7v127.4h128
	c17.6,0,31.8-14.3,31.8-31.8V237.3v-24.4V115C486.4,98.2,472.7,84.5,455.9,84.5z"></path>
<path d="M454.6,454.4h-125c-4.4,0-8-3.6-8-8V319.1c0-4.4,3.6-8,8-8h50.8l4.6-29.5h-55.4c-4.4,0-8-3.6-8-8v-25.2
	c0-31.5,18.4-49.6,50.5-49.6c4.9,0,10.9,0.1,16.2,0.3v-27.4c-7.2-0.6-16.6-1.2-23.6-1.2c-24.2,0-42.7,5.6-54.7,16.6
	c-11.8,10.8-17.8,27.2-17.8,48.7v37.8c0,4.4-3.6,8-8,8h-26.8v29.5h26.8c4.4,0,8,3.6,8,8v127.4c0,4.4-3.6,8-8,8H157.4
	c-22,0-39.8-17.9-39.8-39.8V174.2c0-4.4,3.6-8,8-8s8,3.6,8,8v240.3c0,13.1,10.7,23.8,23.8,23.8h118.7V327.1h-26.8c-4.4,0-8-3.6-8-8
	v-45.5c0-4.4,3.6-8,8-8h26.8v-29.8c0-52.4,31.4-81.3,88.5-81.3c10.3,0,25.2,1.1,32.5,1.9c4.1,0.4,7.1,3.9,7.1,8v43
	c0,2.2-0.9,4.3-2.5,5.8c-1.6,1.5-3.7,2.3-5.9,2.2c-5.7-0.3-16.4-0.5-23.9-0.5c-23.2,0-34.5,11-34.5,33.6v17.2h56.8
	c2.3,0,4.6,1,6.1,2.8c1.5,1.8,2.2,4.1,1.8,6.4l-7.1,45.5c-0.6,3.9-4,6.8-7.9,6.8h-49.7v111.4h117c13.1,0,23.8-10.7,23.8-23.8V117.4
	c0-13.1-10.7-23.8-23.8-23.8H157.4c-13.1,0-23.8,10.7-23.8,23.8V142c0,4.4-3.6,8-8,8s-8-3.6-8-8v-24.5c0-22,17.9-39.8,39.8-39.8
	h297.2c22,0,39.8,17.9,39.8,39.8v297.2C494.4,436.5,476.5,454.4,454.6,454.4z"></path>
<path d="M23.6,102.4c5,0,9-4.1,9-9s-4.1-9-9-9s-9,4.1-9,9S18.6,102.4,23.6,102.4z M197.7,484.1c0,4.4-3.6,8-8,8h-40.9
	c-4.4,0-8-3.6-8-8s3.6-8,8-8h40.9C194.1,476.1,197.7,479.7,197.7,484.1z M506.3,484.1c0,4.4-3.6,8-8,8H219.7c-4.4,0-8-3.6-8-8
	s3.6-8,8-8h278.6C502.7,476.1,506.3,479.7,506.3,484.1z M199.2,174.2c0,4.4-3.6,8-8,8h-87.6c-4.4,0-8-3.6-8-8s3.6-8,8-8h87.6
	C195.6,166.2,199.2,169.8,199.2,174.2z M135.4,150H22.6c-4.4,0-8-3.6-8-8s3.6-8,8-8h112.8c4.4,0,8,3.6,8,8S139.8,150,135.4,150z
	 M53.6,102.4c5,0,9-4.1,9-9s-4.1-9-9-9s-9,4.1-9,9S48.6,102.4,53.6,102.4z M83.6,102.4c5,0,9-4.1,9-9s-4.1-9-9-9s-9,4.1-9,9
	S78.6,102.4,83.6,102.4z M79.9,45.8c0-4.4,3.6-8,8-8h137.6c4.4,0,8,3.6,8,8s-3.6,8-8,8H87.9C83.4,53.8,79.9,50.2,79.9,45.8z
	 M86.4,446.4c0,4.4-3.6,8-8,8H62.6v15.8c0,4.4-3.6,8-8,8s-8-3.6-8-8v-15.8H30.8c-4.4,0-8-3.6-8-8s3.6-8,8-8h15.8v-15.8
	c0-4.4,3.6-8,8-8s8,3.6,8,8v15.8h15.8C82.8,438.4,86.4,442,86.4,446.4z"></path>
<path fill="#DB81DA" class="secondary-color" d="M74.4,249.8H30.8v-43.6h43.6V249.8z M74.4,276.3H30.8v43.6h43.6V276.3z M74.4,346.3H30.8v43.6h43.6V346.3z"></path>
</svg>