<svg version="1.1" id="Layer_1" xmlns="http://www.w3.org/2000/svg" xmlns:xlink="http://www.w3.org/1999/xlink" x="0px" y="0px" viewBox="0 0 512 512" enable-background="new 0 0 512 512" xml:space="preserve">
<linearGradient id="SVGID_1_" gradientUnits="userSpaceOnUse" x1="260.0305" y1="473.9127" x2="260.0305" y2="234.5047" class="gradient-element">
	<stop offset="0" class="primary-color-gradient" style="stop-color: #FFA4ED"></stop>
	<stop offset="1" class="secondary-color-gradient" style="stop-color: #DB81DA"></stop>
</linearGradient>
<path fill="url(#SVGID_1_)" d="M66.2,446.3h53.4v34.2H54.1c-4.9,0-8.8-4-8.8-8.8v-4.4C45.3,455.6,54.6,446.3,66.2,446.3z
	 M434.2,227.5c-31.6-15.7-29.9,19.6-29.9,38l-0.6,172.3c0,4.3-3.2,8.1-7.5,8.5c-0.3,0-0.5,0-0.8,0H280.5v34.2H466
	c2.4,0,4.7-1,6.3-2.6c1.6-1.6,2.6-3.8,2.6-6.3V253.2C474.8,253.2,435.8,228.3,434.2,227.5z"></path>
<path d="M474.1,273.7c-4.4,0-8,3.6-8,8v190.7H285.5v-98.7c0-4.4-3.6-8-8-8h-158c-4.4,0-8,3.6-8,8v98.7H44.8V259.9l65.5-43.7
	c2.2-1.5,3.6-4,3.6-6.7v-97.4h38c4.4,0,8-3.6,8-8s-3.6-8-8-8h-38V68.9h53.1v140.7c0,2.7,1.3,5.2,3.6,6.7l46,30.7
	c2.5,1.6,5.6,1.8,8.2,0.4c2.6-1.4,4.2-4.1,4.2-7.1v-53.7l103,61.8c2.5,1.5,5.5,1.5,8.1,0.1c2.5-1.4,4.1-4.1,4.1-7v-54.9l126,75.6
	c3.8,2.3,8.7,1,11-2.7c2.3-3.8,1-8.7-2.7-11l-138.1-82.9c-2.5-1.5-5.5-1.5-8.1-0.1c-2.5,1.4-4.1,4.1-4.1,7v54.9l-103-61.8
	c-2.5-1.5-5.5-1.5-8.1-0.1c-2.5,1.4-4.1,4.1-4.1,7v52.9l-30-20V60.9c0-4.4-3.6-8-8-8h-69.1c-4.4,0-8,3.6-8,8v144.4l-65.5,43.7
	c-2.2,1.5-3.6,4-3.6,6.7v224.8c0,4.4,3.6,8,8,8h82.8c0.6,0,1.2-0.1,1.7-0.2c0.6,0.1,1.1,0.2,1.7,0.2h131.5c4.4,0,8-3.6,8-8
	s-3.6-8-8-8H127.6v-18.2h142v26.2c0,4.4,3.6,8,8,8h196.6c4.4,0,8-3.6,8-8V281.7C482.1,277.3,478.5,273.7,474.1,273.7z M269.5,381.7
	v19.7h-142v-19.7H269.5z M127.6,438.3v-20.8h142v20.8H127.6z"></path>
<path d="M419,166c-1.5,2.5-4.2,3.9-6.9,3.9c-1.4,0-2.8-0.4-4.1-1.1l-98.6-59.1c-3.8-2.3-5-7.2-2.7-11c2.3-3.8,7.2-5,11-2.7
	l98.6,59.1C420.1,157.3,421.3,162.2,419,166z M479,80.9l-13.4-8.3l8.3-13.4c2.3-3.8,1.1-8.7-2.6-11c-3.8-2.3-8.7-1.1-11,2.6
	l-8.3,13.4L438.5,56c-3.8-2.3-8.7-1.1-11,2.6c-2.3,3.8-1.1,8.7,2.6,11l13.4,8.3l-8.3,13.4c-2.3,3.8-1.1,8.7,2.6,11
	c1.3,0.8,2.8,1.2,4.2,1.2c2.7,0,5.3-1.4,6.8-3.8l8.3-13.4l13.4,8.3c1.3,0.8,2.8,1.2,4.2,1.2c2.7,0,5.3-1.4,6.8-3.8
	C483.9,88.2,482.8,83.2,479,80.9z M50.6,145.1c4.4,0,8-3.6,8-8s-3.6-8-8-8c-14.6,0-26.4,11.8-26.4,26.4s11.8,26.4,26.4,26.4
	c4.4,0,8-3.6,8-8s-3.6-8-8-8c-5.7,0-10.4-4.7-10.4-10.4S44.8,145.1,50.6,145.1z M238.7,87.9c-4.2,4.2-4.2,11,0,15.2
	c4.2,4.2,11,4.2,15.2,0s4.2-11,0-15.2C249.7,83.7,242.9,83.7,238.7,87.9z M332.8,50.5h3.9v3.9c0,4.4,3.6,8,8,8s8-3.6,8-8v-3.9h3.9
	c4.4,0,8-3.6,8-8s-3.6-8-8-8h-3.9v-3.9c0-4.4-3.6-8-8-8s-8,3.6-8,8v3.9h-3.9c-4.4,0-8,3.6-8,8S328.4,50.5,332.8,50.5z"></path>
</svg>