<svg version="1.1" id="Layer_1" xmlns="http://www.w3.org/2000/svg" xmlns:xlink="http://www.w3.org/1999/xlink" x="0px" y="0px" viewBox="0 0 512 512" enable-background="new 0 0 512 512" xml:space="preserve">
<g>
	<linearGradient id="SVGID_1_" gradientUnits="userSpaceOnUse" x1="325.1982" y1="457.9124" x2="325.1982" y2="300.3951" class="gradient-element">
		<stop offset="0" class="primary-color-gradient" style="stop-color: #FFA4ED"></stop>
		<stop offset="1" class="secondary-color-gradient" style="stop-color: #DB81DA"></stop>
	</linearGradient>
	<path fill="url(#SVGID_1_)" d="M230.7,393.3L230.7,393.3c0,22.4-20.5,31.2-35.7,34.1c-22.8-3.5-40.2-22-40.2-44.3v-31.3
		c0-16.9,11.8-31.7,29.1-36.8c3.6-1.1,14.5-6.8,18.4-8.3c0,0-5.5,10.8,4.9,19.8v20C207.2,365.6,216.4,382.6,230.7,393.3z
		 M428.9,352.2c-38.7-16.9-33.7-34.8-33.7-34.8c-3.5,1.5-6.8,2.7-10,3.7c-15.3,4.9-25.8,18.9-25.8,34.9v29.6
		c0,23.5,19,42.5,42.5,42.5h93.8C491.4,380.3,467.5,369.1,428.9,352.2z M341.8,430.9c0,0-45.8-17-37.7-38.3c-10.5,6.3-22.8,10-36,10
		h-1.3c1.3,27.5,24,49.4,51.8,49.4h26.5L341.8,430.9z"></path>
	<linearGradient id="SVGID_2_" gradientUnits="userSpaceOnUse" x1="227.4923" y1="231.6445" x2="154.8105" y2="231.6445">
		<stop offset="0" class="primary-color-gradient" style="stop-color: #FFA4ED"></stop>
		<stop offset="1" class="secondary-color-gradient" style="stop-color: #DB81DA"></stop>
	</linearGradient>
	<path fill="url(#SVGID_2_)" d="M155.6,144.6c7.9,29.5,67.4,65.2,67.4,65.2s6.8-7,0,49.3c-3.9,32.5-26.2,49.6-44.3,58.2
		c-11.2,5.3-24.2-2.9-24.2-15.1V161.8C154.5,161.8,154.9,141.9,155.6,144.6z"></path>
	<linearGradient id="SVGID_3_" gradientUnits="userSpaceOnUse" x1="432.0822" y1="238.576" x2="358.2741" y2="238.576">
		<stop offset="0" class="primary-color-gradient" style="stop-color: #FFA4ED"></stop>
		<stop offset="1" class="secondary-color-gradient" style="stop-color: #DB81DA"></stop>
	</linearGradient>
	<path fill="url(#SVGID_3_)" d="M359.1,155.4c2.5-1.4,68.5,7.7,68.5,7.7s6.8,40.8,0,98c-3.9,33.1-26.2,50.4-44.3,59.1
		c-11.2,5.4-24.2-2.9-24.2-15.3V162.2C359.1,162.2,356.6,156.8,359.1,155.4z"></path>
	<linearGradient id="SVGID_4_" gradientUnits="userSpaceOnUse" x1="325.3163" y1="333.4738" x2="266.995" y2="333.4738">
		<stop offset="0" class="primary-color-gradient" style="stop-color: #FFA4ED"></stop>
		<stop offset="1" class="secondary-color-gradient" style="stop-color: #DB81DA"></stop>
	</linearGradient>
	<path fill="url(#SVGID_4_)" d="M323.6,348.5c-0.2,14.1-6.3,24.6-14.2,32.3c-0.6,2.9-1.8,5.7-3.5,8.3c-0.8,1.2-1.4,2.3-1.8,3.5
		c-10.5,6.3-22.8,10-36,10h-1.3c0-0.8-0.1-1.6-0.1-2.5V294.2c0-16.5,13.5-29.9,30-29.8c5,0,10,0.1,14.3,0.2
		c7.1,0.1,12.8,5.8,12.9,12.9C324.2,288.9,324.2,310,323.6,348.5z"></path>
</g>
<path d="M508.6,432.6c-0.2,4.3-3.7,7.6-8,7.6c-0.1,0-0.3,0-0.4,0c-4.4-0.2-7.8-4-7.6-8.4c0.1-2,1.4-46.8-47.5-66.1
	c-37.2-14.7-50.7-27.5-55.1-36.3c-8,3.1-17.2,5-27.7,5c-10.7,0-20.8-1.9-29.9-5.6v17.6c0,19.3-8.6,37.9-23.2,50.5
	c2.2,15,18.2,20.5,28,22.4c10.8,2.2,18.7,11.7,18.7,22.8v9.9c0,4.4-3.6,8-8,8s-8-3.6-8-8v-9.9c0-3.4-2.5-6.4-5.8-7.1
	c-21.2-4.2-35-15-39.5-30.3c-9.1,3.2-19,4.8-28.8,4.8c-9.8,0-19.6-1.6-28.8-4.8c-4.5,15.3-18.3,26.1-39.5,30.3
	c-3.4,0.7-5.8,3.7-5.8,7.1v9.9c0,4.4-3.6,8-8,8s-8-3.6-8-8v-9.9c0-11,7.9-20.6,18.7-22.8c9.8-2,25.8-7.4,28-22.4
	c-14.6-12.6-23.2-31.2-23.2-50.5v-34.2c-1.3,1.1-2.4,1.9-3.2,2.5c0,0,0,0,0,0c-11,7.4-25.3,11.6-28.6,12.3
	c-6.5,1.4-13.4,2.1-20.3,2.1c-10.7,0-21.3-1.7-30.5-5.1c-4.1-1.5-6.3-6.1-4.8-10.3s6.1-6.3,10.3-4.8c12.3,4.5,28,5.4,41.8,2.3
	c2-0.4,14.2-4,23-10c0,0,0,0,0,0c1.3-0.9,6.1-4.9,8.1-6.7c0.9-0.7,1.6-1.3,2-1.7c0.8-0.6,1.6-1.1,2.5-1.4c1.8-15.5,9-29.4,19.6-39.8
	c-0.2-0.7-0.3-1.3-0.3-2v-34.5c-9.5-8.2-18.3-13.4-26.8-18.5c-18.5-11.1-34.5-20.6-44.3-53.3c-1.3-4.2,1.1-8.7,5.4-10
	c4.2-1.3,8.7,1.1,10,5.4c8,26.7,19.6,33.7,37.2,44.1c8.8,5.3,18.8,11.2,29.7,20.7c1.1,1,1.9,2.2,2.3,3.6c1.6,1.5,2.5,3.5,2.5,5.8
	v27.3c3.2-1.7,6.6-3.1,10.1-4.3v-17c0-0.1,0-0.2,0-0.3c1.2-35.4-8.7-63.8-28.7-82.2c-15.5-14.3-36.6-21.7-58.9-21
	c-0.9,0.2-1.8,0.3-2.7,0.2c0,0-0.2,0-0.4,0c-1.5,0.1-3,0.2-4.5,0.4c-53.7,6.2-74.7,26.7-74.7,73.3c0,4.4-3.6,8-8,8s-8-3.6-8-8
	c0-11.3,1.2-21.4,3.6-30.3c-5.2,10-8.5,21.6-9.9,34.8l-1.1,143.7c3.4-1.8,7-3.6,10.8-5.3c0.9-0.4,1.8-0.8,2.7-1.3
	c1.2-0.6,2.4-1.1,3.6-1.7c2.8-1.3,5.5-2.6,8.1-4.1c0,0,0.1,0,0.1-0.1c12.9-6.8,16.3-9.8,17.2-13.4c-21.8-16.6-35.1-43.2-35.1-70.4
	c0-4.4,3.6-8,8-8s8,3.6,8,8c0,23.2,12.6,46.8,32,60c2.3,1.5,3.6,4.2,3.5,6.9c-0.5,14-5.9,20.3-26.2,31c-2.9,1.6-5.9,3.1-8.8,4.5
	c-1.2,0.6-2.5,1.2-3.7,1.7c-0.9,0.4-1.8,0.8-2.6,1.2c-23.8,11.3-36.6,18.7-44.1,52.4c-2.2,9.7-3.3,20-3.3,30.5c0,4.4-3.6,8-8,8
	s-8-3.6-8-8c0-11.7,1.2-23.1,3.7-34c5.4-24.4,14.2-38,26.2-47.8c-0.1-0.5-0.2-1.1-0.2-1.6l1.1-152.8c0-0.3,0-0.5,0-0.8
	c5.7-53.9,38.2-76.3,64.5-85.6c23.9-8.5,46.6-7.7,53.2-7.3c27.4-1.5,53.6,7.5,72.7,25.1c16.4,15.1,35.5,43.7,33.8,94.4V233
	c1.6-0.1,3.2-0.2,4.8-0.2h17.4c0,0,0,0,0-0.1v-68c0-14.5,6.9-28.4,19.3-39.1c17.7-15.2,44.4-22.3,69.6-18.5
	c8.2,1.2,15.4,3.3,22.4,5.2c15.2,4.3,27.2,7.7,43.5,0.9c4.1-1.7,8.8,0.2,10.5,4.3c1.7,4.1-0.2,8.8-4.3,10.5c-21.5,8.9-38,4.2-54-0.3
	c-6.5-1.8-13.2-3.7-20.4-4.8c-20.8-3.1-42.5,2.6-56.8,14.8c-6.3,5.4-13.8,14.5-13.8,27v68c0,0,0,0,0,0.1h25.3c4.4,0,8,3.6,8,8v23.5
	c0,4.4-3.6,8-8,8h-58.6c-4.4,0-8-3.6-8-8s3.6-8,8-8h50.6v-7.5h-50.6c-27.9,0-50.6,22.7-50.6,50.6v46.9c0,15.8,7.2,30.4,19.7,40.1
	c18.6,9.2,43.2,9.2,61.8,0c12.5-9.7,19.7-24.3,19.7-40.1v-58.6c0-4.4,3.6-8,8-8s8,3.6,8,8v23.5c0.5,0.1,0.9,0.3,1.4,0.6
	c8.4,4.4,18,6.6,28.5,6.6c37.5,0,53.9-29.6,60.3-47.2c1.8-4.9,2.7-10.1,2.7-15.4v-89.4c-12.6,1.8-24.4-1.1-35.2-3.8
	c-16.1-4-29.9-7.5-45,3.2c-3.6,2.6-8.6,1.7-11.2-1.9c-2.6-3.6-1.7-8.6,1.9-11.2c21-14.9,40.7-10,58.1-5.7
	c12.6,3.2,24.6,6.1,36.4,1.6c2.5-0.9,5.2-0.6,7.4,0.9c2.2,1.5,3.5,4,3.5,6.6v99.7c0,7.2-1.2,14.2-3.7,20.9
	c-4.1,11.2-13.8,32-33.4,45.3c0.9,2.3,7.3,13.3,46.7,28.9c31.1,12.3,45.2,33.8,51.4,49.6C509.3,417.6,508.6,432,508.6,432.6z"></path>
<path d="M223.7,420.2c0,4.4-3.6,8-8,8h-111c-4.4,0-8-3.6-8-8s3.6-8,8-8h111C220.1,412.2,223.7,415.8,223.7,420.2z M58.3,68.6
	C52.6,68.6,48,73.2,48,79c0,5.7,4.6,10.3,10.3,10.3c5.7,0,10.3-4.6,10.3-10.3C68.7,73.2,64.1,68.6,58.3,68.6z M291.9,62.9H277V48
	c0-4.4-3.6-8-8-8s-8,3.6-8,8v14.9h-14.9c-4.4,0-8,3.6-8,8s3.6,8,8,8H261v14.9c0,4.4,3.6,8,8,8s8-3.6,8-8V78.9h14.9c4.4,0,8-3.6,8-8
	S296.3,62.9,291.9,62.9z M479.6,309.4h-3.4V306c0-4.4-3.6-8-8-8s-8,3.6-8,8v3.4h-3.4c-4.4,0-8,3.6-8,8s3.6,8,8,8h3.4v3.4
	c0,4.4,3.6,8,8,8s8-3.6,8-8v-3.4h3.4c4.4,0,8-3.6,8-8S484,309.4,479.6,309.4z"></path>
<path fill="#FFA4ED" class="primary-color" d="M476.8,93l-58.6-58.6h58.6V93z"></path>
</svg>