<svg version="1.1" id="Layer_1" xmlns="http://www.w3.org/2000/svg" xmlns:xlink="http://www.w3.org/1999/xlink" x="0px" y="0px" viewBox="0 0 512 512" enable-background="new 0 0 512 512" xml:space="preserve">
<g>
	<linearGradient id="SVGID_1_" gradientUnits="userSpaceOnUse" x1="256.1401" y1="491.0468" x2="256.1401" y2="25.6653" class="gradient-element">
		<stop offset="0" class="primary-color-gradient" style="stop-color: #FFA4ED"></stop>
		<stop offset="1" class="secondary-color-gradient" style="stop-color: #DB81DA"></stop>
	</linearGradient>
	<path fill="url(#SVGID_1_)" d="M20.5,199.1L20.5,199.1c0,0.7,0,1.4,0,2.1V199.1z M330.5,396.5c-51.5-21-44.1-33.5-44.1-33.5
		c-4.6,1.8-20.4,1.5-24.7,2.8c-20.3,6-35.6,16.2-35.6,36.1v36.9c0,29.2,25.3,52.9,56.6,52.9h124.8C402,432.3,382,417.5,330.5,396.5z
		 M154.6,86.9v0.6c0,17.7-14.4,49.2-26,49.2H62.7c-22.9,0-41.5,27.7-42.2,62.4h28.4l5.7,29.6l45.6-29.6H160l-2.8-4.1
		c-0.8-28.2,19.4-60.9,51.6-66.4v0V28.5h-16C171.7,28.5,154.6,54.6,154.6,86.9z M435.4,267.7c0,0,12.8-27,12.8-39.8
		c0-6.8-5.5-12.4-12.4-12.4h-7l-0.9,2.8c-1.2,3.5-2.4,6.5-3.6,9c0,0.2,0,0.3,0,0.5c0,5.1-2.4,12.3-5.3,19.3
		c-4.1,9.8,3,20.5,13.6,20.5H435.4z M476.9,267.7H453c6.8,0,14.8,0,14.8,9.8c0,7.7-15.9,42.2-15.9,42.2
		c-3.9,15.4-8.9,19.6-23.6,19.6h24c14.7,0,19.8-4.2,23.6-19.6c0,0,15.9-34.5,15.9-42.2C491.8,267.6,483.8,267.7,476.9,267.7z"></path>
	<linearGradient id="SVGID_2_" gradientUnits="userSpaceOnUse" x1="340.099" y1="272.5997" x2="252.8703" y2="272.5997">
		<stop offset="0" class="primary-color-gradient" style="stop-color: #FFA4ED"></stop>
		<stop offset="1" class="secondary-color-gradient" style="stop-color: #DB81DA"></stop>
	</linearGradient>
	<path fill="url(#SVGID_2_)" d="M253.8,368.4V184.3c0,0-2.9-6,0-7.6c2.9-1.6,80.9,8.6,80.9,8.6s8,45.8,0,110
		c-6.2,50.1-52.1,68-71.9,73.4L253.8,368.4z"></path>
</g>
<g>
	<path fill="#FFA4ED" class="primary-color" d="M439.9,22.6h16.4V39h-16.4V22.6z"></path>
	<path fill="#DB81DA" class="secondary-color" d="M461.8,454.1h16.4v16.4h-16.4V454.1z"></path>
	<path fill="#FFA4ED" class="primary-color" d="M470.9,22.6h16.4V137h-16.4V22.6z"></path>
</g>
<path d="M142.2,294.7c0,4.4-3.6,8-8,8H33.1c-4.4,0-8-3.6-8-8s3.6-8,8-8h101.1C138.7,286.7,142.2,290.3,142.2,294.7z M83.7,357.8
	h-3.9V354c0-4.4-3.6-8-8-8s-8,3.6-8,8v3.9h-3.9c-4.4,0-8,3.6-8,8s3.6,8,8,8h3.9v3.9c0,4.4,3.6,8,8,8s8-3.6,8-8v-3.9h3.9
	c4.4,0,8-3.6,8-8S88.1,357.8,83.7,357.8z"></path>
<path d="M110.8,209l-52,31.2c-1.3,0.8-2.7,1.1-4.1,1.1c-1.4,0-2.7-0.3-3.9-1c-2.5-1.4-4.1-4.1-4.1-7V209H11.5c-4.4,0-8-3.6-8-8V28.5
	c0-4.4,3.6-8,8-8h197.3c4.4,0,8,3.6,8,8v83c0,4.4-3.6,8-8,8s-8-3.6-8-8v-75H19.5V193h35.1c4.4,0,8,3.6,8,8v18.2l41.8-25.1
	c1.2-0.7,2.7-1.1,4.1-1.1H154c4.4,0,8,3.6,8,8s-3.6,8-8,8H110.8z M362.7,287.7c-1.8-1.5-2.9-3.7-2.9-6.2c0-4.4,3.6-8,8-8h12.4
	c0,0,0.1,0,0.1,0c1.4-0.9,4.5-6.2,6.7-9.8c1.6-2.6,3.5-5.9,5.8-9.4c5.2-7.9,10.5-12.6,14.8-16.4c6.1-5.3,10.5-9.1,14.8-22.1l0.9-2.8
	c1.1-3.3,4.1-5.5,7.6-5.5h7c11.2,0,20.4,9.1,20.4,20.4c0,12.3-5.6,23.4-11.1,31.8h31.9c0,0,0,0,0.1,0c4,0,8.8,0,13.1,1.9
	c3.6,1.6,9.7,5.7,9.7,15.9c0,8.4-11.2,33.7-16.3,44.9c-4.8,18.4-13,25-31.2,25h-33c-15.3,0-24.1-3.3-30.5-5.7
	c-4.3-1.6-6.9-2.6-10.8-2.6h-12.4c-4.4,0-8-3.6-8-8v-37.1C359.8,291.4,360.9,289.2,362.7,287.7z M374.5,289.5
	c0.8,1.3,1.3,2.8,1.3,4.4v29.1h4.4c6.8,0,11.4,1.7,16.4,3.6c5.9,2.2,12.5,4.7,24.9,4.7h33c10.4,0,12.7-1.1,15.8-13.6
	c0.1-0.5,0.3-1,0.5-1.4c7.1-15.5,14.9-34.8,15.1-38.9c0-0.6-0.1-1-0.1-1.2c-1.3-0.5-4.7-0.5-6.6-0.5c0,0,0,0,0,0H442
	c-4.4,0-8-3.6-8-8c-0.6-0.2-1.1-0.6-1.7-0.9c-3.6-2.6-4.3-7.6-1.7-11.2c5-6.9,11.8-17.3,11.8-27.7c0-2.4-2-4.4-4.4-4.4h-1.3
	c-5.6,15.1-12.2,20.9-18.5,26.4c-3.9,3.4-8,7-11.9,13.1c-2.1,3.2-3.9,6.2-5.5,8.9c-6.1,10.2-10.5,17.6-20.5,17.6H374.5z
	 M352.8,200.3h150.1c4.4,0,8-3.6,8-8s-3.6-8-8-8H352.8c-4.4,0-8,3.6-8,8S348.4,200.3,352.8,200.3z M161.4,412.3
	c11.5-4.6,21.5-9.3,29.8-14c3.9-2.2,5.2-7,3.1-10.9c-2.2-3.9-7-5.2-10.9-3.1c-7.7,4.3-17.2,8.7-28,13.1
	c-34.1,13.8-49.5,37.8-56.4,55.6c-7.4,19.2-6.7,35.2-6.7,35.9c0.2,4.3,3.7,7.6,8,7.6c0.1,0,0.2,0,0.4,0c4.4-0.2,7.8-3.9,7.6-8.3
	C108.2,486,106.6,434.4,161.4,412.3z M502.9,356.7h-43.1c-4.4,0-8,3.6-8,8v18.2L410,357.9c-1.2-0.7-2.7-1.1-4.1-1.1h-75.5
	c-4.4,0-8,3.6-8,8s3.6,8,8,8h73.2l52,31.2c1.3,0.8,2.7,1.1,4.1,1.1c1.4,0,2.7-0.3,3.9-1c2.5-1.4,4.1-4.1,4.1-7v-24.3h35.1
	c4.4,0,8-3.6,8-8S507.3,356.7,502.9,356.7z M349.7,397.5c-12.7-5.1-23.5-10.3-32-15.4c-1.3-0.9-9.3-6.6-14.6-10.5
	c-4.1-3-6.6-4.8-8.1-5.9v-0.8c23.3-14.5,34.8-38.7,39.4-51.5c2.6-7.3,4-15,4-22.8V180.3c0-2.6-1.3-5.1-3.5-6.6
	c-2.2-1.5-4.9-1.8-7.4-0.9c-13.4,5.1-26.7,1.8-40.8-1.7c-19-4.8-40.6-10.1-63.6,6.1c-3.6,2.6-4.5,7.6-1.9,11.2
	c2.6,3.6,7.5,4.5,11.2,1.9c16.9-12,32.5-8.2,50.4-3.7c12.1,3,25.4,6.4,39.6,4.1v99.8c0,6-1,11.8-3,17.4
	c-7.2,19.7-25.4,52.8-67.4,52.8c-41.3,0-59.8-30.6-67.1-48.9c-2.4-6-3.6-12.3-3.6-18.9V190.1c0-14.1,8.4-24.4,15.5-30.5
	c15.9-13.7,40.3-20.1,63.5-16.6c8,1.2,15.5,3.3,22.7,5.3c17.5,5,35.7,10.1,59.1,0.3c4.1-1.7,6-6.4,4.3-10.5c-1.7-4.1-6.4-6-10.5-4.3
	c-18.3,7.6-31.7,3.8-48.6-1c-7.7-2.2-15.6-4.4-24.6-5.8c-27.7-4.2-56.9,3.6-76.3,20.3c-13.6,11.7-21.1,26.8-21.1,42.6v102.9
	c0,8.6,1.6,17,4.8,24.9c4.1,10.2,11.7,25,24.8,37.1c15.5,14.5,34.8,21.8,57.2,21.8c10.7,0,20.1-1.8,28.4-4.7l0.1,0.1
	c0.3,2,1.4,3.8,3.1,5.1l0.5,0.8l0.4-0.2c1.4,1,5.6,4,9.4,6.8c12.7,9.2,14.8,10.7,15.6,11.2c9.2,5.5,20.7,11.1,34.3,16.6
	c42.8,17.3,51.2,52.6,52.7,68.2H123.9c-4.4,0-8,3.6-8,8s3.6,8,8,8h280.8c4.3,0,7.8-3.3,8-7.6c0-0.7,0.7-16.7-6.7-35.9
	C399.2,435.3,383.8,411.3,349.7,397.5z M165,109c1.8,1.5,2.9,3.7,2.9,6.2c0,4.4-3.6,8-8,8h-12.4c0,0-0.1,0-0.1,0
	c-1.4,0.9-4.5,6.2-6.7,9.8c-1.6,2.6-3.5,5.9-5.8,9.4c-5.2,7.9-10.5,12.6-14.8,16.4c-6.1,5.3-10.4,9.1-14.8,22.1l-0.9,2.8
	c-1.1,3.3-4.1,5.5-7.6,5.5h-7c-11.2,0-20.4-9.1-20.4-20.4c0-12.3,5.6-23.4,11.1-31.8H48.7c0,0,0,0-0.1,0c-4,0-8.8,0-13.1-1.9
	c-3.6-1.6-9.7-5.7-9.7-15.9c0-8.4,11.2-33.7,16.3-44.9c4.8-18.4,13-25,31.2-25h33c15.3,0,24.1,3.3,30.5,5.7
	c4.3,1.6,6.9,2.6,10.8,2.6H160c4.4,0,8,3.6,8,8v37.1C168,105.3,166.8,107.6,165,109z M153.3,107.2c-0.8-1.3-1.3-2.8-1.3-4.4V73.7
	h-4.4c-6.8,0-11.4-1.7-16.4-3.6c-5.9-2.2-12.5-4.7-24.9-4.7h-33c-10.4,0-12.7,1.1-15.8,13.6c-0.1,0.5-0.3,1-0.5,1.4
	c-7.1,15.5-14.9,34.8-15.1,38.9c0,0.6,0.1,1,0.1,1.2c1.3,0.5,4.7,0.5,6.6,0.5c0,0,0,0,0,0h37.2c4.4,0,8,3.6,8,8
	c0.6,0.2,1.1,0.6,1.7,0.9c3.6,2.6,4.3,7.6,1.7,11.2c-5.1,6.9-11.8,17.3-11.8,27.7c0,2.4,2,4.4,4.4,4.4h1.3
	c5.6-15.1,12.1-20.9,18.5-26.4c3.9-3.4,8-7,11.9-13.1c2.1-3.2,3.9-6.2,5.5-8.9c6.1-10.2,10.5-17.6,20.5-17.6H153.3z"></path>
</svg>