<svg version="1.1" id="Layer_1" xmlns="http://www.w3.org/2000/svg" xmlns:xlink="http://www.w3.org/1999/xlink" x="0px" y="0px" viewBox="0 0 512 512" enable-background="new 0 0 512 512" xml:space="preserve">
<linearGradient id="SVGID_1_" gradientUnits="userSpaceOnUse" x1="309.8242" y1="402.0468" x2="309.8242" y2="153.8453" class="gradient-element">
	<stop offset="0" class="primary-color-gradient" style="stop-color: #FFA4ED"></stop>
	<stop offset="1" class="secondary-color-gradient" style="stop-color: #DB81DA"></stop>
</linearGradient>
<path fill="url(#SVGID_1_)" d="M446.6,173.8v122.9v3.3v85.9c0,12.9-10.5,23.4-23.4,23.4h-20.1v0.6H216.1
	c-23.8,0-43.1-19.3-43.1-43.1v0c0-23.8,19.3-43.1,43.1-43.1h185.6V300v-3.3V194.8H297.4c-15.3,0-27.7-12.4-27.7-27.7l0,0
	c0-15.3,12.4-27.7,27.7-27.7h104.3h10.4h5.6v0.5C434.1,142.5,446.6,156.7,446.6,173.8z"></path>
<path d="M424.2,420.1H87.9c-16.8,0-30.4-13.6-30.4-30.4v-269c0-16.8,13.6-30.4,30.4-30.4h114.2c22.5,0,38.9,7.4,54.7,24.8
	c16.5,18.1,19.9,20,36.1,20h131.3c16.8,0,30.4,13.6,30.4,30.4v101.1c0,4.4-3.6,8-8,8s-8-3.6-8-8V165.5c0-7.9-6.5-14.4-14.4-14.4
	H292.9c-23,0-30.6-6.2-48-25.3c-12.8-14.1-24.8-19.6-42.8-19.6H87.9c-7.9,0-14.4,6.5-14.4,14.4v269c0,7.9,6.5,14.4,14.4,14.4h336.3
	c7.9,0,14.4-6.5,14.4-14.4V297h-44.8v-75.5c0-20.3-16.8-25.6-25.6-25.6H143.9c-20.3,0-25.6,16.8-25.6,25.6v92.9h292.3v75.3
	c0,4.4-3.6,8-8,8s-8-3.6-8-8v-59.3H102.3V221.5c0-20.2,14.6-41.6,41.6-41.6h224.2c20.2,0,41.6,14.6,41.6,41.6V281h44.8v108.7
	C454.6,406.4,440.9,420.1,424.2,420.1z M225.6,241.7c0-4.4-3.6-8-8-8h-67.8c-4.4,0-8,3.6-8,8s3.6,8,8,8h67.8
	C222,249.7,225.6,246.1,225.6,241.7z M354.4,289.8c0-4.4-3.6-8-8-8H149.8c-4.4,0-8,3.6-8,8s3.6,8,8,8h196.6
	C350.8,297.8,354.4,294.2,354.4,289.8z"></path>
<path fill="#FFA4ED" class="primary-color" d="M490.8,132.2L433,74.4l57.8-57.8V132.2z"></path>
<path d="M493.7,453.5c0,4.4-3.6,8-8,8h-15.8v15.8c0,4.4-3.6,8-8,8s-8-3.6-8-8v-15.8h-15.8c-4.4,0-8-3.6-8-8s3.6-8,8-8h15.8v-15.8
	c0-4.4,3.6-8,8-8s8,3.6,8,8v15.8h15.8C490.1,445.5,493.7,449.1,493.7,453.5z M67.5,357h43c4.4,0,8-3.6,8-8s-3.6-8-8-8h-43
	c-4.4,0-8,3.6-8,8S63.1,357,67.5,357z M97,379c0-4.4-3.6-8-8-8H15.2c-4.4,0-8,3.6-8,8s3.6,8,8,8H89C93.4,387,97,383.4,97,379z
	 M276,20.5c-4.4,0-8,3.6-8,8c0,11.4-9.3,20.8-20.8,20.8c-4.4,0-8,3.6-8,8s3.6,8,8,8c20.3,0,36.8-16.5,36.8-36.8
	C284,24.1,280.4,20.5,276,20.5z M326,49.3c-11.4,0-20.8-9.3-20.8-20.8c0-4.4-3.6-8-8-8s-8,3.6-8,8c0,20.3,16.5,36.8,36.8,36.8
	c4.4,0,8-3.6,8-8S330.4,49.3,326,49.3z M326,70.5c-20.3,0-36.8,16.5-36.8,36.8c0,4.4,3.6,8,8,8s8-3.6,8-8c0-11.4,9.3-20.8,20.8-20.8
	c4.4,0,8-3.6,8-8S330.4,70.5,326,70.5z M247.2,70.5c-4.4,0-8,3.6-8,8s3.6,8,8,8c11.4,0,20.8,9.3,20.8,20.8c0,4.4,3.6,8,8,8
	s8-3.6,8-8C284,87,267.5,70.5,247.2,70.5z M25.9,75.7c5.9,0,10.8-4.8,10.8-10.8c0-5.9-4.8-10.8-10.8-10.8C20,54.2,15.2,59,15.2,65
	C15.2,70.9,20,75.7,25.9,75.7z M221.3,458.8H68.8c-4.4,0-8,3.6-8,8s3.6,8,8,8h152.5c4.4,0,8-3.6,8-8S225.7,458.8,221.3,458.8z"></path>
</svg>