<svg version="1.1" id="Layer_1" xmlns="http://www.w3.org/2000/svg" xmlns:xlink="http://www.w3.org/1999/xlink" x="0px" y="0px" viewBox="0 0 512 512" enable-background="new 0 0 512 512" xml:space="preserve">
<linearGradient id="SVGID_1_" gradientUnits="userSpaceOnUse" x1="214.917" y1="452.179" x2="216.0539" y2="114.5369" class="gradient-element">
	<stop offset="0" class="primary-color-gradient" style="stop-color: #FFA4ED"></stop>
	<stop offset="1" class="secondary-color-gradient" style="stop-color: #DB81DA"></stop>
</linearGradient>
<path fill="url(#SVGID_1_)" d="M199.9,126.1C120.4,142.3,45,155.8,45,247.2c0,0,0,173.1,0,175.9c0,13,10.5,23.4,23.4,23.4
	s23.4-10.5,23.4-23.4c0-12.7,0.2-166.4,0-175.9c-0.1-7.5,2.6-15.7,10.1-23.2L199.9,126.1z M268.1,436.4c1.1,1.1,10.4,10.1,23.8,10.1
	c5.7,0,14.3-1.8,22.6-10.1l71.3-71.3L206.5,185.9L112,280.4L268.1,436.4z"></path>
<path d="M291.3,454.5c-11.5,0-22.4-4.5-30.5-12.6L96.6,277.7c-8.1-8.1-12.6-19-12.6-30.5c0-11.5,4.5-22.4,12.6-30.5l78.9-77.8
	c-41.2,8.6-67.8,18.4-86.6,31.7C64.5,187.8,53,212.2,53,247.2v164.1c0,4.4-3.6,8-8,8s-8-3.6-8-8V247.2
	c0-83.3,57.6-110.3,157.3-128.2l43-43c7.8-7.8,18.9-12.3,30.5-12.3c0,0,0,0,0,0c11.6,0,22.7,4.5,30.5,12.3l50.3,50.3c0,0,0,0,0,0.1
	l46.6,47.2c0.1,0.1,0.1,0.1,0.2,0.2c0,0,0,0,0,0c0,0,0,0,0,0c0,0,0,0,0,0c0,0,0,0,0,0c0,0,0,0,0,0c0,0,0,0,0,0
	c0.4,0.4,0.7,0.9,1,1.4l0,0c0,0,0,0,0,0c0,0,0,0,0,0c0,0,0,0,0,0c0,0,0,0,0,0c0,0,0,0,0,0c0,0,0,0,0,0c0,0,0,0,0,0c0,0,0,0,0,0
	c0,0,0,0,0,0c0,0,0,0,0,0c0,0,0,0,0,0c0,0,0,0,0,0c0,0,0,0,0,0c0.8,1.4,1.1,3,1,4.5v0c0,0,0,0,0,0c0,0,0,0,0,0c0,0,0,0,0,0
	c0,0,0,0,0,0c0,0,0,0,0,0c0,0,0,0,0,0c0,0,0,0,0,0c0,0,0,0,0,0c0,0,0,0,0,0c0,0,0,0,0,0c0,0,0,0,0,0c0,0,0,0,0,0c0,0,0,0,0,0
	c0,0,0,0,0,0c0,0,0,0,0,0c-0.1,0.9-0.3,1.7-0.6,2.5v0c0,0,0,0,0,0c0,0,0,0,0,0c0,0,0,0,0,0c0,0,0,0,0,0c0,0,0,0,0,0c0,0,0,0,0,0
	c0,0,0,0,0,0c0,0,0,0,0,0s0,0,0,0c0,0,0,0,0,0c0,0,0,0,0,0c0,0,0,0,0,0c0,0,0,0,0,0c0,0,0,0,0,0v0c-0.4,0.9-1,1.7-1.7,2.4
	L221.7,358.4c-3.1,3.1-8.2,3.1-11.3,0c-3.1-3.1-3.1-8.2,0-11.3l167.9-167.9L343,143.3L174.8,311.5c-3.1,3.1-8.2,3.1-11.3,0
	c-3.1-3.1-3.1-8.2,0-11.3L331.7,132L287,87.3c-4.8-4.9-11.8-7.6-19.2-7.6c0,0,0,0,0,0c-7.4,0-14.4,2.8-19.2,7.6l-41,41
	c-0.4,1.3-1.1,2.5-2.1,3.5L107.9,228c-5.1,5.1-7.9,11.9-7.9,19.2s2.8,14.1,7.9,19.2l164.1,164.1c5.1,5.1,12,8,19.2,8
	c7.3,0,14.1-2.8,19.2-8l140.7-140.7c5.1-5.1,8-12,8-19.2c0-7.3-2.8-14.1-8-19.2l-46-46c-3.1-3.1-3.1-8.2,0-11.3
	c3.1-3.1,8.2-3.1,11.3,0l46,46c8.2,8.2,12.6,19,12.6,30.5s-4.5,22.4-12.6,30.5L321.8,441.9C313.7,450,302.8,454.5,291.3,454.5z"></path>
<path d="M491.6,51.6c0,4.4-3.6,8-8,8h-15.8v15.8c0,4.4-3.6,8-8,8s-8-3.6-8-8V59.6h-15.8c-4.4,0-8-3.6-8-8s3.6-8,8-8h15.8V27.8
	c0-4.4,3.6-8,8-8s8,3.6,8,8v15.8h15.8C488,43.6,491.6,47.2,491.6,51.6z M34.1,81.1V85c0,4.4,3.6,8,8,8s8-3.6,8-8v-3.9H54
	c4.4,0,8-3.6,8-8s-3.6-8-8-8h-3.9v-3.9c0-4.4-3.6-8-8-8s-8,3.6-8,8v3.9h-3.9c-4.4,0-8,3.6-8,8s3.6,8,8,8H34.1z M54,457.3
	c-14.6,0-26.4,11.8-26.4,26.4c0,4.4,3.6,8,8,8s8-3.6,8-8c0-5.7,4.7-10.4,10.4-10.4s10.4,4.7,10.4,10.4c0,4.4,3.6,8,8,8s8-3.6,8-8
	C80.4,469.2,68.5,457.3,54,457.3z"></path>
<g>
	<path fill="#DB81DA" class="secondary-color" d="M218.1,460.2V482h-56.9v-21.8H218.1z"></path>
	<path fill="#FFA4ED" class="primary-color" d="M429.4,486.1l60.9-60.9v60.9H429.4z M110.1,58.5v21.8H167V58.5H110.1z"></path>
</g>
</svg>