<svg version="1.1" id="Layer_1" xmlns="http://www.w3.org/2000/svg" xmlns:xlink="http://www.w3.org/1999/xlink" x="0px" y="0px" viewBox="0 0 512 512" enable-background="new 0 0 512 512" xml:space="preserve">
<linearGradient id="SVGID_1_" gradientUnits="userSpaceOnUse" x1="263.0353" y1="396.6032" x2="263.0353" y2="98.7134" class="gradient-element">
	<stop offset="0" class="primary-color-gradient" style="stop-color: #FFA4ED"></stop>
	<stop offset="1" class="secondary-color-gradient" style="stop-color: #DB81DA"></stop>
</linearGradient>
<path fill="url(#SVGID_1_)" d="M365.1,246.2c-0.1,81.6-67.2,148-148.8,147.4c-13.7-0.1-26.9-2.1-39.5-5.7
	c-14.1-4-20.5-20.7-12.3-32.8c3.9-5.8,9.5-10.2,16.2-14c7.3,10.1,19.1,16.7,32.4,16.7c22,0,39.9-17.9,39.9-39.9
	c0-1.9-0.1-3.8-0.4-5.6c10.9-6,20.5-13.7,27.4-24.5c1,0.1,1.9,0.1,2.9,0.1c22,0,39.9-17.9,39.9-39.9c0-20.9-16.1-38.1-36.6-39.8
	c-6.8-22.5-20-33.4-34.6-40.6c-4.6-16.9-20.1-29.4-38.5-29.4c-4.9,0-9.6,0.9-14,2.5c-1.5-1.9-2.9-4-4.1-6.3
	c-8.5-16.4,3.6-36.2,22.1-36.2h0.3C299.1,98.3,365.3,164.5,365.1,246.2z"></path>
<path fill="#DB81DA" class="secondary-color" d="M83.6,454v35.2H62.4V454H83.6z M468.6,17.3v77.3h22.5V17.3H468.6z"></path>
<path fill="#FFA4ED" class="primary-color" d="M419.8,484.4l60.9-60.9v60.9H419.8z M19.5,454v35.2h20.4V454H19.5z M423.4,17.3v77.3h21.6V17.3H423.4z"></path>
<path fill="#000000" d="M438.8,282.3c0,4.4-3.6,8-8,8h-3.9v3.9c0,4.4-3.6,8-8,8s-8-3.6-8-8v-3.9h-3.9c-4.4,0-8-3.6-8-8s3.6-8,8-8
	h3.9v-3.9c0-4.4,3.6-8,8-8s8,3.6,8,8v3.9h3.9C435.3,274.3,438.8,277.8,438.8,282.3z M327.6,436.4h-43c-4.4,0-8,3.6-8,8s3.6,8,8,8h43
	c4.4,0,8-3.6,8-8S332,436.4,327.6,436.4z M306.1,466.4h-73.8c-4.4,0-8,3.6-8,8s3.6,8,8,8h73.8c4.4,0,8-3.6,8-8
	S310.5,466.4,306.1,466.4z M437.4,185.5c-5.9,0-10.8,4.8-10.8,10.8s4.8,10.8,10.8,10.8c5.9,0,10.8-4.8,10.8-10.8
	S443.4,185.5,437.4,185.5z M348.8,480.7c-5.9,0-10.8,4.8-10.8,10.8c0,5.9,4.8,10.8,10.8,10.8c5.9,0,10.8-4.8,10.8-10.8
	C359.6,485.5,354.8,480.7,348.8,480.7z M76.6,53.7H60.8V37.9c0-4.4-3.6-8-8-8s-8,3.6-8,8v15.8H29c-4.4,0-8,3.6-8,8s3.6,8,8,8h15.8
	v15.8c0,4.4,3.6,8,8,8s8-3.6,8-8V69.7h15.8c4.4,0,8-3.6,8-8S81,53.7,76.6,53.7z M475.4,135.8h-3.9v-3.9c0-4.4-3.6-8-8-8s-8,3.6-8,8
	v3.9h-3.9c-4.4,0-8,3.6-8,8s3.6,8,8,8h3.9v3.9c0,4.4,3.6,8,8,8s8-3.6,8-8v-3.9h3.9c4.4,0,8-3.6,8-8S479.8,135.8,475.4,135.8z
	 M37.8,383.7c-4.2,4.2-4.2,11,0,15.2s11,4.2,15.2,0c4.2-4.2,4.2-11,0-15.2C48.8,379.5,42,379.5,37.8,383.7z M323.1,51.6
	c5.9,0,10.8-4.8,10.8-10.8s-4.8-10.8-10.8-10.8c-5.9,0-10.8,4.8-10.8,10.8S317.2,51.6,323.1,51.6z"></path>
<path d="M213.3,226.1c26.4,0,47.9-21.5,47.9-47.9s-21.5-47.9-47.9-47.9s-47.9,21.5-47.9,47.9S186.8,226.1,213.3,226.1z M213.3,146.2
	c17.6,0,31.9,14.3,31.9,31.9s-14.3,31.9-31.9,31.9c-13.5,0-25-8.4-29.7-20.3c1.3,0.8,2.8,1.3,4.3,1.3c1,0,2-0.2,3-0.6
	c12.4-5,26.3-5.7,39.2-2c4.2,1.2,8.7-1.2,9.9-5.4c1.2-4.2-1.2-8.7-5.4-9.9c-16.3-4.7-33.9-3.9-49.7,2.5c-1.5,0.6-2.7,1.6-3.5,2.8
	c0-0.1,0-0.2,0-0.3C181.3,160.5,195.6,146.2,213.3,146.2z M95.5,248c0,26.4,21.5,47.9,47.9,47.9s47.9-21.5,47.9-47.9
	s-21.5-47.9-47.9-47.9S95.5,221.6,95.5,248z M175.3,248c0,11.2-5.8,21-14.5,26.7c-7.2-13.1-9.3-28.4-5.6-43.1
	c1.1-4.3-1.6-8.6-5.9-9.7s-8.6,1.6-9.7,5.9c-4.3,17.7-2.2,36.1,5.8,52c-0.7,0-1.4,0.1-2.1,0.1c-17.6,0-31.9-14.3-31.9-31.9
	s14.3-31.9,31.9-31.9C161,216.1,175.3,230.4,175.3,248z M450.8,357.8v20c0,4.4-3.6,8-8,8s-8-3.6-8-8v-12.1
	c-39.4-1.9-72.8-17.5-94.7-44.4c-2-2.5-2.4-5.9-0.9-8.7c10.5-20.3,15.8-42,15.8-64.5c0-78.1-63.6-141.7-141.7-141.7
	S71.5,169.9,71.5,248s63.6,141.7,141.7,141.7c39.4,0,76-16,103.2-44.9c3-3.2,8.1-3.4,11.3-0.4c3.2,3,3.4,8.1,0.4,11.3
	c-30.2,32.2-71,50-114.9,50c-87,0-157.7-70.8-157.7-157.7c0-87,70.8-157.7,157.7-157.7C300.2,90.3,371,161,371,248
	c0,23.3-5.1,45.8-15.1,67c20.3,22.5,51,34.8,87,34.8C447.2,349.8,450.8,353.4,450.8,357.8z M213.3,365.8c26.4,0,47.9-21.5,47.9-47.9
	S239.7,270,213.3,270s-47.9,21.5-47.9,47.9S186.8,365.8,213.3,365.8z M213.3,349.8c-17.6,0-31.9-14.3-31.9-31.9c0-1,0.1-2.1,0.2-3.1
	c10.1,4.7,20.9,7,31.8,7c10.8,0,21.7-2.3,31.8-7c0.1,1,0.2,2.1,0.2,3.1C245.2,335.5,230.9,349.8,213.3,349.8z M213.3,286
	c10.9,0,20.5,5.4,26.2,13.7c-16.6,8.1-35.9,8.1-52.4,0C192.8,291.4,202.4,286,213.3,286z M283.1,295.9c-26.4,0-47.9-21.5-47.9-47.9
	c0-12.8,5-24.8,14-33.9c3.1-3.1,8.2-3.1,11.3,0c3.1,3.1,3.1,8.2,0,11.3c-6,6-9.4,14.1-9.4,22.6c0,11.2,5.8,21,14.5,26.7
	c7.5-13.7,9.4-29.8,5.1-45.1c-1.2-4.3,1.3-8.7,5.5-9.9c4.3-1.2,8.7,1.3,9.9,5.5c5.2,18.4,3.3,37.8-5.1,54.6c0.7,0,1.4,0.1,2.1,0.1
	c17.6,0,31.9-14.3,31.9-31.9s-14.3-31.9-31.9-31.9c-4.4,0-8-3.6-8-8s3.6-8,8-8c26.4,0,47.9,21.5,47.9,47.9S309.5,295.9,283.1,295.9z
	"></path>
</svg>