<svg version="1.1" id="Layer_1" xmlns="http://www.w3.org/2000/svg" xmlns:xlink="http://www.w3.org/1999/xlink" x="0px" y="0px" viewBox="0 0 512 512" enable-background="new 0 0 512 512" xml:space="preserve">
<linearGradient id="SVGID_1_" gradientUnits="userSpaceOnUse" x1="312.0542" y1="469.275" x2="312.0542" y2="54.6847" class="gradient-element">
	<stop offset="0" class="primary-color-gradient" style="stop-color: #FFA4ED"></stop>
	<stop offset="1" class="secondary-color-gradient" style="stop-color: #DB81DA"></stop>
</linearGradient>
<path fill="url(#SVGID_1_)" d="M288.9,103.5v225.1c0,27-18.9,48.9-42.2,48.9h-10.5c-30.8,0-42.7,46.8-16.6,65.9
	c20.3,14.9,44.4,23.4,70.3,23.2c71.6-0.6,128.9-69.1,128.9-152.1V206.1c0-63.9-34.2-118.5-82.6-140.4
	C313.5,55.4,288.9,75.1,288.9,103.5z"></path>
<path d="M391.4,324.5c-4.8,0-8.7-3.9-8.7-8.7V206.1c0-63.2-51.4-114.6-114.6-114.6c-4.8,0-8.7-3.9-8.7-8.7s3.9-8.7,8.7-8.7
	c72.8,0,132.1,59.2,132.1,132.1v109.6C400.2,320.6,396.3,324.5,391.4,324.5z M153.5,288.4c0-4.8-3.9-8.7-8.7-8.7h-18.7v-73.5
	c0-16.3,2.7-32.3,8.1-47.5c1.6-4.5-0.8-9.5-5.3-11.2c-4.5-1.6-9.5,0.8-11.2,5.3c-6.1,17.1-9.1,35-9.1,53.4v82.2
	c0,4.8,3.9,8.7,8.7,8.7h27.4C149.6,297.1,153.5,293.2,153.5,288.4z M427.6,315.8V206.1c0-87.9-71.5-159.5-159.5-159.5
	c-48.4,0-93.6,21.6-124,59.2c-3,3.8-2.5,9.3,1.3,12.3s9.3,2.5,12.3-1.3c27.1-33.5,67.4-52.7,110.5-52.7c78.3,0,142,63.7,142,142
	v109.6c0,78.3-63.7,142-142,142c-75.4,0-137.2-59-141.7-133.3h45.8c4.8,0,8.7-3.9,8.7-8.7V206.1c0-48.1,39.1-87.2,87.2-87.2
	c4.8,0,8.7-3.9,8.7-8.7s-3.9-8.7-8.7-8.7c-57.7,0-104.7,46.9-104.7,104.7V307h-46.1c-4.8,0-8.7,3.9-8.7,8.7
	c0,87.9,71.5,159.5,159.5,159.5C356,475.2,427.6,403.7,427.6,315.8z M317.9,315.8v-18.7H364c4.8,0,8.7-3.9,8.7-8.7s-3.9-8.7-8.7-8.7
	h-54.8c-4.8,0-8.7,3.9-8.7,8.7v27.4c0,17.9-14.5,32.4-32.4,32.4c-17.9,0-32.4-14.5-32.4-32.4V206.1c0-17.9,14.5-32.4,32.4-32.4
	c4.8,0,8.7-3.9,8.7-8.7s-3.9-8.7-8.7-8.7c-27.5,0-49.8,22.4-49.8,49.8v109.6c0,27.5,22.4,49.8,49.8,49.8S317.9,343.3,317.9,315.8z
	 M345.3,261v-54.8c0-42.6-34.7-77.2-77.2-77.2c-4.8,0-8.7,3.9-8.7,8.7s3.9,8.7,8.7,8.7c33,0,59.8,26.8,59.8,59.8v46.1h-18.7
	c-4.8,0-8.7,3.9-8.7,8.7s3.9,8.7,8.7,8.7h27.4C341.4,269.7,345.3,265.8,345.3,261z M212.6,348c1.6-2.5,1.9-5.6,0.7-8.3
	c-3.3-7.5-5-15.6-5-23.9c0-4.8-3.9-8.7-8.7-8.7s-8.7,3.9-8.7,8.7c0,6.4,0.8,12.6,2.3,18.7h-45.3c-4.8,0-8.7,3.9-8.7,8.7
	s3.9,8.7,8.7,8.7h57.5C208.2,351.9,211,350.4,212.6,348z M331.2,399.3c15.9-12.1,28.2-28.7,35.1-47.3h22c4.8,0,8.7-3.9,8.7-8.7
	s-3.9-8.7-8.7-8.7H360c-3.9,0-7.3,2.5-8.4,6.2c-10.9,36.7-45.3,62.3-83.6,62.3c-28.5,0-55.2-14-71.6-37.4c-2.8-4-8.2-4.9-12.2-2.2
	c-4,2.8-4.9,8.2-2.2,12.2c19.6,28.1,51.7,44.9,85.9,44.9C291.1,420.4,312.9,413.1,331.2,399.3z M290.5,315.8V261
	c0-4.8-3.9-8.7-8.7-8.7s-8.7,3.9-8.7,8.7v54.8c0,2.7-2.2,5-5,5c-2.7,0-5-2.2-5-5V206.1c0-2.7,2.2-5,5-5c2.7,0,5,2.2,5,5
	c0,4.8,3.9,8.7,8.7,8.7s8.7-3.9,8.7-8.7c0-12.4-10.1-22.4-22.4-22.4s-22.4,10.1-22.4,22.4v109.6c0,12.4,10.1,22.4,22.4,22.4
	S290.5,328.1,290.5,315.8z"></path>
<path d="M137.2,468.9c0,4.4-3.6,8-8,8H42.4c-4.4,0-8-3.6-8-8s3.6-8,8-8h86.8C133.6,460.9,137.2,464.5,137.2,468.9z M76.1,440.8
	c0-4.4-3.6-8-8-8H10.7c-4.4,0-8,3.6-8,8s3.6,8,8,8h57.4C72.5,448.8,76.1,445.2,76.1,440.8z M160.9,143.7H74.1c-4.4,0-8,3.6-8,8
	s3.6,8,8,8h86.8c4.4,0,8-3.6,8-8S165.3,143.7,160.9,143.7z M169,106.6h-57.4c-4.4,0-8,3.6-8,8s3.6,8,8,8H169c4.4,0,8-3.6,8-8
	S173.4,106.6,169,106.6z M418.8,45h47.6c4.4,0,8-3.6,8-8s-3.6-8-8-8h-47.6c-4.4,0-8,3.6-8,8S414.4,45,418.8,45z M478.4,467.8
	c-5.7,0-10.4-4.7-10.4-10.4s4.7-10.4,10.4-10.4c4.4,0,8-3.6,8-8s-3.6-8-8-8c-7.2,0-13.7,2.9-18.5,7.5c-4.8-4.7-11.3-7.5-18.5-7.5
	c-4.4,0-8,3.6-8,8s3.6,8,8,8c5.7,0,10.4,4.7,10.4,10.4s-4.7,10.4-10.4,10.4c-4.4,0-8,3.6-8,8s3.6,8,8,8c7.2,0,13.7-2.9,18.5-7.5
	c4.8,4.7,11.3,7.5,18.5,7.5c4.4,0,8-3.6,8-8S482.8,467.8,478.4,467.8z M30.5,239.8h3.9v3.9c0,4.4,3.6,8,8,8s8-3.6,8-8v-3.9h3.9
	c4.4,0,8-3.6,8-8s-3.6-8-8-8h-3.9v-3.9c0-4.4-3.6-8-8-8s-8,3.6-8,8v3.9h-3.9c-4.4,0-8,3.6-8,8S26.1,239.8,30.5,239.8z M61.1,62.9
	c0-14.6,11.8-26.4,26.4-26.4s26.4,11.8,26.4,26.4s-11.8,26.4-26.4,26.4S61.1,77.5,61.1,62.9z M77.1,62.9c0,5.7,4.7,10.4,10.4,10.4
	s10.4-4.7,10.4-10.4s-4.7-10.4-10.4-10.4S77.1,57.2,77.1,62.9z M453.2,164.6c0.2,0,0.3,0,0.5,0c4.4-0.3,7.8-4.1,7.5-8.5
	c-1.9-31-15.8-59.5-39.2-80.2l-10.6-9.4c-3.3-2.9-8.4-2.6-11.3,0.7c-2.9,3.3-2.6,8.4,0.7,11.3l10.6,9.4
	c20.2,17.9,32.2,42.5,33.8,69.2C445.5,161.4,449,164.6,453.2,164.6z"></path>
</svg>