<svg version="1.1" id="Layer_1" xmlns="http://www.w3.org/2000/svg" xmlns:xlink="http://www.w3.org/1999/xlink" x="0px" y="0px" viewBox="0 0 512 512" enable-background="new 0 0 512 512" xml:space="preserve">
<path d="M48.8,353.5h57.4c4.4,0,8,3.6,8,8s-3.6,8-8,8H48.8c-4.4,0-8-3.6-8-8S44.4,353.5,48.8,353.5z M168.7,382.1H81.9
	c-4.4,0-8,3.6-8,8s3.6,8,8,8h86.8c4.4,0,8-3.6,8-8S173.1,382.1,168.7,382.1z M40.8,72.9c5.9,0,10.8-4.8,10.8-10.8
	s-4.8-10.8-10.8-10.8S30,56.3,30,62.2S34.8,72.9,40.8,72.9z M469.3,443.7h-15.8v-15.8c0-4.4-3.6-8-8-8s-8,3.6-8,8v15.8h-15.8
	c-4.4,0-8,3.6-8,8s3.6,8,8,8h15.8v15.8c0,4.4,3.6,8,8,8s8-3.6,8-8v-15.8h15.8c4.4,0,8-3.6,8-8S473.7,443.7,469.3,443.7z M64.5,439.3
	h-3.9v-3.9c0-4.4-3.6-8-8-8s-8,3.6-8,8v3.9h-3.9c-4.4,0-8,3.6-8,8s3.6,8,8,8h3.9v3.9c0,4.4,3.6,8,8,8s8-3.6,8-8v-3.9h3.9
	c4.4,0,8-3.6,8-8S69,439.3,64.5,439.3z"></path>
<path fill="#FFA4ED" class="primary-color" d="M492.7,68.4H458V33.7h34.7V68.4z"></path>
<linearGradient id="SVGID_1_" gradientUnits="userSpaceOnUse" x1="346.2426" y1="436.6854" x2="347.8285" y2="105.2262" class="gradient-element">
	<stop offset="0" class="primary-color-gradient" style="stop-color: #FFA4ED"></stop>
	<stop offset="1" class="secondary-color-gradient" style="stop-color: #DB81DA"></stop>
</linearGradient>
<path fill="url(#SVGID_1_)" d="M421.7,127.9V273c0,83.5-105.7,146.8-148.6,168.3v-60.8c10-0.9,19.2-3,26.1-6.1
	c28.3-12.5,41.5-30.9,41.5-58c0-30.6-34.7-87.4-56.1-118.4l-11.6,17.4V110.5C333,149.5,391.8,143.2,421.7,127.9z"></path>
<path d="M261.9,480.4l-7.2-2.7c-17.5-6.7-78.4-32.2-127.7-81.1c-3.1-3.1-3.1-8.2,0-11.3c3.1-3.1,8.2-3.1,11.3,0
	c47,46.7,105.3,71.2,122.1,77.5l1.5,0.6l1.2-0.4c18.6-7.1,182.5-73.7,182.5-206V93.1l-5,3.4c-1.4,0.9-33.8,22-77.2,22
	c-43.2,0-97.2-42.5-99.4-44.3l-2-1.6l-2,1.6c-2.3,1.8-56.2,44.4-99.5,44.4c-15.7,0-31.8-2.8-47.7-8.2c-4.2-1.4-6.4-6-5-10.2
	c1.4-4.2,6-6.4,10.2-5c14.2,4.9,28.5,7.3,42.5,7.3c37.6,0,89-40.5,89.5-40.9l12-9.7l12,9.7c0.5,0.4,51.9,40.8,89.4,40.8
	c38.4,0,68-19.1,68.3-19.3l29.9-20V257c0,33.9-9.9,66.5-29.5,96.9c-15.6,24.2-37.3,47.1-64.6,68.1c-44.7,34.4-90.1,52.6-98.7,55.9
	L261.9,480.4z M261.3,411.5c-18.7,0-36.3-3.3-49.4-9.4c-19.7-9.1-34.6-20.8-44.5-34.9c-10-14.3-15-31.4-15-50.9
	c0-53.5,47.2-113.8,49.2-116.4l16.4-20.8l27.9,41.8c2.5,3.7,1.5,8.6-2.2,11.1c-3.7,2.5-8.6,1.5-11.1-2.2L217,206.3l-2.8,3.5
	c-0.5,0.6-45.8,58.4-45.8,106.4c0,32.8,16,55.5,50.2,71.3c11.1,5.1,26.2,7.9,42.7,7.9c16.6,0,32.2-2.8,43.8-7.9
	c33.8-14.9,50.2-38.2,50.2-71.3c0-38.3-44.7-108.4-68.3-140.2c-2.6-3.5-1.9-8.6,1.6-11.2c3.5-2.6,8.6-1.9,11.2,1.6
	c7.3,9.8,71.4,97.5,71.4,149.7c0,19.6-5.1,36.9-15.2,51.3c-10,14.3-25,25.9-44.5,34.6C298,408.2,280.2,411.5,261.3,411.5z
	 M261.3,389c-15.3,0-29.9-2.7-40-7.3C189.7,367,175,346.3,175,316.3c0-32.3,21.8-69.6,34.8-89c2.5-3.7,7.4-4.6,11.1-2.2
	c3.7,2.5,4.6,7.4,2.2,11.1c-12,17.9-32.1,52.1-32.1,80.1c0,23.6,11.1,38.8,37.1,50.8c7.9,3.7,20.4,5.8,33.3,5.8
	c13.4,0,26-2.2,34.7-6c25.4-11.2,36.7-26.8,36.7-50.6c0-23.4-23.7-67.4-48-104L246,270.4c-2.4,3.7-7.4,4.7-11.1,2.2
	c-3.7-2.5-4.7-7.4-2.2-11.1l51.9-77.9l6.7,9.7c13.5,19.5,57.5,86.2,57.5,122.9c0,30.2-15.1,51.5-46.3,65.3
	C291.9,386.3,276.9,389,261.3,389z M105.1,367.3c-2.5,0-4.9-1.1-6.5-3.3c-24.2-33.3-36.4-69.3-36.4-107V78.1c0-4.4,3.6-8,8-8
	s8,3.6,8,8V257c0,34.2,11.2,67.1,33.4,97.6c2.6,3.6,1.8,8.6-1.8,11.2C108.4,366.8,106.8,367.3,105.1,367.3z"></path>
</svg>