<svg version="1.1" id="Layer_1" xmlns="http://www.w3.org/2000/svg" xmlns:xlink="http://www.w3.org/1999/xlink" x="0px" y="0px" viewBox="0 0 512 512" enable-background="new 0 0 512 512" xml:space="preserve">
<linearGradient id="SVGID_1_" gradientUnits="userSpaceOnUse" x1="270.1584" y1="386.5229" x2="270.1584" y2="156.3829" class="gradient-element">
	<stop offset="0" class="primary-color-gradient" style="stop-color: #FFA4ED"></stop>
	<stop offset="1" class="secondary-color-gradient" style="stop-color: #DB81DA"></stop>
</linearGradient>
<path fill="url(#SVGID_1_)" d="M413,162.1l40.6,226H211.5v-4.5c0-19,19-34.4,42.3-34.4l0,0c1.2,0,69.6,0,70.8-0.1
	c23.2-1.5,41.5-17.3,41.5-36.5V202.5c0-28.9,6.5-52.3,42-52.3l0,0C410.9,150.3,413,152,413,162.1z M339.4,292.9H125.8
	c-21.6,0-39.1,17.5-39.1,39.1l0,0h260.7L339.4,292.9z"></path>
<path d="M81.7,32.5c3.1,3.1,3.1,8.2,0,11.3c-3.1,3.1-8.2,3.1-11.3,0c-2-2-4.6-3-7.3-3c-2.8,0-5.4,1.1-7.3,3
	c-4.1,4.1-4.1,10.6,0,14.7c3.1,3.1,3.1,8.2,0,11.3c-1.6,1.6-3.6,2.3-5.7,2.3c-2,0-4.1-0.8-5.7-2.3c-5.1-5.1-7.6-11.7-7.7-18.4
	c-6.9-0.1-13.5-2.8-18.4-7.7c-3.1-3.1-3.1-8.2,0-11.3c3.1-3.1,8.2-3.1,11.3,0c2,2,4.6,3,7.3,3s5.4-1.1,7.3-3
	c4.1-4.1,4.1-10.6,0-14.7c-3.1-3.1-3.1-8.2,0-11.3c3.1-3.1,8.2-3.1,11.3,0c5.1,5.1,7.6,11.7,7.7,18.4C70.3,24.9,76.8,27.6,81.7,32.5
	z M384.5,56.6c8.1,0,16.1-3.1,22.3-9.2c3.1-3.1,3.1-8.2,0-11.3c-3.1-3.1-8.2-3.1-11.3,0c-6,6-15.9,6-21.9,0c-3.1-3.1-8.2-3.1-11.3,0
	c-3.1,3.1-3.1,8.2,0,11.3C368.4,53.6,376.5,56.6,384.5,56.6z M414.6,70.7c0-4.1,1.6-8,4.5-11c3.1-3.1,3.1-8.2,0-11.3
	c-3.1-3.1-8.2-3.1-11.3,0c-6,5.9-9.2,13.9-9.2,22.3s3.3,16.3,9.2,22.3c1.6,1.6,3.6,2.3,5.7,2.3s4.1-0.8,5.7-2.3
	c3.1-3.1,3.1-8.2,0-11.3C416.2,78.7,414.6,74.8,414.6,70.7z M362.3,93.9c-3.1,3.1-3.1,8.2,0,11.3c3.1,3.1,8.2,3.1,11.3,0
	c6-6,15.9-6,21.9,0c1.6,1.6,3.6,2.3,5.7,2.3s4.1-0.8,5.7-2.3c3.1-3.1,3.1-8.2,0-11.3C394.5,81.6,374.5,81.6,362.3,93.9z M370.5,70.7
	c0-8.4-3.3-16.3-9.2-22.3c-3.1-3.1-8.2-3.1-11.3,0c-3.1,3.1-3.1,8.2,0,11.3c2.9,2.9,4.5,6.8,4.5,11s-1.6,8-4.5,11
	c-3.1,3.1-3.1,8.2,0,11.3c1.6,1.6,3.6,2.3,5.7,2.3c2,0,4.1-0.8,5.7-2.3C367.2,87,370.5,79.1,370.5,70.7z"></path>
<g>
	<path fill="#FFA4ED" class="primary-color" d="M506.5,66.5h-43.6V22.9h43.6V66.5z"></path>
	<path fill="#DB81DA" class="secondary-color" d="M506.5,136.5h-43.6V92.9h43.6V136.5z M336,455.9v21.8h142.8v-21.8H336z"></path>
</g>
<path d="M105.7,472.2H79.3c-4.4,0-8-3.6-8-8V94c0-4.4,3.6-8,8-8h208.6c3.7,0,6.9,2.5,7.8,6.1l13.2,52.9c0,0,0,0,0,0L355.2,330
	c0.6,2.4,0.1,4.9-1.5,6.9c-1.5,1.9-3.8,3.1-6.3,3.1H113.7v124.2C113.7,468.6,110.1,472.2,105.7,472.2z M87.3,456.2h10.4V340H87.3
	V456.2z M87.3,324h249.9l-43.8-175.1c0,0,0,0,0,0L281.7,102H87.3V324z M449.5,392.9h-238c-4.4,0-8-3.6-8-8v-29.1c0-4.4,3.6-8,8-8
	s8,3.6,8,8v21.1h220.7l-33.6-222h-82.9c-4.4,0-8-3.6-8-8s3.6-8,8-8h89.8c4,0,7.3,2.9,7.9,6.8l36,238c0.3,2.3-0.3,4.6-1.8,6.4
	C454,391.9,451.8,392.9,449.5,392.9z"></path>
</svg>