<svg version="1.1" id="Layer_1" xmlns="http://www.w3.org/2000/svg" xmlns:xlink="http://www.w3.org/1999/xlink" x="0px" y="0px" viewBox="0 0 512 512" enable-background="new 0 0 512 512" xml:space="preserve">
<linearGradient id="SVGID_1_" gradientUnits="userSpaceOnUse" x1="313.3112" y1="376.1768" x2="337.7662" y2="72.6463" class="gradient-element">
	<stop offset="0" class="primary-color-gradient" style="stop-color: #FFA4ED"></stop>
	<stop offset="1" class="secondary-color-gradient" style="stop-color: #DB81DA"></stop>
</linearGradient>
<path fill="url(#SVGID_1_)" d="M191.4,285.2L406.2,75.3c6.1-6,15.9-5.9,22,0.1l16.5,16.5c27.5,27.5,27.2,72.1-0.6,99.2L275.7,355.5
	c-1.3,1.2-2.3,2.6-3.1,4.2v0c-4.8,9.5-17.5,11.6-25,4.1l-56.3-56.4C185.1,301.3,185.2,291.3,191.4,285.2z"></path>
<path d="M210.6,476.9c-5.4,0-10.6-2.1-14.4-6L47.9,322.6c-4.6-4.6-6.7-11.2-5.7-17.7c1.1-6.4,5.2-12,11-14.9l106.2-52.9
	c3.1-1.5,6.8-0.9,9.2,1.5l94.5,94.5c3.1,3.1,3.1,8.2,0,11.3c-3.1,3.1-8.2,3.1-11.3,0L161.4,254L60.4,304.3c-1.3,0.6-2.1,1.8-2.4,3.2
	c-0.2,1.4,0.2,2.8,1.2,3.8l148.3,148.3c0.8,0.8,1.9,1.3,3.1,1.3c0.3,0,0.5,0,0.7-0.1c1.4-0.2,2.6-1.1,3.2-2.4l52.2-104.7
	c0.4-0.8,0.9-1.5,1.5-2.1l176.8-176.8c15.4-15.4,17.2-18.9,17.2-33.4c0-14.6-10.8-33.1-31.2-53.6c-20.4-20.4-39-31.2-53.6-31.2
	c-15.2,0-22.7,6.5-33.4,17.2L280.8,137c-3.1,3.1-8.2,3.1-11.3,0c-3.1-3.1-3.1-8.2,0-11.3l63.1-63.1c12-12,23.6-21.9,44.7-21.9
	c19.2,0,41,12.1,64.9,35.9c23.8,23.8,35.9,45.7,35.9,64.9c0,21-5.7,28.5-21.9,44.7L280.4,362.1l-51.6,103.5c-2.9,5.9-8.5,10-14.9,11
	C212.8,476.8,211.7,476.9,210.6,476.9z M207.2,443.7c-2.1,0-4.1-0.8-5.7-2.3l-124-124c-3.1-3.1-3.1-8.2,0-11.3
	c3.1-3.1,8.2-3.1,11.3,0L205,422.1l29.8-59.9l-60.4-60.4c-3.1-3.1-3.1-8.2,0-11.3c3.1-3.1,8.2-3.1,11.3,0l64.4,64.4
	c2.4,2.4,3,6.1,1.5,9.2l-37.4,75c-1.1,2.3-3.3,3.9-5.9,4.3C208.1,443.6,207.6,443.7,207.2,443.7z M253.6,290.8c-2,0-4.1-0.8-5.6-2.3
	c-3.1-3.1-3.2-8.2,0-11.3l12.2-12.2l-11.9-11.8c-3.1-3.1-3.2-8.2,0-11.3c3.1-3.1,8.2-3.2,11.3,0l17.5,17.4c3.1,3.1,3.2,8.2,0,11.3
	l-17.8,17.9C257.7,290,255.7,290.8,253.6,290.8z M289.3,255c-2,0-4.1-0.8-5.7-2.3c-3.1-3.1-3.1-8.2,0-11.3l48-48l-11.8-11.8
	c-3.1-3.1-3.1-8.2,0-11.3c3.1-3.1,8.2-3.1,11.3,0l17.5,17.5c3.1,3.1,3.1,8.2,0,11.3L295,252.6C293.4,254.2,291.3,255,289.3,255z
	 M180.1,234.4c-2,0-4.1-0.8-5.7-2.3c-3.1-3.1-3.1-8.2,0-11.3l61.2-61.2c3.1-3.1,8.2-3.1,11.3,0c3.1,3.1,3.1,8.2,0,11.3L185.8,232
	C184.2,233.6,182.2,234.4,180.1,234.4z"></path>
<path d="M98.3,30.5c0,4.4-3.6,8-8,8H33.9c-4.4,0-8-3.6-8-8s3.6-8,8-8h56.4C94.8,22.5,98.3,26.1,98.3,30.5z M235.4,60.2
	c0-4.4-3.6-8-8-8h-92.6c-4.4,0-8,3.6-8,8s3.6,8,8,8h92.6C231.8,68.2,235.4,64.6,235.4,60.2z M479.7,36h-15.8V20.2c0-4.4-3.6-8-8-8
	s-8,3.6-8,8V36h-15.8c-4.4,0-8,3.6-8,8s3.6,8,8,8h15.8v15.8c0,4.4,3.6,8,8,8s8-3.6,8-8V52h15.8c4.4,0,8-3.6,8-8S484.1,36,479.7,36z
	 M299.5,124.3H243c-4.4,0-8,3.6-8,8s3.6,8,8,8h56.4c4.4,0,8-3.6,8-8S303.9,124.3,299.5,124.3z M267.9,156.8h-120c-4.4,0-8,3.6-8,8
	s3.6,8,8,8h120c4.4,0,8-3.6,8-8S272.3,156.8,267.9,156.8z M74,460.9h-3.9V457c0-4.4-3.6-8-8-8s-8,3.6-8,8v3.9h-3.9c-4.4,0-8,3.6-8,8
	s3.6,8,8,8h3.9v3.9c0,4.4,3.6,8,8,8s8-3.6,8-8v-3.9H74c4.4,0,8-3.6,8-8S78.4,460.9,74,460.9z M419,331.3c0,14.6-11.8,26.4-26.4,26.4
	s-26.4-11.8-26.4-26.4s11.8-26.4,26.4-26.4S419,316.8,419,331.3z M403,331.3c0-5.7-4.7-10.4-10.4-10.4s-10.4,4.7-10.4,10.4
	s4.7,10.4,10.4,10.4S403,337.1,403,331.3z"></path>
<g>
	<path fill="#DB81DA" class="secondary-color" d="M369.8,430.5h111.2V474H369.8V430.5z"></path>
	<path fill="#DB81DA" class="secondary-color" d="M437.4,360.4h43.6V404h-43.6V360.4z"></path>
</g>
</svg>