<svg version="1.1" id="Layer_1" xmlns="http://www.w3.org/2000/svg" xmlns:xlink="http://www.w3.org/1999/xlink" x="0px" y="0px" viewBox="0 0 512 512" enable-background="new 0 0 512 512" xml:space="preserve">
<linearGradient id="SVGID_1_" gradientUnits="userSpaceOnUse" x1="282.2351" y1="363.3233" x2="282.2351" y2="165.2829" class="gradient-element">
	<stop offset="0" class="primary-color-gradient" style="stop-color: #FFA4ED"></stop>
	<stop offset="1" class="secondary-color-gradient" style="stop-color: #DB81DA"></stop>
</linearGradient>
<path fill="url(#SVGID_1_)" d="M271.5,251.9H263c-16.3,0-27.6-16.3-21.9-31.6l11-29.1c3.7-9.8,13-16.2,23.5-16.2h12.1l-19.5,57.5
	h65.3L231,351.7l48.4-86.4C282.8,259.3,278.5,251.9,271.5,251.9z"></path>
<g>
	<path fill="#DB81DA" class="secondary-color" d="M482.5,411.7v18.1H381.7v-18.1H482.5z"></path>
	<path fill="#FFA4ED" class="primary-color" d="M480.4,444.9v42.4h-96.7v-42.4H480.4z"></path>
</g>
<path d="M95.1,462.3c0,4.4-3.6,8-8,8H71.3v15.8c0,4.4-3.6,8-8,8s-8-3.6-8-8v-15.8H39.5c-4.4,0-8-3.6-8-8s3.6-8,8-8h15.8v-15.8
	c0-4.4,3.6-8,8-8s8,3.6,8,8v15.8h15.8C91.5,454.3,95.1,457.9,95.1,462.3z M472.2,73.5c-20.3,0-36.8,16.5-36.8,36.8c0,4.4,3.6,8,8,8
	s8-3.6,8-8c0-11.4,9.3-20.7,20.8-20.7c4.4,0,8-3.6,8-8S476.7,73.5,472.2,73.5z M393.5,73.5c-4.4,0-8,3.6-8,8s3.6,8,8,8
	c11.4,0,20.8,9.3,20.8,20.8c0,4.4,3.6,8,8,8s8-3.6,8-8C430.2,90,413.8,73.5,393.5,73.5z M422.2,23.5c-4.4,0-8,3.6-8,8
	c0,11.4-9.3,20.8-20.8,20.8c-4.4,0-8,3.6-8,8s3.6,8,8,8c20.3,0,36.8-16.5,36.8-36.8C430.2,27,426.7,23.5,422.2,23.5z M472.2,68.2
	c4.4,0,8-3.6,8-8s-3.6-8-8-8c-11.4,0-20.8-9.3-20.8-20.8c0-4.4-3.6-8-8-8s-8,3.6-8,8C435.5,51.7,452,68.2,472.2,68.2z M37.1,46.3
	c0-5.5,4.4-9.9,9.9-9.9s9.9,4.4,9.9,9.9s-4.4,9.9-9.9,9.9S37.1,51.8,37.1,46.3z M112.2,46.3c0,5.5-4.4,9.9-9.9,9.9
	c-5.5,0-9.9-4.4-9.9-9.9s4.4-9.9,9.9-9.9C107.8,36.4,112.2,40.9,112.2,46.3z"></path>
<path d="M191.6,454.3c-1,0-2.1-0.2-3.1-0.6c-4.1-1.7-6-6.4-4.3-10.5l21.2-51.2c1.7-4.1,6.4-6,10.5-4.3c4.1,1.7,6,6.4,4.3,10.5
	L199,449.4C197.7,452.5,194.7,454.3,191.6,454.3z M341.8,445.5c-3.1,0-6.1-1.9-7.4-4.9l-21.2-51.2c-1.7-4.1,0.2-8.8,4.3-10.5
	c4.1-1.7,8.8,0.2,10.5,4.3l21.2,51.2c1.7,4.1-0.2,8.8-4.3,10.5C343.8,445.3,342.8,445.5,341.8,445.5z M231,359.7
	c-1.4,0-2.8-0.4-4.1-1.1c-3.3-2-4.8-6-3.4-9.7l25.6-68.8h-46.3c-2.6,0-5.1-1.3-6.6-3.4s-1.8-4.9-0.9-7.4l26.6-71.5
	c1.5-4.1,6.2-6.2,10.3-4.7c4.1,1.5,6.2,6.1,4.7,10.3l-22.6,60.7h46.1c0.5,0,1.1,0,1.6,0.1c0.9,0.2,1.8,0.5,2.6,1
	c1,0.6,1.9,1.4,2.5,2.3c0.7,0.9,1.1,2,1.3,3.2c0.2,0.9,0.2,1.8,0,2.8c-0.1,0.5-0.2,1.1-0.4,1.5l-13.9,37.3l61.9-72.1h-47.9
	c-2.6,0-5-1.2-6.5-3.3c-1.5-2.1-1.9-4.8-1.1-7.2l15.9-46.9h-39.9c-4.4,0-8-3.6-8-8s3.6-8,8-8h51c2.6,0,5,1.2,6.5,3.3
	c1.5,2.1,1.9,4.8,1.1,7.2l-15.9,46.9h54.1c3.1,0,6,1.8,7.3,4.7c1.3,2.8,0.8,6.2-1.2,8.6L237.1,356.9
	C235.5,358.8,233.3,359.7,231,359.7z M79.1,354.4c-3.1,0-6.1-1.9-7.4-4.9c-1.7-4.1,0.2-8.8,4.3-10.5l51.2-21.2
	c4.1-1.7,8.8,0.2,10.5,4.3c1.7,4.1-0.2,8.8-4.3,10.5l-51.2,21.2C81.2,354.2,80.2,354.4,79.1,354.4z M441.7,333c-1,0-2.1-0.2-3.1-0.6
	l-51.2-21.2c-4.1-1.7-6-6.4-4.3-10.5c1.7-4.1,6.4-6,10.5-4.3l51.2,21.2c4.1,1.7,6,6.4,4.3,10.5C447.8,331.2,444.8,333,441.7,333z
	 M121.5,225.4c-1,0-2.1-0.2-3.1-0.6l-51.2-21.2c-4.1-1.7-6-6.4-4.3-10.5c1.7-4.1,6.4-6,10.5-4.3l51.2,21.2c4.1,1.7,6,6.4,4.3,10.5
	C127.6,223.5,124.6,225.4,121.5,225.4z M381.7,204.1c-3.1,0-6.1-1.9-7.4-4.9c-1.7-4.1,0.2-8.8,4.3-10.5l51.2-21.2
	c4.1-1.7,8.8,0.2,10.5,4.3c1.7,4.1-0.2,8.8-4.3,10.5l-51.2,21.2C383.8,203.9,382.7,204.1,381.7,204.1z M191.5,142.9
	c-3.1,0-6.1-1.9-7.4-4.9l-21.2-51.2c-1.7-4.1,0.2-8.8,4.3-10.5c4.1-1.7,8.8,0.2,10.5,4.3l21.2,51.2c1.7,4.1-0.2,8.8-4.3,10.5
	C193.5,142.7,192.5,142.9,191.5,142.9z M299.2,134.1c-1,0-2.1-0.2-3.1-0.6c-4.1-1.7-6-6.4-4.3-10.5L313,71.8c1.7-4.1,6.4-6,10.5-4.3
	c4.1,1.7,6,6.4,4.3,10.5l-21.2,51.2C305.4,132.2,302.4,134.1,299.2,134.1z"></path>
</svg>