<svg version="1.1" id="Layer_1" xmlns="http://www.w3.org/2000/svg" xmlns:xlink="http://www.w3.org/1999/xlink" x="0px" y="0px" viewBox="0 0 512 512" enable-background="new 0 0 512 512" xml:space="preserve">
<linearGradient id="SVGID_1_" gradientUnits="userSpaceOnUse" x1="279.004" y1="283.9962" x2="279.004" y2="222.1693" class="gradient-element">
	<stop offset="0" class="primary-color-gradient" style="stop-color: #FFA4ED"></stop>
	<stop offset="1" class="secondary-color-gradient" style="stop-color: #DB81DA"></stop>
</linearGradient>
<path fill="url(#SVGID_1_)" d="M298,253c0,17-12.8,31-28.4,31c-3.4,0-6.6-0.6-9.6-1.8c10.9-4.3,18.8-15.8,18.8-29.2
	c0-13.4-7.9-24.8-18.8-29.2c3-1.2,6.2-1.8,9.6-1.8C285.2,222,298,235.9,298,253z"></path>
<path d="M198.9,451.3c-1,0-2.1-0.2-3.1-0.6c-4.1-1.7-6-6.4-4.3-10.5l21.2-51.2c1.7-4.1,6.4-6,10.5-4.3c4.1,1.7,6,6.4,4.3,10.5
	l-21.2,51.2C205,449.5,202,451.3,198.9,451.3z M349,442.5c-3.1,0-6.1-1.9-7.4-4.9l-21.2-51.2c-1.7-4.1,0.2-8.8,4.3-10.5
	c4.1-1.7,8.8,0.2,10.5,4.3l21.2,51.2c1.7,4.1-0.2,8.8-4.3,10.5C351.1,442.3,350.1,442.5,349,442.5z M86.4,351.4
	c-3.1,0-6.1-1.9-7.4-4.9c-1.7-4.1,0.2-8.8,4.3-10.5l51.2-21.2c4.1-1.7,8.8,0.2,10.5,4.3s-0.2,8.8-4.3,10.5l-51.2,21.2
	C88.5,351.2,87.4,351.4,86.4,351.4z M449,330c-1,0-2.1-0.2-3.1-0.6l-51.2-21.2c-4.1-1.7-6-6.4-4.3-10.5c1.7-4.1,6.4-6,10.5-4.3
	l51.2,21.2c4.1,1.7,6,6.4,4.3,10.5C455.1,328.2,452.1,330,449,330z M128.7,222.4c-1,0-2.1-0.2-3.1-0.6l-51.2-21.2
	c-4.1-1.7-6-6.4-4.3-10.5c1.7-4.1,6.4-6,10.5-4.3l51.2,21.2c4.1,1.7,6,6.4,4.3,10.5C134.9,220.5,131.9,222.4,128.7,222.4z
	 M389,201.1c-3.1,0-6.1-1.9-7.4-4.9c-1.7-4.1,0.2-8.8,4.3-10.5l51.2-21.2c4.1-1.7,8.8,0.2,10.5,4.3c1.7,4.1-0.2,8.8-4.3,10.5
	l-51.2,21.2C391.1,200.9,390,201.1,389,201.1z M198.7,139.9c-3.1,0-6.1-1.9-7.4-4.9l-21.2-51.2c-1.7-4.1,0.2-8.8,4.3-10.5
	c4.1-1.7,8.8,0.2,10.5,4.3l21.2,51.2c1.7,4.1-0.2,8.8-4.3,10.5C200.8,139.7,199.8,139.9,198.7,139.9z M306.5,131.1
	c-1,0-2.1-0.2-3.1-0.6c-4.1-1.7-6-6.4-4.3-10.5l21.2-51.2c1.7-4.1,6.4-6,10.5-4.3c4.1,1.7,6,6.4,4.3,10.5l-21.2,51.2
	C312.6,129.2,309.7,131.1,306.5,131.1z M266.2,330.3c-48.8,0-71.6-27.5-74-30.7c-2.7-3.5-2.1-8.5,1.4-11.2c3.5-2.7,8.5-2.1,11.2,1.4
	c2,2.5,20.2,24.5,61.4,24.5c41.1,0,59.5-22,61.4-24.5l6.3,4.9l6.3,4.9C337.8,302.8,314.9,330.3,266.2,330.3z M266.2,292.7
	c-21.7,0-39.4-17.7-39.4-39.4c0-15,8.3-28.2,20.9-34.8c-21.8,2.7-39.2,10.3-51.9,22.8c-12.5,12.3-15.6,24.7-15.6,24.8
	c-1,4.3-5.2,7-9.5,6c-4.3-1-7-5.3-6.1-9.6c0.1-0.6,14.6-61.2,101.6-61.2c82.5,0,99.9,54.5,101.7,60.8c1.2,4.3-1.3,8.7-5.6,9.9
	c-4.3,1.2-8.7-1.3-9.8-5.6c0,0,0-0.1,0-0.1c-1.3-4.5-13-41.1-67.7-47.9c12.5,6.6,20.8,19.8,20.8,34.8
	C305.6,275.1,287.9,292.7,266.2,292.7z M263.5,230.1c-11.8,1.3-20.7,11.3-20.7,23.3c0,12.9,10.5,23.4,23.4,23.4
	c12.9,0,23.4-10.5,23.4-23.4c0-12-8.9-21.9-20.7-23.3l-2.7-0.1L263.5,230.1z"></path>
<g>
	<path fill="#FFA4ED" class="primary-color" d="M62.5,302.6H16.1v-21.6h46.3V302.6z"></path>
	<path fill="#DB81DA" class="secondary-color" d="M62.5,258.2H16.1v-22.5h46.3V258.2z M496.3,64.4V17.6h-88.6v46.8H496.3z"></path>
</g>
<path d="M70.8,472.3c3.1,3.1,3.1,8.2,0,11.3c-5,5-11.6,7.7-18.7,7.7s-13.7-2.7-18.7-7.7c-10.3-10.3-10.3-27,0-37.3
	c3.1-3.1,8.2-3.1,11.3,0c3.1,3.1,3.1,8.2,0,11.3c-4.1,4.1-4.1,10.6,0,14.7c2,2,4.6,3,7.3,3s5.4-1.1,7.3-3
	C62.6,469.2,67.7,469.2,70.8,472.3z M481.8,474c-5,0-9,4.1-9,9s4.1,9,9,9s9-4.1,9-9S486.8,474,481.8,474z M33.7,41.9c5,0,9-4.1,9-9
	s-4.1-9-9-9s-9,4.1-9,9S28.7,41.9,33.7,41.9z"></path>
</svg>