<svg version="1.1" id="Layer_1" xmlns="http://www.w3.org/2000/svg" xmlns:xlink="http://www.w3.org/1999/xlink" x="0px" y="0px" viewBox="0 0 512 512" enable-background="new 0 0 512 512" xml:space="preserve">
<linearGradient id="SVGID_1_" gradientUnits="userSpaceOnUse" x1="311.5026" y1="330.2982" x2="311.5026" y2="158.5179" class="gradient-element">
	<stop offset="0" class="primary-color-gradient" style="stop-color: #FFA4ED"></stop>
	<stop offset="1" class="secondary-color-gradient" style="stop-color: #DB81DA"></stop>
</linearGradient>
<path fill="url(#SVGID_1_)" d="M278.1,150.4L278.1,150.4c-3.7,0-6.7,3-6.7,6.7v21c0,5.5,1,10.9,2.9,16l26.7,71.8H283
	c-6.4,0-11.5,5.2-11.5,11.5v0c0,6.4,5.2,11.5,11.5,11.5h26.7l13.5,36.2c2.2,6,7.9,9.9,14.3,9.9h14l-67.2-180.3
	C283.4,152.1,280.9,150.4,278.1,150.4z"></path>
<path fill="#FFA4ED" class="primary-color" d="M21.6,300.4H38V397H21.6V300.4z"></path>
<path d="M464.3,474.9c-5.5,0-9.9-4.4-9.9-9.9c0-5.5,4.4-9.9,9.9-9.9s9.9,4.4,9.9,9.9C474.2,470.4,469.8,474.9,464.3,474.9z
	 M80.8,474c0-4.4-3.6-8-8-8h-43c-4.4,0-8,3.6-8,8s3.6,8,8,8h43C77.2,482,80.8,478.4,80.8,474z M101,40c0-4.4-3.6-8-8-8H35.6
	c-4.4,0-8,3.6-8,8s3.6,8,8,8H93C97.5,48,101,44.4,101,40z M488.9,30.6c0,5-4.1,9-9,9s-9-4.1-9-9s4.1-9,9-9S488.9,25.6,488.9,30.6z
	 M488.8,61c0,4.9-4,9-9,9s-9-4-9-9s4-9,9-9S488.8,56.1,488.8,61z M459.2,30.6c0,5-4.1,9-9,9s-9-4.1-9-9s4.1-9,9-9
	S459.2,25.6,459.2,30.6z"></path>
<path d="M207,448c-1,0-2.1-0.2-3.1-0.6c-4.1-1.7-6-6.4-4.3-10.5l21.2-51.2c1.7-4.1,6.4-6,10.5-4.3c4.1,1.7,6,6.4,4.3,10.5L214.4,443
	C213.1,446.1,210.2,448,207,448z M357.2,439.1c-3.1,0-6.1-1.9-7.4-4.9L328.6,383c-1.7-4.1,0.2-8.8,4.3-10.5
	c4.1-1.7,8.8,0.2,10.5,4.3l21.2,51.2c1.7,4.1-0.2,8.8-4.3,10.5C359.3,438.9,358.2,439.1,357.2,439.1z M94.6,348
	c-3.1,0-6.1-1.9-7.4-4.9c-1.7-4.1,0.2-8.8,4.3-10.5l51.2-21.2c4.1-1.7,8.8,0.2,10.5,4.3c1.7,4.1-0.2,8.8-4.3,10.5l-51.2,21.2
	C96.6,347.8,95.6,348,94.6,348z M351.5,343.1h-24.6c-3.3,0-6.3-2.1-7.5-5.2l-15.3-41h-65.4l-15.3,41c-1.2,3.1-4.2,5.2-7.5,5.2h-24.6
	c-2.6,0-5.1-1.3-6.6-3.4s-1.8-4.9-0.9-7.4l68.8-184.7c1.2-3.1,4.2-5.2,7.5-5.2h22.6c3.3,0,6.3,2.1,7.5,5.2L359,332.3
	c0.9,2.5,0.6,5.2-0.9,7.4C356.6,341.8,354.2,343.1,351.5,343.1z M332.5,327.1h7.6l-62.8-168.7h-11.5l-62.8,168.7h7.6l15.3-41
	c1.2-3.1,4.2-5.2,7.5-5.2h76.5c3.3,0,6.3,2.1,7.5,5.2L332.5,327.1z M457.2,326.7c-1,0-2.1-0.2-3.1-0.6l-51.2-21.2
	c-4.1-1.7-6-6.4-4.3-10.5c1.7-4.1,6.4-6,10.5-4.3l51.2,21.2c4.1,1.7,6,6.4,4.3,10.5C463.3,324.8,460.3,326.7,457.2,326.7z
	 M301.1,273.8h-57.8c-4.4,0-8-3.6-8-8s3.6-8,8-8h46.3L264,189c-1.5-4.1,0.6-8.7,4.7-10.3c4.1-1.5,8.7,0.6,10.3,4.7l29.6,79.6
	c0.9,2.5,0.6,5.2-0.9,7.4S303.7,273.8,301.1,273.8z M136.9,219c-1,0-2.1-0.2-3.1-0.6l-51.2-21.2c-4.1-1.7-6-6.4-4.3-10.5
	c1.7-4.1,6.4-6,10.5-4.3l51.2,21.2c4.1,1.7,6,6.4,4.3,10.5C143,217.2,140.1,219,136.9,219z M397.2,197.7c-3.1,0-6.1-1.9-7.4-4.9
	c-1.7-4.1,0.2-8.8,4.3-10.5l51.2-21.2c4.1-1.7,8.8,0.2,10.5,4.3c1.7,4.1-0.2,8.8-4.3,10.5l-51.2,21.2
	C399.2,197.5,398.2,197.7,397.2,197.7z M206.9,136.6c-3.1,0-6.1-1.9-7.4-4.9l-21.2-51.2c-1.7-4.1,0.2-8.8,4.3-10.5
	c4.1-1.7,8.8,0.2,10.5,4.3l21.2,51.2c1.7,4.1-0.2,8.8-4.3,10.5C209,136.4,207.9,136.6,206.9,136.6z M314.7,127.7
	c-1,0-2.1-0.2-3.1-0.6c-4.1-1.7-6-6.4-4.3-10.5l21.2-51.2c1.7-4.1,6.4-6,10.5-4.3c4.1,1.7,6,6.4,4.3,10.5l-21.2,51.2
	C320.8,125.9,317.8,127.7,314.7,127.7z"></path>
</svg>