<svg version="1.1" id="Layer_1" xmlns="http://www.w3.org/2000/svg" xmlns:xlink="http://www.w3.org/1999/xlink" x="0px" y="0px" viewBox="0 0 512 512" enable-background="new 0 0 512 512" xml:space="preserve">
<linearGradient id="SVGID_1_" gradientUnits="userSpaceOnUse" x1="279.6673" y1="341.7674" x2="278.5304" y2="198.5253" class="gradient-element">
	<stop offset="0" class="primary-color-gradient" style="stop-color: #FFA4ED"></stop>
	<stop offset="1" class="secondary-color-gradient" style="stop-color: #DB81DA"></stop>
</linearGradient>
<path fill="url(#SVGID_1_)" d="M240.1,322c-44.8,34.4-89.1,51.2-135.3,51.2V210.3H128c0,12.8,10.5,23.3,23.3,23.3
	s23.3-10.5,23.3-23.3h279.2v118.1c-10.7-10-19.3-18-23.3-21.7c-17.3-16.5-57.2-49.8-81.4-49.8c-24.6,0-71.4,36.2-102.5,60L240.1,322
	z"></path>
<path d="M461.8,163.7v232.7c0,17.2-14,31.3-31.3,31.3h-349c-17.2,0-31.3-14-31.3-31.3c0-4.4,3.6-8,8-8s8,3.6,8,8
	c0,8.4,6.9,15.3,15.3,15.3h349c8.4,0,15.3-6.9,15.3-15.3V163.7c0-8.4-6.9-15.3-15.3-15.3H294.3c-23.8,0-31.6-6.4-49.5-26.1
	c-13.3-14.7-25.9-20.4-44.7-20.4H81.5c-8.4,0-15.3,6.9-15.3,15.3v248h38.5c44.4,0,87.1-16.2,130.4-49.5l7.5-5.8
	c41.8-32.1,81.5-61,106.4-61c30.8,0,77.8,43.3,87,52c3.2,3,3.3,8.1,0.3,11.3c-3,3.2-8.1,3.3-11.3,0.3
	c-24.1-22.9-58.1-47.6-75.9-47.6c-21.6,0-68.6,36.1-96.7,57.7l-1,0.7l-6.4,5.1c-46.3,35.6-92.2,52.9-140.3,52.9H58.2
	c-4.4,0-8-3.6-8-8v-256c0-17.2,14-31.3,31.3-31.3H200c23.3,0,40.2,7.7,56.5,25.7c17,18.7,20.9,20.9,37.7,20.9h136.2
	C447.8,132.5,461.8,146.5,461.8,163.7z M182.6,210.3c0-4.4-3.6-8-8-8s-8,3.6-8,8c0,8.4-6.9,15.3-15.3,15.3s-15.3-6.9-15.3-15.3
	s6.9-15.3,15.3-15.3c4.4,0,8-3.6,8-8s-3.6-8-8-8c-17.2,0-31.3,14-31.3,31.3c0,17.2,14,31.3,31.3,31.3S182.6,227.5,182.6,210.3z
	 M112.7,210.3c0-21.3,17.3-38.5,38.5-38.5c4.4,0,8-3.6,8-8s-3.6-8-8-8c-30.1,0-54.5,24.5-54.5,54.5c0,30.1,24.5,54.5,54.5,54.5
	c4.4,0,8-3.6,8-8s-3.6-8-8-8C130,248.8,112.7,231.5,112.7,210.3z"></path>
<g>
	<path fill="#DB81DA" class="secondary-color" d="M473.3,99.5h21.8v56.9h-21.8V99.5z M363,44.4H420V22.6H363V44.4z M438.1,22.6v21.8h35.1v36.9h21.8V44.4v-20
		v-1.8H438.1z"></path>
	<path fill="#FFA4ED" class="primary-color" d="M22.5,493v-21.8h142.8V493H22.5z"></path>
</g>
<path fill="#000000" d="M457.6,471.2c0,5.9-4.8,10.8-10.8,10.8s-10.8-4.8-10.8-10.8c0-5.9,4.8-10.8,10.8-10.8
	S457.6,465.3,457.6,471.2z M331.2,105.1c0,4.4,3.6,8,8,8s8-3.6,8-8V89.3H363c4.4,0,8-3.6,8-8s-3.6-8-8-8h-15.8V57.5c0-4.4-3.6-8-8-8
	s-8,3.6-8,8v15.8h-15.8c-4.4,0-8,3.6-8,8s3.6,8,8,8h15.8V105.1z M408.6,177.9c0-4.4-3.6-8-8-8h-75.1c-4.4,0-8,3.6-8,8s3.6,8,8,8
	h75.1C405,185.9,408.6,182.3,408.6,177.9z M503.7,202.3H390.1c-4.4,0-8,3.6-8,8s3.6,8,8,8h113.7c4.4,0,8-3.6,8-8
	S508.1,202.3,503.7,202.3z M51.9,22.7c-5.9,0-10.8,4.8-10.8,10.8c0,5.9,4.8,10.8,10.8,10.8s10.8-4.8,10.8-10.8
	C62.6,27.6,57.8,22.7,51.9,22.7z"></path>
</svg>