<svg version="1.1" id="Layer_1" xmlns="http://www.w3.org/2000/svg" xmlns:xlink="http://www.w3.org/1999/xlink" x="0px" y="0px" viewBox="0 0 512 512" enable-background="new 0 0 512 512" xml:space="preserve">
<linearGradient id="SVGID_1_" gradientUnits="userSpaceOnUse" x1="71.1967" y1="290.9821" x2="435.6385" y2="290.9821" class="gradient-element">
	<stop offset="0" class="primary-color-gradient" style="stop-color: #FFA4ED"></stop>
	<stop offset="1" class="secondary-color-gradient" style="stop-color: #DB81DA"></stop>
</linearGradient>
<path fill="url(#SVGID_1_)" d="M219.6,422.1H119.2c-13.3,0-25.3-5.4-33.9-14.1c-8.6-8.6-14-20.4-14.1-33.5
	c-0.2-26.6,22.2-48.4,48.8-48.4h188.9c28.8,0,52.1-23.3,52.1-52.1v-69.8c0-28.8,23.3-44.3,52.1-44.3h0c12.4,0,22.5,10.1,22.5,22.5
	v206.5c0,18.4-14.9,33.3-33.3,33.3H219.6z M219.6,422.1"></path>
<path d="M416.4,427.7H95.6c-16.2,0-29.4-13.2-29.4-29.4V141.7c0-16.2,13.2-29.4,29.4-29.4h109c21.6,0,37.2,7.1,52.4,23.8
	c15.6,17.2,18.8,19,34.2,19h125.2c16.2,0,29.4,13.2,29.4,29.4v41.7c0,4.4-3.6,8-8,8s-8-3.6-8-8v-41.7c0-7.4-6-13.4-13.4-13.4H291.2
	c-22.2,0-29.4-5.9-46-24.2c-12.2-13.4-23.5-18.6-40.6-18.6h-109c-7.4,0-13.4,6-13.4,13.4v256.6c0,7.4,6,13.4,13.4,13.4h320.8
	c7.4,0,13.4-6,13.4-13.4V256.6H113.6v123.6c0,4.4-3.6,8-8,8s-8-3.6-8-8V248.6c0-4.4,3.6-8,8-8h332.1c4.4,0,8,3.6,8,8v149.7
	C445.8,414.5,432.6,427.7,416.4,427.7z"></path>
<g>
	<path fill="#DB81DA" class="secondary-color" d="M260.3,31.1v35.2h-22.5V31.1H260.3z M329.2,31.1v77.3h22.5V31.1H329.2z"></path>
	<path fill="#FFA4ED" class="primary-color" d="M214.1,31.1v35.2h-21.6V31.1H214.1z M284,31.1v77.3h21.6V31.1H284z"></path>
</g>
<path d="M432.3,346.8c0-4.4,3.6-8,8-8h43c4.4,0,8,3.6,8,8s-3.6,8-8,8h-43C435.9,354.8,432.3,351.2,432.3,346.8z M469.8,376.8
	c0-4.4-3.6-8-8-8H388c-4.4,0-8,3.6-8,8s3.6,8,8,8h73.8C466.2,384.8,469.8,381.2,469.8,376.8z M489.2,447h-15.8v-15.8
	c0-4.4-3.6-8-8-8s-8,3.6-8,8V447h-15.8c-4.4,0-8,3.6-8,8s3.6,8,8,8h15.8v15.8c0,4.4,3.6,8,8,8s8-3.6,8-8V463h15.8c4.4,0,8-3.6,8-8
	S493.6,447,489.2,447z M396.3,80.3c20.3,0,36.8-16.5,36.8-36.8c0-4.4-3.6-8-8-8s-8,3.6-8,8c0,11.4-9.3,20.8-20.8,20.8
	c-4.4,0-8,3.6-8,8S391.8,80.3,396.3,80.3z M475,80.3c4.4,0,8-3.6,8-8s-3.6-8-8-8c-11.4,0-20.8-9.3-20.8-20.8c0-4.4-3.6-8-8-8
	s-8,3.6-8,8C438.3,63.8,454.8,80.3,475,80.3z M446.3,130.3c4.4,0,8-3.6,8-8c0-11.4,9.3-20.8,20.8-20.8c4.4,0,8-3.6,8-8s-3.6-8-8-8
	c-20.3,0-36.8,16.5-36.8,36.8C438.3,126.7,441.8,130.3,446.3,130.3z M396.3,101.5c11.4,0,20.8,9.3,20.8,20.8c0,4.4,3.6,8,8,8
	s8-3.6,8-8c0-20.3-16.5-36.8-36.8-36.8c-4.4,0-8,3.6-8,8S391.8,101.5,396.3,101.5z M472.5,256c0,5.9,4.8,10.8,10.8,10.8
	S494,261.9,494,256s-4.8-10.8-10.8-10.8S472.5,250.1,472.5,256z M166.2,449.7H34.8c-4.4,0-8,3.6-8,8s3.6,8,8,8h131.4
	c4.4,0,8-3.6,8-8S170.6,449.7,166.2,449.7z M42,84.3c-14.6,0-26.4-11.8-26.4-26.4S27.4,31.5,42,31.5s26.4,11.8,26.4,26.4
	S56.5,84.3,42,84.3z M42,68.3c5.7,0,10.4-4.7,10.4-10.4S47.7,47.5,42,47.5s-10.4,4.7-10.4,10.4S36.3,68.3,42,68.3z"></path>
</svg>