<svg version="1.1" id="Layer_1" xmlns="http://www.w3.org/2000/svg" xmlns:xlink="http://www.w3.org/1999/xlink" x="0px" y="0px" viewBox="0 0 512 512" enable-background="new 0 0 512 512" xml:space="preserve">
<linearGradient id="SVGID_1_" gradientUnits="userSpaceOnUse" x1="316.8527" y1="398.2076" x2="316.8527" y2="221.0876" class="gradient-element">
	<stop offset="0" class="primary-color-gradient" style="stop-color: #FFA4ED"></stop>
	<stop offset="1" class="secondary-color-gradient" style="stop-color: #DB81DA"></stop>
</linearGradient>
<path fill="url(#SVGID_1_)" d="M305.6,263.5l-16.7,46.9c-0.5,1.4-1.8,2.4-3.3,2.4h-54.1c-1.5,0-2.8-1-3.3-2.4
	c-0.7-2.2,0.9-4.5,3.3-4.5h17.9c1.5,0,2.8-1,3.3-2.4l16.7-46.9c0.5-1.4,0-3-1.2-3.8L249,238.9c-1.9-1.4-1.9-4.2,0-5.6l7.5-5.5
	c1.2-0.9,2.8-0.9,4,0l43.7,31.8C305.5,260.5,306,262.1,305.6,263.5z M393.3,215.1c-9.1-17.1-19.3-16.7-19.3-16.7s5.3,26.7,10.8,44.3
	s20.8,32.8,20.8,32.8S402.4,232.2,393.3,215.1z M306.7,407.7c0,0,42.7-1.8,52.4-37L329,381.2L306.7,407.7z"></path>
<g>
	<path fill="#DB81DA" class="secondary-color" d="M178.4,486l57.8-57.8L294,486H178.4z"></path>
	<path fill="#FFA4ED" class="primary-color" d="M77.5,91.2H42.8V56.6h34.7V91.2z M132.8,56.6H98.1v34.7h34.7V56.6z"></path>
	<path fill="#FFA4ED" class="primary-color" d="M188,91.2h-34.7V56.6H188V91.2z"></path>
</g>
<path fill="#000000" d="M74.5,393.3c0,20.3-16.5,36.8-36.8,36.8c-4.4,0-8-3.6-8-8s3.6-8,8-8c11.4,0,20.8-9.3,20.8-20.8
	c0-4.4,3.6-8,8-8S74.5,388.9,74.5,393.3z M116.5,414c-11.4,0-20.8-9.3-20.8-20.8c0-4.4-3.6-8-8-8s-8,3.6-8,8
	c0,20.3,16.5,36.8,36.8,36.8c4.4,0,8-3.6,8-8S120.9,414,116.5,414z M116.5,435.3c-20.3,0-36.8,16.5-36.8,36.8c0,4.4,3.6,8,8,8
	s8-3.6,8-8c0-11.4,9.3-20.8,20.8-20.8c4.4,0,8-3.6,8-8S120.9,435.3,116.5,435.3z M37.8,435.3c-4.4,0-8,3.6-8,8s3.6,8,8,8
	c11.4,0,20.8,9.3,20.8,20.8c0,4.4,3.6,8,8,8s8-3.6,8-8C74.5,451.8,58,435.3,37.8,435.3z M37.8,201.5c5.9,0,10.8-4.8,10.8-10.8
	S43.7,180,37.8,180S27,184.8,27,190.7S31.8,201.5,37.8,201.5z M490.1,399.7h-73.8c-4.4,0-8,3.6-8,8s3.6,8,8,8h73.8c4.4,0,8-3.6,8-8
	S494.5,399.7,490.1,399.7z M499.4,318.2h-15.8v-15.8c0-4.4-3.6-8-8-8s-8,3.6-8,8v15.8h-15.8c-4.4,0-8,3.6-8,8s3.6,8,8,8h15.8V350
	c0,4.4,3.6,8,8,8s8-3.6,8-8v-15.8h15.8c4.4,0,8-3.6,8-8S503.8,318.2,499.4,318.2z M475.6,128.1c4.4,0,8-3.6,8-8s-3.6-8-8-8h-63.1
	c-4.4,0-8,3.6-8,8s3.6,8,8,8H475.6z M444.1,446.9c-5.9,0-10.8,4.8-10.8,10.8c0,5.9,4.8,10.8,10.8,10.8c5.9,0,10.8-4.8,10.8-10.8
	C454.8,451.7,450,446.9,444.1,446.9z"></path>
<path d="M259.2,430.2c-11.5,0-23.3-1.4-35.2-4.2c-0.3-0.1-0.6-0.2-1-0.3c0,0-0.1,0-0.1-0.1c-43.1-15.9-69.1-34.8-95.7-69.7
	c0,0-0.1-0.1-0.1-0.1c-0.2-0.2-0.3-0.4-0.5-0.7c-12.5-20.6-19.8-43.2-21.8-67.1c0,0,0,0,0,0v0c0,0,0,0,0,0
	c-3.6-44.5,9-83,37.2-114.4c15.6-18,35.2-32.3,56.8-41.5c13.1-5.9,35.9-12.2,60.4-12.2c4.6,0,8.7,0.1,12.7,0.3
	c4.4,0.2,7.8,4,7.6,8.4c-0.2,4.4-4,7.8-8.4,7.6c-3.6-0.2-7.5-0.3-11.8-0.3c-8.2,0-16.3,0.8-23.8,2.1l30,6l49.2-12.3
	c1.7-0.4,3.5-0.3,5.1,0.4c21.6,9.1,41.2,23.5,56.8,41.5c23.2,25.7,44.1,74.5,37.2,114.8c-2.1,23.8-9.4,46.3-21.9,66.8
	c-0.1,0.1-0.1,0.2-0.2,0.4c-15.4,23-48.5,62.6-97.3,70.4C282.4,428.8,270.6,430.2,259.2,430.2z M229.8,410.9
	c10,2.2,19.8,3.2,29.3,3.2c9.5,0,19.2-1.1,29.1-3.2l28.2-33.6L287.5,328h-57.7l-37.2,42.6L229.8,410.9z M331.1,384.7L315.8,403
	c16.7-7.4,30.7-18.9,41.8-30.5L331.1,384.7z M161.7,371.2c9.6,9.2,19.7,16.8,31.4,23.5l-15.9-17.2L161.7,371.2z M300.8,319
	l28.6,48.9l49.8-22.9c10.1-17.3,16.2-36,18.2-55.7l-26.9-48L319,263.2L300.8,319z M139,344.8l40.6,16.4l37.6-43l-17.8-54.9
	l-51.5-21.9l-26.9,47.9C122.9,308.9,129,327.6,139,344.8z M232,312h54.3l16.8-51.7l-43.9-31.9l-43.9,31.9L232,312z M381.9,228.7
	l16,28.5c-2.6-17.9-9.5-35.6-17.5-50L381.9,228.7z M138.1,205.8c-9.1,15.3-14.7,32.1-16.9,50.2l15.3-27.3L138.1,205.8z M267.6,214.7
	l46,33.4l52.1-22.2l-3-43.6c-13.1-14.6-29.2-26.4-46.8-34.3L273,158.7L267.6,214.7z M152.8,226l52,22.1l46.8-34l5.4-55.4l-54.1-10.8
	c-17.7,7.9-33.9,19.7-47,34.3L152.8,226z"></path>
</svg>