<svg version="1.1" id="Layer_1" xmlns="http://www.w3.org/2000/svg" xmlns:xlink="http://www.w3.org/1999/xlink" x="0px" y="0px" viewBox="0 0 512 512" enable-background="new 0 0 512 512" xml:space="preserve">
<linearGradient id="SVGID_1_" gradientUnits="userSpaceOnUse" x1="367.67" y1="456.9691" x2="367.67" y2="72.6218" class="gradient-element">
	<stop offset="0" class="primary-color-gradient" style="stop-color: #FFA4ED"></stop>
	<stop offset="1" class="secondary-color-gradient" style="stop-color: #DB81DA"></stop>
</linearGradient>
<path fill="url(#SVGID_1_)" d="M385.8,416.9l-17.9,10.3c-29.5,17.2-63.7,27.2-100.2,27.2h-1.1c0-28.7,18.5-54.4,45.9-62.9
	c5.4-1.7,10.7-3.7,15.8-6l-5.5,0.5c0.6-0.1,1.2-0.1,1.9-0.2l4.2-2.1c0.5,0.3,0.9,0.6,1.3,0.9c48.7-22.7,81-71.5,81-130.8
	c0-33.3-10.2-63.4-27.8-87.3l-27.5,27.3c-8.3,8.3-21.8,8.3-30.2,0c-8.3-8.3-8.3-21.8,0-30.2l27.4-27.2c-11.8-8.6-25.2-15.3-39.6-20
	c-17-5.5-30.7-17.2-38.8-32.2c-5.2-9.6-8.1-32.1-8.1-32.1s19,0.6,27.6,1.7c98.4,13,174.6,97.5,174.6,199.4
	c0,50.6-19,96.8-49.9,132.2C418.9,385.5,391.5,413.3,385.8,416.9z"></path>
<path d="M399.2,283.4c2.2-9.8,3.3-19.9,3.3-30c0-24.3-6.4-47.8-18.4-68.5L197.7,371.3c20.7,12.1,44.3,18.4,68.5,18.4
	c49.8,0,95.6-27.1,119.5-70.8c2-3.7,6.6-5,10.3-3c3.7,2,5,6.6,3,10.3c-26.6,48.5-77.5,78.6-132.8,78.6c-30.4,0-59.7-9-84.8-26
	l-7.6-5.1L386.5,161l5.1,7.6c17,25.1,26,54.4,26,84.8c0,11.2-1.2,22.4-3.7,33.3c-0.9,4.1-5,6.6-9,5.7
	C400.8,291.5,398.3,287.5,399.2,283.4z M266.2,47.4c-113.6,0-206.1,92.4-206.1,206.1c0,39.1,11,77.1,31.7,109.9
	c2.2,3.5,6.9,4.6,10.4,2.4c3.5-2.2,4.6-6.9,2.4-10.4c-19.2-30.4-29.4-65.7-29.4-101.8c0-105.3,85.6-190.9,190.9-190.9
	c105.3,0,190.9,85.6,190.9,190.9c0,105.3-85.7,190.9-190.9,190.9c-52.8,0-101.9-21.1-138.3-59.3c-2.9-3-7.7-3.1-10.7-0.3
	c-3,2.9-3.1,7.7-0.3,10.7c19,20,41.5,35.7,66.7,46.8c26.1,11.4,53.9,17.2,82.6,17.2c113.6,0,206.1-92.4,206.1-206.1
	C472.2,139.8,379.8,47.4,266.2,47.4z M351,128l7.6,5.1L145.9,345.8l-5.1-7.6c-17-25.1-26-54.4-26-84.8
	c0-83.5,67.9-151.4,151.4-151.4C296.6,102,325.9,111,351,128z M334.7,135.6c-20.7-12.1-44.3-18.5-68.5-18.5
	c-75.2,0-136.3,61.1-136.3,136.3c0,24.3,6.4,47.8,18.5,68.5L334.7,135.6z"></path>
<path d="M176.8,390.4c0,4.4-3.6,8-8,8H82c-4.4,0-8-3.6-8-8s3.6-8,8-8h86.8C173.3,382.4,176.8,386,176.8,390.4z M356.5,293.1h57.4
	c4.4,0,8-3.6,8-8s-3.6-8-8-8h-57.4c-4.4,0-8,3.6-8,8S352.1,293.1,356.5,293.1z M32.9,361.8c0,4.4,3.6,8,8,8h57.4c4.4,0,8-3.6,8-8
	s-3.6-8-8-8H40.9C36.4,353.8,32.9,357.3,32.9,361.8z M430,322.6c0-4.4-3.6-8-8-8h-86.8c-4.4,0-8,3.6-8,8s3.6,8,8,8H422
	C426.4,330.6,430,327,430,322.6z M469.4,443.9h-15.8v-15.8c0-4.4-3.6-8-8-8s-8,3.6-8,8v15.8h-15.8c-4.4,0-8,3.6-8,8s3.6,8,8,8h15.8
	v15.8c0,4.4,3.6,8,8,8s8-3.6,8-8v-15.8h15.8c4.4,0,8-3.6,8-8S473.8,443.9,469.4,443.9z M40.9,73.2c5.9,0,10.8-4.8,10.8-10.8
	s-4.8-10.8-10.8-10.8s-10.8,4.8-10.8,10.8S34.9,73.2,40.9,73.2z M64.6,439.5h-3.9v-3.9c0-4.4-3.6-8-8-8s-8,3.6-8,8v3.9h-3.9
	c-4.4,0-8,3.6-8,8s3.6,8,8,8h3.9v3.9c0,4.4,3.6,8,8,8s8-3.6,8-8v-3.9h3.9c4.4,0,8-3.6,8-8S69.1,439.5,64.6,439.5z"></path>
<path fill="#FFA4ED" class="primary-color" d="M492.8,68.6h-34.7V33.9h34.7V68.6z"></path>
</svg>