<svg version="1.1" id="Layer_1" xmlns="http://www.w3.org/2000/svg" xmlns:xlink="http://www.w3.org/1999/xlink" x="0px" y="0px" viewBox="0 0 512 512" enable-background="new 0 0 512 512" xml:space="preserve">
<linearGradient id="SVGID_1_" gradientUnits="userSpaceOnUse" x1="245.5" y1="476.9704" x2="245.5" y2="221.428" class="gradient-element">
	<stop offset="0" class="primary-color-gradient" style="stop-color: #FFA4ED"></stop>
	<stop offset="1" class="secondary-color-gradient" style="stop-color: #DB81DA"></stop>
</linearGradient>
<path fill="url(#SVGID_1_)" d="M362,447l-8,33.4H152L129,286l76.6,52.9c-10,11.8-16,27-16,43.6c0,37.3,30.2,67.5,67.5,67.5
	c25.4,0,47.5-14,59-34.7L362,447z"></path>
<g>
	<path fill="#DB81DA" class="secondary-color" d="M59,20.5h80.3v37.3H59V20.5z"></path>
	<path fill="#FFA4ED" class="primary-color" d="M152.4,21.3h73.1v35.8h-73.1V21.3z"></path>
</g>
<path d="M53,155c22.3,0,40.4-18.1,40.4-40.4c0-22.3-18.1-40.4-40.4-40.4c-22.3,0-40.4,18.1-40.4,40.4C12.6,136.8,30.7,155,53,155z
	 M53,90.1c13.5,0,24.4,11,24.4,24.4S66.5,139,53,139c-13.5,0-24.4-11-24.4-24.4S39.6,90.1,53,90.1z M492.4,59.6c0,4.4-3.6,8-8,8
	h-66.5c-4.4,0-8-3.6-8-8s3.6-8,8-8h66.5C488.8,51.6,492.4,55.2,492.4,59.6z M387.2,20.7c0-4.4,3.6-8,8-8h59.5c4.4,0,8,3.6,8,8
	s-3.6,8-8,8h-59.5C390.8,28.7,387.2,25.1,387.2,20.7z M468.4,449.6c0,4.4-3.6,8-8,8h-66.5c-4.4,0-8-3.6-8-8s3.6-8,8-8h66.5
	C464.8,441.6,468.4,445.2,468.4,449.6z M430.6,418.7h-59.5c-4.4,0-8-3.6-8-8s3.6-8,8-8h59.5c4.4,0,8,3.6,8,8
	S435.1,418.7,430.6,418.7z M44.7,233.5v3.9c0,4.4-3.6,8-8,8s-8-3.6-8-8v-3.9h-3.9c-4.4,0-8-3.6-8-8s3.6-8,8-8h3.9v-3.9
	c0-4.4,3.6-8,8-8s8,3.6,8,8v3.9h3.9c4.4,0,8,3.6,8,8s-3.6,8-8,8H44.7z M114.3,337.5c0,4.4-3.6,8-8,8H73.5c-4.4,0-8-3.6-8-8
	s3.6-8,8-8h32.7C110.7,329.5,114.3,333.1,114.3,337.5z M60.9,337.4v134.6c0,4.4-3.6,8-8,8s-8-3.6-8-8V337.4c0-4.4,3.6-8,8-8
	S60.9,332.9,60.9,337.4z"></path>
<path d="M372.6,258.4l17.2-128.7h-19l-15.2,129.8c-0.5,4.1-3.9,7.1-7.9,7.1c-0.3,0-0.6,0-0.9-0.1c-4.4-0.5-7.5-4.5-7-8.9l18.5-157.6
	h-25.9l-12.7,159.2c-0.3,4.2-3.8,7.4-8,7.4c-0.2,0-0.4,0-0.6,0c-4.4-0.4-7.7-4.2-7.3-8.6l13.1-165c0-0.3-0.1-0.6-0.1-0.9
	c0-0.8,0.1-1.5,0.3-2.2l1-12.3h-24.4l-1.1,15.1c0,0.7-0.2,1.4-0.4,2l-6.8,164.3c-0.2,4.3-3.7,7.7-8,7.7c-0.1,0-0.2,0-0.3,0
	c-4.4-0.2-7.8-3.9-7.7-8.3l6.5-158.2h-33.9l9.2,158.1c0.3,4.4-3.1,8.2-7.5,8.4c-0.2,0-0.3,0-0.5,0c-4.2,0-7.7-3.3-8-7.5L224.8,77.6
	h-24.2l1.1,13.2c0,0.2,0.1,0.4,0.1,0.6L216.1,257c0.4,4.4-2.9,8.3-7.3,8.7c-0.2,0-0.5,0-0.7,0c-4.1,0-7.6-3.1-8-7.3l-13.7-158.3
	h-26.3l1.8,19.6c0.1,0.4,0.2,0.8,0.2,1.2l17,136.8c0.5,4.4-2.6,8.4-7,8.9c-4.4,0.5-8.4-2.6-8.9-7l-16.1-129.8h-18.6l18.2,148.3
	c6.2-0.1,14.1-0.1,23.5-0.1c22-0.1,52.6-0.2,91-0.3c65.6-0.1,132-0.2,132.3-0.2c2.4,0,4.6,1.1,6.2,2.9s2.1,4.2,1.7,6.6L378,412.8
	c-0.8,4.3-5,7.2-9.3,6.4c-4.3-0.8-7.2-5-6.4-9.3L384,293.5c-86.3,0.1-203.5,0.3-241.8,0.6c-0.5,0.1-0.9,0.2-1.4,0.3
	c-0.3,0-0.7,0.1-1,0.1c-0.6,0-1.3-0.1-1.8-0.2l21.5,178.1h188.9l5.8-27c0.9-4.3,5.2-7.1,9.5-6.1c4.3,0.9,7.1,5.2,6.1,9.5l-7.2,33.3
	c-0.8,3.7-4.1,6.3-7.8,6.3H152.4c-4,0-7.5-3-7.9-7l-23.4-193.7c-0.2-0.9-0.1-1.9,0.1-2.9c0.3-1.4,1.8-6.2,8.3-6.5c0.4,0,0.8,0,1.4,0
	l-19.1-155.5c-0.3-2.3,0.4-4.6,1.9-6.3s3.7-2.7,6-2.7h25.8l-2-21c-0.2-2.2,0.5-4.5,2.1-6.1c1.5-1.7,3.7-2.6,5.9-2.6h33.7l-1.2-13.8
	c-0.2-2.2,0.6-4.4,2.1-6.1c1.5-1.7,3.7-2.6,5.9-2.6h40.5c4.2,0,7.7,3.3,8,7.5l0.9,15h36l1.1-15.1c0.3-4.2,3.8-7.4,8-7.4h40.5
	c2.2,0,4.4,0.9,5.9,2.6c1.5,1.6,2.3,3.8,2.1,6.1l-1.1,13.9h33.6c2.3,0,4.5,1,6,2.7c1.5,1.7,2.2,4,2,6.2l-2.4,20.8H399
	c2.3,0,4.5,1,6,2.7c1.5,1.7,2.2,4,1.9,6.3l-18.4,137.7c-0.5,4-4,6.9-7.9,6.9c-0.4,0-0.7,0-1.1-0.1
	C375.1,266.9,372.1,262.8,372.6,258.4z M257.1,323c32.8,0,59.5,26.7,59.5,59.5c0,4.4,3.6,8,8,8s8-3.6,8-8
	c0-41.6-33.9-75.5-75.5-75.5c-41.6,0-75.5,33.9-75.5,75.5s33.9,75.5,75.5,75.5c28.6,0,54.4-15.9,67.4-41.4c2-3.9,0.4-8.8-3.5-10.8
	c-3.9-2-8.8-0.4-10.8,3.5C300,429.5,279.6,442,257.1,442c-32.8,0-59.5-26.7-59.5-59.5S224.3,323,257.1,323z"></path>
</svg>