<svg version="1.1" id="Layer_1" xmlns="http://www.w3.org/2000/svg" xmlns:xlink="http://www.w3.org/1999/xlink" x="0px" y="0px" viewBox="0 0 512 512" enable-background="new 0 0 512 512" xml:space="preserve">
<linearGradient id="SVGID_1_" gradientUnits="userSpaceOnUse" x1="326.9727" y1="440.0789" x2="326.9727" y2="104.6419" class="gradient-element">
	<stop offset="0" class="primary-color-gradient" style="stop-color: #FFA4ED"></stop>
	<stop offset="1" class="secondary-color-gradient" style="stop-color: #DB81DA"></stop>
</linearGradient>
<path fill="url(#SVGID_1_)" d="M413.8,167.6C413.8,167.6,413.8,167.6,413.8,167.6L310.6,303v145.1l-3.4-1.6
	c-23.1-10.6-37.9-33.7-37.9-59.2V213c0-7.9,6.3-14.3,14.2-14.5c0.2,0,0.3,0,0.5,0c-4.9,0.1-9.8,0.2-14.8,0.2c0,0,87.2-44,0-50.2
	s0-45.5,0-45.5c85.3,0,154.4,21.4,154.4,47.8C423.5,156.8,420.1,162.4,413.8,167.6z"></path>
<path fill="#FFA4ED" class="primary-color" d="M490.4,379.2v44.5H446v-44.5H490.4z M446,490.6h44.5v-44.5H446V490.6z M377.6,490.6h44.5v-44.5h-44.5V490.6z
	"></path>
<path fill="#000000" d="M505.8,284.4c0,4.4-3.6,8-8,8h-3.9v3.9c0,4.4-3.6,8-8,8s-8-3.6-8-8v-3.9H474c-4.4,0-8-3.6-8-8s3.6-8,8-8h3.9
	v-3.9c0-4.4,3.6-8,8-8s8,3.6,8,8v3.9h3.9C502.2,276.4,505.8,279.9,505.8,284.4z M94.8,94.4c4.4,0,8-3.6,8-8s-3.6-8-8-8
	c-5.7,0-10.4-4.7-10.4-10.4S89,57.6,94.8,57.6c4.4,0,8-3.6,8-8s-3.6-8-8-8c-14.6,0-26.4,11.8-26.4,26.4S80.2,94.4,94.8,94.4z
	 M158.8,420.4h-43c-4.4,0-8,3.6-8,8s3.6,8,8,8h43c4.4,0,8-3.6,8-8S163.2,420.4,158.8,420.4z M137.3,450.4H63.5c-4.4,0-8,3.6-8,8
	s3.6,8,8,8h73.8c4.4,0,8-3.6,8-8S141.7,450.4,137.3,450.4z M74.4,382.6c0,3.6,2.9,6.5,6.5,6.5H116c3.6,0,6.5-2.9,6.5-6.5
	s-2.9-6.5-6.5-6.5H80.9C77.3,376.1,74.4,379,74.4,382.6z M234,452h-3.9v-3.9c0-4.4-3.6-8-8-8s-8,3.6-8,8v3.9h-3.9c-4.4,0-8,3.6-8,8
	s3.6,8,8,8h3.9v3.9c0,4.4,3.6,8,8,8s8-3.6,8-8V468h3.9c4.4,0,8-3.6,8-8S238.5,452,234,452z M464.3,101.4c-4.2-4.2-11-4.2-15.2,0
	s-4.2,11,0,15.2c4.2,4.2,11,4.2,15.2,0C468.5,112.4,468.5,105.6,464.3,101.4z"></path>
<path d="M431.5,150.9c0-16.8-17.6-31.2-50.8-41.5C350.8,100.1,311.2,95,269.2,95c-42,0-81.6,5.1-111.5,14.4
	c-33.3,10.3-50.8,24.6-50.8,41.5c0,6,2.2,11.7,6.6,17l106.3,137.9v104.2c0,3.1,1.8,6,4.7,7.3l82.9,38.2c1.1,0.5,2.2,0.7,3.3,0.7
	c1.5,0,3-0.4,4.3-1.3c2.3-1.5,3.7-4,3.7-6.7V305.7l101-132.5C427.5,166.4,431.5,158.9,431.5,150.9z M162.4,124.7
	c28.4-8.8,66.3-13.6,106.8-13.6c40.5,0,78.4,4.8,106.8,13.6c29.2,9.1,39.6,19.8,39.6,26.2S405.2,168,376,177
	c-28.4,8.8-66.3,13.6-106.8,13.6c-40.5,0-78.4-4.8-106.8-13.6c-29.2-9.1-39.6-19.8-39.6-26.2S133.2,133.7,162.4,124.7z M235.7,404.8
	v-85.7c9.5,3.3,22,4.7,33.4,4.7s23.9-1.4,33.4-4.7v116.5L235.7,404.8z M304.2,298.1C304.2,298.1,304.2,298.1,304.2,298.1
	c-0.3,0.4-0.5,0.7-0.7,1.1c0,0,0,0,0,0.1c-0.2,0.4-0.3,0.7-0.5,1.1c0,0,0,0.1,0,0.1c-0.1,0.3-0.2,0.6-0.3,1
	c-2.9,2.4-14.9,6.4-33.6,6.4s-30.7-4-33.6-6.4c-0.1-0.3-0.2-0.7-0.3-1c0,0,0-0.1,0-0.1c-0.1-0.4-0.3-0.8-0.5-1.1c0,0,0-0.1,0-0.1
	c-0.2-0.4-0.4-0.7-0.7-1c0,0,0,0,0,0l-83.3-108c2.2,0.8,4.5,1.5,6.9,2.3c29.9,9.3,69.5,14.4,111.5,14.4c42,0,81.6-5.1,111.5-14.4
	c1.9-0.6,3.8-1.2,5.6-1.8L304.2,298.1z"></path>
</svg>