<svg version="1.1" id="Layer_1" xmlns="http://www.w3.org/2000/svg" xmlns:xlink="http://www.w3.org/1999/xlink" x="0px" y="0px" viewBox="0 0 512 512" enable-background="new 0 0 512 512" xml:space="preserve">
<linearGradient id="SVGID_1_" gradientUnits="userSpaceOnUse" x1="263.8665" y1="492.1718" x2="288.1191" y2="101.0981" class="gradient-element">
	<stop offset="0" class="primary-color-gradient" style="stop-color: #FFA4ED"></stop>
	<stop offset="1" class="secondary-color-gradient" style="stop-color: #DB81DA"></stop>
</linearGradient>
<path fill="url(#SVGID_1_)" d="M110.1,255.3v113.1c0,9.3,7.9,16.8,17.2,16c36-3,67.3-15.5,93.5-37.3l10.4-8.8
	c23.6-20,50.5-42.7,68.9-42.7c13.1,0,35.8,11.6,55.9,24.1v-79.3c0-6.6-5.4-12-12-12H136.8C122,228.6,110.1,240.6,110.1,255.3z
	 M145.5,273.1c-7.6,1.3-14.2-5.3-12.9-12.9c0.8-4.6,4.5-8.4,9.1-9.1c7.6-1.3,14.2,5.3,12.9,12.9
	C153.9,268.6,150.1,272.4,145.5,273.1z M445.5,167v113.3c0,8.5-6.9,15.4-15.4,15.4h-29.4V183.8H199.5v-26.6c0-10,8.1-18.2,18.2-18.2
	h199.9C433,139.1,445.5,151.6,445.5,167z"></path>
<path d="M400.8,437.9H65.3c-4.4,0-8-3.6-8-8v-246c0-4.4,3.6-8,8-8h268.4c4.4,0,8,3.6,8,8s-3.6,8-8,8H73.3v230h319.5v-76.7
	c-33.4-18-81.8-41.5-92.6-41.5c-15.5,0-42.2,22.6-63.7,40.7l-10.5,8.8c-31.8,26.5-70.8,39.9-115.9,39.9c-4.4,0-8-3.6-8-8s3.6-8,8-8
	c41.3,0,76.9-12.2,105.6-36.2l10.4-8.8c25.9-21.9,52.7-44.5,74.1-44.5c18.7,0,85.2,35.3,102.7,44.7h79.4v-230H162.8v59.1
	c0,4.4-3.6,8-8,8s-8-3.6-8-8V94.4c0-4.4,3.6-8,8-8h335.5c4.4,0,8,3.6,8,8v246c0,4.4-3.6,8-8,8h-81.5v81.5
	C408.8,434.3,405.2,437.9,400.8,437.9z M400.8,303.7c-4.4,0-8-3.6-8-8V191.8h-36.7c-4.4,0-8-3.6-8-8s3.6-8,8-8h44.7c4.4,0,8,3.6,8,8
	v111.8C408.8,300.1,405.2,303.7,400.8,303.7z M143.6,303.7c-22.9,0-41.5-18.6-41.5-41.5s18.6-41.5,41.5-41.5
	c11.1,0,21.5,4.3,29.4,12.2c3.1,3.1,3.1,8.2,0,11.3c-3.1,3.1-8.2,3.1-11.3,0c-4.8-4.8-11.2-7.5-18.1-7.5
	c-14.1,0-25.5,11.5-25.5,25.5s11.5,25.5,25.5,25.5c4.4,0,8,3.6,8,8S148,303.7,143.6,303.7z M143.6,281.3c-10.6,0-19.2-8.6-19.2-19.2
	c0-4.4,3.6-8,8-8s8,3.6,8,8c0,1.8,1.4,3.2,3.2,3.2c1.8,0,3.2-1.4,3.2-3.2c0-4.4,3.6-8,8-8s8,3.6,8,8
	C162.8,272.7,154.2,281.3,143.6,281.3z"></path>
<g>
	<path fill="#DB81DA" class="secondary-color" d="M19.3,177.3h21.8v56.9H19.3V177.3z M19.3,328.1h21.8v-56.9H19.3V328.1z M495.6,74.6V52.8h-56.9v21.8H495.6z
		"></path>
	<path fill="#DB81DA" class="secondary-color" d="M440.7,35.1V13.3h56.9v21.8H440.7z"></path>
</g>
<path d="M35.6,64c0-4.4,3.6-8,8-8c11.4,0,20.8-9.3,20.8-20.8c0-4.4,3.6-8,8-8s8,3.6,8,8C80.3,55.5,63.8,72,43.6,72
	C39.2,72,35.6,68.4,35.6,64z M122.3,72c4.4,0,8-3.6,8-8s-3.6-8-8-8c-11.4,0-20.8-9.3-20.8-20.8c0-4.4-3.6-8-8-8s-8,3.6-8,8
	C85.6,55.5,102.1,72,122.3,72z M93.6,122c4.4,0,8-3.6,8-8c0-11.4,9.3-20.8,20.8-20.8c4.4,0,8-3.6,8-8s-3.6-8-8-8
	c-20.3,0-36.8,16.5-36.8,36.8C85.6,118.4,89.2,122,93.6,122z M64.3,114c0,4.4,3.6,8,8,8s8-3.6,8-8c0-20.3-16.5-36.8-36.8-36.8
	c-4.4,0-8,3.6-8,8s3.6,8,8,8C55,93.2,64.3,102.5,64.3,114z M294,446.8H65.5c-4.4,0-8,3.6-8,8s3.6,8,8,8H294c4.4,0,8-3.6,8-8
	S298.4,446.8,294,446.8z M324,48.8c-5.9,0-10.8,4.8-10.8,10.8s4.8,10.8,10.8,10.8c5.9,0,10.8-4.8,10.8-10.8S329.9,48.8,324,48.8z
	 M455.5,444.1c-5.9,0-10.8,4.8-10.8,10.8c0,5.9,4.8,10.8,10.8,10.8c5.9,0,10.8-4.8,10.8-10.8C466.2,448.9,461.4,444.1,455.5,444.1z
	 M389.6,474h-3.9v-3.9c0-4.4-3.6-8-8-8s-8,3.6-8,8v3.9h-3.9c-4.4,0-8,3.6-8,8s3.6,8,8,8h3.9v3.9c0,4.4,3.6,8,8,8s8-3.6,8-8V490h3.9
	c4.4,0,8-3.6,8-8S394,474,389.6,474z"></path>
</svg>