<svg version="1.1" id="Layer_1" xmlns="http://www.w3.org/2000/svg" xmlns:xlink="http://www.w3.org/1999/xlink" x="0px" y="0px" viewBox="0 0 512 512" enable-background="new 0 0 512 512" xml:space="preserve">
<linearGradient id="SVGID_1_" gradientUnits="userSpaceOnUse" x1="353.7524" y1="456.3734" x2="353.7524" y2="87.2586" class="gradient-element">
	<stop offset="0" class="primary-color-gradient" style="stop-color: #FFA4ED"></stop>
	<stop offset="1" class="secondary-color-gradient" style="stop-color: #DB81DA"></stop>
</linearGradient>
<path fill="url(#SVGID_1_)" d="M457.6,198.7c0,90-69.3,149.5-165.3,231.8l-21,18c-4.9,4.2-12.1,7.3-16.9,3.1l0-3.1
	c-2.9-2.5-4.5-6.1-4.5-9.8V132.1c0-3.4,1.4-6.7,3.8-9.2l0,0c18.2-18.2,47.5-42.3,92.5-42.3C410.7,80.7,457.6,130.3,457.6,198.7z"></path>
<g>
	<path fill="#DB81DA" class="secondary-color" d="M53.9,61.8H19.2V27.1h34.7V61.8z M109.2,27.1H74.5v34.7h34.7V27.1z"></path>
	<path fill="#DB81DA" class="secondary-color" d="M258.4,475.1V488H21.3v-12.9H258.4z"></path>
</g>
<path d="M106.3,404.8c0,4.4-3.6,8-8,8h-3.9v3.9c0,4.4-3.6,8-8,8s-8-3.6-8-8v-3.9h-3.9c-4.4,0-8-3.6-8-8s3.6-8,8-8h3.9v-3.9
	c0-4.4,3.6-8,8-8s8,3.6,8,8v3.9h3.9C102.7,396.8,106.3,400.3,106.3,404.8z M420.1,64.9h3.9v3.9c0,4.4,3.6,8,8,8s8-3.6,8-8v-3.9h3.9
	c4.4,0,8-3.6,8-8s-3.6-8-8-8H440V45c0-4.4-3.6-8-8-8s-8,3.6-8,8v3.9h-3.9c-4.4,0-8,3.6-8,8S415.6,64.9,420.1,64.9z M419.1,438.1
	h59.2c4.4,0,8-3.6,8-8s-3.6-8-8-8h-59.2c-4.4,0-8,3.6-8,8S414.7,438.1,419.1,438.1z M476.8,468.4H349.6c-4.4,0-8,3.6-8,8s3.6,8,8,8
	h127.3c4.4,0,8-3.6,8-8S481.2,468.4,476.8,468.4z M71.7,274.6c0-4.4-3.6-8-8-8H44.1c-4.4,0-8,3.6-8,8s3.6,8,8,8h19.7
	C68.1,282.6,71.7,279,71.7,274.6z"></path>
<path d="M259.5,470.9c-1.9,0-3.7-0.6-5.2-1.9l-30.5-26.3C122.6,355.9,49.4,293.2,49.4,196.1c0-36.4,12.4-69.5,34.9-93.4
	c22.6-24,54.1-37.1,88.8-37.1c20.1,0,38.3,4,55.6,12.4c4,1.9,5.7,6.7,3.7,10.7c-1.9,4-6.7,5.7-10.7,3.7c-15.1-7.3-31-10.8-48.7-10.8
	c-62.4,0-107.7,48.2-107.7,114.5c0,89.8,70.8,150.5,168.8,234.5l25.3,21.8l25.3-21.8c98-84.1,168.8-144.8,168.8-234.5
	c0-66.4-45.3-114.5-107.6-114.5c-43.7,0-72.5,23.7-90.3,41.6l-9.9,9.9c-3.1,3.1-8.2,3.1-11.3,0c-3.1-3.1-3.1-8.2,0-11.3l9.9-9.9
	c19.8-19.9,52-46.3,101.7-46.3c34.6,0,66.2,13.2,88.8,37.1c22.5,23.8,34.9,57,34.9,93.4c0,97.1-73.1,159.8-174.3,246.7L264.8,469
	C263.3,470.3,261.4,470.9,259.5,470.9z"></path>
</svg>