<svg version="1.1" id="Layer_1" xmlns="http://www.w3.org/2000/svg" xmlns:xlink="http://www.w3.org/1999/xlink" x="0px" y="0px" viewBox="0 0 512 512" enable-background="new 0 0 512 512" xml:space="preserve">
<linearGradient id="SVGID_1_" gradientUnits="userSpaceOnUse" x1="280.6849" y1="376.25" x2="280.6849" y2="120.1535" class="gradient-element">
	<stop offset="0" class="primary-color-gradient" style="stop-color: #FFA4ED"></stop>
	<stop offset="1" class="secondary-color-gradient" style="stop-color: #DB81DA"></stop>
</linearGradient>
<path fill="url(#SVGID_1_)" d="M210.4,318.9c16.2,0,28,2.6,37.4,6.7c-29.8,1.9-42.7,13.8-56.4,26.2c-14.9,13.7-31.9,29.1-68.3,29.1
	c-0.3,0-13.9-0.2-29.6-7.6c25.4-3.9,39.3-16.5,51.7-27.9C160.1,331.8,174.3,318.9,210.4,318.9z M279.3,114.6
	c140.5,31.6,142.4,158.3,142.4,159.7c0,11.7-1.1,22.1-3,31.2c-1.7,8-4.6,15.7-8.8,22.7l-4.8,8.3c-11.2,19.2-30,32.7-51.8,36.7
	c-0.4,0.1-0.7,0.1-1,0.2c9.9,4.4,22,7.3,37.8,7.3c0.2,0,3.3,0,8.2-0.9c22.3-3.8,41.7-17.5,53.1-37l4.8-8.2
	c4.1-7.1,7.1-14.7,8.8-22.8c1.9-9.1,3-19.5,3-31.2C467.9,279.2,465.6,126.2,279.3,114.6z"></path>
<path d="M390,388.9c-39.7,0-58.5-17.3-73.7-31.2l-0.1,0c-14.3-13-26.7-24.3-59.7-24.3c-33,0-45.4,11.3-59.7,24.3
	c-15.2,14-34.1,31.3-73.7,31.3c-0.2,0-22.1-0.2-43.6-14.2c-19.3-12.6-42.3-39.1-42.3-93.9c0-1.1,1.3-114.1,116.4-158
	c4.1-1.6,8.8,0.5,10.3,4.6s-0.5,8.8-4.6,10.3c-43.2,16.5-74.2,45.3-92,85.6c-13.7,31-14.1,57.2-14.1,57.4c0,90,67.1,92,69.9,92.1
	c33.4,0,48.3-13.7,62.8-27c0,0,0.1-0.1,0.1-0.1c15.4-14,31.3-28.5,70.5-28.5c39.2,0,55.1,14.5,70.5,28.5l0.1,0.1
	c14.5,13.3,29.5,27.1,62.9,27.1c0.2,0,28.2-0.7,48.4-23.2c2.9-3.3,8-3.6,11.3-0.6c3.3,2.9,3.6,8,0.6,11.3
	C425.1,388.5,390.4,388.9,390,388.9z M460.8,334.8c-0.9,0-1.8-0.2-2.7-0.5c-4.2-1.5-6.3-6.1-4.8-10.2c4.4-12.3,6.7-26.9,6.7-43.3
	c0-0.4-0.7-40.6-26.4-80.3c-33.9-52.1-93.4-78.5-176.9-78.5c-27.7,0-53.2,3-75.8,9c-4.3,1.1-8.6-1.4-9.8-5.7
	c-1.1-4.3,1.4-8.6,5.7-9.8c24-6.3,50.9-9.5,79.9-9.5c49,0,91,9,124.8,26.7c27.5,14.4,49.6,34.5,65.9,59.7
	c28.3,43.9,28.6,87.9,28.6,88.4c0,18.2-2.6,34.6-7.6,48.7C467.1,332.7,464.1,334.8,460.8,334.8z M390,299.9
	c-22.8,0-41.4-18.6-41.4-41.4c0-22.8,18.6-41.4,41.4-41.4c22.8,0,41.4,18.6,41.4,41.4C431.4,281.3,412.8,299.9,390,299.9z
	 M390,233.2c-14,0-25.4,11.4-25.4,25.4c0,14,11.4,25.4,25.4,25.4c14,0,25.4-11.4,25.4-25.4C415.4,244.5,404,233.2,390,233.2z
	 M181.9,287.1h-28.5c-4.4,0-8-3.6-8-8v-20.5h-20.5c-4.4,0-8-3.6-8-8V222c0-4.4,3.6-8,8-8h20.5v-20.5c0-4.4,3.6-8,8-8h28.5
	c4.4,0,8,3.6,8,8V214h20.5c4.4,0,8,3.6,8,8c0,4.4-3.6,8-8,8h-28.5c-4.4,0-8-3.6-8-8v-20.5h-12.5V222c0,4.4-3.6,8-8,8h-20.5v12.5
	h20.5c4.4,0,8,3.6,8,8v20.5h12.5v-20.5c0-4.4,3.6-8,8-8h20.5v-1.9c0-4.4,3.6-8,8-8s8,3.6,8,8v9.9c0,4.4-3.6,8-8,8h-20.5v20.5
	C189.9,283.5,186.3,287.1,181.9,287.1z M317.3,255.4c-10.4,0-20.3-3.9-28-11c-3.2-3-3.4-8.1-0.5-11.3c3-3.2,8.1-3.5,11.3-0.5
	c4.7,4.3,10.8,6.7,17.2,6.7c14,0,25.4-11.4,25.4-25.4s-11.4-25.4-25.4-25.4c-14,0-25.4,11.4-25.4,25.4c0,4.4-3.6,8-8,8s-8-3.6-8-8
	c0-22.8,18.6-41.4,41.4-41.4c22.8,0,41.4,18.6,41.4,41.4S340.1,255.4,317.3,255.4z"></path>
<path d="M137.5,468.8c0,4.4-3.6,8-8,8H42.7c-4.4,0-8-3.6-8-8s3.6-8,8-8h86.8C133.9,460.8,137.5,464.4,137.5,468.8z M76.4,440.7
	c0-4.4-3.6-8-8-8H11c-4.4,0-8,3.6-8,8s3.6,8,8,8h57.4C72.8,448.7,76.4,445.1,76.4,440.7z M479.5,353.9c0-4-3.3-7.3-7.3-7.3h-79
	c-4,0-7.3,3.3-7.3,7.3s3.3,7.3,7.3,7.3h79C476.2,361.2,479.5,357.9,479.5,353.9z M479.6,321.4h-52.3c-4,0-7.3,3.3-7.3,7.3
	s3.3,7.3,7.3,7.3h52.3c4,0,7.3-3.3,7.3-7.3S483.6,321.4,479.6,321.4z M478.6,446.9c4.4,0,8-3.6,8-8s-3.6-8-8-8
	c-7.2,0-13.7,2.9-18.5,7.5c-4.8-4.7-11.3-7.5-18.5-7.5c-4.4,0-8,3.6-8,8s3.6,8,8,8c5.7,0,10.4,4.7,10.4,10.4s-4.7,10.4-10.4,10.4
	c-4.4,0-8,3.6-8,8s3.6,8,8,8c7.2,0,13.7-2.9,18.5-7.5c4.8,4.7,11.3,7.5,18.5,7.5c4.4,0,8-3.6,8-8s-3.6-8-8-8
	c-5.7,0-10.4-4.7-10.4-10.4S472.9,446.9,478.6,446.9z M304.5,410.8h-3.9v-3.9c0-4.4-3.6-8-8-8s-8,3.6-8,8v3.9h-3.9c-4.4,0-8,3.6-8,8
	s3.6,8,8,8h3.9v3.9c0,4.4,3.6,8,8,8s8-3.6,8-8v-3.9h3.9c4.4,0,8-3.6,8-8S309,410.8,304.5,410.8z M61.4,62.8
	c0-14.6,11.8-26.4,26.4-26.4s26.4,11.8,26.4,26.4s-11.8,26.4-26.4,26.4S61.4,77.4,61.4,62.8z M77.4,62.8c0,5.7,4.7,10.4,10.4,10.4
	s10.4-4.7,10.4-10.4s-4.7-10.4-10.4-10.4S77.4,57.1,77.4,62.8z M507.4,190.3c-28.7-57.1-71-82.3-72.8-83.3
	c-3.8-2.2-8.7-0.9-10.9,2.9s-0.9,8.7,2.9,10.9c0.4,0.2,40,23.8,66.6,76.7c1.4,2.8,4.2,4.4,7.2,4.4c1.2,0,2.4-0.3,3.6-0.9
	C507.8,199.1,509.4,194.3,507.4,190.3z M441.6,80.4h3.9v3.9c0,4.4,3.6,8,8,8s8-3.6,8-8v-3.9h3.9c4.4,0,8-3.6,8-8s-3.6-8-8-8h-3.9
	v-3.9c0-4.4-3.6-8-8-8s-8,3.6-8,8v3.9h-3.9c-4.4,0-8,3.6-8,8S437.2,80.4,441.6,80.4z"></path>
<g>
	<path fill="#FFA4ED" class="primary-color" d="M277.5,56.8V41h43.6v15.8H277.5z"></path>
	<path fill="#DB81DA" class="secondary-color" d="M207.5,56.8V41h43.6v15.8H207.5z"></path>
</g>
</svg>