<svg version="1.1" id="Layer_1" xmlns="http://www.w3.org/2000/svg" xmlns:xlink="http://www.w3.org/1999/xlink" x="0px" y="0px" viewBox="0 0 523.9 523.9" enable-background="new 0 0 523.9 523.9" xml:space="preserve">
<linearGradient id="SVGID_1_" gradientUnits="userSpaceOnUse" x1="345.5505" y1="395.3379" x2="347.8239" y2="79.3239" class="gradient-element">
	<stop offset="0" class="primary-color-gradient" style="stop-color: #FFA4ED"></stop>
	<stop offset="1" class="secondary-color-gradient" style="stop-color: #DB81DA"></stop>
</linearGradient>
<path fill="url(#SVGID_1_)" d="M425.8,377.6c-16.6,25.8-45,41.3-75.8,41.3c-17.3,0-34.1-4.9-48.6-14.3
	c-17.8-11.5-30.8-25.1-39.6-41.7l-7.3-13.7c-0.6-1-0.9-2.2-0.9-3.4V80.1c0-3.7,2.8-6.9,6.6-7.2c2.2-0.2,4.5-0.3,6.8-0.3
	c51.4,0,93.2,41.8,93.2,93.2c0,21-4.8,40.7-14.3,58.6v0c-2.3,4.3,0.3,9.7,5.1,10.5c17.9,3.2,34,9.2,47.9,18.2
	c20.2,13,34.1,33.1,39.2,56.6C443.2,333.3,438.8,357.4,425.8,377.6z"></path>
<path d="M185.5,424.2c-33.3,0-64-16.7-81.9-44.6c-14-21.8-18.7-47.9-13.2-73.3c5.5-25.4,20.6-47.2,42.4-61.2
	c14.4-9.2,30.9-15.6,49.3-19c-9.7-18.7-14.7-39.2-14.7-60.9c0-55.4,45.1-100.5,100.5-100.5s100.5,45.1,100.5,100.5c0,4.4-3.6,8-8,8
	s-8-3.6-8-8c0-46.6-37.9-84.5-84.5-84.5s-84.5,37.9-84.5,84.5c0,19.5,4.5,37.8,13.3,54.4l4.8,9c1.2,2.3,1.3,5.1,0,7.5
	c-1.2,2.3-3.5,3.9-6.2,4.2c-20.6,2.3-38.7,8.5-53.9,18.2c-18.2,11.7-30.8,29.9-35.4,51.2c-4.6,21.2-0.7,43,11.1,61.2
	c15,23.3,40.6,37.3,68.5,37.3c13.3,0,26.7-3.5,38.9-10.2c3.9-2.1,8.7-0.7,10.9,3.2c2.1,3.9,0.7,8.7-3.2,10.9
	C217.6,420,201.5,424.2,185.5,424.2z M341.9,469v-26.4c0-4.4-3.6-8-8-8h-44.8v-31.9c2.7,2.1,5.6,4.1,8.6,6
	c15.7,10.1,33.9,15.5,52.5,15.5c33.3,0,64-16.7,81.9-44.6c14.1-21.8,18.8-47.9,13.2-73.3c-5.5-25.4-20.6-47.2-42.4-61.2
	c-14.4-9.2-30.9-15.6-49.3-19c3.5-6.7,6.4-13.7,8.6-20.9c1.3-4.2-1-8.7-5.2-10c-4.2-1.3-8.7,1-10,5.2c-2.1,6.6-4.8,13-8,19.1l-4.8,9
	c-1.2,2.3-1.3,5.1,0,7.5c1.2,2.3,3.5,3.9,6.2,4.2c20.6,2.3,38.7,8.5,53.9,18.2c18.2,11.7,30.8,29.9,35.4,51.2
	c4.6,21.2,0.7,43-11,61.3c-15,23.3-40.6,37.3-68.5,37.3c-15.6,0-30.8-4.5-43.9-12.9c-7.3-4.7-13.7-9.8-19.6-15.7
	c-2.3-2.3-5.7-3-8.7-1.7c-3,1.2-4.9,4.2-4.9,7.4v57.4c0,4.4,3.6,8,8,8h44.8V461H209.8v-10.4h44.8c4.4,0,8-3.6,8-8v-57
	c0-4.4-3.6-8-8-8c-4.4,0-8,3.6-8,8v49h-44.8c-4.4,0-8,3.6-8,8V469c0,4.4,3.6,8,8,8h132.1C338.3,477,341.9,473.4,341.9,469z"></path>
<path d="M513.5,332.8c0,4.4-3.6,8-8,8h-15.8v15.8c0,4.4-3.6,8-8,8s-8-3.6-8-8v-15.8H458c-4.4,0-8-3.6-8-8s3.6-8,8-8h15.8v-15.8
	c0-4.4,3.6-8,8-8s8,3.6,8,8v15.8h15.8C509.9,324.8,513.5,328.4,513.5,332.8z M122.7,78.4c-5.9,0-10.7,4.8-10.7,10.7
	s4.8,10.7,10.7,10.7s10.7-4.8,10.7-10.7S128.6,78.4,122.7,78.4z M43.9,436.7c-4.4,0-8-3.6-8-8s3.6-8,8-8c11.4,0,20.7-9.3,20.7-20.7
	c0-4.4,3.6-8,8-8s8,3.6,8,8C80.7,420.2,64.2,436.7,43.9,436.7z M130.7,428.7c0-4.4-3.6-8-8-8c-11.4,0-20.7-9.3-20.7-20.7
	c0-4.4-3.6-8-8-8s-8,3.6-8,8c0,20.3,16.5,36.7,36.7,36.7C127.1,436.7,130.7,433.1,130.7,428.7z M101.9,478.7
	c0-11.4,9.3-20.7,20.7-20.7c4.4,0,8-3.6,8-8s-3.6-8-8-8c-20.3,0-36.7,16.5-36.7,36.7c0,4.4,3.6,8,8,8S101.9,483.1,101.9,478.7z
	 M80.7,478.7c0-20.3-16.5-36.7-36.7-36.7c-4.4,0-8,3.6-8,8s3.6,8,8,8c11.4,0,20.7,9.3,20.7,20.7c0,4.4,3.6,8,8,8
	S80.7,483.1,80.7,478.7z M375.3,210.8h-73.8c-4.4,0-8-3.6-8-8s3.6-8,8-8h73.8c4.4,0,8,3.6,8,8S379.7,210.8,375.3,210.8z
	 M414.8,166.1c0-4.4-3.6-8-8-8h-63.1c-4.4,0-8,3.6-8,8s3.6,8,8,8h63.1C411.2,174.1,414.8,170.5,414.8,166.1z M450.2,453.6
	c-5.9,0-10.7,4.8-10.7,10.7c0,5.9,4.8,10.7,10.7,10.7c5.9,0,10.7-4.8,10.7-10.7C460.9,458.4,456.1,453.6,450.2,453.6z"></path>
<g>
	<path fill="#FFA4ED" class="primary-color" d="M66.2,33v34.7H31.6V33H66.2z"></path>
	<path fill="#DB81DA" class="secondary-color" d="M37.3,119.6l57.8,57.8l-57.8,57.8V119.6z"></path>
</g>
</svg>