<svg version="1.1" id="Layer_1" xmlns="http://www.w3.org/2000/svg" xmlns:xlink="http://www.w3.org/1999/xlink" x="0px" y="0px" viewBox="0 0 512 512" enable-background="new 0 0 512 512" xml:space="preserve">
<linearGradient id="SVGID_1_" gradientUnits="userSpaceOnUse" x1="349.4265" y1="400.6167" x2="338.058" y2="114.1325" class="gradient-element">
	<stop offset="0" class="primary-color-gradient" style="stop-color: #FFA4ED"></stop>
	<stop offset="1" class="secondary-color-gradient" style="stop-color: #DB81DA"></stop>
</linearGradient>
<path fill="url(#SVGID_1_)" d="M438.1,314.8c0,59.7-41,103.1-97.4,103.1c-30.3,0-55.2-11.4-80.6-36.8l-3.8-3.8V81.7
	c1.1-1.2,2.2-2.4,3.3-3.7l9.7-10.8l9.7,10.8c21,23.4,40,43.7,56.9,61.5C401.8,209.7,438.1,248.3,438.1,314.8z"></path>
<path d="M197.8,425.9c-29.5,0-56.4-11.2-75.7-31.7c-19.2-20.3-29.7-48.5-29.7-79.5c0-7,0.4-13.8,1.2-20.3c1-8.4,2.6-16.4,4.9-24.4
	c1.2-4.2,5.7-6.7,9.9-5.5c4.2,1.2,6.7,5.7,5.4,9.9c-2.1,7.1-3.5,14.2-4.4,21.8c-0.7,5.9-1.1,12.1-1.1,18.5
	c0,55.1,37.6,95.1,89.4,95.1c10.4,0,20.5-1.6,30-4.7c4.2-1.4,8.7,0.9,10.1,5.1c1.4,4.2-0.9,8.7-5.1,10.1
	C221.7,424.1,210,425.9,197.8,425.9z M342.2,469.9v-26c0-4.4-3.6-8-8-8h-44v-22c15.6,8,32.2,12,50.5,12c29.5,0,56.4-11.2,75.7-31.7
	c19.2-20.3,29.7-48.5,29.7-79.5c0-33.1-8.5-61-27.7-90.6c-17.7-27.3-43.8-55.1-76.8-90.2c-15.8-16.8-35.5-37.7-56.7-61.4l-9.7-10.8
	c-1.5-1.7-3.7-2.7-6-2.7l0,0c-2.3,0-4.4,1-6,2.7l-9.7,10.8c-20.9,23.3-39.9,43.5-56.6,61.3l-0.1,0.1
	c-38.1,40.5-65.7,69.8-83.3,100.8c-2.2,3.8-0.8,8.7,3,10.9c3.8,2.2,8.7,0.8,10.9-3c16.7-29.3,43.7-58,81-97.8l0.1-0.1
	c16.8-17.9,35.9-38.1,56.9-61.6l3.7-4.1l3.7,4.1c21.3,23.8,41.1,44.8,57,61.7c64.6,68.7,100.2,106.5,100.2,169.8
	c0,55.1-37.6,95.1-89.4,95.1c-19.8,0-37.5-5.5-54-16.7c-2.5-1.7-5.6-1.8-8.2-0.5c-2.6,1.4-4.3,4.1-4.3,7.1v44c0,4.4,3.6,8,8,8h44v10
	H212.3v-10h44c4.4,0,8-3.6,8-8v-52c0-4.4-3.6-8-8-8s-8,3.6-8,8v44h-44c-4.4,0-8,3.6-8,8v26c0,4.4,3.6,8,8,8h129.9
	C338.6,477.9,342.2,474.3,342.2,469.9z"></path>
<path fill="#DB81DA" class="secondary-color" d="M467.1,98.7h21.8v56.9h-21.8V98.7z M356.9,21.9v21.8h56.9V21.9H356.9z M432,21.9v21.8h35.1v36.9h21.8V43.6
	v-20v-1.8H432z M34.8,396.9v81.8h81.8L34.8,396.9z"></path>
<path d="M89,106.8c-2,0-4.1-0.8-5.7-2.3L28.2,49.3c-3.1-3.1-3.1-8.2,0-11.3c3.1-3.1,8.2-3.1,11.3,0l55.2,55.2
	c3.1,3.1,3.1,8.2,0,11.3C93.1,106,91,106.8,89,106.8z M497.9,458c0-4.4-3.6-8-8-8h-23.8c-4.4,0-8,3.6-8,8s3.6,8,8,8h23.8
	C494.3,466,497.9,462.4,497.9,458z M486,469.9v-23.8c0-4.4-3.6-8-8-8s-8,3.6-8,8v23.8c0,4.4,3.6,8,8,8S486,474.3,486,469.9z
	 M163.6,242.6c0-4.4-3.6-8-8-8h-78c-4.4,0-8,3.6-8,8s3.6,8,8,8h78C160,250.6,163.6,247,163.6,242.6z M129.5,272.3c0-4.4-3.6-8-8-8
	h-78c-4.4,0-8,3.6-8,8s3.6,8,8,8h78C125.9,280.3,129.5,276.7,129.5,272.3z M176.5,119c3.1-3.1,3.1-8.2,0-11.3L106,37.2
	c-3.1-3.1-8.2-3.1-11.3,0c-3.1,3.1-3.1,8.2,0,11.3l70.5,70.5c1.6,1.6,3.6,2.3,5.7,2.3S174.9,120.5,176.5,119z M422.8,102
	c0-5-4-9-9-9c-5,0-9,4-9,9c0,5,4,9,9,9C418.8,110.9,422.8,106.9,422.8,102z"></path>
</svg>