<svg version="1.1" id="Layer_1" xmlns="http://www.w3.org/2000/svg" xmlns:xlink="http://www.w3.org/1999/xlink" x="0px" y="0px" viewBox="0 0 512 512" enable-background="new 0 0 512 512" xml:space="preserve">
<linearGradient id="SVGID_1_" gradientUnits="userSpaceOnUse" x1="88.5832" y1="283.9613" x2="440.4144" y2="283.9613" class="gradient-element">
	<stop offset="0" class="primary-color-gradient" style="stop-color: #FFA4ED"></stop>
	<stop offset="1" class="secondary-color-gradient" style="stop-color: #DB81DA"></stop>
</linearGradient>
<path fill="url(#SVGID_1_)" d="M227.8,421.1H126.6c-13.1,0-11.8-6.8-20.3-14c-8.9-7.4-17.7-24.5-17.7-25.9c0-21.1,17-19.9,42.2-19.9
	h188.3c28.3,0,48.1-2.4,48.1-26.1L367,188.8c0-23.7,15.3-42,43.7-42l0,0c12.2,0,29.8,8.2,29.8,18.4V377c0,33.2-32.2,44.1-71.9,44.1
	H227.8z M221,407.1"></path>
<path d="M391.2,429H137.8c-5,0-22.4-0.9-38-12.3c-10.4-7.6-22.8-22.2-22.8-48.5V252.1c0-4.4,3.6-8,8-8s8,3.6,8,8v116.1
	c0,44.3,42.9,44.8,44.8,44.8h253.3c44.3,0,44.8-42.9,44.8-44.8v-29.5c0-4.4,3.6-8,8-8s8,3.6,8,8v29.5c0,5-0.9,22.4-12.3,38
	C432.1,416.6,417.5,429,391.2,429z M296.2,407.9c-4.4,0-8-3.6-8-8V231c0-4.4,3.6-8,8-8h105.6c4.4,0,8,3.6,8,8s-3.6,8-8,8h-97.6
	v160.9C304.2,404.3,300.6,407.9,296.2,407.9z M232.8,407.9c-4.4,0-8-3.6-8-8V239H85.1c-4.4,0-8-3.6-8-8v-52.8
	c0-19.2,13.9-39.7,39.7-39.7h27.7c-2.7-7.1-4-15-4-23.7c0-26.3,12.4-40.9,22.8-48.5c15.6-11.4,33-12.3,38-12.3s22.4,0.9,38,12.3
	c10.4,7.6,22.8,22.2,22.8,48.5v23.7h5.1v-23.7c0-26.3,12.4-40.9,22.8-48.5c15.6-11.4,33-12.3,38-12.3s22.4,0.9,38,12.3
	c10.4,7.6,22.8,22.2,22.8,48.5c0,8.7-1.3,16.6-4,23.7h27.7c19.2,0,39.7,13.9,39.7,39.7v123.2c0,4.4-3.6,8-8,8s-8-3.6-8-8V178.2
	c0-18.7-15.5-23.7-23.7-23.7h-41c-3,0-5.8-1.7-7.1-4.4s-1.1-5.9,0.7-8.3c5.1-7.1,7.8-16.2,7.8-27c0-44.3-42.9-44.8-44.8-44.8
	s-44.8,0.5-44.8,44.8v31.7c0,4.4-3.6,8-8,8h-21.1c-4.4,0-8-3.6-8-8v-31.7c0-44.3-42.9-44.8-44.8-44.8s-44.8,0.5-44.8,44.8
	c0,10.8,2.6,19.9,7.8,27c1.8,2.4,2,5.7,0.7,8.3s-4.1,4.4-7.1,4.4h-41c-18.7,0-23.7,15.5-23.7,23.7V223h139.8c4.4,0,8,3.6,8,8v168.9
	C240.8,404.3,237.3,407.9,232.8,407.9z M327.7,154.6h-31.6c-4.4,0-8-3.6-8-8v-31.7c0-4.4,3.6-8,8-8s8,3.6,8,8v23.7h23.5
	c8.9-0.2,23.8-3.5,23.8-23.7c0-4.4,3.6-8,8-8s8,3.6,8,8c0,28.7-21.3,39.3-39.6,39.7C327.8,154.6,327.8,154.6,327.7,154.6z
	 M232.8,154.6h-31.6c-4.4,0-8-3.6-8-8s3.6-8,8-8h23.6v-23.7c0-20.2-15-23.5-23.9-23.7c-4.4-0.1-7.9-3.7-7.8-8.2
	c0.1-4.4,3.6-7.8,8-7.8c0.1,0,0.1,0,0.2,0c18.3,0.4,39.6,10.9,39.6,39.7v31.7C240.8,151,237.3,154.6,232.8,154.6z"></path>
<path d="M499.7,346.7h-86.8c-4.4,0-8-3.6-8-8s3.6-8,8-8h86.8c4.4,0,8,3.6,8,8S504.1,346.7,499.7,346.7z M467.1,301.4
	c0-4.4-3.6-8-8-8h-73.8c-4.4,0-8,3.6-8,8s3.6,8,8,8h73.8C463.5,309.4,467.1,305.8,467.1,301.4z M480.3,59.4
	c0-14.6-11.8-26.4-26.4-26.4s-26.4,11.8-26.4,26.4s11.8,26.4,26.4,26.4S480.3,74,480.3,59.4z M464.3,59.4c0,5.7-4.7,10.4-10.4,10.4
	s-10.4-4.7-10.4-10.4S448.2,49,453.9,49S464.3,53.7,464.3,59.4z M70.6,85.2c0-4.4-3.6-8-8-8H38.8c-4.4,0-8,3.6-8,8s3.6,8,8,8h23.8
	C67,93.2,70.6,89.6,70.6,85.2z M58.7,97.1V73.3c0-4.4-3.6-8-8-8s-8,3.6-8,8v23.8c0,4.4,3.6,8,8,8S58.7,101.5,58.7,97.1z"></path>
<path fill="#FFA4ED" class="primary-color" d="M144.1,469v24.4H50.4H34.1h-8v-110h24.4V469H144.1z"></path>
</svg>