<svg version="1.1" id="Layer_1" xmlns="http://www.w3.org/2000/svg" xmlns:xlink="http://www.w3.org/1999/xlink" x="0px" y="0px" viewBox="0 0 512 512" enable-background="new 0 0 512 512" xml:space="preserve">
<g>
	<linearGradient id="SVGID_1_" gradientUnits="userSpaceOnUse" x1="367.8358" y1="490.8966" x2="367.8358" y2="326.5139" class="gradient-element">
		<stop offset="0" class="primary-color-gradient" style="stop-color: #FFA4ED"></stop>
		<stop offset="1" class="secondary-color-gradient" style="stop-color: #DB81DA"></stop>
	</linearGradient>
	<path fill="url(#SVGID_1_)" d="M474.1,490.7H327.8c-36.6,0-66.3-27.8-66.3-62v-43.2c0-23.4,16.4-43.8,40.2-50.9
		c5-1.5,10.3-3.3,15.7-5.4c0,0,6.1,25.3,66.4,49.9C444.1,403.7,467.6,421,474.1,490.7z"></path>
	<linearGradient id="SVGID_2_" gradientUnits="userSpaceOnUse" x1="361.959" y1="219.5766" x2="261.5856" y2="219.5766">
		<stop offset="0" class="primary-color-gradient" style="stop-color: #FFA4ED"></stop>
		<stop offset="1" class="secondary-color-gradient" style="stop-color: #DB81DA"></stop>
	</linearGradient>
	<path fill="url(#SVGID_2_)" d="M262.7,99.4c10.9,40.7,93.1,90.1,93.1,90.1s9.4-9.7,0,68c-5.4,44.9-36.2,68.5-61.2,80.3
		c-15.5,7.3-33.4-3.9-33.4-20.8V123.1C261.2,123.1,261.7,95.6,262.7,99.4z"></path>
</g>
<path d="M318.1,173.2c-26.7-16.8-49.8-31.4-63.1-76.1c-1.3-4.2,1.1-8.7,5.4-10c4.2-1.3,8.7,1.1,10,5.4c11.6,39,30.4,50.8,56.3,67.1
	c11.7,7.4,25,15.8,38.9,27.8c2.2,1.4,3.7,3.9,3.7,6.7v39.1c0,12.6-2.1,25.1-6.3,37.3c-1.1,3.3-4.2,5.4-7.6,5.4
	c-0.9,0-1.7-0.1-2.6-0.4c-4.2-1.4-6.4-6-5-10.2c3.6-10.5,5.5-21.3,5.5-32.1v-35.3C341,187.6,329.4,180.3,318.1,173.2z M286.4,329.4
	c-21.2,7.8-49.8,7.8-71,0c-4.2-1.5-8.7,0.6-10.3,4.8c-1.5,4.2,0.6,8.7,4.8,10.3c12.5,4.5,26.7,6.8,41,6.8c14.3,0,28.5-2.3,41-6.8
	c4.1-1.5,6.3-6.1,4.8-10.3C295.2,330,290.6,327.9,286.4,329.4z M338.7,365.7c3.9,2.1,8,4.2,12,6c1.7,0.8,3.4,1.6,5,2.4
	c1.3,0.6,2.6,1.2,3.8,1.8c1.1,0.5,2.3,0.8,3.4,0.8c3,0,5.9-1.7,7.2-4.6c1.9-4,0.2-8.8-3.8-10.7c-1.3-0.6-2.6-1.2-3.9-1.9
	c-1.6-0.7-3.2-1.5-5-2.3c-3.8-1.8-7.5-3.7-11.2-5.7c0,0-0.1,0-0.1-0.1c-21.2-11.2-24.9-15.9-25.7-22.5c11.3-8.3,20.9-18.5,28.7-30.3
	c2.4-3.7,1.4-8.7-2.3-11.1c-3.7-2.4-8.7-1.4-11.1,2.3c-7.5,11.4-17,21-28.1,28.6c-2.3,1.5-3.6,4.2-3.5,6.9
	C304.9,343.6,311.6,351.5,338.7,365.7z M448.9,407.5c-9.2-8.1-18.3-13.1-24.4-16c3.5-16.6,8.7-62.8,3.2-185.5
	c-3.1-67.2-33.6-106.8-58.7-128.2c-32.1-27.3-75.2-40.9-115.5-36.6c-6-0.5-41.1-2.8-78.3,9.4C137.5,63.1,91,93.3,83.3,166.2
	c-6.9,65.1,9.8,114.7,25,144.8c12.8,25.5,26.7,41.6,32.6,47.9c-0.6,0.3-1.1,0.5-1.7,0.8c-1.3,0.6-2.5,1.2-3.8,1.8
	C94.6,380.7,69.1,396.6,59.2,476l-1.7,13.7c-0.3,2.3,0.4,4.6,1.9,6.3s3.7,2.7,6,2.7h371c4.4,0,8-3.6,8-8s-3.6-8-8-8H74.5l0.6-4.7
	c8.9-71.4,29.2-84.1,67.2-102c1.2-0.6,2.4-1.2,3.7-1.7c1.7-0.8,3.4-1.6,5.1-2.4c4.1-1.9,8.1-3.9,12-6.1
	c27.1-14.2,33.9-22.1,34.5-40.2c0.1-2.8-1.2-5.4-3.5-6.9c-27.7-18.8-45.5-52.3-45.5-85.3c0-4.4-3.6-8-8-8s-8,3.6-8,8
	c0,37.3,18.6,73.6,48.8,95.9c-0.8,6.5-4.5,11.3-25.5,22.3c-0.3-0.4-0.7-0.8-1.1-1.2c-0.7-0.6-67.8-65.3-55.5-182.3
	c5-47.8,28.6-80.7,70.2-98c-2,1.6-3.9,3.2-5.8,5c-20.9,19.5-31.1,47.9-31.1,86.6c0,4.4,3.6,8,8,8s8-3.6,8-8c0-34.1,8.5-58.6,26-74.9
	c16.7-15.6,42.1-24.9,79.7-29.3c0,0,0.1,0,0.1,0c0,0,0,0,0,0c36.3-4.2,75.2,8.1,104.2,32.8c22.7,19.3,50.3,55.2,53.1,116.7
	c7.2,157.6-3.6,185-4,186.1c0.1-0.2,0.2-0.4,0.2-0.4l0,0c-0.2,0.4-0.4,0.8-0.6,1.3c-1.4,4.2,1,8.7,5.2,10.1
	c0.1,0,13.3,4.4,26.4,16.1c17.2,15.4,26.4,35.7,27.3,60.4c0.2,4.3,3.7,7.7,8,7.7c0.1,0,0.2,0,0.3,0c4.4-0.2,7.9-3.9,7.7-8.3
	C480.8,442.9,463.4,420.1,448.9,407.5z"></path>
<path d="M465.9,396.2c0,4.4-3.6,8-8,8h-43c-4.4,0-8-3.6-8-8s3.6-8,8-8h43C462.3,388.2,465.9,391.8,465.9,396.2z M107.3,427.3H33.5
	c-4.4,0-8,3.6-8,8s3.6,8,8,8h73.8c4.4,0,8-3.6,8-8S111.7,427.3,107.3,427.3z M423.1,72.7h15.8v15.8c0,4.4,3.6,8,8,8s8-3.6,8-8V72.7
	h15.8c4.4,0,8-3.6,8-8s-3.6-8-8-8h-15.8V40.9c0-4.4-3.6-8-8-8s-8,3.6-8,8v15.8h-15.8c-4.4,0-8,3.6-8,8S418.7,72.7,423.1,72.7z
	 M12.9,333.3c20.3,0,36.8-16.5,36.8-36.8c0-4.4-3.6-8-8-8s-8,3.6-8,8c0,11.4-9.3,20.8-20.8,20.8c-4.4,0-8,3.6-8,8
	S8.5,333.3,12.9,333.3z M91.6,317.3c-11.4,0-20.8-9.3-20.8-20.8c0-4.4-3.6-8-8-8s-8,3.6-8,8c0,20.3,16.5,36.8,36.8,36.8
	c4.4,0,8-3.6,8-8S96.1,317.3,91.6,317.3z M91.6,338.6c-20.3,0-36.8,16.5-36.8,36.8c0,4.4,3.6,8,8,8s8-3.6,8-8
	c0-11.4,9.3-20.8,20.8-20.8c4.4,0,8-3.6,8-8S96.1,338.6,91.6,338.6z M33.6,375.3c0,4.4,3.6,8,8,8s8-3.6,8-8
	c0-20.3-16.5-36.8-36.8-36.8c-4.4,0-8,3.6-8,8s3.6,8,8,8C24.3,354.6,33.6,363.9,33.6,375.3z M477,351.2c-5.9,0-10.8,4.8-10.8,10.8
	c0,5.9,4.8,10.8,10.8,10.8c5.9,0,10.8-4.8,10.8-10.8C487.8,356,482.9,351.2,477,351.2z M23.2,33.1H97c4.4,0,8-3.6,8-8s-3.6-8-8-8
	H23.2c-4.4,0-8,3.6-8,8S18.7,33.1,23.2,33.1z M65.4,52.8c-4.4,0-8,3.6-8,8s3.6,8,8,8h36.9c4.4,0,8-3.6,8-8s-3.6-8-8-8H65.4z"></path>
<g>
	<path fill="#DB81DA" class="secondary-color" d="M59.5,217.6H24.2v-22.5h35.2V217.6z"></path>
	<path fill="#FFA4ED" class="primary-color" d="M59.5,171.5H24.2v-21.6h35.2V171.5z"></path>
</g>
</svg>