<svg version="1.1" id="Layer_1" xmlns="http://www.w3.org/2000/svg" xmlns:xlink="http://www.w3.org/1999/xlink" x="0px" y="0px" viewBox="0 0 512 512" enable-background="new 0 0 512 512" xml:space="preserve">
<linearGradient id="SVGID_1_" gradientUnits="userSpaceOnUse" x1="294.1927" y1="400.0302" x2="294.1927" y2="146.0302" class="gradient-element">
	<stop offset="0" class="primary-color-gradient" style="stop-color: #FFA4ED"></stop>
	<stop offset="1" class="secondary-color-gradient" style="stop-color: #DB81DA"></stop>
</linearGradient>
<path fill="url(#SVGID_1_)" d="M495.4,128.1v297.1l-62.2-76.4V188.1L299.7,316.9l-0.2,0.2c-3,3.2-8,3.1-10.9-0.2l0,0L157.2,190.1
	v154.6L95,425.2V130.1l-2-2h2h60.1h2v2l137,132.2l139.1-134.1H495.4z"></path>
<path d="M494.4,436.7H93.6c-4.4,0-8-3.6-8-8c0-0.2,0-0.3,0-0.5c-0.1-1.8,0.5-3.6,1.7-5.1l128.1-166L101.6,151v227c0,4.4-3.6,8-8,8
	s-8-3.6-8-8V132.6c0,0,0,0,0-0.1v-4.4c0-4.4,3.6-8,8-8h400.8c4.4,0,8,3.6,8,8c0,0.8-0.1,1.5-0.3,2.2c0.8,2.8,0,5.9-2.2,8.1
	L372.6,257.1l113.8,147.4V171.5c0-4.4,3.6-8,8-8s8,3.6,8,8v257.3C502.4,433.2,498.8,436.7,494.4,436.7z M109.9,420h368.2
	L360.8,268.1l-61.4,57.2c-3.1,2.9-7.8,2.9-10.9,0l-61.4-57.2L109.9,420z M109.1,136.1L294,308.5l184.8-172.4H109.1z"></path>
<g>
	<path fill="#DB81DA" class="secondary-color" d="M33.6,440.3h21.8v56.9H33.6V440.3z M73.9,79.9V58.1H17v21.8H73.9z"></path>
	<path fill="#FFA4ED" class="primary-color" d="M19,40.4V18.6H76v21.8H19z"></path>
</g>
<path d="M54.5,381.3c0,4.4-3.6,8-8,8h-3.9v3.9c0,4.4-3.6,8-8,8s-8-3.6-8-8v-3.9h-3.9c-4.4,0-8-3.6-8-8s3.6-8,8-8h3.9v-3.9
	c0-4.4,3.6-8,8-8s8,3.6,8,8v3.9h3.9C50.9,373.3,54.5,376.8,54.5,381.3z M495.4,44.2h-15.8V28.4c0-4.4-3.6-8-8-8s-8,3.6-8,8v15.8
	h-15.8c-4.4,0-8,3.6-8,8s3.6,8,8,8h15.8v15.8c0,4.4,3.6,8,8,8s8-3.6,8-8V60.2h15.8c4.4,0,8-3.6,8-8S499.8,44.2,495.4,44.2z
	 M320.3,60.2h87.6c4.4,0,8-3.6,8-8s-3.6-8-8-8h-87.6c-4.4,0-8,3.6-8,8S315.9,60.2,320.3,60.2z M417.2,473.2H239.6c-4.4,0-8,3.6-8,8
	s3.6,8,8,8h177.6c4.4,0,8-3.6,8-8S421.6,473.2,417.2,473.2z M181.9,481.2c0,5-4.1,9-9,9s-9-4.1-9-9s4.1-9,9-9
	S181.9,476.2,181.9,481.2z M211.9,481.2c0,5-4.1,9-9,9s-9-4.1-9-9s4.1-9,9-9S211.9,476.2,211.9,481.2z M198.2,58.1
	c0-14.6-11.8-26.4-26.4-26.4s-26.4,11.8-26.4,26.4c0,4.4,3.6,8,8,8s8-3.6,8-8c0-5.7,4.7-10.4,10.4-10.4c5.7,0,10.4,4.7,10.4,10.4
	c0,4.4,3.6,8,8,8S198.2,62.5,198.2,58.1z"></path>
</svg>