<svg version="1.1" id="Layer_1" xmlns="http://www.w3.org/2000/svg" xmlns:xlink="http://www.w3.org/1999/xlink" x="0px" y="0px" viewBox="0 0 512 512" enable-background="new 0 0 512 512" xml:space="preserve">
<linearGradient id="SVGID_1_" gradientUnits="userSpaceOnUse" x1="289.0212" y1="372.0501" x2="295.8423" y2="176.5133" class="gradient-element">
	<stop offset="0" class="primary-color-gradient" style="stop-color: #FFA4ED"></stop>
	<stop offset="1" class="secondary-color-gradient" style="stop-color: #DB81DA"></stop>
</linearGradient>
<path fill="url(#SVGID_1_)" d="M481.5,351.6c-6.8,9.9-18.1,15.8-30.2,15.8H104.5c-8.7,0-14.7-8.7-11.7-16.8l54.3-146
	c1.8-4.9,6.5-8.1,11.7-8.1h13.3c8.7,0,14.7,8.7,11.7,16.8l-42,112.9c-3,8.2,3,16.8,11.7,16.8h8.8c5.2,0,9.9-3.2,11.7-8.1l48.5-130.3
	c1.8-4.9,6.5-8.1,11.7-8.1h197.2c5.2,0,9.9,3.2,11.7,8.1l42.5,113.4C489.9,329.1,488.3,341.7,481.5,351.6z"></path>
<path d="M488.1,356.2c-8.3,12-22.1,19.2-36.7,19.2H60.4c-14.6-0.1-28.2-7.3-36.5-19.2c-8.4-12.1-10.3-27.5-5.1-41.1l54.9-146.5
	c6.4-17.3,23.2-29,41.8-29h0.6c4.4,0,8,3.6,8,8s-3.6,8-8,8h-0.6c-12,0-22.7,7.5-26.8,18.6l-55,146.6c-3.3,8.8-2.1,18.6,3.2,26.3
	c5.3,7.6,14.1,12.2,23.4,12.3h390.8c9.4,0,18.2-4.6,23.6-12.3c5.4-7.7,6.6-17.6,3.2-26.3l-13.5-36.1c-1.6-4.1,0.5-8.7,4.7-10.3
	c4.1-1.6,8.7,0.5,10.3,4.7l13.5,36C498.3,328.7,496.4,344.1,488.1,356.2z M226.1,155.6h170.3c12,0,22.7,7.5,26.8,18.6l9.4,25
	l18.2,48.6c1.2,3.2,4.3,5.2,7.5,5.2c0.9,0,1.9-0.2,2.8-0.5c4.1-1.6,6.2-6.2,4.7-10.3l-18.2-48.6l-9.4-25
	c-6.4-17.4-23.2-29.1-41.8-29.1H226.1c-4.4,0-8,3.6-8,8S221.6,155.6,226.1,155.6z"></path>
<g>
	<path fill="#DB81DA" class="secondary-color" d="M419.3,28.7h27.4v27.4h-27.4V28.7z M488,56.1V28.7h-27.4v27.4H488z M488,98.3V70.8h-27.4v27.4H488z"></path>
	<path fill="#DB81DA" class="secondary-color" d="M88.2,64.3H67.8v20.4H51.4V64.3H31V47.9h20.4V27.5h16.4v20.4h20.4V64.3z"></path>
</g>
<path d="M496.9,245c0,4.4-3.6,8-8,8h-56.7c-4.4,0-8-3.6-8-8s3.6-8,8-8h56.7C493.3,237,496.9,240.6,496.9,245z M448.7,145h3.9v3.9
	c0,4.4,3.6,8,8,8s8-3.6,8-8V145h3.9c4.4,0,8-3.6,8-8s-3.6-8-8-8h-3.9v-3.9c0-4.4-3.6-8-8-8s-8,3.6-8,8v3.9h-3.9c-4.4,0-8,3.6-8,8
	S444.3,145,448.7,145z M78.7,450.4H63v-15.8c0-4.4-3.6-8-8-8s-8,3.6-8,8v15.8H31.2c-4.4,0-8,3.6-8,8s3.6,8,8,8H47v15.8
	c0,4.4,3.6,8,8,8s8-3.6,8-8v-15.8h15.8c4.4,0,8-3.6,8-8S83.2,450.4,78.7,450.4z M481.8,273.9h-97.6c-4.4,0-8,3.6-8,8s3.6,8,8,8h97.6
	c4.4,0,8-3.6,8-8S486.2,273.9,481.8,273.9z M476.8,456.3h-87.6c-4.4,0-8,3.6-8,8s3.6,8,8,8h87.6c4.4,0,8-3.6,8-8
	S481.2,456.3,476.8,456.3z M152,89.6c-4.4,0-8,3.6-8,8c0,11.4-9.3,20.8-20.8,20.8c-4.4,0-8,3.6-8,8s3.6,8,8,8
	c20.3,0,36.8-16.5,36.8-36.8C160,93.2,156.4,89.6,152,89.6z M202,118.4c-11.4,0-20.8-9.3-20.8-20.8c0-4.4-3.6-8-8-8s-8,3.6-8,8
	c0,20.3,16.5,36.8,36.8,36.8c4.4,0,8-3.6,8-8S206.4,118.4,202,118.4z M202,139.6c-20.3,0-36.8,16.5-36.8,36.8c0,4.4,3.6,8,8,8
	s8-3.6,8-8c0-11.4,9.3-20.8,20.8-20.8c4.4,0,8-3.6,8-8S206.4,139.6,202,139.6z M123.3,139.6c-4.4,0-8,3.6-8,8s3.6,8,8,8
	c11.4,0,20.8,9.3,20.8,20.8c0,4.4,3.6,8,8,8s8-3.6,8-8C160,156.1,143.5,139.6,123.3,139.6z M252.6,427.5c0,5-4.1,9-9,9s-9-4.1-9-9
	s4.1-9,9-9S252.6,422.5,252.6,427.5z M302.8,426.5c0,5-4.1,9-9,9s-9-4.1-9-9s4.1-9,9-9S302.8,421.5,302.8,426.5z M191.9,420.5H188
	v-3.9c0-4.4-3.6-8-8-8c-4.4,0-8,3.6-8,8v3.9h-3.9c-4.4,0-8,3.6-8,8s3.6,8,8,8h3.9v3.9c0,4.4,3.6,8,8,8c4.4,0,8-3.6,8-8v-3.9h3.9
	c4.4,0,8-3.6,8-8S196.3,420.5,191.9,420.5z"></path>
</svg>