<svg version="1.1" id="Layer_1" xmlns="http://www.w3.org/2000/svg" xmlns:xlink="http://www.w3.org/1999/xlink" x="0px" y="0px" viewBox="0 0 512 512" enable-background="new 0 0 512 512" xml:space="preserve">
<g>
	<path fill="#FFA4ED" class="primary-color" d="M157.8,36.3V21.7h14.6v14.6H157.8z"></path>
	<path fill="#FFA4ED" class="primary-color" d="M32.4,36.3V21.7h101.8v14.6H32.4z"></path>
</g>
<path d="M405.3,50.3c0-4.4,3.6-8,8-8c11.4,0,20.8-9.3,20.8-20.8c0-4.4,3.6-8,8-8s8,3.6,8,8c0,20.3-16.5,36.8-36.8,36.8
	C408.8,58.3,405.3,54.7,405.3,50.3z M492,58.3c4.4,0,8-3.6,8-8s-3.6-8-8-8c-11.4,0-20.8-9.3-20.8-20.8c0-4.4-3.6-8-8-8s-8,3.6-8,8
	C455.3,41.8,471.7,58.3,492,58.3z M463.3,108.3c4.4,0,8-3.6,8-8c0-11.4,9.3-20.8,20.8-20.8c4.4,0,8-3.6,8-8s-3.6-8-8-8
	c-20.3,0-36.8,16.5-36.8,36.8C455.3,104.7,458.8,108.3,463.3,108.3z M413.3,79.6c11.4,0,20.8,9.3,20.8,20.8c0,4.4,3.6,8,8,8
	s8-3.6,8-8c0-20.3-16.5-36.8-36.8-36.8c-4.4,0-8,3.6-8,8S408.8,79.6,413.3,79.6z M49,305.2c0,5-4.1,9-9,9s-9-4.1-9-9s4.1-9,9-9
	S49,300.2,49,305.2z M49,335.2c0,5-4.1,9-9,9s-9-4.1-9-9s4.1-9,9-9S49,330.2,49,335.2z M49,365.2c0,5-4.1,9-9,9s-9-4.1-9-9
	s4.1-9,9-9S49,360.2,49,365.2z M40,282.3c4.4,0,8-3.6,8-8v-87.6c0-4.4-3.6-8-8-8s-8,3.6-8,8v87.6C32,278.7,35.6,282.3,40,282.3z
	 M40,386.7c-4.4,0-8,3.6-8,8v87.6c0,4.4,3.6,8,8,8s8-3.6,8-8v-87.6C48,390.3,44.4,386.7,40,386.7z M493.7,343.8h-89.9
	c-4.4,0-8,3.6-8,8s3.6,8,8,8h89.9c4.4,0,8-3.6,8-8S498.1,343.8,493.7,343.8z M427.4,319.8c0-4.4-3.6-8-8-8H360c-4.4,0-8,3.6-8,8
	s3.6,8,8,8h59.5C423.9,327.8,427.4,324.3,427.4,319.8z M127,167.9h-16v-16c0-4.4-3.6-8-8-8s-8,3.6-8,8v16H79c-4.4,0-8,3.6-8,8
	s3.6,8,8,8h16v16c0,4.4,3.6,8,8,8s8-3.6,8-8v-16h16c4.4,0,8-3.6,8-8S131.4,167.9,127,167.9z"></path>
<g>
	<linearGradient id="SVGID_1_" gradientUnits="userSpaceOnUse" x1="347.2397" y1="279.0107" x2="221.254" y2="279.0107" class="gradient-element">
		<stop offset="0" class="primary-color-gradient" style="stop-color: #FFA4ED"></stop>
		<stop offset="1" class="secondary-color-gradient" style="stop-color: #DB81DA"></stop>
	</linearGradient>
	<path fill="url(#SVGID_1_)" d="M341,278.5c-6.5,54.7-54,74.2-74.5,80.1c9.3-0.1,18.3-1.6,24.9-5.4c22-12.9,0,15.9,0,15.9l-34,13.6
		l-36.6-21.8h2.7l-2.7-8.9c0,0,17.5,5.1,36.3,6.4c0,0-0.1-145.3,0-145.3c3.5,0.2,83.9-37.6,83.9-37.6S349.3,208.4,341,278.5z"></path>
	<linearGradient id="SVGID_2_" gradientUnits="userSpaceOnUse" x1="308.2422" y1="513.0206" x2="308.2422" y2="359.7798">
		<stop offset="0" class="primary-color-gradient" style="stop-color: #FFA4ED"></stop>
		<stop offset="1" class="secondary-color-gradient" style="stop-color: #DB81DA"></stop>
	</linearGradient>
	<path fill="url(#SVGID_2_)" d="M256,493v-80l-16.1-3.1l-50.4-22.8V352l67.9,30.7l47-21.2l20.9-9.4v29.2c4.8,3,10.5,6,17.3,8.9
		c47.4,20.7,79.3,40.3,84.4,98.9L256,493z"></path>
	<linearGradient id="SVGID_3_" gradientUnits="userSpaceOnUse" x1="286.8721" y1="210.4375" x2="286.8721" y2="25.268">
		<stop offset="0" class="primary-color-gradient" style="stop-color: #FFA4ED"></stop>
		<stop offset="1" class="secondary-color-gradient" style="stop-color: #DB81DA"></stop>
	</linearGradient>
	<path fill="url(#SVGID_3_)" d="M260.8,21.4L400,99.7l-52.2,29.4L348,172c0,0,0.9,33.2-43.2,43.3s-78.3,5.2-94-1.8
		c-15.7-6.9-35.3-16-37-43.8c1,16.8,28.7,25.1,74.6,27.9c45.9,2.8,72.9-16,72.9-31.3c0-20-1.3-18.1-1.3-18.1l-56,24.7
		c0,0-27.4-23,9.3-51.2s-12.5-50.2-12.5-50.2C234.5,58,242.1,40.4,260.8,21.4z"></path>
</g>
<path d="M431.1,452.3c-7.5-19.5-24.4-45.9-62-61.1c-14.3-5.8-26.4-11.6-35.8-17.3V352c0-2.7-1.4-5.2-3.7-6.7
	c-2.3-1.5-5.2-1.7-7.6-0.6l-3.2,1.4c2.2-1.8,4.3-3.8,6.4-5.9c14.2-14.3,22.3-31.5,26.6-43.3c2.9-8,4.4-16.4,4.4-25V166.7
	c0-0.4,0-0.8-0.1-1.2v-31.9l13.1-7.4c3.8-2.2,5.2-7.1,3-10.9c-2.2-3.8-7-5.2-10.9-3l-17.2,9.7c-2.5,1.4-4.1,4.1-4.1,7v43.7
	c-0.2,0.7-0.3,1.4-0.5,2.2c-2,9.2-8.1,37.2-78.7,37.2c-69,0-77.8-27-78.9-33.9v-0.7c0-0.5-0.1-1.1-0.2-1.6v-46.6
	c0-2.9-1.6-5.6-4.1-7L137.8,100l122.9-69.5l122.9,69.2l-5,2.9c-2.5,1.4-4.1,4.1-4.1,7v120.7c0,4.4,3.6,8,8,8s8-3.6,8-8v-116
	l13.3-7.5c2.5-1.4,4.1-4.1,4.1-7c0-2.9-1.6-5.5-4.1-7L264.7,14.4c-2.4-1.4-5.4-1.4-7.9,0L117.6,93.1c-2.5,1.4-4.1,4.1-4.1,7
	s1.6,5.6,4.1,7l48.1,26.9v42.6c0,0.5,0,1.4,0.2,2.5l0,95.3c0,9.5,1.8,18.6,5.2,27.2c4.5,11.2,12.9,27.5,27.3,40.8
	c4.9,4.6,10.2,8.5,15.8,11.8l-21.4-9.7c-2.5-1.1-5.4-0.9-7.6,0.6c-2.3,1.5-3.7,4-3.7,6.7v26.9c-7.8,4.1-16.8,8.2-27,12.4
	c-37.6,15.2-54.4,41.6-62,61.1c-8.2,21.1-7.4,38.6-7.4,39.4c0.2,4.3,3.7,7.6,8,7.6c0.1,0,0.3,0,0.4,0c4.4-0.2,7.8-4,7.6-8.4
	c0-0.6-2.2-60,59.4-84.9c9.2-3.7,17.6-7.5,25-11.3l57,88.5H119.3c-4.4,0-8,3.6-8,8s3.6,8,8,8h311.2c4.3,0,7.8-3.3,8-7.6
	C438.5,490.9,439.3,473.4,431.1,452.3z M317.3,381.2l-51.9,17.6v-11l51.9-23.4V381.2z M236.6,417.2c1,0.5,2.2,0.7,3.3,0.7h17.5
	c0,0,0.1,0,0.1,0h17.5c1.1,0,2.3-0.2,3.3-0.7L303,406l-46,70.3L211.8,406L236.6,417.2z M186,295.8c-2.7-6.7-4.1-13.9-4.1-21.3V207
	c16.3,14,42.8,21.1,78.9,21.1c34.7,0,60.4-6.6,76.4-19.7c1-0.9,2-1.7,3-2.6v66c0,6.7-1.1,13.3-3.4,19.5c-8,22.1-28.5,59.1-75.5,59.1
	C214.9,350.5,194.2,316.2,186,295.8z M261.1,366.5c5.2,0,10.2-0.4,15.1-1.1l-18.8,8.5l-26.6-12C240.2,364.9,250.3,366.5,261.1,366.5
	z M249.4,387.8v11l-51.9-17.7v-16.8L249.4,387.8z M271.6,483.3l58.9-90c0.6-0.5,1.1-1.1,1.5-1.7c8.9,4.8,19.3,9.7,31.2,14.5
	c25.7,10.4,43.4,27.7,52.8,51.4c4.1,10.3,5.6,19.6,6.2,25.8H271.6z M337.4,135c2.2,3.9,0.8,8.7-3.1,10.9L264.7,185
	c-1.2,0.7-2.6,1-3.9,1c-1.3,0-2.7-0.3-3.9-1l-69.6-39c-3.9-2.2-5.2-7-3.1-10.9c2.2-3.9,7-5.2,10.9-3.1l65.7,36.8l65.7-37
	C330.3,129.7,335.2,131.1,337.4,135z"></path>
</svg>