<svg version="1.1" id="Layer_1" xmlns="http://www.w3.org/2000/svg" xmlns:xlink="http://www.w3.org/1999/xlink" x="0px" y="0px" viewBox="0 0 512 512" enable-background="new 0 0 512 512" xml:space="preserve">
<linearGradient id="SVGID_1_" gradientUnits="userSpaceOnUse" x1="339.4505" y1="465.5761" x2="339.4505" y2="112.4056" class="gradient-element">
	<stop offset="0" class="primary-color-gradient" style="stop-color: #FFA4ED"></stop>
	<stop offset="1" class="secondary-color-gradient" style="stop-color: #DB81DA"></stop>
</linearGradient>
<path fill="url(#SVGID_1_)" d="M421.3,141.9c-5.3,14.5,10.9,47,8.7,65.3s-42.6,51.3-54,55.7c-11.4,4.4-25.9-7.7-25.9-7.7l-13.7,7
	v111.3c0,24.5-5.1,38.1-9.2,49c-3,8.2-5.5,14.6-5.5,24.1v21.9h-85.3v-25h26.2c9.7,0,17.8-7.3,18.7-17l8.9-89.4V212.2
	c0-6.4,7.9-9.5,12.2-4.7c2.9,3.3,4.8,7.9,4.8,13.9c0-6.1,5.8-10,12.5-10c5.6,0,9.4,1.5,11.8,4.3l5.4-20.9
	c4.1-15.7,12.1-30.1,23.4-41.8l37.7-39.1c11.9-12.3,31.8-12,43.2,0.8c0.1,0.1,0.1,0.1,0.2,0.2C447,121.3,426.6,127.4,421.3,141.9z"></path>
<path fill="#FFA4ED" class="primary-color" d="M490.4,379.2v44.5H446v-44.5H490.4z M446,490.6h44.5v-44.5H446V490.6z M377.6,490.6h44.5v-44.5h-44.5V490.6z
	"></path>
<path fill="#000000" d="M505.8,284.4c0,4.4-3.6,8-8,8h-3.9v3.9c0,4.4-3.6,8-8,8s-8-3.6-8-8v-3.9H474c-4.4,0-8-3.6-8-8s3.6-8,8-8h3.9
	v-3.9c0-4.4,3.6-8,8-8s8,3.6,8,8v3.9h3.9C502.2,276.4,505.8,279.9,505.8,284.4z M390.3,345.7c4.4,0,8-3.6,8-8s-3.6-8-8-8
	c-14.6,0-26.4,11.8-26.4,26.4s11.8,26.4,26.4,26.4c4.4,0,8-3.6,8-8s-3.6-8-8-8c-5.7,0-10.4-4.7-10.4-10.4S384.6,345.7,390.3,345.7z
	 M158.8,420.4h-43c-4.4,0-8,3.6-8,8s3.6,8,8,8h43c4.4,0,8-3.6,8-8S163.2,420.4,158.8,420.4z M137.3,450.4H63.5c-4.4,0-8,3.6-8,8
	s3.6,8,8,8h73.8c4.4,0,8-3.6,8-8S141.7,450.4,137.3,450.4z M74.4,382.6c0,3.6,2.9,6.5,6.5,6.5H116c3.6,0,6.5-2.9,6.5-6.5
	s-2.9-6.5-6.5-6.5H80.9C77.3,376.1,74.4,379,74.4,382.6z M207.5,62.6h-3.9v-3.9c0-4.4-3.6-8-8-8s-8,3.6-8,8v3.9h-3.9
	c-4.4,0-8,3.6-8,8s3.6,8,8,8h3.9v3.9c0,4.4,3.6,8,8,8s8-3.6,8-8v-3.9h3.9c4.4,0,8-3.6,8-8S211.9,62.6,207.5,62.6z M55.5,319.5
	c0,4.4,3.6,8,8,8s8-3.6,8-8v-3.9h3.9c4.4,0,8-3.6,8-8s-3.6-8-8-8h-3.9v-3.9c0-4.4-3.6-8-8-8s-8,3.6-8,8v3.9h-3.9c-4.4,0-8,3.6-8,8
	s3.6,8,8,8h3.9V319.5z M498,50c4.2-4.2,4.2-11,0-15.2c-4.2-4.2-11-4.2-15.2,0c-4.2,4.2-4.2,11,0,15.2S493.8,54.2,498,50z"></path>
<path d="M448.8,126.3c3.1-3.1,3.1-8.2,0-11.3l-21-21c-3.1-3.1-8.2-3.1-11.3,0c-3.1,3.1-3.1,8.2,0,11.3l15.4,15.4l-9.8,9.8
	c-10.1,10.1-7,22.1-2,41.9c1.4,5.4,2.9,11.5,4.4,18.2c3.2,15.1,2.9,16.7-0.8,20.4c-6.1,6.1-11.6,11.9-17,17.4
	c-14.7,15.2-29.8,31-36.7,31c-0.4,0-1.1,0-2.2-1.1c-2-2-4.7-2.7-7.2-2.2l36.3-36.3c3.1-3.1,3.1-8.2,0-11.3c-3.1-3.1-8.2-3.1-11.3,0
	l-40.9,40.9v-7.6c0-16.2,0-38.4-24.7-38.4c-3.2,0-6.3,0.6-9.1,1.7c-0.2-0.4-0.5-0.7-0.8-1.1l0.3-0.3c3.1-3.1,3.1-8.2,0-11.3
	c-3.1-3.1-8.2-3.1-11.3,0l-2.1,2.1c-6.3-2.1-13.1-1.9-19,0.3c-0.2-0.3-0.4-0.6-0.6-1l8.9-8.9c3.1-3.1,3.1-8.2,0-11.3
	c-3.1-3.1-8.2-3.1-11.3,0l-10.4,10.4c-2.8-0.9-6.1-1.5-9.9-1.5c-2.7,0-5.3,0.3-7.7,1l62.5-62.5c16.3-16.3,28.2-21.7,38.8-26.6
	c8.3-3.8,15.5-7.1,23.2-14.8l15.5-15.5c3.1-3.1,3.1-8.2,0-11.3c-3.1-3.1-8.2-3.1-11.3,0L360,68.5c-5.6,5.6-10.8,8-18.5,11.5
	c-10.6,4.8-25.1,11.5-43.5,29.8l-63.6,63.6c2.2-3.2,3.3-6.8,3.2-10.6c-0.1-13.6-14.4-27.3-35.9-48.1c-5.5-5.3-11.2-10.8-17.2-16.8
	c-10.4-10.4-20.7-8.2-35-5.1c-7,1.5-13.3,3.1-18.8,4.5c-19.3,4.9-23.5,5.3-26.6,2.2L88.5,84.1c-3.1-3.1-8.2-3.1-11.3,0L66.9,94.3
	c-3.1,3.1-3.1,8.2,0,11.3c3.1,3.1,8.2,3.1,11.3,0l4.6-4.6l9.8,9.8c10.1,10.1,22,7,41.9,2c5.4-1.4,11.5-2.9,18.2-4.4
	c15.1-3.2,16.7-2.9,20.4,0.8c6.1,6.1,11.9,11.6,17.4,17c15.2,14.7,31,29.8,31,36.7c0,0.4,0,1.1-1.1,2.2c-2,2-2.7,4.7-2.2,7.2
	L182,136.2c-3.1-3.1-8.2-3.1-11.3,0c-3.1,3.1-3.1,8.2,0,11.3l46.7,46.7c-3.4,0.9-8.9,3.1-13.3,8.7l-3.5-3.5c-3.1-3.1-8.2-3.1-11.3,0
	c-3.1,3.1-3.1,8.2,0,11.3l8.3,8.3c-0.4,2.5-0.6,5.2-0.6,8.2v19.3l-21.8-21.8c-3.1-3.1-8.2-3.1-11.3,0c-3.1,3.1-3.1,8.2,0,11.3
	l33.1,33.1V296c-0.3-0.4-0.6-0.7-0.9-1.1l-45.5-45.5c-3.1-3.1-8.2-3.1-11.3,0c-3.1,3.1-3.1,8.2,0,11.3l42.7,42.7
	c-4.5,2-7.4,5.6-9.3,9.4l-89.2-89.2c-16.3-16.3-21.7-28.2-26.6-38.8c-3.8-8.3-7.1-15.5-14.8-23.2l-15.5-15.5
	c-3.1-3.1-8.2-3.1-11.3,0c-3.1,3.1-3.1,8.2,0,11.3l15.5,15.5c5.6,5.6,8.1,11,11.5,18.5c4.8,10.6,11.5,25.1,29.8,43.5l93,93
	c0.9,0.9,2.1,1.6,3.3,2c-1,9.9-0.7,22.4-0.5,36.8c0.1,7.6,0.3,15.5,0.3,24c0,14.7,8.9,20.5,21.1,28.4c6,3.9,11.6,7.2,16.5,10.1
	c17.1,10.2,20.4,12.9,20.4,17.3v21.9c0,4.4,3.6,8,8,8h29.8c4.4,0,8-3.6,8-8s-3.6-8-8-8h-21.8v-13.9c0-14.3-10.6-20.6-28.2-31
	c-4.8-2.8-10.2-6.1-16-9.8c-12.9-8.4-13.9-9.8-13.9-15c0-8.6-0.2-16.6-0.3-24.3c-0.3-15.2-0.5-28.3,0.7-37.4c0.8-6,2.2-10,4-10.9
	c1.6-0.1,5.4-0.2,8.4-0.3v47.7c0,4.4,3.6,8,8,8s8-3.6,8-8V227.2c0-2.7,0.2-5.7,0.9-8.4c0.1-0.2,0.1-0.4,0.2-0.6
	c1-3.6,2.9-6.8,6.3-8.1c3.1-1.2,6.4-0.6,8.2,0.2v97.4c0,4.4,3.6,8,8,8s8-3.6,8-8V206.9c0-0.1,0-0.3,0-0.4c0.3-5.7,5.5-7.8,10-7.8
	c6.4,0,9.2,1.9,11.3,8.4v100.5c0,4.4,3.6,8,8,8s8-3.6,8-8v-96.9c2.8-1.7,6.9-2.1,10.4-0.7c3.1,1.2,6.7,3.9,7,10.6c0,0,0,0.1,0,0.1
	v87c0,4.4,3.6,8,8,8c4.4,0,8-3.6,8-8V222c0-0.2,0-0.4,0-0.6c0,0,0,0,0,0c0,0,0,0,0,0c0,0,0,0,0,0c0-0.2,0-0.3,0.3-0.6
	c0.6-0.6,2.1-1.3,4.3-1.3c5.9,0,8.7,0,8.7,22.4v131.5c0,23-4.6,35.3-8.7,46.2c-3.2,8.6-5.9,15.9-5.9,26.8v21.9c0,4.4,3.6,8,8,8
	s8-3.6,8-8v-21.9c0-8,2-13.3,5-21.3c4.1-10.9,9.7-25.9,9.7-51.8V272l9.7-9.7c-0.5,2.5,0.2,5.3,2.2,7.2c3.9,3.9,8.6,5.9,13.7,5.8
	c13.6-0.1,27.3-14.4,48.1-35.9c5.3-5.5,10.8-11.2,16.8-17.2c10.4-10.4,8.2-20.7,5.1-35c-1.5-7-3.1-13.3-4.5-18.8
	c-4.9-19.3-5.3-23.5-2.2-26.6L448.8,126.3z M233.6,190.1c0.4,0.2,0.8,0.3,1.2,0.4c-0.4,0.4-0.8,0.9-1.2,1.3
	C233.8,191.2,233.7,190.7,233.6,190.1z M230.1,177.9c-1.1,1.4-1.6,3.2-1.6,4.9l-4-4C226.4,179.2,228.4,178.9,230.1,177.9z"></path>
</svg>