<svg version="1.1" id="Layer_1" xmlns="http://www.w3.org/2000/svg" xmlns:xlink="http://www.w3.org/1999/xlink" x="0px" y="0px" viewBox="0 0 512 512" enable-background="new 0 0 512 512" xml:space="preserve">
<linearGradient id="SVGID_1_" gradientUnits="userSpaceOnUse" x1="297.7718" y1="410.2213" x2="306.3263" y2="213.4688" class="gradient-element">
	<stop offset="0" class="primary-color-gradient" style="stop-color: #FFA4ED"></stop>
	<stop offset="1" class="secondary-color-gradient" style="stop-color: #DB81DA"></stop>
</linearGradient>
<path fill="url(#SVGID_1_)" d="M453,340.8L453,340.8c6.4,6.7,10.7,16.3,10.7,29.1c0,31.4-25.6,42.8-42.8,42.8h-64.2
	c7.5-0.1,32.1-2.9,32.1-32.1c0-30.5-26.8-32.1-32.1-32.1H172.1c-13,0-32.1-8.6-32.1-32.1c0-11.5,4.5-19.4,10.7-24.4
	c-6.4-6.7-10.7-16.3-10.7-29.1c0-31.4,25.6-42.8,42.8-42.8h238c17.2,0,42.8,11.5,42.8,42.8c0,12.9-4.3,22.4-10.7,29.1
	c6.2,5,10.7,13,10.7,24.4C463.7,327.9,459.1,335.7,453,340.8z"></path>
<path d="M420.9,420.8H99.6c-11.8,0-23.7-4.1-32.9-11.4c-8.2-6.5-18-18.6-18-39.4c0-4.4,3.6-8,8-8s8,3.6,8,8
	c0,27.6,22.8,34.8,34.8,34.8h321.2c31.2,0,34.8-15.1,34.8-26.4c0-9.7-2.9-17.7-8.5-23.6c-1.5-1.6-2.3-3.8-2.2-6
	c0.1-2.2,1.2-4.3,2.9-5.7c5.1-4.2,7.7-10.3,7.7-18.2c0-9.6-3.4-20.5-6.4-25H93c-4.4,0-8-3.6-8-8s3.6-8,8-8h356.4
	c4.2-5.6,6.3-12.6,6.3-21c0-27.6-22.8-34.8-34.8-34.8H89c-4.4,0-8-3.6-8-8s3.6-8,8-8h331.8c11.8,0,23.7,4.1,32.9,11.4
	c8.2,6.5,18,18.6,18,39.4c0,11.1-2.9,21-8.4,29.1c5.8,9.4,8.4,23.7,8.4,32.9c0,11.4-3.7,19.4-8.1,25c5.3,8,8.1,17.7,8.1,28.6
	C471.7,394.2,465.1,420.8,420.9,420.8z M420.9,356.5H88.9c-19.5,0-40.1-14.1-40.1-40.1c0-11.4,3.7-19.4,8.1-25
	c-5.3-8-8.1-17.7-8.1-28.6c0-9.9,3-20,8.3-28.3c-4.5-5.5-8.3-13.6-8.3-25.2c0-16.3,12.7-43.5,48.3-66.3
	c27.2-17.4,77.7-38.1,163.1-38.1c62,0,113.1,10.6,151.8,31.5c29.7,16,50.6,37.8,57.4,59.8c1.3,4.2-1,8.7-5.3,10
	c-4.2,1.3-8.7-1-10-5.3c-2.1-6.7-11.8-30-49.8-50.5c-35.9-19.4-85.8-29.6-144.2-29.6c-81.6,0-129.1,19.4-154.5,35.6
	c-28.3,18-40.9,39.5-40.9,52.8c0,7.9,2.6,14,7.8,18.1c1.7,1.4,2.8,3.4,3,5.5c0.2,2.2-0.5,4.3-2,6c-6.5,7.4-8.8,17.2-8.8,23.9
	c0,9.7,2.9,17.7,8.5,23.6c1.5,1.6,2.3,3.8,2.2,6c-0.1,2.2-1.2,4.3-2.9,5.7c-5.1,4.2-7.7,10.3-7.7,18.2c0,19.1,15.8,24.1,24.1,24.1
	h331.9c4.4,0,8,3.6,8,8S425.3,356.5,420.9,356.5z"></path>
<path d="M113.3,459.8c0,4.4-3.6,8-8,8h-43c-4.4,0-8-3.6-8-8s3.6-8,8-8h43C109.7,451.8,113.3,455.3,113.3,459.8z M101.7,368.1
	c0-4.4-3.6-8-8-8H19.9c-4.4,0-8,3.6-8,8s3.6,8,8,8h73.8C98.1,376.1,101.7,372.5,101.7,368.1z M42,125.6h15.8v15.8c0,4.4,3.6,8,8,8
	s8-3.6,8-8v-15.8h15.8c4.4,0,8-3.6,8-8s-3.6-8-8-8H73.8V93.8c0-4.4-3.6-8-8-8s-8,3.6-8,8v15.8H42c-4.4,0-8,3.6-8,8
	S37.6,125.6,42,125.6z M402.3,87.2c20.3,0,36.8-16.5,36.8-36.8c0-4.4-3.6-8-8-8s-8,3.6-8,8c0,11.4-9.3,20.7-20.8,20.7
	c-4.4,0-8,3.6-8,8S397.9,87.2,402.3,87.2z M481,87.2c4.4,0,8-3.6,8-8s-3.6-8-8-8c-11.4,0-20.8-9.3-20.8-20.8c0-4.4-3.6-8-8-8
	s-8,3.6-8,8C444.3,70.8,460.8,87.2,481,87.2z M481,92.5c-20.3,0-36.8,16.5-36.8,36.8c0,4.4,3.6,8,8,8s8-3.6,8-8
	c0-11.4,9.3-20.8,20.8-20.8c4.4,0,8-3.6,8-8S485.5,92.5,481,92.5z M423,129.2c0,4.4,3.6,8,8,8s8-3.6,8-8c0-20.3-16.5-36.8-36.8-36.8
	c-4.4,0-8,3.6-8,8s3.6,8,8,8C413.7,108.5,423,117.8,423,129.2z M272.1,451.8h-3.9v-3.9c0-4.4-3.6-8-8-8s-8,3.6-8,8v3.9h-3.9
	c-4.4,0-8,3.6-8,8s3.6,8,8,8h3.9v3.9c0,4.4,3.6,8,8,8s8-3.6,8-8v-3.9h3.9c4.4,0,8-3.6,8-8S276.5,451.8,272.1,451.8z M468.1,445.4
	c0,14.6-11.8,26.4-26.4,26.4s-26.4-11.8-26.4-26.4s11.8-26.4,26.4-26.4S468.1,430.9,468.1,445.4z M452.1,445.4
	c0-5.7-4.7-10.4-10.4-10.4s-10.4,4.7-10.4,10.4s4.7,10.4,10.4,10.4S452.1,451.2,452.1,445.4z M170.3,17.2h-43c-4.4,0-8,3.6-8,8
	s3.6,8,8,8h43c4.4,0,8-3.6,8-8S174.7,17.2,170.3,17.2z"></path>
</svg>