<svg version="1.1" id="Layer_1" xmlns="http://www.w3.org/2000/svg" xmlns:xlink="http://www.w3.org/1999/xlink" x="0px" y="0px" viewBox="0 0 512 512" enable-background="new 0 0 512 512" xml:space="preserve">
<linearGradient id="SVGID_1_" gradientUnits="userSpaceOnUse" x1="320.9705" y1="404.2705" x2="320.9705" y2="158.1717" class="gradient-element">
	<stop offset="0" class="primary-color-gradient" style="stop-color: #FFA4ED"></stop>
	<stop offset="1" class="secondary-color-gradient" style="stop-color: #DB81DA"></stop>
</linearGradient>
<path fill="url(#SVGID_1_)" d="M447.7,174.7v115.2h-20.7L399.7,307c0,0,15.8,17.2,2.9,30.6c0,0-11,19-30.6,2.9c0,0-0.8,19-6.9,23.4
	c-6.1,4.4-16.3,7.4-34.4-2.5c0,0,8.3,20.4-4.4,28.3c-12.6,7.9-29.9-4.8-29.9-4.8s9.3,13.1,0.6,22.9c-8.6,9.8-35.6-4.7-45.5-18.1
	c-9.8-13.5-16.5-8.4-16.5-8.4s-29.9,19.4-37.3,3.5c-7.4-15.9-4,3.7,21.3-16.2c25.3-19.9,79.4-62.5,79.4-62.5
	c21.6-20.5,19.1-51.3,3.1-76.5c-15.5-24.3-39-40.7-22.7-54.7c0.7-0.6,1.5-1.3,2.3-1.9c0.7,0.6,1.4,1.1,2.1,1.7
	c45.5,35.5,61.9,24.5,61,7.5c-0.5-8.9-15.1-21.7-21.8-32.8c5-2.3,8.3-3.7,8.3-3.7l51.2,28.9H447.7z"></path>
<path d="M447.7,166.7H384l-49.4-27.9c-2.6-1.5-5.7-1.3-8.1,0.1l-1-1.2c0,0-0.1-0.1-0.1-0.1c-2.1-2.6-4.4-5.5-6.7-8.5l-2.1-2.8
	c-0.2-0.2-0.4-0.5-0.6-0.7c-0.1-0.1-0.2-0.2-0.3-0.3l0,0c-0.1-0.1-0.2-0.3-0.3-0.4c-6.9-8.8-22.4-9.5-47-9.5H230
	c-24.8,0-72.5,46.3-77.6,51.2H89c-4.4,0-8,3.6-8,8v115.2c0,4.4,3.6,8,8,8h11c4.4,0,8-3.6,8-8s-3.6-8-8-8h-3v-99.2h58.8
	c2.2,0,4.3-0.9,5.8-2.5l1.7-1.8c22.2-22.2,55-46.9,66.6-46.9h38.4c9.3,0,31.1,0,34.4,3.3c0.2,0.2,0.3,0.4,0.5,0.6l0.1,0.1
	c0.3,0.4,0.6,0.8,0.9,1.1l1.9,2.4c2.4,3.1,4.7,6,6.9,8.7l7,9c10,12.5,16.1,20.7,17.9,25.8c0.8,2.3,1.3,3.5-2.7,7.6
	c-0.6,0.3-2.1,0.6-4.5,0.7c-11.5-0.3-29.3-9.2-39-19.5l-4-4.2c-2.8-3-7.5-3.4-10.7-0.8L118.1,289.8c-0.9,0.7-2.3,1.8-3.9,3.4
	c-1.6,1.6-2.4,3.7-2.3,5.7c-0.4,0.8-0.7,1.7-0.7,2.7c0,0.3-0.1,0.6-0.1,0.9c-0.6,5.3-2.4,19.4,13.7,33.3c4.3,3.7,9.6,5.5,15.4,5.5
	c0.5,0,1.1,0,1.6-0.1c1.7,9.6,6.2,22.9,17.5,28c4.4,2,9.3,3,14.3,3c2.1,0,4.1-0.2,6.2-0.5c0.3,0,1.3-0.2,2.7-0.5
	c1.9,9.3,6.9,20.9,17.8,24.5c4.3,1.4,8.9,2.1,13.7,2.1c2,0,4-0.1,6-0.4c5-0.6,8.6-1.7,10.8-3.1l0,0c3.3-2.3,7.3-5.3,11.9-8.7
	c1,4.7,3.5,9.1,7.1,12.4c0.1,0.1,0.1,0.1,0.2,0.2l18.5,16c4.4,4.3,10,6.5,17,6.8c0.1,0,0.2,0,0.3,0c0.1,0,0.2,0,0.3,0
	c6.5-0.2,12.5-3,16.8-7.7c3.9-4.1,6.1-9.2,6.6-14.7c2.7,1.1,5.7,1.6,8.8,1.6c0.3,0,0.6,0,1,0c0.1,0,0.2,0,0.3,0
	c6.1-0.4,11.8-3.1,15.9-7.7c4.1-4.5,6.3-10.5,6-16.8c0-0.1,0-0.2,0-0.3c0-0.4-0.1-0.9-0.2-1.3c3.7,2.2,7.7,3.3,11.9,3.3
	c0.8,0,1.5,0,2.3-0.1c6.1-0.5,11.9-3.5,15.9-8.3c3.9-4.7,5.8-10.7,5.4-17c2.9,1,5.9,1.5,9,1.5c1,0,2,0,2.9-0.1
	c7.9-0.8,15-4.6,20.1-10.6c0,0,0,0,0,0c5.1-6,7.5-13.7,6.8-21.6c-0.4-4.6-1.9-8.9-4.2-12.8l17.8-10.4h18.6c4.4,0,8-3.6,8-8V174.7
	C455.7,170.3,452.1,166.7,447.7,166.7z M291.2,402.3c0,0-0.1,0.1-0.1,0.1c-1.3,1.5-3.2,2.3-5.3,2.5c-3.6-0.2-5.1-1.3-6.1-2.3
	c-0.1-0.1-0.3-0.3-0.4-0.4l-18.6-16c-1.6-1.5-2.4-3.5-2.5-5.7c-0.1-2.2,0.7-4.2,2.2-5.7c0,0,0.1-0.1,0.1-0.1c2-2.2,4.5-2.5,5.9-2.5
	c2.2,0,4.1,0.7,5.6,2.1c0.1,0.1,0.2,0.2,0.3,0.2l18.8,16.3c1.5,1.5,2.4,3.5,2.5,5.6C293.5,398.6,292.7,400.7,291.2,402.3z
	 M323.4,381.7C323.4,381.7,323.4,381.8,323.4,381.7c-1.3,1.5-3,2.3-5,2.5c-2.2,0-3.9-0.5-5.4-1.9c0,0-0.1-0.1-0.1-0.1l-28.8-25.3
	c-3.1-2.7-3.3-7.3-0.6-10.4c1.3-1.5,3.3-2.4,5.4-2.4c1.8,0,3.6,0.7,4.9,1.9l28.9,25.2c1.1,1,2.3,2.8,2.5,5.1
	C325.3,377.9,325,380,323.4,381.7z M358.9,358.8C358.9,358.8,358.9,358.8,358.9,358.8c-1.2,1.5-2.9,2.4-4.7,2.5c-0.1,0-0.2,0-0.3,0
	c-2,0.2-3.7-0.3-5.4-1.5l-33.1-28.7c-0.1-0.1-0.1-0.1-0.2-0.2c-1.5-1.2-2.4-2.9-2.5-4.7c0-0.1,0-0.2,0-0.2c-0.2-1.9,0.4-3.8,1.6-5.3
	c1.2-1.5,2.9-2.4,5-2.7c0.4,0,0.8-0.1,1.1-0.1c1.2,0,2.4,0.4,3.4,1.1c1.2,1.3,2.5,2.4,3.7,3.5l0.2,0.1c0.1,0.1,0.1,0.1,0.2,0.2
	l30,25.4c0,0,0.1,0.1,0.1,0.1c1.5,1.2,2.4,2.9,2.6,4.9C360.8,355.4,360.2,357.2,358.9,358.8z M396.5,332.4c-2.4,2.9-5.7,4.6-9.5,5
	c-3.6,0.4-7-0.7-9.9-3.1l-19.5-16l-16.1-13.9c-0.2-0.2-0.4-0.5-0.6-0.7c-3.3-5-3-11.7,0.9-16.4c2.3-2.8,5.6-4.6,9.3-4.9
	c3.6-0.4,7.2,0.8,10,3.1l33.5,27.7c2.9,2.4,4.6,5.7,4.9,9.4C399.9,326.2,398.8,329.7,396.5,332.4z M439.7,281.9h-12.7
	c-1.4,0-2.8,0.4-4,1.1l-23.2,13.6l-28.4-23.4c-6.1-5.1-13.8-7.5-21.7-6.7c-7.9,0.7-15,4.5-20.1,10.6c-5.9,7.1-8,16.4-6.2,25
	c-1-0.1-2.1-0.2-3.1-0.2c-0.8,0-1.5,0.1-1.9,0.2c-0.1,0-0.2,0-0.3,0c-6.3,0.7-11.9,3.6-15.9,8.4c-3.9,4.8-5.8,10.8-5.2,17
	c0.1,0.7,0.1,1.4,0.3,2.1c-2.6-1-5.4-1.5-8.1-1.5c-6.8,0-13.1,2.9-17.5,7.8c-5.1,5.7-6.8,13.3-5.4,20.2c-6.6,0-12.9,2.7-17.3,7.4
	c-2-0.3-4.1,0.3-5.9,1.6c-8.4,6.5-15.3,11.6-20.5,15.4c-2.1,0.6-9.4,2.4-17.1-0.2c-5.2-1.7-7.6-13.1-7.7-17.4
	c23.1-17,58.6-45.9,59.4-46.7c3.2-3.1,3.3-8.1,0.2-11.3c-3-3.1-7.8-3.3-11-0.5c-2.5,2.1-43.4,35.3-64.3,50.1c-1.7,0.7-9.1,3.1-16,0
	c-5-2.3-7.9-12.1-8.8-18.2c0.3-0.2,0.6-0.3,0.9-0.5c20.6-14.6,65.1-50.5,66.6-52c3.1-3.1,3.1-8.2,0-11.3c-3-3-7.8-3.1-10.9-0.3
	c-2.3,1.9-43.5,35.3-64.5,50.3c-2.4,1.3-9.7,4.7-14,1c-9.6-8.3-8.8-15.1-8.3-19.2c0.1-0.5,0.1-0.9,0.1-1.3c0,0,0,0,0,0
	c0.1-0.1,0.2-0.2,0.2-0.2c0.1-0.1,0.3-0.2,0.4-0.3L281,183.3c12.9,13,34.4,23.2,49.6,23.5c0.2,0,0.3,0,0.5,0
	c3.4-0.1,10.5-0.4,15.3-5.3c12.3-12.5,9.1-23.6-1.2-38.2l32.7,18.4c1.2,0.7,2.6,1,3.9,1h57.8V281.9z"></path>
<path d="M482.5,83.7c0,4.4-3.6,8-8,8c-11.4,0-20.8,9.3-20.8,20.8c0,4.4-3.6,8-8,8s-8-3.6-8-8c0-20.3,16.5-36.8,36.8-36.8
	C478.9,75.7,482.5,79.3,482.5,83.7z M395.7,91.7c11.4,0,20.8,9.3,20.8,20.8c0,4.4,3.6,8,8,8s8-3.6,8-8c0-20.3-16.5-36.8-36.8-36.8
	c-4.4,0-8,3.6-8,8S391.3,91.7,395.7,91.7z M395.7,70.5c20.3,0,36.8-16.5,36.8-36.8c0-4.4-3.6-8-8-8s-8,3.6-8,8
	c0,11.4-9.3,20.8-20.8,20.8c-4.4,0-8,3.6-8,8S391.3,70.5,395.7,70.5z M474.5,70.5c4.4,0,8-3.6,8-8s-3.6-8-8-8
	c-11.4,0-20.8-9.3-20.8-20.8c0-4.4-3.6-8-8-8s-8,3.6-8,8C437.7,54,454.2,70.5,474.5,70.5z M150,97.4h-3.9v-3.9c0-4.4-3.6-8-8-8
	s-8,3.6-8,8v3.9h-3.9c-4.4,0-8,3.6-8,8s3.6,8,8,8h3.9v3.9c0,4.4,3.6,8,8,8s8-3.6,8-8v-3.9h3.9c4.4,0,8-3.6,8-8S154.4,97.4,150,97.4z
	 M447.7,381.4c-4.4,0-8,3.6-8,8v3.9h-3.9c-4.4,0-8,3.6-8,8s3.6,8,8,8h3.9v3.9c0,4.4,3.6,8,8,8s8-3.6,8-8v-3.9h3.9c4.4,0,8-3.6,8-8
	s-3.6-8-8-8h-3.9v-3.9C455.7,385,452.1,381.4,447.7,381.4z M162.6,36.7H37.1c-4.4,0-8,3.6-8,8s3.6,8,8,8h125.5c4.4,0,8-3.6,8-8
	S167,36.7,162.6,36.7z M470.7,474.3H345.2c-4.4,0-8,3.6-8,8s3.6,8,8,8h125.5c4.4,0,8-3.6,8-8S475.1,474.3,470.7,474.3z M313,459.2
	h-59.2c-4.4,0-8,3.6-8,8s3.6,8,8,8H313c4.4,0,8-3.6,8-8S317.4,459.2,313,459.2z M79.7,352.2c-4.4,0-8,3.6-8,8
	c0,5.7-4.7,10.4-10.4,10.4c-5.7,0-10.4-4.7-10.4-10.4c0-4.4-3.6-8-8-8s-8,3.6-8,8c0,14.6,11.8,26.4,26.4,26.4s26.4-11.8,26.4-26.4
	C87.7,355.8,84.1,352.2,79.7,352.2z"></path>
<path fill="#DB81DA" class="secondary-color" d="M116.4,502.7H13.8v-91.4L116.4,502.7z"></path>
</svg>