<svg version="1.1" id="Layer_1" xmlns="http://www.w3.org/2000/svg" xmlns:xlink="http://www.w3.org/1999/xlink" x="0px" y="0px" viewBox="0 0 512 512" enable-background="new 0 0 512 512" xml:space="preserve">
<linearGradient id="SVGID_1_" gradientUnits="userSpaceOnUse" x1="316.3281" y1="454.311" x2="318.9875" y2="250.8631" class="gradient-element">
	<stop offset="0" class="primary-color-gradient" style="stop-color: #FFA4ED"></stop>
	<stop offset="1" class="secondary-color-gradient" style="stop-color: #DB81DA"></stop>
</linearGradient>
<path fill="url(#SVGID_1_)" d="M396.7,300.7v18.1c0,37.7-7.8,58.6-14.1,75.5c-4.7,12.6-8.4,22.5-8.4,37.1v9.3
	c0,13.5-10.9,24.4-24.4,24.4H239.2h0l0,0V335.5c0-50.8,47.6-88.1,96.9-76.1l34.9,8.5C386.1,271.6,396.7,285.2,396.7,300.7z"></path>
<path d="M404.7,228.7v90c0,4.4-3.6,8-8,8s-8-3.6-8-8v-90c0-29.7-5.9-42.2-29-51v62.3c0,4.4-3.6,8-8,8s-8-3.6-8-8v-67.3
	c-0.8-0.2-1.6-0.4-2.5-0.6l-26.5-6.6V229c0,4.4-3.6,8-8,8s-8-3.6-8-8v-67.6l-29-7.2V218c0,4.4-3.6,8-8,8s-8-3.6-8-8V75.1
	c0-25.1-7.6-29.7-22.7-29.7c-15,0-20.3,13.3-20.3,25.8v236.3c0,4.4-3.6,8-8,8s-8-3.6-8-8V71.2c0-25,14.6-41.8,36.3-41.8
	c14.3,0,24.4,4.3,30.8,13.2c5.4,7.4,7.9,17.7,7.9,32.5v62.6l38.8,9.7c0.1,0,0.2,0,0.3,0.1l36.3,9.1c3,0.7,5.8,1.5,8.5,2.3
	c0.2,0.1,0.5,0.1,0.7,0.2C392.7,170.5,404.7,188,404.7,228.7z M394.4,357.4c-4.3-0.9-8.6,1.9-9.5,6.2c-1.8,8.9-4.2,14.4-6.6,20.1
	c-1,2.4-2.1,4.9-3.2,7.8c-4.8,12.8-8.9,23.8-8.9,39.8v25.8h-119v-25.8c0-19.5-15.6-28.8-41.3-44.1c-7-4.1-15.6-9.3-24.7-15.2
	c-29.7-19.3-33.5-27.8-33.5-75.8v-33.8c0-30.7,10.2-37,25.6-37c4.4,0,8-3.6,8-8s-3.6-8-8-8c-41.6,0-41.6,39.9-41.6,53v33.8
	c0,25,1.2,42,7.1,55.4c6.3,14.1,17.5,23.4,33.6,33.8c9.4,6.1,18.2,11.3,25.3,15.5c26.7,15.9,33.5,20.9,33.5,30.3v33.8
	c0,4.4,3.6,8,8,8h135c4.4,0,8-3.6,8-8v-33.8c0-13.1,3.3-21.9,7.9-34.3c0.9-2.5,1.9-4.7,2.9-7.1c2.7-6.2,5.4-12.7,7.6-23.2
	C401.5,362.5,398.7,358.3,394.4,357.4z"></path>
<g>
	<path fill="#DB81DA" class="secondary-color" d="M486.2,24v44.5h-44.5V24H486.2z"></path>
	<path fill="#DB81DA" class="secondary-color" d="M21.2,25.3h22.2v44.5H21.2V25.3z M21.2,150.9h22.2v-44.5H21.2V150.9z"></path>
</g>
<path d="M139.5,50.2c4.2,4.2,4.2,11,0,15.2c-4.2,4.2-11,4.2-15.2,0c-4.2-4.2-4.2-11,0-15.2C128.5,46,135.3,46,139.5,50.2z
	 M99.1,473.8H25.3c-4.4,0-8,3.6-8,8s3.6,8,8,8h73.8c4.4,0,8-3.6,8-8S103.6,473.8,99.1,473.8z M52.9,212c4.4,0,8-3.6,8-8
	c0-11.4,9.3-20.8,20.8-20.8c4.4,0,8-3.6,8-8s-3.6-8-8-8c-20.3,0-36.8,16.5-36.8,36.8C44.9,208.4,48.5,212,52.9,212z M417.4,136.3
	c11.4,0,20.8,9.3,20.8,20.8c0,4.4,3.6,8,8,8s8-3.6,8-8c0-20.3-16.5-36.8-36.8-36.8c-4.4,0-8,3.6-8,8S413,136.3,417.4,136.3z
	 M361,58.8l2.7,2.7c1.6,1.6,3.6,2.3,5.7,2.3s4.1-0.8,5.7-2.3c3.1-3.1,3.1-8.2,0-11.3l-2.8-2.8l2.8-2.8c3.1-3.1,3.1-8.2,0-11.3
	c-3.1-3.1-8.2-3.1-11.3,0l-2.7,2.7l-2.7-2.7c-3.1-3.1-8.2-3.1-11.3,0c-3.1,3.1-3.1,8.2,0,11.3l2.8,2.8l-2.8,2.8
	c-3.1,3.1-3.1,8.2,0,11.3c1.6,1.6,3.6,2.3,5.7,2.3s4.1-0.8,5.7-2.3L361,58.8z M469.2,464.8h-3.9v-3.9c0-4.4-3.6-8-8-8s-8,3.6-8,8
	v3.9h-3.9c-4.4,0-8,3.6-8,8s3.6,8,8,8h3.9v3.9c0,4.4,3.6,8,8,8s8-3.6,8-8v-3.9h3.9c4.4,0,8-3.6,8-8S473.6,464.8,469.2,464.8z
	 M476.8,219.4c4.2-4.2,4.2-11,0-15.2c-4.2-4.2-11-4.2-15.2,0c-4.2,4.2-4.2,11,0,15.2C465.8,223.6,472.6,223.6,476.8,219.4z
	 M466.5,365.2c0-4.4-3.6-8-8-8h-94.1c-4.4,0-8,3.6-8,8s3.6,8,8,8h94.1C462.9,373.2,466.5,369.6,466.5,365.2z M114.3,389.1
	c-20.3,0-36.8,16.5-36.8,36.8c0,4.4,3.6,8,8,8s8-3.6,8-8c0-11.4,9.3-20.8,20.8-20.8c4.4,0,8-3.6,8-8S118.7,389.1,114.3,389.1z
	 M35.5,405.1c11.4,0,20.7,9.3,20.7,20.8c0,4.4,3.6,8,8,8s8-3.6,8-8c0-20.3-16.5-36.8-36.7-36.8c-4.4,0-8,3.6-8,8
	S31.1,405.1,35.5,405.1z M35.5,383.8c20.3,0,36.7-16.5,36.7-36.8c0-4.4-3.6-8-8-8s-8,3.6-8,8c0,11.4-9.3,20.8-20.7,20.8
	c-4.4,0-8,3.6-8,8S31.1,383.8,35.5,383.8z M114.3,367.8c-11.4,0-20.8-9.3-20.8-20.8c0-4.4-3.6-8-8-8s-8,3.6-8,8
	c0,20.3,16.5,36.8,36.8,36.8c4.4,0,8-3.6,8-8S118.7,367.8,114.3,367.8z M385.1,327.3h64.6c4.4,0,8-3.6,8-8s-3.6-8-8-8h-64.6
	c-4.4,0-8,3.6-8,8S380.7,327.3,385.1,327.3z"></path>
</svg>