<svg version="1.1" id="Layer_1" xmlns="http://www.w3.org/2000/svg" xmlns:xlink="http://www.w3.org/1999/xlink" x="0px" y="0px" viewBox="0 0 512 512" enable-background="new 0 0 512 512" xml:space="preserve">
<linearGradient id="SVGID_1_" gradientUnits="userSpaceOnUse" x1="278.3768" y1="409.3455" x2="283.7233" y2="170.8901" class="gradient-element">
	<stop offset="0" class="primary-color-gradient" style="stop-color: #FFA4ED"></stop>
	<stop offset="1" class="secondary-color-gradient" style="stop-color: #DB81DA"></stop>
</linearGradient>
<path fill="url(#SVGID_1_)" d="M466.8,394.9c0,0-245.3,0-280.3,0c-53.5,0-93.4-41.8-93.4-105.6s35-81.3,35-81.3h202L317.2,228
	c-8.7,8.7-26.2,52.8-47,103.8c51-20.8,103.6-38.8,112.3-47.5l84.3-76.2l0,0V394.9z"></path>
<path d="M466.8,402.9H23c-4.4,0-8-3.6-8-8s3.6-8,8-8h435.8V220.5l-9.7,9.7c0,0,0,0,0,0l-50.1,50.1c-14.5,14.5-14.5,14.5-96.8,47.9
	c-48.9,19.8-83.2,27.9-118.6,27.9c-26.9,0-49.3-9.9-62.5-27.4c-11.2,2.7-22.2,4.1-32.8,4.1c-45.2,0-73.3-31-73.3-81V138
	c0-2.1,0.8-4.2,2.3-5.7c1.5-1.5,3.5-2.3,5.7-2.3l413.6,0c3.2,0,6.2,1.9,7.4,4.9c1.2,3,0.6,6.4-1.7,8.7l-81.8,81.7
	c-3.1,3.1-8.2,3.1-11.3,0c-3.1-3.1-3.1-8.2,0-11.3l68.1-68.1L31,146v105.9c0,41.3,20.9,65,57.3,65c8,0,16.2-0.9,24.6-2.6
	c-2.3-5.4-4.5-13.3-4.5-24.9c0-23.5,7.7-45.9,21.7-63.1c13.5-16.6,30.9-26.2,47.9-26.2c23.1,0,39.9,17.3,39.9,41
	c0,15.7-8.6,32.7-24.2,48c-14.2,13.9-33.5,25.7-56,34.3c10.5,10.7,26.7,16.7,46,16.7c25.7,0,51.1-4.7,83-15.6
	c31.8-78.2,44.1-105,57.8-118.7l50.1-50.1c3.1-3.1,8.2-3.1,11.3,0c3.1,3.1,3.1,8.2,0,11.3l-50.1,50.1c-10.9,10.9-22.8,36.4-48.8,100
	c3-1.2,6.1-2.4,9.2-3.7c79.3-32.2,79.3-32.2,91.5-44.4l50.1-50.1c0,0,0,0,0,0l23.3-23.3c2.3-2.3,5.7-3,8.7-1.7
	c3,1.2,4.9,4.2,4.9,7.4v193.7C474.8,399.3,471.2,402.9,466.8,402.9z M178,216.1c-11.9,0-25.2,7.6-35.5,20.2
	c-11.7,14.4-18.1,33.2-18.1,53c0,10.4,2.1,16.6,4,20.5c48.2-17.5,73.4-47.3,73.4-68.7C201.8,226.1,192.2,216.1,178,216.1z"></path>
<path d="M86.3,48.2v47.6c0,4.4-3.6,8-8,8s-8-3.6-8-8V48.2c0-4.4,3.6-8,8-8S86.3,43.8,86.3,48.2z M361.4,99.5c0-4.4-3.6-8-8-8H215.9
	c-4.4,0-8,3.6-8,8s3.6,8,8,8h137.6C357.8,107.5,361.4,103.9,361.4,99.5z M375.3,62c0-5,4.1-9,9-9s9,4.1,9,9s-4.1,9-9,9
	S375.3,67,375.3,62z M459.9,451.8H322.3c-4.4,0-8,3.6-8,8s3.6,8,8,8h137.6c4.4,0,8-3.6,8-8S464.3,451.8,459.9,451.8z M37.4,44
	c0,5-4.1,9-9,9s-9-4.1-9-9s4.1-9,9-9S37.4,39,37.4,44z M64.9,471.5c0,5-4.1,9-9,9s-9-4.1-9-9s4.1-9,9-9S64.9,466.5,64.9,471.5z
	 M196.3,37.5h-3.9v-3.9c0-4.4-3.6-8-8-8s-8,3.6-8,8v3.9h-3.9c-4.4,0-8,3.6-8,8s3.6,8,8,8h3.9v3.9c0,4.4,3.6,8,8,8s8-3.6,8-8v-3.9
	h3.9c4.4,0,8-3.6,8-8S200.8,37.5,196.3,37.5z"></path>
<path fill="#FFA4ED" class="primary-color" d="M471.1,27.4v77.3h-22.5V27.4H471.1z"></path>
</svg>