<svg version="1.1" id="Layer_1" xmlns="http://www.w3.org/2000/svg" xmlns:xlink="http://www.w3.org/1999/xlink" x="0px" y="0px" viewBox="0 0 512 512" enable-background="new 0 0 512 512" xml:space="preserve">
<linearGradient id="SVGID_1_" gradientUnits="userSpaceOnUse" x1="315.7596" y1="459.7577" x2="315.7596" y2="70.4345" class="gradient-element">
	<stop offset="0" class="primary-color-gradient" style="stop-color: #FFA4ED"></stop>
	<stop offset="1" class="secondary-color-gradient" style="stop-color: #DB81DA"></stop>
</linearGradient>
<path fill="url(#SVGID_1_)" d="M374,146.2c0,41.1,0.1,164.4,0.1,164.4c0,36.2-7.5,56.2-13.5,72.4c-4.5,12.1-8,21.6-8,35.6l0,44.3
	l-80.7,0.1c-8,0-14.4-6.4-14.4-14.4l5.6-50.2c0-8,6.4-14.4,14.4-14.4h0c14.3,0,26-25.3,27.4-39.5l0.9-87.3l-0.1-184.3
	c0-9.5,11.7-14,18-6.9c4.3,4.9,7.1,11.7,7.1,20.5c0-9,8.6-14.7,18.5-14.7c8.3,0,13.8,2.1,17.5,6.3C366.8,77.8,374,81,374,146.2z"></path>
<path d="M223.1,459c-4.4,0-8-3.6-8-8l0-32.4c0-8.8-6.5-13.6-32-28.7c-7.2-4.3-15.4-9.1-24.2-14.9c-17.8-11.5-29.5-19.1-29.5-38.7
	c0-12.6-0.2-24.3-0.5-35.6c-1-50.7-1.6-84.1,21.5-91c2.8-0.8,16-1,21.4-1.1l-0.1-113.7c0-34.6,19.4-43.2,27.8-45.2
	c7.4-1.8,15.3-1.2,21.8,1.4c5.3-11,16.9-18.2,31.5-18.2c0,0,0,0,0,0c18.8,0,27.8,9.2,32.7,19.1c8.9-4.4,19.9-5,29.9-1.3
	c8.4,3.2,14.9,9,18.9,16.5c4.3-2.4,9.5-3.7,14.9-3.7c0,0,0,0,0,0c14,0,23.1,5.3,28,16.2c3.9,8.7,4.6,20,4.6,36.7l0.1,194.2
	c0,37.6-7.7,58.4-14,75.2c-4.4,11.8-7.5,20.3-7.5,32.8l0,32.4c0,4.4-3.6,8-8,8c0,0,0,0,0,0c-4.4,0-8-3.6-8-8l0-32.4
	c0-15.4,3.9-26,8.5-38.3c5.8-15.6,13-34.9,13-69.6L366,116.3c0-13.7-0.6-24.1-3.3-30.1c-1.5-3.4-3.8-6.7-13.3-6.7c0,0,0,0,0,0
	c-3.7,0-7.1,1.2-9,3.1c-1,1.1-1.5,2.2-1.5,3.6c0,0,0,0,0,0.1c0,0.2,0,0.5,0,0.7l0.1,126.5c0,4.4-3.6,8-8,8c0,0,0,0,0,0
	c-4.4,0-8-3.6-8-8L322.8,85c0-0.1,0-0.1,0-0.2c-0.5-12.7-8.2-17.5-12.9-19.2c-7.2-2.7-15.4-1.5-20.5,2.7l0.1,145.1c0,4.4-3.6,8-8,8
	c0,0,0,0,0,0c-4.4,0-8-3.6-8-8l-0.1-148.8c0-0.1,0-0.2,0-0.2c-3.7-11.6-9.1-15.6-20.5-15.6c0,0,0,0,0,0c-9.1,0-18.2,4.7-18.5,15.3
	c0,0.2,0,0.4,0,0.6l0.1,148.8c0,4.4-3.6,8-8,8c0,0,0,0,0,0c-4.4,0-8-3.6-8-8l-0.1-146c-2.3-1.7-8.4-4.1-15.2-2.3
	c-10,2.6-15.5,13.1-15.5,29.6l0.1,204c0,4.4-3.6,8-8,8c0,0,0,0,0,0c-4.4,0-8-3.6-8-8l0-74.3c-4.9,0.1-14.6,0.3-17.2,0.5
	c-11,4.1-10.4,37.1-9.7,75.3c0.2,11.4,0.5,23.1,0.5,35.9c0,10.1,3.6,13.3,22.2,25.3c8.6,5.6,16.6,10.3,23.7,14.5
	c24.8,14.7,39.8,23.6,39.8,42.5l0,32.4C231.1,455.4,227.5,458.9,223.1,459C223.1,459,223.1,459,223.1,459z"></path>
<path d="M136.2,146.9h-43c-4.4,0-8-3.6-8-8s3.6-8,8-8h43c4.4,0,8,3.6,8,8S140.6,146.9,136.2,146.9z M142.2,108.3c0-4.4-3.6-8-8-8
	H33.1c-4.4,0-8,3.6-8,8s3.6,8,8,8h101.1C138.6,116.3,142.2,112.7,142.2,108.3z M432.5,427.9c0-4.4-3.6-8-8-8h-43c-4.4,0-8,3.6-8,8
	s3.6,8,8,8h43C428.9,435.9,432.5,432.4,432.5,427.9z M492.5,458.6c0-4.4-3.6-8-8-8H383.4c-4.4,0-8,3.6-8,8s3.6,8,8,8h101.1
	C488.9,466.6,492.5,463,492.5,458.6z"></path>
<g>
	<path fill="#DB81DA" class="secondary-color" d="M488.5,101.3l-60.9-60.9h60.9V101.3z M28.3,421.2h21.8v-43.6H28.3V421.2z"></path>
	<path fill="#DB81DA" class="secondary-color" d="M28.3,445.2h21.8v43.6H28.3V445.2z"></path>
</g>
</svg>