<svg version="1.1" id="Layer_1" xmlns="http://www.w3.org/2000/svg" xmlns:xlink="http://www.w3.org/1999/xlink" x="0px" y="0px" viewBox="0 0 512 512" enable-background="new 0 0 512 512" xml:space="preserve">
<linearGradient id="SVGID_1_" gradientUnits="userSpaceOnUse" x1="275.8741" y1="399.3802" x2="275.8741" y2="270.6289" class="gradient-element">
	<stop offset="0" class="primary-color-gradient" style="stop-color: #FFA4ED"></stop>
	<stop offset="1" class="secondary-color-gradient" style="stop-color: #DB81DA"></stop>
</linearGradient>
<path fill="url(#SVGID_1_)" d="M449.7,308.4v73.1h-31.6v14.7h-63.2v-4.2c0-6.4,6.8-11.6,15.3-11.6c9,0,16.3-5.5,16.3-12.3v-82.2
	c0-9.7,10.4-17.6,23.2-17.6h6.6c1,0,1.8,0.6,1.8,1.3v55.1c0-9.7,10.4-17.6,23.2-17.6h6.6C448.9,307.1,449.7,307.7,449.7,308.4z
	 M163.5,268.2h-6.6c-12.8,0-13.2,7.9-13.2,17.6V368c0,6.8-7.3,12.3-16.3,12.3c-0.8,0-11.6,0-12.4,0.1c-7.3,0.9-12.9,5.7-12.9,11.4
	v4.2h63.2V269.5C165.3,268.8,164.5,268.2,163.5,268.2z"></path>
<path d="M418.7,402.8h-63.3c-4.4,0-8-3.6-8-8V268.2c0-4.4,3.6-8,8-8h30.1c0.2,0,0.3,0,0.5,0c0.2,0,0.3,0,0.5,0c4.4,0,8,3.6,8,8
	v100.4c0,4.4-3.6,8-8,8s-8-3.6-8-8v-92.4h-15.1v110.6h47.3V276.2h-7.8c-4.4,0-8-3.6-8-8v-15.8c0-74.1-60.3-134.5-134.5-134.5
	s-134.5,60.3-134.5,134.5v15.8c0,4.4-3.6,8-8,8h-7.8v110.6h47.3V276.2h-5.6v92.4c0,4.4-3.6,8-8,8s-8-3.6-8-8V268.2c0-4.4,3.6-8,8-8
	c0.1,0,0.2,0,0.3,0h21.3c4.4,0,8,3.6,8,8v126.6c0,4.4-3.6,8-8,8h-63.3c-4.4,0-8-3.6-8-8V387H70.4c-4.4,0-8-3.6-8-8v-95
	c0-4.4,3.6-8,8-8h11.7c4.4,0,8,3.6,8,8s-3.6,8-8,8h-3.7v79h15.7V268.2c0-4.4,3.6-8,8-8h7.8v-7.8c0-83,67.5-150.5,150.5-150.5
	s150.5,67.5,150.5,150.5v7.8h7.8c4.4,0,8,3.6,8,8v7.8h23.7c4.4,0,8,3.6,8,8v95c0,4.4-3.6,8-8,8h-23.7v7.8
	C426.7,399.2,423.1,402.8,418.7,402.8z M426.7,371h15.7v-79h-15.7V371z"></path>
<path d="M21.3,188.4c-4.4,0-8-3.6-8-8s3.6-8,8-8c20.3,0,36.7,16.5,36.7,36.8c0,4.4-3.6,8-8,8s-8-3.6-8-8
	C42.1,197.7,32.8,188.4,21.3,188.4z M71.3,217.1c4.4,0,8-3.6,8-8c0-11.4,9.3-20.8,20.8-20.8c4.4,0,8-3.6,8-8s-3.6-8-8-8
	c-20.3,0-36.8,16.5-36.8,36.8C63.3,213.5,66.9,217.1,71.3,217.1z M21.3,167.1c20.3,0,36.7-16.5,36.7-36.8c0-4.4-3.6-8-8-8
	s-8,3.6-8,8c0,11.4-9.3,20.8-20.7,20.8c-4.4,0-8,3.6-8,8S16.9,167.1,21.3,167.1z M356.8,56.8h122.8c4.4,0,8-3.6,8-8s-3.6-8-8-8
	H356.8c-4.4,0-8,3.6-8,8S352.4,56.8,356.8,56.8z M100.1,167.1c4.4,0,8-3.6,8-8s-3.6-8-8-8c-11.4,0-20.8-9.3-20.8-20.8
	c0-4.4-3.6-8-8-8s-8,3.6-8,8C63.3,150.6,79.8,167.1,100.1,167.1z M322.5,28.1c0-4.4-3.6-8-8-8h-73.8c-4.4,0-8,3.6-8,8s3.6,8,8,8
	h73.8C318.9,36.1,322.5,32.5,322.5,28.1z M418.2,459.2h-31.8c-4.4,0-8,3.6-8,8s3.6,8,8,8h31.8c4.4,0,8-3.6,8-8
	S422.7,459.2,418.2,459.2z M127.5,431.2H24.2c-4.4,0-8,3.6-8,8s3.6,8,8,8h103.3c4.4,0,8-3.6,8-8S131.9,431.2,127.5,431.2z
	 M495.7,137.1H480v-15.8c0-4.4-3.6-8-8-8s-8,3.6-8,8v15.8h-15.8c-4.4,0-8,3.6-8,8s3.6,8,8,8H464v15.8c0,4.4,3.6,8,8,8s8-3.6,8-8
	v-15.8h15.8c4.4,0,8-3.6,8-8S500.2,137.1,495.7,137.1z M357.5,459.2h-43c-4.4,0-8,3.6-8,8s3.6,8,8,8h43c4.4,0,8-3.6,8-8
	S361.9,459.2,357.5,459.2z M224.8,229h-57.4c-4.4,0-8,3.6-8,8s3.6,8,8,8h57.4c4.4,0,8-3.6,8-8S229.3,229,224.8,229z"></path>
<path fill="#DB81DA" class="secondary-color" d="M92,62.6H25.4V19H92V62.6z M446.9,492.2H497v-50.1L446.9,492.2z"></path>
</svg>