<svg version="1.1" id="Layer_1" xmlns="http://www.w3.org/2000/svg" xmlns:xlink="http://www.w3.org/1999/xlink" x="0px" y="0px" viewBox="0 0 512 512" enable-background="new 0 0 512 512" xml:space="preserve">
<linearGradient id="SVGID_1_" gradientUnits="userSpaceOnUse" x1="353.4512" y1="454.6275" x2="353.4512" y2="113.6691" class="gradient-element">
	<stop offset="0" class="primary-color-gradient" style="stop-color: #FFA4ED"></stop>
	<stop offset="1" class="secondary-color-gradient" style="stop-color: #DB81DA"></stop>
</linearGradient>
<path fill="url(#SVGID_1_)" d="M471.3,210.2c0,28.6-11.4,56.2-31.9,76.8l-183,183l0,0c-27.6-27.6-27.6-72.5,0-100.1L374.3,252
	c20.6-20.6,31.9-48.2,31.9-76.8c0-5.8-0.3-11.4-1.5-16.6c-2-13.6-6.6-26.5-13.3-37.9c-4-6.8,2.8-14.8,10.1-12
	c14.3,5.5,27.1,14,37.8,24.7c16,16,27,36.9,30.4,60.2C471,198.8,471.3,204.4,471.3,210.2z"></path>
<path d="M423.2,303.1c3.1,3.1,3.1,8.2,0,11.3L262,475.6c-1.5,1.5-3.5,2.3-5.7,2.3s-4.2-0.8-5.7-2.3l-80.2-80.2
	c-3.1-3.1-3.1-8.2,0-11.3c3.1-3.1,8.2-3.1,11.3,0l74.6,74.6l155.5-155.5C415,300,420.1,300,423.2,303.1z M487.6,277.7h-29.5
	c14.1-19,21.2-41.6,21.2-67.5c0-5-0.2-11.6-1.7-18.1c-3.6-24.4-14.9-46.6-32.6-64.4c-22.1-22.1-51.4-34.3-82.4-34.3
	s-60.3,12.2-82.4,34.3l-10,10c-3.1,3.1-3.1,8.2,0,11.3c3.1,3.1,8.2,3.1,11.3,0l10-10c19.1-19.1,44.3-29.6,71.1-29.6
	c26.8,0,52,10.5,71.1,29.6c15.4,15.4,25.1,34.6,28.1,55.7c0,0.2,0.1,0.5,0.1,0.7c1.2,5,1.3,10.5,1.3,14.7c0,26.9-8.8,49.6-26.2,67.5
	h-50l-16-36.4c-1.3-2.9-4.1-4.8-7.3-4.8c0,0,0,0-0.1,0c-3.1,0-6,1.8-7.3,4.7l-14.7,32.3l-25.2-94.3c-0.9-3.4-4-5.8-7.5-5.9
	c-3.5-0.1-6.7,2.1-7.8,5.5l-53.4,161.2l-33.3-116.8c-1-3.4-4.1-5.8-7.7-5.8c0,0,0,0,0,0c-3.6,0-6.7,2.4-7.7,5.8l-33.4,119.4h-25.6
	L79,281.3c-19.1-19.1-29.6-44.3-29.6-71.1c0-4.3,0.1-9.8,1.3-14.7c0.1-0.2,0.1-0.5,0.1-0.7c3.1-21.1,12.8-40.3,28.1-55.7
	c19.1-19.1,44.3-29.6,71.1-29.6c26.8,0,52,10.5,71.1,29.6l29.5,29.5c3.1,3.1,8.2,3.1,11.3,0c3.1-3.1,3.1-8.2,0-11.3l-29.5-29.5
	c-22.1-22.1-51.4-34.3-82.4-34.3c-31,0-60.3,12.2-82.4,34.3c-17.7,17.7-29,40-32.6,64.4c-1.5,6.4-1.7,13-1.7,18.1
	c0,31,12.2,60.3,34.3,82.4l49.9,49.9H97.3c-4.4,0-8,3.6-8,8s3.6,8,8,8h74.5c3.6,0,6.7-2.4,7.7-5.8l27.4-97.9l32.7,114.5
	c1,3.4,4,5.7,7.5,5.8c0.1,0,0.1,0,0.2,0c3.4,0,6.5-2.2,7.6-5.5L308,209.1l24.1,90c0.9,3.3,3.7,5.6,7.1,5.9c3.4,0.3,6.5-1.6,7.9-4.6
	l16.6-36.3l10.9,24.9c1.3,2.9,4.1,4.8,7.3,4.8h105.7c4.4,0,8-3.6,8-8S492,277.7,487.6,277.7z"></path>
<path d="M200.7,387.8c0,4.4-3.6,8-8,8H27.1c-4.4,0-8-3.6-8-8s3.6-8,8-8h165.6C197.1,379.8,200.7,383.4,200.7,387.8z M487.7,50.7
	h-86.8c-4.4,0-8,3.6-8,8s3.6,8,8,8h86.8c4.4,0,8-3.6,8-8S492.2,50.7,487.7,50.7z M126.6,430.1H69.2c-4.4,0-8,3.6-8,8s3.6,8,8,8h57.4
	c4.4,0,8-3.6,8-8S131,430.1,126.6,430.1z M479.1,389.2h-15.8v-15.8c0-4.4-3.6-8-8-8s-8,3.6-8,8v15.8h-15.8c-4.4,0-8,3.6-8,8
	s3.6,8,8,8h15.8v15.8c0,4.4,3.6,8,8,8s8-3.6,8-8v-15.8h15.8c4.4,0,8-3.6,8-8S483.6,389.2,479.1,389.2z M31.6,65.2h15.8v15.8
	c0,4.4,3.6,8,8,8s8-3.6,8-8V65.2h15.8c4.4,0,8-3.6,8-8s-3.6-8-8-8H63.4V33.4c0-4.4-3.6-8-8-8s-8,3.6-8,8v15.8H31.6c-4.4,0-8,3.6-8,8
	S27.2,65.2,31.6,65.2z"></path>
<g>
	<path fill="#FFA4ED" class="primary-color" d="M400.9,491.6v-21.8h86.7v21.8H400.9z"></path>
	<path fill="#DB81DA" class="secondary-color" d="M325,491.6l56.9-56.9v56.9H325z"></path>
</g>
</svg>