<svg version="1.1" id="Layer_1" xmlns="http://www.w3.org/2000/svg" xmlns:xlink="http://www.w3.org/1999/xlink" x="0px" y="0px" viewBox="0 0 512 512" enable-background="new 0 0 512 512" xml:space="preserve">
<linearGradient id="SVGID_1_" gradientUnits="userSpaceOnUse" x1="353.4656" y1="454.3372" x2="353.4656" y2="113.3788" class="gradient-element">
	<stop offset="0" class="primary-color-gradient" style="stop-color: #FFA4ED"></stop>
	<stop offset="1" class="secondary-color-gradient" style="stop-color: #DB81DA"></stop>
</linearGradient>
<path fill="url(#SVGID_1_)" d="M471.3,209.9c0,28.6-11.4,56.2-31.9,76.8l-183,183l0,0c-27.6-27.6-27.6-72.5,0-100.1l117.9-117.9
	c20.6-20.6,31.9-48.2,31.9-76.8c0-5.8-0.3-11.4-1.5-16.6c-2-13.6-6.6-26.5-13.3-37.9c-4-6.8,2.8-14.8,10.1-12
	c14.3,5.5,27.1,14,37.8,24.7c16,16,27,36.9,30.4,60.2C471,198.5,471.3,204.1,471.3,209.9z"></path>
<path d="M135.5,356.8c-2,0-4.1-0.8-5.7-2.3l-62.1-62.1c-22.1-22.1-34.3-51.4-34.3-82.4c0-5,0.2-11.6,1.7-18.1
	c3.6-24.4,14.9-46.6,32.6-64.4c22.1-22.1,51.4-34.3,82.4-34.3c31,0,60.3,12.2,82.4,34.3l29.5,29.5c3.1,3.1,3.1,8.2,0,11.3
	c-3.1,3.1-8.2,3.1-11.3,0l-29.5-29.5c-19.1-19.1-44.3-29.6-71.1-29.6s-52,10.5-71.1,29.6c-15.4,15.4-25.1,34.6-28.1,55.7
	c0,0.2-0.1,0.5-0.1,0.7c-1.2,5-1.3,10.5-1.3,14.7c0,26.8,10.5,52,29.6,71.1l62.1,62.1c3.1,3.1,3.1,8.2,0,11.3
	C139.6,356,137.5,356.8,135.5,356.8z M262,475.3l183-183c22.1-22.1,34.3-51.4,34.3-82.4c0-5-0.2-11.6-1.7-18.1
	c-3.6-24.4-14.9-46.6-32.6-64.4c-22.1-22.1-51.4-34.3-82.4-34.3c-31,0-60.3,12.2-82.4,34.3l-10,10c-3.1,3.1-3.1,8.2,0,11.3
	c3.1,3.1,8.2,3.1,11.3,0l10-10c19.1-19.1,44.3-29.6,71.1-29.6s52,10.5,71.1,29.6c15.4,15.4,25.1,34.6,28.1,55.7
	c0,0.2,0.1,0.5,0.1,0.7c1.2,4.9,1.3,10.5,1.3,14.7c0,26.8-10.5,52-29.6,71.1L256.4,458.4l-74.6-74.6c-3.1-3.1-8.2-3.1-11.3,0
	c-3.1,3.1-3.1,8.2,0,11.3l80.2,80.2c1.6,1.6,3.6,2.3,5.7,2.3C258.4,477.7,260.4,476.9,262,475.3z"></path>
<path d="M345.6,46.5c0,4.4-3.6,8-8,8c-26.8,0-52,10.5-71.1,29.6l-10,10c-1.6,1.6-3.6,2.3-5.7,2.3s-4.1-0.8-5.7-2.3
	c-3.1-3.1-3.1-8.2,0-11.3l10-10c22.1-22.1,51.4-34.3,82.4-34.3C342,38.5,345.6,42.1,345.6,46.5z M192.7,379.5H27.1c-4.4,0-8,3.6-8,8
	s3.6,8,8,8h165.6c4.4,0,8-3.6,8-8S197.1,379.5,192.7,379.5z M213.1,342.2H97.3c-4.4,0-8,3.6-8,8s3.6,8,8,8h115.7c4.4,0,8-3.6,8-8
	S217.5,342.2,213.1,342.2z M487.8,50.4h-86.8c-4.4,0-8,3.6-8,8s3.6,8,8,8h86.8c4.4,0,8-3.6,8-8S492.2,50.4,487.8,50.4z M126.6,429.8
	H69.2c-4.4,0-8,3.6-8,8s3.6,8,8,8h57.4c4.4,0,8-3.6,8-8S131,429.8,126.6,429.8z M479.2,388.9h-15.8v-15.8c0-4.4-3.6-8-8-8
	s-8,3.6-8,8v15.8h-15.8c-4.4,0-8,3.6-8,8s3.6,8,8,8h15.8v15.8c0,4.4,3.6,8,8,8s8-3.6,8-8v-15.8h15.8c4.4,0,8-3.6,8-8
	S483.6,388.9,479.2,388.9z M31.6,64.9h15.8v15.8c0,4.4,3.6,8,8,8s8-3.6,8-8V64.9h15.8c4.4,0,8-3.6,8-8s-3.6-8-8-8H63.4V33.1
	c0-4.4-3.6-8-8-8s-8,3.6-8,8v15.8H31.6c-4.4,0-8,3.6-8,8S27.2,64.9,31.6,64.9z"></path>
<g>
	<path fill="#FFA4ED" class="primary-color" d="M400.9,491.3v-21.8h86.7v21.8H400.9z"></path>
	<path fill="#DB81DA" class="secondary-color" d="M325,491.3l56.9-56.9v56.9H325z"></path>
</g>
</svg>