<svg version="1.1" id="Layer_1" xmlns="http://www.w3.org/2000/svg" xmlns:xlink="http://www.w3.org/1999/xlink" x="0px" y="0px" viewBox="0 0 512 512" enable-background="new 0 0 512 512" xml:space="preserve">
<g>
	<linearGradient id="SVGID_1_" gradientUnits="userSpaceOnUse" x1="161.6176" y1="403.1173" x2="161.6176" y2="301.7305" class="gradient-element">
		<stop offset="0" class="primary-color-gradient" style="stop-color: #FFA4ED"></stop>
		<stop offset="1" class="secondary-color-gradient" style="stop-color: #DB81DA"></stop>
	</linearGradient>
	<path fill="url(#SVGID_1_)" d="M211.4,406.4c-52.3-16.1-93.7-57.2-110.3-109.3l29.2-7.3c21.2,36.4,51.9,63.1,91.7,73.2L211.4,406.4
		z"></path>
	<linearGradient id="SVGID_2_" gradientUnits="userSpaceOnUse" x1="358.7292" y1="397.4876" x2="358.7292" y2="119.0347">
		<stop offset="0" class="primary-color-gradient" style="stop-color: #FFA4ED"></stop>
		<stop offset="1" class="secondary-color-gradient" style="stop-color: #DB81DA"></stop>
	</linearGradient>
	<path fill="url(#SVGID_2_)" d="M420,297.1c-16.5,52.2-58,93.3-110.5,109.4l-11.8-47.2c13.6-5.7,23.9-13.8,30.8-21.8
		c39.2-44.9,46.8-133.1-32.3-194.1l13.7-55.7c-1.7-0.6-3.5-1.1-5.2-1.6c2.5,0.4,4.9,0.8,7.4,1.3c52.5,17,93.7,59.3,109.1,112.5
		c-0.4-1-0.6-1.5-0.6-1.5L358.3,214c14.9,14.8,4.3,69,4.3,69L420,297.1z"></path>
</g>
<g>
	<path fill="#FFA4ED" class="primary-color" d="M54.5,62.2H19.8V27.5h34.7V62.2z M109.7,27.5H75v34.7h34.7V27.5z"></path>
	<path fill="#DB81DA" class="secondary-color" d="M259,475.4v12.9H21.9v-12.9H259z"></path>
</g>
<path d="M106.8,405.1c0,4.4-3.6,8-8,8h-3.9v3.9c0,4.4-3.6,8-8,8s-8-3.6-8-8v-3.9H75c-4.4,0-8-3.6-8-8s3.6-8,8-8h3.9v-3.9
	c0-4.4,3.6-8,8-8s8,3.6,8,8v3.9h3.9C103.2,397.1,106.8,400.7,106.8,405.1z M420.6,65.3h3.9v3.9c0,4.4,3.6,8,8,8s8-3.6,8-8v-3.9h3.9
	c4.4,0,8-3.6,8-8s-3.6-8-8-8h-3.9v-3.9c0-4.4-3.6-8-8-8s-8,3.6-8,8v3.9h-3.9c-4.4,0-8,3.6-8,8S416.2,65.3,420.6,65.3z M419.7,438.5
	h59.2c4.4,0,8-3.6,8-8s-3.6-8-8-8h-59.2c-4.4,0-8,3.6-8,8S415.3,438.5,419.7,438.5z M477.4,468.8H350.1c-4.4,0-8,3.6-8,8s3.6,8,8,8
	h127.3c4.4,0,8-3.6,8-8S481.8,468.8,477.4,468.8z M72.3,275c0-4.4-3.6-8-8-8H44.6c-4.4,0-8,3.6-8,8s3.6,8,8,8h19.7
	C68.7,283,72.3,279.4,72.3,275z"></path>
<path d="M370.6,103.7c-79-60.6-192.5-45.6-253,33.4c-60.6,79-45.6,192.5,33.4,253c32.7,25.1,71.3,37.2,109.6,37.2
	c54.2,0,107.9-24.3,143.4-70.6C464.5,277.8,449.5,164.3,370.6,103.7z M259,341.5c-52.5,0-95.2-42.7-95.2-95.2
	c0-41.6,26.8-77,64-89.9c0,0,0,0,0.1,0c9.8-3.4,20.3-5.2,31.2-5.2c52.5,0,95.2,42.7,95.2,95.2C354.2,298.8,311.5,341.5,259,341.5z
	 M100.9,208.3l49.9,12.2c-2,8.3-3,16.9-3,25.8c0,9.9,1.3,19.4,3.7,28.6l-50.1,12.3C94.9,261.5,94.6,234.3,100.9,208.3z M367.2,220.7
	l53.1-13.3c6.5,26.3,6.5,54.1-0.4,80.8L366.4,275c2.4-9.2,3.8-18.8,3.8-28.7C370.2,237.5,369.1,228.9,367.2,220.7z M415.3,190.8
	l-53.4,13.4c-11.1-26.9-32.4-48.5-59.1-60l12.8-52.3c15.9,5.6,31.2,13.8,45.2,24.6C386.6,136.2,404.9,162.2,415.3,190.8z M298.9,87
	l-12.6,51.6c-8.7-2.2-17.9-3.4-27.3-3.4c-9.5,0-18.8,1.2-27.6,3.5L218.7,88c13.8-3.6,28-5.5,42.2-5.5C273.6,82.5,286.4,84,298.9,87z
	 M130.2,146.8c19.2-25.1,44.3-43.1,71.9-53.5l12.7,51c-26.5,11.5-47.7,33-58.7,59.7l-50.3-12.3C111.4,175.9,119.5,160.8,130.2,146.8
	z M106.5,303.8l50.8-12.5c11.4,25.6,32.2,46.2,57.9,57.2l-12.8,52.2c-14.6-5.5-28.7-13.3-41.8-23.3
	C135.1,357.8,116.8,332.1,106.5,303.8z M219,406l12.7-51.9c8.7,2.2,17.8,3.4,27.2,3.4c9.2,0,18.1-1.1,26.6-3.2l12.9,52.6
	C272.5,413,245.2,412.8,219,406z M391.2,347c-20.2,26.3-46.9,44.9-76.1,55.1l-13.1-53.2c26-11,47-31.6,58.5-57.4l54.1,13.3
	C409.2,319.6,401.4,333.8,391.2,347z"></path>
</svg>