<svg version="1.1" id="Layer_1" xmlns="http://www.w3.org/2000/svg" xmlns:xlink="http://www.w3.org/1999/xlink" x="0px" y="0px" viewBox="0 0 512 512" enable-background="new 0 0 512 512" xml:space="preserve">
<linearGradient id="SVGID_1_" gradientUnits="userSpaceOnUse" x1="305.0201" y1="407.1517" x2="305.0201" y2="169.2172" class="gradient-element">
	<stop offset="0" class="primary-color-gradient" style="stop-color: #FFA4ED"></stop>
	<stop offset="1" class="secondary-color-gradient" style="stop-color: #DB81DA"></stop>
</linearGradient>
<path fill="url(#SVGID_1_)" d="M205.2,205.5c35.4,35.6,31.3,81.6,13.3,112.6c-3.8,6.5-13.3,6.5-17,0l-78-136
	c-7.3-12.6,6.5-27,19.4-20.2C163.3,172.7,187.3,187.6,205.2,205.5z M430.4,260.1c-9.2,5.3-15.2,14.8-16.2,25.4
	c-0.5,5.3-3.5,10-8.2,12.6l-151.2,82.8c-7.1,3.9-6.6,14.2,0.8,17.5c41,18.2,101.1,22.2,147.6-24.3c53.4-53.4,85.4-147.6,85.4-147.6
	L430.4,260.1z"></path>
<path d="M496.6,226.1c0-0.1,0-0.3,0-0.4c0-0.1,0-0.3,0-0.4c0-0.1,0-0.2-0.1-0.3c0-0.1-0.1-0.3-0.1-0.4c0-0.1-0.1-0.2-0.1-0.3
	c0-0.1-0.1-0.3-0.1-0.4c0-0.1-0.1-0.2-0.1-0.3c-0.1-0.1-0.1-0.2-0.2-0.4c-0.1-0.1-0.1-0.2-0.2-0.4c0-0.1-0.1-0.1-0.1-0.2
	c0,0,0-0.1-0.1-0.1c-0.1-0.1-0.2-0.2-0.2-0.4c-0.1-0.1-0.1-0.2-0.2-0.3c-0.1-0.1-0.2-0.2-0.3-0.3c-0.1-0.1-0.2-0.2-0.2-0.3
	c-0.1-0.1-0.2-0.2-0.3-0.3c-0.1-0.1-0.2-0.2-0.3-0.3c-0.1-0.1-0.2-0.2-0.3-0.3c-0.1-0.1-0.2-0.2-0.3-0.2c-0.1-0.1-0.2-0.2-0.3-0.2
	c-0.1-0.1-0.2-0.1-0.3-0.2c-0.1-0.1-0.2-0.1-0.4-0.2c-0.1-0.1-0.2-0.1-0.3-0.2c-0.1-0.1-0.2-0.1-0.4-0.2c-0.1-0.1-0.2-0.1-0.4-0.1
	c0,0-0.1,0-0.1,0c-0.1,0-0.2,0-0.3-0.1c-0.1,0-0.2-0.1-0.4-0.1c-0.1,0-0.3-0.1-0.4-0.1c-0.1,0-0.2,0-0.3-0.1c-0.1,0-0.3,0-0.4-0.1
	c-0.1,0-0.2,0-0.3,0c-0.1,0-0.3,0-0.4,0c-0.1,0-0.2,0-0.4,0c-0.1,0-0.3,0-0.4,0c-0.1,0-0.3,0-0.4,0c-0.1,0-0.2,0-0.4,0.1
	c-0.1,0-0.3,0.1-0.4,0.1c-0.1,0-0.2,0.1-0.3,0.1c-0.1,0-0.3,0.1-0.4,0.1c-0.1,0-0.2,0.1-0.3,0.1c-0.1,0.1-0.3,0.1-0.4,0.2
	c-0.1,0.1-0.2,0.1-0.3,0.2c-0.1,0-0.2,0.1-0.2,0.1L233.4,364.7c-0.2-3-0.4-6.3-0.4-9.6c0-43.6,23.2-100.8,88.6-118.2
	c28.6-7.6,65.9-10.5,108-8.4c4.4,0.2,8.2-3.2,8.4-7.6c0.2-4.4-3.2-8.2-7.6-8.4c-44.3-2.3-82.3,0.7-112.9,8.9
	c-39.8,10.6-65.9,34.2-81.4,61.4c0.1-2.3,0.2-4.6,0.1-6.9c-0.3-30-11.9-57.4-33.5-79c-45.8-45.8-124-72.7-127.4-73.8
	c-0.1,0-0.1,0-0.2-0.1c-0.1,0-0.3-0.1-0.4-0.1c-0.1,0-0.3-0.1-0.4-0.1c-0.1,0-0.1,0-0.2,0c-0.1,0-0.1,0-0.2,0c-0.2,0-0.3,0-0.5-0.1
	c-0.1,0-0.2,0-0.3,0c-0.2,0-0.3,0-0.5,0c-0.1,0-0.2,0-0.4,0c-0.1,0-0.3,0-0.4,0c-0.1,0-0.3,0-0.4,0c-0.1,0-0.2,0-0.3,0.1
	c-0.1,0-0.3,0.1-0.4,0.1c-0.1,0-0.2,0.1-0.3,0.1c-0.1,0-0.3,0.1-0.4,0.1c-0.1,0-0.2,0.1-0.3,0.1c-0.1,0.1-0.3,0.1-0.4,0.2
	c-0.1,0-0.2,0.1-0.3,0.1c-0.1,0.1-0.3,0.1-0.4,0.2c-0.1,0.1-0.2,0.1-0.3,0.2c-0.1,0.1-0.2,0.1-0.3,0.2c-0.1,0.1-0.2,0.2-0.3,0.2
	c-0.1,0.1-0.2,0.2-0.3,0.2c-0.1,0.1-0.2,0.2-0.3,0.3c-0.1,0.1-0.2,0.2-0.3,0.3c-0.1,0.1-0.2,0.2-0.2,0.3c-0.1,0.1-0.2,0.2-0.3,0.3
	c-0.1,0.1-0.1,0.2-0.2,0.3c-0.1,0.1-0.2,0.2-0.2,0.4c-0.1,0.1-0.1,0.2-0.2,0.3c-0.1,0.1-0.2,0.3-0.2,0.4c0,0.1-0.1,0.2-0.1,0.3
	c-0.1,0.2-0.1,0.3-0.2,0.5c0,0,0,0.1-0.1,0.1c0,0.1,0,0.1,0,0.2c0,0.2-0.1,0.3-0.1,0.5c0,0.1-0.1,0.2-0.1,0.4c0,0.1,0,0.1,0,0.2
	c-0.6,3.4-14.2,83.7,2.4,145.8c2.3,8.5,4.4,15,8.7,23.1c1.4,2.7,4.2,4.3,7.1,4.3c1.3,0,2.5-0.3,3.7-0.9c3.9-2.1,5.4-6.9,3.4-10.8
	c-3.2-6.1-5-11-7.4-19.8c-12.5-46.6-6.5-106.4-3.5-129.4c21.8,8.4,77.8,32.3,112.1,66.6c44.6,44.7,28.5,101.8,11.9,128.5
	c-0.4,0.7-0.8,1.3-1.1,1.9l-98.9-171.2c-2.2-3.8-7.1-5.1-10.9-2.9c-3.8,2.2-5.1,7.1-2.9,10.9l97.7,169.2H181
	c-19.9,0-48.5-4.7-71.4-27.3c-3.1-3.1-8.2-3.1-11.3,0.1c-3.1,3.1-3.1,8.2,0.1,11.3c26.8,26.4,59.7,31.9,82.6,31.9h17.5
	c0.8,0.3,1.7,0.4,2.6,0.4c0.9,0,1.9-0.2,2.8-0.5c5.9-2.2,8.6-7.2,11-11.7c0.7-1.2,1.4-2.5,2.1-3.7c0.2-0.3,0.3-0.6,0.5-0.9
	c-0.3,3.7-0.4,7.3-0.4,10.9c0,4.3,0.3,8.5,0.5,11.8c0,0,0,0.1,0,0.1c0.4,5.3,1.2,9.4,2.4,12.8c0,0,0,0.1,0,0.1c0,0,0,0,0,0.1
	c0,0.1,0,0.1,0.1,0.2c2.5,6.6,6.7,11.3,14.7,16.2c23.3,14.5,52.4,22.7,80,22.7c0.5,0,1,0,1.5,0c35.3-0.4,67.4-14,92.8-39.4
	c54.1-54.1,86-146.8,87.3-150.7c0-0.1,0-0.2,0.1-0.2c0-0.1,0.1-0.3,0.1-0.4c0-0.1,0.1-0.2,0.1-0.4c0-0.1,0.1-0.3,0.1-0.4
	c0-0.1,0-0.3,0-0.4c0-0.1,0-0.2,0-0.4c0-0.1,0-0.3,0-0.4C496.6,226.4,496.6,226.2,496.6,226.1z M397.5,368.4
	c-53.8,53.7-122.4,34.3-154.5,14.4c-1.7-1.1-3-2-4.1-2.9L473,244.7C460.5,275.1,434,332,397.5,368.4z"></path>
<g>
	<path fill="#DB81DA" class="secondary-color" d="M479.7,27.3v46.3h-22.5V27.3H479.7z M367.3,27.3v46.3h22.5V27.3H367.3z M412.7,27.3v46.3h21.6V27.3H412.7z"></path>
	<path fill="#FFA4ED" class="primary-color" d="M344.4,27.3v46.3h-21.6V27.3H344.4z"></path>
</g>
<path d="M150.4,330.5H63.6c-4.4,0-8-3.6-8-8s3.6-8,8-8h86.8c4.4,0,8,3.6,8,8S154.9,330.5,150.4,330.5z M97.3,294.4c0-4.4-3.6-8-8-8
	H31.9c-4.4,0-8,3.6-8,8s3.6,8,8,8h57.4C93.8,302.4,97.3,298.8,97.3,294.4z M417.4,452c-5,0-9,4.1-9,9s4.1,9,9,9s9-4.1,9-9
	S422.4,452,417.4,452z M387.4,452c-5,0-9,4.1-9,9s4.1,9,9,9s9-4.1,9-9S392.4,452,387.4,452z M477.4,452c-5,0-9,4.1-9,9s4.1,9,9,9
	s9-4.1,9-9S482.4,452,477.4,452z M446.9,452c-5,0-9,4.1-9,9s4.1,9,9,9s9-4.1,9-9S451.9,452,446.9,452z M417.3,439.3c4.9,0,9-4,9-9
	c0-4.9-4-9-9-9s-9,4-9,9C408.4,435.3,412.4,439.3,417.3,439.3z M446.9,439.3c4.9,0,9-4,9-9c0-4.9-4-9-9-9s-9,4-9,9
	C438,435.3,442,439.3,446.9,439.3z M477.4,421.3c-5,0-9,4.1-9,9s4.1,9,9,9s9-4.1,9-9S482.4,421.3,477.4,421.3z M163.3,401.9h-59.2
	c-4.4,0-8,3.6-8,8s3.6,8,8,8h59.2c4.4,0,8-3.6,8-8S167.7,401.9,163.3,401.9z M45.2,66.6c-4.4,0-8,3.6-8,8s3.6,8,8,8
	c7.2,0,13.7-2.9,18.5-7.5c4.8,4.7,11.3,7.5,18.5,7.5c4.4,0,8-3.6,8-8s-3.6-8-8-8c-5.7,0-10.4-4.7-10.4-10.4s4.7-10.4,10.4-10.4
	c4.4,0,8-3.6,8-8s-3.6-8-8-8c-7.2,0-13.7,2.9-18.5,7.5c-4.8-4.7-11.3-7.5-18.5-7.5c-4.4,0-8,3.6-8,8s3.6,8,8,8
	c5.7,0,10.4,4.7,10.4,10.4S50.9,66.6,45.2,66.6z M487.7,110.1c0-4.4-3.6-8-8-8H322.9c-4.4,0-8,3.6-8,8s3.6,8,8,8h156.8
	C484.1,118.1,487.7,114.5,487.7,110.1z M269.9,152.2H266v-3.9c0-4.4-3.6-8-8-8s-8,3.6-8,8v3.9h-3.9c-4.4,0-8,3.6-8,8s3.6,8,8,8h3.9
	v3.9c0,4.4,3.6,8,8,8s8-3.6,8-8v-3.9h3.9c4.4,0,8-3.6,8-8S274.3,152.2,269.9,152.2z M470.8,204.2c1.6-4.1-0.4-8.8-4.5-10.4
	c-52.2-20.8-120.6-8-123.5-7.4c-4.3,0.8-7.2,5-6.3,9.4c0.8,4.3,5,7.2,9.4,6.3c0.7-0.1,66.7-12.5,114.5,6.6c1,0.4,2,0.6,3,0.6
	C466.6,209.2,469.6,207.3,470.8,204.2z"></path>
</svg>