<svg version="1.1" id="Layer_1" xmlns="http://www.w3.org/2000/svg" xmlns:xlink="http://www.w3.org/1999/xlink" x="0px" y="0px" viewBox="0 0 512 512" enable-background="new 0 0 512 512" xml:space="preserve">
<linearGradient id="SVGID_1_" gradientUnits="userSpaceOnUse" x1="255.4164" y1="313.1718" x2="255.4164" y2="176.778" class="gradient-element">
	<stop offset="0" class="primary-color-gradient" style="stop-color: #FFA4ED"></stop>
	<stop offset="1" class="secondary-color-gradient" style="stop-color: #DB81DA"></stop>
</linearGradient>
<path fill="url(#SVGID_1_)" d="M206.5,279.6c-8.2-10-13.4-22.6-14.2-36.4c3-1,7.5-0.8,8.9,2.7c3.6,8.7,8.4,16.4,14.4,22.7
	L206.5,279.6z M256.1,192.6c5.7,3,10.6,6.3,14.8,9.7l15-18c-3.5-1.9-7.2-3.6-11.1-4.8c-4.4-0.9-9-1.3-13.6-1.3h-0.2
	C253.3,178.2,249.3,189.1,256.1,192.6z M254.1,300.2l63.1-73.3c0.8,4.1,1.3,8.3,1.3,12.7c0,34.8-28.3,63.1-63.1,63.1
	c-0.4,0-0.9,0-1.3,0V300.2z"></path>
<path d="M460.4,244c-2.9-10.4-20.6-64-87.5-94.3c0,0-0.1,0-0.1,0c-0.2-0.1-0.3-0.1-0.5-0.2c-0.1,0-0.2-0.1-0.3-0.1
	c-0.1,0-0.3-0.1-0.4-0.1c-0.1,0-0.2-0.1-0.3-0.1c-0.1,0-0.2,0-0.4-0.1c-0.1,0-0.3,0-0.4-0.1c-0.1,0-0.2,0-0.3,0c-0.2,0-0.3,0-0.5,0
	c-0.1,0-0.2,0-0.3,0c-0.2,0-0.3,0-0.5,0c-0.1,0-0.2,0-0.3,0c-0.1,0-0.3,0-0.4,0.1c-0.1,0-0.3,0.1-0.4,0.1c-0.1,0-0.2,0.1-0.4,0.1
	c-0.1,0-0.3,0.1-0.4,0.1c-0.1,0-0.2,0.1-0.3,0.1c-0.2,0.1-0.3,0.1-0.5,0.2c-0.1,0-0.2,0.1-0.2,0.1c-0.1,0.1-0.3,0.2-0.4,0.2
	c-0.1,0-0.2,0.1-0.3,0.1c-0.1,0.1-0.2,0.2-0.4,0.2c-0.1,0.1-0.2,0.1-0.3,0.2c-0.1,0.1-0.2,0.2-0.3,0.2c-0.1,0.1-0.2,0.2-0.3,0.3
	c-0.1,0.1-0.2,0.2-0.2,0.2c-0.1,0.1-0.2,0.2-0.3,0.4c0,0,0,0.1-0.1,0.1l-163.1,196c0,0,0,0,0,0c-0.3,0.4-0.6,0.8-0.8,1.2
	c0,0,0,0.1-0.1,0.1c0,0,0,0.1-0.1,0.1c-0.2,0.4-0.4,0.9-0.6,1.4c0,0,0,0,0,0c0,0,0,0,0,0.1c-0.1,0.2-0.1,0.5-0.2,0.7
	c0,0.1,0,0.2,0,0.3c0,0.1,0,0.3-0.1,0.4c0,0.2,0,0.3,0,0.5c0,0.1,0,0.2,0,0.3c0,0.2,0,0.3,0,0.5c0,0.1,0,0.2,0,0.3
	c0,0.2,0,0.3,0.1,0.5c0,0.1,0,0.2,0,0.3c0,0.1,0.1,0.3,0.1,0.4c0,0.1,0.1,0.2,0.1,0.3c0,0.1,0.1,0.2,0.1,0.3c0,0.1,0.1,0.3,0.1,0.4
	c0,0.1,0.1,0.2,0.1,0.3c0.1,0.1,0.1,0.3,0.2,0.4c0,0.1,0.1,0.2,0.1,0.2c0.1,0.1,0.2,0.3,0.3,0.4c0.1,0.1,0.1,0.2,0.2,0.3
	c0.1,0.1,0.2,0.2,0.3,0.4c0.1,0.1,0.2,0.2,0.3,0.3c0.1,0.1,0.1,0.2,0.2,0.2c0.2,0.2,0.3,0.3,0.5,0.5c0,0,0,0,0.1,0.1c0,0,0,0,0,0
	c0.1,0.1,0.2,0.2,0.3,0.2c0.1,0.1,0.2,0.1,0.3,0.2c0.1,0.1,0.2,0.1,0.3,0.2c0.1,0.1,0.2,0.2,0.4,0.2c0.1,0,0.2,0.1,0.3,0.1
	c0.2,0.1,0.3,0.1,0.5,0.2c0.1,0,0.1,0.1,0.2,0.1c0.2,0.1,0.4,0.1,0.5,0.2c0,0,0.1,0,0.1,0c0.1,0,0.2,0,0.2,0.1c0,0,0,0,0,0
	c19.2,5.6,39.9,8.5,61.7,8.5c92.9,0,136.1-51.9,140.7-57.8l-6.3-5l-6.4-4.9c-4.1,5.3-42.8,51.6-128.1,51.6
	c-15.9,0-31.1-1.6-45.5-4.8l27.8-33.5c0.5,0.2,1.1,0.3,1.7,0.3c1.6,0.1,3.3,0.2,4.9,0.2c42.5,0,77.1-34.6,77.1-77.1
	c0-4.9-0.5-9.8-1.4-14.5c-0.4-1.9-1.3-3.4-2.7-4.6l43.5-52.3c24,11.9,43.3,28.4,57.4,49c10.7,15.7,14.8,28.7,15.8,32.3
	c0,0,0,0.1,0,0.1c1,3.5,4.2,5.8,7.7,5.8c0.7,0,1.4-0.1,2.2-0.3C459.1,252.7,461.6,248.2,460.4,244z M316.4,238.3
	c0,31.5-23.9,57.4-54.5,60.7l54.3-65.3C316.3,235.2,316.4,236.7,316.4,238.3z M322.3,146.2c0,0,0.1-0.1,0.1-0.1
	c0.1-0.1,0.2-0.2,0.3-0.4c0.1-0.1,0.1-0.2,0.2-0.3c0.1-0.1,0.2-0.2,0.2-0.4c0.1-0.1,0.1-0.2,0.2-0.3c0.1-0.1,0.1-0.2,0.2-0.4
	c0.1-0.1,0.1-0.2,0.2-0.4c0-0.1,0.1-0.2,0.1-0.3c0.1-0.1,0.1-0.3,0.1-0.4c0-0.1,0.1-0.2,0.1-0.3c0-0.2,0.1-0.3,0.1-0.5
	c0,0,0-0.1,0-0.1c0-0.1,0-0.1,0-0.2c0-0.1,0-0.3,0.1-0.4c0-0.1,0-0.3,0-0.4c0-0.1,0-0.2,0-0.4c0-0.1,0-0.3,0-0.4c0-0.1,0-0.2,0-0.3
	c0-0.2,0-0.3-0.1-0.5c0-0.1,0-0.2-0.1-0.3c0-0.2-0.1-0.3-0.1-0.4c0-0.1-0.1-0.2-0.1-0.3c0-0.1-0.1-0.3-0.1-0.4
	c0-0.1-0.1-0.2-0.1-0.4c0-0.1-0.1-0.2-0.1-0.3c-0.1-0.1-0.1-0.3-0.2-0.4c-0.1-0.1-0.1-0.2-0.2-0.3c-0.1-0.1-0.2-0.2-0.2-0.4
	c-0.1-0.1-0.1-0.2-0.2-0.3c-0.1-0.1-0.2-0.2-0.3-0.3c-0.1-0.1-0.2-0.2-0.3-0.3c-0.1-0.1-0.2-0.2-0.2-0.3c-0.1-0.1-0.2-0.2-0.3-0.3
	c0,0-0.1-0.1-0.1-0.1c0,0-0.1,0-0.1-0.1c-0.1-0.1-0.3-0.2-0.4-0.3c-0.1-0.1-0.2-0.1-0.2-0.2c-0.1-0.1-0.3-0.2-0.4-0.2
	c-0.1-0.1-0.2-0.1-0.3-0.2c-0.1-0.1-0.2-0.1-0.4-0.2c-0.1-0.1-0.2-0.1-0.4-0.2c-0.1,0-0.2-0.1-0.3-0.1c-0.1-0.1-0.3-0.1-0.4-0.1
	c-0.1,0-0.2-0.1-0.3-0.1c-0.2,0-0.3-0.1-0.5-0.1c0,0-0.1,0-0.1,0c-16-2.7-33.2-4-51.2-4c-166.4,0-193.8,114.1-194,115.3
	c-1,4.3,1.8,8.6,6.1,9.5c0.6,0.1,1.2,0.2,1.8,0.2c3.7,0,7-2.5,7.8-6.3c0.2-1,24.9-102.8,178.4-102.8c11.9,0,23.4,0.6,34.4,1.9
	l-16.6,19.7c-6.7-2.7-13.6-4.4-20.8-5.2c-0.2,0-0.3,0-0.5,0l-7.2-0.3c-0.2,0-0.4,0-0.6,0l-7.2,0.3c-0.2,0-0.3,0-0.5,0
	c-18.9,2-36.3,10.8-49.1,25c-12.9,14.2-20,32.6-20,51.8c0,14.4,4,28.3,11.5,40.4L156,318.6c-10.8-8.4-16.6-15.6-17.8-17.1
	c-2.7-3.5-7.7-4.1-11.2-1.4c-3.5,2.7-4.1,7.8-1.4,11.2c2.3,2.9,11,13.4,27.1,24.7c0.3,0.2,0.7,0.4,1,0.6c0,0,0.1,0,0.1,0.1
	c0.3,0.2,0.7,0.3,1,0.4c0.1,0,0.1,0,0.2,0.1c0.3,0.1,0.7,0.2,1,0.2c0.1,0,0.1,0,0.2,0c0.3,0,0.7,0.1,1,0.1c0,0,0,0,0,0
	c0,0,0.1,0,0.1,0c0.3,0,0.5,0,0.8,0c0.1,0,0.2,0,0.3-0.1c0.2,0,0.4-0.1,0.6-0.1c0.1,0,0.2-0.1,0.3-0.1c0.2,0,0.4-0.1,0.5-0.2
	c0.1,0,0.2-0.1,0.3-0.1c0.2-0.1,0.3-0.1,0.5-0.2c0.1-0.1,0.2-0.1,0.3-0.2c0.2-0.1,0.3-0.2,0.4-0.3c0.1-0.1,0.2-0.2,0.3-0.2
	c0.1-0.1,0.3-0.2,0.4-0.3c0.1-0.1,0.2-0.2,0.3-0.3c0.1-0.1,0.2-0.2,0.4-0.3c0.1-0.1,0.2-0.2,0.3-0.3c0,0,0.1-0.1,0.1-0.1
	L322.3,146.2z M194.2,238.3c0-31.4,23.4-57.5,54.5-60.8l6.6-0.2l6.6,0.2c3.8,0.4,7.6,1.2,11.2,2.3l-72.4,85.9
	C196.4,257.2,194.2,247.9,194.2,238.3z"></path>
<path fill="#FFA4ED" class="primary-color" d="M490.4,379.2v44.5H446v-44.5H490.4z M446,490.6h44.5v-44.5H446V490.6z M377.6,490.6h44.5v-44.5h-44.5V490.6z
	"></path>
<path fill="#000000" d="M505.8,284.4c0,4.4-3.6,8-8,8h-3.9v3.9c0,4.4-3.6,8-8,8s-8-3.6-8-8v-3.9H474c-4.4,0-8-3.6-8-8s3.6-8,8-8h3.9
	v-3.9c0-4.4,3.6-8,8-8s8,3.6,8,8v3.9h3.9C502.2,276.4,505.8,279.9,505.8,284.4z M94.8,94.4c4.4,0,8-3.6,8-8s-3.6-8-8-8
	c-5.7,0-10.4-4.7-10.4-10.4S89,57.6,94.8,57.6c4.4,0,8-3.6,8-8s-3.6-8-8-8c-14.6,0-26.4,11.8-26.4,26.4S80.2,94.4,94.8,94.4z
	 M158.8,420.4h-43c-4.4,0-8,3.6-8,8s3.6,8,8,8h43c4.4,0,8-3.6,8-8S163.2,420.4,158.8,420.4z M137.3,450.4H63.5c-4.4,0-8,3.6-8,8
	s3.6,8,8,8h73.8c4.4,0,8-3.6,8-8S141.7,450.4,137.3,450.4z M74.4,382.6c0,3.6,2.9,6.5,6.5,6.5H116c3.6,0,6.5-2.9,6.5-6.5
	s-2.9-6.5-6.5-6.5H80.9C77.3,376.1,74.4,379,74.4,382.6z M203.6,78.6h3.9c4.4,0,8-3.6,8-8s-3.6-8-8-8h-3.9v-3.9c0-4.4-3.6-8-8-8
	s-8,3.6-8,8v3.9h-3.9c-4.4,0-8,3.6-8,8s3.6,8,8,8h3.9v3.9c0,4.4,3.6,8,8,8s8-3.6,8-8V78.6z M234,452h-3.9v-3.9c0-4.4-3.6-8-8-8
	s-8,3.6-8,8v3.9h-3.9c-4.4,0-8,3.6-8,8s3.6,8,8,8h3.9v3.9c0,4.4,3.6,8,8,8s8-3.6,8-8V468h3.9c4.4,0,8-3.6,8-8S238.5,452,234,452z
	 M464.3,101.4c-4.2-4.2-11-4.2-15.2,0s-4.2,11,0,15.2c4.2,4.2,11,4.2,15.2,0C468.5,112.4,468.5,105.6,464.3,101.4z"></path>
</svg>