<svg version="1.1" id="Layer_1" xmlns="http://www.w3.org/2000/svg" xmlns:xlink="http://www.w3.org/1999/xlink" x="0px" y="0px" viewBox="0 0 512 512" enable-background="new 0 0 512 512" xml:space="preserve">
<g>
	<linearGradient id="SVGID_1_" gradientUnits="userSpaceOnUse" x1="338.1402" y1="372.5824" x2="338.1402" y2="103.8262" class="gradient-element">
		<stop offset="0" class="primary-color-gradient" style="stop-color: #FFA4ED"></stop>
		<stop offset="1" class="secondary-color-gradient" style="stop-color: #DB81DA"></stop>
	</linearGradient>
	<path fill="url(#SVGID_1_)" d="M329.8,139.5l25.2,56.4l23-5.4c10,22.3,30.9,67.5,31.6,79.1c0.6,8.7-41.1,55.4-37.3,64l10.5,30
		L360,373.8c-4.9,2.2-12.5,0.3-14.7-4.6l-22.2-55.7c-2.2-4.9,0-10.7,4.9-12.9h0c8.8-3.9,5.3-21.7,2.2-30.9l-63-156.9
		c-2.6-5.9,3.4-11.9,9.2-9.2c4,1.8,7.6,5.3,10,10.7c-2.5-5.5,1.3-11.5,7.4-14.2c5.1-2.3,9.1-2.5,12.6-0.9
		C306.5,99.2,312,95.4,329.8,139.5z"></path>
	<linearGradient id="SVGID_2_" gradientUnits="userSpaceOnUse" x1="231.2645" y1="480.7493" x2="231.2645" y2="225.6009">
		<stop offset="0" class="primary-color-gradient" style="stop-color: #FFA4ED"></stop>
		<stop offset="1" class="secondary-color-gradient" style="stop-color: #DB81DA"></stop>
	</linearGradient>
	<path fill="url(#SVGID_2_)" d="M299,287.8l-39.8,104c-8.7,22.9-18.3,33.8-26.1,42.5c-5.8,6.5-10.3,11.7-13.7,20.5l-10.7,28
		l-51.1-19.5c-5-1.9-7.6-7.6-5.6-12.6l15.7-30.4c1.9-5,7.6-7.6,12.6-5.6h0c9,3.5,22.6-9.7,26.9-18.3l21.7-55l44.6-116.6
		c2.3-6,10.8-6,13.1,0c1.5,4.1,1.6,9.1-0.5,14.7c2.2-5.7,9-7.2,15.3-4.8c5.2,2,8.2,4.7,9.5,8.2L299,287.8z"></path>
</g>
<path d="M104.8,269.8H37c-4.4,0-8-3.6-8-8s3.6-8,8-8h67.8c4.4,0,8,3.6,8,8S109.2,269.8,104.8,269.8z M128.6,155.3
	c1.6,1.6,3.6,2.3,5.7,2.3c2,0,4.1-0.8,5.7-2.3c3.1-3.1,3.1-8.2,0-11.3L92,96.1c-3.1-3.1-8.2-3.1-11.3,0c-3.1,3.1-3.1,8.2,0,11.3
	L128.6,155.3z M452.7,96.1c-3.1-3.1-8.2-3.1-11.3,0L393.4,144c-3.1,3.1-3.1,8.2,0,11.3c1.6,1.6,3.6,2.3,5.7,2.3s4.1-0.8,5.7-2.3
	l47.9-47.9C455.8,104.3,455.8,99.2,452.7,96.1z M239.9,106.5c4.4,0,8-3.6,8-8V30.7c0-4.4-3.6-8-8-8s-8,3.6-8,8v67.8
	C231.9,102.9,235.5,106.5,239.9,106.5z M429.4,369.3c0,4.4-3.6,8-8,8h-67.8c-4.4,0-8-3.6-8-8s3.6-8,8-8h22.9l-9.9-23.4
	c0-0.1-0.1-0.2-0.1-0.3c-5.1-13.3,2.6-23,15.3-39c3.4-4.3,7.3-9.3,11.4-14.8c9.1-12.4,9.4-14.1,7.6-19c-3.1-8.1-5.8-15.6-8.4-22.8
	c-5.2-14.3-9.6-26.7-14-34.7c-2.9-5.4-5.6-8.5-7.6-8.8c-1.6,0.5-5.1,1.7-8,2.8l17,44.6c1.6,4.1-0.5,8.8-4.6,10.3
	c-4.1,1.6-8.8-0.5-10.3-4.6l-49.3-129c-2.3-6.1-6.5-13.3-13.1-13.4c-3.3,0-6.2,1.7-7.6,3.1l34.8,91c1.6,4.1-0.5,8.8-4.6,10.3
	c-4.1,1.6-8.8-0.5-10.3-4.6l-36-94.1c0-0.1-0.1-0.3-0.1-0.4c-2.3-5.2-7.9-5.3-12.1-3.7c-6,2.3-7.9,5.1-7.6,11.9l35.9,93.9
	c0.8,2.2,0.6,4.5-0.3,6.5c0.3,0.9,0.5,1.7,0.7,2.6c3-0.1,6.1,0.5,9.1,1.6c9.8,3.7,15,10.2,15.4,19.3c0.4,6.9-2,14.5-6.1,25.4
	l-47,122.8c-9.3,24.2-19.8,36.2-27.5,44.9c-5.5,6.2-9.4,10.6-12.2,18.1l-7.8,20.5c-1.2,3.2-4.3,5.1-7.5,5.1c-0.9,0-1.9-0.2-2.9-0.5
	c-4.1-1.6-6.2-6.2-4.6-10.3l7.8-20.5c3.9-10.2,9.1-16.1,15.1-22.9c7.7-8.7,16.4-18.6,24.6-40.1l47-122.8c2.6-6.8,5.3-14.3,5.1-18.8
	c-0.1-1.5-0.2-3.3-5.2-5.2c-2-0.8-3.7-0.6-4.5-0.3c-0.4,0.2-0.4,0.3-0.5,0.4c0,0,0,0,0,0c0,0,0,0,0,0c-0.1,0.2-0.1,0.4-0.2,0.5
	l-30.6,79.9c-1.6,4.1-6.2,6.2-10.3,4.6c-4.1-1.6-6.2-6.2-4.6-10.3l31.1-81.2c0,0,0,0,0-0.1c2.1-6.3-0.3-10.3-2.8-12.4
	c-2.8-2.5-6.8-3.6-10-3l-34.6,90.5c-1.6,4.1-6.2,6.2-10.3,4.6c-4.1-1.6-6.2-6.2-4.6-10.3l35.9-93.9c0.4-6.8-1.5-9.6-7.6-11.9
	c-4.2-1.6-9.8-1.6-12.1,3.7c0,0.1-0.1,0.3-0.1,0.4l-36,94.1c-1.6,4.1-6.2,6.2-10.3,4.6c-4.1-1.6-6.2-6.2-4.6-10.3l34.8-91
	c-1.4-1.4-4.2-3.1-7.6-3.1c-6.6,0.1-10.7,7.3-13.1,13.4l-49.3,129c-1.6,4.1-6.2,6.2-10.3,4.6s-6.2-6.2-4.6-10.3l17-44.6
	c-2.9-1-6.4-2.3-8-2.8c-2,0.3-4.7,3.4-7.6,8.8c-4.4,8.1-8.8,20.4-14,34.7c-2.6,7.3-5.3,14.8-8.4,22.8c-1.8,4.8-1.5,6.5,7.6,18.9
	c4.1,5.6,8,10.5,11.4,14.8c12.7,16,20.4,25.7,15.3,39l-7.8,20.5c-1.6,4.1-6.2,6.2-10.3,4.6c-4.1-1.6-6.2-6.2-4.6-10.3l7.8-20.5
	c1.6-4.1-0.5-7.8-12.9-23.4c-3.5-4.5-7.6-9.5-11.8-15.4c-8.6-11.8-14.9-20.4-9.6-34.1c3-7.9,5.7-15.4,8.3-22.5
	c5.4-14.9,10-27.8,15-36.9c2.4-4.5,9.8-18.1,23.3-17.1c1.9,0.1,7.9,2.2,12.1,3.8l26.6-69.5c4.7-12.3,11.2-18.3,17.3-21.2
	c-0.2-0.3-0.4-0.7-0.5-1.1c-0.5-1.3-1-2.6-1.5-3.9c-4.1-11.2-11.8-32.2,10.8-40.8c3-1.1,6.1-1.7,9.1-1.6c1.1-5.4,4-10.3,8.4-14.2
	c5.3-4.7,12-7.1,18.6-7.2c1.2-6.9,5.3-15.1,17.4-19.8c9.4-3.6,18.7-2.3,25.3,2.9c3.6-2.8,8.2-4.8,13.1-5.4
	c6.4-0.8,22.2-0.1,31.3,23.5l26.6,69.5c4.2-1.5,10.1-3.6,12.1-3.8c13.4-1,20.8,12.6,23.3,17.1c5,9.1,9.6,22,15,36.9
	c2.6,7.2,5.3,14.6,8.3,22.5c5.3,13.7-1,22.3-9.6,34.1c-4.2,5.8-8.3,10.9-11.8,15.4c-12.3,15.5-14.4,19.3-12.9,23.3l12.4,29.5h27.5
	C425.8,361.3,429.4,364.9,429.4,369.3z M225.5,187.3c1.3-1.1,2.8-1.9,4.4-2.7l-11.7-30.5c-0.1-0.2-0.2-0.3-0.2-0.5c0,0,0,0,0,0
	c0,0,0,0,0,0c0,0,0,0,0,0c-0.1-0.1-0.1-0.3-0.5-0.4c-0.8-0.4-2.4-0.5-4.5,0.3c-5.2,2-7.8,3-1.5,20.3c0.4,1.2,0.9,2.4,1.4,3.6
	c0.6,1.5,0.7,3.2,0.3,4.7C217.7,182.8,222,184.7,225.5,187.3z M245.3,131.6c-3.2-0.6-7.1,0.5-10,3c-2.5,2.2-4.9,6.1-2.8,12.4
	c0,0,0,0,0,0.1l13.7,35.9c1.5,0.3,3,0.8,4.5,1.3c12.1,4.6,16.2,12.8,17.4,19.8c1.7,0,3.3,0.2,5,0.5L245.3,131.6z M340.8,392.3
	c-3.1-3.1-8.2-3.1-11.3,0c-3.1,3.1-3.1,8.2,0,11.3l47.9,47.9c1.6,1.6,3.6,2.3,5.7,2.3c2,0,4.1-0.8,5.7-2.3c3.1-3.1,3.1-8.2,0-11.3
	L340.8,392.3z M298.7,404c-4.4,0-8,3.6-8,8v67.8c0,4.4,3.6,8,8,8s8-3.6,8-8V412C306.7,407.6,303.2,404,298.7,404z"></path>
<path fill="#FFA4ED" class="primary-color" d="M421.9,18.1h27.4v27.4h-27.4V18.1z M490.6,45.5V18.1h-27.4v27.4H490.6z M490.6,87.7V60.3h-27.4v27.4H490.6z"></path>
<path d="M81.2,485.7c0,4.4-3.6,8-8,8h-43c-4.4,0-8-3.6-8-8s3.6-8,8-8h43C77.6,477.7,81.2,481.3,81.2,485.7z M461.3,435.9h-3.9V432
	c0-4.4-3.6-8-8-8s-8,3.6-8,8v3.9h-3.9c-4.4,0-8,3.6-8,8s3.6,8,8,8h3.9v3.9c0,4.4,3.6,8,8,8s8-3.6,8-8v-3.9h3.9c4.4,0,8-3.6,8-8
	S465.7,435.9,461.3,435.9z M12.8,57.3c20.3,0,36.8-16.5,36.8-36.8c0-4.4-3.6-8-8-8s-8,3.6-8,8c0,11.4-9.3,20.8-20.8,20.8
	c-4.4,0-8,3.6-8,8S8.4,57.3,12.8,57.3z M91.5,41.3c-11.4,0-20.8-9.3-20.8-20.8c0-4.4-3.6-8-8-8s-8,3.6-8,8
	c0,20.3,16.5,36.8,36.8,36.8c4.4,0,8-3.6,8-8S95.9,41.3,91.5,41.3z M91.5,62.5c-20.3,0-36.8,16.5-36.8,36.8c0,4.4,3.6,8,8,8
	s8-3.6,8-8c0-11.4,9.3-20.8,20.8-20.8c4.4,0,8-3.6,8-8S95.9,62.5,91.5,62.5z M33.5,99.3c0,4.4,3.6,8,8,8s8-3.6,8-8
	C49.5,79,33,62.5,12.8,62.5c-4.4,0-8,3.6-8,8s3.6,8,8,8C24.2,78.5,33.5,87.8,33.5,99.3z"></path>
</svg>