<svg version="1.1" id="Layer_1" xmlns="http://www.w3.org/2000/svg" xmlns:xlink="http://www.w3.org/1999/xlink" x="0px" y="0px" viewBox="0 0 512 512" enable-background="new 0 0 512 512" xml:space="preserve">
<linearGradient id="SVGID_1_" gradientUnits="userSpaceOnUse" x1="303.8477" y1="417.7486" x2="303.8477" y2="94.2537" class="gradient-element">
	<stop offset="0" class="primary-color-gradient" style="stop-color: #FFA4ED"></stop>
	<stop offset="1" class="secondary-color-gradient" style="stop-color: #DB81DA"></stop>
</linearGradient>
<path fill="url(#SVGID_1_)" d="M330.1,108c0-7.7,7.4-12.6,15.9-12.6c19.1,0,21.1,13.3,21.1,38.4v166.4c0,31-6.4,48.2-11.6,62
	c-3.9,10.3-6.9,18.5-6.9,30.4v27.7H240.7v-31.6h33.1c12.2,0,22.5-9.3,23.7-21.4l11.2-113V96.3c0-8.1,10.1-12,15.4-5.9
	C327.7,94.6,330.1,100.4,330.1,108C330.1,108,330.1,108,330.1,108"></path>
<g>
	<path fill="#FFA4ED" class="primary-color" d="M460.5,130.1V19H504v111.2H460.5z"></path>
	<path fill="#DB81DA" class="secondary-color" d="M390.4,62.6V19H434v43.6H390.4z"></path>
</g>
<path d="M157.6,484.2c0,4.4-3.6,8-8,8H62.7c-4.4,0-8-3.6-8-8s3.6-8,8-8h86.8C154,476.2,157.6,479.8,157.6,484.2z M104.7,181.1
	c0-4.4-3.6-8-8-8H39.3c-4.4,0-8,3.6-8,8s3.6,8,8,8h57.4C101.1,189.1,104.7,185.5,104.7,181.1z M483.7,458.3c5,0,9-4.1,9-9
	s-4.1-9-9-9s-9,4.1-9,9S478.7,458.3,483.7,458.3z M393.7,470.9c-5,0-9,4.1-9,9s4.1,9,9,9s9-4.1,9-9S398.7,470.9,393.7,470.9z
	 M423.7,470.9c-5,0-9,4.1-9,9s4.1,9,9,9s9-4.1,9-9S428.7,470.9,423.7,470.9z M453.2,458.2c4.9,0,9-4,9-9c0-4.9-4-9-9-9s-9,4-9,9
	C444.3,454.2,448.3,458.2,453.2,458.2z M483.7,470.9c-5,0-9,4.1-9,9s4.1,9,9,9s9-4.1,9-9S488.7,470.9,483.7,470.9z M453.2,470.9
	c-5,0-9,4.1-9,9s4.1,9,9,9s9-4.1,9-9S458.2,470.9,453.2,470.9z M423.6,458.2c4.9,0,9-4,9-9c0-4.9-4-9-9-9s-9,4-9,9
	C414.7,454.2,418.7,458.2,423.6,458.2z M458.8,286.5H443v-15.8c0-4.4-3.6-8-8-8s-8,3.6-8,8v15.8h-15.8c-4.4,0-8,3.6-8,8s3.6,8,8,8
	H427v15.8c0,4.4,3.6,8,8,8s8-3.6,8-8v-15.8h15.8c4.4,0,8-3.6,8-8S463.2,286.5,458.8,286.5z M72.6,68c0-14.6,11.8-26.4,26.4-26.4
	s26.4,11.8,26.4,26.4S113.5,94.4,99,94.4S72.6,82.6,72.6,68z M88.6,68c0,5.7,4.7,10.4,10.4,10.4s10.4-4.7,10.4-10.4
	S104.7,57.6,99,57.6S88.6,62.3,88.6,68z M132.5,407.1c0,14.6-11.8,26.4-26.4,26.4s-26.4-11.8-26.4-26.4s11.8-26.4,26.4-26.4
	S132.5,392.5,132.5,407.1z M116.5,407.1c0-5.7-4.7-10.4-10.4-10.4s-10.4,4.7-10.4,10.4s4.7,10.4,10.4,10.4S116.5,412.8,116.5,407.1z
	"></path>
<path d="M348.6,428.3c-4.4,0-8-3.6-8-8v-27.7c0-13.4,3.4-22.5,7.4-33.2c5-13.3,11.1-29.7,11.1-59.2V133.8c0-29.2-3.8-30.4-13.1-30.4
	c-2.8,0-5.5,0.9-6.9,2.3c-0.9,0.9-1,1.7-1,2.3c0,0,0,0,0,0c0,0,0,0,0,0c0,0,0,0,0,0c0,0.2,0,0.4,0,0.6V217c0,4.4-3.6,8-8,8
	s-8-3.6-8-8V107c0,0,0-0.1,0-0.1c-0.4-10.2-6.6-14-10.3-15.4c-5.5-2.1-12-1.2-16,1.8V217c0,4.4-3.6,8-8,8s-8-3.6-8-8V89.5
	c0,0,0,0,0,0c-3-9.3-7.2-12.4-16.4-12.4c-6.7,0-14.4,3.1-14.7,11.9c0,0.2,0,0.3,0,0.5V217c0,4.4-3.6,8-8,8s-8-3.6-8-8V92.5
	c-2.1-1.3-7.1-2.9-12.3-1.2c-9.6,3.1-11.7,14.8-11.7,24V290c0,4.4-3.6,8-8,8s-8-3.6-8-8V115.3c0-30.4,17.3-38,24.7-39.8
	c6.2-1.5,12.8-1.1,18.4,0.9c4.9-9.3,15-15.3,27.6-15.3c16.1,0,24.1,7.6,28.6,16c7.7-3.4,17-3.8,25.5-0.6c7.1,2.7,12.7,7.5,16.2,13.7
	c3.6-1.8,7.9-2.8,12.3-2.8c29.1,0,29.1,25.7,29.1,46.4v166.3c0,32.4-6.7,50.4-12.1,64.8c-3.7,10-6.4,17.2-6.4,27.6v27.7
	C356.6,424.7,353,428.3,348.6,428.3z M321.3,428.3h-83.6c-4.4,0-8-3.6-8-8v-27.7c0-6.8-5.4-10.9-26.8-23.6
	c-6.2-3.7-13.2-7.8-20.8-12.8c-12.9-8.3-21.1-17.1-28.3-24.8c-2.1-2.2-4-4.3-6-6.2c-10.9-10.9-21.7-18.6-48.1-34.4
	c-0.1,0-0.2-0.1-0.3-0.2c-17-8.2-18.4-20.8-17.6-27.9c0.3-19.4,16.2-35.2,35.6-35.2c0,0,0.1,0,0.1,0c30.3,0,50,10.7,63.8,20.1
	c3.7,2.5,4.6,7.5,2.1,11.1c-2.5,3.7-7.5,4.6-11.1,2.1c-12.6-8.6-29-17.3-54.8-17.3c0,0-0.1,0-0.1,0c-10.8,0-19.6,8.9-19.6,19.7
	c0,0.4,0,0.7-0.1,1.1c-0.7,5.2,1.8,8.6,8.5,11.9c0.5,0.3,1,0.5,1.5,0.8c24.8,14.8,38.1,23.7,51.3,36.9c2.1,2.1,4.2,4.3,6.3,6.6
	c7,7.4,14.1,15.1,25.4,22.3c7.3,4.8,14.2,8.8,20.3,12.4c21.6,12.8,34.6,20.6,34.6,37.4v19.7h75.6c4.4,0,8,3.6,8,8
	S325.7,428.3,321.3,428.3z M99.5,290.6C99.5,290.6,99.6,290.6,99.5,290.6C99.6,290.6,99.5,290.6,99.5,290.6z"></path>
</svg>