<svg version="1.1" id="Layer_1" xmlns="http://www.w3.org/2000/svg" xmlns:xlink="http://www.w3.org/1999/xlink" x="0px" y="0px" viewBox="0 0 512 512" enable-background="new 0 0 512 512" xml:space="preserve">
<linearGradient id="SVGID_1_" gradientUnits="userSpaceOnUse" x1="285.7475" y1="453.7625" x2="285.7475" y2="117.642" class="gradient-element">
	<stop offset="0" class="primary-color-gradient" style="stop-color: #FFA4ED"></stop>
	<stop offset="1" class="secondary-color-gradient" style="stop-color: #DB81DA"></stop>
</linearGradient>
<path fill="url(#SVGID_1_)" d="M429.9,221.8V106.5h-38.5l-0.2,34.4l0.6,59.7l-4.4-2.4v122.7c0,28.7-16.8,45.6-37.6,45.6h-52.1v94.1
	h148.2V264.3l30.8,0.5c17.7,0.5,21.2-6.3,18.7-10.1L429.9,221.8z M75.4,421v39.5h148.2v-94.1H130C99.8,366.4,75.4,390.8,75.4,421z"></path>
<path d="M445.9,468.5H297.7c-4.4,0-8-3.6-8-8v-90.8h-58.1v90.8c0,4.4-3.6,8-8,8H75.4c-4.4,0-8-3.6-8-8s3.6-8,8-8h140.2v-90.8
	c0-4.4,3.6-8,8-8h74.1c4.4,0,8,3.6,8,8v90.8h132.2V272.3c0-4.4,3.6-8,8-8s8,3.6,8,8v188.2C453.9,464.9,450.3,468.5,445.9,468.5z
	 M75.4,432.7c-4.4,0-8-3.6-8-8V272.3c0-4.4,3.6-8,8-8s8,3.6,8,8v152.4C83.4,429.1,79.8,432.7,75.4,432.7z M32.3,262.7
	c-2.8,0-5.5-1.5-7-4.1c-2.1-3.9-0.8-8.7,3.1-10.9l228.4-126.8c2.4-1.3,5.4-1.3,7.8,0l119.1,66.1l-0.4-38h-27.5c-4.4,0-8-3.6-8-8
	v-34.4c0-4.4,3.6-8,8-8h74.1c4.4,0,8,3.6,8,8v110.6l55,30.6c3.9,2.1,5.3,7,3.1,10.9c-2.1,3.9-7,5.3-10.9,3.1L426,228.8
	c-2.5-1.4-4.1-4.1-4.1-7V114.5h-58.1v18.4h27.4c4.4,0,8,3.5,8,7.9l0.6,59.7c0,2.8-1.5,5.5-3.9,7c-2.4,1.5-5.5,1.5-8,0.1L260.6,137
	L36.1,261.7C34.9,262.3,33.6,262.7,32.3,262.7z"></path>
<path d="M195.2,103.1c0,4.4-3.6,8-8,8H21.5c-4.4,0-8-3.6-8-8s3.6-8,8-8h165.6C191.6,95.1,195.2,98.6,195.2,103.1z M207.5,57.7H91.8
	c-4.4,0-8,3.6-8,8s3.6,8,8,8h115.7c4.4,0,8-3.6,8-8S211.9,57.7,207.5,57.7z M121.1,145.4H63.7c-4.4,0-8,3.6-8,8s3.6,8,8,8h57.4
	c4.4,0,8-3.6,8-8S125.5,145.4,121.1,145.4z M118.5,416.7H15.3c-4.4,0-8,3.6-8,8s3.6,8,8,8h103.3c4.4,0,8-3.6,8-8
	S123,416.7,118.5,416.7z M98.1,452.3H40.7c-4.4,0-8,3.6-8,8s3.6,8,8,8h57.4c4.4,0,8-3.6,8-8S102.5,452.3,98.1,452.3z M410.3,51.7
	c0,5-4.1,9-9,9s-9-4.1-9-9s4.1-9,9-9S410.3,46.7,410.3,51.7z M440.3,51.7c0,5-4.1,9-9,9s-9-4.1-9-9s4.1-9,9-9S440.3,46.7,440.3,51.7
	z M470.3,51.7c0,5-4.1,9-9,9s-9-4.1-9-9s4.1-9,9-9S470.3,46.7,470.3,51.7z M332.8,55.6H317V39.8c0-4.4-3.6-8-8-8s-8,3.6-8,8v15.8
	h-15.8c-4.4,0-8,3.6-8,8s3.6,8,8,8H301v15.8c0,4.4,3.6,8,8,8s8-3.6,8-8V71.6h15.8c4.4,0,8-3.6,8-8S337.2,55.6,332.8,55.6z"></path>
</svg>