<svg version="1.1" id="Layer_1" xmlns="http://www.w3.org/2000/svg" xmlns:xlink="http://www.w3.org/1999/xlink" x="0px" y="0px" viewBox="0 0 512 512" enable-background="new 0 0 512 512" xml:space="preserve">
<linearGradient id="SVGID_1_" gradientUnits="userSpaceOnUse" x1="292.5204" y1="434.1609" x2="292.5204" y2="159.9282" class="gradient-element">
	<stop offset="0" class="primary-color-gradient" style="stop-color: #FFA4ED"></stop>
	<stop offset="1" class="secondary-color-gradient" style="stop-color: #DB81DA"></stop>
</linearGradient>
<path fill="url(#SVGID_1_)" d="M454.6,153c-7.7-7.6-22.7,0.5-34.7,0.8c-22.2,0.6-20.9,22.3-20.9,43.9v136.9
	c0,24.2-20.2,43.7-45.2,43.7l-87.5,0.3V447h133c35,0,63.3-0.8,63.3-34.6V194C462.7,182.9,462.2,160.2,454.6,153z M122.3,415.2
	c0,31.8,0,31.8,39.8,31.8h32.2v-68.2l-37.5,0.1C122.3,379,122.3,379,122.3,415.2z"></path>
<path d="M45,221.7c-4.4,0-8-3.6-8-8s3.6-8,8-8h73.8c4.4,0,8,3.6,8,8s-3.6,8-8,8H45z M45,430.5h104c4.4,0,8-3.6,8-8s-3.6-8-8-8H45
	c-4.4,0-8,3.6-8,8S40.6,430.5,45,430.5z M44.4,374.2c4.4,0,8-3.6,8-8c0-5.7,4.7-10.4,10.4-10.4s10.4,4.7,10.4,10.4c0,4.4,3.6,8,8,8
	s8-3.6,8-8c0-14.6-11.8-26.4-26.4-26.4s-26.4,11.8-26.4,26.4C36.4,370.6,40,374.2,44.4,374.2z M122.9,70.4c4.4,0,8-3.6,8-8
	c0-11.4,9.3-20.7,20.8-20.7c4.4,0,8-3.6,8-8s-3.6-8-8-8c-20.3,0-36.8,16.5-36.8,36.8C114.9,66.8,118.5,70.4,122.9,70.4z
	 M130.5,155.3c4.2-4.2,4.2-11,0-15.2s-11-4.2-15.2,0c-4.2,4.2-4.2,11,0,15.2C119.5,159.5,126.3,159.5,130.5,155.3z M70.3,454H19.7
	c-4.4,0-8,3.6-8,8s3.6,8,8,8h50.6c4.4,0,8-3.6,8-8S74.7,454,70.3,454z M489.8,465.9h-3.9V462c0-4.4-3.6-8-8-8s-8,3.6-8,8v3.9H466
	c-4.4,0-8,3.6-8,8s3.6,8,8,8h3.9v3.9c0,4.4,3.6,8,8,8s8-3.6,8-8v-3.9h3.9c4.4,0,8-3.6,8-8S494.2,465.9,489.8,465.9z M39,101.1h3.9
	v3.9c0,4.4,3.6,8,8,8s8-3.6,8-8v-3.9h3.9c4.4,0,8-3.6,8-8s-3.6-8-8-8h-3.9v-3.9c0-4.4-3.6-8-8-8s-8,3.6-8,8v3.9H39c-4.4,0-8,3.6-8,8
	S34.6,101.1,39,101.1z M468.6,62.5c0,4.4,3.6,8,8,8s8-3.6,8-8c0-20.3-16.5-36.8-36.8-36.8c-4.4,0-8,3.6-8,8s3.6,8,8,8
	C459.3,41.7,468.6,51,468.6,62.5z"></path>
<path d="M464.1,140.7l-84-84c-1.5-1.5-3.5-2.3-5.7-2.3H194.4c-23.5,0-32,19.1-32,32v120.1c0,4.4,3.6,8,8,8s8-3.6,8-8v-120
	c0,0,0.1-4.6,2.3-8.9c2.6-4.9,7-7.2,13.7-7.2h172.1v44.5c0,19.2,13.8,39.5,39.5,39.5h44.5v268c0,0-0.1,4.6-2.3,8.9
	c-2.6,4.9-7,7.2-13.7,7.2h-48c-4.4,0-8,3.6-8,8s3.6,8,8,8h48c23.5,0,32-19.1,32-32V146.4C466.5,144.3,465.6,142.2,464.1,140.7z
	 M406,138.4c-18.6,0-23.5-15.4-23.5-23.5V81.7l56.7,56.7H406z M379.9,311.8c-1.2,0-2.4-0.3-3.6-0.8l-145.9-73L84.5,311
	c-4,2-8.8,0.4-10.7-3.6c-2-4-0.4-8.8,3.6-10.7l149.5-74.8c2.3-1.1,4.9-1.1,7.2,0l149.5,74.8c4,2,5.6,6.8,3.6,10.7
	C385.6,310.2,382.8,311.8,379.9,311.8z M122.3,430.5c-4.4,0-8-3.6-8-8V309.9c0-4.4,3.6-8,8-8s8,3.6,8,8v112.6
	C130.3,426.9,126.8,430.5,122.3,430.5z M370.4,446.5c0,4.4-3.6,8-8,8H98.3c-4.4,0-8-3.6-8-8s3.6-8,8-8h88v-88c0-4.4,3.6-8,8-8h72
	c4.4,0,8,3.6,8,8v72c0,4.4-3.6,8-8,8s-8-3.6-8-8v-64h-56v80h128.1V309.9c0-4.4,3.6-8,8-8s8,3.6,8,8v128.6h16
	C366.9,438.5,370.4,442.1,370.4,446.5z"></path>
</svg>