<svg version="1.1" id="Layer_1" xmlns="http://www.w3.org/2000/svg" xmlns:xlink="http://www.w3.org/1999/xlink" x="0px" y="0px" viewBox="0 0 512 512" enable-background="new 0 0 512 512" xml:space="preserve">
<linearGradient id="SVGID_1_" gradientUnits="userSpaceOnUse" x1="250.3955" y1="477.9871" x2="250.3955" y2="147.2783" class="gradient-element">
	<stop offset="0" class="primary-color-gradient" style="stop-color: #FFA4ED"></stop>
	<stop offset="1" class="secondary-color-gradient" style="stop-color: #DB81DA"></stop>
</linearGradient>
<path fill="url(#SVGID_1_)" d="M383.9,169v72.2l25,16.2v33.1v93.2c0,2.5-1,4.9-2.7,6.5c-1.7,1.7-4,2.7-6.5,2.7
	c-22,1.3-87.6,73.9-110.2,80.9c-75.5,23.4-125.7-14.8-188.3-35.6c-5.1,0-9.2-4.1-9.2-9.2v-14.4c0-12.1,9.8-21.9,21.9-21.9h98v79.5
	h73.6l-0.6-79.5h43.3c3.9,0,7.3-2.5,8.6-5.9l0.6-175.2L330,207l0-15.9c0-20.2,6.5-31.3,26.7-31.3h20.7
	C382.5,159.8,383.9,163.9,383.9,169z"></path>
<path d="M248.8,486.8c-54.1,0-81.3-13.6-107.6-26.8c-24.1-12.1-45-22.5-89.5-22.5H39.4c-4.4,0-8-3.6-8-8s3.6-8,8-8h12.3
	c10.8,0,20.3,0.6,28.9,1.6V314.5c0-4.4,3.6-8,8-8s8,3.6,8,8v111.3c21,4.5,36,12.1,51.7,19.9c16,8,32.3,16.2,55.5,20.9v-111
	c0-4.4,3.6-8,8-8h73.9c4.4,0,8,3.6,8,8v89.7c0,4.4-3.6,8-8,8s-8-3.6-8-8v-81.7h-57.9v105.6c8.7,1,18.3,1.6,28.9,1.6
	c51.1,0,76.8-25.7,101.6-50.5c15.3-15.3,30.1-30.1,50.5-39.2v-73.3c0-4.4,3.6-8,8-8s8,3.6,8,8v67.8c8.6-2.2,18.1-3.4,28.9-3.4h12.3
	c4.4,0,8,3.6,8,8s-3.6,8-8,8h-12.3c-13.2,0-24.1,2-33.6,5.5c-0.3,0.2-0.7,0.3-1,0.4c-19.5,7.5-33.4,21.3-49.5,37.4
	C337.1,456.1,306.5,486.8,248.8,486.8z M248.8,314.3c-24.8,0-44.9-20.2-44.9-45s20.2-44.9,44.9-44.9c12.2,0,23.6,4.8,32.2,13.6
	c3.1,3.2,3,8.2-0.1,11.3c-3.2,3.1-8.2,3-11.3-0.1c-5.5-5.7-12.9-8.8-20.7-8.8c-16,0-28.9,13-28.9,28.9s13,29,28.9,29s29-13,29-29
	c0-4.4,3.6-8,8-8s8,3.6,8,8C293.7,294.2,273.6,314.3,248.8,314.3z M41.3,308.5c-2.7,0-5.3-1.3-6.8-3.8c-2.9-4.6-3.8-10.1-2.6-15.4
	c1.2-5.3,4.4-9.8,9-12.6l197-123.2c6.5-4.1,15-4.1,21.5,0l104.3,65.2c3.7,2.3,4.9,7.3,2.5,11c-2.3,3.7-7.3,4.9-11,2.5l-104.3-65.2
	c-1.4-0.9-3.2-0.9-4.6,0L49.4,290.3c-1,0.6-1.7,1.6-1.9,2.7c-0.3,1.1-0.1,2.3,0.5,3.3c2.3,3.7,1.2,8.7-2.5,11
	C44.2,308.1,42.7,308.5,41.3,308.5z M452.4,291.6c-1.4,0-2.9-0.4-4.2-1.2L380,247.8c-2.3-1.5-3.8-4-3.8-6.8v-70.1
	c0-2.4-1.9-4.3-4.3-4.3h-49.3c-4.4,0-8-3.6-8-8s3.6-8,8-8h49.3c11.2,0,20.3,9.1,20.3,20.3v65.7l64.4,40.2c3.7,2.3,4.9,7.3,2.5,11
	C457.6,290.2,455,291.6,452.4,291.6z M359.6,129.6c-4.4,0-8-3.6-8-8c0-10.5,5.1-15.7,11.1-21.6c6.4-6.4,13.6-13.6,13.6-27.7
	c0-4.4,3.6-8,8-8s8,3.6,8,8c0,20.8-11.4,32.2-18.3,39c-6,6-6.4,6.8-6.4,10.3C367.6,126,364,129.6,359.6,129.6z M328.3,80.3
	c-4.4,0-8-3.6-8-8c0-20.8,11.4-32.2,18.3-39c6-6,6.4-6.8,6.4-10.3c0-4.4,3.6-8,8-8s8,3.6,8,8c0,10.5-5.1,15.7-11.1,21.6
	c-6.4,6.4-13.6,13.6-13.6,27.7C336.3,76.7,332.7,80.3,328.3,80.3z"></path>
<path fill="#000000" d="M132.3,51.7c4.2,4.2,4.2,11,0,15.2s-11,4.2-15.2,0c-4.2-4.2-4.2-11,0-15.2C121.3,47.5,128.1,47.5,132.3,51.7
	z M91.9,475.3H18.1c-4.4,0-8,3.6-8,8s3.6,8,8,8h73.8c4.4,0,8-3.6,8-8S96.3,475.3,91.9,475.3z M500.6,408.4H436
	c-3.6,0-6.5,2.9-6.5,6.5s2.9,6.5,6.5,6.5h64.6c3.6,0,6.5-2.9,6.5-6.5S504.2,408.4,500.6,408.4z M45.7,213.5c4.4,0,8-3.6,8-8
	c0-11.4,9.3-20.8,20.8-20.8c4.4,0,8-3.6,8-8s-3.6-8-8-8c-20.3,0-36.8,16.5-36.8,36.8C37.7,209.9,41.3,213.5,45.7,213.5z M439,166.5
	c4.4,0,8-3.6,8-8c0-20.3-16.5-36.8-36.8-36.8c-4.4,0-8,3.6-8,8s3.6,8,8,8c11.4,0,20.8,9.3,20.8,20.8
	C431,162.9,434.5,166.5,439,166.5z M217,99.6c-3.1-3.1-8.2-3.1-11.3,0l-2.7,2.7l-2.7-2.7c-3.1-3.1-8.2-3.1-11.3,0
	c-3.1,3.1-3.1,8.2,0,11.3l2.7,2.7l-2.7,2.7c-3.1,3.1-3.1,8.2,0,11.3c1.6,1.6,3.6,2.3,5.7,2.3c2,0,4.1-0.8,5.7-2.3l2.7-2.7l2.7,2.7
	c1.6,1.6,3.6,2.3,5.7,2.3s4.1-0.8,5.7-2.3c3.1-3.1,3.1-8.2,0-11.3l-2.7-2.7l2.7-2.7C220.2,107.8,220.2,102.7,217,99.6z M462,466.3
	h-3.9v-3.9c0-4.4-3.6-8-8-8s-8,3.6-8,8v3.9h-3.9c-4.4,0-8,3.6-8,8s3.6,8,8,8h3.9v3.9c0,4.4,3.6,8,8,8s8-3.6,8-8v-3.9h3.9
	c4.4,0,8-3.6,8-8S466.4,466.3,462,466.3z M469.6,220.9c4.2-4.2,4.2-11,0-15.2c-4.2-4.2-11-4.2-15.2,0c-4.2,4.2-4.2,11,0,15.2
	S465.4,225.1,469.6,220.9z"></path>
<g>
	<path fill="#FFA4ED" class="primary-color" d="M479,25.4v44.5h-44.5V25.4H479z"></path>
	<path fill="#DB81DA" class="secondary-color" d="M14,26.7h22.2v44.5H14V26.7z M14,152.3h22.2v-44.5H14V152.3z"></path>
</g>
</svg>