<svg version="1.1" id="Layer_1" xmlns="http://www.w3.org/2000/svg" xmlns:xlink="http://www.w3.org/1999/xlink" x="0px" y="0px" viewBox="0 0 512 512" enable-background="new 0 0 512 512" xml:space="preserve">
<linearGradient id="SVGID_1_" gradientUnits="userSpaceOnUse" x1="249.7409" y1="376.3781" x2="252.0146" y2="110.3571" class="gradient-element">
	<stop offset="0" class="primary-color-gradient" style="stop-color: #FFA4ED"></stop>
	<stop offset="1" class="secondary-color-gradient" style="stop-color: #DB81DA"></stop>
</linearGradient>
<path fill="url(#SVGID_1_)" d="M263.5,180.5L263.1,372h-87.4c-20.1,0-36.5-16.3-36.5-36.5V160c0-20.1,16.3-36.5,36.5-36.5h150.7
	c20.1,0,36.5,16.3,36.5,36.5v119.9L263.5,180.5z"></path>
<path d="M366.6,472.5c-3.2,0-6.2-1.9-7.4-5c-1.6-4.1,0.4-8.8,4.5-10.4l15.6-6.3L349,374.9c-1-2.5-0.7-5.3,0.8-7.5
	c1.5-2.2,4-3.5,6.6-3.5h79.3L271.5,199.8v232.5l56.3-56.3c3.1-3.1,8.2-3.1,11.3,0c3.1,3.1,3.1,8.2,0,11.3l-70,70
	c-2.3,2.3-5.7,3-8.7,1.7c-3-1.2-4.9-4.2-4.9-7.4V180.5c0-3.2,1.9-6.2,4.9-7.4c3-1.2,6.4-0.6,8.7,1.7l191.5,191.5
	c2.3,2.3,3,5.7,1.7,8.7s-4.2,4.9-7.4,4.9h-86.8l28.9,72.4c0.8,2,0.8,4.2-0.1,6.1c-0.8,2-2.4,3.5-4.4,4.3l-23.1,9.2
	C368.6,472.3,367.6,472.5,366.6,472.5z M238.7,380H89.6c-18.1,0-32.8-14.7-32.8-32.8V73.8C56.7,55.7,71.5,41,89.6,41h273.3
	c18.1,0,32.8,14.7,32.8,32.8v172.9c0,4.4-3.6,8-8,8s-8-3.6-8-8V73.8c0-9.3-7.6-16.8-16.8-16.8H89.6c-9.3,0-16.8,7.6-16.8,16.8v273.3
	c0,9.3,7.6,16.8,16.8,16.8h149.1c4.4,0,8,3.6,8,8S243.1,380,238.7,380z"></path>
<path d="M15.7,257.4c-5.9,0-10.8-4.8-10.8-10.8c0-5.9,4.8-10.8,10.8-10.8c5.9,0,10.8,4.8,10.8,10.8
	C26.4,252.6,21.6,257.4,15.7,257.4z M491.2,40.5h-15.8V24.7c0-4.4-3.6-8-8-8s-8,3.6-8,8v15.8h-15.8c-4.4,0-8,3.6-8,8s3.6,8,8,8h15.8
	v15.8c0,4.4,3.6,8,8,8s8-3.6,8-8V56.5h15.8c4.4,0,8-3.6,8-8S495.6,40.5,491.2,40.5z M43,460h-3.9v-3.9c0-4.4-3.6-8-8-8s-8,3.6-8,8
	v3.9h-3.9c-4.4,0-8,3.6-8,8s3.6,8,8,8h3.9v3.9c0,4.4,3.6,8,8,8s8-3.6,8-8V476H43c4.4,0,8-3.6,8-8S47.4,460,43,460z M486.6,107h-113
	c-4.4,0-8,3.6-8,8s3.6,8,8,8h113c4.4,0,8-3.6,8-8S491,107,486.6,107z M195.8,429.1h-113c-4.4,0-8,3.6-8,8s3.6,8,8,8h113
	c4.4,0,8-3.6,8-8S200.2,429.1,195.8,429.1z"></path>
<g>
	<path fill="#DB81DA" class="secondary-color" d="M462.8,239v21.8h-38.4V239H462.8z"></path>
	<path fill="#FFA4ED" class="primary-color" d="M462.8,194.1v21.8h-38.4v-21.8H462.8z"></path>
</g>
</svg>