<svg version="1.1" id="Layer_1" xmlns="http://www.w3.org/2000/svg" xmlns:xlink="http://www.w3.org/1999/xlink" x="0px" y="0px" viewBox="0 0 512 512" enable-background="new 0 0 512 512" xml:space="preserve">
<g>
	<linearGradient id="SVGID_1_" gradientUnits="userSpaceOnUse" x1="240.7454" y1="252.9816" x2="157.0071" y2="252.9816" class="gradient-element">
		<stop offset="0" class="primary-color-gradient" style="stop-color: #FFA4ED"></stop>
		<stop offset="1" class="secondary-color-gradient" style="stop-color: #DB81DA"></stop>
	</linearGradient>
	<path fill="url(#SVGID_1_)" d="M157.6,294.4V161.6c0,0-2.2-4.4,0-5.6c2.2-1.2,59.1-0.1,59.1-0.1s1.2,10.5,0,87
		c-0.2,14.7-6.5,25.5-14.8,33.6c-0.7,3-1.8,6-3.6,8.7c-15.7,23.8,37.3,43.4,37.3,43.4l3.5,21.9h-81.4v-53.9V294.4z"></path>
	<linearGradient id="SVGID_2_" gradientUnits="userSpaceOnUse" x1="26.4408" y1="244.508" x2="490.185" y2="244.508">
		<stop offset="0" class="primary-color-gradient" style="stop-color: #FFA4ED"></stop>
		<stop offset="1" class="secondary-color-gradient" style="stop-color: #DB81DA"></stop>
	</linearGradient>
	<path fill="url(#SVGID_2_)" d="M274.2,404H66.1c-13.3,0-25.3-5.4-33.9-14.1c-9-8.9-4.7-10.2-4.7-11.9c0-25.7,17.2-24.1,42.9-24.1
		H367c28.8,0,52.1-23.3,52.1-52.1l-3.5-179.8c0-28.8,15.6-36.9,44.4-36.9l0,0c12.4,0,30.2,37.1,30.2,49.5v196.3
		c0,40.4-32.7,73.1-73.1,73.1H274.2z M267.2,387"></path>
</g>
<path d="M420.5,240.8c0,4.4-3.6,8-8,8h-97.5c-4.4,0-8-3.6-8-8s3.6-8,8-8h97.5C417,232.8,420.5,236.4,420.5,240.8z M412.5,293.7
	h-97.5c-4.4,0-8,3.6-8,8s3.6,8,8,8h97.5c4.4,0,8-3.6,8-8S417,293.7,412.5,293.7z M71.4,318.1c-4.4,0-8,3.6-8,8v24.4c0,4.4,3.6,8,8,8
	H242c4.4,0,8-3.6,8-8v-24.4c0-4.4-3.6-8-8-8c-0.4,0-37.2-0.7-40.5-24.9c15.4-13.1,24.1-32,24.1-52.4v-60.9c0-4.4-3.6-8-8-8
	s-8,3.6-8,8v60.9c0,16.8-7.7,32.2-21.2,42.3c-2.2,1.7-3.4,4.3-3.2,7c0.2,15.7,8.4,28.2,23.6,36c8.2,4.2,17.4,6.5,25.1,7.4v8.9H79.4
	v-8.9c7.7-0.9,16.9-3.2,25.1-7.4c15.2-7.8,23.3-20.2,23.6-35.8c0.3-2.8-0.9-5.5-3.2-7.2c-13.5-10.1-21.2-25.6-21.2-42.3v-48.7
	c0-29.2,23.7-52.9,52.9-52.9h52.9v8.4h-52.9c-4.4,0-8,3.6-8,8s3.6,8,8,8h60.9c4.4,0,8-3.6,8-8v-24.4c0-4.4-3.6-8-8-8h-60.9
	c-38,0-68.9,30.9-68.9,68.9v48.7c0,20.1,8.9,39.3,24.1,52.3C108.5,317.4,71.8,318.1,71.4,318.1z M493.6,179.9v-48.7
	c0-31.3-25.5-56.7-56.7-56.7H71.4c-31.3,0-56.7,25.5-56.7,56.7v219.3c0,31.3,25.5,56.7,56.7,56.7h365.5c31.3,0,56.7-25.5,56.7-56.7
	V204.2c0-4.4-3.6-8-8-8s-8,3.6-8,8v146.2c0,22.5-18.3,40.7-40.7,40.7H71.4c-22.5,0-40.7-18.3-40.7-40.7V131.1
	c0-22.5,18.3-40.7,40.7-40.7h365.5c22.5,0,40.7,18.3,40.7,40.7v40.7H315.1c-4.4,0-8,3.6-8,8s3.6,8,8,8h170.6
	C490.1,187.9,493.6,184.3,493.6,179.9z"></path>
<path d="M453.1,469.3c0,4.4-3.6,8-8,8h-86.8c-4.4,0-8-3.6-8-8s3.6-8,8-8h86.8C449.5,461.3,453.1,464.8,453.1,469.3z M392,441.1
	c0-4.4-3.6-8-8-8h-57.4c-4.4,0-8,3.6-8,8s3.6,8,8,8H384C388.4,449.1,392,445.6,392,441.1z M135.4,439H76.2c-4.4,0-8,3.6-8,8
	s3.6,8,8,8h59.2c4.4,0,8-3.6,8-8S139.8,439,135.4,439z M74.6,47.4l2.8-2.8l2.8,2.8c1.6,1.6,3.6,2.3,5.7,2.3s4.1-0.8,5.7-2.3
	c3.1-3.1,3.1-8.2,0-11.3l-2.8-2.8l2.8-2.8c3.1-3.1,3.1-8.2,0-11.3c-3.1-3.1-8.2-3.1-11.3,0L77.4,22l-2.8-2.8
	c-3.1-3.1-8.2-3.1-11.3,0c-3.1,3.1-3.1,8.2,0,11.3l2.8,2.8l-2.8,2.8c-3.1,3.1-3.1,8.2,0,11.3c1.6,1.6,3.6,2.3,5.7,2.3
	S73,49,74.6,47.4z"></path>
<path fill="#DB81DA" class="secondary-color" d="M325,44.8V23h145.9v21.8H325z"></path>
</svg>