<svg version="1.1" id="Layer_1" xmlns="http://www.w3.org/2000/svg" xmlns:xlink="http://www.w3.org/1999/xlink" x="0px" y="0px" viewBox="0 0 512 512" enable-background="new 0 0 512 512" xml:space="preserve">
<linearGradient id="SVGID_1_" gradientUnits="userSpaceOnUse" x1="399.3633" y1="493.958" x2="399.3633" y2="144.395" class="gradient-element">
	<stop offset="0" class="primary-color-gradient" style="stop-color: #FFA4ED"></stop>
	<stop offset="1" class="secondary-color-gradient" style="stop-color: #DB81DA"></stop>
</linearGradient>
<path fill="url(#SVGID_1_)" d="M349.8,120c-0.4,0-0.7,0-1.1,0c-5.8,0.1-7.4,7.9-2.2,10.3c39.8,18.2,67.6,58.4,67.6,104.9
	c0,24.2-7.4,47.3-21.5,67c-4.5,6.3-9.4,12.1-14.2,17.7c-14.6,17.1-27.2,31.9-27.2,60v52.4c0,16.5-4.4,29.1-13.3,38.6
	c-0.1,0.1-0.3,0.3-0.4,0.4c-6.6,6.7-4.6,18,4,21.7c3.1,1.3,5.9,2.1,8.2,2.1c11.3,0,33.5-18.4,39-24.2c9-9.5,13.3-22.1,13.3-38.6
	v-52.4c0-28.1,12.6-42.9,27.2-60c4.7-5.6,9.6-11.3,14.2-17.7c14.1-19.8,21.6-43.1,21.5-67.5C464.8,171,413.6,120,349.8,120z"></path>
<path d="M349.8,112c-67.9,0-123.2,55.3-123.2,123.2c0,25.9,7.9,50.7,23,71.6c4.8,6.7,10,12.8,14.6,18.2
	c14.1,16.6,25.3,29.7,25.3,54.9v52.4c0,18.6,5.1,33.1,15.5,44.1c3.9,4.2,28.9,26.7,44.9,26.7c16,0,40.9-22.6,44.8-26.7
	c10.4-11,15.5-25.5,15.5-44.1v-52.4c0-0.3,0-0.6,0-1c0.1-0.5,0.2-1.1,0.2-1.6c0-0.4,0-0.8-0.1-1.1c1.1-22.7,11.8-35.4,25.2-51.1
	l0.1-0.2c4.8-5.6,9.8-11.5,14.4-18c15-21,23-45.8,23-71.6C473.1,167.3,417.8,112,349.8,112z M437.1,297.5c-4.3,6-9,11.6-13.6,17
	l-0.1,0.2c-13.2,15.5-25.7,30.2-28.5,54.6h-44.5c-4.4,0-8,3.6-8,8s3.6,8,8,8h43.9v47c0,0.4,0,0.8,0,1.2h-43.9c-4.4,0-8,3.6-8,8
	s3.6,8,8,8H392c-1.8,6.3-4.8,11.6-8.9,15.9c-6.8,7.2-26.4,21.7-33.2,21.7c-6.8,0-26.5-14.6-33.2-21.7c-7.5-7.9-11.1-18.8-11.1-33.1
	v-52.4c0-31.1-14.2-47.7-29.1-65.3c-4.6-5.4-9.4-11-13.8-17.1c-13.1-18.3-20-39.8-20-62.3c0-59.1,48.1-107.2,107.2-107.2
	s107.2,48.1,107.2,107.2C457.1,257.7,450.2,279.3,437.1,297.5z M203.3,265.5c0,4.4-3.6,8-8,8h-67.8c-4.4,0-8-3.6-8-8s3.6-8,8-8h67.8
	C199.7,257.5,203.3,261.1,203.3,265.5z M504.7,120.6l-18.9,18.9c-1.6,1.6-3.6,2.3-5.7,2.3s-4.1-0.8-5.7-2.3c-3.1-3.1-3.1-8.2,0-11.3
	l18.9-18.9c3.1-3.1,8.2-3.1,11.3,0C507.8,112.4,507.8,117.5,504.7,120.6z M225.8,135c-1.6,1.6-3.6,2.3-5.7,2.3s-4.1-0.8-5.7-2.3
	l-47.9-47.9c-3.1-3.1-3.1-8.2,0-11.3c3.1-3.1,8.2-3.1,11.3,0l47.9,47.9C228.9,126.8,228.9,131.9,225.8,135z M500.8,407.7
	c3.1,3.1,3.1,8.2,0,11.3c-1.6,1.6-3.6,2.3-5.7,2.3c-2,0-4.1-0.8-5.7-2.3L460,389.5c-3.1-3.1-3.1-8.2,0-11.3c3.1-3.1,8.2-3.1,11.3,0
	L500.8,407.7z M341.8,82.6V14.8c0-4.4,3.6-8,8-8s8,3.6,8,8v67.8c0,4.4-3.6,8-8,8S341.8,87,341.8,82.6z"></path>
<path d="M154.6,440.2c-4.9-1.1-9.7,2-10.7,6.9c-1.1,4.9,2,9.7,6.9,10.7c0.6,0.1,1.3,0.2,1.9,0.2c1.7,0,3.4-0.5,4.9-1.4
	c2-1.3,3.4-3.3,3.9-5.7c0.5-2.4,0.1-4.8-1.2-6.8C159,442.1,157,440.7,154.6,440.2z M275.1,67c-4.9-1.1-9.7,2-10.7,6.9
	c-1.1,4.9,2,9.7,6.9,10.7c0.6,0.1,1.3,0.2,1.9,0.2c4.2,0,7.9-2.9,8.8-7.1C283.1,72.9,280,68.1,275.1,67z M41.6,274.3
	c0.6,0.1,1.3,0.2,1.9,0.2c1.7,0,3.4-0.5,4.9-1.4c2-1.3,3.4-3.3,3.9-5.7c0.5-2.4,0.1-4.8-1.2-6.8c-1.3-2-3.3-3.4-5.7-3.9
	c-4.9-1.1-9.7,2-10.7,6.9C33.6,268.4,36.7,273.3,41.6,274.3z M199.7,194.9c2-1.3,3.4-3.3,3.9-5.7c1.1-4.9-2-9.7-6.9-10.7
	c-2.4-0.5-4.8-0.1-6.8,1.2c-2,1.3-3.4,3.3-3.9,5.7c-0.5,2.4-0.1,4.8,1.2,6.8c1.3,2,3.3,3.4,5.7,3.9c0.6,0.1,1.3,0.2,1.9,0.2
	C196.5,196.3,198.2,195.8,199.7,194.9z M130.3,394.4c0,4.4-3.6,8-8,8c-11.4,0-20.8,9.3-20.8,20.8c0,4.4-3.6,8-8,8s-8-3.6-8-8
	c0-20.3,16.5-36.8,36.8-36.8C126.7,386.4,130.3,390,130.3,394.4z M80.3,423.2c0,4.4-3.6,8-8,8s-8-3.6-8-8c0-11.4-9.3-20.8-20.8-20.8
	c-4.4,0-8-3.6-8-8s3.6-8,8-8C63.8,386.4,80.3,402.9,80.3,423.2z M80.3,344.4c0,20.3-16.5,36.8-36.8,36.8c-4.4,0-8-3.6-8-8s3.6-8,8-8
	c11.4,0,20.8-9.3,20.8-20.8c0-4.4,3.6-8,8-8S80.3,340,80.3,344.4z M130.3,373.2c0,4.4-3.6,8-8,8c-20.3,0-36.8-16.5-36.8-36.8
	c0-4.4,3.6-8,8-8s8,3.6,8,8c0,11.4,9.3,20.8,20.8,20.8C126.7,365.2,130.3,368.8,130.3,373.2z M54.4,145l11.2-11.2l-11.2-11.2
	c-3.1-3.1-3.1-8.2,0-11.3c3.1-3.1,8.2-3.1,11.3,0l11.2,11.2L88,111.4c3.1-3.1,8.2-3.1,11.3,0c3.1,3.1,3.1,8.2,0,11.3l-11.2,11.2
	L99.3,145c3.1,3.1,3.1,8.2,0,11.3c-1.6,1.6-3.6,2.3-5.7,2.3s-4.1-0.8-5.7-2.3l-11.2-11.2l-11.2,11.2c-1.6,1.6-3.6,2.3-5.7,2.3
	c-2,0-4.1-0.8-5.7-2.3C51.3,153.2,51.3,148.1,54.4,145z M469.4,54.2c0,4.4-3.6,8-8,8h-3.9v3.9c0,4.4-3.6,8-8,8s-8-3.6-8-8v-3.9h-3.9
	c-4.4,0-8-3.6-8-8s3.6-8,8-8h3.9v-3.9c0-4.4,3.6-8,8-8s8,3.6,8,8v3.9h3.9C465.8,46.2,469.4,49.7,469.4,54.2z M234,358.8
	c0,4.4-3.6,8-8,8h-3.9v3.9c0,4.4-3.6,8-8,8s-8-3.6-8-8v-3.9h-3.9c-4.4,0-8-3.6-8-8s3.6-8,8-8h3.9v-3.9c0-4.4,3.6-8,8-8s8,3.6,8,8
	v3.9h3.9C230.5,350.8,234,354.4,234,358.8z"></path>
<g>
	<path fill="#DB81DA" class="secondary-color" d="M9.4,48.7V26.9h250v21.8H9.4z M259.4,495.1v-21.8H9.4v21.8H259.4z"></path>
	<path fill="#FFA4ED" class="primary-color" d="M197.5,453.7l60.9-60.9v60.9H197.5z"></path>
</g>
</svg>