<svg version="1.1" id="Layer_1" xmlns="http://www.w3.org/2000/svg" xmlns:xlink="http://www.w3.org/1999/xlink" x="0px" y="0px" viewBox="0 0 512 512" enable-background="new 0 0 512 512" xml:space="preserve">
<linearGradient id="SVGID_1_" gradientUnits="userSpaceOnUse" x1="246.0373" y1="348.7643" x2="246.0373" y2="175.6984" class="gradient-element">
	<stop offset="0" class="primary-color-gradient" style="stop-color: #FFA4ED"></stop>
	<stop offset="1" class="secondary-color-gradient" style="stop-color: #DB81DA"></stop>
</linearGradient>
<path fill="url(#SVGID_1_)" d="M106.7,323.4c-4.8,1.1-9.7,1.6-14.8,1.6c-0.1,0-0.2,0-0.2,0c-14.8,0-28.8-7.3-37.5-19.4
	c-9.4-13.1-13.5-28.9-13.5-45.7c0-26.1,11.4-49.5,34.2-64.7c5-3.4,10.9-5.3,17-5.3c0,0,0.1,0,0.1,0c7.6,0,14.9,1.2,21.9,3.6
	c-30.3,6.7-53.1,33.7-53.1,65.9C60.8,289,80,314.3,106.7,323.4z M182.5,208.1c1.1,0.9,1.1,2.6,0,3.6l-5.4,4.7
	c-1.9,1.6-2,4.5-0.1,6.1l13.9,12.3l26.5-23.1l-22.7-20.1c-18.3-18.2-42.6-28.3-68.6-28.3c-3.8,0-7.5,0.2-11.1,0.6
	c17.6,4,33.7,12.8,46.8,25.8L182.5,208.1z M360.5,193.2c-6.4-2.2-13.3-3.4-20.5-3.4c-17,0-32.9,6.6-44.9,18.6l-50.5,44.7l0.1,0.1
	l-28.3,25.1l-0.1-0.1l-52.9,46.9c-15.7,15.5-36.5,25.5-59.1,28c7.3,1.7,14.9,2.5,22.7,2.5c27,0,52.4-10.5,70.7-28.7l52.9-46.9
	l0.1,0.1l28.3-25.1L279,255l50.5-44.7C338.2,201.6,348.9,195.8,360.5,193.2z M346,162.8c-3.3,0-6.6,0.1-9.8,0.4
	c53.6,4.5,95.6,45.8,95.6,96c0,50.2-42.1,91.5-95.8,96c3.3,0.3,6.5,0.4,9.8,0.4c58.3,0,105.5-43.2,105.5-96.4
	C451.4,206,404.1,162.8,346,162.8z"></path>
<path fill="#DB81DA" class="secondary-color" d="M72,32.6v21.8H15.1V32.6H72z M86.5,32.6v21.8h56.9V32.6H86.5z"></path>
<path d="M117.6,363.7c-57.8,0-104.9-46.9-104.9-104.5c0-27.8,10.9-54,30.6-73.7c19.8-19.8,46.1-30.7,74.1-30.7c0.1,0,0.1,0,0.2,0
	c27.9,0,54.2,10.8,74,30.4l22.5,19.9c1.7,1.5,2.7,3.7,2.7,6s-1,4.5-2.7,6l-27.1,24c-3.3,2.9-8.4,2.6-11.3-0.7s-2.6-8.4,0.7-11.3
	l20.3-18l-15.9-14.1c-0.1-0.1-0.2-0.2-0.3-0.3c-16.8-16.8-39.3-26-63.1-25.9c-23.7,0-46,9.2-62.8,26c-16.7,16.7-25.9,38.8-25.9,62.4
	c0,48.8,39.9,88.5,88.9,88.5c23.3,0,46-9.2,62.1-25.1c0.1-0.1,0.2-0.2,0.3-0.3l50.7-45c0.4-0.3,0.7-0.6,1.2-0.9l25-22.2
	c0.3-0.4,0.6-0.7,1-1l48.2-42.6c12.9-12.9,30.1-19.9,48.5-19.9c38,0,68.8,30.8,68.8,68.6c0,37.8-30.9,68.6-68.8,68.6
	c-18.5,0-35.5-7.1-49.2-20.5L285,289.4c-3.3-2.9-3.6-8-0.7-11.3c2.9-3.3,8-3.6,11.3-0.7l20.4,18c0.1,0.1,0.2,0.2,0.3,0.3
	c10.7,10.5,23.9,16.1,38.2,16.1c29.1,0,52.8-23.6,52.8-52.6c0-29-23.7-52.6-52.8-52.6c-14.1,0-27.4,5.5-37.3,15.4
	c-0.1,0.1-0.2,0.2-0.4,0.3l-47.3,41.9c-0.3,0.4-0.6,0.7-1,1l-27.1,24c-0.4,0.3-0.8,0.6-1.2,0.9l-49.5,43.9
	C171.7,352.9,145,363.7,117.6,363.7z M431.1,330.5c18.2-19.4,28.2-44.7,28.2-71.2c0-57.6-47.1-104.5-104.9-104.5
	c-27.6,0-54.2,10.8-73.2,29.7l-49.5,43.8c-0.4,0.2-0.8,0.5-1.1,0.8l-27.2,24c-0.5,0.5-1,1-1.3,1.5l-46.9,41.6
	c-0.1,0.1-0.2,0.2-0.3,0.3c-10,9.9-23.2,15.4-37.3,15.4c-29.1,0-52.8-23.6-52.8-52.6c0-29,23.7-52.6,52.8-52.6
	c14.3,0,27.5,5.6,38.1,16.2c3.1,3.1,8.2,3.1,11.3,0c3.1-3.1,3.1-8.2,0-11.3c-13.7-13.6-30.8-20.8-49.4-20.8
	c-38,0-68.8,30.8-68.8,68.6c0,37.8,30.9,68.6,68.8,68.6c18.3,0,35.5-7,48.4-19.8l48.2-42.7c0.5-0.4,0.9-0.9,1.3-1.5l24.6-21.7
	c0.4-0.2,0.8-0.5,1.2-0.9l50.7-44.9c0.1-0.1,0.2-0.2,0.4-0.3c16-16,38.6-25.2,62.1-25.2c49,0,88.9,39.7,88.9,88.5
	c0,22.4-8.5,43.9-23.9,60.3c-3,3.2-2.9,8.3,0.4,11.3c1.5,1.4,3.5,2.2,5.5,2.2C427.4,333,429.6,332.1,431.1,330.5z M361,363.5
	c4.4-0.3,7.8-4.1,7.5-8.5c-0.3-4.4-4.1-7.8-8.5-7.5c-1.9,0.1-3.8,0.2-5.7,0.2c-23.8,0-46.1-9.2-62.8-25.8c-0.1-0.1-0.2-0.2-0.3-0.3
	l-15.9-14.1l4.4-3.9c3.3-2.9,3.6-8,0.7-11.3c-2.9-3.3-8-3.6-11.3-0.7l-11.1,9.9c-1.7,1.5-2.7,3.7-2.7,6c0,2.3,1,4.5,2.7,6l22.5,19.9
	c19.7,19.6,46,30.3,73.9,30.3C356.6,363.7,358.8,363.6,361,363.5z"></path>
<path d="M353.8,303.7c-12,0-23-4.6-31.8-13.2l-12.1-10.7c-3.3-2.9-3.6-8-0.7-11.3c2.9-3.3,8-3.6,11.3-0.7l12.3,10.9
	c0.1,0.1,0.2,0.2,0.3,0.3c5.8,5.7,13,8.8,20.7,8.8c15.8,0,28.6-12.8,28.6-28.4s-12.8-28.4-28.6-28.4c-7.6,0-14.8,3-20.2,8.3
	c-3.1,3.1-8.2,3.1-11.3,0c-3.1-3.1-3.1-8.2,0-11.3c8.4-8.4,19.6-13,31.5-13c24.6,0,44.6,19.9,44.6,44.4S378.4,303.7,353.8,303.7z
	 M204.1,346.4c-22.2,22-53.4,34.6-85.5,34.6c-4.4,0-8,3.6-8,8s3.6,8,8,8c36.3,0,71.6-14.3,96.8-39.3c3.1-3.1,3.2-8.2,0.1-11.3
	C212.3,343.3,207.3,343.3,204.1,346.4z M118.6,137.5c32.7,0,63.5,12.7,86.6,35.7c0.1,0.1,0.2,0.2,0.3,0.3l30.6,27.1
	c1.5,1.3,3.4,2,5.3,2c2.2,0,4.4-0.9,6-2.7c2.9-3.3,2.6-8.4-0.7-11.3l-30.4-26.9c-26.1-25.9-60.8-40.2-97.7-40.2c-4.4,0-8,3.6-8,8
	S114.2,137.5,118.6,137.5z M138.2,440.2H25.4c-4.4,0-8,3.6-8,8s3.6,8,8,8h112.8c4.4,0,8-3.6,8-8S142.6,440.2,138.2,440.2z
	 M471.3,347.7H358.5c-4.4,0-8,3.6-8,8s3.6,8,8,8h112.8c4.4,0,8-3.6,8-8S475.8,347.7,471.3,347.7z M406.6,48.9h54.1c4.4,0,8-3.6,8-8
	s-3.6-8-8-8h-54.1c-4.4,0-8,3.6-8,8S402.2,48.9,406.6,48.9z M460.7,333c4.4,0,8-3.6,8-8s-3.6-8-8-8h-54.1c-4.4,0-8,3.6-8,8
	s3.6,8,8,8H460.7z M52.4,116.8c5.9,0,10.8-4.8,10.8-10.8s-4.8-10.8-10.8-10.8c-5.9,0-10.8,4.8-10.8,10.8S46.5,116.8,52.4,116.8z
	 M274.2,403.6c-3.1-3.1-8.2-3.1-11.3,0l-11.2,11.2l-11.2-11.2c-3.1-3.1-8.2-3.1-11.3,0c-3.1,3.1-3.1,8.2,0,11.3l11.2,11.2
	l-11.2,11.2c-3.1,3.1-3.1,8.2,0,11.3c1.6,1.6,3.6,2.3,5.7,2.3s4.1-0.8,5.7-2.3l11.2-11.2l11.2,11.2c1.6,1.6,3.6,2.3,5.7,2.3
	s4.1-0.8,5.7-2.3c3.1-3.1,3.1-8.2,0-11.3l-11.2-11.2l11.2-11.2C277.3,411.8,277.3,406.7,274.2,403.6z M279.7,40.4c-4.4,0-8,3.6-8,8
	c0,11.4-9.3,20.8-20.8,20.8c-4.4,0-8,3.6-8,8s3.6,8,8,8c20.3,0,36.8-16.5,36.8-36.8C287.7,44,284.1,40.4,279.7,40.4z M329.7,85.2
	c4.4,0,8-3.6,8-8s-3.6-8-8-8c-11.4,0-20.8-9.3-20.8-20.8c0-4.4-3.6-8-8-8s-8,3.6-8,8C292.9,68.7,309.4,85.2,329.7,85.2z
	 M329.7,106.4c4.4,0,8-3.6,8-8s-3.6-8-8-8c-20.3,0-36.8,16.5-36.8,36.8c0,4.4,3.6,8,8,8s8-3.6,8-8
	C308.9,115.8,318.2,106.4,329.7,106.4z M250.9,90.4c-4.4,0-8,3.6-8,8s3.6,8,8,8c11.4,0,20.8,9.3,20.8,20.8c0,4.4,3.6,8,8,8
	s8-3.6,8-8C287.7,106.9,271.2,90.4,250.9,90.4z M458.7,438.3h-3.9v-3.9c0-4.4-3.6-8-8-8s-8,3.6-8,8v3.9h-3.9c-4.4,0-8,3.6-8,8
	s3.6,8,8,8h3.9v3.9c0,4.4,3.6,8,8,8s8-3.6,8-8v-3.9h3.9c4.4,0,8-3.6,8-8S463.1,438.3,458.7,438.3z M364.6,120.2
	c-5.7,0-10.3,4.6-10.3,10.3s4.6,10.3,10.3,10.3c63.1,0,114.4,51.1,114.4,113.8c0,5.7,4.6,10.3,10.3,10.3s10.3-4.6,10.3-10.3
	C499.6,180.5,439,120.2,364.6,120.2z M146.4,288.3l26.1-23.1c1.7-1.5,2.6-3.5,2.7-5.8c0.1-2.2-0.8-4.3-2.4-5.9l-0.1-0.1
	c-3.1-3.1-8.2-3.1-11.3,0c-0.2,0.2-0.5,0.5-0.7,0.7l-25.1,22.3c-0.1,0.1-0.2,0.2-0.3,0.3c-4.7,4.7-11,7.3-17.7,7.3
	c-13.8,0-25-11.2-25-24.9c0-13.7,11.2-24.9,25-24.9c6.8,0,13,2.7,18.1,7.7c3.1,3.1,8.2,3.1,11.3,0c3.1-3.1,3.1-8.2,0-11.3
	c-8.1-8.1-18.3-12.3-29.4-12.3c-22.6,0-41,18.3-41,40.9s18.4,40.9,41,40.9C128.4,300.1,138.6,295.9,146.4,288.3z"></path>
</svg>