<svg version="1.1" id="Layer_1" xmlns="http://www.w3.org/2000/svg" xmlns:xlink="http://www.w3.org/1999/xlink" x="0px" y="0px" viewBox="0 0 512 512" enable-background="new 0 0 512 512" xml:space="preserve">
<linearGradient id="SVGID_1_" gradientUnits="userSpaceOnUse" x1="272.419" y1="443.6474" x2="272.419" y2="119.5429" class="gradient-element">
	<stop offset="0" class="primary-color-gradient" style="stop-color: #FFA4ED"></stop>
	<stop offset="1" class="secondary-color-gradient" style="stop-color: #DB81DA"></stop>
</linearGradient>
<path fill="url(#SVGID_1_)" d="M461.3,265.1c0,104.4-84.6,189-189,189c-100.8,0-183.1-78.9-188.7-178.2c9-3,22.4-2.4,26.8,8.2
	c25.2,60.9,69.8,105.7,132.6,115.6c53.5,8.4,88.9-12,106.1-31.8c49.8-57.1,54.4-176.1-74.6-243.6c-20.2-10.5-8.3-43,14.5-43.1h0.8
	c13.9,0,27.6,1.4,40.8,4C406.4,109.8,461.3,181,461.3,265.1z"></path>
<path d="M283.1,458.8h-11.1c-108.9,0-197.4-88.6-197.4-197.4C74.5,152.6,163.1,64,271.9,64s197.4,88.6,197.4,197.4
	c0,46.4-16.5,91.5-46.5,127.1c-29.7,35.3-71,59.1-116.1,67.2c-4.3,0.8-8.5-2.1-9.3-6.5c-0.8-4.3,2.1-8.5,6.5-9.3
	c86.6-15.4,149.4-90.5,149.4-178.5C453.4,161.4,372,80,271.9,80S90.5,161.4,90.5,261.4s81.4,181.4,181.4,181.4h11.1c4.4,0,8,3.6,8,8
	S287.5,458.8,283.1,458.8z M306,403.8V213.9c0-4.4-3.6-8-8-8h-73.3c-4.4,0-8,3.6-8,8v41.6c0,4.4,3.6,8,8,8h23.6v115.2
	c0,4.4,3.6,8,8,8s8-3.6,8-8V255.6c0-4.4-3.6-8-8-8h-23.6v-25.6H290v173.9h-33.8c-4.4,0-8,3.6-8,8s3.6,8,8,8H298
	C302.4,411.8,306,408.3,306,403.8z M306,160.6V119c0-4.4-3.6-8-8-8h-41.6c-4.4,0-8,3.6-8,8v41.6c0,4.4,3.6,8,8,8H298
	C302.4,168.6,306,165.1,306,160.6z M264.3,127H290v25.6h-25.6V127z"></path>
<path fill="#FFA4ED" class="primary-color" d="M97.9,55.3V33.5h56.9v21.8H97.9z M21.1,165.5h21.8v-56.9H21.1V165.5z M79.8,33.5H42.9h-20h-1.8v56.9h21.8
	V55.3h36.9V33.5z"></path>
<path fill="#000000" d="M138.2,262.1c0,4.4-3.6,8-8,8h-43c-4.4,0-8-3.6-8-8s3.6-8,8-8h43C134.6,254.1,138.2,257.6,138.2,262.1z
	 M108.7,284.1H34.9c-4.4,0-8,3.6-8,8s3.6,8,8,8h73.8c4.4,0,8-3.6,8-8S113.1,284.1,108.7,284.1z M396.5,123.8h43c4.4,0,8-3.6,8-8
	s-3.6-8-8-8h-43c-4.4,0-8,3.6-8,8S392.1,123.8,396.5,123.8z M418,137.8h-73.8c-4.4,0-8,3.6-8,8s3.6,8,8,8H418c4.4,0,8-3.6,8-8
	S422.4,137.8,418,137.8z M471.3,454.1l11.2-11.2c3.1-3.1,3.1-8.2,0-11.3c-3.1-3.1-8.2-3.1-11.3,0L460,442.8l-11.2-11.2
	c-3.1-3.1-8.2-3.1-11.3,0c-3.1,3.1-3.1,8.2,0,11.3l11.2,11.2l-11.2,11.2c-3.1,3.1-3.1,8.2,0,11.3c1.6,1.6,3.6,2.3,5.7,2.3
	s4.1-0.8,5.7-2.3l11.2-11.2l11.2,11.2c1.6,1.6,3.6,2.3,5.7,2.3s4.1-0.8,5.7-2.3c3.1-3.1,3.1-8.2,0-11.3L471.3,454.1z M46.8,354h-3.9
	v-3.9c0-4.4-3.6-8-8-8s-8,3.6-8,8v3.9H23c-4.4,0-8,3.6-8,8s3.6,8,8,8h3.9v3.9c0,4.4,3.6,8,8,8s8-3.6,8-8V370h3.9c4.4,0,8-3.6,8-8
	S51.2,354,46.8,354z M68.8,449c-5.9,0-10.8,4.8-10.8,10.8c0,5.9,4.8,10.8,10.8,10.8c5.9,0,10.8-4.8,10.8-10.8
	C79.5,453.8,74.7,449,68.8,449z"></path>
</svg>