<svg version="1.1" id="Layer_1" xmlns="http://www.w3.org/2000/svg" xmlns:xlink="http://www.w3.org/1999/xlink" x="0px" y="0px" viewBox="0 0 512 512" enable-background="new 0 0 512 512" xml:space="preserve">
<linearGradient id="SVGID_1_" gradientUnits="userSpaceOnUse" x1="287.1377" y1="430.5741" x2="287.1377" y2="100.4772" class="gradient-element">
	<stop offset="0" class="primary-color-gradient" style="stop-color: #FFA4ED"></stop>
	<stop offset="1" class="secondary-color-gradient" style="stop-color: #DB81DA"></stop>
</linearGradient>
<path fill="url(#SVGID_1_)" d="M372.3,184.7c0,12.9-2.9,25.1-8.7,36.6c-5.8,11.5-15.9,24.2-30.3,38.2l-18.5,17.6
	c-11.5,11.1-18.2,24.1-19.8,39l-0.9,13.9H277c-7.6,0-13.5-6.4-13-13.9v0c1.7-14.9,8.3-27.9,19.8-39l18.5-17.6
	c14.4-14,24.5-26.7,30.3-38.2c5.8-11.5,8.7-23.7,8.7-36.6c0-28.4-8.9-50.5-26.7-66.1c-14.8-12.9-34.5-20.5-59.2-22.7
	c4.9-0.5,10-0.7,15.3-0.7c32.2,0,57.2,7.8,75,23.4C363.4,134.3,372.3,156.3,372.3,184.7z M239.6,149.1c-11.3,0-20.3,3.5-27,10.4
	c-6.8,6.9-10.3,16.5-10.6,28.7H233c0.3-12.2,3.8-21.7,10.6-28.7c3.4-3.5,7.4-6.1,11.9-7.8C251,149.9,245.7,149.1,239.6,149.1z
	 M266.1,364.9c-5.7,0-10.9,0.9-15.5,2.8c4.1,1.6,7.8,4,11,7.1c6.9,6.6,10.4,15,10.4,25.1c0,10-3.4,18.3-10.1,24.8
	c-3.3,3.1-7,5.5-11.2,7.1c4.6,1.8,9.8,2.6,15.5,2.6c11.1,0,20-3.3,26.8-9.8c6.8-6.5,10.1-14.8,10.1-24.8c0-10.1-3.5-18.5-10.4-25.1
	C285.7,368.2,276.9,364.9,266.1,364.9z"></path>
<path d="M462.3,392.8h-86.8c-4.4,0-8-3.6-8-8s3.6-8,8-8h86.8c4.4,0,8,3.6,8,8S466.7,392.8,462.3,392.8z M422.7,349.7
	c0-4.4-3.6-8-8-8h-57.4c-4.4,0-8,3.6-8,8s3.6,8,8,8h57.4C419.1,357.7,422.7,354.1,422.7,349.7z M104.9,57c0-4.4-3.6-8-8-8H37.7
	c-4.4,0-8,3.6-8,8s3.6,8,8,8h59.2C101.3,65,104.9,61.4,104.9,57z"></path>
<g>
	<path fill="#FFA4ED" class="primary-color" d="M39.4,429.5v35.1h35.1v21.8H39.4H17.6v-21.8v-35.1H39.4z"></path>
	<path fill="#DB81DA" class="secondary-color" d="M29.7,194.4h21.8v145.9H29.7V194.4z"></path>
</g>
<path d="M266.1,442.5c-13.2,0-24.1-4-32.3-12c-8.4-8-12.6-18.3-12.6-30.5c0-12.4,4.3-22.8,12.9-30.9c8.4-8,19.2-12.1,32.1-12.1
	c12.9,0,23.7,4.1,32.1,12.1c3.2,3,3.3,8.1,0.3,11.3c-3,3.2-8.1,3.3-11.3,0.3c-5.4-5.2-12.3-7.7-21-7.7c-8.7,0-15.6,2.5-21,7.7
	c-5.3,5.1-7.9,11.4-7.9,19.3c0,7.8,2.5,14,7.7,19c5.3,5.1,12.2,7.5,21.2,7.5c9,0,16-2.5,21.2-7.5c5.2-5,7.7-11.2,7.7-19
	c0-4.4,3.6-8,8-8s8,3.6,8,8c0,12.2-4.2,22.5-12.6,30.5C290.2,438.4,279.3,442.5,266.1,442.5z M294.1,338.1c-0.2,0-0.4,0-0.5,0
	c-4.4-0.3-7.7-4.1-7.5-8.5l0.9-13.9c0-0.1,0-0.2,0-0.4c1.9-16.7,9.4-31.5,22.2-43.9l18.5-17.6c13.7-13.3,23.3-25.4,28.7-36
	c5.2-10.3,7.8-21.4,7.8-33c0-26.3-7.8-45.9-23.9-60c-16.2-14.2-39.6-21.4-69.7-21.4c-29.7,0-53.4,7.6-70.2,22.6
	c-15.1,13.5-23.4,31.3-25.1,54.2h50.4c1.5-10.7,5.6-19.5,12.2-26.3c8.3-8.5,19.3-12.8,32.7-12.8c28.1,0,43.6,16.5,43.6,46.6
	c0,9.9-2.7,19.5-8,28.4c-5,8.5-14.5,18.9-29,31.8c-12.8,11.4-21.6,22.9-26.3,34.4c-4.1,10-6.5,23.4-7,39.8h24.4c4.4,0,8,3.6,8,8
	s-3.6,8-8,8h-32.6c-4.4,0-8-3.6-8-8c0-22.2,2.8-40.4,8.3-53.9c5.6-13.7,15.9-27.2,30.5-40.2c13.1-11.6,21.8-21.1,25.9-28
	c3.8-6.5,5.7-13.1,5.7-20.2c0-21.4-8.2-30.6-27.6-30.6c-9.1,0-16,2.6-21.3,8c-5.4,5.5-8.1,13.1-8.3,23.3c-0.1,4.3-3.7,7.8-8,7.8
	h-66.1c-2.1,0-4.2-0.9-5.7-2.4c-1.5-1.5-2.3-3.6-2.3-5.7c0.3-31.3,10.7-56.2,30.8-74.1c19.9-17.7,47.1-26.7,80.9-26.7
	c34.1,0,61.1,8.5,80.3,25.4c19.5,17.1,29.4,41.4,29.4,72.1c0,14.1-3.2,27.7-9.5,40.2c-6.2,12.2-16.9,25.8-31.9,40.4l-18.5,17.6
	c-10.2,9.8-15.9,20.9-17.4,33.9l-0.9,13.7C301.8,334.8,298.3,338.1,294.1,338.1z"></path>
</svg>