<svg version="1.1" id="Layer_1" xmlns="http://www.w3.org/2000/svg" xmlns:xlink="http://www.w3.org/1999/xlink" x="0px" y="0px" viewBox="0 0 512 512" enable-background="new 0 0 512 512" xml:space="preserve">
<linearGradient id="SVGID_1_" gradientUnits="userSpaceOnUse" x1="319.5294" y1="495.9963" x2="319.5294" y2="146.4333" class="gradient-element">
	<stop offset="0" class="primary-color-gradient" style="stop-color: #FFA4ED"></stop>
	<stop offset="1" class="secondary-color-gradient" style="stop-color: #DB81DA"></stop>
</linearGradient>
<path fill="url(#SVGID_1_)" d="M270,122c-0.4,0-0.7,0-1.1,0c-5.8,0.1-7.4,7.9-2.2,10.3c39.8,18.2,67.6,58.4,67.6,104.9
	c0,24.2-7.4,47.3-21.5,67c-4.5,6.3-9.4,12.1-14.2,17.7c-14.6,17.1-27.2,31.9-27.2,60v52.4c0,16.5-4.4,29.1-13.3,38.6
	c-0.1,0.1-0.3,0.3-0.4,0.4c-6.6,6.7-4.6,18,4,21.7c3.1,1.3,5.9,2.1,8.2,2.1c11.3,0,33.5-18.4,39-24.2c9-9.5,13.3-22.1,13.3-38.6
	v-52.4c0-28.1,12.6-42.9,27.2-60c4.7-5.6,9.6-11.3,14.2-17.7c14.1-19.8,21.6-43.1,21.5-67.5C385,173,333.7,122,270,122z"></path>
<path d="M128.1,412.8c-2,0-4.1-0.8-5.7-2.3c-3.1-3.1-3.1-8.2,0-11.3l18.9-18.9c3.1-3.1,8.2-3.1,11.3,0c3.1,3.1,3.1,8.2,0,11.3
	l-18.9,18.9C132.2,412,130.1,412.8,128.1,412.8z M175.1,163.2v172.9H254c4.4,0,8,3.6,8,8s-3.6,8-8,8h-26.5v56.5
	c10.8,3.4,18.7,13.5,18.7,25.4c0,14.7-12,26.7-26.7,26.7s-26.7-12-26.7-26.7c0-11.9,7.9-22,18.7-25.4v-56.5h-44.4c-4.4,0-8-3.6-8-8
	v-68.5H63.3c-3.4,10.8-13.5,18.7-25.4,18.7c-14.7,0-26.7-12-26.7-26.7s12-26.7,26.7-26.7c11.9,0,22,7.9,25.4,18.7h95.8v-52.2h-48.8
	c-0.1,0-0.1,0-0.2,0c-3.9,9.8-13.5,16.7-24.7,16.7c-14.7,0-26.7-12-26.7-26.7s12-26.7,26.7-26.7c12.6,0,23.2,8.8,26,20.6h47.7v-36.2
	c0-4.4,3.6-8,8-8h9.2V99.9c-10.8-3.4-18.7-13.5-18.7-25.4c0-14.7,12-26.7,26.7-26.7c14.7,0,26.7,12,26.7,26.7
	c0,11.9-7.9,22-18.7,25.4v47.3H254c4.4,0,8,3.6,8,8s-3.6,8-8,8H175.1z M184.3,85.2c5.9,0,10.7-4.8,10.7-10.7s-4.8-10.7-10.7-10.7
	s-10.7,4.8-10.7,10.7S178.4,85.2,184.3,85.2z M96.1,197.4c0-5.9-4.8-10.7-10.7-10.7c-5.9,0-10.7,4.8-10.7,10.7s4.8,10.7,10.7,10.7
	C91.3,208.1,96.1,203.3,96.1,197.4z M48.5,267.5c0-5.9-4.8-10.7-10.7-10.7s-10.7,4.8-10.7,10.7s4.8,10.7,10.7,10.7
	S48.5,273.4,48.5,267.5z M208.9,434c0,5.9,4.8,10.7,10.7,10.7s10.7-4.8,10.7-10.7s-4.8-10.7-10.7-10.7S208.9,428.1,208.9,434z
	 M270,114c-4.4,0-8,3.6-8,8s3.6,8,8,8c59.1,0,107.2,48.1,107.2,107.2c0,22.5-6.9,44-20,62.3c-4.3,6-9,11.6-13.6,16.9l-0.2,0.2
	c-13.2,15.5-25.7,30.2-28.5,54.6h-44.5c-4.4,0-8,3.6-8,8s3.6,8,8,8h43.9v47c0,0.4,0,0.8,0,1.2h-43.9c-4.4,0-8,3.6-8,8s3.6,8,8,8
	h41.7c-1.8,6.3-4.8,11.6-8.9,15.9c-6.8,7.2-26.4,21.7-33.2,21.7c-4.4,0-8,3.6-8,8s3.6,8,8,8c16,0,40.9-22.6,44.8-26.7
	c10.4-11,15.5-25.5,15.5-44.1v-52.4c0-0.3,0-0.6,0-1c0.1-0.5,0.2-1.1,0.2-1.6c0-0.4,0-0.8-0.1-1.1c1.1-22.7,11.8-35.4,25.2-51.1
	l0.2-0.2c4.8-5.6,9.7-11.5,14.4-18c15-21,23-45.8,23-71.6C393.2,169.3,338,114,270,114z M492.7,259.5h-67.8c-4.4,0-8,3.6-8,8
	s3.6,8,8,8h67.8c4.4,0,8-3.6,8-8S497.1,259.5,492.7,259.5z M400,139.4c2,0,4.1-0.8,5.7-2.3l47.9-47.9c3.1-3.1,3.1-8.2,0-11.3
	s-8.2-3.1-11.3,0l-47.9,47.9c-3.1,3.1-3.1,8.2,0,11.3C396,138.6,398,139.4,400,139.4z M270.4,92.6c4.4,0,8-3.6,8-8V16.8
	c0-4.4-3.6-8-8-8s-8,3.6-8,8v67.8C262.4,89,266,92.6,270.4,92.6z M391.5,380.2c-3.1-3.1-8.2-3.1-11.3,0c-3.1,3.1-3.1,8.2,0,11.3
	l29.5,29.5c1.6,1.6,3.6,2.3,5.7,2.3c2,0,4.1-0.8,5.7-2.3c3.1-3.1,3.1-8.2,0-11.3L391.5,380.2z"></path>
<path d="M345.1,69.1c-4.9,1.1-8,5.9-6.9,10.7c0.9,4.2,4.7,7.1,8.8,7.1c0.6,0,1.3-0.1,1.9-0.2c4.9-1.1,8-5.9,6.9-10.7
	S349.9,68,345.1,69.1z M434.2,187.4c-0.5-2.4-1.9-4.4-3.9-5.7s-4.4-1.7-6.8-1.2c-4.9,1.1-8,5.9-6.9,10.7c0,0,0,0,0,0
	c0.5,2.4,1.9,4.4,3.9,5.7c1.5,0.9,3.2,1.4,4.9,1.4c0.6,0,1.3-0.1,1.9-0.2c2.4-0.5,4.4-1.9,5.7-3.9
	C434.3,192.1,434.7,189.7,434.2,187.4z M135.3,337.1c0,4.4-3.6,8-8,8h-3.9v3.9c0,4.4-3.6,8-8,8s-8-3.6-8-8v-3.9h-3.9
	c-4.4,0-8-3.6-8-8s3.6-8,8-8h3.9v-3.9c0-4.4,3.6-8,8-8s8,3.6,8,8v3.9h3.9C131.7,329.1,135.3,332.7,135.3,337.1z M74.8,442.3
	c-4.9-1.1-9.7,2-10.7,6.9c-1.1,4.9,2,9.7,6.9,10.7c0.6,0.1,1.3,0.2,1.9,0.2c4.2,0,7.9-2.9,8.8-7.1c0,0,0,0,0,0
	c0.5-2.4,0.1-4.8-1.2-6.8C79.1,444.2,77.1,442.8,74.8,442.3z M147.2,107.4c0,4.4-3.6,8-8,8h-3.9v3.9c0,4.4-3.6,8-8,8s-8-3.6-8-8
	v-3.9h-3.9c-4.4,0-8-3.6-8-8s3.6-8,8-8h3.9v-3.9c0-4.4,3.6-8,8-8s8,3.6,8,8v3.9h3.9C143.6,99.4,147.2,103,147.2,107.4z"></path>
<g>
	<path fill="#FFA4ED" class="primary-color" d="M24.5,20.1l57.8,57.8l-57.8,57.8V20.1z"></path>
	<path fill="#DB81DA" class="secondary-color" d="M28.8,362.7h21.8v56.9H28.8V362.7z"></path>
</g>
</svg>