<svg version="1.1" id="Layer_1" xmlns="http://www.w3.org/2000/svg" xmlns:xlink="http://www.w3.org/1999/xlink" x="0px" y="0px" viewBox="0 0 512 512" enable-background="new 0 0 512 512" xml:space="preserve">
<linearGradient id="SVGID_1_" gradientUnits="userSpaceOnUse" x1="259.4886" y1="432.7353" x2="259.4886" y2="73.8634" class="gradient-element">
	<stop offset="0" class="primary-color-gradient" style="stop-color: #FFA4ED"></stop>
	<stop offset="1" class="secondary-color-gradient" style="stop-color: #DB81DA"></stop>
</linearGradient>
<path fill="url(#SVGID_1_)" d="M436.2,254.2c0,48.8-0.2,54.9-1.1,74.1c-0.9,19.1-3.9,32.2-8.4,43.6c-4.6,11.8-10.7,21.8-20.7,31.8
	c-10,10-20,16.1-31.8,20.7c-11.4,4.4-24.5,7.5-43.6,8.3c-19.2,0.9-85.2,1.1-134,1.1h-19c-36.2,0-94.8-29.4-94.8-65.6v0h38.4
	c32.2,0,59.6-20.1,70.5-48.5c16.7,16.5,39.6,26.7,64.9,26.7c51,0,92.3-41.3,92.3-92.3s-41.3-92.3-92.3-92.3
	c-22.9,0-43.8,8.3-59.9,22.1c0.5-60.9,50.5-109.8,111.5-109c9.8,0.1,17.6,0.3,22.5,0.5c19.1,0.9,32.2,3.9,43.6,8.3
	C386,88.5,396,94.7,406,104.7c10,10,16.1,20,20.7,31.8c4.4,11.4,7.5,24.5,8.4,43.6C436,199.3,436.2,205.4,436.2,254.2z"></path>
<path d="M444.2,254.2c0,48.8-0.2,55.2-1.1,74.5c-0.8,18.2-3.6,32.5-8.9,46.1c-5.3,13.7-12.3,24.3-22.5,34.6
	c-10.3,10.3-20.9,17.2-34.6,22.5c-13.7,5.3-27.9,8.1-46.2,8.9c-19.4,0.9-25.8,1.1-74.5,1.1c-48.7,0-55.1-0.2-74.5-1.1
	c-18.2-0.8-32.5-3.6-46.2-8.9c-13.6-5.3-24.3-12.3-34.6-22.5c-10.3-10.3-17.2-20.9-22.5-34.6c-5.3-13.7-8.1-27.9-8.9-46.1
	c-0.2-4.4,3.2-8.2,7.6-8.4c4.4-0.2,8.2,3.2,8.4,7.6c0.7,16.4,3.2,29.1,7.8,41.1c4.5,11.5,10.3,20.4,18.9,29.1
	c8.6,8.6,17.6,14.5,29.1,18.9c12,4.7,24.7,7.1,41.1,7.8c19.1,0.9,25.4,1.1,73.7,1.1c48.3,0,54.7-0.2,73.7-1.1
	c16.4-0.7,29.1-3.2,41.1-7.8c11.5-4.5,20.4-10.3,29.1-18.9c8.6-8.6,14.5-17.6,18.9-29.1c4.7-12,7.1-24.7,7.8-41.1
	c0.9-19,1.1-25.3,1.1-73.7c0-48.5-0.2-54.8-1.1-73.7c-0.7-16.4-3.2-29.1-7.8-41.1c-4.5-11.5-10.3-20.4-18.9-29.1
	c-8.6-8.6-17.6-14.5-29.1-18.9c-12-4.7-24.7-7.1-41.1-7.8c-19.1-0.9-25.4-1.1-73.7-1.1c-48.3,0-54.7,0.2-73.7,1.1c0,0,0,0,0,0
	c-16.4,0.7-29.1,3.2-41.1,7.8c-11.5,4.5-20.4,10.3-29.1,18.9c-8.6,8.6-14.5,17.6-18.9,29.1c-4.7,12-7.1,24.7-7.8,41.1
	c-1,21.1-1.1,73.6-1.1,111.3c0,4.4-3.6,8-8,8s-8-3.6-8-8c0-60.9,0.3-95.5,1.1-112c0.8-18.2,3.6-32.5,8.9-46.2
	C84.1,120,91,109.3,101.3,99c10.3-10.3,20.9-17.2,34.6-22.5c13.7-5.3,27.9-8.1,46.2-8.9c0,0,0,0,0,0c19.4-0.9,25.8-1.1,74.4-1.1
	c48.7,0,55.1,0.2,74.5,1.1c18.2,0.8,32.5,3.6,46.2,8.9c13.6,5.3,24.3,12.2,34.6,22.5c10.3,10.3,17.2,20.9,22.5,34.6
	c5.3,13.7,8.1,27.9,8.9,46.2C444,199,444.2,205.4,444.2,254.2z M324.7,141.4c0-18.6,15.1-33.6,33.6-33.6c18.6,0,33.6,15.1,33.6,33.6
	c0,18.6-15.1,33.6-33.6,33.6C339.8,175,324.7,159.9,324.7,141.4z M340.7,141.4c0,9.7,7.9,17.6,17.6,17.6c9.7,0,17.6-7.9,17.6-17.6
	c0-9.7-7.9-17.6-17.6-17.6C348.6,123.7,340.7,131.6,340.7,141.4z M256.5,153.9c55.3,0,100.3,45,100.3,100.3
	c0,55.3-45,100.3-100.3,100.3s-100.3-45-100.3-100.3C156.2,198.9,201.2,153.9,256.5,153.9z M256.5,169.9
	c-46.5,0-84.3,37.8-84.3,84.3c0,46.5,37.8,84.3,84.3,84.3s84.3-37.8,84.3-84.3C340.8,207.7,303,169.9,256.5,169.9z M188.6,254.2
	c0,4.4,3.6,8,8,8s8-3.6,8-8c0-28.6,23.3-51.9,51.9-51.9c28.6,0,51.9,23.3,51.9,51.9c0,9.6-2.6,19-7.6,27.1
	c-9.5,15.5-26.1,24.8-44.3,24.8c-4.4,0-8,3.6-8,8s3.6,8,8,8c23.8,0,45.5-12.1,57.9-32.4c6.5-10.7,10-22.9,10-35.5
	c0-37.4-30.5-67.9-67.9-67.9C219.1,186.3,188.6,216.8,188.6,254.2z"></path>
<path d="M455.3,14.6c0,20.3-16.5,36.8-36.8,36.8c-4.4,0-8-3.6-8-8s3.6-8,8-8c11.4,0,20.8-9.3,20.8-20.8c0-4.4,3.6-8,8-8
	S455.3,10.2,455.3,14.6z M497.3,51.4c4.4,0,8-3.6,8-8s-3.6-8-8-8c-11.4,0-20.8-9.3-20.8-20.8c0-4.4-3.6-8-8-8s-8,3.6-8,8
	C460.6,34.9,477.1,51.4,497.3,51.4z M497.3,56.6c-20.3,0-36.8,16.5-36.8,36.8c0,4.4,3.6,8,8,8s8-3.6,8-8c0-11.4,9.3-20.7,20.8-20.7
	c4.4,0,8-3.6,8-8S501.8,56.6,497.3,56.6z M418.6,56.6c-4.4,0-8,3.6-8,8s3.6,8,8,8c11.4,0,20.8,9.3,20.8,20.8c0,4.4,3.6,8,8,8
	s8-3.6,8-8C455.3,73.1,438.8,56.6,418.6,56.6z M431.3,476.1h-40.9c-4.4,0-8,3.6-8,8s3.6,8,8,8h40.9c4.4,0,8-3.6,8-8
	S435.7,476.1,431.3,476.1z M360.3,476.1H81.7c-4.4,0-8,3.6-8,8s3.6,8,8,8h278.6c4.4,0,8-3.6,8-8S364.7,476.1,360.3,476.1z
	 M73.8,25.1c0-5,4.1-9,9-9s9,4.1,9,9s-4.1,9-9,9S73.8,30.1,73.8,25.1z M103.8,25.1c0-5,4.1-9,9-9s9,4.1,9,9s-4.1,9-9,9
	S103.8,30.1,103.8,25.1z M31.8,25.1c0,5-4.1,9-9,9s-9-4.1-9-9s4.1-9,9-9S31.8,20.1,31.8,25.1z M44.2,25.1c0-5,4.1-9,9-9s9,4.1,9,9
	s-4.1,9-9,9S44.2,30.1,44.2,25.1z M91.8,55.8c0,4.9-4,9-9,9s-9-4-9-9s4-9,9-9S91.8,50.8,91.8,55.8z M62.2,55.8c0,4.9-4,9-9,9
	c-4.9,0-9-4-9-9s4-9,9-9C58.2,46.8,62.2,50.8,62.2,55.8z M31.8,85.4c0,5-4.1,9-9,9s-9-4.1-9-9s4.1-9,9-9S31.8,80.4,31.8,85.4z
	 M31.8,55.8c0,5-4.1,9-9,9s-9-4.1-9-9s4.1-9,9-9S31.8,50.8,31.8,55.8z M62.2,85.4c0,4.9-4,9-9,9c-4.9,0-9-4-9-9s4-9,9-9
	C58.2,76.5,62.2,80.5,62.2,85.4z M31.8,115.1c0,5-4.1,9-9,9s-9-4.1-9-9s4.1-9,9-9S31.8,110.1,31.8,115.1z M149.6,324
	c0-4.4-3.6-8-8-8H54c-4.4,0-8,3.6-8,8s3.6,8,8,8h87.6C146,332,149.6,328.4,149.6,324z M93.8,291.7c0-4.4-3.6-8-8-8H42
	c-4.4,0-8,3.6-8,8s3.6,8,8,8h43.8C90.2,299.7,93.8,296.2,93.8,291.7z"></path>
<g>
	<path fill="#DB81DA" class="secondary-color" d="M490.1,322.7h-21.8v-43.6h21.8V322.7z M490.1,351.9h-21.8v43.6h21.8V351.9z M490.1,133.5h-21.8v43.6h21.8
		V133.5z"></path>
	<path fill="#FFA4ED" class="primary-color" d="M490.1,249.9h-21.8v-43.6h21.8V249.9z"></path>
</g>
</svg>