<svg version="1.1" id="Layer_1" xmlns="http://www.w3.org/2000/svg" xmlns:xlink="http://www.w3.org/1999/xlink" x="0px" y="0px" viewBox="0 0 512 512" enable-background="new 0 0 512 512" xml:space="preserve">
<linearGradient id="SVGID_1_" gradientUnits="userSpaceOnUse" x1="285.9459" y1="434.5685" x2="285.9459" y2="86.4249" class="gradient-element">
	<stop offset="0" class="primary-color-gradient" style="stop-color: #FFA4ED"></stop>
	<stop offset="1" class="secondary-color-gradient" style="stop-color: #DB81DA"></stop>
</linearGradient>
<path fill="url(#SVGID_1_)" d="M160.3,342.9l49,0c47.9,0,86.7-38.8,86.7-86.7v-94.8c0-59.9,29.4-93.5,76.2-56
	C414,138.8,441,190,442,247.6c1.7,104.7-84.4,190.8-189.1,189c-41.9-0.7-80.4-15.2-111.1-39.2C118.9,379.6,131.3,342.9,160.3,342.9z
	"></path>
<path d="M256,56.6c-48,0-94.1,17.7-129.7,49.7c-3.3,3-3.6,8-0.6,11.3c3,3.3,8,3.6,11.3,0.6c19.5-17.5,42.3-30.4,66.9-37.9
	c-10.2,10.1-19.1,23.5-26.7,40.1c-3.4,7.5-6.5,15.6-9.3,24.2H99c-1.5,0-2.8,0.4-4,1.1c-1.7,0.6-3.3,1.7-4.3,3.4
	c-13.1,21.2-21.8,44.4-25.9,69c-0.7,4.4,2.2,8.5,6.6,9.2c0.5,0.1,0.9,0.1,1.3,0.1c3.8,0,7.2-2.8,7.9-6.7c3.6-21.3,11-41.5,21.9-60.1
	h60.9c-6.3,24.8-9.9,52.8-10.5,82H71c-0.2,0-0.3,0-0.5,0c-0.2,0-0.3,0-0.5,0c-4.4,0-8,3.6-8,8c0,20.9,3.3,41.4,9.8,61.1
	c1.1,3.4,4.2,5.5,7.6,5.5c0.8,0,1.7-0.1,2.5-0.4c4.2-1.4,6.5-5.9,5.1-10.1c-5.1-15.5-8.1-31.6-8.8-48h74.7c0.5,27,3.6,52.9,9.1,76.3
	H99c-0.8,0-1.6,0.1-2.3,0.3c-2-0.6-4.3-0.4-6.2,0.7c-3.8,2.2-5.2,7.1-3,10.9c16.7,29.2,40.8,53.6,69.7,70.8
	c29.8,17.7,63.9,27,98.8,27c56.1,0,102.7-19.6,138.5-58.2c3-3.2,2.8-8.3-0.4-11.3c-3.2-3-8.3-2.8-11.3,0.4
	c-21.4,23.1-47,38.7-76.7,46.7c10.8-10.2,20.3-24.1,28.2-41.5c4.2-9.2,7.9-19.2,11-29.9H413c0.8,0,1.6-0.1,2.3-0.3
	c0.7,0.2,1.5,0.3,2.2,0.3c2.7,0,5.4-1.4,6.9-4c17.2-29.3,25.6-60.8,25.6-96.3C450,143.6,363,56.6,256,56.6z M358.6,242.6
	c-0.6-29.2-4.2-57.2-10.5-82h61.4c14.3,24.3,23,52.2,24.3,82H358.6z M263.5,242.6v-82h68.1c6.6,24.5,10.4,52.5,11,82H263.5z
	 M342.6,258.6c-0.5,27.2-3.8,53.2-9.5,76.3h-69.6v-76.3H342.6z M263.5,74.7c28.3,4,46.1,30.2,56.2,52.4c2.5,5.5,4.8,11.4,7,17.5
	h-63.2V74.7z M398.9,144.6h-55.3c-2.7-8.6-5.8-16.6-9.3-24.2c-7.6-16.7-16.7-30.2-26.9-40.3C344.4,91.4,376.4,114.3,398.9,144.6z
	 M191.8,127.1c10.1-22.1,27.7-48.1,55.7-52.4v69.9h-62.7C186.9,138.5,189.2,132.6,191.8,127.1z M179.9,160.6h67.6v82h-78.6
	C169.5,213.1,173.2,185.1,179.9,160.6z M168.9,258.6h78.6v76.3h-69.1C172.7,311.8,169.4,285.9,168.9,258.6z M247.5,426.5
	c-28-4.2-45.7-30.2-55.7-52.4c-3.3-7.2-6.3-15-8.9-23.3h64.6V426.5z M108.9,350.9h57.2c3.2,10.7,6.8,20.7,11,29.9
	c7.5,16.5,16.5,29.9,26.6,40C165.6,409,131.9,384.5,108.9,350.9z M319.7,374.1c-10.2,22.3-27.9,48.4-56.2,52.4v-75.7h65.1
	C326,359.1,323,366.9,319.7,374.1z M412.9,334.9h-63.3c5.4-23.4,8.6-49.3,9.1-76.3h75.2C432.7,286.4,425.8,311.4,412.9,334.9z"></path>
<path fill="#FFA4ED" class="primary-color" d="M344.1,489.7v-21.8h145.9v21.8H344.1z"></path>
<path d="M261.2,478.8c0,4.4-3.6,8-8,8c-42.4,0-84-11.4-120.2-32.8c-35.2-20.9-64.6-50.7-84.9-86.2c-2.2-3.8-0.9-8.7,3-10.9
	c3.8-2.2,8.7-0.9,10.9,3c39.2,68.4,112.4,111,191.2,111C257.6,470.8,261.2,474.4,261.2,478.8z M253.2,14.5
	C194.8,14.5,138.7,36,95.3,75c-3.3,3-3.6,8-0.6,11.3c1.6,1.8,3.8,2.6,5.9,2.6c1.9,0,3.8-0.7,5.3-2.1c40.5-36.4,92.7-56.5,147.2-56.5
	c4.4,0,8-3.6,8-8S257.6,14.5,253.2,14.5z M402.6,78.3c20.3,0,36.8-16.5,36.8-36.8c0-4.4-3.6-8-8-8s-8,3.6-8,8
	c0,11.4-9.3,20.8-20.8,20.8c-4.4,0-8,3.6-8,8S398.2,78.3,402.6,78.3z M481.4,78.3c4.4,0,8-3.6,8-8s-3.6-8-8-8
	c-11.4,0-20.8-9.3-20.8-20.8c0-4.4-3.6-8-8-8s-8,3.6-8,8C444.6,61.9,461.1,78.3,481.4,78.3z M481.4,83.6
	c-20.3,0-36.8,16.5-36.8,36.8c0,4.4,3.6,8,8,8s8-3.6,8-8c0-11.4,9.3-20.8,20.8-20.8c4.4,0,8-3.6,8-8S485.8,83.6,481.4,83.6z
	 M402.6,99.6c11.4,0,20.8,9.3,20.8,20.8c0,4.4,3.6,8,8,8s8-3.6,8-8c0-20.3-16.5-36.8-36.8-36.8c-4.4,0-8,3.6-8,8
	S398.2,99.6,402.6,99.6z M460.1,334.9h-57.4c-4.4,0-8,3.6-8,8s3.6,8,8,8h57.4c4.4,0,8-3.6,8-8S464.5,334.9,460.1,334.9z M415.2,373
	h-57.4c-4.4,0-8,3.6-8,8s3.6,8,8,8h57.4c4.4,0,8-3.6,8-8S419.7,373,415.2,373z M61.2,74c4.4,0,8-3.6,8-8s-3.6-8-8-8
	c-5.7,0-10.4-4.7-10.4-10.4s4.7-10.4,10.4-10.4c4.4,0,8-3.6,8-8s-3.6-8-8-8c-7.3,0-13.9,3-18.7,7.8c-4.8-4.8-11.4-7.8-18.7-7.8
	c-4.4,0-8,3.6-8,8s3.6,8,8,8c5.7,0,10.4,4.7,10.4,10.4S29.5,58,23.8,58c-4.4,0-8,3.6-8,8s3.6,8,8,8c7.3,0,13.9-3,18.7-7.8
	C47.3,71,53.9,74,61.2,74z"></path>
</svg>