<svg version="1.1" id="Layer_1" xmlns="http://www.w3.org/2000/svg" xmlns:xlink="http://www.w3.org/1999/xlink" x="0px" y="0px" viewBox="0 0 512 512" enable-background="new 0 0 512 512" xml:space="preserve">
<g>
	<linearGradient id="SVGID_1_" gradientUnits="userSpaceOnUse" x1="329.6979" y1="316.2219" x2="329.6979" y2="128.6082" class="gradient-element">
		<stop offset="0" class="primary-color-gradient" style="stop-color: #FFA4ED"></stop>
		<stop offset="1" class="secondary-color-gradient" style="stop-color: #DB81DA"></stop>
	</linearGradient>
	<path fill="url(#SVGID_1_)" d="M269.2,106.4h0.6c11.4,0,22.6,1.1,33.5,3.3c62.3,20.1,107.3,78.6,107.3,147.6
		c0,23.2-5.1,45.2-14.2,65l-57.3-17.2c16.8-50.5,1.2-119.9-81.8-163.3C240.7,133.1,250.5,106.5,269.2,106.4z"></path>
	<linearGradient id="SVGID_2_" gradientUnits="userSpaceOnUse" x1="210.0444" y1="408.2817" x2="210.0444" y2="280.0212">
		<stop offset="0" class="primary-color-gradient" style="stop-color: #FFA4ED"></stop>
		<stop offset="1" class="secondary-color-gradient" style="stop-color: #DB81DA"></stop>
	</linearGradient>
	<path fill="url(#SVGID_2_)" d="M319.5,398.6c-19.5,8.8-41.2,13.8-64,13.8c-82.7,0-150.3-64.7-154.9-146.3c7.4-2.5,18.4-2,22,6.7
		c20.7,50,57.3,86.7,108.8,94.8c33.4,5.3,58.1-3.2,74.3-14.6L319.5,398.6z"></path>
</g>
<path d="M440.9,405.3l-41.6-41.6l28.1-28.1c2-2,2.8-4.9,2.1-7.6c-0.7-2.7-2.8-4.9-5.5-5.7l-23.7-7.1c7.7-18.7,11.6-38.6,11.6-59.1
	c0-86-69.9-155.9-155.9-155.9c-86,0-155.9,69.9-155.9,155.9c0,86,69.9,155.9,155.9,155.9c19.3,0,38.1-3.5,56-10.4l7.6,25.2
	c0.8,2.7,3,4.8,5.7,5.5c2.7,0.7,5.6-0.1,7.6-2.1L361,402l41.6,41.6c1.5,1.5,3.5,2.3,5.7,2.3s4.2-0.8,5.7-2.3l27-27
	C444,413.5,444,408.4,440.9,405.3z M256,395.9c-77.2,0-139.9-62.8-139.9-139.9c0-77.1,62.8-139.9,139.9-139.9S395.9,178.9,395.9,256
	c0,18.9-3.7,37.2-11,54.5L289,281.7c-2.8-0.8-5.9-0.1-8,2s-2.9,5.1-2,8l28.4,94.5C291,392.6,273.8,395.9,256,395.9z M408.2,426.6
	L366.6,385c-1.6-1.6-3.6-2.3-5.7-2.3s-4.1,0.8-5.7,2.3L331,409.3l-32.4-108l108,32.4L382.3,358c-3.1,3.1-3.1,8.2,0,11.3l41.6,41.6
	L408.2,426.6z M281.6,274.2c-2.6,0-5-1.2-6.5-3.4l-19.8-28.1l-19.1,28c-1.8,2.7-5.1,4-8.3,3.3c-3.2-0.7-5.6-3.2-6.2-6.4l-8.4-45.9
	c-0.8-4.3,2.1-8.5,6.4-9.3c4.4-0.8,8.5,2.1,9.3,6.4l4.9,26.7l14.6-21.4c1.5-2.2,3.9-3.5,6.5-3.5c0,0,0,0,0.1,0c2.6,0,5,1.3,6.5,3.4
	l15.4,21.9l5-27.1c0.8-4.3,5-7.2,9.3-6.4c4.3,0.8,7.2,5,6.4,9.3l-8.4,45.9c-0.6,3.2-3,5.7-6.2,6.4
	C282.8,274.1,282.2,274.2,281.6,274.2z M300,221.7c-0.8-4.3,2.1-8.5,6.4-9.3c4.4-0.8,8.5,2.1,9.3,6.4l4.9,26.7l14.6-21.4
	c1.5-2.2,3.9-3.5,6.5-3.5c0,0,0,0,0.1,0c2.6,0,5,1.3,6.5,3.4l15.4,21.9l5-27.1c0.8-4.3,5-7.2,9.3-6.4c4.3,0.8,7.2,5,6.4,9.3
	l-8.4,45.9c-0.6,3.2-3,5.7-6.2,6.4c-3.1,0.7-6.4-0.6-8.3-3.2l-19.8-28.1l-19.1,28c-1.5,2.2-4,3.5-6.6,3.5c-0.6,0-1.1-0.1-1.7-0.2
	c-3.2-0.7-5.6-3.2-6.2-6.4L300,221.7z"></path>
<g>
	<path fill="#DB81DA" class="secondary-color" d="M497.8,395.6v102.6H396.4L497.8,395.6z M45.4,281.1V164.8H24v116.3H45.4z"></path>
	<path fill="#FFA4ED" class="primary-color" d="M24,360.2v-57.6h21.4v57.6H24z"></path>
</g>
<path d="M211.3,221.7l-8.4,45.9c-0.6,3.2-3,5.7-6.2,6.4c-0.6,0.1-1.1,0.2-1.7,0.2c-2.6,0-5-1.2-6.5-3.4l-19.8-28.1l-19.1,28
	c-1.8,2.7-5.1,4-8.3,3.3c-3.2-0.7-5.6-3.2-6.2-6.4l-8.4-45.9c-0.8-4.3,2.1-8.5,6.4-9.3c4.3-0.8,8.5,2.1,9.3,6.4l4.9,26.7l14.6-21.4
	c1.5-2.2,3.9-3.5,6.5-3.5c0,0,0,0,0.1,0c2.6,0,5,1.3,6.5,3.4l15.4,21.9l5-27.1c0.8-4.3,5-7.2,9.3-6.4
	C209.2,213.2,212.1,217.4,211.3,221.7z M95.4,140.9c4.4,0,8-3.6,8-8c0-11.4,9.3-20.8,20.8-20.8c4.4,0,8-3.6,8-8s-3.6-8-8-8
	c-20.3,0-36.8,16.5-36.8,36.8C87.4,137.3,91,140.9,95.4,140.9z M45.4,112.2c11.4,0,20.8,9.3,20.8,20.8c0,4.4,3.6,8,8,8s8-3.6,8-8
	c0-20.3-16.5-36.8-36.8-36.8c-4.4,0-8,3.6-8,8S41,112.2,45.4,112.2z M45.4,90.9c20.3,0,36.8-16.5,36.8-36.8c0-4.4-3.6-8-8-8
	s-8,3.6-8,8c0,11.4-9.3,20.8-20.8,20.8c-4.4,0-8,3.6-8,8S41,90.9,45.4,90.9z M124.1,90.9c4.4,0,8-3.6,8-8s-3.6-8-8-8
	c-11.4,0-20.8-9.3-20.8-20.8c0-4.4-3.6-8-8-8s-8,3.6-8,8C87.4,74.4,103.9,90.9,124.1,90.9z M484.2,248h-3.9v-3.9c0-4.4-3.6-8-8-8
	s-8,3.6-8,8v3.9h-3.9c-4.4,0-8,3.6-8,8s3.6,8,8,8h3.9v3.9c0,4.4,3.6,8,8,8s8-3.6,8-8V264h3.9c4.4,0,8-3.6,8-8S488.6,248,484.2,248z
	 M97.4,400.2c0-4.4-3.6-8-8-8H30.2c-4.4,0-8,3.6-8,8s3.6,8,8,8h59.2C93.8,408.2,97.4,404.6,97.4,400.2z M121.5,449H62.3
	c-4.4,0-8,3.6-8,8s3.6,8,8,8h59.2c4.4,0,8-3.6,8-8S125.9,449,121.5,449z M455.9,76.5c4.4,0,8-3.6,8-8s-3.6-8-8-8h-21.6V38.9
	c0-4.4-3.6-8-8-8s-8,3.6-8,8v21.6h-21.6c-4.4,0-8,3.6-8,8s3.6,8,8,8h21.6v21.6c0,4.4,3.6,8,8,8s8-3.6,8-8V76.5H455.9z M198.2,457.6
	c0,5.5-4.4,9.9-9.9,9.9c-5.5,0-9.9-4.4-9.9-9.9s4.4-9.9,9.9-9.9C193.8,447.7,198.2,452.1,198.2,457.6z M253.6,457.6
	c0,5.5-4.4,9.9-9.9,9.9c-5.5,0-9.9-4.4-9.9-9.9s4.4-9.9,9.9-9.9C249.1,447.7,253.6,452.1,253.6,457.6z M308.9,457.6
	c0,5.5-4.4,9.9-9.9,9.9c-5.5,0-9.9-4.4-9.9-9.9s4.4-9.9,9.9-9.9C304.5,447.7,308.9,452.1,308.9,457.6z"></path>
</svg>