<svg version="1.1" id="Layer_1" xmlns="http://www.w3.org/2000/svg" xmlns:xlink="http://www.w3.org/1999/xlink" x="0px" y="0px" viewBox="0 0 512 512" enable-background="new 0 0 512 512" xml:space="preserve">
<linearGradient id="SVGID_1_" gradientUnits="userSpaceOnUse" x1="286.9459" y1="434.6816" x2="286.9459" y2="86.538" class="gradient-element">
	<stop offset="0" class="primary-color-gradient" style="stop-color: #FFA4ED"></stop>
	<stop offset="1" class="secondary-color-gradient" style="stop-color: #DB81DA"></stop>
</linearGradient>
<path fill="url(#SVGID_1_)" d="M161.3,343l49,0c47.9,0,86.7-38.8,86.7-86.7v-94.8c0-59.9,29.4-93.5,76.2-56
	C415,139,442,190.1,443,247.7c1.7,104.7-84.4,190.8-189.1,189c-41.9-0.7-80.4-15.2-111.1-39.2C119.9,379.7,132.3,343,161.3,343z"></path>
<path fill="#FFA4ED" class="primary-color" d="M357.1,501.7v-21.8h145.9v21.8H357.1z"></path>
<path d="M465.2,370.8c-20.3,35.5-49.7,65.3-84.9,86.2c-36.3,21.5-77.8,32.8-120.2,32.8c-4.4,0-8-3.6-8-8s3.6-8,8-8
	c78.8,0,152-42.5,191.2-111c2.2-3.8,7.1-5.2,10.9-3C466,362.1,467.4,366.9,465.2,370.8z M100.7,89c1.9,0,3.8-0.7,5.3-2.1
	c40.5-36.4,92.7-56.5,147.2-56.5c4.4,0,8-3.6,8-8s-3.6-8-8-8C194.8,14.5,138.7,36,95.3,75c-3.3,3-3.6,8-0.6,11.3
	C96.3,88.1,98.5,89,100.7,89z M402.6,78.3c20.3,0,36.8-16.5,36.8-36.8c0-4.4-3.6-8-8-8s-8,3.6-8,8c0,11.4-9.3,20.8-20.8,20.8
	c-4.4,0-8,3.6-8,8S398.2,78.3,402.6,78.3z M481.4,78.3c4.4,0,8-3.6,8-8s-3.6-8-8-8c-11.4,0-20.8-9.3-20.8-20.8c0-4.4-3.6-8-8-8
	s-8,3.6-8,8C444.6,61.9,461.1,78.3,481.4,78.3z M481.4,83.6c-20.3,0-36.8,16.5-36.8,36.8c0,4.4,3.6,8,8,8s8-3.6,8-8
	c0-11.4,9.3-20.8,20.8-20.8c4.4,0,8-3.6,8-8S485.8,83.6,481.4,83.6z M402.6,99.6c11.4,0,20.8,9.3,20.8,20.8c0,4.4,3.6,8,8,8
	s8-3.6,8-8c0-20.3-16.5-36.8-36.8-36.8c-4.4,0-8,3.6-8,8S398.2,99.6,402.6,99.6z M129.1,105.9H71.7c-4.4,0-8,3.6-8,8s3.6,8,8,8h57.4
	c4.4,0,8-3.6,8-8S133.5,105.9,129.1,105.9z M88.2,157H30.8c-4.4,0-8,3.6-8,8s3.6,8,8,8h57.4c4.4,0,8-3.6,8-8S92.7,157,88.2,157z
	 M61.2,450.2c4.4,0,8-3.6,8-8s-3.6-8-8-8c-7.3,0-13.9,3-18.7,7.8c-4.8-4.8-11.4-7.8-18.7-7.8c-4.4,0-8,3.6-8,8s3.6,8,8,8
	c5.7,0,10.4,4.7,10.4,10.4S29.5,471,23.8,471c-4.4,0-8,3.6-8,8s3.6,8,8,8c7.3,0,13.9-3,18.7-7.8c4.8,4.8,11.4,7.8,18.7,7.8
	c4.4,0,8-3.6,8-8s-3.6-8-8-8c-5.7,0-10.4-4.7-10.4-10.4S55.5,450.2,61.2,450.2z"></path>
<path d="M256,56.6c-48,0-94.1,17.7-129.7,49.7c-3.3,3-3.6,8-0.6,11.3c3,3.3,8,3.6,11.3,0.6c19.5-17.5,42.4-30.4,67-37.9
	c-2.2,2.2-4.4,4.6-6.5,7.1c-12.1,14.5-22.1,33.8-29.6,57.1H99c-1.5,0-2.8,0.4-4,1.1c-1.7,0.6-3.3,1.7-4.3,3.4
	c-13.1,21.2-21.8,44.4-25.9,69c-0.7,4.4,2.2,8.5,6.6,9.2c0.5,0.1,0.9,0.1,1.3,0.1c3.8,0,7.2-2.8,7.9-6.7c3.6-21.3,11-41.5,21.9-60.1
	h60.9c-2.4,9.6-4.5,19.7-6.1,30.3c-2.6,16.8-4,34.2-4.4,51.7H71c-0.2,0-0.3,0-0.5,0c-0.2,0-0.3,0-0.5,0c-4.4,0-8,3.6-8,8
	c0,20.9,3.3,41.4,9.8,61.1c1.1,3.4,4.2,5.5,7.6,5.5c0.8,0,1.7-0.1,2.5-0.4c4.2-1.4,6.5-5.9,5.1-10.1c-5.1-15.5-8.1-31.6-8.8-48h74.7
	c0.4,18.8,2,37.6,5,55.5H154c-0.8,0-1.6,0.1-2.4,0.4c-0.7-0.2-1.5-0.4-2.4-0.4c-4.4,0-8,3.6-8,8v12.8H99c-0.8,0-1.6,0.1-2.3,0.3
	c-2-0.6-4.3-0.4-6.2,0.7c-3.8,2.2-5.2,7.1-3,10.9c16.7,29.2,40.8,53.6,69.7,70.8c29.8,17.7,63.9,27,98.8,27
	c56.1,0,102.7-19.6,138.5-58.2c3-3.2,2.8-8.3-0.4-11.3c-3.2-3-8.3-2.8-11.3,0.4c-21.4,23.1-47.1,38.7-76.7,46.7
	c12.6-11.9,23.3-28.7,31.9-49.9h22.6c4.4,0,8-3.6,8-8v-13.5H413c0.8,0,1.6-0.1,2.3-0.3c0.7,0.2,1.5,0.3,2.2,0.3c2.7,0,5.4-1.4,6.9-4
	c17.2-29.3,25.6-60.8,25.6-96.3C450,143.6,363,56.6,256,56.6z M358.6,242.6c-0.3-17.5-1.8-34.9-4.4-51.7
	c-1.6-10.6-3.7-20.7-6.1-30.3h61.4c14.3,24.3,23,52.2,24.3,82H358.6z M263.5,74.7c14.2,2,27.1,9.7,38.3,23.1
	c11.8,14.1,21.3,34.1,28.2,57.7l-21.1-21.1c-3.1-3.1-8.2-3.1-11.3,0l-34.1,34.1V74.7z M398.9,144.6h-54.8c-0.2,0-0.3,0-0.5,0
	c-7.4-23.3-17.4-42.7-29.6-57.2c-2.2-2.6-4.4-5-6.7-7.3C344.3,91.3,376.3,114.3,398.9,144.6z M209.7,97.8
	c11.1-13.2,23.8-20.9,37.8-23v94.9l-21.4-21.4c-3.1-3.1-8.2-3.1-11.3,0c-3.1,3.1-3.1,8.2,0,11.3l34.4,34.4c1.5,1.5,3.5,2.3,5.7,2.3
	c1.6,0,3.1-0.5,4.4-1.3c1.2-0.6,2.2-1.6,2.9-2.7l41-41l18.7,18.7l-42.7,42.7c-1.5,1.5-2.3,3.5-2.3,5.7s0.8,4.2,2.3,5.7l32,32
	c1.6,1.6,3.6,2.3,5.7,2.3s4.1-0.8,5.7-2.3c3.1-3.1,3.1-8.2,0-11.3l-26.3-26.3l39.6-39.6c8.4,41.4,9.5,90,1.6,135.3h-73.9v-45.8
	l34.1,34.1c1.5,1.5,3.5,2.3,5.7,2.3s4.2-0.8,5.7-2.3l30-30c3.1-3.1,3.1-8.2,0-11.3c-3.1-3.1-8.2-3.1-11.3,0l-24.3,24.3l-42.7-42.7
	c-1.5-1.5-3.5-2.3-5.7-2.3s-4.2,0.8-5.7,2.3l-42.7,42.7l-18.7-18.7l42.7-42.7c1.5-1.5,2.3-3.5,2.3-5.7s-0.8-4.2-2.3-5.7L187.8,170
	l24.3-24.3c3.1-3.1,3.1-8.2,0-11.3c-3.1-3.1-8.2-3.1-11.3,0L182.2,153C189,130.5,198.3,111.3,209.7,97.8z M175.4,180.2l38.1,38.1
	l-42.7,42.7c-0.9,0.9-1.5,1.9-1.9,3C168,235,170.3,206.2,175.4,180.2z M169.2,270.1c0.4,0.8,0.9,1.6,1.6,2.3l30,30
	c1.5,1.5,3.5,2.3,5.7,2.3s4.2-0.8,5.7-2.3l35.3-35.3v47.1h-73.4C171.6,299.6,170,284.8,169.2,270.1z M108.9,350.9h32.3v13.5
	c0,4.4,3.6,8,8,8h24.3c8.2,20.3,18.4,36.6,30.3,48.4C165.6,409,131.9,384.5,108.9,350.9z M247.5,426.5
	c-28.1-4.2-45.9-30.1-56.5-54.2h56.5V426.5z M263.5,426.6v-54.2h57C309.8,396.7,291.8,422.6,263.5,426.6z M352.5,356.3H157.3v-26.2
	h195.2V356.3z M412.9,334.9h-44.4v-12.8c0-4.4-3.6-8-8-8h-6.9c3-17.9,4.6-36.6,5-55.5h75.2C432.7,286.4,425.8,311.4,412.9,334.9z"></path>
</svg>