<svg version="1.1" id="Layer_1" xmlns="http://www.w3.org/2000/svg" xmlns:xlink="http://www.w3.org/1999/xlink" x="0px" y="0px" viewBox="0 0 512 512" enable-background="new 0 0 512 512" xml:space="preserve">
<linearGradient id="SVGID_1_" gradientUnits="userSpaceOnUse" x1="221.4362" y1="393.3199" x2="202.9831" y2="83.307" class="gradient-element">
	<stop offset="0" class="primary-color-gradient" style="stop-color: #FFA4ED"></stop>
	<stop offset="1" class="secondary-color-gradient" style="stop-color: #DB81DA"></stop>
</linearGradient>
<path fill="url(#SVGID_1_)" d="M219,328H55V71h58v163c0,6.6,4,67,68,67h64L219,328z M361.3,297.1c-9.5-8.1-23.6-7.8-32.7,0.8
	L139,476.8l8.1,8.1c27.2-38.8,81.7-40.9,81.7-40.9l150.4-131.6L361.3,297.1z"></path>
<path fill="#DB81DA" class="secondary-color" d="M63.7,398.5v36h-36v-36H63.7z M82.8,488.6h36v-36h-36V488.6z M27.5,488.6h36v-36h-36V488.6z"></path>
<path d="M397.2,127.1c-34.2-0.8-64.6,16.3-82.2,42.7V71c0-4.4-3.6-8-8-8H55c-4.4,0-8,3.6-8,8v257c0,4.4,3.6,8,8,8h83.6
	c4.3,0,8-3.2,8.3-7.5c0.3-4.7-3.4-8.5-8-8.5H63V150h236v66.1c-0.2,2.4-0.3,4.8-0.3,7.2c0,3.2,0.2,6.5,0.6,10l-16.6,15l-28.7,0.2
	c-4.3,0-7.9,3.3-8.2,7.5c-0.3,4.7,3.4,8.5,8,8.5c0,0,0,0,0.1,0l32-0.2c2,0,3.9-0.8,5.3-2.1l15-13.6l50.4,46.7
	c0.6,0.6,1.3,1.1,2.1,1.4c0,0,0,0,0,0c0.8,0.4,1.7,0.6,2.6,0.7c3.1,0.3,30.7,2.5,33.6,2.5c16.6,0,32.4-5.2,45.7-15.2
	c1.1-0.9,2.1-2,2.7-3.3c1.4-3.1,0.6-6.6-1.7-8.9l-68.2-68.2l2.5-2.5l68.2,68.2c3.1,3.1,8.2,3.1,11.3,0c3.1-3.1,3.1-8.2,0-11.3
	l-73.9-73.9c-3.1-3.1-8.2-3.1-11.3,0l-13.7,13.7c-0.8,0.8-1.5,1.7-1.9,2.7c-1.3,3.1-0.5,6.5,1.7,8.7l66.8,66.8
	c-8.7,4.6-18.3,7.1-28.3,7.1c-2.1,0-22-1.6-29.4-2.2l-49.8-46.1l-0.1-0.4c0,0,0,0,0,0l0,0c-0.5-3.4-0.8-6.5-0.9-9.4
	c0.1-0.6,0.2-1.2,0.2-1.8v-7c3.3-42.5,39.9-75.9,83.7-73.8c40.9,1.9,74.1,34.8,76.3,75.7c2.5,46.2-34.4,84.6-80.1,84.6
	c-2.4,0-4.9-0.1-7.5-0.4c-2.3-0.2-4.5,0.5-6.2,2L229,440.6h-0.7c-35,0-54.3,7.6-81.2,33.1l-2.7-2.7c25.5-26.9,33.1-46.2,33.1-81.2
	v-0.7l85.6-96.1c2.9-3.3,2.6-8.4-0.7-11.3c-3.3-2.9-8.4-2.6-11.3,0.7l-87.7,98.4c-1.3,1.5-2,3.4-2,5.3v3.7c0,33.1-7,48.6-34,75.6
	c-3.1,3.1-3.1,8.2,0,11.3l13.9,13.9c1.6,1.6,3.6,2.3,5.7,2.3s4.1-0.8,5.7-2.3c27-27,42.5-34,75.6-34h3.7c2,0,3.9-0.7,5.3-2
	l151.9-135.3c1.9,0.1,3.7,0.2,5.6,0.2c54.3,0,98.2-45.2,96.1-100C489.1,169,447.7,128.4,397.2,127.1z M299,134H63V79h236V134z
	 M90.5,121.9c10.1,1.3,18.7-7.3,17.4-17.4c-0.9-6.9-6.4-12.5-13.4-13.4c-10.1-1.3-18.7,7.3-17.4,17.4C78,115.4,83.6,121,90.5,121.9z
	 M92.5,106c0.3,0,0.5,0.2,0.5,0.5s-0.2,0.5-0.5,0.5s-0.5-0.2-0.5-0.5S92.2,106,92.5,106z M143.5,121.9c10.1,1.3,18.7-7.3,17.4-17.4
	c-0.9-6.9-6.4-12.5-13.4-13.4c-10.1-1.3-18.7,7.3-17.4,17.4C131,115.4,136.6,121,143.5,121.9z M145.5,106c0.3,0,0.5,0.2,0.5,0.5
	s-0.2,0.5-0.5,0.5s-0.5-0.2-0.5-0.5S145.2,106,145.5,106z M209.5,121.9c10.1,1.3,18.7-7.3,17.4-17.4c-0.9-6.9-6.4-12.5-13.4-13.4
	c-10.1-1.3-18.7,7.3-17.4,17.4C197,115.4,202.6,121,209.5,121.9z M211.5,106c0.3,0,0.5,0.2,0.5,0.5s-0.2,0.5-0.5,0.5
	s-0.5-0.2-0.5-0.5S211.2,106,211.5,106z M262.5,121.9c10.1,1.3,18.7-7.3,17.4-17.4c-0.9-6.9-6.4-12.5-13.4-13.4
	c-10.1-1.3-18.7,7.3-17.4,17.4C250,115.4,255.6,121,262.5,121.9z M264.5,106c0.3,0,0.5,0.2,0.5,0.5s-0.2,0.5-0.5,0.5
	s-0.5-0.2-0.5-0.5S264.2,106,264.5,106z M180.5,309c-41.1,0-74.5-33.4-74.5-74.5c0-41.1,33.4-74.5,74.5-74.5
	c41.1,0,74.5,33.4,74.5,74.5c0,4.4-3.6,8-8,8s-8-3.6-8-8c0-32.3-26.2-58.5-58.5-58.5S122,202.2,122,234.5s26.2,58.5,58.5,58.5
	c4.4,0,8,3.6,8,8S184.9,309,180.5,309z"></path>
<path d="M507,337.2c0,4.4-3.6,8-8,8h-1.6v1.6c0,4.4-3.6,8-8,8s-8-3.6-8-8v-1.6h-1.6c-4.4,0-8-3.6-8-8s3.6-8,8-8h1.6v-1.6
	c0-4.4,3.6-8,8-8s8,3.6,8,8v1.6h1.6C503.4,329.2,507,332.8,507,337.2z M374,436h-34.8c-4.4,0-8,3.6-8,8s3.6,8,8,8H374
	c4.4,0,8-3.6,8-8S378.5,436,374,436z M437.8,405.9h-93.2c-4.4,0-8,3.6-8,8s3.6,8,8,8h93.2c4.4,0,8-3.6,8-8S442.2,405.9,437.8,405.9z
	 M45.4,27.5h-1.6v-1.6c0-4.4-3.6-8-8-8s-8,3.6-8,8v1.6h-1.6c-4.4,0-8,3.6-8,8s3.6,8,8,8h1.6v1.6c0,4.4,3.6,8,8,8s8-3.6,8-8v-1.6h1.6
	c4.4,0,8-3.6,8-8S49.8,27.5,45.4,27.5z M436.9,120c-3.4,3.4-3.4,8.9,0,12.3c3.4,3.4,8.9,3.4,12.3,0c3.4-3.4,3.4-8.9,0-12.3
	C445.8,116.6,440.3,116.6,436.9,120z M411.2,50.1c17.2,0,31.3-14,31.3-31.3c0-4.4-3.6-8-8-8s-8,3.6-8,8c0,8.4-6.8,15.3-15.3,15.3
	c-4.4,0-8,3.6-8,8S406.8,50.1,411.2,50.1z M474.9,50.1c4.4,0,8-3.6,8-8s-3.6-8-8-8c-8.4,0-15.3-6.8-15.3-15.3c0-4.4-3.6-8-8-8
	s-8,3.6-8,8C443.6,36,457.6,50.1,474.9,50.1z M482.9,59.2c0-4.4-3.6-8-8-8c-17.2,0-31.3,14-31.3,31.3c0,4.4,3.6,8,8,8s8-3.6,8-8
	c0-8.4,6.8-15.3,15.3-15.3C479.3,67.2,482.9,63.7,482.9,59.2z M411.2,67.2c8.4,0,15.3,6.8,15.3,15.3c0,4.4,3.6,8,8,8s8-3.6,8-8
	c0-17.2-14-31.3-31.3-31.3c-4.4,0-8,3.6-8,8S406.8,67.2,411.2,67.2z M303.9,279.7h-75.2c-4.4,0-8,3.6-8,8s3.6,8,8,8h75.2
	c4.4,0,8-3.6,8-8S308.3,279.7,303.9,279.7z M359.8,94c4.4,0,8-3.6,8-8s-3.6-8-8-8c-3.8,0-6.9-3.1-6.9-6.9s3.1-6.9,6.9-6.9
	c4.4,0,8-3.6,8-8s-3.6-8-8-8c-12.6,0-22.9,10.3-22.9,22.9S347.2,94,359.8,94z M237,45c0-4.4-3.6-8-8-8H125c-4.4,0-8,3.6-8,8
	s3.6,8,8,8h104C233.4,53,237,49.4,237,45z"></path>
</svg>