<svg version="1.1" id="Layer_1" xmlns="http://www.w3.org/2000/svg" xmlns:xlink="http://www.w3.org/1999/xlink" x="0px" y="0px" viewBox="0 0 512 512" enable-background="new 0 0 512 512" xml:space="preserve">
<linearGradient id="SVGID_1_" gradientUnits="userSpaceOnUse" x1="121.5125" y1="263.6801" x2="455.1325" y2="263.6801" class="gradient-element">
	<stop offset="0" class="primary-color-gradient" style="stop-color: #FFA4ED"></stop>
	<stop offset="1" class="secondary-color-gradient" style="stop-color: #DB81DA"></stop>
</linearGradient>
<path fill="url(#SVGID_1_)" d="M455.1,200.9c0,65-52.8,117.8-117.8,117.8c-7.8,0-15.4-0.8-22.9-2.3l-41.8,41.5h-33.5v39.3H200v39.2
	h-78.5v-21l0,0h19.2c5.6,0,10.1-4.5,10.1-10.1v-19.1c0-5.6,4.5-10.1,10.1-10.1h19.1c5.6,0,10.1-4.5,10.1-10.1v-12.8
	c0-9,7.3-16.4,16.4-16.4h12.9c2.7,0,5.2-1.1,7.1-2.9l23.2-23.1c9.1-9,21.4-13.8,34.2-13.3c1.4,0.1,2.9,0.1,4.3,0.1
	c65,0,117.7-52.8,117.7-117.7c0-30.7-11.8-58.7-31.1-79.7c-3.9-4.3,0.7-10.9,6.1-8.7C424.3,108.7,455.1,151.3,455.1,200.9z"></path>
<path d="M200,444.4h-78.5c-4.4,0-8-3.6-8-8v-36.7c0-4.4,3.6-8,8-8s8,3.6,8,8v28.7H192v-31.2c0-4.4,3.6-8,8-8h31.2v-31.2
	c0-4.4,3.6-8,8-8h30.2l39.5-39.2c1.9-1.9,4.6-2.7,7.2-2.2c7.1,1.4,14.2,2.1,21.3,2.1c60.5,0,109.7-49.2,109.7-109.7
	c0-60.5-49.2-109.7-109.7-109.7s-109.7,49.2-109.7,109.7c0,12.4,2,24.5,6,35.9c1,2.9,0.3,6.1-1.9,8.3L89.4,387.5
	c-3.1,3.1-8.2,3.1-11.3,0c-3.1-3.1-3.1-8.2,0-11.3L217,237.2c-3.6-11.7-5.4-23.9-5.4-36.4c0-69.3,56.4-125.7,125.7-125.7
	s125.7,56.4,125.7,125.7c0,69.3-56.4,125.7-125.7,125.7c-6.7,0-13.5-0.6-20.2-1.6l-38.8,38.6c-1.5,1.5-3.5,2.3-5.6,2.3h-25.5v31.2
	c0,4.4-3.6,8-8,8H208v31.2C208,440.8,204.4,444.4,200,444.4z M347.2,238.3c-4.4,0-8-3.6-8-8s3.6-8,8-8c22.6,0,41.1-18.4,41.1-41.1
	c0-22.6-18.4-41.1-41.1-41.1s-41.1,18.4-41.1,41.1c0,4.4-3.6,8-8,8s-8-3.6-8-8c0-31.5,25.6-57.1,57.1-57.1s57.1,25.6,57.1,57.1
	C404.3,212.7,378.7,238.3,347.2,238.3z M347,208.3c-14.9,0-27-12.1-27-27s12.1-27,27-27c4.4,0,8,3.6,8,8s-3.6,8-8,8
	c-6.1,0-11,4.9-11,11c0,6.1,4.9,11,11,11c4.4,0,8,3.6,8,8S351.4,208.3,347,208.3z M145.4,373.9L250,269.3c3.1-3.1,3.1-8.2,0-11.3
	c-3.1-3.1-8.2-3.1-11.3,0L134.1,362.6c-3.1,3.1-3.1,8.2,0,11.3c1.6,1.6,3.6,2.3,5.7,2.3C141.8,376.3,143.9,375.5,145.4,373.9z"></path>
<path d="M52.3,60.2h-3.9v3.9c0,4.4-3.6,8-8,8s-8-3.6-8-8v-3.9h-3.9c-4.4,0-8-3.6-8-8s3.6-8,8-8h3.9v-3.9c0-4.4,3.6-8,8-8s8,3.6,8,8
	v3.9h3.9c4.4,0,8,3.6,8,8S56.7,60.2,52.3,60.2z M107.5,473.5h-43c-4.4,0-8,3.6-8,8s3.6,8,8,8h43c4.4,0,8-3.6,8-8
	S111.9,473.5,107.5,473.5z M473.6,388.4H394c-4.4,0-8,3.6-8,8s3.6,8,8,8h79.5c4.4,0,8-3.6,8-8S478,388.4,473.6,388.4z M152.8,154.9
	L79,228.7c-3.1,3.1-3.1,8.2,0,11.3c1.6,1.6,3.6,2.3,5.7,2.3c2,0,4.1-0.8,5.7-2.3l73.8-73.8c3.1-3.1,3.1-8.2,0-11.3
	C160.9,151.8,155.9,151.8,152.8,154.9z"></path>
</svg>