<svg version="1.1" id="Layer_1" xmlns="http://www.w3.org/2000/svg" xmlns:xlink="http://www.w3.org/1999/xlink" x="0px" y="0px" viewBox="0 0 512 512" enable-background="new 0 0 512 512" xml:space="preserve">
<linearGradient id="SVGID_1_" gradientUnits="userSpaceOnUse" x1="275.861" y1="426.0468" x2="275.861" y2="99.4936" class="gradient-element">
	<stop offset="0" class="primary-color-gradient" style="stop-color: #FFA4ED"></stop>
	<stop offset="1" class="secondary-color-gradient" style="stop-color: #DB81DA"></stop>
</linearGradient>
<path fill="url(#SVGID_1_)" d="M334.9,343.4l-6.7,26.7l57.8,57.8c-11.9,6.5-25.6,10.3-40.2,10.3c-46.2,0-83.9-37.6-83.9-83.9
	c0-0.1,0-0.1,0-0.2c0-8.3,7.6-14.3,15.8-12.9c8.9,1.6,19.1-3,22.4-20.8c0,0,0-0.1,0-0.1c0.9-5.3-0.8-10.7-4.6-14.5l-15.8-15.8
	l-26.7-26.7l-26.7-26.7l-36.2-37.4c-10.6-11-14.8-26.7-11.1-41.5l0.7-2.9L122,97c11.9-6.5,25.6-10.3,40.2-10.3
	c46.2,0,83.9,37.6,83.9,83.9c0,0-0.9,11-6.7,22.2l42.2,42.2l42.2,42.2c11.1-5.9,22.2-6.7,22.2-6.7c46.2,0,83.9,37.6,83.9,83.9
	c0,14.6-3.7,28.3-10.3,40.2l-57.8-57.8L334.9,343.4z"></path>
<path d="M318.2,278.2l-65.9-65.9l-17.5-17.5c-2-2-2.8-4.9-2.1-7.7c1.7-6.5,2.6-13,2.6-19.2c0-41.8-34-75.9-75.9-75.9
	c-9,0-18,1.6-26.4,4.7l49.7,49.7c2,2,2.8,4.9,2.1,7.6l-6.7,26.7c-0.7,2.9-3,5.1-5.8,5.8l-26.7,6.7c-2.7,0.7-5.6-0.1-7.6-2.1
	l-49.7-49.7c-3.1,8.4-4.7,17.4-4.7,26.4c0,41.8,34,75.9,75.9,75.9c4.4,0,8,3.6,8,8s-3.6,8-8,8c-50.6,0-91.9-41.2-91.9-91.9
	c0-15.4,3.9-30.6,11.2-44c1.2-2.2,3.4-3.7,5.9-4.1c2.5-0.4,5,0.5,6.8,2.3l54.6,54.6l17.7-4.4l4.4-17.7L113.7,100
	c-1.8-1.8-2.6-4.3-2.3-6.8c0.4-2.5,1.9-4.7,4.1-5.9c13.4-7.4,28.7-11.2,44-11.2c50.6,0,91.9,41.2,91.9,91.9c0,6.2-0.7,12.5-2,18.8
	l80.2,80.2c3.1,3.1,3.1,8.2,0,11.3c-1.6,1.6-3.6,2.3-5.7,2.3C321.8,280.6,319.8,279.8,318.2,278.2z M345.9,262.5c-4.4,0-8,3.6-8,8
	s3.6,8,8,8c41.8,0,75.9,34,75.9,75.9c0,9-1.6,18-4.7,26.4L367.3,331c-2-2-4.9-2.8-7.6-2.1l-26.7,6.7c-2.9,0.7-5.1,3-5.8,5.8
	l-6.7,26.7c-0.7,2.7,0.1,5.6,2.1,7.6l49.7,49.7c-8.4,3.1-17.4,4.7-26.4,4.7c-41.8,0-75.9-34-75.9-75.9c0-4.4-3.6-8-8-8s-8,3.6-8,8
	c0,50.6,41.2,91.9,91.9,91.9c15.4,0,30.6-3.9,44-11.2c2.2-1.2,3.7-3.4,4.1-5.9s-0.5-5-2.3-6.8l-54.6-54.6l4.4-17.7l17.7-4.4
	l54.6,54.6c1.8,1.8,4.3,2.6,6.8,2.3c2.5-0.4,4.7-1.9,5.9-4.1c7.4-13.4,11.2-28.7,11.2-44C437.7,303.7,396.5,262.5,345.9,262.5z
	 M185,246.2c-3.1-3.1-8.2-3.1-11.3,0c-3.1,3.1-3.1,8.2,0,11.3l39.5,39.5c1.6,1.6,3.6,2.3,5.7,2.3s4.1-0.8,5.7-2.3
	c3.1-3.1,3.1-8.2,0-11.3L185,246.2z"></path>
<path fill="#FFA4ED" class="primary-color" d="M288.4,59.1V23.3h195.1v35.8H288.4z"></path>
<path fill="#DB81DA" class="secondary-color" d="M284.3,120.8V81.5h203.3v39.3H284.3z"></path>
<path d="M480.4,211.9c0,4.4-3.6,8-8,8h-15.8v15.8c0,4.4-3.6,8-8,8s-8-3.6-8-8v-15.8h-15.8c-4.4,0-8-3.6-8-8s3.6-8,8-8h15.8v-15.8
	c0-4.4,3.6-8,8-8s8,3.6,8,8v15.8h15.8C476.8,203.9,480.4,207.5,480.4,211.9z M80,356.6c-4.4,0-8,3.6-8,8c0,11.4-9.3,20.8-20.8,20.8
	c-4.4,0-8,3.6-8,8s3.6,8,8,8c20.3,0,36.8-16.5,36.8-36.8C88,360.2,84.5,356.6,80,356.6z M130,385.4c-11.4,0-20.8-9.3-20.8-20.8
	c0-4.4-3.6-8-8-8s-8,3.6-8,8c0,20.3,16.5,36.8,36.8,36.8c4.4,0,8-3.6,8-8S134.5,385.4,130,385.4z M130,406.6
	c-20.3,0-36.8,16.5-36.8,36.8c0,4.4,3.6,8,8,8s8-3.6,8-8c0-11.4,9.3-20.8,20.8-20.8c4.4,0,8-3.6,8-8S134.5,406.6,130,406.6z
	 M51.3,406.6c-4.4,0-8,3.6-8,8s3.6,8,8,8c11.4,0,20.8,9.3,20.8,20.8c0,4.4,3.6,8,8,8s8-3.6,8-8C88,423.1,71.6,406.6,51.3,406.6z
	 M455.2,437.2h-3.9v-3.9c0-4.4-3.6-8-8-8s-8,3.6-8,8v3.9h-3.9c-4.4,0-8,3.6-8,8s3.6,8,8,8h3.9v3.9c0,4.4,3.6,8,8,8s8-3.6,8-8v-3.9
	h3.9c4.4,0,8-3.6,8-8S459.6,437.2,455.2,437.2z M54.6,279.5v-3.9h3.9c4.4,0,8-3.6,8-8s-3.6-8-8-8h-3.9v-3.9c0-4.4-3.6-8-8-8
	s-8,3.6-8,8v3.9h-3.9c-4.4,0-8,3.6-8,8s3.6,8,8,8h3.9v3.9c0,4.4,3.6,8,8,8S54.6,283.9,54.6,279.5z M265.3,324.2h-59.2
	c-4.4,0-8,3.6-8,8s3.6,8,8,8h59.2c4.4,0,8-3.6,8-8S269.7,324.2,265.3,324.2z M108.1,300.2h127.3c4.4,0,8-3.6,8-8s-3.6-8-8-8H108.1
	c-4.4,0-8,3.6-8,8S103.6,300.2,108.1,300.2z M41.5,49.2h19.7c4.4,0,8-3.6,8-8s-3.6-8-8-8H41.5c-4.4,0-8,3.6-8,8S37,49.2,41.5,49.2z"></path>
</svg>