<svg version="1.1" id="Layer_1" xmlns="http://www.w3.org/2000/svg" xmlns:xlink="http://www.w3.org/1999/xlink" x="0px" y="0px" viewBox="0 0 512 512" enable-background="new 0 0 512 512" xml:space="preserve">
<g>
	<path fill="#DB81DA" class="secondary-color" d="M68.7,388.8H33.4v-22.5h35.2V388.8z M33.4,457.8v22.5h77.3v-22.5H33.4z"></path>
	<path fill="#DB81DA" class="secondary-color" d="M152.7,35.1L32.2,155.5V35.1H152.7z M33.4,342.7h35.2v-21.6H33.4V342.7z M33.4,434.1h77.3v-21.6H33.4V434.1
		z"></path>
</g>
<path d="M302.1,425c0,4.4-3.6,8-8,8h-43c-4.4,0-8-3.6-8-8s3.6-8,8-8h43C298.6,417,302.1,420.6,302.1,425z M234.7,451.6h-59.3
	c-4.4,0-8,3.6-8,8s3.6,8,8,8h59.3c4.4,0,8-3.6,8-8S239.1,451.6,234.7,451.6z M487.5,70.9h-15.8V55.2c0-4.4-3.6-8-8-8s-8,3.6-8,8
	v15.8H440c-4.4,0-8,3.6-8,8s3.6,8,8,8h15.8v15.8c0,4.4,3.6,8,8,8s8-3.6,8-8V86.9h15.8c4.4,0,8-3.6,8-8S491.9,70.9,487.5,70.9z
	 M447.7,434.3c-4.4,0-8,3.6-8,8c0,5.7-4.7,10.4-10.4,10.4s-10.4-4.7-10.4-10.4c0-4.4-3.6-8-8-8s-8,3.6-8,8
	c0,14.6,11.8,26.4,26.4,26.4s26.4-11.8,26.4-26.4C455.7,437.9,452.1,434.3,447.7,434.3z"></path>
<linearGradient id="SVGID_1_" gradientUnits="userSpaceOnUse" x1="277.8172" y1="381.339" x2="277.8172" y2="141.8442" class="gradient-element">
	<stop offset="0" class="primary-color-gradient" style="stop-color: #FFA4ED"></stop>
	<stop offset="1" class="secondary-color-gradient" style="stop-color: #DB81DA"></stop>
</linearGradient>
<path fill="url(#SVGID_1_)" d="M372.2,210.5c-8.1-11.8-16.5-24-25.7-35.3c-7.9-9.5-10.9-9.5-15-9.5c-4.8,0-9.3,1.5-16.8,4.1
	c-9.6,3.3-21.5,7.4-36.7,7.4s-27.2-4.1-36.7-7.4c-7.5-2.6-12-4.1-16.8-4.1c-4.2,0-7.2,0-15,9.5c-9.2,11.2-17.6,23.4-25.7,35.3
	c-19.1,27.8-37.3,54.3-64.5,61.1c18.1,22.9,42,48.1,52.2,58.2c23.8,23.8,42.6,42.6,106.7,42.6c64.1,0,82.9-18.8,106.7-42.6
	c10.1-10.1,34.1-35.4,52.2-58.2C409.5,264.9,391.3,238.4,372.2,210.5z M405.9,279.7c0.7-0.1,1.4-0.2,2.2-0.2
	C407.3,279.5,406.6,279.6,405.9,279.7z"></path>
<path d="M97.2,227.4c0-4.4,3.6-8,8-8c0.1,0,3.7-0.1,12.8-10.7c6.6-7.8,13.9-18.4,21-28.7c8.4-12.2,17.8-26,28.6-39
	c16.6-20.2,34.1-29.2,56.7-29.2c14.1,0,25.4,3.9,34.4,7c7.3,2.5,13,4.5,19.2,4.5s11.9-2,19.2-4.5c9-3.1,20.3-7,34.4-7
	c22.6,0,40.1,9,56.7,29.2c10.6,12.9,20,26.6,28.3,38.7l0.2,0.3c7.1,10.3,14.4,21,21,28.7c9.1,10.6,12.7,10.7,12.8,10.7
	c4.4,0,8,3.6,8,8s-3.6,8-8,8c-14.2,0-27.2-17.5-47-46.3l-0.3-0.4c-8.1-11.8-17.3-25.2-27.5-37.6c-13.7-16.6-26.5-23.4-44.3-23.4
	c-11.4,0-20.5,3.1-29.2,6.1c-8,2.8-15.5,5.4-24.4,5.4s-16.4-2.6-24.4-5.4c-8.7-3-17.8-6.1-29.2-6.1c-17.8,0-30.7,6.8-44.3,23.4
	c-10.3,12.5-19.6,26-27.7,37.9c-19.8,28.8-32.8,46.4-47,46.4C100.7,235.4,97.2,231.9,97.2,227.4z M501.3,222.7
	c-3.1-3.1-8.2-3.1-11.3,0c-1,1-2,2-3.2,3.1c-34.4,33.7-60.7,46.8-93.8,46.8c-29.7,0-54.4-9.3-80.3-30.2c-2.5-2-5.9-2.3-8.8-0.8
	c-9.8,5.2-19,8-26.1,8c-7,0-16.3-2.9-26.1-8c-2.8-1.5-6.3-1.2-8.8,0.8c-25.8,20.9-50.6,30.2-80.3,30.2c-33.1,0-59.4-13.1-93.8-46.8
	c-3.2-3.1-8.2-3-11.3,0.1c-3.1,3.2-3,8.2,0.1,11.3c37.3,36.5,67.7,51.3,105,51.3c31.5,0,59.1-9.7,86.3-30.5
	c8.1,3.8,18.7,7.5,28.9,7.5c10.2,0,20.7-3.7,28.9-7.5c27.2,20.8,54.7,30.5,86.3,30.5c37.3,0,67.7-14.9,105-51.3
	c1.2-1.1,2.3-2.2,3.3-3.3C504.4,230.8,504.4,225.8,501.3,222.7z M378.9,324.2c-23.4,23.4-40.2,40.2-101.1,40.2
	c-60.8,0-77.7-16.9-101.1-40.2c-3.1-3.1-8.2-3.1-11.3,0c-3.1,3.1-3.1,8.2,0,11.3c24.1,24.1,44.9,44.9,112.4,44.9
	c67.5,0,88.3-20.8,112.4-44.9c3.1-3.1,3.1-8.2,0-11.3C387.1,321.1,382,321.1,378.9,324.2z"></path>
</svg>