<svg version="1.1" id="Layer_1" xmlns="http://www.w3.org/2000/svg" xmlns:xlink="http://www.w3.org/1999/xlink" x="0px" y="0px" viewBox="0 0 512 512" enable-background="new 0 0 512 512" xml:space="preserve">
<linearGradient id="SVGID_1_" gradientUnits="userSpaceOnUse" x1="160.5123" y1="483.0641" x2="160.5123" y2="135.1591" class="gradient-element">
	<stop offset="0" class="primary-color-gradient" style="stop-color: #FFA4ED"></stop>
	<stop offset="1" class="secondary-color-gradient" style="stop-color: #DB81DA"></stop>
</linearGradient>
<path fill="url(#SVGID_1_)" d="M280.1,274h-88.3H41c-7.5,0-12.4-8-9-14.7l8.4-16.4c1.7-3.4,5.2-5.5,9-5.5h132.3
	c5.6,0,10.1-4.5,10.1-10.1V120.2c0-5.6,4.5-10.1,10.1-10.1h14.3c4,0,7.6,2.4,9.2,6l63.9,143.7C292.2,266.5,287.4,274,280.1,274z
	 M181.9,320.4c-3.4-1.7-5.5-5.2-5.5-9v-12.8v-14.4c0-5.6-4.5-10.1-10.1-10.1s-10.1,4.5-10.1,10.1V477c0,5.6,4.5,10.1,10.1,10.1h18.7
	c5.1,0,9.4-3.8,10-8.8c6.1-47.7,14.1-111,14.1-114.1C209.2,344.9,198.1,328.4,181.9,320.4z"></path>
<g>
	<path fill="#FFA4ED" class="primary-color" d="M449.9,28.2h16.4v16.4h-16.4V28.2z"></path>
	<path fill="#DB81DA" class="secondary-color" d="M471.9,459.7h16.4v16.4h-16.4V459.7z M440,249.6v49h43v-49H440z"></path>
	<path fill="#FFA4ED" class="primary-color" d="M480.9,28.2h16.4v114.4h-16.4V28.2z M440.8,317.2v44.6h41.3v-44.6H440.8z M482.1,427.2v-44.6h-41.3v44.6
		H482.1z"></path>
</g>
<path d="M453.5,169.4v-15.8c0-4.4,3.6-8,8-8s8,3.6,8,8v15.8h15.8c4.4,0,8,3.6,8,8s-3.6,8-8,8h-15.8v15.8c0,4.4-3.6,8-8,8s-8-3.6-8-8
	v-15.8h-15.8c-4.4,0-8-3.6-8-8s3.6-8,8-8H453.5z M394.9,300.3c0-4.4-3.6-8-8-8H285.8c-4.4,0-8,3.6-8,8s3.6,8,8,8h101.1
	C391.4,308.3,394.9,304.8,394.9,300.3z M93.7,363.5h-3.9v-3.9c0-4.4-3.6-8-8-8s-8,3.6-8,8v3.9H70c-4.4,0-8,3.6-8,8s3.6,8,8,8h3.9
	v3.9c0,4.4,3.6,8,8,8s8-3.6,8-8v-3.9h3.9c4.4,0,8-3.6,8-8S98.1,363.5,93.7,363.5z M253.7,36.1h-43c-4.4,0-8,3.6-8,8s3.6,8,8,8h43
	c4.4,0,8-3.6,8-8S258.2,36.1,253.7,36.1z M408.9,126.3c4.4,0,8-3.6,8-8c0-11.4,9.3-20.8,20.8-20.8c4.4,0,8-3.6,8-8s-3.6-8-8-8
	c-20.3,0-36.8,16.5-36.8,36.8C400.9,122.7,404.5,126.3,408.9,126.3z M358.9,97.6c11.4,0,20.8,9.3,20.8,20.8c0,4.4,3.6,8,8,8
	s8-3.6,8-8c0-20.3-16.5-36.8-36.8-36.8c-4.4,0-8,3.6-8,8S354.5,97.6,358.9,97.6z M358.9,76.3c20.3,0,36.8-16.5,36.8-36.8
	c0-4.4-3.6-8-8-8s-8,3.6-8,8c0,11.4-9.3,20.8-20.8,20.8c-4.4,0-8,3.6-8,8S354.5,76.3,358.9,76.3z M437.7,76.3c4.4,0,8-3.6,8-8
	s-3.6-8-8-8c-11.4,0-20.8-9.3-20.8-20.8c0-4.4-3.6-8-8-8s-8,3.6-8,8C400.9,59.8,417.4,76.3,437.7,76.3z M57.3,44.1
	c0,5.5-4.4,9.9-9.9,9.9s-9.9-4.4-9.9-9.9s4.4-9.9,9.9-9.9S57.3,38.6,57.3,44.1z M112.7,44.1c0,5.5-4.4,9.9-9.9,9.9s-9.9-4.4-9.9-9.9
	s4.4-9.9,9.9-9.9S112.7,38.6,112.7,44.1z M168,44.1c0,5.5-4.4,9.9-9.9,9.9s-9.9-4.4-9.9-9.9s4.4-9.9,9.9-9.9S168,38.6,168,44.1z
	 M483,449.2h-43c-4.4,0-8,3.6-8,8s3.6,8,8,8h43c4.4,0,8-3.6,8-8S487.4,449.2,483,449.2z M455.4,479.2h-93c-4.4,0-8,3.6-8,8
	s3.6,8,8,8h93c4.4,0,8-3.6,8-8S459.8,479.2,455.4,479.2z"></path>
<path d="M160,479.1h-27c-8.8-65.8-14.2-109.6-14.2-114.9c0-17.2,11-32.8,27.5-38.6c3.2-1.1,5.3-4.2,5.3-7.5v-36H227l0,74
	c0,4.4,3.6,8,8,8s8-3.6,8-8l0-74h52.6c2.7,0,5.2-1.4,6.7-3.6s1.7-5.1,0.6-7.6l-72.9-163.9c-1.3-2.9-4.1-4.8-7.3-4.8H97.3
	c-3.2,0-6,1.9-7.3,4.8L17.2,270.8c-1.1,2.5-0.9,5.3,0.6,7.6s4,3.6,6.7,3.6h111.2v30.7c-19.8,9.4-32.8,29.4-32.8,51.5
	c0,8.2,8.3,72,15.3,124c0.5,4,3.9,6.9,7.9,6.9h34c4.4,0,8-3.6,8-8S164.5,479.1,160,479.1z M36.8,266l65.7-147.9h115L283.3,266H36.8z
	 M332.8,487.1c0,4.4-3.6,8-8,8H193.9c-2.3,0-4.5-1-6-2.7c-1.5-1.7-2.2-4-1.9-6.3c13.3-103.5,15.1-119.9,15.2-122.1
	c-0.1-17.2-11.1-32.6-27.5-38.5c-3.2-1.1-5.3-4.2-5.3-7.5v-19.4c0-4.4,3.6-8,8-8c4.4,0,8,3.6,8,8v14.1c19.8,9.4,32.8,29.4,32.8,51.5
	c0,1.2,0,4.3-14.2,114.9h121.8C329.2,479.1,332.8,482.7,332.8,487.1z"></path>
</svg>