<svg version="1.1" id="Layer_1" xmlns="http://www.w3.org/2000/svg" xmlns:xlink="http://www.w3.org/1999/xlink" x="0px" y="0px" viewBox="0 0 512 512" enable-background="new 0 0 512 512" xml:space="preserve">
<linearGradient id="SVGID_1_" gradientUnits="userSpaceOnUse" x1="220.8073" y1="446.9785" x2="220.8073" y2="139.8717" class="gradient-element">
	<stop offset="0" class="primary-color-gradient" style="stop-color: #FFA4ED"></stop>
	<stop offset="1" class="secondary-color-gradient" style="stop-color: #DB81DA"></stop>
</linearGradient>
<path fill="url(#SVGID_1_)" d="M389.5,454.6h-356v-7.8c0-11.9,10.7-21.6,23.9-21.6l0,0c1,0,218.6-0.1,219.6-0.2
	c12.6-1.4,22.4-11.1,22.4-22.8l3.6-80.7l0.1-137.9c0-23.6,21.2-42.7,47.4-42.7l4.4,0c1,13,13,1.2,10.4,5L365,323.5l0-2l41.9,107.6
	C411.6,441.4,402.6,454.6,389.5,454.6z"></path>
<path d="M415.8,453.2c-3.5,5.2-9.3,8.2-15.5,8.2H44.7c-6.2,0-12-3.1-15.5-8.2c-3.5-5.1-4.2-11.7-1.9-17.4l46.1-115.2V158.2
	c0-10.3,8.4-18.7,18.7-18.7h260.8c10.3,0,18.7,8.4,18.7,18.7v26.9c0,3.8-3.1,6.9-6.9,6.9s-6.9-3.1-6.9-6.9v-26.9c0-2.8-2.2-5-5-5
	H92.1c-2.8,0-5,2.2-5,5v156.5h251.7c3.8,0,6.9,3.1,6.9,6.9s-3.1,6.9-6.9,6.9H85l-45,112.5c-0.6,1.5-0.4,3.3,0.5,4.7
	c0.9,1.4,2.5,2.2,4.1,2.2h355.6c1.7,0,3.2-0.8,4.1-2.2c0.9-1.4,1.1-3.1,0.5-4.6l-46.6-116.4c-0.3-0.8-0.5-1.7-0.5-2.5v-99.8
	c0-3.8,3.1-6.9,6.9-6.9s6.9,3.1,6.9,6.9v98.4l46.1,115.2C420,441.5,419.3,448.1,415.8,453.2z M98,383.5c0,3.8,3.1,6.9,6.9,6.9h239.7
	c3.8,0,6.9-3.1,6.9-6.9s-3.1-6.9-6.9-6.9H104.9C101.1,376.6,98,379.7,98,383.5z M330.7,366.6c3.8,0,6.9-3.1,6.9-6.9
	s-3.1-6.9-6.9-6.9H114.4c-3.8,0-6.9,3.1-6.9,6.9s3.1,6.9,6.9,6.9H330.7z M55.4,430.9c0,3.8,3.1,6.9,6.9,6.9h120.2
	c2.6,0,5-1.5,6.1-3.8l10-19.9h48l10,19.9c1.2,2.3,3.5,3.8,6.1,3.8h120.2c3.8,0,6.9-3.1,6.9-6.9s-3.1-6.9-6.9-6.9h-116l-10-19.9
	c-1.2-2.3-3.5-3.8-6.1-3.8h-56.5c-2.6,0-5,1.5-6.1,3.8l-10,19.9h-116C58.4,424,55.4,427.1,55.4,430.9z"></path>
<g>
	<path fill="#DB81DA" class="secondary-color" d="M479.9,27.3v46.3h-22.5V27.3H479.9z M367.6,27.3v46.3h22.5V27.3H367.6z M413,27.3v46.3h21.6V27.3H413z"></path>
	<path fill="#FFA4ED" class="primary-color" d="M344.7,27.3v46.3H197.8V27.3H344.7z"></path>
</g>
<path d="M149.6,490.9c0,4.4-3.6,8-8,8H54.8c-4.4,0-8-3.6-8-8s3.6-8,8-8h86.8C146,482.9,149.6,486.5,149.6,490.9z M458.2,262.7h-57.4
	c-4.4,0-8,3.6-8,8s3.6,8,8,8h57.4c4.4,0,8-3.6,8-8S462.6,262.7,458.2,262.7z M387.6,476.2h-59.2c-4.4,0-8,3.6-8,8s3.6,8,8,8h59.2
	c4.4,0,8-3.6,8-8S392.1,476.2,387.6,476.2z M354.6,192h62.1c3.8,0,6.9-3.1,6.9-6.9s-3.1-6.9-6.9-6.9h-62.1c-3.8,0-6.9,3.1-6.9,6.9
	S350.8,192,354.6,192z M388.7,229c3.8,0,6.9-3.1,6.9-6.9c0-3.8-3.1-6.9-6.9-6.9h-68.2c-3.8,0-6.9,3.1-6.9,6.9c0,3.8,3.1,6.9,6.9,6.9
	H388.7z M54.6,105.1c4.4,0,8-3.6,8-8v-3.9h3.9c4.4,0,8-3.6,8-8s-3.6-8-8-8h-3.9v-3.9c0-4.4-3.6-8-8-8s-8,3.6-8,8v3.9h-3.9
	c-4.4,0-8,3.6-8,8s3.6,8,8,8h3.9v3.9C46.6,101.5,50.2,105.1,54.6,105.1z M481.2,122h-15.8v-15.8c0-4.4-3.6-8-8-8s-8,3.6-8,8V122
	h-15.8c-4.4,0-8,3.6-8,8s3.6,8,8,8h15.8v15.8c0,4.4,3.6,8,8,8s8-3.6,8-8V138h15.8c4.4,0,8-3.6,8-8S485.7,122,481.2,122z"></path>
</svg>