<svg version="1.1" id="Layer_1" xmlns="http://www.w3.org/2000/svg" xmlns:xlink="http://www.w3.org/1999/xlink" x="0px" y="0px" viewBox="0 0 512 512" enable-background="new 0 0 512 512" xml:space="preserve">
<linearGradient id="SVGID_1_" gradientUnits="userSpaceOnUse" x1="254.2262" y1="393.6399" x2="258.367" y2="179.3525" class="gradient-element">
	<stop offset="0" class="primary-color-gradient" style="stop-color: #FFA4ED"></stop>
	<stop offset="1" class="secondary-color-gradient" style="stop-color: #DB81DA"></stop>
</linearGradient>
<path fill="url(#SVGID_1_)" d="M143.6,225.2L143.6,225.2c-6.1,4.4-6.1,13.5,0,18l106.3,78c3.9,2.9,9.3,2.9,13.2,0l106.3-78
	c6.1-4.4,6.1-13.5,0-18l0,0c-3.9-2.9-9.3-2.9-13.2,0L263,293.5c-3.9,2.9-9.3,2.9-13.2,0l-93.1-68.3
	C152.8,222.4,147.5,222.4,143.6,225.2z M143.6,314.3L143.6,314.3c-6.1,4.4-6.1,13.5,0,18l106.3,78c3.9,2.9,9.3,2.9,13.2,0l106.3-78
	c6.1-4.4,6.1-13.5,0-18l0,0c-3.9-2.9-9.3-2.9-13.2,0L263,382.6c-3.9,2.9-9.3,2.9-13.2,0l-93.1-68.3
	C152.8,311.4,147.5,311.4,143.6,314.3z"></path>
<path d="M256.4,484.5c-1.7,0-3.3-0.5-4.7-1.5l-167-122.5c-2.1-1.5-3.3-3.9-3.3-6.5c0-2.5,1.2-4.9,3.3-6.5l41.9-30.7
	c3.6-2.6,8.6-1.8,11.2,1.7c2.6,3.6,1.8,8.6-1.7,11.2L102.9,354l153.5,112.6L410,354L358,315.9c-2.1-1.5-3.3-3.9-3.3-6.5
	s1.2-4.9,3.3-6.5l51.9-38.1L358,226.9c-2.1-1.5-3.3-3.9-3.3-6.5s1.2-4.9,3.3-6.5l51.9-38.1L256.4,63.3l-102.2,75
	c-3.6,2.6-8.6,1.8-11.2-1.7c-2.6-3.6-1.8-8.6,1.7-11.2l106.9-78.4c2.8-2.1,6.6-2.1,9.5,0l167,122.5c2.1,1.5,3.3,3.9,3.3,6.5
	s-1.2,4.9-3.3,6.5l-51.9,38.1l51.9,38.1c2.1,1.5,3.3,3.9,3.3,6.5s-1.2,4.9-3.3,6.5l-51.9,38.1l51.9,38.1c2.1,1.5,3.3,3.9,3.3,6.5
	c0,2.5-1.2,4.9-3.3,6.5L261.2,483C259.8,484,258.1,484.5,256.4,484.5z M256.4,395.4c-1.7,0-3.3-0.5-4.7-1.5l-167-122.5
	c-2.1-1.5-3.3-3.9-3.3-6.5c0-2.5,1.2-4.9,3.3-6.5l41.9-30.7c3.6-2.6,8.6-1.8,11.2,1.7c2.6,3.6,1.8,8.6-1.7,11.2l-33.1,24.3
	l153.5,112.6l82.7-60.7c3.6-2.6,8.6-1.8,11.2,1.7c2.6,3.6,1.8,8.6-1.7,11.2l-87.5,64.1C259.8,394.9,258.1,395.4,256.4,395.4z
	 M256.4,306.4c-1.7,0-3.3-0.5-4.7-1.5l-167-122.5c-2.1-1.5-3.3-3.9-3.3-6.5s1.2-4.9,3.3-6.5l31-22.8c3.6-2.6,8.6-1.8,11.2,1.7
	c2.6,3.6,1.8,8.6-1.7,11.2l-22.2,16.3l153.5,112.6l82.7-60.7c3.6-2.6,8.6-1.8,11.2,1.7c2.6,3.6,1.8,8.6-1.7,11.2l-87.5,64.1
	C259.8,305.8,258.1,306.4,256.4,306.4z"></path>
<path d="M447.2,219.2h-22.9c-4.4,0-8-3.6-8-8s3.6-8,8-8h22.9c4.4,0,8,3.6,8,8S451.6,219.2,447.2,219.2z M461.6,465.6
	c-5.9,0-10.8,4.8-10.8,10.8c0,5.9,4.8,10.8,10.8,10.8c5.9,0,10.8-4.8,10.8-10.8C472.3,470.4,467.5,465.6,461.6,465.6z M66.4,72.6
	V56.8h15.8c4.4,0,8-3.6,8-8s-3.6-8-8-8H66.4V25c0-4.4-3.6-8-8-8s-8,3.6-8,8v15.8H34.7c-4.4,0-8,3.6-8,8s3.6,8,8,8h15.8v15.8
	c0,4.4,3.6,8,8,8S66.4,77,66.4,72.6z M444.9,37.8c0-4.4-3.6-8-8-8h-73.8c-4.4,0-8,3.6-8,8s3.6,8,8,8h73.8
	C441.3,45.8,444.9,42.2,444.9,37.8z M184.4,123.8h-113c-4.4,0-8,3.6-8,8s3.6,8,8,8h113c4.4,0,8-3.6,8-8S188.8,123.8,184.4,123.8z"></path>
<path fill="#FFA4ED" class="primary-color" d="M81,460.1v21.8H24v-21.8H81z M24,415.2V437H81v-21.8H24z"></path>
</svg>