<svg version="1.1" id="Layer_1" xmlns="http://www.w3.org/2000/svg" xmlns:xlink="http://www.w3.org/1999/xlink" x="0px" y="0px" viewBox="0 0 512 512" enable-background="new 0 0 512 512" xml:space="preserve">
<linearGradient id="SVGID_1_" gradientUnits="userSpaceOnUse" x1="322.7464" y1="440.0468" x2="322.7464" y2="104.9259" class="gradient-element">
	<stop offset="0" class="primary-color-gradient" style="stop-color: #FFA4ED"></stop>
	<stop offset="1" class="secondary-color-gradient" style="stop-color: #DB81DA"></stop>
</linearGradient>
<path fill="url(#SVGID_1_)" d="M410.7,267.9l-53.2,39l53.2,39L261.2,455.6l-14.3-10.5c-16-11.7-16-35.6,0-47.3l38.3-28.1
	c6.3-4.6,10.1-11.2,11.5-18.1l-35.5,26L246.8,367c-16-11.7-16-35.6,0-47.4l38.3-28.1c2-1.4,2.8-6.6,2.9-13.5l-26.9,19.7l-14.3-10.5
	c-16-11.7-16-35.6,0-47.3l38.3-28.1c16-11.7,16-35.6,0-47.3l-38.3-28.1c-16-11.7-16-35.6,0-47.3l14.3-10.5l149.5,109.6L356.3,228
	l0,0L410.7,267.9z"></path>
<path fill="#FFA4ED" class="primary-color" d="M468.4,30h21.8v250h-21.8V30z"></path>
<path d="M32.5,63.3c0-4.4,3.6-8,8-8h3.9v-3.9c0-4.4,3.6-8,8-8s8,3.6,8,8v3.9h3.9c4.4,0,8,3.6,8,8s-3.6,8-8,8h-3.9v3.9
	c0,4.4-3.6,8-8,8s-8-3.6-8-8v-3.9h-3.9C36.1,71.3,32.5,67.8,32.5,63.3z M110.5,447.8H52.9c-4.4,0-8,3.6-8,8s3.6,8,8,8h57.6
	c4.4,0,8-3.6,8-8S114.9,447.8,110.5,447.8z M62,407.2c0-4.4-3.6-8-8-8H19c-4.4,0-8,3.6-8,8s3.6,8,8,8h35
	C58.4,415.2,62,411.7,62,407.2z M357.9,27.3h-40.2c-4.4,0-8,3.6-8,8s3.6,8,8,8h40.2c4.4,0,8-3.6,8-8S362.3,27.3,357.9,27.3z"></path>
<path d="M418.7,267.9c0-2.5-1.2-4.9-3.3-6.5L369.8,228l45.6-33.4c2.1-1.5,3.3-3.9,3.3-6.5c0-2.5-1.2-4.9-3.3-6.5L265.9,72.1
	c-2.8-2.1-6.6-2.1-9.5,0L106.9,181.7c-2.1,1.5-3.3,3.9-3.3,6.5s1.2,4.9,3.3,6.5l149.5,109.6c2.8,2.1,6.6,2.1,9.5,0l90.4-66.3
	l40.8,29.9l-45.6,33.4c0,0,0,0,0,0l-16.8,12.3c0,0-0.1,0.1-0.1,0.1l-73.4,53.8l-136-99.7l28.7-21.1c3.6-2.6,4.3-7.6,1.7-11.2
	c-2.6-3.6-7.6-4.3-11.2-1.7l-37.5,27.5c-2.1,1.5-3.3,3.9-3.3,6.5c0,2.5,1.2,4.9,3.3,6.5L256.4,384c2.8,2.1,6.6,2.1,9.5,0l90.4-66.3
	l40.8,29.9l-136,99.7l-136-99.7l28.7-21.1c3.6-2.6,4.3-7.6,1.7-11.2c-2.6-3.6-7.6-4.3-11.2-1.7l-37.5,27.5c-2.1,1.5-3.3,3.9-3.3,6.5
	c0,2.5,1.2,4.9,3.3,6.5l149.5,109.6c1.4,1,3.1,1.5,4.7,1.5s3.3-0.5,4.7-1.5l149.5-109.6c2.1-1.5,3.3-3.9,3.3-6.5
	c0-2.5-1.2-4.9-3.3-6.5l-45.6-33.4l45.6-33.4C417.4,272.8,418.7,270.4,418.7,267.9z M351.6,221.6
	C351.6,221.6,351.6,221.6,351.6,221.6l-16.9,12.4c0,0-0.1,0.1-0.1,0.1l-73.4,53.8l-136-99.7l136-99.7l136,99.7L351.6,221.6z"></path>
</svg>