<svg version="1.1" id="Layer_1" xmlns="http://www.w3.org/2000/svg" xmlns:xlink="http://www.w3.org/1999/xlink" x="0px" y="0px" viewBox="0 0 512 512" enable-background="new 0 0 512 512" xml:space="preserve">
<linearGradient id="SVGID_1_" gradientUnits="userSpaceOnUse" x1="311.7991" y1="458.8802" x2="311.7991" y2="78.847" class="gradient-element">
	<stop offset="0" class="primary-color-gradient" style="stop-color: #FFA4ED"></stop>
	<stop offset="1" class="secondary-color-gradient" style="stop-color: #DB81DA"></stop>
</linearGradient>
<path fill="url(#SVGID_1_)" d="M258,52.3c-0.4,0-0.8,0-1.2,0c-6.3,0.1-8.1,8.6-2.4,11.2c43.3,19.8,73.4,63.4,73.4,114
	c0,26.3-8.1,51.5-23.3,72.8c-4.9,6.9-10.3,13.1-15.4,19.2c-15.9,18.6-29.6,34.7-29.6,65.3v56.9c0,17.9-4.7,31.7-14.5,42
	c-0.1,0.1-0.3,0.3-0.4,0.5c-7.1,7.3-5,19.5,4.4,23.6c3.3,1.4,6.4,2.3,9,2.3c12.3,0,36.4-20,42.4-26.4c9.8-10.3,14.5-24.1,14.5-42
	v-56.9c0-30.6,13.7-46.7,29.6-65.3c5.1-6.1,10.5-12.3,15.4-19.2c15.4-21.5,23.5-46.9,23.3-73.4C382.9,107.7,327.2,52.3,258,52.3z"></path>
<path d="M258,44.3c-73.5,0-133.3,59.8-133.3,133.3c0,28,8.6,54.8,24.8,77.5c5.2,7.2,10.8,13.9,15.8,19.7
	c15.5,18.2,27.7,32.5,27.7,60.1v56.9c0,20.1,5.5,35.6,16.7,47.5c3.6,3.8,31.2,28.9,48.3,28.9c17.1,0,44.7-25.1,48.3-28.8
	c11.2-11.9,16.7-27.4,16.7-47.5v-56.9c0-0.4,0-0.8,0-1.1c0.1-0.5,0.2-1.1,0.2-1.7c0-0.4,0-0.8-0.1-1.2c1.1-25,12.9-38.8,27.6-56
	l0.1-0.2c5.2-6.1,10.6-12.5,15.7-19.6c16.2-22.7,24.8-49.5,24.8-77.5C391.2,104.1,331.4,44.3,258,44.3z M353.4,245.7
	c-4.7,6.6-9.8,12.6-14.8,18.5l-0.1,0.2c-14.4,16.8-28,32.9-30.9,59.6h-49c-4.4,0-8,3.6-8,8s3.6,8,8,8h48.5v51.8c0,0.7,0,1.3,0,2
	h-48.4c-4.4,0-8,3.6-8,8s3.6,8,8,8h46.3c-2,7.3-5.3,13.4-10.1,18.5c-7.6,8.1-28.9,23.8-36.6,23.8c-7.7,0-29-15.8-36.6-23.8
	c-8.3-8.8-12.3-20.7-12.3-36.5v-56.9c0-33.5-15.3-51.5-31.5-70.5c-5-5.9-10.2-12-15-18.6c-14.3-20-21.8-43.5-21.8-68.2
	c0-64.7,52.6-117.3,117.3-117.3s117.3,52.6,117.3,117.3C375.2,202.2,367.7,225.7,353.4,245.7z"></path>
<g>
	<path fill="#DB81DA" class="secondary-color" d="M407.2,244.7h68.5v21.4h-68.5V244.7z"></path>
	<path fill="#FFA4ED" class="primary-color" d="M407.2,285.5h68.5v21.4h-68.5V285.5z"></path>
	<path fill="#FFA4ED" class="primary-color" d="M407.2,326.3h68.5v21.4h-68.5V326.3z"></path>
</g>
<path d="M104.4,67.7c0,4.4-3.6,8-8,8H80.7v15.8c0,4.4-3.6,8-8,8s-8-3.6-8-8V75.7H48.9c-4.4,0-8-3.6-8-8s3.6-8,8-8h15.8V43.9
	c0-4.4,3.6-8,8-8s8,3.6,8,8v15.8h15.8C100.9,59.7,104.4,63.3,104.4,67.7z M68.6,253.6l2.1,2.1c1.2,1.2,2.8,1.8,4.4,1.8
	s3.2-0.6,4.4-1.8c2.4-2.4,2.4-6.4,0-8.8l-2.1-2.1l2.1-2.1c2.4-2.4,2.4-6.4,0-8.8c-2.4-2.4-6.4-2.4-8.8,0l-2.1,2.1l-2.1-2.1
	c-2.4-2.4-6.4-2.4-8.8,0c-2.4,2.4-2.4,6.4,0,8.8l2.1,2.1l-2.1,2.1c-2.4,2.4-2.4,6.4,0,8.8c1.2,1.2,2.8,1.8,4.4,1.8s3.2-0.6,4.4-1.8
	L68.6,253.6z M453.3,417.3h-3.9v-3.9c0-4.4-3.6-8-8-8s-8,3.6-8,8v3.9h-3.9c-4.4,0-8,3.6-8,8s3.6,8,8,8h3.9v3.9c0,4.4,3.6,8,8,8
	s8-3.6,8-8v-3.9h3.9c4.4,0,8-3.6,8-8S457.7,417.3,453.3,417.3z M72.9,446.5c-5.9,0-10.8,4.8-10.8,10.7c0,5.9,4.8,10.8,10.8,10.8
	c5.9,0,10.8-4.8,10.8-10.8C83.7,451.3,78.9,446.5,72.9,446.5z M72.9,398.5c-5.9,0-10.8,4.8-10.8,10.8c0,5.9,4.8,10.8,10.8,10.8
	c5.9,0,10.8-4.8,10.8-10.8C83.7,403.3,78.9,398.5,72.9,398.5z M72.9,346.5c-5.9,0-10.8,4.8-10.8,10.8c0,5.9,4.8,10.8,10.8,10.8
	c5.9,0,10.8-4.8,10.8-10.8C83.7,351.3,78.9,346.5,72.9,346.5z M472.9,63.3c0,14.6-11.8,26.4-26.4,26.4s-26.4-11.8-26.4-26.4
	s11.8-26.4,26.4-26.4S472.9,48.8,472.9,63.3z M456.9,63.3c0-5.7-4.7-10.4-10.4-10.4s-10.4,4.7-10.4,10.4s4.7,10.4,10.4,10.4
	S456.9,69.1,456.9,63.3z"></path>
</svg>