<svg version="1.1" id="Layer_1" xmlns="http://www.w3.org/2000/svg" xmlns:xlink="http://www.w3.org/1999/xlink" x="0px" y="0px" viewBox="0 0 512 512" enable-background="new 0 0 512 512" xml:space="preserve">
<linearGradient id="SVGID_1_" gradientUnits="userSpaceOnUse" x1="276.9771" y1="444.6455" x2="276.9771" y2="77.6855" class="gradient-element">
	<stop offset="0" class="primary-color-gradient" style="stop-color: #FFA4ED"></stop>
	<stop offset="1" class="secondary-color-gradient" style="stop-color: #DB81DA"></stop>
</linearGradient>
<path fill="url(#SVGID_1_)" d="M471,256.2c0,23.8-10.5,37.9-24.3,37.9l-24.6,92c-11.9,47.4-27.5,60.4-72.6,60.4H248
	c-42.5,0-66.2-8.8-85.1-15.9c-14.2-5.3-25.4-9.5-41.8-9.5H82.9c0-19.3,15.7-35,35-35h131c26.5,0,50.1-16.6,59.1-41.5l27.7-76.8
	c9-25,32.8-41.7,59.5-41.7h30.1C446.3,226,471,225.9,471,256.2z M324.5,155.9c7.8-22.5,27.1-68-1.3-81c-9.9-4.5-6.3-0.3-11.5,9.3
	L244,212.8c-5.2,9.5,1.7,21.2,12.6,21.2H277C277,233.9,315.3,182.4,324.5,155.9z"></path>
<path d="M479,256.2c0,27.5-12.2,41.8-25.9,45.2L429.9,388c-12.7,50.9-31.5,66.4-80.4,66.4H248c-44,0-68.4-9.1-87.9-16.4
	c-14-5.2-24.1-9-39-9H82.9c-4.4,0-8-3.6-8-8V306.8c0-4.4,3.6-8,8-8s8,3.6,8,8v106.2H121c17.8,0,30.2,4.6,44.5,10
	c18.4,6.9,41.3,15.4,82.4,15.4h101.6c21.7,0,34.8-3.2,43.7-10.6c6.1-5.1,11-12.7,15.3-24.2h-60.1c-4.4,0-8-3.6-8-8s3.6-8,8-8h65
	c0.3-1.2,0.6-2.3,0.9-3.6c0,0,0-0.1,0-0.1l8.3-31.1h-63.7c-4.4,0-8-3.6-8-8s3.6-8,8-8H427l9.3-34.8h-64.4c-4.4,0-8-3.6-8-8
	s3.6-8,8-8h73c0.3,0,0.6,0,0.9,0.1c0.3,0,0.6-0.1,0.9-0.1c9.6,0,16.3-12.3,16.3-29.9c0-13-5.1-16.9-10.1-19
	c-7.2-3.1-17.4-3.1-27.3-3.1c-0.1,0-0.1,0-0.2,0H260.7c-4.4,0-8-3.6-8-8s3.6-8,8-8h164.8c0.1,0,0.1,0,0.2,0c11,0,23.4,0,33.6,4.4
	C472.4,228.1,479,239.4,479,256.2z M82.9,276.7H121c21.4,0,31.2-16.4,48.8-46.1c4.7-7.9,10.5-17.7,17.1-27.9
	c13.4-20.6,27.4-32.9,39.8-43.7c19.9-17.4,38.8-33.9,55-82.2l1.1-3.2h15.9c16.6,0,30.1,13.5,30.1,30c0,36.9-22.5,71.8-39.4,95
	c-2.6,3.6-1.8,8.6,1.7,11.2c3.6,2.6,8.6,1.8,11.2-1.7c18.2-24.9,42.5-62.9,42.5-104.4c0-25.4-20.7-46-46.1-46h-21.7
	c-3.4,0-6.5,2.2-7.6,5.5l-2.9,8.6c-14.9,44.2-30.6,57.9-50.4,75.3c-13.2,11.5-28.1,24.5-42.6,47c-6.8,10.5-12.7,20.5-17.5,28.5
	c-18.1,30.5-23.9,38.3-35.1,38.3H82.9c-4.4,0-8,3.6-8,8S78.5,276.7,82.9,276.7z"></path>
<path d="M57.2,260.7h57.4c4.4,0,8,3.6,8,8s-3.6,8-8,8H57.2c-4.4,0-8-3.6-8-8S52.8,260.7,57.2,260.7z M25.5,314.8h79.5
	c4.4,0,8-3.6,8-8s-3.6-8-8-8H25.5c-4.4,0-8,3.6-8,8S21.1,314.8,25.5,314.8z M400.6,89.2c20.3,0,36.8-16.5,36.8-36.8c0-4.4-3.6-8-8-8
	s-8,3.6-8,8c0,11.4-9.3,20.8-20.8,20.8c-4.4,0-8,3.6-8,8S396.2,89.2,400.6,89.2z M479.4,89.2c4.4,0,8-3.6,8-8s-3.6-8-8-8
	c-11.4,0-20.8-9.3-20.8-20.8c0-4.4-3.6-8-8-8s-8,3.6-8,8C442.6,72.7,459.1,89.2,479.4,89.2z M450.6,139.2c4.4,0,8-3.6,8-8
	c0-11.4,9.3-20.7,20.8-20.7c4.4,0,8-3.6,8-8s-3.6-8-8-8c-20.3,0-36.8,16.5-36.8,36.8C442.6,135.6,446.2,139.2,450.6,139.2z
	 M400.6,110.4c11.4,0,20.8,9.3,20.8,20.8c0,4.4,3.6,8,8,8s8-3.6,8-8c0-20.3-16.5-36.7-36.8-36.7c-4.4,0-8,3.6-8,8
	S396.2,110.4,400.6,110.4z M34.6,65.8c4.4,0,8-3.6,8-8c0-5.7,4.7-10.4,10.4-10.4s10.4,4.7,10.4,10.4c0,4.4,3.6,8,8,8s8-3.6,8-8
	c0-14.6-11.8-26.4-26.4-26.4S26.6,43.3,26.6,57.8C26.6,62.3,30.2,65.8,34.6,65.8z M481,172.8H377.7c-4.4,0-8,3.6-8,8s3.6,8,8,8H481
	c4.4,0,8-3.6,8-8S485.4,172.8,481,172.8z M122.6,462.3H19.4c-4.4,0-8,3.6-8,8s3.6,8,8,8h103.3c4.4,0,8-3.6,8-8
	S127.1,462.3,122.6,462.3z M48,218.3c0,5-4.1,9-9,9s-9-4.1-9-9s4.1-9,9-9S48,213.4,48,218.3z M69,227.4c-5,0-9-4.1-9-9s4.1-9,9-9
	s9,4.1,9,9S74,227.4,69,227.4z M90,218.3c0-5,4.1-9,9-9s9,4.1,9,9s-4.1,9-9,9S90,223.3,90,218.3z M138,218.3c0,5-4.1,9-9,9
	s-9-4.1-9-9s4.1-9,9-9S138,213.4,138,218.3z"></path>
<g>
	<path fill="#DB81DA" class="secondary-color" d="M429.6,491.3l60.9-60.9v60.9H429.6z"></path>
	<path fill="#FFA4ED" class="primary-color" d="M100,71.3V26h45.3v45.3H100z M145.3,139.4V94.1H100v45.3H145.3z M75.7,139.4V94.1H30.4v45.3H75.7z"></path>
</g>
</svg>