<svg version="1.1" id="Layer_1" xmlns="http://www.w3.org/2000/svg" xmlns:xlink="http://www.w3.org/1999/xlink" x="0px" y="0px" viewBox="0 0 512 512" enable-background="new 0 0 512 512" xml:space="preserve">
<linearGradient id="SVGID_1_" gradientUnits="userSpaceOnUse" x1="353.1123" y1="454.4048" x2="353.1123" y2="113.4464" class="gradient-element">
	<stop offset="0" class="primary-color-gradient" style="stop-color: #FFA4ED"></stop>
	<stop offset="1" class="secondary-color-gradient" style="stop-color: #DB81DA"></stop>
</linearGradient>
<path fill="url(#SVGID_1_)" d="M471,210c0,28.6-11.4,56.2-31.9,76.8l-183,183l0,0c-27.6-27.6-27.6-72.5,0-100.1l117.9-117.9
	c20.6-20.6,31.9-48.2,31.9-76.8c0-5.8-0.3-11.4-1.5-16.6c-2-13.6-6.6-26.5-13.3-37.9c-4-6.8,2.8-14.8,10.1-12
	c14.3,5.5,27.1,14,37.8,24.7c16,16,27,36.9,30.4,60.2C470.7,198.6,471,204.1,471,210z"></path>
<path d="M50.4,195.2c-1.2,4.9-1.3,10.5-1.3,14.7c0,26.8,10.5,52,29.6,71.1l62.1,62.1c3.1,3.1,3.1,8.2,0,11.3
	c-1.6,1.6-3.6,2.3-5.7,2.3c-2,0-4.1-0.8-5.7-2.3l-62.1-62.1C45.2,270.3,33,241,33,210c0-5,0.2-11.6,1.7-18.1
	c3.6-24.4,14.9-46.6,32.6-64.4c22.1-22.1,51.4-34.3,82.4-34.3s60.3,12.2,82.4,34.3l29.5,29.5c3.1,3.1,3.1,8.2,0,11.3
	c-3.1,3.1-8.2,3.1-11.3,0l-29.5-29.5c-19.1-19.1-44.3-29.6-71.1-29.6s-52,10.5-71.1,29.6c-15.4,15.4-25.1,34.6-28.1,55.7
	C50.5,194.8,50.4,195,50.4,195.2z M477.3,191.9c-3.6-24.4-14.9-46.6-32.6-64.4c-22.1-22.1-51.4-34.3-82.4-34.3s-60.3,12.2-82.4,34.3
	l-10,10c-3.1,3.1-3.1,8.2,0,11.3c3.1,3.1,8.2,3.1,11.3,0l10-10c19.1-19.1,44.3-29.6,71.1-29.6c26.8,0,52,10.5,71.1,29.6
	c15.4,15.4,25.1,34.6,28.1,55.7c0,0.2,0.1,0.5,0.1,0.7c1.2,5,1.3,10.5,1.3,14.7c0,26.8-10.5,52-29.6,71.1L256,458.4l-74.6-74.6
	c-3.1-3.1-8.2-3.1-11.3,0c-3.1,3.1-3.1,8.2,0,11.3l80.2,80.2c1.5,1.5,3.5,2.3,5.7,2.3s4.2-0.8,5.7-2.3l183-183
	C466.8,270.3,479,241,479,210C479,204.9,478.8,198.3,477.3,191.9z"></path>
<path d="M345.2,46.6c0,4.4-3.6,8-8,8c-26.8,0-52,10.5-71.1,29.6l-10,10c-1.6,1.6-3.6,2.3-5.7,2.3c-2,0-4.1-0.8-5.7-2.3
	c-3.1-3.1-3.1-8.2,0-11.3l10-10c22.1-22.1,51.4-34.3,82.4-34.3C341.6,38.6,345.2,42.2,345.2,46.6z M192.3,379.6H26.7
	c-4.4,0-8,3.6-8,8s3.6,8,8,8h165.6c4.4,0,8-3.6,8-8S196.8,379.6,192.3,379.6z M212.7,342.3H97c-4.4,0-8,3.6-8,8s3.6,8,8,8h115.7
	c4.4,0,8-3.6,8-8S217.1,342.3,212.7,342.3z M487.4,50.5h-86.8c-4.4,0-8,3.6-8,8s3.6,8,8,8h86.8c4.4,0,8-3.6,8-8
	S491.8,50.5,487.4,50.5z M126.3,429.9H68.9c-4.4,0-8,3.6-8,8s3.6,8,8,8h57.4c4.4,0,8-3.6,8-8S130.7,429.9,126.3,429.9z M478.8,388.9
	H463v-15.8c0-4.4-3.6-8-8-8s-8,3.6-8,8v15.8h-15.8c-4.4,0-8,3.6-8,8s3.6,8,8,8H447v15.8c0,4.4,3.6,8,8,8s8-3.6,8-8v-15.8h15.8
	c4.4,0,8-3.6,8-8S483.2,388.9,478.8,388.9z M31.3,64.9H47v15.8c0,4.4,3.6,8,8,8s8-3.6,8-8V64.9h15.8c4.4,0,8-3.6,8-8s-3.6-8-8-8H63
	V33.2c0-4.4-3.6-8-8-8s-8,3.6-8,8v15.8H31.3c-4.4,0-8,3.6-8,8S26.8,64.9,31.3,64.9z"></path>
<g>
	<path fill="#FFA4ED" class="primary-color" d="M400.6,491.4v-21.8h86.7v21.8H400.6z"></path>
	<path fill="#DB81DA" class="secondary-color" d="M324.6,491.4l56.9-56.9v56.9H324.6z"></path>
</g>
</svg>