<svg version="1.1" id="Layer_1" xmlns="http://www.w3.org/2000/svg" xmlns:xlink="http://www.w3.org/1999/xlink" x="0px" y="0px" viewBox="0 0 512 512" enable-background="new 0 0 512 512" xml:space="preserve">
<linearGradient id="SVGID_1_" gradientUnits="userSpaceOnUse" x1="280.7013" y1="461.0599" x2="280.7013" y2="189.0369" class="gradient-element">
	<stop offset="0" class="primary-color-gradient" style="stop-color: #FFA4ED"></stop>
	<stop offset="1" class="secondary-color-gradient" style="stop-color: #DB81DA"></stop>
</linearGradient>
<path fill="url(#SVGID_1_)" d="M132.5,268.3h49.4v197.6h-49.4V268.3z M256,465.9h49.4v-247H256V465.9z M379.5,317.7v148.2h49.4
	V317.7H379.5z"></path>
<path d="M453.6,457.9h-16.7V317.7c0-4.4-3.6-8-8-8h-49.4c-4.4,0-8,3.6-8,8v140.2h-58.1v-239c0-4.4-3.6-8-8-8H256c-4.4,0-8,3.6-8,8
	v239h-58.1V268.3c0-4.4-3.6-8-8-8h-49.4c-4.4,0-8,3.6-8,8v189.6H66.4V144.8c0-4.4-3.6-8-8-8s-8,3.6-8,8v321.1c0,4.4,3.6,8,8,8h74.1
	h49.4H256h49.4h74.1h49.4h24.7c4.4,0,8-3.6,8-8S458,457.9,453.6,457.9z M140.5,457.9V276.3h33.4v181.6H140.5z M264,457.9v-231h33.4
	v231H264z M387.5,457.9V325.7h33.4v132.2H387.5z"></path>
<g>
	<path fill="#DB81DA" class="secondary-color" d="M52,26h80.3v37.3H52V26z"></path>
	<path fill="#FFA4ED" class="primary-color" d="M145.3,26.8h73.1v35.8h-73.1V26.8z"></path>
</g>
<path d="M86.5,136.6c0-4.4,3.6-8,8-8h15.8v-15.8c0-4.4,3.6-8,8-8s8,3.6,8,8v15.8h15.8c4.4,0,8,3.6,8,8s-3.6,8-8,8h-15.8v15.8
	c0,4.4-3.6,8-8,8s-8-3.6-8-8v-15.8H94.5C90.1,144.6,86.5,141,86.5,136.6z M443.3,164.5c-3.7-2.5-8.6-1.5-11.1,2.2l-54.3,80.9
	L261.3,145.7c-2.5-2.2-6.2-2.6-9.1-1L92.6,233c-3.9,2.1-5.3,7-3.1,10.9c2.1,3.9,7,5.3,10.9,3.1L255,161.5l119.3,104.1
	c1.5,1.3,3.3,2,5.3,2c0.3,0,0.7,0,1-0.1c2.3-0.3,4.3-1.6,5.6-3.5l59.4-88.4C448,171.9,447,166.9,443.3,164.5z M467.6,109.7
	l-79.5,44.8c-3.8,2.2-5.2,7-3,10.9c2.2,3.8,7,5.2,10.9,3l67.6-38.1v80.3c0,4.4,3.6,8,8,8s8-3.6,8-8v-94c0-2.8-1.5-5.5-4-6.9
	C473.1,108.4,470.1,108.3,467.6,109.7z M353,117.1c-3.1-3.1-8.2-3.1-11.3,0l-2.7,2.7l-2.7-2.7c-3.1-3.1-8.2-3.1-11.3,0
	c-3.1,3.1-3.1,8.2,0,11.3l2.8,2.8l-2.8,2.8c-3.1,3.1-3.1,8.2,0,11.3c1.6,1.6,3.6,2.3,5.7,2.3s4.1-0.8,5.7-2.3l2.7-2.7l2.7,2.7
	c1.6,1.6,3.6,2.3,5.7,2.3s4.1-0.8,5.7-2.3c3.1-3.1,3.1-8.2,0-11.3l-2.8-2.8l2.8-2.8C356.2,125.3,356.2,120.2,353,117.1z
	 M493.6,383.8h-3.9v-3.9c0-4.4-3.6-8-8-8s-8,3.6-8,8v3.9h-3.9c-4.4,0-8,3.6-8,8s3.6,8,8,8h3.9v3.9c0,4.4,3.6,8,8,8s8-3.6,8-8v-3.9
	h3.9c4.4,0,8-3.6,8-8S498,383.8,493.6,383.8z M267.7,76.5h117.4c4.4,0,8-3.6,8-8s-3.6-8-8-8H267.7c-4.4,0-8,3.6-8,8
	S263.3,76.5,267.7,76.5z M409.3,46.9h59.2c4.4,0,8-3.6,8-8s-3.6-8-8-8h-59.2c-4.4,0-8,3.6-8,8S404.9,46.9,409.3,46.9z"></path>
</svg>