<svg version="1.1" id="Layer_1" xmlns="http://www.w3.org/2000/svg" xmlns:xlink="http://www.w3.org/1999/xlink" x="0px" y="0px" viewBox="0 0 512 512" enable-background="new 0 0 512 512" xml:space="preserve">
<linearGradient id="SVGID_1_" gradientUnits="userSpaceOnUse" x1="246.6151" y1="469.5411" x2="246.6151" y2="-114.4033" class="gradient-element">
	<stop offset="0" class="primary-color-gradient" style="stop-color: #FFA4ED"></stop>
	<stop offset="0.6201" class="secondary-color-gradient" style="stop-color: #DB81DA"></stop>
</linearGradient>
<path fill="url(#SVGID_1_)" d="M216.3,267.1v-36.2h27.5v46.9C230.8,285.3,216.3,274.2,216.3,267.1z M106,477.4h27.5V230.9H106V477.4
	z M315.1,230.9c-4.9,0-9.4,0.2-13.5,0.6c54.7,5.3,76.9,42.6,76.9,96.7v149.2h27.5V328.2C405.9,269.8,380,230.9,315.1,230.9z
	 M101,127.1c-4.9,0-9.6,1.1-13.7,3.1c11,5.2,18.7,16.4,18.7,29.4s-7.7,24.2-18.7,29.4c4.2,2,8.8,3,13.7,3
	c17.9,0,32.4-14.5,32.4-32.4S118.9,127.1,101,127.1z M216.3,342.6v134.8h27.5V342.6c0-23.2,14-50,42-57.5c-3.3-1.3-7-2-11-2
	C235.7,282.8,216.3,315.2,216.3,342.6z"></path>
<linearGradient id="SVGID_2_" gradientUnits="userSpaceOnUse" x1="345.5798" y1="159.9723" x2="488.0488" y2="159.9723">
	<stop offset="0" class="primary-color-gradient" style="stop-color: #FFA4ED"></stop>
	<stop offset="1" class="secondary-color-gradient" style="stop-color: #DB81DA"></stop>
</linearGradient>
<path fill="url(#SVGID_2_)" d="M345.6,85.6V210h13.1v32.3l53.9-32.3H488V77.6H353.6C349.2,77.6,345.6,81.2,345.6,85.6z"></path>
<path d="M101,200c22.3,0,40.4-18.1,40.4-40.4c0-22.3-18.1-40.4-40.4-40.4c-22.3,0-40.4,18.1-40.4,40.4C60.6,181.8,78.7,200,101,200z
	 M101,135.1c13.5,0,24.4,11,24.4,24.4S114.5,184,101,184c-13.5,0-24.4-11-24.4-24.4S87.6,135.1,101,135.1z M133.5,222.9H68.6
	c-4.4,0-8,3.6-8,8v246.5c0,4.4,3.6,8,8,8h64.9c4.4,0,8-3.6,8-8V230.9C141.5,226.5,137.9,222.9,133.5,222.9z M125.5,469.4H76.6V238.9
	h48.9V469.4z M480,121V45.6H323.6V202h35.1c4.4,0,8,3.6,8,8v18.2l41.8-25.1c1.2-0.7,2.7-1.1,4.1-1.1H480v-48c0-4.4,3.6-8,8-8
	s8,3.6,8,8v56c0,4.4-3.6,8-8,8h-73.2l-37.1,22.3c4.9,3.5,9.3,7.6,13.2,12.2c15.3,17.8,23,43.3,23,75.8v72.5c0,4.4-3.6,8-8,8
	s-8-3.6-8-8v-72.5c0-28.5-6.4-50.5-19.2-65.3c-4.6-5.4-10.1-9.8-16.4-13.4c-1.1,0.6-2.4,0.9-3.6,0.9c-1.4,0-2.7-0.3-3.9-1
	c-1.9-1.1-3.3-2.9-3.8-5c-10.3-3.6-22.2-5.5-35.9-5.5c-41.1,0-52.1,16.4-64.7,35.4c-2,2.9-5.6,4.2-9,3.2c-3.4-1-5.7-4.1-5.7-7.7
	v-30.9h-48.9v230.5h48.9V342.6c0-18.3,7.6-36.7,20.2-49.3c12-11.9,27.8-18.2,45.7-18.2c0.2,0,0.3,0,0.5,0c15,0.1,28,8.3,36.4,23.1
	c6.6,11.6,10.4,27.3,10.4,43.1v128.2h48.9v-28c0-4.4,3.6-8,8-8s8,3.6,8,8v36c0,4.4-3.6,8-8,8h-64.9c-4.4,0-8-3.6-8-8V341.2
	c0-20.1-8.2-50-31-50.1c-13.8-0.1-25.8,4.6-34.8,13.5c-9.7,9.7-15.5,23.9-15.5,38v134.8c0,4.4-3.6,8-8,8h-64.9c-4.4,0-8-3.6-8-8
	V230.9c0-4.4,3.6-8,8-8h64.9c4.4,0,8,3.6,8,8V246c12.1-12.8,29.8-23.1,63.4-23.1c13.1,0,25,1.5,35.6,4.6V218h-35.1c-4.4,0-8-3.6-8-8
	V37.6c0-4.4,3.6-8,8-8H488c4.4,0,8,3.6,8,8V121c0,4.4-3.6,8-8,8S480,125.5,480,121z M447,103.1c0,4.4-3.6,8-8,8h-78.3
	c-4.4,0-8-3.6-8-8s3.6-8,8-8H439C443.4,95.1,447,98.7,447,103.1z M447,153.1c0,4.4-3.6,8-8,8h-78.3c-4.4,0-8-3.6-8-8s3.6-8,8-8H439
	C443.4,145.1,447,148.7,447,153.1z"></path>
<g>
	<path fill="#DB81DA" class="secondary-color" d="M37,26.5h80.3v37.3H37V26.5z"></path>
	<path fill="#FFA4ED" class="primary-color" d="M130.4,27.3h73.1v35.8h-73.1V27.3z"></path>
</g>
<path d="M241.2,186.2c0,4.4-3.6,8-8,8h-59.5c-4.4,0-8-3.6-8-8s3.6-8,8-8h59.5C237.6,178.2,241.2,181.8,241.2,186.2z M498.8,272.3
	H483v-15.8c0-4.4-3.6-8-8-8s-8,3.6-8,8v15.8h-15.8c-4.4,0-8,3.6-8,8s3.6,8,8,8H467v15.8c0,4.4,3.6,8,8,8s8-3.6,8-8v-15.8h15.8
	c4.4,0,8-3.6,8-8S503.2,272.3,498.8,272.3z M465.4,431.6h-59.5c-4.4,0-8,3.6-8,8s3.6,8,8,8h59.5c4.4,0,8-3.6,8-8
	S469.8,431.6,465.4,431.6z M443.6,400.7c0-4.4-3.6-8-8-8h-59.5c-4.4,0-8,3.6-8,8s3.6,8,8,8h59.5
	C440.1,408.7,443.6,405.1,443.6,400.7z M255.6,82.5h-3.9v-3.9c0-4.4-3.6-8-8-8s-8,3.6-8,8v3.9h-3.9c-4.4,0-8,3.6-8,8s3.6,8,8,8h3.9
	v3.9c0,4.4,3.6,8,8,8s8-3.6,8-8v-3.9h3.9c4.4,0,8-3.6,8-8S260.1,82.5,255.6,82.5z M65.3,82.5H32.5c-4.4,0-8,3.6-8,8s3.6,8,8,8h32.7
	c4.4,0,8-3.6,8-8S69.7,82.5,65.3,82.5z M29.9,336.4c-4.4,0-8,3.6-8,8v134.6c0,4.4,3.6,8,8,8s8-3.6,8-8V344.4
	C37.9,339.9,34.3,336.4,29.9,336.4z M39,294.5c0,5-4.1,9-9,9c-5,0-9-4.1-9-9s4.1-9,9-9C34.9,285.5,39,289.5,39,294.5z"></path>
</svg>