<svg version="1.1" id="Layer_1" xmlns="http://www.w3.org/2000/svg" xmlns:xlink="http://www.w3.org/1999/xlink" x="0px" y="0px" viewBox="0 0 512 512" enable-background="new 0 0 512 512" xml:space="preserve">
<linearGradient id="SVGID_1_" gradientUnits="userSpaceOnUse" x1="264.7412" y1="463.0468" x2="264.7412" y2="67.1944" class="gradient-element">
	<stop offset="0" class="primary-color-gradient" style="stop-color: #FFA4ED"></stop>
	<stop offset="1" class="secondary-color-gradient" style="stop-color: #DB81DA"></stop>
</linearGradient>
<path fill="url(#SVGID_1_)" d="M284.7,345.1l-17.2,17.1c-10.3,10.3-25.4,25.4-46.4,46.3c-46.4,46.3-56.9,55.1-82.3,52.1
	c-25.3-3-42.8-20.8-50.6-27.7c-7.8-6.9-20.7-17.3-9.4-29.3s15.7-4.2,15.7-4.2c3.1,4.6,16.3,17.5,21.6,20.8c31,19.6,52,0.8,54.6-1.8
	l76.1-76.8l-6.9-6.9c-4.7-4.7-4.7-12.4,0-17.1v0c4.7-4.7,12.4-4.7,17.1,0C257.2,317.6,285.1,344.7,284.7,345.1z M454.5,145
	c-3-25.3-20.8-42.8-27.7-50.6c-6.9-7.8-17.3-20.7-29.3-9.4s-4.2,15.7-4.2,15.7c4.6,3.1,17.5,16.3,20.8,21.6c19.6,31,0.8,52-1.8,54.6
	l-77.4,76.8l-6.9-6.9c-4.7-4.7-12.4-4.7-17.1,0v0c-4.7,4.7-4.7,12.4,0,17.1l24,24l3.5,3.5l0,0l17.1-17.1c10.3-10.3,25.6-25.6,47-47
	C448.7,180.9,457.5,170.4,454.5,145z"></path>
<path d="M149.3,465.2c-22.1,0-44.6-11.3-66.8-33.6c-25.2-25.2-36.3-50.6-33-75.5c2.6-19.3,13.1-31.4,16.3-34.7c0,0,0.1-0.1,0.1-0.1
	l101.6-101.6c1.5-1.5,3.5-2.3,5.7-2.3c0,0,0,0,0,0c2.1,0,4.2,0.8,5.7,2.3l33,33c3.1,3.1,3.1,8.2,0,11.3c-3.1,3.1-8.2,3.1-11.3,0
	l-27.4-27.4l-95.9,95.9c-1.7,1.8-9.9,11-11.9,25.6c-2.6,19.7,6.9,40.6,28.4,62.1c21.5,21.5,42.4,31.1,62.1,28.4
	c14.8-2,24-10.3,25.8-12l95.8-95.8l-43.9-43.9c-3.1-3.1-3.1-8.2,0-11.3c3.1-3.1,8.2-3.1,11.3,0l49.5,49.5c1.5,1.5,2.3,3.5,2.3,5.7
	s-0.8,4.2-2.3,5.7L193,448.1c0,0-0.1,0-0.1,0.1c-3.3,3.2-15.5,13.8-34.9,16.4C155.1,465,152.2,465.2,149.3,465.2z M154,351.6
	c-2,0-4.1-0.8-5.7-2.3c-3.1-3.1-3.1-8.2,0-11.3l96.1-95.9l-52.1-52.1c-3.1-3.1-3.1-8.2,0-11.3c3.1-3.1,8.2-3.1,11.3,0l57.8,57.8
	c1.5,1.5,2.3,3.5,2.3,5.7c0,2.1-0.8,4.2-2.3,5.7L159.7,349.2C158.1,350.8,156.1,351.6,154,351.6z M313.5,340.7c-2,0-4.1-0.8-5.7-2.3
	l-57.7-57.7c-3.1-3.1-3.1-8.2,0-11.3l101.6-101.7c3.1-3.1,8.2-3.1,11.3,0c3.1,3.1,3.1,8.2,0,11.3l-96,96.1l52,52
	c3.1,3.1,3.1,8.2,0,11.3C317.6,339.9,315.6,340.7,313.5,340.7z M338.3,299.5c-2.1,0-4.2-0.8-5.7-2.3l-33-33c-3.1-3.1-3.1-8.2,0-11.3
	c3.1-3.1,8.2-3.1,11.3,0l27.4,27.4l95.8-95.9c1.3-1.3,12.4-12.9,12.4-32c0-17.9-9.7-36.6-28.8-55.7c-21.5-21.5-42.4-31.1-62.1-28.4
	c-14.7,2-23.9,10.3-25.8,12L234,175.9l43.9,43.9c3.1,3.1,3.1,8.2,0,11.3c-3.1,3.1-8.2,3.1-11.3,0L217,181.5
	c-1.5-1.5-2.3-3.5-2.3-5.7c0-2.1,0.8-4.2,2.3-5.7L318.5,68.7c0,0,0.1-0.1,0.1-0.1c3.3-3.2,15.5-13.8,34.8-16.4
	c24.9-3.3,50.3,7.7,75.6,33c22.2,22.2,33.5,44.7,33.5,67c0,25-14.2,40.5-17.1,43.3L344,297.1C342.5,298.6,340.4,299.5,338.3,299.5
	C338.3,299.5,338.3,299.5,338.3,299.5z M344.8,255.9l73.1-73.2c9.9-9.9,21.7-34.7,2.9-64.6c-4-6.4-17.8-20.3-23.1-24
	c-37.7-25.8-64.3-1.8-67.2,1.1c0,0-0.1,0.1-0.1,0.1l-73.1,73.1c-1.5,1.5-2.3,3.5-2.3,5.7c0,2.1,0.8,4.2,2.3,5.7l25.8,25.8
	c3.1,3.1,8.2,3.1,11.3,0c3.1-3.1,3.1-8.2,0-11.3l-20.1-20.1l67.4-67.4c3.3-3.2,20.4-17.5,47,0.7c3.7,2.5,15.8,14.9,18.6,19.3
	c16.6,26.2,1.1,42.9-0.7,44.7l-73.1,73.2c-3.1,3.1-3.1,8.2,0,11.3c1.6,1.6,3.6,2.3,5.7,2.3C341.2,258.3,343.3,257.5,344.8,255.9z
	 M263,174.1 M180.9,419.8C180.9,419.8,181,419.8,180.9,419.8l73.2-73.2c1.5-1.5,2.3-3.5,2.3-5.7s-0.8-4.2-2.3-5.7l-25.8-25.8
	c-3.1-3.1-8.2-3.1-11.3,0c-3.1,3.1-3.1,8.2,0,11.3l20.1,20.1l-67.4,67.4c-3.3,3.2-20.4,17.5-47-0.7c-3.7-2.5-15.8-14.9-18.6-19.3
	c-16.6-26.2-1.1-42.9,0.7-44.7l73.1-73.2c3.1-3.1,3.1-8.2,0-11.3c-3.1-3.1-8.2-3.1-11.3,0l-73.1,73.2c-9.9,9.9-21.7,34.7-2.9,64.6
	c4,6.4,17.8,20.3,23.1,24c12.9,8.8,24.5,11.8,34.3,11.8C166.8,432.7,179,421.7,180.9,419.8z"></path>
<path fill="#DB81DA" class="secondary-color" d="M491.7,95.6l-60.9-60.9h60.9V95.6z"></path>
<path d="M116.2,170.2H29.4c-4.4,0-8-3.6-8-8s3.6-8,8-8h86.8c4.4,0,8,3.6,8,8S120.6,170.2,116.2,170.2z M77.5,104.9c-4.4,0-8,3.6-8,8
	s3.6,8,8,8c14.6,0,26.4-11.8,26.4-26.4S92,68.1,77.5,68.1c-4.4,0-8,3.6-8,8s3.6,8,8,8c5.7,0,10.4,4.7,10.4,10.4
	S83.2,104.9,77.5,104.9z M470.2,278c5,0,9-4.1,9-9s-4.1-9-9-9s-9,4.1-9,9S465.2,278,470.2,278z M278.5,63.6c2,0,4.1-0.8,5.7-2.3
	l10-10c19.1-19.1,44.3-29.6,71.1-29.6c4.4,0,8-3.6,8-8s-3.6-8-8-8c-31,0-60.3,12.2-82.4,34.3l-10,10c-3.1,3.1-3.1,8.2,0,11.3
	C274.4,62.8,276.5,63.6,278.5,63.6z M147.9,182.4H90.5c-4.4,0-8,3.6-8,8s3.6,8,8,8h57.4c4.4,0,8-3.6,8-8S152.3,182.4,147.9,182.4z
	 M470.2,289.5c-5,0-9,4.1-9,9s4.1,9,9,9s9-4.1,9-9S475.2,289.5,470.2,289.5z M300.7,466.3h-3.9v-3.9c0-4.4-3.6-8-8-8s-8,3.6-8,8v3.9
	h-3.9c-4.4,0-8,3.6-8,8s3.6,8,8,8h3.9v3.9c0,4.4,3.6,8,8,8s8-3.6,8-8v-3.9h3.9c4.4,0,8-3.6,8-8S305.1,466.3,300.7,466.3z
	 M439.8,289.6c-4.9,0-9,4-9,9s4,9,9,9s9-4,9-9S444.7,289.6,439.8,289.6z M440.4,433.8H383c-4.4,0-8,3.6-8,8s3.6,8,8,8h57.4
	c4.4,0,8-3.6,8-8S444.8,433.8,440.4,433.8z M416.7,413.7c0-4.4-3.6-8-8-8h-86.8c-4.4,0-8,3.6-8,8s3.6,8,8,8h86.8
	C413.1,421.7,416.7,418.1,416.7,413.7z"></path>
</svg>