<svg version="1.1" id="Layer_1" xmlns="http://www.w3.org/2000/svg" xmlns:xlink="http://www.w3.org/1999/xlink" x="0px" y="0px" viewBox="0 0 512 512" enable-background="new 0 0 512 512" xml:space="preserve">
<linearGradient id="SVGID_1_" gradientUnits="userSpaceOnUse" x1="260.2354" y1="421.7446" x2="260.2354" y2="86.8244" class="gradient-element">
	<stop offset="0" class="primary-color-gradient" style="stop-color: #FFA4ED"></stop>
	<stop offset="1" class="secondary-color-gradient" style="stop-color: #DB81DA"></stop>
</linearGradient>
<path fill="url(#SVGID_1_)" d="M382.3,95.6v296.5c0,12.7-10.3,22.9-22.9,22.9H138.2v0c0-36.2,29.3-65.5,65.5-65.5h24.6
	c21.7,0,39.3-17.6,39.3-39.3V128.9c0-18.4,14.9-33.3,33.3-33.3H382.3z"></path>
<path d="M383.3,424.3H138.2c-4.4,0-8-3.6-8-8V95.8c0-4.4,3.6-8,8-8h245.1c4.4,0,8,3.6,8,8v18.9c0,4.4-3.6,8-8,8s-8-3.6-8-8v-10.9
	H146.2v304.5h229.1v-21.8c0-4.4,3.6-8,8-8s8,3.6,8,8v29.8C391.3,420.7,387.7,424.3,383.3,424.3z M326.7,367.7h-94.3
	c-4.4,0-8-3.6-8-8s3.6-8,8-8h94.3c4.4,0,8,3.6,8,8S331.1,367.7,326.7,367.7z M213.6,367.7h-18.9c-4.4,0-8-3.6-8-8s3.6-8,8-8h18.9
	c4.4,0,8,3.6,8,8S218,367.7,213.6,367.7z M383.3,364.5c-4.4,0-8-3.6-8-8V146c0-4.4,3.6-8,8-8s8,3.6,8,8v210.4
	C391.3,360.9,387.7,364.5,383.3,364.5z M326.7,311.2h-94.3c-4.4,0-8-3.6-8-8s3.6-8,8-8h94.3c4.4,0,8,3.6,8,8
	S331.1,311.2,326.7,311.2z M213.6,311.2h-18.9c-4.4,0-8-3.6-8-8s3.6-8,8-8h18.9c4.4,0,8,3.6,8,8S218,311.2,213.6,311.2z
	 M326.7,254.6h-94.3c-4.4,0-8-3.6-8-8s3.6-8,8-8h94.3c4.4,0,8,3.6,8,8S331.1,254.6,326.7,254.6z M213.6,254.6h-18.9
	c-4.4,0-8-3.6-8-8s3.6-8,8-8h18.9c4.4,0,8,3.6,8,8S218,254.6,213.6,254.6z M326.7,198h-94.3c-4.4,0-8-3.6-8-8s3.6-8,8-8h94.3
	c4.4,0,8,3.6,8,8S331.1,198,326.7,198z M213.6,198h-18.9c-4.4,0-8-3.6-8-8s3.6-8,8-8h18.9c4.4,0,8,3.6,8,8S218,198,213.6,198z"></path>
<path fill="#FFA4ED" class="primary-color" d="M47.9,411.1H26.1v-56.9h21.8V411.1z M158.1,488v-21.8h-56.9V488H158.1z M47.9,466.2v-36.9H26.1v36.9v20v1.8
	H83v-21.8H47.9z"></path>
<path d="M396.9,44.5c0-4.4,3.6-8,8-8c11.4,0,20.8-9.3,20.8-20.8c0-4.4,3.6-8,8-8s8,3.6,8,8c0,20.3-16.5,36.8-36.8,36.8
	C400.5,52.5,396.9,48.9,396.9,44.5z M483.6,52.5c4.4,0,8-3.6,8-8s-3.6-8-8-8c-11.4,0-20.8-9.3-20.8-20.8c0-4.4-3.6-8-8-8s-8,3.6-8,8
	C446.9,36,463.4,52.5,483.6,52.5z M483.6,57.7c-20.3,0-36.8,16.5-36.8,36.8c0,4.4,3.6,8,8,8s8-3.6,8-8c0-11.4,9.3-20.8,20.8-20.8
	c4.4,0,8-3.6,8-8S488.1,57.7,483.6,57.7z M404.9,73.7c11.4,0,20.8,9.3,20.8,20.8c0,4.4,3.6,8,8,8s8-3.6,8-8
	c0-20.3-16.5-36.8-36.8-36.8c-4.4,0-8,3.6-8,8S400.5,73.7,404.9,73.7z M87.2,65.7c0,14.6-11.8,26.4-26.4,26.4S34.4,80.3,34.4,65.7
	s11.8-26.4,26.4-26.4S87.2,51.2,87.2,65.7z M71.2,65.7c0-5.7-4.7-10.4-10.4-10.4S50.4,60,50.4,65.7s4.7,10.4,10.4,10.4
	S71.2,71.5,71.2,65.7z M429.9,348.5h-56c-4.4,0-8,3.6-8,8s3.6,8,8,8h56c4.4,0,8-3.6,8-8S434.3,348.5,429.9,348.5z M416.4,386.5
	c0-4.4-3.6-8-8-8h-73.8c-4.4,0-8,3.6-8,8s3.6,8,8,8h73.8C412.8,394.5,416.4,390.9,416.4,386.5z M466.8,300.3c4.4,0,8-3.6,8-8
	s-3.6-8-8-8h-3.9v-3.9c0-4.4-3.6-8-8-8s-8,3.6-8,8v3.9H443c-4.4,0-8,3.6-8,8s3.6,8,8,8h3.9v3.9c0,4.4,3.6,8,8,8s8-3.6,8-8v-3.9
	H466.8z M423.9,483.1c0,5-4.1,9-9,9s-9-4.1-9-9s4.1-9,9-9S423.9,478.1,423.9,483.1z M453.9,483.1c0,5-4.1,9-9,9s-9-4.1-9-9
	s4.1-9,9-9S453.9,478.1,453.9,483.1z M483.9,483.1c0,5-4.1,9-9,9s-9-4.1-9-9s4.1-9,9-9S483.9,478.1,483.9,483.1z"></path>
</svg>