<svg version="1.1" id="Layer_1" xmlns="http://www.w3.org/2000/svg" xmlns:xlink="http://www.w3.org/1999/xlink" x="0px" y="0px" viewBox="0 0 512 512" enable-background="new 0 0 512 512" xml:space="preserve">
<linearGradient id="SVGID_1_" gradientUnits="userSpaceOnUse" x1="285.4516" y1="441.5592" x2="285.4516" y2="67.9815" class="gradient-element">
	<stop offset="0" class="primary-color-gradient" style="stop-color: #FFA4ED"></stop>
	<stop offset="1" class="secondary-color-gradient" style="stop-color: #DB81DA"></stop>
</linearGradient>
<path fill="url(#SVGID_1_)" d="M381.4,176c0,60.5-102.9,251.2-107.2,259.3l-9.3,17.2l-9.3-17.2l-59.5-119.2
	c-16.3-36.9-3-73.7,47.1-73.7h2.1c8.7,0,16.1-5.7,18.6-13.5c0.3,0,0.7,0,1,0c29.2,0,53-23.7,53-53c0-29.2-23.7-53-53-53V89.7
	c0-17.6,17-30.3,33.8-25.2C346.5,79,381.4,123.5,381.4,176z"></path>
<path d="M264.9,237c-33.6,0-61-27.4-61-61c0-33.6,27.4-61,61-61s61,27.4,61,61C325.8,209.6,298.5,237,264.9,237z M264.9,131
	c-24.8,0-45,20.2-45,45c0,24.8,20.2,45,45,45s45-20.2,45-45C309.8,151.2,289.7,131,264.9,131z M272.9,207.8c0-4.4-3.6-8-8-8
	c-13.1,0-23.8-10.7-23.8-23.8c0-13.1,10.7-23.8,23.8-23.8c4.4,0,8-3.6,8-8s-3.6-8-8-8c-21.9,0-39.8,17.8-39.8,39.8
	c0,21.9,17.8,39.8,39.8,39.8C269.3,215.8,272.9,212.2,272.9,207.8z M264.9,460.5c-2.9,0-5.6-1.6-7-4.2l-9.7-17.9
	c-15.7-29.2-94.3-178.4-106.2-246.5c-0.8-4.4,2.2-8.5,6.5-9.3c4.4-0.8,8.5,2.2,9.3,6.5c11.4,65.7,89.1,212.8,104.5,241.7l2.7,4.9
	l3.1-5.7c18.7-34.7,34.2-66.1,43.9-86.3c1.9-4,6.7-5.7,10.7-3.8c4,1.9,5.7,6.7,3.8,10.7c-9.8,20.4-25.4,52-44.2,87l-0.8,1.5
	l-9.4,17.2C270.5,458.9,267.8,460.5,264.9,460.5z M336.1,318.8c-1.1,0-2.2-0.2-3.3-0.7c-4-1.8-5.8-6.6-3.9-10.6
	c29.6-64.7,44.6-108.9,44.6-131.5c0-59.8-48.7-108.5-108.5-108.5c-52.7,0-97.6,37.6-106.8,89.4c-0.8,4.4-4.9,7.3-9.3,6.5
	c-4.4-0.8-7.3-4.9-6.5-9.3c5-28.4,20-54.4,42.2-73.2c22.4-19,51-29.5,80.4-29.5c68.7,0,124.5,55.9,124.5,124.5
	c0,25.2-15.1,70.4-46,138.1C342,317.1,339.1,318.8,336.1,318.8z"></path>
<g>
	<path fill="#FFA4ED" class="primary-color" d="M141.1,77.5H29.9V33.9h111.2V77.5z"></path>
	<path fill="#DB81DA" class="secondary-color" d="M73.5,147.5H29.9v-43.6h43.6V147.5z M489.6,278.5H446v43.6h43.6V278.5z"></path>
</g>
<path d="M420.7,470.3c-5,0-9,4.1-9,9s4.1,9,9,9s9-4.1,9-9S425.7,470.3,420.7,470.3z M390.7,470.3c-5,0-9,4.1-9,9s4.1,9,9,9
	s9-4.1,9-9S395.7,470.3,390.7,470.3z M480.7,470.3c-5,0-9,4.1-9,9s4.1,9,9,9s9-4.1,9-9S485.7,470.3,480.7,470.3z M450.3,470.3
	c-5,0-9,4.1-9,9s4.1,9,9,9s9-4.1,9-9S455.2,470.3,450.3,470.3z M420.7,457.6c4.9,0,9-4,9-9s-4-9-9-9s-9,4-9,9
	S415.7,457.6,420.7,457.6z M450.3,439.7c-4.9,0-9,4-9,9s4,9,9,9s9-4,9-9S455.2,439.7,450.3,439.7z M480.7,410c-5,0-9,4.1-9,9
	s4.1,9,9,9s9-4.1,9-9S485.7,410,480.7,410z M480.7,439.6c-5,0-9,4.1-9,9s4.1,9,9,9s9-4.1,9-9S485.7,439.6,480.7,439.6z M450.3,410.1
	c-4.9,0-9,4-9,9s4,9,9,9s9-4,9-9S455.2,410.1,450.3,410.1z M471.7,389.4c0,5,4.1,9,9,9s9-4.1,9-9s-4.1-9-9-9
	S471.7,384.4,471.7,389.4z M440.7,90.7V74.9H425c-4.4,0-8-3.6-8-8s3.6-8,8-8h15.8V43.1c0-4.4,3.6-8,8-8s8,3.6,8,8v15.8h15.8
	c4.4,0,8,3.6,8,8s-3.6,8-8,8h-15.8v15.8c0,4.4-3.6,8-8,8S440.7,95.1,440.7,90.7z M35.5,292.9c0-4.4,3.6-8,8-8h15.8v-15.8
	c0-4.4,3.6-8,8-8s8,3.6,8,8v15.8h15.8c4.4,0,8,3.6,8,8s-3.6,8-8,8H75.3v15.8c0,4.4-3.6,8-8,8s-8-3.6-8-8v-15.8H43.5
	C39.1,300.9,35.5,297.3,35.5,292.9z M331.6,481.7c0,4.4-3.6,8-8,8h-58.8c-4.4,0-8-3.6-8-8s3.6-8,8-8h58.8
	C328.1,473.7,331.6,477.3,331.6,481.7z M231.1,481.7c0,4.4-3.6,8-8,8H21.3c-4.4,0-8-3.6-8-8s3.6-8,8-8h201.8
	C227.5,473.7,231.1,477.3,231.1,481.7z M146.1,349.6c-2.2-3.8-0.8-8.7,3-10.9c3.8-2.2,8.7-0.8,10.9,3l58.8,104
	c2.2,3.8,0.8,8.7-3,10.9c-1.2,0.7-2.6,1-3.9,1c-2.8,0-5.5-1.5-7-4.1L146.1,349.6z M367.7,345.7c0,4.4-3.6,8-8,8h-74.3
	c-4.4,0-8-3.6-8-8s3.6-8,8-8h74.3C364.2,337.7,367.7,341.3,367.7,345.7z M367.7,310.8c0,4.4-3.6,8-8,8h-34.9c-4.4,0-8-3.6-8-8
	s3.6-8,8-8h34.9C364.2,302.8,367.7,306.4,367.7,310.8z"></path>
</svg>