<svg version="1.1" id="Layer_1" xmlns="http://www.w3.org/2000/svg" xmlns:xlink="http://www.w3.org/1999/xlink" x="0px" y="0px" viewBox="0 0 512 512" enable-background="new 0 0 512 512" xml:space="preserve">
<g>
	<linearGradient id="SVGID_1_" gradientUnits="userSpaceOnUse" x1="135.1419" y1="134.9789" x2="136.7023" y2="50.715" class="gradient-element">
		<stop offset="0" class="primary-color-gradient" style="stop-color: #FFA4ED"></stop>
		<stop offset="1" class="secondary-color-gradient" style="stop-color: #DB81DA"></stop>
	</linearGradient>
	<path fill="url(#SVGID_1_)" d="M208.1,132.1H84.2c-11.6,0-21-9.4-21-21V77.5c0-11.8,9.6-21.4,21.4-21.4h123.4V132.1z"></path>
	<linearGradient id="SVGID_2_" gradientUnits="userSpaceOnUse" x1="406.0192" y1="279.5392" x2="407.5797" y2="195.2754">
		<stop offset="0" class="primary-color-gradient" style="stop-color: #FFA4ED"></stop>
		<stop offset="1" class="secondary-color-gradient" style="stop-color: #DB81DA"></stop>
	</linearGradient>
	<path fill="url(#SVGID_2_)" d="M479,276.7H355.1c-11.6,0-21-9.4-21-21V222c0-11.8,9.6-21.4,21.4-21.4H479V276.7z"></path>
	<linearGradient id="SVGID_3_" gradientUnits="userSpaceOnUse" x1="134.2801" y1="409.1655" x2="135.8405" y2="324.9016">
		<stop offset="0" class="primary-color-gradient" style="stop-color: #FFA4ED"></stop>
		<stop offset="1" class="secondary-color-gradient" style="stop-color: #DB81DA"></stop>
	</linearGradient>
	<path fill="url(#SVGID_3_)" d="M207.3,406.3H83.4c-11.6,0-21-9.4-21-21v-33.7c0-11.8,9.6-21.4,21.4-21.4h123.4V406.3z"></path>
</g>
<path d="M33,151.7V42.9c0-5.9,4.8-10.8,10.8-10.8h128.7c4.4,0,8,3.6,8,8s-3.6,8-8,8H49v98.3h53.2c4.4,0,8,3.6,8,8s-3.6,8-8,8H43.7
	C37.8,162.4,33,157.6,33,151.7z M168.2,124.1c-4.4,0-8,3.6-8,8s3.6,8,8,8h31.2v6.3h-75.4c-4.4,0-8,3.6-8,8c0,0.2,0,0.3,0,0.5
	c0,0.2,0,0.3,0,0.5v26.3H58.3c-4.4,0-8,3.6-8,8s3.6,8,8,8H98V281c0,4.4,3.6,8,8,8s8-3.6,8-8v-83.2h74.3c4.4,0,8-3.6,8-8s-3.6-8-8-8
	h-56.4v-19.3h72.7c5.9,0,10.8-4.8,10.8-10.8V111H386v41.7c0,4.4,3.6,8,8,8s8-3.6,8-8V103c0-4.4-3.6-8-8-8H215.4V40.2
	c0-4.4-3.6-8-8-8s-8,3.6-8,8v84H168.2z M478.3,176.7c-4.4,0-8,3.6-8,8v84H439c-4.4,0-8,3.6-8,8s3.6,8,8,8h31.2v6.3h-75.4
	c-4.4,0-8,3.6-8,8c0,0.2,0,0.3,0,0.5c0,0.2,0,0.3,0,0.5v26.3h-57.7c-4.4,0-8,3.6-8,8s3.6,8,8,8h130c4.4,0,8-3.6,8-8s-3.6-8-8-8
	h-56.4V307h72.7c5.9,0,10.8-4.8,10.8-10.8V184.7C486.3,180.3,482.7,176.7,478.3,176.7z M303.8,187.5v108.8c0,5.9,4.8,10.8,10.8,10.8
	H373c4.4,0,8-3.6,8-8s-3.6-8-8-8h-53.2v-98.3h123.4c4.4,0,8-3.6,8-8s-3.6-8-8-8H314.6C308.7,176.7,303.8,181.5,303.8,187.5z
	 M109.3,428.6c0-4.4-3.6-8-8-8H48.1v-98.3h123.4c4.4,0,8-3.6,8-8s-3.6-8-8-8H42.9c-5.9,0-10.8,4.8-10.8,10.8v108.8
	c0,5.9,4.8,10.8,10.8,10.8h58.4C105.7,436.6,109.3,433,109.3,428.6z M394,358c-4.4,0-8,3.6-8,8v17H214.5v-68.7c0-4.4-3.6-8-8-8
	s-8,3.6-8,8v84h-31.2c-4.4,0-8,3.6-8,8s3.6,8,8,8h31.2v6.3h-75.4c-4.4,0-8,3.6-8,8c0,0.2,0,0.3,0,0.5c0,0.2,0,0.3,0,0.5V456H57.4
	c-4.4,0-8,3.6-8,8s3.6,8,8,8h130c4.4,0,8-3.6,8-8s-3.6-8-8-8h-56.4v-19.3h72.7c5.9,0,10.8-4.8,10.8-10.8V399H394c4.4,0,8-3.6,8-8
	v-25C402,361.6,398.4,358,394,358z"></path>
<path fill="#DB81DA" class="secondary-color" d="M480.2,462l-36.7,36.7L406.8,462H480.2z"></path>
<path d="M457.2,63.5c0,4.4-3.6,8-8,8h-15.8v15.8c0,4.4-3.6,8-8,8s-8-3.6-8-8V71.5h-15.8c-4.4,0-8-3.6-8-8s3.6-8,8-8h15.8V39.7
	c0-4.4,3.6-8,8-8s8,3.6,8,8v15.8h15.8C453.7,55.5,457.2,59.1,457.2,63.5z M320.1,437.8c0,9.2-7.5,16.8-16.8,16.8
	c-9.3,0-16.8-7.5-16.8-16.8c0-9.3,7.5-16.8,16.8-16.8C312.6,421,320.1,428.5,320.1,437.8z M385.1,437.8c0,9.2-7.5,16.8-16.8,16.8
	c-9.3,0-16.8-7.5-16.8-16.8c0-9.3,7.5-16.8,16.8-16.8C377.6,421,385.1,428.5,385.1,437.8z M231.6,39.8c0-9.2,7.5-16.8,16.8-16.8
	c9.2,0,16.8,7.5,16.8,16.8s-7.5,16.8-16.8,16.8C239.1,56.5,231.6,49,231.6,39.8z M276.5,249.7c0,24.4-19.9,44.3-44.3,44.3
	c-24.4,0-44.3-19.9-44.3-44.3c0-24.4,19.9-44.3,44.3-44.3C256.6,205.5,276.5,225.3,276.5,249.7z M260.5,249.7
	c0-15.6-12.7-28.3-28.3-28.3c-15.6,0-28.3,12.7-28.3,28.3c0,15.6,12.7,28.3,28.3,28.3C247.8,278,260.5,265.3,260.5,249.7z M69,211
	H22c-4.4,0-8,3.6-8,8c0,4.4,3.6,8,8,8h47c4.4,0,8-3.6,8-8C77,214.6,73.4,211,69,211z"></path>
</svg>