<svg version="1.1" id="Layer_1" xmlns="http://www.w3.org/2000/svg" xmlns:xlink="http://www.w3.org/1999/xlink" x="0px" y="0px" viewBox="0 0 512 512" enable-background="new 0 0 512 512" xml:space="preserve">
<linearGradient id="SVGID_1_" gradientUnits="userSpaceOnUse" x1="209.0815" y1="482.8663" x2="209.0815" y2="270.8285" class="gradient-element">
	<stop offset="0" class="primary-color-gradient" style="stop-color: #FFA4ED"></stop>
	<stop offset="1" class="secondary-color-gradient" style="stop-color: #DB81DA"></stop>
</linearGradient>
<path fill="url(#SVGID_1_)" d="M254.2,329c0-30.9,24.7-56,55.3-56h24.6c9.2,0,16.6,7.6,16.6,16.9v177.4c0,9.3-7.4,16.8-16.6,16.8
	H67.5l0-34.6c0-24.7,19.7-44.7,44.1-44.7l54,2.7l-7.5,7.5l15.4,16l33.5-26.1h13.5c4.4,0,24.2,27.7,28,26.1c2.4-1,17.2-7.4,15-16.9
	c-1.7-7.2-17.7-20.4-19.2-19.2C244,395,227,387.4,227,378l19.7-15l19.6-19.6L254.2,329z"></path>
<path d="M174.5,336.3l-7,7l31,31c3.1,3.1,3.1,8.2,0,11.3l-31,31l7,7l31.1-31c3.1-3.1,8.2-3.1,11.3,0l31.1,31l7-7l-31.1-31
	c-1.5-1.5-2.3-3.5-2.3-5.7s0.8-4.2,2.3-5.7l19.6-19.6c3.1-3.1,8.2-3.1,11.3,0c3.1,3.1,3.1,8.2,0,11.3l-13.9,13.9l31.1,31
	c1.5,1.5,2.3,3.5,2.3,5.7s-0.8,4.2-2.3,5.7l-18.4,18.4c-3.1,3.1-8.2,3.1-11.3,0l-31.1-31.1l-31.1,31.1c-1.6,1.6-3.6,2.3-5.7,2.3
	c-2,0-4.1-0.8-5.7-2.3l-18.4-18.4c-3.1-3.1-3.1-8.2,0-11.3l31-31l-31-31c-3.1-3.1-3.1-8.2,0-11.3l18.4-18.4c3.1-3.1,8.2-3.1,11.3,0
	l31.1,31.1l31.1-31.1c3.1-3.1,8.2-3.1,11.3,0l18.4,18.4c3.1,3.1,3.1,8.2,0,11.3c-3.1,3.1-8.2,3.1-11.3,0L248,336.3l-31.1,31
	c-3.1,3.1-8.2,3.1-11.3,0L174.5,336.3z M159,289.1c4.4,0,8-3.6,8-8v-37.3c0-24.4,19.9-44.3,44.3-44.3s44.3,19.9,44.3,44.3
	c0,4.4,3.6,8,8,8s8-3.6,8-8c0-33.2-27-60.3-60.3-60.3s-60.3,27-60.3,60.3v37.3C151,285.5,154.6,289.1,159,289.1z M363,274.7v210.9
	c0,4.4-3.6,8-8,8H67.5c-4.4,0-8-3.6-8-8V274.7c0-4.4,3.6-8,8-8H117v-20.8c0-52,42.3-94.3,94.3-94.3s94.3,42.3,94.3,94.3v20.8H355
	C359.4,266.7,363,270.2,363,274.7z M347,282.7h-49.5c-4.4,0-8-3.6-8-8v-28.8c0-43.2-35.1-78.3-78.3-78.3
	c-43.2,0-78.3,35.1-78.3,78.3v28.8c0,4.4-3.6,8-8,8H75.5v194.9H347V282.7z"></path>
<g>
	<path fill="#FFA4ED" class="primary-color" d="M341,44.6V22.8h142.8v21.8H341z"></path>
	<path fill="#DB81DA" class="secondary-color" d="M341,80.5V58.7h142.8v21.8H341z"></path>
</g>
<path d="M123.1,314.9c0,4.4-3.6,8-8,8h-43c-4.4,0-8-3.6-8-8s3.6-8,8-8h43C119.5,306.9,123.1,310.5,123.1,314.9z M93.6,336.9H19.8
	c-4.4,0-8,3.6-8,8s3.6,8,8,8h73.8c4.4,0,8-3.6,8-8S98,336.9,93.6,336.9z M54.3,165.7H70v15.8c0,4.4,3.6,8,8,8s8-3.6,8-8v-15.8h15.8
	c4.4,0,8-3.6,8-8s-3.6-8-8-8H86V134c0-4.4-3.6-8-8-8s-8,3.6-8,8v15.8H54.3c-4.4,0-8,3.6-8,8S49.8,165.7,54.3,165.7z M442.7,427.2
	h-3.9v-3.9c0-4.4-3.6-8-8-8s-8,3.6-8,8v3.9H419c-4.4,0-8,3.6-8,8s3.6,8,8,8h3.9v3.9c0,4.4,3.6,8,8,8s8-3.6,8-8v-3.9h3.9
	c4.4,0,8-3.6,8-8S447.1,427.2,442.7,427.2z M341.5,130.1c-4.4,0-8,3.6-8,8s3.6,8,8,8c5.7,0,10.4,4.7,10.4,10.4
	c0,5.7-4.7,10.4-10.4,10.4c-4.4,0-8,3.6-8,8s3.6,8,8,8c14.6,0,26.4-11.8,26.4-26.4S356.1,130.1,341.5,130.1z M255.6,75.2H114.2
	c-4.4,0-8,3.6-8,8s3.6,8,8,8h141.4c4.4,0,8-3.6,8-8S260.1,75.2,255.6,75.2z M76.1,40.6c0-5,4.1-9,9-9s9,4.1,9,9s-4.1,9-9,9
	S76.1,45.6,76.1,40.6z M106.1,40.6c0-5,4.1-9,9-9s9,4.1,9,9s-4.1,9-9,9S106.1,45.6,106.1,40.6z M136.1,40.6c0-5,4.1-9,9-9s9,4.1,9,9
	s-4.1,9-9,9S136.1,45.6,136.1,40.6z M379,218c20.3,0,36.8-16.5,36.8-36.8c0-4.4-3.6-8-8-8s-8,3.6-8,8c0,11.4-9.3,20.8-20.8,20.8
	c-4.4,0-8,3.6-8,8S374.6,218,379,218z M457.8,218c4.4,0,8-3.6,8-8s-3.6-8-8-8c-11.4,0-20.8-9.3-20.8-20.8c0-4.4-3.6-8-8-8
	s-8,3.6-8,8C421,201.5,437.5,218,457.8,218z M429,268c4.4,0,8-3.6,8-8c0-11.4,9.3-20.8,20.8-20.8c4.4,0,8-3.6,8-8s-3.6-8-8-8
	c-20.3,0-36.8,16.5-36.8,36.8C421,264.4,424.6,268,429,268z M407.8,268c4.4,0,8-3.6,8-8c0-20.3-16.5-36.8-36.8-36.8
	c-4.4,0-8,3.6-8,8s3.6,8,8,8c11.4,0,20.8,9.3,20.8,20.8C399.8,264.4,403.4,268,407.8,268z M481.2,303.2h-71.9c-4.4,0-8,3.6-8,8
	s3.6,8,8,8h71.9c4.4,0,8-3.6,8-8S485.6,303.2,481.2,303.2z"></path>
</svg>