<svg version="1.1" id="Layer_1" xmlns="http://www.w3.org/2000/svg" xmlns:xlink="http://www.w3.org/1999/xlink" x="0px" y="0px" viewBox="0 0 512 512" enable-background="new 0 0 512 512" xml:space="preserve">
<linearGradient id="SVGID_1_" gradientUnits="userSpaceOnUse" x1="-8614.3633" y1="8935.6621" x2="-8215.0146" y2="8935.6621" gradientTransform="matrix(0 1 1 0 -8670.9092 8675.6035)" class="gradient-element">
	<stop offset="0" class="primary-color-gradient" style="stop-color: #FFA4ED"></stop>
	<stop offset="1" class="secondary-color-gradient" style="stop-color: #DB81DA"></stop>
</linearGradient>
<path fill="url(#SVGID_1_)" d="M404.1,424.8c0,35-28.3,35.7-63.3,35.7l-179.4,0c-11.8,1.1-33.1-15-36-39c0-24.9,9.5-37.4,34.5-37.4
	l135.5-0.7c24.9,0,45.2-20.2,45.2-45.2V110.7c0-22.2-1.3-44.7,20.9-45.3c12-0.3,26.9-8.6,34.7-0.8c7.6,7.5,8.1,30.9,8.1,42.4v166.5
	V424.8z M389.4,267.4"></path>
<path d="M367.9,154.1h-20.9c-4.4,0-8-3.6-8-8s3.6-8,8-8h20.9c4.4,0,8,3.6,8,8S372.3,154.1,367.9,154.1z M407.9,462.5
	c0-4.4-3.6-8-8-8H175.7c-25,0-45.4-20.4-45.4-45.4v-299c0-25,20.4-45.4,45.4-45.4h216.2v347.1H175.7c-4.4,0-8,3.6-8,8s3.6,8,8,8
	h224.2c4.4,0,8-3.6,8-8V56.7c0-4.4-3.6-8-8-8H175.7c-33.9,0-61.4,27.5-61.4,61.4v299c0,33.9,27.5,61.4,61.4,61.4h224.2
	C404.3,470.5,407.9,466.9,407.9,462.5z M247.7,224.8c0-4.4-3.6-8-8-8h-64.1c-4.4,0-8,3.6-8,8c0,4.4,3.6,8,8,8h64.1
	C244.1,232.8,247.7,229.2,247.7,224.8z M203.4,286.6c0-4.4-3.6-8-8-8h-20.9c-4.4,0-8,3.6-8,8s3.6,8,8,8h20.9
	C199.9,294.6,203.4,291,203.4,286.6z M247.7,254.8c0-4.4-3.6-8-8-8h-64.1c-4.4,0-8,3.6-8,8s3.6,8,8,8h64.1
	C244.1,262.8,247.7,259.2,247.7,254.8z M375.9,338.3c0-4.4-3.6-8-8-8H239.7c-4.4,0-8,3.6-8,8s3.6,8,8,8h128.1
	C372.3,346.3,375.9,342.7,375.9,338.3z M375.9,381c0-4.4-3.6-8-8-8H239.7c-4.4,0-8,3.6-8,8s3.6,8,8,8h128.1
	C372.3,389,375.9,385.4,375.9,381z M379.1,119.2c0-4.4-3.6-8-8-8H174.5c-4.4,0-8,3.6-8,8s3.6,8,8,8h196.5
	C375.5,127.2,379.1,123.6,379.1,119.2z"></path>
<path d="M455.9,146.1V59.3c0-4.4,3.6-8,8-8s8,3.6,8,8v86.8c0,4.4-3.6,8-8,8S455.9,150.6,455.9,146.1z M492,93c4.4,0,8-3.6,8-8V27.6
	c0-4.4-3.6-8-8-8s-8,3.6-8,8V85C484,89.5,487.6,93,492,93z M65.3,387.2c-4.4,0-8,3.6-8,8v59.2c0,4.4,3.6,8,8,8s8-3.6,8-8v-59.2
	C73.3,390.8,69.7,387.2,65.3,387.2z M71.7,34.5c0-4.4-3.6-8-8-8s-8,3.6-8,8c0,5.7-4.7,10.4-10.4,10.4s-10.4-4.7-10.4-10.4
	c0-4.4-3.6-8-8-8s-8,3.6-8,8c0,14.6,11.8,26.4,26.4,26.4S71.7,49,71.7,34.5z M88.6,304.5h-3.9v-3.9c0-4.4-3.6-8-8-8s-8,3.6-8,8v3.9
	h-3.9c-4.4,0-8,3.6-8,8s3.6,8,8,8h3.9v3.9c0,4.4,3.6,8,8,8s8-3.6,8-8v-3.9h3.9c4.4,0,8-3.6,8-8S93,304.5,88.6,304.5z M500.5,244.6
	h-15.8v-15.8c0-4.4-3.6-8-8-8s-8,3.6-8,8v15.8H453c-4.4,0-8,3.6-8,8s3.6,8,8,8h15.8v15.8c0,4.4,3.6,8,8,8s8-3.6,8-8v-15.8h15.8
	c4.4,0,8-3.6,8-8S504.9,244.6,500.5,244.6z"></path>
</svg>