<svg version="1.1" id="Layer_1" xmlns="http://www.w3.org/2000/svg" xmlns:xlink="http://www.w3.org/1999/xlink" x="0px" y="0px" viewBox="0 0 512 512" enable-background="new 0 0 512 512" xml:space="preserve">
<linearGradient id="SVGID_1_" gradientUnits="userSpaceOnUse" x1="249.5013" y1="422.7087" x2="249.5013" y2="159.7011" class="gradient-element">
	<stop offset="0" class="primary-color-gradient" style="stop-color: #FFA4ED"></stop>
	<stop offset="1" class="secondary-color-gradient" style="stop-color: #DB81DA"></stop>
</linearGradient>
<path fill="url(#SVGID_1_)" d="M386.3,169.4l-38.6,38.6l-18.5,18.5L111.3,444.3c0.1-0.1,0.2-0.2,0.3-0.3c4.7-5.1,2.5-12.2-2.1-16.8
	c0,0-0.1-0.1-0.1-0.1l209.7-209.7l18.5-18.5l38.6-38.6c3.7-3.7,3.9-8.4,2.1-12.5C386.9,150.4,393.8,161.8,386.3,169.4z"></path>
<path d="M396.9,156.7c-2.1-7.9-8.8-14.6-16.7-16.7c-6.7-1.8-13.4,0-18.3,4.9l-35.5,35.5c0,0,0,0,0,0c0,0,0,0,0,0
	c0,0-239.4,239.4-239.4,239.4s0,0,0,0l0,0v0c-0.2,0.2-0.4,0.5-0.6,0.7c-3.3,3.7-4.8,8.7-4.3,13.9c0.5,5.1,2.9,9.9,6.7,13.8
	c4.5,4.5,10.3,6.8,15.8,6.8c4.4,0,8.6-1.5,11.9-4.4c0.2-0.2,0.4-0.4,0.6-0.6l0,0c0,0,0,0,0,0c0,0,217.9-217.9,217.9-217.9
	c3.1-3.1,3.1-8.2,0-11.3c-3.1-3.1-8.2-3.1-11.3,0l-205,205c-0.5-0.8-1.1-1.6-1.7-2.3c-0.2-0.2-0.4-0.4-0.6-0.7
	c-0.2-0.2-0.3-0.4-0.5-0.5c-0.2-0.2-0.4-0.4-0.6-0.7c-0.3-0.3-0.5-0.5-0.8-0.8c-0.1-0.1-0.2-0.1-0.2-0.2c-0.3-0.2-0.5-0.4-0.8-0.7
	c-0.7-0.6-1.5-1.2-2.3-1.7l226.5-226.5c0.7-0.7,1.5-1.1,2.8-0.7c2.4,0.6,4.8,3.1,5.4,5.4c0.4,1.4,0,2.1-0.7,2.8l-3,3
	c-3.1,3.1-3.1,8.2,0,11.3c3.1,3.1,8.2,3.1,11.3,0l38.6-38.6C396.9,170,398.7,163.4,396.9,156.7z M97.8,432.8c0-0.4-0.1-1.3,0.4-1.7
	c0,0,0,0,0,0c0.3-0.3,0.9-0.4,1.3-0.4c0.2,0,0.3,0,0.4,0c1.2,0.1,2.4,0.7,3.5,1.6c0.1,0.1,0.2,0.2,0.3,0.3c0.1,0.1,0.1,0.1,0.2,0.2
	c2.3,2.3,2.4,5.1,1.7,5.8c0,0,0,0,0,0c-0.7,0.7-3.5,0.6-5.8-1.7C98.7,435.7,98,434.2,97.8,432.8z M380.7,163.6l-22.2,22.2
	c-1.9-3-4.5-5.6-7.5-7.5l22.2-22.2c0.7-0.7,1.5-1.1,2.8-0.7c2.4,0.6,4.8,3.1,5.4,5.4C381.8,162.2,381.4,162.9,380.7,163.6z
	 M299.9,135.3c1.7-4.1,6.4-6,10.5-4.3l18.7,7.7c4.1,1.7,6,6.4,4.3,10.5c-1.3,3.1-4.3,4.9-7.4,4.9c-1,0-2.1-0.2-3.1-0.6l-18.7-7.7
	C300.1,144,298.2,139.3,299.9,135.3z M336.3,100.4c-1.7-4.1,0.2-8.8,4.3-10.5c4.1-1.7,8.8,0.2,10.5,4.3l7.7,18.7
	c1.7,4.1-0.2,8.8-4.3,10.5c-1,0.4-2,0.6-3.1,0.6c-3.1,0-6.1-1.9-7.4-4.9L336.3,100.4z M383.4,109.7l7.7-18.7c1.7-4.1,6.4-6,10.5-4.3
	c4.1,1.7,6,6.4,4.3,10.5l-7.7,18.7c-1.3,3.1-4.3,4.9-7.4,4.9c-1,0-2.1-0.2-3.1-0.6C383.6,118.4,381.7,113.8,383.4,109.7z
	 M413.7,223.3c1.7,4.1-0.2,8.8-4.3,10.5c-1,0.4-2,0.6-3.1,0.6c-3.1,0-6.1-1.9-7.4-4.9l-7.7-18.7c-1.7-4.1,0.2-8.8,4.3-10.5
	c4.1-1.7,8.8,0.2,10.5,4.3L413.7,223.3z M450.1,188.4c-1.3,3.1-4.3,4.9-7.4,4.9c-1,0-2.1-0.2-3.1-0.6L421,185
	c-4.1-1.7-6-6.4-4.3-10.5c1.7-4.1,6.4-6,10.5-4.3l18.7,7.7C449.9,179.6,451.8,184.3,450.1,188.4z M420.9,146.3
	c-3.1,0-6.1-1.9-7.4-4.9c-1.7-4.1,0.2-8.8,4.3-10.5l18.7-7.7c4.1-1.7,8.8,0.2,10.5,4.3c1.7,4.1-0.2,8.8-4.3,10.5l-18.7,7.7
	C422.9,146.1,421.9,146.3,420.9,146.3z"></path>
<path d="M156,247.6c0,4.4-3.6,8-8,8c-20.3,0-36.8-16.5-36.8-36.8c0-4.4,3.6-8,8-8s8,3.6,8,8c0,11.4,9.3,20.8,20.8,20.8
	C152.4,239.6,156,243.2,156,247.6z M98,210.8c-4.4,0-8,3.6-8,8c0,11.4-9.3,20.8-20.8,20.8c-4.4,0-8,3.6-8,8s3.6,8,8,8
	c20.3,0,36.8-16.5,36.8-36.8C106,214.4,102.4,210.8,98,210.8z M205.7,144.6h-57.4c-4.4,0-8,3.6-8,8s3.6,8,8,8h57.4c4.4,0,8-3.6,8-8
	S210.1,144.6,205.7,144.6z M69.3,260.8c-4.4,0-8,3.6-8,8s3.6,8,8,8c11.4,0,20.8,9.3,20.8,20.8c0,4.4,3.6,8,8,8s8-3.6,8-8
	C106,277.3,89.5,260.8,69.3,260.8z M472.6,456.4c4.6,2,9.9-0.1,11.9-4.6c2-4.6-0.1-9.9-4.6-11.9c-4.6-2-9.9,0.1-11.9,4.7
	C465.9,449.1,468,454.4,472.6,456.4z M77.7,132h86.8c4.4,0,8-3.6,8-8s-3.6-8-8-8H77.7c-4.4,0-8,3.6-8,8S73.3,132,77.7,132z
	 M148,260.8c-20.3,0-36.8,16.5-36.8,36.8c0,4.4,3.6,8,8,8s8-3.6,8-8c0-11.4,9.3-20.8,20.8-20.8c4.4,0,8-3.6,8-8
	S152.4,260.8,148,260.8z M456.3,334.1h-86.8c-4.4,0-8,3.6-8,8s3.6,8,8,8h86.8c4.4,0,8-3.6,8-8S460.7,334.1,456.3,334.1z
	 M445.8,468.9c-4.9,0-9,4-9,9s4,9,9,9s9-4,9-9S450.7,468.9,445.8,468.9z M476.2,468.8c-5,0-9,4.1-9,9s4.1,9,9,9s9-4.1,9-9
	S481.2,468.8,476.2,468.8z M316.9,418.1h-15.8v-15.8c0-4.4-3.6-8-8-8s-8,3.6-8,8v15.8h-15.8c-4.4,0-8,3.6-8,8s3.6,8,8,8h15.8v15.8
	c0,4.4,3.6,8,8,8s8-3.6,8-8v-15.8h15.8c4.4,0,8-3.6,8-8S321.3,418.1,316.9,418.1z M393.7,313.5c0-4.4-3.6-8-8-8h-57.4
	c-4.4,0-8,3.6-8,8s3.6,8,8,8h57.4C390.1,321.5,393.7,318,393.7,313.5z M245.6,60.4h-3.9v-3.9c0-4.4-3.6-8-8-8s-8,3.6-8,8v3.9h-3.9
	c-4.4,0-8,3.6-8,8s3.6,8,8,8h3.9v3.9c0,4.4,3.6,8,8,8s8-3.6,8-8v-3.9h3.9c4.4,0,8-3.6,8-8S250.1,60.4,245.6,60.4z"></path>
<g>
	<path fill="#FFA4ED" class="primary-color" d="M55.5,488.3H20.9v-34.7h34.7V488.3z"></path>
	<path fill="#FFA4ED" class="primary-color" d="M493.5,57h-34.7V22.4h34.7V57z"></path>
	<path fill="#DB81DA" class="secondary-color" d="M441.4,57h-34.7V22.4h34.7V57z"></path>
</g>
</svg>