<svg version="1.1" id="Layer_1" xmlns="http://www.w3.org/2000/svg" xmlns:xlink="http://www.w3.org/1999/xlink" x="0px" y="0px" viewBox="0 0 512 512" enable-background="new 0 0 512 512" xml:space="preserve">
<linearGradient id="SVGID_1_" gradientUnits="userSpaceOnUse" x1="315.6932" y1="414.3911" x2="315.6932" y2="52.64" class="gradient-element">
	<stop offset="0" class="primary-color-gradient" style="stop-color: #FFA4ED"></stop>
	<stop offset="1" class="secondary-color-gradient" style="stop-color: #DB81DA"></stop>
</linearGradient>
<path fill="url(#SVGID_1_)" d="M447.2,79.3c-20.7-20.7-53.6-39.6-90.6-43.3c-4.4-0.4-6.1,5.6-2,7.5c18,8.1,33.6,19.2,45.3,31
	c40.8,40.8,74.3,128.2,0,202.5l-99.8,99.8c-11,11-11,28.9,0,40l6.1,6.1l141-141C521.5,207.5,488,120,447.2,79.3z M248,125
	l-99.6,99.6c-11,11-11,28.9,0,39.9l6.2,6.2l140.7-140.7c5.4-5.4,10.7-9.7,16-13c5.9-3.8,4.1-12.9-2.8-14.2
	C291,99.3,269.8,103.1,248,125z"></path>
<path fill="#000000" d="M355.4,370.6c3.1,3.1,3.1,8.2,0,11.3c-3.1,3.1-8.2,3.1-11.3,0l-45-45l-39.3,39.3l39.3,39.3l27.2-27.2
	c3.1-3.1,8.2-3.1,11.3,0c3.1,3.1,3.1,8.2,0,11.3l-32.9,32.9c-1.6,1.6-3.6,2.3-5.7,2.3s-4.1-0.8-5.7-2.3l-50.6-50.6
	c-3.1-3.1-3.1-8.2,0-11.3l50.6-50.6c0.3-0.3,0.6-0.6,1-0.8c0.2-0.3,0.5-0.7,0.8-1l93.7-93.7c18.2-18.2,24.7-37.7,19.2-57.8
	c-4.5-16.5-15.8-28.8-19.2-32.2c-10.6-10.4-48.7-41.3-89.9,0L152.9,280.7c-3.1,3.1-8.2,3.1-11.3,0L90.9,230
	c-1.5-1.5-2.3-3.5-2.3-5.7s0.8-4.2,2.3-5.7l50.6-50.6c0,0,0,0,0,0l45-45c3.1-3.1,8.2-3.1,11.3,0c3.1,3.1,3.1,8.2,0,11.3l-45,45
	c0,0,0,0,0,0l-44.9,44.9l39.3,39.3l39.3-39.3l-26.3-26.3c-3.1-3.1-3.1-8.2,0-11.3c3.1-3.1,8.2-3.1,11.3,0l26.3,26.3l89.8-89.8
	c27.2-27.2,53.6-28,71-23.8c20.6,4.9,35.9,18.3,41.5,23.8c5.3,5.3,18,19.5,23.4,39.3c4.9,17.9,4.8,45.2-23.3,73.3l-89.8,89.8
	L355.4,370.6z M434.3,280.3L363.6,351c-3.1,3.1-3.1,8.2,0,11.3c1.6,1.6,3.6,2.3,5.7,2.3c2,0,4.1-0.8,5.7-2.3l70.7-70.7
	c3.1-3.1,3.1-8.2,0-11.3C442.5,277.2,437.5,277.2,434.3,280.3z M494.2,153.2c-6.2-29.8-22-59.2-43.4-80.6
	c-24.5-24.5-59.4-41.5-93.4-45.4C326.8,23.6,281,28.6,237,72.6l-20.5,20.5c-3.1,3.1-3.1,8.2,0,11.3c3.1,3.1,8.2,3.1,11.3,0
	l20.5-20.5c70.1-70.1,152.8-38.4,191.2,0c38.1,38.1,60.6,106.5,20.2,166.8c-2.5,3.7-1.5,8.6,2.2,11.1c1.4,0.9,2.9,1.4,4.4,1.4
	c2.6,0,5.1-1.2,6.7-3.5C494.6,227.4,502,190.6,494.2,153.2z M69.9,254.8c-4.2,4.2-4.2,11,0,15.2c4.2,4.2,11,4.2,15.2,0
	s4.2-11,0-15.2S74.1,250.6,69.9,254.8z M191.8,436.6c22.6,0,40.9-18.3,40.9-40.9c0-4.4-3.6-8-8-8s-8,3.6-8,8
	c0,13.7-11.2,24.9-24.9,24.9h-32.2c-22.6,0-40.9,18.3-40.9,40.9c0,4.4,3.6,8,8,8s8-3.6,8-8c0-13.7,11.2-24.9,24.9-24.9H191.8z
	 M264,427.1c-4.4,0-8,3.6-8,8c0,13.7-11.2,24.9-24.9,24.9h-32.2c-22.6,0-40.9,18.3-40.9,40.9c0,4.4,3.6,8,8,8s8-3.6,8-8
	c0-13.7,11.2-24.9,24.9-24.9h32.2c22.6,0,40.9-18.3,40.9-40.9C272,430.7,268.5,427.1,264,427.1z M99.8,283.9c-4.2,4.2-4.2,11,0,15.2
	c4.2,4.2,11,4.2,15.2,0s4.2-11,0-15.2C110.8,279.7,104,279.7,99.8,283.9z M37.2,287.6c-4.2,4.2-4.2,11,0,15.2c4.2,4.2,11,4.2,15.2,0
	s4.2-11,0-15.2C48.2,283.4,41.4,283.4,37.2,287.6z M67.1,318.6c-4.2,4.2-4.2,11,0,15.2c4.2,4.2,11,4.2,15.2,0c4.2-4.2,4.2-11,0-15.2
	C78.1,314.5,71.3,314.5,67.1,318.6z M69.9,287.6c-4.2,4.2-4.2,11,0,15.2c4.2,4.2,11,4.2,15.2,0s4.2-11,0-15.2
	C80.9,283.4,74.1,283.4,69.9,287.6z M37.2,322.3c-4.2,4.2-4.2,11,0,15.2c4.2,4.2,11,4.2,15.2,0s4.2-11,0-15.2
	C48.2,318.1,41.4,318.1,37.2,322.3z"></path>
<g>
	<path fill="#FFA4ED" class="primary-color" d="M24.3,25.7h44.5v44.5H24.3V25.7z"></path>
	<path fill="#DB81DA" class="secondary-color" d="M92.7,25.7h44.5v44.5H92.7V25.7z M160.6,70.2h22.2V25.7h-22.2V70.2z"></path>
</g>
<path d="M66.3,186.1c0,4.4-3.6,8-8,8h-3.9v3.9c0,4.4-3.6,8-8,8s-8-3.6-8-8v-3.9h-3.9c-4.4,0-8-3.6-8-8s3.6-8,8-8h3.9v-3.9
	c0-4.4,3.6-8,8-8s8,3.6,8,8v3.9h3.9C62.7,178.1,66.3,181.7,66.3,186.1z M473.2,345.6c-3.1-3.1-8.2-3.1-11.3,0l-11.2,11.2l-11.2-11.2
	c-3.1-3.1-8.2-3.1-11.3,0c-3.1,3.1-3.1,8.2,0,11.3l11.2,11.2l-11.2,11.2c-3.1,3.1-3.1,8.2,0,11.3c1.6,1.6,3.6,2.3,5.7,2.3
	s4.1-0.8,5.7-2.3l11.2-11.2l11.2,11.2c1.6,1.6,3.6,2.3,5.7,2.3s4.1-0.8,5.7-2.3c3.1-3.1,3.1-8.2,0-11.3L462,368.1l11.2-11.2
	C476.3,353.8,476.3,348.7,473.2,345.6z M446.9,264.5h43c4.4,0,8-3.6,8-8s-3.6-8-8-8h-43c-4.4,0-8,3.6-8,8S442.5,264.5,446.9,264.5z
	 M489.9,276.4h-88.1c-4.4,0-8,3.6-8,8s3.6,8,8,8h88.1c4.4,0,8-3.6,8-8S494.3,276.4,489.9,276.4z M255.5,91.5H87.8c-4.4,0-8,3.6-8,8
	s3.6,8,8,8h167.7c4.4,0,8-3.6,8-8S260,91.5,255.5,91.5z M217.8,120.7h-67.4c-4.4,0-8,3.6-8,8s3.6,8,8,8h67.4c4.4,0,8-3.6,8-8
	S222.3,120.7,217.8,120.7z M388.6,413.2l-62.3,62.3c-3.1,3.1-3.1,8.2,0,11.3c1.6,1.6,3.6,2.3,5.7,2.3s4.1-0.8,5.7-2.3l62.3-62.3
	c3.1-3.1,3.1-8.2,0-11.3C396.8,410.1,391.7,410.1,388.6,413.2z"></path>
</svg>