<svg version="1.1" id="Layer_1" xmlns="http://www.w3.org/2000/svg" xmlns:xlink="http://www.w3.org/1999/xlink" x="0px" y="0px" viewBox="0 0 512 512" enable-background="new 0 0 512 512" xml:space="preserve">
<linearGradient id="SVGID_1_" gradientUnits="userSpaceOnUse" x1="265.3813" y1="271.6029" x2="265.3813" y2="123.8134" class="gradient-element">
	<stop offset="0" class="primary-color-gradient" style="stop-color: #FFA4ED"></stop>
	<stop offset="1" class="secondary-color-gradient" style="stop-color: #DB81DA"></stop>
</linearGradient>
<path fill="url(#SVGID_1_)" d="M133.2,261.8V146.4c0-10.5,12.1-16.3,20.3-9.7L257.6,220c4.6,3.6,11,3.6,15.6,0l104.1-83.3
	c8.2-6.5,20.3-0.7,20.3,9.7v115.4c0,6.9-5.6,12.5-12.5,12.5H145.7C138.8,274.3,133.2,268.7,133.2,261.8z"></path>
<path d="M59.2,498.6c-0.4,0-0.8,0-1.1-0.1c-4.4-0.6-7.4-4.7-6.8-9.1l2-13.7c11.8-82.3,44-95.6,84.8-112.4c7.3-3,14.7-6,22.8-9.8
	c25.8-11.9,33.4-17.4,35.5-23.3h-87.3c-17.7,0-32-14.4-32-32V143.6c0-4.4,3.6-8,8-8s8,3.6,8,8v114.1l99.4-79.5l-88.3-70.7
	c-3.5-2.8-4-7.8-1.2-11.2c2.8-3.5,7.8-4,11.2-1.2l96,76.8c0.1,0.1,0.2,0.1,0.3,0.2l55,44l55-44c0.1-0.1,0.1-0.1,0.2-0.2l116.7-93.3
	c-1.6-7.1-8-12.5-15.6-12.5H109.1c-8.8,0-16,7.2-16,16v30.8c0,4.4-3.6,8-8,8s-8-3.6-8-8V82c0-17.7,14.4-32,32-32h312.5
	c17.6,0,32,14.3,32,32c0,0,0,0.1,0,0.1v216.3c0,17.7-14.4,32-32,32h-87.3c2.2,5.9,9.7,11.4,35.5,23.3c7.7,3.6,14.8,6.5,21.7,9.3
	l1.1,0.5c4.1,1.7,6,6.4,4.3,10.4c-1.7,4.1-6.4,6-10.4,4.3l-1.1-0.5c-7-2.9-14.3-5.9-22.3-9.6c-36-16.6-45.7-24.2-45.7-45.8
	c0-4.4,3.6-8,8-8h96.2c8.8,0,16-7.2,16-16v-20.2l-112.2-89.8l-55.1,44.1c-2.9,2.3-7.1,2.3-10,0l-55.1-44.1L93.1,278.2v20.2
	c0,8.8,7.2,16,16,16h96.1c4.4,0,8,3.6,8,8c0,21.6-9.7,29.2-45.7,45.8c-8.4,3.9-16.3,7.1-23.3,10c-39,16-64.7,26.6-75.2,99.9l-2,13.7
	C66.6,495.8,63.2,498.6,59.2,498.6z M338.3,178.1l99.4,79.5v-159L338.3,178.1z M471.5,498.6H109.8c-4.4,0-8-3.6-8-8s3.6-8,8-8h352.5
	l-0.7-4.6c-4.5-31.2-10.3-49.5-20.3-63.1c-2.6-3.6-1.8-8.6,1.7-11.2s8.6-1.8,11.2,1.7c11.6,15.9,18.4,36.3,23.2,70.3l2,13.7
	c0.3,2.3-0.4,4.6-1.9,6.4C476.1,497.6,473.9,498.6,471.5,498.6z"></path>
<path d="M476.3,409.2c0,4.4-3.6,8-8,8H327.9c-4.4,0-8-3.6-8-8s3.6-8,8-8h140.3C472.7,401.2,476.3,404.7,476.3,409.2z M49.3,300.1
	h-1.7v-1.7c0-4.4-3.6-8-8-8s-8,3.6-8,8v1.7h-1.7c-4.4,0-8,3.6-8,8s3.6,8,8,8h1.7v1.7c0,4.4,3.6,8,8,8s8-3.6,8-8v-1.7h1.7
	c4.4,0,8-3.6,8-8S53.8,300.1,49.3,300.1z M450.2,50h15.8v15.8c0,4.4,3.6,8,8,8s8-3.6,8-8V50h15.8c4.4,0,8-3.6,8-8s-3.6-8-8-8h-15.8
	V18.2c0-4.4-3.6-8-8-8s-8,3.6-8,8V34h-15.8c-4.4,0-8,3.6-8,8S445.7,50,450.2,50z M495.4,326.1h-43c-4.4,0-8,3.6-8,8s3.6,8,8,8h43
	c4.4,0,8-3.6,8-8S499.9,326.1,495.4,326.1z M355.8,379.9h73.8c4.4,0,8-3.6,8-8s-3.6-8-8-8h-73.8c-4.4,0-8,3.6-8,8
	S351.3,379.9,355.8,379.9z"></path>
<path fill="#DB81DA" class="secondary-color" d="M57,62.6H22.3V27.9H57V62.6z"></path>
</svg>