<svg version="1.1" id="Layer_1" xmlns="http://www.w3.org/2000/svg" xmlns:xlink="http://www.w3.org/1999/xlink" x="0px" y="0px" viewBox="0 0 512 512" enable-background="new 0 0 512 512" xml:space="preserve">
<linearGradient id="SVGID_1_" gradientUnits="userSpaceOnUse" x1="16.3879" y1="278.4377" x2="417.2021" y2="278.4377" class="gradient-element">
	<stop offset="0" class="primary-color-gradient" style="stop-color: #FFA4ED"></stop>
	<stop offset="1" class="secondary-color-gradient" style="stop-color: #DB81DA"></stop>
</linearGradient>
<path fill="url(#SVGID_1_)" d="M300.6,128.1h116.6v300.6H239.6H217H16.4v-39.2c0-24.8,20.1-44.9,44.9-44.9h73.3
	c45.5,0,82.4-36.9,82.4-82.4v-50.5C217,165.6,254.4,128.1,300.6,128.1z"></path>
<path d="M417.2,436.7H16.4c-4.4,0-8-3.6-8-8c0-0.2,0-0.3,0-0.5c-0.1-1.8,0.5-3.6,1.7-5.1l128.1-166L24.4,151v227c0,4.4-3.6,8-8,8
	s-8-3.6-8-8V132.6c0,0,0,0,0-0.1v-4.4c0-4.4,3.6-8,8-8h400.8c4.4,0,8,3.6,8,8c0,0.8-0.1,1.5-0.3,2.2c0.8,2.8,0,5.9-2.2,8.1
	L295.4,257.1l113.8,147.4V261.3c0-4.4,3.6-8,8-8s8,3.6,8,8v167.5C425.2,433.2,421.6,436.7,417.2,436.7z M32.7,420h368.2L283.6,268.1
	l-61.4,57.2c-3.1,2.9-7.8,2.9-10.9,0L150,268.1L32.7,420z M31.9,136.1l184.9,172.4l184.8-172.4H31.9z M417.2,234c-4.4,0-8-3.6-8-8
	v-54.6c0-4.4,3.6-8,8-8s8,3.6,8,8V226C425.2,230.4,421.6,234,417.2,234z"></path>
<g>
	<path fill="#DB81DA" class="secondary-color" d="M122.7,95.9V74.1h56.9v21.8H122.7z M84.6,95.9V74.1H27.6v21.8H84.6z"></path>
	<path fill="#FFA4ED" class="primary-color" d="M217.8,95.9V74.1h56.9v21.8H217.8z"></path>
</g>
<path d="M503.4,51.2c0,4.4-3.6,8-8,8h-15.8v15.8c0,4.4-3.6,8-8,8s-8-3.6-8-8V59.2h-15.8c-4.4,0-8-3.6-8-8s3.6-8,8-8h15.8V27.4
	c0-4.4,3.6-8,8-8s8,3.6,8,8v15.8h15.8C499.8,43.2,503.4,46.7,503.4,51.2z M461,252.3h-87.6c-4.4,0-8,3.6-8,8s3.6,8,8,8H461
	c4.4,0,8-3.6,8-8S465.4,252.3,461,252.3z M462,217h-43.8c-4.4,0-8,3.6-8,8s3.6,8,8,8H462c4.4,0,8-3.6,8-8S466.4,217,462,217z
	 M320.3,59.2h87.6c4.4,0,8-3.6,8-8s-3.6-8-8-8h-87.6c-4.4,0-8,3.6-8,8S315.9,59.2,320.3,59.2z M417.2,472.2H239.6c-4.4,0-8,3.6-8,8
	s3.6,8,8,8h177.6c4.4,0,8-3.6,8-8S421.6,472.2,417.2,472.2z M181.9,480.2c0,5-4.1,9-9,9s-9-4.1-9-9s4.1-9,9-9
	S181.9,475.2,181.9,480.2z M211.9,480.2c0,5-4.1,9-9,9s-9-4.1-9-9s4.1-9,9-9S211.9,475.2,211.9,480.2z M498,369
	c0,14.6-11.8,26.4-26.4,26.4s-26.4-11.8-26.4-26.4s11.8-26.4,26.4-26.4S498,354.5,498,369z M482,369c0-5.7-4.7-10.4-10.4-10.4
	s-10.4,4.7-10.4,10.4s4.7,10.4,10.4,10.4S482,374.8,482,369z"></path>
</svg>