<svg version="1.1" id="Layer_1" xmlns="http://www.w3.org/2000/svg" xmlns:xlink="http://www.w3.org/1999/xlink" x="0px" y="0px" viewBox="0 0 512 512" enable-background="new 0 0 512 512" xml:space="preserve">
<linearGradient id="SVGID_1_" gradientUnits="userSpaceOnUse" x1="55.3879" y1="260.4377" x2="456.2021" y2="260.4377" class="gradient-element">
	<stop offset="0" class="primary-color-gradient" style="stop-color: #FFA4ED"></stop>
	<stop offset="1" class="secondary-color-gradient" style="stop-color: #DB81DA"></stop>
</linearGradient>
<path fill="url(#SVGID_1_)" d="M339.6,110.1h116.6v300.6H278.6H256H55.4v-39.2c0-24.8,20.1-44.9,44.9-44.9h73.3
	c45.5,0,82.4-36.9,82.4-82.4v-50.5C256,147.6,293.4,110.1,339.6,110.1z"></path>
<g>
	<path fill="#DB81DA" class="secondary-color" d="M224.7,483.9v-21.8h56.9v21.8H224.7z M162.6,483.9v-21.8h-56.9v21.8H162.6z"></path>
	<path fill="#FFA4ED" class="primary-color" d="M382.8,81.9V60.1h56.9v21.8H382.8z"></path>
</g>
<path d="M487.4,463.2c0,4.4-3.6,8-8,8h-15.8v15.8c0,4.4-3.6,8-8,8s-8-3.6-8-8v-15.8h-15.8c-4.4,0-8-3.6-8-8s3.6-8,8-8h15.8v-15.8
	c0-4.4,3.6-8,8-8s8,3.6,8,8v15.8h15.8C483.8,455.2,487.4,458.7,487.4,463.2z M116,74.3H28.4c-4.4,0-8,3.6-8,8s3.6,8,8,8H116
	c4.4,0,8-3.6,8-8S120.4,74.3,116,74.3z M117,39H73.2c-4.4,0-8,3.6-8,8s3.6,8,8,8H117c4.4,0,8-3.6,8-8S121.4,39,117,39z M391.9,455.2
	h-87.6c-4.4,0-8,3.6-8,8s3.6,8,8,8h87.6c4.4,0,8-3.6,8-8S396.3,455.2,391.9,455.2z M471.2,36.2c0-4.4-3.6-8-8-8H285.6
	c-4.4,0-8,3.6-8,8s3.6,8,8,8h177.6C467.6,44.2,471.2,40.6,471.2,36.2z M227.9,36.2c0,5-4.1,9-9,9s-9-4.1-9-9s4.1-9,9-9
	S227.9,31.2,227.9,36.2z M257.9,36.2c0,5-4.1,9-9,9s-9-4.1-9-9s4.1-9,9-9S257.9,31.2,257.9,36.2z M73,462
	c0,14.6-11.8,26.4-26.4,26.4S20.2,476.6,20.2,462s11.8-26.4,26.4-26.4S73,447.5,73,462z M57,462c0-5.7-4.7-10.4-10.4-10.4
	s-10.4,4.7-10.4,10.4s4.7,10.4,10.4,10.4S57,467.8,57,462z"></path>
<path d="M456.2,235.3c-4.4,0-8,3.6-8,8v143.3L334.4,239.1l127.3-118.7c2.3-2.1,3-5.3,2.2-8.1c0.2-0.7,0.3-1.5,0.3-2.2
	c0-4.4-3.6-8-8-8H55.4c-4.4,0-8,3.6-8,8v4.4c0,0,0,0,0,0.1V360c0,4.4,3.6,8,8,8s8-3.6,8-8V133l113.8,106.2l-128.1,166
	c-1.2,1.5-1.7,3.3-1.7,5.1c0,0.2,0,0.3,0,0.5c0,4.4,3.6,8,8,8h400.8c4.4,0,8-3.6,8-8V243.3C464.2,238.9,460.6,235.3,456.2,235.3z
	 M71.7,402L189,250.1l7.2,6.7l-24.3,24.3c-3.1,3.1-3.1,8.2,0,11.3l30,30c1.5,1.5,3.5,2.3,5.7,2.3s4.2-0.8,5.7-2.3l25.7-25.7
	l11.4,10.7c1.5,1.4,3.5,2.1,5.5,2.1s3.9-0.7,5.5-2.1l11.5-10.7l25.8,25.8c1.5,1.5,3.5,2.3,5.7,2.3s4.2-0.8,5.7-2.3l30-30
	c3.1-3.1,3.1-8.2,0-11.3c-3.1-3.1-8.2-3.1-11.3,0l-24.3,24.3l-42.7-42.7c-1.5-1.5-3.5-2.3-5.7-2.3s-4.2,0.8-5.7,2.3l-42.7,42.7
	l-18.7-18.7l42.7-42.7c1.5-1.5,2.3-3.5,2.3-5.7s-0.8-4.2-2.3-5.7L188.8,190l24.3-24.3c3.1-3.1,3.1-8.2,0-11.3
	c-3.1-3.1-8.2-3.1-11.3,0l-30,30c-3.1,3.1-3.1,8.2,0,11.3l42.7,42.7l-7.1,7.1L70.9,118.1h369.7L304.2,245.4l-7-7l42.7-42.7
	c1.5-1.5,2.3-3.5,2.3-5.7c0-2.1-0.8-4.2-2.3-5.7l-30-30c-3.1-3.1-8.2-3.1-11.3,0l-42.7,42.7l-28.8-28.8c-3.1-3.1-8.2-3.1-11.3,0
	c-3.1,3.1-3.1,8.2,0,11.3l34.4,34.4c1.5,1.5,3.5,2.3,5.7,2.3s4.2-0.8,5.7-2.3l42.7-42.7l18.7,18.7l-42.7,42.7
	c-1.5,1.5-2.3,3.5-2.3,5.7s0.8,4.2,2.3,5.7l32,32c1.6,1.6,3.6,2.3,5.7,2.3s4.1-0.8,5.7-2.3c3.1-3.1,3.1-8.2,0-11.3l-8-8l7.1-6.6
	L439.9,402H71.7z M250.2,285.3l5.7-5.7l5.6,5.6l-5.7,5.3L250.2,285.3z M464.2,153.5V208c0,4.4-3.6,8-8,8s-8-3.6-8-8v-54.6
	c0-4.4,3.6-8,8-8S464.2,149,464.2,153.5z M152.6,334.5c-0.7-0.2-1.5-0.4-2.4-0.4c-4.4,0-8,3.6-8,8v42.2c0,4.4,3.6,8,8,8h211.2
	c4.4,0,8-3.6,8-8v-42.2c0-4.4-3.6-8-8-8H155C154.2,334.1,153.4,334.2,152.6,334.5z M158.3,350.1h195.2v26.2H158.3V350.1z"></path>
</svg>