<svg version="1.1" id="Layer_1" xmlns="http://www.w3.org/2000/svg" xmlns:xlink="http://www.w3.org/1999/xlink" x="0px" y="0px" viewBox="0 0 512 512" enable-background="new 0 0 512 512" xml:space="preserve">
<linearGradient id="SVGID_1_" gradientUnits="userSpaceOnUse" x1="271.3809" y1="398.1451" x2="271.3809" y2="98.0016" class="gradient-element">
	<stop offset="0" class="primary-color-gradient" style="stop-color: #FFA4ED"></stop>
	<stop offset="1" class="secondary-color-gradient" style="stop-color: #DB81DA"></stop>
</linearGradient>
<path fill="url(#SVGID_1_)" d="M348.5,184.8c0,48.6-82.6,201.8-86.1,208.4l-7.5,13.8l-7.5-13.8l-47.8-95.7v0
	c-13.1-29.6-2.4-59.2,37.8-59.2h1.7c7,0,12.9-4.6,15-10.9c0.3,0,0.5,0,0.8,0c23.5,0,42.6-19.1,42.6-42.6c0-23.5-19.1-42.6-42.6-42.6
	v-26.8c0-14.1,13.6-24.3,27.1-20.2C320.4,106.8,348.5,142.6,348.5,184.8z"></path>
<g>
	<path fill="#DB81DA" class="secondary-color" d="M418.4,331.4l-57.8-57.8l57.8-57.8V331.4z M481.3,67.8H404v22.5h77.3V67.8z"></path>
	<path fill="#FFA4ED" class="primary-color" d="M481.3,44.1H404V22.5h77.3V44.1z"></path>
</g>
<path fill="#000000" d="M339.1,321.1c0,4.4-3.6,8-8,8h-59.7c-4.4,0-8-3.6-8-8s3.6-8,8-8h59.7C335.5,313.1,339.1,316.7,339.1,321.1z
	 M331.1,285.1h-28c-4.4,0-8,3.6-8,8s3.6,8,8,8h28c4.4,0,8-3.6,8-8S335.5,285.1,331.1,285.1z M94.6,263.8H78.8V248c0-4.4-3.6-8-8-8
	s-8,3.6-8,8v15.8H47.1c-4.4,0-8,3.6-8,8s3.6,8,8,8h15.8v15.8c0,4.4,3.6,8,8,8s8-3.6,8-8v-15.8h15.8c4.4,0,8-3.6,8-8
	S99,263.8,94.6,263.8z M472.7,136.9h-3.9V133c0-4.4-3.6-8-8-8s-8,3.6-8,8v3.9h-3.9c-4.4,0-8,3.6-8,8s3.6,8,8,8h3.9v3.9
	c0,4.4,3.6,8,8,8s8-3.6,8-8v-3.9h3.9c4.4,0,8-3.6,8-8S477.1,136.9,472.7,136.9z M71.2,153.8c0,5.9,4.8,10.8,10.8,10.8
	c5.9,0,10.8-4.8,10.8-10.8s-4.8-10.8-10.8-10.8C76,143.1,71.2,147.9,71.2,153.8z M48.6,69.9c0-5.7,4.7-10.4,10.4-10.4
	s10.4,4.7,10.4,10.4c0,4.4,3.6,8,8,8s8-3.6,8-8c0-14.6-11.8-26.4-26.4-26.4S32.6,55.3,32.6,69.9c0,4.4,3.6,8,8,8
	S48.6,74.3,48.6,69.9z M453.3,337.3c-5.9,0-10.8,4.8-10.8,10.8s4.8,10.8,10.8,10.8s10.8-4.8,10.8-10.8S459.3,337.3,453.3,337.3z"></path>
<path d="M467.3,455c-1.4,2.6-4.1,4.3-7.1,4.3H87.3c-4.4,0-8-3.6-8-8s3.6-8,8-8h357.7l-81.3-117.6c-2.5-3.6-1.6-8.6,2-11.1
	c3.6-2.5,8.6-1.6,11.1,2l90,130.1C468.5,449.1,468.7,452.3,467.3,455z M205.8,329.1c15.2,31.3,29,57.5,34.2,67.2l2.2,4
	c-2.2,1.4-3.6,3.9-3.6,6.8c0,4.4,3.6,7.9,8,7.9c0,0,0.1,0,0.1,0c2.7,0,5.4,0,8.2,0c4.2,0,8.3-0.1,12.2-0.4c4.4-0.3,7.7-4.1,7.4-8.5
	c-0.2-3.6-2.8-6.4-6.1-7.2l1-1.9l0.6-1.2c15.1-28.1,27.7-53.6,35.6-70c1.9-4,0.2-8.8-3.8-10.7c-4-1.9-8.8-0.2-10.7,3.8
	c-7.8,16.3-20.2,41.5-35.2,69.3l-1.1,2l-0.8-1.4c-5.3-9.9-19.8-37.2-35.3-69.3c-0.3-1.3-0.9-2.5-1.7-3.5
	c-20.2-42.2-41.8-91.7-46.9-120.9c-0.8-4.4-4.9-7.3-9.3-6.5c-4.4,0.8-7.3,4.9-6.5,9.3c5,28.4,24.3,74.3,43.6,115.3h-68.6
	c-2.8,0-5.4,1.4-6.8,3.8L42.7,447c-2.3,3.8-1.1,8.7,2.6,11c1.3,0.8,2.8,1.2,4.2,1.2c2.7,0,5.3-1.4,6.8-3.8L134,329.1H205.8z
	 M161.3,176.2c4.4,0.8,8.5-2.1,9.3-6.5c7.2-40.9,42.7-70.5,84.3-70.5c47.2,0,85.6,38.4,85.6,85.6c0,17.9-12,53.2-35.7,105
	c-1.8,4-0.1,8.8,3.9,10.6c1.1,0.5,2.2,0.7,3.3,0.7c3,0,5.9-1.7,7.3-4.7c25-54.6,37.1-91.1,37.1-111.6c0-56-45.6-101.6-101.6-101.6
	c-49.4,0-91.4,35.2-100,83.8C154.1,171.3,157,175.4,161.3,176.2z M308.6,385.2c-4.3,3.3-9.5,6-15.4,8.1c-4.2,1.5-6.3,6.1-4.8,10.2
	c1.2,3.3,4.2,5.3,7.5,5.3c0.9,0,1.8-0.2,2.7-0.5c7.5-2.7,14.1-6.2,19.7-10.5c3.5-2.7,4.2-7.7,1.5-11.2
	C317.1,383.2,312.1,382.5,308.6,385.2z M326.4,347.8c-0.2,6.2-1.3,12-3.1,17.2c-1.5,4.2,0.7,8.7,4.9,10.2c0.9,0.3,1.8,0.5,2.7,0.5
	c3.3,0,6.4-2,7.5-5.3c2.4-6.7,3.7-14.1,4-22c0.2-4.4-3.3-8.1-7.7-8.3C330.3,340,326.6,343.4,326.4,347.8z M165.6,405.2
	c-7.1,1.2-13.9,2.5-20.2,4c-4.3,1-7,5.3-5.9,9.6c0.9,3.7,4.2,6.2,7.8,6.2c0.6,0,1.2-0.1,1.9-0.2c5.9-1.4,12.3-2.7,19.1-3.8
	c4.4-0.7,7.3-4.8,6.6-9.2C174,407.4,169.9,404.5,165.6,405.2z M216.1,399.9c-6.9,0.4-13.8,0.9-20.2,1.4c-4.4,0.4-7.6,4.3-7.2,8.7
	c0.4,4.2,3.9,7.3,8,7.3c0.2,0,0.5,0,0.7,0c6.3-0.6,12.9-1,19.7-1.4c4.4-0.2,7.8-4,7.6-8.4C224.3,403.1,220.5,399.7,216.1,399.9z
	 M305.4,184.8c0,27.9-22.7,50.6-50.6,50.6s-50.6-22.7-50.6-50.6s22.7-50.6,50.6-50.6S305.4,156.9,305.4,184.8z M289.4,184.8
	c0-19.1-15.5-34.6-34.6-34.6c-19.1,0-34.6,15.5-34.6,34.6s15.5,34.6,34.6,34.6C273.9,219.4,289.4,203.9,289.4,184.8z"></path>
</svg>