<svg version="1.1" id="Layer_1" xmlns="http://www.w3.org/2000/svg" xmlns:xlink="http://www.w3.org/1999/xlink" x="0px" y="0px" viewBox="0 0 512 512" enable-background="new 0 0 512 512" xml:space="preserve">
<linearGradient id="SVGID_1_" gradientUnits="userSpaceOnUse" x1="111.1873" y1="290.4052" x2="470.3074" y2="290.4052" class="gradient-element">
	<stop offset="0" class="primary-color-gradient" style="stop-color: #FFA4ED"></stop>
	<stop offset="1" class="secondary-color-gradient" style="stop-color: #DB81DA"></stop>
</linearGradient>
<path fill="url(#SVGID_1_)" d="M470.3,121.4v288l-120,48.6v1.4l-119.6-39.9l-119.5,29.9v-13.5c0-33.5,22.8-72.7,55.3-80.9l63.8-16
	v-0.2l0.4,0.1l0.5-0.1v0.3l119.1,39.7v-0.6l35.6-14.4c13.6-5.5,22.5-18.7,22.5-33.3V200.4c0-32.6,19.8-61.9,50-74.2L470.3,121.4z"></path>
<path d="M470.3,139.7c-4.4,0-8,3.6-8,8v173.5l-104,80.2V243.2l92.5-71.1c3.5-2.7,4.2-7.7,1.5-11.2c-2.7-3.5-7.7-4.2-11.2-1.5
	L358.3,223v-46.7l115-46.6c4.1-1.7,6.1-6.3,4.4-10.4c-1.7-4.1-6.3-6.1-10.4-4.4l-117.8,47.7l-113.9-38c-1.4-0.9-3.1-1.4-4.8-1.3
	c-1.4-0.1-2.8,0.2-4.1,0.9l-117.4,29.4c-3.6,0.9-6.1,4.1-6.1,7.8v136.8c0,4.4,3.6,8,8,8s8-3.6,8-8V167.6l103.1-25.8v185.7l-6.1,4.7
	l-64.9-146c-1.8-4-6.5-5.9-10.6-4.1c-4,1.8-5.9,6.5-4.1,10.6l66.5,149.5l-79.5,61.1c-3.5,2.7-4.2,7.7-1.5,11.2
	c1.6,2,3.9,3.1,6.3,3.1c1.7,0,3.4-0.5,4.9-1.7l89-68.4v65.7l-103.1,25.8V330.7c0-4.4-3.6-8-8-8s-8,3.6-8,8v118.7
	c0,2.5,1.1,4.8,3.1,6.3c1.4,1.1,3.2,1.7,4.9,1.7c0.6,0,1.3-0.1,1.9-0.2l117.2-29.3L347.8,467c0.8,0.3,1.7,0.4,2.5,0.4
	c1.7,0,3.3-0.5,4.7-1.5c0.1-0.1,0.2-0.2,0.4-0.3l118-47.8c3-1.2,5-4.2,5-7.4V147.7C478.3,143.3,474.7,139.7,470.3,139.7z
	 M283.2,171.6l39.7,78.7l-83.7,64.3V142.8l51.7,17.2c-1.4-0.1-2.8,0.2-4.1,0.8C282.8,162.8,281.2,167.6,283.2,171.6z M239.2,334.8
	l35.8-27.5L342.3,420v28.3l-103.1-34.4V334.8z M342.3,388.8l-54.5-91.3l50.1-38.5c0,0,0,0,0,0l4.4-3.3V388.8z M342.3,235.3l-6.5,5
	l-38.3-76c-0.7-1.3-1.6-2.4-2.8-3.1l47.6,15.9V235.3z M358.3,447.2v-25.4l104-80.2V405L358.3,447.2z"></path>
<path fill="#000000" d="M292.2,56.1c0,4.4-3.6,8-8,8H256c-4.4,0-8-3.6-8-8s3.6-8,8-8h28.2C288.6,48.1,292.2,51.7,292.2,56.1z
	 M198.7,85.6h-92.6c-4.4,0-8,3.6-8,8s3.6,8,8,8h92.6c4.4,0,8-3.6,8-8S203.1,85.6,198.7,85.6z M148.9,290.2H92.5c-4.4,0-8,3.6-8,8
	s3.6,8,8,8h56.4c4.4,0,8-3.6,8-8S153.3,290.2,148.9,290.2z M140.4,322.7H51.8c-4.4,0-8,3.6-8,8s3.6,8,8,8h88.6c4.4,0,8-3.6,8-8
	S144.8,322.7,140.4,322.7z M435.1,56.1h-15.8V40.3c0-4.4-3.6-8-8-8s-8,3.6-8,8v15.8h-15.8c-4.4,0-8,3.6-8,8s3.6,8,8,8h15.8v15.8
	c0,4.4,3.6,8,8,8s8-3.6,8-8V72.1h15.8c4.4,0,8-3.6,8-8S439.5,56.1,435.1,56.1z M58.5,440h-3.9v-3.9c0-4.4-3.6-8-8-8s-8,3.6-8,8v3.9
	h-3.9c-4.4,0-8,3.6-8,8s3.6,8,8,8h3.9v3.9c0,4.4,3.6,8,8,8s8-3.6,8-8V456h3.9c4.4,0,8-3.6,8-8S62.9,440,58.5,440z M25.4,189.5
	c0-14.6,11.8-26.4,26.4-26.4s26.4,11.8,26.4,26.4s-11.8,26.4-26.4,26.4S25.4,204.1,25.4,189.5z M41.4,189.5
	c0,5.7,4.7,10.4,10.4,10.4s10.4-4.7,10.4-10.4s-4.7-10.4-10.4-10.4S41.4,183.8,41.4,189.5z M468.2,460.6c-5.9,0-10.8,4.8-10.8,10.8
	s4.8,10.8,10.8,10.8s10.8-4.8,10.8-10.8S474.2,460.6,468.2,460.6z M325.4,87.9c-5.9,0-10.8,4.8-10.8,10.8c0,5.9,4.8,10.8,10.8,10.8
	s10.8-4.8,10.8-10.8C336.1,92.7,331.3,87.9,325.4,87.9z"></path>
<path fill="#DB81DA" class="secondary-color" d="M192,27.4v21.9H28.5V27.4H192z"></path>
</svg>