<svg version="1.1" id="Layer_1" xmlns="http://www.w3.org/2000/svg" xmlns:xlink="http://www.w3.org/1999/xlink" x="0px" y="0px" viewBox="0 0 512 512" enable-background="new 0 0 512 512" xml:space="preserve">
<linearGradient id="SVGID_1_" gradientUnits="userSpaceOnUse" x1="104.8327" y1="252.03" x2="437.2141" y2="252.03" class="gradient-element">
	<stop offset="0" class="primary-color-gradient" style="stop-color: #FFA4ED"></stop>
	<stop offset="1" class="secondary-color-gradient" style="stop-color: #DB81DA"></stop>
</linearGradient>
<path fill="url(#SVGID_1_)" d="M425.6,89.5c7.5,7.5,11.6,17.4,11.6,28c0,10.6-4.1,20.5-11.6,28L199.3,371.9l-77,41.1
	c-2.1,1.1-4.4,1.7-6.6,1.7c-3.9,0-7.7-1.6-10.7-4.5c-0.1-0.1-0.1-0.1-0.2-0.2L425.4,89.4C425.5,89.4,425.5,89.5,425.6,89.5z"></path>
<g>
	<path fill="#FFA4ED" class="primary-color" d="M54.4,61H19.7V26.4h34.7V61z M109.7,26.4H75V61h34.7V26.4z M353.3,457.3v21.8h56.9v-21.8H353.3z M487.1,347
		h-21.8V404h21.8V347z"></path>
	<path fill="#DB81DA" class="secondary-color" d="M487.1,422.1v56.9h-1.8h-20h-36.9v-21.8h36.9v-35.1H487.1z M21.9,474.3v12.9h237.1v-12.9H21.9z"></path>
</g>
<path d="M413.5,325.8c0,4.4-3.6,8-8,8h-15.8v15.8c0,4.4-3.6,8-8,8c-4.4,0-8-3.6-8-8v-15.8H358c-4.4,0-8-3.6-8-8s3.6-8,8-8h15.8V302
	c0-4.4,3.6-8,8-8c4.4,0,8,3.6,8,8v15.8h15.8C409.9,317.8,413.5,321.4,413.5,325.8z M98,143.5c-4.4,0-8,3.6-8,8
	c0,11.4-9.3,20.8-20.8,20.8c-4.4,0-8,3.6-8,8s3.6,8,8,8c20.3,0,36.8-16.5,36.8-36.8C106,147,102.4,143.5,98,143.5z M148,172.2
	c-11.4,0-20.8-9.3-20.8-20.8c0-4.4-3.6-8-8-8s-8,3.6-8,8c0,20.3,16.5,36.8,36.8,36.8c4.4,0,8-3.6,8-8S152.4,172.2,148,172.2z
	 M148,193.5c-20.3,0-36.8,16.5-36.8,36.8c0,4.4,3.6,8,8,8s8-3.6,8-8c0-11.4,9.3-20.8,20.8-20.8c4.4,0,8-3.6,8-8
	S152.4,193.5,148,193.5z M69.3,193.5c-4.4,0-8,3.6-8,8s3.6,8,8,8c11.4,0,20.8,9.3,20.8,20.8c0,4.4,3.6,8,8,8s8-3.6,8-8
	C106,209.9,89.5,193.5,69.3,193.5z M477.2,182.8h-3.9v-3.9c0-4.4-3.6-8-8-8s-8,3.6-8,8v3.9h-3.9c-4.4,0-8,3.6-8,8s3.6,8,8,8h3.9v3.9
	c0,4.4,3.6,8,8,8s8-3.6,8-8v-3.9h3.9c4.4,0,8-3.6,8-8S481.6,182.8,477.2,182.8z M217.1,72.4h3.9v3.9c0,4.4,3.6,8,8,8s8-3.6,8-8v-3.9
	h3.9c4.4,0,8-3.6,8-8s-3.6-8-8-8H237v-3.9c0-4.4-3.6-8-8-8s-8,3.6-8,8v3.9h-3.9c-4.4,0-8,3.6-8,8S212.7,72.4,217.1,72.4z
	 M273.9,373.4c0-4.4-3.6-8-8-8h-59.2c-4.4,0-8,3.6-8,8s3.6,8,8,8h59.2C270.3,381.4,273.9,377.8,273.9,373.4z M363.9,405.4H236.6
	c-4.4,0-8,3.6-8,8s3.6,8,8,8h127.3c4.4,0,8-3.6,8-8S368.3,405.4,363.9,405.4z M64.2,265.8H44.6c-4.4,0-8,3.6-8,8s3.6,8,8,8h19.7
	c4.4,0,8-3.6,8-8S68.7,265.8,64.2,265.8z"></path>
<path d="M115.7,422.7c-6.1,0-11.9-2.4-16.4-6.9c-7.3-7.2-9-18-4.3-26.8l42.8-79.1l19.9-19.9l47.7,47.7c3.1,3.1,3.1,8.2,0,11.3
	c-3.1,3.1-8.2,3.1-11.3,0l-36.4-36.4l-7,7l-41.6,77c-1.3,2.5-0.7,5.6,1.5,7.9c2.2,2.2,5.4,2.8,7.9,1.5l75.9-40.6l225.4-225.6
	c6-6,9.3-13.9,9.3-22.3c0-8.4-3.3-16.3-9.3-22.3c-12.3-12.3-32.4-12.3-44.8,0L177.4,293c-3.1,3.1-8.2,3.1-11.3,0s-3.1-8.2,0-11.3
	L363.8,83.9c18.6-18.5,48.8-18.5,67.4,0c9,9,14,20.9,14,33.7c0,12.7-5,24.7-14,33.6L204.1,378.4l-78,41.7
	C122.9,421.8,119.3,422.7,115.7,422.7z M398.4,152.6c-2,0-4.1-0.8-5.7-2.3l-28-28c-3.1-3.1-3.1-8.2,0-11.3c3.1-3.1,8.2-3.1,11.3,0
	l28,28c3.1,3.1,3.1,8.2,0,11.3C402.5,151.8,400.5,152.6,398.4,152.6z"></path>
</svg>