<svg version="1.1" id="Layer_1" xmlns="http://www.w3.org/2000/svg" xmlns:xlink="http://www.w3.org/1999/xlink" x="0px" y="0px" viewBox="0 0 512 512" enable-background="new 0 0 512 512" xml:space="preserve">
<linearGradient id="SVGID_1_" gradientUnits="userSpaceOnUse" x1="214.5888" y1="370.5667" x2="219.1362" y2="158.3561" class="gradient-element">
	<stop offset="0" class="primary-color-gradient" style="stop-color: #FFA4ED"></stop>
	<stop offset="1" class="secondary-color-gradient" style="stop-color: #DB81DA"></stop>
</linearGradient>
<path fill="url(#SVGID_1_)" d="M297.8,324.1c-10.7,20.1-27.7,36.6-48.4,47.2c-20.7,10.5-45.5,10.3-66.1-0.4
	c-35.8-18.6-60.1-55-60.1-96.8c0-49.3,33.9-91.1,80.5-105c8.4-2.5,17.5-2.6,25.9-0.1c29.7,8.8,54.2,28.9,68.2,55.1H219
	c-3.4,6.3-6.2,13-8.3,20H306c1.9,6.5,3.3,13.1,3.9,20H206.9c-0.3,3.3-0.5,6.6-0.5,10s0.2,6.7,0.5,10h103.1c-0.6,6.9-2,13.6-3.9,20
	h-95.3c2.1,7,4.9,13.7,8.3,20H297.8z"></path>
<path d="M427.7,490.4c0,4.4-3.6,8-8,8H306.8c-4.4,0-8-3.6-8-8s3.6-8,8-8h112.8C424.1,482.4,427.7,486,427.7,490.4z M125.3,295.8
	H12.5c-4.4,0-8,3.6-8,8s3.6,8,8,8h112.8c4.4,0,8-3.6,8-8S129.8,295.8,125.3,295.8z M421.5,50.3h54.1c4.4,0,8-3.6,8-8s-3.6-8-8-8
	h-54.1c-4.4,0-8,3.6-8,8S417,50.3,421.5,50.3z M76.6,337.9H22.5c-4.4,0-8,3.6-8,8s3.6,8,8,8h54.1c4.4,0,8-3.6,8-8
	S81.1,337.9,76.6,337.9z M58.5,460c-5.9,0-10.8,4.8-10.8,10.8c0,5.9,4.8,10.8,10.8,10.8s10.8-4.8,10.8-10.8
	C69.2,464.8,64.4,460,58.5,460z M312.3,67.3c1.6,1.6,3.6,2.3,5.7,2.3s4.1-0.8,5.7-2.3l11.2-11.2l11.2,11.2c1.6,1.6,3.6,2.3,5.7,2.3
	s4.1-0.8,5.7-2.3c3.1-3.1,3.1-8.2,0-11.3l-11.2-11.2l11.2-11.2c3.1-3.1,3.1-8.2,0-11.3c-3.1-3.1-8.2-3.1-11.3,0l-11.2,11.2
	l-11.2-11.2c-3.1-3.1-8.2-3.1-11.3,0c-3.1,3.1-3.1,8.2,0,11.3l11.2,11.2L312.3,56C309.2,59.1,309.2,64.2,312.3,67.3z M473.6,439.6
	h-3.9v-3.9c0-4.4-3.6-8-8-8s-8,3.6-8,8v3.9h-3.9c-4.4,0-8,3.6-8,8s3.6,8,8,8h3.9v3.9c0,4.4,3.6,8,8,8s8-3.6,8-8v-3.9h3.9
	c4.4,0,8-3.6,8-8S478,439.6,473.6,439.6z"></path>
<path fill="#DB81DA" class="secondary-color" d="M86.9,34v21.8H30V34H86.9z M101.4,34v21.8h56.9V34H101.4z"></path>
<path d="M432.3,436.8H100.1c-21.6,0-39.1-17.6-39.1-39.1v-51.9c0-4.4,3.6-8,8-8s8,3.6,8,8v51.9c0,12.8,10.4,23.1,23.1,23.1h332.2
	c12.8,0,23.1-10.4,23.1-23.1V148.5c0-12.8-10.4-23.1-23.1-23.1H100.1c-12.8,0-23.1,10.4-23.1,23.1v155.3c0,4.4-3.6,8-8,8s-8-3.6-8-8
	V148.5c0-21.6,17.6-39.1,39.1-39.1h332.2c21.6,0,39.1,17.6,39.1,39.1v249.2C471.4,419.2,453.9,436.8,432.3,436.8z M328.5,395.3
	c-23.2,0-45.9-6.6-65.5-19.2c-0.4-0.2-0.9-0.4-1.3-0.7c-0.4-0.2-0.7-0.5-1.1-0.8l-0.2-0.1c-0.8-0.5-1.5-1.1-2.2-1.6
	c-0.4-0.3-0.7-0.5-1.1-0.8l-1.2-0.9c-1.4-1-2.8-2-4.2-3.2c-12.3-10-22.5-22.1-30.2-36c-0.9-1.7-1.8-3.4-2.7-5.1
	c-2-4-0.3-8.8,3.6-10.7c4-2,8.8-0.3,10.7,3.6c0.7,1.5,1.5,3,2.3,4.5c6.7,12.1,15.6,22.6,26.3,31.3c1.1,0.9,2.2,1.7,3.4,2.6l1.3,0.9
	c0.4,0.3,0.9,0.6,1.3,1c0.5,0.4,1.1,0.8,1.5,1.1c0.1,0.1,0.2,0.1,0.3,0.2c0.3,0.1,0.6,0.3,0.8,0.5c17.3,11.3,37.3,17.3,57.9,17.3
	c58.6,0,106.2-47.6,106.2-106.2S387,166.9,328.5,166.9c-13.1,0-26.1,2.5-38.6,7.4c-4.1,1.6-8.8-0.4-10.4-4.5
	c-1.6-4.1,0.4-8.8,4.5-10.4c14.3-5.6,29.3-8.5,44.4-8.5c67.4,0,122.2,54.8,122.2,122.2C450.7,340.5,395.9,395.3,328.5,395.3z
	 M203.9,395.3c-26.8,0-52.2-8.5-73.6-24.7c-20.7-15.6-36.1-37.8-43.5-62.5c-1.3-4.2,1.1-8.7,5.4-10c4.2-1.3,8.7,1.1,10,5.4
	c13.4,44.6,55.2,75.8,101.8,75.8c13.1,0,26.1-2.5,38.6-7.4c4.1-1.6,8.8,0.4,10.4,4.5c1.6,4.1-0.4,8.8-4.5,10.4
	C234,392.4,219,395.3,203.9,395.3z M283.2,362.8c-2.1,0-4.2-0.8-5.7-2.4c-3.1-3.2-3-8.2,0.2-11.3c8.1-7.9,14.9-16.9,20.2-26.8
	c2.1-3.9,6.9-5.4,10.8-3.3c3.9,2.1,5.4,6.9,3.3,10.8c-6,11.4-13.8,21.7-23.2,30.8C287.2,362,285.2,362.8,283.2,362.8z M313.3,313.8
	c-0.8,0-1.6-0.1-2.3-0.3c-4.2-1.3-6.6-5.8-5.3-10c2-6.6,3.4-13.5,4-20.4c0.4-4.4,4.3-7.6,8.7-7.2c4.4,0.4,7.6,4.3,7.2,8.7
	c-0.8,8-2.3,15.9-4.6,23.5C319.9,311.6,316.7,313.8,313.3,313.8z M218.7,312.6c-3.5,0-6.7-2.3-7.7-5.8c-1-3.5-1.9-7.2-2.6-10.8
	c-0.7-3.7-1.2-7.4-1.6-11.2c-0.4-4.4,2.8-8.3,7.2-8.7c4.4-0.4,8.3,2.8,8.7,7.2c0.3,3.2,0.8,6.5,1.4,9.7c0.6,3.2,1.4,6.3,2.2,9.4
	c1.2,4.2-1.2,8.7-5.5,9.9C220.2,312.5,219.4,312.6,218.7,312.6z M89.7,281.1c-4.4,0-8-3.6-8-8c0-67.4,54.8-122.2,122.2-122.2
	c23.2,0,45.8,6.6,65.4,19.1c0.5,0.2,0.9,0.4,1.4,0.7c0.4,0.3,0.8,0.5,1.2,0.8c0.1,0.1,0.2,0.1,0.2,0.2c0.3,0.2,0.6,0.4,0.9,0.6
	l0.2,0.1c2.2,1.5,5,3.5,7.8,5.8c2.4,1.9,4.9,4.2,7.6,6.8c0.2,0.1,0.3,0.3,0.5,0.4c0,0,0.1,0.1,0.1,0.1c9.9,9.6,18,20.7,24.1,32.9
	c2,4,0.4,8.8-3.6,10.7c-3.9,2-8.8,0.4-10.7-3.6c-5.3-10.7-12.4-20.3-21-28.7c-0.1-0.1-0.3-0.2-0.4-0.4c-2.4-2.3-4.6-4.3-6.7-6
	c-1.9-1.6-4-3.1-6.8-5.1c-0.2-0.2-0.5-0.4-0.7-0.5l-0.2-0.1c-0.1-0.1-0.2-0.2-0.4-0.2c-0.3-0.2-0.6-0.3-0.9-0.5
	c-17.3-11.3-37.3-17.3-57.9-17.3c-58.6,0-106.2,47.6-106.2,106.2C97.7,277.5,94.1,281.1,89.7,281.1z M288.6,185.2
	C288.6,185.2,288.6,185.2,288.6,185.2C288.6,185.2,288.6,185.2,288.6,185.2z M317.8,272.7c-4.2,0-7.7-3.2-8-7.4
	c-0.5-6.9-1.7-13.7-3.5-20.3c-1.2-4.3,1.3-8.7,5.6-9.8c4.3-1.2,8.7,1.3,9.8,5.6c2.1,7.6,3.5,15.5,4,23.4c0.3,4.4-3,8.2-7.4,8.6
	C318.2,272.7,318,272.7,317.8,272.7z M214.7,271.7c-0.2,0-0.4,0-0.7,0c-4.4-0.4-7.7-4.2-7.3-8.6c0.3-4,0.9-8,1.6-11.9
	c0.6-3.4,1.4-6.9,2.4-10.3c1.2-4.3,5.6-6.8,9.8-5.6c4.3,1.2,6.8,5.6,5.6,9.8c-0.8,2.9-1.5,5.9-2.1,8.9c-0.6,3.4-1.1,6.9-1.4,10.4
	C222.3,268.5,218.8,271.7,214.7,271.7z M226,231c-1.2,0-2.4-0.3-3.5-0.8c-4-2-5.6-6.8-3.6-10.7c5.1-10.3,11.7-19.9,19.5-28.4
	c3-3.3,8-3.5,11.3-0.5c3.3,3,3.5,8,0.5,11.3c-6.8,7.5-12.5,15.8-17,24.8C231.7,229.4,228.9,231,226,231z"></path>
</svg>