<svg version="1.1" id="Layer_1" xmlns="http://www.w3.org/2000/svg" xmlns:xlink="http://www.w3.org/1999/xlink" x="0px" y="0px" viewBox="0 0 512 512" enable-background="new 0 0 512 512" xml:space="preserve">
<linearGradient id="SVGID_1_" gradientUnits="userSpaceOnUse" x1="260.2646" y1="419.7081" x2="260.2646" y2="111.6949" class="gradient-element">
	<stop offset="0" class="primary-color-gradient" style="stop-color: #FFA4ED"></stop>
	<stop offset="1" class="secondary-color-gradient" style="stop-color: #DB81DA"></stop>
</linearGradient>
<path fill="url(#SVGID_1_)" d="M338.7,111.6v13.3c0,3.6-0.6,7.1-1.8,10.4h33.8V159H260v-2.8h-79.3c-1.4,7.3-7.8,12.8-15.5,12.8
	c-7.7,0-14.1-5.5-15.5-12.7c-7.5,0.7-14.3,4-19.4,9c-5.7,5.7-9.2,13.5-9.2,22.1h278.3v-75.9H338.7z M338.7,226v13.5
	c0,2.3-0.2,4.4-0.7,6.6h32.8v23.7h-56c-2.3,0.6-4.8,0.9-7.2,0.9h-128c-2.5,5.4-8,9.1-14.3,9.1c-6.4,0-11.8-3.7-14.3-9.1
	c-16.5,0.8-29.7,14.4-29.7,31.1v0.2h278.3V226H338.7z M338.7,336.7V350c0,2.3-0.3,4.6-0.7,6.7h32.8v23.7h-56.1
	c-2.3,0.6-4.8,0.9-7.3,0.9H179.5c-2.5,5.4-8,9.1-14.3,9.1c-6.3,0-11.8-3.7-14.3-9.1c-16.6,0.8-29.7,14.5-29.7,31.3h278.3v-75.9
	H338.7z"></path>
<path d="M51.3,361.1c-14.6,0-26.4-11.8-26.4-26.4s11.8-26.4,26.4-26.4c4.4,0,8,3.6,8,8s-3.6,8-8,8c-5.7,0-10.4,4.7-10.4,10.4
	s4.7,10.4,10.4,10.4c4.4,0,8,3.6,8,8S55.7,361.1,51.3,361.1z M485,50.2c0-4.4-3.6-8-8-8H342.8c-4.4,0-8,3.6-8,8s3.6,8,8,8H477
	C481.5,58.2,485,54.6,485,50.2z M159.4,464.3H42.1c-4.4,0-8,3.6-8,8s3.6,8,8,8h117.3c4.4,0,8-3.6,8-8S163.8,464.3,159.4,464.3z
	 M60.5,86.3c4.2-4.2,4.2-11,0-15.2s-11-4.2-15.2,0c-4.2,4.2-4.2,11,0,15.2C49.5,90.5,56.3,90.5,60.5,86.3z M460.8,463.6
	c-4.2,4.2-4.2,11,0,15.2c4.2,4.2,11,4.2,15.2,0c4.2-4.2,4.2-11,0-15.2C471.8,459.4,465,459.4,460.8,463.6z M480.3,282.9h-3.9V279
	c0-4.4-3.6-8-8-8s-8,3.6-8,8v3.9h-3.9c-4.4,0-8,3.6-8,8s3.6,8,8,8h3.9v3.9c0,4.4,3.6,8,8,8s8-3.6,8-8v-3.9h3.9c4.4,0,8-3.6,8-8
	S484.7,282.9,480.3,282.9z M173.3,55.9h-3.9V52c0-4.4-3.6-8-8-8s-8,3.6-8,8v3.9h-3.9c-4.4,0-8,3.6-8,8s3.6,8,8,8h3.9v3.9
	c0,4.4,3.6,8,8,8s8-3.6,8-8v-3.9h3.9c4.4,0,8-3.6,8-8S177.7,55.9,173.3,55.9z"></path>
<path d="M402.4,420.1H117.7c-4.4,0-8-3.6-8-8V333c0-4.4,3.6-8,8-8h284.7c4.4,0,8,3.6,8,8v79.1C410.4,416.5,406.8,420.1,402.4,420.1z
	 M125.7,404.1h268.7V341H125.7V404.1z M402.4,309.4H117.7c-4.4,0-8-3.6-8-8v-79.1c0-4.4,3.6-8,8-8h284.7c4.4,0,8,3.6,8,8v79.1
	C410.4,305.8,406.8,309.4,402.4,309.4z M125.7,293.4h268.7v-63.1H125.7V293.4z M402.4,198.7H117.7c-4.4,0-8-3.6-8-8v-79.1
	c0-4.4,3.6-8,8-8h284.7c4.4,0,8,3.6,8,8v79.1C410.4,195.1,406.8,198.7,402.4,198.7z M125.7,182.7h268.7v-63.1H125.7V182.7z
	 M165.1,398.5c-13.1,0-23.8-10.7-23.8-23.8s10.7-23.8,23.8-23.8c13.1,0,23.8,10.7,23.8,23.8S178.3,398.5,165.1,398.5z M165.1,366.8
	c-4.3,0-7.8,3.5-7.8,7.8s3.5,7.8,7.8,7.8c4.3,0,7.8-3.5,7.8-7.8S169.5,366.8,165.1,366.8z M370.7,388.5H260c-4.4,0-8-3.6-8-8v-23.7
	c0-4.4,3.6-8,8-8h110.7c4.4,0,8,3.6,8,8v23.7C378.7,384.9,375.2,388.5,370.7,388.5z M268,372.5h94.7v-7.7H268V372.5z M165.1,287.8
	c-13.1,0-23.8-10.7-23.8-23.8s10.7-23.8,23.8-23.8c13.1,0,23.8,10.7,23.8,23.8S178.3,287.8,165.1,287.8z M165.1,256.1
	c-4.3,0-7.8,3.5-7.8,7.8s3.5,7.8,7.8,7.8c4.3,0,7.8-3.5,7.8-7.8S169.5,256.1,165.1,256.1z M370.7,277.8H260c-4.4,0-8-3.6-8-8V246
	c0-4.4,3.6-8,8-8h110.7c4.4,0,8,3.6,8,8v23.7C378.7,274.2,375.2,277.8,370.7,277.8z M268,261.8h94.7V254H268V261.8z M165.1,177
	c-13.1,0-23.8-10.7-23.8-23.8c0-13.1,10.7-23.8,23.8-23.8c13.1,0,23.8,10.7,23.8,23.8C189,166.4,178.3,177,165.1,177z M165.1,145.4
	c-4.3,0-7.8,3.5-7.8,7.8c0,4.3,3.5,7.8,7.8,7.8c4.3,0,7.8-3.5,7.8-7.8C173,148.9,169.5,145.4,165.1,145.4z M370.7,167H260
	c-4.4,0-8-3.6-8-8v-23.7c0-4.4,3.6-8,8-8h110.7c4.4,0,8,3.6,8,8V159C378.7,163.5,375.2,167,370.7,167z M268,151h94.7v-7.7H268V151z"></path>
</svg>