<svg version="1.1" id="Layer_1" xmlns="http://www.w3.org/2000/svg" xmlns:xlink="http://www.w3.org/1999/xlink" x="0px" y="0px" viewBox="0 0 512 512" enable-background="new 0 0 512 512" xml:space="preserve">
<linearGradient id="SVGID_1_" gradientUnits="userSpaceOnUse" x1="196.8554" y1="389.0421" x2="196.8554" y2="105.0139" class="gradient-element">
	<stop offset="0" class="primary-color-gradient" style="stop-color: #FFA4ED"></stop>
	<stop offset="1" class="secondary-color-gradient" style="stop-color: #DB81DA"></stop>
</linearGradient>
<path fill="url(#SVGID_1_)" d="M308.4,277.6v45.4l-70,40.6l-17.8,23.3H102.9c-9.7,0-17.6-7.9-17.6-17.6v0c0-9.7,7.9-17.6,17.6-17.6
	h110.9c15,0,27.2-12.2,27.2-27.2v-19.7c0-25.3,20.5-45.8,45.8-45.8h3C300.1,259,308.4,267.3,308.4,277.6z M260,168.4h19.3v-66H260
	c-13.6,0-24.7,11-24.7,24.7v16.7C235.3,157.3,246.4,168.4,260,168.4z"></path>
<path d="M239.4,321.7c0,4.4-3.6,8-8,8h-27.7v27.7c0,4.4-3.6,8-8,8s-8-3.6-8-8v-27.7H158c-4.4,0-8-3.6-8-8s3.6-8,8-8h29.7v-28
	c0-4.4,3.6-8,8-8s8,3.6,8,8v28h27.7C235.8,313.7,239.4,317.3,239.4,321.7z M408.5,398.5L312,455.3c-9.9,5.7-20.8,8.6-31.9,8.6
	c-5.4,0-10.8-0.7-16.1-2.1c-14.8-3.9-27.5-12.7-36.2-25.1H120.2c-23.6,0-42.8-19.2-42.8-42.8v-135c0-9.2,3-18.3,8.6-25.7l33.3-44.3
	v-12.1c-8.5-5.2-13.9-14.5-13.9-24.7V120c0-15.9,13-28.9,28.9-28.9h125.4c15.9,0,28.9,13,28.9,28.9v32.1c0,10.2-5.4,19.6-13.9,24.7
	v12.1l33.2,44.3c4.7,6.3,7.6,13.8,8.4,21.6c0.1,0.6,0.2,1.2,0.2,1.8c0,0.2,0,0.5,0,0.7c0,0.5,0,1.1,0,1.6v47.4l28-18
	c0.1-0.1,0.2-0.1,0.3-0.2c14.8-8.5,31.9-10.8,48.4-6.4c16.4,4.4,30.2,15,38.7,29.7C449.4,341.9,438.9,380.9,408.5,398.5z
	 M121.2,152.1c0,5.4,3.3,10.2,8.3,12.1h134.6c5-1.9,8.3-6.7,8.3-12.1V120c0-7.1-5.8-12.9-12.9-12.9H134.1c-7.1,0-12.9,5.8-12.9,12.9
	V152.1z M220.5,420.7c-2.9-9-4.3-17.7-4-25.9H93.4c0.5,14.4,12.3,25.9,26.8,25.9H220.5z M244,349.5l54.7-31.8l1.7-1.1v-52H113.3
	c-4.4,0-8-3.6-8-8s3.6-8,8-8h185c-0.9-2.1-2-4-3.3-5.8l-25.5-34h-79.6c-4.4,0-8-3.6-8-8s3.6-8,8-8h68.8c-0.1-0.4-0.1-0.9-0.1-1.3
	v-11.4H135.2v11.4c0,1.7-0.6,3.4-1.6,4.8l-34.8,46.5c-3.5,4.6-5.4,10.3-5.4,16.1v119.9h126C223.4,366.6,231.9,356.5,244,349.5z
	 M418,319.4c-6.4-11.1-16.7-19-29-22.3c-12.3-3.3-25.1-1.6-36.1,4.7l-39.3,25.2l38.2,66.1c2.2,3.8,0.9,8.7-2.9,10.9
	c-3.8,2.2-8.7,0.9-10.9-2.9l-38-65.8l-47.9,27.9c-20.5,11.8-25.1,34.3-12.8,61.7c13.4,22,42.3,29.4,64.6,16.5l96.5-56.8
	C423.3,371.5,431.1,342.2,418,319.4z"></path>
<path d="M68.2,168.4c0,5.9-4.8,10.8-10.8,10.8c-5.9,0-10.8-4.8-10.8-10.8s4.8-10.8,10.8-10.8C63.4,157.6,68.2,162.4,68.2,168.4z
	 M477.1,437.3h-15.8v-15.8c0-4.4-3.6-8-8-8s-8,3.6-8,8v15.8h-15.8c-4.4,0-8,3.6-8,8s3.6,8,8,8h15.8v15.8c0,4.4,3.6,8,8,8s8-3.6,8-8
	v-15.8h15.8c4.4,0,8-3.6,8-8S481.5,437.3,477.1,437.3z M345.4,141.1c-4.4,0-8,3.6-8,8c0,11.4-9.3,20.8-20.8,20.8c-4.4,0-8,3.6-8,8
	s3.6,8,8,8c20.3,0,36.8-16.5,36.8-36.8C353.4,144.7,349.8,141.1,345.4,141.1z M395.4,169.9c-11.4,0-20.8-9.3-20.8-20.8
	c0-4.4-3.6-8-8-8s-8,3.6-8,8c0,20.3,16.5,36.8,36.8,36.8c4.4,0,8-3.6,8-8S399.8,169.9,395.4,169.9z M395.4,191.1
	c-20.3,0-36.8,16.5-36.8,36.8c0,4.4,3.6,8,8,8s8-3.6,8-8c0-11.4,9.3-20.8,20.8-20.8c4.4,0,8-3.6,8-8S399.8,191.1,395.4,191.1z
	 M316.7,191.1c-4.4,0-8,3.6-8,8s3.6,8,8,8c11.4,0,20.8,9.3,20.8,20.8c0,4.4,3.6,8,8,8s8-3.6,8-8
	C353.4,207.6,336.9,191.1,316.7,191.1z M58.6,457.4h-3.9v-3.9c0-4.4-3.6-8-8-8s-8,3.6-8,8v3.9h-3.9c-4.4,0-8,3.6-8,8s3.6,8,8,8h3.9
	v3.9c0,4.4,3.6,8,8,8s8-3.6,8-8v-3.9h3.9c4.4,0,8-3.6,8-8S63,457.4,58.6,457.4z M427.8,79.7h3.9v3.9c0,4.4,3.6,8,8,8s8-3.6,8-8v-3.9
	h3.9c4.4,0,8-3.6,8-8s-3.6-8-8-8h-3.9v-3.9c0-4.4-3.6-8-8-8s-8,3.6-8,8v3.9h-3.9c-4.4,0-8,3.6-8,8S423.4,79.7,427.8,79.7z
	 M378.1,44.1c0-4.4-3.6-8-8-8h-113c-4.4,0-8,3.6-8,8s3.6,8,8,8h113C374.5,52.1,378.1,48.5,378.1,44.1z"></path>
<g>
	<path fill="#DB81DA" class="secondary-color" d="M97,40.5v21.8H40.1V40.5H97z"></path>
	<path fill="#FFA4ED" class="primary-color" d="M486.5,256.6h-21.8v-94.2h21.8V256.6z"></path>
	<path fill="#FFA4ED" class="primary-color" d="M486.5,334.7h-21.8v-56.9h21.8V334.7z"></path>
</g>
</svg>