<svg version="1.1" id="Layer_1" xmlns="http://www.w3.org/2000/svg" xmlns:xlink="http://www.w3.org/1999/xlink" x="0px" y="0px" viewBox="0 0 512 512" enable-background="new 0 0 512 512" xml:space="preserve">
<linearGradient id="SVGID_1_" gradientUnits="userSpaceOnUse" x1="255.744" y1="413.0468" x2="255.744" y2="76.4165" class="gradient-element">
	<stop offset="0" class="primary-color-gradient" style="stop-color: #FFA4ED"></stop>
	<stop offset="1" class="secondary-color-gradient" style="stop-color: #DB81DA"></stop>
</linearGradient>
<path fill="url(#SVGID_1_)" d="M394.9,76.3v44.6v31.3h-60.8H116.6l0,0c0-17.3,14-31.3,31.3-31.3h155c17.3,0,31.3-14,31.3-31.3V76.3
	H394.9z M334.1,220c0,17.2-13.9,31.1-31.1,31.1H147.7c-17.2,0-31.1,13.9-31.1,31.1v0.1h217.6h60.8v-31.3v-44.6h-60.8V220z
	 M334.1,342.7c0,17.3-14,31.3-31.3,31.3h-155c-17.3,0-31.3,14-31.3,31.3l0,0h217.6h60.8V374v-44.6h-60.8V342.7z"></path>
<path d="M394.9,413.3H153.5c-4.4,0-8-3.6-8-8s3.6-8,8-8h233.4v-59.9H124.6v67.9c0,4.4-3.6,8-8,8s-8-3.6-8-8v-75.9c0-4.4,3.6-8,8-8
	h278.3c4.4,0,8,3.6,8,8v75.9C402.9,409.7,399.3,413.3,394.9,413.3z M394.9,286.8H116.6c-4.4,0-8-3.6-8-8v-75.9c0-4.4,3.6-8,8-8
	h278.3c4.4,0,8,3.6,8,8v75.9C402.9,283.2,399.3,286.8,394.9,286.8z M124.6,270.8h262.3v-59.9H124.6V270.8z M394.9,160.2H116.6
	c-4.4,0-8-3.6-8-8V76.3c0-4.4,3.6-8,8-8h278.3c4.4,0,8,3.6,8,8s-3.6,8-8,8H124.6v59.9h262.3v-30c0-4.4,3.6-8,8-8s8,3.6,8,8v38
	C402.9,156.7,399.3,160.2,394.9,160.2z"></path>
<path fill="#FFA4ED" class="primary-color" d="M39.6,420.5l60.9,60.9H39.6V420.5z"></path>
<path d="M471.1,460.5c0,4.4-3.6,8-8,8h-59.2c-4.4,0-8-3.6-8-8s3.6-8,8-8h59.2C467.5,452.5,471.1,456,471.1,460.5z M68.5,65.9
	c4.4,0,8-3.6,8-8s-3.6-8-8-8c-14.6,0-26.4,11.8-26.4,26.4s11.8,26.4,26.4,26.4c4.4,0,8-3.6,8-8s-3.6-8-8-8
	c-5.7,0-10.4-4.7-10.4-10.4S62.7,65.9,68.5,65.9z M475,49.7h-3.9v-3.9c0-4.4-3.6-8-8-8s-8,3.6-8,8v3.9h-3.9c-4.4,0-8,3.6-8,8
	s3.6,8,8,8h3.9v3.9c0,4.4,3.6,8,8,8s8-3.6,8-8v-3.9h3.9c4.4,0,8-3.6,8-8S479.4,49.7,475,49.7z"></path>
</svg>