<svg version="1.1" id="Layer_1" xmlns="http://www.w3.org/2000/svg" xmlns:xlink="http://www.w3.org/1999/xlink" x="0px" y="0px" viewBox="0 0 512 512" enable-background="new 0 0 512 512" xml:space="preserve">
<linearGradient id="SVGID_1_" gradientUnits="userSpaceOnUse" x1="263.1099" y1="364.6989" x2="263.1099" y2="80.0174" class="gradient-element">
	<stop offset="0" class="primary-color-gradient" style="stop-color: #FFA4ED"></stop>
	<stop offset="1" class="secondary-color-gradient" style="stop-color: #DB81DA"></stop>
</linearGradient>
<path fill="url(#SVGID_1_)" d="M227,80c20.4,0.1,38.8,7.3,51.8,20.4c13.2,13.2,20.4,31.7,20.4,52.3V292c0,20.6-7.2,39.1-20.4,52.3
	c-13.1,13.1-31.4,20.3-51.8,20.4V80z"></path>
<g>
	<path fill="#FFA4ED" class="primary-color" d="M71.2,15.3v21.8H14.3V15.3H71.2z"></path>
	<path fill="#DB81DA" class="secondary-color" d="M492.9,474.3v12.9H255.9v-12.9H492.9z"></path>
</g>
<path d="M382.7,63.5c-4.2-4.2-4.2-11,0-15.2c4.2-4.2,11-4.2,15.2,0c4.2,4.2,4.2,11,0,15.2S386.9,67.7,382.7,63.5z M358.2,312.6h43
	c4.4,0,8-3.6,8-8s-3.6-8-8-8h-43c-4.4,0-8,3.6-8,8S353.7,312.6,358.2,312.6z M98.3,447.6H24.5c-4.4,0-8,3.6-8,8s3.6,8,8,8h73.8
	c4.4,0,8-3.6,8-8S102.7,447.6,98.3,447.6z M385,114.4c0,3.6,2.9,6.5,6.5,6.5h64.6c3.6,0,6.5-2.9,6.5-6.5s-2.9-6.5-6.5-6.5h-64.6
	C387.9,107.9,385,110.8,385,114.4z M52.1,210.5c4.4,0,8-3.6,8-8c0-11.4,9.3-20.8,20.8-20.8c4.4,0,8-3.6,8-8s-3.6-8-8-8
	c-20.3,0-36.8,16.5-36.8,36.8C44.1,206.9,47.7,210.5,52.1,210.5z M427.8,165.7c-4.4,0-8,3.6-8,8s3.6,8,8,8
	c11.4,0,20.8,9.3,20.8,20.8c0,4.4,3.6,8,8,8s8-3.6,8-8C464.5,182.2,448,165.7,427.8,165.7z M469.2,335.2c0-4.4-3.6-8-8-8H360.1
	c-4.4,0-8,3.6-8,8s3.6,8,8,8h101.1C465.6,343.2,469.2,339.6,469.2,335.2z M68.9,75.6h3.9v3.9c0,4.4,3.6,8,8,8s8-3.6,8-8v-3.9h3.9
	c4.4,0,8-3.6,8-8s-3.6-8-8-8h-3.9v-3.9c0-4.4-3.6-8-8-8s-8,3.6-8,8v3.9h-3.9c-4.4,0-8,3.6-8,8S64.5,75.6,68.9,75.6z M465.9,425.6
	H462v-3.9c0-4.4-3.6-8-8-8s-8,3.6-8,8v3.9h-3.9c-4.4,0-8,3.6-8,8s3.6,8,8,8h3.9v3.9c0,4.4,3.6,8,8,8s8-3.6,8-8v-3.9h3.9
	c4.4,0,8-3.6,8-8S470.3,425.6,465.9,425.6z"></path>
<path d="M310.5,467.1H152.6c-4.4,0-8-3.6-8-8s3.6-8,8-8h149.8v-12.5h-66.7c-4.4,0-8-3.6-8-8v-37.3c0-4.2,3.2-7.7,7.4-8
	c51.6-3.7,85-40.3,85-93.3v-46.2c0-4.4,3.6-8,8-8s8,3.6,8,8V292c0,30.3-9.5,56.6-27.4,76.2c-16.4,17.9-38.7,29-65,32.4v22h66.7
	c4.4,0,8,3.6,8,8v28.5C318.5,463.5,314.9,467.1,310.5,467.1z M211.1,400.7c-0.3,0-0.6,0-1-0.1c-56.6-6.9-93.2-49.6-93.2-108.7v-46.2
	c0-4.4,3.6-8,8-8h37c4.4,0,8,3.6,8,8V292c0,33.9,22.8,56.7,56.7,56.7s56.7-22.8,56.7-56.7V152.7c0-33.9-22.8-56.7-56.7-56.7
	s-56.7,22.8-56.7,56.7v61.7h98.4c4.4,0,8,3.6,8,8c0,4.4-3.6,8-8,8H161.9c-4.4,0-8-3.6-8-8v-69.7c0-20.6,7.2-39.1,20.4-52.3
	C187.4,87.3,206,80,226.5,80c20.6,0,39.1,7.2,52.3,20.4c13.2,13.2,20.4,31.7,20.4,52.3V292c0,20.6-7.2,39.1-20.4,52.3
	c-13.2,13.2-31.7,20.4-52.3,20.4c-20.6,0-39.1-7.2-52.3-20.4c-13.2-13.2-20.4-31.7-20.4-52.3v-38.2h-21V292
	c0,51.3,30.3,86.8,79.2,92.8c4.4,0.5,7.5,4.5,7,8.9C218.6,397.8,215.1,400.7,211.1,400.7z"></path>
</svg>