<svg version="1.1" id="Layer_1" xmlns="http://www.w3.org/2000/svg" xmlns:xlink="http://www.w3.org/1999/xlink" x="0px" y="0px" viewBox="0 0 512 512" enable-background="new 0 0 512 512" xml:space="preserve">
<linearGradient id="SVGID_1_" gradientUnits="userSpaceOnUse" x1="197.4505" y1="414.8024" x2="187.5514" y2="248.4989" class="gradient-element">
	<stop offset="0" class="primary-color-gradient" style="stop-color: #FFA4ED"></stop>
	<stop offset="1" class="secondary-color-gradient" style="stop-color: #DB81DA"></stop>
</linearGradient>
<path fill="url(#SVGID_1_)" d="M45.6,460L280,238.7c11.3-10.6,28.7-11,40.5-1l22.1,18.9l-186,162.7c0,0-67.4,2.7-101,50.6L45.6,460z
	"></path>
<path d="M55.6,478c-2,0-4.1-0.8-5.7-2.3l-17.1-17.1c-1.5-1.5-2.3-3.5-2.3-5.7s0.8-4.2,2.3-5.7c33.8-33.8,42.6-53.3,42.6-94.8v-4.6
	c0-2,0.7-3.9,2-5.3l108.4-121.7c2.9-3.3,8-3.6,11.3-0.7c3.3,2.9,3.6,8,0.7,11.3L91.4,350.9v1.6c0,43.3-9.5,66.9-41.7,100.4l5.9,5.9
	c33.5-32.1,57.2-41.7,100.4-41.7h1.6L346.4,249c1.7-1.5,3.9-2.2,6.2-2c3.3,0.4,6.4,0.5,9.5,0.5c55.7,0,101-45.3,101-101
	c0-55.7-45.3-101-101-101s-101,45.3-101,101c0,4.6,0.4,9.4,1.2,15l0.2,1.2l62.5,57.9c8.7,0.7,34.7,2.7,37.2,2.8
	c13.5,0,26.6-3.5,38.2-10.2l-84.4-84.4c-1.5-1.5-2.3-3.5-2.3-5.7c0-2.1,0.8-4.2,2.3-5.7l17.1-17.1c3.1-3.1,8.2-3.1,11.3,0l91.3,91.3
	c3.1,3.1,3.1,8.2,0,11.3c-3.1,3.1-8.2,3.1-11.3,0l-85.7-85.7l-5.8,5.8l85.7,85.7c1.6,1.6,2.5,3.9,2.3,6.2c-0.2,2.3-1.3,4.4-3.2,5.8
	c-16.2,12.1-35.4,18.5-55.6,18.5c-3.2,0-37.6-2.7-41.3-3.1c-0.9-0.1-1.7-0.3-2.5-0.7c0,0,0,0,0,0l0,0c-0.8-0.4-1.5-0.9-2.2-1.5
	l-66.5-61.6c-1.3-1.2-2.2-2.9-2.5-4.7l-0.6-4c-1-6.4-1.4-11.9-1.4-17.3c0-64.5,52.5-117,117-117s117,52.5,117,117
	c0,64.5-52.5,117-117,117c-2.5,0-5-0.1-7.6-0.3L166,431.1c-1.5,1.3-3.4,2-5.3,2h-4.6c-41.5,0-61,8.8-94.8,42.6
	C59.7,477.3,57.7,478,55.6,478z"></path>
<path fill="#DB81DA" class="secondary-color" d="M490.4,379.2v44.5H446v-44.5H490.4z M446,490.6h44.5v-44.5H446V490.6z M377.6,490.6h44.5v-44.5h-44.5V490.6z
	"></path>
<path d="M498.8,287.4c0,4.4-3.6,8-8,8h-3.9v3.9c0,4.4-3.6,8-8,8s-8-3.6-8-8v-3.9H467c-4.4,0-8-3.6-8-8s3.6-8,8-8h3.9v-3.9
	c0-4.4,3.6-8,8-8s8,3.6,8,8v3.9h3.9C495.2,279.4,498.8,282.9,498.8,287.4z M336.2,411.4h-43c-4.4,0-8,3.6-8,8s3.6,8,8,8h43
	c4.4,0,8-3.6,8-8S340.7,411.4,336.2,411.4z M415.1,374.2H299.8c-4.4,0-8,3.6-8,8s3.6,8,8,8h115.2c4.4,0,8-3.6,8-8
	S419.5,374.2,415.1,374.2z M459,57.3c0,4.4,3.6,8,8,8s8-3.6,8-8v-3.9h3.9c4.4,0,8-3.6,8-8s-3.6-8-8-8H475v-3.9c0-4.4-3.6-8-8-8
	s-8,3.6-8,8v3.9h-3.9c-4.4,0-8,3.6-8,8s3.6,8,8,8h3.9V57.3z M69,173.3c-4.2,4.2-4.2,11,0,15.2s11,4.2,15.2,0c4.2-4.2,4.2-11,0-15.2
	C80,169.1,73.2,169.1,69,173.3z M37.2,84.9c20.3,0,36.8-16.5,36.8-36.8c0-4.4-3.6-8-8-8s-8,3.6-8,8c0,11.4-9.3,20.8-20.8,20.8
	c-4.4,0-8,3.6-8,8S32.8,84.9,37.2,84.9z M115.9,68.9c-11.4,0-20.8-9.3-20.8-20.8c0-4.4-3.6-8-8-8s-8,3.6-8,8
	c0,20.3,16.5,36.8,36.8,36.8c4.4,0,8-3.6,8-8S120.4,68.9,115.9,68.9z M115.9,90.2c-20.3,0-36.8,16.5-36.8,36.8c0,4.4,3.6,8,8,8
	s8-3.6,8-8c0-11.4,9.3-20.8,20.8-20.8c4.4,0,8-3.6,8-8S120.4,90.2,115.9,90.2z M73.9,126.9c0-20.3-16.5-36.8-36.8-36.8
	c-4.4,0-8,3.6-8,8s3.6,8,8,8c11.4,0,20.8,9.3,20.8,20.8c0,4.4,3.6,8,8,8S73.9,131.4,73.9,126.9z M249.5,218.1h-92.9
	c-4.4,0-8,3.6-8,8s3.6,8,8,8h92.9c4.4,0,8-3.6,8-8S254,218.1,249.5,218.1z M212.3,97.2c4.4,0,8-3.6,8-8s-3.6-8-8-8
	c-5.7,0-10.4-4.7-10.4-10.4s4.7-10.4,10.4-10.4c4.4,0,8-3.6,8-8s-3.6-8-8-8c-14.6,0-26.4,11.8-26.4,26.4S197.7,97.2,212.3,97.2z
	 M249,156.7l-24.9,22.5l-36.5,0.2c-4.4,0-8,3.6-7.9,8.1c0,4.4,3.6,7.9,8,7.9c0,0,0,0,0.1,0l39.6-0.3c2,0,3.9-0.8,5.3-2.1l27.1-24.6
	c3.3-3,3.5-8,0.6-11.3C257.3,154,252.2,153.7,249,156.7z"></path>
</svg>