<svg version="1.1" id="Layer_1" xmlns="http://www.w3.org/2000/svg" xmlns:xlink="http://www.w3.org/1999/xlink" x="0px" y="0px" viewBox="0 0 512 512" enable-background="new 0 0 512 512" xml:space="preserve">
<linearGradient id="SVGID_1_" gradientUnits="userSpaceOnUse" x1="263.73" y1="547.171" x2="263.73" y2="35.0808" class="gradient-element">
	<stop offset="0" class="primary-color-gradient" style="stop-color: #FFA4ED"></stop>
	<stop offset="1" class="secondary-color-gradient" style="stop-color: #DB81DA"></stop>
</linearGradient>
<path fill="url(#SVGID_1_)" d="M446.1,262.6c0,100.8-81.7,182.6-182.5,182.6C166.3,445.2,86.7,369,81.3,273
	c8.7-2.9,21.6-2.4,25.9,7.9c24.2,58.5,67,101.6,127.1,111.5h-34v23.1h118v-23.1h-36.8c26.5-4.9,45.2-17.8,56.3-30.5
	c19.5-22.3,31.8-54.3,31.3-88.9c-0.2-16.9-2.7-37.1-12.8-57.1c-14.9-32.9-43.5-64.6-90.6-89.2c-19.5-10.2-8-41.5,14-41.6h0.7
	c13.5,0,26.6,1.3,39.4,3.9C393.1,112.6,446.1,181.4,446.1,262.6z"></path>
<g>
	<path fill="#DB81DA" class="secondary-color" d="M33.8,417.1L94.7,478H33.8V417.1z M360,484.8h51.9v-37.3H360V484.8z"></path>
	<path fill="#FFA4ED" class="primary-color" d="M439.3,448.3h47.2v35.8h-47.2V448.3z"></path>
</g>
<path d="M445.7,49.1c-14.6,0-26.4,11.8-26.4,26.4s11.8,26.4,26.4,26.4s26.4-11.8,26.4-26.4S460.3,49.1,445.7,49.1z M445.7,85.9
	c-5.7,0-10.4-4.7-10.4-10.4c0-5.7,4.7-10.4,10.4-10.4s10.4,4.7,10.4,10.4C456.1,81.2,451.5,85.9,445.7,85.9z M115.2,86.1
	c0,4.4-3.6,8-8,8c-11.4,0-20.8,9.3-20.8,20.7c0,4.4-3.6,8-8,8s-8-3.6-8-8c0-20.3,16.5-36.8,36.8-36.8
	C111.6,78.1,115.2,81.7,115.2,86.1z M65.2,114.9c0,4.4-3.6,8-8,8s-8-3.6-8-8c0-11.4-9.3-20.8-20.8-20.8c-4.4,0-8-3.6-8-8s3.6-8,8-8
	C48.7,78.1,65.2,94.6,65.2,114.9z M65.2,36.1c0,20.3-16.5,36.8-36.8,36.8c-4.4,0-8-3.6-8-8s3.6-8,8-8c11.4,0,20.8-9.3,20.8-20.8
	c0-4.4,3.6-8,8-8S65.2,31.7,65.2,36.1z M115.2,64.9c0,4.4-3.6,8-8,8c-20.3,0-36.8-16.5-36.8-36.8c0-4.4,3.6-8,8-8s8,3.6,8,8
	c0,11.4,9.3,20.8,20.8,20.8C111.6,56.9,115.2,60.4,115.2,64.9z M452.3,371.5c0,4.4-3.6,8-8,8h-43c-4.4,0-8-3.6-8-8s3.6-8,8-8h43
	C448.7,363.5,452.3,367.1,452.3,371.5z M430.8,401.5c0,4.4-3.6,8-8,8H349c-4.4,0-8-3.6-8-8s3.6-8,8-8h73.8
	C427.2,393.5,430.8,397.1,430.8,401.5z M58.3,354.3c0,4.4-3.6,8-8,8h-3.9v3.9c0,4.4-3.6,8-8,8s-8-3.6-8-8v-3.9h-3.9
	c-4.4,0-8-3.6-8-8s3.6-8,8-8h3.9v-3.9c0-4.4,3.6-8,8-8s8,3.6,8,8v3.9h3.9C54.7,346.3,58.3,349.9,58.3,354.3z"></path>
<path d="M259.3,453.2c-103.7,0-188.1-84.4-188.1-188.1C71.2,161.4,155.6,77,259.3,77c103.7,0,188.1,84.4,188.1,188.1
	c0,37.5-11,73.7-31.8,104.7c-2.5,3.7-7.4,4.6-11.1,2.2c-3.7-2.5-4.6-7.4-2.2-11.1c19-28.4,29.1-61.5,29.1-95.8
	c0-94.9-77.2-172.1-172.1-172.1c-94.9,0-172.1,77.2-172.1,172.1c0,94.9,77.2,172.1,172.1,172.1c38.4,0,74.7-12.4,105.1-35.8
	c3.5-2.7,8.5-2.1,11.2,1.4c2.7,3.5,2.1,8.5-1.4,11.2C341,439.7,301.3,453.2,259.3,453.2z M326.3,417.1v-24.7c0-4.4-3.6-8-8-8h-41.6
	c-4.4,0-8,3.6-8,8s3.6,8,8,8h33.6v8.7h-102v-8.7h43.6c2.1,0,4.2-0.8,5.7-2.3c1.5-1.5,2.3-3.5,2.3-5.7l0-29.8c0-4.2-3.2-7.7-7.4-8
	c-40.3-2.9-66.3-31.5-66.3-72.9v-28.9h28.2v28.9c0,26.8,18,44.9,44.9,44.9s44.9-18,44.9-44.9V178.6c0-26.8-18-44.9-44.9-44.9
	s-44.9,18-44.9,44.9v31.6c0,4.4,3.6,8,8,8s8-3.6,8-8v-31.6c0-18.1,10.8-28.9,28.9-28.9s28.9,10.8,28.9,28.9v103.2
	c0,18.1-10.8,28.9-28.9,28.9s-28.9-10.8-28.9-28.9v-36.9c0-4.4-3.6-8-8-8h-44.2c-4.4,0-8,3.6-8,8v36.9c0,24.6,7.7,46,22.3,61.9
	c13,14.2,30.7,23.2,51.4,26.1l0,14.6h-43.6c-4.4,0-8,3.6-8,8v24.7c0,4.4,3.6,8,8,8h118C322.7,425.1,326.3,421.6,326.3,417.1z
	 M276.1,369.6c43.9-6.9,72.3-41.4,72.3-87.8v-36.9c0-4.4-3.6-8-8-8s-8,3.6-8,8v36.9c0,38.7-22.5,66.3-58.8,72
	c-4.4,0.7-7.3,4.8-6.7,9.1c0.6,3.9,4,6.8,7.9,6.8C275.3,369.7,275.7,369.7,276.1,369.6z"></path>
</svg>