<svg version="1.1" id="Layer_1" xmlns="http://www.w3.org/2000/svg" xmlns:xlink="http://www.w3.org/1999/xlink" x="0px" y="0px" viewBox="0 0 512 512" enable-background="new 0 0 512 512" xml:space="preserve">
<g>
	<path fill="#DB81DA" class="secondary-color" d="M493.9,101.5L433,40.5h60.9V101.5z"></path>
	<path fill="#DB81DA" class="secondary-color" d="M106.3,49.5V27.7h56.9v21.8H106.3z M29.4,159.7h21.8v-56.9H29.4V159.7z M88.1,27.7H51.2h-20h-1.8v56.9h21.8
		V49.5h36.9V27.7z"></path>
</g>
<path d="M143.7,273.5c0,4.4-3.6,8-8,8h-43c-4.4,0-8-3.6-8-8s3.6-8,8-8h43C140.2,265.5,143.7,269,143.7,273.5z M114.2,295.5H40.4
	c-4.4,0-8,3.6-8,8s3.6,8,8,8h73.8c4.4,0,8-3.6,8-8S118.7,295.5,114.2,295.5z M485.4,443.1h-15.8v-15.8c0-4.4-3.6-8-8-8s-8,3.6-8,8
	v15.8h-15.8c-4.4,0-8,3.6-8,8s3.6,8,8,8h15.8v15.8c0,4.4,3.6,8,8,8s8-3.6,8-8v-15.8h15.8c4.4,0,8-3.6,8-8S489.8,443.1,485.4,443.1z
	 M114.8,164.7c5.9,0,10.8-4.8,10.8-10.8s-4.8-10.8-10.8-10.8S104,148.1,104,154S108.8,164.7,114.8,164.7z M437.8,130.4
	c-14.6,0-26.4-11.8-26.4-26.4s11.8-26.4,26.4-26.4s26.4,11.8,26.4,26.4S452.4,130.4,437.8,130.4z M437.8,114.4
	c5.7,0,10.4-4.7,10.4-10.4c0-5.7-4.7-10.4-10.4-10.4s-10.4,4.7-10.4,10.4C427.4,109.7,432.1,114.4,437.8,114.4z M436.9,341.2h3.9
	v3.9c0,4.4,3.6,8,8,8s8-3.6,8-8v-3.9h3.9c4.4,0,8-3.6,8-8s-3.6-8-8-8h-3.9v-3.9c0-4.4-3.6-8-8-8s-8,3.6-8,8v3.9h-3.9
	c-4.4,0-8,3.6-8,8S432.5,341.2,436.9,341.2z"></path>
<linearGradient id="SVGID_1_" gradientUnits="userSpaceOnUse" x1="314.5766" y1="470.5895" x2="314.5766" y2="127.2632" class="gradient-element">
	<stop offset="0" class="primary-color-gradient" style="stop-color: #FFA4ED"></stop>
	<stop offset="1" class="secondary-color-gradient" style="stop-color: #DB81DA"></stop>
</linearGradient>
<path fill="url(#SVGID_1_)" d="M288.2,283.5l-72.7-36.4l37.6-89.4l72.4,36.2L288.2,283.5z M338.3,398.1h-87.8v75.3h138v-25.1
	C388.5,420.6,366,398.1,338.3,398.1z M363.4,134.6v100.4c27.7,0,50.2-22.5,50.2-50.2C413.6,157.1,391.1,134.6,363.4,134.6z"></path>
<path d="M388.5,481.3H112.4c-4.4,0-8-3.6-8-8v-25.1c0-32.1,26.1-58.2,58.2-58.2c4.4,0,8,3.6,8,8s-3.6,8-8,8
	c-20.5,0-37.7,14.7-41.4,34.2h242.2c4.4,0,8,3.6,8,8s-3.6,8-8,8h-243v9.1h260.1v-17.1c0-23.3-18.9-42.2-42.2-42.2h-8.7
	c-3.4,0-6.5-2.2-7.6-5.4c-1.1-3.2,0-6.8,2.7-8.9c27.5-21.3,43.2-53.3,43.2-87.8v-70.8c0-3.6,2.5-6.8,6-7.7
	c18.6-4.8,31.7-21.6,31.7-40.7c0-23.3-18.9-42.2-42.2-42.2c-3.6,0-7.3,0.6-11.8,1.9c-4.2,1.2-8.7-1.2-9.9-5.4
	c-1.2-4.2,1.2-8.7,5.4-9.9c6-1.7,11.1-2.6,16.2-2.6c32.1,0,58.2,26.1,58.2,58.2c0,24.3-15.2,45.8-37.6,54.3v65
	c0,32.8-12.5,63.7-34.7,87.1c26.9,5.1,47.3,28.8,47.3,57.2v25.1C396.5,477.8,392.9,481.3,388.5,481.3z M256.7,406.1
	c-25.7,0-50.3-9.7-69.3-27.2c-2.4-2.2-3.2-5.7-2-8.8s4.2-5.1,7.5-5.1h74.7v-9.1H95.3v9.1h64.3c4.4,0,8,3.6,8,8s-3.6,8-8,8H87.3
	c-4.4,0-8-3.6-8-8v-25.1c0-4.4,3.6-8,8-8h188.2c4.4,0,8,3.6,8,8V373c0,4.4-3.6,8-8,8h-57.2c11.8,5.9,24.9,9.1,38.4,9.1
	c47.5,0,86.1-38.6,86.1-86.1v-65c-8.1-3.1-15.4-8-21.4-14.3l-25.8,61.9c-0.9,2-2.5,3.6-4.6,4.4c-2.1,0.8-4.4,0.6-6.4-0.3L212,254.4
	c-3.8-1.9-5.4-6.4-3.8-10.2l72.4-173.8c0.9-2,2.5-3.6,4.6-4.4s4.4-0.6,6.4,0.3l72.7,36.3c4,2,5.6,6.8,3.6,10.7
	c-2,4-6.8,5.6-10.7,3.6l-65-32.5l-66.3,159l58.3,29.2l28-67.1c1.2-2.8,3.9-4.8,7-4.9c3.1-0.2,6,1.5,7.4,4.2
	c5.6,10.2,15.2,17.8,26.3,20.7c3.5,0.9,6,4.1,6,7.7V304C358.9,360.3,313,406.1,256.7,406.1z M363.4,217.8
	c-18.2,0-33.1-14.8-33.1-33.1c0-4.4,3.6-8,8-8s8,3.6,8,8c0,9.4,7.7,17.1,17.1,17.1s17.1-7.7,17.1-17.1c0-4.4,3.6-8,8-8s8,3.6,8,8
	C396.5,203,381.7,217.8,363.4,217.8z M364.1,97.3c-1.2,0-2.4-0.3-3.6-0.8l-50.2-25.1c-1.9-0.9-3.3-2.6-4-4.6c-0.7-2-0.5-4.2,0.4-6.1
	l11.2-22.4c2-4,6.8-5.6,10.7-3.6l50.2,25.1c1.9,0.9,3.3,2.6,4,4.6c0.7,2,0.5,4.2-0.4,6.1l-11.2,22.4C369.8,95.7,367,97.3,364.1,97.3
	z M324.6,60.6l35.9,17.9l4.1-8.1l-35.9-17.9L324.6,60.6z"></path>
</svg>