<svg version="1.1" id="Layer_1" xmlns="http://www.w3.org/2000/svg" xmlns:xlink="http://www.w3.org/1999/xlink" x="0px" y="0px" viewBox="0 0 512 512" enable-background="new 0 0 512 512" xml:space="preserve">
<linearGradient id="SVGID_1_" gradientUnits="userSpaceOnUse" x1="288.0055" y1="417.3196" x2="288.0055" y2="187.3081" class="gradient-element">
	<stop offset="0" class="primary-color-gradient" style="stop-color: #FFA4ED"></stop>
	<stop offset="1" class="secondary-color-gradient" style="stop-color: #DB81DA"></stop>
</linearGradient>
<path fill="url(#SVGID_1_)" d="M449.8,214.1v52.4v116c0,26.8-21.7,27.4-48.5,27.4H129.7c-9,0.9,2.3-11.5,0-29.9
	c0-19.1,7.3-28.6,26.4-28.6l126.2-0.3c-6.4-14.1-2.7-33.1,10.4-44c1.6-1.3,3.1-2.7,4.6-4.2c13.6-13.6,20.5-31.4,20.5-49.2
	c0-8.9-1.6-17.7-5-26.1c8.4,3.4,16.3,8.6,23.1,15.4c13.6,13.6,20.3,31.5,20.3,49.3c0,4.5-0.5,9.1-1.4,13.5
	c-2.6,13.1-9,25.5-19.2,35.7c-3.7,3.6-7.6,6.8-11.8,9.4l42.5-0.1c19.1,0,34.6-15.5,34.6-34.6v-99.2c0-17-1-34.2,16-34.7
	c9.2-0.3,20.6-6.6,26.6-0.6C449.4,187.3,449.8,205.3,449.8,214.1z"></path>
<path d="M454.2,168.3h-22l2.5-17.5c0.6-4.4-2.4-8.4-6.8-9L98,94.9c-2.1-0.3-4.2,0.3-5.9,1.5c-1.7,1.3-2.8,3.2-3.1,5.3L56.8,328.9
	c-0.3,2.1,0.3,4.2,1.5,5.9c1.3,1.7,3.2,2.8,5.3,3.1l34,4.8c0.4,0.1,0.8,0.1,1.1,0.1c3.9,0,7.3-2.9,7.9-6.9c0.6-4.4-2.4-8.4-6.8-9
	l-26.1-3.7l30-211.3l314,44.5l-1.7,11.8H223.9c-0.4-0.1-0.9-0.2-1.3-0.3l-74.1-10.5c-4.4-0.6-8.4,2.4-9,6.8c-0.2,1.4,0,2.8,0.5,4
	h-18.9c-4.4,0-8,3.6-8,8v229.4c0,4.4,3.6,8,8,8h333.1c4.4,0,8-3.6,8-8V176.3C462.2,171.9,458.6,168.3,454.2,168.3z M446.2,397.7
	H129.1V184.3h317.1V397.7z M179.9,358.9h74.4c10,5.1,21.4,8,33.4,8s23.3-2.9,33.4-8h74.4c4.4,0,8-3.6,8-8V231.1c0-4.4-3.6-8-8-8
	h-81.8c-8.1-3-16.8-4.7-26-4.7s-17.9,1.7-26,4.7h-81.8c-4.4,0-8,3.6-8,8v119.8C171.9,355.3,175.4,358.9,179.9,358.9z M387.4,239.1
	v103.8h-45.2c4.9-5.4,9-11.4,12.2-18c0.1-0.1,0.1-0.3,0.2-0.4c0.4-0.9,0.8-1.8,1.2-2.6c0.1-0.3,0.3-0.6,0.4-0.9
	c0.3-0.7,0.6-1.5,0.9-2.2c0.2-0.4,0.3-0.9,0.5-1.3c0.2-0.6,0.4-1.3,0.6-1.9c0.2-0.5,0.3-1.1,0.5-1.6c0.2-0.6,0.3-1.1,0.5-1.7
	c0.2-0.6,0.3-1.2,0.5-1.8c0.1-0.5,0.2-1,0.4-1.5c0.1-0.7,0.3-1.3,0.4-2c0.1-0.5,0.2-1,0.3-1.5c0.1-0.7,0.2-1.4,0.3-2.1
	c0.1-0.5,0.1-1,0.2-1.5c0.1-0.7,0.2-1.4,0.2-2.1c0.1-0.5,0.1-1.1,0.1-1.6c0.1-0.7,0.1-1.3,0.1-2c0-0.6,0-1.3,0-1.9
	c0-0.6,0-1.1,0-1.7c0-2.6-0.1-5.1-0.4-7.6c-1.8-17.8-9.8-33.9-22.3-45.9H387.4z M345.5,286.4c0,0.2,0,0.5,0.1,0.7
	c0.1,0.6,0.1,1.3,0.1,1.9c0,0.3,0,0.6,0.1,0.9c0,0.7,0,1.4,0.1,2.2c0,0.1,0,0.3,0,0.4c0,0.1,0,0.2,0,0.3c0,0.7,0,1.5-0.1,2.2
	c0,0.3,0,0.6,0,0.9c0,0.7-0.1,1.3-0.2,2c0,0.3-0.1,0.6-0.1,1c-0.1,0.7-0.2,1.3-0.2,1.9c0,0.3-0.1,0.7-0.2,1
	c-0.1,0.6-0.2,1.2-0.3,1.7c-0.1,0.3-0.1,0.7-0.2,1c-0.1,0.7-0.3,1.3-0.5,2c-0.1,0.3-0.2,0.6-0.2,0.9c-0.2,0.6-0.3,1.3-0.5,1.9
	c-0.1,0.2-0.1,0.3-0.1,0.5c-0.3,0.8-0.5,1.6-0.8,2.4c-0.1,0.2-0.1,0.3-0.2,0.5c-8.2,22.1-29.6,38-54.6,38
	c-25.1,0-46.5-15.9-54.7-38.2c0,0,0,0,0,0c-0.6-1.7-1.2-3.4-1.6-5.2c0-0.2-0.1-0.3-0.1-0.5c-0.2-0.9-0.4-1.7-0.6-2.6c0,0,0,0,0,0
	c-0.2-0.8-0.3-1.7-0.5-2.5c0-0.2-0.1-0.4-0.1-0.6c-0.3-1.8-0.4-3.5-0.5-5.4c0-0.2,0-0.3,0-0.5c0-0.9-0.1-1.8-0.1-2.8
	c0-0.9,0-1.9,0.1-2.8c0-0.2,0-0.3,0-0.5c0-0.8,0.1-1.7,0.2-2.5c0-0.1,0-0.1,0-0.2c3-29.3,27.8-52.2,57.9-52.2
	C317.6,234.4,342.4,257.2,345.5,286.4z M187.9,239.1h48.3c-14.3,13.7-22.7,32.8-22.7,53.5c0,1.2,0,2.5,0.1,3.7c0,0.3,0,0.5,0.1,0.8
	c0.1,1,0.1,1.9,0.2,2.9c0,0.4,0.1,0.8,0.2,1.3c0.1,0.8,0.2,1.5,0.3,2.3c0.1,0.5,0.2,1,0.2,1.4c0.1,0.7,0.2,1.4,0.4,2.1
	c0.1,0.5,0.2,1,0.3,1.5c0.2,0.7,0.3,1.4,0.5,2.1c0.1,0.5,0.2,0.9,0.4,1.4c0.2,0.7,0.4,1.4,0.6,2.2c0.1,0.4,0.2,0.8,0.4,1.2
	c0.3,0.8,0.5,1.6,0.8,2.4c0.1,0.3,0.2,0.6,0.3,0.9c0.3,0.9,0.7,1.8,1.1,2.7c0.1,0.2,0.1,0.3,0.2,0.5c0.4,1,0.9,2.1,1.4,3.1
	c0,0,0,0,0,0c3.2,6.6,7.3,12.7,12.3,18.1h-45.2V239.1z"></path>
<path fill="#FFA4ED" class="primary-color" d="M490.7,380.6v44.5h-44.5v-44.5H490.7z M446.2,492h44.5v-44.5h-44.5V492z M377.8,492h44.5v-44.5h-44.5V492z"></path>
<path d="M53.8,92c-14.6,0-26.4-11.8-26.4-26.4s11.8-26.4,26.4-26.4c4.4,0,8,3.6,8,8s-3.6,8-8,8c-5.7,0-10.4,4.7-10.4,10.4
	S48.1,76,53.8,76c4.4,0,8,3.6,8,8S58.2,92,53.8,92z M137.5,451.8H63.7c-4.4,0-8,3.6-8,8s3.6,8,8,8h73.8c4.4,0,8-3.6,8-8
	S141.9,451.8,137.5,451.8z M203.8,80h3.9c4.4,0,8-3.6,8-8s-3.6-8-8-8h-3.9v-3.9c0-4.4-3.6-8-8-8s-8,3.6-8,8V64H184c-4.4,0-8,3.6-8,8
	s3.6,8,8,8h3.9v3.9c0,4.4,3.6,8,8,8s8-3.6,8-8V80z M234.3,453.4h-3.9v-3.9c0-4.4-3.6-8-8-8s-8,3.6-8,8v3.9h-3.9c-4.4,0-8,3.6-8,8
	s3.6,8,8,8h3.9v3.9c0,4.4,3.6,8,8,8s8-3.6,8-8v-3.9h3.9c4.4,0,8-3.6,8-8S238.7,453.4,234.3,453.4z M464.6,102.9
	c-4.2-4.2-11-4.2-15.2,0c-4.2,4.2-4.2,11,0,15.2c4.2,4.2,11,4.2,15.2,0S468.8,107.1,464.6,102.9z M141.6,373.1c0-4.4-3.6-8-8-8H49
	c-4.4,0-8,3.6-8,8s3.6,8,8,8h84.6C138,381.1,141.6,377.5,141.6,373.1z"></path>
</svg>