<svg version="1.1" id="Layer_1" xmlns="http://www.w3.org/2000/svg" xmlns:xlink="http://www.w3.org/1999/xlink" x="0px" y="0px" viewBox="0 0 512 512" enable-background="new 0 0 512 512" xml:space="preserve">
<g>
	<linearGradient id="SVGID_1_" gradientUnits="userSpaceOnUse" x1="236.0004" y1="336.9118" x2="236.0004" y2="138.9615" class="gradient-element">
		<stop offset="0" class="primary-color-gradient" style="stop-color: #FFA4ED"></stop>
		<stop offset="1" class="secondary-color-gradient" style="stop-color: #DB81DA"></stop>
	</linearGradient>
	<path fill="url(#SVGID_1_)" d="M393.3,144.2V333H78.7v0c0-36.2,29.3-65.5,65.5-65.5h33.9c9.6,26.2,31.9,44.5,57.9,44.5
		c34.7,0,62.9-32.8,62.9-73.4c0-38.6-25.5-70.1-57.8-73.2c4.8-12.4,16.9-21.2,31-21.2H393.3z"></path>
	<linearGradient id="SVGID_2_" gradientUnits="userSpaceOnUse" x1="255.743" y1="165.1431" x2="255.743" y2="311.9732">
		<stop offset="0" class="primary-color-gradient" style="stop-color: #FFA4ED"></stop>
		<stop offset="1" class="secondary-color-gradient" style="stop-color: #DB81DA"></stop>
	</linearGradient>
	<path fill="url(#SVGID_2_)" d="M236.1,165.1l-0.1,0c-4.7,0-7.2,5.5-4.2,9c11.4,13.3,18.5,31.7,18.5,52c0,27.9-13.3,52.1-32.9,64.5
		c-7.5,4.8-6.1,16.2,2.4,18.8c5.2,1.6,10.7,2.5,16.3,2.5c34.7,0,62.9-32.8,62.9-73.4S270.8,165.1,236.1,165.1z"></path>
</g>
<path d="M424.2,445.8H47.7c-4.4,0-8-3.6-8-8s3.6-8,8-8h368.6v-21.1H50.9c-4.4,0-8-3.6-8-8v-36.8c0-4.4,3.6-8,8-8h365.4l0-2.1V123.2
	l0-2H55.8V333c0,4.4-3.6,8-8,8s-8-3.6-8-8V113.2c0-4.4,3.6-8,8-8h376.5c4.4,0,8,3.5,8,7.9l0.1,10v230.8l-0.1,10.1
	c0,4.4-3.6,7.9-8,7.9H58.9v20.8h365.3c4.4,0,8,3.6,8,8v37.1C432.2,442.2,428.7,445.8,424.2,445.8z M393.3,341H78.7c-4.4,0-8-3.6-8-8
	V144.2c0-4.4,3.6-8,8-8h314.5c4.4,0,8,3.6,8,8V333C401.3,337.4,397.7,341,393.3,341z M86.7,325h298.5V152.2H86.7V325z M236.1,320
	c-39.1,0-70.9-36.5-70.9-81.4s31.8-81.4,70.9-81.4s70.9,36.5,70.9,81.4S275.2,320,236.1,320z M236.1,173.1
	c-30.3,0-54.9,29.3-54.9,65.4c0,36.1,24.6,65.4,54.9,65.4s54.9-29.3,54.9-65.4C291,202.5,266.3,173.1,236.1,173.1z"></path>
<path d="M504,377.9c0,4.4-3.6,8-8,8h-15.8v15.8c0,4.4-3.6,8-8,8s-8-3.6-8-8v-15.8h-15.8c-4.4,0-8-3.6-8-8s3.6-8,8-8h15.8v-15.8
	c0-4.4,3.6-8,8-8s8,3.6,8,8v15.8H496C500.4,369.9,504,373.4,504,377.9z M68.3,27.9c0-5,4.1-9,9-9s9,4.1,9,9s-4.1,9-9,9
	S68.3,32.9,68.3,27.9z M108.3,27.9c0-5,4.1-9,9-9s9,4.1,9,9s-4.1,9-9,9S108.3,32.9,108.3,27.9z M148.3,27.9c0-5,4.1-9,9-9s9,4.1,9,9
	s-4.1,9-9,9S148.3,32.9,148.3,27.9z M323,63.5H57.2c-4.4,0-8,3.6-8,8s3.6,8,8,8H323c4.4,0,8-3.6,8-8S327.4,63.5,323,63.5z"></path>
<g>
	<path fill="#DB81DA" class="secondary-color" d="M486.3,101.9l-75.8-75.8h75.8V101.9z M383.7,489.9h102.6v-21.8H383.7V489.9z"></path>
	<path fill="#FFA4ED" class="primary-color" d="M262.8,468.1h102.6v21.8H262.8V468.1z"></path>
</g>
</svg>