<svg version="1.1" id="Layer_1" xmlns="http://www.w3.org/2000/svg" xmlns:xlink="http://www.w3.org/1999/xlink" x="0px" y="0px" viewBox="0 0 512 512" enable-background="new 0 0 512 512" xml:space="preserve">
<linearGradient id="SVGID_1_" gradientUnits="userSpaceOnUse" x1="253.4158" y1="462.3286" x2="253.4158" y2="83.5269" class="gradient-element">
	<stop offset="0" class="primary-color-gradient" style="stop-color: #FFA4ED"></stop>
	<stop offset="1" class="secondary-color-gradient" style="stop-color: #DB81DA"></stop>
</linearGradient>
<path fill="url(#SVGID_1_)" d="M403.8,87.1v373.3H103v-21.4c0,5.4,1-45.9,64-45.9l196.1,0.5c2.1,2.1,1-313.3,1-313.2h31.4
	C400.1,80.3,403.8,83.3,403.8,87.1z"></path>
<path d="M395.5,117.2V85.3H111v45.6v322.3h284.5V152.9c0-4.4,3.6-8,8-8s8,3.6,8,8v308.3c0,4.4-3.6,8-8,8H103c-4.4,0-8-3.6-8-8V130.8
	V77.3c0-4.4,3.6-8,8-8h300.5c4.4,0,8,3.6,8,8v39.9c0,4.4-3.6,8-8,8S395.5,121.6,395.5,117.2z M207,162.8h-38.9v-17.2
	c0-4.4-3.6-8-8-8s-8,3.6-8,8v25.2c0,4.4,3.6,8,8,8H207c4.4,0,8-3.6,8-8S211.4,162.8,207,162.8z M207,227.3h-38.9v-17.2
	c0-4.4-3.6-8-8-8s-8,3.6-8,8v25.2c0,4.4,3.6,8,8,8H207c4.4,0,8-3.6,8-8S211.4,227.3,207,227.3z M207,290.9h-38.9v-17.2
	c0-4.4-3.6-8-8-8s-8,3.6-8,8v25.2c0,4.4,3.6,8,8,8H207c4.4,0,8-3.6,8-8S211.4,290.9,207,290.9z M160.1,339.2c-4.4,0-8,3.6-8,8v25.2
	c0,4.4,3.6,8,8,8H207c4.4,0,8-3.6,8-8s-3.6-8-8-8h-38.9v-17.2C168.1,342.8,164.5,339.2,160.1,339.2z M288.9,404.4h21.1
	c4.4,0,8-3.6,8-8s-3.6-8-8-8h-13.1v-24.3c0-3.9-2.9-7.3-6.7-7.9c-23.3-3.7-41-18.2-45.2-35.9h12.2c4.4,0,8-3.6,8-8s-3.6-8-8-8h-21.1
	c-4.4,0-8,3.6-8,8c0,27.2,21.8,50.9,52.8,58.4v25.7C280.9,400.9,284.5,404.4,288.9,404.4z M236.1,229.9c4.4,0,8-3.6,8-8
	c0-20.7,17.9-35.7,45.6-38.4c4.1-0.4,7.2-3.8,7.2-8v-23.9h13.1c4.4,0,8-3.6,8-8s-3.6-8-8-8h-21.1c-4.4,0-8,3.6-8,8v24.9
	c-31.9,5.5-52.8,26.3-52.8,53.3C228.1,226.3,231.7,229.9,236.1,229.9z M313.8,295.9c-5.7-3-12.7-5.6-20.4-7.6l-2.4-0.7
	c-2.4-0.6-5-0.1-6.9,1.4c-2,1.5-3.1,3.9-3.1,6.3v47.1c0,4.4,3.6,8,8,8s8-3.6,8-8v-36.4c1.8,0.6,3.5,1.3,5.1,2v35.5
	c0,2.3,1,4.5,2.7,6c1.5,1.3,3.4,2,5.3,2c0.3,0,0.6,0,0.9-0.1c24.3-2.8,38.8-17.1,38.8-38.3c0-4.4-3.6-8-8-8s-8,3.6-8,8
	c0,11.9-7.3,17.7-15.7,20.5V303C318.1,300,316.4,297.3,313.8,295.9z M311.3,168c-4.4-0.7-8.4,2.3-9.1,6.7c-0.7,4.4,2.3,8.4,6.7,9.1
	c23.3,3.6,41,18.1,45.1,36h-12.2c-4.4,0-8,3.6-8,8s3.6,8,8,8h21.1c4.4,0,8-3.6,8-8C370.9,198.4,345.8,173.3,311.3,168z M370.9,313.2
	c0-16.5-6.8-39.5-38.9-55.6c-8-4-17.3-7.4-27.7-10.2c-39.1-10.4-39.1-20.6-39.1-25.5c0-8.8,8.4-13.2,15.7-15.4v22
	c0,3.2,1.9,6.1,4.9,7.4c5.5,2.3,12,4.5,19.8,6.6c0.3,0.1,0.7,0.2,1,0.3c0.4,0.1,0.9,0.3,1.3,0.4c2.4,0.7,5,0.2,7-1.3
	s3.2-3.9,3.2-6.4v-38c0-4.4-3.6-8-8-8s-8,3.6-8,8v27.3c-1.8-0.6-3.5-1.1-5.1-1.7v-26.3c0-2.3-1-4.5-2.7-6c-1.7-1.5-4-2.2-6.3-1.9
	c-23.9,3-38.7,15.7-38.7,33.1c0,19.5,14.8,31.3,50.9,41c9.3,2.5,17.6,5.5,24.6,9c20,10,30.1,23.9,30.1,41.3
	c0,18.3-11.9,40.6-45.5,43.6c-4.4,0.4-7.7,4.3-7.3,8.7c0.4,4.2,3.9,7.3,8,7.3c0.2,0,0.5,0,0.7,0
	C352.3,369.1,370.9,340.2,370.9,313.2z"></path>
<path d="M453.2,125.3h-58.1c-4.4,0-8-3.6-8-8s3.6-8,8-8h58.1c4.4,0,8,3.6,8,8S457.6,125.3,453.2,125.3z M455.5,210.7
	c0-4.4-3.6-8-8-8h-22.9c-4.4,0-8,3.6-8,8s3.6,8,8,8h22.9C451.9,218.7,455.5,215.1,455.5,210.7z M461.9,465.2
	c-5.9,0-10.8,4.8-10.8,10.8s4.8,10.8,10.8,10.8c5.9,0,10.8-4.8,10.8-10.8S467.8,465.2,461.9,465.2z M76.5,212.4H60.8v-15.8
	c0-4.4-3.6-8-8-8s-8,3.6-8,8v15.8H29c-4.4,0-8,3.6-8,8s3.6,8,8,8h15.8v15.8c0,4.4,3.6,8,8,8s8-3.6,8-8v-15.8h15.8c4.4,0,8-3.6,8-8
	S80.9,212.4,76.5,212.4z M445.2,37.4c0-4.4-3.6-8-8-8h-73.8c-4.4,0-8,3.6-8,8s3.6,8,8,8h73.8C441.6,45.4,445.2,41.8,445.2,37.4z
	 M114.2,43.4H40.4c-4.4,0-8,3.6-8,8s3.6,8,8,8h73.8c4.4,0,8-3.6,8-8S118.6,43.4,114.2,43.4z"></path>
<g>
	<path fill="#FFA4ED" class="primary-color" d="M438.8,344.5v-43.6h43.6v43.6H438.8z"></path>
	<path fill="#FFA4ED" class="primary-color" d="M438.8,425.1v-43.6h43.6v43.6H438.8z"></path>
	<path fill="#DB81DA" class="secondary-color" d="M91.4,489H29v-70.1L91.4,489z"></path>
</g>
</svg>