<svg version="1.1" id="Layer_1" xmlns="http://www.w3.org/2000/svg" xmlns:xlink="http://www.w3.org/1999/xlink" x="0px" y="0px" viewBox="0 0 512 512" enable-background="new 0 0 512 512" xml:space="preserve">
<linearGradient id="SVGID_1_" gradientUnits="userSpaceOnUse" x1="258.075" y1="445.3105" x2="258.075" y2="8.7911" class="gradient-element">
	<stop offset="0" class="primary-color-gradient" style="stop-color: #FFA4ED"></stop>
	<stop offset="1" class="secondary-color-gradient" style="stop-color: #DB81DA"></stop>
</linearGradient>
<path fill="url(#SVGID_1_)" d="M407.2,410.7c7.2,8.5,10.3,19.4,8.6,30.1c-2.8,17.1-18.6,30-36.7,30H137.1c-18.2,0-34-12.9-36.7-30
	c-1.7-10.6,1.4-17.5,8.6-25.9c1.7-2,3.6-3.8,5.6-5.4c0,0,0,0,0,0c-8.6-15.1,2.4-24.6,19.5-24.6h67.4c1.2,0,2.5,0,3.7-0.1
	c12.1-0.8,24.3-0.7,36.4,1.2c4.6,0.7,9.3,1.1,14.1,1.1c53,0,96-45.7,96-102c0-55.8-42.2-101.2-94.6-102V87.9
	c0-26.8,21.7-48.5,48.5-48.5h54.8c3.3,0,5.2,3.8,3.2,6.4l-56.3,75.1c-1.1,1.4-1.1,3.4,0,4.8c75.3,101.2,109,159.4,109,227.7
	c0,20-6.9,38-14.7,51.9C403.5,406.8,405.5,408.6,407.2,410.7z"></path>
<path d="M235.7,368.8c0-4.4,3.6-8,8-8h16v-23.7l6.3-1.3c14.8-3.1,23.6-13.2,23.6-26.9c0-4.4,3.6-8,8-8s8,3.6,8,8
	c0,19.4-11.3,34.6-30,40.8v27.1h-32C239.2,376.8,235.7,373.3,235.7,368.8z M391.8,411.6l-5.5-4.2l3.4-6.1c0.8-1.4,1.5-2.7,2.2-4.1
	h-84.6c-4.4,0-8,3.6-8,8s3.6,8,8,8h86.5c-0.3-0.2-0.5-0.5-0.8-0.7C392.6,412.3,392.2,412,391.8,411.6z M267.6,193.1
	c-4.4,0-8,3.6-8,8v31.4l6.5,1.2c5.7,1.1,11.1,3.5,16.2,7.2l-10.9,10.9c-3.1,3.1-3.1,8.2,0,11.3c1.6,1.6,3.6,2.3,5.7,2.3
	c2,0,4.1-0.8,5.7-2.3l22.6-22.6l-5.7-5.7c-7.3-7.3-15.4-12.4-24.1-15.2v-18.6C275.6,196.7,272,193.1,267.6,193.1z M264.1,311.5
	c-1,0.5-3.5,1.4-8.4,1.4c-6.5,0-11.7-2-15.8-6.1l-5.7-5.7l-22.6,22.6c-3.1,3.1-3.1,8.2,0,11.3c1.6,1.6,3.6,2.3,5.7,2.3
	c2,0,4.1-0.8,5.7-2.3l11.9-11.9c6,3.8,13.1,5.8,20.9,5.8c24.1,0,26-15.3,26-20c0-12.8-8.2-16.5-26.7-20
	c-16.8-3.2-27.2-13.9-27.2-27.9c0-12.3,6.9-22,18.6-25.9c4.2-1.4,6.4-6,5-10.2c-1.4-4.2-6-6.4-10.2-5c-18.1,6.2-29.4,22-29.4,41.1
	c0,21.8,15.8,38.9,40.2,43.6c9.1,1.7,12.5,3.1,13.7,3.7c0,0.2,0,0.4,0,0.6C265.6,310.5,265.2,310.9,264.1,311.5z M410.6,408.2
	c-0.7-0.9-1.4-1.8-2.1-2.7c-0.6-0.7-1.2-1.3-1.8-2c1-2,1.9-3.9,2.8-5.9c6.6-14.8,9.9-29.7,9.9-44.3c0-3.1-0.1-6.2-0.2-9.3
	c0-1-0.1-2-0.1-3c0-0.6-0.1-1.1-0.1-1.7c-0.1-1.5-0.2-2.9-0.3-4.4c-0.3-3.6-0.8-7.2-1.3-10.7c-0.1-0.5-0.1-0.9-0.2-1.4
	c-0.3-1.9-0.6-3.8-1-5.8c0-0.1,0-0.2,0-0.3c-0.3-1.6-0.6-3.1-0.9-4.7c-0.1-0.5-0.2-0.9-0.3-1.4c-0.3-1.4-0.6-2.7-0.9-4.1
	c-0.2-0.7-0.3-1.3-0.5-2c-0.3-1.2-0.6-2.3-0.9-3.5c-0.2-0.9-0.4-1.7-0.7-2.6c-0.2-0.6-0.3-1.2-0.5-1.8c-3.9-13.7-9.2-27.6-16-42
	c-14.7-31-36.7-65.7-73.6-116.1c-2.6-3.6-7.6-4.3-11.2-1.7c0,0,0,0,0,0c0,0,0,0,0,0c-3.6,2.6-4.3,7.6-1.7,11.2
	c26.7,36.5,47.7,67.4,63.2,95.9c20.8,38.4,31.3,72.4,31.3,109.3c0,12.9-3.1,26.1-9.3,39.4c-0.7,1.5-1.4,3-2.2,4.5h0
	c-0.7,1.4-1.4,2.7-2.2,4.1l-3.4,6l5.5,4.2c0.4,0.3,0.8,0.6,1.2,1c0.3,0.2,0.5,0.5,0.8,0.7h0c0.9,0.8,1.7,1.7,2.5,2.6
	c0.4,0.5,0.9,1.1,1.3,1.6c3.5,4.7,5.5,10.2,5.8,15.8c0.1,2.1,0,4.1-0.3,6.2c-1,5.9-3.9,11.1-8.1,15.1c-5.3,5.1-12.7,8.2-20.7,8.2
	H137.1c-10.3,0-19.6-5.2-24.8-13c-2-3.1-3.5-6.5-4.1-10.3c-0.3-1.7-0.4-3.4-0.3-5.2c0.1-5.6,2-11.2,5.3-16c0.6-0.8,1.2-1.7,1.9-2.4
	c1.2-1.4,2.5-2.6,3.9-3.8c0.2-0.2,0.4-0.3,0.6-0.5l5.5-4.2v0l0,0l-3.4-6c-0.7-1.2-1.3-2.4-1.9-3.6c-0.1-0.3-0.3-0.6-0.4-0.9
	c-0.5-1-1-1.9-1.4-2.9c-0.1-0.3-0.2-0.5-0.4-0.8c-1.8-3.8-3.3-7.6-4.6-11.4c0,0,0-0.1,0-0.1c-1.3-3.8-2.3-7.7-3.1-11.5
	c-1.2-5.7-1.8-11.3-1.8-16.9c0-66.8,34.7-125.1,107.5-222.9c3.2-4.2,3.1-10.1,0-14.4l-51.5-68.7h183.7l-68.3,91.1
	c-2.7,3.5-1.9,8.5,1.6,11.2c3.5,2.6,8.5,1.9,11.2-1.6l73.1-97.5c2.7-3.7,3.2-8.5,1.1-12.6c-2-4.1-6.2-6.6-10.7-6.6H155.8
	c-4.6,0-8.7,2.5-10.7,6.6s-1.6,8.9,1.1,12.6l54.5,72.7C127,222.5,91.9,282.6,91.9,353.4c0,6.6,0.7,13.2,2.1,19.9c0,0,0,0,0,0
	c0,0.1,0,0.1,0,0.2c1.3,6.2,3.1,12.5,5.6,18.7c0,0,0,0.1,0,0.1c0.5,1.2,0.9,2.3,1.4,3.5c0.1,0.1,0.1,0.3,0.2,0.4
	c0.5,1.1,1,2.2,1.5,3.4c0.1,0.1,0.1,0.2,0.2,0.4c0.6,1.2,1.2,2.4,1.8,3.7c-0.6,0.6-1.2,1.3-1.8,2c-0.8,0.9-1.5,1.8-2.2,2.8
	c-5.9,8.1-9,17.8-8.8,27.6c0,2.1,0.2,4.1,0.5,6.2c0.7,4.2,2,8.2,3.9,11.9c7.4,14.7,23.2,24.8,40.8,24.8h237.1
	c11,0,21.3-3.9,29.3-10.5c8-6.6,13.6-15.7,15.3-26.2c0.4-2.8,0.6-5.5,0.5-8.3C419.1,424.6,416.1,415.8,410.6,408.2z"></path>
<g>
	<path fill="#FFA4ED" class="primary-color" d="M42.1,213.3h35.2v21.6H42.1V213.3z"></path>
	<path fill="#DB81DA" class="secondary-color" d="M42.1,167.1h35.2v22.5H42.1V167.1z M42.1,98.2h77.3V75.7H42.1V98.2z M42.1,143.4h77.3v-21.6H42.1V143.4z"></path>
</g>
<path d="M462.8,278.4c0,4.4-3.6,8-8,8h-43c-4.4,0-8-3.6-8-8s3.6-8,8-8h43C459.3,270.4,462.8,274,462.8,278.4z M433.3,300.4h-73.8
	c-4.4,0-8,3.6-8,8s3.6,8,8,8h73.8c4.4,0,8-3.6,8-8S437.8,300.4,433.3,300.4z M65.2,397.3H49.4v-15.8c0-4.4-3.6-8-8-8s-8,3.6-8,8
	v15.8H17.6c-4.4,0-8,3.6-8,8s3.6,8,8,8h15.8v15.8c0,4.4,3.6,8,8,8s8-3.6,8-8v-15.8h15.8c4.4,0,8-3.6,8-8S69.6,397.3,65.2,397.3z
	 M475.7,341.1c-5.9,0-10.8,4.8-10.8,10.8s4.8,10.8,10.8,10.8c5.9,0,10.8-4.8,10.8-10.8S481.6,341.1,475.7,341.1z M390.9,143.4
	c0-5,4.1-9,9-9s9,4.1,9,9s-4.1,9-9,9S390.9,148.4,390.9,143.4z M420.9,143.4c0-5,4.1-9,9-9s9,4.1,9,9s-4.1,9-9,9
	S420.9,148.4,420.9,143.4z M450.9,143.4c0-5,4.1-9,9-9s9,4.1,9,9s-4.1,9-9,9S450.9,148.4,450.9,143.4z"></path>
</svg>