<svg version="1.1" id="Layer_1" xmlns="http://www.w3.org/2000/svg" xmlns:xlink="http://www.w3.org/1999/xlink" x="0px" y="0px" viewBox="0 0 512 512" enable-background="new 0 0 512 512" xml:space="preserve">
<g>
	<linearGradient id="SVGID_1_" gradientUnits="userSpaceOnUse" x1="80.4561" y1="308.7914" x2="436.0587" y2="308.7914" class="gradient-element">
		<stop offset="0" class="primary-color-gradient" style="stop-color: #FFA4ED"></stop>
		<stop offset="1" class="secondary-color-gradient" style="stop-color: #DB81DA"></stop>
	</linearGradient>
	<path fill="url(#SVGID_1_)" d="M221.8,474.1h-102c-13.2,0-25.1-5.3-33.6-14c-8.9-8.9-4.6-32.4-4.6-34.1c0-25.5,17.1-23.9,42.6-23.9
		h189.8c28.6,0,51.7-6.8,51.7-35.4l-3.5-172.4c0-28.6,15.4-50.6,44-50.6l0,0c12.3,0,30-3.1,30,9.2v268c0,40-32.5,53.1-72.5,53.1
		H221.8z M214.9,457.2"></path>
	<linearGradient id="SVGID_2_" gradientUnits="userSpaceOnUse" x1="254.4325" y1="198.6174" x2="254.4325" y2="403.9836">
		<stop offset="0" class="primary-color-gradient" style="stop-color: #FFA4ED"></stop>
		<stop offset="1" class="secondary-color-gradient" style="stop-color: #DB81DA"></stop>
	</linearGradient>
	<path fill="url(#SVGID_2_)" d="M231.9,404h-63c-8.1,0-15.5-3.3-20.8-8.7c-5.5-5.5-2.9-20.1-2.9-21.2c0-15.8,10.6-14.9,26.3-14.9
		h117.2c17.6,0,31.9-4.2,31.9-22l-2.1-107.1c0-17.7,9.5-31.4,27.2-31.4l0,0c7.6,0,18.5-1.9,18.5,5.7V371c0,24.9-20,33-44.8,33H231.9
		z M227.7,393.5"></path>
</g>
<g>
	<path fill="#DB81DA" class="secondary-color" d="M497.7,138h-43.6V94.4h43.6V138z"></path>
	<path fill="#FFA4ED" class="primary-color" d="M497.7,68h-43.6V24.4h43.6V68z"></path>
</g>
<path d="M477,327.8h-94.6c-4.4,0-8-3.6-8-8s3.6-8,8-8H477c4.4,0,8,3.6,8,8S481.4,327.8,477,327.8z M46.9,491.4
	c3.1-3.1,3.1-8.2,0-11.3c-2-2-3-4.6-3-7.3s1.1-5.4,3-7.3c4.1-4.1,10.6-4.1,14.7,0c3.1,3.1,8.2,3.1,11.3,0c3.1-3.1,3.1-8.2,0-11.3
	c-10.3-10.3-27-10.3-37.3,0c-5,5-7.7,11.6-7.7,18.7s2.7,13.7,7.7,18.7c1.6,1.6,3.6,2.3,5.7,2.3S45.4,492.9,46.9,491.4z M46.8,465.3
	c5-5,7.7-11.6,7.7-18.7c0-7-2.7-13.7-7.7-18.7c-3.1-3.1-8.2-3.1-11.3,0c-3.1,3.1-3.1,8.2,0,11.3c2,2,3,4.6,3,7.3s-1.1,5.4-3,7.3
	c-4.1,4.1-10.6,4.1-14.7,0c-3.1-3.1-8.2-3.1-11.3,0c-3.1,3.1-3.1,8.2,0,11.3c5.1,5.1,11.9,7.7,18.7,7.7
	C34.9,473,41.7,470.4,46.8,465.3z M65.9,23.2c3.1-3.1,3.1-8.2,0-11.3c-3.1-3.1-8.2-3.1-11.3,0c-2.9,2.9-6.8,4.5-11,4.5
	s-8-1.6-11-4.5c-3.1-3.1-8.2-3.1-11.3,0c-3.1,3.1-3.1,8.2,0,11.3c6,6,13.9,9.2,22.3,9.2S60,29.1,65.9,23.2z M78.2,68.7
	c3.1-3.1,3.1-8.2,0-11.3c-6-6-6-15.9,0-21.9c3.1-3.1,3.1-8.2,0-11.3c-3.1-3.1-8.2-3.1-11.3,0c-6,5.9-9.2,13.9-9.2,22.3
	c0,8.4,3.3,16.3,9.2,22.3c1.6,1.6,3.6,2.3,5.7,2.3S76.6,70.3,78.2,68.7z M65.9,81c3.1-3.1,3.1-8.2,0-11.3c-5.9-6-13.9-9.2-22.3-9.2
	s-16.3,3.3-22.3,9.2c-3.1,3.1-3.1,8.2,0,11.3c3.1,3.1,8.2,3.1,11.3,0c2.9-2.9,6.8-4.5,11-4.5s8,1.6,11,4.5c1.6,1.6,3.6,2.3,5.7,2.3
	S64.4,82.5,65.9,81z M20.4,68.7c6-5.9,9.2-13.9,9.2-22.3c0-8.4-3.3-16.3-9.2-22.3c-3.1-3.1-8.2-3.1-11.3,0C6,27.3,6,32.3,9.1,35.5
	c2.9,2.9,4.5,6.8,4.5,11c0,4.1-1.6,8-4.5,11C6,60.5,6,65.6,9.1,68.7c1.6,1.6,3.6,2.3,5.7,2.3S18.8,70.3,20.4,68.7z M117.2,248
	c0-4.4-3.6-8-8-8H22.3c-4.4,0-8,3.6-8,8s3.6,8,8,8h86.8C113.6,256,117.2,252.4,117.2,248z M484,438.1c3.5-3.5,3.5-9.2,0-12.7
	s-9.2-3.5-12.7,0c-3.5,3.5-3.5,9.2,0,12.7S480.5,441.5,484,438.1z"></path>
<path d="M406.4,477.8H103.7c-17.3,0-31.3-14-31.3-31.3V247.6c0-4.4,3.6-8,8-8s8,3.6,8,8v198.9c0,8.4,6.9,15.3,15.3,15.3h302.7
	c8.4,0,15.3-6.9,15.3-15.3V319.8c0-4.4,3.6-8,8-8s8,3.6,8,8v126.7C437.7,463.8,423.7,477.8,406.4,477.8z M359.9,407.9H150.3
	c-4.4,0-8-3.6-8-8V151.8H88.5v44c0,4.4-3.6,8-8,8s-8-3.6-8-8V144c0,0,0-0.1,0-0.1c0,0,0-0.1,0-0.1V97.3c0-17.3,14-31.3,31.3-31.3h71
	l0.9-1.3c13-19.4,35.3-45.2,79.5-45.2c44.2,0,66.5,25.8,79.5,45.2l0.9,1.3h71c17.3,0,31.3,14,31.3,31.3v178c0,4.4-3.6,8-8,8
	s-8-3.6-8-8v-178c0-8.4-6.9-15.3-15.3-15.3h-75.3c-2.7,0-5.2-1.3-6.7-3.6l-3.3-4.9c-12.6-18.8-30.3-38.1-66.2-38.1
	c-35.9,0-53.6,19.3-66.2,38.1l-3.3,4.9c-1.5,2.2-4,3.6-6.7,3.6h-75.3c-8.4,0-15.3,6.9-15.3,15.3v38.6h61.9c4.4,0,8,3.6,8,8v248.1
	h193.6v-72.2c0-4.4,3.6-8,8-8s8,3.6,8,8v80.2C367.9,404.4,364.3,407.9,359.9,407.9z M359.9,283.3c-4.4,0-8-3.6-8-8V167.1
	c0-4.4,3.6-8,8-8s8,3.6,8,8v108.1C367.9,279.7,364.3,283.3,359.9,283.3z M406.4,151.8H173.6c-4.4,0-8-3.6-8-8s3.6-8,8-8h232.8
	c4.4,0,8,3.6,8,8S410.8,151.8,406.4,151.8z M269.9,385.4h-17.6c-4.4,0-8-3.6-8-8V357c-25.9-6.7-44.1-26.8-44.1-49.8c0-4.4,3.6-8,8-8
	h17.6c4.4,0,8,3.6,8,8s-3.6,8-8,8h-8.5c4,13.5,18,24.5,36.2,27.4c3.9,0.6,6.7,4,6.7,7.9v18.9h9.6c4.4,0,8,3.6,8,8
	S274.3,385.4,269.9,385.4z M272.9,359c-4.1,0-7.6-3.1-8-7.3c-0.4-4.4,2.9-8.3,7.3-8.7C301.6,340.5,306,320,306,308
	c0-8.9-3-18.6-24.4-29.3c-5.5-2.8-12.4-4.3-19.2-4.2c-24.5,0.2-42-4.7-52.2-14.8C200,249.6,200,237.3,200,232c0-0.5,0-0.9,0.1-1.4
	c0.5-22.4,17.9-39.6,44.1-44.6v-19.7c0-4.4,3.6-8,8-8h17.6c4.4,0,8,3.6,8,8s-3.6,8-8,8h-9.6V193c0,4.1-3.1,7.6-7.2,8
	c-22.4,2.1-36.9,14.2-36.9,30.7c0,0.4,0,0.9-0.1,1.3c0,4.3,0.4,10.3,5.5,15.3c6.9,6.8,21,10.4,40.8,10.2c12-0.1,21,3.1,26.5,5.9
	c23,11.5,33.2,25,33.2,43.6c0,12.9-3.8,24.4-11,33.1c-8.5,10.4-21.1,16.5-37.4,17.9C273.3,359,273.1,359,272.9,359z M314,244.6
	h-17.6c-4.4,0-8-3.6-8-8s3.6-8,8-8h8.7c-3.4-14.2-16-24.8-33.4-27.4c-4.4-0.7-7.4-4.7-6.7-9.1c0.7-4.4,4.7-7.4,9.1-6.7
	c28.2,4.3,47.9,25.4,47.9,51.3C322,241,318.4,244.6,314,244.6z"></path>
</svg>