<svg version="1.1" id="Layer_1" xmlns="http://www.w3.org/2000/svg" xmlns:xlink="http://www.w3.org/1999/xlink" x="0px" y="0px" viewBox="0 0 512 512" enable-background="new 0 0 512 512" xml:space="preserve">
<linearGradient id="SVGID_1_" gradientUnits="userSpaceOnUse" x1="486.0444" y1="259.5021" x2="42.3063" y2="259.5021" class="gradient-element">
	<stop offset="0" class="primary-color-gradient" style="stop-color: #FFA4ED"></stop>
	<stop offset="1" class="secondary-color-gradient" style="stop-color: #DB81DA"></stop>
</linearGradient>
<path fill="url(#SVGID_1_)" d="M496.8,369.7H58.2c-11.6,0-21-9.4-21-21V170.7c0-11.8,9.6-21.4,21.4-21.4h438.1V369.7z"></path>
<path d="M510.4,103.4v322.9c0,8.8-7.2,16-16,16H265.9v33.9h178.4c4.4,0,8,3.6,8,8s-3.6,8-8,8H67.8c-4.4,0-8-3.6-8-8s3.6-8,8-8h182.1
	v-38.8c0-0.5,0.1-1,0.1-1.5c-0.1-0.5-0.1-1-0.1-1.5c0-4.4,3.6-8,8-8h236.6v-48.6H385.9c-4.4,0-8-3.6-8-8s3.6-8,8-8h108.6V103.4
	c0-4.4,3.6-8,8-8S510.4,99,510.4,103.4z M48.8,391.6c5,0,9,4.1,9,9s-4.1,9-9,9s-9-4.1-9-9S43.8,391.6,48.8,391.6z M78.8,391.6
	c5,0,9,4.1,9,9s-4.1,9-9,9s-9-4.1-9-9S73.8,391.6,78.8,391.6z M108.8,391.6c5,0,9,4.1,9,9s-4.1,9-9,9s-9-4.1-9-9
	S103.8,391.6,108.8,391.6z M232,434.3c0-4.4-3.6-8-8-8H17.6V111.4h380.5c4.4,0,8-3.6,8-8s-3.6-8-8-8H17.6c-8.8,0-16,7.2-16,16v314.9
	c0,8.8,7.2,16,16,16H224C228.4,442.3,232,438.7,232,434.3z"></path>
<path d="M312.4,24.6c0-5,4.1-9,9-9s9,4.1,9,9s-4.1,9-9,9S312.4,29.6,312.4,24.6z M281.5,33.7c5,0,9-4.1,9-9s-4.1-9-9-9s-9,4.1-9,9
	S276.5,33.7,281.5,33.7z M77.8,36H62V20.2c0-4.4-3.6-8-8-8s-8,3.6-8,8V36H30.2c-4.4,0-8,3.6-8,8s3.6,8,8,8H46v15.8c0,4.4,3.6,8,8,8
	s8-3.6,8-8V52h15.8c4.4,0,8-3.6,8-8S82.2,36,77.8,36z M361.5,33.7c5,0,9-4.1,9-9s-4.1-9-9-9s-9,4.1-9,9S356.5,33.7,361.5,33.7z
	 M478.6,90.1c4.4,0,8-3.6,8-8s-3.6-8-8-8c-11.4,0-20.8-9.3-20.8-20.8c0-4.4-3.6-8-8-8s-8,3.6-8,8C441.9,73.7,458.4,90.1,478.6,90.1z
	 M363.5,59.8h-215c-4.4,0-8,3.6-8,8s3.6,8,8,8h215c4.4,0,8-3.6,8-8S367.9,59.8,363.5,59.8z M478.6,95.4c-20.3,0-36.8,16.5-36.8,36.8
	c0,4.4,3.6,8,8,8s8-3.6,8-8c0-11.4,9.3-20.8,20.8-20.8c4.4,0,8-3.6,8-8S483,95.4,478.6,95.4z M428.6,45.4c-4.4,0-8,3.6-8,8
	c0,11.4-9.3,20.8-20.8,20.8c-4.4,0-8,3.6-8,8s3.6,8,8,8c20.3,0,36.8-16.5,36.8-36.8C436.6,49,433,45.4,428.6,45.4z M399.9,95.4
	c-4.4,0-8,3.6-8,8s3.6,8,8,8c11.4,0,20.8,9.3,20.8,20.8c0,4.4,3.6,8,8,8s8-3.6,8-8C436.6,111.9,420.1,95.4,399.9,95.4z"></path>
</svg>