<svg version="1.1" id="Layer_1" xmlns="http://www.w3.org/2000/svg" xmlns:xlink="http://www.w3.org/1999/xlink" x="0px" y="0px" viewBox="0 0 512 512" enable-background="new 0 0 512 512" xml:space="preserve">
<linearGradient id="SVGID_1_" gradientUnits="userSpaceOnUse" x1="265.1783" y1="286.0468" x2="265.1783" y2="216.4623" class="gradient-element">
	<stop offset="0" class="primary-color-gradient" style="stop-color: #FFA4ED"></stop>
	<stop offset="1" class="secondary-color-gradient" style="stop-color: #DB81DA"></stop>
</linearGradient>
<path fill="url(#SVGID_1_)" d="M178.8,248.4c0,23.4-19,42.3-42.3,42.3c-22.6,0-41-17.7-42.3-39.9c2-0.7,5-0.5,6,1.8
	c5.7,13.6,15.6,23.7,29.7,25.9c12,1.9,19.9-2.7,23.8-7.1c11.2-12.8,12.2-39.5-16.7-54.6c-4.5-2.4-1.8-9.6,3.3-9.6h0.2
	c3.1,0,6.2,0.3,9.1,0.9C166.5,213.7,178.8,229.6,178.8,248.4z M277.1,208.2c-3-0.6-6-0.9-9.1-0.9h-0.2c-5.1,0-7.8,7.3-3.3,9.6
	c28.9,15.1,27.9,41.8,16.7,54.6c-3.9,4.4-11.8,9-23.8,7.1c-14.1-2.2-24.1-12.2-29.7-25.9c-1-2.4-4-2.5-6-1.8
	c1.3,22.3,19.7,39.9,42.3,39.9c23.4,0,42.3-19,42.3-42.3C306.4,229.6,294.1,213.7,277.1,208.2z M406.9,208.2c-3-0.6-6-0.9-9.1-0.9
	h-0.2c-5.1,0-7.8,7.3-3.3,9.6c28.9,15.1,27.9,41.8,16.7,54.6c-3.9,4.4-11.8,9-23.8,7.1c-14.1-2.2-24.1-12.2-29.7-25.9
	c-1-2.4-4-2.5-6-1.8c1.3,22.3,19.7,39.9,42.3,39.9c23.4,0,42.3-19,42.3-42.3C436.2,229.6,423.9,213.7,406.9,208.2z"></path>
<path d="M136.5,304.2c-30.4,0-55.2-24.8-55.2-55.2s24.8-55.2,55.2-55.2s55.2,24.8,55.2,55.2S166.9,304.2,136.5,304.2z M136.5,209.8
	c-21.6,0-39.2,17.6-39.2,39.2s17.6,39.2,39.2,39.2c21.6,0,39.2-17.6,39.2-39.2S158.1,209.8,136.5,209.8z M264.1,304.2
	c-30.4,0-55.2-24.8-55.2-55.2s24.8-55.2,55.2-55.2s55.2,24.8,55.2,55.2S294.6,304.2,264.1,304.2z M264.1,209.8
	c-21.6,0-39.2,17.6-39.2,39.2s17.6,39.2,39.2,39.2s39.2-17.6,39.2-39.2S285.7,209.8,264.1,209.8z M391.8,304.2
	c-30.4,0-55.2-24.8-55.2-55.2s24.8-55.2,55.2-55.2S447,218.6,447,249S422.2,304.2,391.8,304.2z M391.8,209.8
	c-21.6,0-39.2,17.6-39.2,39.2s17.6,39.2,39.2,39.2S431,270.6,431,249S413.4,209.8,391.8,209.8z"></path>
<g>
	<path fill="#DB81DA" class="secondary-color" d="M24.8,374h80.3v37.3H24.8V374z"></path>
	<path fill="#FFA4ED" class="primary-color" d="M118.1,374.8h73.1v35.8h-73.1V374.8z"></path>
</g>
<path d="M62.7,70.4l2.7-2.8l-2.7-2.8c-3.1-3.1-3.1-8.2,0-11.3c3.1-3.1,8.2-3.1,11.3,0l2.7,2.7l2.7-2.7c3.1-3.1,8.2-3.1,11.3,0
	c3.1,3.1,3.1,8.2,0,11.3l-2.7,2.8l2.7,2.8c3.1,3.1,3.1,8.2,0,11.3c-1.6,1.6-3.6,2.3-5.7,2.3c-2,0-4.1-0.8-5.7-2.3L76.8,79L74,81.7
	c-1.6,1.6-3.6,2.3-5.7,2.3s-4.1-0.8-5.7-2.3C59.6,78.6,59.6,73.5,62.7,70.4z M405.8,393.8h-3.9v-3.9c0-4.4-3.6-8-8-8s-8,3.6-8,8v3.9
	H382c-4.4,0-8,3.6-8,8s3.6,8,8,8h3.9v3.9c0,4.4,3.6,8,8,8s8-3.6,8-8v-3.9h3.9c4.4,0,8-3.6,8-8S410.2,393.8,405.8,393.8z
	 M182.9,458.7h-136c-4.4,0-8,3.6-8,8s3.6,8,8,8h136c4.4,0,8-3.6,8-8S187.3,458.7,182.9,458.7z M448.6,97h-40.2c-4.4,0-8,3.6-8,8
	s3.6,8,8,8h40.2c4.4,0,8-3.6,8-8S453,97,448.6,97z M441.3,45.4c0-4.4-3.6-8-8-8H307.8c-4.4,0-8,3.6-8,8s3.6,8,8,8h125.4
	C437.7,53.4,441.3,49.8,441.3,45.4z"></path>
</svg>