<svg version="1.1" id="Layer_1" xmlns="http://www.w3.org/2000/svg" xmlns:xlink="http://www.w3.org/1999/xlink" x="0px" y="0px" viewBox="0 0 512 512" enable-background="new 0 0 512 512" xml:space="preserve">
<g>
	<linearGradient id="SVGID_1_" gradientUnits="userSpaceOnUse" x1="175.11" y1="388.988" x2="175.11" y2="292.8688" class="gradient-element">
		<stop offset="0" class="primary-color-gradient" style="stop-color: #FFA4ED"></stop>
		<stop offset="1" class="secondary-color-gradient" style="stop-color: #DB81DA"></stop>
	</linearGradient>
	<path fill="url(#SVGID_1_)" d="M159.8,388.9h-13.5c-9.8,0-17.7-13.3-17.7-23.1v-40.3c0-12.8,8.3-24.1,20.5-28
		c2.7-0.8,5.5-1.9,8.3-3.1c0,0-4,14.4,27.1,28c15.3,6.7,27.7,12.3,36.8,20.8c0.1,0.1,0.4,0.2,0.3,0.3
		C205.5,359.1,185.9,351.2,159.8,388.9z"></path>
	<linearGradient id="SVGID_2_" gradientUnits="userSpaceOnUse" x1="450.6528" y1="383.6242" x2="450.6528" y2="292.9562">
		<stop offset="0" class="primary-color-gradient" style="stop-color: #FFA4ED"></stop>
		<stop offset="1" class="secondary-color-gradient" style="stop-color: #DB81DA"></stop>
	</linearGradient>
	<path fill="url(#SVGID_2_)" d="M505.5,383.5H430c-18.9,0-34.2-15.3-34.2-34.2v-23.8c0-12.9,8.4-24.2,20.7-28.1
		c2.6-0.8,5.3-1.8,8.1-3c0,0-4,14.4,27.1,28C482.9,336,502.1,345.1,505.5,383.5z"></path>
	<linearGradient id="SVGID_3_" gradientUnits="userSpaceOnUse" x1="317.2187" y1="412.4976" x2="317.2187" y2="321.8296">
		<stop offset="0" class="primary-color-gradient" style="stop-color: #FFA4ED"></stop>
		<stop offset="1" class="secondary-color-gradient" style="stop-color: #DB81DA"></stop>
	</linearGradient>
	<path fill="url(#SVGID_3_)" d="M372.1,412.4h-75.5c-18.9,0-34.2-15.3-34.2-34.2v-23.8c0-12.9,8.4-24.2,20.7-28.1
		c2.6-0.8,5.3-1.8,8.1-3c0,0-4,14.4,27.1,28C349.4,364.9,368.7,373.9,372.1,412.4z"></path>
	<linearGradient id="SVGID_4_" gradientUnits="userSpaceOnUse" x1="187.1219" y1="230.9761" x2="127.7266" y2="230.9761">
		<stop offset="0" class="primary-color-gradient" style="stop-color: #FFA4ED"></stop>
		<stop offset="1" class="secondary-color-gradient" style="stop-color: #DB81DA"></stop>
	</linearGradient>
	<path fill="url(#SVGID_4_)" d="M128.4,164.1c2-1.1,55.1,6.2,55.1,6.2s5.4,32.9,0,78.9c-3.2,26.6-21.1,40.5-35.6,47.5
		c-9,4.3-19.5-2.3-19.5-12.3V169.5C128.4,169.5,126.4,165.2,128.4,164.1z"></path>
	<linearGradient id="SVGID_5_" gradientUnits="userSpaceOnUse" x1="454.3541" y1="230.9761" x2="394.9589" y2="230.9761">
		<stop offset="0" class="primary-color-gradient" style="stop-color: #FFA4ED"></stop>
		<stop offset="1" class="secondary-color-gradient" style="stop-color: #DB81DA"></stop>
	</linearGradient>
	<path fill="url(#SVGID_5_)" d="M395.6,164.1c2-1.1,55.1,6.2,55.1,6.2s5.4,32.9,0,78.9c-3.2,26.6-21.1,40.5-35.6,47.5
		c-9,4.3-19.5-2.3-19.5-12.3V169.5C395.6,169.5,393.6,165.2,395.6,164.1z"></path>
	<linearGradient id="SVGID_6_" gradientUnits="userSpaceOnUse" x1="320.92" y1="259.8495" x2="261.5247" y2="259.8495">
		<stop offset="0" class="primary-color-gradient" style="stop-color: #FFA4ED"></stop>
		<stop offset="1" class="secondary-color-gradient" style="stop-color: #DB81DA"></stop>
	</linearGradient>
	<path fill="url(#SVGID_6_)" d="M262.2,192.9c2-1.1,55.1,6.2,55.1,6.2s5.4,32.9,0,78.9c-3.2,26.6-21.1,40.5-35.6,47.5
		c-9,4.3-19.5-2.3-19.5-12.3V198.4C262.2,198.4,260.2,194.1,262.2,192.9z"></path>
</g>
<path d="M61.4,265.4c-2.4-6-3.6-12.3-3.6-18.9v-74.9c0-12.1,5.7-23.7,16.1-32.7c14.6-12.5,36.5-18.4,57.3-15.3
	c6.7,1,12.6,2.7,18.2,4.3c11.9,3.4,21.3,6,34,0.8c4.1-1.7,8.8,0.2,10.5,4.3c1.7,4.1-0.2,8.8-4.3,10.5c-17.8,7.4-31.3,3.6-44.5-0.2
	c-5.2-1.5-10.5-3-16.2-3.8c-16.3-2.4-33.3,2-44.5,11.6c-4.8,4.1-10.5,11.1-10.5,20.5v74.9c0,4.5,0.8,8.9,2.5,12.9
	c5.1,12.8,18,34.2,46.8,34.2c29.2,0,42-23.2,47-37c1.4-3.8,2.1-7.8,2.1-11.9v-70.1c-9.7,1-18.8-1.3-27.1-3.3
	c-13.1-3.3-23.4-5.8-34.9,2.3c-3.6,2.6-8.6,1.7-11.2-1.9c-2.6-3.6-1.7-8.6,1.9-11.2c17.5-12.4,33.7-8.4,48-4.8
	c10.4,2.6,19.3,4.8,28.4,1.3c2.5-0.9,5.2-0.6,7.4,0.9c2.2,1.5,3.5,4,3.5,6.6v80.2c0,6-1,11.8-3,17.4c-3.3,9-11,25.5-26.3,36.5
	c1.8,2.9,9.1,11,36.2,22c4.1,1.7,6.1,6.3,4.4,10.4c-1.3,3.1-4.3,5-7.4,5c-1,0-2-0.2-3-0.6c-19.5-7.9-33.1-16-40.4-24
	c-1.8-1.9-3-3.7-4-5.4c-6.3,2.3-13.4,3.6-21.6,3.6c-8,0-15-1.3-21.2-3.4c-3.7,6.1-12,14.5-30.5,23.3c-1.1,0.5-2.3,0.8-3.4,0.8
	c-3,0-5.9-1.7-7.2-4.6c-1.9-4-0.2-8.8,3.8-10.7c13.6-6.5,19.7-11.9,22.4-15.3c0.2-0.3,0.4-0.5,0.5-0.7
	C72.5,288.8,64.7,273.7,61.4,265.4z M509.5,389.3c-0.2,4.3-3.7,7.6-8,7.6H373c3.5,11.7,3.1,20.8,3.1,21.3c-0.2,4.3-3.7,7.6-8,7.6
	H146.5c-4.3,0-7.8-3.4-8-7.7c0-0.6-0.3-9.1,3.7-21.2H12.7c-4.3,0-7.8-3.3-8-7.6c-0.1-1.3-1.3-31.7,23.7-54.2c3.3-3,8.3-2.7,11.3,0.6
	c3,3.3,2.7,8.3-0.6,11.3c-12.6,11.4-16.6,25.4-17.9,33.9h128c2-3.6,4.3-7.2,7.1-10.9c2-2.6,5.3-3.7,8.3-3h26c4.4,0,8,3.6,8,8
	s-3.6,8-8,8h-23.9c-7.2,10.6-10.1,20.4-11.4,26.8h204.2c-0.5-3.5-1.5-8-3.4-12.9h-76.2c-4.4,0-8-3.6-8-8s3.6-8,8-8h66.7
	c-5.4-6.3-13.1-12.3-23.8-16.6c-19.5-7.9-33.1-16-40.4-24c-1.8-1.9-3-3.7-4-5.4c-6.3,2.3-13.4,3.6-21.6,3.6c-8,0-15-1.3-21.2-3.4
	c-3.7,6.1-12,14.5-30.5,23.3c-1.1,0.5-2.3,0.8-3.4,0.8c-3,0-5.9-1.7-7.2-4.6c-1.9-4-0.2-8.8,3.8-10.7c13.6-6.5,19.7-11.9,22.4-15.3
	c0.2-0.3,0.4-0.5,0.5-0.7c-15-10.2-22.7-25.4-26-33.7c-2.4-6-3.6-12.3-3.6-18.9l0-74.9c0-12.1,5.7-23.7,16.1-32.7
	c14.6-12.5,36.5-18.4,57.3-15.3c6.7,1,12.6,2.7,18.2,4.3c11.9,3.4,21.3,6,34,0.8c3.5-1.5,7.5-0.2,9.6,2.8
	c2.4-7.9,7.3-15.3,14.4-21.4c14.6-12.5,36.5-18.4,57.3-15.3c6.7,1,12.6,2.7,18.2,4.3c11.9,3.4,21.3,6,34,0.8
	c4.1-1.7,8.8,0.2,10.5,4.3c1.7,4.1-0.2,8.8-4.3,10.5c-17.8,7.4-31.3,3.6-44.5-0.2c-5.2-1.5-10.5-3-16.2-3.8
	c-16.3-2.4-33.3,2-44.5,11.6c-4.8,4.1-10.5,11.1-10.5,20.5v74.9c0,4.5,0.8,8.9,2.5,12.9c5.1,12.8,18,34.2,46.8,34.2
	c29.3,0,42-23.2,47-37c1.4-3.8,2.1-7.8,2.1-11.9v-70.1c-9.7,1-18.8-1.3-27.1-3.3c-13.1-3.3-23.4-5.8-34.9,2.3
	c-3.6,2.6-8.6,1.7-11.2-1.9c-2.6-3.6-1.7-8.6,1.9-11.2c17.5-12.4,33.7-8.4,48-4.8c10.3,2.6,19.3,4.8,28.4,1.3
	c2.5-0.9,5.2-0.6,7.4,0.9c2.2,1.5,3.5,4,3.5,6.6v80.2c0,6-1,11.8-3,17.4c-3.3,9-11,25.5-26.3,36.5c1.8,2.9,9.1,11,36.2,22
	c25.6,10.3,37.1,28.4,42.2,41.7C510,376.7,509.5,388.7,509.5,389.3z M493,380.9c-1.7-11.8-8.7-34.1-36.7-45.5
	c-19.5-7.9-33.1-16-40.4-24c-1.8-1.9-3-3.7-4-5.4c-6.3,2.3-13.4,3.6-21.6,3.6c-8.3,0-15.5-1.4-21.9-3.6c-6,9.9-22,30-53,30
	c-4.4,0-8-3.6-8-8s3.6-8,8-8c22.2,0,34-14,38.7-21.3c-14.6-10.2-22.2-25.1-25.5-33.3c-2.4-6-3.6-12.3-3.6-18.9v-74.9
	c0-0.1,0-0.2,0-0.3c-0.5,0.4-1.1,0.8-1.8,1c-17.8,7.4-31.3,3.6-44.5-0.2c-5.2-1.5-10.5-3-16.2-3.8c-16.3-2.4-33.3,2-44.5,11.6
	c-4.8,4.1-10.5,11.1-10.5,20.5l0,74.9c0,4.5,0.8,8.9,2.5,12.9c5.1,12.8,18,34.2,46.8,34.2c29.2,0,42-23.2,47-37
	c1.4-3.8,2.1-7.8,2.1-11.9l0-70.1c-9.7,1-18.8-1.3-27.1-3.3c-13.1-3.3-23.4-5.8-34.9,2.3c-3.6,2.6-8.6,1.7-11.2-1.9
	c-2.6-3.6-1.7-8.6,1.9-11.2c17.5-12.4,33.7-8.4,48-4.8c10.3,2.6,19.3,4.8,28.4,1.3c2.5-0.9,5.2-0.6,7.4,0.9s3.5,4,3.5,6.6l0,80.2
	c0,6-1,11.8-3,17.4c-3.3,9-11,25.5-26.3,36.5c1.8,2.9,9.1,11,36.2,22c19.4,7.8,30.7,20.1,37.3,31.4H493z"></path>
<path fill="#DB81DA" class="secondary-color" d="M391.9,22.5h101v101L391.9,22.5z M150.2,465.7H24V488h126.3V465.7z M87.1,434H24v22.2h63.1V434z"></path>
<path d="M87.1,330.9H41.2c-4.4,0-8-3.6-8-8s3.6-8,8-8h45.9c4.4,0,8,3.6,8,8S91.5,330.9,87.1,330.9z M29.1,282.5c0-5-4.1-9-9-9
	s-9,4.1-9,9s4.1,9,9,9S29.1,287.4,29.1,282.5z M502.9,477.2c0-4.4-3.6-8-8-8h-215c-4.4,0-8,3.6-8,8s3.6,8,8,8h215
	C499.3,485.2,502.9,481.6,502.9,477.2z M162.3,34.8c0,4.4-3.6,8-8,8H41.5c-4.4,0-8-3.6-8-8s3.6-8,8-8h112.8
	C158.7,26.8,162.3,30.4,162.3,34.8z M309,35.1c0,20.3-16.5,36.8-36.8,36.8c-4.4,0-8-3.6-8-8s3.6-8,8-8c11.4,0,20.8-9.3,20.8-20.8
	c0-4.4,3.6-8,8-8S309,30.7,309,35.1z M314.3,35.1c0-4.4,3.6-8,8-8s8,3.6,8,8c0,11.4,9.3,20.8,20.8,20.8c4.4,0,8,3.6,8,8s-3.6,8-8,8
	C330.8,71.9,314.3,55.4,314.3,35.1z M359,85.1c0,4.4-3.6,8-8,8c-11.4,0-20.8,9.3-20.8,20.8c0,4.4-3.6,8-8,8s-8-3.6-8-8
	c0-20.3,16.5-36.8,36.8-36.8C355.5,77.1,359,80.7,359,85.1z M309,113.9c0,4.4-3.6,8-8,8s-8-3.6-8-8c0-11.4-9.3-20.8-20.8-20.8
	c-4.4,0-8-3.6-8-8s3.6-8,8-8C292.6,77.1,309,93.6,309,113.9z M73,102.4c0,4.4-3.6,8-8,8H49.2v15.8c0,4.4-3.6,8-8,8s-8-3.6-8-8v-15.8
	H17.4c-4.4,0-8-3.6-8-8s3.6-8,8-8h15.8V78.7c0-4.4,3.6-8,8-8s8,3.6,8,8v15.8H65C69.4,94.4,73,98,73,102.4z M492.9,443
	c-5,0-9-4.1-9-9s4.1-9,9-9s9,4.1,9,9S497.8,443,492.9,443z M452.9,443c-5,0-9-4.1-9-9s4.1-9,9-9s9,4.1,9,9S457.8,443,452.9,443z
	 M412.9,443c-5,0-9-4.1-9-9s4.1-9,9-9s9,4.1,9,9S417.8,443,412.9,443z"></path>
</svg>