<svg version="1.1" id="Layer_1" xmlns="http://www.w3.org/2000/svg" xmlns:xlink="http://www.w3.org/1999/xlink" x="0px" y="0px" viewBox="0 0 512 512" enable-background="new 0 0 512 512" xml:space="preserve">
<g>
	<linearGradient id="SVGID_1_" gradientUnits="userSpaceOnUse" x1="345.3479" y1="479.1924" x2="345.3479" y2="323.5965" class="gradient-element">
		<stop offset="0" class="primary-color-gradient" style="stop-color: #FFA4ED"></stop>
		<stop offset="1" class="secondary-color-gradient" style="stop-color: #DB81DA"></stop>
	</linearGradient>
	<path fill="url(#SVGID_1_)" d="M439.5,479H309.9c-32.4,0-58.7-26.3-58.7-58.7v-40.9c0-22.1,14.5-41.5,35.6-48.2
		c4.5-1.4,9.1-3.1,13.9-5.1c0,0-6.8,24.8,46.6,48.1C400.6,397.5,433.6,413,439.5,479z"></path>
	<linearGradient id="SVGID_2_" gradientUnits="userSpaceOnUse" x1="351.6997" y1="217.232" x2="249.771" y2="217.232">
		<stop offset="0" class="primary-color-gradient" style="stop-color: #FFA4ED"></stop>
		<stop offset="1" class="secondary-color-gradient" style="stop-color: #DB81DA"></stop>
	</linearGradient>
	<path fill="url(#SVGID_2_)" d="M250.9,102.4c3.4-1.9,94.6,10.6,94.6,10.6s9.4,56.4,0,135.3c-5.4,45.7-36.2,69.6-61.2,81.6
		c-15.5,7.5-33.4-4-33.4-21.2v-197C250.9,111.8,247.4,104.4,250.9,102.4z"></path>
</g>
<path d="M454.3,488.6c-0.2,4.3-3.7,7.6-8,7.6H66.1c-4.3,0-7.8-3.3-8-7.6c-0.1-2.1-2-51.7,38.8-88.5c3.3-3,8.3-2.7,11.3,0.6
	c3,3.3,2.7,8.3-0.6,11.3c-26.4,23.8-32,54.2-33.2,68.2h363.7c-0.6-7-2.3-18.1-7.1-30.4c-10.7-27.1-30.9-46.8-60.1-58.6
	c-32.7-13.2-55.3-26.6-67.3-39.7c-4.5-4.9-6.9-9.2-8.1-12.7c-12.2,5.1-25.5,7.7-40,7.7c-14.1,0-27.2-2.4-39.2-7.1
	c-4,9.2-16,24.7-52,41.8c-1.1,0.5-2.3,0.8-3.4,0.8c-3,0-5.9-1.7-7.2-4.6c-1.9-4-0.2-8.8,3.8-10.7c24.3-11.5,35.4-21.5,40.5-27.9
	c2.4-3,3.6-5.5,4.1-6.6c-5.8-3.5-11.3-7.7-16.5-12.5c-16-14.9-25.4-33-30.5-45.6c-3.9-9.6-5.8-19.8-5.8-30.3V115.4
	c0-19.1,9.1-37.5,25.6-51.7c23.8-20.5,59.7-30,93.7-24.9c11.2,1.7,21,4.5,30.5,7.1c21.5,6.1,38.5,10.9,62.1,1.1
	c4.1-1.7,8.8,0.2,10.5,4.3s-0.2,8.8-4.3,10.5c-28.7,11.9-50,5.9-72.6-0.5c-9-2.6-18.4-5.2-28.6-6.7c-29.5-4.4-60.5,3.7-80.9,21.2
	c-9.2,7.9-20.1,21.2-20.1,39.6v128.5c0,8.5,1.6,16.7,4.7,24.3c9.3,23.3,32.9,62.3,85.7,62.3c53.7,0,77-42.1,86.1-67.2
	c2.6-7.1,3.9-14.7,3.9-22.4l0-127c-17.9,3.6-34.6-0.6-50.9-4.6c-22.9-5.7-42.7-10.7-64.6,4.9c-3.6,2.6-8.6,1.7-11.2-1.9
	c-2.6-3.6-1.7-8.6,1.9-11.2c27.9-19.8,54.4-13.2,77.8-7.4c17.9,4.5,34.9,8.7,52.2,2.1c2.5-0.9,5.2-0.6,7.4,0.9
	c2.2,1.5,3.5,4,3.5,6.6l0,137.7c0,9.6-1.6,18.9-4.9,27.8c-4.8,13.3-13.9,32.5-29.7,48.5c-5.2,5.3-10.8,9.9-16.7,13.7
	c0,0.5,0,0.9,0,1.4c0.2,1.5,4.4,18.9,66.6,44c42,17,60.9,46.5,69.3,68.3C455.2,468.2,454.4,487.8,454.3,488.6z"></path>
<path d="M134,406c0,4.4-3.6,8-8,8H20.4c-4.4,0-8-3.6-8-8s3.6-8,8-8H126C130.5,398,134,401.6,134,406z M193.8,367H115
	c-4.4,0-8,3.6-8,8s3.6,8,8,8h78.7c4.4,0,8-3.6,8-8S198.2,367,193.8,367z M415.7,110.2h15.8V126c0,4.4,3.6,8,8,8s8-3.6,8-8v-15.8
	h15.8c4.4,0,8-3.6,8-8s-3.6-8-8-8h-15.8V78.4c0-4.4-3.6-8-8-8s-8,3.6-8,8v15.8h-15.8c-4.4,0-8,3.6-8,8S411.3,110.2,415.7,110.2z
	 M31.4,318.8h15.8v15.8c0,4.4,3.6,8,8,8s8-3.6,8-8v-15.8H79c4.4,0,8-3.6,8-8s-3.6-8-8-8H63.2V287c0-4.4-3.6-8-8-8s-8,3.6-8,8v15.8
	H31.4c-4.4,0-8,3.6-8,8S27,318.8,31.4,318.8z M402.6,265.9h87.6c4.4,0,8-3.6,8-8s-3.6-8-8-8h-87.6c-4.4,0-8,3.6-8,8
	S398.2,265.9,402.6,265.9z M490.1,299.9H362.6c-4.4,0-8,3.6-8,8s3.6,8,8,8h127.6c4.4,0,8-3.6,8-8S494.6,299.9,490.1,299.9z
	 M490.1,349.9h-87.6c-4.4,0-8,3.6-8,8s3.6,8,8,8h87.6c4.4,0,8-3.6,8-8S494.6,349.9,490.1,349.9z M33.8,85
	c20.3,0,36.8-16.5,36.8-36.8c0-4.4-3.6-8-8-8s-8,3.6-8,8c0,11.4-9.3,20.8-20.8,20.8c-4.4,0-8,3.6-8,8S29.4,85,33.8,85z M112.6,85
	c4.4,0,8-3.6,8-8s-3.6-8-8-8c-11.4,0-20.8-9.3-20.8-20.8c0-4.4-3.6-8-8-8s-8,3.6-8,8C75.8,68.6,92.3,85,112.6,85z M83.8,135
	c4.4,0,8-3.6,8-8c0-11.4,9.3-20.8,20.8-20.8c4.4,0,8-3.6,8-8s-3.6-8-8-8c-20.3,0-36.8,16.5-36.8,36.8C75.8,131.5,79.4,135,83.8,135z
	 M33.8,106.3c11.4,0,20.8,9.3,20.8,20.8c0,4.4,3.6,8,8,8s8-3.6,8-8c0-20.3-16.5-36.8-36.8-36.8c-4.4,0-8,3.6-8,8
	S29.4,106.3,33.8,106.3z"></path>
</svg>