<svg version="1.1" id="Layer_1" xmlns="http://www.w3.org/2000/svg" xmlns:xlink="http://www.w3.org/1999/xlink" x="0px" y="0px" viewBox="0 0 512 512" enable-background="new 0 0 512 512" xml:space="preserve">
<linearGradient id="SVGID_1_" gradientUnits="userSpaceOnUse" x1="328.316" y1="444.0468" x2="328.316" y2="76.0549" class="gradient-element">
	<stop offset="0" class="primary-color-gradient" style="stop-color: #FFA4ED"></stop>
	<stop offset="1" class="secondary-color-gradient" style="stop-color: #DB81DA"></stop>
</linearGradient>
<path fill="url(#SVGID_1_)" d="M309.1,255.5c0,42.8-17.5,83.8-48.3,113.3v99.4c0,3.6-4.3,5.3-6.8,2.8l-46.7-46.7
	c-9.2-9.2-14.4-21.7-14.4-34.7v-23.7c0-11.5,4-22.6,11.3-31.3c23.7-28.2-32.5-64-32.5-101.2c0-37.2,56.2-73,32.5-101.2
	c-7.4-8.8-11.3-19.9-11.3-31.3v0l61-61c2.5-2.5,6.8-0.7,6.8,2.8v99.4C291.5,171.8,309.1,212.8,309.1,255.5z M373.9,188l-30.7,30.7
	c-0.8,0.7-3.9,2.9-7.3-0.5c-3.9-3.9,0.2,8.5,0.4,8.8c0.1,0.1,1,0.1,2,0.2l16,16l52.7-52.7l-2.4-2.4C396,179.6,382.3,179.6,373.9,188
	z M434.8,164.6l47.5-47.5l-1.9-1.9c0.2-1.8-0.3-3.7-1.7-5l-22.1-22.1c-2.4-2.4-6.2-2.4-8.5,0l-3.9,3.9c-2.4,2.4-2.4,6.2,0,8.5
	l6.1,6.1c0,0,3.6,3.6-0.4,7.5L415,149c-5.7,5.7-5.7,15,0,20.7l1.6,1.6l0,0l27.1,27.1c0.7,0.8,2.8,3.9-0.5,7.2l-14.9,14.9l24.7,24.7
	l18.7-18.7l0.7,0.7l12.5-12.5L434.8,164.6z"></path>
<path d="M252.3,480.3c-3.1,0-6.2-1.2-8.5-3.5L136.9,369.9c-3.1-3.1-3.1-8.2,0-11.3c3.1-3.1,8.2-3.1,11.3,0l100,100V449
	c0-4.4,3.6-8,8-8s8,3.6,8,8v19.2c0,4.9-2.9,9.2-7.4,11.1C255.4,480,253.8,480.3,252.3,480.3z M256.3,426.3c-4.4,0-8-3.6-8-8v-52.8
	l2.5-2.4c29.1-28,45.9-67.2,45.9-107.5c0-40.4-16.7-79.5-45.8-107.5l-2.5-2.4V52.5L143.5,157.2v190.8H38.9c-4.4,0-8-3.6-8-8
	s3.6-8,8-8h88.6V150.6L243.8,34.3c3.4-3.4,8.6-4.5,13.1-2.6c4.5,1.9,7.4,6.2,7.4,11.1v96.1c30.7,30.8,48.3,73.1,48.3,116.7
	c0,43.5-17.6,85.9-48.3,116.7v46.1C264.3,422.7,260.7,426.3,256.3,426.3z M232.1,388.2c-4.4,0-8-3.6-8-8V91.4c0-4.4,3.6-8,8-8
	s8,3.6,8,8v288.8C240.1,384.6,236.6,388.2,232.1,388.2z M38.9,372.2c-17.7,0-32.2-14.4-32.2-32.2V171c0-17.7,14.4-32.2,32.2-32.2
	h72.5c4.4,0,8,3.6,8,8s-3.6,8-8,8H38.9c-8.9,0-16.2,7.2-16.2,16.2v169.1c0,8.9,7.2,16.2,16.2,16.2c4.4,0,8,3.6,8,8
	S43.3,372.2,38.9,372.2z M459.1,245.7l24.8-24.8c1.5-1.5,2.3-3.5,2.3-5.7c0-2.1-0.8-4.2-2.3-5.7L440,165.7l20.8-20.8
	c3.1-3.1,3.1-8.2,0-11.3c-3.1-3.1-8.2-3.1-11.3,0l-26.4,26.4c-1.5,1.5-2.3,3.5-2.3,5.7c0,2.1,0.8,4.2,2.3,5.7l43.9,43.9l-13.5,13.4
	l-43.9-43.9c-3.1-3.1-8.2-3.1-11.3,0l-43.9,43.9L341,215.3l43.9-43.9c1.5-1.5,2.3-3.5,2.3-5.7s-0.8-4.2-2.3-5.7L341,116.2l13.5-13.4
	l43.9,43.9c3.1,3.1,8.2,3.1,11.3,0l43.9-43.9l19.1,19.1c3.1,3.1,8.2,3.1,11.3,0c3.1-3.1,3.1-8.2,0-11.3l-24.8-24.8
	c-3.1-3.1-8.2-3.1-11.3,0l-43.9,43.9l-43.9-43.9c-3.1-3.1-8.2-3.1-11.3,0L324,110.6c-3.1,3.1-3.1,8.2,0,11.3l43.9,43.9L324,209.6
	c-3.1,3.1-3.1,8.2,0,11.3l24.8,24.8c3.1,3.1,8.2,3.1,11.3,0l43.9-43.9l43.9,43.9c1.6,1.6,3.6,2.3,5.7,2.3S457.6,247.2,459.1,245.7z"></path>
<path d="M156.2,451.5h-56c-4.4,0-8-3.6-8-8s3.6-8,8-8h56c4.4,0,8,3.6,8,8S160.6,451.5,156.2,451.5z M106,418.3c0-4.4-3.6-8-8-8h-35
	c-4.4,0-8,3.6-8,8s3.6,8,8,8h35C102.5,426.3,106,422.7,106,418.3z M478.2,451.2c-5.9,0-10.8,4.8-10.8,10.8c0,5.9,4.8,10.8,10.8,10.8
	c5.9,0,10.8-4.8,10.8-10.8C489,456,484.2,451.2,478.2,451.2z M476.8,354.7c0-4.4-3.6-8-8-8H367.7c-4.4,0-8,3.6-8,8s3.6,8,8,8h101.1
	C473.3,362.7,476.8,359.1,476.8,354.7z M413.9,318.8c0-4.4-3.6-8-8-8H339c-4.4,0-8,3.6-8,8s3.6,8,8,8h66.9
	C410.3,326.8,413.9,323.2,413.9,318.8z M373.4,418.3c0-14.6-11.8-26.4-26.4-26.4c-4.4,0-8,3.6-8,8s3.6,8,8,8
	c5.7,0,10.4,4.7,10.4,10.4s-4.7,10.4-10.4,10.4c-4.4,0-8,3.6-8,8s3.6,8,8,8C361.5,444.6,373.4,432.8,373.4,418.3z"></path>
<g>
	<path fill="#DB81DA" class="secondary-color" d="M23.7,107.6V19.4h30.4v88.1H23.7z"></path>
	<path fill="#FFA4ED" class="primary-color" d="M69.8,107.6V19.4h30.4v88.1H69.8z"></path>
</g>
</svg>