<svg version="1.1" id="Layer_1" xmlns="http://www.w3.org/2000/svg" xmlns:xlink="http://www.w3.org/1999/xlink" x="0px" y="0px" viewBox="0 0 512 512" enable-background="new 0 0 512 512" xml:space="preserve">
<linearGradient id="SVGID_1_" gradientUnits="userSpaceOnUse" x1="249.56" y1="483.6972" x2="249.56" y2="54.716" class="gradient-element">
	<stop offset="0" class="primary-color-gradient" style="stop-color: #FFA4ED"></stop>
	<stop offset="1" class="secondary-color-gradient" style="stop-color: #DB81DA"></stop>
</linearGradient>
<path fill="url(#SVGID_1_)" d="M318.2,255.5c0,42.8-17.5,83.8-48.3,113.3v99.4c0,3.6-4.3,5.3-6.8,2.8l-46.7-46.7
	c-9.2-9.2-14.4-21.7-14.4-34.7v-23.7c0-11.5,4-22.6,11.3-31.3c23.7-28.2-32.5-64-32.5-101.2c0-37.2,56.2-73,32.5-101.2
	c-7.4-8.8-11.3-19.9-11.3-31.3v0l61-61c2.5-2.5,6.8-0.7,6.8,2.8v99.4C300.7,171.8,318.2,212.8,318.2,255.5z"></path>
<path d="M261.4,480.3c-3.1,0-6.2-1.2-8.5-3.5L146.1,369.9c-3.1-3.1-3.1-8.2,0-11.3c3.1-3.1,8.2-3.1,11.3,0l100,100V449
	c0-4.4,3.6-8,8-8s8,3.6,8,8v19.2c0,4.9-2.9,9.2-7.4,11.1C264.5,480,263,480.3,261.4,480.3z M265.4,426.3c-4.4,0-8-3.6-8-8v-52.8
	l2.5-2.4c29.1-28,45.9-67.2,45.9-107.5c0-40.4-16.7-79.5-45.8-107.5l-2.5-2.4V52.5L152.7,157.2v190.8H48.1c-4.4,0-8-3.6-8-8
	s3.6-8,8-8h88.6V150.6L253,34.3c3.4-3.4,8.6-4.5,13.1-2.6c4.5,1.9,7.4,6.2,7.4,11.1v96.1c30.7,30.8,48.3,73.1,48.3,116.7
	c0,43.5-17.6,85.9-48.3,116.7v46.1C273.4,422.7,269.9,426.3,265.4,426.3z M241.3,388.2c-4.4,0-8-3.6-8-8V91.4c0-4.4,3.6-8,8-8
	s8,3.6,8,8v288.8C249.3,384.6,245.7,388.2,241.3,388.2z M48.1,372.2c-17.7,0-32.2-14.4-32.2-32.2V171c0-17.7,14.4-32.2,32.2-32.2
	h72.5c4.4,0,8,3.6,8,8s-3.6,8-8,8H48.1c-8.9,0-16.2,7.2-16.2,16.2v169.1c0,8.9,7.2,16.2,16.2,16.2c4.4,0,8,3.6,8,8
	S52.5,372.2,48.1,372.2z M400.9,442.4c-1.9,0-3.7-0.6-5.3-2c-3.3-2.9-3.7-8-0.8-11.3c42.1-48.3,65-105.2,66.1-164.7
	c0-40-4.3-69.7-14.4-99.1c-11.4-33.3-28.8-63.5-51.6-89.7c-2.9-3.3-2.6-8.4,0.8-11.3c3.3-2.9,8.4-2.6,11.3,0.8
	c24.2,27.7,42.5,59.7,54.6,95c10.7,31.2,15.2,62.4,15.2,104.3c0,0.1,0,0.1,0,0.2c-1.3,63.3-25.5,123.8-70.1,175
	C405.4,441.5,403.1,442.4,400.9,442.4z M469,264.6L469,264.6L469,264.6z M355.5,386c36.9-35.2,57-79.5,58.1-128.3c0-0.1,0-0.1,0-0.2
	c-0.2-36.9-7.9-67.4-24.3-96.1c-9.4-16.3-21-30.9-34.6-43.3c-3.3-3-8.3-2.7-11.3,0.5c-3,3.3-2.7,8.3,0.5,11.3
	c12.4,11.3,23,24.6,31.5,39.5c15,26.1,22,54.1,22.2,88.1c-1,44.3-19.3,84.8-53.1,116.9c-3.2,3-3.3,8.1-0.3,11.3
	c1.6,1.7,3.7,2.5,5.8,2.5C352,388.2,354,387.5,355.5,386z"></path>
<path fill="#DB81DA" class="secondary-color" d="M62.7,472.4l57.8-57.8l57.8,57.8H62.7z"></path>
<path d="M41.9,71.5c-4.4,0-8-3.6-8-8s3.6-8,8-8c11.4,0,20.8-9.3,20.8-20.8c0-4.4,3.6-8,8-8s8,3.6,8,8C78.6,55,62.1,71.5,41.9,71.5z
	 M128.6,63.5c0-4.4-3.6-8-8-8c-11.4,0-20.8-9.3-20.8-20.8c0-4.4-3.6-8-8-8s-8,3.6-8,8c0,20.3,16.5,36.8,36.8,36.8
	C125,71.5,128.6,67.9,128.6,63.5z M99.9,113.5c0-11.4,9.3-20.8,20.8-20.8c4.4,0,8-3.6,8-8s-3.6-8-8-8c-20.3,0-36.8,16.5-36.8,36.8
	c0,4.4,3.6,8,8,8S99.9,117.9,99.9,113.5z M78.6,113.5c0-20.3-16.5-36.8-36.8-36.8c-4.4,0-8,3.6-8,8s3.6,8,8,8
	c11.4,0,20.8,9.3,20.8,20.8c0,4.4,3.6,8,8,8S78.6,117.9,78.6,113.5z M41.9,432.8c-5.9,0-10.8,4.8-10.8,10.8
	c0,5.9,4.8,10.8,10.8,10.8s10.8-4.8,10.8-10.8C52.6,437.6,47.8,432.8,41.9,432.8z M349.7,443.5c0-4.4-3.6-8-8-8h-56
	c-4.4,0-8,3.6-8,8s3.6,8,8,8h56C346.2,451.5,349.7,447.9,349.7,443.5z M291.6,418.3c0-4.4-3.6-8-8-8h-35c-4.4,0-8,3.6-8,8s3.6,8,8,8
	h35C288,426.3,291.6,422.7,291.6,418.3z"></path>
</svg>