<svg version="1.1" id="Layer_1" xmlns="http://www.w3.org/2000/svg" xmlns:xlink="http://www.w3.org/1999/xlink" x="0px" y="0px" viewBox="0 0 512 512" enable-background="new 0 0 512 512" xml:space="preserve">
<linearGradient id="SVGID_1_" gradientUnits="userSpaceOnUse" x1="336.1497" y1="484.8398" x2="336.1497" y2="47.9392" class="gradient-element">
	<stop offset="0" class="primary-color-gradient" style="stop-color: #FFA4ED"></stop>
	<stop offset="1" class="secondary-color-gradient" style="stop-color: #DB81DA"></stop>
</linearGradient>
<path fill="url(#SVGID_1_)" d="M487.2,266.6C486,335.9,463.6,405.4,419,465c-5.4,7.2-13.4,9.6-20.5,7.4c-2.8-0.8-3.7-4.8-1.8-7.3
	c0,0,0-0.1,0-0.1c-1.5,6,70.3-75.3,73-198.4c2.7-121.7-49.3-195.1-72.8-226.7c-0.2-0.2-0.4-0.5-0.6-1.1c-0.9-3,0.6-5.9,3.3-6.6
	c1.4-0.3,2.8-0.5,4.3-0.5c5.6,0,11.3,2.7,15.4,8.2c23.5,31.6,41.3,67.5,53.1,107.9C482.3,181.8,487.2,217,487.2,266.6z M274.1,142.2
	V42.8c0-3.6-4.3-5.4-6.8-2.8l-61,61v0c0,11.5,4,22.6,11.3,31.3c23.7,28.1-32.5,64-32.5,101.2c0,37.2,56.2,73,32.5,101.2
	c-7.4,8.8-11.3,19.9-11.3,31.3v23.7c0,13,5.2,25.5,14.4,34.7l46.7,46.7c2.5,2.5,6.8,0.7,6.8-2.8v-99.4
	c30.8-29.5,48.3-70.5,48.3-113.3C322.4,212.8,304.9,171.8,274.1,142.2z"></path>
<path fill="#DB81DA" class="secondary-color" d="M66.9,472.4l57.8-57.8l57.8,57.8H66.9z"></path>
<path d="M46.1,71.5c-4.4,0-8-3.6-8-8s3.6-8,8-8c11.4,0,20.8-9.3,20.8-20.8c0-4.4,3.6-8,8-8s8,3.6,8,8C82.8,55,66.4,71.5,46.1,71.5z
	 M132.8,63.5c0-4.4-3.6-8-8-8c-11.4,0-20.8-9.3-20.8-20.8c0-4.4-3.6-8-8-8s-8,3.6-8,8c0,20.3,16.5,36.8,36.8,36.8
	C129.3,71.5,132.8,67.9,132.8,63.5z M104.1,113.5c0-11.4,9.3-20.8,20.8-20.8c4.4,0,8-3.6,8-8s-3.6-8-8-8
	c-20.3,0-36.8,16.5-36.8,36.8c0,4.4,3.6,8,8,8S104.1,117.9,104.1,113.5z M82.8,113.5c0-20.3-16.5-36.8-36.8-36.8c-4.4,0-8,3.6-8,8
	s3.6,8,8,8c11.4,0,20.8,9.3,20.8,20.8c0,4.4,3.6,8,8,8S82.8,117.9,82.8,113.5z M46.1,432.8c-5.9,0-10.8,4.8-10.8,10.8
	c0,5.9,4.8,10.8,10.8,10.8s10.8-4.8,10.8-10.8C56.8,437.6,52,432.8,46.1,432.8z M295.8,418.3c0-4.4-3.6-8-8-8h-35c-4.4,0-8,3.6-8,8
	s3.6,8,8,8h35C292.2,426.3,295.8,422.7,295.8,418.3z"></path>
<path d="M265.7,480.3c-3.1,0-6.2-1.2-8.5-3.5L150.3,369.9c-3.1-3.1-3.1-8.2,0-11.3c3.1-3.1,8.2-3.1,11.3,0l100,100V449
	c0-4.4,3.6-8,8-8s8,3.6,8,8v19.2c0,4.9-2.9,9.2-7.4,11.1C268.8,480,267.2,480.3,265.7,480.3z M269.7,426.3c-4.4,0-8-3.6-8-8v-52.8
	l2.5-2.4c29.1-28,45.9-67.2,45.9-107.5S293.3,176,264.1,148l-2.5-2.4V52.5L156.9,157.2v190.8H52.3c-4.4,0-8-3.6-8-8s3.6-8,8-8h88.6
	V150.6L257.2,34.3c3.4-3.4,8.6-4.5,13.1-2.6c4.5,1.9,7.4,6.2,7.4,11.1v96.1C308.4,169.7,326,212,326,255.5
	c0,43.5-17.6,85.9-48.3,116.7v46.1C277.7,422.7,274.1,426.3,269.7,426.3z M245.5,388.2c-4.4,0-8-3.6-8-8V91.4c0-4.4,3.6-8,8-8
	s8,3.6,8,8v288.8C253.5,384.6,249.9,388.2,245.5,388.2z M52.3,372.2c-17.7,0-32.2-14.4-32.2-32.2V171c0-17.7,14.4-32.2,32.2-32.2
	h72.5c4.4,0,8,3.6,8,8s-3.6,8-8,8H52.3c-8.9,0-16.2,7.2-16.2,16.2v169.1c0,8.9,7.2,16.2,16.2,16.2c4.4,0,8,3.6,8,8
	S56.7,372.2,52.3,372.2z M403.7,483c-0.7,0-1.4,0-2.1-0.1c-10-0.8-18.9-7-23.9-16.6v0c-6.6-12.5-5.2-28.3,3.5-39.3
	c37.3-47.2,57.5-103.6,58.5-163c0-38.3-3.5-66.6-11.7-94.7c-10.1-34.3-25.7-65-46.6-91.3c-8.7-11-10.1-26.8-3.5-39.4
	c5-9.6,14-15.8,23.9-16.6c9.7-0.8,19.2,3.7,25.4,12c24.2,32.4,42.6,69.7,54.7,111c10.7,36.3,15.2,72.7,15.2,121.6c0,0.1,0,0.1,0,0.2
	c-1.3,73.8-25.5,144.4-70.1,204.1C421.1,478.6,412.6,483,403.7,483z M403.9,41.5c-0.2,0-0.4,0-0.6,0c-3.3,0.3-6.3,2.5-8.2,6.2
	c-3,5.7-2.3,13.3,1.5,18.2c22.4,28.3,39.2,61.2,50,98c8.8,30,12.5,60,12.5,100.3c0,0.1,0,0.1,0,0.2c-1.1,63.8-22.8,124.2-62.7,174.9
	c-3.8,4.9-4.5,12.5-1.5,18.1l0,0c1.9,3.6,4.9,5.9,8.2,6.1c3.1,0.3,5.9-1.3,8.2-4.2c42.1-56.4,65-123,66.2-192.7
	c0-46.9-4.3-81.6-14.4-116c-11.4-39-28.8-74.2-51.6-104.8C409.3,43,406.7,41.5,403.9,41.5z M330.1,381.2c23.9-34.5,37-79.4,37-126.4
	c0-48-13.6-93.5-38.3-128.2c-3-4.2-8.8-5.2-13-2.2c-4.2,3-5.2,8.8-2.2,13c22.5,31.6,34.8,73.3,34.8,117.4c0,43.3-12,84.4-33.7,115.8
	c-2.9,4.2-1.9,10,2.4,13c1.6,1.1,3.5,1.7,5.3,1.7C325.4,385.3,328.3,383.9,330.1,381.2z M357.1,420.8
	c36.2-38.4,57.8-100.4,57.8-165.9c0-64.1-19.8-123.2-54.5-162.2c-3.6-4-9.8-4.4-13.8-0.8c-4,3.6-4.4,9.8-0.8,13.8
	c31,35,49.5,90.8,49.5,149.3c0,60.7-19.6,117.7-52.5,152.5c-3.7,3.9-3.5,10.1,0.4,13.8c1.9,1.8,4.3,2.7,6.7,2.7
	C352.6,423.9,355.2,422.8,357.1,420.8z"></path>
</svg>