<svg version="1.1" id="Layer_1" xmlns="http://www.w3.org/2000/svg" xmlns:xlink="http://www.w3.org/1999/xlink" x="0px" y="0px" viewBox="0 0 512 512" enable-background="new 0 0 512 512" xml:space="preserve">
<linearGradient id="SVGID_1_" gradientUnits="userSpaceOnUse" x1="265.5721" y1="462.0468" x2="265.5721" y2="102.8742" class="gradient-element">
	<stop offset="0" class="primary-color-gradient" style="stop-color: #FFA4ED"></stop>
	<stop offset="1" class="secondary-color-gradient" style="stop-color: #DB81DA"></stop>
</linearGradient>
<path fill="url(#SVGID_1_)" d="M379.8,470.7c-26.3,13.5-56.5,9.5-75.1-8c-2.7-3.3-5.1-6.9-7.2-10.9l-0.1-0.2
	c-3.3-6.4,5.1-15,11.4-11c39.8,25.6,76.3,5.2,86.9-18c3.7-8,4.9-21.3-5.4-35c-12.2-16.1-32.6-21.5-55.3-18.8
	c-3.9,0.5-6.1-3.2-6.4-6.2c31.9-14.4,68.4-3.8,83,24.6C426.5,416.5,412.4,454,379.8,470.7z M145.5,312.9c0.4,3,2.5,6.7,6.4,6.2
	c22.7-2.7,43.1,2.7,55.3,18.8c10.4,13.7,9.1,27,5.4,35c-10.6,23.2-47.1,43.6-86.9,18c-6.2-4-14.6,4.6-11.4,11l0.1,0.2
	c2,3.9,4.4,7.6,7.2,10.9c18.7,17.5,48.9,21.5,75.1,8c32.6-16.8,46.8-54.2,31.7-83.6C213.9,309.1,177.3,298.5,145.5,312.9z
	 M417.4,160.1V102l-50.7-9c-24.6-4.4-47.2,14.6-47.2,39.6V185l52.2,11.7C395.1,202,417.4,184.2,417.4,160.1z"></path>
<path d="M348.1,480.9c-44.8,0-77.3-27.6-77.3-65.7s32.5-65.7,77.3-65.7c13.9,0,26.9,2.7,38.2,7.8V204.9l-132.5-33.1
	c-3.6-0.9-6.1-4.1-6.1-7.8v-23.8c0-4.4,3.6-8,8-8s8,3.6,8,8v17.6l132.5,33.1c3.6,0.9,6.1,4.1,6.1,7.8V371c0,3-1.7,5.7-4.3,7.1
	c-2.7,1.4-5.9,1.1-8.3-0.6c-11.1-7.9-25.4-12.1-41.5-12.1c-35.5,0-61.3,20.9-61.3,49.7c0,28.8,25.8,49.7,61.3,49.7
	c35.5,0,61.3-20.9,61.3-49.7c0-4.4,3.6-8,8-8s8,3.6,8,8C425.4,453.2,392.9,480.9,348.1,480.9z M163.4,434.7
	c-44.8,0-77.3-27.6-77.3-65.7s32.5-65.7,77.3-65.7c13.9,0,26.9,2.7,38.2,7.8V57.2c0-2.5,1.1-4.8,3.1-6.3c1.9-1.5,4.5-2.1,6.9-1.5
	l207.8,52c3.6,0.9,6.1,4.1,6.1,7.8V170c0,4.4-3.6,8-8,8s-8-3.6-8-8v-54.6l-191.8-48v257.4c0,3-1.7,5.7-4.3,7.1
	c-2.7,1.4-5.9,1.1-8.3-0.6c-11-7.9-25.4-12.1-41.5-12.1c-35.5,0-61.3,20.9-61.3,49.7c0,28.8,25.8,49.7,61.3,49.7
	s61.3-20.9,61.3-49.7c0-4.4,3.6-8,8-8s8,3.6,8,8C240.6,407,208.1,434.7,163.4,434.7z"></path>
<path fill="#DB81DA" class="secondary-color" d="M33.5,30.6l57.8,57.8l-57.8,57.8V30.6z"></path>
<path d="M441.6,226.3c0-4.4,3.6-8,8-8h3.9v-3.9c0-4.4,3.6-8,8-8s8,3.6,8,8v3.9h3.9c4.4,0,8,3.6,8,8s-3.6,8-8,8h-3.9v3.9
	c0,4.4-3.6,8-8,8s-8-3.6-8-8v-3.9h-3.9C445.2,234.3,441.6,230.7,441.6,226.3z M49.4,300.4c5.9,0,10.8-4.8,10.8-10.8
	c0-5.9-4.8-10.8-10.8-10.8c-5.9,0-10.8,4.8-10.8,10.8C38.6,295.6,43.5,300.4,49.4,300.4z M78.7,442.8c-4.4,0-8,3.6-8,8
	c0,5.7-4.7,10.4-10.4,10.4s-10.4-4.7-10.4-10.4c0-4.4-3.6-8-8-8s-8,3.6-8,8c0,14.6,11.8,26.4,26.4,26.4s26.4-11.8,26.4-26.4
	C86.7,446.4,83.1,442.8,78.7,442.8z M452.3,78c-4.4,0-8,3.6-8,8s3.6,8,8,8c14.6,0,26.4-11.8,26.4-26.4s-11.8-26.4-26.4-26.4
	c-4.4,0-8,3.6-8,8s3.6,8,8,8c5.7,0,10.4,4.7,10.4,10.4S458,78,452.3,78z M473.4,430.4c-5.9,0-10.8,4.8-10.8,10.8s4.8,10.8,10.8,10.8
	c5.9,0,10.8-4.8,10.8-10.8S479.3,430.4,473.4,430.4z M465.2,307.5c0-4.4-3.6-8-8-8h-43c-4.4,0-8,3.6-8,8s3.6,8,8,8h43
	C461.6,315.5,465.2,311.9,465.2,307.5z M422.9,329.5h-73.8c-4.4,0-8,3.6-8,8s3.6,8,8,8h73.8c4.4,0,8-3.6,8-8
	S427.3,329.5,422.9,329.5z M149.9,195.8h-15.8V180c0-4.4-3.6-8-8-8s-8,3.6-8,8v15.8h-15.8c-4.4,0-8,3.6-8,8s3.6,8,8,8h15.8v15.8
	c0,4.4,3.6,8,8,8s8-3.6,8-8v-15.8h15.8c4.4,0,8-3.6,8-8S154.3,195.8,149.9,195.8z"></path>
</svg>