<svg version="1.1" id="Layer_1" xmlns="http://www.w3.org/2000/svg" xmlns:xlink="http://www.w3.org/1999/xlink" x="0px" y="0px" viewBox="0 0 512 512" enable-background="new 0 0 512 512" xml:space="preserve">
<linearGradient id="SVGID_1_" gradientUnits="userSpaceOnUse" x1="253.9268" y1="407.5372" x2="253.9268" y2="90.1976" class="gradient-element">
	<stop offset="0" class="primary-color-gradient" style="stop-color: #FFA4ED"></stop>
	<stop offset="1" class="secondary-color-gradient" style="stop-color: #DB81DA"></stop>
</linearGradient>
<path fill="url(#SVGID_1_)" d="M329.2,169.4c2.4-26.2,21-46.7,43.6-46.7l0,0c10.2,0,18.4,8.2,18.4,18.4v217.4
	c0,15.6-12.6,28.2-28.2,28.2H128.6c-6.7,0-12.1-5.4-12.1-12.1c-0.1-20.1,1.8-31.2,42.3-31.2h140.2c31.3,0,31-12.9,30.2-107.6
	c-0.1-7.3,12.1,4,12-4.3c-0.1-8.3-1.7-38.7-1.7-48c0-3.4-10.6-4.3-10.6-7.8v-0.6C329,173.2,329.1,171.3,329.2,169.4z"></path>
<path d="M481.8,40.1c0,4.4-3.6,8-8,8H339.6c-4.4,0-8-3.6-8-8s3.6-8,8-8h134.2C478.2,32.1,481.8,35.7,481.8,40.1z M139.7,453.1H60.2
	c-4.4,0-8,3.6-8,8s3.6,8,8,8h79.5c4.4,0,8-3.6,8-8S144.1,453.1,139.7,453.1z M57.2,61.1c-4.2-4.2-11-4.2-15.2,0
	c-4.2,4.2-4.2,11,0,15.2s11,4.2,15.2,0S61.4,65.3,57.2,61.1z M457.6,453.5c-4.2,4.2-4.2,11,0,15.2c4.2,4.2,11,4.2,15.2,0
	c4.2-4.2,4.2-11,0-15.2C468.6,449.3,461.8,449.3,457.6,453.5z M380.5,450.7h-3.9v-3.9c0-4.4-3.6-8-8-8s-8,3.6-8,8v3.9h-3.9
	c-4.4,0-8,3.6-8,8s3.6,8,8,8h3.9v3.9c0,4.4,3.6,8,8,8s8-3.6,8-8v-3.9h3.9c4.4,0,8-3.6,8-8S384.9,450.7,380.5,450.7z M170,45.8h-3.9
	v-3.9c0-4.4-3.6-8-8-8s-8,3.6-8,8v3.9h-3.9c-4.4,0-8,3.6-8,8s3.6,8,8,8h3.9v3.9c0,4.4,3.6,8,8,8s8-3.6,8-8v-3.9h3.9c4.4,0,8-3.6,8-8
	S174.5,45.8,170,45.8z"></path>
<path d="M85.3,377.7H73.8c-14.4,0-26-11.7-26-26V147.2c0-14.4,11.7-26,26-26H90c4.4,0,8,3.6,8,8s-3.6,8-8,8H73.8
	c-5.5,0-10,4.5-10,10v204.5c0,5.5,4.5,10,10,10h11.6c4.4,0,8,3.6,8,8S89.8,377.7,85.3,377.7z M463.5,351.6V147.2
	c0-14.4-11.7-26-26-26h-16.2c-4.4,0-8,3.6-8,8s3.6,8,8,8h16.2c5.5,0,10,4.5,10,10v204.5c0,5.5-4.5,10-10,10h-11.6c-4.4,0-8,3.6-8,8
	s3.6,8,8,8h11.6C451.8,377.7,463.5,366,463.5,351.6z M503.5,332V177.5c0-4.4-3.6-8-8-8s-8,3.6-8,8V332c0,4.4,3.6,8,8,8
	S503.5,336.4,503.5,332z M24.5,332V177.5c0-4.4-3.6-8-8-8s-8,3.6-8,8V332c0,4.4,3.6,8,8,8S24.5,336.4,24.5,332z M398.3,368.2v-11.6
	c0-4.4-3.6-8-8-8s-8,3.6-8,8v11.6c0,5.5-4.5,10-10,10H137.8c-5.5,0-10-4.5-10-10v-16.2c0-4.4-3.6-8-8-8s-8,3.6-8,8v16.2
	c0,14.4,11.7,26,26,26h234.5C386.6,394.3,398.3,382.6,398.3,368.2z M398.3,326.5V133.8c0-14.4-11.7-26-26-26H137.8
	c-14.4,0-26,11.7-26,26v187.3c0,4.4,3.6,8,8,8s8-3.6,8-8V133.8c0-5.5,4.5-10,10-10h234.5c5.5,0,10,4.5,10,10v192.8c0,4.4,3.6,8,8,8
	S398.3,330.9,398.3,326.5z M260.4,315.6c0-4.4-3.6-8-8-8s-8,3.6-8,8c0,15.6-14.2,26.9-33.8,26.9s-33.8-11.3-33.8-26.9
	s14.2-26.9,33.8-26.9c9.1,0,17.1,2.3,23.2,6.7c2.4,1.7,5.6,2,8.3,0.6c2.7-1.4,4.3-4.1,4.3-7.1V161.8l86.9,22v30.5c0,4.4,3.6,8,8,8
	s8-3.6,8-8v-36.8c0-3.7-2.5-6.9-6-7.8l-102.9-26c-2.4-0.6-4.9-0.1-6.9,1.4c-1.9,1.5-3.1,3.8-3.1,6.3V276c-6.1-2.1-12.8-3.2-19.9-3.2
	c-28.9,0-49.8,18-49.8,42.9s21,42.9,49.8,42.9C239.4,358.5,260.4,340.4,260.4,315.6z M335.1,233.5c1.1-4.3-1.5-8.6-5.8-9.7l-55-14
	v-8.2c0-4.4-3.6-8-8-8s-8,3.6-8,8V216c0,3.7,2.5,6.8,6,7.8l61.1,15.6c0.7,0.2,1.3,0.3,2,0.3C330.9,239.6,334.2,237.1,335.1,233.5z
	 M335.1,233.5c1.1-4.3-1.5-8.6-5.8-9.7l-55-14v-8.2c0-4.4-3.6-8-8-8s-8,3.6-8,8V216c0,3.7,2.5,6.8,6,7.8l61.1,15.6
	c0.7,0.2,1.3,0.3,2,0.3C330.9,239.6,334.2,237.2,335.1,233.5z"></path>
</svg>