<svg version="1.1" id="Layer_1" xmlns="http://www.w3.org/2000/svg" xmlns:xlink="http://www.w3.org/1999/xlink" x="0px" y="0px" viewBox="0 0 512 512" enable-background="new 0 0 512 512" xml:space="preserve">
<linearGradient id="SVGID_1_" gradientUnits="userSpaceOnUse" x1="333.5182" y1="443.0468" x2="333.5182" y2="75.055" class="gradient-element">
	<stop offset="0" class="primary-color-gradient" style="stop-color: #FFA4ED"></stop>
	<stop offset="1" class="secondary-color-gradient" style="stop-color: #DB81DA"></stop>
</linearGradient>
<path fill="url(#SVGID_1_)" d="M402.2,254.5c0,42.8-17.5,83.8-48.3,113.3v99.4c0,3.6-4.3,5.3-6.8,2.8l-46.7-46.7
	c-9.2-9.2-14.4-21.7-14.4-34.7v-23.7c0-11.5,4-22.6,11.3-31.3c23.7-28.2-32.5-64-32.5-101.2c0-37.2,56.2-73,32.5-101.2
	C290,122.6,286,111.4,286,100v0l61-61c2.5-2.5,6.8-0.7,6.8,2.8v99.4C384.6,170.8,402.2,211.8,402.2,254.5z"></path>
<path d="M345.4,479.3c-3.1,0-6.2-1.2-8.5-3.5L230.1,368.9c-3.1-3.1-3.1-8.2,0-11.3c3.1-3.1,8.2-3.1,11.3,0l100,100V448
	c0-4.4,3.6-8,8-8s8,3.6,8,8v19.2c0,4.9-2.9,9.2-7.4,11.1C348.5,479,346.9,479.3,345.4,479.3z M349.4,425.3c-4.4,0-8-3.6-8-8v-52.8
	l2.5-2.4c29.1-28,45.9-67.2,45.9-107.5c0-40.4-16.7-79.5-45.9-107.5l-2.5-2.4V51.5L236.6,156.2v190.8H132c-4.4,0-8-3.6-8-8
	s3.6-8,8-8h88.6V149.6L336.9,33.3c3.4-3.4,8.6-4.5,13.1-2.6c4.5,1.9,7.4,6.2,7.4,11.1v96.1c30.7,30.8,48.3,73.1,48.3,116.7
	c0,43.5-17.6,85.9-48.3,116.7v46.1C357.4,421.7,353.8,425.3,349.4,425.3z M325.3,387.2c-4.4,0-8-3.6-8-8V90.4c0-4.4,3.6-8,8-8
	s8,3.6,8,8v288.8C333.3,383.6,329.7,387.2,325.3,387.2z M132,371.2c-17.7,0-32.2-14.4-32.2-32.2V170c0-17.7,14.4-32.2,32.2-32.2
	h72.5c4.4,0,8,3.6,8,8s-3.6,8-8,8H132c-8.9,0-16.2,7.2-16.2,16.2v169.1c0,8.9,7.2,16.2,16.2,16.2c4.4,0,8,3.6,8,8
	S136.4,371.2,132,371.2z M203.2,193.2c0-4.4-3.6-8-8-8h-43c-4.4,0-8,3.6-8,8s3.6,8,8,8h43C199.6,201.2,203.2,197.6,203.2,193.2z"></path>
<path d="M257.3,442.5c0,4.4-3.6,8-8,8h-56c-4.4,0-8-3.6-8-8s3.6-8,8-8h56C253.8,434.5,257.3,438.1,257.3,442.5z M199.2,417.3
	c0-4.4-3.6-8-8-8h-35c-4.4,0-8,3.6-8,8s3.6,8,8,8h35C195.6,425.3,199.2,421.7,199.2,417.3z M204.5,84c5.9,0,10.8-4.8,10.8-10.8
	c0-5.9-4.8-10.8-10.8-10.8s-10.8,4.8-10.8,10.8C193.7,79.2,198.5,84,204.5,84z M97.3,431.8c0,14.6-11.8,26.4-26.4,26.4
	s-26.4-11.8-26.4-26.4s11.8-26.4,26.4-26.4S97.3,417.2,97.3,431.8z M81.3,431.8c0-5.7-4.7-10.4-10.4-10.4s-10.4,4.7-10.4,10.4
	s4.7,10.4,10.4,10.4S81.3,437.5,81.3,431.8z M90.7,103.1c0-4.4-3.6-8-8-8h-56c-4.4,0-8,3.6-8,8s3.6,8,8,8h56
	C87.2,111.1,90.7,107.5,90.7,103.1z M458.2,69.8h-35c-4.4,0-8,3.6-8,8s3.6,8,8,8h35c4.4,0,8-3.6,8-8S462.6,69.8,458.2,69.8z"></path>
<g>
	<path fill="#DB81DA" class="secondary-color" d="M493.7,371.2v102.6h-91.4L493.7,371.2z"></path>
	<path fill="#FFA4ED" class="primary-color" d="M22,236v-43.6h43.6V236H22z M65.6,316.6V273H22v43.6H65.6z"></path>
</g>
</svg>