<svg version="1.1" id="Layer_1" xmlns="http://www.w3.org/2000/svg" xmlns:xlink="http://www.w3.org/1999/xlink" x="0px" y="0px" viewBox="0 0 512 512" enable-background="new 0 0 512 512" xml:space="preserve">
<linearGradient id="SVGID_1_" gradientUnits="userSpaceOnUse" x1="187.6432" y1="314.7654" x2="428.0732" y2="314.7654" class="gradient-element">
	<stop offset="0" class="primary-color-gradient" style="stop-color: #FFA4ED"></stop>
	<stop offset="1" class="secondary-color-gradient" style="stop-color: #DB81DA"></stop>
</linearGradient>
<path fill="url(#SVGID_1_)" d="M398.7,145c-36.5,0-66.4,30.6-69.6,69.7v9.4l61.6,15.6V281c0,8.2-7.7,14.2-15.7,12.2l-45.9-11.7v38.4
	c0,21.7-10.4,40.9-26.5,53l-0.8,4.8c0,20.2-17.6,34.8-41.8,34.8c-17.3,0-31.2-7.4-37.7-19c-8.1,4.5-15.2,10.9-20.4,19
	c-8.9,13.8-14.1,30.7-14.1,48.9v23.1h240.4V145H398.7z"></path>
<path d="M428.1,492.5H127.4c-26.3,0-47.7-23.9-47.7-53.4v-295c0-29.4,21.4-53.4,47.7-53.4h300.7c4.4,0,8,3.6,8,8s-3.6,8-8,8H127.4
	c-17.5,0-31.7,16.8-31.7,37.4v295c0,20.6,14.2,37.4,31.7,37.4h29V169.6c0-4.4,3.6-8,8-8s8,3.6,8,8v306.9h255.7c4.4,0,8,3.6,8,8
	S432.5,492.5,428.1,492.5z M428.1,463.8c-4.4,0-8-3.6-8-8V153h-287c-4.4,0-8-3.6-8-8s3.6-8,8-8h295c4.4,0,8,3.6,8,8v310.8
	C436.1,460.3,432.5,463.8,428.1,463.8z M259.9,420.6c-28.9,0-49.8-18-49.8-42.9s21-42.9,49.8-42.9c7.1,0,13.8,1.1,19.9,3.2V213.7
	c0-2.5,1.1-4.8,3.1-6.3c1.9-1.5,4.5-2,6.9-1.4l102.9,26c3.6,0.9,6,4.1,6,7.8v36.8c0,4.4-3.6,8-8,8s-8-3.6-8-8v-30.5l-86.9-22v127.2
	c0,3-1.7,5.7-4.3,7.1c-2.7,1.4-5.9,1.1-8.3-0.6c-6.1-4.4-14.2-6.7-23.2-6.7c-19.6,0-33.8,11.3-33.8,26.9s14.2,26.9,33.8,26.9
	s33.8-11.3,33.8-26.9c0-4.4,3.6-8,8-8s8,3.6,8,8C309.7,402.6,288.8,420.6,259.9,420.6z M376.7,301.7c-0.7,0-1.3-0.1-2-0.3
	l-61.1-15.6c-3.5-0.9-6-4.1-6-7.8v-14.4c0-4.4,3.6-8,8-8s8,3.6,8,8v8.2l55,14c4.3,1.1,6.9,5.4,5.8,9.7
	C383.5,299.3,380.3,301.7,376.7,301.7z M376.7,301.7c-0.7,0-1.3-0.1-2-0.3l-61.1-15.6c-3.5-0.9-6-4.1-6-7.8v-14.4c0-4.4,3.6-8,8-8
	s8,3.6,8,8v8.2l55,14c4.3,1.1,6.9,5.4,5.8,9.7C383.5,299.3,380.3,301.7,376.7,301.7z"></path>
<path fill="#FFA4ED" class="primary-color" d="M469.6,30h21.8v250h-21.8V30z"></path>
<path d="M33.8,63.3c0-4.4,3.6-8,8-8h3.9v-3.9c0-4.4,3.6-8,8-8s8,3.6,8,8v3.9h3.9c4.4,0,8,3.6,8,8s-3.6,8-8,8h-3.9v3.9
	c0,4.4-3.6,8-8,8s-8-3.6-8-8v-3.9h-3.9C37.3,71.3,33.8,67.8,33.8,63.3z M111.7,447.8H54.1c-4.4,0-8,3.6-8,8s3.6,8,8,8h57.6
	c4.4,0,8-3.6,8-8S116.1,447.8,111.7,447.8z M63.2,407.2c0-4.4-3.6-8-8-8h-35c-4.4,0-8,3.6-8,8s3.6,8,8,8h35
	C59.6,415.2,63.2,411.7,63.2,407.2z M359.1,27.3h-40.2c-4.4,0-8,3.6-8,8s3.6,8,8,8h40.2c4.4,0,8-3.6,8-8S363.5,27.3,359.1,27.3z"></path>
</svg>