<svg version="1.1" id="Layer_1" xmlns="http://www.w3.org/2000/svg" xmlns:xlink="http://www.w3.org/1999/xlink" x="0px" y="0px" viewBox="0 0 512 512" enable-background="new 0 0 512 512" xml:space="preserve">
<linearGradient id="SVGID_1_" gradientUnits="userSpaceOnUse" x1="384.6767" y1="490.7921" x2="384.6767" y2="51.2766" class="gradient-element">
	<stop offset="0" class="primary-color-gradient" style="stop-color: #FFA4ED"></stop>
	<stop offset="1" class="secondary-color-gradient" style="stop-color: #DB81DA"></stop>
</linearGradient>
<path fill="url(#SVGID_1_)" d="M405.5,444.9l-20.5,11.8c-33.8,19.6-72.8,31.1-114.6,31.1H269c0-32.8,21.1-62.2,52.5-72
	c6.2-1.9,12.3-4.2,18.1-6.9l-6.3,0.6c0.7-0.1,1.4-0.2,2.1-0.2l4.8-2.4c0.5,0.3,1,0.7,1.5,1c55.7-26,92.6-81.8,92.6-149.5
	c0-28.4-6.5-54.7-18.1-77.6c-6-11.8-21.6-14.4-31-5.1l-14.2,14.1c-9.5,9.5-25,9.5-34.5,0c-9.5-9.5-9.5-25,0-34.5l16.7-16.6
	c7.8-7.7,6-20.9-3.7-26c-8.5-4.5-17.5-8.4-26.9-11.4c-19.5-6.2-35.1-19.7-44.3-36.9c-5.9-11-9.3-36.7-9.3-36.7s21.7,0.7,31.6,2
	c112.6,14.9,199.7,111.5,199.7,228c0,57.9-21.7,110.7-57.1,151.2C443.2,409,412,440.9,405.5,444.9z"></path>
<path d="M9.1,267.6c-4.4,0-8-3.6-8-8s3.6-8,8-8h74.4c4.4,0,8,3.6,8,8s-3.6,8-8,8H9.1z M458.7,88.7c4.4,0,8-3.6,8-8s-3.6-8-8-8
	c-10.7,0-19.4-8.7-19.4-19.4c0-4.4-3.6-8-8-8s-8,3.6-8,8C423.3,72.8,439.2,88.7,458.7,88.7z M27.5,63.2h14.7v14.7c0,4.4,3.6,8,8,8
	s8-3.6,8-8V63.2h14.7c4.4,0,8-3.6,8-8s-3.6-8-8-8H58.2V32.5c0-4.4-3.6-8-8-8s-8,3.6-8,8v14.7H27.5c-4.4,0-8,3.6-8,8
	S23.1,63.2,27.5,63.2z M383.6,88.7c19.5,0,35.4-15.9,35.4-35.4c0-4.4-3.6-8-8-8s-8,3.6-8,8c0,10.7-8.7,19.4-19.4,19.4
	c-4.4,0-8,3.6-8,8S379.2,88.7,383.6,88.7z M383.6,108.9c10.7,0,19.4,8.7,19.4,19.4c0,4.4,3.6,8,8,8s8-3.6,8-8
	c0-19.5-15.9-35.4-35.4-35.4c-4.4,0-8,3.6-8,8S379.2,108.9,383.6,108.9z M87.4,456.1H13c-4.4,0-8,3.6-8,8s3.6,8,8,8h74.4
	c4.4,0,8-3.6,8-8S91.8,456.1,87.4,456.1z M182.8,212.5h-108c-4.4,0-8,3.6-8,8c0,4.4,3.6,8,8,8h108c4.4,0,8-3.6,8-8
	C190.8,216.1,187.2,212.5,182.8,212.5z M445,325.8h-82.2c-4.4,0-8,3.6-8,8s3.6,8,8,8H445c4.4,0,8-3.6,8-8S449.4,325.8,445,325.8z
	 M85.1,407.7c0,5-4,9-9,9s-9-4-9-9s4-9,9-9S85.1,402.8,85.1,407.7z M458.7,92.9c-19.5,0-35.4,15.9-35.4,35.4c0,4.4,3.6,8,8,8
	s8-3.6,8-8c0-10.7,8.7-19.4,19.4-19.4c4.4,0,8-3.6,8-8S463.1,92.9,458.7,92.9z M18.9,398.7c5,0,9,4,9,9s-4,9-9,9c-5,0-9-4-9-9
	S13.9,398.7,18.9,398.7z M47.5,398.7c5,0,9,4,9,9s-4,9-9,9c-5,0-9-4-9-9S42.5,398.7,47.5,398.7z"></path>
<path d="M179.9,380.3l213.6-213.6c3.7-3.7,8.9-5.5,14.2-4.8c5.3,0.7,9.8,3.7,12.5,8.3c15.2,26.2,23.3,56.2,23.3,86.7
	c0,12.8-1.4,25.6-4.2,38.1c-1,4.3-5.3,7-9.6,6.1c-4.3-1-7-5.2-6.1-9.6c2.5-11.3,3.8-22.9,3.8-34.6c0-27.7-7.3-54.9-21.1-78.7
	c-0.2-0.3-0.4-0.4-0.7-0.5c-0.4-0.1-0.7,0.2-0.8,0.3L241.3,341.5c8.3,4.8,18.2,7.4,29.1,7.4c32.1,0,53.7-21.6,53.7-53.7
	c0-4.4,3.6-8,8-8s8,3.6,8,8c0,19.7-6.9,37.5-19.6,50.1c-12.6,12.6-30.4,19.6-50.1,19.6c-15.3,0-29.2-4.1-40.7-11.8l-14.6,14.6
	c11.6,8.4,25.8,13.7,41.5,15.6c4.4,0.5,7.5,4.5,7,8.9c-0.5,4.1-3.9,7-7.9,7c-0.3,0-0.6,0-1-0.1c-19.3-2.4-36.8-9.3-51-20.1
	l-12.5,12.5c-0.1,0.1-0.2,0.2-0.2,0.5c0,0.3,0.3,0.5,0.4,0.5c23.9,13.9,51.2,21.2,78.9,21.2c0.3,0,0.5,0,0.8,0v-22
	c0-4.2,3.2-7.7,7.4-8c49-3.5,80.7-38.3,80.7-88.6v-44c0-4.4,3.6-8,8-8s8,3.6,8,8v44c0,28.9-9.1,54.2-26.3,72.9
	c-15.6,17.1-36.9,27.7-61.8,30.9V413c50.7-5.5,96-35.3,120.9-80.6c2.1-3.9,7-5.3,10.9-3.2c3.9,2.1,5.3,7,3.2,10.9
	c-28.9,52.5-82.6,86.2-142,89.5c-0.3,0-0.7,0.1-1,0.1c-0.1,0-0.1,0-0.2,0c-2.9,0.1-5.8,0.2-8.6,0.2c-30.6,0-60.7-8.1-87-23.4
	c-4.5-2.6-7.5-7.1-8.2-12.3C174.5,389,176.2,384,179.9,380.3z M42.6,264.8c4.4,0,8-3.6,8-8c0-60.8,24.3-117.4,68.3-159.3
	c41-39,94.8-60.5,151.4-60.5c35.5,0,69.4,8.2,100.7,24.4c3.9,2,8.8,0.5,10.8-3.4c2-3.9,0.5-8.8-3.4-10.8
	c-33.1-17.1-70.5-26.1-108-26.1c-60.7,0-118.4,23-162.4,64.9c-22.9,21.8-41,47.5-53.6,76.3c-13.1,29.9-19.7,61.7-19.7,94.5
	C34.6,261.3,38.2,264.8,42.6,264.8z M466.9,126.7c-2.4-3.7-7.4-4.7-11.1-2.2c-3.7,2.4-4.7,7.4-2.2,11.1
	c23.9,36,36.5,77.9,36.5,121.3c0,121.2-98.6,219.8-219.8,219.8c-60.7,0-117.3-24.2-159.2-68.2c-3-3.2-8.1-3.3-11.3-0.3
	c-3.2,3-3.3,8.1-0.3,11.3c21.8,22.9,47.5,40.9,76.3,53.5c29.8,13.1,61.6,19.7,94.5,19.7c63,0,122.2-24.5,166.7-69
	c44.5-44.5,69-103.7,69-166.7C506.1,210.3,492.5,165.3,466.9,126.7z M52.5,286.1c-0.6-4.4-4.6-7.5-9-6.9c-4.4,0.6-7.5,4.6-6.9,9
	c4.5,33.8,16,65.5,34.2,94.4c1.5,2.4,4.1,3.7,6.8,3.7c1.5,0,2.9-0.4,4.3-1.2c3.7-2.4,4.9-7.3,2.5-11
	C67.4,347.2,56.7,317.6,52.5,286.1z M122,346.1c-16.2-26.9-24.8-57.7-24.8-89.2c0-13.7,1.1-23.2,4.2-36.3c1-4.3,5.3-6.9,9.6-5.9
	c4.3,1,6.9,5.3,5.9,9.6c-2.8,11.8-3.8,20-3.8,32.5c0,28.1,7.5,55.7,21.7,79.7l30.9-30.9c-0.1-0.3-0.1-0.7-0.1-1
	c-0.2-3.1-0.3-6.2-0.3-9.4v-44c0-4.4,3.6-8,8-8h35.2c4.4,0,8,3.6,8,8v3.7l18.1-18.1h-26.1c-4.4,0-8-3.6-8-8v-66.4
	c0-19.7,6.9-37.5,19.6-50.1c2.5-2.5,5.2-4.7,8-6.8c-45.3,12.6-83.3,45-102.4,89.6c-1.7,4.1-6.4,5.9-10.5,4.2
	c-4.1-1.7-5.9-6.4-4.2-10.5C138.4,125,200.9,83.8,270.3,83.8c31.3,0,62,8.5,88.8,24.5c4,2.4,6.7,6.5,7.3,11.2
	c0.6,4.7-1,9.3-4.4,12.7L145.3,348.9c-2.8,2.8-6.6,4.4-10.5,4.4c-0.6,0-1.2,0-1.8-0.1C128.4,352.6,124.4,350,122,346.1z
	 M350.1,121.5c-11.8-7-24.4-12.3-37.5-15.9c10.4,7.4,18.3,17.9,23,30.5L350.1,121.5z M250.4,221.2l72.2-72.2
	c-5.4-24.8-25.3-40.2-52.3-40.2c-32.1,0-53.7,21.6-53.7,53.7v58.4h31.5C248.9,220.8,249.7,220.9,250.4,221.2z M181.4,290.1
	l19.2-19.2v-11.7h-19.2V290.1z"></path>
</svg>