<svg version="1.1" id="Layer_1" xmlns="http://www.w3.org/2000/svg" xmlns:xlink="http://www.w3.org/1999/xlink" x="0px" y="0px" viewBox="0 0 512 512" enable-background="new 0 0 512 512" xml:space="preserve">
<linearGradient id="SVGID_1_" gradientUnits="userSpaceOnUse" x1="265.1316" y1="463.3314" x2="265.1316" y2="35.5897" class="gradient-element">
	<stop offset="0" class="primary-color-gradient" style="stop-color: #FFA4ED"></stop>
	<stop offset="1" class="secondary-color-gradient" style="stop-color: #DB81DA"></stop>
</linearGradient>
<path fill="url(#SVGID_1_)" d="M168.6,344.4c0,25-20.4,45.4-45.4,45.4c-5.4,0-10.6-1-15.4-2.7c17.5-6.3,30-23.1,30-42.7
	c0-19.6-12.6-36.4-30-42.7c4.8-1.8,10-2.7,15.4-2.7C148.1,299,168.6,319.4,168.6,344.4z M361.7,218.8c4.8,1.8,10,2.7,15.4,2.7
	c25,0,45.4-20.4,45.4-45.4c0-25-20.4-45.4-45.4-45.4c-5.4,0-10.6,1-15.4,2.7c17.5,6.3,30,23.1,30,42.7
	C391.7,195.6,379.2,212.4,361.7,218.8z M125.1,82.3c-5.4,0-10.6,1-15.4,2.7c17.5,6.3,30,23.1,30,42.7c0,19.6-12.6,36.4-30,42.7
	c4.8,1.8,10,2.7,15.4,2.7c25,0,45.4-20.4,45.4-45.4C170.5,102.7,150.1,82.3,125.1,82.3z M377,341c-5.4,0-10.6,1-15.4,2.7
	c17.5,6.3,30,23.1,30,42.7c0,19.6-12.6,36.4-30,42.7c4.8,1.8,10,2.7,15.4,2.7c25,0,45.4-20.4,45.4-45.4C422.4,361.5,402,341,377,341
	z"></path>
<path d="M377.6,333c-25.1,0-46.2,17.4-51.9,40.8L178.1,338c-1.1-9.4-4.7-18-10-25.2L342.9,217c9.3,7.7,21.2,12.4,34.2,12.4
	c29.4,0,53.4-24,53.4-53.4s-24-53.4-53.4-53.4c-26,0-47.7,18.7-52.4,43.3l-146.1-38.2c0,0,0-0.1,0-0.1c0-29.4-24-53.4-53.4-53.4
	s-53.4,24-53.4,53.4s24,53.4,53.4,53.4c23.9,0,44.1-15.7,50.9-37.4l148,38.6c1,8.2,3.8,15.8,8,22.4L156.3,301
	c-8.8-6.3-19.5-10.1-31.1-10.1c-29.4,0-53.4,24-53.4,53.4s24,53.4,53.4,53.4c26,0,47.8-18.7,52.5-43.5L324.3,390
	c1.8,27.8,25,49.9,53.3,49.9c29.4,0,53.4-24,53.4-53.4S407,333,377.6,333z M125.1,165.1c-20.6,0-37.4-16.8-37.4-37.4
	s16.8-37.4,37.4-37.4s37.4,16.8,37.4,37.4S145.7,165.1,125.1,165.1z M377,138.6c20.6,0,37.4,16.8,37.4,37.4
	c0,20.6-16.8,37.4-37.4,37.4c-10.5,0-19.9-4.3-26.7-11.2c-0.3-0.3-0.6-0.6-0.9-0.9c-6.1-6.7-9.8-15.5-9.8-25.2
	C339.6,155.4,356.4,138.6,377,138.6z M125.1,381.8c-20.6,0-37.4-16.8-37.4-37.4s16.8-37.4,37.4-37.4c9.4,0,17.9,3.5,24.5,9.2
	c0.3,0.3,0.6,0.6,0.9,0.8c7.3,6.8,11.9,16.6,11.9,27.4C162.5,365,145.7,381.8,125.1,381.8z M377.6,423.8
	c-20.6,0-37.4-16.8-37.4-37.4S357,349,377.6,349s37.4,16.8,37.4,37.4S398.2,423.8,377.6,423.8z"></path>
<path d="M417.6,65.7c0-4.4,3.6-8,8-8h15.8V41.9c0-4.4,3.6-8,8-8s8,3.6,8,8v15.8h15.8c4.4,0,8,3.6,8,8s-3.6,8-8,8h-15.8v15.8
	c0,4.4-3.6,8-8,8s-8-3.6-8-8V73.7h-15.8C421.1,73.7,417.6,70.1,417.6,65.7z M226.8,452.5H211v-15.8c0-4.4-3.6-8-8-8s-8,3.6-8,8v15.8
	h-15.8c-4.4,0-8,3.6-8,8s3.6,8,8,8H195v15.8c0,4.4,3.6,8,8,8s8-3.6,8-8v-15.8h15.8c4.4,0,8-3.6,8-8S231.2,452.5,226.8,452.5z
	 M127.4,216.7h-43c-4.4,0-8,3.6-8,8c0,4.4,3.6,8,8,8h43c4.4,0,8-3.6,8-8C135.4,220.2,131.8,216.7,127.4,216.7z M105.9,246.7H32.1
	c-4.4,0-8,3.6-8,8s3.6,8,8,8h73.8c4.4,0,8-3.6,8-8S110.3,246.7,105.9,246.7z M497,437.5h-43c-4.4,0-8,3.6-8,8s3.6,8,8,8h43
	c4.4,0,8-3.6,8-8S501.4,437.5,497,437.5z M475.5,467.5h-73.8c-4.4,0-8,3.6-8,8s3.6,8,8,8h73.8c4.4,0,8-3.6,8-8
	S479.9,467.5,475.5,467.5z"></path>
<g>
	<path fill="#FFA4ED" class="primary-color" d="M189.4,41.4V19.6h142.8v21.8H189.4z"></path>
	<path fill="#DB81DA" class="secondary-color" d="M23,41.4V19.6h142.8v21.8H23z M29.2,481h60.9l-60.9-60.9V481z"></path>
</g>
</svg>