<svg version="1.1" id="Layer_1" xmlns="http://www.w3.org/2000/svg" xmlns:xlink="http://www.w3.org/1999/xlink" x="0px" y="0px" viewBox="0 0 512 512" enable-background="new 0 0 512 512" xml:space="preserve">
<g>
	<linearGradient id="SVGID_1_" gradientUnits="userSpaceOnUse" x1="194.11" y1="280.3785" x2="268.0708" y2="280.3785" class="gradient-element">
		<stop offset="0" class="primary-color-gradient" style="stop-color: #FFA4ED"></stop>
		<stop offset="1" class="secondary-color-gradient" style="stop-color: #DB81DA"></stop>
	</linearGradient>
	<path fill="url(#SVGID_1_)" d="M268.1,342h-74V218.7h74V342z"></path>
	<linearGradient id="SVGID_2_" gradientUnits="userSpaceOnUse" x1="23.7699" y1="253.7383" x2="495.8659" y2="253.7383">
		<stop offset="0" class="primary-color-gradient" style="stop-color: #FFA4ED"></stop>
		<stop offset="1" class="secondary-color-gradient" style="stop-color: #DB81DA"></stop>
	</linearGradient>
	<path fill="url(#SVGID_2_)" d="M279.9,416.9H71.8c-13.3,0-25.3-5.4-33.9-14.1c-9-8.9-14.4-21.5-14.1-35.3
		c0.7-25.7,26.6-24.1,52.3-24.1h296.6c28.8,0,52.1-23.3,52.1-52.1l-3.5-156.4c0-28.8,23.3-44.3,52.1-44.3h0
		c12.4,0,22.5,10.1,22.5,22.5v230.8c0,40.4-32.7,73.1-73.1,73.1H279.9z M272.9,399.9"></path>
</g>
<path d="M428.3,424H83.2c-38.4,0-69.6-31.2-69.6-69.6V95.5c0-4.4,3.6-8,8-8s8,3.6,8,8v258.9c0,29.6,24.1,53.6,53.6,53.6h345.2
	c29.6,0,53.6-24.1,53.6-53.6V103.5H78.8v250.9c0,4.4-3.6,8-8,8s-8-3.6-8-8V95.5c0-4.4,3.6-8,8-8H490c4.4,0,8,3.6,8,8v258.9
	C498,392.7,466.7,424,428.3,424z M268.1,350H120.1c-4.4,0-8-3.6-8-8V218.7c0-4.4,3.6-8,8-8h147.9c4.4,0,8,3.6,8,8V342
	C276.1,346.4,272.5,350,268.1,350z M128.1,334h131.9V226.7H128.1V334z M440.6,325.4H292.7c-4.4,0-8-3.6-8-8s3.6-8,8-8h147.9
	c4.4,0,8,3.6,8,8S445.1,325.4,440.6,325.4z M440.6,276.1H292.7c-4.4,0-8-3.6-8-8s3.6-8,8-8h147.9c4.4,0,8,3.6,8,8
	S445.1,276.1,440.6,276.1z M440.6,226.7H292.7c-4.4,0-8-3.6-8-8s3.6-8,8-8h147.9c4.4,0,8,3.6,8,8S445.1,226.7,440.6,226.7z
	 M440.6,177.4H120.1c-4.4,0-8-3.6-8-8s3.6-8,8-8h320.5c4.4,0,8,3.6,8,8S445.1,177.4,440.6,177.4z"></path>
<path d="M147.8,60.6H61c-4.4,0-8-3.6-8-8s3.6-8,8-8h86.8c4.4,0,8,3.6,8,8S152.2,60.6,147.8,60.6z M94.7,24.5c0-4.4-3.6-8-8-8H29.3
	c-4.4,0-8,3.6-8,8s3.6,8,8,8h57.4C91.1,32.5,94.7,28.9,94.7,24.5z M464.1,451.2c0-4.4-3.6-8-8-8h-59.2c-4.4,0-8,3.6-8,8s3.6,8,8,8
	h59.2C460.5,459.2,464.1,455.7,464.1,451.2z M62.6,471.2c0-14.6-11.8-26.4-26.4-26.4c-4.4,0-8,3.6-8,8s3.6,8,8,8
	c5.7,0,10.4,4.7,10.4,10.4c0,5.7-4.7,10.4-10.4,10.4c-4.4,0-8,3.6-8,8s3.6,8,8,8C50.7,497.6,62.6,485.8,62.6,471.2z"></path>
<path fill="#DB81DA" class="secondary-color" d="M335.8,49.4V27.7h145.9v21.8H335.8z"></path>
</svg>