<svg version="1.1" id="Layer_1" xmlns="http://www.w3.org/2000/svg" xmlns:xlink="http://www.w3.org/1999/xlink" x="0px" y="0px" viewBox="0 0 512 512" enable-background="new 0 0 512 512" xml:space="preserve">
<linearGradient id="SVGID_1_" gradientUnits="userSpaceOnUse" x1="242.1115" y1="411.4071" x2="242.1115" y2="88.7977" class="gradient-element">
	<stop offset="0" class="primary-color-gradient" style="stop-color: #FFA4ED"></stop>
	<stop offset="1" class="secondary-color-gradient" style="stop-color: #DB81DA"></stop>
</linearGradient>
<path fill="url(#SVGID_1_)" d="M237.1,365.3l98.5-95c4.1-3.9,4.1-10.4,0.1-14.4L204.2,124.3c-2.5-2.6-2.4-18.6-2.4-47.3v0l0.9,0.9
	L378,253.3c1.5,1.5,1.5,3.9,0,5.4c-22.3,22.3-176.1,176.1-176.2,176.3l0-1.6v-70.3c0-3.9,5.2-5.3,7.1-1.9l0,0
	C214.7,371.4,228.6,373.4,237.1,365.3z M251,254L116.3,116.4l-7,7c-5.5,5.5-5.6,14.5-0.1,20c0,0,0.1,0.1,0.1,0.1l109.6,112.4
	c3,3,3,8-0.1,10.9l-74.9,72.3c-2.7,2.6-6.1,3.9-9.5,3.9c-4.7,0-9.4-2.4-12-6.9c-1.5-2.6-5.4-1.5-5.4,1.4v53.5l0,1.2
	C117.1,392,234.1,275,251,258C252.1,256.9,252.1,255.1,251,254z"></path>
<path d="M377.8,270.2l-4.4,4.4c-40.6,40.6-163.9,163.9-166,166c-1.5,1.6-3.6,2.4-5.7,2.4c-1,0-1.9-0.2-2.8-0.5
	c-3.1-1.2-5.1-4.1-5.2-7.4l0-1.6c0,0,0-0.1,0-0.1v-84.7c0-4.4,3.6-8,8-8s8,3.6,8,8v67c17.8-17.8,58.7-58.7,152.4-152.4l4.4-4.4
	c1.6-1.6,1.6-4.2,0-5.7L209.7,96.4V160l82.3,82.3c7.6,7.6,7.6,19.9,0,27.5l-63,63c-3.1,3.1-8.2,3.1-11.3,0c-3.1-3.1-3.1-8.2,0-11.3
	l63-63c0.9-0.9,1-1.9,1-2.4c0-0.5-0.1-1.5-1-2.4L196.1,169c-1.5-1.5-2.3-3.5-2.3-5.7V77.1c0-3.2,1.9-6.1,4.9-7.4
	c3-1.2,6.4-0.6,8.7,1.7l0.9,0.9l169.5,169.5C385.6,249.6,385.6,262.4,377.8,270.2z M253.6,242L127.8,116.3c-3.1-3.1-8.2-3.1-11.3,0
	c-3.1,3.1-3.1,8.2,0,11.3l125.8,125.8c0.9,1,1.1,2.1,1.1,2.6c0,0.6-0.1,1.7-1.1,2.6l-124,124v-45.5c0-4.4-3.6-8-8-8s-8,3.6-8,8v64.8
	c0,3.2,1.9,6.2,4.9,7.4c1,0.4,2,0.6,3.1,0.6c2.1,0,4.1-0.8,5.7-2.3l137.6-137.6C261.3,262.3,261.3,249.7,253.6,242z M117.9,316
	c2,0,4.1-0.8,5.7-2.3l42.9-42.9c8.2-8.2,8.2-21.5,0-29.6l-38.3-38.3c-3.1-3.1-8.2-3.1-11.3,0c-3.1,3.1-3.1,8.2,0,11.3l38.3,38.3
	c0.9,0.9,1.5,2.2,1.5,3.5c0,1.3-0.5,2.6-1.5,3.5l-42.9,42.9c-3.1,3.1-3.1,8.2,0,11.3C113.8,315.3,115.9,316,117.9,316z"></path>
<g>
	<path fill="#FFA4ED" class="primary-color" d="M138.2,448v43.6H94.6V448H138.2z"></path>
	<path fill="#DB81DA" class="secondary-color" d="M475.7,256v121.9H353.9L475.7,256z M24.6,491.5h43.6V448H24.6V491.5z"></path>
</g>
<path d="M489.3,428.1c0,4.4-3.6,8-8,8H315.6c-4.4,0-8-3.6-8-8s3.6-8,8-8h165.6C485.7,420.1,489.3,423.7,489.3,428.1z M411,457.4
	H295.3c-4.4,0-8,3.6-8,8s3.6,8,8,8H411c4.4,0,8-3.6,8-8S415.4,457.4,411,457.4z M363.7,85.9c20.3,0,36.8-16.5,36.8-36.8
	c0-4.4-3.6-8-8-8s-8,3.6-8,8c0,11.4-9.3,20.7-20.8,20.7c-4.4,0-8,3.6-8,8S359.3,85.9,363.7,85.9z M442.5,85.9c4.4,0,8-3.6,8-8
	s-3.6-8-8-8c-11.4,0-20.8-9.3-20.8-20.8c0-4.4-3.6-8-8-8s-8,3.6-8,8C405.7,69.4,422.2,85.9,442.5,85.9z M413.7,135.9
	c4.4,0,8-3.6,8-8c0-11.4,9.3-20.8,20.8-20.8c4.4,0,8-3.6,8-8s-3.6-8-8-8c-20.3,0-36.8,16.5-36.8,36.8
	C405.7,132.3,409.3,135.9,413.7,135.9z M363.7,107.2c11.4,0,20.8,9.3,20.8,20.8c0,4.4,3.6,8,8,8s8-3.6,8-8
	c0-20.3-16.5-36.8-36.8-36.8c-4.4,0-8,3.6-8,8S359.3,107.2,363.7,107.2z M38.4,149c0-5,4.1-9,9-9s9,4.1,9,9s-4.1,9-9,9
	S38.4,153.9,38.4,149z M38.4,119c0-5,4.1-9,9-9s9,4.1,9,9s-4.1,9-9,9S38.4,123.9,38.4,119z M38.4,89c0-5,4.1-9,9-9s9,4.1,9,9
	s-4.1,9-9,9S38.4,93.9,38.4,89z M142.8,46.6c0,14.6-11.8,26.4-26.4,26.4S90,61.1,90,46.6s11.8-26.4,26.4-26.4S142.8,32,142.8,46.6z
	 M126.8,46.6c0-5.7-4.7-10.4-10.4-10.4S106,40.9,106,46.6c0,5.7,4.7,10.4,10.4,10.4S126.8,52.3,126.8,46.6z M41.3,266.4
	c-4.4,0-8,3.6-8,8s3.6,8,8,8c14.6,0,26.4-11.8,26.4-26.4s-11.8-26.4-26.4-26.4c-4.4,0-8,3.6-8,8s3.6,8,8,8c5.7,0,10.4,4.7,10.4,10.4
	S47,266.4,41.3,266.4z M72.8,332.2h-43c-4.4,0-8,3.6-8,8s3.6,8,8,8h43c4.4,0,8-3.6,8-8S77.2,332.2,72.8,332.2z"></path>
</svg>