<svg version="1.1" id="Layer_1" xmlns="http://www.w3.org/2000/svg" xmlns:xlink="http://www.w3.org/1999/xlink" x="0px" y="0px" viewBox="0 0 512 512" enable-background="new 0 0 512 512" xml:space="preserve">
<linearGradient id="SVGID_1_" gradientUnits="userSpaceOnUse" x1="278.1591" y1="411.2307" x2="278.1591" y2="85.4069" class="gradient-element">
	<stop offset="0" class="primary-color-gradient" style="stop-color: #FFA4ED"></stop>
	<stop offset="1" class="secondary-color-gradient" style="stop-color: #DB81DA"></stop>
</linearGradient>
<path fill="url(#SVGID_1_)" d="M176.8,310.1c0.4,3,2.5,6.7,6.4,6.2c22.7-2.7,43.1,2.7,55.3,18.8c10.4,13.7,9.1,27,5.4,35
	c-10.6,23.2-47.1,43.6-86.9,18c-6.2-4-14.6,4.6-11.4,11l0.1,0.2c2,3.9,4.4,7.6,7.2,10.9c18.7,17.5,48.9,21.5,75.1,8
	c32.6-16.8,46.8-54.2,31.7-83.6C245.2,306.3,208.7,295.8,176.8,310.1z M411.3,181.4V90.6l-81.5-14.4c-8.6-1.5-16.5,5.1-16.5,13.8
	v83.7l84.2,18.9C404.6,194,411.3,188.7,411.3,181.4z"></path>
<path d="M194.7,431.9c-44.8,0-77.3-27.6-77.3-65.7s32.5-65.7,77.3-65.7c13.9,0,26.9,2.7,38.2,7.8V54.4c0-2.5,1.1-4.8,3.1-6.3
	c1.9-1.5,4.5-2,6.9-1.4l170.4,43.1c3.6,0.9,6,4.1,6,7.8v60.9c0,4.4-3.6,8-8,8s-8-3.6-8-8v-54.6L248.9,64.7v257.3
	c0,3-1.7,5.7-4.3,7.1c-2.7,1.4-5.9,1.1-8.3-0.6c-11-7.9-25.4-12.1-41.5-12.1c-35.5,0-61.3,20.9-61.3,49.7
	c0,28.8,25.8,49.7,61.3,49.7S256,395,256,366.2c0-4.4,3.6-8,8-8s8,3.6,8,8C272,404.3,239.5,431.9,194.7,431.9z M388.2,195
	c-0.7,0-1.3-0.1-2-0.3l-101.1-25.8c-3.5-0.9-6-4.1-6-7.8v-23.8c0-4.4,3.6-8,8-8s8,3.6,8,8V155l95.1,24.3c4.3,1.1,6.9,5.4,5.8,9.7
	C395,192.6,391.8,195,388.2,195z"></path>
<path fill="#DB81DA" class="secondary-color" d="M33.7,27.8l57.8,57.8l-57.8,57.8V27.8z"></path>
<path d="M359.7,357.8v-43c0-4.4,3.6-8,8-8s8,3.6,8,8v43c0,4.4-3.6,8-8,8S359.7,362.2,359.7,357.8z M345.7,323.5v-73.8
	c0-4.4-3.6-8-8-8s-8,3.6-8,8v73.8c0,4.4,3.6,8,8,8S345.7,327.9,345.7,323.5z M73.4,427.8H57.6V412c0-4.4-3.6-8-8-8s-8,3.6-8,8v15.8
	H25.8c-4.4,0-8,3.6-8,8s3.6,8,8,8h15.8v15.8c0,4.4,3.6,8,8,8s8-3.6,8-8v-15.8h15.8c4.4,0,8-3.6,8-8S77.8,427.8,73.4,427.8z
	 M467.7,55.1v-3.9h3.9c4.4,0,8-3.6,8-8s-3.6-8-8-8h-3.9v-3.9c0-4.4-3.6-8-8-8s-8,3.6-8,8v3.9h-3.9c-4.4,0-8,3.6-8,8s3.6,8,8,8h3.9
	v3.9c0,4.4,3.6,8,8,8S467.7,59.5,467.7,55.1z M55.4,253.3c5.9,0,10.8-4.8,10.8-10.8s-4.8-10.8-10.8-10.8c-5.9,0-10.8,4.8-10.8,10.8
	S49.5,253.3,55.4,253.3z M473.6,427.7c-5.9,0-10.8,4.8-10.8,10.8s4.8,10.8,10.8,10.8c5.9,0,10.8-4.8,10.8-10.8
	S479.5,427.7,473.6,427.7z M370.7,436.8c-3.1,3.1-3.1,8.2,0,11.3c4.1,4.1,4.1,10.6,0,14.7c-2,2-4.6,3-7.3,3c-2.8,0-5.4-1.1-7.3-3
	c-3.1-3.1-8.2-3.1-11.3,0c-3.1,3.1-3.1,8.2,0,11.3c5,5,11.6,7.7,18.7,7.7c7,0,13.7-2.7,18.7-7.7c10.3-10.3,10.3-27,0-37.3
	C378.8,433.6,373.8,433.6,370.7,436.8z M152.3,152.2c4.4,0,8-3.6,8-8s-3.6-8-8-8c-14.6,0-26.4,11.8-26.4,26.4s11.8,26.4,26.4,26.4
	c4.4,0,8-3.6,8-8s-3.6-8-8-8c-5.7,0-10.4-4.7-10.4-10.4S146.5,152.2,152.3,152.2z"></path>
</svg>