<svg version="1.1" id="Layer_1" xmlns="http://www.w3.org/2000/svg" xmlns:xlink="http://www.w3.org/1999/xlink" x="0px" y="0px" viewBox="0 0 512 512" enable-background="new 0 0 512 512" xml:space="preserve">
<linearGradient id="SVGID_1_" gradientUnits="userSpaceOnUse" x1="240.8862" y1="501.2999" x2="240.8862" y2="33.9651" class="gradient-element">
	<stop offset="0" class="primary-color-gradient" style="stop-color: #FFA4ED"></stop>
	<stop offset="1" class="secondary-color-gradient" style="stop-color: #DB81DA"></stop>
</linearGradient>
<path fill="url(#SVGID_1_)" d="M314.4,150.1c3.8-38.4,33.5-68.2,69.5-68.2h29.3V468H68.5v2.8c0-46.8,34.6-84.8,77.3-84.8h120.7
	c49.8,0,47.5-78.6,47.5-226.6v-0.8C314,155.7,314.1,152.9,314.4,150.1z"></path>
<path d="M411.1,190.2c4.4,0,8-3.6,8-8V78.3c0-4.4-3.6-8-8-8H70.7c-4.4,0-8,3.6-8,8v31.9c-14.4,3.6-25.1,16.6-25.1,32.1
	c0,3.2,2.6,5.8,5.8,5.8s5.8-2.6,5.8-5.8c0-9,5.6-16.7,13.4-19.9v28c-14.4,3.6-25.1,16.6-25.1,32.1c0,3.2,2.6,5.8,5.8,5.8
	s5.8-2.6,5.8-5.8c0-9,5.6-16.7,13.4-19.9v28c-14.4,3.6-25.1,16.6-25.1,32.1c0,3.2,2.6,5.8,5.8,5.8s5.8-2.6,5.8-5.8
	c0-9,5.6-16.7,13.4-19.9v28c-14.4,3.6-25.1,16.6-25.1,32.1c0,3.2,2.6,5.8,5.8,5.8s5.8-2.6,5.8-5.8c0-9,5.6-16.7,13.4-19.9v28
	c-14.4,3.6-25.1,16.6-25.1,32.1c0,3.2,2.6,5.8,5.8,5.8s5.8-2.6,5.8-5.8c0-9,5.6-16.7,13.4-19.9v28c-14.4,3.6-25.1,16.6-25.1,32.1
	c0,3.2,2.6,5.8,5.8,5.8s5.8-2.6,5.8-5.8c0-9,5.6-16.7,13.4-19.9v28c-14.4,3.6-25.1,16.6-25.1,32.1c0,3.2,2.6,5.8,5.8,5.8
	s5.8-2.6,5.8-5.8c0-9,5.6-16.7,13.4-19.9v28C48.3,395,37.6,408,37.6,423.5c0,0,0,0,0,0.1c0,0,0,0.1,0,0.1
	c0,15.5,10.7,28.5,25.1,32.1v8.3c0,4.4,3.6,8,8,8h340.4c4.4,0,8-3.6,8-8V215.8c0-4.4-3.6-8-8-8s-8,3.6-8,8v240.3h-48.4V86.3h48.4
	v95.9C403.1,186.6,406.7,190.2,411.1,190.2z M49.2,423.7c0-9,5.6-16.7,13.4-19.9v39.8C54.8,440.4,49.2,432.7,49.2,423.7z
	 M122.3,456.1H78.7v-52.4c7.9,3.2,13.4,10.9,13.4,19.9c0,3.2,2.6,5.8,5.8,5.8s5.8-2.6,5.8-5.8c0-15.5-10.7-28.5-25.1-32.1v-28
	c7.9,3.2,13.4,10.9,13.4,19.9c0,3.2,2.6,5.8,5.8,5.8s5.8-2.6,5.8-5.8c0-15.5-10.7-28.5-25.1-32.1v-28c7.9,3.2,13.4,10.9,13.4,19.9
	c0,3.2,2.6,5.8,5.8,5.8s5.8-2.6,5.8-5.8c0-15.5-10.7-28.5-25.1-32.1v-28c7.9,3.2,13.4,10.9,13.4,19.9c0,3.2,2.6,5.8,5.8,5.8
	s5.8-2.6,5.8-5.8c0-15.5-10.7-28.5-25.1-32.1v-28c7.9,3.2,13.4,10.9,13.4,19.9c0,3.2,2.6,5.8,5.8,5.8s5.8-2.6,5.8-5.8
	c0-15.5-10.7-28.5-25.1-32.1v-28c7.9,3.2,13.4,10.9,13.4,19.9c0,3.2,2.6,5.8,5.8,5.8s5.8-2.6,5.8-5.8c0-15.5-10.7-28.5-25.1-32.1
	v-28c7.9,3.2,13.4,10.9,13.4,19.9c0,3.2,2.6,5.8,5.8,5.8s5.8-2.6,5.8-5.8c0-15.5-10.7-28.5-25.1-32.1v-28
	c7.9,3.2,13.4,10.9,13.4,19.9c0,3.2,2.6,5.8,5.8,5.8s5.8-2.6,5.8-5.8c0-15.5-10.7-28.5-25.1-32.1V86.3h43.6V456.1z M338.6,456.1
	H138.3V86.3h200.3V456.1z"></path>
<path fill="#FFA4ED" class="primary-color" d="M419.3,28.7h27.4v27.4h-27.4V28.7z M488,56.1V28.7h-27.4v27.4H488z M488,98.3V70.8h-27.4v27.4H488z"></path>
<path d="M438.6,190.2h-55c-4.4,0-8-3.6-8-8s3.6-8,8-8h55c4.4,0,8,3.6,8,8S443,190.2,438.6,190.2z M492,207.8H399c-4.4,0-8,3.6-8,8
	s3.6,8,8,8H492c4.4,0,8-3.6,8-8S496.4,207.8,492,207.8z M481.9,158.5c4.2-4.2,4.2-11,0-15.2c-4.2-4.2-11-4.2-15.2,0s-4.2,11,0,15.2
	C470.9,162.7,477.7,162.7,481.9,158.5z M482.8,307.9h-3.9V304c0-4.4-3.6-8-8-8s-8,3.6-8,8v3.9H459c-4.4,0-8,3.6-8,8s3.6,8,8,8h3.9
	v3.9c0,4.4,3.6,8,8,8s8-3.6,8-8v-3.9h3.9c4.4,0,8-3.6,8-8S487.2,307.9,482.8,307.9z"></path>
</svg>