<svg version="1.1" id="Layer_1" xmlns="http://www.w3.org/2000/svg" xmlns:xlink="http://www.w3.org/1999/xlink" x="0px" y="0px" viewBox="0 0 512 512" enable-background="new 0 0 512 512" xml:space="preserve">
<linearGradient id="SVGID_1_" gradientUnits="userSpaceOnUse" x1="261.2847" y1="395.2426" x2="261.2847" y2="110.7423" class="gradient-element">
	<stop offset="0" class="primary-color-gradient" style="stop-color: #FFA4ED"></stop>
	<stop offset="1" class="secondary-color-gradient" style="stop-color: #DB81DA"></stop>
</linearGradient>
<path fill="url(#SVGID_1_)" d="M387.6,228.9v130.3c0,27.9-22.6,50.5-50.5,50.5H126.9c0,0-27.4-19.8-23.1-29.3
	c10.6-23.6,32.8-39.8,58.4-39.8h101.7c40.1,0,40.1,0,40.1-154c0-3.6,4.4-5.2,6.7-2.5c14.2,16.5,35.2,26.9,58.6,26.9
	c0.1,0,0.1,0,0.2,0C379.5,211.1,387.6,218.9,387.6,228.9z M372,86.6c-5.6,0-11,1-16,2.8c18.2,6.6,31.2,24,31.2,44.4
	c0,20.4-13.1,37.8-31.2,44.4c5,1.8,10.4,2.8,16,2.8c25.9,0,47.2-21.2,47.2-47.2C419.2,107.9,398,86.6,372,86.6z"></path>
<path d="M395.6,222.7v139.4c0,30.2-24.5,54.7-54.7,54.7h-197c-4.4,0-8-3.6-8-8s3.6-8,8-8h197c21.3,0,38.7-17.4,38.7-38.7V222.7
	c0-4.4,3.6-8,8-8S395.6,218.2,395.6,222.7z M433.2,133.8c0,35.2-28.6,63.9-63.9,63.9s-63.9-28.6-63.9-63.9c0-2.5,0.2-5,0.4-7.4h-162
	c-21.3,0-38.7,17.4-38.7,38.7v197c0,4.4-3.6,8-8,8s-8-3.6-8-8v-197c0-30.2,24.5-54.7,54.7-54.7h166c9.4-23.7,32.4-40.4,59.4-40.4
	C404.6,69.9,433.2,98.6,433.2,133.8z M417.2,133.8c0-26.4-21.5-47.9-47.9-47.9c-26.4,0-47.9,21.5-47.9,47.9s21.5,47.9,47.9,47.9
	C395.8,181.7,417.2,160.2,417.2,133.8z"></path>
<g>
	<path fill="#FFA4ED" class="primary-color" d="M174.9,61.4H30.7V27.7h144.2V61.4z"></path>
	<path fill="#DB81DA" class="secondary-color" d="M228.2,61.4H195V28.1h33.3V61.4z M484.7,371.4L426.9,487h57.8V371.4z"></path>
</g>
<path d="M35.8,129.1c-5.9,0-10.8-4.8-10.8-10.8s4.8-10.8,10.8-10.8c5.9,0,10.8,4.8,10.8,10.8S41.7,129.1,35.8,129.1z M483.6,294.7
	h-15.8v-15.8c0-4.4-3.6-8-8-8s-8,3.6-8,8v15.8h-15.8c-4.4,0-8,3.6-8,8s3.6,8,8,8h15.8v15.8c0,4.4,3.6,8,8,8s8-3.6,8-8v-15.8h15.8
	c4.4,0,8-3.6,8-8S488.1,294.7,483.6,294.7z M76.8,371.2c-4.4,0-8,3.6-8,8c0,11.4-9.3,20.8-20.7,20.8c-4.4,0-8,3.6-8,8s3.6,8,8,8
	c20.3,0,36.7-16.5,36.7-36.8C84.8,374.7,81.2,371.2,76.8,371.2z M126.8,399.9c-11.4,0-20.8-9.3-20.8-20.8c0-4.4-3.6-8-8-8
	s-8,3.6-8,8c0,20.3,16.5,36.8,36.8,36.8c4.4,0,8-3.6,8-8S131.2,399.9,126.8,399.9z M126.8,421.2c-20.3,0-36.8,16.5-36.8,36.8
	c0,4.4,3.6,8,8,8s8-3.6,8-8c0-11.4,9.3-20.8,20.8-20.8c4.4,0,8-3.6,8-8S131.2,421.2,126.8,421.2z M48,421.2c-4.4,0-8,3.6-8,8
	s3.6,8,8,8c11.4,0,20.7,9.3,20.7,20.8c0,4.4,3.6,8,8,8s8-3.6,8-8C84.8,437.6,68.3,421.2,48,421.2z M455,63.1h3.9V67c0,4.4,3.6,8,8,8
	s8-3.6,8-8v-3.9h3.9c4.4,0,8-3.6,8-8s-3.6-8-8-8h-3.9v-3.9c0-4.4-3.6-8-8-8s-8,3.6-8,8v3.9H455c-4.4,0-8,3.6-8,8
	S450.6,63.1,455,63.1z M387.6,461.7h-190c-4.4,0-8,3.6-8,8s3.6,8,8,8h190c4.4,0,8-3.6,8-8S392.1,461.7,387.6,461.7z"></path>
</svg>