<svg version="1.1" id="Layer_1" xmlns="http://www.w3.org/2000/svg" xmlns:xlink="http://www.w3.org/1999/xlink" x="0px" y="0px" viewBox="0 0 512 512" enable-background="new 0 0 512 512" xml:space="preserve">
<linearGradient id="SVGID_1_" gradientUnits="userSpaceOnUse" x1="285.2303" y1="422.9157" x2="285.2303" y2="80.8801" class="gradient-element">
	<stop offset="0" class="primary-color-gradient" style="stop-color: #FFA4ED"></stop>
	<stop offset="1" class="secondary-color-gradient" style="stop-color: #DB81DA"></stop>
</linearGradient>
<path fill="url(#SVGID_1_)" d="M442.3,256.3c0,99.4-80.6,179.9-179.9,179.9c-95.9,0-174.3-75.1-179.7-169.7
	c8.6-2.9,21.3-2.3,25.5,7.8c24,58,66.5,100.6,126.3,110c50.9,8,103.3-27.9,119.8-46.7c47.4-54.4,43.1-164.9-89.8-215.4
	c-20.3-7.7-7.9-40.9,13.8-41h0.7c13.3,0,26.3,1.3,38.8,3.8C390,108.4,442.3,176.2,442.3,256.3z M444.8,77.5l-39.5,33.2h47.8
	l34.7-33.2H444.8z"></path>
<path d="M74.3,51.5c0-14.6-11.8-26.4-26.4-26.4S21.5,37,21.5,51.5s11.8,26.4,26.4,26.4S74.3,66.1,74.3,51.5z M47.9,61.9
	c-5.7,0-10.4-4.7-10.4-10.4s4.7-10.4,10.4-10.4s10.4,4.7,10.4,10.4S53.7,61.9,47.9,61.9z M479.1,446.6c0,4.4-3.6,8-8,8h-55.8
	c-4.4,0-8-3.6-8-8s3.6-8,8-8h55.8C475.5,438.6,479.1,442.2,479.1,446.6z M89.2,462.1c0,4.4-3.6,8-8,8h-3.9v3.9c0,4.4-3.6,8-8,8
	s-8-3.6-8-8v-3.9h-3.9c-4.4,0-8-3.6-8-8s3.6-8,8-8h3.9v-3.9c0-4.4,3.6-8,8-8s8,3.6,8,8v3.9h3.9C85.7,454.1,89.2,457.7,89.2,462.1z
	 M424.9,477.5c0,4.4-3.6,8-8,8H272c-4.4,0-8-3.6-8-8s3.6-8,8-8h144.9C421.4,469.5,424.9,473.1,424.9,477.5z"></path>
<path d="M491.3,67.3h-39.6V27.7c0-2.5-1.1-4.6-2.8-6.1c-0.3-0.4-0.6-0.8-1-1.2c-3.1-3.1-8.2-3.1-11.3,0L400,57.3
	c-2.6,1.3-4.4,4-4.4,7.1v44.9l-7.6,7.9c-33.4-29.7-77.4-47.7-125.5-47.7c-104.4,0-189.2,84.9-189.2,189.2
	c0,104.4,84.9,189.2,189.2,189.2c104.4,0,189.2-84.9,189.2-189.2c0-50.5-19.9-96.4-52.2-130.4l8-8.3h43.6c1.8,0,3.4-0.6,4.8-1.6
	c1.4-0.3,2.8-1,3.9-2.2l11.3-11.5c3.1-3.1,3.1-8.2-0.1-11.3c-3.1-3.1-8.2-3.1-11.3,0.1L449.4,104h-37.8V68.4l24.2-24.3v31.2
	c0,4.4,3.6,8,8,8h47.6c4.4,0,8-3.6,8-8S495.7,67.3,491.3,67.3z M435.7,258.7c0,95.5-77.7,173.2-173.2,173.2
	C167,432,89.2,354.2,89.2,258.7S167,85.5,262.5,85.5c43.8,0,83.8,16.3,114.4,43.2l-34,35.2c-21.7-18.4-49.8-29.6-80.4-29.6
	c-68.6,0-124.4,55.8-124.4,124.4s55.8,124.4,124.4,124.4s124.4-55.8,124.4-124.4c0-32.2-12.3-61.6-32.5-83.7l34-35.2
	C417.7,170.9,435.7,212.7,435.7,258.7z M311,258.7c0,26.8-21.8,48.5-48.5,48.5s-48.5-21.8-48.5-48.5s21.8-48.5,48.5-48.5
	c10.2,0,19.7,3.2,27.5,8.6l-33.2,34.4c-3.1,3.2-3,8.2,0.2,11.3c1.6,1.5,3.6,2.2,5.6,2.2c2.1,0,4.2-0.8,5.8-2.4l33.2-34.4
	C307.5,237.9,311,247.9,311,258.7z M301.2,207.1c-10.8-8.1-24.2-12.9-38.7-12.9c-35.6,0-64.5,29-64.5,64.5s29,64.5,64.5,64.5
	c35.6,0,64.5-29,64.5-64.5c0-15.3-5.4-29.4-14.3-40.5l30.6-31.7c17.2,19.2,27.6,44.5,27.6,72.2c0,59.8-48.6,108.4-108.4,108.4
	c-59.8,0-108.4-48.6-108.4-108.4c0-59.8,48.6-108.4,108.4-108.4c26.3,0,50.5,9.4,69.3,25.1L301.2,207.1z"></path>
</svg>