<svg version="1.1" id="Layer_1" xmlns="http://www.w3.org/2000/svg" xmlns:xlink="http://www.w3.org/1999/xlink" x="0px" y="0px" viewBox="0 0 512 512" enable-background="new 0 0 512 512" xml:space="preserve">
<g>
	<linearGradient id="SVGID_1_" gradientUnits="userSpaceOnUse" x1="265.305" y1="434.7453" x2="265.305" y2="147.5913" class="gradient-element">
		<stop offset="0" class="primary-color-gradient" style="stop-color: #FFA4ED"></stop>
		<stop offset="1" class="secondary-color-gradient" style="stop-color: #DB81DA"></stop>
	</linearGradient>
	<path fill="url(#SVGID_1_)" d="M451.9,292.3V420H78.7v-5.9c0-37.9,30.8-36.4,68.7-36.4h59c15.6,14,36.3,22.6,58.9,22.6
		c30.6,0,57.6-15.6,73.4-39.3h-68.1c3.6-5.6,5.7-12.4,5.7-19.6v-0.1h72.1c3.3-9.2,5.2-19.1,5.2-29.5c0-45-33.7-82.2-77.3-87.7v-21.7
		c0-21,17-37.9,37.9-37.9h0.6c27.2,0,32.2,18.9,34.4,26.9l5.4,20.1c12.7,5.9,50.9,23.3,62.3,28.3C430.9,246,451.9,255.2,451.9,292.3
		z"></path>
	<linearGradient id="SVGID_2_" gradientUnits="userSpaceOnUse" x1="293.0471" y1="256.4878" x2="293.0471" y2="367.4561">
		<stop offset="0" class="primary-color-gradient" style="stop-color: #FFA4ED"></stop>
		<stop offset="1" class="secondary-color-gradient" style="stop-color: #DB81DA"></stop>
	</linearGradient>
	<path fill="url(#SVGID_2_)" d="M265.3,256.5c30.6,0,55.5,24.9,55.5,55.5s-24.9,55.5-55.5,55.5V256.5z"></path>
</g>
<path d="M348.5,349.4c-0.9,0-1.8-0.1-2.7-0.5c-4.2-1.5-6.3-6.1-4.9-10.2c3.1-8.8,4.7-17.8,4.7-26.8c0-44.3-36.1-80.4-80.4-80.4
	c-44.3,0-80.4,36.1-80.4,80.4c0,9,1.6,18,4.7,26.8c1.5,4.2-0.7,8.7-4.9,10.2c-4.2,1.5-8.7-0.7-10.2-4.9c-3.7-10.5-5.6-21.3-5.6-32.1
	c0-53.1,43.2-96.4,96.4-96.4c53.1,0,96.4,43.2,96.4,96.4c0,10.8-1.9,21.6-5.6,32.1C354.9,347.4,351.8,349.4,348.5,349.4z
	 M187.4,354.4c-3.7,2.5-4.6,7.4-2.2,11.1c18,26.8,47.9,42.8,80.1,42.8c32.2,0,62.1-16,80.1-42.8c2.5-3.7,1.5-8.6-2.2-11.1
	c-3.7-2.5-8.6-1.5-11.1,2.2c-15,22.4-40,35.7-66.8,35.7c-26.8,0-51.8-13.4-66.8-35.7C196.1,352.9,191.1,352,187.4,354.4z
	 M265.3,359.5c-4.4,0-8,3.6-8,8s3.6,8,8,8c35,0,63.5-28.5,63.5-63.5c0-35-28.5-63.5-63.5-63.5c-35,0-63.5,28.5-63.5,63.5
	c0,4.4,3.6,8,8,8s8-3.6,8-8c0-26.2,21.3-47.5,47.5-47.5s47.5,21.3,47.5,47.5S291.5,359.5,265.3,359.5z M480,193.2
	c-2.6,13.4-9.9,23.6-21.2,29.5c-15.6,8.1-36.1,7-52,3.9c5.7,2.6,10.5,4.7,13.4,6c13.8,6,39.6,17.3,39.6,59.7V420c0,4.4-3.6,8-8,8
	H78.7c-4.4,0-8-3.6-8-8v-58.9c0-4.4,3.6-8,8-8s8,3.6,8,8V412h357.2V292.3c0-31.9-16.6-39.2-30-45c-11.6-5-50.7-23-62.4-28.4
	c-2.2-1-3.8-2.9-4.4-5.2l-5.4-20.1c-2.7-10.2-7.2-21-26.7-21h-99.4c-21,0-24,11.2-26.7,21l-6.4,23.8c0,0.1-0.1,0.2-0.1,0.3
	c-0.3,1-0.8,2-1.5,2.8c-0.7,0.8-1.6,1.6-2.6,2.1c-0.1,0-0.1,0.1-0.2,0.1c-2.6,1.2-12,4.9-27.2,10.9c-12.9,5.1-27.6,10.8-32.4,12.9
	c-13.5,5.9-31.9,13.9-31.9,45.8v45.1c0,4.4-3.6,8-8,8s-8-3.6-8-8v-45.1c0-42.4,27-54.1,41.5-60.5c0.8-0.4,1.9-0.8,3.2-1.4
	c-4.8,0.7-9.9,1.1-14.9,1.1c-9.6,0-19.4-1.5-27.7-5.7c-11.5-5.7-19-15.8-21.8-29.1c-5.2-25,1.7-51,20-75.3c0.1-0.1,0.2-0.3,0.3-0.4
	c18-21,55.9-33.6,84.5-40.5c33.7-8.1,73.3-12.9,108.5-13.1c57-0.7,160.1,12.4,193.9,50.4c0.1,0.1,0.2,0.2,0.3,0.4
	C477.3,142.3,484.8,168.2,480,193.2z M368.3,209.1c-7-10-6.9-23.8-6.7-35.6c0-2.3,0.1-4.6,0-6.9c-0.2-16.1-32.7-23.9-96.6-23.4
	c-23.8,0.2-96.3,0.9-96.1,24.7c0,2.2,0.1,4.6,0.2,6.8c0.4,12.5,0.8,27.1-7.2,37.4c2.5-1,4.6-1.9,6.3-2.5l5.4-20.1
	c2.6-9.8,8.8-32.8,42.1-32.8H315c33.3,0,39.9,24.7,42.1,32.8l4.4,16.5C363.5,206.9,365.7,207.9,368.3,209.1z M446,128.4
	c-12.2-13.6-39.4-25.7-76.6-34c-32.4-7.3-71.7-11.3-105.1-10.9c-69,0.5-155.4,18.5-180.8,47.9c-10.7,14.3-22.3,36.6-17,62.1
	c1.8,8.6,6.2,14.5,13.3,18.1c19.2,9.5,53-0.5,60.9-4.2c0.3-0.1,0.6-0.3,0.9-0.4c11.1-3.6,12-12.4,11.4-31.7
	c-0.1-2.3-0.2-4.8-0.2-7.2c-0.2-17.5,14-29.3,42.2-35.3c21-4.5,47-5.3,69.7-5.5c21.1-0.2,48.2,0.1,69.9,4.5
	c28.3,5.6,42.7,17.3,42.9,34.8c0,2.4,0,4.9,0,7.2c-0.2,19.2,0.8,28,12,31.4c0.3,0.1,0.6,0.2,0.9,0.3c7.9,3.6,42,13,61,3.1
	c7-3.7,11.3-9.7,12.9-18.3C469.2,164.6,457.1,142.5,446,128.4z"></path>
<path d="M456.7,452.4c0,4.4-3.6,8-8,8H308.4c-4.4,0-8-3.6-8-8s3.6-8,8-8h140.3C453.1,444.4,456.7,448,456.7,452.4z M88.4,463.8h-1.7
	v-1.7c0-4.4-3.6-8-8-8s-8,3.6-8,8v1.7H69c-4.4,0-8,3.6-8,8s3.6,8,8,8h1.7v1.7c0,4.4,3.6,8,8,8s8-3.6,8-8v-1.7h1.7c4.4,0,8-3.6,8-8
	S92.8,463.8,88.4,463.8z M497.4,34h-15.8V18.2c0-4.4-3.6-8-8-8s-8,3.6-8,8V34h-15.8c-4.4,0-8,3.6-8,8s3.6,8,8,8h15.8v15.8
	c0,4.4,3.6,8,8,8s8-3.6,8-8V50h15.8c4.4,0,8-3.6,8-8S501.8,34,497.4,34z M487.6,315h-43c-4.4,0-8,3.6-8,8s3.6,8,8,8h43
	c4.4,0,8-3.6,8-8S492,315,487.6,315z M466.1,345h-73.8c-4.4,0-8,3.6-8,8s3.6,8,8,8h73.8c4.4,0,8-3.6,8-8S470.5,345,466.1,345z"></path>
<path fill="#DB81DA" class="secondary-color" d="M56.6,62.6H21.9V27.9h34.7V62.6z"></path>
</svg>