<svg version="1.1" id="Layer_1" xmlns="http://www.w3.org/2000/svg" xmlns:xlink="http://www.w3.org/1999/xlink" x="0px" y="0px" viewBox="0 0 512 512" enable-background="new 0 0 512 512" xml:space="preserve">
<linearGradient id="SVGID_1_" gradientUnits="userSpaceOnUse" x1="211.6572" y1="340.4791" x2="211.6572" y2="46.7203" class="gradient-element">
	<stop offset="0" class="primary-color-gradient" style="stop-color: #FFA4ED"></stop>
	<stop offset="1" class="secondary-color-gradient" style="stop-color: #DB81DA"></stop>
</linearGradient>
<path fill="url(#SVGID_1_)" d="M196.4,245.6c14.6-13.5,23.8-32.8,23.8-54.3v-80.8c0-51,25-79.6,64.9-47.7
	c35.6,28.5,58.7,72.1,59.4,121.1c0.4,21.8-3.8,42.6-11.5,61.6H196.4z M156.8,273c0-3.1,0.5-6.1,1.5-8.8c-3.9,0.6-7.9,1-11.9,1h-41.7
	c-24.7,0-35.3,31.2-15.8,46.4c19.5,15.2,42.7,25.9,68,30.7V273z"></path>
<path fill="#FFA4ED" class="primary-color" d="M358.3,221.8v-21.3h142.6v21.3H358.3z"></path>
<path d="M158.8,376.5c-0.6,3.9-4,6.7-7.9,6.7c-0.4,0-0.8,0-1.3-0.1c-29.1-4.6-57.2-16-81.4-32.9c-23.7-16.6-43.9-38.6-58.2-63.7
	c-2.2-3.8-0.9-8.7,3-10.9c3.8-2.2,8.7-0.9,10.9,3c27.4,47.8,74.1,80.2,128.2,88.8C156.5,368,159.5,372.1,158.8,376.5z M70.2,405.3
	c-4.4,0-8,3.6-8,8c0,11.1-9,20.1-20.1,20.1c-4.4,0-8,3.6-8,8s3.6,8,8,8c19.9,0,36.1-16.2,36.1-36.1
	C78.2,408.9,74.6,405.3,70.2,405.3z M119.1,433.5c-11.1,0-20.1-9-20.1-20.1c0-4.4-3.6-8-8-8s-8,3.6-8,8c0,19.9,16.2,36.1,36.1,36.1
	c4.4,0,8-3.6,8-8S123.5,433.5,119.1,433.5z M119.1,454.2c-19.9,0-36.1,16.2-36.1,36.1c0,4.4,3.6,8,8,8s8-3.6,8-8
	c0-11.1,9-20.1,20.1-20.1c4.4,0,8-3.6,8-8S123.5,454.2,119.1,454.2z M42.1,454.2c-4.4,0-8,3.6-8,8s3.6,8,8,8
	c11.1,0,20.1,9,20.1,20.1c0,4.4,3.6,8,8,8s8-3.6,8-8C78.2,470.4,62,454.2,42.1,454.2z M477.6,110.3h-56.1c-4.4,0-8,3.6-8,8
	s3.6,8,8,8h56.1c4.4,0,8-3.6,8-8S482,110.3,477.6,110.3z M429.9,134.9h-51.9c-12.8-45.4-41.5-84.5-81-110.6
	c-3.7-2.4-8.7-1.4-11.1,2.3s-1.4,8.7,2.3,11.1c37.3,24.6,64.1,62,75.4,105.2c0.6,2.3,2.1,4,4,5c1.5,1.8,3.7,2.9,6.2,2.9h56.1
	c4.4,0,8-3.6,8-8S434.3,134.9,429.9,134.9z M402.7,83.1c-4.4,0-8,3.6-8,8s3.6,8,8,8c10.8,0,20.5-5,26.8-12.9
	c6.3,7.9,16,12.9,26.8,12.9c4.4,0,8-3.6,8-8s-3.6-8-8-8c-10.1,0-18.3-8.2-18.3-18.3c0-10.1,8.2-18.3,18.3-18.3c4.4,0,8-3.6,8-8
	s-3.6-8-8-8c-10.8,0-20.5,5-26.8,12.9c-6.3-7.9-16-12.9-26.8-12.9c-4.4,0-8,3.6-8,8s3.6,8,8,8c10.1,0,18.3,8.2,18.3,18.3
	C421,74.9,412.8,83.1,402.7,83.1z"></path>
<linearGradient id="SVGID_2_" gradientUnits="userSpaceOnUse" x1="318.6171" y1="460.6094" x2="318.6171" y2="247.4125">
	<stop offset="0" class="primary-color-gradient" style="stop-color: #FFA4ED"></stop>
	<stop offset="1" class="secondary-color-gradient" style="stop-color: #DB81DA"></stop>
</linearGradient>
<path fill="url(#SVGID_2_)" d="M482.4,276.6V288h-52.3l-0.4-20.3c0-20.3,11-26.1,31.3-26.1c4.4,0,9.7,6.5,14,14.2
	C479.3,263.5,482.4,272.2,482.4,276.6z M432.2,394.7c0,20.3-16.5,36.8-36.8,36.8H185.9c-18.1,0-30.3-1.1-30.3,17
	c0,1.2-3.1,2.1,3.3,8.4c6.1,6.2,14.6,9.9,24,9.9h248c28.5,0,51.6-23.1,51.6-51.6v-87h-22.1c-16.1,0-29.1,13.2-28.8,29.4L432.2,394.7
	z"></path>
<path d="M331.5,389.5c4.4,0,8,3.6,8,8s-3.6,8-8,8h-40.6c-4.4,0-8-3.6-8-8s3.6-8,8-8H331.5z M358.8,389.5c-4.4,0-8,3.6-8,8s3.6,8,8,8
	h68.9c4.4,0,8-3.6,8-8s-3.6-8-8-8H358.8z M190,300.3v17.9h289.3c4.4,0,8,3.6,8,8s-3.6,8-8,8H182c-4.4,0-8-3.6-8-8v-33.9
	c0-4.4,3.6-8,8-8h289.3V277c0-14.6-11.9-26.4-26.4-26.4H186.7c0,0-0.1,0-0.1,0c-0.3,0-0.6,0-0.9,0c-0.1,0-0.2,0-0.4,0
	c-14,0.7-25.1,12.3-25.1,26.4v154.9c0,14.6,11.9,26.4,26.4,26.4h258.2c14.6,0,26.4-11.9,26.4-26.4v-69.4c0-4.4,3.6-8,8-8s8,3.6,8,8
	v69.4c0,23.4-19,42.4-42.4,42.4H186.7c-23.4,0-42.4-19-42.4-42.4v-84.3c-43.1-11.2-80.4-39.7-102.6-78.5c-2.2-3.8-0.9-8.7,3-10.9
	c1.9-1.1,4-1.3,5.9-0.8c0.6-0.2,1.3-0.2,1.9-0.2h52.2c-2.7-12-4.8-24.9-6-38.4c-0.8-8-1.2-16.1-1.4-24.2H36
	c0.7,13.4,3.2,26.6,7.4,39.3c1.4,4.2-0.9,8.7-5.1,10.1c-0.8,0.3-1.7,0.4-2.5,0.4c-3.4,0-6.5-2.1-7.6-5.5
	c-5.6-16.8-8.4-34.5-8.4-52.4c0-4.4,3.6-8,8-8c0.1,0,0.3,0,0.4,0c0.1,0,0.3,0,0.4,0h68.6c0.6-23.6,3.5-46.8,8.6-67.5H56
	c-9.1,15.6-15.2,32.5-18.2,50.2c-0.7,3.9-4,6.7-7.9,6.7c-0.4,0-0.9,0-1.3-0.1c-4.4-0.7-7.3-4.9-6.6-9.2c3.6-21,11-41,22.2-59.2
	c1-1.6,2.5-2.8,4.2-3.4c1.2-0.7,2.5-1,3.9-1h57.9c1.3-4.2,2.8-8.2,4.3-12.1C121,67,128.9,54,137.9,44c-19.2,6.5-37,16.8-52.4,30.6
	c-3.3,3-8.3,2.7-11.3-0.6c-3-3.3-2.7-8.3,0.6-11.3c30.6-27.5,70.1-42.7,111.3-42.7c91.8,0,166.4,74.6,166.4,166.4
	c0,16.8-2.3,32.9-6.8,48.1h99.2c23.4,0,42.4,19,42.4,42.4v15.2c0,4.4-3.6,8-8,8H190z M328.9,234.6c4.3-12.7,6.8-25.9,7.4-40.1h-61.7
	c-0.3,13.8-1.4,27.3-3.2,40.1H328.9z M255.2,234.6c2-13,3.1-26.5,3.5-40.1h-65v40.1H255.2z M193.7,95.1h50.9
	c-5.6-15.7-12.6-28.8-20.7-38.3C215,46.2,204.9,40,193.7,38.1V95.1z M193.7,111.1v67.5h65c-0.3-14.5-1.6-28.9-3.9-42.7
	c-1.4-8.7-3.2-17-5.2-24.8H193.7z M316.2,111.1h-50.1c5.2,21.3,8,44.5,8.5,67.5h61.7C335.1,154,327.9,131.1,316.2,111.1z
	 M233.9,43.9c0.7,0.8,1.5,1.6,2.2,2.5c10.9,12.9,19.3,29.7,25.5,48.7h43.9C287.4,71.6,262.6,53.5,233.9,43.9z M127.2,95.1h50.5v-57
	C153,42.6,138,67.6,129.5,88.9C128.7,90.9,127.9,93,127.2,95.1z M113.2,178.5h64.5v-67.5h-55.5C116.9,131.5,113.8,154.7,113.2,178.5
	z M137.8,329c-12.1-13.4-22-32.6-29-55.9H63.2C81.5,299.1,107.8,318.8,137.8,329z M144.4,273.1h-18.9c5,15.3,11.3,28.4,18.7,38.5
	V277C144.3,275.7,144.3,274.4,144.4,273.1z M177.7,235.5v-41h-64.5c0.2,7.6,0.6,15.2,1.3,22.7c1.3,14.2,3.5,27.6,6.5,39.9h28.2
	C155,246.3,165.4,238.2,177.7,235.5z"></path>
</svg>