<svg version="1.1" id="Layer_1" xmlns="http://www.w3.org/2000/svg" xmlns:xlink="http://www.w3.org/1999/xlink" x="0px" y="0px" viewBox="0 0 512 512" enable-background="new 0 0 512 512" xml:space="preserve">
<linearGradient id="SVGID_1_" gradientUnits="userSpaceOnUse" x1="255.9102" y1="428.7752" x2="255.9102" y2="116.3116" class="gradient-element">
	<stop offset="0" class="primary-color-gradient" style="stop-color: #FFA4ED"></stop>
	<stop offset="1" class="secondary-color-gradient" style="stop-color: #DB81DA"></stop>
</linearGradient>
<path fill="url(#SVGID_1_)" d="M425.8,392.9c-41.5-7.2-83.5-6.3-117.2,4.1l-50.5,25.5v-4.9h-6.9V416h-5.6
	c-44.7-26.9-97.8-34.7-159.5-23.1v-28.7c0-29.4,23.8-53.2,53.2-53.2H222c14.2,0,26.3,8.8,31.2,21.2h6.9v13.3
	c6.8-24.6,29.3-42.6,56.1-42.6h0c8.9,0,16.1-7.2,16.1-16.1V158.3c0-29.9,24.3-54.2,54.2-54.2h39.2V346L425.8,392.9z"></path>
<path d="M482.7,178.8H378.1c-4.4,0-8,3.6-8,8s3.6,8,8,8h39.6v188.6c-58.5-9.2-110-1-153.6,24.6V138.1
	c42.5-27.9,94.1-37.1,153.6-27.2v45.9c0,4.4,3.6,8,8,8c0.8,0,1.6-0.1,2.3-0.3c0.7,0.2,1.5,0.3,2.3,0.3h43c4.4,0,8-3.6,8-8
	s-3.6-8-8-8H469v-14.2c0-4.4-3.6-8-8-8s-8,3.6-8,8v14.2h-19.2v-44.6c0-3.9-2.7-7.2-6.5-7.9c-66.2-12.4-123.8-2.9-171.3,28.1
	c-47.5-31-105.1-40.5-171.3-28.1c-3.8,0.7-6.5,4-6.5,7.9v22.4H50.3c-4.4,0-8,3.6-8,8v287.8c0,4.4,3.6,8,8,8h203.6
	c0.6,0.1,1.2,0.2,1.7,0.2c0.1,0,0.2,0,0.3,0c0.1,0,0.2,0,0.3,0c0.6,0,1.2-0.1,1.7-0.2H461c4.4,0,8-3.6,8-8V194.8h13.8
	c4.4,0,8-3.6,8-8S487.2,178.8,482.7,178.8z M58.3,142.5H78V366c0,4.4,3.6,8,8,8s8-3.6,8-8V110.9c59.5-9.8,111.1-0.7,153.6,27.2V408
	c-45.9-26.9-100.7-34.7-163.1-23c-4.3,0.8-7.2,5-6.4,9.3c0.8,4.3,5,7.2,9.3,6.4c52.1-9.8,98.4-5.2,137.9,13.6H58.3V142.5z
	 M453,414.4H286.4c39.5-18.8,85.8-23.4,137.9-13.6c2.3,0.4,4.8-0.2,6.6-1.7c1.8-1.5,2.9-3.8,2.9-6.2V194.8H453V414.4z"></path>
<path fill="#FFA4ED" class="primary-color" d="M80.7,19.7L19.8,80.7V19.7H80.7z"></path>
<path d="M483.7,50.2c0,4.4-3.6,8-8,8h-15.8V74c0,4.4-3.6,8-8,8s-8-3.6-8-8V58.2h-15.8c-4.4,0-8-3.6-8-8s3.6-8,8-8h15.8V26.4
	c0-4.4,3.6-8,8-8s8,3.6,8,8v15.8h15.8C480.1,42.2,483.7,45.8,483.7,50.2z M30.6,462.1c-5.9,0-10.8,4.8-10.8,10.8s4.8,10.8,10.8,10.8
	s10.8-4.8,10.8-10.8S36.5,462.1,30.6,462.1z M228.4,26.7C213.9,26.7,202,38.5,202,53c0,4.4,3.6,8,8,8s8-3.6,8-8
	c0-5.7,4.7-10.4,10.4-10.4s10.4,4.7,10.4,10.4c0,4.4,3.6,8,8,8s8-3.6,8-8C254.8,38.5,243,26.7,228.4,26.7z"></path>
</svg>