<svg version="1.1" id="Layer_1" xmlns="http://www.w3.org/2000/svg" xmlns:xlink="http://www.w3.org/1999/xlink" x="0px" y="0px" viewBox="0 0 512 512" enable-background="new 0 0 512 512" xml:space="preserve">
<linearGradient id="SVGID_1_" gradientUnits="userSpaceOnUse" x1="301.5157" y1="429.1607" x2="296.9864" y2="242.3292" class="gradient-element">
	<stop offset="0" class="primary-color-gradient" style="stop-color: #FFA4ED"></stop>
	<stop offset="1" class="secondary-color-gradient" style="stop-color: #DB81DA"></stop>
</linearGradient>
<path fill="url(#SVGID_1_)" d="M370.8,312.3c0,33.9-7,52.7-12.7,67.8c-4.2,11.3-7.5,20.2-7.5,33.3v30.3H229.3h0l0,0
	c0,0,0-135.9,0-142.7s-0.2-12-1-19.3c0-0.1,0-0.1,0-0.2c-2.4-21.2,14.2-39.8,35.5-39.8c4.2,0,7.9,0,10.7,0c23.6,0,44.1,3.2,60,7
	c21.2,5,36.3,23.9,36.3,45.8V312.3z"></path>
<path d="M350.6,451.7H229.3c-4.4,0-8-3.6-8-8v-30.3c0-8-6-12.4-29.7-26.5c-6.8-4-14.4-8.6-22.7-13.9c-18.1-11.7-28.5-23.7-37.7-34.2
	c-13.7-15.6-24.4-28-59.2-39.7l-6.9-2.3c-3.3-1.1-5.4-4.1-5.4-7.6v-17.2c0-21.1,17.2-38.3,38.3-38.3c32.8,0,54.3,11.7,69.3,21.9
	c3.7,2.5,4.6,7.5,2.1,11.1c-2.5,3.7-7.5,4.6-11.1,2.1c-13.9-9.5-32-19.1-60.3-19.1c-12.3,0-22.3,10-22.3,22.3v11.5l1.4,0.5
	c38.9,13.1,52.1,28.2,66.1,44.3c8.6,9.8,18.2,20.8,34.4,31.4c8,5.2,15.5,9.7,22.2,13.6c23.4,13.9,37.5,22.3,37.5,40.3v22.3h105.3
	v-22.3c0-14.5,3.7-24.5,8-36c0.8-2.1,1.5-4,2.3-6c3.9-9.8,7.6-19.1,9.1-37c0.4-4.4,4.2-7.7,8.7-7.3c4.4,0.4,7.7,4.3,7.3,8.7
	c-1.8,20.2-6.2,31.5-10.2,41.5c-0.7,1.9-1.5,3.7-2.2,5.7c-4.1,11-7,18.9-7,30.5v30.3C358.6,448.1,355,451.7,350.6,451.7z
	 M188.9,331.4c-4.1,0-7.6-3.1-8-7.2c-0.2-2-19.5-203.9-20.1-210.1c-1-10.2,2-20.2,8.5-28.1c6.5-7.9,15.7-12.9,25.8-13.9
	c9.9-1,19.6,1.8,27.4,8c4.4-16.3,19.3-28.4,37-28.4c17.7,0,32.6,12,37,28.3c7.8-6.1,17.5-8.9,27.4-7.9c10.2,1,19.3,6,25.8,13.9
	c6.5,7.9,9.5,17.9,8.4,28.1l0,0.2c7.1-4,15.8-6.2,25.6-3.9c9,2.1,21.2,8.4,25.9,19.1c4.1,9.4,4.3,19.8,0.5,29.3
	c-0.8,2-5.6,18.2-10.2,33.8c-7.9,26.4-17.5,59-21.2,69.3v45.5c0,4.4-3.6,8-8,8s-8-3.6-8-8v-47c0-1,0.2-2,0.5-2.9
	c2.9-7.6,13.6-43.4,21.3-69.5c6.9-23.3,9.9-33.1,10.7-35.2c2.2-5.5,2.1-11.6-0.3-17.1c-1.8-4.1-8.2-8.4-14.8-9.9
	c-12.5-2.9-22.1,8.2-24.4,12.7l-1.8,18c0,0.1,0,0.1,0,0.2c0,0.1,0,0.1,0,0.2l-10.3,74.3c-0.6,4.4-4.6,7.4-9,6.8
	c-4.4-0.6-7.4-4.6-6.8-9l10.3-74.1c0.9-15.7,1-17.6,2.1-20.5l2.3-22.2c0.6-5.9-1.1-11.7-4.9-16.3c-3.8-4.6-9.1-7.5-15-8.1
	c-5.9-0.6-11.7,1.1-16.3,4.9c-4.6,3.8-7.5,9.1-8.1,15c0,0.1,0,0.3,0,0.5l0,0.1c0,0,0,0,0,0c-0.4,4.5-2.4,71.4-3.6,115.4
	c-0.1,4.4-3.8,7.9-8.2,7.8c-4.4-0.1-7.9-3.8-7.8-8.2c0.3-11.1,2.9-106.4,3.6-116.1V90c0-12.3-10-22.3-22.3-22.3
	c-12.3,0-22.3,10-22.3,22.3v18.3l10.1,111.9c0.4,4.4-2.8,8.3-7.3,8.7c-4.4,0.4-8.3-2.8-8.7-7.3l-10.2-112.7l-0.1-0.8
	c-0.6-5.9-3.5-11.3-8.1-15.1c-4.6-3.8-10.4-5.5-16.4-4.9c-5.9,0.6-11.3,3.5-15,8.1c-3.8,4.6-5.5,10.4-4.9,16.4
	c0.6,6.2,19.3,201.8,20.1,210.2c0.4,4.4-2.8,8.3-7.2,8.7C189.4,331.4,189.2,331.4,188.9,331.4z"></path>
<path fill="#DB81DA" class="secondary-color" d="M460,39.6h22.2v44.5H460V39.6z M460,165.3h22.2v-44.5H460V165.3z"></path>
<path d="M18.6,416.5c5,0,9-4,9-9c0-5-4-9-9-9c-5,0-9,4-9,9C9.6,412.4,13.7,416.5,18.6,416.5z M56.2,407.5c0-5-4-9-9-9s-9,4-9,9
	c0,5,4,9,9,9S56.2,412.4,56.2,407.5z M84.8,407.5c0-5-4-9-9-9s-9,4-9,9c0,5,4,9,9,9S84.8,412.4,84.8,407.5z M19.3,54.9
	c0-4.4,3.6-8,8-8H42V32.2c0-4.4,3.6-8,8-8s8,3.6,8,8v14.7h14.7c4.4,0,8,3.6,8,8s-3.6,8-8,8H58v14.7c0,4.4-3.6,8-8,8s-8-3.6-8-8V62.9
	H27.3C22.9,62.9,19.3,59.3,19.3,54.9z M120,206.2c0,4.4-3.6,8-8,8H37.7c-4.4,0-8-3.6-8-8s3.6-8,8-8H112
	C116.4,198.2,120,201.8,120,206.2z M95.2,463.9c0,4.4-3.6,8-8,8H12.8c-4.4,0-8-3.6-8-8s3.6-8,8-8h74.4
	C91.6,455.9,95.2,459.4,95.2,463.9z M444.8,341.6h-82.2c-4.4,0-8-3.6-8-8s3.6-8,8-8h82.2c4.4,0,8,3.6,8,8S449.2,341.6,444.8,341.6z
	 M472.5,446.4c3.1,3.1,3.1,8.2,0,11.3c-1.6,1.6-3.6,2.3-5.7,2.3s-4.1-0.8-5.7-2.3l-2.7-2.7l-2.7,2.7c-1.6,1.6-3.6,2.3-5.7,2.3
	s-4.1-0.8-5.7-2.3c-3.1-3.1-3.1-8.2,0-11.3l2.7-2.7l-2.7-2.7c-3.1-3.1-3.1-8.2,0-11.3c3.1-3.1,8.2-3.1,11.3,0l2.7,2.7l2.7-2.7
	c3.1-3.1,8.2-3.1,11.3,0c3.1,3.1,3.1,8.2,0,11.3l-2.7,2.7L472.5,446.4z M409.7,316.4h-108c-4.4,0-8-3.6-8-8s3.6-8,8-8h108
	c4.4,0,8,3.6,8,8S414.1,316.4,409.7,316.4z"></path>
</svg>