<svg version="1.1" id="Layer_1" xmlns="http://www.w3.org/2000/svg" xmlns:xlink="http://www.w3.org/1999/xlink" x="0px" y="0px" viewBox="0 0 512 512" enable-background="new 0 0 512 512" xml:space="preserve">
<g>
	<path fill="#DB81DA" class="secondary-color" d="M479.9,189.2v77.3h-22.5v-77.3H479.9z"></path>
	<path fill="#DB81DA" class="secondary-color" d="M479.9,306.3v77.3h-22.5v-77.3H479.9z"></path>
</g>
<path d="M437.5,114.7c0-4.4,3.6-8,8-8h3.9v-3.9c0-4.4,3.6-8,8-8s8,3.6,8,8v3.9h3.9c4.4,0,8,3.6,8,8s-3.6,8-8,8h-3.9v3.9
	c0,4.4-3.6,8-8,8s-8-3.6-8-8v-3.9h-3.9C441.1,122.7,437.5,119.1,437.5,114.7z M40.1,323.3H44v3.9c0,4.4,3.6,8,8,8s8-3.6,8-8v-3.9
	h3.9c4.4,0,8-3.6,8-8s-3.6-8-8-8H60v-3.9c0-4.4-3.6-8-8-8s-8,3.6-8,8v3.9h-3.9c-4.4,0-8,3.6-8,8S35.7,323.3,40.1,323.3z M54.5,95.6
	c1.6,1.6,3.6,2.3,5.7,2.3s4.1-0.8,5.7-2.3L77,84.5l11.2,11.2c1.6,1.6,3.6,2.3,5.7,2.3s4.1-0.8,5.7-2.3c3.1-3.1,3.1-8.2,0-11.3
	L88.3,73.2L99.5,62c3.1-3.1,3.1-8.2,0-11.3c-3.1-3.1-8.2-3.1-11.3,0L77,61.8L65.9,50.7c-3.1-3.1-8.2-3.1-11.3,0
	c-3.1,3.1-3.1,8.2,0,11.3l11.2,11.2L54.5,84.3C51.4,87.4,51.4,92.5,54.5,95.6z M493,456.9h-15.8v-15.8c0-4.4-3.6-8-8-8s-8,3.6-8,8
	v15.8h-15.8c-4.4,0-8,3.6-8,8s3.6,8,8,8h15.8v15.8c0,4.4,3.6,8,8,8s8-3.6,8-8v-15.8H493c4.4,0,8-3.6,8-8S497.5,456.9,493,456.9z
	 M117.5,405.1c0-4.4-3.6-8-8-8H39.9c-4.4,0-8,3.6-8,8s3.6,8,8,8h69.6C113.9,413.1,117.5,409.5,117.5,405.1z M128.5,429.1H77
	c-4.4,0-8,3.6-8,8s3.6,8,8,8h51.5c4.4,0,8-3.6,8-8S132.9,429.1,128.5,429.1z M376.4,43.6c-0.5,2.4-1.9,4.4-3.9,5.7
	c-1.5,0.9-3.2,1.4-4.9,1.4c-0.6,0-1.3-0.1-1.9-0.2c-2.4-0.5-4.4-1.9-5.7-3.9c-1.3-2-1.7-4.4-1.2-6.8c1.1-4.9,5.9-8,10.7-6.9
	C374.3,33.9,377.4,38.7,376.4,43.6z"></path>
<linearGradient id="SVGID_1_" gradientUnits="userSpaceOnUse" x1="284.5942" y1="479.8015" x2="284.5942" y2="195.5905" class="gradient-element">
	<stop offset="0" class="primary-color-gradient" style="stop-color: #FFA4ED"></stop>
	<stop offset="1" class="secondary-color-gradient" style="stop-color: #DB81DA"></stop>
</linearGradient>
<path fill="url(#SVGID_1_)" d="M432.4,235.7v242.2H169.3c-17.9,0-32.5-14.5-32.5-32.5V273.3h22.7v45.5h22.7l0.1-45.5H205l-34.1-68.2
	h181.9l-34.1,68.2h22l0.7,45.5h22.7v-45.5h22.7l-34.1-68.2h49C418.7,205.1,432.4,218.8,432.4,235.7z M162.6,205.1
	c-14.3,0-25.9,11.6-25.9,25.9v42.4l34.1-68.2H162.6z"></path>
<path d="M83.3,405.1V141.5c0-2.9,1.6-5.6,4.2-7l131-71.4c3.9-2.1,8.7-0.7,10.9,3.2c2.1,3.9,0.7,8.7-3.2,10.9L99.3,146.2v258.9
	c0,4.4-3.6,8-8,8S83.3,409.5,83.3,405.1z M436.2,134.4L305.2,63c-3.9-2.1-8.7-0.7-10.9,3.2c-2.1,3.9-0.7,8.7,3.2,10.9l126.8,69.2
	v323.7H99.3v-32.8c0-4.4-3.6-8-8-8s-8,3.6-8,8v40.8c0,4.4,3.6,8,8,8h341.1c4.4,0,8-3.6,8-8V141.5
	C440.4,138.5,438.8,135.8,436.2,134.4z M386.9,151.6H136.8c-4.4,0-8,3.6-8,8s3.6,8,8,8h250.1c4.4,0,8-3.6,8-8
	S391.3,151.6,386.9,151.6z M356.2,273.3v45.5c0,4.4,3.6,8,8,8s8-3.6,8-8v-37.5h14.7c2.8,0,5.3-1.4,6.8-3.8c1.5-2.4,1.6-5.3,0.3-7.8
	L360,201.5c-1.4-2.7-4.1-4.4-7.2-4.4s-5.8,1.7-7.2,4.4l-34.1,68.2c-1.2,2.5-1.1,5.4,0.3,7.8c1.5,2.4,4,3.8,6.8,3.8h14.1l0.6,37.6
	c0.1,4.4,3.6,7.9,8,7.9c0,0,0.1,0,0.1,0c4.4-0.1,7.9-3.7,7.9-8.1l-0.7-45.5c-0.1-4.4-3.6-7.9-8-7.9h-9.1l21.2-42.3l21.2,42.3h-9.8
	C359.8,265.3,356.2,268.9,356.2,273.3z M174.4,273.2l-0.2,45.5c0,4.4,3.6,8,8,8c0,0,0,0,0,0c4.4,0,8-3.6,8-8l0.1-37.5H205
	c2.8,0,5.3-1.4,6.8-3.8c1.5-2.4,1.6-5.3,0.3-7.8l-34.1-68.2c-1.4-2.7-4.1-4.4-7.2-4.4s-5.8,1.7-7.2,4.4l-34.1,68.2
	c-1.2,2.5-1.1,5.4,0.4,7.8s4,3.8,6.8,3.8h14.7v37.5c0,4.4,3.6,8,8,8s8-3.6,8-8v-45.5c0-4.4-3.6-8-8-8h-9.8l21.2-42.3l21.2,42.3h-9.6
	C178,265.3,174.4,268.8,174.4,273.2z"></path>
</svg>