<svg version="1.1" id="Layer_1" xmlns="http://www.w3.org/2000/svg" xmlns:xlink="http://www.w3.org/1999/xlink" x="0px" y="0px" viewBox="0 0 512 512" enable-background="new 0 0 512 512" xml:space="preserve">
<linearGradient id="SVGID_1_" gradientUnits="userSpaceOnUse" x1="280.1758" y1="419.0757" x2="283.2064" y2="67.5359" class="gradient-element">
	<stop offset="0" class="primary-color-gradient" style="stop-color: #FFA4ED"></stop>
	<stop offset="1" class="secondary-color-gradient" style="stop-color: #DB81DA"></stop>
</linearGradient>
<path fill="url(#SVGID_1_)" d="M235.3,211.4H97c-4,0-7.3-3.3-7.3-7.3V90.8c0-4,3.3-7.3,7.3-7.3h151.7c4,0,7.3,3.3,7.3,7.3v100.5v0
	c0,11.1-9,20.1-20.1,20.1H235.3z M453.3,441.6c11.1,0,20.1-9,20.1-20.1l0,0V321c0-4-3.3-7.3-7.3-7.3H314.5c-4,0-7.3,3.3-7.3,7.3
	v113.3c0,4,3.3,7.3,7.3,7.3h135.2H453.3z"></path>
<path d="M409.5,475.2H320c-11.5,0-20.8-9.3-20.8-20.8c0-1.6,0.2-3.3,0.6-4.8h-30.9c-11.5,0-20.8-9.3-20.8-20.8V416c0-4.4,3.6-8,8-8
	s8,3.6,8,8v12.8c0,2.6,2.1,4.8,4.8,4.8H320c4.4,0,8,3.6,8,8s-3.6,8-8,8c-2.6,0-4.8,2.1-4.8,4.8s2.1,4.8,4.8,4.8h89.5
	c2.6,0,4.8-2.1,4.8-4.8s-2.1-4.8-4.8-4.8c-4.4,0-8-3.6-8-8s3.6-8,8-8h51.2c2.6,0,4.8-2.1,4.8-4.8V275.3c0-2.6-2.1-4.8-4.8-4.8H268.8
	c-2.6,0-4.8,2.1-4.8,4.8v115.1c0,4.4-3.6,8-8,8s-8-3.6-8-8V275.3c0-11.5,9.3-20.8,20.8-20.8h191.9c11.5,0,20.8,9.3,20.8,20.8v153.5
	c0,11.5-9.3,20.8-20.8,20.8h-30.9c0.4,1.5,0.6,3.1,0.6,4.8C430.3,465.9,420.9,475.2,409.5,475.2z M230.4,449.6h-25.6
	c-4.4,0-8-3.6-8-8s3.6-8,8-8h25.6c4.4,0,8,3.6,8,8S234.8,449.6,230.4,449.6z M179.3,449.6h-51.2c-4.4,0-8-3.6-8-8s3.6-8,8-8h51.2
	c4.4,0,8,3.6,8,8S183.7,449.6,179.3,449.6z M102.5,449.6h-64c-4.4,0-8-3.6-8-8v-64c0-4.4,3.6-8,8-8s8,3.6,8,8v56h56c4.4,0,8,3.6,8,8
	S106.9,449.6,102.5,449.6z M38.6,360.1c-4.4,0-8-3.6-8-8v-51.2c0-4.4,3.6-8,8-8s8,3.6,8,8v51.2C46.6,356.5,43,360.1,38.6,360.1z
	 M38.6,283.3c-4.4,0-8-3.6-8-8V237c0-4.4,3.6-8,8-8s8,3.6,8,8v38.4C46.6,279.7,43,283.3,38.6,283.3z M473.4,245c-4.4,0-8-3.6-8-8
	v-38.4c0-4.4,3.6-8,8-8s8,3.6,8,8V237C481.4,241.4,477.8,245,473.4,245z M192,245h-89.5c-11.5,0-20.8-9.3-20.8-20.8
	c0-1.6,0.2-3.3,0.6-4.8H51.4c-11.5,0-20.8-9.3-20.8-20.8V45.1c0-11.5,9.3-20.8,20.8-20.8h191.9c11.5,0,20.8,9.3,20.8,20.8v115.1
	c0,4.4-3.6,8-8,8s-8-3.6-8-8V45.1c0-2.6-2.1-4.8-4.8-4.8H51.4c-2.6,0-4.8,2.1-4.8,4.8v153.5c0,2.6,2.1,4.8,4.8,4.8h51.2
	c4.4,0,8,3.6,8,8s-3.6,8-8,8c-2.6,0-4.8,2.1-4.8,4.8s2.1,4.8,4.8,4.8H192c2.6,0,4.8-2.1,4.8-4.8s-2.1-4.8-4.8-4.8c-4.4,0-8-3.6-8-8
	s3.6-8,8-8h51.2c2.6,0,4.8-2.1,4.8-4.8v-12.8c0-4.4,3.6-8,8-8s8,3.6,8,8v12.8c0,11.5-9.3,20.8-20.8,20.8h-30.9
	c0.4,1.5,0.6,3.1,0.6,4.8C212.8,235.6,203.5,245,192,245z M473.4,181c-4.4,0-8-3.6-8-8v-51.2c0-4.4,3.6-8,8-8s8,3.6,8,8V173
	C481.4,177.4,477.8,181,473.4,181z M473.4,104.3c-4.4,0-8-3.6-8-8v-56h-56c-4.4,0-8-3.6-8-8s3.6-8,8-8h64c4.4,0,8,3.6,8,8v64
	C481.4,100.7,477.8,104.3,473.4,104.3z M383.9,40.3h-51.2c-4.4,0-8-3.6-8-8s3.6-8,8-8h51.2c4.4,0,8,3.6,8,8S388.3,40.3,383.9,40.3z
	 M307.2,40.3h-25.6c-4.4,0-8-3.6-8-8s3.6-8,8-8h25.6c4.4,0,8,3.6,8,8S311.6,40.3,307.2,40.3z"></path>
<path d="M172.6,349h-43c-4.4,0-8-3.6-8-8s3.6-8,8-8h43c4.4,0,8,3.6,8,8S177,349,172.6,349z M151.1,363H77.3c-4.4,0-8,3.6-8,8
	s3.6,8,8,8h73.8c4.4,0,8-3.6,8-8S155.5,363,151.1,363z M406.8,197.1H391v-15.8c0-4.4-3.6-8-8-8s-8,3.6-8,8v15.8h-15.8
	c-4.4,0-8,3.6-8,8s3.6,8,8,8H375v15.8c0,4.4,3.6,8,8,8s8-3.6,8-8v-15.8h15.8c4.4,0,8-3.6,8-8S411.2,197.1,406.8,197.1z M395,112.9
	c4.4,0,8-3.6,8-8s-3.6-8-8-8h-43c-4.4,0-8,3.6-8,8s3.6,8,8,8H395z M256.4,472.6h-73.8c-4.4,0-8,3.6-8,8s3.6,8,8,8h73.8
	c4.4,0,8-3.6,8-8S260.8,472.6,256.4,472.6z"></path>
</svg>