<svg version="1.1" id="Layer_1" xmlns="http://www.w3.org/2000/svg" xmlns:xlink="http://www.w3.org/1999/xlink" x="0px" y="0px" viewBox="0 0 512 512" enable-background="new 0 0 512 512" xml:space="preserve">
<linearGradient id="SVGID_1_" gradientUnits="userSpaceOnUse" x1="302.3055" y1="246.3734" x2="489.2495" y2="246.3734" class="gradient-element">
	<stop offset="0" class="primary-color-gradient" style="stop-color: #FFA4ED"></stop>
	<stop offset="1" class="secondary-color-gradient" style="stop-color: #DB81DA"></stop>
</linearGradient>
<path fill="url(#SVGID_1_)" d="M314,301.7L489.2,83.9l-70.5,325l-89.3-36.7C301.2,360.5,293.2,324.1,314,301.7z"></path>
<path d="M164.7,476.9c-0.3,0-0.7,0-1-0.1c-0.3,0-0.6-0.1-0.8-0.1c-1.9-0.4-3.5-1.6-4.6-3.1h0c0,0,0,0,0,0c0,0,0,0,0,0c0,0,0,0,0,0
	c-0.1-0.2-0.2-0.3-0.3-0.5c0,0,0,0,0,0c0,0,0,0,0,0c0,0,0,0,0,0c0,0,0,0,0,0c-0.6-1-1-2.1-1.2-3.3l-4.3-30.3l-21-145.6L15.2,239.2
	c-4-1.9-5.7-6.6-3.8-10.6s6.6-5.7,10.6-3.8l120.2,56.5c2.4,1.1,4.1,3.4,4.5,6.1l18.9,131.2l19.9-110.4c0.4-2.4,2-4.5,4.1-5.6
	c2.2-1.2,4.7-1.2,7-0.3l105.6,46.6c0.1,0,0.2,0.1,0.3,0.1L413,397.6l63.8-294.3L218.6,298.5c-3.5,2.7-8.5,2-11.2-1.6
	c-2.7-3.5-2-8.5,1.6-11.2l242.8-183.5L20.7,217.4c-4.3,1.1-8.7-1.4-9.8-5.7c-1.1-4.3,1.4-8.7,5.7-9.8L487,76.2
	c0.9-0.3,1.9-0.4,2.8-0.3c0,0,0,0,0,0c0,0,0,0,0,0c0,0,0,0,0,0c0.2,0,0.5,0,0.7,0.1c0,0,0,0,0,0c1.8,0.3,3.6,1.3,4.8,2.8
	c0.2,0.2,0.3,0.4,0.5,0.6c1,1.5,1.5,3.3,1.4,5c0,0.3,0,0.5-0.1,0.8c0,0.2-0.1,0.3-0.1,0.5l-70.4,324.7c-0.1,0.3-0.1,0.6-0.2,0.9
	c-0.3,0.9-0.7,1.7-1.3,2.4c-0.7,1-1.7,1.7-2.7,2.3c-1,0.5-2.2,0.8-3.4,0.9c-0.9,0-1.8-0.1-2.7-0.4c-0.3-0.1-0.6-0.2-0.9-0.4
	l-114.8-50.6L169.8,475c-0.1,0.1-0.2,0.1-0.2,0.2c0,0,0,0,0,0c0,0,0,0,0,0c-0.3,0.3-0.7,0.5-1,0.7c0,0,0,0,0,0
	C167.4,476.5,166,476.9,164.7,476.9z M199.4,320.9l-23,127.6l107.9-90.2L199.4,320.9z"></path>
<path fill="#DB81DA" class="secondary-color" d="M75.7,25.3v49h-43v-49H75.7z M249.1,439.9l-40.3,40.3h80.5L249.1,439.9z"></path>
<path d="M63.4,421.3c-14.6,0-26.4-11.8-26.4-26.4s11.8-26.4,26.4-26.4c4.4,0,8,3.6,8,8s-3.6,8-8,8c-5.7,0-10.4,4.7-10.4,10.4
	s4.7,10.4,10.4,10.4c4.4,0,8,3.6,8,8S67.8,421.3,63.4,421.3z M110.6,408.4l-58.2,48.7c-3.4,2.8-3.8,7.9-1,11.3
	c1.6,1.9,3.9,2.9,6.1,2.9c1.8,0,3.6-0.6,5.1-1.9l58.2-48.7c3.4-2.8,3.8-7.9,1-11.3C119.1,406,114,405.6,110.6,408.4z M491.4,463.1
	c-4.2-4.2-11-4.2-15.2,0c-4.2,4.2-4.2,11,0,15.2c4.2,4.2,11,4.2,15.2,0C495.6,474.1,495.6,467.3,491.4,463.1z M352.1,443.8h-3.9
	v-3.9c0-4.4-3.6-8-8-8s-8,3.6-8,8v3.9h-3.9c-4.4,0-8,3.6-8,8s3.6,8,8,8h3.9v3.9c0,4.4,3.6,8,8,8s8-3.6,8-8v-3.9h3.9c4.4,0,8-3.6,8-8
	S356.5,443.8,352.1,443.8z M376.9,50.9H373V47c0-4.4-3.6-8-8-8s-8,3.6-8,8v3.9h-3.9c-4.4,0-8,3.6-8,8s3.6,8,8,8h3.9v3.9
	c0,4.4,3.6,8,8,8s8-3.6,8-8v-3.9h3.9c4.4,0,8-3.6,8-8S381.3,50.9,376.9,50.9z M455.5,50c4.2-4.2,4.2-11,0-15.2
	c-4.2-4.2-11-4.2-15.2,0c-4.2,4.2-4.2,11,0,15.2S451.3,54.2,455.5,50z M247.6,71.6l-99.5,19.2c-4.3,0.8-7.2,5-6.3,9.4
	c0.7,3.8,4.1,6.5,7.8,6.5c0.5,0,1,0,1.5-0.1l99.5-19.2c4.3-0.8,7.2-5,6.3-9.4C256.1,73.6,251.9,70.8,247.6,71.6z M483.1,379.4
	c-2.8-3.4-7.9-3.8-11.3-1l-58.2,48.7c-3.4,2.8-3.8,7.9-1,11.3c1.6,1.9,3.9,2.9,6.1,2.9c1.8,0,3.6-0.6,5.1-1.9l58.2-48.7
	C485.5,387.8,486,382.8,483.1,379.4z M234,113.3L43.2,157.1c-4.3,1-7,5.3-6,9.6c0.8,3.7,4.1,6.2,7.8,6.2c0.6,0,1.2-0.1,1.8-0.2
	l190.8-43.7c4.3-1,7-5.3,6-9.6S238.3,112.3,234,113.3z"></path>
</svg>