<svg version="1.1" id="Layer_1" xmlns="http://www.w3.org/2000/svg" xmlns:xlink="http://www.w3.org/1999/xlink" x="0px" y="0px" viewBox="0 0 512 512" enable-background="new 0 0 512 512" xml:space="preserve">
<linearGradient id="SVGID_1_" gradientUnits="userSpaceOnUse" x1="308.8703" y1="428.6825" x2="308.8703" y2="161.7907" class="gradient-element">
	<stop offset="0" class="primary-color-gradient" style="stop-color: #FFA4ED"></stop>
	<stop offset="1" class="secondary-color-gradient" style="stop-color: #DB81DA"></stop>
</linearGradient>
<path fill="url(#SVGID_1_)" d="M336.7,274.5l145-140.7L363.8,419.2l-17.4-12.5C302.7,375.3,298.1,312,336.7,274.5z M158.8,214.6
	c-27.5,8.3-30.9,45.8-5.4,58.9l5.7,2.9l322.5-158.9L158.8,214.6z"></path>
<path d="M495.7,119.8c0-0.1,0-0.2,0.1-0.3c0-0.1,0-0.1,0-0.2c0-0.1,0-0.2,0.1-0.3c0-0.1,0-0.2,0-0.3c0-0.2,0-0.3,0.1-0.5
	c0,0,0,0,0-0.1c0,0,0,0,0,0c0-0.1,0-0.2,0-0.3c0-0.1,0-0.3,0-0.4c0-0.1,0-0.3,0-0.4c0-0.1,0-0.1,0-0.2c0-0.1,0-0.1,0-0.2
	c0-0.2-0.1-0.4-0.1-0.7c0,0,0-0.1,0-0.1c0,0,0,0,0,0c0,0,0-0.1,0-0.1c0,0,0,0,0-0.1c0-0.2-0.1-0.4-0.2-0.6c0,0,0,0,0-0.1
	c0-0.1-0.1-0.2-0.1-0.4c0-0.1-0.1-0.1-0.1-0.2c0-0.1,0-0.1-0.1-0.2c0-0.1-0.1-0.1-0.1-0.2c-0.1-0.2-0.2-0.4-0.3-0.6
	c0,0,0-0.1-0.1-0.1c-0.1-0.2-0.2-0.4-0.4-0.6c0,0,0,0,0,0c0,0,0,0,0,0c-0.1-0.1-0.1-0.2-0.2-0.3c0,0-0.1-0.1-0.1-0.1
	c-0.1-0.1-0.1-0.1-0.2-0.2c0-0.1-0.1-0.1-0.1-0.1c-0.1-0.1-0.3-0.3-0.4-0.4c0,0-0.1-0.1-0.1-0.1c0,0,0,0,0,0c0,0,0,0,0,0
	c0,0-0.1-0.1-0.1-0.1c-0.1-0.1-0.2-0.2-0.3-0.3c-0.1-0.1-0.2-0.1-0.3-0.2c-0.1,0-0.1-0.1-0.2-0.1c0,0,0,0,0,0c0,0-0.1-0.1-0.1-0.1
	c-0.1-0.1-0.2-0.1-0.3-0.2c-0.1-0.1-0.2-0.1-0.4-0.2c-0.1,0-0.1-0.1-0.2-0.1c0,0-0.1,0-0.1-0.1c-0.1-0.1-0.3-0.1-0.4-0.2
	c-0.1,0-0.2-0.1-0.2-0.1c-0.2-0.1-0.3-0.1-0.5-0.2c-0.1,0-0.1,0-0.2,0c-0.2,0-0.4-0.1-0.6-0.1c-0.1,0-0.1,0-0.2,0c0,0,0,0,0,0
	c-0.1,0-0.1,0-0.2,0c-0.1,0-0.3,0-0.4,0c-0.1,0-0.2,0-0.2,0c-0.2,0-0.3,0-0.5,0c0,0,0,0,0,0c0,0,0,0,0,0c-0.1,0-0.3,0-0.4,0
	c-0.1,0-0.3,0-0.4,0c-0.1,0-0.2,0-0.3,0c-0.1,0-0.1,0-0.2,0c0,0,0,0-0.1,0c-0.1,0-0.1,0-0.2,0l0,0c0,0,0,0-0.1,0L64.1,198.7
	c-4.3,0.9-7.1,5.2-6.2,9.5c0.8,3.8,4.1,6.4,7.8,6.4c0.5,0,1.1-0.1,1.7-0.2l362.1-76.2L158.6,274.5l-122.3-68
	c-3.9-2.1-8.7-0.8-10.9,3.1c-2.1,3.9-0.8,8.7,3.1,10.9l126,70c2.3,1.3,5.1,1.3,7.5,0.2l235.1-118.3L208.8,306.1
	c-0.2,0.1-0.3,0.2-0.4,0.3c-0.1,0-0.1,0.1-0.2,0.1c-0.2,0.2-0.4,0.4-0.6,0.6c0,0,0,0-0.1,0.1c-0.2,0.2-0.4,0.4-0.5,0.6
	c0,0.1-0.1,0.1-0.1,0.2c-0.1,0.2-0.3,0.4-0.4,0.6c0,0.1-0.1,0.1-0.1,0.2c-0.1,0.2-0.2,0.4-0.3,0.6c0,0.1-0.1,0.1-0.1,0.2
	c-0.1,0.3-0.2,0.6-0.3,0.8c0,0,0,0,0,0l0,0c0,0,0,0,0,0l-20,73.3L170.3,303c-0.8-4.3-5-7.2-9.4-6.4c-4.3,0.8-7.2,5-6.4,9.4
	l21.9,114.8c0,0,0,0.1,0,0.1c0,0.1,0.1,0.3,0.1,0.4c0,0.1,0.1,0.2,0.1,0.3c0,0.1,0.1,0.2,0.1,0.3c0,0.1,0.1,0.3,0.2,0.4
	c0,0.1,0.1,0.2,0.1,0.3c0.1,0.2,0.2,0.4,0.3,0.6c0,0,0,0,0,0c0.1,0.2,0.3,0.4,0.4,0.6c0,0,0,0,0,0c0,0,0,0.1,0.1,0.1
	c0.1,0.2,0.3,0.4,0.5,0.6c0,0.1,0.1,0.1,0.1,0.2c0.2,0.2,0.4,0.4,0.6,0.6c0.1,0.1,0.1,0.1,0.2,0.1c0.2,0.1,0.3,0.2,0.5,0.4
	c0.1,0.1,0.2,0.1,0.2,0.2c0.2,0.1,0.4,0.3,0.6,0.4c0,0,0.1,0,0.1,0.1c0.2,0.1,0.5,0.2,0.7,0.3c0.1,0,0.2,0.1,0.2,0.1
	c0.2,0.1,0.4,0.1,0.6,0.2c0.1,0,0.1,0,0.2,0c0.3,0.1,0.5,0.1,0.8,0.1c0.1,0,0.1,0,0.2,0c0.2,0,0.3,0,0.5,0c0.1,0,0.1,0,0.2,0
	c0,0,0.1,0,0.1,0c0,0,0.1,0,0.1,0c0.4,0,0.7,0,1-0.1c0.1,0,0.1,0,0.2,0c0.4-0.1,0.7-0.1,1.1-0.3c0,0,0,0,0.1,0
	c0.8-0.3,1.6-0.7,2.3-1.2l84.8-61.7l90.1,61.9c1.3,0.9,2.9,1.4,4.5,1.4c0.8,0,1.6-0.1,2.3-0.3c2.3-0.7,4.2-2.4,5.1-4.7l119.5-301.5
	c0,0,0,0,0,0l0,0c0,0,0,0,0,0c0-0.1,0.1-0.2,0.1-0.3C495.7,120.1,495.7,120,495.7,119.8z M198,399.4l20.1-73.8l41.8,28.7L198,399.4z
	 M364.8,407l-137.4-94.5l243.3-172.7L364.8,407z"></path>
<path d="M409.7,306.4h43c4.4,0,8,3.6,8,8s-3.6,8-8,8h-43c-4.4,0-8-3.6-8-8S405.3,306.4,409.7,306.4z M439.2,344.4c0-4.4-3.6-8-8-8
	h-73.8c-4.4,0-8,3.6-8,8s3.6,8,8,8h73.8C435.6,352.4,439.2,348.8,439.2,344.4z M89.5,109.6H73.8V93.8c0-4.4-3.6-8-8-8s-8,3.6-8,8
	v15.8H42c-4.4,0-8,3.6-8,8s3.6,8,8,8h15.8v15.8c0,4.4,3.6,8,8,8s8-3.6,8-8v-15.8h15.8c4.4,0,8-3.6,8-8S94,109.6,89.5,109.6z
	 M318,67.8c20.3,0,36.8-16.5,36.8-36.8c0-4.4-3.6-8-8-8s-8,3.6-8,8c0,11.4-9.3,20.8-20.8,20.8c-4.4,0-8,3.6-8,8S313.6,67.8,318,67.8
	z M396.8,67.8c4.4,0,8-3.6,8-8s-3.6-8-8-8c-11.4,0-20.8-9.3-20.8-20.8c0-4.4-3.6-8-8-8s-8,3.6-8,8C360,51.4,376.5,67.8,396.8,67.8z
	 M368,117.8c4.4,0,8-3.6,8-8c0-11.4,9.3-20.8,20.8-20.8c4.4,0,8-3.6,8-8s-3.6-8-8-8c-20.3,0-36.8,16.5-36.8,36.8
	C360,114.3,363.6,117.8,368,117.8z M354.8,109.8c0-20.3-16.5-36.8-36.8-36.8c-4.4,0-8,3.6-8,8s3.6,8,8,8c11.4,0,20.8,9.3,20.8,20.8
	c0,4.4,3.6,8,8,8S354.8,114.3,354.8,109.8z M272.1,451.8h-3.9v-3.9c0-4.4-3.6-8-8-8s-8,3.6-8,8v3.9h-3.9c-4.4,0-8,3.6-8,8s3.6,8,8,8
	h3.9v3.9c0,4.4,3.6,8,8,8s8-3.6,8-8v-3.9h3.9c4.4,0,8-3.6,8-8S276.5,451.8,272.1,451.8z M468.1,445.4c0,14.6-11.8,26.4-26.4,26.4
	s-26.4-11.8-26.4-26.4s11.8-26.4,26.4-26.4S468.1,430.9,468.1,445.4z M452.1,445.4c0-5.7-4.7-10.4-10.4-10.4s-10.4,4.7-10.4,10.4
	s4.7,10.4,10.4,10.4S452.1,451.2,452.1,445.4z M77.8,319.2h-43c-4.4,0-8,3.6-8,8s3.6,8,8,8h43c4.4,0,8-3.6,8-8
	S82.2,319.2,77.8,319.2z"></path>
</svg>