<svg version="1.1" id="Layer_1" xmlns="http://www.w3.org/2000/svg" xmlns:xlink="http://www.w3.org/1999/xlink" x="0px" y="0px" viewBox="0 0 512 512" enable-background="new 0 0 512 512" xml:space="preserve">
<linearGradient id="SVGID_1_" gradientUnits="userSpaceOnUse" x1="262.3799" y1="384.8871" x2="262.3799" y2="91.6394" class="gradient-element">
	<stop offset="0" class="primary-color-gradient" style="stop-color: #FFA4ED"></stop>
	<stop offset="1" class="secondary-color-gradient" style="stop-color: #DB81DA"></stop>
</linearGradient>
<path fill="url(#SVGID_1_)" d="M400.5,161.8c14.9,23.1,24.1,50.2,25.8,79.3c-7.8,2.6-19.4,2.1-23.2-7.1c-3-7.2-6.6-13.9-9.8-20.7
	c-16.2-34.5-47.3-55.7-47.3-55.7c-16.7-12.2-36.1-20.5-58-24c-46.4-7.3-77.1,10.4-92.1,27.6c-34.3,39.3-43.9,112.4,9.4,170.1h-47.3
	v21.8h66.7v-3.9c10.4,8.3,22.3,16.1,36,23.3c17.5,9.2,7.2,37.3-12.6,37.4h-0.7c-12.1,0-23.9-1.2-35.4-3.5
	c-28.4-9.2-53.4-25.9-72.7-47.9V435h-14v-94.7c-17-25.8-26.8-56.7-26.8-89.9c0-90.6,73.4-164,164-164c47.4,0,90.2,20.2,120.1,52.3
	L400.5,161.8z"></path>
<g>
	<path fill="#DB81DA" class="secondary-color" d="M79.7,457.2v35.2H58.4v-35.2H79.7z"></path>
	<path fill="#FFA4ED" class="primary-color" d="M45.4,457.2v35.2H24.9v-35.2H45.4z"></path>
</g>
<path d="M490.5,429.6c0,4.4-3.6,8-8,8h-43c-4.4,0-8-3.6-8-8s3.6-8,8-8h43C486.9,421.6,490.5,425.1,490.5,429.6z M461,457.2h-73.8
	c-4.4,0-8,3.6-8,8s3.6,8,8,8H461c4.4,0,8-3.6,8-8S465.4,457.2,461,457.2z M116.6,67.2h-15.8V51.4c0-4.4-3.6-8-8-8s-8,3.6-8,8v15.8
	H69.1c-4.4,0-8,3.6-8,8s3.6,8,8,8h15.8V99c0,4.4,3.6,8,8,8s8-3.6,8-8V83.2h15.8c4.4,0,8-3.6,8-8S121.1,67.2,116.6,67.2z M440.1,84.9
	h3.9v3.9c0,4.4,3.6,8,8,8s8-3.6,8-8v-3.9h3.9c4.4,0,8-3.6,8-8s-3.6-8-8-8H460V65c0-4.4-3.6-8-8-8s-8,3.6-8,8v3.9h-3.9
	c-4.4,0-8,3.6-8,8S435.6,84.9,440.1,84.9z M35.2,210.3c-5.9,0-10.8,4.8-10.8,10.8s4.8,10.8,10.8,10.8s10.8-4.8,10.8-10.8
	S41.1,210.3,35.2,210.3z M464.7,321.4c14.6,0,26.4,11.8,26.4,26.4s-11.8,26.4-26.4,26.4s-26.4-11.8-26.4-26.4
	S450.1,321.4,464.7,321.4z M464.7,337.4c-5.7,0-10.4,4.7-10.4,10.4s4.7,10.4,10.4,10.4s10.4-4.7,10.4-10.4S470.4,337.4,464.7,337.4z
	"></path>
<path d="M142.2,446.5h-21.8c-4.4,0-8-3.6-8-8V329.4c0-4.4,3.6-8,8-8h109.1c4.4,0,8,3.6,8,8v21.8c0,4.4-3.6,8-8,8h-69.3
	c-4.4,0-8-3.6-8-8s3.6-8,8-8h61.3v-5.8h-93.1v93.1h5.8v-66.6c0-3.3,2-6.3,5.1-7.5c3.1-1.2,6.6-0.4,8.8,2
	c29.4,31.9,71,50.2,114.2,50.2c85.9,0,155.7-69.8,155.7-155.7c0-17.4-3.1-34.9-9.1-51.9c0-0.1-0.1-0.2-0.1-0.3
	c-7.9-25.6-31.4-52.2-32.4-53.4c-29.4-31.9-71-50.1-114.1-50.1c-85.9,0-155.7,69.8-155.7,155.7c0,17.5,3.1,34.9,9.1,51.9
	c1.5,4.2-0.7,8.7-4.9,10.2c-4.2,1.5-8.7-0.7-10.2-4.9c-6.6-18.7-10-38-10-57.2c0-94.7,77-171.7,171.7-171.7
	c47.6,0,93.5,20.2,125.9,55.3c0,0,0,0.1,0.1,0.1c1.1,1.2,26.6,29.8,35.7,59.2c6.6,18.7,10,37.9,10,57.1c0,94.7-77,171.7-171.7,171.7
	c-41.1,0-81-15.1-112-41.9v55.7C150.2,442.9,146.6,446.5,142.2,446.5z M262.2,268.7l81-1.2c4.4-0.1,7.9-3.7,7.9-8.1
	c-0.1-4.4-3.6-7.9-8-7.9c0,0-0.1,0-0.1,0l-72.9,1.1v-97.9c0-4.4-3.6-8-8-8s-8,3.6-8,8v106c0,2.1,0.9,4.2,2.4,5.7
	c1.5,1.5,3.5,2.3,5.6,2.3C262.1,268.7,262.2,268.7,262.2,268.7z"></path>
</svg>