<svg version="1.1" id="Layer_1" xmlns="http://www.w3.org/2000/svg" xmlns:xlink="http://www.w3.org/1999/xlink" x="0px" y="0px" viewBox="0 0 512 512" enable-background="new 0 0 512 512" xml:space="preserve">
<linearGradient id="SVGID_1_" gradientUnits="userSpaceOnUse" x1="257.4811" y1="415.9151" x2="257.4811" y2="119.1802" class="gradient-element">
	<stop offset="0" class="primary-color-gradient" style="stop-color: #FFA4ED"></stop>
	<stop offset="1" class="secondary-color-gradient" style="stop-color: #DB81DA"></stop>
</linearGradient>
<path fill="url(#SVGID_1_)" d="M377,166.8v203.3c0,14.6-9.3,26.4-20.7,26.4h-63.1c-4.9,0-8.9-5.1-8.9-11.3
	c-0.1-18.8-0.2-29.2,3.3-29.2h21.8c27.2,0,21.9-16.9,21.9-156.8v-0.5c0-1.8,0.1-3.6,0.2-5.4c1.8-24.5,15.4-43.6,32-43.6
	C371,149.6,377,157.3,377,166.8z M137.9,385.2c0,6.2,4,11.3,8.9,11.3h86.5V356H169C139.3,356,137.9,366.4,137.9,385.2z"></path>
<path d="M453,205.4c4.2,4.2,4.2,11,0,15.2c-4.2,4.2-11,4.2-15.2,0c-4.2-4.2-4.2-11,0-15.2C442,201.2,448.8,201.2,453,205.4z
	 M72.9,337.4H69v-3.9c0-4.4-3.6-8-8-8s-8,3.6-8,8v3.9h-3.9c-4.4,0-8,3.6-8,8s3.6,8,8,8H53v3.9c0,4.4,3.6,8,8,8s8-3.6,8-8v-3.9h3.9
	c4.4,0,8-3.6,8-8S77.4,337.4,72.9,337.4z M468.5,52.7h-3.9v-3.9c0-4.4-3.6-8-8-8s-8,3.6-8,8v3.9h-3.9c-4.4,0-8,3.6-8,8s3.6,8,8,8
	h3.9v3.9c0,4.4,3.6,8,8,8s8-3.6,8-8v-3.9h3.9c4.4,0,8-3.6,8-8S473,52.7,468.5,52.7z M252.5,447.2c-4.2,4.2-4.2,11,0,15.2
	c4.2,4.2,11,4.2,15.2,0c4.2-4.2,4.2-11,0-15.2S256.7,443,252.5,447.2z M421.3,305.1h-51.5c-4.4,0-8,3.6-8,8s3.6,8,8,8h51.5
	c4.4,0,8-3.6,8-8S425.7,305.1,421.3,305.1z M403.5,269.7c0-4.4-3.6-8-8-8H344c-4.4,0-8,3.6-8,8s3.6,8,8,8h51.5
	C399.9,277.7,403.5,274.1,403.5,269.7z M111.3,62.1H59.8c-4.4,0-8,3.6-8,8s3.6,8,8,8h51.5c4.4,0,8-3.6,8-8S115.7,62.1,111.3,62.1z
	 M34,34.7h51.5c4.4,0,8-3.6,8-8s-3.6-8-8-8H34c-4.4,0-8,3.6-8,8S29.6,34.7,34,34.7z M111.3,145.1H59.8c-4.4,0-8,3.6-8,8s3.6,8,8,8
	h51.5c4.4,0,8-3.6,8-8S115.7,145.1,111.3,145.1z M93.5,109.7c0-4.4-3.6-8-8-8H34c-4.4,0-8,3.6-8,8s3.6,8,8,8h51.5
	C89.9,117.7,93.5,114.1,93.5,109.7z"></path>
<path d="M233.3,401.5h-89.5c-4.4,0-8-3.6-8-8s3.6-8,8-8h81.5V160.4h-73.5v206.5c0,4.4-3.6,8-8,8s-8-3.6-8-8V152.4c0-4.4,3.6-8,8-8
	h89.5c4.4,0,8,3.6,8,8v241.1C241.3,397.9,237.7,401.5,233.3,401.5z M385,393.5v-80.4c0-4.4-3.6-8-8-8s-8,3.6-8,8v72.4h-73.5V160.4
	H369v109.3c0,4.4,3.6,8,8,8s8-3.6,8-8V152.4c0-4.4-3.6-8-8-8h-89.5c-4.4,0-8,3.6-8,8v241.1c0,4.4,3.6,8,8,8H377
	C381.5,401.5,385,397.9,385,393.5z"></path>
</svg>