<svg version="1.1" id="Layer_1" xmlns="http://www.w3.org/2000/svg" xmlns:xlink="http://www.w3.org/1999/xlink" x="0px" y="0px" viewBox="0 0 512 512" enable-background="new 0 0 512 512" xml:space="preserve">
<g>
	<linearGradient id="SVGID_1_" gradientUnits="userSpaceOnUse" x1="180.9487" y1="147.8241" x2="344.8097" y2="147.8241" class="gradient-element">
		<stop offset="0" class="primary-color-gradient" style="stop-color: #FFA4ED"></stop>
		<stop offset="1" class="secondary-color-gradient" style="stop-color: #DB81DA"></stop>
	</linearGradient>
	<path fill="url(#SVGID_1_)" d="M344.8,193.7l-119,89.3c0,0-31.8-23.6,22.1-57.9s23.6-64.7,23.6-64.7s-74.5-87-86.2-104.1
		c-11.8-17.1,4.4-43.6,4.4-43.6L344.8,193.7z"></path>
	<linearGradient id="SVGID_2_" gradientUnits="userSpaceOnUse" x1="270.9856" y1="499.2538" x2="270.9856" y2="323.9745">
		<stop offset="0" class="primary-color-gradient" style="stop-color: #FFA4ED"></stop>
		<stop offset="1" class="secondary-color-gradient" style="stop-color: #DB81DA"></stop>
	</linearGradient>
	<path fill="url(#SVGID_2_)" d="M450.5,332.6v136.1c0,5.1-4.1,9.2-9.2,9.2h-14.2c-5.1,0-9.2-4.1-9.2-9.2V318.4
		c0-5.1,4.1-9.2,9.2-9.2C440,309.2,450.5,319.7,450.5,332.6z M337.1,328.3l0,0.1c-0.1,10.2-6.1,19.5-15.4,23.7
		c-27.8,12.6-85.4,38.7-105.4,47.7c-26.7,12-38,0-38,0l-83.2-63c-9.2,11.7,1.5,27.3,1.5,27.3l2.7,2.4l85,63.7c0,0,0,0,0,0
		c0.3,0.2,0.7,0.3,1,0.5c1.2,0.8,2.5,1.4,3.8,2c0.4,0.2,0.8,0.5,1.3,0.6c0.2,0.1,0.4,0.1,0.6,0.1c1.9,0.6,3.9,0.9,5.9,0.9
		c0.1,0,0.1,0,0.2,0l0,0c0,0,0,0,0,0l0,0l0,0c1.9,0,3.7-0.3,5.6-0.8c0.1,0,0.2,0,0.2,0l136.7-39.1l47.7,47.7
		c0.3,0.3,0.9,0.1,0.9-0.4V328.4l-20.4-15.3C355.2,303.6,337.2,312.5,337.1,328.3z"></path>
</g>
<path d="M430.7,299.1h-21.2c-11.3,0-21,6.4-25.9,15.7l-41.5-31.1c-0.4-0.3-0.8-0.5-1.1-0.7c-2.3-1.5-4.6-2.4-6.8-3.2l-0.1,0
	c-0.6-0.3-1.5-0.8-2.8-1.1c-1.9-0.4-3.7-0.4-4.9-0.4c-0.3,0-0.6,0-0.9,0c-0.3,0-0.6,0-0.9,0c-1-0.1-2.4-0.1-3.9,0
	c-0.5,0-1.1,0-1.7,0.2l-106.2,21.2c-15.8,3.2-26.1,18.6-22.9,34.4c2.7,13.6,14.8,23.5,28.7,23.5c2,0,3.9-0.2,5.8-0.6l19.4-3.9
	l-44.2,25.2l-69.6-52.2c-12.9-9.7-31.3-7-40.9,5.9c-4.7,6.2-6.7,13.9-5.6,21.7c1.1,7.7,5.2,14.6,11.4,19.3l85,63.7
	c0.2,0.1,0.4,0.3,0.6,0.4c0.5,0.3,0.9,0.5,1.2,0.7c1.4,0.9,2.9,1.7,4.5,2.3c0.4,0.3,1.2,0.7,2.1,1c0.5,0.2,0.9,0.3,1.3,0.3
	c2.4,0.7,4.7,1,7,1.1c0.3,0,0.6,0,0.8,0c0,0,0,0,0,0c0,0,0,0,0,0c2.3,0,4.7-0.3,7.1-0.9c0.3,0,0.6-0.1,0.9-0.2l132.1-37.8l43,43v9.1
	c0,16.1,13.1,29.2,29.2,29.2h21.2c16.1,0,29.2-13.1,29.2-29.2V328.4C460,312.2,446.9,299.1,430.7,299.1z M444,455.8
	c0,7.3-5.9,13.2-13.2,13.2h-21.2c-7.3,0-13.2-5.9-13.2-13.2v-12.4c0-2.1-0.8-4.2-2.3-5.7l-48.7-48.7c-1.5-1.5-3.6-2.3-5.7-2.3
	c-0.7,0-1.5,0.1-2.2,0.3l-136.2,38.9c-0.1,0-0.3,0.1-0.5,0.1c-0.1,0-0.1,0-0.2,0c-1.1,0.3-2.1,0.5-3.1,0.5c-0.2,0-0.3,0-0.5,0
	c-1.1,0-2.3-0.2-3.7-0.6c-0.1,0-0.1,0-0.2,0c-0.3-0.1-0.6-0.3-1-0.5c-0.9-0.4-1.7-0.8-2.3-1.2c-0.4-0.3-0.8-0.5-1.2-0.7l-84.5-63.4
	c-2.8-2.1-4.7-5.2-5.2-8.7c-0.5-3.5,0.4-7,2.5-9.8c4.4-5.8,12.7-7,18.5-2.6l73.8,55.3c2.6,1.9,6,2.1,8.8,0.5l85.4-48.8
	c2.2-1.2,3.6-3.4,4-5.9c0.3-2.5-0.5-5-2.3-6.7l-1.9-1.9c-1.9-1.9-4.6-2.7-7.2-2.2l-59.7,11.9c-0.8,0.2-1.7,0.3-2.6,0.3
	c-6.3,0-11.7-4.5-13-10.6c-1.4-7.2,3.2-14.2,10.4-15.6l105.4-21.1c0.4,0,0.8,0,1.2-0.1c0.2,0,0.8,0,1.3,0c0.4,0,0.9,0,1.3,0.1
	c0.5,0,1,0,1.5,0c0.3,0,0.6,0,0.9,0c0.4,0.2,0.9,0.4,1.4,0.6c1.3,0.5,2.6,1,3.5,1.6c0.3,0.2,0.6,0.4,0.8,0.5l48.9,36.7V418
	c0,3.9,3.1,7,7,7s7-3.1,7-7v-87.6c0.2-0.6,0.3-1.3,0.3-2c0-7.3,5.9-13.2,13.2-13.2h21.2c7.3,0,13.2,5.9,13.2,13.2V455.8z M225.8,291
	c1.7,0,3.4-0.5,4.8-1.6l119-89.3c1.8-1.3,2.9-3.3,3.2-5.5c0.2-2.2-0.4-4.4-1.9-6.1L195.7,7.5c-2.7-3.2-7.5-3.7-10.9-1.2l-119,89.3
	c-1.8,1.3-2.9,3.3-3.2,5.5c-0.2,2.2,0.4,4.4,1.9,6.1l155.2,181C221.3,290,223.5,291,225.8,291z M188.5,23.6l144.7,168.8L227,272.1
	L82.3,103.2L188.5,23.6z M236.9,231.5l50.9-38.2c1.8-1.3,2.9-3.3,3.2-5.5s-0.4-4.4-1.9-6.1l-49.6-57.8c-1-1.3-2-2.5-3.2-3.7
	c0,0-0.1-0.1-0.1-0.1l-46.9-54.7c-2.7-3.2-7.5-3.7-10.9-1.2l-50.9,38.2c-1.8,1.3-2.9,3.3-3.2,5.5c-0.2,2.2,0.4,4.4,1.9,6.1
	l49.6,57.8c1,1.3,2,2.5,3.2,3.7c0,0,0.1,0.1,0.1,0.1l46.9,54.7c1.6,1.8,3.8,2.8,6.1,2.8C233.8,233.1,235.5,232.6,236.9,231.5z
	 M168.9,139L144,110l38.1-28.6l22.8,26.6C187.2,109.3,172.7,122.1,168.9,139z M191.1,164.9l-2.6-3.1c-3-4.1-4.6-8.9-4.6-14
	c0-13.2,10.7-23.9,23.9-23.9c6.3,0,12.2,2.4,16.7,6.8l2.6,3.1c3,4.1,4.6,8.9,4.6,14c0,13.2-10.7,23.9-23.9,23.9
	C201.5,171.7,195.5,169.3,191.1,164.9z M210.5,187.6c17.7-1.2,32.2-14.1,36.1-30.9l24.8,29l-38.1,28.6L210.5,187.6z"></path>
<g>
	<path fill="#FFA4ED" class="primary-color" d="M48.5,291.7v35.2H27v-35.2H48.5z"></path>
	<path fill="#FFA4ED" class="primary-color" d="M48.5,355.6v35.2H27v-35.2H48.5z"></path>
	<path fill="#DB81DA" class="secondary-color" d="M471.6,289.3l-31.4-31.4l31-31L471.6,289.3z"></path>
</g>
<path d="M357,46.6h-59.2c-4.4,0-8-3.6-8-8s3.6-8,8-8H357c4.4,0,8,3.6,8,8S361.5,46.6,357,46.6z M20.8,46.6H80c4.4,0,8-3.6,8-8
	s-3.6-8-8-8H20.8c-4.4,0-8,3.6-8,8S16.3,46.6,20.8,46.6z M333.5,115.1c-2.9-3.4-7.9-3.7-11.3-0.9c-3.4,2.9-3.7,7.9-0.9,11.3
	l76.7,89.5c1.6,1.8,3.8,2.8,6.1,2.8c1.8,0,3.7-0.6,5.2-1.9c3.4-2.9,3.7-7.9,0.9-11.3L333.5,115.1z M94.8,179.8L18.1,90.3
	c-2.9-3.4-7.9-3.7-11.3-0.9c-3.4,2.9-3.7,7.9-0.9,11.3l76.7,89.5c1.6,1.8,3.8,2.8,6.1,2.8c1.8,0,3.7-0.6,5.2-1.9
	C97.3,188.2,97.7,183.2,94.8,179.8z M468.1,98.2c-20.3,0-36.8,16.5-36.8,36.8c0,4.4,3.6,8,8,8s8-3.6,8-8c0-11.4,9.3-20.8,20.8-20.8
	c4.4,0,8-3.6,8-8S472.5,98.2,468.1,98.2z M389.3,98.2c-4.4,0-8,3.6-8,8s3.6,8,8,8c11.4,0,20.8,9.3,20.8,20.8c0,4.4,3.6,8,8,8
	s8-3.6,8-8C426.1,114.7,409.6,98.2,389.3,98.2z M418.1,48.2c-4.4,0-8,3.6-8,8c0,11.4-9.3,20.8-20.8,20.8c-4.4,0-8,3.6-8,8s3.6,8,8,8
	c20.3,0,36.8-16.5,36.8-36.8C426.1,51.7,422.5,48.2,418.1,48.2z M468.1,92.9c4.4,0,8-3.6,8-8s-3.6-8-8-8c-11.4,0-20.8-9.3-20.8-20.8
	c0-4.4-3.6-8-8-8s-8,3.6-8,8C431.3,76.4,447.8,92.9,468.1,92.9z M148.8,272.6c4.4,0,8-3.6,8-8s-3.6-8-8-8H133v-15.8c0-4.4-3.6-8-8-8
	s-8,3.6-8,8v15.8h-15.8c-4.4,0-8,3.6-8,8s3.6,8,8,8H117v15.8c0,4.4,3.6,8,8,8s8-3.6,8-8v-15.8H148.8z M82.5,459.5
	c0,14.6-11.8,26.4-26.4,26.4s-26.4-11.8-26.4-26.4s11.8-26.4,26.4-26.4S82.5,445,82.5,459.5z M66.5,459.5c0-5.7-4.7-10.4-10.4-10.4
	s-10.4,4.7-10.4,10.4s4.7,10.4,10.4,10.4S66.5,465.3,66.5,459.5z M335.4,449.8h-3.9v-3.9c0-4.4-3.6-8-8-8s-8,3.6-8,8v3.9h-3.9
	c-4.4,0-8,3.6-8,8s3.6,8,8,8h3.9v3.9c0,4.4,3.6,8,8,8s8-3.6,8-8v-3.9h3.9c4.4,0,8-3.6,8-8S339.8,449.8,335.4,449.8z M35.6,217.8v3.9
	c0,4.4,3.6,8,8,8s8-3.6,8-8v-3.9h3.9c4.4,0,8-3.6,8-8s-3.6-8-8-8h-3.9v-3.9c0-4.4-3.6-8-8-8s-8,3.6-8,8v3.9h-3.9c-4.4,0-8,3.6-8,8
	s3.6,8,8,8H35.6z M276.5,442.5c-0.4,0.1-39.1,11.1-70.8,19.4c-28.4,7.5-50-16-51-17c-2.9-3.3-8-3.6-11.3-0.6
	c-3.3,2.9-3.6,8-0.6,11.3c1,1.1,21.7,23.9,51.6,23.9c4.9,0,10-0.6,15.3-2c31.8-8.4,70.7-19.4,71.1-19.5c4.3-1.2,6.7-5.6,5.5-9.9
	S280.7,441.3,276.5,442.5z"></path>
</svg>