<svg version="1.1" id="Layer_1" xmlns="http://www.w3.org/2000/svg" xmlns:xlink="http://www.w3.org/1999/xlink" x="0px" y="0px" viewBox="0 0 512 512" enable-background="new 0 0 512 512" xml:space="preserve">
<linearGradient id="SVGID_1_" gradientUnits="userSpaceOnUse" x1="285.4396" y1="459.1846" x2="287.7133" y2="121.5425" class="gradient-element">
	<stop offset="0" class="primary-color-gradient" style="stop-color: #FFA4ED"></stop>
	<stop offset="1" class="secondary-color-gradient" style="stop-color: #DB81DA"></stop>
</linearGradient>
<path fill="url(#SVGID_1_)" d="M209.7,461.4h-51.4l28.9-149.7c3.5-18.3,19.6-31.5,38.2-31.4l97.2,0.4c13.9,0,24.9-1.4,28.8-18.7
	c0.8-3.5,14.8-78,23.2-123.3c0.9-4.9,6.6-7.3,10.7-4.4c0,0,0,0,0.1,0c2.8,2,10.1,8.9,10.1,8.9c13.2,12.7,18.8,31.4,18.8,46.4
	c0,5.8-8.7,51.5-16,88.8l-0.5,1.7c-10.3,28.9-37.6,48.4-68.1,48.4h-92.4L209.7,461.4z"></path>
<path d="M422.2,189.6c0,2,0,6.7-11.8,67.9c-0.8,4.3-4.9,7-9.2,6.2c-4.3-0.8-7-4.9-6.2-9.2c10.3-53.4,11.5-63.2,11.5-65
	c0-19.3-9.1-36.8-24.4-47.7c-3.7,20.1-9.6,51.7-12.3,65.6c0,0.2-0.1,0.4-0.1,0.6l-0.5,1.7c0,0.2-0.1,0.4-0.2,0.5
	c-11.4,32.1-41.7,53.6-75.5,53.6H179.9l-24.3,126.5l-12.1,63.2h59.9l26.3-126.6c0.8-3.6,4-6.3,7.7-6.3h92.4
	c22.5,0,43.7-12.1,55.3-31.7c2.2-3.7,7-5,10.8-2.7c3.7,2.2,5,7,2.7,10.8c-14.4,24.3-40.8,39.4-68.9,39.4h-86L217.4,463
	c-0.8,3.6-4,6.3-7.7,6.3h-75.8c-2.3,0-4.6-1-6.1-2.9c-1.5-1.8-2.1-4.2-1.7-6.5l12.1-63.2H97.7c-4.3,0-7.9-3.5-7.9-7.9
	s3.5-7.9,7.9-7.9h43.7l24.3-126.6c0,0,0,0,0,0l25.5-132.8c0.7-3.7,3.9-6.4,7.7-6.4c0,0,0,0,0,0l129.7,0.1c4.3,0,7.8,3.5,7.8,7.9
	c0,4.3-3.5,7.8-7.9,7.8c0,0,0,0,0,0L205.5,131l-22.5,117.2h110.6c27.1,0,51.4-17.2,60.6-42.9l0.3-1.1c2.8-14.5,8.9-47.5,12.6-67.3
	l1.6-8.8c1.4-8.8,1.6-10.7,1.6-11c0-29.9-22.2-55-51.7-58.5l-149.4-0.1L114.7,342c-0.7,3.8-4,6.4-7.7,6.4c-0.5,0-1,0-1.5-0.1
	c-4.3-0.8-7-4.9-6.2-9.2L155,49.1c0.7-3.7,3.9-6.4,7.7-6.4c0,0,0,0,0,0L319,42.9c0.3,0,0.6,0,0.9,0c37.6,4.2,66,36.1,66,74.2
	c0,1.1-0.1,2.9-0.9,8C407.8,138.3,422.2,163,422.2,189.6z"></path>
<g>
	<path fill="#DB81DA" class="secondary-color" d="M344.8,472.3v-21.8h43.6v21.8H344.8z"></path>
	<path fill="#DB81DA" class="secondary-color" d="M19.9,21h60.9L19.9,82V21z M277.2,472.3h43.6v-21.8h-43.6V472.3z M469.3,131.2V154h21.8v-22.8H469.3z"></path>
</g>
<path d="M483.8,51.5c0,4.4-3.6,8-8,8H460v15.8c0,4.4-3.6,8-8,8s-8-3.6-8-8V59.5h-15.8c-4.4,0-8-3.6-8-8s3.6-8,8-8H444V27.7
	c0-4.4,3.6-8,8-8s8,3.6,8,8v15.8h15.8C480.2,43.5,483.8,47.1,483.8,51.5z M30.6,463.4c-5.9,0-10.8,4.8-10.8,10.8s4.8,10.8,10.8,10.8
	c5.9,0,10.8-4.8,10.8-10.8S36.6,463.4,30.6,463.4z M54.4,206.7c-7,0-13.7,2.7-18.7,7.7c-3.1,3.1-3.1,8.2,0,11.3
	c3.1,3.1,8.2,3.1,11.3,0c2-2,4.6-3,7.3-3s5.4,1.1,7.3,3s3,4.6,3,7.3s-1.1,5.4-3,7.3c-3.1,3.1-3.1,8.2,0,11.3
	c1.6,1.6,3.6,2.3,5.7,2.3c2,0,4.1-0.8,5.7-2.3c5-5,7.7-11.6,7.7-18.7c0-7-2.7-13.7-7.7-18.7C68.1,209.4,61.4,206.7,54.4,206.7z
	 M451.1,323.5c-1-4.2-5.2-6.8-9.4-5.9c-4.2,1-6.8,5.2-5.9,9.4l14.6,62.6l-52.6-20.7c-4-1.6-8.6,0.4-10.2,4.4
	c-1.6,4,0.4,8.6,4.4,10.2l66.5,26.2c0.9,0.4,1.9,0.5,2.9,0.5c1.9,0,3.7-0.7,5.1-1.9c2.2-1.9,3.2-4.9,2.5-7.7L451.1,323.5z
	 M111.7,82.5c-3.1-3.1-8.2-3.1-11.3,0l-2.7,2.7l-2.7-2.7c-3.1-3.1-8.2-3.1-11.3,0c-3.1,3.1-3.1,8.2,0,11.3l2.7,2.8l-2.7,2.8
	c-3.1,3.1-3.1,8.2,0,11.3c1.6,1.6,3.6,2.3,5.7,2.3s4.1-0.8,5.7-2.3l2.7-2.7l2.7,2.7c1.6,1.6,3.6,2.3,5.7,2.3c2,0,4.1-0.8,5.7-2.3
	c3.1-3.1,3.1-8.2,0-11.3l-2.7-2.8l2.7-2.8C114.9,90.7,114.9,85.7,111.7,82.5z M444.2,291.7c0-4.4-3.6-8-8-8H323.3c-4.4,0-8,3.6-8,8
	s3.6,8,8,8h112.8C440.6,299.7,444.2,296.2,444.2,291.7z M371.2,272.7h54.1c4.4,0,8-3.6,8-8s-3.6-8-8-8h-54.1c-4.4,0-8,3.6-8,8
	S366.8,272.7,371.2,272.7z"></path>
</svg>