<svg version="1.1" id="Layer_1" xmlns="http://www.w3.org/2000/svg" xmlns:xlink="http://www.w3.org/1999/xlink" x="0px" y="0px" viewBox="0 0 512 512" enable-background="new 0 0 512 512" xml:space="preserve">
<linearGradient id="SVGID_1_" gradientUnits="userSpaceOnUse" x1="266.5516" y1="324.8779" x2="266.5516" y2="108.904" class="gradient-element">
	<stop offset="0" class="primary-color-gradient" style="stop-color: #FFA4ED"></stop>
	<stop offset="1" class="secondary-color-gradient" style="stop-color: #DB81DA"></stop>
</linearGradient>
<path fill="url(#SVGID_1_)" d="M404.9,157.7v163.1c0,2.7-1.1,5.1-2.8,6.8c-1.7,1.7-4.1,2.8-6.8,2.8H137.9c-5.3,0-9.6-4.3-9.6-9.6
	v0.8c0-12.6,10.2-22.8,22.8-22.8h181.3c4.1,0,7.6-2.6,9-6.2l0.6-176.1c0-10.4,4.1-5.8,10.8-12.7c6.9-7.1,51.4,44.2,51.4,44.2
	C404.8,155.5,404.9,152.4,404.9,157.7z"></path>
<path d="M191.5,480.9c0,4.4-3.6,8-8,8H17.9c-4.4,0-8-3.6-8-8s3.6-8,8-8h165.6C187.9,472.9,191.5,476.4,191.5,480.9z M487.8,50.9H401
	c-4.4,0-8,3.6-8,8s3.6,8,8,8h86.8c4.4,0,8-3.6,8-8S492.2,50.9,487.8,50.9z M96.6,228c0,4.4,3.6,8,8,8H162c4.4,0,8-3.6,8-8
	s-3.6-8-8-8h-57.4C100.2,220,96.6,223.6,96.6,228z M45.6,193.4c0,4.4,3.6,8,8,8h86.1c4.4,0,8-3.6,8-8s-3.6-8-8-8H53.6
	C49.1,185.4,45.6,189,45.6,193.4z M479.2,389.3h-15.8v-15.8c0-4.4-3.6-8-8-8s-8,3.6-8,8v15.8h-15.8c-4.4,0-8,3.6-8,8s3.6,8,8,8h15.8
	v15.8c0,4.4,3.6,8,8,8s8-3.6,8-8v-15.8h15.8c4.4,0,8-3.6,8-8S483.6,389.3,479.2,389.3z M31.6,65.3h15.8v15.8c0,4.4,3.6,8,8,8
	s8-3.6,8-8V65.3h15.8c4.4,0,8-3.6,8-8s-3.6-8-8-8H63.4V33.5c0-4.4-3.6-8-8-8s-8,3.6-8,8v15.8H31.6c-4.4,0-8,3.6-8,8
	S27.2,65.3,31.6,65.3z"></path>
<g>
	<path fill="#FFA4ED" class="primary-color" d="M20.7,346.8h21.8v86.7H20.7V346.8z"></path>
	<path fill="#DB81DA" class="secondary-color" d="M435.6,491.8l56.9-56.9v56.9H435.6z"></path>
</g>
<path d="M413.6,185.4v246.1c0,4.9-4,8.9-8.9,8.9H280.6c-0.8,0-1.5-0.1-2.3-0.3c-0.7,0.2-1.5,0.3-2.3,0.3H124.9c-4.9,0-8.9-4-8.9-8.9
	V229c0-4.9,4-8.9,8.9-8.9s8.9,4,8.9,8.9v91h239.1c4.4,0,8,3.6,8,8s-3.6,8-8,8H133.7v86.7h142.4c0.8,0,1.5,0.1,2.3,0.3
	c0.7-0.2,1.5-0.3,2.3-0.3h115.3V185.4c0-4.9,4-8.9,8.9-8.9S413.6,180.6,413.6,185.4z M116,192.4V65.6c0-4.9,4-8.9,8.9-8.9h183
	c12.9,0,24.7,5.7,32.4,15.6c4,5.2,44.5,46.6,70.7,73.2c2.5,2.5,3.2,6.3,1.9,9.6c-1.4,3.3-4.6,5.4-8.2,5.4h-64.5
	c-4.9,0-8.9-4-8.9-8.9V88.8c-2.4-2.6-4.2-4.6-5-5.6c-4.4-5.7-11-8.8-18.5-8.8H133.7v118c0,4.9-4,8.9-8.9,8.9S116,197.3,116,192.4z
	 M349,142.8h34.5c-10-10.2-23.3-23.7-34.5-35.4V142.8z M182.5,261.1c-2.6,3.8-9.6,16.5-7.7,24.9c0.6,2.8,2.1,4.8,5,6.5
	c1.3,0.8,3.5,1.6,7.8,0.3c11.1-3.5,24.6-17.6,35.1-32.3c-6.9,2.3-11.2,3.9-11.3,3.9c-4.6,1.7-9.7-0.6-11.4-5.1
	c-1.7-4.6,0.6-9.7,5.1-11.4c1.3-0.5,13.6-5.1,31.2-10.1c0.1-0.3,0.3-0.6,0.4-0.8c6.6-14.8,14.1-33,20.6-52
	c-2.4-4.9-4.9-10.1-7.5-15.5c-16.3-34-20.7-54.7-14.1-67.2c5.1-9.6,14.9-11,19.6-11.7c0.4-0.1,0.7-0.1,1-0.2
	c8.7-1.4,17.4,1.4,23.3,7.4c8.4,8.5,11.1,22.5,7.9,41.5c-2.4,14.2-6.4,29.4-11.3,44.3c8.4,17.1,15.6,30.9,22.2,42
	c15.5-1.3,30.6-0.9,43.5,2.4c22.4,5.9,28.9,16.5,30.4,24.5c1.7,8.9-2.3,18-10.7,24.2c-10.6,7.8-24.9,8.9-36.6,2.7
	c-13.6-7.2-24.4-17.9-35.7-35c-14.2,1.9-28.5,5.1-40.9,8.4c-12.1,22.1-35,50.3-55.6,56.8c-3.5,1.1-6.6,1.5-9.5,1.5
	c-5.5,0-9.8-1.7-12.8-3.5c-7-4.2-11.6-10.4-13.2-18c-3.8-17.5,9-36.6,10.5-38.7c2.8-4,8.3-5,12.3-2.2
	C184.3,251.6,185.3,257.1,182.5,261.1z M309.8,242.6c7.6,9.9,15,16.6,23.6,21.1c6.9,3.6,13.8,1.6,17.7-1.3c2.7-2,4.3-4.6,3.9-6.6
	c-0.6-3-5.5-7.5-17.5-10.7C329.3,243,319.8,242.4,309.8,242.6z M268.2,206.9c-3.3,8.9-6.8,17.4-10.1,25.3c6.9-1.6,14.1-3,21.4-4.2
	C275.9,221.6,272.1,214.6,268.2,206.9z M264.9,160c2.2-8.1,4-16,5.2-23.7c2.9-17.2-0.7-23.8-3-26.1c-2-2.1-4.6-2.5-6.4-2.5
	c-0.7,0-1.3,0.1-1.6,0.1c-0.4,0.1-0.8,0.1-1.2,0.2c-4,0.6-5.8,1.1-6.6,2.5C250.1,112.9,247.5,123.3,264.9,160z M210.8,374.4h-13
	c-4.4,0-8,3.6-8,8s3.6,8,8,8h13c10.8,0,19.6-8.8,19.6-19.6s-8.8-19.6-19.6-19.6h-30c-4.4,0-8,3.6-8,8v46.3c0,4.4,3.6,8,8,8
	c4.4,0,8-3.6,8-8v-38.3h22c2,0,3.6,1.6,3.6,3.6S212.8,374.4,210.8,374.4z M351,367.2c4.4,0,8-3.6,8-8s-3.6-8-8-8h-41.6
	c-4.4,0-8,3.6-8,8v46.3c0,4.4,3.6,8,8,8s8-3.6,8-8v-15.2H341c4.4,0,8-3.6,8-8s-3.6-8-8-8h-23.6v-7.2H351z M263.5,397.6
	c-4.4,0-8,3.6-8,8s3.6,8,8,8c17.2,0,31.2-14,31.2-31.2c0-17.2-14-31.2-31.2-31.2h-18.4c-4.4,0-8,3.6-8,8v46.3c0,4.4,3.6,8,8,8
	s8-3.6,8-8v-38.3h10.4c8.4,0,15.2,6.8,15.2,15.2C278.7,390.8,271.9,397.6,263.5,397.6z"></path>
</svg>