<svg version="1.1" id="Layer_1" xmlns="http://www.w3.org/2000/svg" xmlns:xlink="http://www.w3.org/1999/xlink" x="0px" y="0px" viewBox="0 0 512 512" enable-background="new 0 0 512 512" xml:space="preserve">
<linearGradient id="SVGID_1_" gradientUnits="userSpaceOnUse" x1="313.5309" y1="363.568" x2="322.6214" y2="120.3998" class="gradient-element">
	<stop offset="0" class="primary-color-gradient" style="stop-color: #FFA4ED"></stop>
	<stop offset="1" class="secondary-color-gradient" style="stop-color: #DB81DA"></stop>
</linearGradient>
<path fill="url(#SVGID_1_)" d="M431.8,218.7c3.7,8,2.1,17.5-4.2,23.7L303.2,366.7c-8.7,8.7-22.9,8.7-31.6,0l-64.2-64.2
	c-8.2-8.2-8.2-21.5,0-29.7l134.3-134.3c8-8,21-8.2,29.2-0.5c3,2.8,6.1,5.8,9.5,9.2c17.8,17.8,27.3,30.1,32.3,37.8
	C421.9,199.1,427.9,210.6,431.8,218.7z"></path>
<path d="M184.4,452.8c-8.1,0-15.7-3.2-21.5-8.9l-79.1-79.1c-11.8-11.8-11.8-31.1,0-42.9l55.6-55.7c3.1-3.1,8.2-3.1,11.3,0l94.6,94.4
	c3.1,3.1,3.1,8.2,0,11.3c-3.1,3.1-8.2,3.1-11.3,0l-88.9-88.7l-49.9,50c-5.6,5.6-5.6,14.7,0,20.3l79.1,79.1c2.7,2.7,6.3,4.2,10.2,4.2
	c3.8,0,7.4-1.5,10.2-4.2l71.4-71.5c1.5-1.5,3.7-2.4,5.8-2.3c2.1,0,4.1,0.9,5.5,2.4c5.6,5.5,14.7,5.5,20.3-0.1l151.7-151.5
	c5.6-5.6,22.7-22.7-42.8-88.2c-65.5-65.5-82.6-48.4-88.3-42.8L273.6,123c-3.1,3.1-8.2,3.1-11.3,0c-3.1-3.1-3.1-8.2,0-11.3l44.6-44.6
	c30.5-30.5,77.9,9.9,110.9,42.8s73.3,80.3,42.8,110.8L308.9,372.4c-9.9,9.9-24.9,11.5-36.5,4.9l-66.5,66.6
	C200.1,449.6,192.5,452.8,184.4,452.8z M184.4,398.8c-2,0-4.1-0.8-5.7-2.3l-15.8-15.8c-3.1-3.1-3.1-8.2,0-11.3
	c3.1-3.1,8.2-3.1,11.3,0l10.2,10.2l4.5-4.5l-10.2-10.2c-3.1-3.1-3.1-8.2,0-11.3s8.2-3.1,11.3,0l15.8,15.8c1.5,1.5,2.3,3.5,2.3,5.7
	c0,2.1-0.8,4.2-2.3,5.7L190,396.4C188.4,398,186.4,398.8,184.4,398.8z M152.7,367.1c-2,0-4.1-0.8-5.7-2.3L131.2,349
	c-3.1-3.1-3.1-8.2,0-11.3c3.1-3.1,8.2-3.1,11.3,0l10.2,10.2l4.5-4.5l-10.2-10.2c-3.1-3.1-3.1-8.2,0-11.3c3.1-3.1,8.2-3.1,11.3,0
	l15.8,15.8c1.5,1.5,2.3,3.5,2.3,5.7s-0.8,4.2-2.3,5.7l-15.8,15.8C156.8,366.3,154.8,367.1,152.7,367.1z M255.8,358.9
	c-2,0-4.1-0.8-5.7-2.3l-94.9-94.9c-11.8-11.8-11.8-31.1,0-42.9l69.6-69.6c3.1-3.1,8.2-3.1,11.3,0c3.1,3.1,3.1,8.2,0,11.3L166.5,230
	c-5.6,5.6-5.6,14.7,0,20.3l94.9,94.9c3.1,3.1,3.1,8.2,0,11.3C259.9,358.1,257.8,358.9,255.8,358.9z"></path>
<path fill="#DB81DA" class="secondary-color" d="M48.4,411.1H26.6v-56.9h21.8V411.1z M48.4,429.3H26.6v36.9v20v1.8h56.9v-21.8H48.4V429.3z M101.7,466.2V488
	h56.9v-21.8H101.7z"></path>
<path d="M397.5,44.5c0-4.4,3.6-8,8-8c11.4,0,20.8-9.3,20.8-20.8c0-4.4,3.6-8,8-8s8,3.6,8,8c0,20.3-16.5,36.8-36.8,36.8
	C401,52.5,397.5,48.9,397.5,44.5z M484.2,52.5c4.4,0,8-3.6,8-8s-3.6-8-8-8c-11.4,0-20.8-9.3-20.8-20.8c0-4.4-3.6-8-8-8s-8,3.6-8,8
	C447.5,36,463.9,52.5,484.2,52.5z M484.2,57.7c-20.3,0-36.8,16.5-36.8,36.8c0,4.4,3.6,8,8,8s8-3.6,8-8c0-11.4,9.3-20.8,20.8-20.8
	c4.4,0,8-3.6,8-8S488.6,57.7,484.2,57.7z M405.5,73.7c11.4,0,20.8,9.3,20.8,20.8c0,4.4,3.6,8,8,8s8-3.6,8-8
	c0-20.3-16.5-36.8-36.8-36.8c-4.4,0-8,3.6-8,8S401,73.7,405.5,73.7z M87.8,65.7c0,14.6-11.8,26.4-26.4,26.4S35,80.3,35,65.7
	s11.8-26.4,26.4-26.4S87.8,51.2,87.8,65.7z M71.8,65.7c0-5.7-4.7-10.4-10.4-10.4S51,60,51,65.7s4.7,10.4,10.4,10.4
	S71.8,71.5,71.8,65.7z M430.5,348.5h-56c-4.4,0-8,3.6-8,8s3.6,8,8,8h56c4.4,0,8-3.6,8-8S434.9,348.5,430.5,348.5z M417,386.5
	c0-4.4-3.6-8-8-8h-73.8c-4.4,0-8,3.6-8,8s3.6,8,8,8H409C413.4,394.5,417,390.9,417,386.5z M467.3,300.3c4.4,0,8-3.6,8-8s-3.6-8-8-8
	h-3.9v-3.9c0-4.4-3.6-8-8-8s-8,3.6-8,8v3.9h-3.9c-4.4,0-8,3.6-8,8s3.6,8,8,8h3.9v3.9c0,4.4,3.6,8,8,8s8-3.6,8-8v-3.9H467.3z
	 M424.4,483.1c0,5-4.1,9-9,9s-9-4.1-9-9s4.1-9,9-9S424.4,478.1,424.4,483.1z M454.4,483.1c0,5-4.1,9-9,9s-9-4.1-9-9s4.1-9,9-9
	S454.4,478.1,454.4,483.1z M484.4,483.1c0,5-4.1,9-9,9s-9-4.1-9-9s4.1-9,9-9S484.4,478.1,484.4,483.1z M264,109.4h-49.5
	c-4.4,0-8,3.6-8,8s3.6,8,8,8H264c4.4,0,8-3.6,8-8S268.4,109.4,264,109.4z M258.2,146.8h-73.8c-4.4,0-8,3.6-8,8s3.6,8,8,8h73.8
	c4.4,0,8-3.6,8-8S262.6,146.8,258.2,146.8z"></path>
</svg>