<svg version="1.1" id="Layer_1" xmlns="http://www.w3.org/2000/svg" xmlns:xlink="http://www.w3.org/1999/xlink" x="0px" y="0px" viewBox="0 0 512 512" enable-background="new 0 0 512 512" xml:space="preserve">
<linearGradient id="SVGID_1_" gradientUnits="userSpaceOnUse" x1="288.7491" y1="436.3489" x2="288.7491" y2="93.8106" class="gradient-element">
	<stop offset="0" class="primary-color-gradient" style="stop-color: #FFA4ED"></stop>
	<stop offset="1" class="secondary-color-gradient" style="stop-color: #DB81DA"></stop>
</linearGradient>
<path fill="url(#SVGID_1_)" d="M298.2,218.4c-1.4,0-2.8-0.1-4.2-0.3l20.3-105c2.6-13.6,19.4-18.7,29.1-8.8
	c8.4,8.6,13.5,20.9,13.5,35.1c0,13.1-5.4,24.7-9.8,32.2l-19.7,32.8C321.9,213.8,312.3,218.4,298.2,218.4z M443.7,205.4
	c-0.1-12.6-14.9-19.4-24.7-11.5l-58.7,47.6c-9.4,7.6-6.6,22.9,5.1,26.2c2.8,0.8,5.7,1.2,8.7,1.2c9.5,0,21.6-5.3,36.2-15.9
	c33.4-24.1,33.4-39.3,33.4-47.4C443.7,205.6,443.7,205.5,443.7,205.4z M334.5,319.8c-20.4-30.7-39.7-44.5-67.9-47.5l-0.1,0
	c-8.3-0.9-15.5,5.7-15.5,14v49c0,26-21.1,47.2-47.2,47.2h-51.9c-9.9,0-18.1,7.9-18.2,17.8c0,0.1,0,0.1,0,0.2
	c0,19.6,8.4,40.5,103,42.7h34.3c94.6-2.2,103-23.1,103-42.7c0-21.3-19.8-50.9-35.6-74.7L334.5,319.8z"></path>
<path d="M271.1,451.2h-34.3c-0.1,0-0.1,0-0.2,0c-92-2.2-110.8-21.8-110.8-50.7c0-14.3,7-31.9,22.6-57.1c2.3-3.8,7.3-4.9,11-2.6
	c3.8,2.3,4.9,7.3,2.6,11c-8.7,14-20.2,34.2-20.2,48.7c0,11.3,0,32.5,95.1,34.7H271c95.1-2.3,95.1-23.4,95.1-34.7
	c0-18.9-19.8-48.5-34.2-70.1l-4.1-6.1c-21.9-32.9-41.2-44.5-73.9-44.5c-32,0-50.8,10.9-72,41.7c-2.5,3.6-7.5,4.6-11.1,2.1
	c-3.6-2.5-4.6-7.5-2.1-11.1c24-35,47.9-48.7,85.2-48.7c38.1,0,62.5,14.5,87.2,51.7l4.1,6.1c16.4,24.6,36.9,55.3,36.9,79
	c0,10.9-2.3,24.7-20.1,34.8c-16.9,9.6-46.6,14.8-90.8,15.9C271.3,451.2,271.2,451.2,271.1,451.2z M374.2,277
	c-21.9,0-39.6-17.8-39.6-39.6c0-7.3,2-14.3,6.2-21.2l18.9-31.5c9.9-16.5,24.6-24.8,43.8-24.8c13.4,0,25.6,4.6,34.4,12.9
	c9,8.4,13.9,20.2,13.9,33.1c0,9.6,0,27.4-36.8,53.9C398.9,271.3,385.5,277,374.2,277z M403.4,175.8c-13.6,0-23.1,5.4-30.1,17.1
	l-18.9,31.5c-2.7,4.5-3.9,8.5-3.9,13c0,13,10.6,23.6,23.6,23.6c5.3,0,15.1-2.5,31.5-14.3c0,0,0,0,0,0c30.1-21.8,30.1-34.2,30.1-40.9
	C435.8,188.1,422.5,175.8,403.4,175.8z M133.8,277c-11.4,0-24.7-5.7-40.9-17.4c-36.7-26.5-36.7-44.3-36.7-53.9
	c0-12.9,4.9-24.6,13.9-33.1c8.8-8.3,21.1-12.9,34.4-12.9c19.2,0,34,8.4,43.8,24.9l0.3,0.5l18.6,31.1c4.2,6.9,6.2,13.9,6.2,21.2
	C173.4,259.2,155.6,277,133.8,277z M104.5,175.8c-19,0-32.3,12.3-32.3,30c0,6.7,0,19.2,30.1,40.9c16.4,11.9,26.2,14.3,31.5,14.3
	c13,0,23.6-10.6,23.6-23.6c0-4.5-1.2-8.5-3.9-13l-18.8-31.5C127.7,181.2,118.1,175.8,104.5,175.8z M298.2,226.4
	c-21.9,0-39.6-17.8-39.6-39.6v-50.6c0-29.8,23.7-52.3,55.1-52.3c29.2,0,51.3,23.9,51.3,55.6c0,14.9-6,28-11,36.3l-19.7,32.8
	C327.3,220.4,315.1,226.4,298.2,226.4z M313.7,99.8c-22.3,0-39.1,15.6-39.1,36.3v50.6c0,13,10.6,23.6,23.6,23.6
	c14.7,0,19.8-5.7,22.4-10l19.7-32.8c4-6.6,8.7-16.9,8.7-28.1C349,116.9,333.8,99.8,313.7,99.8z M209.7,226.4c-16.9,0-29-6-36.1-17.8
	l-19.7-32.8c-5-8.4-11-21.4-11-36.3c0-31.7,22-55.6,51.3-55.6c31.4,0,55.1,22.5,55.1,52.3v50.6C249.3,208.6,231.5,226.4,209.7,226.4
	z M194.2,99.8c-20.1,0-35.3,17-35.3,39.6c0,11.2,4.7,21.5,8.7,28.1l19.7,32.8c2.6,4.3,7.7,10,22.4,10c13,0,23.6-10.6,23.6-23.6
	v-50.6C233.3,115.4,216.5,99.8,194.2,99.8z"></path>
<g>
	<path fill="#DB81DA" class="secondary-color" d="M489.1,42.3v46.3h-22.5V42.3H489.1z"></path>
	<path fill="#FFA4ED" class="primary-color" d="M443.7,42.3v46.3h-21.6V42.3H443.7z"></path>
</g>
<path d="M232.6,347.6c0,4.4-3.6,8-8,8h-86.8c-4.4,0-8-3.6-8-8s3.6-8,8-8h86.8C229.1,339.6,232.6,343.2,232.6,347.6z M187.7,319.5
	c0-4.4-3.6-8-8-8h-57.4c-4.4,0-8,3.6-8,8s3.6,8,8,8h57.4C184.1,327.5,187.7,323.9,187.7,319.5z M25.6,47.7c5,0,9-4.1,9-9s-4.1-9-9-9
	s-9,4.1-9,9S20.6,47.7,25.6,47.7z M56,47.6c4.9,0,9-4,9-9s-4-9-9-9s-9,4-9,9S51.1,47.6,56,47.6z M34.6,68.3c0-5-4.1-9-9-9
	s-9,4.1-9,9s4.1,9,9,9S34.6,73.3,34.6,68.3z M462.5,339.6h-59.2c-4.4,0-8,3.6-8,8s3.6,8,8,8h59.2c4.4,0,8-3.6,8-8
	S467,339.6,462.5,339.6z M74.6,436.9c0,14.6-11.8,26.4-26.4,26.4s-26.4-11.8-26.4-26.4s11.8-26.4,26.4-26.4S74.6,422.3,74.6,436.9z
	 M58.6,436.9c0-5.7-4.7-10.4-10.4-10.4s-10.4,4.7-10.4,10.4s4.7,10.4,10.4,10.4S58.6,442.6,58.6,436.9z M449.8,398.4
	c-4.1-1.5-8.7,0.6-10.3,4.8l-4.9,13.3c-9.3,25.3-27.7,45.5-52,56.8c-4,1.9-5.7,6.6-3.9,10.6c1.4,2.9,4.2,4.6,7.3,4.6
	c1.1,0,2.3-0.2,3.4-0.7c28.2-13.1,49.6-36.5,60.3-65.8l4.9-13.3C456.1,404.5,454,399.9,449.8,398.4z"></path>
</svg>