<svg version="1.1" id="Layer_1" xmlns="http://www.w3.org/2000/svg" xmlns:xlink="http://www.w3.org/1999/xlink" x="0px" y="0px" viewBox="0 0 512 512" enable-background="new 0 0 512 512" xml:space="preserve">
<linearGradient id="SVGID_1_" gradientUnits="userSpaceOnUse" x1="149.6525" y1="313.8905" x2="390.0822" y2="313.8905" class="gradient-element">
	<stop offset="0" class="primary-color-gradient" style="stop-color: #FFA4ED"></stop>
	<stop offset="1" class="secondary-color-gradient" style="stop-color: #DB81DA"></stop>
</linearGradient>
<path fill="url(#SVGID_1_)" d="M360.7,144.1c-36.5,0-66.4,30.6-69.6,69.7v105.2c0,10.6-2.5,20.6-6.9,29.4c7.7,1.6,14.4,0,19.4-6.3
	c3.1-3.9,6.1-8.3,9.4-11.5c2-1.9,4.2-3.4,6.7-4.1c2.5-0.7,5.3-0.7,8.6,0.6c6.8,1.7,44,16.3,31.8,40.3c-6.8,13.4-22.1,24-36.1,27.5
	c-18.7,3.5-43.2-4.5-66.4-18.2c-9.7,5.5-20.9,8.7-32.8,8.7h-11.8c-19.8,0-38.6,9.8-49.3,26.4c-8.9,13.8-14.1,30.7-14.1,48.9v23.1
	h240.4V144.1H360.7z"></path>
<path d="M398.1,235.4V455c0,4.4-3.6,8-8,8s-8-3.6-8-8V235.4c0-4.4,3.6-8,8-8S398.1,231,398.1,235.4z M390.1,475.7H134.4V168.7
	c0-4.4-3.6-8-8-8s-8,3.6-8,8v306.9h-29c-17.5,0-31.7-16.8-31.7-37.4v-295c0-20.6,14.2-37.4,31.7-37.4h300.7c4.4,0,8-3.6,8-8
	s-3.6-8-8-8H89.4c-26.3,0-47.7,23.9-47.7,53.4v295c0,29.4,21.4,53.4,47.7,53.4h300.7c4.4,0,8-3.6,8-8S394.5,475.7,390.1,475.7z
	 M390.1,136.1h-295c-4.4,0-8,3.6-8,8s3.6,8,8,8h287v49.7c0,4.4,3.6,8,8,8s8-3.6,8-8v-57.7C398.1,139.7,394.5,136.1,390.1,136.1z
	 M226.7,281.4c-1.4,1.8-2.6,3.8-3.5,5.7c-1.8,4,0,8.8,4,10.6c4,1.8,8.8,0,10.6-4c0.4-0.8,0.9-1.6,1.5-2.4c0.8-1,1.7-2.1,2.5-3.1
	c6.5-7.8,16.2-19.6,7.1-33.5c-3.3-6.1-17.3-26.4-35.3-30c-8.4-1.7-16.4,0.5-23.3,6.4c-12.5,10.6-21,29.7-21.2,47.5
	c0,0.2,0,0.3,0,0.5c1.5,31.1,31.3,65.2,58.6,86.6c24.2,19.2,58.4,38,87.2,38c3.7,0,7.2-0.3,10.7-0.9c0.2,0,0.3-0.1,0.5-0.1
	c17.3-4.3,33.8-17,41.3-31.6c4.1-8.1,4.4-16.4,0.8-24.2c-7.7-16.7-30.7-25.6-37.4-27.3c-4.5-1.6-9-1.8-13.2-0.6c-3.5,1-6.8,3-10,6
	c-3,2.8-5.4,6.1-7.8,9.3c-0.8,1-1.6,2.1-2.4,3.1c-6,7.5-18.8,3.7-38-11.5c-4.3-3.4-8-6.7-11.1-9.7c-2.9-2.8-5.2-5.6-7-8.1
	c-2.5-3.6-7.5-4.5-11.1-2c-3.6,2.5-4.5,7.5-2,11.1c2.3,3.3,5.3,6.8,8.8,10.3c3.5,3.5,7.7,7.2,12.5,11c11.8,9.3,21.9,15.1,30.8,17.5
	c15.6,4.3,24.8-2.3,29.7-8.6c0.9-1.1,1.7-2.2,2.6-3.4c2.1-2.8,4.1-5.4,6.1-7.3c1.3-1.2,2.5-2,3.5-2.3c0.6-0.2,1.7-0.3,3.5,0.4
	c0.3,0.1,0.6,0.2,0.9,0.3c4.4,1.1,22.4,8.4,27.1,18.6c1.5,3.3,1.4,6.6-0.5,10.2c-5.3,10.5-17.9,20-30.7,23.3
	c-20.9,3.8-54.1-9.5-84.8-33.9c-30.8-24.2-51.4-53.4-52.5-74.6c0.2-13.2,6.6-27.6,15.6-35.2c3.2-2.7,6.3-3.6,9.8-2.9
	c11,2.2,22.3,18,24.4,22.1c0.1,0.3,0.3,0.6,0.5,0.9c2.4,3.5,1.4,6-5.9,14.8C228.6,279.2,227.6,280.3,226.7,281.4z"></path>
<g>
	<path fill="#DB81DA" class="secondary-color" d="M179.8,24.4h102.6v21.8H179.8V24.4z"></path>
	<path fill="#FFA4ED" class="primary-color" d="M58.9,24.4h102.6v21.8H58.9V24.4z"></path>
</g>
<path d="M454.7,81.7c0-5.7-4.7-10.4-10.4-10.4c-4.4,0-8-3.6-8-8s3.6-8,8-8c14.6,0,26.4,11.8,26.4,26.4s-11.8,26.4-26.4,26.4
	c-4.4,0-8-3.6-8-8s3.6-8,8-8C450,92.1,454.7,87.5,454.7,81.7z M425.6,201.8c0-4.4-3.6-8-8-8h-55c-4.4,0-8,3.6-8,8s3.6,8,8,8h55
	C422,209.8,425.6,206.2,425.6,201.8z M471,227.4h-92.9c-4.4,0-8,3.6-8,8s3.6,8,8,8H471c4.4,0,8-3.6,8-8S475.4,227.4,471,227.4z"></path>
</svg>