<svg version="1.1" id="Layer_1" xmlns="http://www.w3.org/2000/svg" xmlns:xlink="http://www.w3.org/1999/xlink" x="0px" y="0px" viewBox="0 0 512 512" enable-background="new 0 0 512 512" xml:space="preserve">
<linearGradient id="SVGID_1_" gradientUnits="userSpaceOnUse" x1="270.7951" y1="449.6603" x2="270.7951" y2="67.2564" class="gradient-element">
	<stop offset="0" class="primary-color-gradient" style="stop-color: #FFA4ED"></stop>
	<stop offset="1" class="secondary-color-gradient" style="stop-color: #DB81DA"></stop>
</linearGradient>
<path fill="url(#SVGID_1_)" d="M161,76c0,0,35,64,0,88s-34.5,44.9-32,54c5,18,115,161,204,189c16.9,5.3,55,8,63-32c0,0,22-31,59-4
	c0,0-26.6,54.6-58.8,66.8c-32.2,12.2-41.8,10.8-77.5,0C283,427,193.5,347,190.8,344.5S106,264,93,221s-4-83.9,7-99S141,85,161,76z"></path>
<path d="M358.7,455c-17.5,0-35.7-5.2-54.4-15.5c-99.9-55.2-204.3-167.8-219.7-221.2c-10.8-37.6-8.6-70.3,6.5-97.2
	c22.5-40,65.4-52,67.2-52.5c2.8-0.8,5.9,0.1,7.9,2.2c2.7,2.8,65.3,68.9,81.3,101.8c1.5,3.1,0.9,6.7-1.5,9.1
	c-1.3,1.3-33,33-48.6,46.1c-4,3.4-6.3,6.6-6.5,9c-0.2,2.7,2.4,5.8,4.6,8.4c0.9,1,1.7,2,2.4,3c8.2,11.5,56.1,72.2,84.5,83.5
	c16.5,6.6,20.4,2.1,26.8-5.3l0.7-0.8c7.3-8.3,38.9-39.7,40.2-41c2.5-2.5,6.5-3.1,9.6-1.3c0.4,0.2,9,5.2,32,22.9
	c3.5,2.7,4.1,7.7,1.5,11.2c-2.7,3.5-7.7,4.1-11.2,1.5c-12.4-9.6-20.5-15.3-25.1-18.4c-9.2,9.2-29.6,29.6-34.9,35.7l-0.7,0.8
	c-7.5,8.6-17.8,20.4-44.8,9.6c-36.4-14.5-91-88.3-91.5-89.1c-0.3-0.5-1-1.2-1.6-2c-3.4-4-9.2-10.8-8.4-20.1
	c0.6-6.9,4.6-13.6,12.1-19.9c11.8-9.9,34.1-31.9,43.4-41c-15.9-27.7-59.7-75.5-72.4-89.1c-10.6,4-37.9,16.4-53.1,43.6
	c-12.9,23-14.6,51.5-5,84.8c6.7,23.4,35.3,63.1,74.6,103.5c43,44.2,93.1,83.6,137.4,108.1c24.9,13.8,48.6,17,70.3,9.5
	c35.3-12.2,56.6-49.2,63.4-62.5c-1.6-1.5-3.2-3.1-4.9-4.6c-2.4-2.2-4.2-3.9-5.7-5.3c-4.8-4.5-6.6-6.2-13.8-12.2
	c-3.4-2.8-3.9-7.9-1.1-11.3c2.8-3.4,7.9-3.9,11.3-1.1c7.6,6.3,9.6,8.2,14.6,12.9c1.5,1.4,3.3,3.1,5.6,5.3c3.2,3,6.3,5.9,9.2,8.8
	c2.4,2.3,3.1,5.8,1.8,8.8c-1,2.4-25.4,59.1-75.2,76.3C378.2,453.4,368.6,455,358.7,455z"></path>
<path d="M487.2,351h-86.8c-4.4,0-8-3.6-8-8s3.6-8,8-8h86.8c4.4,0,8,3.6,8,8S491.6,351,487.2,351z M434.1,314.9c0-4.4-3.6-8-8-8
	h-57.4c-4.4,0-8,3.6-8,8s3.6,8,8,8h57.4C430.5,322.9,434.1,319.3,434.1,314.9z M415.4,163.5c-4.4,0-8,3.6-8,8
	c0,11.4-9.3,20.8-20.8,20.8c-4.4,0-8,3.6-8,8s3.6,8,8,8c20.3,0,36.8-16.5,36.8-36.8C423.4,167,419.8,163.5,415.4,163.5z
	 M436.7,163.5c-4.4,0-8,3.6-8,8c0,20.3,16.5,36.8,36.8,36.8c4.4,0,8-3.6,8-8s-3.6-8-8-8c-11.4,0-20.8-9.3-20.8-20.8
	C444.7,167,441.1,163.5,436.7,163.5z M465.4,213.5c-20.3,0-36.8,16.5-36.8,36.8c0,4.4,3.6,8,8,8s8-3.6,8-8
	c0-11.4,9.3-20.7,20.8-20.7c4.4,0,8-3.6,8-8C473.4,217,469.8,213.5,465.4,213.5z M386.7,213.5c-4.4,0-8,3.6-8,8c0,4.4,3.6,8,8,8
	c11.4,0,20.8,9.3,20.8,20.8c0,4.4,3.6,8,8,8s8-3.6,8-8C423.4,229.9,406.9,213.5,386.7,213.5z M71.4,388.6c-4.4,0-8,3.6-8,8
	c0,11.4-9.3,20.8-20.8,20.8c-4.4,0-8,3.6-8,8s3.6,8,8,8c20.3,0,36.8-16.5,36.8-36.8C79.4,392.2,75.8,388.6,71.4,388.6z M121.4,417.3
	c-11.4,0-20.8-9.3-20.8-20.8c0-4.4-3.6-8-8-8s-8,3.6-8,8c0,20.3,16.5,36.8,36.8,36.8c4.4,0,8-3.6,8-8S125.8,417.3,121.4,417.3z
	 M121.4,438.6c-20.3,0-36.8,16.5-36.8,36.8c0,4.4,3.6,8,8,8s8-3.6,8-8c0-11.4,9.3-20.8,20.8-20.8c4.4,0,8-3.6,8-8
	S125.8,438.6,121.4,438.6z M42.7,438.6c-4.4,0-8,3.6-8,8s3.6,8,8,8c11.4,0,20.8,9.3,20.8,20.8c0,4.4,3.6,8,8,8s8-3.6,8-8
	C79.4,455.1,62.9,438.6,42.7,438.6z M404.2,128.5c0-4.4-3.6-8-8-8H258.6c-4.4,0-8,3.6-8,8s3.6,8,8,8h137.6
	C400.6,136.5,404.2,132.9,404.2,128.5z M252.1,56.1h15.8c4.4,0,8-3.6,8-8s-3.6-8-8-8h-15.8V24.3c0-4.4-3.6-8-8-8s-8,3.6-8,8v15.8
	h-15.8c-4.4,0-8,3.6-8,8s3.6,8,8,8h15.8v15.8c0,4.4,3.6,8,8,8s8-3.6,8-8V56.1z M299.1,80.6h137.6c4.4,0,8-3.6,8-8s-3.6-8-8-8H299.1
	c-4.4,0-8,3.6-8,8S294.7,80.6,299.1,80.6z M434.5,476.3c0,5-4.1,9-9,9s-9-4.1-9-9s4.1-9,9-9S434.5,471.3,434.5,476.3z M464.5,476.3
	c0,5-4.1,9-9,9s-9-4.1-9-9s4.1-9,9-9S464.5,471.3,464.5,476.3z M494.5,476.3c0,5-4.1,9-9,9s-9-4.1-9-9s4.1-9,9-9
	S494.5,471.3,494.5,476.3z"></path>
<g>
	<path fill="#DB81DA" class="secondary-color" d="M42.7,84.9H28.1V24.3h14.6V84.9z M42.7,110.8H28.1v60.6h14.6V110.8z M42.7,197.3H28.1V258h14.6V197.3z"></path>
	<path fill="#FFA4ED" class="primary-color" d="M42.7,344.5H28.1v-60.6h14.6V344.5z"></path>
</g>
</svg>