<svg version="1.1" id="Layer_1" xmlns="http://www.w3.org/2000/svg" xmlns:xlink="http://www.w3.org/1999/xlink" x="0px" y="0px" viewBox="0 0 512 512" enable-background="new 0 0 512 512" xml:space="preserve">
<g>
	<linearGradient id="SVGID_1_" gradientUnits="userSpaceOnUse" x1="255.7534" y1="459.2214" x2="255.7534" y2="107.2214" class="gradient-element">
		<stop offset="0" class="primary-color-gradient" style="stop-color: #FFA4ED"></stop>
		<stop offset="1" class="secondary-color-gradient" style="stop-color: #DB81DA"></stop>
	</linearGradient>
	<path fill="url(#SVGID_1_)" d="M484.5,284.6v156.5H27V434c0-46.5,37.7-44.6,84.2-44.6h72.3c19.2,17.2,44.5,27.7,72.2,27.7
		c37.5,0,70.6-19.1,90-48.2h78.5c6.6,0,12-5.4,12-12v0c0-6.6-5.4-12-12-12h-66.5c4-11.3,6.3-23.4,6.3-36.1
		c0-55.1-41.4-100.8-94.7-107.5v-26.6c0-25.7,20.8-46.5,46.5-46.5h0.8c33.3,0,39.5,23.1,42.1,33l6.6,24.6
		c15.6,7.2,62.4,28.6,76.3,34.7C458.8,227.9,484.5,239.1,484.5,284.6z"></path>
	<linearGradient id="SVGID_2_" gradientUnits="userSpaceOnUse" x1="289.7603" y1="376.7368" x2="289.7603" y2="240.7092">
		<stop offset="0" class="primary-color-gradient" style="stop-color: #FFA4ED"></stop>
		<stop offset="1" class="secondary-color-gradient" style="stop-color: #DB81DA"></stop>
	</linearGradient>
	<path fill="url(#SVGID_2_)" d="M255.8,240.7c37.5,0,68,30.5,68,68s-30.5,68-68,68V240.7z"></path>
</g>
<path d="M255.8,425.1c-37.4,0-72.3-17.9-94.2-48.2H27c-4.4,0-8-3.6-8-8s3.6-8,8-8h138.7c2.7,0,5.2,1.3,6.6,3.5
	c18.7,27.9,49.9,44.6,83.4,44.6c33.5,0,64.6-16.7,83.4-44.6c1.5-2.2,4-3.5,6.6-3.5h78.5c2.2,0,4-1.8,4-4s-1.8-4-4-4h-66.5
	c-2.6,0-5-1.3-6.5-3.4s-1.9-4.8-1-7.3c3.9-11,5.9-22.2,5.9-33.4c0-55.3-45-100.3-100.3-100.3c-55.3,0-100.3,45-100.3,100.3
	c0,11.2,2,22.5,5.9,33.4c0.9,2.4,0.5,5.2-1,7.3c-1.5,2.1-3.9,3.4-6.5,3.4H63c-4.4,0-8-3.6-8-8s3.6-8,8-8h79.9
	c-2.4-9.3-3.5-18.7-3.5-28.1c0-64.2,52.2-116.3,116.3-116.3c64.2,0,116.3,52.2,116.3,116.3c0,9.4-1.2,18.8-3.5,28.1h55.7
	c11,0,20,9,20,20s-9,20-20,20H350C328,407.1,293.1,425.1,255.8,425.1z M492.5,441.1V284.6c0-50.8-29.7-63.7-47.5-71.5
	c-13.1-5.7-55.4-25.1-72.8-33.1l-5.6-21c-2.6-9.6-10.4-38.9-49.9-38.9H194.8c-39.4,0-46.5,26.3-49.9,38.9l-9.8,36.7
	c-1.1,4.3,1.4,8.7,5.7,9.8c4.3,1.1,8.7-1.4,9.8-5.7l9.8-36.7c3.2-12.1,7.3-27.1,34.4-27.1h121.9c27.2,0,31.9,17.6,34.4,27.1
	l6.6,24.6c0.6,2.3,2.2,4.2,4.4,5.2c14.3,6.6,62.3,28.6,76.5,34.8c16.9,7.4,37.9,16.5,37.9,56.8v148.5H35v-64.2c0-4.4-3.6-8-8-8
	s-8,3.6-8,8v72.2c0,4.4,3.6,8,8,8h457.4C488.9,449.1,492.5,445.6,492.5,441.1z M35,339.9v-55.2c0-40.3,23.2-50.4,40.2-57.8
	c12-5.2,21.5-9.6,27.4-12.4c2.8-1.3,4.6-4.1,4.6-7.2v-22.9h16.1c4.4,0,8-3.6,8-8s-3.6-8-8-8H99.3c-4.4,0-8,3.6-8,8v25.8
	c-5.7,2.6-13.4,6.1-22.5,10.1C51.4,219.8,19,233.9,19,284.6v55.2c0,4.4,3.6,8,8,8S35,344.3,35,339.9z M331.8,308.7
	c0-41.9-34.1-76-76-76c-41.9,0-76,34.1-76,76c0,4.4,3.6,8,8,8s8-3.6,8-8c0-33.1,26.9-60,60-60s60,26.9,60,60s-26.9,60-60,60
	c-4.4,0-8,3.6-8,8s3.6,8,8,8C297.7,384.7,331.8,350.6,331.8,308.7z"></path>
<path d="M30.4,44.4c0-4.4,3.6-8,8-8h3.9v-3.9c0-4.4,3.6-8,8-8s8,3.6,8,8v3.9h3.9c4.4,0,8,3.6,8,8s-3.6,8-8,8h-3.9v3.9
	c0,4.4-3.6,8-8,8s-8-3.6-8-8v-3.9h-3.9C33.9,52.4,30.4,48.8,30.4,44.4z M489.3,103.5c-20.3,0-36.8,16.5-36.8,36.8c0,4.4,3.6,8,8,8
	s8-3.6,8-8c0-11.4,9.3-20.8,20.8-20.8c4.4,0,8-3.6,8-8S493.7,103.5,489.3,103.5z M410.5,119.5c11.4,0,20.8,9.3,20.8,20.8
	c0,4.4,3.6,8,8,8s8-3.6,8-8c0-20.3-16.5-36.8-36.8-36.8c-4.4,0-8,3.6-8,8S406.1,119.5,410.5,119.5z M410.5,98.3
	c20.3,0,36.8-16.5,36.8-36.8c0-4.4-3.6-8-8-8s-8,3.6-8,8c0,11.4-9.3,20.8-20.8,20.8c-4.4,0-8,3.6-8,8S406.1,98.3,410.5,98.3z
	 M489.3,98.3c4.4,0,8-3.6,8-8s-3.6-8-8-8c-11.4,0-20.8-9.3-20.8-20.8c0-4.4-3.6-8-8-8s-8,3.6-8,8C452.5,81.8,469,98.3,489.3,98.3z
	 M480.6,472.9h-172c-4.4,0-8,3.6-8,8s3.6,8,8,8h172c4.4,0,8-3.6,8-8S485,472.9,480.6,472.9z M111.5,472.9h-3.9V469c0-4.4-3.6-8-8-8
	s-8,3.6-8,8v3.9h-3.9c-4.4,0-8,3.6-8,8s3.6,8,8,8h3.9v3.9c0,4.4,3.6,8,8,8s8-3.6,8-8v-3.9h3.9c4.4,0,8-3.6,8-8
	S115.9,472.9,111.5,472.9z M177.4,36h-59.2c-4.4,0-8,3.6-8,8s3.6,8,8,8h59.2c4.4,0,8-3.6,8-8S181.8,36,177.4,36z M141.6,103.5h-123
	c-4.4,0-8,3.6-8,8s3.6,8,8,8h123c4.4,0,8-3.6,8-8S146,103.5,141.6,103.5z"></path>
<path fill="#DB81DA" class="secondary-color" d="M388.5,21.2v46.3H366V21.2H388.5z M276.2,21.2v46.3h22.5V21.2H276.2z"></path>
<path fill="#FFA4ED" class="primary-color" d="M343.1,21.2v46.3h-21.6V21.2H343.1z M231.7,21.2v46.3h21.6V21.2H231.7z"></path>
</svg>