<svg version="1.1" id="Layer_1" xmlns="http://www.w3.org/2000/svg" xmlns:xlink="http://www.w3.org/1999/xlink" x="0px" y="0px" viewBox="0 0 512 512" enable-background="new 0 0 512 512" xml:space="preserve">
<linearGradient id="SVGID_1_" gradientUnits="userSpaceOnUse" x1="264.7885" y1="366.261" x2="264.7885" y2="78.6408" class="gradient-element">
	<stop offset="0" class="primary-color-gradient" style="stop-color: #FFA4ED"></stop>
	<stop offset="1" class="secondary-color-gradient" style="stop-color: #DB81DA"></stop>
</linearGradient>
<path fill="url(#SVGID_1_)" d="M131.1,183.1c0-17.7,14.4-32,32-32c17.7,0,32.1,14.4,32.1,32c0,17.7-14.4,32.1-32.1,32.1
	C145.4,215.2,131.1,200.8,131.1,183.1z M374.7,209.3c-19.5-3.6-23.3-19.9-78.1,19.8c-54.7,39.7-98.2,89.1-150.2,87
	c-52-2.1-73.7,2.6-73.7,2.6v67.8h379.7l4.4-130.5C456.8,256,394.2,212.9,374.7,209.3z"></path>
<path d="M456.8,394.5H72.7c-4.4,0-8-3.6-8-8v-67.8c0-4.4,3.6-8,8-8h45.2c37.9,0,74.7-14.2,112.7-43.4l6.4-4.9
	c37.4-28.8,83.9-64.7,118.2-64.7c28,0,61.3,23.1,84.2,42.5c3.4,2.8,3.8,7.9,1,11.3c-2.8,3.4-7.9,3.8-11.3,1
	c-29.6-25-55.9-38.7-73.9-38.7c-28.8,0-74.8,35.5-108.4,61.4l-6.4,4.9c-40.9,31.4-80.9,46.7-122.4,46.7H80.7v51.8h368.1V348
	c0-4.4,3.6-8,8-8s8,3.6,8,8v38.4C464.8,390.9,461.3,394.5,456.8,394.5z M456.8,326c-4.4,0-8-3.6-8-8V100.7H80.7v195.3
	c0,4.4-3.6,8-8,8s-8-3.6-8-8V92.7c0-4.4,3.6-8,8-8h384.1c4.4,0,8,3.6,8,8V318C464.8,322.5,461.3,326,456.8,326z M163.1,223.2
	c-22.1,0-40-18-40-40.1c0-22.1,18-40,40-40c22.1,0,40.1,18,40.1,40C203.2,205.2,185.2,223.2,163.1,223.2z M163.1,159.1
	c-13.3,0-24,10.8-24,24c0,13.3,10.8,24.1,24,24.1c13.3,0,24.1-10.8,24.1-24.1C187.2,169.9,176.4,159.1,163.1,159.1z"></path>
<g>
	<path fill="#DB81DA" class="secondary-color" d="M23.6,431.7l60.9,60.9H23.6V431.7z"></path>
	<path fill="#FFA4ED" class="primary-color" d="M346.9,475.1h-34.7v-34.7h34.7V475.1z M402.2,440.4h-34.7v34.7h34.7V440.4z"></path>
	<path fill="#FFA4ED" class="primary-color" d="M457.4,475.1h-34.7v-34.7h34.7V475.1z"></path>
</g>
<path d="M496.8,318c0,4.4-3.6,8-8,8h-43c-4.4,0-8-3.6-8-8s3.6-8,8-8h43C493.3,310,496.8,313.6,496.8,318z M467.3,340h-73.8
	c-4.4,0-8,3.6-8,8s3.6,8,8,8h73.8c4.4,0,8-3.6,8-8S471.8,340,467.3,340z M151.5,38.2c0-4.4-3.6-8-8-8H21.4c-4.4,0-8,3.6-8,8
	s3.6,8,8,8h122.1C147.9,46.2,151.5,42.6,151.5,38.2z M178.9,439.2H175v-3.9c0-4.4-3.6-8-8-8s-8,3.6-8,8v3.9h-3.9c-4.4,0-8,3.6-8,8
	s3.6,8,8,8h3.9v3.9c0,4.4,3.6,8,8,8s8-3.6,8-8v-3.9h3.9c4.4,0,8-3.6,8-8S183.3,439.2,178.9,439.2z M444.9,46.2h3.9v3.9
	c0,4.4,3.6,8,8,8s8-3.6,8-8v-3.9h3.9c4.4,0,8-3.6,8-8s-3.6-8-8-8h-3.9v-3.9c0-4.4-3.6-8-8-8s-8,3.6-8,8v3.9h-3.9c-4.4,0-8,3.6-8,8
	S440.5,46.2,444.9,46.2z"></path>
</svg>