<svg version="1.1" id="Layer_1" xmlns="http://www.w3.org/2000/svg" xmlns:xlink="http://www.w3.org/1999/xlink" x="0px" y="0px" viewBox="0 0 512 512" enable-background="new 0 0 512 512" xml:space="preserve">
<linearGradient id="SVGID_1_" gradientUnits="userSpaceOnUse" x1="294.2922" y1="413.4753" x2="294.2922" y2="113.4498" class="gradient-element">
	<stop offset="0" class="primary-color-gradient" style="stop-color: #FFA4ED"></stop>
	<stop offset="1" class="secondary-color-gradient" style="stop-color: #DB81DA"></stop>
</linearGradient>
<path fill-rule="evenodd" clip-rule="evenodd" fill="url(#SVGID_1_)" d="M359.7,263.3h40c0,81.3-66.2,147.1-147.6,146.5
	c-30.7-0.2-59.1-10-82.6-26.4c-10.1-7.1-11.3-21.6-2.6-30.3l0.1-0.1c6.9-6.9,17.7-7.7,25.6-2.1c16.8,11.7,37.1,18.7,59,19
	C311.2,370.7,359.7,322.7,359.7,263.3z M312.4,174.1c24.2,12.4,42.5,34.7,49.7,61.5h65.4c0-57.8-36.5-107.1-87.8-126
	c-22.6-8.3-46.5,8.6-46.5,32.7v0.9C293.2,156.3,300.7,168.2,312.4,174.1z"></path>
<path fill="#FFA4ED" class="primary-color" d="M39.9,420l60.9,60.9H39.9V420z"></path>
<path d="M471.4,460c0,4.4-3.6,8-8,8h-59.2c-4.4,0-8-3.6-8-8s3.6-8,8-8h59.2C467.8,452,471.4,455.6,471.4,460z M68.7,65.5
	c4.4,0,8-3.6,8-8s-3.6-8-8-8c-14.6,0-26.4,11.8-26.4,26.4s11.8,26.4,26.4,26.4c4.4,0,8-3.6,8-8s-3.6-8-8-8
	c-5.7,0-10.4-4.7-10.4-10.4S63,65.5,68.7,65.5z M475.2,49.2h-3.9v-3.9c0-4.4-3.6-8-8-8s-8,3.6-8,8v3.9h-3.9c-4.4,0-8,3.6-8,8
	s3.6,8,8,8h3.9v3.9c0,4.4,3.6,8,8,8s8-3.6,8-8v-3.9h3.9c4.4,0,8-3.6,8-8S479.7,49.2,475.2,49.2z"></path>
<path d="M253.2,416.9c-84.7,0-153.6-68.9-153.6-153.6c0-84.7,68.9-153.6,153.6-153.6c3.9,0,7.1,3.2,7.1,7.1v139.4h139.4
	c3.9,0,7.1,3.2,7.1,7.1C406.8,348,337.9,416.9,253.2,416.9z M246.1,124.1c-73.6,3.7-132.3,64.7-132.3,139.3
	c0,76.9,62.5,139.4,139.4,139.4c74.5,0,135.6-58.7,139.3-132.3H253.2c-3.9,0-7.1-3.2-7.1-7.1V124.1z M427.5,242.7H280.9
	c-3.9,0-7.1-3.2-7.1-7.1V89.1c0-3.9,3.2-7.1,7.1-7.1c84.7,0,153.6,68.9,153.6,153.6C434.5,239.5,431.4,242.7,427.5,242.7z
	 M288,228.5h132.2C416.6,157.3,359.3,99.9,288,96.4V228.5z"></path>
</svg>