<svg version="1.1" id="Layer_1" xmlns="http://www.w3.org/2000/svg" xmlns:xlink="http://www.w3.org/1999/xlink" x="0px" y="0px" viewBox="0 0 512 512" enable-background="new 0 0 512 512" xml:space="preserve">
<linearGradient id="SVGID_1_" gradientUnits="userSpaceOnUse" x1="150.052" y1="303.0363" x2="456.1241" y2="303.0363" class="gradient-element">
	<stop offset="0" class="primary-color-gradient" style="stop-color: #FFA4ED"></stop>
	<stop offset="1" class="secondary-color-gradient" style="stop-color: #DB81DA"></stop>
</linearGradient>
<path fill="url(#SVGID_1_)" d="M215.4,324.1h92.3c22.1,0,40-17.9,40-40v-91.8c0-28.4,30.4-46.8,55.4-33.2c1.3,0.7,1.9,1.2,1.9,1.2
	c28.3,24.1,42.2,55.9,42.2,55.9c2.6,7.3,4.6,15.2,6,23.5c2,11,2.9,22.7,2.9,35.3c0,59.1-22.5,102.8-61.8,120.5
	c-7.4,15.7-29.3,56-55.9,56c-25.9,0-35.3-21.1-35.3-35.3v-11.8h-63.6c-8.6,15.3-29.4,47.1-54.2,47.1c-25.9,0-35.3-21.1-35.3-35.3
	v-26.8v0C150.1,353.3,179.3,324.1,215.4,324.1z"></path>
<path d="M338.4,459.6c-17.7,0-28.1-8.3-33.6-15.3c-6.2-7.8-9.7-17.9-9.7-28v-3.8h-51c-11.4,19.3-32.5,47.1-58.8,47.1
	c-17.7,0-28.1-8.3-33.6-15.3c-6.2-7.8-9.7-17.9-9.7-28v-21.6c-16.8-7.7-41.8-23.9-54.1-55c-20.1-4.3-36.6-13.5-48-27
	C30.9,302,25,288.3,24.3,276c0-0.1,0-0.3,0-0.4v-47.7c0-17.7,8.3-28.1,15.3-33.6c7.8-6.2,17.9-9.7,28-9.7h37.6
	c6.5-7.6,13.8-14.3,21.8-20.2l-28.7-43.2c-4.1-6-4.5-13.9-1-20.3c3.4-6.4,10-10.4,17.4-10.4h47.1c44.3,0,59.2,30.7,64,47.1h124.4
	c27,0,51,8.1,69.6,23.5h24.5c3.7-0.1,3.9-1.1,3.9-3.8c0-2.7-0.2-3.7-4.1-3.8c-5.2-0.1-10.1-2.2-13.8-6c-3.7-3.8-5.6-8.7-5.5-13.9
	c0-10.8,8.8-19.6,19.7-19.6c4.4,0,8,3.6,8,8s-3.6,8-8,8c-2.1,0-3.7,1.6-3.7,3.7c0,0,0,0.1,0,0.1c0,1.3,0.7,2.2,1.1,2.6
	c0.4,0.4,1.3,1.1,2.6,1.2c12.2,0.3,19.7,7.8,19.7,19.8c0,11.9-7.5,19.5-19.6,19.8c-0.1,0-0.1,0-0.2,0h-27.5c-2,0-3.8-0.7-5.3-2
	c-16.2-14.3-36.8-21.5-61.3-21.5H219.5c-3.8,0-7.1-2.7-7.9-6.5c-2.4-12.2-11.9-40.6-49.8-40.6h-47.1c-1.4,0-2.6,0.7-3.2,1.9
	c0,0.1-0.1,0.2-0.1,0.3c-0.6,1.1-0.5,2.5,0.2,3.5c0,0.1,0.1,0.1,0.1,0.2l33.1,49.8c1.2,1.8,1.6,4,1.2,6c-0.4,2.1-1.7,3.9-3.5,5.1
	c-10.3,6.7-19.4,14.9-27.3,24.5c-1.5,1.9-3.8,2.9-6.2,2.9H67.6c-9.4,0-27.3,5.7-27.3,27.3v47.4c0.9,14.2,13.5,42.4,54.9,49.5
	c2.9,0.5,5.3,2.5,6.2,5.3c10.7,31.3,36.9,46,51.6,51.9c3,1.2,5,4.2,5,7.4v26.8c0,9.4,5.7,27.3,27.3,27.3c21.4,0,41.5-32.9,47.2-43
	c1.4-2.5,4.1-4.1,7-4.1h63.6c4.4,0,8,3.6,8,8v11.8c0,9.4,5.7,27.3,27.3,27.3c17.9,0,36.9-26.6,48.7-51.5c0.8-1.7,2.2-3.1,3.9-3.9
	c36.3-16.4,57.1-57.7,57.1-113.3c0-12.3-0.9-23.7-2.8-33.9c0,0,0-0.1,0-0.1c-1.3-7.9-3.2-15.4-5.7-22.2c-1.5-4.2,0.7-8.7,4.9-10.2
	c4.2-1.5,8.7,0.7,10.2,4.9c2.7,7.6,4.8,16,6.3,24.8c2,11.2,3.1,23.5,3.1,36.7c0,60.8-23.2,106.7-63.8,126.6
	C390.8,420.9,368.1,459.6,338.4,459.6z M161.8,247.7c-10.9,0-19.8-8.9-19.8-19.8v-23.5c0-10.9,8.9-19.8,19.8-19.8
	s19.8,8.9,19.8,19.8c0,4.4-3.6,8-8,8s-8-3.6-8-8c0-2-1.7-3.8-3.8-3.8c-2,0-3.8,1.7-3.8,3.8v23.5c0,2,1.7,3.8,3.8,3.8
	c4.4,0,8,3.6,8,8S166.2,247.7,161.8,247.7z M338.4,224.1h-94.2c-4.4,0-8-3.6-8-8s3.6-8,8-8h86.2v-15.5c0-4.4,3.6-8,8-8s8,3.6,8,8
	v23.5C346.4,220.6,342.8,224.1,338.4,224.1z"></path>
<path d="M414.2,350.8c0-4.4,3.6-8,8-8h43c4.4,0,8,3.6,8,8s-3.6,8-8,8h-43C417.8,358.8,414.2,355.2,414.2,350.8z M451.7,380.8
	c0-4.4-3.6-8-8-8h-73.8c-4.4,0-8,3.6-8,8s3.6,8,8,8h73.8C448.1,388.8,451.7,385.2,451.7,380.8z M376.4,79.5c0,4.4,3.6,8,8,8
	s8-3.6,8-8V63.7h15.8c4.4,0,8-3.6,8-8s-3.6-8-8-8h-15.8V31.9c0-4.4-3.6-8-8-8s-8,3.6-8,8v15.8h-15.8c-4.4,0-8,3.6-8,8s3.6,8,8,8
	h15.8V79.5z M52.2,392.8c-4.4,0-8,3.6-8,8c0,11.4-9.3,20.8-20.8,20.8c-4.4,0-8,3.6-8,8s3.6,8,8,8c20.3,0,36.8-16.5,36.8-36.8
	C60.2,396.4,56.6,392.8,52.2,392.8z M102.2,421.5c-11.4,0-20.8-9.3-20.8-20.8c0-4.4-3.6-8-8-8s-8,3.6-8,8
	c0,20.3,16.5,36.8,36.8,36.8c4.4,0,8-3.6,8-8S106.6,421.5,102.2,421.5z M102.2,442.8c-20.3,0-36.8,16.5-36.8,36.8c0,4.4,3.6,8,8,8
	s8-3.6,8-8c0-11.4,9.3-20.8,20.8-20.8c4.4,0,8-3.6,8-8S106.6,442.8,102.2,442.8z M23.5,442.8c-4.4,0-8,3.6-8,8s3.6,8,8,8
	c11.4,0,20.8,9.3,20.8,20.8c0,4.4,3.6,8,8,8s8-3.6,8-8C60.2,459.3,43.7,442.8,23.5,442.8z M464.4,451.6l11.2-11.2
	c3.1-3.1,3.1-8.2,0-11.3c-3.1-3.1-8.2-3.1-11.3,0l-11.2,11.2l-11.2-11.2c-3.1-3.1-8.2-3.1-11.3,0c-3.1,3.1-3.1,8.2,0,11.3l11.2,11.2
	l-11.2,11.2c-3.1,3.1-3.1,8.2,0,11.3c1.6,1.6,3.6,2.3,5.7,2.3s4.1-0.8,5.7-2.3l11.2-11.2l11.2,11.2c1.6,1.6,3.6,2.3,5.7,2.3
	s4.1-0.8,5.7-2.3c3.1-3.1,3.1-8.2,0-11.3L464.4,451.6z M35,111.3c5.9,0,10.8-4.8,10.8-10.8S40.9,89.8,35,89.8s-10.8,4.8-10.8,10.8
	S29.1,111.3,35,111.3z M298.6,52.8c0,14.6-11.8,26.4-26.4,26.4s-26.4-11.8-26.4-26.4s11.8-26.4,26.4-26.4S298.6,38.2,298.6,52.8z
	 M282.6,52.8c0-5.7-4.7-10.4-10.4-10.4s-10.4,4.7-10.4,10.4s4.7,10.4,10.4,10.4S282.6,58.5,282.6,52.8z M161.1,24.2h-43
	c-4.4,0-8,3.6-8,8s3.6,8,8,8h43c4.4,0,8-3.6,8-8S165.5,24.2,161.1,24.2z M139.6,54.2H65.8c-4.4,0-8,3.6-8,8s3.6,8,8,8h73.8
	c4.4,0,8-3.6,8-8S144,54.2,139.6,54.2z"></path>
</svg>