<svg version="1.1" id="Layer_1" xmlns="http://www.w3.org/2000/svg" xmlns:xlink="http://www.w3.org/1999/xlink" x="0px" y="0px" viewBox="0 0 512 512" enable-background="new 0 0 512 512" xml:space="preserve">
<linearGradient id="SVGID_1_" gradientUnits="userSpaceOnUse" x1="260.5441" y1="430.3287" x2="260.5441" y2="51.2978" class="gradient-element">
	<stop offset="0" class="primary-color-gradient" style="stop-color: #FFA4ED"></stop>
	<stop offset="1" class="secondary-color-gradient" style="stop-color: #DB81DA"></stop>
</linearGradient>
<path fill="url(#SVGID_1_)" d="M448.7,255.6c0,105.4-85.4,190.8-190.8,190.8c-84.9,0-156.8-55.4-181.5-132c-2.7-13.3-4-27.1-4-41.2
	v-0.8c0.1-23,32.8-35,43.5-14.6c23.2,44.5,52.5,73.2,83.4,89.8c-0.1,0.8-0.3,1.5-0.4,2.2c-3.3,19.5-3.4,42.2,2.7,42.2
	c10.3,0,21.1-23.4,24.9-32.9c51.3,16,103,2.1,135.2-26c19.9-17.4,40.6-53.1,32-107.1c-10-63.4-55.2-108.4-116.6-133.9
	c-10.7-4.4-11.3-17.9-8.2-27C369.1,70.8,448.7,153.9,448.7,255.6z"></path>
<path d="M260.5,451.9c-40.7,0-79.8-12.4-112.9-35.7c-32.4-22.9-56.9-54.5-70.8-91.5c-1.6-4.1,0.5-8.7,4.7-10.3
	c4.1-1.5,8.7,0.5,10.3,4.7c26.2,69.9,94,116.8,168.7,116.8c99.3,0,180.2-80.8,180.2-180.2S359.9,75.6,260.5,75.6
	S80.4,156.4,80.4,255.7c0,10.2,0.9,20.4,2.5,30.3c0.7,4.4-2.2,8.5-6.6,9.2c-4.3,0.7-8.5-2.2-9.2-6.6c-1.8-10.8-2.8-21.9-2.8-33
	c0-52.4,20.4-101.7,57.4-138.7c37-37,86.3-57.4,138.7-57.4C313,59.6,362.2,80,399.3,117c37,37,57.4,86.3,57.4,138.7
	c0,52.4-20.4,101.7-57.4,138.7C362.2,431.5,312.9,451.9,260.5,451.9z M201.6,400c-3.1,0-6.1-1.4-8.2-3.9c-8.3-9.9-3.5-41.4-2.4-47.7
	c2.7-16.4,17-81.1,21.9-101.8c-7.1-18-8.2-42.5,5-58.9c7-8.7,18.2-14.3,28.7-14.3c13.1,0,23.1,8.3,27.3,22.7
	c2.5,8.5,2.5,19.4,0.1,29.3c-1.3,5.2-3.2,9.6-4.9,13.8c-1.4,3.2-2.6,6.2-3.6,9.5c-0.4,1.4-0.9,2.9-1.4,4.5c-1.9,6-3.8,12.2-3.8,18.1
	c0,8.6,13.8,11.5,20,11.5c4.7,0,8.3-1.2,12.1-3.9c9.4-7.2,18.4-20.3,22.3-32.6c5.2-15.8,7-30.7,5.3-44.3
	c-1.5-12.4-8.1-24.4-17.6-32.3c-10.9-9-24.4-13.7-39-13.7c-15.2,0-26.2,2.9-38,9.8c-22.1,13.1-34.9,42-29.9,67.3
	c1.2,6,3.3,10.6,6.1,13.8c2.9,3.3,2.6,8.4-0.7,11.3s-8.4,2.6-11.3-0.7c-4.6-5.3-7.9-12.4-9.7-21.2c-3.1-15.5-1-32.5,5.9-48
	c6.9-15.4,18.1-28.3,31.5-36.3c14.3-8.5,28.1-12.1,46.2-12.1c18.4,0,35.4,6,49.1,17.3c12.7,10.4,21.4,26.4,23.4,42.7
	c1.9,15.9-0.1,33.1-6,51.1c-5,15.4-15.9,31.3-27.9,40.4c0,0-0.1,0.1-0.1,0.1c-6.5,4.8-13.6,7.1-21.6,7.1c-17.5,0-36-9.7-36-27.5
	c0-8.4,2.4-16.1,4.6-22.9c0.5-1.4,0.9-2.9,1.3-4.3c1.2-4.1,2.8-7.7,4.2-11.1c1.6-3.8,3.2-7.4,4.1-11.4c1.7-7.1,1.8-15.2,0.1-21
	c-3.3-11.2-9.8-11.2-12-11.2c-5.7,0-12.2,3.3-16.2,8.3c-9.5,11.9-7.6,31.7-1.8,45.1c0.7,1.6,0.9,3.4,0.5,5.1
	c-4.1,17.1-19.5,86.4-22.3,103.2c-2.2,13.1-2.5,24.2-1.9,30.4c4.1-4.5,9.9-14.2,14.6-26.2c3.3-8.3,14-47.7,16.6-57.9
	c0.8-3.2,3.4-5.5,6.6-6c3.2-0.5,6.4,1.1,8,3.9c1.9,3.3,12.6,15.6,29.6,15.6c0.1,0,0.2,0,0.3,0c18.2,0,34.1-6.7,47.3-20
	c0,0,0.1-0.1,0.1-0.1c18.4-18.1,28.5-44.9,28.4-75.6c0-8.5-0.1-14.9-1.8-21.6c-1.6-6.8-4.3-13.4-7.8-19.5
	c-6.7-11.7-16.5-21.7-28.3-29c-23-14.4-53.3-18.1-83.1-10.2c-26.1,7-47.2,22.5-59.5,43.9c-7.5,12.8-11.1,26.6-11.1,42.3
	c0,16.5,3,27.7,10,37.5c2.6,3.6,1.8,8.6-1.8,11.2c-3.6,2.6-8.6,1.8-11.2-1.8c-9-12.6-13.1-27-13.1-46.8c0-18.6,4.3-35,13.2-50.3
	c14.4-25,39-43.3,69.2-51.3c34.1-9,69-4.7,95.7,12c14,8.7,25.7,20.7,33.7,34.6c4.3,7.5,7.6,15.5,9.6,23.7c2.2,9,2.2,17.7,2.2,25.4
	c0.1,35-11.7,66-33.2,87.1c-20.3,20.4-43,24.7-58.6,24.7c-0.1,0-0.2,0-0.4,0c-13.9,0-24.8-5.6-32.4-11.6
	c-4.3,15.9-10.7,38.8-13.5,45.8C228.6,375.6,216.8,400,201.6,400z M201.4,384L201.4,384L201.4,384z"></path>
<path fill="#FFA4ED" class="primary-color" d="M492.7,89.1l-60.9-60.9h60.9V89.1z"></path>
<path d="M154.8,317.2c0,4.4-3.6,8-8,8H60c-4.4,0-8-3.6-8-8s3.6-8,8-8h86.8C151.2,309.2,154.8,312.8,154.8,317.2z M93.7,289.1
	c0-4.4-3.6-8-8-8H28.3c-4.4,0-8,3.6-8,8s3.6,8,8,8h57.4C90.1,297.1,93.7,293.5,93.7,289.1z M417.6,459c-5,0-9,4.1-9,9s4.1,9,9,9
	s9-4.1,9-9S422.6,459,417.6,459z M387.6,459c-5,0-9,4.1-9,9s4.1,9,9,9s9-4.1,9-9S392.6,459,387.6,459z M477.6,459c-5,0-9,4.1-9,9
	s4.1,9,9,9s9-4.1,9-9S482.6,459,477.6,459z M447.2,459c-5,0-9,4.1-9,9s4.1,9,9,9s9-4.1,9-9S452.2,459,447.2,459z M417.6,446.3
	c4.9,0,9-4,9-9c0-4.9-4-9-9-9s-9,4-9,9C408.6,442.3,412.7,446.3,417.6,446.3z M447.2,446.3c4.9,0,9-4,9-9c0-4.9-4-9-9-9s-9,4-9,9
	C438.2,442.3,442.3,446.3,447.2,446.3z M468.6,437.4c0,5,4.1,9,9,9s9-4.1,9-9s-4.1-9-9-9S468.6,432.4,468.6,437.4z M31.7,37.3
	c5,0,9-4.1,9-9s-4.1-9-9-9s-9,4.1-9,9S26.7,37.3,31.7,37.3z M62.1,37.2c4.9,0,9-4,9-9s-4-9-9-9s-9,4-9,9S57.2,37.2,62.1,37.2z
	 M31.7,66.9c5,0,9-4.1,9-9s-4.1-9-9-9s-9,4.1-9,9S26.7,66.9,31.7,66.9z M80.8,438.5c-4.4,0-8,3.6-8,8c0,5.7-4.7,10.4-10.4,10.4
	S52,452.2,52,446.5c0-4.4-3.6-8-8-8s-8,3.6-8,8c0,14.6,11.8,26.4,26.4,26.4s26.4-11.8,26.4-26.4C88.8,442.1,85.2,438.5,80.8,438.5z
	 M470.7,142.6h3.9c4.4,0,8-3.6,8-8s-3.6-8-8-8h-3.9v-3.9c0-4.4-3.6-8-8-8s-8,3.6-8,8v3.9h-3.9c-4.4,0-8,3.6-8,8s3.6,8,8,8h3.9v3.9
	c0,4.4,3.6,8,8,8s8-3.6,8-8V142.6z"></path>
</svg>