<svg version="1.1" id="Layer_1" xmlns="http://www.w3.org/2000/svg" xmlns:xlink="http://www.w3.org/1999/xlink" x="0px" y="0px" viewBox="0 0 512 512" enable-background="new 0 0 512 512" xml:space="preserve">
<path d="M471.6,49.9c0,4.4-3.6,8-8,8h-3.9v3.9c0,4.4-3.6,8-8,8s-8-3.6-8-8v-3.9h-3.9c-4.4,0-8-3.6-8-8s3.6-8,8-8h3.9V38
	c0-4.4,3.6-8,8-8s8,3.6,8,8v3.9h3.9C468,41.9,471.6,45.5,471.6,49.9z M54.4,57.9h3.9v3.9c0,4.4,3.6,8,8,8s8-3.6,8-8v-3.9h3.9
	c4.4,0,8-3.6,8-8s-3.6-8-8-8h-3.9V38c0-4.4-3.6-8-8-8s-8,3.6-8,8v3.9h-3.9c-4.4,0-8,3.6-8,8S50,57.9,54.4,57.9z M156.1,16.5
	c-5.9,0-10.8,4.8-10.8,10.8S150.2,38,156.1,38c5.9,0,10.8-4.8,10.8-10.8S162,16.5,156.1,16.5z M119.7,456.2H22.4c-4.4,0-8,3.6-8,8
	s3.6,8,8,8h97.2c4.4,0,8-3.6,8-8S124.1,456.2,119.7,456.2z"></path>
<linearGradient id="SVGID_1_" gradientUnits="userSpaceOnUse" x1="259.0944" y1="457.4181" x2="263.6417" y2="64.0707" class="gradient-element">
	<stop offset="0" class="primary-color-gradient" style="stop-color: #FFA4ED"></stop>
	<stop offset="1" class="secondary-color-gradient" style="stop-color: #DB81DA"></stop>
</linearGradient>
<path fill="url(#SVGID_1_)" d="M418,121.3c26.6,41.3,27.3,84.9,27.3,85.7v73.5c0,21.2-12.7,61.2-61.2,61.2h-12.2v122.5h-98
	c0,0,0-32.6,0-73.5h61.2c9.9,0,12.1-6.7,12.2-12.4v-12.1h-73.5c0-47.4,0-123.5,0-147c0-76.3,45.9-98,114.3-98
	C393.5,121.3,404.8,121.3,418,121.3z M175.8,194.8c-20.3,0-72.4,0-97,0c-0.9,7.4-1,12-1,12.2v73.5c0,3.6,0.4,7.8,1.3,12.2
	c24.7,0,76.5,0,96.7,0c27.1,0,49-21.9,49-49S202.9,194.8,175.8,194.8z"></path>
<path d="M371.8,472.2H188.1c-10.4,0-20.9-3.6-28.9-10c-7.2-5.7-15.8-16.4-15.8-34.7v-77.7h-4.2c-30,0-46.6-14.1-55.3-26
	c-13-17.8-14-37.6-14-43.3V207c0-0.4,0.3-42.4,24.8-84.3c13.1-22.4,30.7-40.6,52.3-54.1c0.1-0.1,0.2-0.1,0.3-0.2c1.7-1,3.3-2,5-3
	c29.7-17.1,66.5-25.7,109.3-25.7c42.8,0,79.5,8,109.1,23.7c24,12.8,43.4,30.6,57.6,52.9c24.7,38.9,25,78,25,78.4c0,4.4-3.6,8-8,8
	c-0.2,0-0.3,0-0.5,0c-0.2,0-0.3,0-0.5,0h-84.7c-14.3,0-26.1,3-35,8.9c-2.9,1.9-6.6,1.8-9.3-0.3L150.8,85.1
	c-17.1,11.6-31.1,26.7-42.1,45.2c-22.4,37.9-23,76.3-23,76.7v73.5c0,2.2,0.6,53.2,53.2,53.2h12.2c4.4,0,8,3.6,8,8v85.7
	c0,22.7,18.8,28.7,28.7,28.7h183.7c4.4,0,8,3.6,8,8S376.2,472.2,371.8,472.2z M165.6,76.2l155.1,119.1c10.7-5.7,23.8-8.6,38.9-8.6
	h77.1c-1.5-12.4-6.3-37.5-22.2-62.3c-29.2-45.6-80.7-68.7-152.9-68.7C223.8,55.8,191.8,62.6,165.6,76.2z M335.1,423.2H200.3
	c-4.4,0-8-3.6-8-8v-49c0-4.4,3.6-8,8-8h24.5c4.4,0,8,3.6,8,8s-3.6,8-8,8h-16.5v33h126.7c22.7,0,28.7-18.8,28.7-28.7v-36.7
	c0-4.4,3.6-8,8-8h12.2c52.6,0,53.2-51.1,53.2-53.2v-53.3c0-4.4,3.6-8,8-8s8,3.6,8,8v53.3c0,5.7-1,25.5-14,43.3
	c-8.6,11.8-25.3,26-55.3,26h-4.2v28.7c0,10.4-3.6,20.9-10,28.9C364.1,414.6,353.4,423.2,335.1,423.2z M335.1,398.7h-12.3
	c-4.4,0-8-3.6-8-8v-16.5h-8.5v16.5c0,4.4-3.6,8-8,8h-24.5c-4.4,0-8-3.6-8-8v-16.5h-8.5v16.5c0,4.4-3.6,8-8,8h-24.5c-4.4,0-8-3.6-8-8
	s3.6-8,8-8h16.5v-16.5c0-4.4,3.6-8,8-8h24.5c4.4,0,8,3.6,8,8v16.5h8.5v-16.5c0-4.4,3.6-8,8-8h24.5c4.4,0,8,3.6,8,8v16.5h4.3
	c2.9,0,4.1-0.2,4.2-4.5v-61c0-4.4,3.6-8,8-8h36.7c9.8,0,17.1-2.8,21.9-8.5h-46.4c-31.8,0-48.6-12.9-57.1-23.7
	c-7.6-9.4-12.1-21.9-12.1-33.3c0-5.8,1.2-12.1,3.4-18L144.1,113.6c-3.5-2.7-4.3-7.7-1.6-11.2c2.7-3.5,7.7-4.3,11.2-1.6l154.7,116
	c3.1,2.3,4.1,6.6,2.3,10.1c-2.8,5.4-4.4,11.6-4.4,16.9c0,3,0.6,13.3,8.6,23.3c0,0,0.1,0.1,0.1,0.1c9,11.5,24.4,17.6,44.5,17.6h59.3
	c2.5,0,4.9,1.2,6.4,3.2c1.5,2,2,4.6,1.3,7c-3.3,11.3-13.2,30.3-42.5,30.3h-28.7v53.1c0,0.1,0,0.1,0,0.2
	C355,391,347.3,398.7,335.1,398.7z M275.2,343c-0.8,0-1.7-0.1-2.5-0.4c-2-0.7-3.7-2.1-4.6-4l-6.5-12.8l-6.4,12.8
	c-1,1.9-2.6,3.3-4.6,4c-2,0.7-4.2,0.5-6.1-0.5l-21.8-11c-3.9-2-5.5-6.8-3.5-10.7l24.5-49c3.2-6.5,10.1-10.6,18.1-10.6c0,0,0,0,0,0
	c7.9,0,14.8,4.1,18.1,10.6l24.5,49c2,3.9,0.4,8.7-3.5,10.7l-21.8,11C277.6,342.7,276.4,343,275.2,343z M236.9,320.4l7.5,3.8l10-19.9
	c1.4-2.7,4.1-4.4,7.1-4.4c3,0,5.8,1.7,7.1,4.4l10,19.9l7.5-3.8l-20.9-41.9c0,0,0,0,0,0c-0.6-1.2-2.3-1.7-3.7-1.7h0
	c-1.4,0-3.2,0.5-3.7,1.7L236.9,320.4z M175.8,300.7c-31.4,0-57-25.6-57-57s25.6-57,57-57c18.1,0,35.3,8.7,46,23.4
	c2.6,3.6,1.8,8.6-1.7,11.2c-3.6,2.6-8.6,1.8-11.2-1.7c-7.7-10.5-20.1-16.8-33.1-16.8c-22.6,0-41,18.4-41,41c0,22.6,18.4,41,41,41
	s41-18.4,41-41c0-4.4,3.6-8,8-8s8,3.6,8,8C232.8,275.2,207.2,300.7,175.8,300.7z M175.8,276.2c-17.9,0-32.5-14.6-32.5-32.5
	s14.6-32.5,32.5-32.5c4.4,0,8,3.6,8,8c0,4.4-3.6,8-8,8c-9.1,0-16.5,7.4-16.5,16.5c0,9.1,7.4,16.5,16.5,16.5s16.5-7.4,16.5-16.5
	c0-4.4,3.6-8,8-8s8,3.6,8,8C208.3,261.7,193.7,276.2,175.8,276.2z"></path>
</svg>