<svg version="1.1" id="Layer_1" xmlns="http://www.w3.org/2000/svg" xmlns:xlink="http://www.w3.org/1999/xlink" x="0px" y="0px" viewBox="0 0 512 512" enable-background="new 0 0 512 512" xml:space="preserve">
<path d="M28,51.4c0-4.4,3.6-8,8-8h15.8V27.6c0-4.4,3.6-8,8-8s8,3.6,8,8v15.8h15.8c4.4,0,8,3.6,8,8s-3.6,8-8,8H67.8v15.8
	c0,4.4-3.6,8-8,8s-8-3.6-8-8V59.4H36C31.6,59.4,28,55.8,28,51.4z M482.7,414.6c-5.9,0-10.8,4.8-10.8,10.8s4.8,10.8,10.8,10.8
	s10.8-4.8,10.8-10.8S488.6,414.6,482.7,414.6z M36.6,374.9c0,5.9,4.8,10.8,10.8,10.8s10.8-4.8,10.8-10.8s-4.8-10.8-10.8-10.8
	S36.6,369,36.6,374.9z M416.7,77.8c4.4,0,8-3.6,8-8s-3.6-8-8-8c-5.7,0-10.4-4.7-10.4-10.4c0-5.7,4.7-10.4,10.4-10.4c4.4,0,8-3.6,8-8
	s-3.6-8-8-8c-14.6,0-26.4,11.8-26.4,26.4S402.2,77.8,416.7,77.8z M444.5,476.7H261.2c-4.4,0-8,3.6-8,8s3.6,8,8,8h183.3
	c4.4,0,8-3.6,8-8S448.9,476.7,444.5,476.7z M104.6,440.3H30.8c-4.4,0-8,3.6-8,8s3.6,8,8,8h73.8c4.4,0,8-3.6,8-8
	S109,440.3,104.6,440.3z M489.1,261.3c0-14.6-11.8-26.4-26.4-26.4c-4.4,0-8,3.6-8,8s3.6,8,8,8c5.7,0,10.4,4.7,10.4,10.4
	s-4.7,10.4-10.4,10.4c-4.4,0-8,3.6-8,8s3.6,8,8,8C477.3,287.7,489.1,275.8,489.1,261.3z"></path>
<linearGradient id="SVGID_1_" gradientUnits="userSpaceOnUse" x1="252.4497" y1="395.8782" x2="256.997" y2="38.9098" class="gradient-element">
	<stop offset="0" class="primary-color-gradient" style="stop-color: #FFA4ED"></stop>
	<stop offset="1" class="secondary-color-gradient" style="stop-color: #DB81DA"></stop>
</linearGradient>
<path fill="url(#SVGID_1_)" d="M302.7,363.3L256,451.9l-46.7-88.6c7-19.1,25.2-32.8,46.7-32.8C277.5,330.5,295.7,344.2,302.7,363.3z
	 M246,280.6c0-27.6-22.4-50-50-50c-18.7,0-34.8,10.4-43.3,25.5l39,73.9c1.4,0.1,2.8,0.4,4.3,0.4C223.6,330.5,246,308.2,246,280.6z
	 M432.5,117.2C380.3,87.6,320.2,70.7,256,70.7c-32.1,0-63.2,4.2-92.7,12.2c-7.4,2-14.8,4.2-22,6.7c-21.6,7.3-42.3,16.6-61.8,27.6
	h-0.2l0.1,0.1l9.3,17.6l9.3,17.6l0.7,1.4c3.9-2.7,9.7-6.3,17.2-10.3c16.8-9,42.4-19.9,75.8-26.6c0.2,0,0.5-0.1,0.7-0.1
	c-15.6,8.4-26.4,24.8-26.4,43.8c0,27.6,22.4,50,50,50c27.6,0,50-22.4,50-50c0-23.9-16.8-43.8-39.2-48.7c0.1,0,0.2,0,0.3,0
	c9.2-0.8,18.8-1.2,28.9-1.2c66.2,0,113.8,18.9,140.1,32.9c7.5,4,13.3,7.6,17.2,10.3l19.4-36.7H432.5z M316,170.6
	c-27.6,0-50,22.4-50,50c0,27.6,22.4,50,50,50c27.6,0,50-22.4,50-50C365.9,193,343.6,170.6,316,170.6z"></path>
<path d="M256,459.9c-3,0-5.7-1.6-7.1-4.3l-158-299.4c-2.1-3.9-0.6-8.7,3.3-10.8c3.9-2.1,8.7-0.6,10.8,3.3l150.9,286l165.9-314.3
	C371,93.1,313.8,78.7,256,78.7c-60.4,0-120.1,15.7-172.7,45.5c-3.8,2.2-8.7,0.8-10.9-3c-2.2-3.8-0.8-8.7,3-10.9
	c55-31.1,117.4-47.6,180.6-47.6c62.8,0,124.8,16.2,179.6,47c1.7,0.7,3.1,1.9,4,3.5c1.3,2.4,1.4,5.3,0.1,7.7L263.1,455.6
	C261.7,458.2,259,459.9,256,459.9z M221.8,352.2c-0.4,0-0.9,0-1.3-0.1c-2.5-0.4-4.6-1.9-5.8-4.2l-8.9-16.8c-1.1-2-1.2-4.5-0.4-6.6
	s2.6-3.9,4.8-4.6c16.6-6,27.8-21.8,27.8-39.3c0-23.1-18.8-42-42-42c-8.9,0-17.3,2.8-24.5,8c-3.6,2.6-8.6,1.8-11.2-1.8
	c-2.6-3.6-1.8-8.6,1.8-11.2c9.9-7.2,21.7-11,33.9-11c32,0,58,26,58,58c0,21.2-11.8,40.5-30.1,50.6l0.4,0.8
	c9.4-6.1,20.3-9.5,31.6-9.5c14.8,0,28.9,5.6,39.7,15.9c3.2,3,3.3,8.1,0.3,11.3c-3,3.2-8.1,3.3-11.3,0.3c-7.8-7.4-18-11.5-28.7-11.5
	c-10.7,0-20.9,4.1-28.7,11.5C225.8,351.4,223.8,352.2,221.8,352.2z M316,278.6c-32,0-58-26-58-58c0-32,26-58,58-58
	c25.2,0,47.3,16.3,55,40.5c1.3,4.2-1,8.7-5.2,10c-4.2,1.3-8.7-1-10-5.2c-5.6-17.6-21.6-29.4-39.8-29.4c-23.1,0-42,18.8-42,42
	c0,23.1,18.8,42,42,42c3.7,0,7.5-0.6,12-2c4.2-1.3,8.7,1.1,10,5.3c1.3,4.2-1.1,8.7-5.3,10C326.7,277.7,321.2,278.6,316,278.6z
	 M216,218.6c-32,0-58-26-58-58s26-58,58-58c4.4,0,8,3.6,8,8s-3.6,8-8,8c-23.1,0-42,18.8-42,42s18.8,42,42,42s42-18.8,42-42
	c0-4.4,3.6-8,8-8s8,3.6,8,8C274,192.6,248,218.6,216,218.6z"></path>
</svg>