<svg version="1.1" id="Layer_1" xmlns="http://www.w3.org/2000/svg" xmlns:xlink="http://www.w3.org/1999/xlink" x="0px" y="0px" viewBox="0 0 512 512" enable-background="new 0 0 512 512" xml:space="preserve">
<linearGradient id="SVGID_1_" gradientUnits="userSpaceOnUse" x1="329.9267" y1="468.638" x2="329.9267" y2="42.4449" class="gradient-element">
	<stop offset="0" class="primary-color-gradient" style="stop-color: #FFA4ED"></stop>
	<stop offset="1" class="secondary-color-gradient" style="stop-color: #DB81DA"></stop>
</linearGradient>
<path fill="url(#SVGID_1_)" d="M475.9,149.8c0,60.5-102.9,251.2-107.2,259.3l-9.3,17.2l-9.3-17.2l-40.7-81.5
	c-4.1-8.2,1.9-17.9,11.1-17.9h0c21.5,0,38.9-17.4,38.9-38.9v-54.7c0-7.1,5-13.2,11.9-14.8c0,0,0.1,0,0.1,0
	c28.5-6.6,46.2-35.1,39.6-63.6c-5.7-24.4-27.5-41-51.6-40.9V63.5c0-17.6,17-30.3,33.8-25.2C441,52.8,475.9,97.3,475.9,149.8z
	 M227,93.1c-16.8-5.1-33.8,7.6-33.8,25.2v33.4c29.2,0,53,23.7,53,53c0,19.2-10.3,36.1-25.6,45.4c-1.5,0.9-3.4,1.7-5.5,2.5
	c-13.9,4.9-23.3,18-23.9,32.8L183.9,464l9.3,17.2l9.3-17.2c4.4-8.2,107.2-198.8,107.2-259.3C309.8,152.1,274.9,107.6,227,93.1z"></path>
<path d="M359.4,434.3c-2.9,0-5.6-1.6-7-4.2l-9.7-17.9c-7.8-14.5-28.1-52.9-49-97c-1.9-4-0.2-8.8,3.8-10.7c4-1.9,8.8-0.2,10.7,3.8
	c20.8,43.7,41,81.9,48.7,96.3l2.7,4.9l2.3-4.2c1.8-3.3,38.3-75.4,61.7-124.1c29.6-64.6,44.5-108.8,44.5-131.4
	c0-59.8-48.7-108.5-108.5-108.5c-35.7,0-69.2,17.6-89.5,47.2c-2.5,3.6-7.5,4.6-11.1,2.1c-3.6-2.5-4.6-7.5-2.1-11.1
	c23.3-33.9,61.7-54.1,102.7-54.1c68.7,0,124.5,55.9,124.5,124.5c0,25.2-15.1,70.4-46,138.1c0,0,0,0,0,0c0,0,0,0,0,0c0,0,0,0,0,0
	c0,0,0,0.1-0.1,0.1c-23.5,49-60.3,121.4-62.1,124.8l-9.4,17.2C365,432.7,362.3,434.3,359.4,434.3z M367.4,181.6c0-4.4-3.6-8-8-8
	c-13.1,0-23.8-10.7-23.8-23.8c0-13.1,10.7-23.8,23.8-23.8c4.4,0,8-3.6,8-8s-3.6-8-8-8c-21.9,0-39.8,17.8-39.8,39.8
	c0,21.9,17.8,39.8,39.8,39.8C363.8,189.6,367.4,186,367.4,181.6z M200.3,485l9.4-17.2l0.8-1.5c18.8-35,34.4-66.6,44.2-87
	c1.9-4,0.2-8.8-3.8-10.7c-4-1.9-8.8-0.2-10.7,3.8c-9.7,20.2-25.2,51.7-43.9,86.3l-3.1,5.7l-2.7-4.9c-15.4-28.8-93.1-176-104.5-241.7
	c-0.8-4.4-4.9-7.3-9.3-6.5c-4.4,0.8-7.3,4.9-6.5,9.3c11.9,68.1,90.5,217.3,106.2,246.5l9.7,17.9c1.4,2.6,4.1,4.2,7,4.2l0,0
	C196.2,489.1,198.9,487.5,200.3,485z M271.8,342.8c31-67.7,46-112.9,46-138.1c0-68.7-55.9-124.5-124.5-124.5
	c-29.4,0-57.9,10.5-80.4,29.5c-22.2,18.8-37.2,44.8-42.2,73.2c-0.8,4.4,2.1,8.5,6.5,9.3c4.4,0.8,8.5-2.1,9.3-6.5
	c9.2-51.8,54.1-89.4,106.8-89.4c59.8,0,108.5,48.7,108.5,108.5c0,22.6-15,66.8-44.6,131.5c-1.8,4-0.1,8.8,3.9,10.6
	c1.1,0.5,2.2,0.7,3.3,0.7C267.5,347.4,270.4,345.7,271.8,342.8z M201.3,236.4c0-4.4-3.6-8-8-8c-13.1,0-23.8-10.7-23.8-23.8
	c0-13.1,10.7-23.8,23.8-23.8c4.4,0,8-3.6,8-8s-3.6-8-8-8c-21.9,0-39.8,17.8-39.8,39.8s17.8,39.8,39.8,39.8
	C197.7,244.4,201.3,240.8,201.3,236.4z M254.2,204.6c0-33.6-27.4-61-61-61c-33.6,0-61,27.4-61,61c0,33.6,27.4,61,61,61
	C226.9,265.6,254.2,238.3,254.2,204.6z M238.2,204.6c0,24.8-20.2,45-45,45c-24.8,0-45-20.2-45-45c0-24.8,20.2-45,45-45
	C218.1,159.7,238.2,179.8,238.2,204.6z M373.2,209.2c15.9-3.7,29.3-13.4,37.9-27.2c8.6-13.8,11.3-30.2,7.6-46s-13.4-29.3-27.2-37.9
	c-13.8-8.6-30.2-11.3-46-7.6c-16.1,3.8-29.7,13.6-38.3,27.8c-2.3,3.8-1.1,8.7,2.7,11c3.8,2.3,8.7,1.1,11-2.7
	c6.3-10.4,16.4-17.7,28.2-20.5c11.7-2.7,23.7-0.7,34,5.6s17.3,16.3,20.1,28c2.7,11.7,0.7,23.7-5.6,34c-6.3,10.2-16.3,17.3-28,20.1
	c-10.7,2.5-21.9,1-31.6-4.3c-3.9-2.1-8.7-0.7-10.8,3.2c-2.1,3.9-0.7,8.7,3.2,10.8c9,4.9,19,7.4,29,7.4
	C364,210.8,368.7,210.3,373.2,209.2z"></path>
<path fill="#FFA4ED" class="primary-color" d="M120.1,61.6H8.9V18h111.2V61.6z"></path>
<path fill="#DB81DA" class="secondary-color" d="M52.5,131.6H8.9V88h43.6V131.6z"></path>
<path d="M27.8,393.6c0-4.4,3.6-8,8-8h15.8v-15.8c0-4.4,3.6-8,8-8s8,3.6,8,8v15.8h15.8c4.4,0,8,3.6,8,8s-3.6,8-8,8H67.6v15.8
	c0,4.4-3.6,8-8,8s-8-3.6-8-8v-15.8H35.8C31.4,401.6,27.8,398,27.8,393.6z M333.5,480h-58.8c-4.4,0-8,3.6-8,8s3.6,8,8,8h58.8
	c4.4,0,8-3.6,8-8S337.9,480,333.5,480z M233,480H31.1c-4.4,0-8,3.6-8,8s3.6,8,8,8H233c4.4,0,8-3.6,8-8S237.4,480,233,480z
	 M213.8,382.3h74.3c4.4,0,8-3.6,8-8s-3.6-8-8-8h-74.3c-4.4,0-8,3.6-8,8S209.4,382.3,213.8,382.3z M253.2,347.4h34.9c4.4,0,8-3.6,8-8
	s-3.6-8-8-8h-34.9c-4.4,0-8,3.6-8,8S248.8,347.4,253.2,347.4z M438.6,387.3c-4.4,0-8,3.6-8,8c0,11.4-9.3,20.8-20.8,20.8
	c-4.4,0-8,3.6-8,8s3.6,8,8,8c20.3,0,36.8-16.5,36.8-36.8C446.6,390.9,443,387.3,438.6,387.3z M488.6,432c4.4,0,8-3.6,8-8s-3.6-8-8-8
	c-11.4,0-20.8-9.3-20.8-20.8c0-4.4-3.6-8-8-8s-8,3.6-8,8C451.8,415.6,468.3,432,488.6,432z M488.6,437.3
	c-20.3,0-36.8,16.5-36.8,36.8c0,4.4,3.6,8,8,8s8-3.6,8-8c0-11.4,9.3-20.8,20.8-20.8c4.4,0,8-3.6,8-8S493,437.3,488.6,437.3z
	 M409.8,437.3c-4.4,0-8,3.6-8,8s3.6,8,8,8c11.4,0,20.8,9.3,20.8,20.8c0,4.4,3.6,8,8,8s8-3.6,8-8
	C446.6,453.8,430.1,437.3,409.8,437.3z M459.9,45.5h3.9v3.9c0,4.4,3.6,8,8,8s8-3.6,8-8v-3.9h3.9c4.4,0,8-3.6,8-8s-3.6-8-8-8h-3.9
	v-3.9c0-4.4-3.6-8-8-8s-8,3.6-8,8v3.9h-3.9c-4.4,0-8,3.6-8,8S455.5,45.5,459.9,45.5z"></path>
</svg>