<svg version="1.1" id="Layer_1" xmlns="http://www.w3.org/2000/svg" xmlns:xlink="http://www.w3.org/1999/xlink" x="0px" y="0px" viewBox="0 0 512 512" enable-background="new 0 0 512 512" xml:space="preserve">
<linearGradient id="SVGID_1_" gradientUnits="userSpaceOnUse" x1="270.2489" y1="345.0262" x2="272.5226" y2="40.3525" class="gradient-element">
	<stop offset="0" class="primary-color-gradient" style="stop-color: #FFA4ED"></stop>
	<stop offset="1" class="secondary-color-gradient" style="stop-color: #DB81DA"></stop>
</linearGradient>
<path fill="url(#SVGID_1_)" d="M458,309.5c-9.7,0.2-26.4,4.6-27.9,4.3c-7.8-0.2-71.3,21.9-90.2,28.1l-264-264
	c21.9-21.9,73,1.6,98.8,27.2l54.6,54.8c23.2-6.4,103.8-28.7,133.7-36.8c25.9-7.1,38.4-10,58-10c24.1,0,39.6,24.9,41.3,27.8l5.8,9.7
	l-157.1,91l8.7,8.6c10.7,10.7,36.1,44.6,46.8,59.1c18.5-6.2,53.4-17.7,63.7-17.7C441.8,291.5,451.8,301.5,458,309.5z"></path>
<path d="M148.4,478.1c-1.4,0-2.8-0.4-4.1-1.1l-9.7-5.8c-3.2-1.9-31.7-19.5-31.7-48.1c0-20.7,3-33.6,10.3-60.2l35.6-129.2l-51.4-51.4
	c-14.1-14.1-26.9-34.8-33.4-53.9c-8.1-24.1-6-44.1,6.1-56.2c12.1-12.1,32-14.3,56.1-6.1c19.2,6.5,39.8,19.2,53.9,33.4l51.4,51.4
	c20-5.5,61.8-17,95.5-26.3c4.3-1.2,8.7,1.3,9.8,5.6s-1.3,8.7-5.6,9.8c-34.8,9.6-78.4,21.6-97.5,26.9l-2.5,0.7
	c-2.8,0.8-5.7,0-7.8-2.1L169,110.8c-23.1-23.1-70-44.7-87.5-27.2C64,101,85.7,147.9,108.8,171l54.7,54.7c2,2,2.8,5,2.1,7.8
	l-36.8,133.7c-6.9,25.2-9.7,37.3-9.7,56c0,20,22.9,33.8,23.8,34.3l2.8,1.6l48.8-84.2c2.2-3.8,7.1-5.1,10.9-2.9
	c3.8,2.2,5.1,7.1,2.9,10.9l-52.9,91.2c-1.1,1.8-2.8,3.2-4.9,3.7C149.8,478,149.1,478.1,148.4,478.1z M322.7,478
	c-1.4,0-2.9-0.4-4.2-1.2l-7.5-4.6c-8.9-5.5-29.6-20.3-29.6-40c0-8.2,5.5-28.6,16.3-60.8c-18.2-13.6-45.5-34.4-55.3-44.2l-1.3-1.3
	l-14.3,24.6c-2.2,3.8-7.1,5.1-10.9,2.9c-3.8-2.2-5.1-7.1-2.9-10.9l19.5-33.6c1.2-2.2,3.4-3.6,5.9-3.9c2.5-0.3,4.9,0.5,6.7,2.3
	l8.6,8.6c7.2,7.2,28.9,24.4,58.2,46.1c2.8,2.1,3.9,5.7,2.8,9c-12.8,37.4-17.3,56.1-17.3,61.1c0,9.5,11.8,20.1,21.9,26.3l2.1,1.3
	l44.5-44.5c3.1-3.1,8.2-3.1,11.3,0c3.1,3.1,3.1,8.2,0,11.3l-49,49C326.8,477.2,324.8,478,322.7,478z M404.2,430.1
	c-2,0-4.1-0.8-5.7-2.3l-50-50c-3.1-3.1-3.1-8.2,0-11.3c3.1-3.1,8.2-3.1,11.3,0l44.3,44.3l4.5-4.5l-11.1-11.1
	c-3.1-3.1-3.1-8.2,0-11.3l60.3-60.3l-1.3-2.1c-6.2-10.1-16.8-21.9-26.3-21.9c-5,0-23.7,4.5-61.1,17.3c-3.3,1.1-6.9,0-9-2.8
	c-21.7-29.2-38.9-51-46.1-58.2l-8.6-8.6c-1.8-1.8-2.6-4.2-2.3-6.7s1.8-4.6,3.9-5.9l150.1-87l-1.6-2.7c-0.6-1-14.3-23.9-34.4-23.9
	c-18.7,0-30.8,2.8-55.9,9.7c-4.3,1.2-8.7-1.3-9.8-5.6c-1.2-4.3,1.3-8.7,5.6-9.8c26.6-7.3,39.5-10.3,60.2-10.3
	c28.6,0,46.2,28.4,48.1,31.7l5.8,9.7c1.1,1.8,1.4,4,0.9,6.1c-0.5,2.1-1.9,3.8-3.7,4.9L324,243.2l1.3,1.3
	c9.8,9.8,30.6,37.1,44.2,55.3c32.1-10.8,52.6-16.3,60.8-16.3c19.7,0,34.5,20.7,40,29.6l4.6,7.5c1.9,3.2,1.4,7.2-1.2,9.8l-59.1,59.1
	l11.1,11.1c3.1,3.1,3.1,8.2,0,11.3l-15.8,15.8C408.3,429.3,406.3,430.1,404.2,430.1z"></path>
<path d="M51.7,360.7c-14.6,0-26.4-11.8-26.4-26.4s11.8-26.4,26.4-26.4c4.4,0,8,3.6,8,8s-3.6,8-8,8c-5.7,0-10.4,4.7-10.4,10.4
	s4.7,10.4,10.4,10.4c4.4,0,8,3.6,8,8S56.1,360.7,51.7,360.7z M184.2,350.4c-3.1-3.1-8.2-3.1-11.3,0c-3.1,3.1-3.1,8.2,0,11.3
	l82.9,82.9c1.6,1.6,3.6,2.3,5.7,2.3s4.1-0.8,5.7-2.3c3.1-3.1,3.1-8.2,0-11.3L184.2,350.4z M60.9,85.9c4.2-4.2,4.2-11,0-15.2
	c-4.2-4.2-11-4.2-15.2,0c-4.2,4.2-4.2,11,0,15.2C49.9,90.1,56.7,90.1,60.9,85.9z M461.2,463.1c-4.2,4.2-4.2,11,0,15.2
	c4.2,4.2,11,4.2,15.2,0c4.2-4.2,4.2-11,0-15.2S465.4,458.9,461.2,463.1z M480.7,228h-3.9v-3.9c0-4.4-3.6-8-8-8s-8,3.6-8,8v3.9h-3.9
	c-4.4,0-8,3.6-8,8s3.6,8,8,8h3.9v3.9c0,4.4,3.6,8,8,8s8-3.6,8-8V244h3.9c4.4,0,8-3.6,8-8S485.1,228,480.7,228z M65.2,450.4h-3.9
	v-3.9c0-4.4-3.6-8-8-8s-8,3.6-8,8v3.9h-3.9c-4.4,0-8,3.6-8,8s3.6,8,8,8h3.9v3.9c0,4.4,3.6,8,8,8s8-3.6,8-8v-3.9h3.9c4.4,0,8-3.6,8-8
	S69.6,450.4,65.2,450.4z M259.2,48.2c-3.1-3.1-8.2-3.1-11.3,0c-3.1,3.1-3.1,8.2,0,11.3l94.9,94.9c1.6,1.6,3.6,2.3,5.7,2.3
	c2,0,4.1-0.8,5.7-2.3c3.1-3.1,3.1-8.2,0-11.3L259.2,48.2z"></path>
<path fill="#DB81DA" class="secondary-color" d="M398.5,32H487l-44.5,43.8L398.5,32z"></path>
</svg>