<svg version="1.1" id="Layer_1" xmlns="http://www.w3.org/2000/svg" xmlns:xlink="http://www.w3.org/1999/xlink" x="0px" y="0px" viewBox="0 0 512 512" enable-background="new 0 0 512 512" xml:space="preserve">
<linearGradient id="SVGID_1_" gradientUnits="userSpaceOnUse" x1="294.9" y1="444.2037" x2="294.9" y2="83.233" class="gradient-element">
	<stop offset="0" class="primary-color-gradient" style="stop-color: #FFA4ED"></stop>
	<stop offset="1" class="secondary-color-gradient" style="stop-color: #DB81DA"></stop>
</linearGradient>
<path fill="url(#SVGID_1_)" d="M403.8,86.6v355.7H117.2v-20.4c0-31.1,31.1-56.3,69.4-56.3h0c40.8,0,74-26.9,74-60.1V165.8
	c0-47.3,47.2-85.6,105.4-85.6h29.9C400.3,80.1,403.8,83,403.8,86.6z M472.6,104c0-3.5-6-11.4-16.2-11.5c-7-0.1-16.2,6.1-16.2,13.1
	l0,56.2l0,50.5l0,164.6c0,15.2,5.6,28.2,16.2,42.4c10.7-14.2,16.2-28.8,16.2-44L472.6,104z"></path>
<path d="M411.5,77.3v38c0,4.4-3.6,8-8,8s-8-3.6-8-8v-30H125.2v43v306.8h270.4V139.8c0-4.4,3.6-8,8-8s8,3.6,8,8v303.3
	c0,4.4-3.6,8-8,8H117.2c-4.4,0-8-3.6-8-8V128.3v-51c0-4.4,3.6-8,8-8h286.4C408,69.3,411.5,72.9,411.5,77.3z M352.2,147.3h-99.6
	c-4.4,0-8,3.6-8,8s3.6,8,8,8h99.6c4.4,0,8-3.6,8-8S356.6,147.3,352.2,147.3z M352.2,207.9h-99.6c-4.4,0-8,3.6-8,8s3.6,8,8,8h99.6
	c4.4,0,8-3.6,8-8S356.6,207.9,352.2,207.9z M352.2,268.5h-99.6c-4.4,0-8,3.6-8,8s3.6,8,8,8h99.6c4.4,0,8-3.6,8-8
	S356.6,268.5,352.2,268.5z M352.2,338.5h-99.6c-4.4,0-8,3.6-8,8s3.6,8,8,8h99.6c4.4,0,8-3.6,8-8S356.6,338.5,352.2,338.5z
	 M216.2,158.4h-36.7v-16c0-4.4-3.6-8-8-8s-8,3.6-8,8v24c0,4.4,3.6,8,8,8h44.7c4.4,0,8-3.6,8-8S220.7,158.4,216.2,158.4z
	 M216.2,219.9h-36.7v-16c0-4.4-3.6-8-8-8s-8,3.6-8,8v24c0,4.4,3.6,8,8,8h44.7c4.4,0,8-3.6,8-8S220.7,219.9,216.2,219.9z
	 M216.2,280.5h-36.7v-16c0-4.4-3.6-8-8-8s-8,3.6-8,8v24c0,4.4,3.6,8,8,8h44.7c4.4,0,8-3.6,8-8S220.7,280.5,216.2,280.5z
	 M171.6,326.5c-4.4,0-8,3.6-8,8v24c0,4.4,3.6,8,8,8h44.7c4.4,0,8-3.6,8-8s-3.6-8-8-8h-36.7v-16C179.6,330.1,176,326.5,171.6,326.5z
	 M481.5,104c0-9.3-10.9-20.2-25-20.4c-6.5-0.1-13.8,3-18.9,8c-4.1,4-6.3,9-6.3,14l0,56.2c0,4.9,4,8.9,8.9,8.9c4.9,0,8.9-4,8.9-8.9
	l0-56.1c0.4-1.5,4.4-4.3,7.2-4.3c0,0,0,0,0.1,0c4.3,0.1,6.8,2.6,7.5,3.7l0,270.2c0,9.4-2.5,18.6-7.5,27.8c-5-9-7.3-17.3-7.3-26.3
	l0-164.6c0-4.9-4-8.9-8.9-8.9c-4.9,0-8.9,4-8.9,8.9l0,164.6c0,16.4,5.6,31.2,18,47.7c1.7,2.2,4.3,3.5,7.1,3.5c2.8,0,5.4-1.3,7.1-3.5
	c11.9-15.9,18-32.5,18-49.3L481.5,104z"></path>
<path d="M440.2,124.3h-58.1c-4.4,0-8-3.6-8-8s3.6-8,8-8h58.1c4.4,0,8,3.6,8,8S444.6,124.3,440.2,124.3z M455.5,210.7
	c0-4.4-3.6-8-8-8h-22.9c-4.4,0-8,3.6-8,8s3.6,8,8,8h22.9C451.9,218.7,455.5,215.1,455.5,210.7z M461.9,465.2
	c-5.9,0-10.8,4.8-10.8,10.8s4.8,10.8,10.8,10.8c5.9,0,10.8-4.8,10.8-10.8S467.8,465.2,461.9,465.2z M82.5,40.4H66.8V24.6
	c0-4.4-3.6-8-8-8s-8,3.6-8,8v15.8H35c-4.4,0-8,3.6-8,8s3.6,8,8,8h15.8v15.8c0,4.4,3.6,8,8,8s8-3.6,8-8V56.4h15.8c4.4,0,8-3.6,8-8
	S86.9,40.4,82.5,40.4z M445.2,37.4c0-4.4-3.6-8-8-8h-73.8c-4.4,0-8,3.6-8,8s3.6,8,8,8h73.8C441.6,45.4,445.2,41.8,445.2,37.4z"></path>
</svg>