<svg version="1.1" id="Layer_1" xmlns="http://www.w3.org/2000/svg" xmlns:xlink="http://www.w3.org/1999/xlink" x="0px" y="0px" viewBox="0 0 512 512" enable-background="new 0 0 512 512" xml:space="preserve">
<g>
	<linearGradient id="SVGID_1_" gradientUnits="userSpaceOnUse" x1="101.3439" y1="270.812" x2="450.7551" y2="270.812" class="gradient-element">
		<stop offset="0" class="primary-color-gradient" style="stop-color: #FFA4ED"></stop>
		<stop offset="1" class="secondary-color-gradient" style="stop-color: #DB81DA"></stop>
	</linearGradient>
	<path fill="url(#SVGID_1_)" d="M450.8,112.5v316.7c0,11.9-9.2,21.6-20.5,21.6H101.3l0-44.4c0-31.6,24.3-57.3,54.4-57.3h48.7v28.3
		l43.3-28.3h42.4c23,0,41.6-19.6,41.6-43.8v-11.1l43-28.1l-43-28.1v-75.2c0-39.7,30.5-71.8,68.2-71.8h30.4
		C441.6,90.9,450.8,100.6,450.8,112.5z"></path>
	<linearGradient id="SVGID_2_" gradientUnits="userSpaceOnUse" x1="235.9048" y1="265.4266" x2="374.7234" y2="265.4266">
		<stop offset="0" class="primary-color-gradient" style="stop-color: #FFA4ED"></stop>
		<stop offset="1" class="secondary-color-gradient" style="stop-color: #DB81DA"></stop>
	</linearGradient>
	<path fill="url(#SVGID_2_)" d="M235.9,312.7v-95.9c0-18.2,20.2-29.1,35.4-19.1L374.7,266l-101.3,66.9
		C257.3,343.5,235.9,332,235.9,312.7z"></path>
</g>
<path d="M426.1,458.8H79.4c-4.4,0-8-3.6-8-8s3.6-8,8-8h346.7c9.2,0,16.6-7.5,16.6-16.6V172.3c0-4.4,3.6-8,8-8s8,3.6,8,8v253.8
	C458.8,444.1,444.1,458.8,426.1,458.8z M81.2,429.8c-4.4,0-8-3.6-8-8V105.9c0-18,14.6-32.6,32.6-32.6h320.2
	c18,0,32.6,14.6,32.6,32.6v35.3c0,4.4-3.6,8-8,8s-8-3.6-8-8v-35.3c0-9.2-7.5-16.6-16.6-16.6H105.9c-9.2,0-16.6,7.5-16.6,16.6v315.9
	C89.2,426.2,85.7,429.8,81.2,429.8z M208.8,384l170.3-111.3c2.3-1.5,3.6-4,3.6-6.7s-1.4-5.2-3.6-6.7L208.8,148
	c-2.5-1.6-5.6-1.7-8.2-0.3c-2.6,1.4-4.2,4.1-4.2,7v191.6c0,4.4,3.6,8,8,8s8-3.6,8-8V169.4L360.1,266L200,370.6
	c-3.7,2.4-4.7,7.4-2.3,11.1c1.5,2.3,4.1,3.6,6.7,3.6C205.9,385.3,207.4,384.9,208.8,384z"></path>
<path d="M510.4,141.2c0,4.4-3.6,8-8,8H399.1c-4.4,0-8-3.6-8-8s3.6-8,8-8h103.3C506.8,133.2,510.4,136.7,510.4,141.2z M478.4,172.3
	c0-4.4-3.6-8-8-8H366.5c-4.4,0-8,3.6-8,8s3.6,8,8,8h103.8C474.8,180.3,478.4,176.7,478.4,172.3z M429.8,494.8c0,5-4.1,9-9,9
	s-9-4.1-9-9s4.1-9,9-9S429.8,489.8,429.8,494.8z M459.8,494.8c0,5-4.1,9-9,9s-9-4.1-9-9s4.1-9,9-9S459.8,489.8,459.8,494.8z
	 M489.8,494.8c0,5-4.1,9-9,9s-9-4.1-9-9s4.1-9,9-9S489.8,489.8,489.8,494.8z M62.8,40.7H47V24.9c0-4.4-3.6-8-8-8s-8,3.6-8,8v15.8
	H15.3c-4.4,0-8,3.6-8,8s3.6,8,8,8H31v15.8c0,4.4,3.6,8,8,8s8-3.6,8-8V56.7h15.8c4.4,0,8-3.6,8-8S67.2,40.7,62.8,40.7z M58.7,450.8
	c0,14.6-11.8,26.4-26.4,26.4S5.9,465.3,5.9,450.8s11.8-26.4,26.4-26.4S58.7,436.2,58.7,450.8z M42.7,450.8c0-5.7-4.7-10.4-10.4-10.4
	s-10.4,4.7-10.4,10.4s4.7,10.4,10.4,10.4S42.7,456.5,42.7,450.8z"></path>
<g>
	<path fill="#FFA4ED" class="primary-color" d="M448.6,46.7V24.9h43.6v21.8H448.6z"></path>
	<path fill="#DB81DA" class="secondary-color" d="M246.4,46.7V24.9h172.3v21.8H246.4z"></path>
</g>
</svg>