<svg version="1.1" id="Layer_1" xmlns="http://www.w3.org/2000/svg" xmlns:xlink="http://www.w3.org/1999/xlink" x="0px" y="0px" viewBox="0 0 512 512" enable-background="new 0 0 512 512" xml:space="preserve">
<linearGradient id="SVGID_1_" gradientUnits="userSpaceOnUse" x1="328.7298" y1="419.7134" x2="328.7298" y2="149.8602" class="gradient-element">
	<stop offset="0" class="primary-color-gradient" style="stop-color: #FFA4ED"></stop>
	<stop offset="1" class="secondary-color-gradient" style="stop-color: #DB81DA"></stop>
</linearGradient>
<path fill="url(#SVGID_1_)" d="M417.8,269.8l-1.5,0v40.8l-53.8,0l0-32.4c-0.1-7.2-5.7-8.2-7.4-8.4l-59,0l0-0.1l-3.4,0
	c-12.5,0-22.6-10.1-22.6-22.6l0-75.8c0-8.6-7.8-8.6-7.8-8.6l-13.3,0c-5.1,0-9.3-4.2-9.3-9.3l0-8.6c0-5.1,4.2-9.3,9.3-9.3l48.2,0
	c3,0,5.6,1.4,7.3,3.6l4.1,0l0,103.5l109.1,0V269.8z M267.8,334.5v66.9c-0.1,1.6-1.2,7.4-8.6,7.4c-8.6,0,9.5,9.1,10,9.1
	c0.2,0,1.2-0.9,2.4-2l34.8,0l0-114.8h-5.2C282.8,301.1,267.8,316.1,267.8,334.5z"></path>
<path d="M421.1,242.2v67c0,2.1-0.8,4.2-2.3,5.7c-1.5,1.5-3.5,2.3-5.7,2.3l-100,0l0,100c0,2.1-0.8,4.2-2.3,5.7
	c-1.5,1.5-3.5,2.3-5.7,2.3l-67,0c-4.4,0-8-3.6-8-8l0-100l-100,0c-2.1,0-4.2-0.8-5.7-2.3c-1.5-1.5-2.3-3.5-2.3-5.7v-67
	c0-4.4,3.6-8,8-8s8,3.6,8,8v59l100,0c2.1,0,4.2,0.8,5.7,2.3c1.5,1.5,2.3,3.5,2.3,5.7l0,100l51,0l0-100c0-2.1,0.8-4.2,2.3-5.7
	c1.5-1.5,3.5-2.3,5.7-2.3l100,0v-51l-100,0c-2.1,0-4.2-0.8-5.7-2.3c-1.5-1.5-2.3-3.5-2.3-5.7l0-100l-51,0l0,100
	c0,2.1-0.8,4.2-2.3,5.7c-1.5,1.5-3.5,2.3-5.7,2.3h-76.8c-4.4,0-8-3.6-8-8s3.6-8,8-8h68.8l0-100c0-4.4,3.6-8,8-8l67,0
	c2.1,0,4.2,0.8,5.7,2.3c1.5,1.5,2.3,3.5,2.3,5.7l0,100l100,0c0,0,0,0,0,0C417.5,234.2,421.1,237.8,421.1,242.2z"></path>
<g>
	<path fill="#DB81DA" class="secondary-color" d="M60.8,410.6H46.2v-60.6h14.6V410.6z M60.8,260.7H46.2v60.6h14.6V260.7z M60.8,482.4v-46H46.2v46v14.6h14.6
		h46v-14.6H60.8z"></path>
	<path fill="#FFA4ED" class="primary-color" d="M507.6,244.4l-58.2-58.2l58.2-58.2V244.4z"></path>
</g>
<path d="M100.2,137.4v15.8c0,4.4-3.6,8-8,8s-8-3.6-8-8v-15.8H68.4c-4.4,0-8-3.6-8-8s3.6-8,8-8h15.8v-15.8c0-4.4,3.6-8,8-8s8,3.6,8,8
	v15.8H116c4.4,0,8,3.6,8,8s-3.6,8-8,8H100.2z M487.4,439.2h-15.8v-15.8c0-4.4-3.6-8-8-8s-8,3.6-8,8v15.8h-15.8c-4.4,0-8,3.6-8,8
	s3.6,8,8,8h15.8V471c0,4.4,3.6,8,8,8s8-3.6,8-8v-15.8h15.8c4.4,0,8-3.6,8-8S491.9,439.2,487.4,439.2z M125,409.3c0,5-4.1,9-9,9
	s-9-4.1-9-9s4.1-9,9-9S125,404.3,125,409.3z M178.3,419.6c-5,0-9-4.1-9-9s4.1-9,9-9s9,4.1,9,9S183.3,419.6,178.3,419.6z M243.2,51.6
	c0-5,4.1-9,9-9s9,4.1,9,9s-4.1,9-9,9S243.2,56.6,243.2,51.6z M508.4,65c0,14.6-11.8,26.4-26.4,26.4S455.7,79.5,455.7,65
	s11.8-26.4,26.4-26.4S508.4,50.4,508.4,65z M492.4,65c0-5.7-4.7-10.4-10.4-10.4s-10.4,4.7-10.4,10.4s4.7,10.4,10.4,10.4
	S492.4,70.7,492.4,65z M140.5,33.2H81c-4.4,0-8,3.6-8,8s3.6,8,8,8h59.5c4.4,0,8-3.6,8-8S144.9,33.2,140.5,33.2z M439.2,339.7
	c0-4.4-3.6-8-8-8h-43c-4.4,0-8,3.6-8,8s3.6,8,8,8h43C435.7,347.7,439.2,344.1,439.2,339.7z M409.7,361.7h-73.8c-4.4,0-8,3.6-8,8
	s3.6,8,8,8h73.8c4.4,0,8-3.6,8-8S414.2,361.7,409.7,361.7z M394.3,139.7c-4.4,0-8,3.6-8,8s3.6,8,8,8c14.6,0,26.4-11.8,26.4-26.4
	S408.9,103,394.3,103c-4.4,0-8,3.6-8,8s3.6,8,8,8c5.7,0,10.4,4.7,10.4,10.4S400.1,139.7,394.3,139.7z M259.7,469.3h-73.8
	c-4.4,0-8,3.6-8,8s3.6,8,8,8h73.8c4.4,0,8-3.6,8-8S264.2,469.3,259.7,469.3z"></path>
</svg>