<svg version="1.1" id="Layer_1" xmlns="http://www.w3.org/2000/svg" xmlns:xlink="http://www.w3.org/1999/xlink" x="0px" y="0px" viewBox="0 0 512 512" enable-background="new 0 0 512 512" xml:space="preserve">
<linearGradient id="SVGID_1_" gradientUnits="userSpaceOnUse" x1="255.8248" y1="411.9059" x2="255.8248" y2="77" class="gradient-element">
	<stop offset="0" class="primary-color-gradient" style="stop-color: #FFA4ED"></stop>
	<stop offset="1" class="secondary-color-gradient" style="stop-color: #DB81DA"></stop>
</linearGradient>
<path fill="url(#SVGID_1_)" d="M274,136h-37V77h37V136z M72.7,357.1c-23.7,0-42.9,19.2-42.9,42.9v0c0,6.5,5.4,11.9,11.9,11.9h36.9
	c-0.8-3.8-1.2-7.8-1.2-11.9c0-16.8,7.1-32.1,18.4-42.9H72.7z M422.4,269.2h-41.2l-44.1-66c-0.1-0.1-0.2-0.4-0.5-0.7
	c-11.1-15.7-32-14.4-43-2.6c15.4,4.7,23.4,15.9,23.7,16.4l35.3,52.9h-66.2v43.2c0,24.7-20,44.7-44.7,44.7h-63.8
	c11.3,10.8,18.4,26.1,18.4,42.9c0,4.1-0.4,8.1-1.2,11.9h124.7c-0.8-3.8-1.3-7.8-1.3-11.9c0-30.9,25.3-56.2,56.2-56.2
	c30.9,0,56.2,25.3,56.2,56.2c0,4.1-0.5,8.1-1.3,11.9h40.3c6.5,0,11.9-5.4,11.9-11.9v-71.4C481.8,281.5,442.9,269.2,422.4,269.2z"></path>
<path fill="#FFA4ED" class="primary-color" d="M434.1,490l60.9-60.9V490H434.1z"></path>
<path d="M152.6,145.5c0,4.4-3.6,8-8,8h-43c-4.4,0-8-3.6-8-8s3.6-8,8-8h43C149,137.5,152.6,141.1,152.6,145.5z M477,207.9h-73.8
	c-4.4,0-8,3.6-8,8s3.6,8,8,8H477c4.4,0,8-3.6,8-8S481.4,207.9,477,207.9z M406.6,85.9V70.1h15.8c4.4,0,8-3.6,8-8s-3.6-8-8-8h-15.8
	V38.3c0-4.4-3.6-8-8-8s-8,3.6-8,8v15.8h-15.8c-4.4,0-8,3.6-8,8s3.6,8,8,8h15.8v15.8c0,4.4,3.6,8,8,8S406.6,90.3,406.6,85.9z
	 M58.8,25.5c-4.4,0-8,3.6-8,8c0,11.4-9.3,20.8-20.8,20.8c-4.4,0-8,3.6-8,8s3.6,8,8,8c20.3,0,36.8-16.5,36.8-36.8
	C66.8,29.1,63.2,25.5,58.8,25.5z M108.8,70.3c4.4,0,8-3.6,8-8s-3.6-8-8-8c-11.4,0-20.8-9.3-20.8-20.8c0-4.4-3.6-8-8-8s-8,3.6-8,8
	C72.1,53.8,88.5,70.3,108.8,70.3z M108.8,91.5c4.4,0,8-3.6,8-8s-3.6-8-8-8c-20.3,0-36.8,16.5-36.8,36.8c0,4.4,3.6,8,8,8s8-3.6,8-8
	C88.1,100.8,97.4,91.5,108.8,91.5z M30.1,75.5c-4.4,0-8,3.6-8,8s3.6,8,8,8c11.4,0,20.8,9.3,20.8,20.8c0,4.4,3.6,8,8,8s8-3.6,8-8
	C66.8,92,50.3,75.5,30.1,75.5z M267.4,442.2h-43c-4.4,0-8,3.6-8,8s3.6,8,8,8h43c4.4,0,8-3.6,8-8S271.8,442.2,267.4,442.2z
	 M245.9,472.2h-73.8c-4.4,0-8,3.6-8,8s3.6,8,8,8h73.8c4.4,0,8-3.6,8-8S250.3,472.2,245.9,472.2z"></path>
<path d="M136.9,332.5c-37.2,0-67.5,30.3-67.5,67.5s30.3,67.5,67.5,67.5s67.5-30.3,67.5-67.5S174.1,332.5,136.9,332.5z M136.9,451.5
	c-28.4,0-51.5-23.1-51.5-51.5s23.1-51.5,51.5-51.5s51.5,23.1,51.5,51.5S165.3,451.5,136.9,451.5z M204.3,197.8v71.4c0,4.4-3.6,8-8,8
	H147c-4.4,0-8-3.6-8-8s3.6-8,8-8h41.4v-55.4h-27.7c-10,0-16.7,10.8-18.1,13.1l-26.9,53.9c-1.4,2.8-4.2,4.4-7.2,4.4
	c-1.2,0-2.4-0.3-3.6-0.8c-4-2-5.6-6.8-3.6-10.7l27-54.1c0.1-0.2,0.2-0.4,0.3-0.6c2.9-5.1,13.7-21.1,31.9-21.1h35.7
	C200.8,189.8,204.3,193.4,204.3,197.8z M489.8,328.6V400c0,11-8.9,19.9-19.9,19.9h-13.6c-4.4,0-8-3.6-8-8s3.6-8,8-8h13.6
	c2.1,0,3.9-1.8,3.9-3.9v-71.4c0-50.9-49.4-51.5-51.5-51.5h-41.2c-2.7,0-5.2-1.3-6.7-3.6l-44.1-66c0-0.1-0.1-0.1-0.1-0.2
	c-0.5-0.8-17.2-25.4-50.7-25.4h-119c-25.7,0-38.6,24.9-39.1,25.9l-32.5,64.8c-1.4,2.7-4.1,4.4-7.2,4.4H65.5
	c-21.9,0-27.7,18.1-27.7,27.7V400c0,2.1,1.8,3.9,3.9,3.9h10.4c4.4,0,8,3.6,8,8s-3.6,8-8,8H41.7c-11,0-19.9-8.9-19.9-19.9v-95.2
	c0-10.1,3.6-20.4,9.8-28.2c5.6-7.1,16-15.5,33.9-15.5H77l30.3-60.4c1.8-3.6,18.5-34.7,53.4-34.7h115.4v-18.6h-72.3v3.6
	c0,4.4-3.6,8-8,8s-8-3.6-8-8v-6.4c0-7.3,5.9-13.2,13.2-13.2h68.9l-4.2-41.8c-0.3-2.6-2.4-4.5-4.9-4.5h-41.6c-2.5,0-4.7,1.9-4.9,4.5
	c0,0.1,0,0.2,0,0.2l-3.3,25.3c-0.6,4.4-4.6,7.5-9,6.9c-4.4-0.6-7.5-4.6-6.9-9l3.2-25.2c1.1-10.7,10.1-18.8,20.8-18.8h41.6
	c10.8,0,19.8,8.1,20.8,18.9l4.6,45.6c3.6,2.4,6,6.4,6,11V167c32.7,5.1,49.6,28.8,51.6,31.7l0,0l41.8,62.5h36.9
	c5.5,0,24.9,1,42.2,13.6C476.1,283.2,489.8,299.4,489.8,328.6z M323.6,211.3L323.6,211.3c0.1,0.1,0.2,0.3,0.4,0.5l35.3,52.9
	c1.6,2.5,1.8,5.6,0.4,8.2c-1.4,2.6-4.1,4.2-7.1,4.2H251c-4.4,0-8-3.6-8-8s3.6-8,8-8h86.7l-26.9-40.3c-2-2.7-12.5-15.1-31.2-15.1
	h-51.5v63.4c0,4.4-3.6,8-8,8s-8-3.6-8-8v-71.4c0-4.4,3.6-8,8-8h59.5C300.1,189.8,315.8,200.9,323.6,211.3z M374.8,335.8
	c-35.4,0-64.2,28.8-64.2,64.2c0,1.3,0.1,2.6,0.1,3.9h-90.6c-4.4,0-8,3.6-8,8s3.6,8,8,8h93.6c8.4,25.7,32.6,44.3,61,44.3
	c35.4,0,64.2-28.8,64.2-64.2S410.2,335.8,374.8,335.8z M374.8,448.2c-26.6,0-48.2-21.6-48.2-48.2c0-26.6,21.6-48.2,48.2-48.2
	c26.6,0,48.2,21.6,48.2,48.2C423,426.6,401.3,448.2,374.8,448.2z"></path>
</svg>