<svg version="1.1" id="Layer_1" xmlns="http://www.w3.org/2000/svg" xmlns:xlink="http://www.w3.org/1999/xlink" x="0px" y="0px" viewBox="0 0 512 512" enable-background="new 0 0 512 512" xml:space="preserve">
<linearGradient id="SVGID_1_" gradientUnits="userSpaceOnUse" x1="63.0406" y1="257.8575" x2="407.9591" y2="257.8575" class="gradient-element">
	<stop offset="0" class="primary-color-gradient" style="stop-color: #FFA4ED"></stop>
	<stop offset="1" class="secondary-color-gradient" style="stop-color: #DB81DA"></stop>
</linearGradient>
<path fill="url(#SVGID_1_)" d="M408,56.2v397.5c0,6.1-2.5,11.6-6.4,15.6s-9.5,6.4-15.6,6.4H89.2c-19.2,0-31.8-20-23.6-37.3
	c14-29.7,44.3-50.3,79.4-50.3h105.4c26.6,0,50.4-11.8,66.5-30.5c28.9-24.1,47.3-60.4,47.3-101c0-29.5-9.7-56.7-26.1-78.6v-72.8
	c0-30.6,20.3-56.5,48.1-64.9C392.3,38.3,408,56.2,408,56.2z"></path>
<path d="M364.1,483.7h-263c-28.6,0-51.8-23.3-51.8-51.8V81.1c0-28.6,23.3-51.8,51.8-51.8h263c28.6,0,51.8,23.3,51.8,51.8v274.6
	c0,4.4-3.6,8-8,8s-8-3.6-8-8V81.1c0-19.8-16.1-35.8-35.8-35.8h-263c-19.8,0-35.8,16.1-35.8,35.8v350.7c0,19.8,16.1,35.8,35.8,35.8
	h263c4.4,0,8,3.6,8,8S368.5,483.7,364.1,483.7z M416,475.7v-77.8c0-4.4-3.6-8-8-8s-8,3.6-8,8v77.8c0,4.4,3.6,8,8,8
	S416,480.1,416,475.7z M372.1,256.5c0-49.7-26.7-95.9-69.8-120.7c-2.5-1.4-5.5-1.4-8,0c-2.5,1.4-4,4.1-4,6.9v56.1c0,2,0.7,3.8,2,5.3
	c12.8,14.5,19.9,33.1,19.9,52.3c0,43.9-35.7,79.7-79.7,79.7s-79.7-35.7-79.7-79.7c0-19.3,7.1-37.9,19.9-52.3c1.3-1.5,2-3.4,2-5.3
	v-56.1c0-2.9-1.5-5.5-4-6.9c-2.5-1.4-5.5-1.4-8,0c-43,24.8-69.8,71-69.8,120.7c0,76.9,62.6,139.5,139.5,139.5
	C309.5,396,372.1,333.4,372.1,256.5z M158.8,195.9c-14.2,17.1-21.9,38.5-21.9,60.6c0,52.8,42.9,95.7,95.7,95.7
	c52.8,0,95.7-42.9,95.7-95.7c0-22.2-7.8-43.6-21.9-60.6v-38.4c31,23.1,49.8,59.8,49.8,99c0,68.1-55.4,123.5-123.5,123.5
	s-123.5-55.4-123.5-123.5c0-39.2,18.8-75.9,49.8-99V195.9z M262.5,256.5V126.9c0-4.4-3.6-8-8-8s-8,3.6-8,8v121.5h-27.8V133.8
	c4.5-0.5,9.2-0.8,13.9-0.8c4.4,0,8-3.6,8-8s-3.6-8-8-8c-8.1,0-15.9,0.7-23.4,2.1c-3.8,0.7-6.5,4-6.5,7.9v129.5c0,4.4,3.6,8,8,8h43.8
	C258.9,264.5,262.5,260.9,262.5,256.5z M195.1,467.2"></path>
<path d="M467.8,405.9H381c-4.4,0-8-3.6-8-8s3.6-8,8-8h86.8c4.4,0,8,3.6,8,8S472.2,405.9,467.8,405.9z M427.6,366c0-4.4-3.6-8-8-8
	h-57.4c-4.4,0-8,3.6-8,8s3.6,8,8,8h57.4C424.1,374,427.6,370.4,427.6,366z"></path>
<path fill="#DB81DA" class="secondary-color" d="M470.2,80.5V45.3h-35.1V23.5h35.1H492v21.8v35.1H470.2z"></path>
</svg>