<svg version="1.1" id="Layer_1" xmlns="http://www.w3.org/2000/svg" xmlns:xlink="http://www.w3.org/1999/xlink" x="0px" y="0px" viewBox="0 0 512 512" enable-background="new 0 0 512 512" xml:space="preserve">
<linearGradient id="SVGID_1_" gradientUnits="userSpaceOnUse" x1="262.3789" y1="324.9229" x2="262.3789" y2="111.415" class="gradient-element">
	<stop offset="0" class="primary-color-gradient" style="stop-color: #FFA4ED"></stop>
	<stop offset="1" class="secondary-color-gradient" style="stop-color: #DB81DA"></stop>
</linearGradient>
<path fill="url(#SVGID_1_)" d="M412.1,117v203.6H112.7v0c0-39,27.9-70.7,62.4-70.7h52.7c20.7,0,37.4-19,37.4-42.4v-54.6
	c0-19.8,14.2-35.9,31.7-35.9H412.1z"></path>
<path d="M58.6,443.5c0,5.9-4.8,10.8-10.8,10.8s-10.8-4.8-10.8-10.8c0-5.9,4.8-10.8,10.8-10.8S58.6,437.6,58.6,443.5z M87.9,27.4
	c0,5-4.1,9-9,9s-9-4.1-9-9s4.1-9,9-9S87.9,22.4,87.9,27.4z M127.9,27.4c0,5-4.1,9-9,9s-9-4.1-9-9s4.1-9,9-9S127.9,22.4,127.9,27.4z
	 M167.9,27.4c0,5-4.1,9-9,9s-9-4.1-9-9s4.1-9,9-9S167.9,22.4,167.9,27.4z"></path>
<g>
	<path fill="#DB81DA" class="secondary-color" d="M487.9,101.4l-75.8-75.8h75.8V101.4z M398.5,471h102.6v-21.8H398.5V471z"></path>
	<path fill="#FFA4ED" class="primary-color" d="M244.6,449.2h102.6V471H244.6V449.2z"></path>
</g>
<path d="M145.3,497.2c-4.4,0-8-3.6-8-8c0-4.4,3.5-8,8-8l11-0.1l15.7-94.2c0.6-3.9,4-6.7,7.9-6.7h155.5c4.4,0,8,3.6,8,8s-3.6,8-8,8
	H186.6l-15.7,94.2c-0.6,3.8-4,6.7-7.8,6.7L145.3,497.2C145.3,497.2,145.3,497.2,145.3,497.2z M379.9,494.2
	C379.8,494.2,379.8,494.2,379.9,494.2l-17.8-0.1c-4.4,0-8-3.6-8-8c0-4.4,3.6-8,8-8c0,0,0,0,0,0l8.2,0l-14.7-88.6
	c-0.4-2.3,0.3-4.7,1.8-6.5c1.5-1.8,3.8-2.8,6.1-2.8h124.9c4.4,0,8,3.6,8,8s-3.6,8-8,8H373l14.7,88.6c0.4,2.3-0.3,4.7-1.8,6.5
	C384.4,493.1,382.2,494.2,379.9,494.2z M141.5,396.2H36.6c-4.4,0-8-3.6-8-8s3.6-8,8-8h104.9c4.4,0,8,3.6,8,8S146,396.2,141.5,396.2z
	 M488.5,360.1h-47.6c-4.4,0-8-3.6-8-8s3.6-8,8-8h3.5V99c0-4.4,3.6-8,8-8s8,3.6,8,8v245h28.1c4.4,0,8,3.6,8,8
	S492.9,360.1,488.5,360.1z M93.1,360.1H36.6c-4.4,0-8-3.6-8-8s3.6-8,8-8h28.1V89H36.6c-4.4,0-8-3.6-8-8s3.6-8,8-8h196.9
	c4.4,0,8,3.6,8,8s-3.6,8-8,8H80.8v255.1h12.3c4.4,0,8,3.6,8,8S97.5,360.1,93.1,360.1z M412.1,326.8c-4.4,0-8-3.6-8-8V122.2H113
	c-4.4,0-8-3.6-8-8s3.6-8,8-8h299.1c4.4,0,8,3.6,8,8v204.6C420.1,323.2,416.5,326.8,412.1,326.8z M488.5,89H291.6c-4.4,0-8-3.6-8-8
	V70.9h-30.1c-4.4,0-8-3.6-8-8s3.6-8,8-8h38.1c4.4,0,8,3.6,8,8V73h188.9c4.4,0,8,3.6,8,8S492.9,89,488.5,89z"></path>
</svg>