<svg version="1.1" id="Layer_1" xmlns="http://www.w3.org/2000/svg" xmlns:xlink="http://www.w3.org/1999/xlink" x="0px" y="0px" viewBox="0 0 512 512" enable-background="new 0 0 512 512" xml:space="preserve">
<linearGradient id="SVGID_1_" gradientUnits="userSpaceOnUse" x1="280.4341" y1="420.0468" x2="280.4341" y2="91.975" class="gradient-element">
	<stop offset="0" class="primary-color-gradient" style="stop-color: #FFA4ED"></stop>
	<stop offset="1" class="secondary-color-gradient" style="stop-color: #DB81DA"></stop>
</linearGradient>
<path fill="url(#SVGID_1_)" d="M204.6,75.5h10v297.4V435h-33.6h-34v-29.3c0-10.3,8-18.6,17.9-18.6c8.9,0,16.1-7.5,16.1-16.7V99.9
	C181.1,86.4,191.6,75.5,204.6,75.5z M413.8,164.7V90.6h-10c-13,0-23.6,21.1-23.6,34.6v28.1c-42.5,42.5-89.4,89.4-101,101
	c-1.5,1.5-1.5,3.9,0,5.4l101,100.9v40.9l33.6,33.6v-89.3l-33.6-29.9l-51-55c-4-4-0.5-14.1,3.6-18l47.5-46.2v1.8
	C392.1,186.5,403.6,175,413.8,164.7z"></path>
<path d="M485,51.3c0,4.4-3.6,8-8,8H342.8c-4.4,0-8-3.6-8-8s3.6-8,8-8H477C481.5,43.3,485,46.9,485,51.3z M143,464.3H63.5
	c-4.4,0-8,3.6-8,8s3.6,8,8,8H143c4.4,0,8-3.6,8-8S147.4,464.3,143,464.3z M60.5,87.5c4.2-4.2,4.2-11,0-15.2c-4.2-4.2-11-4.2-15.2,0
	c-4.2,4.2-4.2,11,0,15.2C49.5,91.7,56.3,91.7,60.5,87.5z M460.8,464.7c-4.2,4.2-4.2,11,0,15.2c4.2,4.2,11,4.2,15.2,0
	c4.2-4.2,4.2-11,0-15.2C471.8,460.5,465,460.5,460.8,464.7z M56.7,325.1c4.4,0,8-3.6,8-8s-3.6-8-8-8h-3.9v-3.9c0-4.4-3.6-8-8-8
	s-8,3.6-8,8v3.9h-3.9c-4.4,0-8,3.6-8,8s3.6,8,8,8h3.9v3.9c0,4.4,3.6,8,8,8s8-3.6,8-8v-3.9H56.7z M465.7,256v-3.9h3.9
	c4.4,0,8-3.6,8-8s-3.6-8-8-8h-3.9v-3.9c0-4.4-3.6-8-8-8s-8,3.6-8,8v3.9h-3.9c-4.4,0-8,3.6-8,8s3.6,8,8,8h3.9v3.9c0,4.4,3.6,8,8,8
	S465.7,260.4,465.7,256z M166.6,144.2H55.9c-4.4,0-8,3.6-8,8s3.6,8,8,8h110.8c4.4,0,8-3.6,8-8S171,144.2,166.6,144.2z M184,101.1
	h-68.8c-4.4,0-8,3.6-8,8s3.6,8,8,8H184c4.4,0,8-3.6,8-8S188.4,101.1,184,101.1z"></path>
<path d="M404.5,164.2v-67c-18.1,18.1-59.9,59.9-156.8,156.8c-1.6,1.6-1.6,4.2,0,5.7l156.8,156.8v-63.6l-82.3-82.3
	c-7.6-7.6-7.6-19.9,0-27.5l63-63c3.1-3.1,8.2-3.1,11.3,0c3.1,3.1,3.1,8.2,0,11.3l-63,63c-0.9,0.9-1,1.9-1,2.4s0.1,1.5,1,2.4
	l84.6,84.6c1.5,1.5,2.3,3.5,2.3,5.7v86.2c0,3.2-1.9,6.1-4.9,7.4c-1,0.4-2,0.6-3.1,0.6c-2.1,0-4.1-0.8-5.6-2.3l-0.9-0.9L236.4,271.1
	c-7.8-7.8-7.8-20.5,0-28.4c62.5-62.5,168.4-168.4,170.3-170.4c2.2-2.3,5.6-3,8.6-1.9c3.1,1.2,5.1,4.1,5.2,7.4l0,1.6c0,0,0,0.1,0,0.1
	v84.7c0,4.4-3.6,8-8,8S404.5,168.7,404.5,164.2z M221,66.9H147c-4.7,0-8.6,3.8-8.6,8.6v33.7c0,4.7,3.8,8.6,8.6,8.6s8.6-3.8,8.6-8.6
	V84.1h56.8v346.3h-56.8V152.2c0-4.7-3.8-8.6-8.6-8.6s-8.6,3.8-8.6,8.6V439c0,4.7,3.8,8.6,8.6,8.6H221c4.7,0,8.6-3.8,8.6-8.6V75.5
	C229.5,70.8,225.7,66.9,221,66.9z"></path>
</svg>