<svg version="1.1" id="Layer_1" xmlns="http://www.w3.org/2000/svg" xmlns:xlink="http://www.w3.org/1999/xlink" x="0px" y="0px" viewBox="0 0 512 512" enable-background="new 0 0 512 512" xml:space="preserve">
<g>
	<linearGradient id="SVGID_1_" gradientUnits="userSpaceOnUse" x1="254.4791" y1="432.0468" x2="254.4791" y2="80.6825" class="gradient-element">
		<stop offset="0" class="primary-color-gradient" style="stop-color: #FFA4ED"></stop>
		<stop offset="1" class="secondary-color-gradient" style="stop-color: #DB81DA"></stop>
	</linearGradient>
	<path fill="url(#SVGID_1_)" d="M397.8,82.6v286l-18.1-18.1l-15.4-15.2c9.7-13.6,15.4-30.3,15.4-48.2c0-46.1-37.4-83.6-83.6-83.6
		c-15.2,0-29.4,4-41.6,11.1v-52.8c0-47.3,47.2-85.6,105.4-85.6h29.9C394.2,76.2,397.8,79.1,397.8,82.6z M349.5,351.4
		c-14.5,12-33.1,19.3-53.4,19.3c-24.7,0-46.8-10.7-62.1-27.7c-0.4,0.3-0.8,0.7-1.2,1c-13.4,10.9-31.9,17.6-52.3,17.6
		c-38.3,0-69.4,25.2-69.4,56.3v20.4h286.7v-35.7l-47.2-47.2L349.5,351.4z"></path>
	<linearGradient id="SVGID_2_" gradientUnits="userSpaceOnUse" x1="275.9391" y1="287.0818" x2="379.6891" y2="287.0818">
		<stop offset="0" class="primary-color-gradient" style="stop-color: #FFA4ED"></stop>
		<stop offset="1" class="secondary-color-gradient" style="stop-color: #DB81DA"></stop>
	</linearGradient>
	<path fill="url(#SVGID_2_)" d="M379.7,287.1c0,46.1-37.4,83.6-83.6,83.6c-7,0-13.7-0.9-20.2-2.5c36.4-9,63.4-41.9,63.4-81.1
		c0-39.2-27-72.1-63.4-81.1c6.5-1.6,13.2-2.5,20.2-2.5C342.3,203.5,379.7,240.9,379.7,287.1z"></path>
</g>
<path d="M440.5,402.3l-35.9-35.9c0.6-1.1,0.9-2.4,0.9-3.7V141.3c0-4.4-3.6-8-8-8s-8,3.6-8,8v210l-5.3-5.3c-2.5-2.5-6.6-2.5-9.1,0
	c-2.5,2.5-2.5,6.6,0,9.1l56.3,56.3c2.2,2.2,2.2,5.7,0,7.9c-1,1-2.4,1.6-3.9,1.6s-2.9-0.6-3.9-1.6l-65.1-65.1
	c18-16.7,29.3-40.6,29.3-67c0-50.5-41.1-91.6-91.6-91.6s-91.6,41.1-91.6,91.6c0,50.5,41.1,91.6,91.6,91.6c19.4,0,37.4-6.1,52.2-16.4
	l41.5,41.5c-0.2,0.7-0.3,1.4-0.3,2.1v25.2H119.1V248.9V81.3h270.4v30c0,4.4,3.6,8,8,8s8-3.6,8-8v-38c0-4.4-3.6-8-8-8H111.1
	c-4.4,0-8,3.6-8,8v175.6v190.2c0,4.4,3.6,8,8,8h286.4c4.4,0,8-3.6,8-8v-19.7l8.9,8.9c3.5,3.5,8.1,5.4,13,5.4c4.9,0,9.6-1.9,13-5.4
	C447.7,421.2,447.7,409.4,440.5,402.3z M220.6,287.1c0-41.7,33.9-75.6,75.6-75.6s75.6,33.9,75.6,75.6c0,41.7-33.9,75.6-75.6,75.6
	S220.6,328.7,220.6,287.1z"></path>
<path d="M427,111.3c0,4.4-3.6,8-8,8h-43c-4.4,0-8-3.6-8-8s3.6-8,8-8h43C423.4,103.3,427,106.9,427,111.3z M416.6,133.3h-73.8
	c-4.4,0-8,3.6-8,8s3.6,8,8,8h73.8c4.4,0,8-3.6,8-8S421,133.3,416.6,133.3z M458.2,273.8h-3.9v-3.9c0-4.4-3.6-8-8-8s-8,3.6-8,8v3.9
	h-3.9c-4.4,0-8,3.6-8,8s3.6,8,8,8h3.9v3.9c0,4.4,3.6,8,8,8s8-3.6,8-8v-3.9h3.9c4.4,0,8-3.6,8-8S462.6,273.8,458.2,273.8z
	 M465.8,69.6c4.2-4.2,4.2-11,0-15.2c-4.2-4.2-11-4.2-15.2,0c-4.2,4.2-4.2,11,0,15.2C454.8,73.8,461.6,73.8,465.8,69.6z M40.5,316.8
	c-4.2,4.2-4.2,11,0,15.2c4.2,4.2,11,4.2,15.2,0c4.2-4.2,4.2-11,0-15.2C51.5,312.6,44.7,312.6,40.5,316.8z M55.2,55c4.4,0,8-3.6,8-8
	s-3.6-8-8-8c-14.6,0-26.4,11.8-26.4,26.4s11.8,26.4,26.4,26.4c4.4,0,8-3.6,8-8s-3.6-8-8-8c-5.7,0-10.4-4.7-10.4-10.4
	S49.4,55,55.2,55z"></path>
</svg>