<svg version="1.1" id="Layer_1" xmlns="http://www.w3.org/2000/svg" xmlns:xlink="http://www.w3.org/1999/xlink" x="0px" y="0px" viewBox="0 0 512 512" enable-background="new 0 0 512 512" xml:space="preserve">
<g>
	<path fill="#DB81DA" class="secondary-color" d="M499.7,31.5V76h-44.5V31.5H499.7z"></path>
	<path fill="#DB81DA" class="secondary-color" d="M499.7,99.9v44.5h-44.5V99.9H499.7z M14.6,481h22.2v-44.5H14.6V481z"></path>
</g>
<path d="M45.6,25.3c0,4.4-3.6,8-8,8h-3.9v3.9c0,4.4-3.6,8-8,8s-8-3.6-8-8v-3.9h-3.9c-4.4,0-8-3.6-8-8s3.6-8,8-8h3.9v-3.9
	c0-4.4,3.6-8,8-8s8,3.6,8,8v3.9h3.9C42,17.3,45.6,20.9,45.6,25.3z M504.8,362.5l-62.3-62.3c-3.1-3.1-8.2-3.1-11.3,0
	c-3.1,3.1-3.1,8.2,0,11.3l62.3,62.3c1.6,1.6,3.6,2.3,5.7,2.3s4.1-0.8,5.7-2.3C507.9,370.6,507.9,365.6,504.8,362.5z"></path>
<linearGradient id="SVGID_1_" gradientUnits="userSpaceOnUse" x1="290.9319" y1="479.528" x2="288.6583" y2="83.9069" class="gradient-element">
	<stop offset="0" class="primary-color-gradient" style="stop-color: #FFA4ED"></stop>
	<stop offset="1" class="secondary-color-gradient" style="stop-color: #DB81DA"></stop>
</linearGradient>
<path fill="url(#SVGID_1_)" d="M375.7,86.1H203.8c-17.6,0-31.8,14.3-31.8,31.9v321.3c0,21.9,17.7,39.6,39.6,39.6h196v-86.3
	l-48.2-46.2c-18.4,14.3-41.2,23.1-65.9,23.8c-65.9,2.1-119.8-51.9-117.6-117.7c2-59.6,50.5-108.1,110.1-110.1
	c65.8-2.2,119.8,51.7,117.8,117.6c-0.8,24.9-9.7,47.8-24.1,66.3l28,29.2V118C407.6,100.4,393.3,86.1,375.7,86.1z"></path>
<path d="M470.7,410.7c0,2.1-0.8,4.2-2.3,5.7l-18.6,18.6c-1.5,1.5-3.5,2.3-5.7,2.3c0,0,0,0,0,0c-2.1,0-4.2-0.8-5.7-2.4L415.6,412
	v66.9c0,4.4-3.6,8-8,8H67.2c-4.4,0-8-3.6-8-8V33.8c0-4.4,3.6-8,8-8h340.3c4.4,0,8,3.6,8,8v104.7c0,4.4-3.6,8-8,8s-8-3.6-8-8V41.8
	H75.2v429.1h324.3v-78.3c0-3.2,2-6.2,4.9-7.4c3-1.2,6.4-0.5,8.7,1.7l30.9,31l7.3-7.3l-75.2-75.1c-2.9-2.9-3.1-7.5-0.6-10.6
	c7.5-9.5,13.5-20.3,17.8-32c4.1-11.7,6.2-24,6.2-36.6c0-60.6-49.3-109.8-109.8-109.8c-60.6,0-109.8,49.3-109.8,109.8
	c0,12.6,2.1,24.9,6.3,36.6c15.5,43.8,57,73.3,103.5,73.3c25,0,48.8-8.3,68.6-24.1c3.2-2.5,7.8-2.3,10.6,0.6l18.1,18.1
	c3.1,3.1,3.1,8.2,0,11.3c-3.1,3.1-8.2,3.1-11.3,0l-13.2-13.2c-21.5,15.2-46.5,23.2-72.8,23.2c-53.2,0-100.9-33.7-118.6-83.9
	c-4.8-13.3-7.3-27.4-7.3-41.9c0-69.4,56.4-125.8,125.8-125.8c69.4,0,125.8,56.4,125.8,125.8c0,14.3-2.4,28.5-7.1,41.9
	c0,0,0,0.1,0,0.1c-4,11.1-9.4,21.4-16.1,30.8l76,75.9C469.9,406.5,470.7,408.5,470.7,410.7z M289.8,340c-32.1,0-61.7-18.8-75.5-47.8
	c-1.9-4-6.7-5.7-10.7-3.8c-4,1.9-5.7,6.7-3.8,10.7c16.4,34.6,51.7,56.9,90,56.9c38.2,0,73.6-22.3,89.9-56.9
	c6.4-13.3,9.7-27.7,9.7-42.7c0-54.9-44.7-99.6-99.6-99.6s-99.6,44.7-99.6,99.6c0,4.4,3.6,8,8,8c4.4,0,8-3.6,8-8
	c0-46.1,37.5-83.6,83.6-83.6s83.6,37.5,83.6,83.6c0,12.6-2.7,24.7-8.1,35.8C351.5,321.2,321.9,340,289.8,340z"></path>
</svg>