<svg version="1.1" id="Layer_1" xmlns="http://www.w3.org/2000/svg" xmlns:xlink="http://www.w3.org/1999/xlink" x="0px" y="0px" viewBox="0 0 512 512" enable-background="new 0 0 512 512" xml:space="preserve">
<linearGradient id="SVGID_1_" gradientUnits="userSpaceOnUse" x1="219.7325" y1="409.3623" x2="219.7325" y2="149.3055" class="gradient-element">
	<stop offset="0" class="primary-color-gradient" style="stop-color: #FFA4ED"></stop>
	<stop offset="1" class="secondary-color-gradient" style="stop-color: #DB81DA"></stop>
</linearGradient>
<path fill="url(#SVGID_1_)" d="M372.2,238.6c2.1,2.1,2.4,5.2,0.7,6.9L202.7,415.8L65.5,278.6l9.8-9.8c14.9-14.9,41.8-12.1,60.2,6.2
	c11.1,11.1,25.2,16.9,38.1,16.9c9.9,0,19.2-3.3,26-10.2l8.3-8.3c17.6,15,11.8,31,15.7,31c4.3,0,21.3-6.5,21.3-6.5l35.5,34l17.5-17.5
	l-29.1-30c0,0,14.6-7.5,5.6-32.5c-6.1-17-17.1-20.8-23.5-21.4l15.6-15.6c6.6-6.6,16-16.5,26.8-26.6c3.4,2.9,7.5,5,12.1,6
	c14.9,3.2,29.6-6.2,32.8-21.1c1.3-6,0.5-12-1.8-17.2c14.3-7,27.9-8.5,37.7,1.3L372.2,238.6z"></path>
<g>
	<path fill="#FFA4ED" class="primary-color" d="M30.2,478.6v-35.8H66v35.8H30.2z"></path>
	<path fill="#DB81DA" class="secondary-color" d="M94.1,480.4V441h37.3v39.3H94.1z M124.3,41.6H32.9v102.6L124.3,41.6z"></path>
</g>
<path d="M419.8,359.6c4.4,0,8,3.6,8,8c0,11.4,9.3,20.8,20.8,20.8c4.4,0,8,3.6,8,8s-3.6,8-8,8c-20.3,0-36.8-16.5-36.8-36.8
	C411.8,363.2,415.4,359.6,419.8,359.6z M369.8,404.3c20.3,0,36.8-16.5,36.8-36.8c0-4.4-3.6-8-8-8s-8,3.6-8,8
	c0,11.4-9.3,20.8-20.8,20.8c-4.4,0-8,3.6-8,8S365.4,404.3,369.8,404.3z M369.8,425.6c11.4,0,20.8,9.3,20.8,20.8c0,4.4,3.6,8,8,8
	s8-3.6,8-8c0-20.3-16.5-36.8-36.8-36.8c-4.4,0-8,3.6-8,8S365.4,425.6,369.8,425.6z M448.6,409.6c-20.3,0-36.8,16.5-36.8,36.8
	c0,4.4,3.6,8,8,8s8-3.6,8-8c0-11.4,9.3-20.8,20.8-20.8c4.4,0,8-3.6,8-8S453,409.6,448.6,409.6z M433.7,41.6c0-5,4.1-9,9-9s9,4.1,9,9
	s-4.1,9-9,9S433.7,46.6,433.7,41.6z M403.7,41.6c0-5,4.1-9,9-9s9,4.1,9,9s-4.1,9-9,9S403.7,46.6,403.7,41.6z M373.7,41.6
	c0-5,4.1-9,9-9s9,4.1,9,9s-4.1,9-9,9S373.7,46.6,373.7,41.6z M412.8,80.2c-2.3,0-4.6-0.9-6.4-2.6c-3.5-3.5-3.5-9.3,0-12.8
	c3.5-3.5,9.3-3.5,12.8,0c3.5,3.5,3.5,9.3,0,12.8c0,0,0,0,0,0C417.4,79.3,415.1,80.2,412.8,80.2z M450.2,63.7c3.5,3.5,3.5,9.3,0,12.8
	c0,0,0,0,0,0c-1.8,1.8-4.1,2.6-6.4,2.6c-2.3,0-4.6-0.9-6.4-2.6c-3.5-3.5-3.5-9.3,0-12.8C440.9,60.2,446.7,60.2,450.2,63.7z
	 M468.8,77.5c-3.5-3.5-3.5-9.3,0-12.8c3.5-3.5,9.3-3.5,12.8,0s3.5,9.3,0,12.8c0,0,0,0,0,0c-1.8,1.8-4.1,2.6-6.4,2.6
	C472.8,80.2,470.5,79.3,468.8,77.5z M481.2,479.5H315.6c-4.4,0-8,3.6-8,8s3.6,8,8,8h165.6c4.4,0,8-3.6,8-8S485.6,479.5,481.2,479.5z
	 M476.8,133c-4.4,0-8,3.6-8,8s3.6,8,8,8c5.7,0,10.4,4.7,10.4,10.4s-4.7,10.4-10.4,10.4c-4.4,0-8,3.6-8,8s3.6,8,8,8
	c14.6,0,26.4-11.8,26.4-26.4S491.4,133,476.8,133z"></path>
<path d="M462.5,240.4c-1.3,0.8-2.8,1.2-4.2,1.2c-2.7,0-5.3-1.3-6.8-3.8c-20.2-32.4-52.7-42-67.9-44.8v47.9c0,2.1-0.8,4.2-2.3,5.7
	l-175,175c-1.6,1.6-3.6,2.3-5.7,2.3s-4.1-0.8-5.7-2.3L82.9,309.5c-3.1-3.1-3.1-8.2,0-11.3c3.1-3.1,8.2-3.1,11.3,0l106.4,106.4
	l167-167v-70.4c0-31.1-25.3-56.4-56.4-56.4h-70.4l-8.5,8.5c-3.1,3.1-8.2,3.1-11.3,0c-3.1-3.1-3.1-8.2,0-11.3l10.9-10.9
	c1.5-1.5,3.5-2.3,5.7-2.3h73.7c39.9,0,72.4,32.5,72.4,72.4v9.5c16.7,2.5,56.5,12.6,81.5,52.6C467.4,233.1,466.2,238.1,462.5,240.4z
	 M211.1,289.1c0-1.4,0.3-2.7,0.9-3.8c-13.5,5.7-27.2,3-37.6-7.4c-11.3-11.3-12.6-27.4-4-43l-19.5-19.5c-3.1-3.1-3.1-8.2,0-11.3
	c3.1-3.1,8.2-3.1,11.3,0l24,24c2.8,2.8,3.1,7.1,0.8,10.3c-3.7,5.2-11.3,18.3-1.4,28.2c5.9,5.9,12.7,7.2,20.3,3.9
	c4.4-1.9,9.1-5.4,13.8-10.3c0,0,0.1-0.1,0.1-0.1c2.6-2.6,7.4-7.4,13.2-9.9c6.7-2.9,12.5-1.8,17.7,3.4c2.8,2.8,4.2,6.4,4.1,10.4
	c-0.1,9.7-9.3,19.1-10.6,20.4v0c-6.1,6.1-11.5,9.8-17.2,11.5l0,2.5c4.3-1.2,8.4-3.4,12.7-6.8c3.2-2.5,7.7-2.2,10.6,0.6l23.9,23.9
	c3.1,3.1,3.1,8.2,0,11.3c-1.6,1.6-3.6,2.3-5.7,2.3c-2,0-4.1-0.8-5.7-2.3l-19.1-19.1c-7.8,4.8-15.9,7.1-24.6,7.2c0,0,0,0,0,0
	c-2.1,0-4.1-0.8-5.6-2.3c-1.5-1.5-2.4-3.5-2.4-5.6L211.1,289.1z M219.9,281.1c3.4-0.2,7-1.9,13.1-8c0,0,0,0,0,0
	c2.3-2.3,4.5-5.5,5.5-7.7c-2.7,1.5-5.6,4.5-7.1,6C227.6,275.3,223.7,278.5,219.9,281.1z M268.3,233c-9.6-9.2-23-11.6-34.7-10
	l-5.5-19.9c-1.2-4.3-5.6-6.8-9.8-5.6c-4.3,1.2-6.8,5.6-5.6,9.8l5.6,20.2c-5.7,2.6-11.2,6.3-15.3,10.5c-3.1,3.1-3.1,8.2,0,11.3
	c1.6,1.6,3.6,2.3,5.7,2.3c2,0,4.1-0.8,5.7-2.3c2.4-2.4,6.9-5.8,12.2-7.9c0.3-0.1,0.7-0.2,1-0.3c0.2-0.1,0.4-0.2,0.6-0.3
	c0.1,0,0.1,0,0.2-0.1c7.4-2.9,20.7-4.2,29,3.8c10.3,9.9,11.8,20.9,4.5,33.7c-2.2,3.8-0.8,8.7,3,10.9c1.3,0.7,2.6,1,4,1
	c2.8,0,5.5-1.5,7-4C286.6,266.9,284,248,268.3,233z M211.5,140.1L68.2,283.5c-1.6,1.6-3.6,2.3-5.7,2.3s-4.1-0.8-5.7-2.3
	c-3.1-3.1-3.1-8.2,0-11.3l140.8-140.8c-21.5-15-37.8-33-48.2-53.4c-2-3.9-0.4-8.8,3.5-10.8c3.9-2,8.8-0.4,10.8,3.5
	c20.8,40.9,64.6,63.1,97.7,74.6c33.6,11.6,63.2,14.8,68.1,15.3c-2.2-6.1-7.4-11-14.2-12.5c-3.8-0.8-7.7-0.5-11.3,0.9
	c-4.1,1.6-8.8-0.4-10.4-4.5c-1.6-4.1,0.4-8.8,4.5-10.4c6.5-2.6,13.6-3.1,20.5-1.6c19.2,4.2,31.4,23.2,27.2,42.3
	c-3.6,16.6-18.4,28-34.8,28c-2.5,0-5-0.3-7.6-0.8c-16.9-3.7-28.4-18.9-28-35.7c-6.1-1.7-12.5-3.6-19-5.9
	C240,154.8,224.9,147.9,211.5,140.1z M328.4,176.5c-3.1-0.3-17.2-1.7-36.6-6.1c1.3,7.7,7.1,14.2,15.2,15.9
	C315.7,188.3,324.4,184,328.4,176.5z"></path>
</svg>