<svg version="1.1" id="Layer_1" xmlns="http://www.w3.org/2000/svg" xmlns:xlink="http://www.w3.org/1999/xlink" x="0px" y="0px" viewBox="0 0 512 512" enable-background="new 0 0 512 512" xml:space="preserve">
<linearGradient id="SVGID_1_" gradientUnits="userSpaceOnUse" x1="293.8277" y1="423.312" x2="293.8277" y2="62.7149" class="gradient-element">
	<stop offset="0" class="primary-color-gradient" style="stop-color: #FFA4ED"></stop>
	<stop offset="1" class="secondary-color-gradient" style="stop-color: #DB81DA"></stop>
</linearGradient>
<path fill="url(#SVGID_1_)" d="M247.2,285.8H229c-27.3,0-50.7,19.6-55.5,46.4l-11.8,80.4c-1.1,6.1,3.6,11.7,9.8,11.7h194.8
	l-14.8-82.4h74.6V207.9c0-28.5-23.1-51.5-51.5-51.5h-30.9V74h-16.2c-26,0-43,21.1-43,47v153.7C284.5,295.3,267.8,285.8,247.2,285.8z
	"></path>
<path d="M356.3,300.7V288H137.6c-4.4,0-8-3.6-8-8s3.6-8,8-8h226.7c4.4,0,8,3.6,8,8v20.6c0,4.4-3.6,8-8,8S356.3,305.1,356.3,300.7z
	 M197.4,313.4c-4.3-0.8-8.5,2.1-9.3,6.5l-3.7,20.6c-0.4,2.3,0.2,4.7,1.7,6.5c1.5,1.8,3.8,2.9,6.1,2.9h117.3c4.4,0,8-3.6,8-8
	s-3.6-8-8-8H201.9l2-11.2C204.7,318.3,201.8,314.2,197.4,313.4z M75.8,231.2c4.4,0,8-3.6,8-8v-15.3c0-24,19.5-43.5,43.5-43.5h195.8
	c4.4,0,8-3.6,8-8s-3.6-8-8-8H127.3c-32.8,0-59.5,26.7-59.5,59.5v15.3C67.8,227.7,71.4,231.2,75.8,231.2z M180.7,361.1l-3.7,20.6
	c-0.4,2.3,0.2,4.7,1.7,6.5c1.5,1.8,3.8,2.9,6.1,2.9H317c4.4,0,8-3.6,8-8s-3.6-8-8-8H194.5l2-11.2c0.8-4.3-2.1-8.5-6.5-9.3
	C185.7,353.8,181.5,356.7,180.7,361.1z M374.6,148.4h-22.9V74c0-4.4-3.6-8-8-8H158.2c-4.4,0-8,3.6-8,8v61.8c0,4.4,3.6,8,8,8
	s8-3.6,8-8V82h169.5v74.4c0,4.4,3.6,8,8,8h30.9c24,0,43.5,19.5,43.5,43.5v125.9h-66.6c-2.4,0-4.6,1.1-6.1,2.9
	c-1.5,1.8-2.2,4.2-1.7,6.5l13.1,73H145.2l20.6-114.2c0.8-4.3-2.1-8.5-6.5-9.3c-4.3-0.8-8.5,2.1-9.3,6.5l-22.2,123.6
	c-0.4,2.3,0.2,4.7,1.7,6.5c1.5,1.8,3.8,2.9,6.1,2.9h230.7c2.4,0,4.6-1.1,6.1-2.9c1.5-1.8,2.2-4.2,1.7-6.5l-13.1-73h65.1
	c4.4,0,8-3.6,8-8V207.9C434.1,175.1,407.4,148.4,374.6,148.4z M137.5,341.9c0-4.4-3.6-8-8-8H83.8V256c0-4.4-3.6-8-8-8s-8,3.6-8,8
	v85.9c0,4.4,3.6,8,8,8h53.7C133.9,349.9,137.5,346.3,137.5,341.9z"></path>
<g>
	<path fill="#DB81DA" class="secondary-color" d="M103.3,437.8v46.3H80.9v-46.3H103.3z"></path>
	<path fill="#FFA4ED" class="primary-color" d="M57.9,437.8v46.3H36.4v-46.3H57.9z"></path>
</g>
<path d="M143,251.4c0,4.4-3.6,8-8,8H48.2c-4.4,0-8-3.6-8-8s3.6-8,8-8H135C139.5,243.4,143,247,143,251.4z M99.6,223.2
	c0-4.4-3.6-8-8-8H16.5c-4.4,0-8,3.6-8,8c0,4.4,3.6,8,8,8h75.1C96.1,231.2,99.6,227.7,99.6,223.2z M467.5,72h-15.8V56.3
	c0-4.4-3.6-8-8-8s-8,3.6-8,8V72H420c-4.4,0-8,3.6-8,8s3.6,8,8,8h15.8v15.8c0,4.4,3.6,8,8,8s8-3.6,8-8V88h15.8c4.4,0,8-3.6,8-8
	S471.9,72,467.5,72z M63.9,111.8h3.9v3.9c0,4.4,3.6,8,8,8s8-3.6,8-8v-3.9h3.9c4.4,0,8-3.6,8-8s-3.6-8-8-8h-3.9v-3.9c0-4.4-3.6-8-8-8
	s-8,3.6-8,8v3.9h-3.9c-4.4,0-8,3.6-8,8S59.5,111.8,63.9,111.8z M459.3,411.1c0,14.6-11.8,26.4-26.4,26.4s-26.4-11.8-26.4-26.4
	s11.8-26.4,26.4-26.4S459.3,396.6,459.3,411.1z M443.3,411.1c0-5.7-4.7-10.4-10.4-10.4s-10.4,4.7-10.4,10.4s4.7,10.4,10.4,10.4
	S443.3,416.9,443.3,411.1z"></path>
</svg>