<svg version="1.1" id="Layer_1" xmlns="http://www.w3.org/2000/svg" xmlns:xlink="http://www.w3.org/1999/xlink" x="0px" y="0px" viewBox="0 0 512 512" enable-background="new 0 0 512 512" xml:space="preserve">
<g>
	<linearGradient id="SVGID_1_" gradientUnits="userSpaceOnUse" x1="119.6073" y1="164.9422" x2="312.3967" y2="164.9422" class="gradient-element">
		<stop offset="0" class="primary-color-gradient" style="stop-color: #FFA4ED"></stop>
		<stop offset="1" class="secondary-color-gradient" style="stop-color: #DB81DA"></stop>
	</linearGradient>
	<path fill="url(#SVGID_1_)" d="M193.8,264.8c-1.7,0.1-3.4,0.2-5.2,0.2c-10.8,0-21.3-1.8-31-5l-11.9,28.7l-14.2-5.9l11.9-28.8
		c-7.9-4-15.2-9.1-21.8-15c-4.1-3.7-1.5-2.5,4-2.5h41.7c21.3,0,21.2-10.2,21.2-29.2h0.1c23.4,0,42.4-19,42.4-42.4
		c0-41.7-24.7-33.1-36.4-39.4c-3.7-2-6.1-5.9-6.1-10.2V78c0-7.4,6.5-13.1,13.9-12.1c0,0,0.1,0,0.1,0c5.9,0.8,11.6,2.2,17.1,4
		l11.9-28.7l14.2,5.9l-11.9,28.8c18.9,9.6,34.3,25,43.9,43.9l28.8-11.9l5.9,14.2l-28.7,11.9c3.2,9.8,5,20.2,5,31
		c0,5.9-0.5,11.7-1.5,17.3c-1.2,0-2.4-0.1-3.6-0.1C236.3,182.1,197.5,218.6,193.8,264.8z"></path>
	<linearGradient id="SVGID_2_" gradientUnits="userSpaceOnUse" x1="322.1606" y1="474.2172" x2="322.1606" y2="201.2008">
		<stop offset="0" class="primary-color-gradient" style="stop-color: #FFA4ED"></stop>
		<stop offset="1" class="secondary-color-gradient" style="stop-color: #DB81DA"></stop>
	</linearGradient>
	<path fill="url(#SVGID_2_)" d="M283.5,182.1c-0.3,0-0.6,0-0.8,0c-4.5,0-5.8,6.2-1.7,8.1c31.1,14.2,52.8,45.6,52.8,81.9
		c0,18.9-5.8,37-16.8,52.3c-3.5,5-7.4,9.4-11.1,13.8c-11.4,13.4-21.3,24.9-21.3,46.9V426c0,12.9-3.4,22.8-10.4,30.2
		c-0.1,0.1-0.2,0.2-0.3,0.3c-5.1,5.2-3.6,14,3.2,16.9c2.4,1,4.6,1.7,6.4,1.7c8.8,0,26.2-14.4,30.5-18.9c7-7.4,10.4-17.3,10.4-30.2
		v-40.9c0-22,9.9-33.5,21.3-46.9c3.7-4.4,7.5-8.8,11.1-13.8c11-15.5,16.9-33.7,16.8-52.7C373.3,222,333.2,182.1,283.5,182.1z"></path>
</g>
<path fill="#DB81DA" class="secondary-color" d="M22.9,296h17v195.3h-17V296z M491,55.8v-17H295.7v17H491z"></path>
<path d="M219.7,164.9c0,17.1-13.9,31.1-31.1,31.1c-17.1,0-31.1-13.9-31.1-31.1s13.9-31.1,31.1-31.1c4.4,0,8,3.6,8,8s-3.6,8-8,8
	c-8.3,0-15.1,6.8-15.1,15.1c0,8.3,6.8,15.1,15.1,15.1s15.1-6.8,15.1-15.1c0-4.4,3.6-8,8-8S219.7,160.5,219.7,164.9z M130.1,52.7
	l11.5-4.9l10.3,24.5c1.6,3.8,5.8,5.7,9.7,4.5c8.7-2.7,17.8-4,27-4c8.7,0,17.3,1.2,25.7,3.6c3.9,1.1,8.1-0.9,9.6-4.7l10-24.6l4.2,1.7
	l-10,24.6c-1.5,3.8,0,8.1,3.6,10.1c15.9,8.5,28.9,21.3,37.5,37c2,3.6,6.3,5.1,10.1,3.5l24.4-10.3l1.7,4.1l-24.4,10.3
	c-3.8,1.6-5.7,5.8-4.5,9.7c1.7,5.7,2.9,11.6,3.5,17.6c0.4,4.1,3.9,7.2,7.9,7.2c0.3,0,0.5,0,0.8,0c4.4-0.4,7.6-4.4,7.1-8.8
	c-0.5-4.6-1.2-9.1-2.3-13.6l25.3-10.7c4.1-1.7,6-6.4,4.3-10.5l-8-18.9c-0.8-2-2.4-3.5-4.4-4.3c-2-0.8-4.2-0.8-6.1,0l-25.4,10.7
	c-8.7-13.6-20.3-25-34.1-33.6l10.4-25.5c0.8-2,0.8-4.2,0-6.1s-2.4-3.5-4.4-4.3l-19-7.7c-4.1-1.7-8.8,0.3-10.4,4.4l-10.4,25.5
	c-15.7-3.4-32.2-3.3-47.8,0.4l-10.7-25.5c-0.8-2-2.4-3.5-4.4-4.3c-2-0.8-4.2-0.8-6.1,0l-18.9,8c-4.1,1.7-6,6.4-4.3,10.5
	C121.3,52.5,126,54.5,130.1,52.7z M332.5,382.1c0,0.3,0.1,0.6,0.1,1c0,0.5,0,0.9-0.1,1.4c0,0.2,0,0.4,0,0.7V426
	c0,15-4.1,26.7-12.6,35.7c-0.2,0.2-21.9,21.4-36.3,21.4c-14.6,0-36.1-21.2-36.3-21.4c-8.5-9-12.6-20.6-12.6-35.7v-40.9
	c0-19-8.1-28.5-19.4-41.7c-3.6-4.2-7.7-9-11.5-14.3c-11.8-16.5-18.1-35.9-18.2-56.2c-6.8-0.2-13.6-1-20.2-2.5L154.9,296
	c-0.8,2-2.3,3.5-4.3,4.4c-1,0.4-2.1,0.6-3.1,0.6c-1,0-2-0.2-3-0.6l-19-7.7c-4.1-1.7-6.1-6.3-4.4-10.4l10.4-25.7
	c-1.8-1.1-3.5-2.3-5.2-3.5h-62c-4.4,0-8-3.6-8-8s3.6-8,8-8h44c-3.9-4.4-7.5-9.1-10.7-14L72,233.9c-2,0.8-4.2,0.8-6.1,0
	c-2-0.8-3.5-2.3-4.4-4.3l-8-18.9c-0.8-2-0.8-4.2,0-6.1c0.8-2,2.3-3.5,4.3-4.4l25.5-10.8c-1.9-8-2.8-16.2-2.8-24.5
	c0-7.8,0.8-15.6,2.5-23.2l-25.7-10.4c-4.1-1.7-6.1-6.3-4.4-10.4l7.7-19c0.8-2,2.3-3.5,4.3-4.4c2-0.8,4.2-0.8,6.1,0L96.9,108
	c4.4-7,9.5-13.5,15.4-19.3c3.1-3.1,8.2-3.1,11.3,0c0,0,0,0,0,0c0,0,0,0,0,0l10.9,10.9c3.1,3.1,3.1,8.2,0,11.3
	c-1.6,1.6-3.6,2.3-5.7,2.3s-4.1-0.8-5.7-2.3l-5-5c-4.1,4.9-7.8,10.3-10.8,15.9c-1.9,3.6-6.3,5.2-10.1,3.6l-24.7-10.1l-1.7,4.2
	l24.7,10.1c3.8,1.5,5.8,5.7,4.7,9.7c-2.4,8.3-3.7,17-3.7,25.7c0,9.1,1.3,18.2,4,26.8c1.2,3.9-0.8,8.1-4.5,9.7l-24.6,10.4l1.7,4.1
	l24.6-10.4c3.8-1.6,8.1-0.1,10.1,3.5c8.7,15.7,21.6,28.5,37.4,37c3.6,1.9,5.2,6.3,3.6,10.1l-10,24.7l4.2,1.7l10-24.6
	c1.5-3.8,5.7-5.8,9.7-4.7c7.7,2.3,15.8,3.5,23.9,3.7c2.6-16.6,9.4-31.9,19.3-44.7c-5.4,2-11.2,3.1-17.3,3.1
	c-27.8,0-50.4-22.6-50.4-50.4s22.6-50.4,50.4-50.4c27.8,0,50.4,22.6,50.4,50.4c0,8.3-2,16.1-5.5,22.9c14.6-8.7,31.8-13.8,50-13.8
	c54,0,98,44,98,98c0,20.6-6.3,40.3-18.3,57c-3.7,5.2-7.6,9.7-11.3,14.2l-0.1,0.2C341.1,355.9,333.3,365.1,332.5,382.1z M223,164.9
	c0-19-15.4-34.4-34.4-34.4c-19,0-34.4,15.4-34.4,34.4s15.4,34.4,34.4,34.4C207.6,199.3,223,183.9,223,164.9z M339.6,333l0.1-0.2
	c3.5-4.2,7.2-8.5,10.5-13.1c10-14,15.3-30.5,15.3-47.7c0-45.2-36.8-82-82-82c-45.2,0-82,36.8-82,82c0,17.2,5.3,33.7,15.3,47.7
	c3.4,4.7,7.1,9,10.6,13.2c11.9,14,23.2,27.2,23.2,52.1V426c0,10.7,2.7,18.8,8.2,24.7c5.4,5.7,20.2,16.4,24.7,16.4
	c4.5,0,19.3-10.7,24.7-16.4c2.5-2.7,4.5-5.8,5.8-9.5h-30.2c-4.4,0-8-3.6-8-8s3.6-8,8-8h32.6v-34.1h-32.6c-4.4,0-8-3.6-8-8s3.6-8,8-8
	h33.2C319.6,356.4,329.4,345,339.6,333z M372.9,186.5c2,0,4.1-0.8,5.7-2.3l37.4-37.4c3.1-3.1,3.1-8.2,0-11.3
	c-3.1-3.1-8.2-3.1-11.3,0l-37.4,37.4c-3.1,3.1-3.1,8.2,0,11.3C368.8,185.7,370.8,186.5,372.9,186.5z M187.3,363.9l-37.4,37.4
	c-2.4,2.4-2.4,6.4,0,8.8c1.2,1.2,2.8,1.8,4.4,1.8c1.6,0,3.2-0.6,4.4-1.8l37.4-37.4c2.4-2.4,2.4-6.4,0-8.8
	C193.7,361.5,189.8,361.5,187.3,363.9z M453,312.8l-31-1.2c-1.1-8.6-3.1-17.1-6.1-25.4c-3.2-8.8-7.4-17.1-12.5-24.9l22.8-21.1
	c3.2-3,3.4-8.1,0.4-11.3l-15.3-16.6c-3-3.2-8.1-3.4-11.3-0.4c-3.2,3-3.4,8.1-0.4,11.3l9.9,10.7l-22.1,20.4c-3,2.8-3.4,7.4-1,10.7
	c6.1,8.1,10.9,17,14.4,26.6c3.3,9.1,5.3,18.6,5.9,28.1c0.3,4.1,3.6,7.3,7.7,7.5l30,1.2l-0.3,6.6l-30-1.2c-4.1-0.1-7.7,2.8-8.2,6.9
	c-2.8,19.7-11.3,38.1-24.4,53.1c-2.7,3.1-2.6,7.7,0.1,10.7l20.3,22l-4.8,4.5l-20.3-22c-2.8-3-7.4-3.4-10.7-1c-5.3,4-11,7.4-17,10.3
	c-4,1.9-5.7,6.7-3.7,10.7c1.9,4,6.7,5.7,10.7,3.7c4.7-2.3,9.3-4.9,13.7-7.8l21,22.7c1.4,1.6,3.4,2.5,5.6,2.6c0.1,0,0.2,0,0.3,0
	c2,0,3.9-0.8,5.4-2.1l16.6-15.3c3.2-3,3.4-8.1,0.4-11.3l-21-22.8c11.1-14.3,18.8-30.9,22.4-48.7l31,1.2c2.1,0.1,4.2-0.7,5.7-2.1
	c1.6-1.4,2.5-3.4,2.6-5.6l0.9-22.5C460.8,316.6,457.4,312.9,453,312.8z"></path>
<path fill="#FFA4ED" class="primary-color" d="M408.4,484.5l84.4-84.4v84.4H408.4z"></path>
<path d="M315.8,175.2c0,4.3-3.5,7.8-7.8,7.8h-46.4c-4.3,0-7.8-3.5-7.8-7.8s3.5-7.8,7.8-7.8H308C312.3,167.4,315.8,170.9,315.8,175.2
	z M412.8,83.5h-52.9c-4.4,0-8,3.6-8,8s3.6,8,8,8h52.9c4.4,0,8-3.6,8-8S417.2,83.5,412.8,83.5z M469.4,383.3c1,1.6,1.4,3.5,1,5.3
	c-0.7,3.3-3.6,5.6-6.9,5.6c-0.5,0-1-0.1-1.5-0.2c-3.8-0.8-6.2-4.6-5.4-8.4c0.8-3.8,4.6-6.2,8.4-5.4
	C466.8,380.6,468.3,381.7,469.4,383.3z M464.6,381.8c-2.9-0.6-5.8,1.2-6.5,4.2c0,0,0,0,0,0c-0.6,2.9,1.2,5.8,4.2,6.5
	c2.9,0.6,5.8-1.2,6.5-4.2c0,0,0,0,0,0l-4.5-1l4.5,1C469.4,385.3,467.5,382.4,464.6,381.8z M197.7,326.2c1,1.6,1.4,3.5,1,5.3
	c-0.4,1.8-1.5,3.4-3.1,4.4c-1.2,0.7-2.5,1.1-3.8,1.1c-0.5,0-1-0.1-1.5-0.2c-3.8-0.8-6.2-4.6-5.4-8.4c0.4-1.8,1.5-3.4,3.1-4.4
	c1.6-1,3.5-1.4,5.3-1C195.1,323.5,196.7,324.6,197.7,326.2z M196.3,327.1c-0.8-1.2-2-2.1-3.4-2.4c-1.4-0.3-2.9,0-4.1,0.7
	c-1.2,0.8-2.1,2-2.4,3.4c-0.3,1.4,0,2.9,0.7,4.1c0.8,1.2,2,2.1,3.4,2.4c1.4,0.3,2.9,0,4.1-0.7c1.2-0.8,2.1-2,2.4-3.4l-4.5-1l4.5,1
	C197.4,329.8,197.1,328.3,196.3,327.1z M112.5,362.9c-2.4-2.4-6.4-2.4-8.8,0l-8.7,8.7l-8.7-8.7c-2.4-2.4-6.4-2.4-8.8,0
	c-2.4,2.4-2.4,6.4,0,8.8l8.7,8.7l-8.7,8.7c-2.4,2.4-2.4,6.4,0,8.8c1.2,1.2,2.8,1.8,4.4,1.8s3.2-0.6,4.4-1.8l8.7-8.7l8.7,8.7
	c1.2,1.2,2.8,1.8,4.4,1.8s3.2-0.6,4.4-1.8c2.4-2.4,2.4-6.4,0-8.8l-8.7-8.7l8.7-8.7C115,369.3,115,365.4,112.5,362.9z M489.4,137.3
	h-1.3V136c0-4.4-3.6-8-8-8s-8,3.6-8,8v1.3h-1.3c-4.4,0-8,3.6-8,8s3.6,8,8,8h1.3v1.3c0,4.4,3.6,8,8,8s8-3.6,8-8v-1.3h1.3
	c4.4,0,8-3.6,8-8S493.8,137.3,489.4,137.3z M182.3,452.3h-3v-3c0-3.5-2.8-6.2-6.2-6.2s-6.2,2.8-6.2,6.2v3h-3c-3.5,0-6.2,2.8-6.2,6.2
	s2.8,6.2,6.2,6.2h3v3c0,3.5,2.8,6.2,6.2,6.2s6.2-2.8,6.2-6.2v-3h3c3.5,0,6.2-2.8,6.2-6.2S185.8,452.3,182.3,452.3z M69.5,43H53.7
	V27.2c0-4.4-3.6-8-8-8s-8,3.6-8,8V43H21.9c-4.4,0-8,3.6-8,8s3.6,8,8,8h15.8v15.8c0,4.4,3.6,8,8,8s8-3.6,8-8V59h15.8c4.4,0,8-3.6,8-8
	S73.9,43,69.5,43z"></path>
</svg>