<svg version="1.1" id="Layer_1" xmlns="http://www.w3.org/2000/svg" xmlns:xlink="http://www.w3.org/1999/xlink" x="0px" y="0px" viewBox="0 0 512 512" enable-background="new 0 0 512 512" xml:space="preserve">
<path d="M46.3,118c0,5.9-4.8,10.8-10.8,10.8s-10.8-4.8-10.8-10.8s4.8-10.8,10.8-10.8S46.3,112,46.3,118z M483.4,294.3h-15.8v-15.8
	c0-4.4-3.6-8-8-8s-8,3.6-8,8v15.8h-15.8c-4.4,0-8,3.6-8,8s3.6,8,8,8h15.8v15.8c0,4.4,3.6,8,8,8s8-3.6,8-8v-15.8h15.8
	c4.4,0,8-3.6,8-8S487.8,294.3,483.4,294.3z M454.8,62.7h3.9v3.9c0,4.4,3.6,8,8,8s8-3.6,8-8v-3.9h3.9c4.4,0,8-3.6,8-8s-3.6-8-8-8
	h-3.9v-3.9c0-4.4-3.6-8-8-8s-8,3.6-8,8v3.9h-3.9c-4.4,0-8,3.6-8,8S450.4,62.7,454.8,62.7z"></path>
<path fill="#FFA4ED" class="primary-color" d="M134.4,493.3H23v-94.8l111.4,61.1V493.3z"></path>
<path fill="#DB81DA" class="secondary-color" d="M128.4,71.3H95.1V38.1h33.3V71.3z M484.5,371l-57.8,115.6h57.8V371z"></path>
<linearGradient id="SVGID_1_" gradientUnits="userSpaceOnUse" x1="214.5986" y1="370.4724" x2="220.6618" y2="117.3356" class="gradient-element">
	<stop offset="0" class="primary-color-gradient" style="stop-color: #FFA4ED"></stop>
	<stop offset="1" class="secondary-color-gradient" style="stop-color: #DB81DA"></stop>
</linearGradient>
<path fill="url(#SVGID_1_)" d="M209.6,249c0,36.1,29.3,65.5,65.5,65.5v52.4c-64.9,0-117.9-52.9-117.9-117.9
	c0-65,52.9-117.9,117.9-117.9v52.4C238.9,183.5,209.6,212.8,209.6,249z"></path>
<path d="M275.1,491.5h-8V427c-13.6-0.6-27-2.8-40.2-6.5l-20.6,49.7l-39-16.2l20.6-49.7c-28.3-16-52.1-39.8-68.1-68.1l-49.7,20.6
	l-16.2-39l49.7-20.6c-4.5-15.7-6.7-31.9-6.7-48.2s2.3-32.5,6.7-48.2l-49.7-20.6l16.2-39l49.7,20.6c8-14.2,17.8-27.2,29.3-38.7
	c3.1-3.1,8.2-3.1,11.3,0c3.1,3.1,3.1,8.2,0,11.3c-12,12-22,25.9-29.8,41.2l-3.4,6.6l-48.4-20.1l-3.9,9.5l48.4,20.1l-2.3,7.1
	c-5.4,16.3-8.1,33.2-8.1,50.3s2.7,34,8.1,50.3l2.3,7.1l-48.4,20.1l3.9,9.5l48.4-20.1l3.4,6.6c15.5,30.4,40.8,55.6,71.1,71.1l6.6,3.4
	l-20.1,48.4l9.5,3.9l20.1-48.4l7.1,2.3c16.3,5.4,33.2,8.1,50.3,8.1c4.4,0,8,3.6,8,8v54c11.5-5.3,28.1-18.3,35-25.5
	c9.7-10.3,14.4-24.3,14.4-42.7v-65.5c0-38.2,17.5-58.7,36-80.4l0.6-0.7c5.6-6.6,11.4-13.5,16.7-20.8c16.6-23.3,25.3-50.6,25.3-79.1
	c0-72.3-56.7-131.7-128-135.8v18c0,4.4-3.6,8-8,8s-8-3.6-8-8V6.4h8c83.8,0,152,68.2,152,152c0,31.9-9.8,62.4-28.3,88.5
	c-5.6,7.9-11.7,15-17.5,21.8l-0.6,0.7c-18,21-32.1,37.7-32.1,70v65.5c0,22.7-6.2,40.3-18.8,53.7
	C325.7,462.9,294.3,491.5,275.1,491.5z M314.4,360.5h-47.3v-65c-22.3-3.8-39.3-23.3-39.3-46.6c0-4.4,3.6-8,8-8s8,3.6,8,8
	c0,17.3,14,31.3,31.3,31.3h8v64.3h31.3c4.4,0,8,3.6,8,8S318.8,360.5,314.4,360.5z M209.6,257c-4.4,0-8-3.6-8-8
	c0-40.5,33-73.5,73.5-73.5c4.4,0,8,3.6,8,8s-3.6,8-8,8c-31.7,0-57.5,25.8-57.5,57.5C217.6,253.4,214.1,257,209.6,257z M197.1,102.9
	c-3.1,0-6.1-1.9-7.4-4.9L167.4,44l39-16.2l20.6,49.9c16.1-4.6,32.2-7,48.2-7c4.4,0,8,3.6,8,8s-3.6,8-8,8c-16.6,0-33.5,2.8-50.3,8.4
	l-7.1,2.3l-20.1-48.7l-9.4,3.9l16.3,39.2c1.7,4.1-0.2,8.8-4.3,10.5C199.2,102.7,198.2,102.9,197.1,102.9z"></path>
</svg>