<svg version="1.1" id="Layer_1" xmlns="http://www.w3.org/2000/svg" xmlns:xlink="http://www.w3.org/1999/xlink" x="0px" y="0px" viewBox="0 0 512 512" enable-background="new 0 0 512 512" xml:space="preserve">
<g>
	<linearGradient id="SVGID_1_" gradientUnits="userSpaceOnUse" x1="76.965" y1="262.3983" x2="241.305" y2="262.3983" class="gradient-element">
		<stop offset="0" class="primary-color-gradient" style="stop-color: #FFA4ED"></stop>
		<stop offset="1" class="secondary-color-gradient" style="stop-color: #DB81DA"></stop>
	</linearGradient>
	<path fill="url(#SVGID_1_)" d="M241.3,147.2c0,48.1,0,96.2,0,144.3c0,11.2-8.7,16.4-18.6,11.3c-24.9-12.6-50.3-24.2-76.9-32.5
		c0,37.8,0.1,86.4,0,104.6c0,2.5,0.1,5.1-0.5,7.4c-1.1,5-5.8,8.5-11.4,8.6c-15,0.1-30,0.1-44.9,0c-7.3-0.1-11.9-5-12-12.5
		c0-2.5,0-4.9,0-7.4c9,0,17.9,0,26.9-0.1c5.6,0,10.3-3.6,11.4-8.6c0.5-2.4,0.5-5,0.5-7.4c0-16.1-0.1-55.9-0.1-91c0,0,0,0,0,0
		L77,257.4v-17l62.4,7.7c4.4,0.5,8.7,1.7,12.8,3.4c13.7,5.8,27.2,12.3,40.5,19.1c10,5.1,18.6-0.1,18.6-11.3c0-43.3,0-74.3,0-117.6
		c3.7-1.9,7.4-3.8,11.1-5.8C232.5,130.5,241.3,135.7,241.3,147.2z"></path>
	<linearGradient id="SVGID_2_" gradientUnits="userSpaceOnUse" x1="402.5124" y1="223.0756" x2="494.015" y2="223.0756">
		<stop offset="0" class="primary-color-gradient" style="stop-color: #FFA4ED"></stop>
		<stop offset="1" class="secondary-color-gradient" style="stop-color: #DB81DA"></stop>
	</linearGradient>
	<path fill="url(#SVGID_2_)" d="M494,235.2c-1.2,59.3-23.6,118.8-68.1,169.9c-5.4,6.2-13.4,8.2-20.5,6.3c-2.8-0.7-3.7-4.1-1.8-6.3
		c0,0,0-0.1,0,0c-1.5,5.1,70.3-64.4,73-169.9c2.7-104.2-49.3-167-72.8-194.1c-0.2-0.2-0.4-0.4-0.6-0.9c-0.9-2.5,0.6-5.1,3.3-5.6
		c1.4-0.3,2.8-0.4,4.3-0.4c5.6,0,11.3,2.3,15.4,7c23.5,27,41.3,57.8,53.1,92.3C489.2,162.6,494,192.7,494,235.2z"></path>
</g>
<path d="M241.3,197c-4.4,0-8,3.6-8,8c0,28.8,0,57.7,0,86.5c0,2.4-0.7,4.3-1.7,4.9c-1.1,0.7-3.1,0.4-5.3-0.7
	c-24.5-12.4-57.1-27.9-92.4-37c-8.1-2.1-34.4-4.5-49.5-5.5c0.4-1.7,0.6-3.5,0.6-5.6c0-6.9,0-13.9,0-20.8c0-2.9,0-5.9,0-8.8
	c0-3.1,0-6.2,0-9.3c0-7.1,0-14.4,0-21.6c-0.1-11.6-8.7-20.1-20.3-20.1c-3.4,0-6.9,0.4-10.2,1.1c-24.6,5.3-42.2,29-39.9,54.1
	c2.3,25.5,23.7,45.9,48.7,46.5c0.2,0,0.4,0,0.7,0c1.9,0,3.6-0.2,5.2-0.5c0,12.5,0,33.4,0,49.2l0,13.1c0,4.7,0,9.5,0,14.2
	c0,11.1,0,22.5,0,33.8c0.1,12,8.2,20.4,19.9,20.5c6.9,0.1,14.1,0.1,21.6,0.1c7.4,0,15.2,0,23.5-0.1c9.3-0.1,17.2-6.1,19.2-14.8
	c0.7-3,0.7-5.9,0.7-8.4l0-0.8c0-8,0-17.5,0-27.6c0-22.3-0.1-47.3,0.1-65.9c24.6,8.5,47.2,19.4,65.2,28.5c3.7,1.9,7.5,2.8,11.1,2.8
	c3.5,0,6.9-0.9,9.8-2.7c5.9-3.6,9.3-10.4,9.3-18.6c0-28.8,0-57.7,0-86.5C249.3,200.6,245.7,197,241.3,197z M63.5,252.7
	c-16.7-0.4-31.6-14.7-33.1-31.9c-1.5-17.2,10.5-33.5,27.3-37.1c2.2-0.5,4.5-0.7,6.9-0.7c0,0,0,0,0,0c3,0,4.3,1.3,4.3,4.2
	c0.1,7.1,0.1,14.3,0,21.4c0,3.1,0,6.2,0,9.3c0,2.9,0,5.9,0,8.8c0,6.9,0,13.8,0,20.7c0,2-0.4,3.5-1.1,4.2
	C67.1,252.3,65.5,252.7,63.5,252.7z M137.9,276.6c-0.2,19-0.2,46.5-0.1,70.8c0,10.1,0,19.6,0,27.6l0,0.9c0,1.8,0,3.6-0.3,4.8
	c-0.3,1.4-1.8,2.3-3.7,2.3c-16.6,0.1-31.2,0.1-44.8,0c-2.1,0-4-0.6-4-4.6c-0.1-11.2,0-22.6,0-33.7c0-4.7,0-9.5,0-14.2l0-13.1
	c0-15.3,0-35.5,0-48.1c15,1.1,38.8,3.3,44.9,4.9c2.7,0.7,5.4,1.5,8.1,2.2C137.9,276.4,137.9,276.5,137.9,276.6z M87.5,176.8
	c-0.2-4.4,3.2-8.2,7.6-8.4c19.9-0.9,48.9-7.1,69.1-14.7c17-6.4,34.8-14.5,54.5-24.9c7.4-3.9,15.1-4,21.1-0.4
	c6,3.6,9.5,10.5,9.5,18.8l0,27.8c0,4.4-3.6,8-8,8c0,0,0,0,0,0c-4.4,0-8-3.6-8-8l0-27.8c0-2.5-0.7-4.4-1.7-5.1
	c-1.1-0.7-3.1-0.3-5.4,0.8c-20.3,10.7-38.7,19.2-56.4,25.8c-21.5,8.1-52.6,14.7-73.9,15.7c-0.1,0-0.3,0-0.4,0
	C91.2,184.4,87.7,181.1,87.5,176.8z M486.8,130.9c-12.1-35.3-30.5-67.3-54.6-95c-6-6.9-14.7-10.4-23.8-9.7
	c-9.1,0.8-17.1,5.7-21.9,13.5c-6.6,10.8-5.2,24.9,3.5,34.3c20.9,22.5,36.5,48.8,46.6,78.2c8.2,23.9,11.7,48.1,11.7,80.8
	c-1,50.7-21.3,98.9-58.5,139.3c-8.6,9.3-10,23.4-3.4,34.2c4.8,7.8,12.8,12.7,21.9,13.5c0.8,0.1,1.6,0.1,2.5,0.1
	c8.2,0,15.9-3.5,21.3-9.7c44.6-51.2,68.8-111.7,70.1-175c0-0.1,0-0.1,0-0.2C502,193.2,497.5,162,486.8,130.9z M419.9,399.8
	c-2.6,3-6.4,4.5-10.4,4.2c-4-0.3-7.5-2.5-9.6-5.9c-2.9-4.7-2.3-10.9,1.5-15c40-43.4,61.7-95.2,62.8-149.9c0-0.1,0-0.1,0-0.2
	c0-34.6-3.8-60.3-12.6-86.1c-10.8-31.5-27.6-59.7-50-83.9c-3.8-4.1-4.5-10.3-1.6-15.1c2.1-3.4,5.6-5.6,9.6-5.9
	c4-0.3,7.8,1.2,10.4,4.2c22.8,26.2,40.1,56.3,51.6,89.7c10.1,29.4,14.4,59,14.4,99.1C484.8,294.6,461.9,351.5,419.9,399.8z
	 M410,228.3c-1,48.7-21.1,93.1-58.1,128.3c-1.5,1.5-3.5,2.2-5.5,2.2c-2.1,0-4.2-0.8-5.8-2.5c-3-3.2-2.9-8.3,0.3-11.3
	c33.8-32.2,52.1-72.6,53.1-116.9c-0.2-34-7.2-61.9-22.2-88.1c-8.5-14.9-19.1-28.2-31.5-39.5c-3.3-3-3.5-8-0.5-11.3
	c3-3.3,8-3.5,11.3-0.5c13.6,12.4,25.3,27,34.6,43.3c16.4,28.6,24.1,59.2,24.3,96.1C410,228.2,410,228.3,410,228.3z M355.7,223.2
	c-0.7,37.6-14.9,69.5-42.4,94.7c-1.5,1.4-3.5,2.1-5.4,2.1c-2.2,0-4.3-0.9-5.9-2.6c-3-3.3-2.8-8.3,0.5-11.3
	c24.5-22.5,36.6-49.7,37.2-83.1c0.1-7.4-0.7-15-2.3-22.4c-5.1-24.1-17-44.6-35.3-60.9c-3.3-2.9-3.6-8-0.7-11.3
	c2.9-3.3,8-3.6,11.3-0.7c20.9,18.6,34.5,42.1,40.3,69.6C354.9,205.9,355.7,214.6,355.7,223.2z"></path>
<path fill="#DB81DA" class="secondary-color" d="M155.6,45.3l-57.8,57.8L40,45.3H155.6z"></path>
<path d="M258.7,374c0,20.3-16.5,36.8-36.8,36.8c-4.4,0-8-3.6-8-8s3.6-8,8-8c11.4,0,20.8-9.3,20.8-20.8c0-4.4,3.6-8,8-8
	S258.7,369.6,258.7,374z M300.7,394.7c-11.4,0-20.8-9.3-20.8-20.8c0-4.4-3.6-8-8-8s-8,3.6-8,8c0,20.3,16.5,36.8,36.8,36.8
	c4.4,0,8-3.6,8-8S305.1,394.7,300.7,394.7z M300.7,416c-20.3,0-36.8,16.5-36.8,36.8c0,4.4,3.6,8,8,8s8-3.6,8-8
	c0-11.4,9.3-20.8,20.8-20.8c4.4,0,8-3.6,8-8S305.1,416,300.7,416z M221.9,416c-4.4,0-8,3.6-8,8s3.6,8,8,8c11.4,0,20.8,9.3,20.8,20.8
	c0,4.4,3.6,8,8,8s8-3.6,8-8C258.7,432.5,242.2,416,221.9,416z M197.7,96.3c5.9,0,10.8-4.8,10.8-10.8s-4.8-10.8-10.8-10.8
	c-5.9,0-10.8,4.8-10.8,10.8S191.8,96.3,197.7,96.3z M361.7,442c-5.9,0-10.8,4.8-10.8,10.8c0,5.9,4.8,10.8,10.8,10.8
	s10.8-4.8,10.8-10.8C372.5,446.8,367.7,442,361.7,442z M231.4,183h56c4.4,0,8-3.6,8-8s-3.6-8-8-8h-56c-4.4,0-8,3.6-8,8
	S227,183,231.4,183z M307.5,227h-35c-4.4,0-8,3.6-8,8s3.6,8,8,8h35c4.4,0,8-3.6,8-8S311.9,227,307.5,227z M252.9,197h-73.8
	c-4.4,0-8,3.6-8,8s3.6,8,8,8h73.8c4.4,0,8-3.6,8-8S257.3,197,252.9,197z M57.5,424.1c-4.4,0-8,3.6-8,8s3.6,8,8,8
	c5.7,0,10.4,4.7,10.4,10.4s-4.7,10.4-10.4,10.4c-4.4,0-8,3.6-8,8s3.6,8,8,8c14.6,0,26.4-11.8,26.4-26.4S72,424.1,57.5,424.1z"></path>
</svg>