<svg version="1.1" id="Layer_1" xmlns="http://www.w3.org/2000/svg" xmlns:xlink="http://www.w3.org/1999/xlink" x="0px" y="0px" viewBox="0 0 512 512" enable-background="new 0 0 512 512" xml:space="preserve">
<linearGradient id="SVGID_1_" gradientUnits="userSpaceOnUse" x1="287.6679" y1="460.3323" x2="292.2975" y2="245.8308" class="gradient-element">
	<stop offset="0" class="primary-color-gradient" style="stop-color: #FFA4ED"></stop>
	<stop offset="1" class="secondary-color-gradient" style="stop-color: #DB81DA"></stop>
</linearGradient>
<path fill="url(#SVGID_1_)" d="M475,392.6c0,43.4-35.8,54.8-54.8,54.8H113.2c-3.9,0-7.5-0.4-10.9-0.9C99,481.7,126.4,272,168,272
	l0,0v11c0,30.9,27.4,51,33,51.1h131.4c30.9,0,32.8-45.6,32.9-51.2V272l89.7,0C474.6,326.8,475,387.9,475,392.6z"></path>
<path d="M420.1,455.4H113.2c-27.2,0-42.3-12.8-50.1-23.6c-11.8-16.1-12.7-34.1-12.7-39.2c0-5.8,0.4-57.9,15.9-109.6
	c20.8-69.8,59.8-106.6,112.7-106.6h142.5c4.4,0,8,3.6,8,8v21.9c0,4.4-3.6,8-8,8s-8-3.6-8-8v-13.9H179c-45.7,0-78.5,32-97.4,95.2
	c-15.1,50.4-15.2,102.9-15.2,105.1c0,1.9,0.5,46.8,46.8,46.8h306.9c1.9,0,46.8-0.5,46.8-46.8c0-4.5-0.3-45.4-11.1-89.9
	c-9.6-39.2-29.7-89.3-71.4-105.1c-3.1-1.2-5.2-4.2-5.2-7.5v-38.7c0-0.2-0.4-23.4-14.7-46c-18.7-29.6-51.6-44.6-97.8-44.6
	c-46.2,0-79.1,15-97.8,44.6c-14.3,22.6-14.7,45.9-14.7,46.1v2.9h68.7c4.4,0,8,3.6,8,8s-3.6,8-8,8h-76.7c-4.4,0-8-3.6-8-8v-11
	c0-0.3,0.2-27.2,16.8-53.9c15-24.1,46.5-52.7,111.8-52.7s96.8,28.7,111.8,52.7c16.6,26.7,16.8,53.7,16.8,53.9v33.4
	c19.3,8.7,35.7,24,49.1,45.6c11.3,18.4,20.4,41.5,27,68.6c11.3,46.3,11.6,89,11.6,93.7c0,27.2-12.8,42.3-23.6,50.1
	C443.3,454.5,425.3,455.4,420.1,455.4z M310.5,345.7h-87.7c-5.1,0-23.1-0.9-39.2-12.7c-10.8-7.9-23.6-22.9-23.6-50.1v-75.9
	c0-4.4,3.6-8,8-8s8,3.6,8,8v75.9c0,46.3,44.9,46.8,46.8,46.8h87.7c46.3,0,46.8-44.9,46.8-46.8v-54.8c0-4.4,3.6-8,8-8s8,3.6,8,8v54.8
	c0,5.1-0.9,23.1-12.7,39.2C352.8,332.9,337.7,345.7,310.5,345.7z M299.6,301.9h-65.8c-4.4,0-8-3.6-8-8V272c0-4.4,3.6-8,8-8h65.8
	c4.4,0,8,3.6,8,8v21.9C307.6,298.3,304,301.9,299.6,301.9z M241.8,285.9h49.8V280h-49.8V285.9z M365.3,192.8c-0.2,0-0.5,0-0.8,0
	c-3.6-0.3-7.1-0.5-10.2-0.5h-11c-4.4,0-8-3.6-8-8s3.6-8,8-8h11c3.6,0,7.6,0.2,11.7,0.6c4.4,0.4,7.6,4.3,7.2,8.7
	C372.9,189.7,369.4,192.8,365.3,192.8z"></path>
<path fill="#DB81DA" class="secondary-color" d="M32.2,405.6H17.6V345h14.6V405.6z M32.2,255.7H17.6v60.6h14.6V255.7z M32.2,477.5v-46H17.6v46v14.6h14.6h46
	v-14.6H32.2z"></path>
<path d="M486.9,176.6c-4.2,4.2-11,4.2-15.2,0s-4.2-11,0-15.2s11-4.2,15.2,0C491.1,165.6,491.1,172.4,486.9,176.6z M468.5,62.7
	c4.4,0,8-3.6,8-8s-3.6-8-8-8h-3.9v-3.9c0-4.4-3.6-8-8-8s-8,3.6-8,8v3.9h-3.9c-4.4,0-8,3.6-8,8s3.6,8,8,8h3.9v3.9c0,4.4,3.6,8,8,8
	s8-3.6,8-8v-3.9H468.5z M62.3,36.5c-4.4,0-8,3.6-8,8c0,11.4-9.3,20.8-20.8,20.8c-4.4,0-8,3.6-8,8s3.6,8,8,8
	c20.3,0,36.8-16.5,36.8-36.8C70.3,40,66.7,36.5,62.3,36.5z M112.3,65.2c-11.4,0-20.8-9.3-20.8-20.8c0-4.4-3.6-8-8-8s-8,3.6-8,8
	c0,20.3,16.5,36.8,36.8,36.8c4.4,0,8-3.6,8-8S116.7,65.2,112.3,65.2z M112.3,86.5c-20.3,0-36.8,16.5-36.8,36.8c0,4.4,3.6,8,8,8
	s8-3.6,8-8c0-11.4,9.3-20.8,20.8-20.8c4.4,0,8-3.6,8-8S116.7,86.5,112.3,86.5z M33.6,86.5c-4.4,0-8,3.6-8,8s3.6,8,8,8
	c11.4,0,20.8,9.3,20.8,20.8c0,4.4,3.6,8,8,8s8-3.6,8-8C70.3,103,53.8,86.5,33.6,86.5z M252.5,130.7h-59.5c-4.4,0-8,3.6-8,8
	s3.6,8,8,8h59.5c4.4,0,8-3.6,8-8S256.9,130.7,252.5,130.7z"></path>
</svg>