<svg version="1.1" id="Layer_1" xmlns="http://www.w3.org/2000/svg" xmlns:xlink="http://www.w3.org/1999/xlink" x="0px" y="0px" viewBox="0 0 512 512" enable-background="new 0 0 512 512" xml:space="preserve">
<linearGradient id="SVGID_1_" gradientUnits="userSpaceOnUse" x1="256.2514" y1="420.7087" x2="256.2514" y2="86.3782" class="gradient-element">
	<stop offset="0" class="primary-color-gradient" style="stop-color: #FFA4ED"></stop>
	<stop offset="1" class="secondary-color-gradient" style="stop-color: #DB81DA"></stop>
</linearGradient>
<path fill="url(#SVGID_1_)" d="M399.9,416.3l-57.6-24.9l-35.2,51.9l-12.8-43.9c0,0-7.8-26.7,10.6-38.1s31.7-31.3,24.4-49.3
	c-3.6-8.9-4.8-18.3-1.6-27.4c-18.9,13.3-41.9,21.1-66.8,21.1c-9.7,0-19.1-1.2-28.1-3.4c25.7-6.4,48-21.3,63.7-41.5l2.3,1.6
	c1.7,1.2,3.7,1.9,5.7,1.9c2,0,4-0.6,5.7-1.8c3.4-2.5,4.8-6.8,3.5-10.8l-3.9-12.2c7.2-15.1,11.2-32,11.2-49.8c0-1.7,0-3.4-0.1-5.2
	l19.2-14c3.4-2.5,4.8-6.8,3.5-10.8c-1.3-4-5-6.7-9.2-6.7H315c-12.5-37.5-43.5-66.5-82.2-76.1c9-2.2,18.4-3.4,28.1-3.4
	c64.1,0,116.1,52,116.1,116.1c0,26-8.5,50-23,69.3L399.9,416.3z M222.4,348.8c-10.7,9.1-23.7,18-26.4,12.6
	c-4.7-9.3-13.3-14.7-30-11.9c-16.7,2.8-37.4,11.9-37.4,11.9l-16,54.9l57.6-24.9l35.2,51.9l25.9-88.8
	C232.8,349.3,226.6,345.2,222.4,348.8z"></path>
<path d="M344.7,176.9l-37.8,27.6l14.4,44.6c2.4,7.3-0.2,15.2-6.4,19.7c-3.1,2.2-6.6,3.4-10.4,3.4c-3.8,0-7.4-1.2-10.4-3.4
	l-37.7-27.5l-37.7,27.5c-3.1,2.2-6.7,3.4-10.4,3.4c-3.7,0-7.3-1.2-10.4-3.4c-6.2-4.5-8.8-12.4-6.4-19.7l14.4-44.6l-37.9-27.6
	c-3.6-2.6-4.4-7.6-1.7-11.2c2.6-3.6,7.6-4.4,11.2-1.7l42.5,31c2.8,2,4,5.6,2.9,8.9l-16.2,50.1c-0.2,0.7,0,1.5,0.6,1.9
	c0.4,0.3,0.7,0.3,1,0.3c0.4,0,0.7-0.1,1-0.3l42.4-30.9c2.8-2.1,6.6-2.1,9.4,0l42.4,30.9c0.4,0.3,0.7,0.3,1,0.3s0.6-0.1,1-0.3
	c0.6-0.4,0.8-1.2,0.6-1.9L289.8,204c-1.1-3.3,0.1-6.9,2.9-8.9l42.5-31.1c0.6-0.4,0.8-1.2,0.6-1.9c-0.2-0.7-0.9-1.1-1.6-1.1h-52.5
	c-3.5,0-6.5-2.2-7.6-5.5l-16.2-50c-0.2-0.7-0.9-1.2-1.6-1.2c-0.7,0-1.3,0.5-1.6,1.1l-16.2,50c-1.1,3.3-4.1,5.5-7.6,5.5h-48.7
	c-4.4,0-8-3.6-8-8s3.6-8,8-8h42.9l14.4-44.5c2.4-7.3,9.1-12.2,16.8-12.2c7.7,0,14.4,4.9,16.8,12.2l14.4,44.4h46.7
	c7.7,0,14.4,4.9,16.8,12.2C353.5,164.5,350.9,172.4,344.7,176.9z M405.2,422.3c-2.3,2-5.6,2.6-8.5,1.3l-51.5-22.3l-31.5,46.4
	c-1.5,2.2-4,3.5-6.6,3.5c-0.4,0-0.8,0-1.2-0.1c-3.1-0.5-5.6-2.7-6.4-5.7l-38-130.3c-1.8,0.1-3.6,0.1-5.5,0.1
	c-24.8,0-49-7.3-70.2-21.3c-8.7-5.8-16.6-12.5-23.5-20L125,402.2l42-18.1c3.5-1.5,7.6-0.3,9.8,2.9l25.7,37.8l27-92.9
	c1.2-4.2,5.7-6.7,9.9-5.4c4.2,1.2,6.7,5.7,5.4,9.9l-31.8,109.2c-0.9,3-3.4,5.2-6.4,5.7c-0.4,0.1-0.8,0.1-1.2,0.1
	c-2.6,0-5.1-1.3-6.6-3.5l-31.5-46.4l-51.5,22.3c-2.8,1.2-6.1,0.7-8.5-1.3c-2.3-2.1-3.3-5.3-2.4-8.2l45.3-155.5
	c-9-13.6-15.4-28.9-18.7-45.3c-13.9-68.8,30.8-136.1,99.6-149.9c27.2-5.5,54.7-2.1,79.7,9.7c24.1,11.4,44.4,30.6,57.2,53.9
	c2.1,3.9,0.7,8.7-3.2,10.9c-3.9,2.1-8.7,0.7-10.9-3.2c-23.5-43-71.6-65.3-119.7-55.6c-60.2,12.1-99.2,70.9-87.1,131.1
	c5.9,29.1,22.8,54.2,47.5,70.7c24.8,16.4,54.4,22.3,83.6,16.4c60.2-12.1,99.2-70.9,87.1-131.1c-0.9-4.3,1.9-8.6,6.3-9.4
	c4.3-0.9,8.6,1.9,9.4,6.3c6.9,34.4-0.8,68.4-18.8,95.5l45.3,155.7C408.5,417.1,407.5,420.3,405.2,422.3z M387.5,402.2L350.1,274
	c-17.6,19.3-41.2,33.3-68.7,38.9c-1.3,0.3-2.5,0.5-3.8,0.7L310,424.8l25.7-37.8c2.2-3.2,6.3-4.4,9.8-2.9L387.5,402.2z"></path>
<path d="M439.5,125.9c0-5.9,4.8-10.8,10.8-10.8c5.9,0,10.8,4.8,10.8,10.8c0,5.9-4.8,10.8-10.8,10.8
	C444.3,136.6,439.5,131.8,439.5,125.9z M97.3,249.3H81.5v-15.8c0-4.4-3.6-8-8-8s-8,3.6-8,8v15.8H49.8c-4.4,0-8,3.6-8,8s3.6,8,8,8
	h15.8v15.8c0,4.4,3.6,8,8,8s8-3.6,8-8v-15.8h15.8c4.4,0,8-3.6,8-8S101.7,249.3,97.3,249.3z M45,74.1c20.3,0,36.7-16.5,36.7-36.8
	c0-4.4-3.6-8-8-8s-8,3.6-8,8c0,11.4-9.3,20.8-20.7,20.8c-4.4,0-8,3.6-8,8S40.6,74.1,45,74.1z M123.8,58.1
	c-11.4,0-20.8-9.3-20.8-20.8c0-4.4-3.6-8-8-8s-8,3.6-8,8c0,20.3,16.5,36.8,36.8,36.8c4.4,0,8-3.6,8-8S128.2,58.1,123.8,58.1z
	 M123.8,79.3c-20.3,0-36.8,16.5-36.8,36.8c0,4.4,3.6,8,8,8s8-3.6,8-8c0-11.4,9.3-20.8,20.8-20.8c4.4,0,8-3.6,8-8
	S128.2,79.3,123.8,79.3z M65.8,116.1c0,4.4,3.6,8,8,8s8-3.6,8-8c0-20.3-16.5-36.8-36.7-36.8c-4.4,0-8,3.6-8,8s3.6,8,8,8
	C56.4,95.3,65.8,104.6,65.8,116.1z M466.9,433.9H463V430c0-4.4-3.6-8-8-8s-8,3.6-8,8v3.9h-3.9c-4.4,0-8,3.6-8,8s3.6,8,8,8h3.9v3.9
	c0,4.4,3.6,8,8,8s8-3.6,8-8v-3.9h3.9c4.4,0,8-3.6,8-8S471.3,433.9,466.9,433.9z"></path>
<g>
	<path fill="#FFA4ED" class="primary-color" d="M491.3,86.9l-60.9-60.9h60.9V86.9z"></path>
	<path fill="#DB81DA" class="secondary-color" d="M469.8,372.1h-29.6V164.9h29.6V372.1z M137.4,488.6L21.8,430.8v57.8H137.4z"></path>
</g>
</svg>