<svg version="1.1" id="Layer_1" xmlns="http://www.w3.org/2000/svg" xmlns:xlink="http://www.w3.org/1999/xlink" x="0px" y="0px" viewBox="0 0 512 512" enable-background="new 0 0 512 512" xml:space="preserve">
<linearGradient id="SVGID_1_" gradientUnits="userSpaceOnUse" x1="292.417" y1="456.6738" x2="292.417" y2="46.6562" class="gradient-element">
	<stop offset="0" class="primary-color-gradient" style="stop-color: #FFA4ED"></stop>
	<stop offset="1" class="secondary-color-gradient" style="stop-color: #DB81DA"></stop>
</linearGradient>
<path fill="url(#SVGID_1_)" d="M469.7,239.8c-7.1-106.9-92-192.5-198.6-200.7c-1-0.1-2-0.1-3-0.2c-4.6-0.3-9.1-0.4-13.8-0.4h-0.4
	c-27,0.1-41.4,27.5-32.3,52.9c5.6,15.8,33.7,22.3,65,34.5c0,0,19,8.5,28,12.6c35.4,18.8,67.6,50.1,69.5,115.1c0,0.3,0,0.5,0,0.8
	c1.7,66.3-30,98-69.7,115.9c-40.7,21.6-85.6,26.6-92.9,47c-9,25.1,4.9,52.2,31.3,52.9c0.3,0,0.7,0,1,0h0.4c4.6,0,9.2-0.1,13.8-0.4
	c108-6.8,194.4-93,201.6-200.9c0.1-1,0.4-11,0.5-11.7C470.2,256,469.9,243,469.7,239.8z M409.1,351.5c-8.3,0-15.1-6.7-15.1-15.1
	s6.7-15.1,15.1-15.1s15,6.7,15,15.1S417.4,351.5,409.1,351.5z M141.7,291.5c0,6.2-5.1,11.3-11.3,11.3c-1.3,0-2.6-0.2-3.8-0.7
	c4.3-1.6,7.5-5.8,7.5-10.6c0-4.9-3.1-9.1-7.5-10.6c1.2-0.4,2.5-0.7,3.8-0.7C136.6,280.2,141.7,285.3,141.7,291.5z M118.5,98.1
	c-1.3,0-2.6-0.2-3.8-0.7c4.3-1.6,7.5-5.8,7.5-10.6c0-4.9-3.1-9.1-7.5-10.6c1.2-0.4,2.5-0.7,3.8-0.7c6.2,0,11.3,5.1,11.3,11.3
	S124.7,98.1,118.5,98.1z"></path>
<path d="M207.3,232.2c-5.9,13.1-6.4,27.7-1.3,41.1c5.1,13.4,15.1,24.1,28.2,30c27,12.2,58.9,0.2,71.1-26.9c1.8-4,6.6-5.8,10.6-4
	c4,1.8,5.8,6.6,4,10.6c-7.7,17-21.5,30-38.9,36.5c-8,3-16.3,4.5-24.7,4.5c-9.8,0-19.5-2.1-28.7-6.2c-17-7.7-30-21.5-36.5-38.9
	c-6.6-17.4-6-36.4,1.7-53.4s21.5-30,38.9-36.5c17.4-6.6,36.4-6,53.4,1.7c16.3,7.3,29,20.5,35.8,37c1.7,4.1-0.3,8.8-4.3,10.4
	c-4.1,1.7-8.8-0.3-10.4-4.3c-5.2-12.7-15-22.8-27.6-28.5c-13.1-5.9-27.7-6.4-41.1-1.3C223.8,209.1,213.2,219.1,207.3,232.2z
	 M502.3,255.8c0,4.4-3.6,8-8,8H478c-1.1,26.6-6.9,52.4-17.2,76.9c-1.3,3.1-4.3,4.9-7.4,4.9c-1,0-2.1-0.2-3.1-0.6
	c-4.1-1.7-6-6.4-4.3-10.5c9.5-22.5,14.9-46.2,16-70.7h-24.6c-1,19.4-5,38.2-12,56.3c4.3,4.2,6.9,10,6.9,16.4c0,12.7-10.3,23-23,23
	c-1.7,0-3.3-0.2-4.8-0.5c-34,48.1-89,76.6-148,76.6c-100,0-181.3-81.3-181.3-181.3S156.3,73,256.3,73C354,73,434,150.8,437.4,247.8
	h24.6c-3.5-110.5-94.5-199.4-205.8-199.4c-40.7,0-79.8,11.8-113.5,34.1c0.3,1.4,0.4,2.9,0.4,4.3c0,12.1-9.9,22-22,22
	c-3.1,0-6.1-0.7-8.8-1.8c-39.5,38.6-62,92-62,147.3c0,113.5,92.4,205.9,205.9,205.9c68.8,0,132.8-34.1,171.1-91.3
	c2.5-3.7,7.4-4.6,11.1-2.2c3.7,2.5,4.6,7.4,2.2,11.1c-41.4,61.6-110.3,98.4-184.4,98.4c-59.3,0-115-23.1-156.9-65
	c-41.9-41.9-65-97.6-65-156.9c0-31.6,6.5-62.1,19.3-90.7C65.1,138.1,81,115.3,101,95.7c-1.2-2.7-1.9-5.7-1.9-8.9
	c0-12.1,9.9-22,22-22c4.8,0,9.3,1.6,12.9,4.2c36.3-24,78.4-36.6,122.2-36.6c59.3,0,115,23.1,156.9,65
	c40.4,40.4,63.3,93.6,64.9,150.4h16.2C498.7,247.8,502.3,251.3,502.3,255.8z M127.2,86.8c0-3.3-2.7-6-6-6s-6,2.7-6,6s2.7,6,6,6
	S127.2,90.1,127.2,86.8z M416.2,336.4c0-3.9-3.2-7-7-7c-3.9,0-7,3.2-7,7c0,3.9,3.2,7,7,7C413,343.5,416.2,340.3,416.2,336.4z
	 M421.3,263.8h-29.5c-2.2,31.7-15.3,62.7-39.5,86.8c-25.7,25.7-59.9,39.9-96.3,39.9c-36.4,0-70.6-14.2-96.3-39.9
	c-11.2-11.2-20.3-24.1-26.9-38.3c-11.6-0.6-20.9-10.2-20.9-22c0-7.3,3.6-13.9,9.2-17.8c-5.6-42,8.7-84.5,38.7-114.5
	c25.7-25.7,59.9-39.9,96.3-39.9c36.4,0,70.6,14.2,96.3,39.9c24.9,24.9,38.1,57.1,39.7,89.8h29.5C418,159.6,345.2,89,256.3,89
	c-91.2,0-165.3,74.2-165.3,165.3c0,91.2,74.2,165.3,165.3,165.3c53.6,0,103.5-25.8,134.5-69.2c-2.9-3.9-4.7-8.7-4.7-13.9
	c0-12.7,10.3-23,23-23c0.5,0,1,0,1.5,0.1C416.8,297.5,420.3,280.9,421.3,263.8z M252.2,255.8c0-4.4,3.6-8,8-8h115.7
	c-1.5-28.6-13.2-56.7-35-78.5c-22.7-22.7-52.9-35.2-85-35.2c-32.1,0-62.3,12.5-85,35.2c-26,26-38.7,62.8-34.4,99.2
	c10.8,1.4,19.2,10.6,19.2,21.8c0,6.7-3,12.8-7.8,16.8c5.8,11.9,13.5,22.7,23,32.1c22.7,22.7,52.9,35.2,85,35.2
	c32.1,0,62.3-12.5,85-35.2c21-21,32.6-48,34.8-75.5H260.2C255.8,263.8,252.2,260.2,252.2,255.8z M127.8,290.3c0,3.3,2.7,6,6,6
	s6-2.7,6-6c0-3.3-2.7-6-6-6S127.8,287,127.8,290.3z"></path>
<path d="M491.9,51.4c0,4.4-3.6,8-8,8h-15.8v15.8c0,4.4-3.6,8-8,8s-8-3.6-8-8V59.4h-15.8c-4.4,0-8-3.6-8-8s3.6-8,8-8h15.8V27.6
	c0-4.4,3.6-8,8-8s8,3.6,8,8v15.8h15.8C488.3,43.4,491.9,46.9,491.9,51.4z M34.3,80.8v3.9c0,4.4,3.6,8,8,8s8-3.6,8-8v-3.9h3.9
	c4.4,0,8-3.6,8-8s-3.6-8-8-8h-3.9v-3.9c0-4.4-3.6-8-8-8s-8,3.6-8,8v3.9h-3.9c-4.4,0-8,3.6-8,8s3.6,8,8,8H34.3z M54.2,457.1
	c-14.6,0-26.4,11.8-26.4,26.4c0,4.4,3.6,8,8,8s8-3.6,8-8c0-5.7,4.7-10.4,10.4-10.4s10.4,4.7,10.4,10.4c0,4.4,3.6,8,8,8s8-3.6,8-8
	C80.6,468.9,68.8,457.1,54.2,457.1z"></path>
<path fill="#FFA4ED" class="primary-color" d="M429.6,485.9l60.9-60.9v60.9H429.6z"></path>
</svg>