<svg version="1.1" id="Layer_1" xmlns="http://www.w3.org/2000/svg" xmlns:xlink="http://www.w3.org/1999/xlink" x="0px" y="0px" viewBox="0 0 512 512" enable-background="new 0 0 512 512" xml:space="preserve">
<path fill="#DB81DA" class="secondary-color" d="M499.5,68l-47.1-47.1h47.1V68z"></path>
<path d="M471,139h-67.8c-4.4,0-8-3.6-8-8s3.6-8,8-8H471c4.4,0,8,3.6,8,8S475.4,139,471,139z M444.4,172.8c0,4.4,3.6,8,8,8h33.9
	c4.4,0,8-3.6,8-8s-3.6-8-8-8h-33.9C448,164.8,444.4,168.4,444.4,172.8z M76.8,107.5c4.4,0,8-3.6,8-8c0-8,6.5-14.5,14.5-14.5
	c4.4,0,8-3.6,8-8s-3.6-8-8-8c-16.8,0-30.5,13.7-30.5,30.5C68.8,103.9,72.3,107.5,76.8,107.5z M37.7,85c8,0,14.5,6.5,14.5,14.5
	c0,4.4,3.6,8,8,8s8-3.6,8-8C68.2,82.7,54.5,69,37.7,69c-4.4,0-8,3.6-8,8S33.3,85,37.7,85z M37.7,68.4c16.8,0,30.5-13.7,30.5-30.5
	c0-4.4-3.6-8-8-8s-8,3.6-8,8c0,8-6.5,14.5-14.5,14.5c-4.4,0-8,3.6-8,8S33.3,68.4,37.7,68.4z M99.2,68.4c4.4,0,8-3.6,8-8s-3.6-8-8-8
	c-8,0-14.5-6.5-14.5-14.5c0-4.4-3.6-8-8-8s-8,3.6-8,8C68.8,54.8,82.4,68.4,99.2,68.4z M485.1,441.2h-15.8v-15.8c0-4.4-3.6-8-8-8
	s-8,3.6-8,8v15.8h-15.8c-4.4,0-8,3.6-8,8s3.6,8,8,8h15.8V473c0,4.4,3.6,8,8,8s8-3.6,8-8v-15.8h15.8c4.4,0,8-3.6,8-8
	S489.5,441.2,485.1,441.2z M411.6,60.4c0-5.5,4.4-9.9,9.9-9.9s9.9,4.4,9.9,9.9s-4.4,9.9-9.9,9.9S411.6,65.9,411.6,60.4z
	 M265.9,478.2c0,5.5-4.4,9.9-9.9,9.9s-9.9-4.4-9.9-9.9s4.4-9.9,9.9-9.9S265.9,472.7,265.9,478.2z M177.6,33.2h-27.1
	c-4.4,0-8,3.6-8,8s3.6,8,8,8h27.1c4.4,0,8-3.6,8-8S182,33.2,177.6,33.2z M55.3,476.5H28.2c-4.4,0-8,3.6-8,8s3.6,8,8,8h27.1
	c4.4,0,8-3.6,8-8S59.7,476.5,55.3,476.5z M114.6,391.7H40.8c-4.4,0-8,3.6-8,8s3.6,8,8,8h73.8c4.4,0,8-3.6,8-8S119,391.7,114.6,391.7
	z"></path>
<linearGradient id="SVGID_1_" gradientUnits="userSpaceOnUse" x1="257.585" y1="394.2101" x2="262.7617" y2="90.0828" class="gradient-element">
	<stop offset="0" class="primary-color-gradient" style="stop-color: #FFA4ED"></stop>
	<stop offset="1" class="secondary-color-gradient" style="stop-color: #DB81DA"></stop>
</linearGradient>
<path fill="url(#SVGID_1_)" d="M182.1,110.8c23.2-12.1,49.5-19.1,77.5-19.1s54.3,7,77.5,19.1l-47.5,76.1l10,12.6
	c22.8,14.3,27.9,30.5,27.9,57.3l9.4,15.3h89.5c-3.5,45.6-25.1,86-57.8,114.1l-59.8-81.4l-13,9.4c-26.8,19.7-58.7,10.3-85.5-9.4
	l-6.8,9.1l-53,72.3c-32.7-28.1-54.3-68.5-57.8-114.1l93-4l0.6-8.9c0-26.7,9.6-49.2,32.4-63.5l10.9-8.8L182.1,110.8z"></path>
<path d="M259.7,310c-29.4,0-53.3-23.9-53.3-53.3s23.9-53.3,53.3-53.3c4.4,0,8,3.6,8,8s-3.6,8-8,8c-20.6,0-37.3,16.7-37.3,37.3
	s16.7,37.3,37.3,37.3s37.3-16.7,37.3-37.3c0-4.4,3.6-8,8-8c4.4,0,8,3.6,8,8C312.9,286.1,289,310,259.7,310z M290.3,256.7
	c0-4.4-3.6-8-8-8s-8,3.6-8,8c0,8.1-6.6,14.6-14.6,14.6s-14.6-6.6-14.6-14.6s6.6-14.6,14.6-14.6c4.4,0,8-3.6,8-8s-3.6-8-8-8
	c-16.9,0-30.6,13.7-30.6,30.6s13.7,30.6,30.6,30.6S290.3,273.6,290.3,256.7z M460.1,256.7c0-110.5-89.9-200.4-200.4-200.4
	S59.3,146.2,59.3,256.7c0,3.1,0.2,6,0.4,8.8c0.1,1,0.1,2,0.2,3c0.2,4.2,3.8,7.5,8,7.5h123.9c4.4,0,8-3.6,8-8v-11.3
	c0-20.7,10.5-39.7,28.2-50.8l9.6-6c3.7-2.3,4.9-7.3,2.5-11l-49.1-78.6c21.4-10.1,45-15.4,68.7-15.4c23.7,0,47.3,5.3,68.7,15.4
	l-49.1,78.6c-2.3,3.7-1.2,8.7,2.5,11l9.6,6c17.7,11.1,28.2,30,28.2,50.8V268c0,4.4,3.6,8,8,8h92.5c-4.5,37.5-22.4,72.7-49.9,98.6
	L315.3,300c-1.3-1.7-3.1-2.9-5.2-3.2c-2.1-0.3-4.2,0.2-5.9,1.5L295,305c-20.8,15.3-49.9,15.3-70.7,0l-9.1-6.7
	c-1.7-1.3-3.9-1.8-5.9-1.5c-2.1,0.3-4,1.5-5.2,3.2l-60,81.8c-2.6,3.6-1.8,8.6,1.7,11.2c3.6,2.6,8.6,1.8,11.2-1.7l55.3-75.3l2.7,2
	c26.4,19.4,63.3,19.4,89.7,0l2.7-2l55.3,75.3c1.3,1.8,3.3,2.9,5.5,3.2c2.2,0.3,4.4-0.4,6.1-1.8c18.1-15.3,32.8-33.7,43.6-54.7
	c11.1-21.6,17.6-45,19.2-69.3c0.1-2.2-0.6-4.4-2.1-6c-1.5-1.6-3.6-2.5-5.8-2.5h-93.3v-3.3c0-26.3-13.4-50.3-35.7-64.3l-2.8-1.8
	l49.5-79.3c1.2-1.9,1.5-4.2,0.9-6.3c-0.6-2.1-2-3.9-3.9-5c-25.7-13.8-54.7-21.1-83.9-21.1c-29.2,0-58.2,7.3-83.9,21.1
	c-1.9,1-3.4,2.9-3.9,5c-0.6,2.1-0.2,4.4,0.9,6.3l49.6,79.3l-2.8,1.8c-22.4,14-35.7,38.1-35.7,64.3v3.3H75.3
	c-0.1-1.1-0.1-2.2-0.1-3.3C75.3,155,158,72.3,259.7,72.3S444.1,155,444.1,256.7s-82.7,184.4-184.4,184.4c-85.3,0-159-58-179.1-141
	c-1-4.3-5.4-6.9-9.7-5.9c-4.3,1-6.9,5.4-5.9,9.7c10.4,42.9,35.2,81.8,69.9,109.5c35.8,28.6,78.9,43.7,124.7,43.7
	C370.2,457.1,460.1,367.2,460.1,256.7z"></path>
</svg>