<svg version="1.1" id="Layer_1" xmlns="http://www.w3.org/2000/svg" xmlns:xlink="http://www.w3.org/1999/xlink" x="0px" y="0px" viewBox="0 0 512 512" enable-background="new 0 0 512 512" xml:space="preserve">
<linearGradient id="SVGID_1_" gradientUnits="userSpaceOnUse" x1="285.7304" y1="315.3815" x2="285.7304" y2="72.864" class="gradient-element">
	<stop offset="0" class="primary-color-gradient" style="stop-color: #FFA4ED"></stop>
	<stop offset="1" class="secondary-color-gradient" style="stop-color: #DB81DA"></stop>
</linearGradient>
<path fill="url(#SVGID_1_)" d="M140.8,325.4h251.5c34.4,0,63.1-27.3,63.6-61.7c0.5-35-27.8-63.6-62.7-63.6h-0.8
	c-4.6-32.1-30.2-57.6-62.4-62c0,0-9.7-84.3-93.5-84.3h-0.2c-8.6,0-13.7,9.8-8.8,16.9c5.4,7.9,9.2,16,11.9,23.2
	c4.8,12.8,14.4,23.3,26.8,29.1c20,9.3,35.2,27.4,40.5,49.3c0.9,3.8,4.1,6.5,8,6.9c0,0,0,0,0.1,0c32.1,3.1,57.2,30.5,56.6,63.6
	c-0.6,34.3-29.3,61.5-63.6,61.5H140.8v0l-3.9,0c-11.9,0-17.6,3.5-20.2,7.7c-3.7,5.9,0.7,13.5,7.6,13.5H140.8z"></path>
<g>
	<path fill="#FFA4ED" class="primary-color" d="M187.4,32.6V10.8h142.8v21.8H187.4z"></path>
	<path fill="#DB81DA" class="secondary-color" d="M21,32.6V10.8h142.8v21.8H21z"></path>
</g>
<path d="M393.3,333.4H142.6c-50.5,0-91.6-41.1-91.6-91.6c0-51.1,30.4-86.1,83.6-96.8c1.5-55,46.7-99.2,102-99.2
	c38.5,0,73.3,21.4,90.9,55.7c2,3.9,0.5,8.8-3.5,10.8c-3.9,2-8.8,0.5-10.8-3.5c-14.8-29-44.2-47-76.7-47c-47.4,0-86,38.6-86,86v3.9
	c0,3.9-2.9,7.3-6.7,7.9C94.3,167.4,67,196.6,67,241.8c0,41.7,33.9,75.6,75.6,75.6h250.7c30.2,0,54.7-24.5,54.7-54.7
	S423.5,208,393.3,208h-0.7c-4,0-7.4-2.9-7.9-6.9c-4.1-28.6-27-51.3-55.6-55.2c-4.4-0.6-7.4-4.6-6.8-9s4.6-7.4,9-6.8
	c33.4,4.6,60.6,29.7,68,62.2c36.2,3,64.7,33.5,64.7,70.4C464,301.7,432.3,333.4,393.3,333.4z M95.5,422.6v-60.7c0-4.4-3.6-8-8-8
	s-8,3.6-8,8v60.7c0,4.4,3.6,8,8,8S95.5,427,95.5,422.6z M141.6,483v-60.7c0-4.4-3.6-8-8-8s-8,3.6-8,8V483c0,4.4,3.6,8,8,8
	S141.6,487.4,141.6,483z M187.7,422.6v-60.7c0-4.4-3.6-8-8-8c-4.4,0-8,3.6-8,8v60.7c0,4.4,3.6,8,8,8
	C184.1,430.6,187.7,427,187.7,422.6z M233.8,483v-60.7c0-4.4-3.6-8-8-8s-8,3.6-8,8V483c0,4.4,3.6,8,8,8S233.8,487.4,233.8,483z
	 M285,422.6v-60.7c0-4.4-3.6-8-8-8s-8,3.6-8,8v60.7c0,4.4,3.6,8,8,8S285,427,285,422.6z M331.1,483v-60.7c0-4.4-3.6-8-8-8
	s-8,3.6-8,8V483c0,4.4,3.6,8,8,8S331.1,487.4,331.1,483z M377.2,422.6v-60.7c0-4.4-3.6-8-8-8s-8,3.6-8,8v60.7c0,4.4,3.6,8,8,8
	S377.2,427,377.2,422.6z M423.3,483v-60.7c0-4.4-3.6-8-8-8s-8,3.6-8,8V483c0,4.4,3.6,8,8,8S423.3,487.4,423.3,483z"></path>
<path fill="#000000" d="M470.6,98.1c-4.4,0-8-3.6-8-8v-3.9h-3.9c-4.4,0-8-3.6-8-8s3.6-8,8-8h3.9v-3.9c0-4.4,3.6-8,8-8s8,3.6,8,8v3.9
	h3.9c4.4,0,8,3.6,8,8s-3.6,8-8,8h-3.9v3.9C478.6,94.5,475,98.1,470.6,98.1z M406.5,106.8c0-4.4-3.6-8-8-8H292c-4.4,0-8,3.6-8,8
	s3.6,8,8,8h106.5C402.9,114.8,406.5,111.2,406.5,106.8z M458.9,123.3h-59.2c-4.4,0-8,3.6-8,8s3.6,8,8,8h59.2c4.4,0,8-3.6,8-8
	S463.3,123.3,458.9,123.3z M80.5,108H21.3c-4.4,0-8,3.6-8,8s3.6,8,8,8h59.2c4.4,0,8-3.6,8-8S84.9,108,80.5,108z M490.2,360.7
	c-4.2-4.2-11-4.2-15.2,0c-4.2,4.2-4.2,11,0,15.2c4.2,4.2,11,4.2,15.2,0S494.4,364.9,490.2,360.7z"></path>
</svg>