<svg version="1.1" id="Layer_1" xmlns="http://www.w3.org/2000/svg" xmlns:xlink="http://www.w3.org/1999/xlink" x="0px" y="0px" viewBox="0 0 512 512" enable-background="new 0 0 512 512" xml:space="preserve">
<linearGradient id="SVGID_1_" gradientUnits="userSpaceOnUse" x1="355.668" y1="437.6867" x2="355.668" y2="123.7129" class="gradient-element">
	<stop offset="0" class="primary-color-gradient" style="stop-color: #FFA4ED"></stop>
	<stop offset="1" class="secondary-color-gradient" style="stop-color: #DB81DA"></stop>
</linearGradient>
<path fill="url(#SVGID_1_)" d="M446.4,214.8c-1.3-4.2-5.2-7-9.6-7H312.6L274.2,89.8c-1.4-4.2-5.6-8.6-9.6-7C264,83,265,356,265,356
	l100.1,72.6c1.8,1.3,3.9,1.9,6,1.9c2.1,0,4.2-0.7,6-1.9c3.5-2.6,5-7.2,3.7-11.3l-38.4-118l100.5-73
	C446.3,223.6,447.8,219,446.4,214.8z"></path>
<g>
	<path fill="#DB81DA" class="secondary-color" d="M493.5,102.1l-60.9-60.9h60.9V102.1z"></path>
	<path fill="#FFA4ED" class="primary-color" d="M105.8,50.1V28.3h56.9v21.8H105.8z M28.9,160.3h21.8v-56.9H28.9V160.3z M87.6,28.3H50.7h-20h-1.8v56.9h21.8
		V50.1h36.9V28.3z"></path>
</g>
<path d="M203.7,316.5c0,4.4-3.6,8-8,8h-43c-4.4,0-8-3.6-8-8s3.6-8,8-8h43C200.1,308.5,203.7,312.1,203.7,316.5z M174.2,338.5h-73.8
	c-4.4,0-8,3.6-8,8s3.6,8,8,8h73.8c4.4,0,8-3.6,8-8S178.7,338.5,174.2,338.5z M484.9,443.8h-15.8V428c0-4.4-3.6-8-8-8s-8,3.6-8,8
	v15.8h-15.8c-4.4,0-8,3.6-8,8s3.6,8,8,8h15.8v15.8c0,4.4,3.6,8,8,8s8-3.6,8-8v-15.8h15.8c4.4,0,8-3.6,8-8S489.3,443.8,484.9,443.8z
	 M74.6,400.2c-4.4,0-8,3.6-8,8c0,11.4-9.3,20.8-20.8,20.8c-4.4,0-8,3.6-8,8s3.6,8,8,8c20.3,0,36.8-16.5,36.8-36.8
	C82.6,403.7,79,400.2,74.6,400.2z M124.6,428.9c-11.4,0-20.8-9.3-20.8-20.8c0-4.4-3.6-8-8-8s-8,3.6-8,8c0,20.3,16.5,36.8,36.8,36.8
	c4.4,0,8-3.6,8-8S129,428.9,124.6,428.9z M124.6,450.2c-20.3,0-36.8,16.5-36.8,36.8c0,4.4,3.6,8,8,8s8-3.6,8-8
	c0-11.4,9.3-20.8,20.8-20.8c4.4,0,8-3.6,8-8S129,450.2,124.6,450.2z M45.8,450.2c-4.4,0-8,3.6-8,8s3.6,8,8,8
	c11.4,0,20.8,9.3,20.8,20.8c0,4.4,3.6,8,8,8s8-3.6,8-8C82.6,466.6,66.1,450.2,45.8,450.2z M114.3,165.4c5.9,0,10.8-4.8,10.8-10.8
	s-4.8-10.8-10.8-10.8s-10.8,4.8-10.8,10.8S108.4,165.4,114.3,165.4z M416.7,123c0,14.6-11.8,26.4-26.4,26.4s-26.4-11.8-26.4-26.4
	s11.8-26.4,26.4-26.4S416.7,108.5,416.7,123z M400.7,123c0-5.7-4.7-10.4-10.4-10.4s-10.4,4.7-10.4,10.4s4.7,10.4,10.4,10.4
	S400.7,128.8,400.7,123z M436.5,341.9h3.9v3.9c0,4.4,3.6,8,8,8s8-3.6,8-8v-3.9h3.9c4.4,0,8-3.6,8-8s-3.6-8-8-8h-3.9V322
	c0-4.4-3.6-8-8-8s-8,3.6-8,8v3.9h-3.9c-4.4,0-8,3.6-8,8S432.1,341.9,436.5,341.9z"></path>
<path d="M454,212.4c-2.4-7.5-9.4-12.5-17.2-12.5H318.4L281.9,87.3c-2.4-7.5-9.4-12.5-17.2-12.5c-7.9,0-14.8,5-17.2,12.5l-36.5,112.6
	H92.4c-7.9,0-14.8,5-17.2,12.5c-2.4,7.5,0.2,15.6,6.6,20.3l95.8,69.6l-3.8,11.8c-1.4,4.2,0.9,8.7,5.1,10.1c4.2,1.4,8.7-0.9,10.1-5.1
	l5.6-17.4c1.1-3.3-0.1-6.9-2.9-8.9l-100.5-73c-0.8-0.5-1.1-1.5-0.8-2.4c0.3-0.9,1.1-1.5,2-1.5h124.2c3.5,0,6.5-2.2,7.6-5.5
	l32.4-99.7v240.9l-97.2,70.6c-0.7,0.5-1.7,0.5-2.5,0c-0.7-0.5-1-1.5-0.8-2.4l23-70.7c1.4-4.2-0.9-8.7-5.1-10.1
	c-4.2-1.4-8.7,0.9-10.1,5.1l-23,70.7c-2.4,7.5,0.2,15.6,6.6,20.3c3.2,2.3,6.9,3.5,10.7,3.5c3.7,0,7.5-1.2,10.6-3.5l93.5-67.9
	c0.7,0.2,1.5,0.3,2.3,0.3c0.8,0,1.5-0.1,2.3-0.3l93.5,67.9c3.1,2.3,6.8,3.4,10.6,3.4c3.9,0,7.6-1.2,10.7-3.5
	c6.4-4.6,9-12.8,6.6-20.3l-36.6-112.5l95.8-69.6C453.8,228,456.5,219.9,454,212.4z M438,219.7l-100.5,73c-2.8,2-4,5.7-2.9,8.9
	l38.4,118c0.3,0.9,0,1.8-0.8,2.4c-0.4,0.3-0.9,0.4-1.2,0.4c-0.3,0-0.8-0.1-1.3-0.4l-97.2-70.6V110.6l32.4,99.7
	c1.1,3.3,4.1,5.5,7.6,5.5h124.2c0.9,0,1.7,0.6,2,1.5C439.1,218.2,438.8,219.2,438,219.7z"></path>
</svg>