<svg version="1.1" id="Layer_1" xmlns="http://www.w3.org/2000/svg" xmlns:xlink="http://www.w3.org/1999/xlink" x="0px" y="0px" viewBox="0 0 512 512" enable-background="new 0 0 512 512" xml:space="preserve">
<linearGradient id="SVGID_1_" gradientUnits="userSpaceOnUse" x1="267.6694" y1="456.4363" x2="267.6694" y2="143.6893" class="gradient-element">
	<stop offset="0" class="primary-color-gradient" style="stop-color: #FFA4ED"></stop>
	<stop offset="1" class="secondary-color-gradient" style="stop-color: #DB81DA"></stop>
</linearGradient>
<path fill="url(#SVGID_1_)" d="M445.3,435.1c-15.2-2.6-46-18.8-60.9-19.2c-25.7-0.7-50.4,2.1-71.7,8.7l-50.5,25.5l-12.6-6.5
	c-44.7-26.9-97.8-34.7-159.5-23.1v-28.7c0-58,136-9,136-9c18.9,5.8,30.2,14.6,31.2,21.2l6.9,13.3c-0.9-22.3,58.4-39.7,93.9-42.6h0
	c8.9,0,16.1-7.2,16.1-16.1V156.9c0-29.9,24.3-25.1,54.2-25.1h1.3v241.9L445.3,435.1z"></path>
<path d="M484,52.1c0,4.4-3.6,8-8,8h-15.8v15.8c0,4.4-3.6,8-8,8s-8-3.6-8-8V60.1h-15.8c-4.4,0-8-3.6-8-8s3.6-8,8-8h15.8V28.4
	c0-4.4,3.6-8,8-8s8,3.6,8,8v15.8H476C480.4,44.1,484,47.7,484,52.1z M30.9,464.1c-5.9,0-10.8,4.8-10.8,10.8s4.8,10.8,10.8,10.8
	s10.8-4.8,10.8-10.8S36.8,464.1,30.9,464.1z M215.9,70.6c-3.1,3.1-3.1,8.2,0,11.3c3.1,3.1,8.2,3.1,11.3,0c4.1-4.1,10.6-4.1,14.7,0
	c4.1,4.1,4.1,10.6,0,14.7c-3.1,3.1-3.1,8.2,0,11.3c1.6,1.6,3.6,2.3,5.7,2.3s4.1-0.8,5.7-2.3c10.3-10.3,10.3-27,0-37.3
	C242.9,60.3,226.2,60.3,215.9,70.6z M133.9,51.2c-3.1-3.1-8.2-3.1-11.3,0l-2.7,2.7l-2.7-2.7c-3.1-3.1-8.2-3.1-11.3,0
	s-3.1,8.2,0,11.3l2.7,2.8l-2.7,2.8c-3.1,3.1-3.1,8.2,0,11.3c1.6,1.6,3.6,2.3,5.7,2.3s4.1-0.8,5.7-2.3l2.7-2.7l2.7,2.7
	c1.6,1.6,3.6,2.3,5.7,2.3c2,0,4.1-0.8,5.7-2.3c3.1-3.1,3.1-8.2,0-11.3l-2.7-2.8l2.7-2.8C137,59.4,137,54.3,133.9,51.2z"></path>
<g>
	<path fill="#DB81DA" class="secondary-color" d="M357,47.5V25.7h43.6v21.8H357z"></path>
	<path fill="#FFA4ED" class="primary-color" d="M81.1,21.7L20.1,82.6V21.7H81.1z M333,47.5V25.7h-43.6v21.8H333z M491.3,131.8h-21.8v22.8h21.8V131.8z"></path>
</g>
<path d="M115.7,176c-0.3-4.4,3-8.2,7.4-8.6c39.9-3,76.5,2.9,108.9,17.4c4,1.8,5.8,6.5,4,10.6c-1.3,3-4.2,4.7-7.3,4.7
	c-1.1,0-2.2-0.2-3.3-0.7c-29.9-13.4-63.9-18.8-101.2-16C119.9,183.7,116.1,180.4,115.7,176z M115.7,225.3c0.3,4.4,4.2,7.7,8.6,7.4
	c37.2-2.8,71.2,2.6,101.2,16c1.1,0.5,2.2,0.7,3.3,0.7c3.1,0,6-1.8,7.3-4.7c1.8-4,0-8.8-4-10.6c-32.4-14.5-69-20.3-108.9-17.4
	C118.7,217,115.4,220.9,115.7,225.3z M115.7,274.6c0.3,4.4,4.2,7.7,8.6,7.4c37.2-2.8,71.2,2.6,101.2,16c1.1,0.5,2.2,0.7,3.3,0.7
	c3.1,0,6-1.8,7.3-4.7c1.8-4,0-8.8-4-10.6c-32.4-14.5-69-20.3-108.9-17.4C118.7,266.3,115.4,270.2,115.7,274.6z M115.7,323.9
	c0.3,4.4,4.2,7.7,8.6,7.4c37.2-2.8,71.2,2.6,101.2,16c1.1,0.5,2.2,0.7,3.3,0.7c3.1,0,6-1.8,7.3-4.7c1.8-4,0-8.8-4-10.6
	c-32.4-14.5-69-20.3-108.9-17.4C118.7,315.7,115.4,319.5,115.7,323.9z M294.7,200.1c1.1,0,2.2-0.2,3.3-0.7
	c29.9-13.4,63.9-18.8,101.2-16c4.4,0.3,8.2-3,8.6-7.4c0.3-4.4-3-8.2-7.4-8.6c-39.9-3-76.5,2.9-108.9,17.4c-4,1.8-5.8,6.5-4,10.6
	C288.8,198.3,291.7,200.1,294.7,200.1z M400.3,216.7c-39.9-3-76.5,2.9-108.9,17.4c-4,1.8-5.8,6.5-4,10.6c1.3,3,4.2,4.7,7.3,4.7
	c1.1,0,2.2-0.2,3.3-0.7c29.9-13.4,63.9-18.8,101.2-16c4.4,0.3,8.2-3,8.6-7.4C408,220.9,404.7,217,400.3,216.7z M294.7,298.7
	c1.1,0,2.2-0.2,3.3-0.7c29.9-13.4,63.9-18.8,101.2-16c4.4,0.3,8.2-3,8.6-7.4c0.3-4.4-3-8.2-7.4-8.6c-39.9-2.9-76.5,2.9-108.9,17.4
	c-4,1.8-5.8,6.5-4,10.6C288.8,296.9,291.7,298.7,294.7,298.7z M287.4,343.3c1.3,3,4.2,4.7,7.3,4.7c1.1,0,2.2-0.2,3.3-0.7
	c29.9-13.4,63.9-18.8,101.2-16c4.4,0.3,8.2-3,8.6-7.4c0.3-4.4-3-8.2-7.4-8.6c-39.9-3-76.5,2.9-108.9,17.4
	C287.4,334.5,285.6,339.3,287.4,343.3z M115.7,373.2c0.3,4.4,4.2,7.7,8.6,7.4c37.2-2.8,71.2,2.6,101.2,16c1.1,0.5,2.2,0.7,3.3,0.7
	c3.1,0,6-1.8,7.3-4.7c1.8-4,0-8.8-4-10.6c-32.4-14.5-69-20.3-108.9-17.4C118.7,365,115.4,368.8,115.7,373.2z M287.4,392.6
	c1.3,3,4.2,4.7,7.3,4.7c1.1,0,2.2-0.2,3.3-0.7c29.9-13.4,63.9-18.8,101.2-16c4.4,0.3,8.2-3,8.6-7.4c0.3-4.4-3-8.2-7.4-8.6
	c-39.9-3-76.5,2.9-108.9,17.4C287.4,383.8,285.6,388.6,287.4,392.6z M399.7,444.4H298c-4.4,0-8,3.6-8,8s3.6,8,8,8h101.7
	c4.4,0,8-3.6,8-8S404.2,444.4,399.7,444.4z M465.6,156.6h-27.8c-0.2-4.3-3.7-7.7-8-7.7c-4.4,0-8,3.6-8,8V364c0,0.9,0.2,1.8,0.4,2.6
	l14.6,62.3L385,408.5c-1.1-0.7-2.5-1.1-3.9-1.1c-41.8-0.7-79.8,8.8-112.9,28.2V165.7c44-28.9,97.9-37.7,160.1-26.1
	c4.4,0.8,8.5-2.1,9.3-6.4c0.8-4.3-2-8.5-6.4-9.3C365,111.6,307.4,121,259.9,152c-47.5-31-105.1-40.5-171.3-28.1
	c-3.8,0.7-6.5,4-6.5,7.9v24.8H54.9c-4.4,0-8,3.6-8,8v287.8c0,4.4,3.6,8,8,8h167.8c4.4,0,8-3.6,8-8s-3.6-8-8-8H62.9V172.6h19.2v221.1
	c0,4.4,3.6,8,8,8s8-3.6,8-8V138.5c59.5-9.8,111.1-0.7,153.6,27.2v269.9c-45.9-26.9-100.7-34.7-163.1-23c-4.3,0.8-7.2,5-6.4,9.3
	c0.8,4.3,5,7.2,9.3,6.4c63.9-12,118.9-2.4,163.6,28.4c1.4,0.9,2.9,1.4,4.5,1.4c0.1,0,0.2,0,0.3,0c0.1,0,0.2,0,0.3,0
	c1.6,0,3.2-0.5,4.5-1.4c33-22.8,71.8-34,115.2-33.4l65,25.6c0.9,0.4,1.9,0.5,2.9,0.5c1.9,0,3.7-0.7,5.1-1.9c2.2-1.9,3.2-4.9,2.5-7.7
	l-17.7-75.7c0-0.1,0-0.1,0-0.2V172.6h19.8v216.7c0,4.4,3.6,8,8,8s8-3.6,8-8V164.6C473.6,160.2,470,156.6,465.6,156.6z"></path>
</svg>