<svg version="1.1" id="Layer_1" xmlns="http://www.w3.org/2000/svg" xmlns:xlink="http://www.w3.org/1999/xlink" x="0px" y="0px" viewBox="0 0 512 512" enable-background="new 0 0 512 512" xml:space="preserve">
<linearGradient id="SVGID_1_" gradientUnits="userSpaceOnUse" x1="254.3337" y1="439.0275" x2="254.3337" y2="123.8147" class="gradient-element">
	<stop offset="0" class="primary-color-gradient" style="stop-color: #FFA4ED"></stop>
	<stop offset="1" class="secondary-color-gradient" style="stop-color: #DB81DA"></stop>
</linearGradient>
<path fill="url(#SVGID_1_)" d="M376,114.4v296.2c0,2.1-0.9,4.1-2.3,5.5c-1.4,1.4-3.3,2.3-5.5,2.3l-59-29.9l-53.1,27l-56.1-25.7
	l-61.3,28.6c-4.3,0-7.7-3.5-7.7-7.7v-45.2c0-10.1,8.2-18.3,18.3-18.3h157c3.3,0,6.1-2.1,7.2-5l0.5-204.7c0-17,13.8-30.7,30.7-30.7
	h30.5C379.8,106.6,376,110.1,376,114.4z"></path>
<path d="M377.5,425.6c-1.1,0-2.1-0.2-3.2-0.6l-65.1-27.9l-49.9,21.4c-2,0.9-4.3,0.9-6.3,0l-49.9-21.4L138.2,425
	c-2.5,1.1-5.3,0.8-7.6-0.7c-2.2-1.5-3.6-4-3.6-6.7v-311c0-4.4,3.6-8,8-8h242.5c4.4,0,8,3.6,8,8v311c0,2.7-1.4,5.2-3.6,6.7
	C380.6,425.2,379.1,425.6,377.5,425.6z M143,114.6v290.9l57.1-24.5c2-0.9,4.3-0.9,6.3,0l49.9,21.4l49.9-21.4c2-0.9,4.3-0.9,6.3,0
	l57.1,24.5V114.6H143z M316.9,296.5H195.6c-4.4,0-8-3.6-8-8s3.6-8,8-8h121.3c4.4,0,8,3.6,8,8S321.3,296.5,316.9,296.5z M316.9,235.9
	H195.6c-4.4,0-8-3.6-8-8s3.6-8,8-8h121.3c4.4,0,8,3.6,8,8S321.3,235.9,316.9,235.9z M256.3,175.3h-60.6c-4.4,0-8-3.6-8-8s3.6-8,8-8
	h60.6c4.4,0,8,3.6,8,8S260.7,175.3,256.3,175.3z"></path>
<path d="M499,286.7c0,4.4-3.6,8-8,8h-3.9v3.9c0,4.4-3.6,8-8,8s-8-3.6-8-8v-3.9h-3.9c-4.4,0-8-3.6-8-8s3.6-8,8-8h3.9v-3.9
	c0-4.4,3.6-8,8-8s8,3.6,8,8v3.9h3.9C495.5,278.7,499,282.3,499,286.7z M397.8,473.6h-43c-4.4,0-8,3.6-8,8s3.6,8,8,8h43
	c4.4,0,8-3.6,8-8S402.3,473.6,397.8,473.6z M476.7,436.4H361.4c-4.4,0-8,3.6-8,8s3.6,8,8,8h115.2c4.4,0,8-3.6,8-8
	S481.1,436.4,476.7,436.4z M455.4,52.7h3.9v3.9c0,4.4,3.6,8,8,8s8-3.6,8-8v-3.9h3.9c4.4,0,8-3.6,8-8s-3.6-8-8-8h-3.9v-3.9
	c0-4.4-3.6-8-8-8s-8,3.6-8,8v3.9h-3.9c-4.4,0-8,3.6-8,8S450.9,52.7,455.4,52.7z M69.2,172.6c-4.2,4.2-4.2,11,0,15.2s11,4.2,15.2,0
	c4.2-4.2,4.2-11,0-15.2C80.2,168.4,73.4,168.4,69.2,172.6z M37.5,84.3c20.3,0,36.7-16.5,36.7-36.8c0-4.4-3.6-8-8-8s-8,3.6-8,8
	c0,11.4-9.3,20.8-20.7,20.8c-4.4,0-8,3.6-8,8S33,84.3,37.5,84.3z M116.2,68.3c-11.4,0-20.8-9.3-20.8-20.8c0-4.4-3.6-8-8-8
	s-8,3.6-8,8c0,20.3,16.5,36.8,36.8,36.8c4.4,0,8-3.6,8-8S120.6,68.3,116.2,68.3z M116.2,89.5c-20.3,0-36.8,16.5-36.8,36.8
	c0,4.4,3.6,8,8,8s8-3.6,8-8c0-11.4,9.3-20.8,20.8-20.8c4.4,0,8-3.6,8-8S120.6,89.5,116.2,89.5z M74.2,126.3
	c0-20.3-16.5-36.8-36.7-36.8c-4.4,0-8,3.6-8,8s3.6,8,8,8c11.4,0,20.7,9.3,20.7,20.8c0,4.4,3.6,8,8,8S74.2,130.7,74.2,126.3z
	 M391,42.6c0-4.4-3.6-8-8-8H290c-4.4,0-8,3.6-8,8s3.6,8,8,8H383C387.4,50.6,391,47.1,391,42.6z"></path>
<path fill="#DB81DA" class="secondary-color" d="M25.4,494v-29.1h197.1V494H25.4z"></path>
</svg>