<svg version="1.1" id="Layer_1" xmlns="http://www.w3.org/2000/svg" xmlns:xlink="http://www.w3.org/1999/xlink" x="0px" y="0px" viewBox="0 0 512 512" enable-background="new 0 0 512 512" xml:space="preserve">
<g>
	<linearGradient id="SVGID_1_" gradientUnits="userSpaceOnUse" x1="259.9859" y1="253.6101" x2="203.3062" y2="253.6101" class="gradient-element">
		<stop offset="0" class="primary-color-gradient" style="stop-color: #FFA4ED"></stop>
		<stop offset="1" class="secondary-color-gradient" style="stop-color: #DB81DA"></stop>
	</linearGradient>
	<path fill="url(#SVGID_1_)" d="M203.9,189.8c1.9-1.1,52.6,5.9,52.6,5.9s5.2,31.4,0,75.3c-3,25.4-20.1,38.7-34,45.4
		c-8.6,4.1-18.6-2.2-18.6-11.8V195C203.9,195,202,190.8,203.9,189.8z"></path>
	<linearGradient id="SVGID_2_" gradientUnits="userSpaceOnUse" x1="339.5095" y1="487.0468" x2="339.5095" y2="75.9872">
		<stop offset="0" class="primary-color-gradient" style="stop-color: #FFA4ED"></stop>
		<stop offset="1" class="secondary-color-gradient" style="stop-color: #DB81DA"></stop>
	</linearGradient>
	<path fill="url(#SVGID_2_)" d="M474.9,468.5l-13.6,13.7c-3.3,3.3-8.6,3.3-12,0.1l-101.5-98.7c-4.2-4.1-10.6-4.8-15.6-1.7l-15.7,9
		c-25.8,15-55.6,23.8-87.6,23.8h-1c0-25.1,16.1-47.5,40.1-55c4.8-1.5,9.4-3.2,13.8-5.2l-4.8,0.4c0.5-0.1,1.1-0.1,1.6-0.2
		c-20.6,2.1-31.6,8.5-53.3,8.5h-1.6c-10.8,0-19.5-8.7-19.5-19.5c0-12.3,8.1-23,19.8-26.7c2.5-0.8,5.1-1.7,7.7-2.8
		c0,0-3.8,13.8,25.9,26.7c9.4,4.1,17.7,7.8,24.7,12.1c0.4,0.2,0.8,0.5,1.2,0.8c42.6-19.8,70.7-62.5,70.7-114.3
		c0-57.5-34.7-103.7-85.3-120c-24.4-7.8-41-30.6-41-56.2v0h1c96.9,0,175.7,78.8,175.7,175.7c0,44.2-16.6,84.6-43.6,115.5
		L474.9,468.5z"></path>
</g>
<path d="M480.6,474.1L458.7,496c-1.6,1.6-3.6,2.3-5.7,2.3c-2,0-4-0.8-5.6-2.3L331.8,383.7c-3.2-3.1-3.2-8.1-0.2-11.3
	c3.1-3.2,8.1-3.2,11.3-0.2l110,106.9l10.6-10.6L355.3,360.2c-3-3-3.1-7.8-0.4-10.9c26.9-30.7,41.7-69.8,41.7-110.3
	c0-92.5-75.2-167.7-167.7-167.7S61.1,146.5,61.1,239s75.2,167.7,167.7,167.7c29.2,0,58.1-7.8,83.5-22.7c3.8-2.2,8.7-0.9,10.9,2.9
	c2.2,3.8,0.9,8.7-2.9,10.9c-27.9,16.2-59.6,24.8-91.6,24.8c-101.3,0-183.7-82.4-183.7-183.7c0-101.3,82.4-183.7,183.7-183.7
	S412.6,137.7,412.6,239c0,41.8-14.4,82.4-40.8,115.1l108.7,108.7C483.7,465.9,483.7,471,480.6,474.1z M219.9,364.4c0,4.4,3.6,8,8,8
	c19.5,0,38.4-4.2,55.6-12.1c1.4-0.2,2.7-0.8,3.7-1.8c12.5-6.2,24-14.5,34.2-24.6c25.4-25.2,39.4-58.7,39.4-94.4
	c0-73.3-59.6-132.9-132.9-132.9S95,166.2,95,239.5c0,4.4,3.6,8,8,8s8-3.6,8-8c0-64.5,52.5-116.9,116.9-116.9
	c64.5,0,116.9,52.5,116.9,116.9c0,31.4-12.3,60.9-34.6,83.1c-8.9,8.8-19,16.1-29.9,21.5c-25.1-10.7-39.2-21.8-45.6-27.5
	c13.4-10.4,20.2-25.1,23.2-33.3c1.9-5.3,2.9-10.8,2.9-16.5v-76.5c0-2.4-1.2-4.7-3.2-6.1c-2-1.4-4.6-1.7-6.9-0.8
	c-8.8,3.4-17.3,1.2-27.2-1.3c-13.6-3.4-29-7.3-45.7,4.6c-3.3,2.4-4.1,7-1.8,10.4c2.4,3.3,7,4.1,10.4,1.8c11.1-7.9,21-5.4,33.5-2.3
	c8,2,16.7,4.2,26.1,3.2v67.2c0,3.9-0.7,7.8-2,11.4c-4.8,13.2-17,35.4-45.1,35.4c-27.6,0-40-20.5-44.9-32.8
	c-1.6-3.9-2.4-8.1-2.4-12.4l0-71.5c0-9.1,5.5-15.8,10.1-19.8c10.7-9.2,27-13.4,42.6-11.1c5.5,0.8,10.6,2.3,15.5,3.7
	c12.5,3.5,25.4,7.2,42.3,0.2c3.8-1.6,5.6-5.9,4-9.7c-1.6-3.8-5.9-5.6-9.7-4c-12.1,5-21.1,2.5-32.6-0.7c-5.4-1.5-10.9-3.1-17.3-4.1
	c-19.8-3-40.6,2.6-54.5,14.5c-9.9,8.5-15.3,19.5-15.3,31l0,71.5c0,6.2,1.2,12.3,3.4,18c3.1,7.7,10.3,21.8,24,31.5
	c-3.9,4.7-12.3,13-28.6,20.8c-3.7,1.8-5.3,6.2-3.5,9.9c1.3,2.7,3.9,4.2,6.7,4.2c1.1,0,2.2-0.2,3.2-0.7c21-10,31.2-21.1,35.6-27.2
	c6.2,2.2,13.2,3.6,21.3,3.6c8.6,0,16-1.6,22.5-4.2c4.7,4.8,16.8,15.8,39.8,27.3c-10.7,3.2-21.9,4.8-33.3,4.8
	C223.5,356.4,219.9,360,219.9,364.4z"></path>
<g>
	<path fill="#FFA4ED" class="primary-color" d="M25.3,427.2v-43.6H83v43.6H25.3z"></path>
	<path fill="#DB81DA" class="secondary-color" d="M28,495.1v-43.6h115.6v43.6H28z"></path>
</g>
<path d="M52.1,72.1c-4.4,0-8-3.6-8-8s3.6-8,8-8c5.7,0,10.4-4.7,10.4-10.4s-4.7-10.4-10.4-10.4c-4.4,0-8-3.6-8-8s3.6-8,8-8
	c14.6,0,26.4,11.8,26.4,26.4S66.6,72.1,52.1,72.1z M118.8,246c0-4.4-3.6-8-8-8H70c-4.4,0-8,3.6-8,8s3.6,8,8,8h40.8
	C115.2,254,118.8,250.5,118.8,246z M362.4,443.3c0-4.4-3.6-8-8-8h-43c-4.4,0-8,3.6-8,8s3.6,8,8,8h43
	C358.8,451.3,362.4,447.7,362.4,443.3z M340.9,473.3c0-4.4-3.6-8-8-8h-73.8c-4.4,0-8,3.6-8,8s3.6,8,8,8h73.8
	C337.3,481.3,340.9,477.7,340.9,473.3z M436.7,40.6c0-4.4-3.6-8-8-8s-8,3.6-8,8c0,11.4-9.3,20.8-20.8,20.8c-4.4,0-8,3.6-8,8
	s3.6,8,8,8C420.2,77.4,436.7,60.9,436.7,40.6z M486.7,69.4c0-4.4-3.6-8-8-8c-11.4,0-20.8-9.3-20.8-20.8c0-4.4-3.6-8-8-8s-8,3.6-8,8
	c0,20.3,16.5,36.8,36.8,36.8C483.1,77.4,486.7,73.8,486.7,69.4z M457.9,119.4c0-11.4,9.3-20.8,20.8-20.8c4.4,0,8-3.6,8-8s-3.6-8-8-8
	c-20.3,0-36.8,16.5-36.8,36.8c0,4.4,3.6,8,8,8S457.9,123.8,457.9,119.4z M436.7,119.4c0-20.3-16.5-36.8-36.8-36.8c-4.4,0-8,3.6-8,8
	s3.6,8,8,8c11.4,0,20.8,9.3,20.8,20.8c0,4.4,3.6,8,8,8S436.7,123.8,436.7,119.4z M464.3,184.4c-5.9,0-10.8,4.8-10.8,10.8
	s4.8,10.8,10.8,10.8c5.9,0,10.8-4.8,10.8-10.8S470.2,184.4,464.3,184.4z M30.4,312.1c-5.9,0-10.8,4.8-10.8,10.8
	c0,5.9,4.8,10.8,10.8,10.8s10.7-4.8,10.7-10.8C41.1,316.9,36.3,312.1,30.4,312.1z M375.7,479.6c-5.9,0-10.8,4.8-10.8,10.8
	c0,5.9,4.8,10.8,10.8,10.8s10.8-4.8,10.8-10.8C386.4,484.4,381.6,479.6,375.7,479.6z"></path>
</svg>