<svg version="1.1" id="Layer_1" xmlns="http://www.w3.org/2000/svg" xmlns:xlink="http://www.w3.org/1999/xlink" x="0px" y="0px" viewBox="0 0 512 512" enable-background="new 0 0 512 512" xml:space="preserve">
<path fill="#DB81DA" class="secondary-color" d="M99.5,435.9v46.3H77v-46.3H99.5z"></path>
<path fill="#FFA4ED" class="primary-color" d="M54.1,435.9v46.3H32.6v-46.3H54.1z"></path>
<path d="M287.4,170.3c0,4.4-3.6,8-8,8h-108c-4.4,0-8-3.6-8-8s3.6-8,8-8h108C283.8,162.3,287.4,165.9,287.4,170.3z M155.8,217.2H69
	c-4.4,0-8,3.6-8,8c0,4.4,3.6,8,8,8h86.8c4.4,0,8-3.6,8-8C163.8,220.8,160.2,217.2,155.8,217.2z M101.6,78.1h28.7c4.4,0,8-3.6,8-8
	s-3.6-8-8-8h-28.7c-4.4,0-8,3.6-8,8S97.2,78.1,101.6,78.1z M44.5,50.3h-3.9v-3.9c0-4.4-3.6-8-8-8s-8,3.6-8,8v3.9h-3.9
	c-4.4,0-8,3.6-8,8s3.6,8,8,8h3.9v3.9c0,4.4,3.6,8,8,8s8-3.6,8-8v-3.9h3.9c4.4,0,8-3.6,8-8S48.9,50.3,44.5,50.3z M113.7,129.5
	c0,4.4,3.6,8,8,8h71.4c4.4,0,8-3.6,8-8s-3.6-8-8-8h-71.4C117.3,121.5,113.7,125.1,113.7,129.5z"></path>
<g>
	<linearGradient id="SVGID_1_" gradientUnits="userSpaceOnUse" x1="318.9338" y1="156.5296" x2="453.6709" y2="156.5296" class="gradient-element">
		<stop offset="0" class="primary-color-gradient" style="stop-color: #FFA4ED"></stop>
		<stop offset="1" class="secondary-color-gradient" style="stop-color: #DB81DA"></stop>
	</linearGradient>
	<path fill="url(#SVGID_1_)" d="M453.7,155.6c0,37.2-30.2,67.4-67.4,67.4c-35.9,0-65.3-28.1-67.3-63.6c3.2-1.1,8-0.9,9.6,2.9
		c9,21.7,24.9,37.7,47.3,41.2c19.1,3,38.7-10.4,44.9-17.5c17.8-20.4,16.1-61.8-33.7-80.7c-7.6-2.9-2.9-15.3,5.2-15.4h0.3
		c5,0,9.8,0.5,14.6,1.4C434.1,100.2,453.7,125.6,453.7,155.6z"></path>
	<linearGradient id="SVGID_2_" gradientUnits="userSpaceOnUse" x1="299.0529" y1="467.5549" x2="299.0529" y2="28.0826">
		<stop offset="0" class="primary-color-gradient" style="stop-color: #FFA4ED"></stop>
		<stop offset="1" class="secondary-color-gradient" style="stop-color: #DB81DA"></stop>
	</linearGradient>
	<path fill="url(#SVGID_2_)" d="M482.2,28.1v395.5c0,12.2-4.9,23.1-12.9,31.1c-7.8,7.9-18.7,12.8-30.7,12.9
		c-24.4,0.2-44.3-20.3-44.3-44.6H165.2c-27.2,0-49.3-22.1-49.3-49.3V365h278.3v-69.5l48.6,29.2c0.9,0.6,2.1,0.9,3.2,0.9
		c1.3,0,2.5-0.4,3.7-1.1c2-1.5,3-4,2.5-6.4l-22.1-110.5c0,0,35.3-27.6,19.6-71.4c-8.2-29.1-35-50.5-66.8-50.5
		c-13.7,0-26.4,4-37.1,10.8H244.2c-26.4,0-47.7-21.4-47.7-47.7V28.1H482.2z"></path>
</g>
<path d="M490.2,28.1v395.5c0,13.9-5.4,27-15.3,36.7c-9.7,9.8-22.7,15.2-36.7,15.2H159.9c-28.6,0-51.9-23.3-51.9-51.9V365
	c0-4.4,3.6-8,8-8h50.6c4.4,0,8,3.6,8,8s-3.6,8-8,8h-42.6v50.6c0,19.8,16.1,35.9,35.9,35.9h240.9c-0.2-0.2-0.3-0.4-0.5-0.5
	c-0.3-0.3-0.5-0.6-0.8-0.9c-0.3-0.3-0.6-0.6-0.8-1c-0.3-0.3-0.5-0.6-0.8-0.9c-0.3-0.3-0.5-0.7-0.8-1c-0.2-0.3-0.5-0.6-0.7-0.9
	c-0.3-0.3-0.5-0.7-0.7-1c-0.2-0.3-0.5-0.7-0.7-1c-0.2-0.4-0.5-0.7-0.7-1.1c-0.2-0.3-0.4-0.7-0.6-1c-0.2-0.4-0.4-0.7-0.6-1.1
	c-0.2-0.3-0.4-0.7-0.6-1c-0.2-0.4-0.4-0.8-0.6-1.2c-0.2-0.4-0.4-0.7-0.5-1.1c-0.2-0.4-0.4-0.8-0.5-1.2c-0.2-0.4-0.3-0.7-0.5-1.1
	c-0.2-0.4-0.3-0.8-0.5-1.2c-0.1-0.4-0.3-0.7-0.4-1.1c-0.2-0.4-0.3-0.8-0.4-1.3c-0.1-0.4-0.3-0.7-0.4-1.1c-0.1-0.4-0.3-0.9-0.4-1.3
	c-0.1-0.4-0.2-0.7-0.3-1.1c-0.1-0.4-0.2-0.9-0.3-1.4c-0.1-0.4-0.2-0.7-0.3-1.1c-0.1-0.5-0.2-1-0.3-1.4c-0.1-0.4-0.1-0.7-0.2-1.1
	c-0.1-0.5-0.1-1-0.2-1.5c0-0.3-0.1-0.7-0.1-1c-0.1-0.6-0.1-1.1-0.1-1.7c0-0.3-0.1-0.6-0.1-0.9c0-0.9-0.1-1.8-0.1-2.6V373H196.5
	c-4.4,0-8-3.6-8-8V170.9c0-4.4,3.6-8,8-8s8,3.6,8,8V357h189.8c4.4,0,8,3.6,8,8v58.6c0,19.8,16.1,35.9,35.9,35.9
	c9.6,0,18.7-3.7,25.4-10.5c6.8-6.8,10.6-15.8,10.6-25.4V36.1H204.5v101.3c0,4.4-3.6,8-8,8s-8-3.6-8-8V28.1c0-4.4,3.6-8,8-8h285.7
	C486.6,20.1,490.2,23.7,490.2,28.1z M311.5,330.9c0.1,0.1,0.2,0.1,0.2,0.2c4.7,3.1,10.6,3.3,15.4,0.5l55.8-33.5l55.8,33.5
	c2.2,1.3,4.7,2,7.3,2c2.9,0,5.7-0.9,8.1-2.5c0.1-0.1,0.2-0.1,0.2-0.2c4.6-3.3,6.8-9,5.7-14.5L439,210.9c13.1-11.9,21.4-29,21.4-48.1
	c0-2.5-0.1-4.9-0.4-7.3c-0.5-4.4-4.5-7.5-8.9-7c-4.4,0.5-7.5,4.5-7,8.9c0.2,1.8,0.3,3.5,0.3,5.4c0,14.9-6.8,28.3-17.4,37.3
	c-1.3,0.5-2.4,1.4-3.2,2.5c-8,5.7-17.7,9.1-28.3,9.1c-6.3,0-12.5-1.2-18.4-3.6c-4.1-1.7-8.8,0.3-10.4,4.4s0.3,8.8,4.4,10.4
	c7.8,3.2,16.1,4.8,24.5,4.8c10.5,0,20.3-2.5,29.1-6.9l19,95.1l-56.6-34c-2.5-1.5-5.7-1.5-8.2,0l-56.6,34l21.6-108.1
	c0.5-2.7-0.4-5.6-2.4-7.5c-12.6-11.6-19.9-28.1-19.9-45.3c0-33.9,27.6-61.5,61.5-61.5c27.4,0,51.7,18.4,59.1,44.7
	c1.2,4.3,5.6,6.7,9.9,5.5c4.3-1.2,6.7-5.6,5.5-9.9c-9.4-33.2-40-56.3-74.5-56.3c-42.7,0-77.5,34.7-77.5,77.5
	c0,20.1,7.9,39.5,21.8,53.8l-21.5,107.5C304.7,321.9,306.9,327.6,311.5,330.9z"></path>
</svg>