<svg version="1.1" id="Layer_1" xmlns="http://www.w3.org/2000/svg" xmlns:xlink="http://www.w3.org/1999/xlink" x="0px" y="0px" viewBox="0 0 512 512" enable-background="new 0 0 512 512" xml:space="preserve">
<linearGradient id="SVGID_1_" gradientUnits="userSpaceOnUse" x1="291.8158" y1="349.559" x2="291.8158" y2="174.8249" class="gradient-element">
	<stop offset="0" class="primary-color-gradient" style="stop-color: #FFA4ED"></stop>
	<stop offset="1" class="secondary-color-gradient" style="stop-color: #DB81DA"></stop>
</linearGradient>
<path fill="url(#SVGID_1_)" d="M237,209.6c9.9,14.7,15.6,32.4,15.6,51.5c0,19.1-5.8,36.8-15.6,51.5c-2.5,3.7-5.2,6.9-8.2,10.1h0
	c-27.2,2.3-51.4-24.6-48.9-53.4c0.2-2.7,0.4-5.5,0.4-8.2c0-25.6-10.4-48.7-27.1-65.4c-8.3-8.3-18.3-15.1-29.3-19.8
	c11.1-4.7,23.3-7.3,36.2-7.3c25.6,0,48.7,10.4,65.4,27.1C229.8,199.9,233.6,204.6,237,209.6z M434.1,194.2
	c-15.9-15.9-37.7-25.7-61.9-25.7c-12.2,0-23.7,2.5-34.2,6.9c10.4,4.4,19.8,10.8,27.7,18.7c15.8,15.8,25.7,37.7,25.7,61.9
	c0,47.9-38.5,86.8-86.2,87.6c-0.4,0.1-0.8,0.2-1.3,0.2h68.4c0.4,0,0.9-0.1,1.3-0.2c47.7-0.8,86.2-39.7,86.2-87.6
	C459.7,231.9,449.9,210,434.1,194.2z"></path>
<path d="M372.3,351.9H158.1c-0.8,0-1.5-0.1-2.3-0.2c-33.3-0.7-57.4-13-73.6-37.5c-2.4-3.7-1.4-8.6,2.3-11.1s8.6-1.4,11.1,2.3
	c13.4,20.3,33,30,61.4,30.4c0.6,0,1.1,0.1,1.7,0.2h213.1c0.5-0.1,1.1-0.2,1.7-0.2c43.2-0.7,78.3-36.4,78.3-79.6
	c0-43.9-35.7-79.6-79.6-79.6s-79.6,35.7-79.6,79.6c0,19.7,7.3,38.6,20.5,53.3c2.1,2.3,2.7,5.7,1.4,8.6c-1.3,2.9-4.1,4.8-7.3,4.8
	h-83.9c-3.2,0-6-1.9-7.3-4.8c-1.3-2.9-0.7-6.3,1.4-8.6c13.2-14.6,20.5-33.6,20.5-53.3c0-43.9-35.7-79.6-79.6-79.6
	c-43.9,0-79.6,35.7-79.6,79.6c0,7.3,0.1,10.1,1.6,16c1.1,4.3-1.5,8.6-5.8,9.7c-4.3,1.1-8.6-1.5-9.7-5.8c-2-7.9-2.1-12.5-2.1-19.9
	c0-52.7,42.9-95.6,95.6-95.6c52.7,0,95.6,42.9,95.6,95.6c0,18.1-5.1,35.6-14.5,50.6h51.9c-9.4-15.1-14.5-32.6-14.5-50.6
	c0-52.7,42.9-95.6,95.6-95.6s95.6,42.9,95.6,95.6c0,25.3-9.8,49.1-27.5,67.1c-17.5,17.8-40.8,27.9-65.7,28.5
	C373.8,351.8,373,351.9,372.3,351.9z M159.1,336C159.1,336,159.1,336,159.1,336C159.1,336,159.1,336,159.1,336z M371.3,336
	C371.3,336,371.3,336,371.3,336C371.3,336,371.3,336,371.3,336z"></path>
<path fill="#FFA4ED" class="primary-color" d="M380.6,22.6h44.5v44.5h-44.5V22.6z M492,67.1V22.6h-44.5v44.5H492z M492,135.5V91h-44.5v44.5H492z"></path>
<path d="M31.4,107.3c-4.2-4.2-4.2-11,0-15.2s11-4.2,15.2,0c4.2,4.2,4.2,11,0,15.2C42.4,111.5,35.6,111.5,31.4,107.3z M82.4,413.1
	h-3.9v-3.9c0-4.4-3.6-8-8-8s-8,3.6-8,8v3.9h-3.9c-4.4,0-8,3.6-8,8s3.6,8,8,8h3.9v3.9c0,4.4,3.6,8,8,8s8-3.6,8-8v-3.9h3.9
	c4.4,0,8-3.6,8-8S86.9,413.1,82.4,413.1z M315.1,90h3.9v3.9c0,4.4,3.6,8,8,8s8-3.6,8-8V90h3.9c4.4,0,8-3.6,8-8s-3.6-8-8-8H335v-3.9
	c0-4.4-3.6-8-8-8s-8,3.6-8,8V74h-3.9c-4.4,0-8,3.6-8,8S310.7,90,315.1,90z M340.6,458.2c-4.2,4.2-4.2,11,0,15.2
	c4.2,4.2,11,4.2,15.2,0s4.2-11,0-15.2C351.6,454,344.8,454,340.6,458.2z M445.7,461.5h-51.5c-4.4,0-8,3.6-8,8s3.6,8,8,8h51.5
	c4.4,0,8-3.6,8-8S450.1,461.5,445.7,461.5z M483.9,412.5H212.5c-4.4,0-8,3.6-8,8s3.6,8,8,8h271.4c4.4,0,8-3.6,8-8
	S488.3,412.5,483.9,412.5z M40.3,46.9h51.5c4.4,0,8-3.6,8-8s-3.6-8-8-8H40.3c-4.4,0-8,3.6-8,8S35.8,46.9,40.3,46.9z M117.5,298H66
	c-4.4,0-8,3.6-8,8s3.6,8,8,8h51.5c4.4,0,8-3.6,8-8S121.9,298,117.5,298z M118.1,274c0-4.4-3.6-8-8-8H31c-4.4,0-8,3.6-8,8s3.6,8,8,8
	h79.1C114.5,282,118.1,278.5,118.1,274z"></path>
</svg>