<svg version="1.1" id="Layer_1" xmlns="http://www.w3.org/2000/svg" xmlns:xlink="http://www.w3.org/1999/xlink" x="0px" y="0px" viewBox="0 0 512 512" enable-background="new 0 0 512 512" xml:space="preserve">
<linearGradient id="SVGID_1_" gradientUnits="userSpaceOnUse" x1="195.8215" y1="475.9268" x2="195.8215" y2="148.774" class="gradient-element">
	<stop offset="0" class="primary-color-gradient" style="stop-color: #FFA4ED"></stop>
	<stop offset="1" class="secondary-color-gradient" style="stop-color: #DB81DA"></stop>
</linearGradient>
<path fill="url(#SVGID_1_)" d="M245.5,363.2l8-81.1c1.2-11.9-8.1-22.3-20.1-22.5h0c-13.3-0.2-24-11.1-24-24.4v-48.8
	c0-25,20.3-45.3,45.3-45.3h0c10.9,0,19.7,8.8,19.7,19.7v98.5h38.9l-20.1,216.7H78.4l0,0c-2.6-27.7,19.2-51.6,47.1-51.6l52.7,0
	C213,424.3,242.1,397.9,245.5,363.2z"></path>
<path d="M293.3,483.9H78.4c-4.1,0-7.6-3.1-8-7.3L50.4,260c-0.2-2.2,0.5-4.5,2.1-6.1c1.5-1.7,3.7-2.6,5.9-2.6h176.8c4.4,0,8,3.6,8,8
	s-3.6,8-8,8h-168l18.6,200.7h200.4l18.6-200.7h-30.1c-4.4,0-8-3.6-8-8v-98.5c0-6.5-5.2-11.7-11.7-11.7H116.9
	c-6.5,0-11.7,5.2-11.7,11.7v78.8c0,4.4-3.6,8-8,8s-8-3.6-8-8v-78.8c0-15.3,12.4-27.7,27.7-27.7h137.9c15.3,0,27.7,12.4,27.7,27.7
	v90.5h30.9c2.3,0,4.4,0.9,5.9,2.6s2.3,3.9,2.1,6.1l-20.1,216.7C300.9,480.8,297.5,483.9,293.3,483.9z"></path>
<g>
	<path fill="#FFA4ED" class="primary-color" d="M343,159.3V48.1h43.6v111.2H343z"></path>
	<path fill="#DB81DA" class="secondary-color" d="M273,91.7V48.1h43.6v43.6H273z"></path>
</g>
<path d="M165.5,209.2c0,4.4-3.6,8-8,8H70.7c-4.4,0-8-3.6-8-8s3.6-8,8-8h86.8C161.9,201.2,165.5,204.8,165.5,209.2z M104.4,181.1
	c0-4.4-3.6-8-8-8H39c-4.4,0-8,3.6-8,8s3.6,8,8,8h57.4C100.8,189.1,104.4,185.5,104.4,181.1z M481,79.9c-5,0-9,4.1-9,9s4.1,9,9,9
	s9-4.1,9-9S486,79.9,481,79.9z M481,109.9c-5,0-9,4.1-9,9s4.1,9,9,9s9-4.1,9-9S486,109.9,481,109.9z M481,38c5,0,9-4.1,9-9
	s-4.1-9-9-9s-9,4.1-9,9S476,38,481,38z M481,50.4c-5,0-9,4.1-9,9s4.1,9,9,9s9-4.1,9-9S486,50.4,481,50.4z M450.3,80c-4.9,0-9,4-9,9
	s4,9,9,9c4.9,0,9-4,9-9S455.2,80,450.3,80z M450.3,50.5c-4.9,0-9,4-9,9s4,9,9,9c4.9,0,9-4,9-9S455.2,50.5,450.3,50.5z M450.3,38
	c5,0,9-4.1,9-9s-4.1-9-9-9s-9,4.1-9,9S445.3,38,450.3,38z M427.2,437.7H368c-4.4,0-8,3.6-8,8s3.6,8,8,8h59.2c4.4,0,8-3.6,8-8
	S431.6,437.7,427.2,437.7z M458.5,286.5h-15.8v-15.8c0-4.4-3.6-8-8-8s-8,3.6-8,8v15.8H411c-4.4,0-8,3.6-8,8s3.6,8,8,8h15.8v15.8
	c0,4.4,3.6,8,8,8s8-3.6,8-8v-15.8h15.8c4.4,0,8-3.6,8-8S463,286.5,458.5,286.5z M72.3,68c0-14.6,11.8-26.4,26.4-26.4
	s26.4,11.8,26.4,26.4s-11.8,26.4-26.4,26.4S72.3,82.6,72.3,68z M88.3,68c0,5.7,4.7,10.4,10.4,10.4s10.4-4.7,10.4-10.4
	s-4.7-10.4-10.4-10.4S88.3,62.3,88.3,68z"></path>
</svg>