<svg version="1.1" id="Layer_1" xmlns="http://www.w3.org/2000/svg" xmlns:xlink="http://www.w3.org/1999/xlink" x="0px" y="0px" viewBox="0 0 512 512" enable-background="new 0 0 512 512" xml:space="preserve">
<linearGradient id="SVGID_1_" gradientUnits="userSpaceOnUse" x1="260.4795" y1="363.3798" x2="280.4398" y2="106.7461" class="gradient-element">
	<stop offset="0" class="primary-color-gradient" style="stop-color: #FFA4ED"></stop>
	<stop offset="1" class="secondary-color-gradient" style="stop-color: #DB81DA"></stop>
</linearGradient>
<path fill="url(#SVGID_1_)" d="M364.8,245.2c0,52.6-42.6,95.2-95.2,95.2s-95.2-42.6-95.2-95.2s42.6-95.2,95.2-95.2
	S364.8,192.6,364.8,245.2z"></path>
<path fill="#000000" d="M495.5,287.1c0,4.4-3.6,8-8,8h-43c-4.4,0-8-3.6-8-8s3.6-8,8-8h43C492,279.1,495.5,282.6,495.5,287.1z
	 M466.1,309.1h-73.8c-4.4,0-8,3.6-8,8s3.6,8,8,8h73.8c4.4,0,8-3.6,8-8S470.5,309.1,466.1,309.1z M436.1,69.6h15.8v15.8
	c0,4.4,3.6,8,8,8s8-3.6,8-8V69.6h15.8c4.4,0,8-3.6,8-8s-3.6-8-8-8h-15.8V37.8c0-4.4-3.6-8-8-8s-8,3.6-8,8v15.8h-15.8
	c-4.4,0-8,3.6-8,8S431.7,69.6,436.1,69.6z M55,64.6h-3.9v-3.9c0-4.4-3.6-8-8-8s-8,3.6-8,8v3.9h-3.9c-4.4,0-8,3.6-8,8s3.6,8,8,8h3.9
	v3.9c0,4.4,3.6,8,8,8s8-3.6,8-8v-3.9H55c4.4,0,8-3.6,8-8S59.4,64.6,55,64.6z M50.3,203.8c-5.9,0-10.8,4.8-10.8,10.8
	c0,5.9,4.8,10.8,10.8,10.8s10.8-4.8,10.8-10.8C61.1,208.6,56.3,203.8,50.3,203.8z M50.3,273.8c-5.9,0-10.8,4.8-10.8,10.8
	c0,5.9,4.8,10.8,10.8,10.8s10.8-4.8,10.8-10.8C61.1,278.6,56.3,273.8,50.3,273.8z M50.3,334.8c-5.9,0-10.8,4.8-10.8,10.8
	c0,5.9,4.8,10.8,10.8,10.8s10.8-4.8,10.8-10.8C61.1,339.6,56.3,334.8,50.3,334.8z"></path>
<g>
	<path fill="#FFA4ED" class="primary-color" d="M45.3,415.2v77.3H23.8v-77.3H45.3z"></path>
	<path fill="#DB81DA" class="secondary-color" d="M458.5,429.8v-34.7h34.7v34.7H458.5z M493.2,482v-34.7h-34.7V482H493.2z M439.9,482v-34.7h-34.7V482H439.9z
		"></path>
</g>
<path d="M259.1,474.1c-4.4,0-8-3.6-8-8v-62.3c0-4.4,3.6-8,8-8h21.1c4.4,0,8,3.6,8,8s-3.6,8-8,8h-13.1v54.3
	C267.1,470.5,263.5,474.1,259.1,474.1z M376.7,444.1c-2.7,0-5.4-1.4-6.9-3.9l-28.5-48c-1.1-1.9-1.4-4.2-0.8-6.4s2.1-3.9,4.2-4.9
	l19-9.3c4-1.9,8.8-0.3,10.7,3.7s0.3,8.8-3.7,10.7l-11.2,5.5l24.1,40.5c2.3,3.8,1,8.7-2.8,11C379.5,443.8,378.1,444.1,376.7,444.1z
	 M143.7,434.9c-1.4,0-2.8-0.4-4.1-1.1c-3.8-2.3-5-7.2-2.8-11l28.5-48c2.1-3.6,6.6-4.9,10.4-3.1l19,9.3c4,1.9,5.6,6.7,3.7,10.7
	c-1.9,4-6.7,5.6-10.7,3.7l-12.4-6l-24.8,41.7C149,433.5,146.4,434.9,143.7,434.9z M172.2,161.8c-3,0-5.8-1.7-7.2-4.5
	c-1.9-4-0.3-8.8,3.7-10.7l11.2-5.5l-24.1-40.5c-2.3-3.8-1-8.7,2.8-11c3.8-2.3,8.7-1,11,2.8l28.5,48c1.1,1.9,1.4,4.2,0.8,6.4
	c-0.6,2.1-2.1,3.9-4.2,4.9l-19,9.3C174.6,161.6,173.4,161.8,172.2,161.8z M367.2,161.8c-1.2,0-2.4-0.3-3.5-0.8l-19-9.3
	c-4-1.9-5.6-6.7-3.7-10.7c1.9-4,6.7-5.6,10.7-3.7l12.4,6l24.8-41.7c2.3-3.8,7.2-5,11-2.8c3.8,2.3,5,7.2,2.8,11l-28.5,48
	C372.6,160.4,369.9,161.8,367.2,161.8z M280.2,136.9h-21.1c-4.4,0-8-3.6-8-8s3.6-8,8-8h13.1V66.6c0-4.4,3.6-8,8-8s8,3.6,8,8v62.3
	C288.2,133.3,284.7,136.9,280.2,136.9z M269.7,390.6c-75,0-127.6-43.6-158.5-80.1c-2.9-3.4-2.4-8.4,0.9-11.3
	c3.4-2.9,8.4-2.4,11.3,0.9c28.7,34,77.5,74.4,146.3,74.4c47.3,0,90.7-18.8,129-55.9c22.6-21.9,36.6-43.9,41.6-52.4
	c-5-8.6-19.2-30.8-41.9-52.8c-37.9-36.5-80.7-55.2-127.4-55.5c-48.5,0.5-87.8,39.8-88.4,88.2c0.6,47.6,39.4,86.1,87.1,86.1
	c48.1,0,87.2-39.1,87.2-87.2c0-17-5-33.5-14.4-47.8c-2.4-3.7-1.4-8.7,2.3-11.1c3.7-2.4,8.7-1.4,11.1,2.3c11.1,16.9,17,36.4,17,56.6
	c0,56.9-46.3,103.2-103.2,103.2c-55.9,0-101.5-44.7-103.1-100.2c0-0.3,0-0.5,0-0.8c0-0.4,0-0.7,0-1.1c0-0.4,0-0.7,0-1.1
	c0-0.3,0-0.5,0-0.8c0.7-26.8,11.5-51.1,28.8-69.3c-19.2,9.2-37.4,22.2-54.6,38.9c-22.6,21.9-36.6,43.9-41.6,52.4
	c0.8,1.4,1.8,3.1,3.1,5.1c2.3-3.2,6.6-4.3,10.2-2.4c3.9,2,5.4,6.9,3.4,10.8l-5.7,10.9c-1.3,2.5-3.8,4.1-6.6,4.3
	c-2.8,0.2-5.5-1.1-7.1-3.4C87.6,279.1,83,270.4,82.9,270c-1.2-2.3-1.2-5.1,0-7.4c0.6-1.2,16.1-30.6,46.7-60.2
	c40.8-39.5,89.3-60.4,140.1-60.4c0.4,0,0.8,0,1.2,0c0.5,0,1,0,1.5,0c49.8,0.7,97.3,21.6,137.4,60.4c30.6,29.6,46.1,59,46.7,60.2
	c1.2,2.3,1.2,5.1,0,7.4c-0.6,1.2-16.1,30.6-46.7,60.2C369,369.7,320.5,390.6,269.7,390.6z M269.7,284.9c-21.9,0-39.7-17.8-39.7-39.7
	s17.8-39.7,39.7-39.7s39.7,17.8,39.7,39.7S291.6,284.9,269.7,284.9z M269.7,221.5c-13.1,0-23.7,10.6-23.7,23.7s10.6,23.7,23.7,23.7
	s23.7-10.6,23.7-23.7S282.8,221.5,269.7,221.5z M259.1,253.2c-4.4,0-8-3.6-8-8c0-10.2,8.3-18.6,18.6-18.6c4.4,0,8,3.6,8,8
	s-3.6,8-8,8c-1.4,0-2.6,1.2-2.6,2.6C267.1,249.6,263.5,253.2,259.1,253.2z"></path>
</svg>