<svg version="1.1" id="Layer_1" xmlns="http://www.w3.org/2000/svg" xmlns:xlink="http://www.w3.org/1999/xlink" x="0px" y="0px" viewBox="0 0 512 512" enable-background="new 0 0 512 512" xml:space="preserve">
<linearGradient id="SVGID_1_" gradientUnits="userSpaceOnUse" x1="255.8316" y1="427.8595" x2="255.8316" y2="113.2075" class="gradient-element">
	<stop offset="0" class="primary-color-gradient" style="stop-color: #FFA4ED"></stop>
	<stop offset="1" class="secondary-color-gradient" style="stop-color: #DB81DA"></stop>
</linearGradient>
<path fill="url(#SVGID_1_)" d="M419.7,260.6c0,90.6-73.4,164-164,164c-47.4,0-90.2-20.2-120.1-52.3V438l-21.5-3.3l3.6-85.5
	C102.8,326.1,93.6,299,92,269.9c7.8-2.6,19.4-2.1,23.2,7.1c8.7,21,20.1,39.8,34.1,55.4h-3v20.9h26.1c16.7,12.2,36.1,20.5,58,24
	c46.4,7.3,77.1-10.4,92.1-27.6c34.3-39.3,43.9-112.4-9.4-170.1h47.3v-21.8h-66.7v3.9c-10.4-8.3-22.3-16.1-36-23.3
	c-17.5-9.2-7.2-37.3,12.6-37.4h0.7c12.1,0,23.9,1.2,35.4,3.5c28.4,9.2,53.4,25.9,72.7,47.9V76h14v94.7
	C409.8,196.5,419.7,227.4,419.7,260.6z"></path>
<path d="M136,449.5h-21.8c-4.4,0-8-3.6-8-8V332.4c0-4.4,3.6-8,8-8h109.1c4.4,0,8,3.6,8,8v21.8c0,4.4-3.6,8-8,8H154c-4.4,0-8-3.6-8-8
	s3.6-8,8-8h61.3v-5.8h-93.1v93.1h5.8v-66.6c0-3.3,2-6.3,5.1-7.5c3.1-1.2,6.6-0.4,8.8,2c29.4,31.9,71,50.2,114.2,50.2
	c85.9,0,155.7-69.8,155.7-155.7c0-17.5-3.1-34.9-9.1-51.9c-1.5-4.2,0.7-8.7,4.9-10.2c4.2-1.5,8.7,0.7,10.2,4.9
	c6.6,18.7,10,38,10,57.2c0,94.7-77,171.7-171.7,171.7c-41.1,0-81-15.1-112-41.9v55.7C144,445.9,140.4,449.5,136,449.5z M101.8,318.6
	c-3.3,0-6.4-2-7.5-5.3c-6.6-18.7-10-38-10-57.2c0-94.7,77-171.7,171.7-171.7c41.1,0,81,15.1,112,41.9V70.5c0-4.4,3.6-8,8-8h21.8
	c4.4,0,8,3.6,8,8v109.1c0,4.4-3.6,8-8,8H288.7c-4.4,0-8-3.6-8-8v-21.8c0-4.4,3.6-8,8-8H358c4.4,0,8,3.6,8,8s-3.6,8-8,8h-61.3v5.8
	h93.1V78.5H384v66.6c0,3.3-2,6.3-5.1,7.5c-3.1,1.2-6.6,0.4-8.8-2c-29.4-31.9-71-50.2-114.2-50.2c-85.9,0-155.7,69.8-155.7,155.7
	c0,17.4,3.1,34.9,9.1,51.9c1.5,4.2-0.7,8.7-4.9,10.2C103.6,318.4,102.7,318.6,101.8,318.6z"></path>
<g>
	<path fill="#DB81DA" class="secondary-color" d="M83.1,453.3v35.2H61.8v-35.2H83.1z M468.1,16.6v77.3h22.5V16.6H468.1z"></path>
	<path fill="#FFA4ED" class="primary-color" d="M402,474.8l60.9-60.9v60.9H402z M19,453.3v35.2h20.4v-35.2H19z M422.9,16.6v77.3h21.6V16.6H422.9z"></path>
</g>
<path d="M475.3,267.6c0,4.4-3.6,8-8,8h-43c-4.4,0-8-3.6-8-8s3.6-8,8-8h43C471.8,259.6,475.3,263.2,475.3,267.6z M445.9,289.6h-73.8
	c-4.4,0-8,3.6-8,8s3.6,8,8,8h73.8c4.4,0,8-3.6,8-8S450.3,289.6,445.9,289.6z M76,53H60.3V37.2c0-4.4-3.6-8-8-8s-8,3.6-8,8V53H28.5
	c-4.4,0-8,3.6-8,8s3.6,8,8,8h15.8v15.8c0,4.4,3.6,8,8,8s8-3.6,8-8V69H76c4.4,0,8-3.6,8-8S80.5,53,76,53z M474.9,135.1H471v-3.9
	c0-4.4-3.6-8-8-8s-8,3.6-8,8v3.9h-3.9c-4.4,0-8,3.6-8,8s3.6,8,8,8h3.9v3.9c0,4.4,3.6,8,8,8s8-3.6,8-8v-3.9h3.9c4.4,0,8-3.6,8-8
	S479.3,135.1,474.9,135.1z M36.7,169.8c-5.9,0-10.8,4.8-10.8,10.8s4.8,10.8,10.8,10.8s10.8-4.8,10.8-10.8S42.6,169.8,36.7,169.8z
	 M246.1,47.3H136.6c-4.4,0-8,3.6-8,8s3.6,8,8,8h109.5c4.4,0,8-3.6,8-8S250.6,47.3,246.1,47.3z"></path>
</svg>