<svg version="1.1" id="Layer_1" xmlns="http://www.w3.org/2000/svg" xmlns:xlink="http://www.w3.org/1999/xlink" x="0px" y="0px" viewBox="0 0 512 512" enable-background="new 0 0 512 512" xml:space="preserve">
<linearGradient id="SVGID_1_" gradientUnits="userSpaceOnUse" x1="256.5757" y1="415.028" x2="256.5757" y2="112.0495" class="gradient-element">
	<stop offset="0" class="primary-color-gradient" style="stop-color: #FFA4ED"></stop>
	<stop offset="1" class="secondary-color-gradient" style="stop-color: #DB81DA"></stop>
</linearGradient>
<path fill="url(#SVGID_1_)" d="M118.5,349.4c-14.9-23.1-24.1-50.2-25.8-79.3c7.8-2.6,19.4-2.1,23.2,7.1c3,7.2,6.6,13.9,9.8,20.7
	c16.2,34.5,47.3,55.7,47.3,55.7c16.7,12.2,36.1,20.5,58,24c46.4,7.3,77.1-10.4,92.1-27.6c34.3-39.3,43.9-112.4-9.4-170.1H361V158
	h-66.7v3.9c-10.4-8.3-22.3-16.1-36-23.3c-17.5-9.2-7.2-37.3,12.6-37.4h0.7c12.1,0,23.9,1.2,35.4,3.5c28.4,9.2,53.4,25.9,72.7,47.9
	V76.2h14v94.7c17,25.8,26.8,56.7,26.8,89.9c0,90.6-73.4,164-164,164c-47.4,0-90.2-20.2-120.1-52.3"></path>
<path d="M428.4,256.2c0,94.7-77,171.7-171.7,171.7c-47.6,0-93.5-20.2-125.9-55.3c0,0,0-0.1-0.1-0.1c-1.1-1.2-26.6-29.8-35.7-59.2
	c-6.6-18.7-10-37.9-10-57.1c0-94.7,77-171.7,171.7-171.7c41.1,0,81,15.1,112,41.9V70.7c0-4.4,3.6-8,8-8h21.8c4.4,0,8,3.6,8,8v109.1
	c0,4.4-3.6,8-8,8H289.5c-4.4,0-8-3.6-8-8V158c0-4.4,3.6-8,8-8h69.3c4.4,0,8,3.6,8,8s-3.6,8-8,8h-61.3v5.8h93.1V78.7h-5.8v66.6
	c0,3.3-2,6.3-5.1,7.5c-3.1,1.2-6.6,0.4-8.8-2c-29.4-31.9-71-50.2-114.2-50.2c-85.9,0-155.7,69.8-155.7,155.7
	c0,17.4,3.1,34.9,9.1,51.9c0,0.1,0.1,0.2,0.1,0.3c7.9,25.6,31.4,52.3,32.4,53.4c29.4,31.9,71,50.1,114.1,50.1
	c85.9,0,155.7-69.8,155.7-155.7c0-17.5-3.1-34.9-9.1-51.9c-1.5-4.2,0.7-8.7,4.9-10.2c4.2-1.5,8.7,0.7,10.2,4.9
	C425.1,217.7,428.4,236.9,428.4,256.2z"></path>
<g>
	<path fill="#DB81DA" class="secondary-color" d="M83.9,453.5v35.2H62.6v-35.2H83.9z M468.9,16.8v77.3h22.5V16.8H468.9z"></path>
	<path fill="#FFA4ED" class="primary-color" d="M420,484l60.9-60.9V484H420z M19.7,453.5v35.2h20.4v-35.2H19.7z M423.6,16.8v77.3h21.6V16.8H423.6z"></path>
</g>
<path d="M165.9,314c0,4.4-3.6,8-8,8h-43c-4.4,0-8-3.6-8-8s3.6-8,8-8h43C162.3,306,165.9,309.6,165.9,314z M136.4,336H62.6
	c-4.4,0-8,3.6-8,8s3.6,8,8,8h73.8c4.4,0,8-3.6,8-8S140.8,336,136.4,336z M61,85V69.2h15.8c4.4,0,8-3.6,8-8s-3.6-8-8-8H61V37.4
	c0-4.4-3.6-8-8-8s-8,3.6-8,8v15.8H29.2c-4.4,0-8,3.6-8,8s3.6,8,8,8H45V85c0,4.4,3.6,8,8,8S61,89.4,61,85z M451.8,151.4h3.9v3.9
	c0,4.4,3.6,8,8,8s8-3.6,8-8v-3.9h3.9c4.4,0,8-3.6,8-8s-3.6-8-8-8h-3.9v-3.9c0-4.4-3.6-8-8-8s-8,3.6-8,8v3.9h-3.9c-4.4,0-8,3.6-8,8
	S447.4,151.4,451.8,151.4z M37.4,170.1c-5.9,0-10.8,4.8-10.8,10.8s4.8,10.8,10.8,10.8s10.8-4.8,10.8-10.8S43.4,170.1,37.4,170.1z
	 M495.3,344c0,14.6-11.8,26.4-26.4,26.4s-26.4-11.8-26.4-26.4s11.8-26.4,26.4-26.4S495.3,329.5,495.3,344z M479.3,344
	c0-5.7-4.7-10.4-10.4-10.4s-10.4,4.7-10.4,10.4s4.7,10.4,10.4,10.4S479.3,349.8,479.3,344z"></path>
</svg>