<svg version="1.1" id="Layer_1" xmlns="http://www.w3.org/2000/svg" xmlns:xlink="http://www.w3.org/1999/xlink" x="0px" y="0px" viewBox="0 0 512 512" enable-background="new 0 0 512 512" xml:space="preserve">
<g>
	<path fill="#DB81DA" class="secondary-color" d="M19.9,19h17v195.3h-17V19z M290.7,483.8v-17H486v17H290.7z"></path>
	<path fill="#FFA4ED" class="primary-color" d="M401.6,447l84.4-84.4V447H401.6z"></path>
</g>
<path d="M355.8,66.2c0,4.3-3.5,7.8-7.8,7.8h-46.4c-4.3,0-7.8-3.5-7.8-7.8s3.5-7.8,7.8-7.8H348C352.3,58.4,355.8,61.9,355.8,66.2z
	 M110.4,58.1H47.3c-4.4,0-8,3.6-8,8s3.6,8,8,8h63.1c4.4,0,8-3.6,8-8S114.8,58.1,110.4,58.1z M400.8,31.5h-52.9c-4.4,0-8,3.6-8,8
	s3.6,8,8,8h52.9c4.4,0,8-3.6,8-8S405.2,31.5,400.8,31.5z M456.7,328.4l-37.4,37.4c-3.1,3.1-3.1,8.2,0,11.3c1.6,1.6,3.6,2.3,5.7,2.3
	s4.1-0.8,5.7-2.3l37.4-37.4c3.1-3.1,3.1-8.2,0-11.3C464.8,325.3,459.8,325.3,456.7,328.4z M71.7,402.2c1,1.6,1.4,3.5,1,5.3
	c0,0,0,0,0,0c-0.7,3.3-3.6,5.6-6.9,5.6c-0.5,0-1-0.1-1.5-0.2c-1.8-0.4-3.4-1.5-4.4-3.1c-1-1.6-1.4-3.5-1-5.3
	c0.4-1.8,1.5-3.4,3.1-4.4c1.6-1,3.5-1.4,5.3-1C69.1,399.5,70.7,400.6,71.7,402.2z M70.3,403.1c-0.8-1.2-2-2.1-3.4-2.4
	c-2.9-0.6-5.8,1.2-6.5,4.2l6.1,1.3l-6.1-1.3c-0.3,1.4,0,2.9,0.7,4.1s2,2.1,3.4,2.4c1.4,0.3,2.9,0,4.1-0.7c1.2-0.8,2.1-2,2.4-3.4
	C71.4,405.8,71.1,404.3,70.3,403.1z M24.4,320c1.2,1.2,2.8,1.8,4.4,1.8s3.2-0.6,4.4-1.8l8.7-8.7l8.7,8.7c1.2,1.2,2.8,1.8,4.4,1.8
	s3.2-0.6,4.4-1.8c2.4-2.4,2.4-6.4,0-8.8l-8.7-8.7l8.7-8.7c2.4-2.4,2.4-6.4,0-8.8c-2.4-2.4-6.4-2.4-8.8,0l-8.7,8.7l-8.7-8.7
	c-2.4-2.4-6.4-2.4-8.8,0c-2.4,2.4-2.4,6.4,0,8.8l8.7,8.7l-8.7,8.7C22,313.6,22,317.6,24.4,320z M347.8,398.5h-7.5V391
	c0-4.4-3.6-8-8-8s-8,3.6-8,8v7.5h-7.5c-4.4,0-8,3.6-8,8s3.6,8,8,8h7.5v7.5c0,4.4,3.6,8,8,8s8-3.6,8-8v-7.5h7.5c4.4,0,8-3.6,8-8
	S352.2,398.5,347.8,398.5z M61.3,439.9l-37.4,37.4c-2.4,2.4-2.4,6.4,0,8.8c1.2,1.2,2.8,1.8,4.4,1.8c1.6,0,3.2-0.6,4.4-1.8l37.4-37.4
	c2.4-2.4,2.4-6.4,0-8.8C67.7,437.5,63.8,437.5,61.3,439.9z M479.5,109h-15.8V93.2c0-4.4-3.6-8-8-8s-8,3.6-8,8V109h-15.8
	c-4.4,0-8,3.6-8,8s3.6,8,8,8h15.8v15.8c0,4.4,3.6,8,8,8s8-3.6,8-8V125h15.8c4.4,0,8-3.6,8-8S483.9,109,479.5,109z"></path>
<g>
	<linearGradient id="SVGID_1_" gradientUnits="userSpaceOnUse" x1="148.6073" y1="158.9422" x2="341.3967" y2="158.9422" class="gradient-element">
		<stop offset="0" class="primary-color-gradient" style="stop-color: #FFA4ED"></stop>
		<stop offset="1" class="secondary-color-gradient" style="stop-color: #DB81DA"></stop>
	</linearGradient>
	<path fill="url(#SVGID_1_)" d="M222.8,258.8c-1.7,0.1-3.4,0.2-5.2,0.2c-10.8,0-21.3-1.8-31-5l-11.9,28.7l-14.2-5.9l11.9-28.8
		c-7.9-4-15.2-9.1-21.8-15c-4.1-3.7-1.5-2.5,4-2.5h41.7c21.3,0,21.2-10.2,21.2-29.2h0.1c23.4,0,42.4-19,42.4-42.4
		c0-41.7-24.7-33.1-36.4-39.4c-3.7-2-6.1-5.9-6.1-10.2V72c0-7.4,6.5-13.1,13.9-12.1c0,0,0.1,0,0.1,0c5.9,0.8,11.6,2.2,17.1,4
		l11.9-28.7l14.2,5.9l-11.9,28.8c18.9,9.6,34.3,25,43.9,43.9l28.8-11.9l5.9,14.2l-28.7,11.9c3.2,9.8,5,20.2,5,31
		c0,5.9-8.6-0.5-9.6,5.1c-1.2,0-10.5,13.9-11,15C277.5,218.9,292,258,222.8,258.8z"></path>
	<linearGradient id="SVGID_2_" gradientUnits="userSpaceOnUse" x1="277.1157" y1="477.0733" x2="277.1157" y2="190.6597">
		<stop offset="0" class="primary-color-gradient" style="stop-color: #FFA4ED"></stop>
		<stop offset="1" class="secondary-color-gradient" style="stop-color: #DB81DA"></stop>
	</linearGradient>
	<path fill="url(#SVGID_2_)" d="M196.4,392.9l-26.7-6.6l-57.7,57.9c-6.6-11.9-10.3-25.6-10.3-40.2c-0.1-46.2,37.5-83.9,83.7-84
		c0.1,0,0.1,0,0.2,0c8.3,0,14.4,7.6,12.9,15.7c-1.6,8.9,3,19.1,20.8,22.3c0,0,0.1,0,0.1,0c5.3,0.9,10.7-0.8,14.5-4.6l15.7-15.8
		l26.6-26.7l26.6-26.7l37.4-36.3c11-10.7,26.7-14.9,41.5-11.2l2.9,0.7l57.7-57.9c6.6,11.9,10.3,25.6,10.3,40.2
		c0.1,46.2-37.5,83.9-83.7,84c0,0-11-0.9-22.2-6.7l-42.1,42.3l-42.1,42.3c5.9,11.1,6.8,22.1,6.8,22.1c0.1,46.2-37.5,83.9-83.7,84
		c-14.6,0-28.3-3.7-40.2-10.2l57.7-57.9L196.4,392.9z"></path>
</g>
<path d="M217.6,209.3c27.8,0,50.4-22.6,50.4-50.4s-22.6-50.4-50.4-50.4s-50.4,22.6-50.4,50.4S189.8,209.3,217.6,209.3z M217.6,124.5
	c19,0,34.4,15.4,34.4,34.4s-15.4,34.4-34.4,34.4s-34.4-15.4-34.4-34.4S198.7,124.5,217.6,124.5z M194.5,158.8
	c0-12.8,10.4-23.2,23.2-23.2c4.4,0,8,3.6,8,8s-3.6,8-8,8c-4,0-7.2,3.2-7.2,7.2c0,4,3.2,7.2,7.2,7.2c4,0,7.2-3.2,7.2-7.2
	c0-4.4,3.6-8,8-8s8,3.6,8,8c0,12.8-10.4,23.2-23.2,23.2S194.5,171.6,194.5,158.8z M94.9,227.9c-2-0.8-3.5-2.3-4.4-4.3l-8-18.9
	c-0.8-2-0.8-4.2,0-6.1c0.8-2,2.3-3.5,4.3-4.4l25.5-10.8c-1.9-8-2.8-16.2-2.8-24.5c0-7.8,0.8-15.6,2.5-23.2l-25.7-10.4
	c-4.1-1.7-6.1-6.3-4.4-10.4l7.7-19c0.8-2,2.3-3.5,4.3-4.4c2-0.8,4.2-0.8,6.1,0l25.7,10.5c4.4-7,9.5-13.5,15.4-19.3
	c3.1-3.1,8.2-3.1,11.3,0c0,0,0,0,0,0c0,0,0,0,0,0l10.9,10.9c3.1,3.1,3.1,8.2,0,11.3c-1.6,1.6-3.6,2.3-5.7,2.3s-4.1-0.8-5.7-2.3l-5-5
	c-4.1,4.9-7.8,10.3-10.8,15.9c-1.9,3.6-6.3,5.2-10.1,3.6l-24.7-10.1l-1.7,4.2l24.7,10.1c3.8,1.5,5.8,5.7,4.7,9.7
	c-2.4,8.3-3.7,17-3.7,25.7c0,9.1,1.3,18.2,4,26.8c1.2,3.9-0.8,8.1-4.5,9.7l-24.6,10.4l1.7,4.1l24.6-10.4c3.8-1.6,8.1-0.1,10.1,3.5
	c8.7,15.7,21.6,28.5,37.4,37c3.6,1.9,5.2,6.3,3.6,10.1l-10,24.7l4.2,1.7l10-24.6c1.5-3.8,5.7-5.8,9.7-4.7c8.3,2.4,17,3.7,25.7,3.7
	c10-0.5,20.8-2.2,23.1-3.6c3.7-2.5,8.6-1.5,11.1,2.2c2.5,3.7,1.5,8.6-2.2,11.1c-7.1,4.7-24.4,6-31.4,6.3c-0.1,0-0.2,0-0.4,0
	c-7.9,0-15.7-0.9-23.3-2.5L183.9,290c-0.8,2-2.3,3.5-4.3,4.4c-1,0.4-2.1,0.6-3.1,0.6c-1,0-2-0.2-3-0.6l-19-7.7
	c-4.1-1.7-6.1-6.3-4.4-10.4l10.4-25.7c-13.7-8.5-25.2-20-33.9-33.5L101,227.9C99.1,228.7,96.9,228.7,94.9,227.9z M463.3,219
	c0,50.6-41.2,91.9-91.9,91.9c-4.4,0-8-3.6-8-8s3.6-8,8-8c41.8,0,75.9-34,75.9-75.9c0-9-1.6-18-4.7-26.4l-49.7,49.7
	c-2,2-4.9,2.8-7.6,2.1l-26.7-6.7c-2.9-0.7-5.1-3-5.8-5.8l-6.7-26.7c-0.7-2.7,0.1-5.6,2.1-7.6l49.7-49.7c-8.4-3.1-17.4-4.7-26.4-4.7
	c-41.8,0-75.9,34-75.9,75.9c0,6.3,0.9,12.7,2.6,19.2c0.7,2.8-0.1,5.7-2.1,7.7l-17.5,17.5c0,0,0,0,0,0l-65.9,65.9
	c-1.6,1.6-3.6,2.3-5.7,2.3c-2,0-4.1-0.8-5.7-2.3c-3.1-3.1-3.1-8.2,0-11.3l80.2-80.2c-1.3-6.3-2-12.6-2-18.8
	c0-26.8,11.5-51,29.9-67.8c-0.2-0.5-0.3-1.1-0.3-1.6c-0.6-5.9-1.8-11.9-3.5-17.6c-1.2-3.9,0.8-8.1,4.5-9.7l24.4-10.3l-1.7-4.1
	l-24.4,10.3c-3.8,1.6-8.1,0.1-10.1-3.5c-8.7-15.8-21.7-28.5-37.5-37c-3.6-1.9-5.2-6.3-3.6-10.1l10-24.6l-4.2-1.7l-10,24.6
	c-1.5,3.8-5.7,5.8-9.6,4.7c-8.3-2.4-17-3.6-25.7-3.6c-9.2,0-18.3,1.4-27,4c-3.9,1.2-8.1-0.8-9.7-4.5l-10.3-24.5l-11.5,4.9
	c-4.1,1.7-8.8-0.2-10.5-4.3c-1.7-4.1,0.2-8.8,4.3-10.5l18.9-8c2-0.8,4.2-0.8,6.1,0c2,0.8,3.5,2.3,4.4,4.3L193,53.7
	c15.6-3.7,32.1-3.8,47.8-0.4l10.4-25.5c1.7-4.1,6.3-6.1,10.4-4.4l19,7.7c2,0.8,3.5,2.3,4.4,4.3s0.8,4.2,0,6.1l-10.4,25.5
	c13.7,8.5,25.3,20,34.1,33.6L334,90c2-0.8,4.2-0.8,6.1,0c2,0.8,3.5,2.3,4.4,4.3l8,18.9c1.7,4.1-0.2,8.8-4.3,10.5l-25.3,10.7
	c0.5,2,0.9,4,1.2,6c13.9-8.4,30.1-13.2,47.4-13.2c15.4,0,30.6,3.9,44,11.2c2.2,1.2,3.7,3.4,4.1,5.9c0.4,2.5-0.5,5-2.3,6.8
	l-54.6,54.6l4.4,17.7l17.7,4.4l54.6-54.6c1.8-1.8,4.3-2.6,6.8-2.3c2.5,0.4,4.7,1.9,5.9,4.1C459.5,188.4,463.3,203.6,463.3,219z
	 M277,405.3c0,50.6-41.2,91.9-91.9,91.9c-15.4,0-30.6-3.9-44-11.2c-2.2-1.2-3.7-3.4-4.1-5.9c-0.4-2.5,0.5-5,2.3-6.8l54.6-54.6
	l-4.4-17.7l-17.7-4.4l-54.6,54.6c-1.8,1.8-4.3,2.6-6.8,2.3c-2.5-0.4-4.7-1.9-5.9-4.1c-7.4-13.4-11.2-28.7-11.2-44
	c0-50.6,41.2-91.9,91.9-91.9c4.4,0,8,3.6,8,8s-3.6,8-8,8c-41.8,0-75.9,34-75.9,75.9c0,9,1.6,18,4.7,26.4l49.7-49.7
	c2-2,4.9-2.8,7.6-2.1l26.7,6.7c2.9,0.7,5.1,3,5.8,5.8l6.7,26.7c0.7,2.7-0.1,5.6-2.1,7.6l-49.7,49.7c8.4,3.1,17.4,4.7,26.4,4.7
	c41.8,0,75.9-34,75.9-75.9c0-4.4,3.6-8,8-8S277,400.9,277,405.3z M357.3,297.2c3.1,3.1,3.1,8.2,0,11.3L317.8,348
	c-1.6,1.6-3.6,2.3-5.7,2.3s-4.1-0.8-5.7-2.3c-3.1-3.1-3.1-8.2,0-11.3l39.5-39.5C349.1,294,354.2,294,357.3,297.2z"></path>
</svg>