<svg version="1.1" id="Layer_1" xmlns="http://www.w3.org/2000/svg" xmlns:xlink="http://www.w3.org/1999/xlink" x="0px" y="0px" viewBox="0 0 512 512" enable-background="new 0 0 512 512" xml:space="preserve">
<linearGradient id="SVGID_1_" gradientUnits="userSpaceOnUse" x1="270.8222" y1="368.2822" x2="270.8222" y2="74.7289" class="gradient-element">
	<stop offset="0" class="primary-color-gradient" style="stop-color: #FFA4ED"></stop>
	<stop offset="1" class="secondary-color-gradient" style="stop-color: #DB81DA"></stop>
</linearGradient>
<path fill="url(#SVGID_1_)" d="M163.5,359.9l-8.7,6.4c-3.2,3.4-0.8,8.9,3.9,8.9h247.8c11.5,0,20.7-9.3,20.7-20.7V278
	c0-8.4,5.2-18.7,5.2-18.7c3.9-8.2,1.1-15.7-14.1-15.8c-8.7,0-15.8,7-15.8,15.8v78.2c0,10.2-8.2,18.4-18.4,18.3l-206.6-0.6
	C172.5,355.3,167.6,356.9,163.5,359.9z M345.9,77c-3.5-3.5-9.2-3.5-12.7,0c-1.8,1.8-2.6,4.1-2.6,6.4s0.9,4.6,2.6,6.4l65.5,65.6
	c5.7,5.7,5.8,14.9,0.3,20.8l-65.1,70.1c-3.3,3.6-3.1,9.2,0.6,12.4c1.7,1.5,3.7,2.2,5.8,2.2c2.3,0,4.7-0.9,6.4-2.8l87.1-93.1
	L345.9,77z M376.2,166.1H128.4c-11.3,0-20.6,9.1-20.7,20.4v80c0,3.7,3,6.7,6.7,6.7c1.3,0,17,0,17,0c8.7,0,1-7,1-15.8v-72.1
	l232.7,6.3l15-16.6C383.2,171.6,380.8,166.1,376.2,166.1z"></path>
<path d="M433.9,252.2v120c0,4.4-3.6,8-8,8H179.9l37.1,37c1.5,1.5,2.3,3.5,2.3,5.7c0,2.1-0.8,4.2-2.3,5.7l-28.3,28.3
	c-1.5,1.5-3.5,2.3-5.7,2.3c0,0,0,0,0,0c-2.1,0-4.2-0.8-5.7-2.3l-40.2-40.3c-3.1-3.1-3.1-8.2,0-11.3c3.1-3.1,8.2-3.1,11.3,0
	l34.6,34.6l17-17l-45.1-45c-2.3-2.3-3-5.7-1.7-8.7c1.2-3,4.2-4.9,7.4-4.9h257.4v-112c0-4.4,3.6-8,8-8S433.9,247.8,433.9,252.2z
	 M95.8,352.4l87-92.6l17.4,16.4l-47.6,50.6c-2.2,2.3-2.8,5.7-1.5,8.7c1.3,2.9,4.2,4.8,7.3,4.8h227.5c4.4,0,8-3.6,8-8v-80.1
	c0-4.4-3.6-8-8-8s-8,3.6-8,8v72.1H177l40.4-42.9c1.5-1.5,2.2-3.6,2.2-5.7c-0.1-2.1-1-4.1-2.5-5.6l-29.1-27.3
	c-3.2-3-8.3-2.9-11.3,0.4L78.8,347.1c-3,3.1-2.9,8.1,0.2,11.1l31.8,31.8c1.6,1.6,3.6,2.3,5.7,2.3c2,0,4.1-0.8,5.7-2.3
	c3.1-3.1,3.1-8.2,0-11.3L95.8,352.4z M439.4,159.3l-98.3-98.5c-1.5-1.5-3.5-2.3-5.7-2.3c0,0,0,0,0,0c-2.1,0-4.2,0.8-5.7,2.3
	l-28.3,28.3c-1.5,1.5-2.3,3.5-2.3,5.7c0,2.1,0.8,4.2,2.3,5.7l37.1,37H92.4c-4.4,0-8,3.6-8,8v120c0,4.4,3.6,8,8,8s8-3.6,8-8v-112
	h257.4c3.2,0,6.2-2,7.4-4.9s0.5-6.4-1.7-8.7l-45.1-45l17-17l87.2,87.3l-87,92.6l-17.5-16.4l47.6-50.6c2.2-2.3,2.8-5.7,1.5-8.7
	c-1.3-2.9-4.2-4.8-7.3-4.8H132.3c-4.4,0-8,3.6-8,8v80.1c0,4.4,3.6,8,8,8s8-3.6,8-8v-72.1h201L301,236.3c-1.5,1.5-2.2,3.6-2.2,5.7
	c0.1,2.1,1,4.1,2.5,5.6l29.1,27.3c1.5,1.4,3.5,2.2,5.5,2.2c2.1,0,4.3-0.8,5.8-2.5l97.8-104.1C442.5,167.3,442.5,162.4,439.4,159.3z"></path>
<path fill="#FFA4ED" class="primary-color" d="M490.4,379.2v44.5H446v-44.5H490.4z M446,490.6h44.5v-44.5H446V490.6z M377.6,490.6h44.5v-44.5h-44.5V490.6z
	"></path>
<path d="M505.8,284.4c0,4.4-3.6,8-8,8h-3.9v3.9c0,4.4-3.6,8-8,8s-8-3.6-8-8v-3.9H474c-4.4,0-8-3.6-8-8s3.6-8,8-8h3.9v-3.9
	c0-4.4,3.6-8,8-8s8,3.6,8,8v3.9h3.9C502.2,276.4,505.8,279.9,505.8,284.4z M94.8,94.4c4.4,0,8-3.6,8-8s-3.6-8-8-8
	c-5.7,0-10.4-4.7-10.4-10.4S89,57.6,94.8,57.6c4.4,0,8-3.6,8-8s-3.6-8-8-8c-14.6,0-26.4,11.8-26.4,26.4S80.2,94.4,94.8,94.4z
	 M137.3,450.4H63.5c-4.4,0-8,3.6-8,8s3.6,8,8,8h73.8c4.4,0,8-3.6,8-8S141.7,450.4,137.3,450.4z M139.8,386.1c0-3.6-2.9-6.5-6.5-6.5
	H48.7c-3.6,0-6.5,2.9-6.5,6.5s2.9,6.5,6.5,6.5h84.6C136.9,392.7,139.8,389.8,139.8,386.1z M203.6,78.6h3.9c4.4,0,8-3.6,8-8
	s-3.6-8-8-8h-3.9v-3.9c0-4.4-3.6-8-8-8s-8,3.6-8,8v3.9h-3.9c-4.4,0-8,3.6-8,8s3.6,8,8,8h3.9v3.9c0,4.4,3.6,8,8,8s8-3.6,8-8V78.6z
	 M234,452h-3.9v-3.9c0-4.4-3.6-8-8-8s-8,3.6-8,8v3.9h-3.9c-4.4,0-8,3.6-8,8s3.6,8,8,8h3.9v3.9c0,4.4,3.6,8,8,8s8-3.6,8-8V468h3.9
	c4.4,0,8-3.6,8-8S238.5,452,234,452z M464.3,101.4c-4.2-4.2-11-4.2-15.2,0s-4.2,11,0,15.2c4.2,4.2,11,4.2,15.2,0
	C468.5,112.4,468.5,105.6,464.3,101.4z M167.3,401.9H99.3c-4.4,0-8,3.6-8,8s3.6,8,8,8h67.9c4.4,0,8-3.6,8-8S171.7,401.9,167.3,401.9
	z"></path>
</svg>