<svg version="1.1" id="Layer_1" xmlns="http://www.w3.org/2000/svg" xmlns:xlink="http://www.w3.org/1999/xlink" x="0px" y="0px" viewBox="0 0 512 512" enable-background="new 0 0 512 512" xml:space="preserve">
<g>
	<linearGradient id="SVGID_1_" gradientUnits="userSpaceOnUse" x1="250.8667" y1="449.3802" x2="250.8667" y2="183.3668" class="gradient-element">
		<stop offset="0" class="primary-color-gradient" style="stop-color: #FFA4ED"></stop>
		<stop offset="1" class="secondary-color-gradient" style="stop-color: #DB81DA"></stop>
	</linearGradient>
	<path fill="url(#SVGID_1_)" d="M367.2,192.5v247.6c0,4.4-1.8,8.5-4.7,11.4c-2.9,2.9-6.9,4.7-11.4,4.7H150.6
		c-8.9,0-16.1-7.2-16.1-16.1v-13.3c0-21.1,17.1-38.2,38.2-38.2h49.8c6.9,0,12.8-4.3,15.1-10.4c30.7-7.2,53.6-34.8,53.6-67.8
		c0-32.5-22.4-59.9-52.6-67.5v-2.6c0-35.4,28.7-64.1,64.1-64.1h48.5C360,176.3,367.2,183.6,367.2,192.5z"></path>
	<linearGradient id="SVGID_2_" gradientUnits="userSpaceOnUse" x1="151.9469" y1="345.2789" x2="291.1219" y2="345.2789">
		<stop offset="0" class="primary-color-gradient" style="stop-color: #FFA4ED"></stop>
		<stop offset="1" class="secondary-color-gradient" style="stop-color: #DB81DA"></stop>
	</linearGradient>
	<path fill="url(#SVGID_2_)" d="M221,380c-69.3-2.2-69.1-69.5-69.1-69.5l139.2,0C291.1,310.5,284,382,221,380z"></path>
	<linearGradient id="SVGID_3_" gradientUnits="userSpaceOnUse" x1="221.5315" y1="275.7262" x2="291.1176" y2="275.7262">
		<stop offset="0" class="primary-color-gradient" style="stop-color: #FFA4ED"></stop>
		<stop offset="1" class="secondary-color-gradient" style="stop-color: #DB81DA"></stop>
	</linearGradient>
	<path fill="url(#SVGID_3_)" d="M291.1,310.5h-69.6l0-69.6C221.5,240.9,283.4,240.3,291.1,310.5z"></path>
</g>
<path d="M151.9,185.2c-4.9,0-8.9-4-8.9-8.9s4-8.9,8.9-8.9h74.6c4.9,0,8.9,4,8.9,8.9s-4,8.9-8.9,8.9H151.9z M376.1,210.1v246.1
	c0,4.9-4,8.9-8.9,8.9h-31.1v21.1c0,4.9-4,8.9-8.9,8.9H203.1c-0.8,0-1.5-0.1-2.3-0.3c-0.7,0.2-1.5,0.3-2.3,0.3H47.4
	c-4.9,0-8.9-4-8.9-8.9v-366c0-4.9,4-8.9,8.9-8.9h31.1V90.2c0-4.9,4-8.9,8.9-8.9h183c12.9,0,24.7,5.7,32.4,15.6
	c4,5.2,44.5,46.6,70.7,73.2c2.5,2.5,3.2,6.3,1.9,9.6c-1.4,3.3-4.6,5.4-8.2,5.4h-64.5c-4.9,0-8.9-4-8.9-8.9v-62.9
	c-2.4-2.6-4.2-4.6-5-5.6c-4.4-5.7-11-8.8-18.5-8.8H96.2v12.3h55.7c4.9,0,8.9,4,8.9,8.9s-4,8.9-8.9,8.9H96.2v318.3h142.4
	c0.8,0,1.5,0.1,2.3,0.3c0.7-0.2,1.5-0.3,2.3-0.3h84.1c0,0,0,0,0,0s0,0,0,0h31.1V210.1c0-4.9,4-8.9,8.9-8.9S376.1,205.2,376.1,210.1z
	 M311.5,167.5H346c-10-10.2-23.3-23.7-34.5-35.4V167.5z M318.4,465.1h-75.3c-0.8,0-1.5-0.1-2.3-0.3c-0.7,0.2-1.5,0.3-2.3,0.3H87.4
	c-4.9,0-8.9-4-8.9-8.9V129.1H56.2v348.3h142.4c0.8,0,1.5,0.1,2.3,0.3c0.7-0.2,1.5-0.3,2.3-0.3h115.3V465.1z M143.1,310.5
	c0-43.3,35.2-78.4,78.4-78.4s78.4,35.2,78.4,78.4S264.8,389,221.5,389S143.1,353.8,143.1,310.5z M281.6,319.4h-60.1c0,0,0,0,0,0H221
	h-59.6c4.3,29.3,29.6,51.9,60.1,51.9C252,371.2,277.3,348.7,281.6,319.4z M230.4,250.4l0,51.2l51.2,0
	C277.7,275.3,256.8,254.3,230.4,250.4z M161.5,301.7l51.2,0l0-51.2C186.3,254.3,165.3,275.3,161.5,301.7z"></path>
<path fill="#DB81DA" class="secondary-color" d="M483.3,248.6v49h-43v-49H483.3z"></path>
<path fill="#FFA4ED" class="primary-color" d="M482.4,316.2v44.6h-41.3v-44.6H482.4z M441.2,426.2v-44.6h41.3v44.6H441.2z"></path>
<path d="M262.1,43.1c0,4.4-3.6,8-8,8h-43c-4.4,0-8-3.6-8-8s3.6-8,8-8h43C258.5,35.1,262.1,38.6,262.1,43.1z M438,168.3
	c-4.4,0-8,3.6-8,8s3.6,8,8,8h15.8v15.8c0,4.4,3.6,8,8,8s8-3.6,8-8v-15.8h15.8c4.4,0,8-3.6,8-8s-3.6-8-8-8h-15.8v-15.8
	c0-4.4-3.6-8-8-8s-8,3.6-8,8v15.8H438z M409.3,125.3c4.4,0,8-3.6,8-8c0-11.4,9.3-20.7,20.8-20.7c4.4,0,8-3.6,8-8s-3.6-8-8-8
	c-20.3,0-36.8,16.5-36.8,36.8C401.3,121.7,404.9,125.3,409.3,125.3z M380,117.3c0,4.4,3.6,8,8,8s8-3.6,8-8
	c0-20.3-16.5-36.7-36.8-36.7c-4.4,0-8,3.6-8,8s3.6,8,8,8C370.7,96.6,380,105.9,380,117.3z M359.3,75.3c20.3,0,36.8-16.5,36.8-36.8
	c0-4.4-3.6-8-8-8s-8,3.6-8,8c0,11.4-9.3,20.8-20.8,20.8c-4.4,0-8,3.6-8,8S354.9,75.3,359.3,75.3z M438,75.3c4.4,0,8-3.6,8-8
	s-3.6-8-8-8c-11.4,0-20.8-9.3-20.8-20.8c0-4.4-3.6-8-8-8s-8,3.6-8,8C401.3,58.8,417.8,75.3,438,75.3z M57.7,43.1
	c0,5.5-4.4,9.9-9.9,9.9s-9.9-4.4-9.9-9.9s4.4-9.9,9.9-9.9S57.7,37.6,57.7,43.1z M113.1,43.1c0,5.5-4.4,9.9-9.9,9.9s-9.9-4.4-9.9-9.9
	s4.4-9.9,9.9-9.9S113.1,37.6,113.1,43.1z M168.4,43.1c0,5.5-4.4,9.9-9.9,9.9s-9.9-4.4-9.9-9.9s4.4-9.9,9.9-9.9
	S168.4,37.6,168.4,43.1z M483.3,448.2h-43c-4.4,0-8,3.6-8,8s3.6,8,8,8h43c4.4,0,8-3.6,8-8S487.7,448.2,483.3,448.2z M463.3,478.2
	h-93c-4.4,0-8,3.6-8,8s3.6,8,8,8h93c4.4,0,8-3.6,8-8S467.7,478.2,463.3,478.2z"></path>
</svg>