<svg version="1.1" id="Layer_1" xmlns="http://www.w3.org/2000/svg" xmlns:xlink="http://www.w3.org/1999/xlink" x="0px" y="0px" viewBox="0 0 512 512" enable-background="new 0 0 512 512" xml:space="preserve">
<path d="M471.2,50.6c0,4.4-3.6,8-8,8h-3.9v3.9c0,4.4-3.6,8-8,8s-8-3.6-8-8v-3.9h-3.9c-4.4,0-8-3.6-8-8s3.6-8,8-8h3.9v-3.9
	c0-4.4,3.6-8,8-8s8,3.6,8,8v3.9h3.9C467.6,42.6,471.2,46.2,471.2,50.6z M77.7,42.6h-3.9v-3.9c0-4.4-3.6-8-8-8s-8,3.6-8,8v3.9H54
	c-4.4,0-8,3.6-8,8s3.6,8,8,8h3.9v3.9c0,4.4,3.6,8,8,8s8-3.6,8-8v-3.9h3.9c4.4,0,8-3.6,8-8S82.2,42.6,77.7,42.6z M155.7,17.3
	c-5.9,0-10.8,4.8-10.8,10.8c0,5.9,4.8,10.8,10.8,10.8s10.8-4.8,10.8-10.8C166.4,22.1,161.6,17.3,155.7,17.3z M376.2,46.6H279
	c-4.4,0-8,3.6-8,8s3.6,8,8,8h97.2c4.4,0,8-3.6,8-8S380.6,46.6,376.2,46.6z"></path>
<g>
	<linearGradient id="SVGID_1_" gradientUnits="userSpaceOnUse" x1="485.6282" y1="260.2374" x2="41.8901" y2="260.2374" class="gradient-element">
		<stop offset="0" class="primary-color-gradient" style="stop-color: #FFA4ED"></stop>
		<stop offset="1" class="secondary-color-gradient" style="stop-color: #DB81DA"></stop>
	</linearGradient>
	<path fill="url(#SVGID_1_)" d="M496.4,150v220.5h-89.9l-25.3-25.3h0l-15.3-15.3c9.6-13.6,15.3-30.2,15.3-48.2c0-10.2-1.8-20-5.2-29
		h4.5v-48.2v-17.5h-21.1v38c-14.4-15.6-34.7-25.8-57.3-26.8c-0.1,0-0.2,0-0.3,0c-1,0-2-0.1-2.9-0.1c-0.4,0-0.8,0-1.1,0
		c-46.1,0-83.6,37.4-83.6,83.6s37.4,83.6,83.6,83.6c19.5,0,37.5-6.7,51.7-18l2.8,2.8h0l20.4,20.4H57.8c-11.6,0-21-9.4-21-21V171.5
		c0-11.8,9.6-21.4,21.4-21.4H496.4z"></path>
	<linearGradient id="SVGID_2_" gradientUnits="userSpaceOnUse" x1="277.4834" y1="281.7429" x2="381.2334" y2="281.7429">
		<stop offset="0" class="primary-color-gradient" style="stop-color: #FFA4ED"></stop>
		<stop offset="1" class="secondary-color-gradient" style="stop-color: #DB81DA"></stop>
	</linearGradient>
	<path fill="url(#SVGID_2_)" d="M381.2,281.7c0,46.1-37.4,83.6-83.6,83.6c-7,0-13.7-0.9-20.2-2.5c36.4-9,63.4-41.9,63.4-81.1
		c0-39.2-27-72.1-63.4-81.1c6.5-1.6,13.2-2.5,20.2-2.5C343.8,198.2,381.2,235.6,381.2,281.7z"></path>
</g>
<path d="M38.7,401.3c0,5,4.1,9,9,9s9-4.1,9-9s-4.1-9-9-9S38.7,396.3,38.7,401.3z M86.8,401.3c0-5-4.1-9-9-9s-9,4.1-9,9s4.1,9,9,9
	S86.8,406.3,86.8,401.3z M116.8,401.3c0-5-4.1-9-9-9s-9,4.1-9,9s4.1,9,9,9S116.8,406.3,116.8,401.3z M510,104.1V427
	c0,8.8-7.2,16-16,16H265.4v33.9h178.4c4.4,0,8,3.6,8,8s-3.6,8-8,8H67.3c-4.4,0-8-3.6-8-8s3.6-8,8-8h182.1V438c0-0.5,0.1-1,0.1-1.5
	c-0.1-0.5-0.1-1-0.1-1.5c0-4.4,3.6-8,8-8h161.2c-1.3-0.8-2.6-1.8-3.7-2.9l-66.3-66.3c-14.6,9.8-32.1,15.5-50.9,15.5
	c-50.5,0-91.6-41.1-91.6-91.6c0-1.4,0-2.8,0.1-4.2H65.3c-4.4,0-8-3.6-8-8s3.6-8,8-8h143c2.8-12.5,8.2-24.1,15.6-34.1H65.3
	c-4.4,0-8-3.6-8-8c0-4.4,3.6-8,8-8H239c15.9-13.3,36.4-21.3,58.7-21.3c0.2,0,0.3,0,0.5,0c0,0,0,0,0.1,0c19.1,0,37.8,6.1,53.2,17.2
	v-20.3c0-4.4,3.6-8,8-8h21.1c4.4,0,8,3.6,8,8v65.6c0,4.4-3.6,8-8,8h-65.6c-4.4,0-8-3.6-8-8v-20.1c0-4.4,3.6-8,8-8h22.9
	c4.4,0,8,3.6,8,8s-3.6,8-8,8h-14.9v4.1h49.6v-49.6h-5.1v30c0,3.3-2,6.3-5.1,7.5c-3.1,1.2-6.6,0.4-8.8-2
	c-14.3-15.5-34.4-24.3-55.3-24.3c-0.2,0-0.3,0-0.5,0c0,0,0,0-0.1,0c-41.7,0-75.6,33.9-75.6,75.6c0,41.7,33.9,75.6,75.6,75.6
	s75.6-33.9,75.6-75.6c0-4.4,3.6-8,8-8s8,3.6,8,8c0,25.9-10.8,49.3-28.1,66l65.1,65.1c1.6,1.6,4.1,1.6,5.7,0c1.6-1.6,1.6-4.1,0-5.7
	l-56.3-56.3c-3.1-3.1-3.1-8.2,0-11.3c3.1-3.1,8.2-3.1,11.3,0l56.3,56.3c7.8,7.8,7.8,20.5,0,28.3c-1.1,1.1-2.4,2.1-3.7,2.9H494V104.1
	c0-4.4,3.6-8,8-8S510,99.7,510,104.1z M223.6,443H17.1c-8.8,0-16-7.2-16-16V112.1c0-8.8,7.2-16,16-16h454.7c4.4,0,8,3.6,8,8
	s-3.6,8-8,8H17.1V427h206.5c4.4,0,8,3.6,8,8S228,443,223.6,443z M475.5,235.5c0,4.4-3.6,8-8,8h-63.9c-4.4,0-8-3.6-8-8s3.6-8,8-8
	h63.9C472,227.5,475.5,231.1,475.5,235.5z M475.5,289c0,4.4-3.6,8-8,8h-63.9c-4.4,0-8-3.6-8-8s3.6-8,8-8h63.9
	C472,281,475.5,284.5,475.5,289z"></path>
</svg>