<svg version="1.1" id="Layer_1" xmlns="http://www.w3.org/2000/svg" xmlns:xlink="http://www.w3.org/1999/xlink" x="0px" y="0px" viewBox="0 0 512 512" enable-background="new 0 0 512 512" xml:space="preserve">
<linearGradient id="SVGID_1_" gradientUnits="userSpaceOnUse" x1="266.3833" y1="406.3787" x2="266.3833" y2="174.9422" class="gradient-element">
	<stop offset="0" class="primary-color-gradient" style="stop-color: #FFA4ED"></stop>
	<stop offset="1" class="secondary-color-gradient" style="stop-color: #DB81DA"></stop>
</linearGradient>
<path fill="url(#SVGID_1_)" d="M488.6,171.9v179.9H177.2v56.4H74.5c-16.8,0-30.3-13.6-30.3-30.3v-44.2c0-28.2,22.9-51.1,51.1-51.1
	h82v-31.4c0-10.8-8.8-19.6-19.6-19.6h-44.1v-42.2c0-9.7,7.8-17.5,17.5-17.5H488.6z"></path>
<path d="M493.2,126.4c-4.4,0-8,3.6-8,8v262H293.6c-4.4,0-8,3.6-8,8c0,0.4,0,0.8,0.1,1.2c-0.1,0.4-0.1,0.8-0.1,1.2v30.2H185.2v-25.7
	H266c4.4,0,8-3.6,8-8s-3.6-8-8-8h-83.6c1.7-1.5,2.8-3.6,2.8-6.1V245.9c0-12.3-10-22.3-22.3-22.3H99v-81.1h313c4.4,0,8-3.6,8-8
	s-3.6-8-8-8H97.5c-8,0-14.5,6.5-14.5,14.5v82.6H33.8c-12.3,0-22.3,10-22.3,22.3v215.2c0,12.3,10,22.3,22.3,22.3h129.1
	c12.3,0,22.3-10,22.3-22.3v-8h260.5c4.4,0,8-3.6,8-8s-3.6-8-8-8H301.6v-24.7h185.1c8,0,14.5-6.5,14.5-14.5V134.4
	C501.2,130,497.6,126.4,493.2,126.4z M169.2,461.1c0,3.4-2.9,6.3-6.3,6.3H33.8c-3.5,0-6.3-2.8-6.3-6.3V245.9c0-3.5,2.8-6.3,6.3-6.3
	h129.1c3.5,0,6.3,2.8,6.3,6.3v23.8c-1.5-1.9-3.8-3.1-6.3-3.1H48.1c-4.4,0-8,3.6-8,8s3.6,8,8,8h114.8c2.6,0,4.9-1.2,6.3-3.1v109.9
	c0,2.6,1.2,4.9,3.1,6.3H48.1c-4.4,0-8,3.6-8,8s3.6,8,8,8h121.1V461.1z M399.6,376.9c0,4.9,4,8.8,8.8,8.8c4.9,0,8.8-4,8.8-8.8
	c0-4.9-4-8.8-8.8-8.8C403.6,368.1,399.6,372.1,399.6,376.9z M433,385.8c4.9,0,8.8-4,8.8-8.8c0-4.9-4-8.8-8.8-8.8
	c-4.9,0-8.8,4-8.8,8.8C424.1,381.8,428.1,385.8,433,385.8z M457.4,385.8c4.9,0,8.8-4,8.8-8.8c0-4.9-4-8.8-8.8-8.8
	c-4.9,0-8.8,4-8.8,8.8C448.6,381.8,452.6,385.8,457.4,385.8z M54.5,446.8c0-4.4,3.6-8,8-8h71.7c4.4,0,8,3.6,8,8s-3.6,8-8,8H62.5
	C58,454.8,54.5,451.2,54.5,446.8z"></path>
<g>
	<path fill="#DB81DA" class="secondary-color" d="M19.4,33.8l60.9,60.9H19.4V33.8z M249.9,18.6V34H487V18.6H249.9z"></path>
	<path fill="#FFA4ED" class="primary-color" d="M424.2,69.1V54.5h61.1v14.6H424.2z M398.1,69.1V54.5h-61.1v14.6H398.1z"></path>
	<path fill="#FFA4ED" class="primary-color" d="M249.9,69.1V54.5H311v14.6H249.9z"></path>
</g>
<path d="M503.4,482.2c0,4.4-3.6,8-8,8H319.9c-4.4,0-8-3.6-8-8s3.6-8,8-8h175.4C499.8,474.2,503.4,477.7,503.4,482.2z M48.3,195.9
	c0,4.9-4,8.8-8.8,8.8s-8.8-4-8.8-8.8s4-8.8,8.8-8.8S48.3,191,48.3,195.9z M48.3,152.1c0,4.9-4,8.8-8.8,8.8s-8.8-4-8.8-8.8
	s4-8.8,8.8-8.8S48.3,147.2,48.3,152.1z M433.3,142.4h11.4v11.4c0,4.4,3.6,8,8,8s8-3.6,8-8v-11.4h11.4c4.4,0,8-3.6,8-8s-3.6-8-8-8
	h-11.4V115c0-4.4-3.6-8-8-8s-8,3.6-8,8v11.4h-11.4c-4.4,0-8,3.6-8,8S428.9,142.4,433.3,142.4z M251,86.7h-73.8c-4.4,0-8,3.6-8,8
	s3.6,8,8,8H251c4.4,0,8-3.6,8-8S255.4,86.7,251,86.7z M203.9,47.1c0-4.4-3.6-8-8-8H80.3c-4.4,0-8,3.6-8,8s3.6,8,8,8h115.6
	C200.3,55.1,203.9,51.5,203.9,47.1z"></path>
</svg>