<svg version="1.1" id="Layer_1" xmlns="http://www.w3.org/2000/svg" xmlns:xlink="http://www.w3.org/1999/xlink" x="0px" y="0px" viewBox="0 0 512 512" enable-background="new 0 0 512 512" xml:space="preserve">
<linearGradient id="SVGID_1_" gradientUnits="userSpaceOnUse" x1="345.8277" y1="409.6718" x2="345.8277" y2="100.3493" class="gradient-element">
	<stop offset="0" class="primary-color-gradient" style="stop-color: #FFA4ED"></stop>
	<stop offset="1" class="secondary-color-gradient" style="stop-color: #DB81DA"></stop>
</linearGradient>
<path fill="url(#SVGID_1_)" d="M330.6,93.3c0,0-43.6,3.7-72.6,37.7c0,0,35.1,44.3,39,45c33.8,5.8,70.5,31.6,70.5,67.1v26.2
	c0,20.3-33.7,17.6-36.2,37.6c-1.8,14.6-1.5,25.3-7.3,33.2c-5.8,7.7-14.4,12.2-23.6,12.2l-0.1,0c-1.6-0.1-2.9,1.3-2.8,2.9
	c0.4,7-2.7,13-5.6,17c-5.1,6.8-13.1,10.8-21.8,10.8c-0.1,0-0.1,0-0.2,0c-4.4,0-8.3,2.8-9.7,7c-0.9,2.6-2.3,5.5-4.8,8.3
	c-5,5.9-12.2,9.1-20.3,9.1c-1.6,0-3.3-0.1-4.9-0.4c1.6,3.7,4,6.9,7.2,9.5l0.6,0.5l0.6,0.4l7.5,4.6c5.6,4.2,11.6,6.5,17.9,6.5
	c7.4,0,14.6-3.1,21.4-9.1c3.5-3.1,8.1-8,8.8-14.6c4.1,1.7,8.5,2.6,12.7,2.6c8.1,0,15.3-3.2,20.3-9.1c5.4-6.3,6.1-12.6,5.9-16.7
	c2.9,0.9,5.9,1.4,8.8,1.4c8.7,0,16.7-4,21.8-10.8c3.4-4.5,7-11.7,5.2-20l3.4,0.1c9.2,0,17.8-4.5,23.6-12.2
	c5.7-7.8,8.3-21.6,6.6-29.4l-0.8-3.7h13.5c13.3,0,14.9-2.9,25.9-21.9c0,0,32.6-54.5,15.6-106.7C445.1,143.2,406,86,330.6,93.3z"></path>
<path d="M418.9,460.2c0,5-4.1,9-9,9s-9-4.1-9-9c0-5,4.1-9,9-9S418.9,455.2,418.9,460.2z M379.9,451.2c-5,0-9,4.1-9,9c0,5,4.1,9,9,9
	s9-4.1,9-9C388.9,455.2,384.8,451.2,379.9,451.2z M469.9,451.2c-5,0-9,4.1-9,9c0,5,4.1,9,9,9s9-4.1,9-9
	C478.9,455.2,474.8,451.2,469.9,451.2z M439.4,451.2c-5,0-9,4.1-9,9c0,5,4.1,9,9,9s9-4.1,9-9C448.4,455.2,444.4,451.2,439.4,451.2z
	 M409.8,438.5c4.9,0,9-4,9-9c0-4.9-4-9-9-9s-9,4-9,9C400.9,434.5,404.9,438.5,409.8,438.5z M439.4,438.5c4.9,0,9-4,9-9
	c0-4.9-4-9-9-9s-9,4-9,9C430.4,434.5,434.5,438.5,439.4,438.5z M469.9,420.5c-5,0-9,4.1-9,9s4.1,9,9,9s9-4.1,9-9
	S474.8,420.5,469.9,420.5z M453.1,85.8c-14.6,0-26.4-11.8-26.4-26.4S438.6,33,453.1,33s26.4,11.8,26.4,26.4S467.7,85.8,453.1,85.8z
	 M463.5,59.4c0-5.7-4.7-10.4-10.4-10.4s-10.4,4.7-10.4,10.4s4.7,10.4,10.4,10.4S463.5,65.2,463.5,59.4z M61.9,77.2H58v-3.9
	c0-4.4-3.6-8-8-8s-8,3.6-8,8v3.9h-3.9c-4.4,0-8,3.6-8,8s3.6,8,8,8H42v3.9c0,4.4,3.6,8,8,8s8-3.6,8-8v-3.9h3.9c4.4,0,8-3.6,8-8
	S66.3,77.2,61.9,77.2z"></path>
<path fill="#FFA4ED" class="primary-color" d="M143.3,469v24.4H49.7H33.4h-8v-110h24.4V469H143.3z"></path>
<path d="M411.9,308.8c2.4,10.6-1.2,26.7-7.9,35.9c0,0-0.1,0.1-0.1,0.1c-6.4,8.4-15.3,13.7-25.1,15c-0.7,5.9-3.1,11.7-7.1,17
	c-7,9.4-18.1,14.6-30,14c-1.2,4.5-3.5,8.7-6.7,12.5c-6.5,7.7-15.9,11.9-26.4,11.9c-2.5,0-5-0.2-7.5-0.7c-2.8,5.4-6.9,9.1-8.6,10.6
	c0,0-0.1,0-0.1,0.1c-8.4,7.3-17.4,11-26.7,11c-7.9,0-15.4-2.6-22.4-7.8l-7.7-4.8c-0.3-0.2-0.6-0.4-0.9-0.6l-0.6-0.5
	c-3.9-3.1-7-7.1-9.1-11.6c-6,3.5-13.1,6.4-20.7,6.4c-9.5,0-18.2-4.4-24-12c-3.8-5-6.4-10.6-7.9-16.5c-2.4,0.6-4.9,0.8-7.3,0.8
	c-9.4,0-17.8-3.9-25.1-11.7c-4.7-5.1-7.5-11.7-8.1-19.1c-10.9-0.3-20.1-5.3-25.3-13.9c-13.7-22.5-2.2-46,6.6-53l105.9-83.8
	c0,0,0,0,0.1,0c0,0,0,0,0.1,0c10.3-7.8,20.8-7.7,26.2-6.9c2.8,0.4,9.7,1.8,13,5.8c9.6,11.9,25.8,17.4,36.6,21l1.3,0.4
	c8.8,3,16.6,2.2,20.2-2.2c2.8-3.4,2.7-8.7-0.3-14.1c-2.9-5.3-9.6-12.8-18.1-22.2c-8.2-9.1-18.5-20.5-29.1-34.2
	c-2.7-3.5-2.1-8.5,1.4-11.2c3.5-2.7,8.5-2.1,11.2,1.4c10.2,13.2,20.2,24.4,28.3,33.3c9.2,10.2,16.4,18.3,20.2,25.2
	c6.2,11.3,5.7,23.6-1.4,32.1c-5.3,6.4-13.3,9.7-22.5,9.7c-4.7,0-9.8-0.9-15.1-2.6l-1.3-0.4c-11.6-3.9-30.8-10.4-43.3-25.3
	c-2.3-0.9-10.1-2.7-17.6,3l-105.8,83.7c-3.1,2.4-11.9,17.2-2.8,32.1c3.4,5.6,10,6.2,12.7,6.2c1.3,0,2.7-0.2,4.4-0.5
	c0.5-1.3,1.3-2.4,2.5-3.4c0.7-0.5,68.8-54.5,76.4-60.6c3.4-2.8,8.5-2.2,11.2,1.2c2.8,3.4,2.2,8.5-1.2,11.2
	c-7.6,6.1-73.7,58.5-76.5,60.7c-0.6,0.5-1.2,0.8-1.9,1.1c-0.4,4.1-0.2,10.2,3.7,14.5c4.2,4.5,8.6,6.7,13.4,6.7c2.5,0,5-0.6,7.8-1.8
	c0.5-0.6,1.1-1.2,1.7-1.7c35-24.7,60.1-44,66.7-49.5c3.4-2.8,8.5-2.3,11.3,1.1c2.8,3.4,2.3,8.5-1.1,11.3c-6.6,5.4-30.7,24-64.3,47.8
	c0.4,5.3,2.4,10.3,5.8,14.8c2.8,3.6,6.8,5.6,11.3,5.6c7.4,0,15.4-5.6,20.8-9.9c1.2-0.9,2.6-1.5,4-1.7c26.5-18.7,27.7-19.6,34.4-25.1
	c3.4-2.8,8.5-2.3,11.3,1.1c2.8,3.4,2.3,8.5-1.1,11.3c-7.1,5.9-8.3,6.8-34.8,25.5c1,2.9,2.8,5.6,5.2,7.5l0.4,0.3l7.5,4.6
	c0.2,0.1,0.4,0.3,0.6,0.4c4.3,3.3,8.6,4.8,13.1,4.8c5.3,0,10.7-2.4,16.1-7.1c1.8-1.6,4.1-3.9,5.4-6.6l-11.8-8.7
	c-3.6-2.6-4.3-7.6-1.7-11.2c2.6-3.6,7.6-4.3,11.2-1.7l13.5,10c1.1,0.8,1.9,1.8,2.5,2.9c2.5,0.8,5.2,1.3,7.7,1.3
	c5.7,0,10.8-2.2,14.2-6.3c2-2.4,3.3-5,3.8-7.6c-0.5-0.3-0.9-0.6-1.3-0.9l-17-15c-3.3-2.9-3.6-8-0.7-11.3c2.9-3.3,8-3.6,11.3-0.7
	l17,15c0.5,0.4,0.9,0.9,1.3,1.4c2.2,0.7,4.4,1,6.4,1c6.2,0,11.8-2.8,15.4-7.6c2.3-3.1,4.8-7.8,3.9-13.2c-0.5-0.3-0.9-0.6-1.3-1
	L338.8,333c-3.3-2.9-3.6-8-0.7-11.3c2.9-3.3,8-3.6,11.3-0.7l22.7,20.2c1,0.8,1.7,1.9,2.1,3c6.5-0.1,12.6-3.4,16.9-9
	c4.4-6,6.4-17.5,5.2-22.9c-1-4.3,1.8-8.6,6.1-9.6C406.7,301.8,411,304.5,411.9,308.8z M438,127c-47.9-52.4-129.1-56.5-182-9.5
	c-49.9-44.4-126.6-43.8-175.8,3.1C28.5,170,26.5,252.3,75.9,304c1.6,1.6,3.7,2.5,5.8,2.5c2,0,4-0.7,5.5-2.2c3.2-3,3.3-8.1,0.3-11.3
	c-43.3-45.4-41.6-117.5,3.8-160.8c45.4-43.3,117.5-41.6,160.8,3.8c3.1,3.2,8.1,3.3,11.3,0.3c1.7-1.7,2.6-3.9,2.5-6.1
	c46.3-41.9,118.1-38.5,160.3,7.7c20.5,22.4,31,51.5,29.6,81.9c-1.4,30.4-14.5,58.4-36.9,78.8c-3.3,3-3.5,8-0.5,11.3
	c1.6,1.7,3.7,2.6,5.9,2.6c1.9,0,3.9-0.7,5.4-2.1C482.5,262.1,486.3,179.8,438,127z"></path>
</svg>