<svg version="1.1" id="Layer_1" xmlns="http://www.w3.org/2000/svg" xmlns:xlink="http://www.w3.org/1999/xlink" x="0px" y="0px" viewBox="0 0 512 512" enable-background="new 0 0 512 512" xml:space="preserve">
<linearGradient id="SVGID_1_" gradientUnits="userSpaceOnUse" x1="306.5766" y1="481.9243" x2="306.5766" y2="168.936" class="gradient-element">
	<stop offset="0" class="primary-color-gradient" style="stop-color: #FFA4ED"></stop>
	<stop offset="1" class="secondary-color-gradient" style="stop-color: #DB81DA"></stop>
</linearGradient>
<path fill="url(#SVGID_1_)" d="M327.8,306.2l-32.2,32.2c-52.3,52.3-117.7,117.7-120.7,120.7c-8.9,8.9-14.9,12.3-23.8,3.4
	c-1.9-1.9-3.4-4.1-4.5-6.4c1.3-0.8,2.5-1.8,3.6-2.9c2.9-2.9,68.3-68.3,120.7-120.7l32.2-32.2c2.6-2.6,7.5-7.6,13-13.2
	c13-13.2,24.1-20.2,41.3-13.4c10.3,4.1,19.4,3.9,31.3-8c26.3-26.3,65.2-93.4,31.7-126.9c0,0,0,0,0,0c-1.3-1.3-0.4-3.6,1.5-3.6
	c12,0.4,23,4.2,31.7,12.9c33.5,33.4-5.5,100.6-31.7,126.9c-20.6,20.6-51.1,24.8-76,13.1C340.8,293.2,334.7,299.3,327.8,306.2z
	 M327.8,306.2l-0.6,0.6c-9.7,9.7-9.7,25.4,0,35c46.8,46.8,100.4,100.4,103.1,103.1c5.5,5.5,7.6,13.2,6.3,20.4
	c4.3-0.8,8.5-2.9,11.9-6.3c8.9-8.9,8.9-23.3,0-32.2C445.4,423.7,377.5,355.9,327.8,306.2z"></path>
<path d="M427.5,280.7c12.3-12.3,30.2-36.3,40.1-63.7c11.5-31.7,8.6-57.5-8.4-74.5c-17-17-42.8-19.9-74.5-8.4
	c-27.3,9.9-51.4,27.8-63.7,40.1c-22.2,22.2-28.2,56.5-14.7,85.1c1.9,4,6.6,5.7,10.6,3.8c4-1.9,5.7-6.6,3.8-10.6
	c-10.6-22.6-6-49.5,11.5-67c26.4-26.4,87.7-59.6,115.6-31.7c15.6,15.6,11.1,40,4.7,57.8c-8.5,23.3-24.4,45.8-36.4,57.8
	c-17.5,17.5-44.4,22.1-67,11.5c-3-1.4-6.7-0.8-9,1.6l-50.2,50.2c0,0,0,0,0,0c0,0,0,0,0,0l-45.4,45.4c-39.3,39.3-73.2,73.2-75.3,75.3
	c-5.8,5.8-15.2,5.8-20.9,0c-2.8-2.8-4.3-6.5-4.3-10.4c0-4,1.5-7.7,4.3-10.5c2.4-2.4,44.6-44.6,89.3-89.3l63.6-63.6
	c3.1-3.1,3.1-8.2,0-11.3c-3.1-3.1-8.2-3.1-11.3,0l-26.6,26.6L252,283.6c-2.7-2.7-6.8-3.1-10-1.1c-10.7,6.8-25,5.3-34-3.7
	c-5.7-5.7-38.9-38.9-59.2-59.2l-15.7-15.7c-0.8-0.8-0.8-2.1,0-3c0.8-0.8,2.1-0.8,3,0l20.3,20.3c13.1,13.1,28,28,29.7,29.7
	c7.1,7.1,18.5,7,25.6,0c3.4-3.4,5.3-8,5.3-12.8c0-4.8-1.9-9.4-5.3-12.8c-2.4-2.4-29.8-29.8-43.1-43.1l-6.9-6.9c-0.8-0.8-0.8-2.1,0-3
	c0.5-0.5,1.1-0.6,1.5-0.6c0,0,0,0,0,0c0.4,0,1,0.1,1.5,0.6l16.1,16.1c13.9,13.9,32,32,33.8,33.8c7,7,18.5,7.1,25.6,0
	c7-7.1,7-18.5,0-25.6c-3-3-46.9-46.9-49.9-49.9c-3.1-3.1-8.2-3.1-11.3,0c-3.1,3.1-3.1,8.2,0,11.3c3,3,47,46.9,50,49.9
	c0.8,0.8,0.8,2.2,0,3c-0.8,0.8-2.1,0.8-3,0c-1.9-1.9-19.9-19.9-33.8-33.8L176,161c-3.4-3.4-8-5.3-12.8-5.3c0,0,0,0,0,0
	c-4.8,0-9.4,1.9-12.8,5.3c-7.1,7-7.1,18.5,0,25.6l6.9,6.9c13.2,13.2,40.7,40.7,43,43.1c0.5,0.5,0.6,1.1,0.6,1.5c0,0.4-0.1,1-0.6,1.5
	c-0.5,0.5-1.1,0.6-1.5,0.6c-0.4,0-1-0.1-1.5-0.6c-1.7-1.7-16.6-16.6-29.7-29.7l-20.3-20.3c-7.1-7.1-18.5-7.1-25.6,0
	c-7,7.1-7,18.5,0,25.6l15.7,15.7c20.3,20.3,53.5,53.5,59.2,59.2c12.7,12.7,32,16,48.1,9l7.1,7.1l-25.7,25.7
	c-44.7,44.7-87,87-89.3,89.3c-5.8,5.8-9,13.6-9,21.8c0,8.2,3.2,16,9,21.8c6,6,13.9,9,21.8,9c7.9,0,15.8-3,21.8-9
	c2.1-2.1,36-36,75.3-75.3l39.7-39.7l86.4,86.4c16.2,16.2,27.4,27.4,28.6,28.6c5.8,5.8,13.6,9,21.8,9c0,0,0,0,0,0
	c8.2,0,16-3.2,21.7-9c5.8-5.8,9-13.5,9-21.8c0-8.2-3.2-16-9-21.8c-3-3-65.9-65.9-115-115l8.5-8.5
	C375.2,308.1,406.6,301.6,427.5,280.7z M442.8,432.5c2.8,2.8,4.3,6.5,4.3,10.5c0,4-1.5,7.7-4.3,10.5c-2.8,2.8-6.5,4.3-10.4,4.3
	c0,0,0,0,0,0c-4,0-7.7-1.5-10.5-4.3c-1.2-1.2-12.4-12.4-28.6-28.6l-86.4-86.4l20.9-20.9C376.9,366.5,439.8,429.5,442.8,432.5z
	 M193.2,143.8c-3.1-3.1-3.1-8.2,0-11.3c3.1-3.1,8.2-3.1,11.3,0c2,2,29.7,29.7,50,50c11.9,11.9,22.1,22.1,25,25
	c14.2,14.2,16.7,36.9,5.9,53.8c-1.5,2.4-4.1,3.7-6.8,3.7c-1.5,0-3-0.4-4.3-1.3c-3.7-2.4-4.8-7.3-2.5-11c6.8-10.7,5.3-25-3.7-33.9
	c-2.9-2.9-13.1-13.1-25-25C222.9,173.5,195.2,145.8,193.2,143.8z"></path>
<g>
	<path fill="#FFA4ED" class="primary-color" d="M53.1,185.9H31.3V43h21.8V185.9z"></path>
	<path fill="#DB81DA" class="secondary-color" d="M88.9,185.9H67.1V43h21.8V185.9z"></path>
</g>
<path fill="#000000" d="M78,442.3c0,4.4-3.6,8-8,8H54.3v15.8c0,4.4-3.6,8-8,8s-8-3.6-8-8v-15.8H22.5c-4.4,0-8-3.6-8-8s3.6-8,8-8
	h15.8v-15.8c0-4.4,3.6-8,8-8s8,3.6,8,8v15.8H70C74.5,434.3,78,437.9,78,442.3z M41.2,292.4h3.9v3.9c0,4.4,3.6,8,8,8s8-3.6,8-8v-3.9
	H65c4.4,0,8-3.6,8-8s-3.6-8-8-8h-3.9v-3.9c0-4.4-3.6-8-8-8s-8,3.6-8,8v3.9h-3.9c-4.4,0-8,3.6-8,8S36.8,292.4,41.2,292.4z
	 M497.7,78.1H356.3c-4.4,0-8,3.6-8,8s3.6,8,8,8h141.4c4.4,0,8-3.6,8-8S502.1,78.1,497.7,78.1z M161.5,53.5c0,5-4.1,9-9,9s-9-4.1-9-9
	s4.1-9,9-9S161.5,48.5,161.5,53.5z M191.5,53.5c0,5-4.1,9-9,9s-9-4.1-9-9s4.1-9,9-9S191.5,48.5,191.5,53.5z M221.5,53.5
	c0,5-4.1,9-9,9s-9-4.1-9-9s4.1-9,9-9S221.5,48.5,221.5,53.5z M304.4,48.6h71.9c4.4,0,8-3.6,8-8s-3.6-8-8-8h-71.9c-4.4,0-8,3.6-8,8
	S299.9,48.6,304.4,48.6z M489.9,333h-73.8c-4.4,0-8,3.6-8,8s3.6,8,8,8h73.8c4.4,0,8-3.6,8-8S494.3,333,489.9,333z M304.4,450
	c-5.9,0-10.8,4.8-10.8,10.8c0,5.9,4.8,10.8,10.8,10.8s10.8-4.8,10.8-10.8C315.1,454.8,310.3,450,304.4,450z"></path>
</svg>