<svg version="1.1" id="Layer_1" xmlns="http://www.w3.org/2000/svg" xmlns:xlink="http://www.w3.org/1999/xlink" x="0px" y="0px" viewBox="0 0 512 512" enable-background="new 0 0 512 512" xml:space="preserve">
<g>
	<linearGradient id="SVGID_1_" gradientUnits="userSpaceOnUse" x1="357.6489" y1="248.7531" x2="272.7438" y2="248.7531" class="gradient-element">
		<stop offset="0" class="primary-color-gradient" style="stop-color: #FFA4ED"></stop>
		<stop offset="1" class="secondary-color-gradient" style="stop-color: #DB81DA"></stop>
	</linearGradient>
	<path fill="url(#SVGID_1_)" d="M352.2,260.9c-6.5,54.7-54,74.2-74.5,80.1c9.3-0.1,18.3-1.6,24.9-5.4c22-12.9,0,15.9,0,15.9
		l-30.2,12.1V159.3c0-15.2,13.2-26.9,28.3-25.1c23.6,2.8,51.5,6.6,51.5,6.6S360.5,190.8,352.2,260.9z"></path>
	<linearGradient id="SVGID_2_" gradientUnits="userSpaceOnUse" x1="352.1232" y1="484.1434" x2="352.1232" y2="341.6458">
		<stop offset="0" class="primary-color-gradient" style="stop-color: #FFA4ED"></stop>
		<stop offset="1" class="secondary-color-gradient" style="stop-color: #DB81DA"></stop>
	</linearGradient>
	<path fill="url(#SVGID_2_)" d="M286.6,465.5L286.6,465.5l-17.6,0v-32.7v-44.4l-0.3-23.3l47-21.2l20.9-9.4v29.2
		c4.8,3,10.5,6,17.3,8.9c47.4,20.7,76.6,34.5,81.8,93H286.6z"></path>
</g>
<path d="M245.1,196.4c0,4.4-3.6,8.1-8.1,8.1H123.1c-4.4,0-8.1-3.6-8.1-8.1s3.6-8.1,8.1-8.1H237C241.5,188.3,245.1,191.9,245.1,196.4
	z M237,396.3H123.1c-4.4,0-8.1,3.6-8.1,8.1s3.6,8.1,8.1,8.1H237c4.5,0,8.1-3.6,8.1-8.1S241.5,396.3,237,396.3z M237,257.6H123.1
	c-4.4,0-8.1,3.6-8.1,8.1s3.6,8.1,8.1,8.1H237c4.5,0,8.1-3.6,8.1-8.1S241.5,257.6,237,257.6z M449.8,473.7c0,4.5-3.6,8.1-8.1,8.1
	h-382c-4.4,0-8.1-3.6-8.1-8.1V80.8c0-4.4,3.6-8.1,8.1-8.1h204.7c0.8,0,1.6,0.1,2.4,0.4c0.7-0.2,1.5-0.3,2.2-0.3
	c5,0.1,10.1,0.5,15,1.2c10,1.5,18.7,4,27.2,6.4c18.9,5.4,33.9,9.6,54.5,1c4.1-1.7,8.8,0.2,10.5,4.3c1.7,4.1-0.2,8.8-4.3,10.5
	c-10.7,4.4-20.3,6.1-29.3,6.1c-12.8,0-24.3-3.3-35.6-6.5c-8-2.3-16.3-4.6-25.2-5.9c-4.2-0.6-8.5-1-12.8-1c-0.7,0-1.4-0.1-2-0.3
	c-0.7,0.2-1.5,0.4-2.4,0.4H67.8v376.7h210.3l-7.2-19.6c0,0,0,0,0,0c-0.3,0.1-0.6,0.2-1,0.2c-0.1,0-0.1,0-0.2,0
	c-0.3,0-0.6,0.1-0.9,0.1c0,0-0.1,0-0.1,0c0,0,0,0-0.1,0c-0.3,0-0.6,0-0.9-0.1c-0.1,0-0.2,0-0.3,0c-0.2,0-0.5-0.1-0.7-0.1
	c-0.1,0-0.2,0-0.3-0.1c-0.3-0.1-0.5-0.2-0.8-0.3c-0.1,0-0.1,0-0.2-0.1c-0.3-0.1-0.6-0.3-0.9-0.4c-0.1-0.1-0.2-0.1-0.3-0.2
	c-0.2-0.1-0.4-0.3-0.6-0.4c-0.1-0.1-0.2-0.1-0.3-0.2c-0.2-0.2-0.5-0.4-0.7-0.6c0,0-0.1,0-0.1-0.1c-3-3.2-2.9-8.3,0.4-11.3l5.9-5.5
	c0,0,0,0,0,0l18-16.8l-5.6-9.8h-12.9c-2.2,0-4.2-0.9-5.7-2.3c-1.4-1.4-2.3-3.4-2.3-5.7V365c0-3.1,1.8-6,4.7-7.3l22.1-10
	c-4.9,0.7-9.9,1.1-15.1,1.1c-4.4,0-8-3.6-8-8s3.6-8,8-8c47.1,0,67.5-37,75.5-59.1c2.3-6.2,3.4-12.8,3.4-19.5V142.7
	c-15.6,2.9-30.3-0.8-44.5-4.3c-12.7-3.2-24.7-6.2-36.6-4.2c-4.4,0.7-8.5-2.3-9.2-6.6c-0.7-4.4,2.3-8.5,6.6-9.2
	c15.2-2.4,29.3,1.1,43.1,4.5c15.8,3.9,30.6,7.7,45.7,1.9c2.5-0.9,5.2-0.6,7.4,0.9s3.5,4,3.5,6.6v122.1c0,8.6-1.5,17-4.4,25
	c-4.3,11.9-12.4,29-26.6,43.3c-2.1,2.1-4.2,4.1-6.4,5.9l3.2-1.4c2.5-1.1,5.3-0.9,7.6,0.6c2.3,1.5,3.7,4,3.7,6.7v21.9
	c9.5,5.7,21.5,11.5,35.8,17.3c37.5,15.2,54.4,41.6,62,61.1c7,18.2,7.4,33.7,7.4,38.1C449.8,473.1,449.8,473.4,449.8,473.7z
	 M276.6,384.3h7.8l44.1-19.9v-17.7l-51.9,23.4V384.3z M294.6,465.6h138.8c-0.6-6.2-2.2-15.5-6.2-25.8c-9.4-23.8-27.2-41.1-52.8-51.4
	c-11.8-4.8-22.3-9.6-31.2-14.5c-0.8,1.3-2,2.3-3.4,2.9L297.4,396l6.7,11.7c1.8,3.2,1.2,7.3-1.5,9.8L283.9,435l10.2,27.7
	C294.4,463.7,294.6,464.7,294.6,465.6z M237,327H123.1c-4.4,0-8.1,3.6-8.1,8.1s3.6,8.1,8.1,8.1H237c4.5,0,8.1-3.6,8.1-8.1
	S241.5,327,237,327z"></path>
<path fill="#DB81DA" class="secondary-color" d="M477.9,104.3v56.9h-21.8v-56.9H477.9z M345.8,49.2h56.9V27.4h-56.9V49.2z M456.1,86.1h21.8V49.2v-20v-1.8
	h-56.9v21.8h35.1V86.1z"></path>
<path d="M480.4,330.1c0,4.4-3.6,8-8,8h-15.8v15.8c0,4.4-3.6,8-8,8s-8-3.6-8-8v-15.8h-15.8c-4.4,0-8-3.6-8-8s3.6-8,8-8h15.8v-15.8
	c0-4.4,3.6-8,8-8s8,3.6,8,8v15.8h15.8C476.8,322.1,480.4,325.7,480.4,330.1z M115.8,28.1H42c-4.4,0-8,3.6-8,8s3.6,8,8,8h73.8
	c4.4,0,8-3.6,8-8S120.2,28.1,115.8,28.1z M435.7,254.2c4.4,0,8-3.6,8-8c0-5.7,4.7-10.4,10.4-10.4s10.4,4.7,10.4,10.4
	c0,4.4,3.6,8,8,8s8-3.6,8-8c0-14.6-11.8-26.4-26.4-26.4s-26.4,11.8-26.4,26.4C427.7,250.6,431.2,254.2,435.7,254.2z M216,38.3
	c0,5-4.1,9-9,9s-9-4.1-9-9s4.1-9,9-9S216,33.3,216,38.3z M246,38.3c0,5-4.1,9-9,9s-9-4.1-9-9s4.1-9,9-9S246,33.3,246,38.3z
	 M276,38.3c0,5-4.1,9-9,9s-9-4.1-9-9s4.1-9,9-9S276,33.3,276,38.3z"></path>
</svg>