<svg version="1.1" id="Layer_1" xmlns="http://www.w3.org/2000/svg" xmlns:xlink="http://www.w3.org/1999/xlink" x="0px" y="0px" viewBox="0 0 512 512" enable-background="new 0 0 512 512" xml:space="preserve">
<linearGradient id="SVGID_1_" gradientUnits="userSpaceOnUse" x1="257.0692" y1="425.7087" x2="257.0692" y2="77.7087" class="gradient-element">
	<stop offset="0" class="primary-color-gradient" style="stop-color: #FFA4ED"></stop>
	<stop offset="1" class="secondary-color-gradient" style="stop-color: #DB81DA"></stop>
</linearGradient>
<path fill="url(#SVGID_1_)" d="M243.3,107.2c-0.5-0.5-1-0.9-1.5-1.3c-0.3-0.4-0.6-0.8-1-1.2L243.3,107.2z M241.8,105.8
	c-7.2-5.8-17.8-5.4-24.5,1.3L181.5,143c3.6-10.9,4-22.7,1-33.8c-3.8-14.2-21.7-19-31.8-8.2c-5.8,6.2-11.8,16.1-17.1,31.8
	c-10.2,30.3-26.5,36.2-37.8,36.1c-3.2,0-4.5,4.2-1.8,5.9c15,9.3,33.4,11.2,49.8,5.8L124,200.5c-6.7,6.7-17.7,6.7-24.4,0l-22.9-22.9
	c-3.2-3.2-8.3-3.2-11.5,0l-3.8,3.8c-2.1,2.1-2.1,5.4,0,7.5l30.3,30.3c0.2,4.4,2,8.8,5.3,12.2l8.5,8.5c3.4,3.4,8.3,4.3,12.5,2.8
	c1.2-0.1,2.3-0.6,3.2-1.5l1.3-1.3l2.4-2.4l115.8-115.8C245.1,117.3,245.4,110.5,241.8,105.8z M273.4,407.7c-0.4-0.4-0.7-0.8-1-1.2
	c-0.5-0.4-1-0.9-1.5-1.3L273.4,407.7z M452.7,323.5l-30.3-30.3c-0.2-4.4-2-8.8-5.3-12.2l-8.5-8.5c-3.4-3.4-8.3-4.3-12.5-2.8
	c-1.2,0.1-2.3,0.6-3.2,1.5l-1.3,1.3l-2.4,2.4L273.4,390.8c-4.3,4.3-4.6,11.1-1,15.8c7.2,5.8,17.8,5.4,24.5-1.3l35.8-35.8
	c-3.6,10.9-4,22.7-1,33.8c3.8,14.2,21.7,19,31.8,8.2c5.8-6.2,11.8-16.1,17.1-31.8c10.2-30.3,26.5-36.2,37.8-36.1
	c3.2,0,4.5-4.2,1.8-5.9c-15-9.3-33.4-11.2-49.8-5.8l19.9-19.9c6.7-6.7,17.7-6.7,24.4,0l22.9,22.9c3.2,3.2,8.3,3.2,11.5,0l3.8-3.8
	C454.8,328.9,454.8,325.5,452.7,323.5z M105.5,272.5c0.4-0.4,0.8-0.7,1.2-1c0.4-0.5,0.9-1,1.3-1.5L105.5,272.5z M243.6,395.2
	c-0.1-1.2-0.6-2.3-1.5-3.2l-1.3-1.3l-2.4-2.4L122.5,272.5c-4.3-4.3-11.1-4.6-15.8-1c-5.8,7.2-5.4,17.8,1.3,24.5l35.8,35.8
	c-10.9-3.6-22.7-4-33.8-1c-14.2,3.8-19,21.7-8.2,31.8c6.2,5.8,16.1,11.8,31.8,17.1c30.3,10.2,36.2,26.5,36.1,37.8
	c0,3.2,4.2,4.5,5.9,1.8c9.3-15,11.2-33.4,5.8-49.8l19.9,19.9c6.7,6.7,6.7,17.7,0,24.4l-22.9,22.9c-3.2,3.2-3.2,8.3,0,11.5l3.8,3.8
	c2.1,2.1,5.4,2.1,7.5,0l30.3-30.3c4.4-0.2,8.8-2,12.2-5.3l8.5-8.5C244.1,404.4,245.1,399.5,243.6,395.2z M406.1,242.4l2.5-2.5
	c-0.4,0.4-0.8,0.7-1.2,1C407,241.4,406.6,241.9,406.1,242.4z M406.1,216.4l-35.8-35.8c10.9,3.6,22.7,4,33.8,1
	c14.2-3.8,19-21.7,8.2-31.8c-6.2-5.8-16.1-11.8-31.8-17.1c-30.3-10.2-36.2-26.5-36.1-37.8c0-3.2-4.2-4.5-5.9-1.8
	c-9.3,15-11.2,33.4-5.8,49.8l-19.9-19.9c-6.7-6.7-6.7-17.7,0-24.4l22.9-22.9c3.2-3.2,3.2-8.3,0-11.5l-3.8-3.8
	c-2.1-2.1-5.4-2.1-7.5,0l-30.3,30.3c-4.4,0.2-8.8,2-12.2,5.3l-8.5,8.5c-3.4,3.4-4.3,8.3-2.8,12.5c0.1,1.2,0.6,2.3,1.5,3.2l1.3,1.3
	l2.4,2.4l115.8,115.8c4.3,4.3,11.1,4.6,15.8,1C413.2,233.7,412.8,223.1,406.1,216.4z"></path>
<path d="M246.1,99c3.8,3.8,5.9,8.8,5.9,14.1s-2.1,10.4-5.8,14.2l-118,118.5c-3.8,3.8-8.8,5.9-14.1,5.9c-5.4,0-10.4-2.1-14.2-5.8
	l-43.1-42.9c-3.8-3.8-5.9-8.8-5.9-14.1c0-5.4,2.1-10.4,5.8-14.2l12.4-12.5c-17.6-26.1-14.9-61.9,8.1-85c21-21.1,52.8-25.9,79.1-12
	c3.9,2.1,5.4,6.9,3.3,10.8c-2.1,3.9-6.9,5.4-10.8,3.3c-20-10.6-44.3-6.9-60.3,9.2c-19.9,20-19.9,52.5,0.1,72.5
	c20,19.9,52.5,19.9,72.5-0.1c17.1-17.2,19.8-44.3,6.5-64.5c-2.4-3.7-1.4-8.6,2.2-11.1c3.7-2.4,8.6-1.4,11.1,2.2
	c17.6,26.5,14,62.1-8.5,84.6c-13.1,13.1-30.3,19.7-47.5,19.8c-16.3,0-32.6-5.8-45.4-17.5l-11.6,11.6c-1,1-1.2,2.2-1.2,2.8
	c0,0.6,0.2,1.8,1.2,2.8l43.1,42.9c1,1,2.2,1.2,2.8,1.2c0.6,0,1.8-0.2,2.8-1.2l118-118.5c1-1,1.2-2.2,1.2-2.8s-0.2-1.8-1.2-2.8
	l-43.1-42.9c-1-1-2.2-1.2-2.8-1.2s-1.8,0.2-2.8,1.2c-3.1,3.1-8.2,3.1-11.3,0c-3.1-3.1-3.1-8.2,0-11.3c3.8-3.8,8.8-5.9,14.1-5.9
	c5.4,0,10.4,2.1,14.2,5.8L246.1,99z M414.3,266.6c-3.8-3.8-8.8-5.8-14.2-5.8s-10.4,2.1-14.1,5.9L268,385.1
	c-3.8,3.8-5.8,8.8-5.8,14.2c0,5.4,2.1,10.4,5.9,14.1l43.1,42.9c3.8,3.8,8.8,5.8,14.2,5.8c5.4,0,10.4-2.1,14.1-5.9
	c3.1-3.1,3.1-8.2,0-11.3c-3.1-3.1-8.2-3.1-11.3,0c-1,1-2.2,1.2-2.8,1.2c-0.6,0-1.8-0.1-2.8-1.2L279.3,402c-1-1-1.2-2.2-1.2-2.8
	c0-0.6,0.1-1.8,1.2-2.8l118-118.5c1-1,2.2-1.2,2.8-1.2c0.6,0,1.8,0.1,2.8,1.2l43.1,42.9c1,1,1.2,2.2,1.2,2.8c0,0.6-0.1,1.8-1.2,2.8
	l-11.6,11.6c-26.4-24.1-67.5-23.3-92.9,2.2c-22.5,22.5-26,58.1-8.5,84.6c2.4,3.7,7.4,4.7,11.1,2.2c3.7-2.4,4.7-7.4,2.2-11.1
	c-13.4-20.2-10.7-47.3,6.5-64.5c19.9-20,52.5-20.1,72.5-0.1c20,19.9,20.1,52.5,0.1,72.5c-16,16.1-40.2,19.8-60.3,9.2
	c-3.9-2.1-8.7-0.6-10.8,3.3c-2.1,3.9-0.6,8.7,3.3,10.8c10.1,5.3,20.9,7.9,31.7,7.9c17.4,0,34.5-6.9,47.4-19.9
	c23-23.1,25.7-58.9,8.1-85l12.4-12.5c3.8-3.8,5.8-8.8,5.8-14.2c0-5.4-2.1-10.4-5.9-14.1L414.3,266.6z M128.2,267.1
	c-3.8-3.8-8.8-5.8-14.2-5.8c-5.4,0-10.4,2.1-14.1,5.9L57,310.2c-7.8,7.8-7.8,20.5,0.1,28.3c3.1,3.1,8.2,3.1,11.3,0
	c3.1-3.1,3.1-8.2,0-11.3c-1.5-1.5-1.5-4.1,0-5.7l42.9-43.1c1-1,2.2-1.2,2.8-1.2c0.6,0,1.8,0.1,2.8,1.2l118.5,118
	c1,1,1.2,2.2,1.2,2.8c0,0.6-0.1,1.8-1.2,2.8l-42.9,43.1c-1.5,1.5-4.1,1.5-5.7,0l-11.6-11.6c11.4-12.4,17.6-28.5,17.5-45.4
	c0-18-7.1-34.8-19.8-47.5c-22.5-22.5-58.1-26-84.6-8.5c-3.7,2.4-4.7,7.4-2.2,11.1c2.4,3.7,7.4,4.7,11.1,2.2
	c20.2-13.4,47.3-10.7,64.5,6.5c9.7,9.7,15.1,22.5,15.1,36.2c0,13.7-5.3,26.6-14.9,36.3c-19.9,20-52.5,20.1-72.5,0.1
	c-16.1-16-19.8-40.2-9.2-60.3c2.1-3.9,0.6-8.7-3.3-10.8c-3.9-2.1-8.7-0.6-10.8,3.3c-13.9,26.3-9.1,58.1,12,79.1
	c13.1,13.1,30.4,19.6,47.6,19.6c13.1,0,26.2-3.8,37.4-11.4l12.5,12.4c3.8,3.8,8.8,5.8,14.2,5.8c5.4,0,10.4-2.1,14.1-5.9l42.9-43.1
	c3.8-3.8,5.8-8.8,5.8-14.2c0-5.4-2.1-10.4-5.9-14.1L128.2,267.1z M386,245.3c3.8,3.8,8.8,5.8,14.2,5.8c5.4,0,10.4-2.1,14.1-5.9
	l42.9-43.1c3.8-3.8,5.8-8.8,5.8-14.2c0-5.4-2.1-10.4-5.9-14.1c-3.1-3.1-8.2-3.1-11.3,0c-3.1,3.1-3.1,8.2,0,11.3c1,1,1.2,2.2,1.2,2.8
	c0,0.6-0.1,1.8-1.2,2.8L402.9,234c-1,1-2.2,1.2-2.8,1.2s-1.8-0.1-2.8-1.2l-118.5-118c-1-1-1.2-2.2-1.2-2.8c0-0.6,0.1-1.8,1.2-2.8
	l42.9-43.1c1-1,2.2-1.2,2.8-1.2s1.8,0.1,2.8,1.2L339,78.8c-11.4,12.4-17.6,28.5-17.5,45.4c0,18,7.1,34.8,19.8,47.5
	c13,12.9,30.3,19.6,47.7,19.6c12.8,0,25.7-3.7,36.9-11.1c3.7-2.4,4.7-7.4,2.2-11.1c-2.4-3.7-7.4-4.7-11.1-2.2
	c-20.2,13.4-47.3,10.7-64.5-6.5c-9.7-9.7-15.1-22.5-15.1-36.2c0-13.7,5.3-26.6,14.9-36.3c9.7-9.7,22.5-15.1,36.2-15.1
	c13.7,0,26.6,5.3,36.3,14.9c16.1,16,19.8,40.2,9.2,60.3c-2.1,3.9-0.6,8.7,3.3,10.8c3.9,2.1,8.7,0.6,10.8-3.3
	c13.9-26.3,9.1-58.1-12-79.1c-12.7-12.7-29.6-19.6-47.6-19.6c-13.6,0-26.5,4-37.5,11.5l-12.5-12.4c-3.8-3.8-8.8-5.8-14.2-5.8
	c-5.4,0-10.4,2.1-14.1,5.9L267.4,99c-3.8,3.8-5.8,8.8-5.8,14.2c0,5.4,2.1,10.4,5.9,14.1L386,245.3z"></path>
<path d="M15.8,258.3c-5.9,0-10.8-4.8-10.8-10.8c0-5.9,4.8-10.8,10.8-10.8s10.8,4.8,10.8,10.8C26.6,253.5,21.8,258.3,15.8,258.3z
	 M491.4,41.4h-15.8V25.6c0-4.4-3.6-8-8-8s-8,3.6-8,8v15.8h-15.8c-4.4,0-8,3.6-8,8s3.6,8,8,8h15.8v15.8c0,4.4,3.6,8,8,8s8-3.6,8-8
	V57.4h15.8c4.4,0,8-3.6,8-8S495.8,41.4,491.4,41.4z M43.1,460.8h-3.9v-3.9c0-4.4-3.6-8-8-8s-8,3.6-8,8v3.9h-3.9c-4.4,0-8,3.6-8,8
	s3.6,8,8,8h3.9v3.9c0,4.4,3.6,8,8,8s8-3.6,8-8v-3.9h3.9c4.4,0,8-3.6,8-8S47.6,460.8,43.1,460.8z"></path>
</svg>