<svg version="1.1" id="Layer_1" xmlns="http://www.w3.org/2000/svg" xmlns:xlink="http://www.w3.org/1999/xlink" x="0px" y="0px" viewBox="0 0 512 512" enable-background="new 0 0 512 512" xml:space="preserve">
<path fill="#DB81DA" class="secondary-color" d="M155.2,46.2l-57.8,57.8L39.6,46.2H155.2z"></path>
<path d="M208,86.5c0,5.9-4.8,10.8-10.8,10.8s-10.8-4.8-10.8-10.8c0-5.9,4.8-10.8,10.8-10.8S208,80.6,208,86.5z M361.3,442.9
	c-5.9,0-10.8,4.8-10.8,10.8c0,5.9,4.8,10.8,10.8,10.8s10.8-4.8,10.8-10.8C372.1,447.7,367.2,442.9,361.3,442.9z M389.3,56.9h56
	c4.4,0,8-3.6,8-8s-3.6-8-8-8h-56c-4.4,0-8,3.6-8,8S384.9,56.9,389.3,56.9z M465.4,100.9h-35c-4.4,0-8,3.6-8,8s3.6,8,8,8h35
	c4.4,0,8-3.6,8-8S469.8,100.9,465.4,100.9z M410.8,70.9H337c-4.4,0-8,3.6-8,8s3.6,8,8,8h73.8c4.4,0,8-3.6,8-8S415.2,70.9,410.8,70.9
	z M65.8,444.3c-7,0.2-13.6,3.1-18.5,8.2c-4.9,5.1-7.4,11.8-7.3,18.8c0.1,4.3,3.7,7.8,8,7.8c0.1,0,0.1,0,0.2,0
	c4.4-0.1,7.9-3.8,7.8-8.2c-0.1-2.8,0.9-5.4,2.9-7.4s4.5-3.2,7.3-3.2c5.7-0.2,10.5,4.4,10.6,10.1c0.1,4.4,3.8,7.9,8.2,7.8
	c4.4-0.1,7.9-3.8,7.8-8.2C92.5,455.5,80.4,443.9,65.8,444.3z"></path>
<linearGradient id="SVGID_1_" gradientUnits="userSpaceOnUse" x1="256.7079" y1="391.5406" x2="244.2027" y2="127.7933" class="gradient-element">
	<stop offset="0" class="primary-color-gradient" style="stop-color: #FFA4ED"></stop>
	<stop offset="1" class="secondary-color-gradient" style="stop-color: #DB81DA"></stop>
</linearGradient>
<path fill="url(#SVGID_1_)" d="M115.1,371.4l131.8-230.6c4-7,14.2-7,18.2,0l131.8,230.6c4,7-1.1,15.7-9.1,15.7H124.2
	C116.2,387.1,111.1,378.4,115.1,371.4z"></path>
<path d="M253.5,345.1v13h13c4.4,0,8,3.6,8,8s-3.6,8-8,8h-21c-4.4,0-8-3.6-8-8v-21c0-4.4,3.6-8,8-8S253.5,340.7,253.5,345.1z
	 M266.5,169.2h-21c-4.4,0-8,3.6-8,8v146.9c0,4.4,3.6,8,8,8s8-3.6,8-8V185.2h13c4.4,0,8-3.6,8-8S270.9,169.2,266.5,169.2z M458.2,378
	L290.3,84.1c-7-12.3-20.1-19.9-34.3-19.9c-14.1,0-27.3,7.6-34.3,19.9L53.8,378c-7,12.2-6.9,27.3,0.1,39.4
	c7,12.1,20.1,19.7,34.1,19.7h178.4c4.4,0,8-3.6,8-8s-3.6-8-8-8H88.1c-8.3,0-16.1-4.5-20.3-11.7c-4.2-7.2-4.2-16.2-0.1-23.4
	L235.6,92.1c4.2-7.3,12-11.8,20.4-11.8c8.4,0,16.2,4.5,20.4,11.8l167.9,293.8c4.1,7.3,4.1,16.2-0.1,23.4c-4.2,7.2-12,11.7-20.3,11.7
	H287.5c-4.4,0-8,3.6-8,8s3.6,8,8,8h136.4c14,0,27.1-7.5,34.1-19.6C465.1,405.3,465.1,390.2,458.2,378z"></path>
</svg>