<svg version="1.1" id="Layer_1" xmlns="http://www.w3.org/2000/svg" xmlns:xlink="http://www.w3.org/1999/xlink" x="0px" y="0px" viewBox="0 0 512 512" enable-background="new 0 0 512 512" xml:space="preserve">
<linearGradient id="SVGID_1_" gradientUnits="userSpaceOnUse" x1="167.1711" y1="463.5289" x2="167.1711" y2="79.5364" class="gradient-element">
	<stop offset="0" class="primary-color-gradient" style="stop-color: #FFA4ED"></stop>
	<stop offset="1" class="secondary-color-gradient" style="stop-color: #DB81DA"></stop>
</linearGradient>
<path fill="url(#SVGID_1_)" d="M231.9,392.6h56v87.2H46.4c0-9,7.3-24.6,16.3-24.6h140c16.2,0,29.3-4.8,29.3-20.9V392.6z
	 M231.9,205.5v113.7c0,9.9-8,17.9-17.9,17.9H105c-16.8,0-30.4,13.6-30.4,30.4v0h157.3h56v-30.4V149.5c-15.5,0-29.5,6.3-39.6,16.4
	C238.2,176,231.9,190,231.9,205.5z M271,68.2c-21.6,0-39,17.5-39,39v18.6h56V68.2H271z"></path>
<path d="M288,487.8H46.4c-4.4,0-8-3.6-8-8V68.2c0-4.4,3.6-8,8-8H288c4.4,0,8,3.6,8,8v57.7c0,4.4-3.6,8-8,8H81.2v10.8H288
	c4.4,0,8,3.6,8,8v187.9c0,4.4-3.6,8-8,8s-8-3.6-8-8V160.7H73.2c-4.4,0-8-3.6-8-8v-26.8c0-4.4,3.6-8,8-8H280V76.2H54.4v395.6H280
	v-69.5H73.2c-4.4,0-8-3.6-8-8v-26.8c0-4.4,3.6-8,8-8H288c4.4,0,8,3.6,8,8s-3.6,8-8,8H81.2v10.8H288c4.4,0,8,3.6,8,8v85.5
	C296,484.2,292.4,487.8,288,487.8z M234.3,461H100.1c-4.4,0-8-3.6-8-8v-31.8c0-4.4,3.6-8,8-8h134.2c4.4,0,8,3.6,8,8V453
	C242.3,457.4,238.7,461,234.3,461z M108.1,445h118.2v-15.8H108.1V445z M375.2,273.4v-6c0-4.4-3.6-8-8-8s-8,3.6-8,8v6
	c0,4.4,3.6,8,8,8S375.2,277.9,375.2,273.4z M367.2,453.5c-4.4,0-8-3.6-8-8v-12.3c0-4.4,3.6-8,8-8s8,3.6,8,8v12.3
	C375.2,449.9,371.7,453.5,367.2,453.5z M367.2,410.5c-4.4,0-8-3.6-8-8v-12.3c0-4.4,3.6-8,8-8s8,3.6,8,8v12.3
	C375.2,406.9,371.7,410.5,367.2,410.5z M367.2,367.5c-4.4,0-8-3.6-8-8v-12.3c0-4.4,3.6-8,8-8s8,3.6,8,8v12.3
	C375.2,363.9,371.7,367.5,367.2,367.5z M367.2,324.4c-4.4,0-8-3.6-8-8v-12.3c0-4.4,3.6-8,8-8s8,3.6,8,8v12.3
	C375.2,320.9,371.7,324.4,367.2,324.4z M375.2,482.2v-6c0-4.4-3.6-8-8-8c-3.8,0-7,2.7-7.8,6.2c-3.6,0.8-6.2,4-6.2,7.8
	c0,4.4,3.6,8,8,8h6C371.7,490.2,375.2,486.6,375.2,482.2z M352.2,482.2c0-4.4-3.6-8-8-8h-6.8c-4.4,0-8,3.6-8,8s3.6,8,8,8h6.8
	C348.6,490.2,352.2,486.6,352.2,482.2z M328.3,482.2c0-4.4-3.6-8-8-8h-6c-4.4,0-8,3.6-8,8s3.6,8,8,8h6
	C324.7,490.2,328.3,486.6,328.3,482.2z M330.3,240.6c0-4.4-3.6-8-8-8h-6c-4.4,0-8,3.6-8,8s3.6,8,8,8h6
	C326.7,248.6,330.3,245,330.3,240.6z M413.3,248.6h-13c-4.4,0-8-3.6-8-8s3.6-8,8-8h13c4.4,0,8,3.6,8,8S417.7,248.6,413.3,248.6z
	 M367.8,248.6h-13c-4.4,0-8-3.6-8-8s3.6-8,8-8h13c4.4,0,8,3.6,8,8S372.2,248.6,367.8,248.6z M459.8,246.6v-6c0-4.4-3.6-8-8-8h-6
	c-4.4,0-8,3.6-8,8c0,3.8,2.7,7,6.2,7.8c0.8,3.6,4,6.2,7.8,6.2C456.2,254.6,459.8,251,459.8,246.6z M451.8,455.5c-4.4,0-8-3.6-8-8
	V436c0-4.4,3.6-8,8-8s8,3.6,8,8v11.5C459.8,451.9,456.2,455.5,451.8,455.5z M451.8,415.3c-4.4,0-8-3.6-8-8v-11.5c0-4.4,3.6-8,8-8
	s8,3.6,8,8v11.5C459.8,411.7,456.2,415.3,451.8,415.3z M451.8,375.1c-4.4,0-8-3.6-8-8v-11.5c0-4.4,3.6-8,8-8s8,3.6,8,8v11.5
	C459.8,371.5,456.2,375.1,451.8,375.1z M451.8,335c-4.4,0-8-3.6-8-8v-11.5c0-4.4,3.6-8,8-8s8,3.6,8,8V327
	C459.8,331.4,456.2,335,451.8,335z M451.8,294.8c-4.4,0-8-3.6-8-8v-11.5c0-4.4,3.6-8,8-8s8,3.6,8,8v11.5
	C459.8,291.2,456.2,294.8,451.8,294.8z M459.8,482.2v-6c0-4.4-3.6-8-8-8c-3.8,0-7,2.7-7.8,6.2c-3.6,0.8-6.2,4-6.2,7.8
	c0,4.4,3.6,8,8,8h6C456.2,490.2,459.8,486.6,459.8,482.2z M434.7,482.2c0-4.4-3.6-8-8-8h-7.6c-4.4,0-8,3.6-8,8s3.6,8,8,8h7.6
	C431.2,490.2,434.7,486.6,434.7,482.2z M408.1,482.2c0-3.8-2.7-7-6.2-7.8c-0.8-3.6-4-6.2-7.8-6.2c-4.4,0-8,3.6-8,8v6
	c0,4.4,3.6,8,8,8h6C404.5,490.2,408.1,486.6,408.1,482.2z M394.1,453.5c-4.4,0-8-3.6-8-8v-12.3c0-4.4,3.6-8,8-8s8,3.6,8,8v12.3
	C402.1,449.9,398.5,453.5,394.1,453.5z M394.1,410.5c-4.4,0-8-3.6-8-8v-12.3c0-4.4,3.6-8,8-8s8,3.6,8,8v12.3
	C402.1,406.9,398.5,410.5,394.1,410.5z M394.1,367.5c-4.4,0-8-3.6-8-8v-12.3c0-4.4,3.6-8,8-8s8,3.6,8,8v12.3
	C402.1,363.9,398.5,367.5,394.1,367.5z M394.1,324.4c-4.4,0-8-3.6-8-8v-12.3c0-4.4,3.6-8,8-8s8,3.6,8,8v12.3
	C402.1,320.9,398.5,324.4,394.1,324.4z M402.1,273.4v-6c0-4.4-3.6-8-8-8s-8,3.6-8,8v6c0,4.4,3.6,8,8,8S402.1,277.9,402.1,273.4z"></path>
<path d="M485.1,151.7l-27.4,27.4c0,0-0.1,0.1-0.1,0.1c0,0-0.1,0.1-0.1,0.1c-1.6,1.6-3.6,2.3-5.7,2.3s-4.1-0.8-5.7-2.3l-27.7-27.7
	c-3.1-3.1-3.1-8.2,0-11.3c3.1-3.1,8.2-3.1,11.3,0l13.7,13.7c-1.5-25.3-10.1-44.8-25.4-58c-31.9-27.4-83.4-20-83.9-20
	c-4.4,0.7-8.4-2.3-9.1-6.7c-0.7-4.4,2.3-8.4,6.7-9.1c2.4-0.4,59.2-8.6,96.7,23.6c19.1,16.4,29.6,40.2,31.1,70.7l14.2-14.2
	c3.1-3.1,8.2-3.1,11.3,0C488.2,143.5,488.2,148.6,485.1,151.7z M459.6,58.6c1.1-4.9,5.9-8,10.7-6.9c4.9,1.1,8,5.9,6.9,10.7
	c-0.9,4.2-4.7,7.1-8.8,7.1c-0.6,0-1.3-0.1-1.9-0.2C461.6,68.3,458.5,63.5,459.6,58.6z M362.2,146.6h-3.9v-3.9c0-4.4-3.6-8-8-8
	s-8,3.6-8,8v3.9h-3.9c-4.4,0-8,3.6-8,8s3.6,8,8,8h3.9v3.9c0,4.4,3.6,8,8,8s8-3.6,8-8v-3.9h3.9c4.4,0,8-3.6,8-8
	S366.6,146.6,362.2,146.6z"></path>
</svg>