<svg version="1.1" id="Layer_1" xmlns="http://www.w3.org/2000/svg" xmlns:xlink="http://www.w3.org/1999/xlink" x="0px" y="0px" viewBox="0 0 512 512" enable-background="new 0 0 512 512" xml:space="preserve">
<g>
	<linearGradient id="SVGID_1_" gradientUnits="userSpaceOnUse" x1="434.2492" y1="243.4916" x2="434.2492" y2="57.8895" class="gradient-element">
		<stop offset="0" class="primary-color-gradient" style="stop-color: #FFA4ED"></stop>
		<stop offset="1" class="secondary-color-gradient" style="stop-color: #DB81DA"></stop>
	</linearGradient>
	<path fill="url(#SVGID_1_)" d="M481.9,111.6c0,30.1-51.1,124.8-53.3,128.8l-4.6,8.5l-4.6-8.5l-29.5-59.2
		c-8.1-18.3-1.5-36.6,23.4-36.6h1c4.3,0,8-2.8,9.3-6.7c0.2,0,0.3,0,0.5,0c14.5,0,26.3-11.8,26.3-26.3c0-14.5-11.8-26.3-26.3-26.3
		V68.7c0-8.7,8.4-15.1,16.8-12.5C464.6,63.3,481.9,85.5,481.9,111.6z"></path>
	<linearGradient id="SVGID_2_" gradientUnits="userSpaceOnUse" x1="143.615" y1="460.7746" x2="143.615" y2="160.6312">
		<stop offset="0" class="primary-color-gradient" style="stop-color: #FFA4ED"></stop>
		<stop offset="1" class="secondary-color-gradient" style="stop-color: #DB81DA"></stop>
	</linearGradient>
	<path fill="url(#SVGID_2_)" d="M220.7,247.4c0,48.6-82.6,201.8-86.1,208.4l-7.5,13.8l-7.5-13.8l-47.8-95.7
		c-13.1-29.6-2.4-59.2,37.8-59.2h1.7c7,0,12.9-4.6,15-10.9c0.3,0,0.5,0,0.8,0c23.5,0,42.6-19.1,42.6-42.6
		c0-23.5-19.1-42.6-42.6-42.6v-26.8c0-14.1,13.6-24.3,27.1-20.2C192.7,169.5,220.7,205.2,220.7,247.4z"></path>
</g>
<path d="M489.9,111.6c0,13.1-7.6,36.1-23.2,70.3c-1.3,2.9-4.2,4.7-7.3,4.7c-1.1,0-2.2-0.2-3.3-0.7c-4-1.8-5.8-6.6-3.9-10.6
	c18-39.4,21.8-56.3,21.8-63.6c0-27.5-22.4-49.9-49.9-49.9c-20.8,0-39.6,13.1-46.8,32.6c-1.5,4.1-6.1,6.3-10.3,4.7
	c-4.1-1.5-6.3-6.1-4.7-10.3c9.5-25.8,34.4-43.1,61.8-43.1C460.4,45.7,489.9,75.2,489.9,111.6z M454.4,189.4c-4-1.9-8.8-0.2-10.7,3.8
	c-4.5,9.3-11.4,23.3-19.7,39c-20.6-38.9-45.1-90.7-49.3-114.7c-0.8-4.4-4.9-7.3-9.3-6.5c-4.4,0.8-7.3,4.9-6.5,9.3
	c5.8,33.6,42.2,103.1,53.2,123.7l4.8,8.9c1.4,2.6,4.1,4.2,7,4.2s5.6-1.6,7-4.2l5.1-9.3c9.4-17.4,17.2-33.2,22-43.4
	C460.1,196.1,458.4,191.3,454.4,189.4z M424,145.9c-18.9,0-34.3-15.4-34.3-34.3s15.4-34.3,34.3-34.3s34.3,15.4,34.3,34.3
	S442.9,145.9,424,145.9z M424,129.9c10.1,0,18.3-8.2,18.3-18.3c0-10.1-8.2-18.3-18.3-18.3s-18.3,8.2-18.3,18.3
	C405.7,121.7,413.9,129.9,424,129.9z M174.1,377.7c-4-1.9-8.8-0.2-10.7,3.8c-7.8,16.3-20.2,41.5-35.2,69.3l-1.1,2l-0.7-1.4
	c-12.4-23.1-74.7-141.2-83.8-193.7c-0.8-4.4-4.9-7.3-9.3-6.5c-4.4,0.8-7.3,4.9-6.5,9.3c9.6,54.9,72.9,175,85.5,198.5l7.8,14.4
	c1.4,2.6,4.1,4.2,7,4.2s5.6-1.6,7-4.2l7.5-13.8l0.6-1.2c15.1-28.1,27.7-53.6,35.6-70C179.7,384.4,178.1,379.6,174.1,377.7z
	 M127.1,145.8c-49.4,0-91.4,35.2-100,83.8c-0.8,4.4,2.1,8.5,6.5,9.3c4.3,0.8,8.5-2.1,9.3-6.5c7.2-40.9,42.7-70.5,84.3-70.5
	c47.2,0,85.6,38.4,85.6,85.6c0,17.9-12,53.2-35.7,105c-1.8,4-0.1,8.8,3.9,10.6c1.1,0.5,2.2,0.7,3.3,0.7c3,0,5.9-1.7,7.3-4.7
	c25-54.6,37.1-91.1,37.1-111.6C228.7,191.4,183.1,145.8,127.1,145.8z M127.1,298c-27.9,0-50.6-22.7-50.6-50.6s22.7-50.6,50.6-50.6
	s50.6,22.7,50.6,50.6S155,298,127.1,298z M127.1,282c19.1,0,34.6-15.5,34.6-34.6c0-19.1-15.5-34.6-34.6-34.6s-34.6,15.5-34.6,34.6
	C92.5,266.5,108,282,127.1,282z"></path>
<path d="M211.3,383.7c0,4.4-3.6,8-8,8h-59.7c-4.4,0-8-3.6-8-8s3.6-8,8-8h59.7C207.7,375.7,211.3,379.3,211.3,383.7z M203.3,347.7
	h-28c-4.4,0-8,3.6-8,8s3.6,8,8,8h28c4.4,0,8-3.6,8-8S207.7,347.7,203.3,347.7z M413.9,256.9h10c4.4,0,8-3.6,8-8s-3.6-8-8-8h-10
	c-4.4,0-8,3.6-8,8S409.4,256.9,413.9,256.9z M229.6,390.2c0.3,0,0.7,0.1,1,0.1c4,0,7.4-3,7.9-7c0.6-4.7,3-9,6.8-12
	c3.5-2.8,4-7.8,1.3-11.2c-2.8-3.5-7.8-4-11.2-1.3c-7.1,5.6-11.6,13.6-12.7,22.5C222.1,385.6,225.2,389.6,229.6,390.2z M379.6,304.1
	c0,4.4,3.6,8,8,8h10.1c2.4,0,4.7,0.5,6.9,1.4c1,0.4,2,0.6,3,0.6c3.2,0,6.1-1.9,7.4-5c1.7-4.1-0.3-8.8-4.4-10.4
	c-4.1-1.7-8.5-2.5-13-2.5h-10.1C383.2,296.1,379.6,299.7,379.6,304.1z M424,321.8c-0.1,0-0.1,0-0.2,0c-4.4,0.1-7.9,3.8-7.8,8.2l0,3
	c0,4.1-1.3,7.9-3.7,11.1c-2.7,3.5-2,8.5,1.5,11.2c1.4,1.1,3.2,1.6,4.8,1.6c2.4,0,4.8-1.1,6.4-3.1c4.6-6,7-13.2,7-20.8v-2.6
	c0-0.3,0-0.5,0-0.8C431.9,325.2,428.4,321.8,424,321.8z M269.5,351.3c-4.4,0-8,3.6-8,8s3.6,8,8,8h20.3c4.4,0,8-3.6,8-8s-3.6-8-8-8
	H269.5z M320.3,367.3h20.3c4.4,0,8-3.6,8-8s-3.6-8-8-8h-20.3c-4.4,0-8,3.6-8,8S315.9,367.3,320.3,367.3z M355.1,248.9
	c0,4.4,3.6,8,8,8h20.3c4.4,0,8-3.6,8-8s-3.6-8-8-8h-20.3C358.6,240.9,355.1,244.5,355.1,248.9z M188.8,461.6h-20.3c-4.4,0-8,3.6-8,8
	s3.6,8,8,8h20.3c4.4,0,8-3.6,8-8S193.2,461.6,188.8,461.6z M313,260.7c1.4,0,2.8-0.4,4.1-1.1c2.8-1.7,6.1-2.6,9.4-2.6h6.1
	c4.4,0,8-3.6,8-8s-3.6-8-8-8h-6.1c-6.2,0-12.4,1.7-17.7,4.9c-3.8,2.3-5,7.2-2.7,11C307.6,259.3,310.3,260.7,313,260.7z M365.1,304.1
	c0-4.4-3.6-8-8-8h-20.3c-4.4,0-8,3.6-8,8s3.6,8,8,8h20.3C361.6,312.1,365.1,308.5,365.1,304.1z M308.3,304.7c2.1,0,4.2-0.8,5.8-2.4
	c3.1-3.2,3-8.2-0.2-11.3c-3.5-3.3-5.4-7.8-5.6-12.6c-0.1-4.4-3.9-7.9-8.3-7.7c-4.4,0.1-7.9,3.8-7.7,8.3c0.3,9,4,17.4,10.5,23.6
	C304.3,304,306.3,304.7,308.3,304.7z M371.1,367.3h20.3c4.4,0,8-3.6,8-8s-3.6-8-8-8h-20.3c-4.4,0-8,3.6-8,8S366.7,367.3,371.1,367.3
	z M420.7,414.4c0-4.4-3.6-8-8-8h-20.3c-4.4,0-8,3.6-8,8s3.6,8,8,8h20.3C417.1,422.4,420.7,418.8,420.7,414.4z M392,461.6h-20.3
	c-4.4,0-8,3.6-8,8s3.6,8,8,8H392c4.4,0,8-3.6,8-8S396.4,461.6,392,461.6z M341.2,461.6h-20.3c-4.4,0-8,3.6-8,8s3.6,8,8,8h20.3
	c4.4,0,8-3.6,8-8S345.6,461.6,341.2,461.6z M369.9,414.4c0-4.4-3.6-8-8-8h-20.3c-4.4,0-8,3.6-8,8s3.6,8,8,8h20.3
	C366.3,422.4,369.9,418.8,369.9,414.4z M470.2,420.8c2-3.9,0.4-8.8-3.5-10.8c-4.8-2.4-10.1-3.7-15.5-3.7h-8c-4.4,0-8,3.6-8,8
	s3.6,8,8,8h8c2.9,0,5.7,0.7,8.3,2c1.2,0.6,2.4,0.9,3.6,0.9C465.9,425.2,468.7,423.6,470.2,420.8z M477.5,434.2c-4.4,0-8,3.6-8,8v1.1
	c0,4.5-1.7,8.9-4.7,12.2c-2.9,3.3-2.7,8.3,0.6,11.3c1.5,1.4,3.4,2,5.3,2c2.2,0,4.4-0.9,6-2.7c5.6-6.3,8.8-14.4,8.8-22.9v-1.1
	C485.5,437.8,481.9,434.2,477.5,434.2z M442.8,461.6h-20.3c-4.4,0-8,3.6-8,8s3.6,8,8,8h20.3c4.4,0,8-3.6,8-8
	S447.2,461.6,442.8,461.6z M268.3,414.4c0-4.4-3.6-8-8-8h-3.5c-4,0-7.7-1.2-10.9-3.6c-3.6-2.6-8.6-1.9-11.2,1.7
	c-2.6,3.5-1.9,8.6,1.7,11.2c5.9,4.4,13,6.7,20.4,6.7h3.5C264.7,422.4,268.3,418.8,268.3,414.4z M239.6,461.6h-20.3c-4.4,0-8,3.6-8,8
	s3.6,8,8,8h20.3c4.4,0,8-3.6,8-8S244,461.6,239.6,461.6z M319.1,414.4c0-4.4-3.6-8-8-8h-20.3c-4.4,0-8,3.6-8,8s3.6,8,8,8h20.3
	C315.5,422.4,319.1,418.8,319.1,414.4z M290.4,461.6h-20.3c-4.4,0-8,3.6-8,8s3.6,8,8,8h20.3c4.4,0,8-3.6,8-8
	S294.8,461.6,290.4,461.6z M137.8,461.6h-10c-4.4,0-8,3.6-8,8s3.6,8,8,8h10c4.4,0,8-3.6,8-8S142.2,461.6,137.8,461.6z M233.4,164.9
	h15.8v15.8c0,4.4,3.6,8,8,8s8-3.6,8-8v-15.8H281c4.4,0,8-3.6,8-8s-3.6-8-8-8h-15.8v-15.8c0-4.4-3.6-8-8-8s-8,3.6-8,8v15.8h-15.8
	c-4.4,0-8,3.6-8,8S229,164.9,233.4,164.9z M489.4,274h-3.9v-3.9c0-4.4-3.6-8-8-8s-8,3.6-8,8v3.9h-3.9c-4.4,0-8,3.6-8,8s3.6,8,8,8
	h3.9v3.9c0,4.4,3.6,8,8,8s8-3.6,8-8V290h3.9c4.4,0,8-3.6,8-8S493.8,274,489.4,274z M96.3,67.1c0,14.6-11.8,26.4-26.4,26.4
	S43.5,81.7,43.5,67.1s11.8-26.4,26.4-26.4S96.3,52.6,96.3,67.1z M80.3,67.1c0-5.7-4.7-10.4-10.4-10.4s-10.4,4.7-10.4,10.4
	s4.7,10.4,10.4,10.4S80.3,72.9,80.3,67.1z M319.1,69.3h43c4.4,0,8-3.6,8-8s-3.6-8-8-8h-43c-4.4,0-8,3.6-8,8S314.6,69.3,319.1,69.3z
	 M266.8,99.3h73.8c4.4,0,8-3.6,8-8s-3.6-8-8-8h-73.8c-4.4,0-8,3.6-8,8S262.3,99.3,266.8,99.3z"></path>
</svg>