<svg version="1.1" id="Layer_1" xmlns="http://www.w3.org/2000/svg" xmlns:xlink="http://www.w3.org/1999/xlink" x="0px" y="0px" viewBox="0 0 512 512" enable-background="new 0 0 512 512" xml:space="preserve">
<linearGradient id="SVGID_1_" gradientUnits="userSpaceOnUse" x1="278.8609" y1="393.0468" x2="278.8609" y2="47.0338" class="gradient-element">
	<stop offset="0" class="primary-color-gradient" style="stop-color: #FFA4ED"></stop>
	<stop offset="1" class="secondary-color-gradient" style="stop-color: #DB81DA"></stop>
</linearGradient>
<path fill="url(#SVGID_1_)" d="M232.5,115.1c0,0,25.8-67.5-44.9-59c-21.9,2.6,41-15.6,56.6,0S263.6,102.6,232.5,115.1z M296,290.6
	l-0.2-6.1c-1-37-5.1-66.4-12.9-90.7l35.3,7.1l18.5,68.7l37.9-10.2l-20.9-80.9c-2-7.3-7.9-12.9-15.4-14.4l-75.9-15.3l-13.4-2.7
	c37.4,104.5,27,238.4,27,238.4h80.1v-20h-60C296,364.6,296.2,299.7,296,290.6z"></path>
<path d="M216,472.6h-40c-4.4,0-8-3.6-8-8v-86.1c0-1.6,0.5-3.1,1.3-4.4L208,316c0.6-33.9-1.2-60.5-5.3-80.7l-6.9,7.8
	c-6.6,7.5-16.8,11-26.8,8.9c-9.9-2.1-17.9-9.4-21-19l-18.9-60c-0.6-2-0.4-4.2,0.5-6.1c1-1.9,2.7-3.3,4.7-3.9l38.2-12
	c2-0.6,4.2-0.4,6.1,0.5c1.9,1,3.3,2.7,3.9,4.7l4,12.7l9.5-10.7c4.2-5.1,8.9-10.1,9.1-10.3c0.7-0.7,1.5-1.3,2.3-1.7
	c8.4-6.3,18.2-9.6,28.5-9.6c2.4,0,6.4,0.4,6.9,0.4c0.3,0,0.5,0.1,0.8,0.1l96.2,19.4c10.5,2.1,18.7,9.9,21.5,20.2l20.9,81
	c1.1,4.2-1.4,8.6-5.7,9.7l-37.9,10.2c-4.3,1.1-8.7-1.4-9.8-5.7l-17.2-63.9l-17.6-3.5c5.6,22.2,8.7,48,9.6,80l0.2,6.1
	c0.1,7.3,0.1,48.5,0,66.2h52c4.4,0,8,3.6,8,8s-3.6,8-8,8h-60c-2.1,0-4.2-0.8-5.7-2.4c-1.5-1.5-2.3-3.5-2.3-5.7
	c0-0.6,0.2-64.9,0-73.8l-0.2-6c-1-36.9-5-65-12.5-88.5c-0.9-2.7-0.2-5.7,1.7-7.8c1.9-2.1,4.8-3.1,7.5-2.5l35.3,7.1
	c3,0.6,5.4,2.8,6.1,5.8l16.4,61l22.5-6L346,180.6c-1.2-4.4-4.7-7.7-9.2-8.6l-95.8-19.3c-1.5-0.1-3.8-0.3-4.9-0.3
	c-7.2,0-14,2.5-19.9,7.1c-0.1,0.1-0.3,0.2-0.4,0.3c-1.6,1.7-4.6,5-7.2,8.3c-0.1,0.1-0.1,0.2-0.2,0.3l-18.9,21.5
	c-1.9,2.2-4.8,3.1-7.7,2.5c-2.8-0.6-5.1-2.7-6-5.4l-5.8-18.6l-22.9,7.2l16.5,52.4c1.3,4.1,4.7,7.2,9,8.2c0.8,0.2,1.7,0.3,2.5,0.3
	c3.4,0,6.7-1.5,9-4.1l16.8-19.1c1.9-2.2,4.8-3.1,7.7-2.5c2.8,0.6,5.1,2.7,6,5.4c7.5,23.8,10.6,56.3,9.7,102.4c0,1.5-0.5,3-1.3,4.3
	l-38.7,58v75.7h24v-66c0-1.6,0.5-3.1,1.3-4.4l40-60c2-2.9,5.6-4.2,9-3.2c3.4,1,5.7,4.1,5.7,7.7v66h84.1v-6.9c0-4.4,3.6-8,8-8
	s8,3.6,8,8v14.9c0,4.4-3.6,8-8,8H256c-4.4,0-8-3.6-8-8V357l-24,36v71.6C224,469,220.4,472.6,216,472.6z M216,132.4
	c-26.5,0-48-21.5-48-48s21.5-48,48-48c12.8,0,24.9,5,34,14.1c3.1,3.1,3.1,8.2,0,11.3c-3.1,3.1-8.2,3.1-11.3,0
	c-6-6-14.1-9.4-22.6-9.4c-17.7,0-32,14.4-32,32s14.4,32,32,32s32-14.4,32-32c0-4.4,3.6-8,8-8s8,3.6,8,8
	C264,110.9,242.5,132.4,216,132.4z"></path>
<g>
	<path fill="#FFA4ED" class="primary-color" d="M53.6,28.8v68.3H29.3V28.8H53.6z M29.3,121.1v110h24.4v-110H29.3z"></path>
	<path fill="#DB81DA" class="secondary-color" d="M480,476.8H370v-24.4h110V476.8z"></path>
</g>
<path d="M483.6,352.6c0,4.4-3.6,8-8,8h-86.8c-4.4,0-8-3.6-8-8s3.6-8,8-8h86.8C480.1,344.6,483.6,348.1,483.6,352.6z M422.5,324.4
	c0-4.4-3.6-8-8-8h-57.4c-4.4,0-8,3.6-8,8s3.6,8,8,8h57.4C419,332.4,422.5,328.9,422.5,324.4z M143,465.8H56.1c-4.4,0-8,3.6-8,8
	s3.6,8,8,8H143c4.4,0,8-3.6,8-8S147.4,465.8,143,465.8z M89.8,445.7c0-4.4-3.6-8-8-8H24.4c-4.4,0-8,3.6-8,8s3.6,8,8,8h57.4
	C86.3,453.7,89.8,450.1,89.8,445.7z M102,348.2c5,0,9-4.1,9-9s-4.1-9-9-9s-9,4.1-9,9S97,348.2,102,348.2z M71.5,348.1c4.9,0,9-4,9-9
	s-4-9-9-9s-9,4-9,9S66.6,348.1,71.5,348.1z M102,318.5c5,0,9-4.1,9-9s-4.1-9-9-9s-9,4.1-9,9S97,318.5,102,318.5z M480,71.9h-15.8
	V56.2c0-4.4-3.6-8-8-8s-8,3.6-8,8v15.8h-15.8c-4.4,0-8,3.6-8,8s3.6,8,8,8h15.8v15.8c0,4.4,3.6,8,8,8s8-3.6,8-8V87.9H480
	c4.4,0,8-3.6,8-8S484.4,71.9,480,71.9z M417.7,171.5c1.6,2.1,4,3.2,6.4,3.2c1.7,0,3.3-0.5,4.8-1.6c3.5-2.6,4.3-7.6,1.6-11.2
	c-18.5-24.9-45.8-41.1-76.7-45.7l-14-2.1c-4.4-0.6-8.4,2.4-9.1,6.8c-0.6,4.4,2.4,8.4,6.8,9.1l14,2.1
	C378.2,136,401.7,150,417.7,171.5z"></path>
</svg>