<svg version="1.1" id="Layer_1" xmlns="http://www.w3.org/2000/svg" xmlns:xlink="http://www.w3.org/1999/xlink" x="0px" y="0px" viewBox="0 0 512 512" enable-background="new 0 0 512 512" xml:space="preserve">
<g>
	<path fill="#DB81DA" class="secondary-color" d="M488.5,14.8v46.3H466V14.8H488.5z"></path>
	<path fill="#FFA4ED" class="primary-color" d="M443.1,14.8v46.3h-21.6V14.8H443.1z"></path>
</g>
<path d="M496.2,484.2c0,4.4-3.6,8-8,8h-86.8c-4.4,0-8-3.6-8-8s3.6-8,8-8h86.8C492.6,476.2,496.2,479.8,496.2,484.2z M452.8,456.1
	c0-4.4-3.6-8-8-8h-75.1c-4.4,0-8,3.6-8,8s3.6,8,8,8h75.1C449.2,464.1,452.8,460.5,452.8,456.1z M104.7,35H88.9V19.3c0-4.4-3.6-8-8-8
	s-8,3.6-8,8V35H57.1c-4.4,0-8,3.6-8,8s3.6,8,8,8h15.8v15.8c0,4.4,3.6,8,8,8s8-3.6,8-8V51h15.8c4.4,0,8-3.6,8-8S109.1,35,104.7,35z
	 M52.8,471.8H49v-3.9c0-4.4-3.6-8-8-8s-8,3.6-8,8v3.9h-3.9c-4.4,0-8,3.6-8,8s3.6,8,8,8H33v3.9c0,4.4,3.6,8,8,8s8-3.6,8-8v-3.9h3.9
	c4.4,0,8-3.6,8-8S57.3,471.8,52.8,471.8z"></path>
<g>
	<linearGradient id="SVGID_1_" gradientUnits="userSpaceOnUse" x1="306.6059" y1="408.0445" x2="306.6059" y2="67.9915" class="gradient-element">
		<stop offset="0" class="primary-color-gradient" style="stop-color: #FFA4ED"></stop>
		<stop offset="1" class="secondary-color-gradient" style="stop-color: #DB81DA"></stop>
	</linearGradient>
	<path fill="url(#SVGID_1_)" d="M235,420.4h248.3V144.6l-56.1-56.1c-5.4-5.4-14.6-1.6-14.6,6v177.6c0,36.2-29.3,65.5-65.5,65.5
		H199.2c4.8,0.3-14.3,33-23.2,36.3c-7.3,2.7-20.1-24.8-25.8-20c-12.5,10.5-20.3,25.9-20.3,45H234L235,420.4z M389.1,208.4"></path>
	<linearGradient id="SVGID_2_" gradientUnits="userSpaceOnUse" x1="199.2405" y1="312.6822" x2="389.0515" y2="312.6822">
		<stop offset="0" class="primary-color-gradient" style="stop-color: #FFA4ED"></stop>
		<stop offset="1" class="secondary-color-gradient" style="stop-color: #DB81DA"></stop>
	</linearGradient>
	<path fill="url(#SVGID_2_)" d="M354,255h35.1v57.7v57.7h-93.9h-95.9v-20.9c0-15.9,12.9-16.8,28.8-16.8h68.2
		c28.6,0,28.8-2.3,28.8-48.8v0C325.1,267.9,338,255,354,255z"></path>
</g>
<path d="M333.9,161.2v-39.1h-15.6c-4.4,0-8-3.6-8-8s3.6-8,8-8h23.6c4.4,0,8,3.6,8,8v47.1c0,4.4-3.6,8-8,8S333.9,165.7,333.9,161.2z
	 M491.3,144.6v275.8c0,4.4-3.6,8-8,8H241.5v13c0,4.4-3.6,8-8,8H22.3c-4.4,0-8-3.6-8-8v-42.2c0-4.4,3.6-8,8-8c0.8,0,1.6,0.1,2.4,0.4
	c0.7-0.2,1.5-0.4,2.4-0.4h94.9v-48.5l-36.8,36.8c-1.5,1.5-3.5,2.3-5.7,2.3c-2.1,0-4.2-0.8-5.7-2.3l-30-30c-3.1-3.1-3.1-8.2,0-11.3
	l42.7-42.7l-42.7-42.7c-1.5-1.5-2.3-3.5-2.3-5.7s0.8-4.2,2.3-5.7l30-30c3.1-3.1,8.2-3.1,11.3,0c3.1,3.1,3.1,8.2,0,11.3L60.8,247
	l42.7,42.7c1.5,1.5,2.3,3.5,2.3,5.7s-0.8,4.2-2.3,5.7l-42.7,42.7l18.7,18.7l42.7-42.7c1.5-1.5,3.5-2.3,5.7-2.3
	c2.1,0,4.2,0.8,5.7,2.3l42.7,42.7l16.9-16.9v-3l-41-41.4c-3.1-3.1-3.1-8.2,0-11.3l42.7-42.7l-18.7-18.7L133.5,271
	c-3.1,3.1-8.2,3.1-11.3,0l-34.4-34.4c-3.1-3.1-3.1-8.2,0-11.3c3.1-3.1,8.2-3.1,11.3,0l22.8,22.8V67c0-4.4,3.6-8,8-8h259.1
	c4.4,0,8,3.6,8,8v141.3c0,4.4-3.6,8-8,8H200.6c-4.4,0-8-3.6-8-8V90.6c0-4.4,3.6-8,8-8s8,3.6,8,8v109.8h172.4V75H137.9v169l32.7-32.7
	c3.1-3.1,8.2-3.1,11.3,0l30,30c1.5,1.5,2.3,3.5,2.3,5.7c0,0,0,0,0,0h174.8c4.4,0,8,3.6,8,8v115.4c0,4.4-3.6,8-8,8H201.2
	c-4.4,0-8-3.6-8-8v-2.3l-11.3,11.3c-1.5,1.5-3.5,2.3-5.7,2.3c-2.1,0-4.2-0.8-5.7-2.3l-32.7-32.7v44.4h95.6c4.4,0,8,3.6,8,8v13.3
	h233.8V147.9l-63.9-64.3c-3.1-3.1-3.1-8.2,0-11.3c3.1-3.1,8.2-3.1,11.3,0l66.3,66.6C490.4,140.5,491.3,142.5,491.3,144.6z
	 M381.1,263H209.2v72.9l0.8,0.8c0.7,0.4,1.3,0.8,1.9,1.4c3.1,3.1,3.1,8.2,0,11.3l0,0c-0.1,0.1-0.2,0.2-0.2,0.3
	c-0.1,0.1-0.1,0.1-0.2,0.2l-2.2,2.2v10.3h171.9V263z M193.2,319.7v-48.3l-24,24L193.2,319.7z M225.5,407.1H30.3v26.2h195.2V407.1z"></path>
</svg>