<svg version="1.1" id="Layer_1" xmlns="http://www.w3.org/2000/svg" xmlns:xlink="http://www.w3.org/1999/xlink" x="0px" y="0px" viewBox="0 0 512 512" enable-background="new 0 0 512 512" xml:space="preserve">
<g>
	<path fill="#DB81DA" class="secondary-color" d="M103.5,437.8v46.3H81v-46.3H103.5z"></path>
	<path fill="#FFA4ED" class="primary-color" d="M58.1,437.8v46.3H36.5v-46.3H58.1z"></path>
</g>
<path d="M496.2,484.2c0,4.4-3.6,8-8,8h-86.8c-4.4,0-8-3.6-8-8s3.6-8,8-8h86.8C492.6,476.2,496.2,479.8,496.2,484.2z M452.8,456.1
	c0-4.4-3.6-8-8-8h-75.1c-4.4,0-8,3.6-8,8s3.6,8,8,8h75.1C449.2,464.1,452.8,460.5,452.8,456.1z M420.1,88h15.8v15.8c0,4.4,3.6,8,8,8
	s8-3.6,8-8V88h15.8c4.4,0,8-3.6,8-8s-3.6-8-8-8h-15.8V56.3c0-4.4-3.6-8-8-8s-8,3.6-8,8V72h-15.8c-4.4,0-8,3.6-8,8S415.7,88,420.1,88
	z M87.8,95.8H84v-3.9c0-4.4-3.6-8-8-8s-8,3.6-8,8v3.9h-3.9c-4.4,0-8,3.6-8,8s3.6,8,8,8H68v3.9c0,4.4,3.6,8,8,8s8-3.6,8-8v-3.9h3.9
	c4.4,0,8-3.6,8-8S92.3,95.8,87.8,95.8z"></path>
<g>
	<linearGradient id="SVGID_1_" gradientUnits="userSpaceOnUse" x1="274.6059" y1="409.0445" x2="274.6059" y2="68.9915" class="gradient-element">
		<stop offset="0" class="primary-color-gradient" style="stop-color: #FFA4ED"></stop>
		<stop offset="1" class="secondary-color-gradient" style="stop-color: #DB81DA"></stop>
	</linearGradient>
	<path fill="url(#SVGID_1_)" d="M97.9,421.4h353.3V145.6l-56.1-56.1c-5.4-5.4-14.6-1.6-14.6,6v177.6c0,36.2-29.3,65.5-65.5,65.5
		H167.2c-38.3,0-69.3,31-69.3,69.3V421.4z M357.1,209.4"></path>
	<linearGradient id="SVGID_2_" gradientUnits="userSpaceOnUse" x1="167.2405" y1="313.6822" x2="357.0515" y2="313.6822">
		<stop offset="0" class="primary-color-gradient" style="stop-color: #FFA4ED"></stop>
		<stop offset="1" class="secondary-color-gradient" style="stop-color: #DB81DA"></stop>
	</linearGradient>
	<path fill="url(#SVGID_2_)" d="M322,256h35.1v57.7v57.7h-93.9h-95.9v-20.9c0-15.9,12.9-16.8,28.8-16.8h68.2
		c28.6,0,28.8-2.3,28.8-48.8v0C293.1,268.9,306,256,322,256z"></path>
</g>
<path d="M459.3,145.6v275.8c0,4.4-3.6,8-8,8H97.9c-4.4,0-8-3.6-8-8V68c0-4.4,3.6-8,8-8h259.1c4.4,0,8,3.6,8,8v141.3c0,4.4-3.6,8-8,8
	H168.6c-4.4,0-8-3.6-8-8V91.6c0-4.4,3.6-8,8-8s8,3.6,8,8v109.8h172.4V76H105.9v337.3h337.3V148.9L375,80.6c-3.1-3.1-3.1-8.2,0-11.3
	c3.1-3.1,8.2-3.1,11.3,0l70.7,70.7C458.4,141.4,459.3,143.5,459.3,145.6z M309.9,170.2c4.4,0,8-3.6,8-8v-47.1c0-4.4-3.6-8-8-8h-23.6
	c-4.4,0-8,3.6-8,8s3.6,8,8,8h15.6v39.1C301.9,166.7,305.5,170.2,309.9,170.2z M365.1,256v115.4c0,4.4-3.6,8-8,8H169.2
	c-4.4,0-8-3.6-8-8V256c0-4.4,3.6-8,8-8h187.9C361.5,248,365.1,251.6,365.1,256z M349.1,264H177.2v99.4h171.9V264z"></path>
</svg>