<svg version="1.1" id="Layer_1" xmlns="http://www.w3.org/2000/svg" xmlns:xlink="http://www.w3.org/1999/xlink" x="0px" y="0px" viewBox="0 0 512 512" enable-background="new 0 0 512 512" xml:space="preserve">
<linearGradient id="SVGID_1_" gradientUnits="userSpaceOnUse" x1="266.5049" y1="368.7992" x2="274.4282" y2="132.2328" class="gradient-element">
	<stop offset="0" class="primary-color-gradient" style="stop-color: #FFA4ED"></stop>
	<stop offset="1" class="secondary-color-gradient" style="stop-color: #DB81DA"></stop>
</linearGradient>
<path fill="url(#SVGID_1_)" d="M370.4,385.3c-9.7,0-17.6-7.9-17.6-17.6v-35.3c0-9.7-7.9-17.6-17.6-17.6h-35.3
	c-9.7,0-17.6-7.9-17.6-17.6v-11.8c0-9.7-7.9-17.6-17.6-17.6h-58.8c-9.7,0-17.6,7.9-17.6,17.6v82.3c0,9.7-7.9,17.6-17.6,17.6h-11.8
	c-9.7,0-17.6-7.9-17.6-17.6V144.4c0-9.7,7.9-17.6,17.6-17.6h211.5c16.2,0,29.4,13.2,29.4,29.4v199.8
	C399.7,372.1,386.6,385.3,370.4,385.3L370.4,385.3z"></path>
<path fill="#FFA4ED" class="primary-color" d="M57,451.6H22.3v-34.7H57V451.6z"></path>
<path d="M376.2,463.8h-23.5c-4.4,0-8-3.6-8-8v-15.5H196.2v15.5c0,4.4-3.6,8-8,8h-23.5c-4.4,0-8-3.6-8-8v-15.5H153
	c-20.9,0-40.2-9.7-53.1-26.7c-2.7-3.5-2-8.5,1.5-11.2c3.5-2.7,8.5-2,11.2,1.5c9.8,12.9,24.5,20.3,40.3,20.3h11.8c4.4,0,8,3.6,8,8
	v15.5h7.5v-15.5c0-4.4,3.6-8,8-8h164.5c4.4,0,8,3.6,8,8v15.5h7.5v-15.5c0-4.4,3.6-8,8-8H388c28,0,50.8-22.8,50.8-50.8v-52.6
	c0-4.4,3.6-8,8-8s8,3.6,8,8v52.6c0,36.8-29.9,66.8-66.8,66.8h-3.8v15.5C384.2,460.2,380.7,463.8,376.2,463.8z M388,393.3H70.7
	c-4.4,0-8-3.6-8-8v-86H47.2c-4.4,0-8-3.6-8-8v-70.5c0-4.4,3.6-8,8-8h15.5v-86c0-4.4,3.6-8,8-8h282c4.4,0,8,3.6,8,8s-3.6,8-8,8h-274
	v86c0,4.4-3.6,8-8,8H55.2v54.5h15.5c4.4,0,8,3.6,8,8v86H388c2.1,0,3.8-1.7,3.8-3.8v-235c0-2.1-1.7-3.8-3.8-3.8h-11.8
	c-4.4,0-8-3.6-8-8s3.6-8,8-8H388c10.9,0,19.8,8.9,19.8,19.8v235C407.7,384.4,398.9,393.3,388,393.3z M94.2,346.3c-4.4,0-8-3.6-8-8
	v-86h-7.5v15.5c0,4.4-3.6,8-8,8s-8-3.6-8-8v-23.5c0-4.4,3.6-8,8-8h15.5v-86c0-4.4,3.6-8,8-8s8,3.6,8,8v188
	C102.2,342.7,98.6,346.3,94.2,346.3z M446.7,290.4c-4.4,0-8-3.6-8-8V138.5c0-28-22.8-50.8-50.8-50.8H153c-15.8,0-30.5,7.4-40.3,20.3
	c-2.7,3.5-7.7,4.2-11.2,1.5c-3.5-2.7-4.2-7.7-1.5-11.2c12.8-17,32.2-26.7,53.1-26.7h235c36.8,0,66.8,29.9,66.8,66.8v143.9
	C454.7,286.8,451.2,290.4,446.7,290.4z"></path>
<path d="M473.1,488.3c0,4.4-3.6,8-8,8h-417c-4.4,0-8-3.6-8-8s3.6-8,8-8h417C469.5,480.3,473.1,483.9,473.1,488.3z M48,84.6
	c0,4.4,3.6,8,8,8s8-3.6,8-8V68.8h15.8c4.4,0,8-3.6,8-8s-3.6-8-8-8H64V37c0-4.4-3.6-8-8-8s-8,3.6-8,8v15.8H32.2c-4.4,0-8,3.6-8,8
	s3.6,8,8,8H48V84.6z M453.2,64.2h3.9v3.9c0,4.4,3.6,8,8,8s8-3.6,8-8v-3.9h3.9c4.4,0,8-3.6,8-8s-3.6-8-8-8h-3.9v-3.9c0-4.4-3.6-8-8-8
	s-8,3.6-8,8v3.9h-3.9c-4.4,0-8,3.6-8,8S448.8,64.2,453.2,64.2z M495.6,274.4h-71.6c-4.4,0-8,3.6-8,8s3.6,8,8,8h71.6c4.4,0,8-3.6,8-8
	S500,274.4,495.6,274.4z M332.6,239.1h77.2c4.4,0,8-3.6,8-8s-3.6-8-8-8h-77.2c-4.4,0-8,3.6-8,8S328.1,239.1,332.6,239.1z"></path>
</svg>