<svg version="1.1" id="Layer_1" xmlns="http://www.w3.org/2000/svg" xmlns:xlink="http://www.w3.org/1999/xlink" x="0px" y="0px" viewBox="0 0 512 512" enable-background="new 0 0 512 512" xml:space="preserve">
<linearGradient id="SVGID_1_" gradientUnits="userSpaceOnUse" x1="327.4913" y1="435.5276" x2="327.4913" y2="109.745" class="gradient-element">
	<stop offset="0" class="primary-color-gradient" style="stop-color: #FFA4ED"></stop>
	<stop offset="1" class="secondary-color-gradient" style="stop-color: #DB81DA"></stop>
</linearGradient>
<path fill="url(#SVGID_1_)" d="M370.7,158.7c-4.7-4.7-4.7-12.4,0-17.1l29.2-29.2l14.3,14.3l-37.7,37.8L370.7,158.7z M449.6,360.2
	l-28.9-28.9c2,2,3,4.6,3,7.2s-1,5.2-3,7.1l-60.7,60.7c-3.9,3.9-10.3,3.9-14.3,0l28.9,28.9c4,3.9,10.4,3.9,14.3,0l60.7-60.7
	c2-2,3-4.6,3-7.2C452.5,364.8,451.5,362.2,449.6,360.2z M351.4,219.1c20,11.2,44.1,16.8,72,16.8h24.4L418.9,207h-24.4
	c-25.8,0-48.3-4.8-67.4-14.3c-2.2-1.1-4.7,0.3-4.9,2.7c-0.8,7.5-3.2,14.4-7.4,21c-0.7,1.1-1.1,2.3-1.2,3.6l-103,103
	c-10.9,10.9-10.9,28.4,0,39.3l9.3,9.3l123.1-123.1l-0.8-0.8C348.4,238.8,351.4,229.6,351.4,219.1z"></path>
<path d="M381.7,446.2c-4.8,0-9.4-1.9-12.8-5.3L265.5,337.5l-11.1,11.1c-0.4,0.4-0.9,0.8-1.4,1.1l-27.5,27.5
	c-1.5,1.5-3.5,2.3-5.7,2.3s-4.2-0.8-5.7-2.3l-64.9-64.9c-3.1-3.1-3.1-8.2,0-11.3l106.2-106.2c3.1-3.1,8.2-3.1,11.3,0
	c3.1,3.1,3.1,8.2,0,11.3L166.3,306.7l53.6,53.6l39.9-39.9c0.4-0.4,0.9-0.8,1.4-1.1l68.2-68.2l-16.3-16.3c-3.1-3.1-3.1-8.2,0-11.3
	c3.1-3.1,8.2-3.1,11.3,0l14.5,14.5c3.1-5.9,4.5-12,4.5-18.8c0-2.8,1.5-5.5,3.9-6.9c2.4-1.4,5.5-1.5,7.9-0.1
	c18.8,10.5,41.7,15.8,68.1,15.8h5.1l-57.8-57.8c-3.1-3.1-3.1-8.2,0-11.3l32.1-32.1l-8.6-8.6c-3.1-3.1-3.1-8.2,0-11.3
	c3.1-3.1,8.2-3.1,11.3,0l14.3,14.3c3.1,3.1,3.1,8.2,0,11.3l-32.1,32.1l65.8,65.8c2.3,2.3,3,5.7,1.7,8.7c-1.2,3-4.2,4.9-7.4,4.9
	h-24.4c-24.5,0-46.4-4.2-65.3-12.5c-1.4,6.4-3.9,12.5-7.7,18.4l104.8,104.8c3.4,3.4,5.3,8,5.3,12.8s-1.9,9.4-5.3,12.8l-60.7,60.7
	C391.1,444.3,386.6,446.2,381.7,446.2z M276.9,326.2l103.4,103.4c0.5,0.5,1.1,0.6,1.5,0.6s1-0.1,1.5-0.6l60.7-60.7
	c0.5-0.5,0.6-1.1,0.6-1.5s-0.1-1-0.6-1.5L340.5,262.5L276.9,326.2z M186.2,254.9c-2,0-4.1-0.8-5.7-2.3l-30.8-30.8
	c-3.1-3.1-3.1-8.2,0-11.3c3.1-3.1,8.2-3.1,11.3,0l30.8,30.8c3.1,3.1,3.1,8.2,0,11.3C190.3,254.1,188.3,254.9,186.2,254.9z
	 M275.9,194.6c-2.1,0-4.1-0.8-5.7-2.3L160.7,82.7c-0.8-0.8-2.2-0.8-3,0L97,143.4c-0.8,0.8-0.8,2.2,0,3l34,34c3.1,3.1,3.1,8.2,0,11.3
	c-3.1,3.1-8.2,3.1-11.3,0l-34-34c-7.1-7.1-7.1-18.6,0-25.6l60.7-60.7c7.1-7.1,18.6-7.1,25.6,0l104.8,104.8c5.9-3.7,12-6.3,18.4-7.7
	c-8.3-18.9-12.5-40.8-12.5-65.3V78.8c0-3.2,1.9-6.2,4.9-7.4c3-1.2,6.4-0.6,8.7,1.7l65.6,65.6c3.1,3.1,3.1,8.2,0,11.3
	c-3.1,3.1-8.2,3.1-11.3,0l-51.9-51.9v5.1c0,26.4,5.3,49.3,15.8,68.1c1.4,2.5,1.3,5.5-0.1,7.9c-1.4,2.4-4.1,3.9-6.9,3.9
	c-9.8,0-18.2,3.1-26.6,9.7C279.4,194,277.7,194.6,275.9,194.6z"></path>
<path d="M32.7,56c0-4.4,3.6-8,8-8h15.8V32.2c0-4.4,3.6-8,8-8s8,3.6,8,8V48h15.8c4.4,0,8,3.6,8,8s-3.6,8-8,8H72.5v15.8
	c0,4.4-3.6,8-8,8s-8-3.6-8-8V64H40.7C36.3,64,32.7,60.4,32.7,56z M43.3,140.6c-4.2-4.2-11-4.2-15.2,0c-4.2,4.2-4.2,11,0,15.2
	s11,4.2,15.2,0C47.5,151.6,47.5,144.8,43.3,140.6z M72.5,337.5h-3.9v-3.9c0-4.4-3.6-8-8-8s-8,3.6-8,8v3.9h-3.9c-4.4,0-8,3.6-8,8
	s3.6,8,8,8h3.9v3.9c0,4.4,3.6,8,8,8s8-3.6,8-8v-3.9h3.9c4.4,0,8-3.6,8-8S76.9,337.5,72.5,337.5z M444.3,68.8h3.9v3.9
	c0,4.4,3.6,8,8,8s8-3.6,8-8v-3.9h3.9c4.4,0,8-3.6,8-8s-3.6-8-8-8h-3.9v-3.9c0-4.4-3.6-8-8-8s-8,3.6-8,8v3.9h-3.9c-4.4,0-8,3.6-8,8
	S439.9,68.8,444.3,68.8z M252.1,447.3c-4.2,4.2-4.2,11,0,15.2c4.2,4.2,11,4.2,15.2,0s4.2-11,0-15.2S256.3,443.1,252.1,447.3z
	 M159.8,418.4c-4.1,4.1-10.6,4-14.7,0c-2-2-3-4.6-3-7.3s1.1-5.4,3-7.3c3.1-3.1,3.1-8.2,0-11.3c-3.1-3.1-8.2-3.1-11.3,0
	c-5,5-7.7,11.6-7.7,18.7s2.7,13.7,7.7,18.7c5.1,5.1,11.9,7.7,18.7,7.7c6.8,0,13.5-2.6,18.7-7.7c3.1-3.1,3.1-8.2,0-11.3
	S162.9,415.3,159.8,418.4z M498.9,258.7h-43c-4.4,0-8,3.6-8,8s3.6,8,8,8h43c4.4,0,8-3.6,8-8S503.3,258.7,498.9,258.7z M482.4,288.7
	h-73.8c-4.4,0-8,3.6-8,8s3.6,8,8,8h73.8c4.4,0,8-3.6,8-8S486.8,288.7,482.4,288.7z M115.7,194h43c4.4,0,8-3.6,8-8s-3.6-8-8-8h-43
	c-4.4,0-8,3.6-8,8S111.3,194,115.7,194z M152.3,208H78.5c-4.4,0-8,3.6-8,8s3.6,8,8,8h73.8c4.4,0,8-3.6,8-8S156.7,208,152.3,208z"></path>
<g>
	<path fill="#DB81DA" class="secondary-color" d="M499.1,416.4v81.8h-81.8L499.1,416.4z M87,457v35.2h55.9V457H87z"></path>
	<path fill="#FFA4ED" class="primary-color" d="M72.6,457v35.2H18.9V457H72.6z"></path>
</g>
</svg>