<svg version="1.1" id="Layer_1" xmlns="http://www.w3.org/2000/svg" xmlns:xlink="http://www.w3.org/1999/xlink" x="0px" y="0px" viewBox="0 0 512 512" enable-background="new 0 0 512 512" xml:space="preserve">
<path d="M240.2,400.8h-43c-4.4,0-8-3.6-8-8s3.6-8,8-8h43c4.4,0,8,3.6,8,8S244.6,400.8,240.2,400.8z M226.7,422.8c0-4.4-3.6-8-8-8
	h-73.8c-4.4,0-8,3.6-8,8s3.6,8,8,8h73.8C223.1,430.8,226.7,427.2,226.7,422.8z M90.2,464.7c0-4.4-3.6-8-8-8H34.6c-4.4,0-8,3.6-8,8
	s3.6,8,8,8h47.6C86.6,472.7,90.2,469.1,90.2,464.7z M66.4,488.5v-47.6c0-4.4-3.6-8-8-8s-8,3.6-8,8v47.6c0,4.4,3.6,8,8,8
	S66.4,492.9,66.4,488.5z M447.2,33.8c0-4.4-3.6-8-8-8s-8,3.6-8,8c0,11.4-9.3,20.8-20.8,20.8c-4.4,0-8,3.6-8,8s3.6,8,8,8
	C430.7,70.5,447.2,54,447.2,33.8z M497.2,62.5c0-4.4-3.6-8-8-8c-11.4,0-20.8-9.3-20.8-20.8c0-4.4-3.6-8-8-8s-8,3.6-8,8
	c0,20.3,16.5,36.8,36.8,36.8C493.6,70.5,497.2,66.9,497.2,62.5z M468.5,112.5c0-11.4,9.3-20.8,20.8-20.8c4.4,0,8-3.6,8-8s-3.6-8-8-8
	c-20.3,0-36.8,16.5-36.8,36.8c0,4.4,3.6,8,8,8S468.5,116.9,468.5,112.5z M447.2,112.5c0-20.3-16.5-36.8-36.8-36.8c-4.4,0-8,3.6-8,8
	s3.6,8,8,8c11.4,0,20.8,9.3,20.8,20.8c0,4.4,3.6,8,8,8S447.2,116.9,447.2,112.5z M480.6,496.1c3.1-3.1,3.1-8.2,0-11.3l-33.6-33.6
	c-3.1-3.1-8.2-3.1-11.3,0c-3.1,3.1-3.1,8.2,0,11.3l33.6,33.6c1.6,1.6,3.6,2.3,5.7,2.3S479,497.6,480.6,496.1z M446.9,496.1
	l33.6-33.6c3.1-3.1,3.1-8.2,0-11.3c-3.1-3.1-8.2-3.1-11.3,0l-33.6,33.6c-3.1,3.1-3.1,8.2,0,11.3c1.6,1.6,3.6,2.3,5.7,2.3
	S445.4,497.6,446.9,496.1z M69.6,43.8c0-14.6-11.8-26.4-26.4-26.4S16.8,29.2,16.8,43.8s11.8,26.4,26.4,26.4S69.6,58.3,69.6,43.8z
	 M53.6,43.8c0,5.7-4.7,10.4-10.4,10.4s-10.4-4.7-10.4-10.4s4.7-10.4,10.4-10.4S53.6,38,53.6,43.8z M506.1,245.2c0-4.4-3.6-8-8-8h-43
	c-4.4,0-8,3.6-8,8s3.6,8,8,8h43C502.5,253.2,506.1,249.6,506.1,245.2z M484.6,215.2c0-4.4-3.6-8-8-8h-73.8c-4.4,0-8,3.6-8,8
	s3.6,8,8,8h73.8C481,223.2,484.6,219.6,484.6,215.2z"></path>
<g>
	<linearGradient id="SVGID_1_" gradientUnits="userSpaceOnUse" x1="125.2397" y1="231.0758" x2="385" y2="231.0758" class="gradient-element">
		<stop offset="0" class="primary-color-gradient" style="stop-color: #FFA4ED"></stop>
		<stop offset="1" class="secondary-color-gradient" style="stop-color: #DB81DA"></stop>
	</linearGradient>
	<path fill="url(#SVGID_1_)" d="M249.2,317.2h-48c-7.3,13-25,40-46,40c-22,0-30-17.9-30-30v-22.8c0-30.6,24.8-55.5,55.5-55.5H259
		c18.7,0,33.9-15.2,33.9-33.9v-77.9c0-24.1,25.8-39.7,47-28.2c1.1,0.6,1.6,1,1.6,1c24,20.5,35.8,47.5,35.8,47.5
		c2.2,6.2,3.9,12.9,5.1,20c1.7,9.3,2.5,19.3,2.5,30c0,25.7-5,47.9-14.4,65.5H249.2V317.2z"></path>
	<linearGradient id="SVGID_2_" gradientUnits="userSpaceOnUse" x1="371.4743" y1="449.3226" x2="371.4743" y2="280.8546">
		<stop offset="0" class="primary-color-gradient" style="stop-color: #FFA4ED"></stop>
		<stop offset="1" class="secondary-color-gradient" style="stop-color: #DB81DA"></stop>
	</linearGradient>
	<path fill="url(#SVGID_2_)" d="M490,300.5v38.4v84.9c0,19.6-15.9,20.1-35.5,20.1H255.6c-6.6,0.6,1.7-8.4,0-21.9
		c0-14,5.4-21,19.4-21l92.5-0.2c-4.7-10.3-1.9-24.2,7.6-32.2c1.2-1,2.3-2,3.4-3.1c10-9.9,15-23,15-36c0-6.5-1.2-13-3.6-19.1
		c6.2,2.5,11.9,6.3,16.9,11.3c9.9,10,14.9,23.1,14.8,36.1c0,3.3-0.3,6.6-1,9.9c-1.9,9.6-6.6,18.7-14,26.1c-2.7,2.7-5.6,5-8.6,6.9
		l31.1-0.1c14,0,25.3-11.3,25.3-25.3v-72.6c0-12.5-0.8-25.1,11.7-25.4c6.7-0.2,15.1-4.8,19.5-0.5C489.7,280.9,490,294,490,300.5z"></path>
</g>
<path d="M133.2,147.3v20c0,1.1,0.9,2,2,2c4.4,0,8,3.6,8,8s-3.6,8-8,8c-9.9,0-18-8.1-18-18v-20c0-9.9,8.1-18,18-18s18,8.1,18,18
	c0,4.4-3.6,8-8,8s-8-3.6-8-8c0-1.1-0.9-2-2-2S133.2,146.3,133.2,147.3z M277.1,137.3v12h-71.9c-4.4,0-8,3.6-8,8s3.6,8,8,8h79.9
	c4.4,0,8-3.6,8-8v-20c0-4.4-3.6-8-8-8S277.1,132.9,277.1,137.3z M501.2,272.8v168c0,4.4-3.6,8-8,8h-244c-4.4,0-8-3.6-8-8V325.2
	h-35.4c-9.9,16.5-28,40-50.6,40c-24.7,0-38-19.6-38-38v-17.5c-14.4-6.7-35.1-20.5-45.6-46.4c-17-3.7-31-11.7-40.8-23.2
	c-7.9-9.3-13-21.2-13.6-31.8c0-0.1,0-0.3,0-0.4v-40.5c0-24.7,19.6-38,38-38h31.4c5.3-6,11.1-11.5,17.4-16.2L80.4,77.4
	c-3.8-5.5-4.1-12.7-0.9-18.5c3.1-5.9,9.1-9.5,15.8-9.5h40c37.6,0,50.8,25.5,55.2,40h104.7c23,0,43.5,6.9,59.5,20h20.3
	c1.1,0,1.7-0.2,1.9-0.3c0.1-0.2,0.2-0.7,0.2-1.7c0-0.9-0.1-1.4-0.2-1.6c-0.2-0.1-0.8-0.3-2-0.3c-4.8-0.1-9.2-2-12.6-5.5
	c-3.3-3.4-5.1-7.9-5-12.7c0-9.8,8-17.8,17.9-17.8c4.4,0,8,3.6,8,8s-3.6,8-8,8c-1.1,0-1.9,0.8-1.9,1.9c0,0,0,0.1,0,0.1
	c0,0.6,0.3,1.1,0.6,1.3c0.2,0.2,0.7,0.6,1.4,0.6c10.9,0.2,17.9,7.3,17.9,18c0,10.7-7,17.8-17.8,18c-0.1,0-0.1,0-0.2,0h-23.4
	c-2,0-3.8-0.7-5.3-2c-13.5-11.9-30.7-18-51.3-18H184.2c-3.8,0-7.1-2.7-7.9-6.5c-1.9-10.1-9.8-33.5-41.1-33.5h-40
	c-0.7,0-1.4,0.4-1.7,1c0,0.1-0.1,0.2-0.1,0.3c-0.3,0.5-0.3,1.2,0.1,1.7c0,0.1,0.1,0.1,0.1,0.2l28.1,42.3c1.2,1.8,1.6,4,1.2,6
	s-1.7,3.9-3.5,5.1c-8.6,5.6-16.3,12.5-22.9,20.5c-1.5,1.9-3.8,2.9-6.2,2.9H55.3c-7.6,0-22,4.6-22,22v40.2
	c0.8,11.7,11.2,35,45.6,40.8c2.9,0.5,5.3,2.5,6.2,5.3c9,26.1,30.8,38.4,43.1,43.3c3,1.2,5,4.2,5,7.4v22.8c0,7.6,4.6,22,22,22
	c11.8,0,26.4-13.4,39-35.9c1.4-2.5,4.1-4.1,7-4.1h40v-36.4c0-4.4,3.6-8,8-8h116.7c8.1-14.8,11.1-30.4,11.1-57.5
	c0-10.3-0.8-19.9-2.4-28.5c0,0,0-0.1,0-0.1c-1.1-6.7-2.7-12.9-4.7-18.6c-1.5-4.2,0.7-8.7,4.9-10.2c4.2-1.5,8.7,0.7,10.2,4.9
	c2.3,6.6,4.2,13.7,5.4,21.3c1.7,9.5,2.6,20.1,2.6,31.4c0,22.1-1.7,40.2-9.3,57.5h109.5C497.6,264.8,501.2,268.4,501.2,272.8z
	 M485.2,280.8h-228v152h228V280.8z M284.3,400.7v-87.7c0-4.4,3.6-8,8-8h59.5c6.1-2.2,12.6-3.4,19.4-3.4s13.4,1.2,19.4,3.4h59.5
	c4.4,0,8,3.6,8,8v87.7c0,4.4-3.6,8-8,8h-54c-7.5,3.7-16,5.8-24.9,5.8s-17.4-2.1-24.9-5.8h-54C287.8,408.7,284.3,405.1,284.3,400.7z
	 M442.1,320.9h-28.4c8.6,9.9,13.9,22.9,13.9,37.1c0,13.1-4.5,25.1-11.9,34.7h26.4V320.9z M371.2,317.5c-22.3,0-40.5,18.2-40.5,40.5
	s18.2,40.5,40.5,40.5s40.5-18.2,40.5-40.5S393.5,317.5,371.2,317.5z M300.3,392.7h26.4c-7.5-9.6-11.9-21.6-11.9-34.7
	c0-14.2,5.3-27.1,13.9-37.1h-28.3V392.7z"></path>
</svg>