<svg version="1.1" id="Layer_1" xmlns="http://www.w3.org/2000/svg" xmlns:xlink="http://www.w3.org/1999/xlink" x="0px" y="0px" viewBox="0 0 512 512" enable-background="new 0 0 512 512" xml:space="preserve">
<linearGradient id="SVGID_1_" gradientUnits="userSpaceOnUse" x1="255.3242" y1="432.0468" x2="255.3242" y2="164.5678" class="gradient-element">
	<stop offset="0" class="primary-color-gradient" style="stop-color: #FFA4ED"></stop>
	<stop offset="1" class="secondary-color-gradient" style="stop-color: #DB81DA"></stop>
</linearGradient>
<path fill="url(#SVGID_1_)" d="M211.9,439.8H54.4c-8.9,0-16.1-7.2-16.1-16.1v-13.3c0-21.1,17.1-38.2,38.2-38.2h135.4V439.8z
	 M456.2,160H408c-6.7,0-12.1,5.4-12.1,12.1v54.6l-1.1,135.2c-2.3,6.1-8.2,10.4-15.1,10.4h-81.1v66.6l-86.8,1h244.3
	c4.5,0,8.5-1.8,11.4-4.7c2.9-2.9,4.7-7,4.7-11.4V176.1C472.4,167.2,465.1,160,456.2,160z"></path>
<path d="M480.4,161v277.8c0,4.4-3.6,8-8,8H328.7c-4.4,0-8-3.6-8-8s3.6-8,8-8h135.6V169h-53.5v26.7c0,4.4-3.6,8-8,8h-69.5
	c-4.4,0-8-3.6-8-8v-71.2l-70.1-70.1l-70.1,70.1v71.2c0,4.4-3.6,8-8,8h-52.1c-4.4,0-8-3.6-8-8V169H46.3v261.8h244.5v-70.2
	c-0.2-8.4-3.3-35.3-35.4-35.3c-34.4,0-35.4,31.8-35.4,35.4v54.3c0,4.4-3.6,8-8,8s-8-3.6-8-8v-54.3c0-5.6,1-19.9,10.4-32.5
	c6.4-8.6,18.7-18.9,41-18.9c37.1,0,50.9,27.5,51.4,51.1c0,0.1,0,0.1,0,0.2v78.3c0,4.4-3.6,8-8,8H38.3c-4.4,0-8-3.6-8-8V161
	c0-4.4,3.6-8,8-8h86.8c4.4,0,8,3.6,8,8v26.7h36.1v-66.5c0-2.1,0.8-4.2,2.3-5.7l78.1-78.1c3.1-3.1,8.2-3.1,11.3,0l78.1,78.1
	c1.5,1.5,2.3,3.5,2.3,5.7v66.5h53.5V161c0-4.4,3.6-8,8-8h69.5C476.8,153,480.4,156.6,480.4,161z M255.3,116.9
	c12.3,0,23.6,6.3,30.1,16.8c2.3,3.8,7.3,4.9,11,2.6c3.8-2.3,4.9-7.3,2.6-11c-9.5-15.2-25.8-24.3-43.7-24.3
	c-28.3,0-51.4,23.1-51.4,51.4s23.1,51.4,51.4,51.4s51.4-23.1,51.4-51.4c0-4.4-3.6-8-8-8s-8,3.6-8,8c0,19.5-15.9,35.4-35.4,35.4
	s-35.4-15.9-35.4-35.4S235.8,116.9,255.3,116.9z M150.5,247.8c0-4.4-3.6-8-8-8H73c-4.4,0-8,3.6-8,8s3.6,8,8,8h61.5v44.1
	c0,4.4,3.6,8,8,8s8-3.6,8-8V247.8z M437.6,307.9c4.4,0,8-3.6,8-8v-52.1c0-4.4-3.6-8-8-8h-69.5c-4.4,0-8,3.6-8,8s3.6,8,8,8h61.5v44.1
	C429.6,304.3,433.2,307.9,437.6,307.9z M142.5,394.7c4.4,0,8-3.6,8-8v-52.1c0-4.4-3.6-8-8-8H73c-4.4,0-8,3.6-8,8s3.6,8,8,8h61.5
	v44.1C134.5,391.1,138,394.7,142.5,394.7z M368.2,342.6h61.5v44.1c0,4.4,3.6,8,8,8s8-3.6,8-8v-52.1c0-4.4-3.6-8-8-8h-69.5
	c-4.4,0-8,3.6-8,8S363.8,342.6,368.2,342.6z"></path>
<path d="M132.3,123.4H45.4c-4.4,0-8-3.6-8-8s3.6-8,8-8h86.8c4.4,0,8,3.6,8,8S136.7,123.4,132.3,123.4z M79.1,87.3c0-4.4-3.6-8-8-8
	H13.8c-4.4,0-8,3.6-8,8s3.6,8,8,8h57.4C75.6,95.3,79.1,91.7,79.1,87.3z M478.7,24.6c-5,0-9,4.1-9,9s4.1,9,9,9s9-4.1,9-9
	S483.6,24.6,478.7,24.6z M478.7,55.1c-4.9,0-9,4-9,9s4,9,9,9s9-4,9-9S483.6,55.1,478.7,55.1z M449,24.6c-5,0-9,4.1-9,9s4.1,9,9,9
	s9-4.1,9-9S454,24.6,449,24.6z"></path>
</svg>