<svg version="1.1" id="Layer_1" xmlns="http://www.w3.org/2000/svg" xmlns:xlink="http://www.w3.org/1999/xlink" x="0px" y="0px" viewBox="0 0 512 512" enable-background="new 0 0 512 512" xml:space="preserve">
<linearGradient id="SVGID_1_" gradientUnits="userSpaceOnUse" x1="297.4157" y1="434.5773" x2="292.8683" y2="166.2825" class="gradient-element">
	<stop offset="0" class="primary-color-gradient" style="stop-color: #FFA4ED"></stop>
	<stop offset="1" class="secondary-color-gradient" style="stop-color: #DB81DA"></stop>
</linearGradient>
<path fill="url(#SVGID_1_)" d="M376.9,364.3v1.5c-0.6,31.2-15.8,59-30,87C325,411.1,237.7,225.5,213.7,175.4c-0.5-1-1-2-1.5-3h97.5
	c0.2,0.1,0.5,0.2,0.5,0.3C337,234.5,377.9,296.6,376.9,364.3z"></path>
<path d="M346.9,460.8c-0.1,0-0.1,0-0.2,0c-3.1-0.1-5.8-1.9-7.1-4.7c0,0-0.2-0.3-0.4-0.7c-0.1-0.2-0.3-0.5-0.4-0.8
	c-0.3-0.8-1.3-3-3.1-6.4c0-0.1-0.1-0.1-0.1-0.2c-2.5-5.1-11.6-24.1-22.8-47.3c-19.8-40.9-37.2-77.1-46.6-96.6
	c-24.5,51.1-73.1,151.1-73.6,152.3c-1.3,2.7-4.1,4.5-7.1,4.5c0,0,0,0-0.1,0c-3,0-5.8-1.7-7.1-4.4l-11.5-22.5
	c-5.2-10.2-11-22.6-14.9-37c-1.2-4.3,1.4-8.7,5.6-9.8c4.3-1.2,8.7,1.4,9.8,5.6c3.5,13,8.9,24.4,13.7,33.9l4.2,8.2
	c16-33,55-113.5,72.1-149.3c-8.2-17.3-45.4-95.1-60.1-125.9c-6.5,7.6-14.7,13.5-24,16.9c-7.2,2.6-14.6,3.9-22.1,3.9
	c-29.4,0-57.8-19.7-70.6-49c-8.6-19.4-9.1-40.9-1.5-59c6.6-15.5,18.6-27.2,34-32.9c7-2.6,14.3-3.9,21.9-3.9
	c28.7,0,56.5,19,70.6,48.4l38.6,80.4h44.3l38.6-80.3c14.2-29.4,41.9-48.4,70.6-48.4c7.5,0,14.9,1.3,21.9,3.9
	c15.3,5.7,27.4,17.4,34,32.9c7.6,18,7.1,39.5-1.5,59c-12.8,29.3-41.2,49-70.6,49c-7.5,0-15-1.3-22.1-3.9c-9.3-3.5-17.5-9.3-24-16.9
	c-3,6.3-6.9,14.5-11.3,23.7c4,8.7,13.3,28.7,20.4,44c4.5,9.7,8.3,17.9,9.7,20.8l0.3,0.5c7.2,14.1,30.7,64.3,30.7,117.2
	c0,1.4-0.2,34.6-19.5,68.3L354,456.4C352.6,459.1,349.9,460.8,346.9,460.8z M274.9,285.4c6.7,14,33.7,69.8,52.2,108.3
	c8.4,17.5,15.7,32.5,19.8,41.1l4.2-8.2c0.1-0.1,0.1-0.2,0.2-0.4c17.3-30.1,17.5-60.2,17.5-60.5c0-49.4-22.2-96.7-29-110
	c-0.2-0.4-0.3-0.7-0.4-0.8c0-0.1,0-0.1-0.1-0.2c-1.3-2.9-5.2-11.1-9.7-20.9c-8.8-18.9-19.8-42.4-22.1-47.6c-1-2.1-0.9-4.6,0.1-6.7
	c10.6-22.2,19-39.7,19-39.7c1.3-2.8,4.1-4.5,7.1-4.5c3.1-0.1,5.9,1.7,7.2,4.4c5.2,10.4,13.4,17.8,23.6,21.6c5.4,2,10.8,2.9,16.5,2.9
	c23.1,0,45.6-15.8,56-39.4c6.8-15.5,7.3-32.3,1.4-46.3c-4.8-11.4-13.6-20-24.8-24.1c-5.2-2-10.7-2.9-16.3-2.9
	c-22.6,0-44.7,15.4-56.2,39.4l-40.7,84.9c-1.3,2.8-4.1,4.5-7.2,4.5h-54.4c-3.1,0-5.9-1.8-7.2-4.5L191,91
	c-11.5-23.9-33.6-39.4-56.2-39.4c-5.6,0-11.1,1-16.3,2.9c-11.2,4.1-20,12.7-24.8,24.1c-5.9,14-5.4,30.8,1.4,46.3
	c10.3,23.6,32.8,39.4,56,39.4c5.7,0,11.2-1,16.6-2.9c10.2-3.8,18.3-11.3,23.6-21.6c1.4-2.7,4.1-4.4,7.1-4.4c0,0,0.1,0,0.1,0
	c3.1,0,5.8,1.8,7.1,4.5c2.2,4.5,43.2,90.3,60.4,126.4l25.9-57.9c1.8-4,6.5-5.8,10.6-4c4,1.8,5.8,6.5,4,10.6L274.9,285.4z
	 M164.9,338.4c5.2-36.8,21.7-71.3,39.3-107.8l0.3-0.6c1.3-2.6,2.8-5.8,4.5-9.5c0.8-1.7,1.7-3.5,2.5-5.3c1.9-4,0.2-8.8-3.8-10.7
	c-4-1.9-8.8-0.2-10.7,3.8c-0.9,1.8-1.7,3.6-2.5,5.4c-1.7,3.6-3.2,6.8-4.5,9.3l-0.3,0.7c-18.1,37.7-35.2,73.3-40.7,112.5
	c-0.6,4.4,2.4,8.4,6.8,9c0.4,0.1,0.8,0.1,1.1,0.1C160.9,345.3,164.4,342.4,164.9,338.4z M163.4,156.8c9.6-3.6,17.2-11.2,21.4-21.5
	c5.3-13,4.5-29.1-2.1-42.9c-10.2-21.1-29.5-35.2-47.9-35.2c-4.4,0-8,3.6-8,8s3.6,8,8,8c12.1,0,26.2,11,33.5,26.1
	c4.7,9.9,5.3,21.1,1.7,30c-1.8,4.3-5.3,10-12.2,12.5c-13.3,5-31.9-6.5-39.7-24.5c-1.8-4-6.5-5.9-10.5-4.1c-4,1.8-5.9,6.5-4.1,10.5
	c9.3,21.2,29.4,35.2,48,35.2C155.5,158.9,159.6,158.2,163.4,156.8z M428.8,123.7c1.8-4-0.1-8.8-4.1-10.5c-4-1.8-8.8,0.1-10.5,4.1
	c-7.9,18-26.4,29.4-39.7,24.5c-4.1-1.6-8.7,0.5-10.3,4.7c-1.6,4.1,0.5,8.7,4.7,10.3c3.8,1.4,7.9,2.1,12,2.1
	C399.4,158.9,419.5,144.9,428.8,123.7z"></path>
<g>
	<path fill="#DB81DA" class="secondary-color" d="M23.6,445.8V424h43.6v21.8H23.6z"></path>
	<path fill="#DB81DA" class="secondary-color" d="M26,295v-76l38,38L26,295z M68.2,491.5v-21.8H24.6v21.8H68.2z"></path>
</g>
<path d="M106.2,367.2c-4.4,0-8-3.6-8-8s3.6-8,8-8c11.4,0,20.8-9.3,20.8-20.8c0-4.4,3.6-8,8-8s8,3.6,8,8
	C142.9,350.7,126.4,367.2,106.2,367.2z M192.9,359.2c0-4.4-3.6-8-8-8c-11.4,0-20.7-9.3-20.7-20.8c0-4.4-3.6-8-8-8s-8,3.6-8,8
	c0,20.3,16.5,36.8,36.7,36.8C189.3,367.2,192.9,363.6,192.9,359.2z M164.2,409.2c0-11.4,9.3-20.8,20.7-20.8c4.4,0,8-3.6,8-8
	s-3.6-8-8-8c-20.3,0-36.7,16.5-36.7,36.8c0,4.4,3.6,8,8,8S164.2,413.6,164.2,409.2z M142.9,409.2c0-20.3-16.5-36.8-36.8-36.8
	c-4.4,0-8,3.6-8,8s3.6,8,8,8c11.4,0,20.8,9.3,20.8,20.8c0,4.4,3.6,8,8,8S142.9,413.6,142.9,409.2z M37.9,30c0-5-4.1-9-9-9
	s-9,4.1-9,9s4.1,9,9,9S37.9,35,37.9,30z M67.9,30c0-5-4.1-9-9-9s-9,4.1-9,9s4.1,9,9,9S67.9,35,67.9,30z M97.9,30c0-5-4.1-9-9-9
	s-9,4.1-9,9s4.1,9,9,9S97.9,35,97.9,30z M37.9,58.9c0-5-4.1-9-9-9s-9,4.1-9,9s4.1,9,9,9S37.9,63.9,37.9,58.9z M37.9,88.9
	c0-5-4.1-9-9-9s-9,4.1-9,9s4.1,9,9,9S37.9,93.9,37.9,88.9z M485.5,237.6c0-14.6-11.8-26.4-26.4-26.4s-26.4,11.8-26.4,26.4
	s11.8,26.4,26.4,26.4S485.5,252.2,485.5,237.6z M469.5,237.6c0,5.7-4.7,10.4-10.4,10.4s-10.4-4.7-10.4-10.4s4.7-10.4,10.4-10.4
	S469.5,231.9,469.5,237.6z M476.3,465.9c0-14.6-11.8-26.4-26.4-26.4c-4.4,0-8,3.6-8,8s3.6,8,8,8c5.7,0,10.4,4.7,10.4,10.4
	s-4.7,10.4-10.4,10.4c-4.4,0-8,3.6-8,8s3.6,8,8,8C464.4,492.3,476.3,480.5,476.3,465.9z M80.8,340.2c0-4.4-3.6-8-8-8h-43
	c-4.4,0-8,3.6-8,8s3.6,8,8,8h43C77.2,348.2,80.8,344.6,80.8,340.2z M498.3,360.7c0-4.4-3.6-8-8-8H379.5c-4.4,0-8,3.6-8,8s3.6,8,8,8
	h110.8C494.7,368.7,498.3,365.1,498.3,360.7z M447.3,408.8c0-4.4-3.6-8-8-8h-68.8c-4.4,0-8,3.6-8,8s3.6,8,8,8h68.8
	C443.7,416.8,447.3,413.3,447.3,408.8z"></path>
</svg>