<svg version="1.1" id="Layer_1" xmlns="http://www.w3.org/2000/svg" xmlns:xlink="http://www.w3.org/1999/xlink" x="0px" y="0px" viewBox="0 0 512 512" enable-background="new 0 0 512 512" xml:space="preserve">
<linearGradient id="SVGID_1_" gradientUnits="userSpaceOnUse" x1="263.6379" y1="439.7106" x2="263.6379" y2="131.7873" class="gradient-element">
	<stop offset="0" class="primary-color-gradient" style="stop-color: #FFA4ED"></stop>
	<stop offset="1" class="secondary-color-gradient" style="stop-color: #DB81DA"></stop>
</linearGradient>
<path fill="url(#SVGID_1_)" d="M273.6,290.1c0,0,0,0-13.4,31.2c-13.4,31.2-29.4,47.9-71.3,97.9c-24,28.7-51.2,22.1-70,11.3
	c-13.2-7.6-14.8-25.9-3.3-35.8L241,286.1c8.7-7.5,21.6-7,29.7,1.1L273.6,290.1z M419.4,119.3l-5.3-3.4l-52.2,51.4l21.7,23.6
	L419.4,119.3z"></path>
<path fill="none" stroke="#000000" stroke-width="16" stroke-linecap="round" stroke-linejoin="round" stroke-miterlimit="10" d="
	M156.8,278.6c-19.7,13-40.4,28.9-57.4,45.8c-13.4,13.4-20.2,28.4-20.2,44.6c0,15.8,6.7,29.2,12.4,37.6c1.4,2,2.7,3.8,3.9,5.3
	c2.1,2.8,3.7,4.4,3.8,4.6h0.1c0.5,0.5,11.6,11.6,28.4,17.1c4.2,1.4,8.9,2.5,14.1,3c3.3,0.3,6.8,0.4,10.3,0
	c12.2-1.1,25.9-6.5,39.4-20.1c39.8-39.7,72.9-99,80.2-121l1.8-5.5l-17.2-17.2l105.5-105.5l22.4,22.3l35.1-70.2l-22.6-22.6
	l-70.3,35.1l22.4,22.4L243.2,259.7L226,242.4l-5.5,1.9c-10,3.4-27.6,11.9-47.6,24.1l61.3,61.3"></path>
<g>
	<path fill="#FFA4ED" class="primary-color" d="M19,26.4h34.7V61H19V26.4z M74.2,61h34.7V26.4H74.2V61z M352.5,479.1h56.9v-21.8h-56.9V479.1z M464.5,347
		V404h21.8V347H464.5z"></path>
	<path fill="#DB81DA" class="secondary-color" d="M486.3,422.1v56.9h-1.8h-20h-36.9v-21.8h36.9v-35.1H486.3z M21.1,474.3v12.9h237.1v-12.9H21.1z"></path>
</g>
<path d="M412.7,325.8c0,4.4-3.6,8-8,8H389v15.8c0,4.4-3.6,8-8,8s-8-3.6-8-8v-15.8h-15.8c-4.4,0-8-3.6-8-8s3.6-8,8-8H373V302
	c0-4.4,3.6-8,8-8s8,3.6,8,8v15.8h15.8C409.2,317.8,412.7,321.4,412.7,325.8z M97.3,143.5c-4.4,0-8,3.6-8,8
	c0,11.4-9.3,20.8-20.8,20.8c-4.4,0-8,3.6-8,8s3.6,8,8,8c20.3,0,36.8-16.5,36.8-36.8C105.3,147,101.7,143.5,97.3,143.5z M147.3,172.2
	c-11.4,0-20.8-9.3-20.8-20.8c0-4.4-3.6-8-8-8s-8,3.6-8,8c0,20.3,16.5,36.8,36.8,36.8c4.4,0,8-3.6,8-8S151.7,172.2,147.3,172.2z
	 M147.3,193.5c-20.3,0-36.8,16.5-36.8,36.8c0,4.4,3.6,8,8,8s8-3.6,8-8c0-11.4,9.3-20.8,20.8-20.8c4.4,0,8-3.6,8-8
	S151.7,193.5,147.3,193.5z M68.5,193.5c-4.4,0-8,3.6-8,8s3.6,8,8,8c11.4,0,20.8,9.3,20.8,20.8c0,4.4,3.6,8,8,8s8-3.6,8-8
	C105.3,209.9,88.8,193.5,68.5,193.5z M476.4,182.8h-3.9v-3.9c0-4.4-3.6-8-8-8s-8,3.6-8,8v3.9h-3.9c-4.4,0-8,3.6-8,8s3.6,8,8,8h3.9
	v3.9c0,4.4,3.6,8,8,8s8-3.6,8-8v-3.9h3.9c4.4,0,8-3.6,8-8S480.8,182.8,476.4,182.8z M216.3,72.4h3.9v3.9c0,4.4,3.6,8,8,8s8-3.6,8-8
	v-3.9h3.9c4.4,0,8-3.6,8-8s-3.6-8-8-8h-3.9v-3.9c0-4.4-3.6-8-8-8s-8,3.6-8,8v3.9h-3.9c-4.4,0-8,3.6-8,8S211.9,72.4,216.3,72.4z
	 M273.1,373.4c0-4.4-3.6-8-8-8h-59.2c-4.4,0-8,3.6-8,8s3.6,8,8,8h59.2C269.5,381.4,273.1,377.8,273.1,373.4z M363.1,405.4H235.9
	c-4.4,0-8,3.6-8,8s3.6,8,8,8h127.3c4.4,0,8-3.6,8-8S367.5,405.4,363.1,405.4z M63.5,265.8H43.8c-4.4,0-8,3.6-8,8s3.6,8,8,8h19.7
	c4.4,0,8-3.6,8-8S67.9,265.8,63.5,265.8z"></path>
</svg>