<svg version="1.1" id="Layer_1" xmlns="http://www.w3.org/2000/svg" xmlns:xlink="http://www.w3.org/1999/xlink" x="0px" y="0px" viewBox="0 0 512 512" enable-background="new 0 0 512 512" xml:space="preserve">
<linearGradient id="SVGID_1_" gradientUnits="userSpaceOnUse" x1="347.0168" y1="488.8689" x2="347.0168" y2="64.1252" class="gradient-element">
	<stop offset="0" class="primary-color-gradient" style="stop-color: #FFA4ED"></stop>
	<stop offset="1" class="secondary-color-gradient" style="stop-color: #DB81DA"></stop>
</linearGradient>
<path fill="url(#SVGID_1_)" d="M356.6,337.1c27.1-30.9,43.6-71.3,43.6-115.5c0-96.9-78.8-175.7-175.7-175.7h-1v0
	c0,25.6,16.5,48.4,41,56.2c50.6,16.3,85.3,62.5,85.3,120c0,57.8-35.1,104.3-86.2,120.3c-23.9,7.5-40.1,29.9-40.1,55v0h1
	c31.9,0,61.8-8.7,87.6-23.8l15.7-9c5-3.1,11.4-2.4,15.6,1.7l101.5,98.7c3.3,3.2,8.7,3.2,12-0.1l13.6-13.7L356.6,337.1z"></path>
<path d="M448.7,480.9c-2,0-4-0.8-5.6-2.3L327.5,366.3c-3.2-3.1-3.2-8.1-0.2-11.3c3.1-3.2,8.1-3.2,11.3-0.2l110,106.9l10.6-10.6
	L350.9,342.8c-3-3-3.1-7.8-0.4-10.9c26.9-30.7,41.7-69.8,41.7-110.3c0-92.5-75.2-167.7-167.7-167.7S56.8,129.1,56.8,221.6
	S132,389.3,224.5,389.3c29.2,0,58.1-7.8,83.5-22.7c3.8-2.2,8.7-0.9,10.9,2.9c2.2,3.8,0.9,8.7-2.9,10.9
	c-27.9,16.2-59.6,24.8-91.6,24.8c-101.3,0-183.7-82.4-183.7-183.7S123.2,37.9,224.5,37.9s183.7,82.4,183.7,183.7
	c0,41.8-14.4,82.4-40.8,115.1l108.7,108.7c1.5,1.5,2.3,3.5,2.3,5.7s-0.8,4.2-2.3,5.7l-21.8,21.8
	C452.8,480.1,450.7,480.9,448.7,480.9z M317.1,316.5c25.4-25.2,39.4-58.7,39.4-94.4c0-73.3-59.6-132.9-132.9-132.9
	S90.6,148.8,90.6,222.1c0,4.4,3.6,8,8,8H173c4.4,0,8-3.6,8-8c0-4.4-3.6-8-8-8h-66.1c4.1-60.8,54.9-108.9,116.7-108.9
	c64.5,0,116.9,52.5,116.9,116.9c0,31.4-12.3,60.9-34.6,83.1c-22,21.8-51.3,33.9-82.3,33.9c-4.4,0-8,3.6-8,8s3.6,8,8,8
	C258.8,355,292,341.3,317.1,316.5z M243,264.4c0-4.4-3.6-8-8-8H112.9c-4.4,0-8,3.6-8,8s3.6,8,8,8H235
	C239.4,272.4,243,268.8,243,264.4z M267.6,307.9c0-4.4-3.6-8-8-8H138.5c-4.4,0-8,3.6-8,8s3.6,8,8,8h121.2
	C264.1,315.9,267.6,312.3,267.6,307.9z"></path>
<path d="M437.3,51.3c0,20.3-16.5,36.8-36.8,36.8c-4.4,0-8-3.6-8-8s3.6-8,8-8c11.4,0,20.8-9.3,20.8-20.8c0-4.4,3.6-8,8-8
	S437.3,46.9,437.3,51.3z M479.3,88.1c4.4,0,8-3.6,8-8s-3.6-8-8-8c-11.4,0-20.8-9.3-20.8-20.8c0-4.4-3.6-8-8-8s-8,3.6-8,8
	C442.5,71.6,459,88.1,479.3,88.1z M479.3,93.3c-20.3,0-36.8,16.5-36.8,36.8c0,4.4,3.6,8,8,8s8-3.6,8-8c0-11.4,9.3-20.7,20.8-20.7
	c4.4,0,8-3.6,8-8S483.7,93.3,479.3,93.3z M400.5,93.3c-4.4,0-8,3.6-8,8s3.6,8,8,8c11.4,0,20.8,9.3,20.8,20.8c0,4.4,3.6,8,8,8
	s8-3.6,8-8C437.3,109.8,420.8,93.3,400.5,93.3z M207,477.6h-87.6c-4.4,0-8,3.6-8,8s3.6,8,8,8H207c4.4,0,8-3.6,8-8
	S211.4,477.6,207,477.6z M159.2,453.3c0-4.4-3.6-8-8-8H38.4c-4.4,0-8,3.6-8,8s3.6,8,8,8h112.8C155.7,461.3,159.2,457.7,159.2,453.3z
	 M30.4,404.7c0-5,4.1-9,9-9s9,4.1,9,9s-4.1,9-9,9S30.4,409.7,30.4,404.7z M60.4,404.7c0-5,4.1-9,9-9s9,4.1,9,9s-4.1,9-9,9
	S60.4,409.7,60.4,404.7z M90.4,404.7c0-5,4.1-9,9-9s9,4.1,9,9s-4.1,9-9,9S90.4,409.7,90.4,404.7z"></path>
<g>
	<path fill="#DB81DA" class="secondary-color" d="M477.4,383.9l-57.8-57.8l57.8-57.8V383.9z"></path>
	<path fill="#FFA4ED" class="primary-color" d="M87,33.2V11.4h56.9v21.8H87z M10.1,143.4h21.8V86.5H10.1V143.4z M68.8,11.4H31.9h-20h-1.8v56.9h21.8V33.2
		h36.9V11.4z"></path>
</g>
</svg>