<svg version="1.1" id="Layer_1" xmlns="http://www.w3.org/2000/svg" xmlns:xlink="http://www.w3.org/1999/xlink" x="0px" y="0px" viewBox="0 0 512 512" enable-background="new 0 0 512 512" xml:space="preserve">
<path fill="#FFA4ED" class="primary-color" d="M18,5.6l57.8,57.8L18,121.2V5.6z"></path>
<path d="M221.5,45c0,4.4-3.6,8-8,8h-43c-4.4,0-8-3.6-8-8s3.6-8,8-8h43C217.9,37,221.5,40.6,221.5,45z M475.7,136.5h-15.8v-15.8
	c0-4.4-3.6-8-8-8s-8,3.6-8,8v15.8h-15.8c-4.4,0-8,3.6-8,8s3.6,8,8,8h15.8v15.8c0,4.4,3.6,8,8,8s8-3.6,8-8v-15.8h15.8
	c4.4,0,8-3.6,8-8S480.1,136.5,475.7,136.5z M100,412c0-4.4-3.6-8-8-8H18.2c-4.4,0-8,3.6-8,8s3.6,8,8,8H92
	C96.4,420,100,416.4,100,412z M366.5,415.5c-4.4,0-8,3.6-8,8c0,8.4-6.9,15.3-15.3,15.3c-4.4,0-8,3.6-8,8s3.6,8,8,8
	c17.3,0,31.3-14,31.3-31.3C374.5,419.1,370.9,415.5,366.5,415.5z M407,438.8c-8.4,0-15.3-6.9-15.3-15.3c0-4.4-3.6-8-8-8s-8,3.6-8,8
	c0,17.3,14,31.3,31.3,31.3c4.4,0,8-3.6,8-8S411.4,438.8,407,438.8z M407,456c-17.3,0-31.3,14-31.3,31.3c0,4.4,3.6,8,8,8s8-3.6,8-8
	c0-8.4,6.9-15.3,15.3-15.3c4.4,0,8-3.6,8-8S411.4,456,407,456z M343.2,456c-4.4,0-8,3.6-8,8s3.6,8,8,8c8.4,0,15.3,6.9,15.3,15.3
	c0,4.4,3.6,8,8,8s8-3.6,8-8C374.5,470.1,360.5,456,343.2,456z M436.7,99c0-5.9-4.8-10.8-10.8-10.8S415.2,93,415.2,99
	c0,5.9,4.8,10.8,10.8,10.8S436.7,104.9,436.7,99z M211.3,459H58.8c-4.4,0-8,3.6-8,8s3.6,8,8,8h152.5c4.4,0,8-3.6,8-8
	S215.7,459,211.3,459z"></path>
<g>
	<linearGradient id="SVGID_1_" gradientUnits="userSpaceOnUse" x1="312.3875" y1="283.5445" x2="312.3875" y2="142.5656" class="gradient-element">
		<stop offset="0" class="primary-color-gradient" style="stop-color: #FFA4ED"></stop>
		<stop offset="1" class="secondary-color-gradient" style="stop-color: #DB81DA"></stop>
	</linearGradient>
	<path fill="url(#SVGID_1_)" d="M234.8,158.7c0-13.4,10.9-24.3,24.3-24.3h91.5h9.1h4.9v0.4c14.4,2.3,25.3,14.8,25.3,29.8V288
		l-39.4-23v-82h-91.5C245.7,183,234.8,172.1,234.8,158.7z"></path>
	<linearGradient id="SVGID_2_" gradientUnits="userSpaceOnUse" x1="231.9667" y1="339.0905" x2="491.3912" y2="339.0905">
		<stop offset="0" class="primary-color-gradient" style="stop-color: #FFA4ED"></stop>
		<stop offset="1" class="secondary-color-gradient" style="stop-color: #DB81DA"></stop>
	</linearGradient>
	<path fill="url(#SVGID_2_)" d="M491.4,339.1C491.4,339.1,491.4,339.1,491.4,339.1c0,0.8-0.1,1.5-0.4,2.2c-0.3,0.8-0.7,1.6-1.2,2.2
		c-0.5,0.7-1.2,1.2-2,1.6c-0.1,0.1-0.2,0.1-0.3,0.2l-245.7,116c-0.9,0.4-1.9,0.7-2.9,0.7c-1.6,0-3.1-0.5-4.4-1.6
		c-2-1.7-2.9-4.4-2.2-7l3.7-13.7c3.3-12.4,11.9-22.7,23.5-28.2l152.9-72.2c0.1-0.1,0.2-0.1,0.3-0.2c0.8-0.4,1.5-1,2-1.6
		c0.5-0.6,1-1.4,1.2-2.2c0.2-0.7,0.4-1.5,0.4-2.2v0c0-0.8-0.1-1.5-0.4-2.2c-0.3-0.8-0.7-1.6-1.3-2.2c-0.5-0.6-1.2-1.1-1.9-1.5
		c-0.1-0.1-0.3-0.2-0.4-0.2L255.7,253c-11.6-5.5-20.2-15.8-23.5-28.2l0,0c-0.7-2.6,0.2-5.3,2.2-7c2-1.7,4.9-2.1,7.3-0.9l245.7,116
		c0.1,0.1,0.3,0.1,0.4,0.2h0c0.7,0.4,1.4,0.9,1.9,1.5c0.6,0.7,1,1.4,1.3,2.2C491.3,337.6,491.4,338.3,491.4,339.1z"></path>
</g>
<path d="M197,224.1c0,4.4-3.6,8-8,8h-59.5c-4.4,0-8-3.6-8-8c0-4.4,3.6-8,8-8H189C193.5,216.1,197,219.7,197,224.1z M499.4,335.9
	c0,1.7-0.3,3.3-0.8,4.9c-0.6,1.7-1.5,3.3-2.7,4.7c-1.2,1.4-2.7,2.6-4.4,3.5c-0.3,0.1-0.5,0.2-0.7,0.3l-245.7,116
	c-2,0.9-4.1,1.4-6.3,1.4c-3.5,0-6.8-1.2-9.5-3.4c-4.4-3.7-6.3-9.6-4.8-15.2l17.7-66.4h-167c-15.3,0-27.7-12.4-27.7-27.7V117.9
	c0-15.3,12.4-27.7,27.7-27.7h100.3c20.1,0,34.7,6.6,48.7,22.1c14.2,15.6,17.1,17.3,31,17.3h115.2c15.3,0,27.7,12.4,27.7,27.7V246
	c0,4.4-3.6,8-8,8s-8-3.6-8-8v-88.7c0-6.4-5.2-11.7-11.7-11.7H255.1c-20.6,0-27.4-5.5-42.8-22.5c-11-12.1-21.4-16.9-36.9-16.9H75.2
	c-6.4,0-11.7,5.2-11.7,11.7V354c0,6.4,5.2,11.7,11.7,11.7h171.3l5.3-20c1.7-6.3,7.2-10.7,13.7-11c0.1,0,0.2,0,0.3,0l162.6-0.5
	c0,0,0,0,0,0c4.4,0,8,3.6,8,8c0,4.4-3.6,8-8,8L267,350.7l-26.4,99.1l241.2-113.9L240.6,222l24.1,86.9c1.2,4.3-1.3,8.7-5.6,9.8
	s-8.7-1.3-9.8-5.6l-3.1-11.3c-1.2,0.7-2.6,1.2-4.2,1.2H86.8v-96.5c0-18.2,13.1-37.5,37.5-37.5h196.8c18.2,0,37.5,13.1,37.5,37.5V260
	l132.2,62.4c0.2,0.1,0.5,0.3,0.8,0.4c0.1,0,0.1,0.1,0.2,0.1c1.5,0.8,2.8,1.9,4,3.2c1.3,1.4,2.2,3.1,2.8,4.9
	C499.1,332.6,499.4,334.2,499.4,335.9z M245.1,206.4l97.5,46v-46c0-17-14.1-21.5-21.5-21.5H124.4c-17,0-21.5,14.1-21.5,21.5V287H242
	c0,0,0,0,0,0l-4-14.4c-1.4,1.1-3.1,1.8-5,1.8H129.5c-4.4,0-8-3.6-8-8s3.6-8,8-8H233c0.4,0,0.8,0,1.1,0.1l-9.6-34.7
	c-1.5-5.6,0.4-11.6,4.8-15.3C233.7,204.8,239.9,204,245.1,206.4z"></path>
</svg>