<svg version="1.1" id="Layer_1" xmlns="http://www.w3.org/2000/svg" xmlns:xlink="http://www.w3.org/1999/xlink" x="0px" y="0px" viewBox="0 0 512 512" enable-background="new 0 0 512 512" xml:space="preserve">
<path fill="#DB81DA" class="secondary-color" d="M131.9,27.3v46.3h-22.5V27.3H131.9z M19.6,27.3v46.3h22.5V27.3H19.6z M65,27.3v46.3h21.6V27.3H65z"></path>
<path fill="#FFA4ED" class="primary-color" d="M46,236.9H19.1V90H46V236.9z"></path>
<path d="M499.2,396.7c0,4.4-3.6,8-8,8h-57.4c-4.4,0-8-3.6-8-8s3.6-8,8-8h57.4C495.6,388.7,499.2,392.3,499.2,396.7z M425.6,251h62.1
	c3.8,0,6.9-3.1,6.9-6.9s-3.1-6.9-6.9-6.9h-62.1c-3.8,0-6.9,3.1-6.9,6.9S421.8,251,425.6,251z M466.6,273.1c0-3.8-3.1-6.9-6.9-6.9
	h-68.2c-3.8,0-6.9,3.1-6.9,6.9s3.1,6.9,6.9,6.9h68.2C463.5,280,466.6,276.9,466.6,273.1z M480.2,458h-15.8v-15.8c0-4.4-3.6-8-8-8
	s-8,3.6-8,8V458h-15.8c-4.4,0-8,3.6-8,8s3.6,8,8,8h15.8v15.8c0,4.4,3.6,8,8,8s8-3.6,8-8V474h15.8c4.4,0,8-3.6,8-8
	S484.7,458,480.2,458z M30.5,395.2c-4.4,0-8,3.6-8,8v47.6c0,4.4,3.6,8,8,8s8-3.6,8-8v-47.6C38.5,398.8,34.9,395.2,30.5,395.2z"></path>
<g>
	<linearGradient id="SVGID_1_" gradientUnits="userSpaceOnUse" x1="388.1458" y1="202.0321" x2="388.1458" y2="79.6472" class="gradient-element">
		<stop offset="0" class="primary-color-gradient" style="stop-color: #FFA4ED"></stop>
		<stop offset="1" class="secondary-color-gradient" style="stop-color: #DB81DA"></stop>
	</linearGradient>
	<path fill="url(#SVGID_1_)" d="M457.6,89.5v104.6c0,6.4-5.2,11.5-11.5,11.5l-106.1,0.3c-11.7,0-21.2-9.5-21.2-21.2v0
		c0-11.7,9.5-21.2,21.2-21.2h91.5V99.8H380c-7.5,0-13.7-6.1-13.7-13.7l0,0c0-7.5,6.1-13.7,13.7-13.7h51.4h5.1h2.8v0.2
		C447.4,74.1,457.6,81.1,457.6,89.5z"></path>
	<linearGradient id="SVGID_2_" gradientUnits="userSpaceOnUse" x1="218.788" y1="451.4042" x2="218.788" y2="187.0713">
		<stop offset="0" class="primary-color-gradient" style="stop-color: #FFA4ED"></stop>
		<stop offset="1" class="secondary-color-gradient" style="stop-color: #DB81DA"></stop>
	</linearGradient>
	<path fill="url(#SVGID_2_)" d="M364,457.9H57.5v-6.7c0-10.2,9.2-18.6,20.6-18.6l0,0c0.9,0,188.1,0,189-0.1
		c10.9-1.2,19.3-9.5,19.3-19.6l3.1-69.4v-56.3c0.1-0.8,0.1-1.6,0.1-2.4v-59.9c0-20.3,18.3-36.7,40.8-36.7l9,6.9c1.7,0,6,15.5,6,3.4
		l-0.3,145.1h-2.3l36.1,92.7C383,446.6,375.3,457.9,364,457.9z"></path>
</g>
<path d="M439.5,138.3h26.1v57.6c0,10.5-8.5,19.1-19.1,19.1h-97V226c0,3.8-3.1,6.9-6.9,6.9s-6.9-3.1-6.9-6.9v-23.2
	c0-1.8-1.5-3.3-3.3-3.3H108c-1.8,0-3.3,1.5-3.3,3.3v133.7h215.7c3.8,0,6.9,3.1,6.9,6.9s-3.1,6.9-6.9,6.9H102.6l-38.5,96.2
	c-0.4,1-0.3,2.2,0.3,3.1c0.6,0.9,1.7,1.5,2.8,1.5h306.1c1.1,0,2.1-0.6,2.8-1.5c0.6-0.9,0.7-2.1,0.3-3.1l-40.1-100.2
	c-0.3-0.8-0.5-1.7-0.5-2.5v-85.9c0-3.8,3.1-6.9,6.9-6.9s6.9,3.1,6.9,6.9v84.6l39.6,99c2.1,5.3,1.5,11.2-1.7,15.9
	c-3.2,4.7-8.5,7.5-14.1,7.5H67.2c-5.7,0-10.9-2.8-14.1-7.5c-3.2-4.7-3.8-10.6-1.7-15.9l39.6-99V202.9c0-9.4,7.7-17.1,17.1-17.1
	h224.5c8.1,0,14.8,5.6,16.6,13.2h97.4c1.7,0,3.1-1.4,3.1-3.1v-41.6h-26.1v-37.8c0-8.3-7.7-8.6-8.6-8.6H312.1c-8.3,0-8.6,7.7-8.6,8.6
	v38.3h102.6c4.4,0,8,3.6,8,8s-3.6,8-8,8H287.5v-54.3c0-11.9,8.6-24.6,24.6-24.6h102.8c11.9,0,24.6,8.6,24.6,24.6V138.3z M446.5,66.3
	h-68.7c-6.4,0-7,0-14.8-8.5c-8.5-9.4-17.8-13.6-30-13.6h-56.3c-10.5,0-19.1,8.5-19.1,19.1V170c0,4.4,3.6,8,8,8s8-3.6,8-8V63.3
	c0-1.7,1.4-3.1,3.1-3.1H333c7.8,0,12.5,2.2,18.1,8.3c9.1,10,13.7,13.8,26.6,13.8h68.7c1.7,0,3.1,1.4,3.1,3.1v34.3c0,4.4,3.6,8,8,8
	s8-3.6,8-8V85.4C465.6,74.9,457,66.3,446.5,66.3z M319.3,115.8c-4.4,0-8,3.6-8,8s3.6,8,8,8h33.4c4.4,0,8-3.6,8-8s-3.6-8-8-8H319.3z
	 M112.2,396.7c0,3.8,3.1,6.9,6.9,6.9h206.3c3.8,0,6.9-3.1,6.9-6.9s-3.1-6.9-6.9-6.9H119C115.2,389.9,112.2,392.9,112.2,396.7z
	 M75.4,437.5c0,3.8,3.1,6.9,6.9,6.9h103.5c2.6,0,5-1.5,6.1-3.8l8.3-16.6h40.1l8.3,16.6c1.2,2.3,3.5,3.8,6.1,3.8h103.5
	c3.8,0,6.9-3.1,6.9-6.9s-3.1-6.9-6.9-6.9H259l-8.3-16.6c-1.2-2.3-3.5-3.8-6.1-3.8H196c-2.6,0-5,1.5-6.1,3.8l-8.3,16.6H82.3
	C78.5,430.7,75.4,433.8,75.4,437.5z M313.3,383.2c3.8,0,6.9-3.1,6.9-6.9s-3.1-6.9-6.9-6.9H127.2c-3.8,0-6.9,3.1-6.9,6.9
	s3.1,6.9,6.9,6.9H313.3z M159.6,176.2c4.4,0,8-3.6,8-8c0-31.3,22.5-57.4,52.1-63.1l-10.3,10.7c-3.1,3.2-3,8.2,0.2,11.3
	c1.6,1.5,3.6,2.2,5.6,2.2c2.1,0,4.2-0.8,5.8-2.4l23.2-24c3-3.1,3-8.1-0.1-11.2l-24.5-24.5c-3.1-3.1-8.2-3.1-11.3,0
	c-3.1,3.1-3.1,8.2,0,11.3L218.7,89c-38.1,6.3-67.2,39.4-67.2,79.2C151.6,172.7,155.1,176.2,159.6,176.2z"></path>
</svg>