<svg version="1.1" id="Layer_1" xmlns="http://www.w3.org/2000/svg" xmlns:xlink="http://www.w3.org/1999/xlink" x="0px" y="0px" viewBox="0 0 512 512" enable-background="new 0 0 512 512" xml:space="preserve">
<g>
	<linearGradient id="SVGID_1_" gradientUnits="userSpaceOnUse" x1="324.6144" y1="292.2338" x2="324.6144" y2="71.3163" class="gradient-element">
		<stop offset="0" class="primary-color-gradient" style="stop-color: #FFA4ED"></stop>
		<stop offset="1" class="secondary-color-gradient" style="stop-color: #DB81DA"></stop>
	</linearGradient>
	<path fill="url(#SVGID_1_)" d="M252.3,103.9C244.6,89,255.6,71,272.4,71c0.1,0,0.2,0,0.3,0c74.2,0,134.3,60.2,134.2,134.4
		c-0.1,32.1-11.5,61.5-30.4,84.6h-134c35-17.6,97.1-18.5,97.1-85.3C339.6,113.7,270.9,139.6,252.3,103.9z"></path>
	<linearGradient id="SVGID_2_" gradientUnits="userSpaceOnUse" x1="69.0018" y1="355.2866" x2="469" y2="355.2866">
		<stop offset="0" class="primary-color-gradient" style="stop-color: #FFA4ED"></stop>
		<stop offset="1" class="secondary-color-gradient" style="stop-color: #DB81DA"></stop>
	</linearGradient>
	<path fill="url(#SVGID_2_)" d="M469,279.3C469,279.3,469,279.3,469,279.3c0,1.2-0.2,2.4-0.6,3.4c-0.4,1.3-1.1,2.4-1.9,3.4
		c-0.8,1-1.9,1.9-3.1,2.5c-0.2,0.1-0.3,0.2-0.5,0.2L84,467.8c-1.4,0.7-3,1-4.5,1c-2.4,0-4.8-0.8-6.7-2.4c-3.1-2.6-4.5-6.8-3.4-10.8
		l5.6-21.1c5.1-19.1,18.3-35,36.2-43.4L325,289c11.3,3.1,16.7,1,29,1c27,0,32.1,5.9,49.5-48.2l59.3,28c0.2,0.1,0.4,0.2,0.7,0.3h0
		c1.1,0.6,2.1,1.4,2.9,2.3c0.9,1,1.6,2.2,2,3.5C468.8,277,469,278.2,469,279.3z"></path>
	<linearGradient id="SVGID_3_" gradientUnits="userSpaceOnUse" x1="69.0018" y1="127.6533" x2="162.2988" y2="127.6533">
		<stop offset="0" class="primary-color-gradient" style="stop-color: #FFA4ED"></stop>
		<stop offset="1" class="secondary-color-gradient" style="stop-color: #DB81DA"></stop>
	</linearGradient>
	<path fill="url(#SVGID_3_)" d="M69.4,103.1c-1.1-4,0.3-8.2,3.4-10.8c3.2-2.6,7.5-3.2,11.2-1.4l78.3,37c-7.4,11.5-13,24.1-16.7,37.6
		l-40-18.9C87.7,138.1,74.5,122.2,69.4,103.1L69.4,103.1z"></path>
</g>
<g>
	<path fill="#FFA4ED" class="primary-color" d="M100.7,49.4H73.2V22h27.4V49.4z M59.4,49.4V22H32v27.4H59.4z M59.4,91.6V64.2H32v27.4H59.4z"></path>
	<path fill="#FFA4ED" class="primary-color" d="M419.4,397.5h21.8v86.7h-21.8V397.5z"></path>
	<path fill="#DB81DA" class="secondary-color" d="M452.8,397.5h21.8v86.7h-21.8V397.5z"></path>
</g>
<path d="M74.1,310.1h-55c-4.4,0-8-3.6-8-8s3.6-8,8-8h55c4.4,0,8,3.6,8,8S78.6,310.1,74.1,310.1z M127.5,327.7H34.6c-4.4,0-8,3.6-8,8
	s3.6,8,8,8h92.9c4.4,0,8-3.6,8-8S131.9,327.7,127.5,327.7z M475.8,179H472v-3.9c0-4.4-3.6-8-8-8s-8,3.6-8,8v3.9h-3.9
	c-4.4,0-8,3.6-8,8s3.6,8,8,8h3.9v3.9c0,4.4,3.6,8,8,8s8-3.6,8-8V195h3.9c4.4,0,8-3.6,8-8S480.3,179,475.8,179z M383,451H249.9
	c-4.4,0-8,3.6-8,8s3.6,8,8,8H383c4.4,0,8-3.6,8-8S387.4,451,383,451z M408,56.6h-92.9c-4.4,0-8,3.6-8,8s3.6,8,8,8H408
	c4.4,0,8-3.6,8-8S412.4,56.6,408,56.6z M490.8,26h-92.9c-4.4,0-8,3.6-8,8s3.6,8,8,8h92.9c4.4,0,8-3.6,8-8S495.3,26,490.8,26z
	 M403.2,413.4h-98.7c-4.4,0-8,3.6-8,8s3.6,8,8,8h98.7c4.4,0,8-3.6,8-8S407.6,413.4,403.2,413.4z"></path>
<path d="M476,273.4c-0.8-2.3-2-4.3-3.5-6.1c-1.4-1.7-3.1-3-5.1-4.1c0,0-0.1,0-0.1-0.1c-0.3-0.2-0.7-0.4-1-0.5l-55-26
	c2.3-10.3,3.6-20.8,3.6-31.4C414.8,126.8,351,63,272.7,63C226.8,63,186,84.8,160,118.6c-0.7-0.8-1.5-1.4-2.5-1.9l-70-33
	c-6.5-3.1-14.3-2.1-19.8,2.5c-5.5,4.6-7.9,12.1-6,19l42.1,157.9c1,3.6,4.2,5.9,7.7,5.9c0.7,0,1.4-0.1,2.1-0.3
	c4.3-1.1,6.8-5.5,5.7-9.8L77.1,101.1c-0.3-1,0.1-2,0.8-2.6c0.8-0.6,1.8-0.8,2.7-0.3l70.1,33c0.2,0.1,0.3,0.1,0.5,0.2
	c-13.1,21.5-20.7,46.8-20.7,73.8c0,4.4,3.6,8,8,8s8-3.6,8-8c0-69.6,56.6-126.2,126.2-126.2s126.2,56.6,126.2,126.2
	c0,27.7-9.3,54.9-26.2,76.8l-95.2,0V268c0-3.9-2.9-7.3-6.7-7.9c-13-2.1-23.3-9.5-27.1-18.8h4.6c4.4,0,8-3.6,8-8s-3.6-8-8-8h-14.2
	c-4.4,0-8,3.6-8,8c0,18.8,14.5,35.3,35.4,41.1v7.5l-88.8,0c-12.3-16-20.6-34.8-24.2-54.5c-0.8-4.4-4.9-7.3-9.3-6.5
	c-4.3,0.8-7.2,4.9-6.5,9.3c3.3,18.4,10.3,36,20.4,51.7l-31.9,0c-0.1,0-0.2,0-0.3,0c-8.1,0.3-15,5.9-17.1,13.7L61.6,453.6
	c-1.8,6.9,0.5,14.4,6,19c3.3,2.8,7.5,4.3,11.9,4.3c2.7,0,5.5-0.6,7.9-1.8l378.9-178.9c0.3-0.1,0.6-0.3,0.9-0.4
	c2.1-1.1,3.9-2.6,5.5-4.4c1.5-1.8,2.6-3.8,3.4-5.9c0.7-1.9,1-4,1-6.1C477,277.3,476.7,275.3,476,273.4z M460.9,280.2
	c-0.1,0.3-0.3,0.6-0.4,0.8c-0.2,0.3-0.5,0.5-0.7,0.6l-379.1,179c-0.8,0.4-1.9,0.3-2.7-0.4c-0.7-0.6-1.1-1.6-0.8-2.6l42.1-157.9
	c0.3-1,1.2-1.8,2.2-1.9L395,298c0,0,0,0,0,0c4.4,0,8-3.6,8-8c0-4.4-3.6-8-8-8l-2.8,0c6-9.4,10.9-19.4,14.6-29.8l52.7,24.9
	c0,0,0.1,0,0.1,0c0,0,0.1,0,0.1,0.1c0,0,0,0,0,0c0.3,0.1,0.5,0.3,0.7,0.6c0.2,0.2,0.4,0.5,0.5,0.8c0.1,0.2,0.1,0.5,0.1,0.8
	C461,279.7,461,280,460.9,280.2z M304.8,168.7h4.9c-3.3-9.7-12.5-16.9-24.9-18.8c-4.4-0.7-7.4-4.7-6.7-9.1c0.7-4.4,4.7-7.4,9.1-6.7
	c23.4,3.6,39.8,21.1,39.8,42.7c0,4.4-3.6,8-8,8h-14.2c-4.4,0-8-3.6-8-8S300.4,168.7,304.8,168.7z M291.6,120.4c0,4.4-3.6,8-8,8h-6.2
	v13.3c0,4.1-3.1,7.6-7.2,8c-17.1,1.6-28.1,10.7-28.1,23.1c0,0.4,0,0.8-0.1,1.1c0,3.3,0.3,7.5,3.9,11c3.7,3.6,12.1,7.9,31.6,7.7
	c9.9-0.1,17.4,2.6,22,4.9c18.8,9.4,27.5,21,27.5,36.4c0,18.8-10.6,39.9-40.3,42.5c-0.2,0-0.5,0-0.7,0c-4.1,0-7.6-3.1-8-7.3
	c-0.4-4.4,2.9-8.3,7.3-8.7c22.3-2,25.7-17.5,25.7-26.6c0-6.6-2.3-13.9-18.7-22.1c-4.2-2.1-9.4-3.2-14.7-3.2
	c-20.3,0.2-34.4-3.8-43-12.3c-8.7-8.6-8.7-18.9-8.7-23.3c0-0.4,0-0.8,0.1-1.3c0.5-18.3,14.3-32.5,35.4-36.9v-14.5c0-4.4,3.6-8,8-8
	h14.2C288,112.4,291.6,116,291.6,120.4z"></path>
</svg>