<svg version="1.1" id="Layer_1" xmlns="http://www.w3.org/2000/svg" xmlns:xlink="http://www.w3.org/1999/xlink" x="0px" y="0px" viewBox="0 0 512 512" enable-background="new 0 0 512 512" xml:space="preserve">
<linearGradient id="SVGID_1_" gradientUnits="userSpaceOnUse" x1="121.9669" y1="253.6623" x2="428.7395" y2="253.6623" class="gradient-element">
	<stop offset="0" class="primary-color-gradient" style="stop-color: #FFA4ED"></stop>
	<stop offset="1" class="secondary-color-gradient" style="stop-color: #DB81DA"></stop>
</linearGradient>
<path fill="url(#SVGID_1_)" d="M428.7,253.7C428.7,253.7,428.7,253.7,428.7,253.7c0,0.9-0.1,1.8-0.4,2.6c-0.3,1-0.8,1.8-1.5,2.6
	c-0.7,0.8-1.5,1.4-2.4,1.9c-0.1,0.1-0.3,0.1-0.4,0.2L133.5,398.2c-1.1,0.5-2.3,0.8-3.4,0.8c-1.8,0-3.7-0.6-5.2-1.9
	c-2.4-2-3.4-5.3-2.6-8.3l4.3-16.2c3.9-14.7,14.1-26.8,27.8-33.3l180.8-85.4c0.1-0.1,0.3-0.1,0.4-0.2c0.9-0.5,1.7-1.2,2.4-1.9
	c0.6-0.7,1.1-1.6,1.5-2.6c0.3-0.8,0.4-1.7,0.4-2.6v0c0-0.9-0.1-1.8-0.4-2.6c-0.3-1-0.9-1.9-1.5-2.7c-0.6-0.7-1.4-1.3-2.2-1.8
	c-0.2-0.1-0.3-0.2-0.5-0.3L150,151.8c-13.7-6.5-23.9-18.7-27.8-33.3v0c-0.8-3,0.2-6.3,2.6-8.3c2.4-2,5.8-2.5,8.6-1.1L424,246.3
	c0.2,0.1,0.3,0.2,0.5,0.3h0c0.9,0.5,1.6,1.1,2.2,1.8c0.7,0.8,1.2,1.7,1.5,2.7C428.6,251.9,428.7,252.8,428.7,253.7z"></path>
<path d="M130,403.2c-3.8,0-7.4-1.3-10.3-3.7c-4.8-4-6.8-10.4-5.2-16.5l32.3-121.1c1.8-6.8,7.8-11.6,14.9-11.9c0.1,0,0.2,0,0.3,0
	l192.3-0.6c0,0,0,0,0,0c4.4,0,8,3.6,8,8c0,4.4-3.6,8-8,8l-192,0.6L130,387.1l0.1,0.1L420.6,250c0,0,0,0,0,0c0,0,0.1-0.1,0.1-0.1
	c-0.1,0-0.2-0.1-0.3-0.2L130.1,112.6l-7.8,2.1l7.7-2.1l32.3,121.1c1.1,4.3-1.4,8.7-5.7,9.8c-4.3,1.1-8.7-1.4-9.8-5.7l-32.3-121.1
	c-1.6-6,0.5-12.5,5.2-16.5c4.8-4,11.5-4.9,17.2-2.2l290.5,137.2c0.3,0.1,0.6,0.3,0.9,0.5c0.1,0,0.1,0.1,0.2,0.1
	c1.6,0.9,3.1,2.1,4.3,3.5c1.4,1.6,2.4,3.4,3.1,5.3c0.6,1.6,0.9,3.4,0.9,5.2c0,1.8-0.3,3.6-0.9,5.3c-0.6,1.9-1.6,3.6-2.9,5.1
	c-1.3,1.6-2.9,2.8-4.7,3.8c-0.3,0.2-0.5,0.3-0.8,0.4L136.9,401.7C134.8,402.7,132.4,403.2,130,403.2z"></path>
<g>
	<path fill="#FFA4ED" class="primary-color" d="M418.9,29h27.4v27.4h-27.4V29z M487.6,56.4V29h-27.4v27.4H487.6z M487.6,98.6V71.2h-27.4v27.4H487.6z"></path>
	<path fill="#FFA4ED" class="primary-color" d="M16.3,24.5h21.8v86.7H16.3V24.5z"></path>
	<path fill="#DB81DA" class="secondary-color" d="M49.7,24.5h21.8v86.7H49.7V24.5z"></path>
</g>
<path d="M88,449.1h-55c-4.4,0-8-3.6-8-8s3.6-8,8-8h55c4.4,0,8,3.6,8,8S92.5,449.1,88,449.1z M141.4,466.7H48.5c-4.4,0-8,3.6-8,8
	s3.6,8,8,8h92.9c4.4,0,8-3.6,8-8S145.8,466.7,141.4,466.7z M481.5,143.6c-4.2-4.2-11-4.2-15.2,0c-4.2,4.2-4.2,11,0,15.2
	s11,4.2,15.2,0C485.7,154.6,485.7,147.8,481.5,143.6z M464.7,456h-3.9v-3.9c0-4.4-3.6-8-8-8s-8,3.6-8,8v3.9H441c-4.4,0-8,3.6-8,8
	s3.6,8,8,8h3.9v3.9c0,4.4,3.6,8,8,8s8-3.6,8-8V472h3.9c4.4,0,8-3.6,8-8S469.2,456,464.7,456z M185.9,281H52.8c-4.4,0-8,3.6-8,8
	s3.6,8,8,8h133.1c4.4,0,8-3.6,8-8S190.3,281,185.9,281z M345.9,151.6H253c-4.4,0-8,3.6-8,8s3.6,8,8,8h92.9c4.4,0,8-3.6,8-8
	S350.3,151.6,345.9,151.6z M335.8,123h92.9c4.4,0,8-3.6,8-8s-3.6-8-8-8h-92.9c-4.4,0-8,3.6-8,8S331.4,123,335.8,123z M33.5,228.4
	h98.7c4.4,0,8-3.6,8-8s-3.6-8-8-8H33.5c-4.4,0-8,3.6-8,8S29,228.4,33.5,228.4z M452.9,345.6c4.4,0,8-3.6,8-8s-3.6-8-8-8
	c-5.7,0-10.4-4.7-10.4-10.4s4.7-10.4,10.4-10.4c4.4,0,8-3.6,8-8s-3.6-8-8-8c-14.6,0-26.4,11.8-26.4,26.4S438.3,345.6,452.9,345.6z
	 M316.9,412.9h-15.8v-15.8c0-4.4-3.6-8-8-8s-8,3.6-8,8v15.8h-66.2c-4.4,0-8,3.6-8,8s3.6,8,8,8h66.2v15.8c0,4.4,3.6,8,8,8s8-3.6,8-8
	v-15.8h15.8c4.4,0,8-3.6,8-8S321.3,412.9,316.9,412.9z"></path>
</svg>