<svg version="1.1" id="Layer_1" xmlns="http://www.w3.org/2000/svg" xmlns:xlink="http://www.w3.org/1999/xlink" x="0px" y="0px" viewBox="0 0 512 512" enable-background="new 0 0 512 512" xml:space="preserve">
<linearGradient id="SVGID_1_" gradientUnits="userSpaceOnUse" x1="256" y1="527.2231" x2="256" y2="-10.4345" class="gradient-element">
	<stop offset="0" class="primary-color-gradient" style="stop-color: #FFA4ED"></stop>
	<stop offset="1" class="secondary-color-gradient" style="stop-color: #DB81DA"></stop>
</linearGradient>
<path fill="url(#SVGID_1_)" d="M375.9,44.7h5.7c18.2,0,33,14.8,33,33v350.4c0,35.3-28.6,64-64,64H130.4c-18.2,0-33-14.8-33-33v0
	c0-67,45.6-121.3,101.9-121.3h21.5c28,0,62.7-27,62.7-60.3V154.4C283.6,93.8,324.9,44.7,375.9,44.7z"></path>
<path d="M347.9,504.1H150.6c-30.2,0-46.9-14.2-55.6-26.1c-13-17.9-14.1-37.9-14.1-43.6V120.7c0-4.4,3.6-8,8-8s8,3.6,8,8v313.7
	c0,2.2,0.6,53.7,53.7,53.7h197.3c53.1,0,53.7-51.5,53.7-53.7V89.1c0-2.2-0.6-53.7-53.7-53.7H150.6c-3.9,0-17.8,0.6-31,8.9
	c-12,7.5-19.3,18.9-21.6,33.6c-0.7,4.4-4.8,7.4-9.1,6.7c-4.4-0.7-7.4-4.8-6.7-9.1c3-19.3,13-34.8,28.9-44.7
	c16.4-10.3,33.1-11.4,39.5-11.4h197.3c30.2,0,46.9,14.2,55.6,26.1c13,17.9,14.1,37.9,14.1,43.6v345.3c0,5.7-1,25.7-14.1,43.6
	C394.8,489.9,378.1,504.1,347.9,504.1z M160.6,469.4c-32.6,0-44.6-24.2-45-44.8c0-0.1,0-0.1,0-0.2V264.1c0-4.4,3.6-8,8-8h172.7
	c4.4,0,8,3.6,8,8s-3.6,8-8,8H131.6v152.2c0.2,8.8,3.4,29.1,29,29.1c4.4,0,8,3.6,8,8S165,469.4,160.6,469.4z M345.6,410.1H172.9
	c-4.4,0-8-3.6-8-8v-24.7c0-4.4,3.6-8,8-8s8,3.6,8,8v16.7h164.7c4.4,0,8,3.6,8,8S350,410.1,345.6,410.1z M123.6,237.4
	c-4.4,0-8-3.6-8-8v-49.3c0-4.4,3.6-8,8-8h172.7c4.4,0,8,3.6,8,8s-3.6,8-8,8H131.6v41.3C131.6,233.8,128,237.4,123.6,237.4z
	 M123.6,153.4c-4.4,0-8-3.6-8-8V96.1c0-4.4,3.6-8,8-8h172.7c4.4,0,8,3.6,8,8s-3.6,8-8,8H131.6v41.3
	C131.6,149.8,128,153.4,123.6,153.4z"></path>
<path fill="#DB81DA" class="secondary-color" d="M17.6,29.2h21.8v250H17.6V29.2z"></path>
<path d="M450.8,261.4h-43c-4.4,0-8-3.6-8-8s3.6-8,8-8h43c4.4,0,8,3.6,8,8S455.2,261.4,450.8,261.4z M437.3,283.4c0-4.4-3.6-8-8-8
	h-73.8c-4.4,0-8,3.6-8,8s3.6,8,8,8h73.8C433.7,291.4,437.3,287.8,437.3,283.4z M492.2,90.4c0-4.4-3.6-8-8-8h-47.6c-4.4,0-8,3.6-8,8
	s3.6,8,8,8h47.6C488.6,98.4,492.2,94.8,492.2,90.4z M468.4,114.1V66.6c0-4.4-3.6-8-8-8s-8,3.6-8,8v47.6c0,4.4,3.6,8,8,8
	S468.4,118.6,468.4,114.1z M460.4,194c-5.9,0-10.8,4.8-10.8,10.8s4.8,10.8,10.8,10.8s10.8-4.8,10.8-10.8S466.4,194,460.4,194z
	 M73.4,492.1c0-4.4-3.6-8-8-8H22.1c-4.4,0-8,3.6-8,8s3.6,8,8,8h43.3C69.8,500.1,73.4,496.5,73.4,492.1z"></path>
</svg>