<svg version="1.1" id="Layer_1" xmlns="http://www.w3.org/2000/svg" xmlns:xlink="http://www.w3.org/1999/xlink" x="0px" y="0px" viewBox="0 0 512 512" enable-background="new 0 0 512 512" xml:space="preserve">
<linearGradient id="SVGID_1_" gradientUnits="userSpaceOnUse" x1="132.8805" y1="255.9986" x2="477.3585" y2="255.9986" class="gradient-element">
	<stop offset="0" class="primary-color-gradient" style="stop-color: #FFA4ED"></stop>
	<stop offset="1" class="secondary-color-gradient" style="stop-color: #DB81DA"></stop>
</linearGradient>
<path fill="url(#SVGID_1_)" d="M434.9,256c0-19.4-3.2-38-8.9-55.4l51.4-21.3l-10.5-25.4l-51.5,21.3c-17.2-33.7-44.7-61.2-78.4-78.4
	l21.3-51.5l-25.4-10.5l-21.3,51.4c-9.9-3.2-20.1-5.7-30.6-7.2c-0.1,0-0.2,0-0.2,0c-13.1-1.8-24.8,8.4-24.8,21.7v66.8
	c0,7.6,4.2,14.6,10.9,18.1c21,11.2,65.1-4.2,65.1,70.3c0,41.8-34,75.8-75.8,75.8H256v0c0,33.9,0.2,52.1-37.8,52.1h-74.6
	c-9.9,0-14.5-2.2-7.1,4.4c11.7,10.6,24.7,19.6,38.9,26.8l-21.3,51.5l25.4,10.5l21.3-51.4c17.5,5.7,36.1,8.9,55.4,8.9
	c19.4,0,38-3.2,55.4-8.9l21.3,51.4l25.4-10.5L337,415.2c33.7-17.2,61.2-44.7,78.4-78.4l51.5,21.3l10.5-25.4L426,311.5
	C431.7,294,434.9,275.4,434.9,256z"></path>
<path d="M256.2,172.2c-46.2,0-83.8,37.6-83.8,83.8c0,46.2,37.6,83.8,83.8,83.8c46.2,0,83.8-37.6,83.8-83.8
	C340,209.8,302.4,172.2,256.2,172.2z M256.2,323.8c-37.4,0-67.8-30.4-67.8-67.8s30.4-67.8,67.8-67.8S324,218.6,324,256
	S293.6,323.8,256.2,323.8z M305.4,256c0,27.2-22.1,49.2-49.2,49.2S207,283.1,207,256c0-27.1,22.1-49.2,49.2-49.2c4.4,0,8,3.6,8,8
	s-3.6,8-8,8c-18.3,0-33.2,14.9-33.2,33.2c0,18.3,14.9,33.2,33.2,33.2s33.2-14.9,33.2-33.2c0-4.4,3.6-8,8-8S305.4,251.6,305.4,256z
	 M138.6,45.5c-1.7-4.1,0.2-8.8,4.3-10.5l33.8-14.2c2-0.8,4.2-0.8,6.1,0c2,0.8,3.5,2.3,4.4,4.3l21.3,50.4c15.5-4.1,31.6-6.2,47.8-6.2
	c15.3,0,30.4,1.9,45.1,5.5l20.6-50.6c1.7-4.1,6.3-6.1,10.4-4.4l33.9,13.8c2,0.8,3.5,2.3,4.4,4.3c0.8,2,0.8,4.2,0,6.1l-20.6,50.6
	c27.2,15.9,49.9,38.2,66.2,65.3l50.3-21.2c4.1-1.7,8.8,0.2,10.5,4.3l14.2,33.8c0.8,2,0.8,4.2,0,6.1c-0.8,2-2.3,3.5-4.3,4.4
	l-50.2,21.2c2.5,9.4,4.2,19,5.2,28.7c0.4,4.4-2.8,8.3-7.1,8.8c-0.3,0-0.5,0-0.8,0c-4.1,0-7.5-3.1-7.9-7.2c-1.1-11-3.3-22-6.6-32.6
	c-1.2-3.9,0.8-8.1,4.5-9.7l49.4-20.8l-8-19L416,177.3c-3.8,1.6-8.1,0.1-10.1-3.5c-16.1-29.2-40.2-53-69.6-68.6
	c-3.6-1.9-5.2-6.3-3.6-10.1l20.2-49.8l-19.1-7.8l-20.2,49.8c-1.5,3.8-5.7,5.8-9.6,4.7c-15.4-4.5-31.5-6.8-47.6-6.8
	c-17,0-33.9,2.5-50.1,7.5c-3.9,1.2-8.1-0.8-9.7-4.5l-20.9-49.6l-26.4,11.1C145.1,51.4,140.4,49.5,138.6,45.5z M492.3,332.3
	l-13.8,33.9c-0.8,2-2.3,3.5-4.3,4.4c-2,0.8-4.2,0.8-6.1,0l-50.6-20.6c-15.9,27.2-38.3,49.9-65.4,66.1l21.2,50.4c0.8,2,0.8,4.2,0,6.1
	c-0.8,2-2.3,3.5-4.3,4.4l-33.8,14.2c-4.1,1.7-8.8-0.2-10.5-4.3l-21.2-50.4c-15.4,4.1-31.4,6.1-47.4,6.1c-15.4,0-30.6-1.9-45.5-5.6
	l-20.6,50.7c-1.3,3.1-4.3,5-7.4,5c-1,0-2-0.2-3-0.6l-33.9-13.8c-2-0.8-3.5-2.3-4.4-4.3c-0.8-2-0.8-4.2,0-6.1l20.7-50.8
	c-27.1-15.9-49.7-38.2-65.9-65.2l-50.6,21.3c-4.1,1.7-8.8-0.2-10.5-4.3l-14.2-33.8c-0.8-2-0.8-4.2,0-6.1c0.8-2,2.3-3.5,4.3-4.4
	l50.6-21.3c-4.1-15.5-6.1-31.4-6.1-47.5c0-15.3,1.9-30.5,5.5-45.2l-50.9-20.7c-4.1-1.7-6.1-6.3-4.4-10.4l13.8-33.9
	c0.8-2,2.3-3.5,4.3-4.4c2-0.8,4.2-0.8,6.1,0L94.9,162c8.1-13.8,17.9-26.6,29.3-38c3.1-3.1,8.2-3.1,11.3,0c0,0,0,0,0,0c0,0,0,0,0,0
	l19.4,19.4c3.1,3.1,3.1,8.2,0,11.3c-1.6,1.6-3.6,2.3-5.7,2.3c-2,0-4.1-0.8-5.7-2.3L130,141.2c-9.6,10.5-17.8,22.2-24.5,34.7
	c-1.9,3.6-6.3,5.2-10.1,3.6l-50-20.3l-7.8,19.1l50,20.3c3.8,1.5,5.8,5.7,4.7,9.6c-4.5,15.5-6.8,31.5-6.8,47.7
	c0,16.9,2.5,33.7,7.4,49.8c1.2,3.9-0.8,8.1-4.5,9.7l-49.7,21l8,19l49.8-21c3.8-1.6,8.1-0.1,10.1,3.5c16,29.2,40,52.9,69.4,68.6
	c3.6,1.9,5.2,6.3,3.6,10.1l-20.3,50l19.1,7.8l20.3-49.9c1.5-3.8,5.7-5.8,9.7-4.7c15.5,4.6,31.7,6.9,48,6.9c16.9,0,33.6-2.5,49.7-7.4
	c3.9-1.2,8.1,0.8,9.7,4.5l20.9,49.5l19-8l-20.9-49.5c-1.6-3.8-0.1-8.1,3.5-10.1c29.2-16.1,53-40.1,68.7-69.5
	c1.9-3.6,6.3-5.2,10.1-3.6l49.7,20.2l7.8-19.1l-49.6-20.2c-3.8-1.5-5.8-5.7-4.7-9.7c2.9-9.9,4.9-20.1,5.9-30.4
	c0.4-4.4,4.4-7.6,8.8-7.1c4.4,0.4,7.6,4.4,7.1,8.8c-0.9,8.8-2.5,17.6-4.6,26.3l50.5,20.5C492,323.6,493.9,328.2,492.3,332.3z"></path>
<g>
	<path fill="#DB81DA" class="secondary-color" d="M68.9,70.8v21.8H11.9V70.8H68.9z M107,70.8v21.8H164V70.8H107z"></path>
	<path fill="#FFA4ED" class="primary-color" d="M116.5,29v21.8H59.6V29H116.5z"></path>
</g>
<path d="M473.8,420.1c-5,0-9,4.1-9,9s4.1,9,9,9s9-4.1,9-9S478.8,420.1,473.8,420.1z M440.3,92.1c14.6,0,26.4-11.8,26.4-26.4
	s-11.8-26.4-26.4-26.4s-26.4,11.8-26.4,26.4S425.7,92.1,440.3,92.1z M440.3,55.3c5.7,0,10.4,4.7,10.4,10.4c0,5.7-4.7,10.4-10.4,10.4
	s-10.4-4.7-10.4-10.4C429.9,60,434.6,55.3,440.3,55.3z M501.4,239.3c0,4.4-3.6,8-8,8H371.3c-4.4,0-8-3.6-8-8s3.6-8,8-8h122.1
	C497.8,231.3,501.4,234.9,501.4,239.3z M469.5,282.3h-82.8c-4.4,0-8-3.6-8-8s3.6-8,8-8h82.8c4.4,0,8,3.6,8,8
	S473.9,282.3,469.5,282.3z M482.8,467.3c0,4.4-3.6,8-8,8h-62.1c-4.4,0-8-3.6-8-8s3.6-8,8-8h62.1
	C479.2,459.3,482.8,462.9,482.8,467.3z M154.8,399.3c0,4.4-3.6,8-8,8H34c-4.4,0-8-3.6-8-8s3.6-8,8-8h112.8
	C151.2,391.3,154.8,394.9,154.8,399.3z M434.8,429.1c0,5,4.1,9,9,9s9-4.1,9-9s-4.1-9-9-9S434.8,424.2,434.8,429.1z M404.8,429.1
	c0,5,4.1,9,9,9s9-4.1,9-9s-4.1-9-9-9S404.8,424.2,404.8,429.1z"></path>
</svg>