<svg version="1.1" id="Layer_1" xmlns="http://www.w3.org/2000/svg" xmlns:xlink="http://www.w3.org/1999/xlink" x="0px" y="0px" viewBox="0 0 512 512" enable-background="new 0 0 512 512" xml:space="preserve">
<g>
	
		<linearGradient id="SVGID_1_" gradientUnits="userSpaceOnUse" x1="96.4173" y1="177.075" x2="322.0933" y2="177.075" gradientTransform="matrix(0.9185 0.3954 -0.3954 0.9185 84.4365 -55.5819)" class="gradient-element">
		<stop offset="0" class="primary-color-gradient" style="stop-color: #FFA4ED"></stop>
		<stop offset="1" class="secondary-color-gradient" style="stop-color: #DB81DA"></stop>
	</linearGradient>
	<path fill="url(#SVGID_1_)" d="M284.7,223.4c5-11.6,7.9-23.7,9-35.7l36.4,0.5l0.2-18l-36.5-0.5c-1.6-24.7-11-48.4-26.9-67.5
		l26.2-25.4l-12.6-12.9l-26.1,25.4c-5.1-4.5-10.6-8.6-16.6-12.2c0,0-0.1-0.1-0.1-0.1c-7.4-4.5-17.1-1.4-20.5,6.6L200,123.8
		c-2,4.6-1.3,9.8,1.8,13.7c9.7,12.2,40.3,14.3,21,59.2c-10.8,25.1-40.1,36.8-65.2,26l-0.1-0.1l0,0c-8.8,20.4-13.4,31.4-36.3,21.6
		l-44.9-19.3c-5.9-2.6-8.1-5.1-5.5,0.8c4.3,9.4,9.8,18.2,16.5,26.2l-26.2,25.4l12.6,12.9l26.1-25.4c9,8,19.4,14.7,31.1,19.7
		c11.7,5,23.7,7.9,35.7,9l-0.5,36.4l18,0.2l0.5-36.5c24.7-1.6,48.4-11,67.5-26.9l25.4,26.2l12.9-12.6L265,254.5
		C273,245.4,279.7,235.1,284.7,223.4z"></path>
	
		<linearGradient id="SVGID_2_" gradientUnits="userSpaceOnUse" x1="306.9166" y1="367.5029" x2="484.5382" y2="367.5029" gradientTransform="matrix(0.9741 -0.2259 0.2259 0.9741 -73.8525 92.6825)">
		<stop offset="0" class="primary-color-gradient" style="stop-color: #FFA4ED"></stop>
		<stop offset="1" class="secondary-color-gradient" style="stop-color: #DB81DA"></stop>
	</linearGradient>
	<path fill="url(#SVGID_2_)" d="M459.9,346.2c-2.3-9.7-6-18.7-10.9-26.8l23.3-16.7l-8.2-11.5l-23.4,16.7
		c-12.6-14.9-29.6-25.5-48.5-30.2l4.7-28.3l-14-2.3l-4.7,28.3c-5.3-0.5-10.7-0.5-16.2,0c0,0-0.1,0-0.1,0c-6.8,0.6-11.5,7.1-9.9,13.8
		l7.8,33.6c0.9,3.8,3.8,6.8,7.6,7.8c11.8,3.2,32.2-9.7,40.9,27.7c4.9,21-8.2,42-29.2,46.9l-0.1,0l0,0c4,17,6.2,26.2-12.9,30.6
		l-37.5,8.7c-5,1.2-7.5,0.6-3.1,3.1c7.1,3.9,14.7,7,22.7,8.9l-4.7,28.3l14,2.3l4.7-28.3c9.4,0.8,19.2,0.3,28.9-2
		c9.7-2.3,18.7-6,26.8-10.9l16.7,23.3l11.5-8.2l-16.7-23.4c14.9-12.6,25.5-29.6,30.2-48.5l28.3,4.7l2.3-14l-28.3-4.7
		C462.7,365.6,462.1,355.9,459.9,346.2z"></path>
</g>
<path d="M200,124.2c-29.2-12.6-63.2,1-75.7,30.1c-12.6,29.2,1,63.2,30.1,75.7h0c7.4,3.2,15.1,4.7,22.7,4.7c22.3,0,43.6-13.1,53-34.8
	C242.7,170.7,229.2,136.8,200,124.2z M215.4,193.6c-9.1,21.1-33.6,30.9-54.7,21.8h0c-21.1-9.1-30.9-33.6-21.8-54.7
	c9.1-21.1,33.6-30.9,54.7-21.8c10.2,4.4,18.1,12.5,22.2,22.8C220,172.1,219.8,183.4,215.4,193.6z M209.4,191
	c-5.7,13.2-18.6,21.2-32.2,21.2c-4.6,0-9.3-0.9-13.8-2.9c-8.6-3.7-15.2-10.5-18.7-19.2c-3.5-8.7-3.3-18.2,0.4-26.8
	c3.7-8.6,10.5-15.2,19.2-18.7c8.7-3.5,18.2-3.3,26.8,0.4c4.1,1.7,5.9,6.5,4.2,10.5c-1.7,4.1-6.5,5.9-10.5,4.2
	c-4.7-2-9.8-2.1-14.5-0.2c-4.7,1.9-8.4,5.5-10.4,10.1c-2,4.7-2.1,9.8-0.2,14.5c1.9,4.7,5.5,8.4,10.1,10.4c9.6,4.1,20.8-0.3,25-9.9
	c1.7-4.1,6.5-5.9,10.5-4.2C209.2,182.2,211.1,186.9,209.4,191z M158.2,20c0-4.4,3.6-7.9,8-7.9c0,0,0,0,0.1,0l24,0.2
	c2.1,0,4.2,0.9,5.6,2.4c1.5,1.5,2.3,3.6,2.3,5.7L198,53.7c9.8,1.7,19.5,4.5,28.7,8.5c8.6,3.7,16.8,8.4,24.4,13.9l23.8-23.5
	c3.1-3.1,8.2-3.1,11.3,0.1L303,69.8c1.5,1.5,2.3,3.6,2.3,5.7c0,2.1-0.9,4.1-2.4,5.6l-23.8,23.5c11.3,15.9,18.7,34.1,21.7,53.4
	l33.4,0.2c2.1,0,4.2,0.9,5.6,2.4c1.5,1.5,2.3,3.6,2.3,5.7l-0.2,24c0,2.1-0.9,4.1-2.4,5.6c-1.5,1.5-3.5,2.3-5.6,2.3c0,0,0,0-0.1,0
	l-33.3-0.2c-1,5.6-2.3,11.2-4,16.7c-1.1,3.4-4.2,5.6-7.6,5.6c-0.8,0-1.6-0.1-2.4-0.4c-4.2-1.3-6.6-5.8-5.2-10
	c2.1-6.8,3.6-13.7,4.4-20.8c0.4-4.1,3.9-7.1,8-7.1c0,0,0,0,0.1,0l32.3,0.2l0.1-8l-32.4-0.2c-4.1,0-7.5-3.1-7.9-7.2
	c-2.1-21.2-10.2-41.2-23.5-57.9c-2.6-3.2-2.3-7.8,0.6-10.7L286,75.4l-5.6-5.7l-23.1,22.8c-2.9,2.9-7.5,3.1-10.7,0.5
	c-7.9-6.5-16.7-11.9-26.2-16c-10-4.3-20.5-7.1-31.3-8.2c-4.1-0.4-7.2-3.9-7.1-8l0.2-32.5l-16-0.1C161.8,28,158.2,24.4,158.2,20z
	 M249.6,279.1c-15.9,11.3-34.1,18.6-53.4,21.6l-0.2,33.4c0,2.1-0.9,4.2-2.4,5.6c-1.5,1.5-3.5,2.3-5.6,2.3c0,0,0,0-0.1,0l-24-0.2
	c-2.1,0-4.1-0.9-5.6-2.4c-1.5-1.5-2.3-3.6-2.3-5.7l0.2-33.4c-9.8-1.7-19.3-4.5-28.4-8.4c-8.7-3.8-17-8.5-24.6-14.1l-23.9,23.5
	c-1.5,1.5-3.5,2.3-5.7,2.3c-2.1,0-4.2-0.9-5.6-2.4l-16.8-17.1c-3.1-3.1-3.1-8.2,0.1-11.3l23.9-23.6c-11.2-15.9-18.6-34.1-21.6-53.3
	L20,195.9c-2.1,0-4.1-0.9-5.6-2.4c-1.5-1.5-2.3-3.6-2.3-5.7l0.2-24c0-4.4,3.6-8,8.1-7.9l33.6,0.2c1.7-9.8,4.5-19.3,8.4-28.5
	c3.7-8.7,8.4-16.9,14-24.4L52.7,79.3c-1.5-1.5-2.3-3.6-2.3-5.7c0-2.1,0.9-4.1,2.4-5.6l17.1-16.8c1.5-1.5,3.5-2.3,5.6-2.3
	c0,0,0,0,0.1,0c2.1,0,4.1,0.9,5.6,2.4l23.6,23.9c8.1-5.7,16.9-10.5,26.1-14.2c4.1-1.6,8.8,0.4,10.4,4.5c0,0,0,0,0,0c0,0,0,0,0,0
	l6.7,16.7c1.6,4.1-0.4,8.8-4.5,10.4c-1,0.4-2,0.6-3,0.6c-3.2,0-6.2-1.9-7.4-5l-3.6-9c-7.3,3.5-14.2,7.9-20.5,13
	c-3.2,2.6-7.8,2.3-10.7-0.6L75.4,68.2l-5.7,5.6L92.5,97c2.9,2.9,3.1,7.5,0.5,10.7c-6.6,7.9-11.9,16.8-16,26.3
	c-4.3,9.9-7,20.4-8.2,31.1c-0.4,4.1-3.9,7.2-8,7.1L28.1,172l-0.1,8l32.6,0.2c4.1,0,7.5,3.2,7.9,7.2c2.1,21.2,10.1,41.2,23.4,57.8
	c2.5,3.2,2.3,7.8-0.6,10.7l-23.2,22.9l5.6,5.7l23.2-22.8c2.9-2.9,7.6-3.1,10.7-0.5c8,6.6,16.9,12,26.4,16.1c9.9,4.3,20.4,7,31,8.2
	c4.1,0.5,7.1,3.9,7.1,8L172,326l8,0.1l0.2-32.4c0-4.1,3.2-7.5,7.2-7.9c21.2-2,41.3-10.2,57.9-23.4c3.2-2.6,7.8-2.3,10.7,0.6
	l22.7,23.1l5.7-5.6l-22.7-23c-2.9-2.9-3.1-7.6-0.5-10.7c4.2-5.1,8-10.6,11.2-16.3c2.2-3.9,7-5.2,10.9-3.1c3.9,2.2,5.2,7,3.1,10.9
	c-2.5,4.5-5.3,8.9-8.4,13l11.5,11.7l10.8-7.9c1.7-1.2,3.9-1.8,6-1.4c2.1,0.3,4,1.5,5.2,3.2l14.6,20.2c6.7-3.3,13.9-5.8,21.2-7.5
	c6.9-1.6,13.9-2.5,20.9-2.6l3.9-24.6c0.3-2.1,1.5-4,3.2-5.2c1.7-1.2,3.9-1.8,6-1.4l18.7,3c4.4,0.7,7.3,4.8,6.6,9.2l-3.9,24.6
	c13.8,4.8,26.4,12.5,36.9,22.6l20.1-14.6c3.6-2.6,8.6-1.8,11.2,1.8l11.1,15.3c2.6,3.6,1.8,8.6-1.8,11.2l-20.1,14.5
	c1.8,3.7,3.4,7.5,4.7,11.3c1.4,4.2-0.8,8.7-5,10.2c-0.9,0.3-1.7,0.4-2.6,0.4c-3.3,0-6.4-2.1-7.6-5.4c-1.8-5.2-4.1-10.2-6.8-14.9
	c-2.1-3.5-1.1-8.1,2.2-10.5l19.2-13.9l-1.7-2.3l-19.3,14c-3.3,2.4-7.9,1.9-10.6-1.1c-11-12.2-25.2-21-41.1-25.2
	c-4-1.1-6.5-4.9-5.8-9l3.8-23.5l-2.9-0.5l-3.8,23.5c-0.6,4-4.2,6.9-8.3,6.7c-7.9-0.4-15.9,0.3-23.6,2.1c-8.2,1.9-16,5-23.2,9.2
	c-3.6,2.1-8.1,1.1-10.5-2.2l-14-19.3l-2.4,1.7l0.5,0.5c1.5,1.5,2.3,3.6,2.3,5.7c0,2.1-0.9,4.2-2.4,5.6L284.3,303
	c-1.5,1.5-3.5,2.3-5.6,2.3c0,0,0,0-0.1,0c-2.1,0-4.2-0.9-5.6-2.4L249.6,279.1z M359.5,321.1c-12.2,2.8-22.6,10.3-29.3,21
	s-8.8,23.3-5.9,35.5c2.8,12.2,10.3,22.6,21,29.3c7.6,4.7,16.1,7.2,24.8,7.2c3.6,0,7.1-0.4,10.7-1.2c25.3-5.9,41.1-31.2,35.2-56.5
	C410.1,331.1,384.8,315.3,359.5,321.1z M377.1,397.2c-16.7,3.9-33.4-6.6-37.3-23.2c-1.9-8.1-0.5-16.4,3.9-23.4
	c4.4-7.1,11.3-12,19.3-13.8c2.3-0.5,4.7-0.8,7-0.8c5.7,0,11.4,1.6,16.4,4.7c7.1,4.4,12,11.3,13.8,19.3
	C404.2,376.6,393.8,393.4,377.1,397.2z M501.4,378.4l-3,18.7c-0.7,4.4-4.8,7.3-9.2,6.6l-24.5-3.9c-4.8,13.8-12.5,26.4-22.7,36.9
	l14.6,20.1c1.2,1.7,1.8,3.9,1.4,6c-0.3,2.1-1.5,4-3.2,5.2l-15.3,11.1c-3.6,2.6-8.6,1.8-11.2-1.8l-14.6-20.1
	c-6.7,3.2-13.7,5.7-21,7.4c-6.9,1.6-14,2.5-21.1,2.6l-3.9,24.6c-0.6,3.9-4,6.7-7.9,6.7c-0.4,0-0.8,0-1.3-0.1l-18.7-3
	c-4.4-0.7-7.3-4.8-6.6-9.2l3.9-24.7c-13.8-4.8-26.3-12.5-36.8-22.6l-20.3,14.7c-1.7,1.2-3.9,1.8-6,1.4c-2.1-0.3-4-1.5-5.2-3.2
	l-11.1-15.3c-2.6-3.6-1.8-8.6,1.8-11.2l20.2-14.7c-3.3-6.7-5.8-13.8-7.4-21.1c-1.6-6.9-2.5-13.9-2.6-20.9l-24.7-3.9
	c-2.1-0.3-4-1.5-5.2-3.2c-1.2-1.7-1.8-3.9-1.4-6l3-18.7c0.7-4.4,4.8-7.3,9.2-6.6l24.7,3.9c2.5-7.1,5.7-13.8,9.7-20.2
	c2.3-3.8,7.3-4.9,11-2.6c0,0,0,0,0,0c0,0,0,0,0,0l12,7.5c3.7,2.3,4.9,7.3,2.6,11c-1.5,2.4-4.1,3.8-6.8,3.8c-1.4,0-2.9-0.4-4.2-1.2
	l-4.9-3.1c-2.5,5.1-4.5,10.3-6,15.8c-1.1,4-4.9,6.5-9,5.8l-23.7-3.8l-0.5,2.9l23.7,3.8c4,0.6,7,4.3,6.7,8.3
	c-0.4,7.9,0.2,15.9,2.1,23.7c1.9,8.1,5,15.9,9.1,23.1c2.1,3.6,1.1,8.1-2.2,10.5l-19.4,14.1l1.7,2.3l19.4-14.1
	c3.3-2.4,7.9-1.9,10.6,1.1c11,12.2,25.1,20.9,41,25.2c4,1.1,6.5,4.9,5.8,9l-3.8,23.6l2.9,0.5l3.8-23.6c0.6-4.1,4.3-6.9,8.4-6.7
	c8,0.5,16-0.2,23.8-2c8.1-1.9,15.9-4.9,23-9.1c3.6-2.1,8.1-1.1,10.5,2.2l14,19.3l2.3-1.7l-14-19.3c-2.4-3.3-1.9-7.9,1.1-10.7
	c12.3-11,21-25.2,25.3-41.1c1.1-4,4.9-6.5,9-5.8l23.5,3.8l0.5-2.9l-23.5-3.7c-4.1-0.6-7-4.3-6.7-8.4c0.3-5.1,0.1-10.2-0.5-15.2
	c-0.6-4.4,2.5-8.4,6.9-8.9c4.4-0.6,8.4,2.5,8.9,6.9c0.5,3.6,0.7,7.3,0.8,10.9l24.5,3.9c2.1,0.3,4,1.5,5.2,3.2
	C501.2,374.2,501.7,376.3,501.4,378.4z"></path>
<g>
	<path fill="#DB81DA" class="secondary-color" d="M40.9,445.5v-21.8h56.9v21.8H40.9z M239,487.5v-21.8H182v21.8H239z"></path>
	<path fill="#FFA4ED" class="primary-color" d="M88.6,487.3v-21.8h56.9v21.8H88.6z"></path>
</g>
<path d="M482.8,67.1c0-5-4.1-9-9-9s-9,4.1-9,9s4.1,9,9,9S482.8,72.1,482.8,67.1z M50.3,315.2c-14.6,0-26.4,11.8-26.4,26.4
	S35.7,368,50.3,368s26.4-11.8,26.4-26.4S64.8,315.2,50.3,315.2z M50.3,352c-5.7,0-10.4-4.7-10.4-10.4s4.7-10.4,10.4-10.4
	s10.4,4.7,10.4,10.4S56,352,50.3,352z M501.4,209c0,4.4-3.6,8-8,8H371.3c-4.4,0-8-3.6-8-8s3.6-8,8-8h122.1
	C497.8,201,501.4,204.6,501.4,209z M386.7,166h82.8c4.4,0,8,3.6,8,8s-3.6,8-8,8h-82.8c-4.4,0-8-3.6-8-8S382.3,166,386.7,166z
	 M404.8,29c0-4.4,3.6-8,8-8h62.1c4.4,0,8,3.6,8,8s-3.6,8-8,8h-62.1C408.3,37,404.8,33.4,404.8,29z M89.8,29c0,4.4-3.6,8-8,8H29.8
	c-4.4,0-8-3.6-8-8s3.6-8,8-8h52.1C86.2,21,89.8,24.6,89.8,29z M401.3,114.2H305c-4.4,0-8-3.6-8-8s3.6-8,8-8h96.3c4.4,0,8,3.6,8,8
	S405.7,114.2,401.3,114.2z M452.8,67.1c0-5-4.1-9-9-9s-9,4.1-9,9s4.1,9,9,9S452.8,72.1,452.8,67.1z M413.8,76.2c5,0,9-4.1,9-9
	s-4.1-9-9-9s-9,4.1-9,9S408.8,76.2,413.8,76.2z"></path>
</svg>