<svg version="1.1" id="Layer_1" xmlns="http://www.w3.org/2000/svg" xmlns:xlink="http://www.w3.org/1999/xlink" x="0px" y="0px" viewBox="0 0 512 512" enable-background="new 0 0 512 512" xml:space="preserve">
<linearGradient id="SVGID_1_" gradientUnits="userSpaceOnUse" x1="264.5067" y1="429.7766" x2="264.5067" y2="78.6372" class="gradient-element">
	<stop offset="0" class="primary-color-gradient" style="stop-color: #FFA4ED"></stop>
	<stop offset="1" class="secondary-color-gradient" style="stop-color: #DB81DA"></stop>
</linearGradient>
<path fill="url(#SVGID_1_)" d="M442,256.2c0,36.5-29.6,66-66,66c-35.2,0-64-27.5-65.9-62.3c3.2-1.1,7.8-0.8,9.4,2.9
	c8.8,21.3,24.4,36.9,46.3,40.4c18.7,2.9,31-4.2,37.1-11.1c17.4-19.9,19-61.5-26.1-85.1c-7.1-3.7-2.9-15,5.1-15h0.3
	c4.9,0,9.6,0.5,14.2,1.4C422.8,202,442,226.9,442,256.2z M173.2,79.6c-4.6-0.9-9.4-1.4-14.2-1.4h-0.3c-8,0-12.1,11.4-5.1,15
	c45.1,23.6,43.5,65.1,26.1,85.1c-6,6.9-18.4,14-37.1,11.1c-21.9-3.5-37.5-19.1-46.3-40.4c-1.5-3.7-6.2-3.9-9.4-2.9
	c2,34.7,30.7,62.3,65.9,62.3c36.5,0,66-29.6,66-66C218.9,113.1,199.8,88.2,173.2,79.6z M173.2,306.1c-4.6-0.9-9.4-1.4-14.2-1.4h-0.3
	c-8,0-12.1,11.4-5.1,15c45.1,23.6,43.5,65.1,26.1,85.1c-6,6.9-18.4,14-37.1,11.1c-21.9-3.5-37.5-19.1-46.3-40.4
	c-1.5-3.7-6.2-3.9-9.4-2.9c2,34.7,30.7,62.3,65.9,62.3c36.5,0,66-29.6,66-66C218.9,339.5,199.8,314.6,173.2,306.1z"></path>
<path d="M376.1,182c-25.9,0-48.8,13.4-62,33.7l-91.9-46.2c3.1-8.1,4.8-17,4.8-26.2c0-40.8-33.2-74-74-74c-40.8,0-74,33.2-74,74
	s33.2,74,74,74c25.9,0,48.7-13.4,61.9-33.5l92,46.2c-3,8.1-4.7,16.8-4.7,26c0,9.9,2,19.3,5.5,28l-99.3,48.9c0,0,0,0,0,0c0,0,0,0,0,0
	c-0.1,0-0.2,0.1-0.3,0.2c-0.1,0.1-0.3,0.2-0.4,0.2c-0.1,0.1-0.2,0.1-0.2,0.2c-0.1,0.1-0.3,0.2-0.4,0.3c-0.1,0.1-0.1,0.1-0.2,0.2
	c-0.1,0.1-0.3,0.2-0.4,0.3c-0.1,0.1-0.1,0.1-0.2,0.2c-0.1,0.1-0.3,0.3-0.4,0.4c0,0.1-0.1,0.1-0.1,0.2c-0.1,0.1-0.2,0.3-0.3,0.4
	c0,0.1-0.1,0.1-0.1,0.2c-0.1,0.2-0.2,0.3-0.3,0.5c0,0.1-0.1,0.1-0.1,0.2c-0.1,0.2-0.2,0.3-0.3,0.5c0,0.1,0,0.1-0.1,0.2
	c-0.1,0.2-0.2,0.4-0.2,0.6c0,0,0,0.1,0,0.1c-0.1,0.2-0.1,0.4-0.2,0.6c0,0,0,0.1,0,0.1c0,0.2-0.1,0.4-0.1,0.6c0,0,0,0.1,0,0.1
	c0,0.2,0,0.4,0,0.6c0,0,0,0.1,0,0.1c0,0.2,0,0.4,0,0.7c0,0,0,0.1,0,0.1c0,0.2,0,0.4,0.1,0.7c0,0,0,0.1,0,0.1c0,0.2,0.1,0.4,0.1,0.6
	c0,0,0,0.1,0,0.1c0.1,0.2,0.1,0.4,0.2,0.6c0,0,0,0.1,0.1,0.1c0.1,0.2,0.1,0.4,0.2,0.6c0,0,0,0,0,0.1c0,0,0,0,0,0
	c4.1,8.2,6.2,17,6.2,26.2c0,32-26,58-58,58c-32,0-58-26-58-58c0-32,26-58,58-58c13.8,0,27.1,4.9,37.6,13.9c3.4,2.9,8.4,2.5,11.3-0.9
	c2.9-3.4,2.5-8.4-0.9-11.3c-13.4-11.4-30.4-17.7-48-17.7c-40.8,0-74,33.2-74,74c0,40.8,33.2,74,74,74c40.8,0,74-33.2,74-74
	c0-9-1.6-17.7-4.7-26l93-45.8c13.4,19.3,35.6,31.9,60.8,31.9c40.8,0,74-33.2,74-74C450,215.2,416.8,182,376.1,182z M153,201.3
	c-32,0-58-26-58-58s26-58,58-58c32,0,58,26,58,58S184.9,201.3,153,201.3z M376.1,314c-32,0-58-26-58-58s26-58,58-58
	c32,0,58,26,58,58S408,314,376.1,314z"></path>
<path fill="#DB81DA" class="secondary-color" d="M390.3,41l-72.6,72.6L246,41.9L390.3,41z"></path>
<path d="M485.7,256c0,60.5-49.2,109.6-109.6,109.6c-4.4,0-8-3.6-8-8s3.6-8,8-8c51.6,0,93.6-42,93.6-93.6s-42-93.6-93.6-93.6
	c-4.4,0-8-3.6-8-8s3.6-8,8-8C436.5,146.4,485.7,195.5,485.7,256z M148.1,260.2c-60.5,0-109.6,49.2-109.6,109.6c0,4.4,3.6,8,8,8
	s8-3.6,8-8c0-51.6,42-93.6,93.6-93.6c4.4,0,8-3.6,8-8S152.5,260.2,148.1,260.2z M30,74.8h3.9v3.9c0,4.4,3.6,8,8,8s8-3.6,8-8v-3.9
	h3.9c4.4,0,8-3.6,8-8s-3.6-8-8-8h-3.9v-3.9c0-4.4-3.6-8-8-8s-8,3.6-8,8v3.9H30c-4.4,0-8,3.6-8,8S25.6,74.8,30,74.8z M288.8,444.3
	h-3.9v-3.9c0-4.4-3.6-8-8-8s-8,3.6-8,8v3.9H265c-4.4,0-8,3.6-8,8s3.6,8,8,8h3.9v3.9c0,4.4,3.6,8,8,8s8-3.6,8-8v-3.9h3.9
	c4.4,0,8-3.6,8-8S293.2,444.3,288.8,444.3z M46.4,244.5c-14.6,0-26.4-11.8-26.4-26.4c0-14.6,11.8-26.4,26.4-26.4
	s26.4,11.8,26.4,26.4C72.8,232.7,61,244.5,46.4,244.5z M46.4,228.5c5.7,0,10.4-4.7,10.4-10.4c0-5.7-4.7-10.4-10.4-10.4
	S36,212.4,36,218.1C36,223.9,40.7,228.5,46.4,228.5z M375,454.2c0,5.5-4.4,9.9-9.9,9.9s-9.9-4.4-9.9-9.9s4.4-9.9,9.9-9.9
	S375,448.7,375,454.2z M430.3,454.2c0,5.5-4.4,9.9-9.9,9.9c-5.5,0-9.9-4.4-9.9-9.9s4.4-9.9,9.9-9.9
	C425.9,444.3,430.3,448.7,430.3,454.2z M485.7,454.2c0,5.5-4.4,9.9-9.9,9.9c-5.5,0-9.9-4.4-9.9-9.9s4.4-9.9,9.9-9.9
	C481.2,444.3,485.7,448.7,485.7,454.2z M485.5,63.9h-15.8V48.1c0-4.4-3.6-8-8-8s-8,3.6-8,8v15.8H438c-4.4,0-8,3.6-8,8s3.6,8,8,8
	h15.8v15.8c0,4.4,3.6,8,8,8s8-3.6,8-8V79.9h15.8c4.4,0,8-3.6,8-8S489.9,63.9,485.5,63.9z M99.6,463.3H40.4c-4.4,0-8,3.6-8,8
	s3.6,8,8,8h59.2c4.4,0,8-3.6,8-8S104,463.3,99.6,463.3z"></path>
</svg>