<svg version="1.1" id="Layer_1" xmlns="http://www.w3.org/2000/svg" xmlns:xlink="http://www.w3.org/1999/xlink" x="0px" y="0px" viewBox="0 0 512 512" enable-background="new 0 0 512 512" xml:space="preserve">
<linearGradient id="SVGID_1_" gradientUnits="userSpaceOnUse" x1="264.4388" y1="454.9649" x2="264.4388" y2="112.4376" class="gradient-element">
	<stop offset="0" class="primary-color-gradient" style="stop-color: #FFA4ED"></stop>
	<stop offset="1" class="secondary-color-gradient" style="stop-color: #DB81DA"></stop>
</linearGradient>
<path fill="url(#SVGID_1_)" d="M432.6,91.5V255c0,129.2-164.5,192.4-171.5,195l-3.6,1.3l-3.6-1.3c-5.7-2.2-115.1-44.2-156.1-129.1
	c-4.6-9.6,2.4-20.8,13-21h75.4c14.8,24.1,41.4,40.2,71.8,40.2c39.4,0,72.4-27,81.6-63.5c6.6-9.2,10.6-20.5,10.6-32.7v-86.6
	c0-18.9,12.7-35.6,31-40.3c21.3-5.5,35.2-14.7,35.5-14.8L432.6,91.5z"></path>
<path d="M256,332.2c-42,0-76.2-34.2-76.2-76.2c0-42,34.2-76.2,76.2-76.2c15.1,0,29.7,4.4,42.2,12.7c3.7,2.4,8.6,1.5,11.1-2.2
	c2.5-3.7,1.5-8.6-2.2-11.1c-15.1-10.1-32.8-15.4-51.1-15.4c-50.8,0-92.2,41.4-92.2,92.2s41.4,92.2,92.2,92.2s92.2-41.4,92.2-92.2
	c0-15.2-3.8-30.2-10.9-43.6l0.4-0.4c2.8-2.9,3-7.6,0.4-10.7c-2.6-3.1-7.2-3.8-10.6-1.5l-90.7,60.9l-25.6-16.2
	c-3.1-1.9-7.1-1.6-9.7,0.9c-2.7,2.5-3.3,6.4-1.6,9.6l29,54.3c1.2,2.3,3.4,3.8,5.9,4.2c0.4,0.1,0.7,0.1,1.1,0.1
	c2.1,0,4.2-0.9,5.7-2.4l83.8-86.5c4.4,9.8,6.7,20.5,6.7,31.4C332.2,298,298,332.2,256,332.2z M237.8,292.1l-9.6-17.9l4.4,2.8
	c2.7,1.7,6.1,1.6,8.7-0.1l32.1-21.5L237.8,292.1z M438.8,91.5V255c0,4.4-3.6,8-8,8s-8-3.6-8-8V106.5l-3.5,2.4
	c-1.3,0.9-31,20.2-70.9,20.2c-39.5,0-89.2-39-91.3-40.7l-1.4-1.1l-1.4,1.1c-2.1,1.7-51.8,40.7-91.3,40.7c-14.5,0-29.2-2.5-43.8-7.5
	c-4.2-1.4-6.4-6-5-10.2c1.4-4.2,6-6.4,10.2-5c12.9,4.4,25.9,6.7,38.6,6.7c34,0,80.9-36.8,81.3-37.2l6.3-5.1c2.9-2.4,7.1-2.4,10,0
	l6.4,5.1c0.4,0.3,47.3,37.2,81.3,37.2c34.9,0,61.8-17.4,62-17.5l15.9-10.7c2.5-1.6,5.6-1.8,8.2-0.4S438.8,88.6,438.8,91.5z
	 M421.8,326.2C380,410.4,274.2,452.9,262.2,457.5l-3.7,1.4c-0.9,0.3-1.8,0.5-2.8,0.5c-0.9,0-1.9-0.2-2.8-0.5l-3.6-1.3
	c-8-3.1-49.6-19.8-90.4-51.2c-25-19.2-44.9-40.2-59.2-62.4c-18-27.9-27.1-57.9-27.1-88.9v-79.8c0-4.4,3.6-8,8-8s8,3.6,8,8V255
	C88.7,375.3,238,436,255,442.5l0.7,0.3l0.8-0.3c11.3-4.3,111.8-44.7,150.9-123.4c2-4,6.8-5.6,10.7-3.6
	C422.2,317.4,423.8,322.2,421.8,326.2z M72.7,135.3V90.5c0-4.4,3.6-8,8-8s8,3.6,8,8v44.8c0,4.4-3.6,8-8,8S72.7,139.7,72.7,135.3z"></path>
<g>
	<path fill="#FFA4ED" class="primary-color" d="M275.6,59.2V37.4h131.6v21.8H275.6z"></path>
	<path fill="#DB81DA" class="secondary-color" d="M19.9,496.6v-29.1H217v29.1H19.9z"></path>
</g>
<path d="M393.8,280.9c0-4.4,3.6-8,8-8c11.4,0,20.8-9.3,20.8-20.8c0-4.4,3.6-8,8-8s8,3.6,8,8c0,20.3-16.5,36.8-36.8,36.8
	C397.4,288.9,393.8,285.3,393.8,280.9z M401.8,310.1c11.4,0,20.8,9.3,20.8,20.8c0,4.4,3.6,8,8,8s8-3.6,8-8
	c0-20.3-16.5-36.8-36.8-36.8c-4.4,0-8,3.6-8,8S397.4,310.1,401.8,310.1z M62.4,51c0-4.4-3.6-8-8-8H15.7c-4.4,0-8,3.6-8,8s3.6,8,8,8
	h38.7C58.8,59,62.4,55.4,62.4,51z M91.5,144c4.4,0,8-3.6,8-8s-3.6-8-8-8H32.3c-4.4,0-8,3.6-8,8s3.6,8,8,8H91.5z M448.4,56.3h3.9v3.9
	c0,4.4,3.6,8,8,8s8-3.6,8-8v-3.9h3.9c4.4,0,8-3.6,8-8s-3.6-8-8-8h-3.9v-3.9c0-4.4-3.6-8-8-8s-8,3.6-8,8v3.9h-3.9c-4.4,0-8,3.6-8,8
	S444,56.3,448.4,56.3z M459.8,252.1c0-4.4-3.6-8-8-8s-8,3.6-8,8c0,20.3,16.5,36.8,36.8,36.8c4.4,0,8-3.6,8-8s-3.6-8-8-8
	C469.1,272.9,459.8,263.6,459.8,252.1z M85.7,394.8H69.9V379c0-4.4-3.6-8-8-8s-8,3.6-8,8v15.8H38.1c-4.4,0-8,3.6-8,8s3.6,8,8,8h15.8
	v15.8c0,4.4,3.6,8,8,8s8-3.6,8-8v-15.8h15.8c4.4,0,8-3.6,8-8S90.1,394.8,85.7,394.8z M480.6,294.1c-20.3,0-36.8,16.5-36.8,36.8
	c0,4.4,3.6,8,8,8s8-3.6,8-8c0-11.4,9.3-20.8,20.8-20.8c4.4,0,8-3.6,8-8S485,294.1,480.6,294.1z M395.4,443.3h-59.2c-4.4,0-8,3.6-8,8
	s3.6,8,8,8h59.2c4.4,0,8-3.6,8-8S399.8,443.3,395.4,443.3z M460.2,394.8H401c-4.4,0-8,3.6-8,8s3.6,8,8,8h59.2c4.4,0,8-3.6,8-8
	S464.6,394.8,460.2,394.8z M190.2,43c-4.4,0-8,3.6-8,8c0,5.7-4.7,10.4-10.4,10.4s-10.4-4.7-10.4-10.4c0-4.4-3.6-8-8-8s-8,3.6-8,8
	c0,14.6,11.8,26.4,26.4,26.4s26.4-11.8,26.4-26.4C198.2,46.6,194.6,43,190.2,43z M121.1,167.2H61.9c-4.4,0-8,3.6-8,8s3.6,8,8,8h59.2
	c4.4,0,8-3.6,8-8S125.5,167.2,121.1,167.2z"></path>
</svg>