<svg version="1.1" id="Layer_1" xmlns="http://www.w3.org/2000/svg" xmlns:xlink="http://www.w3.org/1999/xlink" x="0px" y="0px" viewBox="0 0 512 512" enable-background="new 0 0 512 512" xml:space="preserve">
<path fill="#DB81DA" class="secondary-color" d="M15.3,147.5V103h44.5v44.5H15.3z M59.8,36.1H15.3v44.5h44.5V36.1z M128.2,36.1H83.7v44.5h44.5V36.1z"></path>
<path fill="#000000" d="M291.6,150.7h-91.7c-4.4,0-8-3.6-8-8s3.6-8,8-8h91.7c4.4,0,8,3.6,8,8S296,150.7,291.6,150.7z M337.6,442.8
	c-4.4,0-8,3.6-8,8c0,5.7-4.7,10.4-10.4,10.4s-10.4-4.7-10.4-10.4c0-4.4-3.6-8-8-8s-8,3.6-8,8c0,14.6,11.8,26.4,26.4,26.4
	s26.4-11.8,26.4-26.4C345.6,446.4,342,442.8,337.6,442.8z M144.5,420.4h-43c-4.4,0-8,3.6-8,8s3.6,8,8,8h43c4.4,0,8-3.6,8-8
	S148.9,420.4,144.5,420.4z M137.3,450.4H63.5c-4.4,0-8,3.6-8,8s3.6,8,8,8h73.8c4.4,0,8-3.6,8-8S141.7,450.4,137.3,450.4z
	 M291.6,71.5h3.9v3.9c0,4.4,3.6,8,8,8s8-3.6,8-8v-3.9h3.9c4.4,0,8-3.6,8-8s-3.6-8-8-8h-3.9v-3.9c0-4.4-3.6-8-8-8s-8,3.6-8,8v3.9
	h-3.9c-4.4,0-8,3.6-8,8S287.2,71.5,291.6,71.5z M480.1,50.1h-3.9v-3.9c0-4.4-3.6-8-8-8s-8,3.6-8,8v3.9h-3.9c-4.4,0-8,3.6-8,8
	s3.6,8,8,8h3.9V70c0,4.4,3.6,8,8,8s8-3.6,8-8v-3.9h3.9c4.4,0,8-3.6,8-8S484.5,50.1,480.1,50.1z M460.6,452.6c-4.2,4.2-4.2,11,0,15.2
	s11,4.2,15.2,0c4.2-4.2,4.2-11,0-15.2C471.6,448.4,464.8,448.4,460.6,452.6z"></path>
<linearGradient id="SVGID_1_" gradientUnits="userSpaceOnUse" x1="282.047" y1="395.0958" x2="282.047" y2="298.0853" class="gradient-element">
	<stop offset="0" class="primary-color-gradient" style="stop-color: #FFA4ED"></stop>
	<stop offset="1" class="secondary-color-gradient" style="stop-color: #DB81DA"></stop>
</linearGradient>
<path fill="url(#SVGID_1_)" d="M97.2,335.5c-1.1-1.6-2.2-3.3-3.2-4.9c-3.7-5.7,0.4-13.2,7.2-13.2h361.7c6.4,0,10.6,6.8,7.6,12.5
	c0,0,0,0.1-0.1,0.1c-9,16.9-24.5,37.9-42.4,59.8c-1.5,1.8-3.6,2.9-5.9,3.1c-1.8,0.1-3.6,0.2-5.7,0.2c-16.3,0-25.1-4.2-32.2-7.5
	c-6.1-2.9-10.9-5.2-21.5-5.2c-10.6,0-15.4,2.3-21.5,5.2c-7.1,3.3-15.9,7.5-32.2,7.5c-16.3,0-25.1-4.2-32.2-7.5
	c-6.1-2.9-10.9-5.2-21.5-5.2c-10.6,0-15.4,2.3-21.5,5.2c-7.1,3.3-15.9,7.5-32.2,7.5c-16.1,0-24.9-4.1-31.9-7.3
	c-0.2-0.1-0.4-0.2-0.6-0.3c-0.8-0.4-1.5-0.8-2.3-1.1c-5.1-2.3-9.9-3.9-19-3.9c-4,0-7.2,0.3-10,0.9c-3.2,0.7-6.5-0.5-8.5-3
	C118,364,105.8,348.1,97.2,335.5z"></path>
<path d="M158.9,261.7v-37.4h-34.5v17.3c0,4.4-3.6,8-8,8c-4.4,0-8-3.6-8-8v-25.3c0-4.4,3.6-8,8-8h50.5c4.4,0,8,3.6,8,8v45.4
	c0,4.4-3.6,8-8,8S158.9,266.1,158.9,261.7z M169.4,342.9C169.4,342.9,169.4,342.9,169.4,342.9l-0.3-0.1c-7.4-3.4-17.5-8.1-35.4-8.1
	c-17.9,0-28,4.7-35.4,8.1l-0.2,0.1c-4,1.9-5.7,6.6-3.9,10.6s6.6,5.8,10.6,3.9l0.2-0.1c6.7-3.1,14.3-6.6,28.7-6.6
	c14.4,0,22,3.5,28.7,6.6l0.1,0.1c6.4,3.1,12.4,5.9,24.9,5.9c4.4,0,8-3.6,8-8s-3.6-8-8-8C178.6,347.3,175.1,345.6,169.4,342.9z
	 M397.6,299.1c0-4.4-3.6-8-8-8H169.1l-22.9-22.9c-1.5-1.5-3.5-2.3-5.7-2.3H45.4c-4.4,0-8,3.6-8,8s3.6,8,8,8h91.8l22.9,22.9
	c1.5,1.5,3.5,2.3,5.7,2.3h223.9C394,307.1,397.6,303.5,397.6,299.1z M470.1,372.6c-12.5,0-18.5,2.9-24.9,5.9l-0.1,0.1
	c-6.7,3.1-14.3,6.6-28.7,6.6c-14.4,0-22-3.5-28.7-6.6l-0.1-0.1c-6.4-3.1-12.4-5.9-24.9-5.9s-18.5,2.9-24.9,5.9l-0.1,0.1
	c-6.7,3.1-14.3,6.6-28.7,6.6c-14.4,0-22-3.5-28.7-6.6l-0.1-0.1c-6.4-3.1-12.4-5.9-24.9-5.9c-12.5,0-18.5,2.9-24.9,5.9l-0.1,0.1
	c-6.7,3.1-14.3,6.6-28.7,6.6c-14.3,0-21.9-3.5-28.6-6.6c-1-0.6-1.9-1-3-1.5c-6.3-2.8-12.2-4.6-22.2-4.6c-10.1,0-16,1.8-22.2,4.7
	c-0.5,0.2-1,0.4-1.4,0.6c-0.3,0.1-0.6,0.3-1,0.4c-0.1,0-0.2,0.1-0.3,0.1c-2.8,1.3-5.7,2.7-9.1,3.8c0,0-0.1,0-0.1,0
	c-5.7,1.9-11.9,2.9-19.5,2.9c-13.1,0-24.7-14.8-32.3-25.9c-26-38.5-38.7-72.9-38.7-105v-4.6h67.8c4.4,0,8-3.6,8-8v-42.5h295.2
	c4.4,0,8-3.6,8-8v-50.5c0-4.4-3.6-8-8-8s-8,3.6-8,8v42.5H91.1c-4.4,0-8,3.6-8,8v42.5H15.3c-4.4,0-8,3.6-8,8v12.6
	c0,35.5,13.5,72.8,41.4,114c9.6,14.1,24.8,32.9,45.5,32.9c9.2,0,17.3-1.2,24.6-3.7c4.2-1.4,7.7-3,10.9-4.5c0.4-0.2,0.8-0.4,1.2-0.6
	c0.4-0.2,0.7-0.3,1.1-0.5c0.1,0,0.2-0.1,0.3-0.2c3.9-1.9,7.5-3.3,15.5-3.3c7.9,0,11.6,1.4,15.7,3.2c0,0,0.1,0,0.1,0
	c0.6,0.3,1.1,0.5,1.7,0.9c0.2,0.1,0.4,0.2,0.6,0.3l0.2,0.1c7.4,3.4,17.5,8.1,35.4,8.1c17.9,0,28-4.7,35.4-8.1l0.2-0.1
	c0,0,0.1,0,0.1,0c5.5-2.6,9.1-4.4,18-4.4c8.9,0,12.3,1.7,18,4.4c0,0,0.1,0,0.1,0l0.2,0.1c7.4,3.4,17.5,8.1,35.4,8.1
	c17.9,0,28-4.7,35.4-8.1l0.2-0.1c0,0,0.1,0,0.1,0c5.7-2.7,9.2-4.4,18-4.4c8.9,0,12.3,1.7,18,4.4c0,0,0.1,0,0.1,0l0.2,0.1
	c7.4,3.4,17.5,8.1,35.4,8.1c17.9,0,28-4.7,35.4-8.1l0.2-0.1c0,0,0.1,0,0.1,0c5.7-2.7,9.2-4.4,18-4.4c4.4,0,8-3.6,8-8
	S474.5,372.6,470.1,372.6z M242.7,274.9c4.4,0,8-3.6,8-8v-50.5c0-4.4-3.6-8-8-8h-50.5c-4.4,0-8,3.6-8,8s3.6,8,8,8h42.5v42.5
	C234.7,271.3,238.3,274.9,242.7,274.9z M495.4,347.3h-25.3c-17.9,0-28,4.7-35.4,8.1l-0.2,0.1c0,0-0.1,0-0.1,0
	c-5.7,2.7-9.2,4.4-18,4.4c-4.4,0-8,3.6-8,8s3.6,8,8,8c12.5,0,18.5-2.9,24.9-5.9l0.1-0.1c6.7-3.1,14.3-6.6,28.7-6.6h25.3
	c4.4,0,8-3.6,8-8S499.8,347.3,495.4,347.3z M318.5,274.9c4.4,0,8-3.6,8-8v-50.5c0-4.4-3.6-8-8-8H268c-4.4,0-8,3.6-8,8s3.6,8,8,8
	h42.5v42.5C310.5,271.3,314.1,274.9,318.5,274.9z M495.4,208.3h-17.3v-67.8c0-4.4-3.6-8-8-8h-25.3c-4.4,0-8,3.6-8,8s3.6,8,8,8h17.3
	v67.8c0,4.4,3.6,8,8,8h17.3v4.6c0,27.9-6.6,58.9-18.1,85.2c-1.3,2.9-2.6,5.5-3.8,7.9h-24.2c-4.4,0-8,3.6-8,8s3.6,8,8,8h29.1
	c3,0,5.7-1.6,7.1-4.2c2-3.8,4.1-8,6.4-13.1c0,0,0-0.1,0.1-0.1c12.6-28.6,19.5-61.2,19.5-91.6v-12.6
	C503.4,211.9,499.8,208.3,495.4,208.3z M402.3,249v-32.7c0-4.4-3.6-8-8-8h-50.5c-4.4,0-8,3.6-8,8s3.6,8,8,8h42.5v21.2L369.8,261
	c-3.2,3-3.4,8.1-0.4,11.3c1.6,1.7,3.7,2.5,5.8,2.5c2,0,3.9-0.7,5.5-2.2l19.1-17.8C401.4,253.4,402.3,251.3,402.3,249z"></path>
</svg>