<svg version="1.1" id="Layer_1" xmlns="http://www.w3.org/2000/svg" xmlns:xlink="http://www.w3.org/1999/xlink" x="0px" y="0px" viewBox="0 0 512 512" enable-background="new 0 0 512 512" xml:space="preserve">
<linearGradient id="SVGID_1_" gradientUnits="userSpaceOnUse" x1="339.2942" y1="349.164" x2="339.2942" y2="178.1726" class="gradient-element">
	<stop offset="0" class="primary-color-gradient" style="stop-color: #FFA4ED"></stop>
	<stop offset="1" class="secondary-color-gradient" style="stop-color: #DB81DA"></stop>
</linearGradient>
<path fill="url(#SVGID_1_)" d="M393.4,185.7h82.2l-69,159h-199l-2-5.3c-10.2-27,9.8-55.9,38.7-55.9H290c19.1,0,36.3-11.6,43.6-29.3
	l16-39.1C356.8,197.3,374.1,185.7,393.4,185.7z"></path>
<path d="M183.4,303.1l-50.3-133.5H89.6c-4.4,0-8-3.6-8-8s3.6-8,8-8h49c3.3,0,6.3,2.1,7.5,5.2l54.4,144.3h15c4.4,0,8,3.6,8,8
	s-3.6,8-8,8H195c0,0,0,0,0,0c0,0,0,0,0,0h-47.2c-4.4,0-8-3.6-8-8s3.6-8,8-8H183.4z M213.1,352.7l-19.7,50h27.1
	c6.7-16.3,22.7-27.8,41.4-27.8s34.7,11.5,41.4,27.8h51c6.7-16.3,22.7-27.8,41.4-27.8c24.7,0,44.7,20.1,44.7,44.7
	s-20.1,44.7-44.7,44.7s-44.7-20.1-44.7-44.7c0-0.3,0-0.6,0-0.9h-44.4c0,0.3,0,0.6,0,0.9c0,24.7-20.1,44.7-44.7,44.7
	s-44.7-20.1-44.7-44.7c0-0.3,0-0.6,0-0.9h-35.6c-2.6,0-5.1-1.3-6.6-3.5c-1.5-2.2-1.8-5-0.8-7.4l21.7-55.1h-48.1c-4.4,0-8-3.6-8-8
	s3.6-8,8-8h253.6l62.1-143H193.8c-4.4,0-8-3.6-8-8s3.6-8,8-8h281.9c2.7,0,5.2,1.4,6.7,3.6c1.5,2.3,1.7,5.1,0.7,7.6l-69,159
	c-1.3,2.9-4.2,4.8-7.3,4.8H215.5H213.1z M366.9,419.6c0,15.8,12.9,28.7,28.7,28.7s28.7-12.9,28.7-28.7s-12.9-28.7-28.7-28.7
	S366.9,403.8,366.9,419.6z M233.2,419.6c0,15.8,12.9,28.7,28.7,28.7s28.7-12.9,28.7-28.7s-12.9-28.7-28.7-28.7
	S233.2,403.8,233.2,419.6z"></path>
<g>
	<path fill="#FFA4ED" class="primary-color" d="M483.5,103.1v35.8H288.5v-35.8H483.5z"></path>
	<path fill="#DB81DA" class="secondary-color" d="M487.7,41.4v39.3H284.3V41.4H487.7z"></path>
</g>
<path d="M223.5,80.2c0,4.4-3.6,8-8,8h-67.8c-4.4,0-8-3.6-8-8s3.6-8,8-8h67.8C219.9,72.2,223.5,75.8,223.5,80.2z M166.2,455.2H52.5
	c-4.4,0-8,3.6-8,8s3.6,8,8,8h113.7c4.4,0,8-3.6,8-8S170.6,455.2,166.2,455.2z M44.5,264v15.8c0,4.4,3.6,8,8,8s8-3.6,8-8V264h15.8
	c4.4,0,8-3.6,8-8s-3.6-8-8-8H60.5v-15.8c0-4.4-3.6-8-8-8s-8,3.6-8,8V248H28.7c-4.4,0-8,3.6-8,8s3.6,8,8,8H44.5z M45.8,76.4h3.9v3.9
	c0,4.4,3.6,8,8,8s8-3.6,8-8v-3.9h3.9c4.4,0,8-3.6,8-8s-3.6-8-8-8h-3.9v-3.9c0-4.4-3.6-8-8-8s-8,3.6-8,8v3.9h-3.9c-4.4,0-8,3.6-8,8
	S41.4,76.4,45.8,76.4z M476,343.4c0,5.5-4.4,9.9-9.9,9.9c-5.5,0-9.9-4.4-9.9-9.9c0-5.5,4.4-9.9,9.9-9.9
	C471.6,333.5,476,337.9,476,343.4z M46,384.4c0,5.5-4.4,9.9-9.9,9.9s-9.9-4.4-9.9-9.9c0-5.5,4.4-9.9,9.9-9.9S46,379,46,384.4z"></path>
</svg>