<svg version="1.1" id="Layer_1" xmlns="http://www.w3.org/2000/svg" xmlns:xlink="http://www.w3.org/1999/xlink" x="0px" y="0px" viewBox="0 0 512 512" enable-background="new 0 0 512 512" xml:space="preserve">
<linearGradient id="SVGID_1_" gradientUnits="userSpaceOnUse" x1="256.1434" y1="438.0468" x2="256.1434" y2="202.0193" class="gradient-element">
	<stop offset="0" class="primary-color-gradient" style="stop-color: #FFA4ED"></stop>
	<stop offset="1" class="secondary-color-gradient" style="stop-color: #DB81DA"></stop>
</linearGradient>
<path fill="url(#SVGID_1_)" d="M420.2,428l-4.1,23.2h-13.7H256.1H109.7c-9.7,0-17.6-7.9-17.6-17.6v0c0-9.7,7.9-17.6,17.6-17.6h100.1
	c25.6,0,46.4-20.8,46.4-46.4V256.4c0-33.7,27.3-60.9,60.9-60.9h85.3v190.8L420.2,428z"></path>
<path d="M406.5,463.1H105.8c-6.9,0-13.5-3.4-17.6-9c-4-5.5-5.1-12.7-3.1-19.2l12.7-49.1V209.1c0-11.9,9.7-21.7,21.7-21.7h46.7v-19.3
	c0-49.6,40.4-90,90-90s90,40.4,90,90v27.3c0,4.4-3.6,8-8,8H119.4c-3.1,0-5.7,2.5-5.7,5.7v169.7h273c4.4,0,8,3.6,8,8s-3.6,8-8,8H112
	l-11.4,44.3c0,0.2-0.1,0.4-0.2,0.5c-0.6,1.7-0.3,3.6,0.8,5.1c1.1,1.5,2.8,2.4,4.6,2.4h300.7c1.8,0,3.5-0.9,4.6-2.4
	c1.1-1.5,1.4-3.4,0.8-5.1c-0.1-0.2-0.1-0.4-0.2-0.5L398.8,389c-0.1-0.4-0.2-0.8-0.2-1.2c0-0.4-0.1-0.8-0.1-1.2V209.1
	c0-3.1-2.5-5.7-5.7-5.7h-30.9c-4.4,0-8-3.6-8-8s3.6-8,8-8h30.9c11.9,0,21.7,9.7,21.7,21.7v176.7l12.7,49.1
	c2.1,6.5,0.9,13.7-3.1,19.2C420,459.8,413.5,463.1,406.5,463.1z M182.1,187.4h148v-19.3c0-40.8-33.2-74-74-74c-40.8,0-74,33.2-74,74
	V187.4z"></path>
<path fill="#000000" d="M462.2,290.4c0,4.4-3.6,8-8,8h-43c-4.4,0-8-3.6-8-8s3.6-8,8-8h43C458.6,282.4,462.2,286,462.2,290.4z
	 M432.7,312.4h-73.8c-4.4,0-8,3.6-8,8s3.6,8,8,8h73.8c4.4,0,8-3.6,8-8S437.1,312.4,432.7,312.4z M400.7,136.5h15.8v15.8
	c0,4.4,3.6,8,8,8s8-3.6,8-8v-15.8h15.8c4.4,0,8-3.6,8-8s-3.6-8-8-8h-15.8v-15.8c0-4.4-3.6-8-8-8s-8,3.6-8,8v15.8h-15.8
	c-4.4,0-8,3.6-8,8S396.3,136.5,400.7,136.5z M65.6,68.3c-4.4,0-8,3.6-8,8c0,11.4-9.3,20.8-20.8,20.8c-4.4,0-8,3.6-8,8s3.6,8,8,8
	c20.3,0,36.8-16.5,36.8-36.8C73.6,71.9,70,68.3,65.6,68.3z M115.6,97.1c-11.4,0-20.8-9.3-20.8-20.8c0-4.4-3.6-8-8-8s-8,3.6-8,8
	c0,20.3,16.5,36.8,36.8,36.8c4.4,0,8-3.6,8-8S120,97.1,115.6,97.1z M115.6,118.3c-20.3,0-36.8,16.5-36.8,36.8c0,4.4,3.6,8,8,8
	s8-3.6,8-8c0-11.4,9.3-20.8,20.8-20.8c4.4,0,8-3.6,8-8S120,118.3,115.6,118.3z M36.8,118.3c-4.4,0-8,3.6-8,8s3.6,8,8,8
	c11.4,0,20.8,9.3,20.8,20.8c0,4.4,3.6,8,8,8s8-3.6,8-8C73.6,134.8,57.1,118.3,36.8,118.3z M50.9,334c-3.1-3.1-8.2-3.1-11.3,0
	l-2.8,2.8l-2.8-2.8c-3.1-3.1-8.2-3.1-11.3,0c-3.1,3.1-3.1,8.2,0,11.3l2.7,2.7l-2.7,2.7c-3.1,3.1-3.1,8.2,0,11.3
	c1.6,1.6,3.6,2.3,5.7,2.3s4.1-0.8,5.7-2.3l2.8-2.8l2.8,2.8c1.6,1.6,3.6,2.3,5.7,2.3s4.1-0.8,5.7-2.3c3.1-3.1,3.1-8.2,0-11.3
	l-2.7-2.7l2.7-2.7C54,342.2,54,337.2,50.9,334z M51.2,216.6c-5.9,0-10.8,4.8-10.8,10.8s4.8,10.8,10.8,10.8s10.8-4.8,10.8-10.8
	S57.1,216.6,51.2,216.6z"></path>
</svg>