<svg version="1.1" id="Layer_1" xmlns="http://www.w3.org/2000/svg" xmlns:xlink="http://www.w3.org/1999/xlink" x="0px" y="0px" viewBox="0 0 512 512" enable-background="new 0 0 512 512" xml:space="preserve">
<linearGradient id="SVGID_1_" gradientUnits="userSpaceOnUse" x1="200.321" y1="482.9084" x2="200.321" y2="298.843" class="gradient-element">
	<stop offset="0" class="primary-color-gradient" style="stop-color: #FFA4ED"></stop>
	<stop offset="1" class="secondary-color-gradient" style="stop-color: #DB81DA"></stop>
</linearGradient>
<path fill="url(#SVGID_1_)" d="M342.6,282.6c-19.8,0-35.9-16.1-35.9-35.9l0,0v0c0,19.8-16.1,35.9-35.9,35.9
	c-6.3,0-12.2-1.6-17.4-4.5c-2.9,6.3-4.5,13.1-4.5,20.2v94.1c0,1.8-0.2,3.7-0.4,5.4c0,0,0,0.1,0,0.1c-2.7-20.4-17.6-36.9-37.1-41.9
	c-6.3-1.6-12.5,3.1-12.5,9.6V403c0,12.7-10.3,23-23,23h0c-14.9,0-27.1,12.1-27.1,27.1v-20.2h-47c-25.8,0-46.7,17-46.7,37.9v13.8
	h93.7v-0.7h100v0.7h96.5v-202C344.5,282.6,343.6,282.6,342.6,282.6z M248.9,402.6c0,0.6,0,1.3,0,1.9
	C248.9,403.9,248.9,403.2,248.9,402.6z M248.6,398.6c0,0.4,0.1,0.8,0.1,1.2C248.7,399.4,248.6,399,248.6,398.6z M248.8,400.7
	c0,0.4,0.1,0.8,0.1,1.1C248.8,401.4,248.8,401,248.8,400.7z"></path>
<g>
	<path fill="#DB81DA" class="secondary-color" d="M489.2,41.9v46.3h-22.5V41.9H489.2z"></path>
	<path fill="#FFA4ED" class="primary-color" d="M443.9,41.9v46.3h-21.6V41.9H443.9z"></path>
</g>
<path d="M34.8,38.2c0,5-4.1,9-9,9s-9-4.1-9-9s4.1-9,9-9S34.8,33.3,34.8,38.2z M56.2,29.3c-4.9,0-9,4-9,9s4,9,9,9s9-4,9-9
	S61.1,29.3,56.2,29.3z M25.7,58.9c-5,0-9,4.1-9,9s4.1,9,9,9s9-4.1,9-9S30.7,58.9,25.7,58.9z M364.8,105.6
	c-21.1,0-38.2-17.1-38.2-38.2c0-21.1,17.1-38.2,38.2-38.2s38.2,17.1,38.2,38.2C403.1,88.5,385.9,105.6,364.8,105.6z M387.1,67.4
	c0-12.2-10-22.2-22.2-22.2s-22.2,10-22.2,22.2s10,22.2,22.2,22.2S387.1,79.7,387.1,67.4z M450,398c-4.2-1.5-8.7,0.6-10.3,4.8
	l-4.9,13.3c-9.3,25.4-27.7,45.5-52,56.8c-4,1.9-5.7,6.6-3.9,10.6c1.4,2.9,4.2,4.6,7.3,4.6c1.1,0,2.3-0.2,3.4-0.7
	c28.2-13.1,49.6-36.5,60.3-65.8l4.9-13.3C456.3,404.1,454.1,399.5,450,398z"></path>
<path d="M91.1,271.9c8,11.3,21.1,18.7,35.9,18.7c14.8,0,28-7.4,35.9-18.7c8,11.3,21.1,18.7,35.9,18.7c14.8,0,28-7.4,35.9-18.7
	c8,11.3,21.1,18.7,35.9,18.7c14.8,0,28-7.4,35.9-18.7c8,11.3,21.1,18.7,35.9,18.7c24.2,0,43.9-19.7,43.9-43.9
	c0-5.6-1.1-11.1-3.2-16.3c0-0.1,0-0.1-0.1-0.2l-33.2-94c-1.1-3.2-4.2-5.3-7.5-5.3h-71.8c0,0-0.1,0-0.1,0H199c0,0-0.1,0-0.1,0
	s-0.1,0-0.1,0h-71.6c0,0-0.1,0-0.1,0H55.2c-3.4,0-6.4,2.1-7.5,5.3l-33.2,94c-0.1,0.2-0.1,0.3-0.2,0.5c-2,5.1-3,10.5-3,16
	c0,21.5,15.5,39.4,35.9,43.2v194c0,4.4,3.6,8,8,8h93.7h100h93.7c4.4,0,8-3.6,8-8V318.6c0-4.4-3.6-8-8-8s-8,3.6-8,8v157.3h-77.7
	v-71.3c0-32-26-58-58-58c-32,0-58,26-58,58v71.3H63.2v-186C74.7,287.8,84.6,281.2,91.1,271.9z M156.9,404.5c0-23.2,18.8-42,42-42
	c23.2,0,42,18.8,42,42v71.3h-84V404.5z M127.1,274.6c-15,0-27.3-11.9-27.9-26.7l33.6-101h54.8l-8.9,25.3l-20.2,57.4
	c-0.1,0.2-0.1,0.5-0.2,0.7c-2.2,5.3-3.3,10.8-3.3,16.3c0,0,0,0.1,0,0.1C155,262.1,142.5,274.6,127.1,274.6z M198.9,274.6
	c-15,0-27.3-11.9-27.9-26.7l27.9-83.7l27.9,83.7C226.2,262.7,213.9,274.6,198.9,274.6z M270.8,274.6c-15.4,0-27.9-12.5-27.9-27.9
	c0,0,0-0.1,0-0.1c0-5.6-1.1-11-3.2-16.2c0-0.1,0-0.1-0.1-0.2l-20.5-58l-8.9-25.3H265l33.6,101C298,262.8,285.8,274.6,270.8,274.6z
	 M368,234.9c0.1,0.4,0.2,0.7,0.4,1c1.4,3.4,2.2,7,2.2,10.7c0,15.4-12.5,27.9-27.9,27.9s-27.9-12.5-27.9-27.9c0,0,0,0,0-0.1
	c0-5.5-1.1-11-3.1-16.1c0-0.1-0.1-0.2-0.1-0.3l-29.4-83.3h54.9L368,234.9z M27.3,246.7c0-3.7,0.7-7.3,2.2-10.7
	c0.2-0.4,0.3-0.8,0.4-1.3l31-87.8h54.9l-29.4,83.3c0,0.1-0.1,0.2-0.1,0.3c-2.1,5.2-3.1,10.6-3.1,16.1c0,0,0,0,0,0.1
	c0,15.4-12.5,27.9-27.9,27.9C39.8,274.6,27.3,262.1,27.3,246.7z"></path>
</svg>