<svg version="1.1" id="Layer_1" xmlns="http://www.w3.org/2000/svg" xmlns:xlink="http://www.w3.org/1999/xlink" x="0px" y="0px" viewBox="0 0 512 512" enable-background="new 0 0 512 512" xml:space="preserve">
<linearGradient id="SVGID_1_" gradientUnits="userSpaceOnUse" x1="269.4691" y1="391.7135" x2="269.4691" y2="112.3794" class="gradient-element">
	<stop offset="0" class="primary-color-gradient" style="stop-color: #FFA4ED"></stop>
	<stop offset="1" class="secondary-color-gradient" style="stop-color: #DB81DA"></stop>
</linearGradient>
<path fill="url(#SVGID_1_)" d="M289,112.9l1,93.5c0.1,2.4-1.8,4.5-4.2,4.5h-33.5c-2.3,0-4.1-1.8-4.2-4.1l-0.3-78.3
	c-0.5-10.7,7.9-19.7,18.5-19.7h18.5C287,108.8,288.9,110.6,289,112.9z M381.9,214.3v-72.1c0-2.3-1.9-4.2-4.2-4.2h-16.1
	c-12,0-21.6,9.7-21.6,21.6v54.7c0,2.3,1.9,4.2,4.2,4.2h32.4c2.3,0,4.2,1.9,4.2,4.2v32.4c0,2.3-1.9,4.2-4.2,4.2l-1.5,0l-16.5,99.6
	c-1.6,8.3-7.1,14.2-33.4,14.2H120.4c-2.6,0-4.6,2.4-4.1,5l0.2,1.2c1.6,8.3,8.8,14.2,17.2,14.2h233.4c8.4,0,15.6-6,17.2-14.2
	l22.2-116.6c0.4-2,2.1-3.4,4.1-3.4h7.9c2.3,0,4.2-1.9,4.2-4.2v-32.4c0-2.3-1.9-4.2-4.2-4.2h-32.4
	C383.8,218.5,381.9,216.6,381.9,214.3z"></path>
<g>
	<path fill="#FFA4ED" class="primary-color" d="M418.9,29h27.4v27.4h-27.4V29z M487.6,56.4V29h-27.4v27.4H487.6z M487.6,98.6V71.2h-27.4v27.4H487.6z"></path>
	<path fill="#FFA4ED" class="primary-color" d="M16.3,24.5h21.8v86.7H16.3V24.5z"></path>
	<path fill="#DB81DA" class="secondary-color" d="M49.7,24.5h21.8v86.7H49.7V24.5z"></path>
</g>
<path d="M88.1,449.1h-55c-4.4,0-8-3.6-8-8s3.6-8,8-8h55c4.4,0,8,3.6,8,8S92.5,449.1,88.1,449.1z M141.5,466.7H48.5c-4.4,0-8,3.6-8,8
	s3.6,8,8,8h92.9c4.4,0,8-3.6,8-8S145.9,466.7,141.5,466.7z M481.5,143.6c-4.2-4.2-11-4.2-15.2,0c-4.2,4.2-4.2,11,0,15.2
	s11,4.2,15.2,0C485.7,154.6,485.7,147.8,481.5,143.6z M464.8,456h-3.9v-3.9c0-4.4-3.6-8-8-8s-8,3.6-8,8v3.9H441c-4.4,0-8,3.6-8,8
	s3.6,8,8,8h3.9v3.9c0,4.4,3.6,8,8,8s8-3.6,8-8V472h3.9c4.4,0,8-3.6,8-8S469.2,456,464.8,456z M52.8,281c-4.4,0-8,3.6-8,8s3.6,8,8,8
	h46.4c4.4,0,8-3.6,8-8s-3.6-8-8-8H52.8z M439.3,379.3c0-4.4-3.6-8-8-8c0,0,0,0,0,0l-47,0c-4.4,0-8,3.6-8,8c0,4.4,3.6,8,8,8
	c0,0,0,0,0,0l47,0C435.7,387.3,439.3,383.7,439.3,379.3z M439.3,100.2c0-4.4-3.6-8-8-8h-92.9c-4.4,0-8,3.6-8,8s3.6,8,8,8h92.9
	C435.7,108.2,439.3,104.6,439.3,100.2z M38.7,193.3h80.6c4.4,0,8-3.6,8-8s-3.6-8-8-8H38.7c-4.4,0-8,3.6-8,8S34.3,193.3,38.7,193.3z
	 M426.5,319.2c0,14.6,11.8,26.4,26.4,26.4c4.4,0,8-3.6,8-8s-3.6-8-8-8c-5.7,0-10.4-4.7-10.4-10.4s4.7-10.4,10.4-10.4
	c4.4,0,8-3.6,8-8s-3.6-8-8-8C438.3,292.8,426.5,304.6,426.5,319.2z"></path>
<path d="M422.8,210.5h-32.8V131c0-4.4-3.6-8-8-8h-84.7l1-20.8c0.1-2.2-0.7-4.3-2.2-5.9s-3.6-2.5-5.8-2.5h-83.3c-4.4,0-8,3.6-8,8
	v50.4h-79.5c-4.4,0-8,3.6-8,8v50.4H78.5c-4.4,0-8,3.6-8,8v40.8c0,4.4,3.6,8,8,8H87l21.6,113.5c2.3,12,12.8,20.7,25.1,20.7h233.4
	c12.2,0,22.8-8.7,25-20.7l21.6-113.5h9c4.4,0,8-3.6,8-8v-40.8C430.8,214.1,427.2,210.5,422.8,210.5z M373.9,139v71.5H293l3.4-71.5
	H373.9z M214.9,109.8h67l-1,20.8c0,0,0,0,0,0l-3.8,79.9h-62.2v-50.4V109.8z M127.3,168.2h71.5v42.4h-71.5V168.2z M86.5,226.5h32.8
	h87.5h77.8h97.3h32.8v24.8h-7.6c0,0,0,0,0,0H93.6c0,0,0,0,0,0h-7.1V226.5z M325,267.4h40.7l-13.9,83.2h-31.4L325,267.4z
	 M186.7,350.6h-31.4l-13.9-83.2h40.7L186.7,350.6z M273.9,267.4l-4.6,83.2h-31.6l-4.6-83.2H273.9z M376.4,377.9
	c-0.9,4.5-4.8,7.7-9.3,7.7H133.7c-4.6,0-8.5-3.2-9.3-7.7l-21-110.5h21.9l15.4,92.5c0.6,3.9,4,6.7,7.9,6.7h46.7
	c2.2,0,4.3-0.9,5.8-2.5c1.5-1.6,2.3-3.7,2.2-5.9l-5-90.8h19l5.1,91.6c0.2,4.2,3.7,7.6,8,7.6h46.7c4.2,0,7.8-3.3,8-7.6l5.1-91.6h19
	l-5,90.8c-0.1,2.2,0.7,4.3,2.2,5.9c1.5,1.6,3.6,2.5,5.8,2.5h46.7c3.9,0,7.2-2.8,7.9-6.7l15.4-92.5h15.6L376.4,377.9z"></path>
</svg>