<svg version="1.1" id="Layer_1" xmlns="http://www.w3.org/2000/svg" xmlns:xlink="http://www.w3.org/1999/xlink" x="0px" y="0px" viewBox="0 0 512 512" enable-background="new 0 0 512 512" xml:space="preserve">
<linearGradient id="SVGID_1_" gradientUnits="userSpaceOnUse" x1="263.2611" y1="468.9573" x2="263.2611" y2="24.1372" class="gradient-element">
	<stop offset="0" class="primary-color-gradient" style="stop-color: #FFA4ED"></stop>
	<stop offset="1" class="secondary-color-gradient" style="stop-color: #DB81DA"></stop>
</linearGradient>
<path fill="url(#SVGID_1_)" d="M447,87v318.9c0,18.7-15.2,33.9-33.9,33.9H92.3c0,0-13.5-6.3-12.8-10.6c6.5-38.6,40.5-67.9,81.5-67.9
	h129c12.6,0,22.1-4.2,29.2-12.6H344l-24.1,24.1l17.3,17.3l63.7-63.7l-61.4-61.4c0.4-7.8,0.7-16.1,0.9-24.9l60.5-60.5l-57-57
	c9-30.6,37.8-53,71.8-53h14.1C439.3,69.7,447,77.5,447,87z"></path>
<path d="M452.7,396.4v15.7c0,17.9-14.6,32.5-32.5,32.5H102.3c-17.9,0-32.5-14.6-32.5-32.5v-21.9c0-2.9,1.5-5.4,3.8-6.8l108.6-108.6
	c1.5-1.5,3.5-2.3,5.7-2.3s4.2,0.8,5.7,2.3l66,66H344c3.2,0,6.2,1.9,7.4,4.9s0.6,6.4-1.7,8.7l-18.5,18.5l6,6l52.4-52.4l-52.4-52.4
	l-6,6l24.3,24.3c2.3,2.3,3,5.7,1.7,8.7s-4.1,4.9-7.4,4.9l-78.8,0.1c0,0,0,0,0,0c-4.4,0-8-3.6-8-8c0-4.4,3.6-8,8-8l59.5-0.1
	l-16.3-16.3c-3.1-3.1-3.1-8.2,0-11.3l17.3-17.3c3.1-3.1,8.2-3.1,11.3,0l63.7,63.7c1.5,1.5,2.3,3.5,2.3,5.7s-0.8,4.2-2.3,5.7
	l-63.7,63.7c-1.5,1.5-3.5,2.3-5.7,2.3s-4.2-0.8-5.7-2.3l-17.3-17.3c-3.1-3.1-3.1-8.2,0-11.3l10.5-10.5h-68.5c-2.1,0-4.2-0.8-5.7-2.3
	l-62.6-62.6l-102,102v18.3c0,9.1,7.4,16.5,16.5,16.5h317.9c9.1,0,16.5-7.4,16.5-16.5v-15.7c0-4.4,3.6-8,8-8S452.7,392,452.7,396.4z
	 M420.2,61.7H102.3c-17.9,0-32.5,14.6-32.5,32.5v254c0,3.3,2,6.2,5,7.4c3,1.2,6.5,0.5,8.7-1.8l87.6-89.9c3-3.1,3-8.1,0-11.2
	l-53.7-54.5c-3.1-3.1-8.2-3.2-11.3-0.1c-3.1,3.1-3.2,8.2-0.1,11.3l48.2,49l-68.4,70.2V94.2c0-9.1,7.4-16.5,16.5-16.5h317.9
	c9.1,0,16.5,7.4,16.5,16.5v261.3c0,4.4,3.6,8,8,8s8-3.6,8-8V94.2C452.7,76.3,438.1,61.7,420.2,61.7z M119.9,96.2
	C119.9,96.2,119.9,96.2,119.9,96.2c-4.4,0-8,3.6-8,8l-0.2,63.4c0,2.1,0.8,4.2,2.3,5.7l68.3,68.3c3.1,3.1,8.2,3.1,11.3,0l68.7-68.7
	l88.1-0.9c3.2,0,6.1-2,7.3-5c1.2-3,0.5-6.4-1.8-8.7l-24.8-24.8l6-6l52.4,52.4l-52.4,52.3l-6-6l19.9-19.9c2.3-2.3,3-5.7,1.7-8.7
	c-1.2-3-4.2-4.9-7.4-4.9c0,0,0,0,0,0l-74.1,0.4c-2.1,0-4.2,0.9-5.7,2.4l-56.3,57.3c-3.1,3.2-3.1,8.2,0.1,11.3
	c1.6,1.5,3.6,2.3,5.6,2.3c2.1,0,4.1-0.8,5.7-2.4l53.9-54.9l51.3-0.3l-11.8,11.8c-3.1,3.1-3.1,8.2,0,11.3l17.3,17.3
	c3.1,3.1,8.2,3.1,11.3,0l63.7-63.7c1.5-1.5,2.3-3.5,2.3-5.7s-0.8-4.2-2.3-5.7l-63.7-63.7c-1.5-1.5-3.5-2.3-5.7-2.3s-4.2,0.8-5.7,2.3
	l-17.3,17.3c-3.1,3.1-3.1,8.2,0,11.3l17,17l-72.3,0.7c-2.1,0-4.1,0.9-5.6,2.3l-65.4,65.4l-60.2-60.2l0.2-60.1
	C127.9,99.8,124.3,96.2,119.9,96.2z"></path>
<path d="M52.3,60.2h-3.9v3.9c0,4.4-3.6,8-8,8s-8-3.6-8-8v-3.9h-3.9c-4.4,0-8-3.6-8-8s3.6-8,8-8h3.9v-3.9c0-4.4,3.6-8,8-8s8,3.6,8,8
	v3.9h3.9c4.4,0,8,3.6,8,8S56.7,60.2,52.3,60.2z M493.1,448.2h-3.9v-3.9c0-4.4-3.6-8-8-8s-8,3.6-8,8v3.9h-3.9c-4.4,0-8,3.6-8,8
	s3.6,8,8,8h3.9v3.9c0,4.4,3.6,8,8,8s8-3.6,8-8v-3.9h3.9c4.4,0,8-3.6,8-8S497.5,448.2,493.1,448.2z M107.5,473.5h-43
	c-4.4,0-8,3.6-8,8s3.6,8,8,8h43c4.4,0,8-3.6,8-8S111.9,473.5,107.5,473.5z M490.6,79.3c4.2-4.2,4.2-11,0-15.2s-11-4.2-15.2,0
	c-4.2,4.2-4.2,11,0,15.2C479.6,83.5,486.4,83.5,490.6,79.3z M425.7,366.3h57.4c4.4,0,8-3.6,8-8s-3.6-8-8-8h-57.4c-4.4,0-8,3.6-8,8
	S421.3,366.3,425.7,366.3z M481.6,396.4c0-4.4-3.6-8-8-8H394c-4.4,0-8,3.6-8,8s3.6,8,8,8h79.5C478,404.4,481.6,400.8,481.6,396.4z"></path>
</svg>