<svg version="1.1" id="Layer_1" xmlns="http://www.w3.org/2000/svg" xmlns:xlink="http://www.w3.org/1999/xlink" x="0px" y="0px" viewBox="0 0 512 512" enable-background="new 0 0 512 512" xml:space="preserve">
<linearGradient id="SVGID_1_" gradientUnits="userSpaceOnUse" x1="280.4231" y1="470.3962" x2="280.4231" y2="130.8847" class="gradient-element">
	<stop offset="0" class="primary-color-gradient" style="stop-color: #FFA4ED"></stop>
	<stop offset="1" class="secondary-color-gradient" style="stop-color: #DB81DA"></stop>
</linearGradient>
<path fill="url(#SVGID_1_)" d="M101.2,196.8c-2.4-15.9,33.2-12.8,54.4-12.8h120.8c45.4,0,47.6-4,47.6-16.2v-18.2
	c0-22.2,31.3-40.2,70-40.2h29.4v117.5H297.2v56.9h0c-12.1,0-21.9-9.8-21.9-21.9v-35H139.5C139.5,226.9,102.6,206.3,101.2,196.8z
	 M459.8,341.1l-68.5-50.4c-38.7,0-67.2,8.9-67.2,31.5v18.5c0,12.4-2.2,16.5-47.6,16.5H155.6c-21.2,0-56.8-3.1-54.4,13.1
	c1.4,9.7,4.3,30.7,4.3,30.7h169.8v106.4h21.9V400.9h82.6L459.8,341.1z"></path>
<path d="M468,335.6l-82.3-58.4c-1.4-1-3-1.5-4.6-1.5h-75.6v-41.6h117.8c4.4,0,8-3.6,8-8V109.5c0-4.4-3.6-8-8-8H305.6V81.6
	c0-4.7-3.8-8.4-8.4-8.4h-51.5c-4.7,0-8.4,3.8-8.4,8.4v19.8H142c-1.7,0-3.3,0.5-4.7,1.5l-80.8,58.4c-2.1,1.5-3.3,3.9-3.3,6.5
	c0,2.6,1.3,5,3.4,6.5l82.3,58.4c1.4,1,3,1.5,4.6,1.5h93.8v41.6H101.2c-4.4,0-8,3.6-8,8v116.7c0,4.4,3.6,8,8,8h136v90.8
	c0,4.7,3.8,8.5,8.5,8.5s8.5-3.8,8.5-8.5v-89.7h34.5v89.7c0,4.7,3.8,8.5,8.5,8.5s8.5-3.8,8.5-8.5v-90.8h77c1.7,0,3.3-0.5,4.7-1.5
	l80.8-58.4c2.1-1.5,3.3-3.9,3.3-6.5C471.4,339.6,470.2,337.1,468,335.6z M254.1,90h34.6v11.4h-34.6V90z M74.9,167.8l69.6-50.3h270.9
	v100.7H298.5c-0.4-0.1-0.9-0.1-1.3-0.1h-51.5c-0.4,0-0.9,0-1.3,0.1H146L74.9,167.8z M254.1,274.9v-40h34.6v40H254.1z M380.1,392.5
	H109.2V291.8h269.4l71.1,50.4L380.1,392.5z"></path>
<path d="M51.7,354.7c-14.6,0-26.4-11.8-26.4-26.4s11.8-26.4,26.4-26.4c4.4,0,8,3.6,8,8s-3.6,8-8,8c-5.7,0-10.4,4.7-10.4,10.4
	s4.7,10.4,10.4,10.4c4.4,0,8,3.6,8,8S56.1,354.7,51.7,354.7z M485.5,43.8c0-4.4-3.6-8-8-8H343.3c-4.4,0-8,3.6-8,8s3.6,8,8,8h134.2
	C481.9,51.8,485.5,48.2,485.5,43.8z M143.4,456.7H63.9c-4.4,0-8,3.6-8,8s3.6,8,8,8h79.5c4.4,0,8-3.6,8-8S147.8,456.7,143.4,456.7z
	 M60.9,79.9c4.2-4.2,4.2-11,0-15.2c-4.2-4.2-11-4.2-15.2,0c-4.2,4.2-4.2,11,0,15.2C49.9,84.1,56.7,84.1,60.9,79.9z M461.2,457.1
	c-4.2,4.2-4.2,11,0,15.2c4.2,4.2,11,4.2,15.2,0c4.2-4.2,4.2-11,0-15.2S465.4,452.9,461.2,457.1z M480.7,276.5h-3.9v-3.9
	c0-4.4-3.6-8-8-8s-8,3.6-8,8v3.9h-3.9c-4.4,0-8,3.6-8,8s3.6,8,8,8h3.9v3.9c0,4.4,3.6,8,8,8s8-3.6,8-8v-3.9h3.9c4.4,0,8-3.6,8-8
	S485.1,276.5,480.7,276.5z M173.7,49.5h-3.9v-3.9c0-4.4-3.6-8-8-8s-8,3.6-8,8v3.9h-3.9c-4.4,0-8,3.6-8,8s3.6,8,8,8h3.9v3.9
	c0,4.4,3.6,8,8,8s8-3.6,8-8v-3.9h3.9c4.4,0,8-3.6,8-8S178.1,49.5,173.7,49.5z"></path>
</svg>