<svg version="1.1" id="Layer_1" xmlns="http://www.w3.org/2000/svg" xmlns:xlink="http://www.w3.org/1999/xlink" x="0px" y="0px" viewBox="0 0 512 512" enable-background="new 0 0 512 512" xml:space="preserve">
<linearGradient id="SVGID_1_" gradientUnits="userSpaceOnUse" x1="15.6526" y1="285.4146" x2="495.6526" y2="285.4146" class="gradient-element">
	<stop offset="0" class="primary-color-gradient" style="stop-color: #FFA4ED"></stop>
	<stop offset="1" class="secondary-color-gradient" style="stop-color: #DB81DA"></stop>
</linearGradient>
<path fill="url(#SVGID_1_)" d="M495.7,173.4v312h-216h-216c-13.3,0-25.3-5.4-33.9-14.1c-8.6-8.6-14-20.4-14.1-33.5
	c-0.2-26.6,22.2-48.4,48.7-48.4V139.2c0-29.7,24.1-53.8,53.8-53.8h9.5v304h241.3c28.8,0,52.1-23.3,52.1-52.1V225.5
	c0-28.8,23.3-52.1,52.1-52.1H495.7z"></path>
<linearGradient id="SVGID_2_" gradientUnits="userSpaceOnUse" x1="375.6163" y1="267.6436" x2="375.6163" y2="485.4088">
	<stop offset="0" class="primary-color-gradient" style="stop-color: #FFA4ED"></stop>
	<stop offset="1" class="secondary-color-gradient" style="stop-color: #DB81DA"></stop>
</linearGradient>
<path fill="url(#SVGID_2_)" d="M256,485.4h239.2V295.5c0-25.3-31.2-37.4-48.3-18.7L256,485.4z M454.4,437.4h-96l96-96V437.4z"></path>
<path d="M503.7,173.4v312c0,4.4-3.6,8-8,8h-432c-15,0-29.1-5.8-39.6-16.4c-10.6-10.5-16.4-24.5-16.4-39.6v-304c0-30.9,25.1-56,56-56
	h64c4.4,0,8,3.6,8,8v55.3c0,4.4-3.6,8-8,8s-8-3.6-8-8V93.4h-56c-22.1,0-40,17.9-40,40v264.8c0.1-0.1,0.1-0.1,0.2-0.2
	c0.3-0.3,0.7-0.7,1-1c0.3-0.3,0.6-0.6,0.9-0.9c0.3-0.3,0.7-0.6,1.1-0.9c0.3-0.3,0.6-0.6,1-0.8c0.4-0.3,0.7-0.6,1.1-0.9
	c0.3-0.3,0.7-0.5,1-0.8c0.4-0.3,0.8-0.6,1.2-0.8c0.3-0.3,0.7-0.5,1.1-0.7c0.4-0.3,0.8-0.5,1.2-0.8c0.4-0.2,0.7-0.5,1.1-0.7
	c0.4-0.2,0.8-0.5,1.2-0.7c0.4-0.2,0.7-0.4,1.1-0.7c0.4-0.2,0.8-0.4,1.3-0.7c0.4-0.2,0.8-0.4,1.2-0.6c0.4-0.2,0.9-0.4,1.3-0.6
	c0.4-0.2,0.8-0.4,1.2-0.5c0.4-0.2,0.9-0.4,1.4-0.5c0.4-0.2,0.8-0.3,1.2-0.5c0.5-0.2,0.9-0.3,1.4-0.5c0.4-0.1,0.8-0.3,1.2-0.4
	c0.5-0.1,1-0.3,1.4-0.4c0.4-0.1,0.8-0.2,1.2-0.3c0.5-0.1,1-0.2,1.5-0.4c0.4-0.1,0.8-0.2,1.2-0.3c0.5-0.1,1-0.2,1.6-0.3
	c0.4-0.1,0.8-0.2,1.2-0.2c0.6-0.1,1.1-0.1,1.7-0.2c0.4,0,0.8-0.1,1.1-0.1c0.6-0.1,1.3-0.1,1.9-0.1c0.3,0,0.6-0.1,1-0.1
	c1,0,1.9-0.1,2.9-0.1h56v-208c0-4.4,3.6-8,8-8h212c4.4,0,8,3.6,8,8s-3.6,8-8,8h-204v208c0,4.4-3.6,8-8,8h-64c-22.1,0-40,17.9-40,40
	c0,10.7,4.2,20.8,11.7,28.2c7.5,7.6,17.6,11.8,28.3,11.8h188.8L460,250.6c3-3.3,8-3.5,11.3-0.5c3.3,3,3.5,8,0.5,11.3l-197.7,216
	h213.5v-296h-61.1l-122,122c-1.9,1.9-3.9,3.7-6,5.4h20c4.4,0,8,3.6,8,8s-3.6,8-8,8H180.9c-4.4,0-8-3.6-8-8s3.6-8,8-8H248
	c3.3-17,9.6-29.4,19.9-39.7l116.4-116.4c3.5-3.5,9.1-3.5,12.5,0c3.5,3.5,3.5,9.1,0,12.5L280.4,281.6c-6.4,6.4-10.6,13.8-13.4,23.7
	c10.1-3,18.3-7.8,25-14.4L483,99.8c0.3-1.3,0.4-4.8-2.7-7.9c-2-2.1-6.8-2.9-8.2-2.1l-36.7,36.7c-3.5,3.5-9.1,3.5-12.5,0
	s-3.5-9.1,0-12.5l36.8-36.8c3.5-3.5,8.5-5.4,14.2-5.4c0.1,0,0.1,0,0.2,0c7.1,0,14.4,3,19,7.7c9.8,10.1,9.8,25.5,3.2,32.1l-53.8,53.8
	h53.1C500.1,165.4,503.7,169,503.7,173.4z M189.9,363c0-5-4.1-9-9-9s-9,4.1-9,9s4.1,9,9,9S189.9,368,189.9,363z M457.4,334
	c3,1.2,4.9,4.2,4.9,7.4v96c0,4.4-3.6,8-8,8h-96c-3.2,0-6.2-1.9-7.4-4.9s-0.6-6.4,1.7-8.7l96-96C451,333.5,454.4,332.8,457.4,334z
	 M446.4,360.8l-68.6,68.6h68.6V360.8z"></path>
<path d="M168.9,93.9v47.6c0,4.4-3.6,8-8,8s-8-3.6-8-8V93.9c0-4.4,3.6-8,8-8S168.9,89.5,168.9,93.9z M353.4,91.5H215.9
	c-4.4,0-8,3.6-8,8s3.6,8,8,8h137.6c4.4,0,8-3.6,8-8S357.8,91.5,353.4,91.5z M393.4,62c0,5-4.1,9-9,9s-9-4.1-9-9s4.1-9,9-9
	S393.4,57,393.4,62z M453.4,62c0,5-4.1,9-9,9s-9-4.1-9-9s4.1-9,9-9S453.4,57,453.4,62z M347.4,138c0,5-4.1,9-9,9s-9-4.1-9-9
	s4.1-9,9-9S347.4,133,347.4,138z M37.4,44c0,5-4.1,9-9,9s-9-4.1-9-9s4.1-9,9-9S37.4,39,37.4,44z M196.3,37.5h-3.9v-3.9
	c0-4.4-3.6-8-8-8s-8,3.6-8,8v3.9h-3.9c-4.4,0-8,3.6-8,8s3.6,8,8,8h3.9v3.9c0,4.4,3.6,8,8,8s8-3.6,8-8v-3.9h3.9c4.4,0,8-3.6,8-8
	S200.8,37.5,196.3,37.5z"></path>
</svg>