<svg version="1.1" id="Layer_1" xmlns="http://www.w3.org/2000/svg" xmlns:xlink="http://www.w3.org/1999/xlink" x="0px" y="0px" viewBox="0 0 512 512" enable-background="new 0 0 512 512" xml:space="preserve">
<path d="M388.1,41.8c0,20.3-16.5,36.8-36.8,36.8c-4.4,0-8-3.6-8-8s3.6-8,8-8c11.4,0,20.8-9.3,20.8-20.8c0-4.4,3.6-8,8-8
	S388.1,37.4,388.1,41.8z M430.1,62.6c-11.4,0-20.8-9.3-20.8-20.8c0-4.4-3.6-8-8-8s-8,3.6-8,8c0,20.3,16.5,36.8,36.8,36.8
	c4.4,0,8-3.6,8-8S434.5,62.6,430.1,62.6z M430.1,83.8c-20.3,0-36.8,16.5-36.8,36.8c0,4.4,3.6,8,8,8s8-3.6,8-8
	c0-11.4,9.3-20.8,20.8-20.8c4.4,0,8-3.6,8-8S434.5,83.8,430.1,83.8z M351.3,83.8c-4.4,0-8,3.6-8,8s3.6,8,8,8
	c11.4,0,20.8,9.3,20.8,20.8c0,4.4,3.6,8,8,8s8-3.6,8-8C388.1,100.3,371.6,83.8,351.3,83.8z M484.8,220.1c-4.4,0-8,3.6-8,8v43
	c0,4.4,3.6,8,8,8s8-3.6,8-8v-43C492.8,223.7,489.2,220.1,484.8,220.1z M36.5,126.1c4.4,0,8-3.6,8-8V44.3c0-4.4-3.6-8-8-8s-8,3.6-8,8
	v73.8C28.5,122.5,32.1,126.1,36.5,126.1z M73.7,462.4H57.9v-15.8c0-4.4-3.6-8-8-8s-8,3.6-8,8v15.8H26.1c-4.4,0-8,3.6-8,8s3.6,8,8,8
	h15.8v15.8c0,4.4,3.6,8,8,8s8-3.6,8-8v-15.8h15.8c4.4,0,8-3.6,8-8S78.1,462.4,73.7,462.4z M451.9,51v3.9c0,4.4,3.6,8,8,8s8-3.6,8-8
	V51h3.9c4.4,0,8-3.6,8-8s-3.6-8-8-8h-3.9v-3.9c0-4.4-3.6-8-8-8s-8,3.6-8,8V35H448c-4.4,0-8,3.6-8,8s3.6,8,8,8H451.9z M38.8,211
	c5.9,0,10.8-4.8,10.8-10.8s-4.8-10.8-10.8-10.8c-5.9,0-10.8,4.8-10.8,10.8S32.8,211,38.8,211z M469.1,432.1c4.4,0,8-3.6,8-8
	s-3.6-8-8-8c-14.6,0-26.4,11.8-26.4,26.4s11.8,26.4,26.4,26.4c4.4,0,8-3.6,8-8s-3.6-8-8-8c-5.7,0-10.4-4.7-10.4-10.4
	S463.4,432.1,469.1,432.1z"></path>
<path fill="#DB81DA" class="secondary-color" d="M151.3,20.3v21.8H94.4V20.3H151.3z"></path>
<linearGradient id="SVGID_1_" gradientUnits="userSpaceOnUse" x1="302.1445" y1="462.4213" x2="302.1445" y2="58.656" class="gradient-element">
	<stop offset="0" class="primary-color-gradient" style="stop-color: #FFA4ED"></stop>
	<stop offset="1" class="secondary-color-gradient" style="stop-color: #DB81DA"></stop>
</linearGradient>
<path fill="url(#SVGID_1_)" d="M243.1,245.2c-9.1,6.4-17.6,13.6-24.7,21.4v-35.5c0.2,0,0.3,0.1,0.6,0.1
	C226.1,232.9,234.5,238.4,243.1,245.2z M324.7,256.1c2.2-6.6,2.4-11.8,0.4-13.5c-3.8-3.6-19.9-3.9-43.2,6.4
	c12.6,11,27.3,22.8,34,20.9C318.9,269.1,322.1,264,324.7,256.1z M385.8,451.8V350.8l-97.6,103.9L385.8,451.8z M218.4,75v133.5
	c1.8,0.1,3.6,0.4,5.4,0.9c13.4,2.8,26.7,12.5,39.7,23.6c3-1.6,6.1-3,9.1-4.4c14.3-6.3,49.4-19.2,67.7-2.6
	c6.3,5.7,12.5,16.8,5.7,37.1c-5.3,16-13.2,25.4-24.2,28.4c-19.6,5.3-39.6-12.3-60.8-31.1c0,0,0-0.1-0.1-0.1
	c-23.2,15-42.4,36.1-42.4,56.3V431c4.7-11.2,11.4-19.4,18.6-26.6l148.8-142.6v-76.5h-83.7V75H218.4z"></path>
<path d="M276.7,255.1c18.8,16.4,29.4,23,37.5,23c1.3,0,2.6-0.2,3.8-0.5c5.8-1.6,10.7-8,14.3-19c3.4-10.4,2.8-17.7-1.8-21.9
	c-7.9-7.2-28.7-5.2-51.8,5c-2.5,1.1-4.3,3.4-4.7,6.1S274.7,253.3,276.7,255.1z M318.4,248.5c-0.2,1.2-0.5,2.9-1.2,5
	c-1.5,4.5-2.9,7.1-3.8,8.3c-2-0.6-6.4-2.8-15.8-10.2C308.2,248.4,315.1,248.2,318.4,248.5z M454.6,234.4
	c-7.5-7.6-18.3-11.9-29.5-11.9c0,0,0,0,0,0c-11.2,0-21.9,4.3-29.5,11.9L231.4,398.7c-8.5,8.5-18.7,29.9-24.8,48h-98.9V81.1h182.8
	c1.2,0,2.5,0.1,3.7,0.2v104c0,4.4,3.6,8,8,8h89.3c3,0,5.8-1.7,7.1-4.4c1.4-2.7,1.1-5.9-0.7-8.4c-2.8-3.7-68.4-91.9-74.5-99.7
	c-4.7-6-10.9-10.5-17.9-13.1c-0.4-0.2-0.8-0.3-1.2-0.4c-4.4-1.5-9-2.3-13.8-2.3H99.7c-4.4,0-8,3.6-8,8v381.6c0,4.4,3.6,8,8,8H204
	c0,1.1,0,2.1,0,3.2v11.2c0,4.4,3.6,8,8,8h11.2c29.9,0,47.6-10.3,59.7-20.6c0.8-0.4,1.5-0.9,2.1-1.5l0.4-0.4h106.2c4.4,0,8-3.6,8-8
	V345.1c0-1.1-0.2-2.1-0.6-3.1c-0.4-0.9-1-1.8-1.7-2.6c0,0,0,0,0,0c0,0,0,0,0,0c0,0,0,0,0,0c0,0,0,0,0,0c0,0,0,0,0,0c0,0,0,0,0,0
	c0,0,0,0,0,0c0,0,0,0,0,0c0,0,0,0,0,0c0,0,0,0,0,0c-0.8-0.8-1.7-1.4-2.7-1.8c-0.9-0.3-1.8-0.5-2.8-0.6c-0.1,0-0.2,0-0.4,0
	c-1,0-2,0.2-2.9,0.6c-0.9,0.4-1.8,1-2.6,1.7L277.2,448.2c-0.3,0.2-0.6,0.4-0.8,0.7c-11.1,10.5-25.2,20.3-53.2,20.3h-3.2v-3.2
	c0-3.3,0.1-6.5,0.4-9.7c6-19.7,16.7-40.5,22.3-46.2L407,245.7c4.6-4.6,11.2-7.2,18.1-7.2c0,0,0,0,0,0c7,0,13.6,2.6,18.2,7.2
	c4.8,4.8,7.5,11.3,7.5,18.1c0,6.9-2.7,13.3-7.5,18.1l-39.8,39.8c-3.1,3.1-3.1,8.2,0,11.3c3.1,3.1,8.2,3.1,11.3,0l39.8-39.8
	c7.9-7.9,12.2-18.3,12.2-29.5C466.8,252.7,462.5,242.3,454.6,234.4z M375.5,177.3h-65.3V90c0.2,0.2,0.4,0.5,0.6,0.7
	C315.3,96.6,356.5,151.8,375.5,177.3z M383.5,364.5v82.2h-82.2L383.5,364.5z M188,316.7c0,25.2-9.6,35.9-32.1,35.9c-4.4,0-8,3.6-8,8
	V383c0,4.4,3.6,8,8,8c43.5,0,70.6-28.5,70.6-74.4c0-14.1,12.8-31.5,33.8-46.2c21.2,18.6,41.5,34.8,63.6,28.8
	c13.8-3.7,23.6-14.7,29.8-33.6c8.5-25.7-1.4-39.6-8-45.6c-21.8-19.8-60.6-5.7-76.3,1.2c-1.6,0.7-3.1,1.4-4.7,2.2
	c-11.7-9.5-25.1-18.9-39.2-21.9c-19.4-4.2-36.9-1-49.4,9.1c-11,8.9-17.1,22.2-17.1,37.5c0,4.4,3.6,8,8,8h22.4c4.4,0,8-3.6,8-8
	c0-2.4,0.5-5.7,2.8-7.6c3.2-2.5,9.6-3.1,17.1-1.4c3.2,0.7,7.3,2.8,12.4,6.2C203.1,266.5,188,292.1,188,316.7z M247.7,251.8
	c2.1-1.4,3.3-3.8,3.4-6.3c0.1-2.5-1-4.9-3-6.5c-11.3-9-20-13.9-27.4-15.5c-12.6-2.7-23.5-1.1-30.6,4.6c-3.7,3-6.3,7.1-7.7,12h-6.6
	c1.5-6.9,5-12.8,10.3-17c8.7-7,21.4-9.1,36-5.9c12.3,2.7,25.3,12.6,36.3,21.9c2.5,2.1,5.9,2.5,8.8,1c2.8-1.5,5.7-2.8,8.6-4.1
	c10-4.4,43.8-17.8,59.1-4c6.7,6,7.9,15.7,3.6,28.7c-4.4,13.4-10.6,21-18.8,23.2c-15.4,4.2-33.9-12.1-53.4-29.4c0,0-0.1-0.1-0.1-0.1
	c-0.1-0.1-0.1-0.1-0.2-0.2c-2.7-2.2-6.5-2.4-9.4-0.5c-28.9,18.6-46.1,42.1-46.1,63c0,34.1-16.8,54.9-46.6,58v-6.5
	c19.8-2.2,40.1-13.7,40.1-51.5C204,294.8,220,271.2,247.7,251.8z"></path>
</svg>