<svg version="1.1" id="Layer_1" xmlns="http://www.w3.org/2000/svg" xmlns:xlink="http://www.w3.org/1999/xlink" x="0px" y="0px" viewBox="0 0 512 512" enable-background="new 0 0 512 512" xml:space="preserve">
<linearGradient id="SVGID_1_" gradientUnits="userSpaceOnUse" x1="255.9987" y1="431.8287" x2="255.9987" y2="71.4834" class="gradient-element">
	<stop offset="0" class="primary-color-gradient" style="stop-color: #FFA4ED"></stop>
	<stop offset="1" class="secondary-color-gradient" style="stop-color: #DB81DA"></stop>
</linearGradient>
<path fill="url(#SVGID_1_)" d="M299.5,252.9c1.5,1.5,1.5,3.9,0,5.4c-22.3,22.3-176.1,176.1-176.2,176.3l0-1.6v-70.3
	c0-3.9,5.2-5.3,7.1-1.9c5.8,10.2,19.8,12.2,28.2,4.1l98.5-95c4.1-3.9,4.1-10.4,0.1-14.4L125.7,123.9c-2.5-2.6-2.4-18.6-2.4-47.3
	l0.9,0.9L299.5,252.9z M378.7,77.5c-13,0-23.6,10.9-23.6,24.4v270.5c0,9.2-7.2,16.7-16.1,16.7c-9.9,0-17.9,8.3-17.9,18.6V437h34
	h33.6v-62.1V77.5H378.7z"></path>
<g>
	<path fill="#FFA4ED" class="primary-color" d="M22.2,445.4v-21.8h43.6v21.8H22.2z"></path>
	<path fill="#DB81DA" class="secondary-color" d="M24.6,294.6v-76l38,38L24.6,294.6z M66.8,491.1v-21.8H23.2v21.8H66.8z"></path>
</g>
<path d="M487.9,360.3c0,4.4-3.6,8-8,8H369.1c-4.4,0-8-3.6-8-8s3.6-8,8-8h110.8C484.3,352.3,487.9,355.8,487.9,360.3z M420.6,395.4
	h-68.8c-4.4,0-8,3.6-8,8s3.6,8,8,8h68.8c4.4,0,8-3.6,8-8S425,395.4,420.6,395.4z M420.6,70.9c20.3,0,36.8-16.5,36.8-36.8
	c0-4.4-3.6-8-8-8s-8,3.6-8,8c0,11.4-9.3,20.7-20.8,20.7c-4.4,0-8,3.6-8,8S416.1,70.9,420.6,70.9z M499.3,70.9c4.4,0,8-3.6,8-8
	s-3.6-8-8-8c-11.4,0-20.8-9.3-20.8-20.8c0-4.4-3.6-8-8-8s-8,3.6-8,8C462.6,54.4,479.1,70.9,499.3,70.9z M499.3,76.1
	c-20.3,0-36.8,16.5-36.8,36.8c0,4.4,3.6,8,8,8s8-3.6,8-8c0-11.4,9.3-20.8,20.8-20.8c4.4,0,8-3.6,8-8S503.7,76.1,499.3,76.1z
	 M420.6,92.1c11.4,0,20.8,9.3,20.8,20.8c0,4.4,3.6,8,8,8s8-3.6,8-8c0-20.3-16.5-36.8-36.8-36.8c-4.4,0-8,3.6-8,8
	S416.1,92.1,420.6,92.1z M18.4,29.5c0-5,4.1-9,9-9s9,4.1,9,9s-4.1,9-9,9S18.4,34.5,18.4,29.5z M48.4,29.5c0-5,4.1-9,9-9s9,4.1,9,9
	s-4.1,9-9,9S48.4,34.5,48.4,29.5z M96.5,29.5c0,5-4.1,9-9,9s-9-4.1-9-9s4.1-9,9-9S96.5,24.5,96.5,29.5z M18.4,58.5c0-5,4.1-9,9-9
	s9,4.1,9,9s-4.1,9-9,9S18.4,63.5,18.4,58.5z M18.4,88.5c0-5,4.1-9,9-9s9,4.1,9,9s-4.1,9-9,9S18.4,93.5,18.4,88.5z M457.7,210.8
	c14.6,0,26.4,11.8,26.4,26.4s-11.8,26.4-26.4,26.4s-26.4-11.8-26.4-26.4S443.1,210.8,457.7,210.8z M447.3,237.2
	c0,5.7,4.7,10.4,10.4,10.4s10.4-4.7,10.4-10.4s-4.7-10.4-10.4-10.4S447.3,231.4,447.3,237.2z M448.5,439.1c-4.4,0-8,3.6-8,8
	s3.6,8,8,8c5.7,0,10.4,4.7,10.4,10.4s-4.7,10.4-10.4,10.4c-4.4,0-8,3.6-8,8s3.6,8,8,8c14.6,0,26.4-11.8,26.4-26.4
	S463,439.1,448.5,439.1z M71.4,331.7h-43c-4.4,0-8,3.6-8,8s3.6,8,8,8h43c4.4,0,8-3.6,8-8S75.8,331.7,71.4,331.7z"></path>
<path d="M123.3,442.5c-1,0-1.9-0.2-2.9-0.5c-3.1-1.2-5.1-4.1-5.1-7.4l0-1.6c0,0,0-0.1,0-0.1v-84.7c0-4.4,3.6-8,8-8s8,3.6,8,8v67
	c18.1-18.1,59.9-60,156.8-156.8c1-1,1.2-2.2,1.2-2.9c0-1.1-0.4-2.1-1.2-2.9L131.3,95.9v63.6l82.3,82.3c7.6,7.6,7.6,19.9,0,27.5
	l-63,63c-3.1,3.1-8.2,3.1-11.3,0c-3.1-3.1-3.1-8.2,0-11.3l63-63c0.9-0.9,1-1.9,1-2.4s-0.1-1.5-1-2.4l-84.6-84.6
	c-1.5-1.5-2.3-3.5-2.3-5.7V76.6c0-3.2,1.9-6.1,4.9-7.4c3-1.2,6.4-0.6,8.7,1.7l0.9,0.9l169.5,169.5c3.8,3.8,5.9,8.8,5.9,14.2
	s-2.1,10.4-5.9,14.2C256.2,312.8,131,438.1,129,440.1C127.5,441.6,125.4,442.5,123.3,442.5z M397.3,437v-33.7c0-4.7-3.8-8.6-8.6-8.6
	s-8.6,3.8-8.6,8.6v25.1h-56.8V82.1h56.8v278.2c0,4.7,3.8,8.6,8.6,8.6s8.6-3.8,8.6-8.6V73.5c0-4.7-3.8-8.6-8.6-8.6h-73.9
	c-4.7,0-8.6,3.8-8.6,8.6V437c0,4.7,3.8,8.6,8.6,8.6h73.9C393.5,445.5,397.3,441.7,397.3,437z"></path>
</svg>