<svg version="1.1" id="Layer_1" xmlns="http://www.w3.org/2000/svg" xmlns:xlink="http://www.w3.org/1999/xlink" x="0px" y="0px" viewBox="0 0 512 512" enable-background="new 0 0 512 512" xml:space="preserve">
<linearGradient id="SVGID_1_" gradientUnits="userSpaceOnUse" x1="259.3676" y1="445.5173" x2="259.3676" y2="61.5248" class="gradient-element">
	<stop offset="0" class="primary-color-gradient" style="stop-color: #FFA4ED"></stop>
	<stop offset="1" class="secondary-color-gradient" style="stop-color: #DB81DA"></stop>
</linearGradient>
<path fill="url(#SVGID_1_)" d="M324.1,374.6h56v87.2H138.6c0-9,7.3-24.6,16.3-24.6h140c16.2,0,29.3-4.8,29.3-20.9V374.6z
	 M324.1,187.5v113.7c0,9.9-8,17.9-17.9,17.9h-109c-16.8,0-30.4,13.6-30.4,30.4v0h157.3h56v-30.4V131.5c-15.5,0-29.5,6.3-39.6,16.4
	C330.4,158,324.1,172,324.1,187.5z M363.2,50.2c-21.6,0-39,17.5-39,39v18.6h56V50.2H363.2z"></path>
<path d="M380.2,469.8H138.6c-4.4,0-8-3.6-8-8V50.2c0-4.4,3.6-8,8-8h241.6c4.4,0,8,3.6,8,8v57.7c0,4.4-3.6,8-8,8H173.4v10.8h206.7
	c4.4,0,8,3.6,8,8v187.9c0,4.4-3.6,8-8,8s-8-3.6-8-8V142.7H165.4c-4.4,0-8-3.6-8-8v-26.8c0-4.4,3.6-8,8-8h206.7V58.2H146.6v395.6
	h225.6v-69.5H165.4c-4.4,0-8-3.6-8-8v-26.8c0-4.4,3.6-8,8-8h284.3c4.4,0,8,3.6,8,8s-3.6,8-8,8H173.4v10.8h206.7c4.4,0,8,3.6,8,8
	v85.5C388.2,466.2,384.6,469.8,380.2,469.8z M326.5,443H192.3c-4.4,0-8-3.6-8-8v-31.8c0-4.4,3.6-8,8-8h134.2c4.4,0,8,3.6,8,8V435
	C334.5,439.4,330.9,443,326.5,443z M200.3,427h118.2v-15.8H200.3V427z"></path>
<path d="M489.2,406.5c0,4.4-3.6,8-8,8h-58.8c-4.4,0-8-3.6-8-8s3.6-8,8-8h58.8C485.6,398.5,489.2,402.1,489.2,406.5z M422.7,144.5
	h15.8v15.8c0,4.4,3.6,8,8,8s8-3.6,8-8v-15.8h15.8c4.4,0,8-3.6,8-8s-3.6-8-8-8h-15.8v-15.8c0-4.4-3.6-8-8-8s-8,3.6-8,8v15.8h-15.8
	c-4.4,0-8,3.6-8,8S418.3,144.5,422.7,144.5z M31,77.4c1.6,1.6,3.6,2.3,5.7,2.3s4.1-0.8,5.7-2.3l11.2-11.2l11.2,11.2
	c1.6,1.6,3.6,2.3,5.7,2.3s4.1-0.8,5.7-2.3c3.1-3.1,3.1-8.2,0-11.3L64.8,55L76,43.8c3.1-3.1,3.1-8.2,0-11.3c-3.1-3.1-8.2-3.1-11.3,0
	L53.5,43.7L42.3,32.5c-3.1-3.1-8.2-3.1-11.3,0c-3.1,3.1-3.1,8.2,0,11.3L42.2,55L31,66.1C27.9,69.2,27.9,74.3,31,77.4z M443,255.2
	c14.6,0,26.4,11.8,26.4,26.4S457.6,308,443,308s-26.4-11.8-26.4-26.4S428.5,255.2,443,255.2z M443,271.2c-5.7,0-10.4,4.7-10.4,10.4
	S437.3,292,443,292s10.4-4.7,10.4-10.4S448.7,271.2,443,271.2z M91.5,369.6H29.5c-4.4,0-8,3.6-8,8s3.6,8,8,8h62.1c4.4,0,8-3.6,8-8
	S96,369.6,91.5,369.6z M99.5,339.4c0,5-4.1,9-9,9s-9-4.1-9-9s4.1-9,9-9S99.5,334.4,99.5,339.4z M60.5,330.4c5,0,9,4.1,9,9
	s-4.1,9-9,9s-9-4.1-9-9S55.5,330.4,60.5,330.4z M21.5,339.4c0-5,4.1-9,9-9s9,4.1,9,9s-4.1,9-9,9S21.5,344.4,21.5,339.4z"></path>
<g>
	<path fill="#DB81DA" class="secondary-color" d="M79.6,281.5H36v-43.6h43.6V281.5z"></path>
	<path fill="#FFA4ED" class="primary-color" d="M79.6,211.4H36v-43.6h43.6V211.4z"></path>
</g>
</svg>