<svg version="1.1" id="Layer_1" xmlns="http://www.w3.org/2000/svg" xmlns:xlink="http://www.w3.org/1999/xlink" x="0px" y="0px" viewBox="0 0 512 512" enable-background="new 0 0 512 512" xml:space="preserve">
<linearGradient id="SVGID_1_" gradientUnits="userSpaceOnUse" x1="256.0022" y1="437.6525" x2="256.0022" y2="95.0682" class="gradient-element">
	<stop offset="0" class="primary-color-gradient" style="stop-color: #FFA4ED"></stop>
	<stop offset="1" class="secondary-color-gradient" style="stop-color: #DB81DA"></stop>
</linearGradient>
<path fill="url(#SVGID_1_)" d="M455.8,389.6c0,0-20.7,28.1-55.1,14.3c0,0-1.7,8.6-5.2,17.2c-3.4,8.6-8.6,17.2-15.5,17.2
	c-18.7,0-14.9-13.8-48.2-13.8c-33.3,0-20.3,41.3-75.8,41.3s-42.4-41.3-75.8-41.3c-33.3,0-29.5,13.8-48.2,13.8
	c-13.8,0-20.7-34.4-20.7-34.4c-34.4,13.8-55.1-14.3-55.1-14.3s8.2-14,33.3-22.3c0,0,0,0,0,0c2.6-0.9,5.3-1.4,8-1.4h126.9
	c26.2,0,47.4-21.2,47.4-47.4v-214c0-12.8,12.1-22.1,24.5-18.8c29,7.7,62.9,26.3,62.9,70.8v68.3c0,0,7.6-1.7,29.8-12.8
	c14.1-7,22.2,0,22.2,0s11.1,11.1,0,22.2c-11.1,11.1-31.4,32-52.1,32c0,5.5,2.6,14.1,6.9,24c1.4,3.3,3.1,6.8,4.8,10.4l20.3,34.6
	c11.2,16.3,22.9,29.5,31.1,32.2C447.6,375.6,455.8,389.6,455.8,389.6z"></path>
<path d="M382.4,63.5c-4.2-4.2-4.2-11,0-15.2c4.2-4.2,11-4.2,15.2,0c4.2,4.2,4.2,11,0,15.2C393.4,67.7,386.6,67.7,382.4,63.5z
	 M357.8,312.5h43c4.4,0,8-3.6,8-8s-3.6-8-8-8h-43c-4.4,0-8,3.6-8,8S353.4,312.5,357.8,312.5z M97.9,447.6H24.1c-4.4,0-8,3.6-8,8
	s3.6,8,8,8h73.8c4.4,0,8-3.6,8-8S102.4,447.6,97.9,447.6z M384.6,114.4c0,3.6,2.9,6.5,6.5,6.5h64.6c3.6,0,6.5-2.9,6.5-6.5
	s-2.9-6.5-6.5-6.5h-64.6C387.5,107.9,384.6,110.8,384.6,114.4z M51.7,210.4c4.4,0,8-3.6,8-8c0-11.4,9.3-20.8,20.8-20.8
	c4.4,0,8-3.6,8-8s-3.6-8-8-8c-20.3,0-36.8,16.5-36.8,36.8C43.7,206.8,47.3,210.4,51.7,210.4z M427.4,165.6c-4.4,0-8,3.6-8,8
	s3.6,8,8,8c11.4,0,20.8,9.3,20.8,20.8c0,4.4,3.6,8,8,8s8-3.6,8-8C464.1,182.1,447.6,165.6,427.4,165.6z M468.8,335.2
	c0-4.4-3.6-8-8-8H359.7c-4.4,0-8,3.6-8,8s3.6,8,8,8h101.1C465.3,343.2,468.8,339.6,468.8,335.2z M68.6,75.6h3.9v3.9c0,4.4,3.6,8,8,8
	s8-3.6,8-8v-3.9h3.9c4.4,0,8-3.6,8-8s-3.6-8-8-8h-3.9v-3.9c0-4.4-3.6-8-8-8s-8,3.6-8,8v3.9h-3.9c-4.4,0-8,3.6-8,8
	S64.1,75.6,68.6,75.6z M465.5,425.5h-3.9v-3.9c0-4.4-3.6-8-8-8s-8,3.6-8,8v3.9h-3.9c-4.4,0-8,3.6-8,8s3.6,8,8,8h3.9v3.9
	c0,4.4,3.6,8,8,8s8-3.6,8-8v-3.9h3.9c4.4,0,8-3.6,8-8S470,425.5,465.5,425.5z"></path>
<path d="M256,473.9c-35.4,0-47-16.1-55.6-27.9c-6.6-9.1-10.2-13.4-20.2-13.4c-16.6,0-22.1,3.6-27.5,7.1c-4.8,3.1-10.3,6.7-20.7,6.7
	c-9.3,0-17-7.5-22.9-22.3c-1.4-3.5-2.5-7-3.4-10c-27.5,6.6-48.2-9.4-55.9-19.8c-1.9-2.6-2.1-6-0.5-8.8c0.4-0.7,10-16.7,37.7-25.8
	c5.8-1.9,19.3-15.7,34.9-41.4c11.5-18.9,18.8-35.4,21.5-45.3c-19.5-4.4-36.6-21.4-47.4-32.1l-1.1-1.1c-12.3-12.3-6.7-26.8,0-33.5
	c0.1-0.1,0.3-0.3,0.4-0.4c4.5-3.9,16.1-8.5,31-1.1c7.9,4,13.9,6.7,18.3,8.5v-56.9c0-21.4,7.2-39.3,21.3-53.3
	c31.5-31.1,86.5-31.1,90-31.1c3.5,0,58.6,0,90,31.1c14.1,13.9,21.3,31.9,21.3,53.3v56.9c4.4-1.8,10.3-4.6,18.3-8.5
	c14.9-7.4,26.5-2.8,31.1,1.1c0.1,0.1,0.3,0.3,0.4,0.4c0.7,0.7,4.2,4.4,6.1,10.1c2.8,8.4,0.6,16.7-6.1,23.4l-1.1,1.1
	c-10.8,10.8-27.9,27.8-47.4,32.2c0.9,3.3,2.4,7.8,5.1,13.9c1.4,3.2,2.9,6.5,4.7,10c2,4,0.3,8.8-3.6,10.7c-4,2-8.8,0.3-10.7-3.6
	c-1.9-3.7-3.5-7.4-5-10.8c-5-11.6-7.6-20.8-7.6-27.2c0-4.4,3.6-8,8-8c16.7,0,35.3-18.6,45.3-28.5l1.1-1.1c4.1-4.1,2.6-7.9,0.3-10.5
	c-1.2-0.7-5.6-2.7-13.4,1.1c-22.4,11.2-30.8,13.3-31.6,13.5c-2.4,0.5-4.9,0-6.8-1.6c-1.9-1.5-3-3.8-3-6.2v-68.3
	c0-17-5.6-31.1-16.5-41.9c-27.1-26.8-78.2-26.5-78.7-26.4c-0.1,0-0.1,0-0.2,0c-0.5,0-51.7-0.2-78.7,26.5
	c-10.9,10.8-16.5,24.9-16.5,41.8v68.3c0,2.4-1.1,4.7-3,6.2c-1.9,1.5-4.4,2.1-6.8,1.6c-0.9-0.2-9.2-2.3-31.6-13.5
	c-7.7-3.8-12.2-1.8-13.4-1.1c-2.2,2.5-3.8,6.3,0.3,10.5l1.1,1.1c10,10,28.6,28.5,45.3,28.5c4.4,0,8,3.6,8,8
	c0,14.4-13,40.7-25.1,60.6c-7.8,12.7-27.6,42.9-43.6,48.2c-13.2,4.4-21,10.3-25.2,14.3c6.7,6.1,21.2,15.3,41.5,7.2
	c2.2-0.9,4.7-0.7,6.8,0.4c2.1,1.1,3.6,3.1,4,5.5c3.1,15.5,10,28,12.8,28c5.7,0,7.9-1.5,12-4.1c6.6-4.3,14.8-9.6,36.2-9.6
	c18.6,0,26.4,10.7,33.2,20.1c7.9,10.9,15.4,21.3,42.6,21.3c27.2,0,34.7-10.3,42.6-21.3c6.8-9.4,14.5-20.1,33.2-20.1
	c21.4,0,29.6,5.3,36.2,9.6c4.1,2.7,6.4,4.1,12,4.1c0.6,0,4.1-2.2,8.1-12.2c3.1-7.8,4.7-15.7,4.8-15.8c0.5-2.3,1.9-4.3,4-5.5
	c2.1-1.1,4.6-1.3,6.8-0.4c11.9,4.8,23.2,4.3,33.6-1.5c3.3-1.8,5.9-3.9,7.9-5.7c-4.1-4-11.9-10-25.1-14.3
	c-11.8-3.9-25.6-21.3-35.2-35.2c-2.5-3.6-1.6-8.6,2.1-11.1c3.6-2.5,8.6-1.6,11.1,2.1c13.2,19.2,22.8,27.7,27,29.1
	c27.6,9.1,37.3,25.1,37.7,25.8c1.6,2.8,1.4,6.2-0.5,8.8c-7.6,10.4-28.4,26.4-55.9,19.8c-0.9,3-2,6.5-3.4,10
	c-5.9,14.8-13.6,22.2-22.9,22.2c-10.4,0-15.9-3.6-20.7-6.7c-5.3-3.5-10.9-7.1-27.5-7.1c-10,0-13.6,4.4-20.2,13.4
	C303,457.8,291.4,473.9,256,473.9z M105.8,218L105.8,218L105.8,218z M406.2,218C406.2,218,406.2,218,406.2,218S406.2,218,406.2,218z
	"></path>
</svg>