<svg version="1.1" id="Layer_1" xmlns="http://www.w3.org/2000/svg" xmlns:xlink="http://www.w3.org/1999/xlink" x="0px" y="0px" viewBox="0 0 512 512" enable-background="new 0 0 512 512" xml:space="preserve">
<linearGradient id="SVGID_1_" gradientUnits="userSpaceOnUse" x1="260.9934" y1="425.9536" x2="260.9934" y2="134.9221" class="gradient-element">
	<stop offset="0" class="primary-color-gradient" style="stop-color: #FFA4ED"></stop>
	<stop offset="1" class="secondary-color-gradient" style="stop-color: #DB81DA"></stop>
</linearGradient>
<path fill="url(#SVGID_1_)" d="M328.9,432.4l-25.5,23.7l-49.5-99l44.3-41.4c35.5-33.1,42.9-40,42.9-56.5c0-5.6-0.3-11.9-4.2-20.5
	l-15.6-35.2c-17.8-40.8,23.6-25.8,108.3-29.5l13.7,31c11.4,25.7,12.3,44,12.3,60.6C455.7,314.4,433.8,334.8,328.9,432.4z M123.6,174
	h-22.9c-19.6,0-34.4,14.8-34.4,34.4v11.5c0,7.5,0.7,15.2,2.4,22.9h54.9V174z"></path>
<path d="M503.8,155.2c0,5.9-4.8,10.8-10.8,10.8s-10.8-4.8-10.8-10.8c0-5.9,4.8-10.8,10.8-10.8S503.8,149.2,503.8,155.2z M42.4,73.3
	h15.8V89c0,4.4,3.6,8,8,8s8-3.6,8-8V73.3H90c4.4,0,8-3.6,8-8s-3.6-8-8-8H74.2V41.5c0-4.4-3.6-8-8-8s-8,3.6-8,8v15.8H42.4
	c-4.4,0-8,3.6-8,8S38,73.3,42.4,73.3z M233.8,462.3H40.1c-4.4,0-8,3.6-8,8s3.6,8,8,8h193.6c4.4,0,8-3.6,8-8S238.2,462.3,233.8,462.3
	z"></path>
<g>
	<path fill="#FFA4ED" class="primary-color" d="M501.7,498.7h-88.6v-32.9h55.7v-53.1h32.9V498.7z"></path>
	<path fill="#DB81DA" class="secondary-color" d="M504.9,14.9v57.8L389.2,14.9H504.9z M23.8,323.1h21.8v-56.9H23.8V323.1z"></path>
</g>
<path d="M304.3,462.2c-0.7,0-1.3-0.1-2-0.2c-3.4-0.6-6.4-2.9-8-6L249,365.2h-88.3l-36.5,86.7c-1.7,4.1-6.4,6-10.5,4.3
	c-4.1-1.7-6-6.4-4.3-10.5l37.7-89.6c1.7-4.1,5.8-6.8,10.3-6.8H252c4.2,0,8.1,2.4,10,6.2l43.8,87.7l17.6-16.4
	c102.8-95.7,124.2-115.6,124.2-161c0-15.8-0.9-33.2-11.6-57.4l-46-104c-11.7-26.4-28.6-36.7-60.3-36.7h-95.1v6.9h55.2
	c4.4,0,8.4,2.6,10.2,6.6l17.5,39.5c1.5,3.5,1.2,7.4-0.8,10.6c-2.1,3.2-5.5,5.1-9.3,5.1H261c-35.4,0-44.9,12.5-56.7,39.2
	c-1.8,4-5.8,6.6-10.2,6.6h-62.6v68.7H92.1c-4.4,0-8-3.6-8-8s3.6-8,8-8h23.5V182h-11.8c-16.3,0-29.5,13.2-29.5,29.5v8.3
	c0,23.4,6.9,42.2,20.4,55.8c18.3,18.4,48.9,27.8,91.1,27.8h70.8c4.4,0,8,3.6,8,8s-3.6,8-8,8h-70.8c-46.6,0-81.1-10.9-102.5-32.5
	c-16.6-16.8-25-39.3-25-67.1v-8.3c0-25.1,20.4-45.5,45.5-45.5H191c6.3-13.9,12.9-24.8,22.9-32.7c11.4-8.9,26.3-13.1,47.1-13.1h38.8
	l-13.2-29.8h-56.9c-6.1,0-11.1-5-11.1-11.1V62.6c0-6.1,5-11.1,11.1-11.1h99.9c38.2,0,60.6,13.8,74.9,46.2l46,104
	c12,27.1,13,46.4,13,63.9c0,27.4-7,46.4-25.8,70.1c-19,23.9-50.8,53.5-103.6,102.6l-22.4,20.9C309.8,461.1,307.1,462.2,304.3,462.2z
	 M258.7,214.1c0-24.3-14.4-26.9-20.6-26.9s-20.6,2.6-20.6,26.9c0,24.3,14.4,26.9,20.6,26.9S258.7,238.3,258.7,214.1z M242.7,214.1
	c0,10.9-3.1,10.9-4.6,10.9s-4.6,0-4.6-10.9c0-10.9,3.1-10.9,4.6-10.9S242.7,203.2,242.7,214.1z"></path>
</svg>