<svg version="1.1" id="Layer_1" xmlns="http://www.w3.org/2000/svg" xmlns:xlink="http://www.w3.org/1999/xlink" x="0px" y="0px" viewBox="0 0 512 512" enable-background="new 0 0 512 512" xml:space="preserve">
<linearGradient id="SVGID_1_" gradientUnits="userSpaceOnUse" x1="265.3739" y1="498.2214" x2="265.3739" y2="111.1167" class="gradient-element">
	<stop offset="0" class="primary-color-gradient" style="stop-color: #FFA4ED"></stop>
	<stop offset="1" class="secondary-color-gradient" style="stop-color: #DB81DA"></stop>
</linearGradient>
<path fill="url(#SVGID_1_)" d="M483.7,173c-0.7-13.9-3-23.3-6.3-31.6c-3.5-8.6-8.1-15.8-15.7-23.1c-7.5-7.2-15.1-11.7-24-15
	c-8.6-3.2-18.5-5.4-32.9-6c-3.7-0.2-9.6-0.3-17-0.4c-45.2-0.6-82.3,33.4-84.1,76.3c11.3-8.6,25.4-13.7,40.7-13.7
	c37.2,0,67.3,30.1,67.3,67.3s-30.1,67.3-67.3,67.3c-17.5,0-33.5-6.7-45.5-17.7c-8.1,17.8-25.7,30.6-46.6,32.6c1.6-2.9,2.9-6,3.8-9.3
	c-6.4,4-13.2,7.2-20.4,9.6h-12.6c-6.7-5.8-15.2-7.3-24.6-8.8c0,0,0-3.8-0.1-3.8c-3.9-0.6-7.4,6.2-7.4,10.1l-0.5,31.6
	c-0.1,6.1-0.6,12.5-1.6,19.1c-9.5,65.5-62.6,116-128.3,123.3l-14.4,1.6c17.4,8.6,36.7,13.4,57.1,13.4c87.6,0,135.5-76.9,135.5-143.5
	c0-2.2,0-4.4-0.1-6.5c1.3-1,2.7-2.1,3.9-3.2c14.6,8.8,32.7,14.2,46.5,14.2h14.4c36.9,0,86.7-0.2,101.2-0.8c14.4-0.6,24.3-2.8,32.9-6
	c8.9-3.3,16.5-7.8,24-15c7.5-7.2,12.2-14.5,15.7-23.1c3.4-8.3,5.7-17.7,6.3-31.6c0.7-13.9,0.8-18.3,0.8-53.7
	C484.5,191.3,484.4,186.9,483.7,173z M418.6,163.3c-10.3,0-18.7-8.4-18.7-18.7c0-10.3,8.4-18.7,18.7-18.7c10.3,0,18.7,8.4,18.7,18.7
	C437.3,154.9,428.9,163.3,418.6,163.3z"></path>
<path d="M488.3,226.9c0,35.6-0.2,40.3-0.8,54.4c-0.6,13.5-2.7,24.1-6.6,34.3c-4,10.2-9.2,18.3-16.9,26c-7.7,7.7-15.7,12.9-26,16.9
	c-10.2,4-20.8,6-34.3,6.6c-14.1,0.6-18.8,0.8-54.4,0.8c-35.5,0-40.2-0.2-54.4-0.8c-5.1-0.2-9.7-0.7-14.1-1.3
	c-7.2-1.1-13.6-2.7-20-5.2c-3.8-1.4-6-5.4-5.1-9.4c1.2-4.8,6.2-7.4,10.7-5.6c5.4,2.1,10.7,3.5,16.8,4.4c3.8,0.6,7.9,1,12.4,1.2
	c13.9,0.6,18.5,0.8,53.7,0.8c35.2,0,39.8-0.1,53.7-0.8c11.7-0.5,20.8-2.2,29.3-5.6c8.1-3.1,14.4-7.3,20.4-13.3
	c6.1-6.1,10.2-12.4,13.3-20.5c3.3-8.5,5-17.5,5.6-29.3c0.6-13.8,0.8-18.4,0.8-53.7c0-35.3-0.1-39.9-0.8-53.7
	c-0.5-11.7-2.2-20.8-5.6-29.3c-3.1-8.1-7.2-14.4-13.3-20.4c-6.1-6.1-12.4-10.2-20.4-13.3c-8.5-3.3-17.5-5-29.3-5.6
	c-13.9-0.6-18.5-0.8-53.7-0.8c-35.2,0-39.8,0.1-53.6,0.8c0,0,0,0,0,0c-11.7,0.5-20.8,2.2-29.3,5.6c-8.1,3.1-14.4,7.2-20.4,13.3
	c-6.1,6.1-10.2,12.4-13.3,20.4c-3.3,8.5-5,17.5-5.6,29.3c-0.7,15.3-0.8,53.4-0.8,80.8c0,4-2.8,7.6-6.8,8.2c-4.9,0.7-9.2-3.1-9.2-7.9
	c0-44.5,0.2-69.7,0.8-81.8c0.6-13.5,2.7-24.1,6.6-34.3c4-10.2,9.2-18.2,16.9-26c7.7-7.7,15.7-12.9,26-16.9c10.2-4,20.8-6,34.3-6.6
	c0,0,0,0,0,0c14.2-0.6,18.8-0.8,54.4-0.8c35.5,0,40.2,0.2,54.4,0.8c13.5,0.6,24.1,2.7,34.3,6.6c10.2,4,18.3,9.2,26,16.9
	c7.7,7.7,12.9,15.7,16.9,26c4,10.2,6,20.8,6.6,34.3C488.2,186.6,488.3,191.3,488.3,226.9z M345.8,151.7c44.3-2,80.8,34.4,78.7,78.7
	c-1.8,38.6-33,69.9-71.7,71.7c-44.3,2-80.8-34.4-78.7-78.7C275.9,184.7,307.1,153.4,345.8,151.7z M353.2,167.7
	c-35.7-2.3-65.3,27.3-63,63c1.9,29.5,25.7,53.4,55.3,55.3c35.7,2.3,65.3-27.3,63-63C406.6,193.5,382.7,169.6,353.2,167.7z
	 M304,226.9c0,4.9,4.3,8.7,9.3,7.9c3.9-0.6,6.6-4.2,6.7-8.1c0.1-16,13.2-29.1,29.3-29.1c16.2,0,29.3,13.1,29.3,29.3
	c0,5.4-1.5,10.7-4.3,15.3c-5.3,8.7-14.6,13.9-24.7,14c-4,0-7.5,2.8-8.1,6.7c-0.8,5,3,9.3,7.9,9.3c15.9,0,30.3-8.1,38.6-21.6
	c4.4-7.1,6.7-15.3,6.7-23.7c0-25-20.3-45.3-45.3-45.3C324.3,181.6,304,201.9,304,226.9z M399.1,146.6c-1.2-15.1,11.4-27.7,26.5-26.5
	c11.9,0.9,21.5,10.6,22.5,22.5c1.2,15.1-11.4,27.7-26.4,26.5C409.7,168.1,400.1,158.5,399.1,146.6z M410.8,142.9
	c-1.1,8.4,6,15.5,14.4,14.4c5.7-0.7,10.4-5.4,11.1-11.1c1.1-8.4-6-15.5-14.4-14.4C416.1,132.6,411.5,137.2,410.8,142.9z
	 M246.1,350.1c0,0.9,0,1.8,0,2.7c0,36.5-13.3,73.5-36.6,101.4c-18.8,22.5-52.4,49.4-106.2,49.4c-27.3,0-53.9-8.2-76.9-23.8
	c-2.6-1.7-4.1-4.7-3.7-7.8c0.6-4.5,4.7-7.5,9-6.9c3.4,0.4,6.8,0.6,10.3,0.6c13.8,0,27-3.3,39-9.7c-15-6.4-27-19.5-32-36.3
	c-0.8-2.7-0.2-5.6,1.7-7.7c0.2-0.2,0.4-0.4,0.6-0.6c-11.9-10.8-19.3-26.7-19.3-44.1c0,0,0-0.1,0-0.1l0-0.5c0-1.9,0.6-3.8,1.9-5.2
	c1.4-1.6,3.2-2.5,5.1-2.8c-4.3-8.3-6.6-17.8-6.6-27.6c0-10.2,2.5-20.2,7.4-29c0.8-1.4,2-2.6,3.4-3.4c3.6-1.8,7.7-0.7,10,2.3
	c20.6,26.8,50.1,44.1,82.1,48.4c0-0.8-0.1-1.7-0.1-2.5c0-32.1,24.9-58.2,55.4-58.2c13.7,0,27,5.4,37.2,15
	c8.1-2.2,15.9-5.5,23.1-10.1c2.3-1.4,5.1-1.7,7.6-0.6c3.8,1.7,5.6,5.8,4.4,9.6c-1.1,3.5-2.4,6.9-4.1,10.1c3.7-1.4,8,0.1,9.9,3.9
	c1.4,2.6,1,5.7-0.5,8.2C262.1,334.6,254.7,343,246.1,350.1z M238.1,335.8c-0.8,0.1-1.7,0.3-2.5,0.4c-3.1,0.4-6.2-0.9-7.9-3.5
	c-2.5-3.9-1.3-8.8,2.4-11.1c1.3-0.9,2.6-1.8,3.9-2.8c-2.4,0.7-4.8,1.3-7.2,1.8c-2.9,0.6-5.8-0.5-7.7-2.6c-7.5-8.4-17.6-13-28.5-13
	c-21.7,0-39.4,18.9-39.4,42.2c0,3.3,0.3,6.5,1,9.5c0.3,1.2,0.3,2.4,0.1,3.5c-0.9,4.1-4.5,6.5-8.3,6.3c-35.8-1.9-69.6-18.1-94.6-44.9
	c-0.7,3.2-1.1,6.5-1.1,9.8c0,14.1,6.5,27.2,17.5,35.1c2.3,1.7,3.8,4.4,3.6,7.3c-0.4,4.4-4.1,7.5-8.3,7.4c-3.9-0.1-7.8-0.7-11.5-1.7
	c4,14.6,15.3,26.2,29.8,29.4c2.9,0.7,5.5,2.7,6.3,5.6c1.3,4.4-1.3,8.8-5.5,10c-3.5,1-7.2,1.7-10.8,1.9c7,10.8,18.6,17.7,31.4,18.1
	c2.7,0.1,5.3,1.3,6.8,3.6c2.3,3.5,1.5,8-1.6,10.5c-13.3,11-28.5,18.3-44.8,21.5c13.5,5.1,27.7,7.7,42.2,7.7
	c79.4,0,126.8-68.5,126.8-134.8c0-2.1,0-4.2-0.1-6.2c-0.1-2.6,1-5.1,3.1-6.6C234.8,338.7,236.5,337.3,238.1,335.8z M31.9,242.1
	c0,0,66.4,0,67.1-0.1c3,0,3.5,0.3,5.4-0.6c2.9-1.4,4.7-4.5,4.7-7.7v-94.6c0-4.4-3.6-8-8-8h-18v-17.9h18c4.4,0,8-3.6,8-8V76.9
	c0-31.4,17-46.7,52.1-46.7c4.6,0,10.6,0.3,15.6,0.7v16.5c-3.4-0.1-7.1-0.1-10.1-0.1c-24.9,0-39.7,14.6-39.7,39.1v18.8
	c0,4.4,3.6,8,8,8h39l-2.8,17.9H135c-4.4,0-8,3.6-8,8v95.1c0,4.4,3.6,8,8,8h31.4c4,0,7.6-2.8,8.2-6.8c0.7-4.9-3.1-9.2-7.9-9.2H143
	v-79.1h35.1c3.9,0,7.3-2.9,7.9-6.8l5.3-33.9c0.5-3.4-1.2-6.9-4.6-8.5c-1.1-0.5-2.3-0.7-3.4-0.7l-40.2,0V86.3
	c0-15.7,7.5-23.1,23.7-23.1c5.6,0,13.5,0.2,17.7,0.4c3.5,0.2,6.9-2,8.1-5.7c0.2-0.8,0.3-1.6,0.3-2.3v-32c0-4.1-3.1-7.5-7.1-8
	c-5.5-0.6-16.7-1.4-24.5-1.4c-43.9,0-68.1,22.3-68.1,62.7v20.2h-18c-4.4,0-8,3.6-8,8v33.9c0,4.4,3.6,8,8,8h18v79.1H31.7
	c-4.8,0-8.6,4.2-7.9,9.2C24.3,239.3,27.9,242.1,31.9,242.1z"></path>
<g>
	<path fill="#DB81DA" class="secondary-color" d="M291.1,466.3h116.3v21.4H291.1V466.3z"></path>
	<path fill="#FFA4ED" class="primary-color" d="M450.9,370.8h35.2v21.6h-35.2V370.8z"></path>
</g>
<path d="M265.5,285.8h-63.8c-4.4,0-8-3.6-8-8s3.6-8,8-8h63.8c4.4,0,8,3.6,8,8S269.9,285.8,265.5,285.8z M175.6,266.9
	C175.6,266.9,175.6,266.9,175.6,266.9c-18.9,0-35.6,8.6-48.4,24.8c-6.3,8-10.6,16.7-13.1,23.2c-18.5-4.7-35.4-20.9-44.4-43
	c-1.7-4.1-6.3-6.1-10.4-4.4c-4.1,1.7-6.1,6.3-4.4,10.4c9.7,23.9,31.6,50.6,64,54.1c0.3,0,0.6,0,0.8,0c3.8,0,7.2-2.7,7.9-6.6
	c1.2-6.6,15-42.5,47.9-42.5c0,0,0,0,0,0c4.4,0,8-3.6,8-8C183.6,270.5,180,266.9,175.6,266.9z M275.1,424.5h-5.6v-5.6
	c0-4.4-3.6-8-8-8s-8,3.6-8,8v5.6H248c-4.4,0-8,3.6-8,8s3.6,8,8,8h5.6v5.6c0,4.4,3.6,8,8,8s8-3.6,8-8v-5.6h5.6c4.4,0,8-3.6,8-8
	S279.6,424.5,275.1,424.5z M492.7,13.7h-67.8c-4.4,0-8,3.6-8,8s3.6,8,8,8h67.8c4.4,0,8-3.6,8-8S497.1,13.7,492.7,13.7z M372.6,63.2
	h107.8c4.4,0,8-3.6,8-8s-3.6-8-8-8H372.6c-4.4,0-8,3.6-8,8S368.1,63.2,372.6,63.2z M393.6,409.1h-67.8c-4.4,0-8,3.6-8,8s3.6,8,8,8
	h67.8c4.4,0,8-3.6,8-8S398,409.1,393.6,409.1z M482.5,447.9h-15.8v-15.8c0-4.4-3.6-8-8-8s-8,3.6-8,8v15.8H435c-4.4,0-8,3.6-8,8
	s3.6,8,8,8h15.8v15.8c0,4.4,3.6,8,8,8s8-3.6,8-8v-15.8h15.8c4.4,0,8-3.6,8-8S487,447.9,482.5,447.9z M51,36.7c0,5.5-4.4,9.9-9.9,9.9
	s-9.9-4.4-9.9-9.9s4.4-9.9,9.9-9.9S51,31.2,51,36.7z"></path>
</svg>