<svg version="1.1" id="Layer_1" xmlns="http://www.w3.org/2000/svg" xmlns:xlink="http://www.w3.org/1999/xlink" x="0px" y="0px" viewBox="0 0 512 512" enable-background="new 0 0 512 512" xml:space="preserve">
<g>
	<linearGradient id="SVGID_1_" gradientUnits="userSpaceOnUse" x1="214.3801" y1="402.3802" x2="214.3801" y2="212.3381" class="gradient-element">
		<stop offset="0" class="primary-color-gradient" style="stop-color: #FFA4ED"></stop>
		<stop offset="1" class="secondary-color-gradient" style="stop-color: #DB81DA"></stop>
	</linearGradient>
	<path fill-rule="evenodd" clip-rule="evenodd" fill="url(#SVGID_1_)" d="M260.4,280.2c0.1,0.4,0,2.8,0,6.5v0
		c-0.3,18.4-2,68.9-4,68.9l-27.7-2.7c1.1-2.3,1.7-4.8,1.7-7.5c0-9.7-7.8-17.5-17.5-17.5h-28.8c-4.3-11.5-8-25.8-10.7-39
		c10-3.5,11.4-12.8,11.4-18.5c0-10.5-9.3-17.6-16.5-17.7c0-0.3,0-0.6,0-0.8v-13.2c0-12.2,7.6-23.2,19.2-27.2c0.1,0,0.2-0.1,0.3-0.1
		c2.2-0.8,4.6,0.4,5.3,2.7c1.4,4.6,6.3,12,22.6,19.1C240.5,244.2,256.4,251.6,260.4,280.2z"></path>
	<linearGradient id="SVGID_2_" gradientUnits="userSpaceOnUse" x1="376.9626" y1="402.3802" x2="376.9626" y2="212.3381">
		<stop offset="0" class="primary-color-gradient" style="stop-color: #FFA4ED"></stop>
		<stop offset="1" class="secondary-color-gradient" style="stop-color: #DB81DA"></stop>
	</linearGradient>
	<path fill-rule="evenodd" clip-rule="evenodd" fill="url(#SVGID_2_)" d="M480.8,269.4c-3.6-6.3-14.3-24.8-41.1-24.8
		c-2.7,0-5.3,0.1-7.7,0.2c0.2,0,0.5,0,0.7,0c-0.6-0.4-1.1-0.8-1.8-1.2c-6.2-3.8-13.5-7-21.9-10.7c-26.3-11.5-22.9-23.6-22.9-23.6
		c-2.4,1-4.6,1.8-6.8,2.5c-10.4,3.3-17.5,12.8-17.5,23.6v17.3h18.7c19.2,0,28.9-5.6,47.2-7.5c-0.5,0.1-1,0.1-1.5,0.2
		c4.9,4.8,7.8,9.8,9.4,12.5c0,0,4.7,66.9-4.2,66.9c-1.8,0-5.9,1.9-11.6,4.9c-13.1,7.1-34,20.5-50.9,31.1c-12.4,7.8-22.7,14-26.3,15
		c-5.1,1.6-11.4,3.5-18.3,5.6c-19,5.8-43.1,13-61.9,18.5c-0.2,2.4,0.2,5,1,7.7c2.6,8.1,8.6,13.3,15.9,11.6
		c11.2-2.5,57.8-16.5,90.1-26.3c6.9-2.1,13.2-4,18.3-5.6c3.5-1.1,13.8-7.3,26.3-15c17-10.6,37.9-24,50.9-31.1
		c5.6-3.1,9.8-4.9,11.5-4.9c8.9,0,14.9,0,14.9,0v-66.9H480.8z M429.2,245.1c-0.4,0-0.9,0.1-1.3,0.1
		C428.3,245.2,428.7,245.2,429.2,245.1z M430.9,245c-0.4,0-0.7,0.1-1.1,0.1C430.2,245,430.5,245,430.9,245z"></path>
	<linearGradient id="SVGID_3_" gradientUnits="userSpaceOnUse" x1="217.7481" y1="156.0564" x2="167.5985" y2="156.0564">
		<stop offset="0" class="primary-color-gradient" style="stop-color: #FFA4ED"></stop>
		<stop offset="1" class="secondary-color-gradient" style="stop-color: #DB81DA"></stop>
	</linearGradient>
	<path fill="url(#SVGID_3_)" d="M168.1,99.6c1.7-1,46.5,5.2,46.5,5.2s4.6,27.7,0,66.6c-2.7,22.5-17.8,34.2-30.1,40.1
		c-7.6,3.7-16.4-2-16.4-10.4v-96.9C168.1,104.2,166.5,100.5,168.1,99.6z"></path>
	<linearGradient id="SVGID_4_" gradientUnits="userSpaceOnUse" x1="411.2216" y1="155.7748" x2="361.0721" y2="155.7748">
		<stop offset="0" class="primary-color-gradient" style="stop-color: #FFA4ED"></stop>
		<stop offset="1" class="secondary-color-gradient" style="stop-color: #DB81DA"></stop>
	</linearGradient>
	<path fill="url(#SVGID_4_)" d="M361.6,99.3c1.7-1,46.5,5.2,46.5,5.2s4.6,27.7,0,66.6c-2.7,22.5-17.8,34.2-30.1,40.1
		c-7.6,3.7-16.4-2-16.4-10.4v-96.9C361.6,103.9,359.9,100.2,361.6,99.3z"></path>
</g>
<path d="M482.6,279.1c-4.4,0-8,3.6-8,8s3.6,8,8,8h18.3c4.4,0,8-3.6,8-8s-3.6-8-8-8h-2v-9.7c0-4.1-3.3-7.4-7.4-7.4h-6.6
	c-10.8-16.4-26-24.8-45.3-24.8c-6.2,0-11.5,0.4-16.3,1.1c0.3-3.4-1.7-6.7-5-8c-20.1-8.1-27-14.4-29.3-17.1
	c12.5-9.5,18.9-23.1,21.7-30.6c1.8-4.8,2.6-9.9,2.6-15.1V99.7c0-2.6-1.3-5.1-3.5-6.6c-2.2-1.5-4.9-1.8-7.4-0.9
	c-7.3,2.8-14.7,1-23.2-1.2c-11.7-2.9-26.3-6.6-41.6,4.3c-3.6,2.6-4.5,7.6-1.9,11.2c2.6,3.6,7.6,4.5,11.2,1.9
	c8.8-6.3,16.6-4.8,28.5-1.8c6.7,1.7,14.1,3.5,22,3v57.9c0,3.3-0.6,6.6-1.7,9.6c-4.1,11.4-14.6,30.4-38.5,30.4
	c-22.4,0-33.2-15.3-38.4-28.1c-1.3-3.3-2-6.8-2-10.5v-63.2c0-7.5,4.6-13.1,8.5-16.4c9.1-7.9,23.1-11.5,36.5-9.5
	c4.8,0.7,9.2,2,13.5,3.2c11.3,3.2,23,6.5,38.4,0.1c4.1-1.7,6-6.4,4.3-10.5c-1.7-4.1-6.4-6-10.5-4.3c-10.3,4.3-17.7,2.2-27.9-0.7
	c-4.6-1.3-9.8-2.8-15.5-3.6c-17.9-2.7-36.8,2.4-49.3,13.2c-9,7.8-14,17.9-14,28.5v63.2c0,5.7,1.1,11.2,3.1,16.4
	c4.7,11.8,11.7,21.1,20.4,27.6c-3.7,4.2-11,10.7-23.8,16.9c-0.3,0.1-0.6,0.3-0.9,0.5c-2.7,1.7-26.4,17.2-34.9,28.1
	c-1.6,2-3,4.1-4.3,6.4c-5.5-12.8-16.3-26.4-35.6-34.2c-20.1-8.1-27-14.4-29.3-17.1c12.5-9.5,18.9-23.1,21.7-30.6
	c1.8-4.8,2.6-9.9,2.6-15.1V100c0-2.6-1.3-5.1-3.5-6.6c-2.2-1.5-4.9-1.8-7.4-0.9c-7.3,2.8-14.7,1-23.2-1.2
	c-11.7-2.9-26.3-6.6-41.6,4.3c-3.6,2.6-4.5,7.6-1.9,11.2c2.6,3.6,7.6,4.5,11.2,1.9c8.8-6.3,16.6-4.8,28.5-1.8c6.7,1.7,14.1,3.5,22,3
	v57.9c0,3.3-0.6,6.6-1.7,9.6c-4.1,11.4-14.6,30.4-38.5,30.4c-22.4,0-33.2-15.3-38.4-28.1c-1.3-3.3-2-6.8-2-10.5l0-63.2
	c0-7.5,4.6-13.1,8.5-16.4c9.1-7.9,23.1-11.5,36.5-9.5c4.8,0.7,9.2,2,13.5,3.2c11.3,3.2,23,6.5,38.4,0.1c4.1-1.7,6-6.4,4.3-10.5
	c-1.7-4.1-6.4-6-10.5-4.3c-10.3,4.3-17.7,2.2-27.9-0.7c-4.6-1.3-9.8-2.8-15.5-3.6c-17.9-2.7-36.8,2.4-49.3,13.2
	c-9,7.8-14,17.9-14,28.5l0,63.2c0,5.7,1.1,11.2,3.1,16.4c2.8,6.9,9.2,19.4,21.3,28.2c-2.1,2.4-7,6.8-18.1,12.1
	c-4,1.9-5.7,6.7-3.8,10.7c1.4,2.9,4.2,4.6,7.2,4.6c1.2,0,2.3-0.3,3.4-0.8c15-7.1,22.3-13.9,25.8-19.2c5.1,1.6,10.9,2.6,17.3,2.6
	c6.6,0,12.4-1,17.6-2.7c4.2,6.6,14.6,15.1,37.6,24.4c31.5,12.7,30.7,42.3,30.7,43.6c-0.1,1.6,0.3,3.1,1.1,4.4
	c-3.9,19.4-3.5,37.7-3.5,38.9c0.1,4.4,3.7,7.8,8,7.8c0.1,0,0.1,0,0.2,0c4.4-0.1,7.9-3.7,7.8-8.2c-0.3-12.4,1.8-48,14.2-63.9
	c5.7-7.3,23.6-19.7,30.5-24.2c17.6-8.4,26.7-17.8,30.9-23.5c5.7,1.9,11.8,3,18.3,3c6.6,0,12.4-1,17.6-2.7
	c3.8,5.9,12.3,13.2,30.2,21.3c-7.5,1.8-14.7,3.4-24.4,3.4h-41.8c-11.4,0-24.1,10.3-24.1,25.1c0,17.1,10.6,27.3,28.3,27.3h45.9
	c-0.3,0.7-0.8,1.6-1.6,2.7c-5.1,7-10.1,13.7-14.9,20H294c-13.8,0-25,11.2-25,25c0,0.3,0,0.5,0,0.8c-6.3,0.9-11.8,4.2-15.6,8.8
	c-3.8-4.7-9.4-7.9-15.6-8.8c0-0.2,0-0.5,0-0.7c0-13.8-11.2-25-25-25h-78.3c-4.8-6.3-9.8-13-14.9-20c-0.8-1.1-1.3-2.1-1.6-2.7H164
	c17.7,0,28.3-10.2,28.3-27.3c0-14.8-12.7-25.1-24.1-25.1h-41.8c-10.2,0-17.7-1.8-25.5-3.6c-8.9-2.1-18.9-4.5-33.6-4.5
	c-19.2,0-34.4,8.3-45.3,24.8h-7.6c-4.1,0-7.4,3.3-7.4,7.4s3.3,7.4,7.4,7.4h11.7c2.7,0,5.1-1.4,6.4-3.7c3.3-5.8,12.2-21.1,34.7-21.1
	c13,0,21.4,2,30.2,4.1c8.3,2,17,4,28.9,4h41.8c3.3,0,9.2,3.9,9.2,10.3c0,8.9-3.9,12.5-13.4,12.5h-46c-7.5,0-11.3,3.2-13.1,5.9
	c-1.5,2.1-3.6,6.8-1,13.7c0.8,2.2,2.1,4.5,3.7,6.8c6,8.2,11.8,16.1,17.4,23.3c6.8,8.7,11.8,14.8,14.5,18c0.6,0.7,1.1,1.3,1.5,1.8
	c0,0,0,0,0,0c0.9,1.1,1.4,1.6,1.4,1.6c0.7,0.8,1.5,1.4,2.5,1.8c3.1,1.4,75.3,34.2,86.7,38.8c0.3,0.1,0.6,0.2,0.9,0.4
	c0.1,0,0.1,0,0.2,0.1c1.4,0.7,2.4,1.5,3.1,2.4c1.7,2.3,1.2,5.6,0.5,8c-0.4,1.3-2.7,7.7-7.2,6.6c-10.1-2.3-52.9-15-89.6-26.2
	c-6.3-1.9-12.1-3.7-17-5.2l-1.3-0.4c-2.2-0.7-10.5-5.5-24.5-14.2c-3.4-2.2-7.1-4.4-10.7-6.7c-14.7-9.3-30-18.8-40.6-24.6
	c-9-4.9-12.4-5.9-15.1-5.9H14.4c-4.1,0-7.4,3.3-7.4,7.4s3.3,7.4,7.4,7.4h15.4c0.6,0.2,2.8,1,8.5,4c10.2,5.6,25.2,15,39.8,24.1
	c3.7,2.3,7.3,4.6,10.8,6.7c16.9,10.5,24.2,14.7,28,15.8l1.3,0.4c4.9,1.5,10.7,3.3,17,5.2c17.9,5.5,77.4,23.5,90.6,26.5
	c1.5,0.3,2.9,0.5,4.4,0.5c9,0,16.9-6.5,20.3-17.2c2.2-7,1.8-13.7-1.2-19.1c1.6-1.2,3-2.5,4.2-4c1.2,1.5,2.7,2.8,4.2,4
	c-3,5.4-3.5,12.1-1.2,19.1c3.4,10.7,11.2,17.2,20.3,17.2c1.4,0,2.9-0.2,4.4-0.5c13.2-3,72.7-21,90.6-26.5c6.2-1.9,11.9-3.6,16.7-5.1
	l1.6-0.5c3.8-1.2,11.1-5.3,28-15.8c3.5-2.2,7.1-4.4,10.8-6.7c14.5-9.1,29.6-18.6,39.8-24.1c5.6-3.1,7.8-3.9,8.5-4h14.4
	c4.1,0,7.4-3.3,7.4-7.4v-11.2c4.1-0.4,7.2-3.8,7.2-8c0-4.4-3.6-8-8-8h-67.8c-4.4,0-8,3.6-8,8s3.6,8,8,8H484v3.7h-7.4
	c-2.7,0-6.2,1-15.1,5.9c-10.6,5.8-25.8,15.3-40.6,24.6c-3.7,2.3-7.3,4.6-10.7,6.7c-14,8.7-22.3,13.5-24.5,14.2l-1.6,0.5
	c-4.8,1.5-10.5,3.2-16.7,5.1c-36.7,11.2-79.4,23.9-89.6,26.2c-4.5,1-6.8-5.4-7.2-6.6c-0.7-2.4-1.3-5.7,0.5-8
	c0.7-0.9,1.7-1.7,3.2-2.5c0.2-0.1,0.5-0.2,0.9-0.4c11.5-4.7,83.7-37.4,86.7-38.8c0.9-0.4,1.8-1.1,2.5-1.8c0,0,0.1-0.1,0.3-0.3
	c0,0,0,0,0.1-0.1c0.2-0.3,0.6-0.7,1.1-1.2c0,0,0,0,0,0c0.1-0.1,0.3-0.3,0.4-0.5c0.3-0.4,0.7-0.8,1.1-1.3c2.7-3.2,7.7-9.3,14.5-18
	c5.6-7.2,11.5-15,17.4-23.3c1.6-2.3,2.9-4.5,3.8-6.8c2.6-6.9,0.5-11.5-1-13.7c-1.9-2.7-5.7-5.9-13.1-5.9h-46
	c-9.5,0-13.4-3.6-13.4-12.5c0-6.4,6-10.3,9.2-10.3h41.8c12,0,20.6-2,28.9-4c8.9-2.1,17.2-4.1,30.2-4.1c22.5,0,31.3,15.3,34.7,21.1
	c1.3,2.3,3.8,3.7,6.4,3.7h3.3v2.2H482.6z M294,335.4h66.5c-0.1,0.1-0.1,0.2-0.2,0.2c-0.3,0.3-0.5,0.6-0.8,0.9
	c-0.1,0.1-0.2,0.3-0.3,0.4c-0.2,0.2-0.4,0.5-0.6,0.7c-0.2,0.2-0.3,0.4-0.5,0.5c-0.1,0.1-0.1,0.1-0.2,0.2c-0.5,0.6-0.9,1.1-1.3,1.6
	c0,0,0,0.1-0.1,0.1c0,0-0.1,0.1-0.1,0.1l-34.1,2.3l-38.5,2.6C284.1,339.7,288.5,335.4,294,335.4z M272.1,360.8
	c0.4,0,0.8-0.1,1.2-0.1c0.1,0,0.1,0,0.2,0l0.2,0c0.1,0,0.3,0,0.4,0l1.1-0.1c0.1,0,0.3,0,0.4,0l0.1,0c0,0,0.1,0,0.1,0l1-0.1
	c1.2-0.1,1.9-0.1,1.9-0.1l43.3-2.9c-1.5,0.7-3.1,1.4-4.7,2.1c-0.3,0.1-0.5,0.2-0.8,0.3c-0.2,0.1-0.5,0.2-0.7,0.3
	c-0.4,0.2-0.8,0.4-1.2,0.6c-0.3,0.1-0.6,0.3-0.8,0.4c-18.7,8.4-37.9,17-43.7,19.4c-4.1-1.1-7-4.7-7.3-9c0-0.2,0-0.4,0-0.7
	C262.6,365.6,266.7,361.2,272.1,360.8z M244.3,370.9c0,0.2,0,0.5,0,0.7c-0.3,4.3-3.3,7.9-7.3,9c0,0,0,0,0,0
	c-0.8-0.3-1.9-0.8-3.3-1.4c0,0,0,0,0,0c-0.3-0.1-0.6-0.3-1-0.4c0,0,0,0-0.1,0c-8.7-3.8-25.5-11.3-41.5-18.5c-0.1,0-0.2-0.1-0.3-0.1
	c-0.5-0.2-0.9-0.4-1.4-0.6c-1.5-0.7-2.9-1.3-4.4-2l43.3,2.9c0,0,0,0,0,0l0,0c0,0,0.7,0,1.9,0.1l1,0.1c0,0,0.1,0,0.1,0l0.1,0
	c0.1,0,0.3,0,0.4,0l1.1,0.1c0.1,0,0.3,0,0.4,0l0.2,0c0.1,0,0.1,0,0.2,0c0.4,0,0.8,0,1.3,0.1C240.2,361.2,244.3,365.6,244.3,370.9z
	 M223,345.1l-1-0.1l-71.6-4.8c0,0-0.1-0.1-0.1-0.1c-0.1-0.1-0.2-0.3-0.3-0.4c-0.2-0.2-0.4-0.5-0.6-0.8c-0.2-0.2-0.4-0.5-0.6-0.7
	c-0.1-0.2-0.3-0.4-0.4-0.5c-0.2-0.2-0.3-0.4-0.5-0.6c-0.2-0.2-0.4-0.4-0.5-0.7c-0.2-0.2-0.3-0.4-0.5-0.6c-0.1-0.1-0.2-0.3-0.3-0.4
	h66.5C218.3,335.4,222.8,339.7,223,345.1z"></path>
<path d="M402.1,434.8c-4.4,0-8-3.6-8-8s3.6-8,8-8c11.4,0,20.8-9.3,20.8-20.8c0-4.4,3.6-8,8-8s8,3.6,8,8
	C438.8,418.3,422.3,434.8,402.1,434.8z M488.8,426.8c0-4.4-3.6-8-8-8c-11.4,0-20.8-9.3-20.8-20.8c0-4.4-3.6-8-8-8s-8,3.6-8,8
	c0,20.3,16.5,36.8,36.8,36.8C485.2,434.8,488.8,431.2,488.8,426.8z M460.1,476.8c0-11.4,9.3-20.8,20.8-20.8c4.4,0,8-3.6,8-8
	s-3.6-8-8-8c-20.3,0-36.8,16.5-36.8,36.8c0,4.4,3.6,8,8,8S460.1,481.2,460.1,476.8z M438.8,476.8c0-20.3-16.5-36.8-36.8-36.8
	c-4.4,0-8,3.6-8,8s3.6,8,8,8c11.4,0,20.8,9.3,20.8,20.8c0,4.4,3.6,8,8,8S438.8,481.2,438.8,476.8z M470.1,145
	c-5.9,0-10.8,4.8-10.8,10.8c0,5.9,4.8,10.8,10.8,10.8c5.9,0,10.8-4.8,10.8-10.8C480.8,149.8,476,145,470.1,145z M198.5,486.8
	c0-4.4-3.6-8-8-8H103c-4.4,0-8,3.6-8,8s3.6,8,8,8h87.6C194.9,494.8,198.5,491.2,198.5,486.8z M142.7,454.5c0-4.4-3.6-8-8-8H21.9
	c-4.4,0-8,3.6-8,8s3.6,8,8,8h112.8C139.1,462.5,142.7,458.9,142.7,454.5z M32,405.9c0-5-4.1-9-9-9s-9,4.1-9,9s4.1,9,9,9
	S32,410.9,32,405.9z M62,405.9c0-5-4.1-9-9-9s-9,4.1-9,9s4.1,9,9,9S62,410.9,62,405.9z M92,405.9c0-5-4.1-9-9-9s-9,4.1-9,9
	s4.1,9,9,9S92,410.9,92,405.9z M88.6,52.6c0-14.6-11.8-26.4-26.4-26.4S35.8,38.1,35.8,52.6S47.7,79,62.2,79S88.6,67.2,88.6,52.6z
	 M72.6,52.6C72.6,58.4,68,63,62.2,63s-10.4-4.7-10.4-10.4s4.7-10.4,10.4-10.4S72.6,46.9,72.6,52.6z"></path>
</svg>