<svg version="1.1" id="Layer_1" xmlns="http://www.w3.org/2000/svg" xmlns:xlink="http://www.w3.org/1999/xlink" x="0px" y="0px" viewBox="0 0 512 512" enable-background="new 0 0 512 512" xml:space="preserve">
<path d="M483.6,212c0,4.4-3.6,8-8,8h-15.8v15.8c0,4.4-3.6,8-8,8s-8-3.6-8-8V220h-15.8c-4.4,0-8-3.6-8-8s3.6-8,8-8h15.8v-15.8
	c0-4.4,3.6-8,8-8s8,3.6,8,8V204h15.8C480,204,483.6,207.5,483.6,212z M149,87.7h-3.9v-3.9c0-4.4-3.6-8-8-8s-8,3.6-8,8v3.9h-3.9
	c-4.4,0-8,3.6-8,8s3.6,8,8,8h3.9v3.9c0,4.4,3.6,8,8,8s8-3.6,8-8v-3.9h3.9c4.4,0,8-3.6,8-8S153.5,87.7,149,87.7z M73.1,175.1h-3.9
	v-3.9c0-4.4-3.6-8-8-8s-8,3.6-8,8v3.9h-3.9c-4.4,0-8,3.6-8,8s3.6,8,8,8h3.9v3.9c0,4.4,3.6,8,8,8s8-3.6,8-8v-3.9h3.9c4.4,0,8-3.6,8-8
	S77.6,175.1,73.1,175.1z"></path>
<g>
	<path fill="#DB81DA" class="secondary-color" d="M53.9,61.8H19.2V27.1h34.7V61.8z M109.2,27.1H74.5v34.7h34.7V27.1z M477.2,159.6H499v-56.9h-21.8V159.6z
		 M367,25.8v21.8h56.9V25.8H367z"></path>
	<path fill="#DB81DA" class="secondary-color" d="M499,25.8v1.8v20v36.9h-21.8V47.6h-35.1V25.8H499z M21.3,475.1V488h237.1v-12.9H21.3z"></path>
</g>
<linearGradient id="SVGID_1_" gradientUnits="userSpaceOnUse" x1="358.691" y1="450.0871" x2="358.691" y2="316.6976" class="gradient-element">
	<stop offset="0" class="primary-color-gradient" style="stop-color: #FFA4ED"></stop>
	<stop offset="1" class="secondary-color-gradient" style="stop-color: #DB81DA"></stop>
</linearGradient>
<path fill="url(#SVGID_1_)" d="M472.8,326.6v91.2c0,18.8-15.4,34.2-34.2,34.2H256c-6.3,0-11.4-5.1-11.4-11.4V395
	c0-6.3,5.1-11.4,11.4-11.4H354c3,0,5.9-1.2,8.1-3.3l61.8-61.8c2.1-2.1,5-3.3,8.1-3.3h29.5C467.7,315.2,472.8,320.3,472.8,326.6z"></path>
<path d="M449.9,460.1H62.1c-17,0-30.8-13.8-30.8-30.8V292.4c0-17,13.8-30.8,30.8-30.8h50.7c2.1,0,4.2,0.8,5.7,2.3l18.9,18.9
	c3.1,3.1,3.1,8.2,0,11.3s-8.2,3.1-11.3,0l-16.5-16.5H62.1c-8.2,0-14.8,6.6-14.8,14.8v136.9c0,8.2,6.6,14.8,14.8,14.8h387.8
	c8.2,0,14.8-6.6,14.8-14.8V292.4c0-8.2-6.6-14.8-14.8-14.8h-47.4l-66.1,66.1c-1.5,1.5-3.5,2.3-5.7,2.3H181.3c-2.1,0-4.2-0.8-5.7-2.3
	l-33.4-33.4c-3.1-3.1-3.1-8.2,0-11.3c3.1-3.1,8.2-3.1,11.3,0l31.1,31.1h142.8l66.1-66.1c1.5-1.5,3.5-2.3,5.7-2.3h50.7
	c17,0,30.8,13.8,30.8,30.8v136.9C480.8,446.2,466.9,460.1,449.9,460.1z M256,323.2c-61,0-110.7-49.6-110.7-110.7
	S195,101.9,256,101.9c61,0,110.7,49.6,110.7,110.7S317,323.2,256,323.2z M256,117.9c-52.2,0-94.7,42.5-94.7,94.7
	s42.5,94.7,94.7,94.7c52.2,0,94.7-42.5,94.7-94.7S308.2,117.9,256,117.9z M256,300.4c-19.1,0-37.3-6.1-52.6-17.5
	c-1.9-1.4-3-3.5-3.2-5.8c-0.2-2.3,0.7-4.6,2.3-6.2l88.3-88.3c3.1-3.1,8.2-3.1,11.3,0c3.1,3.1,3.1,8.2,0,11.3l-81.3,81.3
	c10.7,6.1,22.7,9.2,35.2,9.2c39.6,0,71.8-32.2,71.8-71.8c0-15.6-5-30.5-14.3-43c-2.6-3.5-1.9-8.6,1.6-11.2c3.5-2.6,8.5-1.9,11.2,1.6
	c11.5,15.3,17.5,33.5,17.5,52.6C343.9,261,304.5,300.4,256,300.4z M192.1,268.3c-0.2,0-0.4,0-0.6,0c-2.3-0.2-4.4-1.3-5.8-3.2
	c-11.5-15.3-17.5-33.5-17.5-52.6c0-48.4,39.4-87.8,87.8-87.8c4.4,0,8,3.6,8,8s-3.6,8-8,8c-39.6,0-71.8,32.2-71.8,71.8
	c0,12.5,3.2,24.5,9.2,35.2l104.8-104.8c3.1-3.1,8.2-3.1,11.3,0c3.1,3.1,3.1,8.2,0,11.3L197.8,266
	C196.3,267.5,194.2,268.3,192.1,268.3z"></path>
</svg>