<svg version="1.1" id="Layer_1" xmlns="http://www.w3.org/2000/svg" xmlns:xlink="http://www.w3.org/1999/xlink" x="0px" y="0px" viewBox="0 0 512 512" enable-background="new 0 0 512 512" xml:space="preserve">
<g>
	<linearGradient id="SVGID_1_" gradientUnits="userSpaceOnUse" x1="408.1337" y1="53.6428" x2="408.1337" y2="378.1878" class="gradient-element">
		<stop offset="0" class="primary-color-gradient" style="stop-color: #FFA4ED"></stop>
		<stop offset="1" class="secondary-color-gradient" style="stop-color: #DB81DA"></stop>
	</linearGradient>
	<path fill="url(#SVGID_1_)" d="M398,311.1v67.1l-27.3-28.6c0,0,44.3-82.5-21.8-148s12.7-148,12.7-148s134.9,31.7,132.1,133.6
		S398,311.1,398,311.1z"></path>
	<linearGradient id="SVGID_2_" gradientUnits="userSpaceOnUse" x1="235.1726" y1="469.1529" x2="235.1726" y2="176.072">
		<stop offset="0" class="primary-color-gradient" style="stop-color: #FFA4ED"></stop>
		<stop offset="1" class="secondary-color-gradient" style="stop-color: #DB81DA"></stop>
	</linearGradient>
	<path fill="url(#SVGID_2_)" d="M113.5,392.5c234.3-32.3-60.1-232,72.1-238.4c94.3-4.6,171.3,60.7,171.3,135.2
		c0,74.6-76.8,135.2-171.3,135.2c-5.8,0-11.6-0.2-17.3-0.7l-54.8,54.8V392.5"></path>
</g>
<path d="M394.6,386.2c-2.1,0-4.1-0.8-5.7-2.3l-28.3-28.3c-3.1-3.1-3.1-8.2,0-11.3c3.1-3.1,8.2-3.1,11.3,0l14.6,14.6v-47
	c0-0.5,0-1,0.1-1.6c0.2-1.2,0.7-2.3,1.3-3.2c0.7-0.9,1.5-1.8,2.6-2.4c0.4-0.3,0.9-0.5,1.4-0.6c52.6-19.4,93.8-70,93.8-115.2
	c0-4.4,3.6-8,8-8s8,3.6,8,8c0,25.3-10.7,52.6-30.3,76.8c-18.2,22.5-42.5,40.7-68.9,51.4v61c0,3.2-1.9,6.2-4.9,7.4
	C396.7,386,395.6,386.2,394.6,386.2z M483.5,150.7c-3,0-5.9-1.7-7.3-4.6c-23.3-50.5-85.1-84.4-153.7-84.4
	c-66,0-125.2,30.8-150.8,78.4c-2.1,3.9-6.9,5.4-10.8,3.3c-3.9-2.1-5.4-6.9-3.3-10.8c28.3-52.8,93-86.9,164.9-86.9
	c37.2,0,72.8,9,103.1,26.1c30,16.9,52.5,40.2,65.1,67.6c1.9,4,0.1,8.8-3.9,10.6C485.7,150.4,484.6,150.7,483.5,150.7z M119.1,484.3
	l52.2-52.2c4.8,0.3,9.5,0.5,14.3,0.5c98.9,0,179.3-64.3,179.3-143.2c0-79-80.4-143.2-179.3-143.2c-98.9,0-179.3,64.3-179.3,143.2
	c0,25,8.3,49.7,23.9,71.2c14.9,20.6,36.3,38.1,61.7,50.6c4,1.9,8.8,0.3,10.7-3.7s0.3-8.8-3.7-10.7c-48-23.6-76.7-63.8-76.7-107.5
	c0-70.2,73.3-127.2,163.3-127.2c90,0,163.3,57.1,163.3,127.2s-73.3,127.2-163.3,127.2c-5.5,0-11.2-0.2-16.7-0.7
	c-2.3-0.2-4.6,0.7-6.3,2.3l-41.1,41.1v-66.8c0-4.4-3.6-8-8-8s-8,3.6-8,8v86.1c0,3.2,1.9,6.2,4.9,7.4c1,0.4,2,0.6,3.1,0.6
	C115.5,486.7,117.6,485.8,119.1,484.3z"></path>
<path d="M423.8,142.7c0-4.4,3.6-8,8-8h65.9c4.4,0,8,3.6,8,8s-3.6,8-8,8h-65.9C427.4,150.7,423.8,147.1,423.8,142.7z M497.7,179.5
	h-32.9c-4.4,0-8,3.6-8,8s3.6,8,8,8h32.9c4.4,0,8-3.6,8-8S502.1,179.5,497.7,179.5z M101.7,77.3c-16.4,0-29.8,13.4-29.8,29.8
	c0,4.4,3.6,8,8,8s8-3.6,8-8c0-7.6,6.2-13.8,13.8-13.8c4.4,0,8-3.6,8-8S106.1,77.3,101.7,77.3z M41.9,77.3c-4.4,0-8,3.6-8,8
	s3.6,8,8,8c7.6,0,13.8,6.2,13.8,13.8c0,4.4,3.6,8,8,8s8-3.6,8-8C71.8,90.7,58.4,77.3,41.9,77.3z M63.8,39.4c-4.4,0-8,3.6-8,8
	c0,7.6-6.2,13.8-13.8,13.8c-4.4,0-8,3.6-8,8s3.6,8,8,8c16.4,0,29.8-13.4,29.8-29.8C71.8,43,68.2,39.4,63.8,39.4z M101.7,61.2
	c-7.6,0-13.8-6.2-13.8-13.8c0-4.4-3.6-8-8-8s-8,3.6-8,8c0,16.4,13.4,29.8,29.8,29.8c4.4,0,8-3.6,8-8S106.1,61.2,101.7,61.2z
	 M476.7,439h-15.1v-15.1c0-4.4-3.6-8-8-8s-8,3.6-8,8V439h-15.1c-4.4,0-8,3.6-8,8s3.6,8,8,8h15.1v15.1c0,4.4,3.6,8,8,8s8-3.6,8-8V455
	h15.1c4.4,0,8-3.6,8-8S481.1,439,476.7,439z M366.7,447c0,5.4-4.4,9.9-9.9,9.9s-9.9-4.4-9.9-9.9s4.4-9.9,9.9-9.9
	S366.7,441.6,366.7,447z M308.4,447c0,5.4-4.4,9.9-9.9,9.9s-9.9-4.4-9.9-9.9s4.4-9.9,9.9-9.9S308.4,441.6,308.4,447z M177.8,42.5
	h-26.3c-4.4,0-8,3.6-8,8s3.6,8,8,8h26.3c4.4,0,8-3.6,8-8S182.2,42.5,177.8,42.5z M59.1,473.2H32.7c-4.4,0-8,3.6-8,8s3.6,8,8,8h26.3
	c4.4,0,8-3.6,8-8S63.5,473.2,59.1,473.2z"></path>
<path fill="#DB81DA" class="secondary-color" d="M490.6,76.5l-45.7-45.7h45.7V76.5z"></path>
</svg>