<svg version="1.1" id="Layer_1" xmlns="http://www.w3.org/2000/svg" xmlns:xlink="http://www.w3.org/1999/xlink" x="0px" y="0px" viewBox="0 0 512 512" enable-background="new 0 0 512 512" xml:space="preserve">
<linearGradient id="SVGID_1_" gradientUnits="userSpaceOnUse" x1="38.8231" y1="279.4741" x2="398.9278" y2="279.4741" class="gradient-element">
	<stop offset="0" class="primary-color-gradient" style="stop-color: #FFA4ED"></stop>
	<stop offset="1" class="secondary-color-gradient" style="stop-color: #DB81DA"></stop>
</linearGradient>
<path fill="url(#SVGID_1_)" d="M397.3,385.6l-78.8,45.5c-1.6,0.9-3.6,0.4-4.5-1.2L201.2,234.6v0l0,0c0.6-1.2,1.2-2.4,1.8-3.6
	l74.8-43.2c3.7-2.2,8.5-0.9,10.7,2.9l110,190.5C399.4,382.7,398.9,384.7,397.3,385.6z M137.7,262.3l-14.1-8.2
	c-1.6-0.9-3.6-0.4-4.5,1.2l-8.2,14.1c-0.9,1.6-0.4,3.6,1.2,4.5l14.1,8.2c1.6,0.9,3.6,0.4,4.5-1.2l8.2-14.1
	C139.8,265.2,139.3,263.2,137.7,262.3z M213.7,127.4H88.1c-1.8,0-3.3,1.5-3.3,3.3v16.3c0,1.8,1.5,3.3,3.3,3.3h56.2
	c3.4,0,4.6,4.5,1.7,6.2l-48.7,28.1c-1.6,0.9-2.1,2.9-1.2,4.5l8.2,14.1c0.9,1.6,2.9,2.1,4.5,1.2l48.7-28.1c2.9-1.7,6.2,1.6,4.5,4.5
	l-28.1,48.7c-0.9,1.6-0.4,3.6,1.2,4.5l14.1,8.2c1.6,0.9,3.6,0.4,4.5-1.2l62.8-108.8C217.8,130.2,216.2,127.4,213.7,127.4z
	 M84.3,214.8l-8.2-14.1c-0.9-1.6-2.9-2.1-4.5-1.2l-14.1,8.2c-1.6,0.9-2.1,2.9-1.2,4.5l8.2,14.1c0.9,1.6,2.9,2.1,4.5,1.2l14.1-8.2
	C84.7,218.4,85.2,216.4,84.3,214.8z M58.5,127.4H42.1c-1.8,0-3.3,1.5-3.3,3.3v16.3c0,1.8,1.5,3.3,3.3,3.3h16.3
	c1.8,0,3.3-1.5,3.3-3.3v-16.3C61.8,128.9,60.3,127.4,58.5,127.4z"></path>
<path d="M315.6,440.7c-2.8,0-5.5-1.4-6.9-4L194.3,238.6c-0.5-0.9-0.9-1.9-1-2.9l-0.3-2.2c-4.7-33.6,7.8-65.9,33.7-87.9l-21.4-37.1
	c-1.4-2.5-1.4-5.5,0-8s4.1-4,6.9-4h26.5c4.4,0,8,3.6,8,8s-3.6,8-8,8h-12.6l17.9,31c2,3.5,1.1,8-2.2,10.4
	c-24.9,18.4-37.2,47.3-33,77.3l0.1,0.7l109.6,189.9l135.3-78.1l-25.4-44c-2.2-3.8-0.9-8.7,2.9-10.9s8.7-0.9,10.9,2.9l29.4,51
	c1.1,1.8,1.3,4,0.8,6.1s-1.9,3.8-3.7,4.9l-149.1,86.1C318.4,440.4,317,440.7,315.6,440.7z M415.1,268.6c-2.8,0-5.5-1.4-6.9-4
	l-42.9-74.3c-2.2-3.8-0.9-8.7,2.9-10.9c3.8-2.2,8.7-0.9,10.9,2.9l42.9,74.3c2.2,3.8,0.9,8.7-2.9,10.9
	C417.8,268.3,416.4,268.6,415.1,268.6z M231.5,249c-2.8,0-5.5-1.4-6.9-4c-2.2-3.8-0.9-8.7,2.9-10.9l122.3-70.6l-5.6-9.6l-0.5-0.4
	c-23.9-18.6-55.1-22.4-83.5-10.1c-4.1,1.8-8.8-0.1-10.5-4.1c-1.8-4.1,0.1-8.8,4.1-10.5c33.9-14.7,71.1-10.2,99.7,12.1l1.8,1.4
	c0.8,0.6,1.5,1.4,2,2.3l10.3,17.9c1.1,1.8,1.3,4,0.8,6.1s-1.9,3.8-3.7,4.9l-129.2,74.6C234.2,248.7,232.8,249,231.5,249z M223,227.4
	C223,227.4,223,227.4,223,227.4c-4.4,0-8-3.6-8-8c0-26.7,14.7-51.1,39.2-65.2c3.8-2.2,8.7-0.9,10.9,2.9c2.2,3.8,0.9,8.7-2.9,10.9
	c-7.3,4.2-31.2,20.4-31.2,51.4C231,223.8,227.4,227.4,223,227.4z"></path>
<path d="M444.4,268.6h-98.3c-4.4,0-8-3.6-8-8s3.6-8,8-8h98.3c4.4,0,8,3.6,8,8S448.8,268.6,444.4,268.6z M395.1,295.7
	c0,4.4,3.6,8,8,8h77.2c4.4,0,8-3.6,8-8s-3.6-8-8-8h-77.2C398.7,287.7,395.1,291.3,395.1,295.7z M437.4,449.5c0-4.4-3.6-8-8-8H372
	c-4.4,0-8,3.6-8,8s3.6,8,8,8h57.4C433.9,457.5,437.4,453.9,437.4,449.5z M36.5,471.7c-5,0-9,4.1-9,9s4.1,9,9,9s9-4.1,9-9
	S41.5,471.7,36.5,471.7z M36.5,459.3c4.9,0,9-4,9-9s-4-9-9-9s-9,4-9,9S31.6,459.3,36.5,459.3z M69.8,472.5c-4.6-2-9.9,0.1-11.9,4.6
	S58,487,62.5,489c4.6,2,9.9-0.1,11.9-4.6C76.4,479.8,74.3,474.5,69.8,472.5z M309.9,34.6c-4.4,0-8,3.6-8,8s3.6,8,8,8
	c5.7,0,10.4,4.7,10.4,10.4s-4.7,10.4-10.4,10.4c-4.4,0-8,3.6-8,8s3.6,8,8,8c14.6,0,26.4-11.8,26.4-26.4S324.5,34.6,309.9,34.6z
	 M69,337.2h-3.9v-3.9c0-4.4-3.6-8-8-8s-8,3.6-8,8v3.9h-3.9c-4.4,0-8,3.6-8,8s3.6,8,8,8h3.9v3.9c0,4.4,3.6,8,8,8s8-3.6,8-8v-3.9H69
	c4.4,0,8-3.6,8-8S73.4,337.2,69,337.2z M251.9,381.1h-65c-4.4,0-8,3.6-8,8s3.6,8,8,8h65c4.4,0,8-3.6,8-8S256.3,381.1,251.9,381.1z
	 M500,470.1h-86.8c-4.4,0-8,3.6-8,8s3.6,8,8,8H500c4.4,0,8-3.6,8-8S504.4,470.1,500,470.1z"></path>
<g>
	<path fill="#DB81DA" class="secondary-color" d="M491.8,91.4l-60.9-60.9h60.9V91.4z"></path>
	<path fill="#DB81DA" class="secondary-color" d="M60.8,59.9H26.1V25.2h34.7V59.9z M116,25.2H81.4v34.7H116V25.2z"></path>
</g>
</svg>