<svg version="1.1" id="Layer_1" xmlns="http://www.w3.org/2000/svg" xmlns:xlink="http://www.w3.org/1999/xlink" x="0px" y="0px" viewBox="0 0 512 512" enable-background="new 0 0 512 512" xml:space="preserve">
<g>
	<path fill="#DB81DA" class="secondary-color" d="M493.9,121.5L433,60.5h60.9V121.5z"></path>
	<path fill="#DB81DA" class="secondary-color" d="M106.3,69.5V47.7h56.9v21.8H106.3z M29.4,179.7h21.8v-56.9H29.4V179.7z M88.1,47.7H51.2h-20h-1.8v56.9h21.8
		V69.5h36.9V47.7z"></path>
</g>
<path d="M109.2,365.9c0,4.4-3.6,8-8,8H27.4c-4.4,0-8-3.6-8-8s3.6-8,8-8h73.8C105.6,357.9,109.2,361.5,109.2,365.9z M435.4,161.8
	c-4.4,0-8,3.6-8,8c0,11.4-9.3,20.8-20.8,20.8c-4.4,0-8,3.6-8,8s3.6,8,8,8c20.3,0,36.8-16.5,36.8-36.8
	C443.4,165.3,439.8,161.8,435.4,161.8z M485.4,206.5c4.4,0,8-3.6,8-8s-3.6-8-8-8c-11.4,0-20.8-9.3-20.8-20.8c0-4.4-3.6-8-8-8
	s-8,3.6-8,8C448.6,190,465.1,206.5,485.4,206.5z M485.4,211.8c-20.3,0-36.8,16.5-36.8,36.8c0,4.4,3.6,8,8,8s8-3.6,8-8
	c0-11.4,9.3-20.8,20.8-20.8c4.4,0,8-3.6,8-8S489.8,211.8,485.4,211.8z M406.6,211.8c-4.4,0-8,3.6-8,8s3.6,8,8,8
	c11.4,0,20.8,9.3,20.8,20.8c0,4.4,3.6,8,8,8s8-3.6,8-8C443.4,228.2,426.9,211.8,406.6,211.8z M114.8,163.2
	c-5.9,0-10.8,4.8-10.8,10.8s4.8,10.8,10.8,10.8s10.8-4.8,10.8-10.8S120.7,163.2,114.8,163.2z M390.7,168.8
	c-14.6,0-26.4-11.8-26.4-26.4s11.8-26.4,26.4-26.4s26.4,11.8,26.4,26.4S405.3,168.8,390.7,168.8z M401.1,142.4
	c0-5.7-4.7-10.4-10.4-10.4s-10.4,4.7-10.4,10.4s4.7,10.4,10.4,10.4S401.1,148.1,401.1,142.4z M34.4,256.5h3.9v3.9c0,4.4,3.6,8,8,8
	s8-3.6,8-8v-3.9h3.9c4.4,0,8-3.6,8-8s-3.6-8-8-8h-3.9v-3.9c0-4.4-3.6-8-8-8s-8,3.6-8,8v3.9h-3.9c-4.4,0-8,3.6-8,8
	S30,256.5,34.4,256.5z"></path>
<linearGradient id="SVGID_1_" gradientUnits="userSpaceOnUse" x1="301.3784" y1="467.1067" x2="304.7868" y2="108.0948" class="gradient-element">
	<stop offset="0" class="primary-color-gradient" style="stop-color: #FFA4ED"></stop>
	<stop offset="1" class="secondary-color-gradient" style="stop-color: #DB81DA"></stop>
</linearGradient>
<path fill="url(#SVGID_1_)" d="M270.3,296.9l-19.7-106.2c-3.1-16.6-5.7-29.9-6-41.4c-0.6-25.8,19.9-47.6,45.6-47.3
	c24.6,0.3,44.5,20.4,44.5,45.1c0,12-2.6,25.9-5.9,43.5l-19.7,106.3H270.3z M411.3,394.3H204.6c-13.7,0-24.9,11.1-24.9,24.9v23.4
	c0,13.7,11.1,24.9,24.9,24.9h218.8v-73.1v-12.2C423.4,388.9,418,394.3,411.3,394.3z"></path>
<path d="M431.4,443.1v24.4c0,4.4-3.6,8-8,8H106.7c-4.4,0-8-3.6-8-8v-45.6c-14.8-7.5-24.4-22.8-24.4-39.7v-16.2c0-4.4,3.6-8,8-8
	s8,3.6,8,8v16.2c0,12.1,7.7,22.9,19,26.9c3.2,1.1,5.3,4.2,5.3,7.5v42.8h300.8v-16.4c0-4.4,3.6-8,8-8S431.4,438.7,431.4,443.1z
	 M82.3,343.9h43c4.4,0,8-3.6,8-8s-3.6-8-8-8h-35v-23.1h194.2c4.4,0,8-3.6,8-8s-3.6-8-8-8H82.3c-4.4,0-8,3.6-8,8v39.1
	C74.3,340.3,77.9,343.9,82.3,343.9z M447.8,288.9H318.9l20.3-109.5l0-0.1c3.9-20.6,7-36.9,7-52.9c0-44.7-36.4-81.1-81.1-81.1
	s-81.1,36.4-81.1,81.1c0,16,3.1,32.4,7,53l17.5,94.6c0.8,4.3,5,7.2,9.3,6.4c4.3-0.8,7.2-5,6.4-9.3l-17.5-94.6l0-0.1
	c-3.8-19.8-6.7-35.5-6.7-50.1c0-35.9,29.2-65.1,65.1-65.1s65.1,29.2,65.1,65.1c0,14.5-3,30.1-6.7,49.9l-22.1,119.2
	c-0.4,2.3,0.2,4.7,1.7,6.6c1.5,1.8,3.8,2.9,6.2,2.9h130.5v77.3c0,15.7-12.8,28.6-28.6,28.6H163.4v-8.4h247.9
	c11.1,0,20.2-9.1,20.2-20.2v-60.9c0-4.4-3.6-8-8-8s-8,3.6-8,8v60.9c0,2.3-1.9,4.2-4.2,4.2H155.4c-4.4,0-8,3.6-8,8v24.4
	c0,4.4,3.6,8,8,8h255.9c24.6,0,44.6-20,44.6-44.6v-85.3C455.8,292.5,452.2,288.9,447.8,288.9z"></path>
</svg>