<svg version="1.1" id="Layer_1" xmlns="http://www.w3.org/2000/svg" xmlns:xlink="http://www.w3.org/1999/xlink" x="0px" y="0px" viewBox="0 0 512 512" enable-background="new 0 0 512 512" xml:space="preserve">
<linearGradient id="SVGID_1_" gradientUnits="userSpaceOnUse" x1="407.4179" y1="478.8496" x2="407.4179" y2="-54.2375" class="gradient-element">
	<stop offset="0" class="primary-color-gradient" style="stop-color: #FFA4ED"></stop>
	<stop offset="1" class="secondary-color-gradient" style="stop-color: #DB81DA"></stop>
</linearGradient>
<path fill="url(#SVGID_1_)" d="M352.2,302.8c0,0,0,113.6,0,165.7c0,4.4-0.7,8.6-3.6,12.2c0,0-0.1,0.1-0.1,0.1
	c-4.9,5.9-14.6,2.2-14.6-5.5V316c0-7.3,5.9-13.2,13.2-13.2H352.2z M387.2,69.1c-0.9-4.7-2.8-9-5.3-13c-0.3-0.3-0.5-0.6-0.8-0.9
	c-7.1-8.4-16-12.5-27-11.5c-2.3,0.2-4.6,0.7-6.7,1.4c5.4,1.8,10.2,5.2,14.2,10.1c0.3,0.3,0.5,0.6,0.8,0.9c2.6,4,4.5,8.2,5.3,13
	c2.7,14.7-6.5,29.6-20.4,34.2c4.9,1.7,10.1,2,15.6,1C379,101.4,390.2,85,387.2,69.1z M479.2,262.7c-18-40.1-35.9-80.3-53.9-120.4
	c-1.2-2.6-2.9-4.6-5.1-6.3c-3.6-2.7-7.6-4.6-11.9-5.8c-0.2,0-0.3-0.1-0.5-0.1c-12.6-3.3-24.8,6.3-24.8,19.2v325.9
	c0,7.7,9.7,11.4,14.6,5.5c0,0,0.1-0.1,0.1-0.1c2.9-3.6,3.6-7.7,3.6-12.2c0-52.1,0-295.8,0-295.8c0.6,0.5,0.9,1.1,1.1,1.6
	c9.2,20.5,18.3,41,27.5,61.4c6,13.5,12.1,27,18.1,40.4c1.9,4.3,4.7,7.8,9.2,9.5c6.4,2.5,14.3,0.6,19.3-4.6
	C481.3,276.2,482.3,269.7,479.2,262.7z"></path>
<path d="M482.2,286.8c-7.2,7.5-18.7,10.2-28,6.5c-6-2.4-10.6-7-13.6-13.7c-4.2-9.4-8.4-18.8-12.6-28.2l-18.8-42l0,66.3c0,0,0,0,0,0
	c0,52.1,0,140.8,0,192.9c0,4.5-0.6,11.2-5.4,17.2c-6.4,7.9-18,11-28.2,7.6c-9.8-3.3-16.1-11.9-16.4-22.5c0-0.8,0-1.6,0-2.4l0-19
	c0-42.8,0-87,0-130.6c-0.7,0-1.3,0-2,0c0,39.8,0,79.6,0,119.4v18.3c0,1.3,0,2.7,0,4c0,2.8-0.1,5.5,0,8.2c0.3,9.1-3.5,17-10.5,21.7
	c-4.3,2.9-9.3,4.3-14.4,4.3c-3.7,0-7.5-0.8-11-2.3l-0.6-0.2c-0.5-0.2-0.9-0.4-1.3-0.6c-7-4.2-11.2-10.7-12.1-18.8
	c-0.3-1.4-0.2-2.5-0.2-3.1l0-0.2c0-10.5,0-24.4,0.1-39.7c0.1-38.3,0.2-86.1-0.1-112.6c-0.1-4.4,3.5-8,7.9-8.1c0,0,0.1,0,0.1,0
	c4.4,0,7.9,3.5,8,7.9c0.3,26.6,0.2,74.4,0.2,112.8c0,15.3-0.1,29.1-0.1,39.6c0,0.2,0,0.5,0,0.7c0,0.2,0.1,0.4,0.1,0.7
	c0.3,3,1.4,5.1,3.9,6.7c0.2,0.1,0.4,0.2,0.7,0.3c3.3,1.5,7.3,1.2,10-0.6c2.4-1.6,3.6-4.3,3.5-7.8c-0.1-3-0.1-6,0-8.9
	c0-1.3,0-2.6,0-3.9v-18.3c0-41.9,0-83.7,0-125.6c0-1.1,0-4.6,2.8-7.3c1.9-1.8,4.3-2.7,7.3-2.6c4.6,0.1,9.2,0.1,13.6,0
	c1.1,0,4.7-0.1,7.5,2.7c2.9,2.8,2.9,6.3,2.9,7.5c0,45.5,0,91.8,0,136.5l0,19c0,0.6,0,1.3,0,1.9c0.1,2.7,1.1,6.3,5.5,7.8
	c3.9,1.3,8.5,0.2,10.7-2.5c1.3-1.6,1.8-3.7,1.8-7.1c0-49.7,0-132.6,0-185.4c0,0,0,0,0,0l0-110.4c0-3.2,1.9-6,4.7-7.3
	c2.9-1.3,6.3-0.7,8.6,1.4c1.7,1.5,2.5,3.1,3.1,4.3l33,73.7c4.2,9.4,8.4,18.8,12.6,28.2c1.6,3.7,3.4,4.8,4.9,5.4
	c3.3,1.3,7.9,0.1,10.6-2.7c1.6-1.7,3.5-4.5,1.2-9.7c-11-24.5-21.9-49-32.9-73.5l-21-46.8c-0.5-1.2-1.4-2.2-2.7-3.2
	c-2.6-2-5.7-3.5-9.2-4.4c-12-3.3-24.9-4.4-35.9-5.2c-5.4-0.4-10.9-0.4-16.6-0.4c-1.1,0-2.2,0-3.3,0c-10.4,0.4-19.8,1.2-28.5,2.7
	l-0.9,0.2c-6.1,1-11.8,1.9-17.1,3.9c-4.1,1.5-6.6,3.7-8.1,7.1c-8.1,18.4-16.5,37-24.6,55l-15.4,34.3c-4.5,10.1-9.1,20.2-13.6,30.3
	c-2.4,5.3-0.8,9.5,4.5,12c0.4,0.2,0.9,0.5,1.3,0.7l0.2,0.1c0.3,0.2,0.6,0.3,0.8,0.5c0,0,0,0,0,0c3.4,0.6,6.7-0.5,8.5-3
	c0.8-1.1,1.5-2.6,2.3-4.3c5.2-11.5,10.3-23.1,15.5-34.6l11.4-25.4c6.9-15.4,13.8-30.7,20.6-46.1c1.6-3.6,5.7-5.5,9.5-4.4
	c3.8,1.1,6.2,4.8,5.7,8.6c0,0.2,0,0.3,0,0.5l0,0.4c0.1,26.8,0.1,63.1,0,92.4l0,9.6c0,4.4-3.6,8-8,8c0,0,0,0,0,0c-4.4,0-8-3.6-8-8
	l0-9.6c0-17.6,0.1-37.8,0-56.9c-1.8,4-3.6,8-5.4,12L290,244c-5.2,11.5-10.3,23.1-15.5,34.6c-1.1,2.4-2.3,4.9-4.1,7.3
	c-4.6,6.2-11.9,9.7-19.6,9.7c-2.1,0-4.2-0.3-6.3-0.8c-2.1-0.5-3.7-1.5-4.7-2.3l-0.2-0.1c-13-6.3-18-19.8-12.1-32.9
	c4.5-10.1,9.1-20.2,13.6-30.4l15.4-34.3c8.1-18,16.4-36.6,24.6-55c3.3-7.4,9.1-12.6,17.2-15.6c6.7-2.5,13.4-3.6,20-4.6l0.9-0.1
	c9.5-1.6,19.6-2.5,30.8-2.9c0.1,0,0.2,0,0.3,0c1.1,0,2.3,0,3.4,0c5.8,0,11.8,0,17.8,0.4c11.8,0.9,25.5,2.1,38.9,5.7
	c5.5,1.5,10.4,3.9,14.7,7.1c3.4,2.6,6,5.8,7.6,9.4l21,46.8c11,24.5,22,49,32.9,73.6C490.9,269.4,489.4,279.3,482.2,286.8z
	 M333.9,105.3c0.4,0.3,0.9,0.6,1.3,0.9c0.1,0,0.2,0.1,0.3,0.1c6.6,4.3,13.7,6.5,21.3,6.5c2.5,0,5-0.2,7.5-0.7
	c9.7-1.8,18.6-7.6,24.5-16c5.8-8.4,8.1-18.8,6.3-28.5c-1-5.4-3.1-10.6-6.5-15.8c-0.2-0.3-0.5-0.7-0.7-1l-0.3-0.3
	c-0.1-0.1-0.2-0.2-0.3-0.4c-8.8-10.6-20.6-15.5-33.9-14.3c-4.4,0.4-7.7,4.3-7.3,8.7c0.4,4.4,4.3,7.7,8.7,7.3
	c8.2-0.7,14.7,2,20.2,8.7c0.2,0.2,0.3,0.4,0.5,0.6c2,3.3,3.3,6.4,3.9,9.6c1,5.5-0.3,11.6-3.8,16.5c-3.4,4.9-8.6,8.4-14.1,9.4
	c-6.4,1.2-12,0-17.4-3.6c-0.3-0.2-0.6-0.4-0.8-0.5c-4.2-3.5-6.8-7.4-8.1-12.1c-2-7.3-0.3-15.1,4.8-20.9c2.9-3.3,2.5-8.4-0.8-11.3
	c-3.3-2.9-8.4-2.5-11.3,0.8c-8.6,9.9-11.6,23.2-8.1,35.7C322,92.7,326.8,99.6,333.9,105.3z"></path>
<g>
	<path fill="#DB81DA" class="secondary-color" d="M33.2,365.4h35.2v22.5H33.2V365.4z M33.2,479.3h77.3v-22.5H33.2V479.3z"></path>
	<path fill="#FFA4ED" class="primary-color" d="M201.4,34.1L31.9,203.6V34.1H201.4z M33.2,341.7h35.2v-21.6H33.2V341.7z M33.2,433.1h77.3v-21.6H33.2V433.1
		z"></path>
</g>
<path d="M341.9,275.7c0,4.4-3.6,8-8,8h-43c-4.4,0-8-3.6-8-8s3.6-8,8-8h43C338.3,267.7,341.9,271.2,341.9,275.7z M274.5,302.3h-59.3
	c-4.4,0-8,3.6-8,8s3.6,8,8,8h59.3c4.4,0,8-3.6,8-8S278.9,302.3,274.5,302.3z M207.1,39.8c2.3-2.3,3-5.7,1.7-8.7s-4.2-4.9-7.4-4.9
	H31.9c-4.4,0-8,3.6-8,8v169.5c0,4.4,3.6,8,8,8s8-3.6,8-8V42.1h142.2L70.3,153.9c-3.1,3.1-3.1,8.2,0,11.3c3.1,3.1,8.2,3.1,11.3,0
	L207.1,39.8z M487.3,70h-15.8V54.2c0-4.4-3.6-8-8-8s-8,3.6-8,8V70h-15.8c-4.4,0-8,3.6-8,8s3.6,8,8,8h15.8v15.8c0,4.4,3.6,8,8,8
	s8-3.6,8-8V86h15.8c4.4,0,8-3.6,8-8S491.7,70,487.3,70z M215.4,366c-4.4,0-8,3.6-8,8c0,11.4-9.3,20.8-20.8,20.8c-4.4,0-8,3.6-8,8
	s3.6,8,8,8c20.3,0,36.8-16.5,36.8-36.8C223.4,369.6,219.8,366,215.4,366z M265.4,394.7c-11.4,0-20.8-9.3-20.8-20.8c0-4.4-3.6-8-8-8
	s-8,3.6-8,8c0,20.3,16.5,36.8,36.8,36.8c4.4,0,8-3.6,8-8S269.8,394.7,265.4,394.7z M265.4,416c-20.3,0-36.8,16.5-36.8,36.8
	c0,4.4,3.6,8,8,8s8-3.6,8-8c0-11.4,9.3-20.8,20.8-20.8c4.4,0,8-3.6,8-8S269.8,416,265.4,416z M186.7,416c-4.4,0-8,3.6-8,8s3.6,8,8,8
	c11.4,0,20.8,9.3,20.8,20.8c0,4.4,3.6,8,8,8s8-3.6,8-8C223.4,432.5,206.9,416,186.7,416z M88.8,228.1c-4.4,0-8,3.6-8,8s3.6,8,8,8
	c5.7,0,10.4,4.7,10.4,10.4s-4.7,10.4-10.4,10.4c-4.4,0-8,3.6-8,8s3.6,8,8,8c14.6,0,26.4-11.8,26.4-26.4S103.3,228.1,88.8,228.1z
	 M223,145.9c0-4.4-3.6-8-8-8s-8,3.6-8,8c0,5.7-4.7,10.4-10.4,10.4s-10.4-4.7-10.4-10.4c0-4.4-3.6-8-8-8c-4.4,0-8,3.6-8,8
	c0,14.6,11.8,26.4,26.4,26.4S223,160.4,223,145.9z"></path>
</svg>