<svg version="1.1" id="Layer_1" xmlns="http://www.w3.org/2000/svg" xmlns:xlink="http://www.w3.org/1999/xlink" x="0px" y="0px" viewBox="0 0 512 512" enable-background="new 0 0 512 512" xml:space="preserve">
<linearGradient id="SVGID_1_" gradientUnits="userSpaceOnUse" x1="297.6821" y1="436.9055" x2="297.6821" y2="123.237" class="gradient-element">
	<stop offset="0" class="primary-color-gradient" style="stop-color: #FFA4ED"></stop>
	<stop offset="1" class="secondary-color-gradient" style="stop-color: #DB81DA"></stop>
</linearGradient>
<path fill="url(#SVGID_1_)" d="M446.6,214.1c-1.3-4.2-5.2-7-9.6-7H312.8L274.4,89c-1.4-4.2-5.3-7-9.6-7c-4.4,0-8.3,2.8-9.6,7
	l-17.8,54.7c-3.7,11.4-3.7,23.6,0,35l0,0c7.6,23.4,29.3,39.2,53.9,39.2h83c4.4,0,8.3,2.8,9.6,7c1.4,4.2-0.1,8.8-3.7,11.3l-75.6,54.9
	c-14.9,10.8-21.1,29.9-15.4,47.4l14.6,44.7l61.4,44.6c1.8,1.3,3.9,1.9,6,1.9c2.1,0,4.2-0.7,6-1.9c3.5-2.6,5-7.2,3.7-11.3l-38.4-118
	l100.5-73C446.5,222.8,448,218.2,446.6,214.1z M153.9,400.6l-5.1,15.8c-1.4,4.2,0.1,8.7,3.7,11.3c3.6,2.6,8.4,2.6,11.9,0L271.6,350
	l-10.8-7.9c-7.8-5.7-18.3-5.7-26.1,0L153.9,400.6z"></path>
<path d="M158.4,437.7c-3.7,0-7.5-1.2-10.7-3.5c-6.4-4.6-9-12.8-6.6-20.3l23-70.7c1.4-4.2,5.9-6.5,10.1-5.1c4.2,1.4,6.5,5.9,5.1,10.1
	l-23,70.7c-0.3,0.9,0,1.8,0.8,2.4c0.8,0.6,1.8,0.6,2.5,0l100.5-72.9c2.8-2,6.6-2,9.4,0l100.5,73c0.5,0.3,0.9,0.4,1.3,0.4
	c0.3,0,0.8-0.1,1.2-0.4c0.8-0.6,1.1-1.5,0.8-2.4l-38.4-118c-1.1-3.3,0.1-6.9,2.9-8.9l100.5-73c0.7-0.5,1.1-1.5,0.8-2.4
	c-0.3-0.9-1.1-1.5-2-1.5H312.8c-3.5,0-6.5-2.2-7.6-5.5L266.8,91.5c-0.3-0.9-1.1-1.5-2-1.5c-0.9,0-1.7,0.6-2,1.5l-38.3,118.1
	c-1.1,3.3-4.1,5.5-7.6,5.5H92.6c-0.9,0-1.7,0.6-2,1.5c-0.3,0.9,0,1.8,0.8,2.4l100.5,73c2.8,2,4,5.6,2.9,8.9l-5.6,17.4
	c-1.4,4.2-5.9,6.5-10.1,5.1c-4.2-1.4-6.5-5.9-5.1-10.1l3.8-11.8l-95.8-69.6c-6.4-4.6-9-12.8-6.6-20.3c2.4-7.5,9.4-12.5,17.2-12.5
	H211l36.5-112.6C250,79,256.9,74,264.8,74c7.9,0,14.8,5,17.2,12.5l36.6,112.6H437c7.9,0,14.8,5,17.2,12.5c2.4,7.5-0.2,15.6-6.6,20.3
	l-95.8,69.6L388.5,414c2.4,7.5-0.2,15.6-6.6,20.3c-3.1,2.3-6.8,3.5-10.7,3.5c-3.8,0-7.5-1.2-10.6-3.4l-95.8-69.6L169,434.2
	C165.9,436.5,162.1,437.7,158.4,437.7z"></path>
<g>
	<path fill="#DB81DA" class="secondary-color" d="M493.6,101.3l-60.9-60.9h60.9V101.3z"></path>
	<path fill="#FFA4ED" class="primary-color" d="M106,49.3V27.5h56.9v21.8H106z M29.1,159.6h21.8v-56.9H29.1V159.6z M87.8,27.5H50.9h-20h-1.8v56.9h21.8
		V49.3h36.9V27.5z"></path>
</g>
<path d="M203.9,315.8c0,4.4-3.6,8-8,8h-43c-4.4,0-8-3.6-8-8s3.6-8,8-8h43C200.3,307.8,203.9,311.4,203.9,315.8z M174.4,337.8h-73.8
	c-4.4,0-8,3.6-8,8s3.6,8,8,8h73.8c4.4,0,8-3.6,8-8S178.8,337.8,174.4,337.8z M485.1,443h-15.8v-15.8c0-4.4-3.6-8-8-8s-8,3.6-8,8V443
	h-15.8c-4.4,0-8,3.6-8,8s3.6,8,8,8h15.8v15.8c0,4.4,3.6,8,8,8s8-3.6,8-8V459h15.8c4.4,0,8-3.6,8-8S489.5,443,485.1,443z M74.8,399.4
	c-4.4,0-8,3.6-8,8c0,11.4-9.3,20.8-20.8,20.8c-4.4,0-8,3.6-8,8s3.6,8,8,8c20.3,0,36.8-16.5,36.8-36.8
	C82.8,403,79.2,399.4,74.8,399.4z M124.8,428.1c-11.4,0-20.8-9.3-20.8-20.8c0-4.4-3.6-8-8-8s-8,3.6-8,8c0,20.3,16.5,36.8,36.8,36.8
	c4.4,0,8-3.6,8-8S129.2,428.1,124.8,428.1z M124.8,449.4c-20.3,0-36.8,16.5-36.8,36.8c0,4.4,3.6,8,8,8s8-3.6,8-8
	c0-11.4,9.3-20.8,20.8-20.8c4.4,0,8-3.6,8-8S129.2,449.4,124.8,449.4z M46,449.4c-4.4,0-8,3.6-8,8s3.6,8,8,8
	c11.4,0,20.8,9.3,20.8,20.8c0,4.4,3.6,8,8,8s8-3.6,8-8C82.8,465.9,66.3,449.4,46,449.4z M114.5,164.6c5.9,0,10.8-4.8,10.8-10.8
	c0-5.9-4.8-10.8-10.8-10.8c-5.9,0-10.8,4.8-10.8,10.8C103.7,159.8,108.6,164.6,114.5,164.6z M416.8,122.2
	c0,14.6-11.8,26.4-26.4,26.4S364,136.8,364,122.2s11.8-26.4,26.4-26.4S416.8,107.7,416.8,122.2z M400.8,122.2
	c0-5.7-4.7-10.4-10.4-10.4s-10.4,4.7-10.4,10.4s4.7,10.4,10.4,10.4S400.8,128,400.8,122.2z M436.7,341.1h3.9v3.9c0,4.4,3.6,8,8,8
	s8-3.6,8-8v-3.9h3.9c4.4,0,8-3.6,8-8s-3.6-8-8-8h-3.9v-3.9c0-4.4-3.6-8-8-8s-8,3.6-8,8v3.9h-3.9c-4.4,0-8,3.6-8,8
	S432.2,341.1,436.7,341.1z"></path>
</svg>