<svg version="1.1" id="Layer_1" xmlns="http://www.w3.org/2000/svg" xmlns:xlink="http://www.w3.org/1999/xlink" x="0px" y="0px" viewBox="0 0 512 512" enable-background="new 0 0 512 512" xml:space="preserve">
<linearGradient id="SVGID_1_" gradientUnits="userSpaceOnUse" x1="349.7182" y1="415.6154" x2="360.0696" y2="149.4364" class="gradient-element">
	<stop offset="0" class="primary-color-gradient" style="stop-color: #FFA4ED"></stop>
	<stop offset="1" class="secondary-color-gradient" style="stop-color: #DB81DA"></stop>
</linearGradient>
<path fill-rule="evenodd" clip-rule="evenodd" fill="url(#SVGID_1_)" d="M478.6,185.3v217.2c0,8.2-6.7,14.9-14.9,14.9H237.9
	c-8.4,0-15.3-6.8-15.3-15.3v-19.8c0-1.1,1.3-1.7,2.1-1v0c0.6,0.5,1.5,0.4,1.9-0.3l80.2-133.6c1.8-3,4.5-5.4,7.7-6.7l149.8-64.7
	C471.1,173,478.6,177.9,478.6,185.3z"></path>
<path d="M478.6,450.5H51.3c-4.4,0-8-3.6-8-8V103.1c0-4.4,3.6-8,8-8s8,3.6,8,8v331.4h419.3c4.4,0,8,3.6,8,8S483,450.5,478.6,450.5z
	 M101.7,381.3c-4.4,0-8-3.5-8-7.9l-0.2-25.1c0-2.1,0.8-4.2,2.3-5.7c1.5-1.5,3.5-2.4,5.6-2.4l6.7,0l42-63.1c1.3-2,3.5-3.3,5.9-3.5
	c2.4-0.2,4.8,0.6,6.4,2.3l55.3,55.4l67.6-112.6c0.9-1.4,2.2-2.6,3.7-3.2L475.5,135c4.1-1.8,8.8,0.1,10.5,4.2
	c1.8,4.1-0.1,8.8-4.2,10.5l-184,79.5l-71.5,119.1c-1.3,2.1-3.4,3.5-5.9,3.8c-2.5,0.3-4.9-0.5-6.6-2.3l-55.7-55.7l-38.9,58.5
	c-1.5,2.2-3.9,3.5-6.6,3.6l-3,0l0.1,17.1C109.7,377.7,106.1,381.3,101.7,381.3C101.7,381.3,101.7,381.3,101.7,381.3z"></path>
<path fill="#DB81DA" class="secondary-color" d="M469.4,100.3l-60.9-60.9h60.9V100.3z"></path>
<path fill="#000000" d="M134.6,103.1c0,4.4-3.6,8-8,8h-3.9v3.9c0,4.4-3.6,8-8,8s-8-3.6-8-8v-3.9h-3.9c-4.4,0-8-3.6-8-8s3.6-8,8-8
	h3.9v-3.9c0-4.4,3.6-8,8-8s8,3.6,8,8v3.9h3.9C131,95.1,134.6,98.7,134.6,103.1z M107.5,473.5h-43c-4.4,0-8,3.6-8,8s3.6,8,8,8h43
	c4.4,0,8-3.6,8-8S111.9,473.5,107.5,473.5z M403.6,103.2c-1.8-4-6.5-5.9-10.6-4.1l-118.1,52.6c-4,1.8-5.8,6.5-4,10.6
	c1.3,3,4.2,4.7,7.3,4.7c1.1,0,2.2-0.2,3.3-0.7l118.1-52.6C403.6,112,405.4,107.3,403.6,103.2z M475.8,367.9h-79.5c-4.4,0-8,3.6-8,8
	s3.6,8,8,8h79.5c4.4,0,8-3.6,8-8S480.2,367.9,475.8,367.9z M228.4,170.4c-4.2,4.2-4.2,11,0,15.2c4.2,4.2,11,4.2,15.2,0
	c4.2-4.2,4.2-11,0-15.2C239.4,166.3,232.6,166.3,228.4,170.4z"></path>
</svg>