<svg version="1.1" id="Layer_1" xmlns="http://www.w3.org/2000/svg" xmlns:xlink="http://www.w3.org/1999/xlink" x="0px" y="0px" viewBox="0 0 512 512" enable-background="new 0 0 512 512" xml:space="preserve">
<g>
	<linearGradient id="SVGID_1_" gradientUnits="userSpaceOnUse" x1="62" y1="193.7841" x2="211.2079" y2="193.7841" class="gradient-element">
		<stop offset="0" class="primary-color-gradient" style="stop-color: #FFA4ED"></stop>
		<stop offset="1" class="secondary-color-gradient" style="stop-color: #DB81DA"></stop>
	</linearGradient>
	<path fill="url(#SVGID_1_)" d="M63,70h47v135c0,34,25.4,121,101.2,75.5c0,0-68.2,100.5-136.2-29.5l-13-52L63,70z"></path>
	<path d="M392.5,395.5c0.1,0.1,0.3,0.1,0.4,0.2c-0.1,0.1-0.3,0.1-0.4,0.2V395.5z M410.1,322v-87.1c0-24.5-14.8-70.6-70.6-70.6
		c-6.3,0-12,0.6-17.3,1.7c41.7,8.4,53.3,47.2,53.3,68.9v87.3c0,4.3-4.5,7.3-0.2,7.3c33.4,0,39.6,14.1,39.6,31
		c0,15.4-8.9,28.8-21.9,35.2c5.2,2.6,11.1,4,17.3,4c21.7,0,39.2-17.6,39.2-39.2C449.5,341.5,433.8,322,410.1,322z M322.1,166"></path>
</g>
<path fill="#FFA4ED" class="primary-color" d="M378.6,35h44.5v44.5h-44.5V35z M490,79.5V35h-44.5v44.5H490z M490,147.9v-44.5h-44.5v44.5H490z"></path>
<path fill="#000000" d="M506,284c0,4.4-3.6,8-8,8h-3.9v3.9c0,4.4-3.6,8-8,8s-8-3.6-8-8V292h-3.9c-4.4,0-8-3.6-8-8s3.6-8,8-8h3.9
	v-3.9c0-4.4,3.6-8,8-8s8,3.6,8,8v3.9h3.9C502.4,276,506,279.6,506,284z M328.6,449.3c4.4,0,8-3.6,8-8s-3.6-8-8-8
	c-14.6,0-26.4,11.8-26.4,26.4s11.8,26.4,26.4,26.4c4.4,0,8-3.6,8-8s-3.6-8-8-8c-5.7,0-10.4-4.7-10.4-10.4S322.9,449.3,328.6,449.3z
	 M144.7,420h-43c-4.4,0-8,3.6-8,8s3.6,8,8,8h43c4.4,0,8-3.6,8-8S149.2,420,144.7,420z M137.5,450H63.7c-4.4,0-8,3.6-8,8s3.6,8,8,8
	h73.8c4.4,0,8-3.6,8-8S141.9,450,137.5,450z M63.6,390.3h35.1c4.4,0,8-3.6,8-8s-3.6-8-8-8H63.6c-4.4,0-8,3.6-8,8
	S59.2,390.3,63.6,390.3z M311.8,75v-3.9h3.9c4.4,0,8-3.6,8-8s-3.6-8-8-8h-3.9v-3.9c0-4.4-3.6-8-8-8s-8,3.6-8,8v3.9h-3.9
	c-4.4,0-8,3.6-8,8s3.6,8,8,8h3.9V75c0,4.4,3.6,8,8,8S311.8,79.4,311.8,75z M55.7,319.2c0,4.4,3.6,8,8,8s8-3.6,8-8v-3.9h3.9
	c4.4,0,8-3.6,8-8s-3.6-8-8-8h-3.9v-3.9c0-4.4-3.6-8-8-8s-8,3.6-8,8v3.9h-3.9c-4.4,0-8,3.6-8,8s3.6,8,8,8h3.9V319.2z M460.8,452.2
	c-4.2,4.2-4.2,11,0,15.2c4.2,4.2,11,4.2,15.2,0c4.2-4.2,4.2-11,0-15.2C471.9,448,465,448,460.8,452.2z"></path>
<path d="M142.8,317.7c-1.3,3-4.2,4.7-7.3,4.7c-1.1,0-2.2-0.2-3.3-0.7c-28.4-12.8-50.7-38.5-64.5-74.3c-10-25.9-12.5-49.2-12.5-51.7
	V70.2c0-4.4,3.6-8,8-8h47.1c4.4,0,8,3.6,8,8v8.7c0,4.4-3.6,8-8,8s-8-3.6-8-8v-0.7H71.3v117.2c0.4,4,8.6,85,67.5,111.7
	C142.9,308.9,144.7,313.7,142.8,317.7z M416.5,314.6v-79.7c0-6.4-1.1-29-15.9-49.2c-9.8-13.4-28.6-29.4-62.7-29.4
	s-52.9,16-62.7,29.4c-14.8,20.2-15.9,42.8-15.9,49.2v156.9c0,19.3-7.2,33-21.3,40.7c-11.4,6.2-23.3,6.3-23.4,6.3
	c-46.4,0-46.9-45-46.9-46.9v-67.2c31.2-12.2,54.1-37.5,66.5-73.3c9.6-27.8,9.8-52.9,9.8-55.6V70.2c0-4.4-3.6-8-8-8h-47.1
	c-4.4,0-8,3.6-8,8v8.7c0,4.4,3.6,8,8,8s8-3.6,8-8v-0.7h31.1v89.4c-4.8,4.1-14.3,12-14.7,12.4c-8.6,7.1-32,23.5-63.6,23.5
	c-27.9,0-49.8-13.2-60.4-21.1c-3.5-2.6-8.6-1.9-11.2,1.6c-2.6,3.5-1.9,8.6,1.6,11.2c12.2,9,37.4,24.2,69.9,24.2
	c36.7,0,63.8-19,73.7-27.1c0,0,2-1.7,4.6-3.8v7.4c0,3.7-0.3,92.1-70.8,115.7c-3.3,1.1-5.5,4.1-5.5,7.6v72.8c0,1.7,0.2,16.8,8.1,32
	c7.3,14.1,22.8,31,54.8,31c1.6,0,16.3-0.2,31-8.2c13.6-7.3,29.8-22.8,29.8-54.7V234.9c0-10.7,3.4-26.8,12.8-39.8
	c8.1-11.1,19.3-18.2,33.2-21.2c36.4,7.8,46.1,41.9,46.1,60.9V322c0,4.4,3.6,8,8,8s8-3.6,8-8v-87.1c0-7-1.2-25.4-12.2-43.6
	c-3.8-6.4-8.4-11.9-13.7-16.6c12.5,3.4,22.6,10.2,30.1,20.4c9.5,12.9,12.8,29,12.8,39.8V322c0,4.4,3.6,8,8,8
	c19.4,0,31.4,15.8,31.4,30.4c0,17.2-14,31.2-31.2,31.2s-31.2-14-31.2-31.2c0-4.4-3.6-8-8-8s-8,3.6-8,8c0,26,21.2,47.2,47.2,47.2
	s47.2-21.2,47.2-47.2C455.9,340.2,441,318.6,416.5,314.6z M408.7,352.3c4.5,0,8.1,3.7,8.1,8.1c0,4.4,3.6,8,8,8s8-3.6,8-8
	c0-13.3-10.8-24.1-24.1-24.1s-24.1,10.8-24.1,24.1s10.8,24.1,24.1,24.1c4.4,0,8-3.6,8-8s-3.6-8-8-8c-4.5,0-8.1-3.7-8.1-8.1
	C400.5,356,404.2,352.3,408.7,352.3z"></path>
</svg>