<svg version="1.1" id="Layer_1" xmlns="http://www.w3.org/2000/svg" xmlns:xlink="http://www.w3.org/1999/xlink" x="0px" y="0px" viewBox="0 0 512 512" enable-background="new 0 0 512 512" xml:space="preserve">
<linearGradient id="SVGID_1_" gradientUnits="userSpaceOnUse" x1="388.6222" y1="465.5153" x2="388.6222" y2="168.8271" class="gradient-element">
	<stop offset="0" class="primary-color-gradient" style="stop-color: #FFA4ED"></stop>
	<stop offset="1" class="secondary-color-gradient" style="stop-color: #DB81DA"></stop>
</linearGradient>
<path fill="url(#SVGID_1_)" d="M348.2,400c28.7,0.9,55.3-9.2,73.8-25.3c15.4-13.5,31.4-41.1,24.8-82.8c-7.7-49-42.7-83.8-90.2-103.5
	c-0.3-0.1-0.5-0.2-0.8-0.3c-10.3-5.1-5.1-21,6.3-19.4c71.8,9.9,127.2,71.5,127.2,146.1c0,81.5-66.5,156.4-147.5,147.5
	C267.1,454.1,271,390.8,348.2,400z"></path>
<path d="M423.4,436.9c2.3,3.8,1.1,8.7-2.6,11c-23.2,14.2-46.9,20.5-76.9,20.5c-4.4,0-8-3.6-8-8s3.6-8,8-8c26.9,0,48-5.6,68.5-18.2
	C416.2,431.9,421.1,433.1,423.4,436.9z M357,151.1c0,4.4,3.6,8,8,8s8-3.6,8-8v-20.5c0-4.4-3.6-8-8-8h-33.6c-4.4,0-8,3.6-8,8
	s3.6,8,8,8H357V151.1z M307.8,135.1C307.8,135.1,307.8,135.1,307.8,135.1c4.5,0,8-3.6,8-8.1l-0.1-14.5l80-0.8c4.4,0,8-3.7,7.9-8.1
	c0-4.4-3.6-7.9-8-7.9c0,0-0.1,0-0.1,0l-88,0.9c-4.4,0-8,3.7-7.9,8.1l0.2,22.5C299.8,131.6,303.4,135.1,307.8,135.1z M431.2,255.7
	c-2.7-3.5-7.7-4.2-11.2-1.6l-68.2,51.5v-89.9c0-4.4-3.6-8-8-8s-8,3.6-8,8v106c0,3,1.7,5.8,4.4,7.2c1.1,0.6,2.3,0.8,3.6,0.8
	c1.7,0,3.4-0.5,4.8-1.6l81-61.2C433.2,264.2,433.9,259.2,431.2,255.7z M343.9,159.6c-4.4,0-8,3.6-8,8s3.6,8,8,8
	c76.3,0,138.4,62.1,138.4,138.4c0,40-17.4,78.1-47.6,104.4c-3.3,2.9-3.7,8-0.8,11.3c1.6,1.8,3.8,2.7,6,2.7c1.9,0,3.7-0.6,5.2-2
	c33.8-29.4,53.1-71.8,53.1-116.5C498.3,228.9,429.1,159.6,343.9,159.6z M316.4,186.8H259c-4.4,0-8,3.6-8,8s3.6,8,8,8h57.5
	c4.4,0,8-3.6,8-8S320.9,186.8,316.4,186.8z M316.4,216.8h-88.6c-4.4,0-8,3.6-8,8c0,4.4,3.6,8,8,8h88.6c4.4,0,8-3.6,8-8
	C324.4,220.4,320.9,216.8,316.4,216.8z M316.4,246.8H210c-4.4,0-8,3.6-8,8s3.6,8,8,8h106.4c4.4,0,8-3.6,8-8S320.9,246.8,316.4,246.8
	z M316.4,276.8H199.8c-4.4,0-8,3.6-8,8s3.6,8,8,8h116.6c4.4,0,8-3.6,8-8S320.9,276.8,316.4,276.8z M316.4,306.8H197.5
	c-4.4,0-8,3.6-8,8s3.6,8,8,8h118.9c4.4,0,8-3.6,8-8S320.9,306.8,316.4,306.8z M316.4,336.8H200.8c-4.4,0-8,3.6-8,8s3.6,8,8,8h115.7
	c4.4,0,8-3.6,8-8S320.9,336.8,316.4,336.8z M316.4,366.8H210.7c-4.4,0-8,3.6-8,8s3.6,8,8,8h105.7c4.4,0,8-3.6,8-8
	S320.9,366.8,316.4,366.8z M316.4,396.8h-87.3c-4.4,0-8,3.6-8,8s3.6,8,8,8h87.3c4.4,0,8-3.6,8-8S320.9,396.8,316.4,396.8z
	 M316.4,426.8h-55.2c-4.4,0-8,3.6-8,8s3.6,8,8,8h55.2c4.4,0,8-3.6,8-8S320.9,426.8,316.4,426.8z"></path>
<g>
	<path fill="#FFA4ED" class="primary-color" d="M22.8,22.3h182.7L22.8,205.1V22.3z"></path>
	<path fill="#FFA4ED" class="primary-color" d="M34.8,371.4v-21.8h131.6v21.8H34.8z"></path>
	<path fill="#DB81DA" class="secondary-color" d="M498.1,22.3v60.9l-60.9-60.9H498.1z M166.4,407.3v-21.8H34.8v21.8H166.4z"></path>
</g>
<path d="M402.9,490.2c0,4.4-3.6,8-8,8H131.6c-4.4,0-8-3.6-8-8s3.6-8,8-8h263.3C399.3,482.2,402.9,485.8,402.9,490.2z M484.7,122.6
	H469v-15.8c0-4.4-3.6-8-8-8s-8,3.6-8,8v15.8h-15.8c-4.4,0-8,3.6-8,8s3.6,8,8,8H453v15.8c0,4.4,3.6,8,8,8s8-3.6,8-8v-15.8h15.8
	c4.4,0,8-3.6,8-8S489.2,122.6,484.7,122.6z M109.8,234.3c11.4,0,20.8,9.3,20.8,20.8c0,4.4,3.6,8,8,8s8-3.6,8-8
	c0-20.3-16.5-36.8-36.8-36.8c-4.4,0-8,3.6-8,8S105.3,234.3,109.8,234.3z M188.5,234.3c4.4,0,8-3.6,8-8s-3.6-8-8-8
	c-20.3,0-36.8,16.5-36.8,36.8c0,4.4,3.6,8,8,8s8-3.6,8-8C167.8,243.6,177.1,234.3,188.5,234.3z M188.5,197.1
	c-11.4,0-20.8-9.3-20.8-20.8c0-4.4-3.6-8-8-8s-8,3.6-8,8c0,20.3,16.5,36.8,36.8,36.8c4.4,0,8-3.6,8-8S192.9,197.1,188.5,197.1z
	 M109.8,213.1c20.3,0,36.8-16.5,36.8-36.8c0-4.4-3.6-8-8-8s-8,3.6-8,8c0,11.4-9.3,20.8-20.8,20.8c-4.4,0-8,3.6-8,8
	S105.3,213.1,109.8,213.1z M212.9,19.3c-1.2-3-4.2-4.9-7.4-4.9H22.8c-4.4,0-8,3.6-8,8v182.7c0,4.4,3.6,8,8,8s8-3.6,8-8V30.3h155.4
	L71.1,145.4c-3.1,3.1-3.1,8.2,0,11.3c3.1,3.1,8.2,3.1,11.3,0L211.2,28C213.5,25.7,214.2,22.2,212.9,19.3z M206.9,115.4
	c0,4.4,3.6,8,8,8h3.9v3.9c0,4.4,3.6,8,8,8s8-3.6,8-8v-3.9h3.9c4.4,0,8-3.6,8-8s-3.6-8-8-8h-3.9v-3.9c0-4.4-3.6-8-8-8s-8,3.6-8,8v3.9
	h-3.9C210.5,107.4,206.9,111,206.9,115.4z M328.5,60.8h59.2c4.4,0,8-3.6,8-8s-3.6-8-8-8h-59.2c-4.4,0-8,3.6-8,8
	S324.1,60.8,328.5,60.8z M55.1,446.2c0,5.5-4.4,9.9-9.9,9.9s-9.9-4.4-9.9-9.9s4.4-9.9,9.9-9.9S55.1,440.7,55.1,446.2z M110.5,446.2
	c0,5.5-4.4,9.9-9.9,9.9s-9.9-4.4-9.9-9.9s4.4-9.9,9.9-9.9S110.5,440.7,110.5,446.2z M146,446.2c0-5.5,4.4-9.9,9.9-9.9
	s9.9,4.4,9.9,9.9s-4.4,9.9-9.9,9.9S146,451.7,146,446.2z"></path>
</svg>