<svg version="1.1" id="Layer_1" xmlns="http://www.w3.org/2000/svg" xmlns:xlink="http://www.w3.org/1999/xlink" x="0px" y="0px" viewBox="0 0 512 512" enable-background="new 0 0 512 512" xml:space="preserve">
<linearGradient id="SVGID_1_" gradientUnits="userSpaceOnUse" x1="255.0932" y1="371.7767" x2="255.0932" y2="138.6411" class="gradient-element">
	<stop offset="0" class="primary-color-gradient" style="stop-color: #FFA4ED"></stop>
	<stop offset="1" class="secondary-color-gradient" style="stop-color: #DB81DA"></stop>
</linearGradient>
<path fill="url(#SVGID_1_)" d="M376.2,131.2L376.2,131.2l0,201.4c0,0,0,0,0,0v39.2v1.3h-46.7c-1.7,0-3.3-0.3-4.8-0.7H134.2v-0.6H134
	v-9c0-1.1,0.1-2.1,0.2-3.1v-9.1c0-6.7,5.5-12.2,12.2-12.2h11.9c2-0.3,119.5-0.5,121.7-0.5c18,0,32.6-11.8,32.7-26.5V146.9
	c0-8.7,7-15.7,15.7-15.7h16.8H376.2z"></path>
<path d="M383,387H130.3c-4.4,0-8-3.6-8-8v-42.8c0-4.4,3.6-8,8-8s8,3.6,8,8V371H375V134.3H138.3v163.1c0,4.4-3.6,8-8,8s-8-3.6-8-8
	V126.3c0-4.4,3.6-8,8-8H383c4.4,0,8,3.6,8,8V379C391,383.4,387.4,387,383,387z"></path>
<g>
	<path fill="#DB81DA" class="secondary-color" d="M473.6,99.4h21.8v56.9h-21.8V99.4z M363.3,44.4h56.9V22.6h-56.9V44.4z M438.4,22.6v21.8h35.1v36.9h21.8
		V44.4v-20v-1.8H438.4z"></path>
	<path fill="#FFA4ED" class="primary-color" d="M22.8,493v-21.8h142.8V493H22.8z"></path>
</g>
<path fill="#000000" d="M98.4,305.5H23.3c-4.4,0-8-3.6-8-8s3.6-8,8-8h75.1c4.4,0,8,3.6,8,8S102.8,305.5,98.4,305.5z M190.8,326.9
	H77.2c-4.4,0-8,3.6-8,8s3.6,8,8,8h113.7c4.4,0,8-3.6,8-8S195.2,326.9,190.8,326.9z M460.3,430c-5.9,0-10.8,4.8-10.8,10.8
	s4.8,10.8,10.8,10.8s10.8-4.8,10.8-10.8S466.2,430,460.3,430z M31.4,134.3h15.8v15.8c0,4.4,3.6,8,8,8s8-3.6,8-8v-15.8h15.8
	c4.4,0,8-3.6,8-8s-3.6-8-8-8H63.2v-15.8c0-4.4-3.6-8-8-8s-8,3.6-8,8v15.8H31.4c-4.4,0-8,3.6-8,8S27,134.3,31.4,134.3z M472.5,209.6
	h-3.9v-3.9c0-4.4-3.6-8-8-8s-8,3.6-8,8v3.9h-3.9c-4.4,0-8,3.6-8,8s3.6,8,8,8h3.9v3.9c0,4.4,3.6,8,8,8s8-3.6,8-8v-3.9h3.9
	c4.4,0,8-3.6,8-8S476.9,209.6,472.5,209.6z M410.9,430.1h-193c-4.4,0-8,3.6-8,8s3.6,8,8,8h193c4.4,0,8-3.6,8-8
	S415.3,430.1,410.9,430.1z M286.4,70.9c5.9,0,10.8-4.8,10.8-10.8s-4.8-10.8-10.8-10.8s-10.8,4.8-10.8,10.8S280.5,70.9,286.4,70.9z"></path>
</svg>