<svg version="1.1" id="Layer_1" xmlns="http://www.w3.org/2000/svg" xmlns:xlink="http://www.w3.org/1999/xlink" x="0px" y="0px" viewBox="0 0 512 512" enable-background="new 0 0 512 512" xml:space="preserve">
<path d="M471.3,48.7H305.7c-4.4,0-8-3.6-8-8s3.6-8,8-8h165.6c4.4,0,8,3.6,8,8S475.7,48.7,471.3,48.7z M111.4,454.7H24.6
	c-4.4,0-8,3.6-8,8s3.6,8,8,8h86.8c4.4,0,8-3.6,8-8S115.8,454.7,111.4,454.7z M476.1,83.3c0-4.4-3.6-8-8-8h-57.4c-4.4,0-8,3.6-8,8
	s3.6,8,8,8h57.4C472.6,91.3,476.1,87.8,476.1,83.3z M33.2,132.3H49v15.8c0,4.4,3.6,8,8,8s8-3.6,8-8v-15.8h15.8c4.4,0,8-3.6,8-8
	s-3.6-8-8-8H65v-15.8c0-4.4-3.6-8-8-8s-8,3.6-8,8v15.8H33.2c-4.4,0-8,3.6-8,8S28.8,132.3,33.2,132.3z M480.7,456.3H465v-15.8
	c0-4.4-3.6-8-8-8s-8,3.6-8,8v15.8h-15.8c-4.4,0-8,3.6-8,8s3.6,8,8,8H449v15.8c0,4.4,3.6,8,8,8s8-3.6,8-8v-15.8h15.8c4.4,0,8-3.6,8-8
	S485.2,456.3,480.7,456.3z"></path>
<g>
	<path fill="#FFA4ED" class="primary-color" d="M111.4,29.8v21.8H24.7V29.8H111.4z"></path>
	<path fill="#DB81DA" class="secondary-color" d="M187.4,29.8l-56.9,56.9V29.8H187.4z"></path>
</g>
<g>
	<linearGradient id="SVGID_1_" gradientUnits="userSpaceOnUse" x1="373.1055" y1="433.5803" x2="373.1055" y2="310.8245" class="gradient-element">
		<stop offset="0" class="primary-color-gradient" style="stop-color: #FFA4ED"></stop>
		<stop offset="1" class="secondary-color-gradient" style="stop-color: #DB81DA"></stop>
	</linearGradient>
	<path fill="url(#SVGID_1_)" d="M433,423.8c0,0.3-119.9,53.4-119.9,52.8V473c0-26.2,15.4-50,39.4-60.7l20.4-9.1
		c13.8-6.2,22.8-19.9,22.8-35.1v-39.6c0-21.8,13-41.4,32.9-50l0.8-0.4c0.6-0.2,1.2,0.2,1.2,0.8L433,423.8z"></path>
	<linearGradient id="SVGID_2_" gradientUnits="userSpaceOnUse" x1="327.7549" y1="263.7568" x2="327.7549" y2="141.0011">
		<stop offset="0" class="primary-color-gradient" style="stop-color: #FFA4ED"></stop>
		<stop offset="1" class="secondary-color-gradient" style="stop-color: #DB81DA"></stop>
	</linearGradient>
	<path fill="url(#SVGID_2_)" d="M387.7,254c-1.7-1-119.9,53.4-119.9,52.8v-3.6c0-26.2,15.4-50,39.4-60.7l20.4-9.1
		c13.8-6.2,22.8-19.9,22.8-35.1v-39.6c0-21.8,13-41.4,32.9-50l0.8-0.4c0.6-0.2,1.2,0.2,1.2,0.8L387.7,254z"></path>
</g>
<path d="M432.7,266.4c-1.3-0.9-2.6-1.6-4.2-2.2c-0.1-0.1-0.3-0.1-0.4-0.2l-32.9-12.9c0.6-1.9,0.9-3.8,0.9-5.8V113.1
	c0-6.6-3.3-12.8-8.7-16.5c-1.3-0.9-2.6-1.6-4.2-2.2c-0.3-0.1-0.5-0.2-0.8-0.3c0,0,0,0,0,0c0,0,0,0,0,0l-38.9-13c0,0,0,0,0,0
	l-8.5-2.8L274.1,58c-4.1-1.4-8.5-1.4-12.7,0l-108.1,36c-0.3,0.1-0.6,0.2-1,0.4c-1.5,0.6-2.9,1.3-4.1,2.1c0,0,0,0,0,0c0,0,0,0,0,0
	c-4.9,3.4-8,8.7-8.6,14.5c0,0.1,0,0.2,0,0.3c0,0.6-0.1,1.1-0.1,1.7v78.4l-59.8,21.3c-0.1,0-0.2,0.1-0.3,0.1
	c-0.1,0.1-0.3,0.1-0.4,0.2c-1.5,0.6-2.9,1.3-4,2.1c-0.5,0.3-0.8,0.6-1.1,0.9c0,0,0,0,0,0l-1.8,1.7c-0.1,0.1-0.2,0.2-0.3,0.3
	c-0.1,0.1-0.1,0.1-0.2,0.2c0,0-0.1,0.1-0.1,0.1c-0.1,0.1-0.1,0.1-0.2,0.2c-3.2,3.7-5,8.3-5,13.1v132.3c0,7.9,4.7,15.1,11.9,18.3
	l108.2,48.1c2.2,1,4.6,1.5,7,1.7L305,481.6c2.6,1.1,5.3,1.7,8.1,1.7c2.1,0,4.3-0.4,6.5-1.2c0.5-0.1,1-0.3,1.5-0.5c0,0,0.1,0,0.1-0.1
	l108.2-48.1c7.2-3.2,11.9-10.4,11.9-18.3V282.9C441.4,276.3,438.2,270.1,432.7,266.4z M130.3,255.1l8,3.4v30.6l-8-3.2V255.1z
	 M364.9,105.2l-97.1,41.3L240.9,135l100.2-37.7L364.9,105.2z M380.1,245.4c0,1.6-0.9,3-2.4,3.7l-101.9,45.3V160.5l104.2-44.4V245.4z
	 M305.2,330.3v133.9l-101.8-45.3c-0.3-0.1-0.6-0.3-0.8-0.5v-132l30.5,13.6v42.5c0,3.3,2,6.2,5,7.4l24,9.7c1,0.4,2,0.6,3,0.6
	c1.6,0,3.1-0.5,4.5-1.4c2.2-1.5,3.5-4,3.5-6.6v-35.5L305.2,330.3z M249,307l8,3.6v29.6l-8-3.2V307z M211.7,139.8v30.6l-8-3.2v-30.8
	L211.7,139.8z M192.7,180l24,9.7c1,0.4,2,0.6,3,0.6c1.6,0,3.1-0.5,4.5-1.4c2.2-1.5,3.5-4,3.5-6.6v-35.5l32.1,13.8v133l-15.7-6.7
	c0,0,0,0,0,0l-39.8-17.1l-5.2-2.3c-0.1-0.1-0.2-0.1-0.3-0.2c-0.1,0-0.1-0.1-0.2-0.1c-0.3-0.2-0.6-0.3-0.9-0.5l-10.7-4.6l-29-12.9
	c-1.5-0.7-2.4-2.1-2.4-3.7V115.8l32.1,13.8v43C187.7,175.8,189.7,178.8,192.7,180z M317,89.2l-97.3,36.7l-2.9-1.2l95.3-37.1
	L317,89.2z M313.2,316.3L289,306l94.7-42.1l27.4,10.7L313.2,316.3z M266.5,73.2c0.8-0.3,1.7-0.3,2.6,0l19.2,6.4l-92.5,36l-14.5-6.2
	l-10.2-4.4L266.5,73.2z M139.6,228.2l-17,6.2l-25.2-10.8l42.2-15.1V228.2z M82.2,364.1V234.5l32.1,13.8v43c0,3.3,2,6.2,5,7.4l24,9.7
	c1,0.4,2,0.6,3,0.6c1.6,0,3.1-0.5,4.5-1.4c2.2-1.5,3.5-4,3.5-6.6v-35.5l26.2,11.2l4.8,2.1c-0.3,1.4-0.5,2.8-0.5,4.2v129.4
	L84.6,367.7C83.2,367.1,82.2,365.6,82.2,364.1z M423,418.9l-101.9,45.3V330.3l104.2-44.4v129.3C425.4,416.8,424.5,418.2,423,418.9z"></path>
</svg>