<svg version="1.1" id="Layer_1" xmlns="http://www.w3.org/2000/svg" xmlns:xlink="http://www.w3.org/1999/xlink" x="0px" y="0px" viewBox="0 0 512 512" enable-background="new 0 0 512 512" xml:space="preserve">
<linearGradient id="SVGID_1_" gradientUnits="userSpaceOnUse" x1="307.4733" y1="484.2391" x2="307.4733" y2="178.2397" class="gradient-element">
	<stop offset="0" class="primary-color-gradient" style="stop-color: #FFA4ED"></stop>
	<stop offset="1" class="secondary-color-gradient" style="stop-color: #DB81DA"></stop>
</linearGradient>
<path fill="url(#SVGID_1_)" d="M279.3,259.1v214.8h19v33.2h-19h-19l0,0c-3.1,0-5.7-2.5-5.7-5.7V273.6c0-8-6.5-14.5-14.5-14.5H126.4
	v0c0-14.8,12-26.8,26.8-26.8H369c4.5,0,8.9-1.4,12.6-4.1l47.1-34c15-10.8,35.3-10.9,50.4-0.2l9.6,6.8l-80.8,58.4H279.3z"></path>
<path d="M493.2,194.2L412.6,137V84c0-4.4-3.6-8-8-8H286.3V56.2c0-4.4-3.6-8-8-8h-51.5c-4.4,0-8,3.6-8,8V76h-95.7
	c-1.7,0-3.3,0.5-4.7,1.5l-80.8,58.4c-2.1,1.5-3.3,3.9-3.3,6.5s1.3,5,3.4,6.5l80.6,57.2v53c0,4.4,3.6,8,8,8h92.5v198.8h-12
	c-4.4,0-8,3.6-8,8v25.2c0,4.4,3.6,8,8,8s8-3.6,8-8v-17.2h75.5v17.2c0,4.4,3.6,8,8,8s8-3.6,8-8v-25.2c0-4.4-3.6-8-8-8h-12V267.1
	h121.5c1.7,0,3.3-0.5,4.7-1.5l80.8-58.4c2.1-1.5,3.3-3.9,3.3-6.5C496.6,198.1,495.3,195.7,493.2,194.2z M234.9,64.2h35.5V76h-35.5
	V64.2z M118.4,186.5l-62.3-44.2L125.7,92h270.9v42.4H126.4c-1.9,0-3.7,0.7-5.1,1.8c-1.8,1.5-2.9,3.7-2.9,6.2V186.5z M270.3,465.9
	h-35.5V267.1h35.5V465.9z M405.2,251.1H278.3h-51.5h-92.5V150.4h269.4l71.1,50.4L405.2,251.1z"></path>
<g>
	<path fill="#FFA4ED" class="primary-color" d="M433.3,488.9l60.9-60.9v60.9H433.3z M15.3,448.8V484h20.4v-35.2H15.3z"></path>
	<path fill="#DB81DA" class="secondary-color" d="M68.8,448.8V484H47.5v-35.2H68.8z M422.9,32h77.3V9.5h-77.3V32z"></path>
</g>
<path d="M153.4,381.9c0,4.4-3.6,8-8,8h-3.9v3.9c0,4.4-3.6,8-8,8s-8-3.6-8-8v-3.9h-3.9c-4.4,0-8-3.6-8-8s3.6-8,8-8h3.9V370
	c0-4.4,3.6-8,8-8s8,3.6,8,8v3.9h3.9C149.8,373.9,153.4,377.5,153.4,381.9z M442.2,373.1h-43c-4.4,0-8,3.6-8,8s3.6,8,8,8h43
	c4.4,0,8-3.6,8-8S446.6,373.1,442.2,373.1z M420.7,403.1h-73.8c-4.4,0-8,3.6-8,8s3.6,8,8,8h73.8c4.4,0,8-3.6,8-8
	S425.1,403.1,420.7,403.1z M430.6,317.9c5.9,0,10.8-4.8,10.8-10.8s-4.8-10.8-10.8-10.8c-5.9,0-10.8,4.8-10.8,10.8
	S424.7,317.9,430.6,317.9z M346.9,471.4c-5.9,0-10.8,4.8-10.8,10.8c0,5.9,4.8,10.8,10.8,10.8s10.8-4.8,10.8-10.8
	C357.6,476.2,352.8,471.4,346.9,471.4z M473.4,126.5h-3.9v-3.9c0-4.4-3.6-8-8-8s-8,3.6-8,8v3.9h-3.9c-4.4,0-8,3.6-8,8s3.6,8,8,8h3.9
	v3.9c0,4.4,3.6,8,8,8s8-3.6,8-8v-3.9h3.9c4.4,0,8-3.6,8-8S477.8,126.5,473.4,126.5z M35.8,374.3c-4.2,4.2-4.2,11,0,15.2
	c4.2,4.2,11,4.2,15.2,0s4.2-11,0-15.2C46.8,370.1,40,370.1,35.8,374.3z M321.2,20.7c-5.9,0-10.8,4.8-10.8,10.8s4.8,10.8,10.8,10.8
	s10.8-4.8,10.8-10.8S327.1,20.7,321.2,20.7z M71.3,227.3H55.5v-15.8c0-4.4-3.6-8-8-8s-8,3.6-8,8v15.8H23.7c-4.4,0-8,3.6-8,8
	s3.6,8,8,8h15.8v15.8c0,4.4,3.6,8,8,8s8-3.6,8-8v-15.8h15.8c4.4,0,8-3.6,8-8S75.7,227.3,71.3,227.3z M67.5,29.5
	c-7,0-13.7,2.7-18.7,7.7c-5,5-7.7,11.6-7.7,18.7c0,7,2.7,13.7,7.7,18.7c1.6,1.6,3.6,2.3,5.7,2.3s4.1-0.8,5.7-2.3
	c3.1-3.1,3.1-8.2,0-11.3c-4.1-4.1-4.1-10.6,0-14.7c4.1-4.1,10.6-4,14.7,0c3.1,3.1,8.2,3.1,11.3,0c3.1-3.1,3.1-8.2,0-11.3
	C81.2,32.2,74.5,29.5,67.5,29.5z"></path>
</svg>