<svg version="1.1" id="Layer_1" xmlns="http://www.w3.org/2000/svg" xmlns:xlink="http://www.w3.org/1999/xlink" x="0px" y="0px" viewBox="0 0 512 512" enable-background="new 0 0 512 512" xml:space="preserve">
<g>
	<linearGradient id="SVGID_1_" gradientUnits="userSpaceOnUse" x1="360.1368" y1="222.0859" x2="269.7321" y2="222.0859" class="gradient-element">
		<stop offset="0" class="primary-color-gradient" style="stop-color: #FFA4ED"></stop>
		<stop offset="1" class="secondary-color-gradient" style="stop-color: #DB81DA"></stop>
	</linearGradient>
	<path fill="url(#SVGID_1_)" d="M354.7,228.4c-0.6,5.9-1.3,12-2,18.2c-6.7,54.3-50.9,73.7-72.1,79.6l-9.7-0.3V126.4
		c0,0-3.2-6.6,0-8.3c3.2-1.7,86.7,9.3,86.7,9.3s2,26.4-0.3,67.5c-5.6-14.2-19.4-24.2-35.6-24.2c-21.2,0-38.3,17.1-38.3,38.3
		c0,21.2,17.1,38.3,38.3,38.3C335.7,247.4,348,239.8,354.7,228.4z"></path>
	<linearGradient id="SVGID_2_" gradientUnits="userSpaceOnUse" x1="310.3381" y1="452.5296" x2="310.3381" y2="191.1882">
		<stop offset="0" class="primary-color-gradient" style="stop-color: #FFA4ED"></stop>
		<stop offset="1" class="secondary-color-gradient" style="stop-color: #DB81DA"></stop>
	</linearGradient>
	<path fill="url(#SVGID_2_)" d="M338.4,350c-13.4,27.2-25.9,43.3-37.9,52.8L282,368l15.8-41.8h-12c-9.8,0-17.7,7.9-17.7,17.7v11
		c0,3.9,3.2,7.1,7.1,7.1v13h-10.8c0,0-11.8,26.5,0,38c1.5,1.4,3.2,2.5,5,3.3c-19.6,2.4-28.3-8.9-28.3-8.9
		c0,31.3,27.1,50.7,60.6,50.7h133.8C439.7,397.9,342.2,342.2,338.4,350z M295.2,238.1c7.6,6.9,17.3,10.2,27,10.1c0.2,0,0.4,0,0.6,0
		c0.2,0,0.4,0,0.6,0c0.6,0,1.1-0.1,1.6-0.1c0.1,0,0.1,0,0.2,0c0.1,0,0.1,0,0.2,0c8.2-0.8,16.2-4.1,22.6-10
		c16.8-15.2,17.3-41.2,1.4-57.1c-0.1-0.1-0.1-0.1-0.2-0.2c-0.4-0.4-0.7-0.6-1.1-0.8c-7-6.5-16.5-10.5-26.8-10.5c-0.1,0-0.2,0-0.2,0
		c-4.9,0-7.1,6.2-3.3,9.4c7.4,6.3,32.9,48.8-18.6,48.8c-5.5,0-8.4,6.4-4.4,10.1C294.9,237.9,295.1,238,295.2,238.1z M241.5,181
		c-0.1-0.1-0.1-0.1-0.2-0.2c-0.4-0.4-0.7-0.6-1.1-0.8c-7-6.5-16.5-10.5-26.8-10.5c-0.1,0-0.2,0-0.2,0c-4.9,0-7.1,6.2-3.3,9.4
		c7.4,6.3,32.9,48.8-18.6,48.8c-5.5,0-8.4,6.4-4.4,10.1c0.1,0.1,0.3,0.3,0.4,0.4c7.6,6.9,17.3,10.2,27,10.1c0.2,0,0.4,0,0.6,0
		c0.2,0,0.4,0,0.6,0c0.6,0,1.1-0.1,1.6-0.1c0.1,0,0.1,0,0.2,0c0.1,0,0.1,0,0.2,0c8.2-0.8,16.2-4.1,22.6-10
		C256.9,222.8,257.4,196.8,241.5,181z"></path>
</g>
<path d="M433.3,416.8c-7.3-18.9-23.7-44.5-60.1-59.2c-13.6-5.5-25.1-11-34.2-16.5c-1.8-1.4-11.5-9.3-18.6-15.1
	c-2.2-1.8-4-3.3-5.6-4.6c24.7-15.5,36.8-41.2,41.7-54.8c2.8-7.8,4.2-15.9,4.2-24.3c0-3.4-2.1-6.3-5.1-7.5c5.5-7.1,8.8-15.8,9-25.4
	c0-0.2,0-0.4,0-0.6c0-0.1,0-0.2,0-0.3c0-0.1,0-0.2,0-0.3c0-0.2,0-0.4,0-0.6c-0.2-7.6-2.4-14.8-6-21c1.3-1.4,2.2-3.3,2.2-5.5v-57.1
	c0-2.6-1.3-5.1-3.5-6.6s-4.9-1.8-7.4-0.9c-14.5,5.6-28.9,2-44.1-1.8c-20.3-5.1-43.3-10.8-67.6,6.5c-3.6,2.6-4.5,7.6-1.9,11.2
	c2.6,3.6,7.5,4.5,11.2,1.9c18.4-13,35.1-8.9,54.5-4c13.7,3.4,27.8,6.9,42.8,4.3v37.7c-6.8-4.4-14.8-6.9-23.5-6.9c-4.4,0-8,3.6-8,8
	s3.6,8,8,8c15,0,27.3,12.1,27.4,27.1c-0.2,15-12.4,27.1-27.4,27.1c-15.1,0-27.4-12.3-27.4-27.4c0-0.1,0-0.1,0-0.2c0-0.2,0-0.3,0-0.5
	c0-0.1,0-0.2,0-0.3c0-0.1,0-0.3-0.1-0.4c0-0.1,0-0.2-0.1-0.4c0-0.1-0.1-0.3-0.1-0.4c0-0.1-0.1-0.3-0.1-0.4c0-0.1-0.1-0.2-0.1-0.3
	c-0.1-0.1-0.1-0.3-0.2-0.4c0-0.1-0.1-0.2-0.1-0.3c-0.1-0.1-0.1-0.3-0.2-0.4c-0.1-0.1-0.1-0.2-0.2-0.3c-0.1-0.1-0.2-0.2-0.2-0.4
	c-0.1-0.1-0.1-0.2-0.2-0.3c-0.1-0.1-0.2-0.2-0.2-0.3c-0.1-0.1-0.2-0.2-0.3-0.3c-0.1-0.1-0.2-0.2-0.3-0.3c-0.1-0.1-0.2-0.2-0.3-0.3
	c-0.1-0.1-0.2-0.2-0.3-0.2c-0.1-0.1-0.2-0.2-0.3-0.3c-0.1-0.1-0.2-0.1-0.3-0.2c-0.1-0.1-0.2-0.1-0.4-0.2c-0.1-0.1-0.2-0.1-0.3-0.2
	c-0.1-0.1-0.2-0.1-0.4-0.2c-0.1-0.1-0.2-0.1-0.4-0.2c-0.1,0-0.2-0.1-0.3-0.1c-0.1,0-0.3-0.1-0.4-0.1c-0.1,0-0.2-0.1-0.3-0.1
	c-0.2,0-0.3-0.1-0.5-0.1c-0.1,0-0.1,0-0.2,0c-10.2-1.6-21.1-1.9-31.5-0.8c-4.1-19.7-21.6-34.5-42.5-34.5c-4.4,0-8,3.6-8,8s3.6,8,8,8
	c15.1,0,27.4,12.3,27.4,27.4c0,15.1-12.3,27.4-27.4,27.4s-27.4-12.3-27.4-27.4c0-4.4-3.6-8-8-8c-4.4,0-8,3.6-8,8
	c0,11.2,4.2,21.4,11.2,29.1c-2.7,1.3-4.6,4-4.6,7.2c0,9.2,1.7,18.1,5.1,26.4c4.4,10.9,12.5,26.6,26.4,39.5c3.9,3.6,7.9,6.8,12.2,9.5
	l-25.3,23.4c-8.2,4.5-18,9.1-29.3,13.7c-36.4,14.7-52.8,40.3-60.1,59.2c-7.9,20.5-7.2,37.5-7.1,38.2c0.2,4.3,3.7,7.6,8,7.6
	c0.1,0,0.3,0,0.4,0c4.4-0.2,7.8-4,7.6-8.4c0-0.6-2.1-57.8,57.2-81.8c8.7-3.5,16.6-7.1,23.7-10.6c7.2,17.1,26.9,53.1,67.2,63.9
	c1.6,0.4,3.2,0.4,4.7-0.2c2.3-0.8,52.5-18.9,71.9-66.1c8.2,4.3,17.6,8.7,28.2,13c24.7,10,41.9,26.7,50.9,49.6
	c3.9,9.7,5.4,18.7,6,24.6H131.5c-4.4,0-8,3.6-8,8s3.6,8,8,8h300.9c4.3,0,7.8-3.3,8-7.6C440.5,454.3,441.2,437.3,433.3,416.8z
	 M196.3,265.5c-2.4-5.9-3.7-12.1-3.9-18.6c6.2,3.4,13.2,5.3,20.7,5.3c21.5,0,39.4-15.8,42.8-36.3c7.4-0.9,15.1-0.9,22.5-0.2
	c3.4,20.6,21.3,36.3,42.8,36.3c8.6,0,16.7-2.5,23.4-6.9c-0.3,5.6-1.3,11-3.2,16.3c-7.7,21.3-27.4,56.9-72.8,56.9
	C224.1,318.2,204.2,285.2,196.3,265.5z M268.7,334.2c6.6,0,12.8-0.6,18.6-1.8l-10.9,29.5h-21l-9.4-30.3
	C253.2,333.3,260.8,334.2,268.7,334.2z M208.8,352.8l21-19.4l11.2,35.9l-9.6,19.4C218.8,375.4,211.7,360.2,208.8,352.8z
	 M264.1,409.6c-7.6-2.3-14.3-5.9-20.2-10l10.7-21.6h23.1l11.3,17.7C278.1,403.3,268.3,407.8,264.1,409.6z M301.4,385.5l-10.5-16.5
	l13.1-35.6c2,1.7,4.2,3.4,6.3,5.1c7.5,6.1,12.1,9.9,15,12.2C319.9,365,311,376.5,301.4,385.5z M176.4,167l0-32.3
	c0-16.7,8-32.8,22.4-45.2c20.6-17.8,51.8-26.1,81.3-21.6c9.7,1.4,18.1,3.8,26.3,6.2c18.3,5.2,32.7,9.2,52.5,1
	c4.1-1.7,8.8,0.2,10.5,4.3s-0.2,8.8-4.3,10.5c-25,10.4-44.3,4.9-63-0.4c-7.7-2.2-15.7-4.4-24.4-5.7c-25-3.8-51.3,3.1-68.5,17.9
	c-7.7,6.6-16.8,17.7-16.8,33.1l0,32.3c0,4.4-3.6,8-8,8C180,175,176.4,171.5,176.4,167z"></path>
<path d="M51.8,61.9h-3.9v3.9c0,4.4-3.6,8-8,8s-8-3.6-8-8v-3.9H28c-4.4,0-8-3.6-8-8s3.6-8,8-8h3.9V42c0-4.4,3.6-8,8-8s8,3.6,8,8v3.9
	h3.9c4.4,0,8,3.6,8,8S56.2,61.9,51.8,61.9z M107,475.2H64c-4.4,0-8,3.6-8,8s3.6,8,8,8h43c4.4,0,8-3.6,8-8S111.4,475.2,107,475.2z
	 M475.3,369.6h-79.5c-4.4,0-8,3.6-8,8s3.6,8,8,8h79.5c4.4,0,8-3.6,8-8S479.7,369.6,475.3,369.6z M152.3,156.6l-73.8,73.8
	c-3.1,3.1-3.1,8.2,0,11.3c1.6,1.6,3.6,2.3,5.7,2.3c2,0,4.1-0.8,5.7-2.3l73.8-73.8c3.1-3.1,3.1-8.2,0-11.3S155.4,153.4,152.3,156.6z"></path>
<path fill="#FFA4ED" class="primary-color" d="M379.6,30h44.5v44.5h-44.5V30z M491,74.5V30h-44.5v44.5H491z M491,142.9V98.4h-44.5v44.5H491z"></path>
</svg>