<svg version="1.1" id="Layer_1" xmlns="http://www.w3.org/2000/svg" xmlns:xlink="http://www.w3.org/1999/xlink" x="0px" y="0px" viewBox="0 0 512 512" enable-background="new 0 0 512 512" xml:space="preserve">
<g>
	<linearGradient id="SVGID_1_" gradientUnits="userSpaceOnUse" x1="358.6375" y1="432.9517" x2="358.6375" y2="248.5452" class="gradient-element">
		<stop offset="0" class="primary-color-gradient" style="stop-color: #FFA4ED"></stop>
		<stop offset="1" class="secondary-color-gradient" style="stop-color: #DB81DA"></stop>
	</linearGradient>
	<path fill="url(#SVGID_1_)" d="M439,409c0,0.5-47.8,29.4-47.8,29.4l-95.1,57.3c-7.6,4.6-17.7-0.3-18.4-9.2c0-0.6,0-1.2,0-1.6
		c4.7-33.8,24.7-67.1,53.6-80.7l28.3-15.4c19.2-9.1,31.6-35.2,31.6-57.5v-58.2c0-31.9,18-60.8,45.7-73.4l1.1-0.5
		c0.8-0.3,1.6,0.2,1.6,1.1L439,409z"></path>
	<linearGradient id="SVGID_2_" gradientUnits="userSpaceOnUse" x1="328.5848" y1="216.7026" x2="328.5848" y2="124.8319">
		<stop offset="0" class="primary-color-gradient" style="stop-color: #FFA4ED"></stop>
		<stop offset="1" class="secondary-color-gradient" style="stop-color: #DB81DA"></stop>
	</linearGradient>
	<path fill="url(#SVGID_2_)" d="M358,214l-58.8,34.9c6-9.6,9.4-20.9,9.4-31.2V166c0-28.4,18-54,45.7-65.2l1.1-0.5
		c0.8-0.3,1.6,0.2,1.6,1L358,214z"></path>
</g>
<path d="M481.5,168.1c-4.2,4.2-11,4.2-15.2,0s-4.2-11,0-15.2c4.2-4.2,11-4.2,15.2,0C485.7,157.1,485.7,163.9,481.5,168.1z
	 M463.1,54.1c4.4,0,8-3.6,8-8s-3.6-8-8-8h-3.9v-3.9c0-4.4-3.6-8-8-8s-8,3.6-8,8v3.9h-3.9c-4.4,0-8,3.6-8,8s3.6,8,8,8h3.9V58
	c0,4.4,3.6,8,8,8s8-3.6,8-8v-3.9H463.1z M56.9,27.9c-4.4,0-8,3.6-8,8c0,11.4-9.3,20.8-20.8,20.8c-4.4,0-8,3.6-8,8s3.6,8,8,8
	c20.3,0,36.8-16.5,36.8-36.8C64.9,31.5,61.3,27.9,56.9,27.9z M106.9,56.6c-11.4,0-20.8-9.3-20.8-20.8c0-4.4-3.6-8-8-8s-8,3.6-8,8
	c0,20.3,16.5,36.8,36.8,36.8c4.4,0,8-3.6,8-8S111.3,56.6,106.9,56.6z M106.9,77.9c-20.3,0-36.8,16.5-36.8,36.8c0,4.4,3.6,8,8,8
	s8-3.6,8-8c0-11.4,9.3-20.8,20.8-20.8c4.4,0,8-3.6,8-8S111.3,77.9,106.9,77.9z M28.1,77.9c-4.4,0-8,3.6-8,8s3.6,8,8,8
	c11.4,0,20.8,9.3,20.8,20.8c0,4.4,3.6,8,8,8s8-3.6,8-8C64.9,94.4,48.4,77.9,28.1,77.9z"></path>
<path d="M446.2,196c-2.2-3.8-7.1-5.1-10.9-2.9l-8,4.6v-18.5c0-2.9-1.5-5.5-4-6.9c-2.5-1.4-5.5-1.4-8,0L365.8,201l0-108.5
	c0-2.6-1.3-5.1-3.5-6.6c-2.2-1.5-4.9-1.8-7.4-0.9c-16.9,6.5-33.4,2.3-50.9-2c-22.9-5.7-48.8-12.2-76.2,7.2
	c-3.6,2.6-4.5,7.6-1.9,11.2c2.6,3.6,7.5,4.5,11.2,1.9c21.4-15.2,40.7-10.3,63.1-4.8c15.9,4,32.2,8.1,49.7,4.6l0,107.2l-88.2,51.1
	l-153.7-89.1c-2.5-1.4-5.5-1.4-8,0c-2.5,1.4-4,4.1-4,6.9v18.5l-8-4.6c-2.5-1.4-5.5-1.4-8,0c-2.5,1.4-4,4.1-4,6.9v208.5
	c0,2.9,1.5,5.5,4,6.9l123.3,71.5c1.3,0.7,2.6,1.1,4,1.1c2.8,0,5.4-1.4,6.9-4c2.2-3.8,0.9-8.7-2.9-10.9L91.9,403.9v-190l146.7,85V491
	c0,4.4,3.6,8,8,8s8-3.6,8-8V307.6l3.4,1.8c2.4,1.2,5.2,1.2,7.5,0l3.1-1.6v135.1V491c0,4.4,3.6,8,8,8s8-3.6,8-8v-48.2V299l158.7-92
	C447.2,204.8,448.5,199.9,446.2,196z M261.7,293.3l-11.2-5.9L111.9,207v-13.9l145.7,84.4c0,0,0,0,0,0c0.2,0.1,0.4,0.2,0.6,0.3
	c0.1,0.1,0.2,0.1,0.3,0.2c0.1,0,0.2,0.1,0.3,0.1c0.9,0.3,1.8,0.5,2.7,0.5c0,0,0,0,0,0s0,0,0,0c0.9,0,1.8-0.2,2.7-0.5
	c0.1,0,0.2-0.1,0.3-0.1c0.1,0,0.2-0.1,0.3-0.2c0.2-0.1,0.4-0.2,0.6-0.3c0,0,0,0,0,0l145.7-84.4V207l-138.6,80.3L261.7,293.3z
	 M447.3,230v178.5c0,2.9-1.5,5.5-4,6.9L316,489.3c-1.3,0.7-2.6,1.1-4,1.1c-2.8,0-5.4-1.4-6.9-4c-2.2-3.8-0.9-8.7,2.9-10.9
	l123.4-71.5V230c0-4.4,3.6-8,8-8S447.3,225.6,447.3,230z M157.8,186.2l0-81.8c0-18.7,8.9-36.8,25.1-50.7
	c23.3-20.1,58.4-29.4,91.8-24.4c10.9,1.6,20.6,4.4,29.9,7c21,5.9,37.6,10.6,60.6,1.1c4.1-1.7,8.8,0.2,10.5,4.3
	c1.7,4.1-0.2,8.8-4.3,10.5c-28.1,11.7-49,5.8-71.1-0.5c-8.8-2.5-18-5.1-27.9-6.6c-28.8-4.3-59.1,3.6-79,20.7
	c-8.9,7.7-19.6,20.6-19.6,38.6l0,81.8c0,4.4-3.6,8-8,8C161.4,194.2,157.8,190.6,157.8,186.2z"></path>
</svg>