<svg version="1.1" id="Layer_1" xmlns="http://www.w3.org/2000/svg" xmlns:xlink="http://www.w3.org/1999/xlink" x="0px" y="0px" viewBox="0 0 512 512" enable-background="new 0 0 512 512" xml:space="preserve">
<linearGradient id="SVGID_1_" gradientUnits="userSpaceOnUse" x1="289.7939" y1="374.1902" x2="289.7939" y2="252.7453" class="gradient-element">
	<stop offset="0" class="primary-color-gradient" style="stop-color: #FFA4ED"></stop>
	<stop offset="1" class="secondary-color-gradient" style="stop-color: #DB81DA"></stop>
</linearGradient>
<path fill="url(#SVGID_1_)" d="M215.6,299.3c5.2,42.5-27.8,78.8-69.3,78.8c-0.1,0-0.3,0-0.4,0c-8.8-0.1-12.5-11-5.9-16.7
	c15-12.8,15.7-92.1,1.7-104.8c-7.2-6.6-2.5-18.5,7.2-18.2c0.1,0,0.3,0,0.4,0C183.2,239.9,211.4,265.7,215.6,299.3z M376.2,238.4
	c-0.1,0-0.3,0-0.4,0c-9.7-0.4-14.4,11.6-7.2,18.2c14,12.8,13.3,92-1.7,104.8c-6.7,5.7-2.9,16.7,5.9,16.7c0.1,0,0.3,0,0.4,0
	c41.5,0,74.6-36.2,69.3-78.8C438.3,265.7,410.1,239.9,376.2,238.4z"></path>
<path d="M465.1,307.3c0,50.2-40.8,91-91,91c-0.4,0-0.8,0-1.2-0.1c-25.5-0.5-49.7-11.8-66.6-31.2c-2.9-3.3-2.6-8.4,0.8-11.3
	c3.3-2.9,8.4-2.6,11.3,0.8c14.3,16.4,34.9,25.8,56.4,25.8c0.3,0,0.5,0,0.8,0c40.7-0.8,73.6-34.1,73.6-75c0-4.4,3.6-8,8-8
	S465.1,302.9,465.1,307.3z M214.2,356.7c-3.3-2.9-8.4-2.6-11.3,0.8c-14.4,16.4-34.9,25.8-56.4,25.8c-38.7,0-70.6-29.4-74.6-67h4.8
	c4,35,33.8,62.3,69.8,62.3c38.7,0,70.3-31.5,70.3-70.3c0-38.7-31.5-70.3-70.3-70.3c-27.7,0-52.7,16.5-64,41.5h-6.7
	c7.7-39.8,23.4-103,26.8-116.8c0.4-1.1,3.3-9.2,11.2-17.1c10.6-10.7,25.1-16.1,43.1-16.1c4.4,0,8-3.6,8-8s-3.6-8-8-8
	c-28,0-45.1,11.4-54.6,21c-11,11.1-14.7,22.4-15,23.7c0,0.1-0.1,0.3-0.1,0.4c-3.6,14.4-22,88.5-28.9,127.6c-0.4,2.3,0.2,4.7,1.8,6.5
	s3.8,2.9,6.1,2.9h21.7c3.4,0,6.4-2.1,7.5-5.3c7.7-21.6,28.2-36.2,51.1-36.2c29.9,0,54.3,24.3,54.3,54.3c0,29.9-24.3,54.3-54.3,54.3
	c-29.9,0-54.3-24.3-54.3-54.3c0-4.4-3.6-8-8-8H63.4c-4.4,0-8,3.6-8,8c0,50.2,40.8,91,91,91c26.1,0,51.1-11.4,68.5-31.3
	C217.8,364.6,217.5,359.6,214.2,356.7z M364.3,129.4c37.1,0,50.2,23.6,53.4,30.7c0,0.4,0.1,0.9,0.2,1.3
	c3.6,14.4,21.8,87.9,28.6,126.4c0.7,3.9,4.1,6.6,7.9,6.6c0.5,0,0.9,0,1.4-0.1c4.4-0.8,7.3-4.9,6.5-9.3
	c-6.5-37.1-23.5-105.9-28.2-125c0.1-1-0.1-2-0.4-3c-0.6-1.8-15.1-43.7-69.3-43.7c-4.4,0-8,3.6-8,8S359.9,129.4,364.3,129.4z
	 M303.8,332.5c-2.8-8.2-4.1-16.1-4.1-24.3c0-6,0.8-12.3,2.5-18.8c0.6-2.4,0.1-4.9-1.5-6.9s-3.8-3.1-6.3-3.1h-67.6
	c-2.5,0-4.8,1.1-6.3,3.1c-1.5,1.9-2.1,4.5-1.5,6.9c1.7,6.6,2.5,12.8,2.5,18.8c0,8.2-1.4,16.1-4.1,24.3c-1.4,4.2,0.8,8.7,5,10.2
	c0.9,0.3,1.7,0.4,2.6,0.4c3.3,0,6.4-2.1,7.6-5.4c3.3-9.7,5-19.6,5-29.5c0-4.1-0.3-8.4-1-12.8h48.2c-0.6,4.3-1,8.6-1,12.8
	c0,9.8,1.7,19.7,5,29.5c1.4,4.2,6,6.4,10.2,5C303,341.2,305.3,336.7,303.8,332.5z M146.4,217.2c30.7,0,59.5,15.8,76.3,41.5h75.7
	c16.8-25.7,45.6-41.5,76.3-41.5c13.2,0,25.9,2.8,37.7,8.2c-4.2-18.2-9.1-38.2-13.9-57.3c-1.8-3.8-10.1-17.9-34.2-17.9
	c-4.4,0-8-3.6-8-8s3.6-8,8-8c35,0,47,23.1,49.1,27.9c0.2,0.5,0.4,0.9,0.5,1.4c6.5,26,13.2,53.9,18.3,76.5c0.7,3.3-0.6,6.6-3.4,8.5
	c-2.8,1.8-6.5,1.7-9.1-0.3c-13.2-9.8-28.7-15-44.9-15c-26.6,0-51.4,14.4-64.9,37.5c-1.4,2.5-4.1,4-6.9,4h-84.7c-2.8,0-5.5-1.5-6.9-4
	c-13.5-23.1-38.3-37.5-64.9-37.5c-16.2,0-31.8,5.2-44.9,15c-2.7,2-6.3,2.1-9.1,0.3c-2.8-1.8-4.2-5.2-3.4-8.5
	c5.4-23.8,12-51.4,18.1-75.7c0-0.2,0.1-0.4,0.2-0.6c0.1-0.3,10.2-29.6,49.6-29.6c4.4,0,8,3.6,8,8s-3.6,8-8,8
	c-25.9,0-33.4,16.2-34.4,18.5c-4.5,17.8-9.3,38-13.7,56.8C120.5,220,133.3,217.2,146.4,217.2z M413.1,161.4c0.1,0.2,0.2,0.4,0.3,0.6
	C413.3,161.9,413.2,161.7,413.1,161.4z M375.1,254c22.8,0,43.4,14.5,51.1,36.2c1.5,4.2,6.1,6.3,10.2,4.9c4.2-1.5,6.3-6.1,4.9-10.2
	c-10-28-36.6-46.8-66.2-46.8c-38.7,0-70.3,31.5-70.3,70.3c0,38.7,31.5,70.3,70.3,70.3c38.7,0,70.3-31.5,70.3-70.3c0-4.4-3.6-8-8-8
	s-8,3.6-8,8c0,29.9-24.3,54.3-54.3,54.3c-29.9,0-54.3-24.3-54.3-54.3C320.8,278.4,345.2,254,375.1,254z"></path>
<path fill="#000000" d="M449.1,307.3c0-4.4,3.6-8,8-8h28.7c4.4,0,8,3.6,8,8s-3.6,8-8,8h-28.7C452.7,315.3,449.1,311.7,449.1,307.3z
	 M59.8,52.5c0-4.4-3.6-8-8-8h-3.9v-3.9c0-4.4-3.6-8-8-8s-8,3.6-8,8v3.9H28c-4.4,0-8,3.6-8,8s3.6,8,8,8h3.9v3.9c0,4.4,3.6,8,8,8
	s8-3.6,8-8v-3.9h3.9C56.2,60.5,59.8,57,59.8,52.5z M492.6,448.6h-3.9v-3.9c0-4.4-3.6-8-8-8s-8,3.6-8,8v3.9h-3.9c-4.4,0-8,3.6-8,8
	s3.6,8,8,8h3.9v3.9c0,4.4,3.6,8,8,8s8-3.6,8-8v-3.9h3.9c4.4,0,8-3.6,8-8S497,448.6,492.6,448.6z M107,473.8H64c-4.4,0-8,3.6-8,8
	s3.6,8,8,8h43c4.4,0,8-3.6,8-8S111.4,473.8,107,473.8z M487.5,122.6c4.2-4.2,4.2-11,0-15.2c-4.2-4.2-11-4.2-15.2,0
	c-4.2,4.2-4.2,11,0,15.2C476.5,126.8,483.3,126.8,487.5,122.6z M454.7,382.3h-79.5c-4.4,0-8,3.6-8,8s3.6,8,8,8h79.5c4.4,0,8-3.6,8-8
	S459.1,382.3,454.7,382.3z M264.7,434.3c4.4,0,8-3.6,8-8s-3.6-8-8-8c-14.6,0-26.4,11.8-26.4,26.4s11.8,26.4,26.4,26.4
	c4.4,0,8-3.6,8-8s-3.6-8-8-8c-5.7,0-10.4-4.7-10.4-10.4S259,434.3,264.7,434.3z M24.3,186.1c-4.2,4.2-4.2,11,0,15.2s11,4.2,15.2,0
	c4.2-4.2,4.2-11,0-15.2C35.3,181.9,28.5,181.9,24.3,186.1z M349.3,53.3h-15.8V37.5c0-4.4-3.6-8-8-8s-8,3.6-8,8v15.8h-15.8
	c-4.4,0-8,3.6-8,8s3.6,8,8,8h15.8V85c0,4.4,3.6,8,8,8s8-3.6,8-8V69.3h15.8c4.4,0,8-3.6,8-8S353.7,53.3,349.3,53.3z M144.7,40.8
	c-4.2,4.2-4.2,11,0,15.2s11,4.2,15.2,0c4.2-4.2,4.2-11,0-15.2C155.7,36.6,148.9,36.6,144.7,40.8z"></path>
<g>
	<path fill="#FFA4ED" class="primary-color" d="M357.5,445.2v44.6h-41.3v-44.6H357.5z M373.1,445.2v44.6h41.3v-44.6H373.1z"></path>
	<path fill="#DB81DA" class="secondary-color" d="M31.7,467.4v-80.5l40.3,40.3L31.7,467.4z"></path>
	<path fill="#FFA4ED" class="primary-color" d="M416,29.4h77.3v22.5H416V29.4z"></path>
</g>
</svg>