<svg version="1.1" id="Layer_1" xmlns="http://www.w3.org/2000/svg" xmlns:xlink="http://www.w3.org/1999/xlink" x="0px" y="0px" viewBox="0 0 512 512" enable-background="new 0 0 512 512" xml:space="preserve">
<g>
	<linearGradient id="SVGID_1_" gradientUnits="userSpaceOnUse" x1="301.1777" y1="498.8825" x2="301.1777" y2="356.3817" class="gradient-element">
		<stop offset="0" class="primary-color-gradient" style="stop-color: #FFA4ED"></stop>
		<stop offset="1" class="secondary-color-gradient" style="stop-color: #DB81DA"></stop>
	</linearGradient>
	<path fill="url(#SVGID_1_)" d="M269.6,480.3L269.6,480.3l-35.3,0l11.5-32.5l-22.8-21.3l11-19.3l-50.4-22.8v-35.2l67.9,30.7l47-21.2
		l20.9-9.4v29.2c4.8,3,10.5,6,17.3,8.9c47.4,20.7,76.6,34.5,81.8,93H269.6z"></path>
	<linearGradient id="SVGID_2_" gradientUnits="userSpaceOnUse" x1="276.9521" y1="384.6159" x2="276.9521" y2="146.9502">
		<stop offset="0" class="primary-color-gradient" style="stop-color: #FFA4ED"></stop>
		<stop offset="1" class="secondary-color-gradient" style="stop-color: #DB81DA"></stop>
	</linearGradient>
	<path fill="url(#SVGID_2_)" d="M251.3,154.5c0,0-3.1-6.6,0-8.3c3.1-1.7,83.9,9.4,83.9,9.4s8.3,50,0,120.1
		c-1.3,10.6-4.1,19.9-7.9,28.1h-44.8c0-10.9-8.9-19.8-19.8-19.8c-4.2,0-8.2,1.4-11.4,3.7V154.5z M314.2,323.5h-51.5
		c-4.2,0-8.2-1.4-11.4-3.7v35.7c-18.8-1.3-36.3-6.4-36.3-6.4l2.7,8.9H215l36.6,21.8l34-13.6c0,0,22-28.8,0-15.9
		c-6.6,3.9-15.5,5.3-24.9,5.4C273.5,352.1,296.9,343,314.2,323.5z"></path>
</g>
<path d="M425.3,449.4c-7.5-19.5-24.4-45.9-62-61.1c-14.3-5.8-26.4-11.6-35.8-17.3v-21.9c0-2.7-1.4-5.2-3.7-6.7
	c-2.3-1.5-5.2-1.7-7.6-0.6l-3.3,1.5c4.2-3.5,8.2-7.5,11.8-11.8h7.2c24.5,0,37.7-19.4,37.7-37.7v-3c9.7-2.8,19.8-10.8,19.8-26.6
	v-59.3c0-20.4-16.6-27.8-27.8-27.8h-11.3v-30.1c0-2.6-1.3-5.1-3.5-6.6c-2.2-1.5-4.9-1.8-7.4-0.9c-15.1,5.8-30,2.1-45.7-1.9
	c-20.9-5.2-44.6-11.1-69.7,6.7c-3.6,2.6-4.5,7.6-1.9,11.2c2.6,3.6,7.5,4.5,11.2,1.9c19.1-13.6,36.5-9.2,56.6-4.2
	c14.2,3.6,28.9,7.2,44.5,4.3v24.8c-0.3,0.9-0.5,1.8-0.5,2.8s0.2,1.9,0.5,2.8V269c0,6.7-1.1,13.3-3.4,19.5c-0.3,0.9-2,3.8-2.9,5.6
	c-0.3,0.5-0.6,1-0.9,1.6h-37.8c-3.4-11.4-14.1-19.8-26.6-19.8c-15.3,0-27.8,12.5-27.8,27.8c0,15.3,12.5,27.8,27.8,27.8h39.5
	c-13,10.7-28.7,16.2-46.8,16.2c-46.3,0-67-34.3-75.2-54.7c-2.7-6.7-4.1-13.9-4.1-21.3l0-114c0-16,9.5-27.6,17.5-34.4
	c17.8-15.4,45.1-22.5,71-18.6c9,1.3,17.2,3.7,25.2,5.9c19.3,5.5,39.2,11.1,65,0.4c4.1-1.7,6-6.4,4.3-10.5s-6.4-6-10.5-4.3
	c-20.6,8.6-35.5,4.3-54.5-1c-8.5-2.4-17.2-4.9-27.2-6.4c-30.4-4.6-62.6,4-83.8,22.3c-14.9,12.8-23.1,29.3-23.1,46.6l0,114
	c0,9.5,1.8,18.6,5.2,27.2c4.5,11.2,12.9,27.5,27.3,40.8c4.9,4.6,10.2,8.5,15.8,11.8l-21.4-9.7c-2.5-1.1-5.4-0.9-7.6,0.6
	c-2.3,1.5-3.7,4-3.7,6.7V376c-7.8,4.1-16.8,8.2-27,12.4c-37.6,15.2-54.4,41.6-62,61.1c-8.2,21.1-7.4,38.6-7.4,39.4
	c0.2,4.3,3.7,7.6,8,7.6c0.1,0,0.3,0,0.4,0c4.4-0.2,7.8-4,7.6-8.4c0-0.6-2.2-60,59.4-84.9c9.5-3.8,18.1-7.7,25.7-11.6c0,0,0,0,0.1,0
	l42.4,19.1l-6.7,11.7c-1.8,3.2-1.2,7.3,1.5,9.8l18.9,17.7l-9.8,27.6c-0.3,0.9-0.5,1.9-0.5,2.8H113.5c-4.4,0-8,3.6-8,8s3.6,8,8,8
	h311.2c4.3,0,7.8-3.3,8-7.6C432.8,488.1,433.5,470.5,425.3,449.4z M250.9,303.7c0-6.5,5.3-11.8,11.8-11.8c6.5,0,11.8,5.3,11.8,11.8
	c0,4.4,3.6,8,8,8h49.4c0,0,0,0,0,0c0,0,0.1,0,0.1,0c0.3,0,0.6,0,0.9-0.1c0.1,0,0.2,0,0.3,0c0.3,0,0.6-0.1,0.8-0.2c0,0,0.1,0,0.1,0
	c0.3-0.1,0.7-0.2,1-0.4c0.1,0,0.1-0.1,0.2-0.1c0.3-0.1,0.5-0.3,0.8-0.4c0.1,0,0.1-0.1,0.2-0.1c0.3-0.2,0.5-0.4,0.8-0.6
	c0.1-0.1,0.1-0.1,0.2-0.2c0.2-0.2,0.4-0.4,0.6-0.6c0.1-0.1,0.1-0.1,0.2-0.2c0.2-0.3,0.4-0.5,0.6-0.8c0-0.1,0.1-0.1,0.1-0.2
	c0.2-0.3,0.3-0.6,0.5-0.9c0,0,0-0.1,0-0.1c0.5-1.1,1.7-3.2,2.7-5c2-3.6,3.3-6,4-8c2.9-8,4.4-16.4,4.4-25v-76l11.2,0
	c0,0,3.5,0.1,6.7,1.8c2.4,1.3,5.1,3.6,5.1,10v59.3c0,6.4-2.7,8.7-5.1,10c-3.2,1.7-6.7,1.8-6.7,1.8c-4.4,0-8,3.6-8,8v9.9
	c0,7.5-4.5,21.7-21.7,21.7h-69.2C256.2,315.5,250.9,310.2,250.9,303.7z M267.4,399.1h-7.8v-14.1l51.9-23.4v17.7L267.4,399.1z
	 M255.4,363.6c5.2,0,10.2-0.4,15.1-1.2l-18.9,8.5L225,359C234.4,362.1,244.6,363.6,255.4,363.6z M191.7,361.5l51.9,23.4v14.1h-7.8
	l-44.1-19.9V361.5z M238.8,415.1h25.7l5.6,9.8l-18,16.8c0,0,0,0,0,0l-0.5,0.4l-18.4-17.3L238.8,415.1z M249.8,460.9
	c0.3,0.1,0.5,0.1,0.8,0.1c0.1,0,0.1,0,0.2,0c0.3,0,0.6,0,0.8,0c0,0,0.1,0,0.1,0c0.1,0,0.1,0,0.2,0c0.3,0,0.6,0,0.8-0.1
	c0.1,0,0.1,0,0.2,0c0.3-0.1,0.6-0.1,1-0.2c0,0,0,0,0,0l4.2,11.5h-12.5l4-11.4C249.7,460.9,249.8,460.9,249.8,460.9z M277.6,480.4
	c0-1-0.1-2-0.5-2.9l-10.2-27.7l18.7-17.5c2.7-2.5,3.3-6.6,1.5-9.8l-6.7-11.7l42.4-19.1c1.4-0.6,2.6-1.7,3.4-2.9
	c8.9,4.8,19.3,9.7,31.2,14.5c25.7,10.4,43.4,27.7,52.8,51.4c4.1,10.3,5.6,19.6,6.2,25.8H277.6z"></path>
<path fill="#FFA4ED" class="primary-color" d="M479.8,154.8v34.7h-34.7v-34.7H479.8z M445.1,99.6v34.7h34.7V99.6H445.1z"></path>
<path fill="#FFA4ED" class="primary-color" d="M479.8,44.3V79h-34.7V44.3H479.8z"></path>
<path d="M42.6,72.8c0-4.4,3.6-8,8-8h15.8V49.1c0-4.4,3.6-8,8-8s8,3.6,8,8v15.8h15.8c4.4,0,8,3.6,8,8s-3.6,8-8,8H82.4v15.8
	c0,4.4-3.6,8-8,8s-8-3.6-8-8V80.8H50.6C46.2,80.8,42.6,77.3,42.6,72.8z M76.7,290.4c-4.4,0-8,3.6-8,8c0,11.4-9.3,20.8-20.8,20.8
	c-4.4,0-8,3.6-8,8s3.6,8,8,8c20.3,0,36.8-16.5,36.8-36.8C84.7,294,81.1,290.4,76.7,290.4z M126.7,319.1c-11.4,0-20.8-9.3-20.8-20.8
	c0-4.4-3.6-8-8-8s-8,3.6-8,8c0,20.3,16.5,36.8,36.8,36.8c4.4,0,8-3.6,8-8S131.1,319.1,126.7,319.1z M126.7,340.4
	c-20.3,0-36.8,16.5-36.8,36.8c0,4.4,3.6,8,8,8s8-3.6,8-8c0-11.4,9.3-20.8,20.8-20.8c4.4,0,8-3.6,8-8S131.1,340.4,126.7,340.4z
	 M47.9,340.4c-4.4,0-8,3.6-8,8s3.6,8,8,8c11.4,0,20.8,9.3,20.8,20.8c0,4.4,3.6,8,8,8s8-3.6,8-8C84.7,356.9,68.2,340.4,47.9,340.4z
	 M433,328.5c5.9,0,10.8-4.8,10.8-10.8S438.9,307,433,307c-5.9,0-10.8,4.8-10.8,10.8S427.1,328.5,433,328.5z M402.8,66
	c4.4,0,8-3.6,8-8s-3.6-8-8-8h-3.9v-3.9c0-4.4-3.6-8-8-8s-8,3.6-8,8V50h-3.9c-4.4,0-8,3.6-8,8s3.6,8,8,8h3.9v3.9c0,4.4,3.6,8,8,8
	s8-3.6,8-8V66H402.8z M135.1,153.1H61.3c-4.4,0-8,3.6-8,8s3.6,8,8,8h73.8c4.4,0,8-3.6,8-8S139.5,153.1,135.1,153.1z M483.5,365.3
	h-73.8c-4.4,0-8,3.6-8,8s3.6,8,8,8h73.8c4.4,0,8-3.6,8-8S487.9,365.3,483.5,365.3z"></path>
</svg>