<svg version="1.1" id="Layer_1" xmlns="http://www.w3.org/2000/svg" xmlns:xlink="http://www.w3.org/1999/xlink" x="0px" y="0px" viewBox="0 0 512 512" enable-background="new 0 0 512 512" xml:space="preserve">
<linearGradient id="SVGID_1_" gradientUnits="userSpaceOnUse" x1="286.4632" y1="335.5646" x2="286.4632" y2="181.025" class="gradient-element">
	<stop offset="0" class="primary-color-gradient" style="stop-color: #FFA4ED"></stop>
	<stop offset="1" class="secondary-color-gradient" style="stop-color: #DB81DA"></stop>
</linearGradient>
<path fill="url(#SVGID_1_)" d="M424.2,256.6c0,21.3-8.6,40.7-22.6,54.6c-14,14-33.3,22.6-54.6,22.6h-38.3c21.3,0,40.7-8.7,54.6-22.6
	c14-14,25.3-33.3,25.3-54.6c0-42.7-37.3-77.3-79.9-77.3H347C389.6,179.4,424.2,214,424.2,256.6z M175.8,202h-27.1
	c30.2,0,56.5,24.5,56.5,54.6c0,15.1-8,28.7-17.9,38.6c-9.9,9.9-23.5,16-38.6,16h27.1c15.1,0,28.7-6.1,38.6-16
	c9.9-9.9,16-23.5,16-38.6C230.5,226.5,206,202,175.8,202z"></path>
<path d="M340.6,347.4H172.2c-21.8,0-43-7.9-59.5-22.2c-16.3-14.1-27.1-33.6-30.3-54.9c-0.7-4.4,2.3-8.4,6.7-9.1
	c4.4-0.7,8.4,2.3,9.1,6.7c5.5,36.2,37.3,63.5,74,63.5h168.4c41.2,0,74.8-33.6,74.8-74.8c0-6.1-0.7-12.1-2.2-18
	c-1.1-4.3,1.6-8.6,5.9-9.7c4.3-1.1,8.6,1.6,9.7,5.9c1.7,7.1,2.6,14.4,2.6,21.8C431.4,306.7,390.6,347.4,340.6,347.4z M97.9,247.4
	c4.6-37.4,36.5-65.6,74.2-65.6h168.4c24.6,0,47.7,12.1,61.6,32.4c2.5,3.6,7.5,4.6,11.1,2c3.6-2.5,4.6-7.5,2-11.1
	c-17-24.6-44.9-39.3-74.8-39.3H172.2c-45.8,0-84.6,34.2-90.1,79.6c-0.5,4.4,2.6,8.4,7,8.9c0.3,0,0.7,0.1,1,0.1
	C94,254.5,97.4,251.5,97.9,247.4z M240.2,256.6c0-38.2-31.1-69.3-69.3-69.3c-34.5,0-64,25.7-68.6,59.9c-0.6,4.4,2.5,8.4,6.9,9
	c4.4,0.6,8.4-2.5,9-6.9c3.6-26.2,26.2-46,52.8-46c29.4,0,53.3,23.9,53.3,53.3s-23.9,53.3-53.3,53.3c-26.1,0-48.1-18.6-52.5-44.3
	c-0.7-4.4-4.9-7.3-9.2-6.5c-4.4,0.7-7.3,4.9-6.5,9.2c5.7,33.4,34.4,57.6,68.3,57.6C209.1,325.9,240.2,294.8,240.2,256.6z"></path>
<path fill="#DB81DA" class="secondary-color" d="M304.7,470.1v-21.8H477v21.8H304.7z M488.2,126.4v-101h-101L488.2,126.4z"></path>
<path d="M91.6,363.7c0,20.3-16.5,36.8-36.8,36.8c-4.4,0-8-3.6-8-8s3.6-8,8-8c11.4,0,20.8-9.3,20.8-20.8c0-4.4,3.6-8,8-8
	S91.6,359.3,91.6,363.7z M133.6,384.5c-11.4,0-20.8-9.3-20.8-20.8c0-4.4-3.6-8-8-8s-8,3.6-8,8c0,20.3,16.5,36.8,36.8,36.8
	c4.4,0,8-3.6,8-8S138,384.5,133.6,384.5z M133.6,405.7c-20.3,0-36.8,16.5-36.8,36.8c0,4.4,3.6,8,8,8s8-3.6,8-8
	c0-11.4,9.3-20.8,20.8-20.8c4.4,0,8-3.6,8-8S138,405.7,133.6,405.7z M54.9,405.7c-4.4,0-8,3.6-8,8s3.6,8,8,8
	c11.4,0,20.8,9.3,20.8,20.8c0,4.4,3.6,8,8,8s8-3.6,8-8C91.6,422.2,75.1,405.7,54.9,405.7z M448.6,228.8H335.7c-4.4,0-8,3.6-8,8
	s3.6,8,8,8h112.8c4.4,0,8-3.6,8-8S453,228.8,448.6,228.8z M384.2,209.7c0,4.4,3.6,8,8,8h54.1c4.4,0,8-3.6,8-8s-3.6-8-8-8h-54.1
	C387.7,201.7,384.2,205.3,384.2,209.7z M396.5,391.6H283.7c-4.4,0-8,3.6-8,8s3.6,8,8,8h112.8c4.4,0,8-3.6,8-8
	S400.9,391.6,396.5,391.6z M134,98.4h-15.8V82.6c0-4.4-3.6-8-8-8s-8,3.6-8,8v15.8H86.4c-4.4,0-8,3.6-8,8s3.6,8,8,8h15.8v15.8
	c0,4.4,3.6,8,8,8s8-3.6,8-8v-15.8H134c4.4,0,8-3.6,8-8S138.4,98.4,134,98.4z M367.2,120.3h3.9v3.9c0,4.4,3.6,8,8,8s8-3.6,8-8v-3.9
	h3.9c4.4,0,8-3.6,8-8s-3.6-8-8-8h-3.9v-3.9c0-4.4-3.6-8-8-8s-8,3.6-8,8v3.9h-3.9c-4.4,0-8,3.6-8,8S362.8,120.3,367.2,120.3z"></path>
</svg>