<svg version="1.1" id="Layer_1" xmlns="http://www.w3.org/2000/svg" xmlns:xlink="http://www.w3.org/1999/xlink" x="0px" y="0px" viewBox="0 0 512 512" enable-background="new 0 0 512 512" xml:space="preserve">
<g>
	<linearGradient id="SVGID_1_" gradientUnits="userSpaceOnUse" x1="99.0109" y1="286.9158" x2="431.8743" y2="286.9158" class="gradient-element">
		<stop offset="0" class="primary-color-gradient" style="stop-color: #FFA4ED"></stop>
		<stop offset="1" class="secondary-color-gradient" style="stop-color: #DB81DA"></stop>
	</linearGradient>
	<path fill="url(#SVGID_1_)" d="M215.7,434.9H99.2c0,0-0.4-35.5,0-49.4c0.7-25.7,26.6-24.1,52.3-24.1h157
		c28.8,0,52.1-23.3,52.1-52.1l-3.5-104.2l64.7-65.4l0,0c12.4,0,9.9-4.5,9.9,7.9V412c0,12.6-10.2,22.9-22.9,22.9H215.7z M204.4,417.9
		"></path>
	<linearGradient id="SVGID_2_" gradientUnits="userSpaceOnUse" x1="216.4212" y1="179.9003" x2="423.8209" y2="179.9003">
		<stop offset="0" class="primary-color-gradient" style="stop-color: #FFA4ED"></stop>
		<stop offset="1" class="secondary-color-gradient" style="stop-color: #DB81DA"></stop>
	</linearGradient>
	<path fill="url(#SVGID_2_)" d="M225.2,283.6L225.2,283.6c-11.7-11.7-11.7-30.6,0-42.2L381.6,84.9c11.7-11.7,30.6-11.7,42.2,0l0,0
		L225.2,283.6z"></path>
</g>
<path d="M490.4,169.5V408c0,17.6-14.3,31.9-31.9,31.9H53c-17.6,0-31.9-14.3-31.9-31.9V169.5c0-17.6,14.3-31.9,31.9-31.9h225.8
	c4.4,0,8,3.6,8,8s-3.6,8-8,8H53c-8.7,0-15.9,7.1-15.9,15.9V408c0,8.7,7.1,15.9,15.9,15.9h39.7V181.6H76.8c-4.4,0-8-3.6-8-8
	s3.6-8,8-8h23.9c4.4,0,8,3.6,8,8v250.3h310.7v-31.4h-58c-4.4,0-8-3.6-8-8s3.6-8,8-8h58V173.6c0-4.4,3.6-8,8-8s8,3.6,8,8v202.9h12.8
	c4.4,0,8,3.6,8,8s-3.6,8-8,8h-12.8v31.4h23.1c8.7,0,15.9-7.1,15.9-15.9V169.5c0-8.7-7.1-15.9-15.9-15.9h-44.8
	c-3.2,0-6.2-1.9-7.4-4.9c-1.2-3-0.6-6.4,1.7-8.7l10.5-10.5c5.2-5.2,8.1-12.2,8.1-19.6c0-7.4-2.9-14.4-8.1-19.6
	c-10.8-10.8-28.5-10.8-39.3,0L252.3,217.1c-14.6,14.6-24.3,30.4-24.3,59.7v3.9h3.9c29.4,0,45.1-9.7,59.7-24.4
	c1.3-1.3,16.4-16.5,33.9-34.2c22.3-22.5,50-50.5,57.8-58.4c3.1-3.1,8.2-3.2,11.3,0c3.1,3.1,3.2,8.2,0,11.3
	c-7.8,7.9-35.5,35.9-57.8,58.4c-17.5,17.7-32.6,33-33.9,34.3c-14.4,14.4-34,29-71,29H220c-4.4,0-8-3.6-8-8v-11.9
	c0-37,14.7-56.7,29-71L367.9,78.9c17.1-17.1,44.8-17.1,61.9,0c8.3,8.3,12.8,19.3,12.8,31c0,10.3-3.5,20-9.9,27.8h25.8
	C476.1,137.6,490.4,151.9,490.4,169.5z M387.1,364.3c4.4,0,8-3.6,8-8s-3.6-8-8-8h-57.4c-4.4,0-8,3.6-8,8s3.6,8,8,8H387.1z"></path>
<path d="M249.1,48c3.5,3.5,3.5,9.3,0,12.8s-9.3,3.5-12.8,0s-3.5-9.3,0-12.8S245.6,44.5,249.1,48z M215.1,26.8
	c-3.5,3.5-3.5,9.3,0,12.8s9.3,3.5,12.8,0s3.5-9.3,0-12.8S218.7,23.2,215.1,26.8z M257.3,68.9c-3.5,3.5-3.5,9.3,0,12.8
	c3.5,3.5,9.3,3.5,12.8,0c3.5-3.5,3.5-9.3,0-12.8C266.5,65.3,260.8,65.3,257.3,68.9z M258.1,26.3c-3.5,3.5-3.5,9.2,0,12.7
	s9.2,3.5,12.7,0c3.5-3.5,3.5-9.2,0-12.7S261.6,22.8,258.1,26.3z M50,64.8h3.9v3.9c0,4.4,3.6,8,8,8s8-3.6,8-8v-3.9h3.9
	c4.4,0,8-3.6,8-8s-3.6-8-8-8h-3.9v-3.9c0-4.4-3.6-8-8-8s-8,3.6-8,8v3.9H50c-4.4,0-8,3.6-8,8S45.5,64.8,50,64.8z M183.9,86.7h-47.6
	c-4.4,0-8,3.6-8,8s3.6,8,8,8h47.6c4.4,0,8-3.6,8-8S188.3,86.7,183.9,86.7z M135.4,461.3H48.6c-4.4,0-8,3.6-8,8s3.6,8,8,8h86.8
	c4.4,0,8-3.6,8-8S139.8,461.3,135.4,461.3z M279,47.2c-3.5,3.5-3.5,9.2,0,12.7s9.2,3.5,12.7,0c3.5-3.5,3.5-9.2,0-12.7
	S282.5,43.7,279,47.2z M321.5,47.7c-3.5,3.5-3.5,9.3,0,12.8s9.3,3.5,12.8,0s3.5-9.3,0-12.8S325,44.2,321.5,47.7z M342.4,26.8
	c-3.5,3.5-3.5,9.3,0,12.8s9.3,3.5,12.8,0s3.5-9.3,0-12.8S345.9,23.2,342.4,26.8z M278.8,90.4c-3.5,3.5-3.5,9.3,0,12.8
	s9.3,3.5,12.8,0s3.5-9.3,0-12.8S282.3,86.9,278.8,90.4z M490.9,25.1h-43c-4.4,0-8,3.6-8,8s3.6,8,8,8h43c4.4,0,8-3.6,8-8
	S495.3,25.1,490.9,25.1z M300.5,68.7c-3.5,3.5-3.5,9.3,0,12.8s9.3,3.5,12.8,0s3.5-9.3,0-12.8S304,65.2,300.5,68.7z M312.7,38.9
	c3.5-3.5,3.5-9.2,0-12.7s-9.2-3.5-12.7,0c-3.5,3.5-3.5,9.2,0,12.7S309.2,42.4,312.7,38.9z"></path>
</svg>