<svg version="1.1" id="Layer_1" xmlns="http://www.w3.org/2000/svg" xmlns:xlink="http://www.w3.org/1999/xlink" x="0px" y="0px" viewBox="0 0 512 512" enable-background="new 0 0 512 512" xml:space="preserve">
<linearGradient id="SVGID_1_" gradientUnits="userSpaceOnUse" x1="278.4024" y1="435.1028" x2="278.4024" y2="124.1934" class="gradient-element">
	<stop offset="0" class="primary-color-gradient" style="stop-color: #FFA4ED"></stop>
	<stop offset="1" class="secondary-color-gradient" style="stop-color: #DB81DA"></stop>
</linearGradient>
<path fill="url(#SVGID_1_)" d="M467.2,282.7V436c0,1.8-0.7,3.5-1.9,4.6c-1.2,1.2-2.8,2.9-4.6,2.9H270c-3.6,0-6.6-3.9-6.6-7.6v-3.2
	c0-8.6,7-15.6,15.6-15.6h129.3c0.2,0,0.4,0,0.6,0c3.2-0.3,5.5-3.1,5.6-6.3l0.4-100.2c0-14.4,11.7-26.1,26.1-26.1
	C440.9,284.6,467.2,279.1,467.2,282.7z M176.2,341v8.6c0,3.7,3,7.7,6.7,7.7h72.6v-32.3h-63.4C183.4,325.1,176.2,332.2,176.2,341z
	 M386.8,199.2c0-3.7-26.9-2.7-26.9-2.7c-14.7,0-26.7,11.9-26.7,26.7l-0.3,53.8h53.9V199.2z M89.6,253v9.6c0,3.7,3,7.7,6.7,7.7h72.3
	v-33.3h-63.1C96.7,237.1,89.6,244.3,89.6,253z M296.1,112.2c0-3.7-26.9-1.7-26.9-1.7c-14.7,0-26.7,11.9-26.7,26.7l-0.3,50h53.9
	V112.2z"></path>
<path d="M458.5,458.9H270.3c-12.4,0-22.6-10.1-22.6-22.6v-39.7c0-4.4,3.6-8,8-8s8,3.6,8,8v39.7c0,3.6,2.9,6.6,6.6,6.6h188.2
	c3.6,0,6.6-2.9,6.6-6.6V291.8c0-3.6-2.9-6.6-6.6-6.6H270.3c-3.6,0-6.6,2.9-6.6,6.6v45c0,4.4-3.6,8-8,8s-8-3.6-8-8v-45
	c0-12.4,10.1-22.6,22.6-22.6h108.5c-0.4-1-0.6-2-0.6-3.1v-61.3c0-3.6-2.9-6.6-6.6-6.6H183.3c-3.6,0-6.6,2.9-6.6,6.6v144.5
	c0,3.6,2.9,6.6,6.6,6.6h84.4c4.4,0,8,3.6,8,8s-3.6,8-8,8h-84.4c-12.4,0-22.6-10.1-22.6-22.6v-65c-0.9,0.3-1.9,0.5-2.9,0.5H96.4
	c-12.4,0-22.6-10.1-22.6-22.6V117.8c0-12.4,10.1-22.6,22.6-22.6h188.2c12.4,0,22.6,10.1,22.6,22.6v41.4c0,4.4-3.6,8-8,8s-8-3.6-8-8
	v-41.4c0-3.6-2.9-6.6-6.6-6.6H96.4c-3.6,0-6.6,2.9-6.6,6.6v144.5c0,3.6,2.9,6.6,6.6,6.6h61.5c1,0,2,0.2,2.9,0.5v-64.6
	c0-12.4,10.1-22.6,22.6-22.6h188.2c12.4,0,22.6,10.1,22.6,22.6v61.3c0,1.1-0.2,2.1-0.6,3.1h65c12.4,0,22.6,10.1,22.6,22.6v144.5
	C481.1,448.8,470.9,458.9,458.5,458.9z"></path>
<path fill="#DB81DA" class="secondary-color" d="M466.7,98.5h21.8v56.9h-21.8V98.5z M356.4,43.4h56.9V21.6h-56.9V43.4z M431.5,21.6v21.8h35.1v36.9h21.8V43.4
	v-20v-1.8H431.5z M34.4,478.4h81.8l-81.8-81.8V478.4z"></path>
<path d="M294.6,404.7h-78c-4.4,0-8-3.6-8-8s3.6-8,8-8h78c4.4,0,8,3.6,8,8S299,404.7,294.6,404.7z M66.6,330.8
	c-3.1-3.1-8.2-3.1-11.3,0c-3.1,3.1-3.1,8.2,0,11.3l55.2,55.2c1.6,1.6,3.6,2.3,5.7,2.3s4.1-0.8,5.7-2.3c3.1-3.1,3.1-8.2,0-11.3
	L66.6,330.8z M478.1,231.5c0,4.4-3.6,8-8,8h-3.9v3.9c0,4.4-3.6,8-8,8s-8-3.6-8-8v-3.9h-3.9c-4.4,0-8-3.6-8-8s3.6-8,8-8h3.9v-3.9
	c0-4.4,3.6-8,8-8s8,3.6,8,8v3.9h3.9C474.5,223.5,478.1,227.1,478.1,231.5z M198.1,452c4.2,4.2,4.2,11,0,15.2c-4.2,4.2-11,4.2-15.2,0
	s-4.2-11,0-15.2C187.1,447.8,193.9,447.8,198.1,452z M396.3,125.1c3.1,3.1,3.1,8.2,0,11.3c-1.6,1.6-3.6,2.3-5.7,2.3
	s-4.1-0.8-5.7-2.3l-68.6-68.6h-74.2c-4.4,0-8-3.6-8-8s3.6-8,8-8h78c3,0,5.6,1.7,7,4.1L396.3,125.1z"></path>
</svg>