<svg version="1.1" id="Layer_1" xmlns="http://www.w3.org/2000/svg" xmlns:xlink="http://www.w3.org/1999/xlink" x="0px" y="0px" viewBox="0 0 512 512" enable-background="new 0 0 512 512" xml:space="preserve">
<linearGradient id="SVGID_1_" gradientUnits="userSpaceOnUse" x1="297.537" y1="477.1065" x2="297.537" y2="245.6558" class="gradient-element">
	<stop offset="0" class="primary-color-gradient" style="stop-color: #FFA4ED"></stop>
	<stop offset="1" class="secondary-color-gradient" style="stop-color: #DB81DA"></stop>
</linearGradient>
<path fill="url(#SVGID_1_)" d="M417,295l-0.6,177.6c0,2.8-2.3,5.1-5.1,5.1h-200c0,0-10.8-9.1-26.2-22.5
	c-15.7-13.6-3.5-35.5,19.9-35.5h60.9c38.7,0,70.1-24.8,70.1-55.3V262.1c0-5.9,6.9-10.4,14.3-9.2L378,260
	C407.3,265.6,417,286.7,417,295z"></path>
<path d="M148.4,475.9c-2,0-4-0.8-5.6-2.3c-63.9-62.8-71.3-85.2-71.3-96.6c0-19.2,9-30.4,16.6-36.5c8.4-6.7,19.5-10.5,30.3-10.5
	c2.6,0,5.2,0.5,7.7,1.4c14.9,5.9,34.1,13.2,49.2,18.3V169.6c0-10.9,3.8-22,10.5-30.4c6-7.6,17.2-16.8,36.5-16.8
	c19.2,0,30.4,9,36.5,16.6c6.7,8.4,10.5,19.5,10.5,30.3V230l97.3,19.5c0.1,0,0.2,0,0.3,0.1l15.3,3.1c0.1,0,0.2,0,0.3,0.1
	c33.7,8.2,42.6,34,42.6,46.5v168.8c0,4.4-3.6,8-8,8s-8-3.6-8-8V299.1c0-8.1-6.3-25-30.2-30.9l-5.7-1.1v45c0,4.4-3.6,8-8,8
	c-4.4,0-8-3.6-8-8v-48.2l-35.9-7.2v65.4c0,4.4-3.6,8-8,8s-8-3.6-8-8v-68.6l-35.9-7.2v85.8c0,4.4-3.6,8-8,8s-8-3.6-8-8V169.3
	c0-10.7-6.5-30.9-30.9-30.9s-30.9,20.4-30.9,31.2v191.2c0,2.5-1.2,4.9-3.2,6.4c-2,1.5-4.7,2-7.1,1.2c-13.7-4.1-36.5-12.4-60.7-22
	c-0.6-0.2-1.2-0.3-1.9-0.3c-10.7,0-30.9,6.5-30.9,30.9c0,6,6.5,26.2,66.5,85.2c3.2,3.1,3.2,8.2,0.1,11.3
	C152.6,475.1,150.5,475.9,148.4,475.9z M144.4,190.3h-26c-4.4,0-8-3.6-8-8s3.6-8,8-8h26c4.4,0,8,3.6,8,8S148.8,190.3,144.4,190.3z
	 M326.2,164.3h-26c-4.4,0-8-3.6-8-8s3.6-8,8-8h26c4.4,0,8,3.6,8,8S330.6,164.3,326.2,164.3z M158,131.3c-2,0-4.1-0.8-5.7-2.3
	l-19.5-19.5c-3.1-3.1-3.1-8.2,0-11.3c3.1-3.1,8.2-3.1,11.3,0l19.5,19.5c3.1,3.1,3.1,8.2,0,11.3C162.1,130.6,160,131.3,158,131.3z
	 M268.3,113c-2,0-4.1-0.8-5.7-2.3c-3.1-3.1-3.1-8.2,0-11.3l19.5-19.5c3.1-3.1,8.2-3.1,11.3,0c3.1,3.1,3.1,8.2,0,11.3L274,110.6
	C272.4,112.2,270.4,113,268.3,113z M209.3,99.4c-4.4,0-8-3.6-8-8v-26c0-4.4,3.6-8,8-8s8,3.6,8,8v26
	C217.3,95.9,213.7,99.4,209.3,99.4z M424.7,470.2c0-4.4-3.6-8-8-8H313.5c-4.4,0-8,3.6-8,8s3.6,8,8,8h103.3
	C421.2,478.2,424.7,474.6,424.7,470.2z"></path>
<path fill="#FFA4ED" class="primary-color" d="M410.1,90.2h-45.3V44.9h45.3V90.2z M478.2,44.9h-45.3v45.3h45.3V44.9z M478.2,114.5h-45.3v45.3h45.3V114.5z"></path>
<path d="M469.7,223c0,4.4-3.6,8-8,8H358.5c-4.4,0-8-3.6-8-8c0-4.4,3.6-8,8-8h103.3C466.1,215,469.7,218.6,469.7,223z M120.2,271.7
	h-15.8V256c0-4.4-3.6-8-8-8s-8,3.6-8,8v15.8H72.7c-4.4,0-8,3.6-8,8s3.6,8,8,8h15.8v15.8c0,4.4,3.6,8,8,8s8-3.6,8-8v-15.8h15.8
	c4.4,0,8-3.6,8-8S124.7,271.7,120.2,271.7z M32.9,59.3c0-14.6,11.8-26.4,26.4-26.4s26.4,11.8,26.4,26.4S73.8,85.6,59.3,85.6
	S32.9,73.8,32.9,59.3z M48.9,59.3c0,5.7,4.7,10.4,10.4,10.4S69.6,65,69.6,59.3S65,48.9,59.3,48.9S48.9,53.5,48.9,59.3z M78,438.1
	c-20-18.2-31.6-42.9-32.9-69.7c-0.2-4.4-4-7.8-8.4-7.6c-4.4,0.2-7.8,4-7.6,8.4c1.4,31,15,59.7,38.1,80.7l10.5,9.5
	c1.5,1.4,3.5,2.1,5.4,2.1c2.2,0,4.3-0.9,5.9-2.6c3-3.3,2.7-8.3-0.5-11.3L78,438.1z"></path>
</svg>