<svg version="1.1" id="Layer_1" xmlns="http://www.w3.org/2000/svg" xmlns:xlink="http://www.w3.org/1999/xlink" x="0px" y="0px" viewBox="0 0 512 512" enable-background="new 0 0 512 512" xml:space="preserve">
<linearGradient id="SVGID_1_" gradientUnits="userSpaceOnUse" x1="315.1646" y1="432.0468" x2="315.1646" y2="85.9023" class="gradient-element">
	<stop offset="0" class="primary-color-gradient" style="stop-color: #FFA4ED"></stop>
	<stop offset="1" class="secondary-color-gradient" style="stop-color: #DB81DA"></stop>
</linearGradient>
<path fill="url(#SVGID_1_)" d="M433.8,257.3c-0.2,94.8-78.1,172-172.9,171.3c-15.9-0.1-31.3-2.4-45.9-6.6
	c-16.4-4.7-23.8-24-14.3-38.1c30.1-44.3,147-23.8,147-127.5c0-116.3-87.9-83.2-111.6-128.9c-9.9-19.1,4.2-42,25.7-42.1
	c0.1,0,0.2,0,0.3,0C357.1,85.4,434,162.4,433.8,257.3z"></path>
<path d="M249.6,458.5c-4.4,0-8-3.6-8-8v-16.1c-83-9-149.3-75.3-158.3-158.3H67.3c-4.4,0-8-3.6-8-8s3.6-8,8-8h23.4
	c4.2,0,7.7,3.3,8,7.4c5.4,81,70.5,146.2,151.5,151.5c4.2,0.3,7.4,3.8,7.4,8v23.4C257.6,454.9,254,458.5,249.6,458.5z M287.3,435.5
	c-3.7,0-7.1-2.6-7.8-6.5c-0.8-4.3,2-8.5,6.3-9.3c77.1-14.9,134.5-77.5,139.8-152.1c0.3-4.2,3.8-7.4,8-7.4h25c4.4,0,8,3.6,8,8
	s-3.6,8-8,8h-17.7c-8.9,78.5-70.4,143.4-152,159.2C288.3,435.5,287.8,435.5,287.3,435.5z M260.2,390c-4.4,0-8-3.6-8-8v-66
	c0-4.4,3.6-8,8-8s8,3.6,8,8v66C268.2,386.4,264.6,390,260.2,390z M260.2,290.4c-18.5,0-33.6-15.1-33.6-33.6
	c0-18.5,15.1-33.6,33.6-33.6c4.4,0,8,3.6,8,8s-3.6,8-8,8c-9.7,0-17.6,7.9-17.6,17.6c0,9.7,7.9,17.6,17.6,17.6s17.6-7.9,17.6-17.6
	c0-4.4,3.6-8,8-8s8,3.6,8,8C293.8,275.3,278.7,290.4,260.2,290.4z M385.8,264.3h-66c-4.4,0-8-3.6-8-8s3.6-8,8-8h66c4.4,0,8,3.6,8,8
	S390.2,264.3,385.8,264.3z M200.5,264.3h-66c-4.4,0-8-3.6-8-8s3.6-8,8-8h66c4.4,0,8,3.6,8,8S204.9,264.3,200.5,264.3z M431.4,253.4
	c-4.2,0-7.7-3.2-8-7.4c-5.4-81-70.5-146.2-151.5-151.5c-4.4-0.3-7.7-4.1-7.4-8.5c0.3-4.4,4.1-7.7,8.5-7.4
	c89,5.9,160.5,77.4,166.4,166.4c0.3,4.4-3,8.2-7.4,8.5C431.7,253.4,431.6,253.4,431.4,253.4z M90.7,253.4c-0.2,0-0.4,0-0.5,0
	c-4.4-0.3-7.7-4.1-7.4-8.5c2.5-37.7,16.6-73.1,40.9-102.2c23.9-28.8,55.6-49,91.6-58.6c8.7-2.3,17.5-3.9,26.5-4.9V63.1
	c0-4.4,3.6-8,8-8s8,3.6,8,8v23.4c0,4.2-3.3,7.7-7.4,8c-10.4,0.7-20.8,2.4-30.9,5.1c-67.5,17.9-116,76.8-120.7,146.5
	C98.3,250.2,94.8,253.4,90.7,253.4z M260.2,204.7c-4.4,0-8-3.6-8-8v-66c0-4.4,3.6-8,8-8s8,3.6,8,8v66
	C268.2,201.1,264.6,204.7,260.2,204.7z"></path>
<g>
	<path fill="#FFA4ED" class="primary-color" d="M113,82.1V60.3h58.2v21.8H113z"></path>
	<path fill="#DB81DA" class="secondary-color" d="M28.4,82.1V60.3h58.2v21.8H28.4z"></path>
</g>
<path d="M423.8,44.3c0-4.4,3.6-8,8-8h3.9v-3.9c0-4.4,3.6-8,8-8s8,3.6,8,8v3.9h3.9c4.4,0,8,3.6,8,8s-3.6,8-8,8h-3.9v3.9
	c0,4.4-3.6,8-8,8s-8-3.6-8-8v-3.9h-3.9C427.4,52.3,423.8,48.7,423.8,44.3z M400.7,457h-43c-4.4,0-8,3.6-8,8s3.6,8,8,8h43
	c4.4,0,8-3.6,8-8S405.1,457,400.7,457z M162.5,31.3H37.1c-4.4,0-8,3.6-8,8s3.6,8,8,8h125.5c4.4,0,8-3.6,8-8S167,31.3,162.5,31.3z
	 M478.4,412.2h-78.6c-4.4,0-8,3.6-8,8s3.6,8,8,8h78.6c4.4,0,8-3.6,8-8S482.8,412.2,478.4,412.2z M80,381.2c-4.4,0-8,3.6-8,8
	c0,11.4-9.3,20.8-20.8,20.8c-4.4,0-8,3.6-8,8s3.6,8,8,8c20.3,0,36.8-16.5,36.8-36.8C88,384.8,84.5,381.2,80,381.2z M130,409.9
	c-11.4,0-20.8-9.3-20.8-20.8c0-4.4-3.6-8-8-8s-8,3.6-8,8c0,20.3,16.5,36.8,36.8,36.8c4.4,0,8-3.6,8-8S134.5,409.9,130,409.9z
	 M130,431.2c-20.3,0-36.8,16.5-36.8,36.8c0,4.4,3.6,8,8,8s8-3.6,8-8c0-11.4,9.3-20.8,20.8-20.8c4.4,0,8-3.6,8-8
	S134.5,431.2,130,431.2z M51.3,431.2c-4.4,0-8,3.6-8,8s3.6,8,8,8c11.4,0,20.8,9.3,20.8,20.8c0,4.4,3.6,8,8,8s8-3.6,8-8
	C88,447.7,71.5,431.2,51.3,431.2z"></path>
</svg>