<svg version="1.1" id="Layer_1" xmlns="http://www.w3.org/2000/svg" xmlns:xlink="http://www.w3.org/1999/xlink" x="0px" y="0px" viewBox="0 0 512 512" enable-background="new 0 0 512 512" xml:space="preserve">
<linearGradient id="SVGID_1_" gradientUnits="userSpaceOnUse" x1="227.7952" y1="452.6603" x2="227.7952" y2="70.2564" class="gradient-element">
	<stop offset="0" class="primary-color-gradient" style="stop-color: #FFA4ED"></stop>
	<stop offset="1" class="secondary-color-gradient" style="stop-color: #DB81DA"></stop>
</linearGradient>
<path fill="url(#SVGID_1_)" d="M118,79c0,0,35,64,0,88s-34.5,44.9-32,54c5,18,115,161,204,189c16.9,5.3,55,8,63-32c0,0,22-31,59-4
	c0,0-26.6,54.6-58.8,66.8c-32.2,12.2-41.8,10.8-77.5,0C240,430,150.5,350,147.8,347.5S63,267,50,224s-4-83.9,7-99S98,88,118,79z"></path>
<path d="M315.7,456.9c-13.9,0-28.7-2.2-44.3-6.7c-53.4-15.4-166-119.7-221.2-219.7c-16.1-29.1-19.6-57.1-10.6-83.2
	C56.9,97.4,113.6,73,116,72c3-1.3,6.5-0.6,8.8,1.8c2.9,3,5.9,6.1,8.8,9.2c3.8,4.1,4.9,5,5.5,5.6c1.5,1.3,2.1,2,6.5,7.4
	c2.8,3.4,2.3,8.5-1.1,11.3s-8.5,2.3-11.3-1.1c-4.1-4.9-4.3-5.1-4.9-5.6c-0.9-0.8-2.2-2-6.5-6.6c-1.5-1.6-3.1-3.3-4.6-4.9
	c-13.4,6.8-50.4,28.3-62.6,63.5c-7.5,21.7-4.3,45.3,9.5,70.2c24.5,44.3,63.9,94.4,108.1,137.4c40.4,39.3,80,67.9,103.5,74.6
	c33.3,9.6,61.9,7.9,84.9-5.1c27.3-15.4,39.5-42.4,43.5-53c-13.6-12.7-61.4-56.5-89.1-72.4c-9.2,9.3-31.1,31.6-41,43.4
	c-6.3,7.5-13,11.6-19.9,12.1c-9.4,0.8-16.1-5-20.1-8.4c-0.8-0.7-1.5-1.3-2-1.6c-0.7-0.5-74.5-55.1-89.1-91.5
	c-10.8-27,1-37.3,9.6-44.8l0.8-0.7c6.1-5.3,26.5-25.7,35.7-34.9c-3.1-4.6-8.8-12.7-18.4-25.1c-2.7-3.5-2-8.5,1.5-11.2
	c3.5-2.7,8.5-2,11.2,1.5c17.7,23,22.7,31.7,22.9,32c1.8,3.1,1.2,7-1.3,9.6c-1.3,1.3-32.7,32.9-41,40.2l-0.8,0.7
	c-7.4,6.5-11.8,10.3-5.3,26.8c11.3,28.4,72.1,76.2,83.5,84.5c1,0.7,2,1.6,3,2.4c2.7,2.3,5.7,4.8,8.4,4.6c2.4-0.2,5.6-2.5,9-6.5
	c13.1-15.6,44.8-47.2,46.1-48.6c2.4-2.4,6.1-3,9.1-1.5c32.9,16,99,78.6,101.8,81.3c2.1,2,3,5.1,2.2,7.9
	c-0.5,1.8-12.5,44.7-52.5,67.2C352.9,452.5,335.2,456.9,315.7,456.9z M406.6,247.5c0-62.3-50.7-113-113-113c-4.4,0-8,3.6-8,8
	s3.6,8,8,8c53.5,0,97,43.5,97,97c0,4.4,3.6,8,8,8S406.6,251.9,406.6,247.5z M445.9,247.5c0-84-68.3-152.3-152.3-152.3
	c-4.4,0-8,3.6-8,8s3.6,8,8,8c75.2,0,136.3,61.1,136.3,136.3c0,4.4,3.6,8,8,8S445.9,251.9,445.9,247.5z M489.4,247.5
	c0-107.9-87.8-195.7-195.7-195.7c-4.4,0-8,3.6-8,8s3.6,8,8,8c99.1,0,179.7,80.6,179.7,179.7c0,4.4,3.6,8,8,8
	S489.4,251.9,489.4,247.5z"></path>
<path d="M80.7,401.8c0,20.3-16.5,36.8-36.7,36.8c-4.4,0-8-3.6-8-8s3.6-8,8-8c11.4,0,20.7-9.3,20.7-20.8c0-4.4,3.6-8,8-8
	S80.7,397.3,80.7,401.8z M122.7,422.5c-11.4,0-20.8-9.3-20.8-20.8c0-4.4-3.6-8-8-8s-8,3.6-8,8c0,20.3,16.5,36.8,36.8,36.8
	c4.4,0,8-3.6,8-8S127.1,422.5,122.7,422.5z M122.7,443.8c-20.3,0-36.8,16.5-36.8,36.8c0,4.4,3.6,8,8,8s8-3.6,8-8
	c0-11.4,9.3-20.8,20.8-20.8c4.4,0,8-3.6,8-8S127.1,443.8,122.7,443.8z M43.9,443.8c-4.4,0-8,3.6-8,8s3.6,8,8,8
	c11.4,0,20.7,9.3,20.7,20.8c0,4.4,3.6,8,8,8s8-3.6,8-8C80.7,460.2,64.2,443.8,43.9,443.8z M144.3,59.6c0-5,4.1-9,9-9s9,4.1,9,9
	s-4.1,9-9,9S144.3,64.6,144.3,59.6z M184.3,59.6c0-5,4.1-9,9-9s9,4.1,9,9s-4.1,9-9,9S184.3,64.6,184.3,59.6z M242.4,59.6
	c0,5-4.1,9-9,9s-9-4.1-9-9s4.1-9,9-9S242.4,54.7,242.4,59.6z M220.1,95.2h-86.8c-4.4,0-8,3.6-8,8s3.6,8,8,8h86.8c4.4,0,8-3.6,8-8
	S224.5,95.2,220.1,95.2z M216.4,136.1H159c-4.4,0-8,3.6-8,8s3.6,8,8,8h57.4c4.4,0,8-3.6,8-8S220.8,136.1,216.4,136.1z M451.7,300.2
	c-4.4,0-8,3.6-8,8s3.6,8,8,8c5.7,0,10.4,4.7,10.4,10.4s-4.7,10.4-10.4,10.4c-4.4,0-8,3.6-8,8s3.6,8,8,8c14.6,0,26.4-11.8,26.4-26.4
	S466.3,300.2,451.7,300.2z"></path>
<g>
	<path fill="#FFA4ED" class="primary-color" d="M73.9,39.9H38.8v35.1H17V39.9V18.1h21.8h35.1V39.9z"></path>
	<path fill="#DB81DA" class="secondary-color" d="M335.5,491.4v-21.8h145.9v21.8H335.5z"></path>
</g>
</svg>