<svg version="1.1" id="Layer_1" xmlns="http://www.w3.org/2000/svg" xmlns:xlink="http://www.w3.org/1999/xlink" x="0px" y="0px" viewBox="0 0 512 512" enable-background="new 0 0 512 512" xml:space="preserve">
<path d="M469.3,53.7c0,4.4-3.6,8-8,8h-3.7v3.7c0,4.4-3.6,8-8,8s-8-3.6-8-8v-3.7h-3.7c-4.4,0-8-3.6-8-8s3.6-8,8-8h3.7v-3.7
	c0-4.4,3.6-8,8-8s8,3.6,8,8v3.7h3.7C465.7,45.7,469.3,49.3,469.3,53.7z M80.5,45.7h-3.7v-3.7c0-4.4-3.6-8-8-8s-8,3.6-8,8v3.7H57
	c-4.4,0-8,3.6-8,8s3.6,8,8,8h3.7v3.7c0,4.4,3.6,8,8,8s8-3.6,8-8v-3.7h3.7c4.4,0,8-3.6,8-8S84.9,45.7,80.5,45.7z M157.5,20.7
	c-5.9,0-10.6,4.8-10.6,10.6s4.8,10.6,10.6,10.6s10.6-4.8,10.6-10.6S163.3,20.7,157.5,20.7z M375.3,49.6h-96.1c-4.4,0-8,3.6-8,8
	s3.6,8,8,8h96.1c4.4,0,8-3.6,8-8S379.8,49.6,375.3,49.6z"></path>
<g>
	<linearGradient id="SVGID_1_" gradientUnits="userSpaceOnUse" x1="483.475" y1="260.7569" x2="45.0509" y2="260.7569" class="gradient-element">
		<stop offset="0" class="primary-color-gradient" style="stop-color: #FFA4ED"></stop>
		<stop offset="1" class="secondary-color-gradient" style="stop-color: #DB81DA"></stop>
	</linearGradient>
	<path fill="url(#SVGID_1_)" d="M287,351.7h22.5v18h-22.6V365h0.1V351.7z M61.5,151.8c-11.8,0-21.4,9.6-21.4,21.4v161.5h140.2v-5.3
		c12.4,0,44.4-6,44.4-33.3h0c-13.5-10.1-22.2-26.3-22.2-44.4v-44.4c0-30.6,24.9-55.5,55.5-55.5h55.5v22.2v22.2v55.5
		c0,18.1-8.7,34.3-22.2,44.4h0c0,27.3,32.1,33.3,44.4,33.3v5.3h22.2v34.9h136.1V151.8H61.5z"></path>
	<linearGradient id="SVGID_2_" gradientUnits="userSpaceOnUse" x1="294.2087" y1="355.3574" x2="294.2087" y2="174.7876">
		<stop offset="0" class="primary-color-gradient" style="stop-color: #FFA4ED"></stop>
		<stop offset="1" class="secondary-color-gradient" style="stop-color: #DB81DA"></stop>
	</linearGradient>
	<path fill="url(#SVGID_2_)" d="M330.4,334.8h-20.9v16.9h-22.6v-16.9h-28v-32.2v-2v-121c0,0-2-4,0-5.1c2-1.1,54.6-0.1,54.6-0.1
		s0.3,9.6-0.8,79.3c-0.2,13.4-5.9,23.3-13.5,30.6c-0.6,2.8-1.7,5.4-3.3,7.9c-14.3,21.7,33.9,39.5,33.9,39.5L330.4,334.8z"></path>
</g>
<path d="M507.7,106.5v319c0,8.8-7.1,15.9-15.9,15.9H266v33.3h176.2c4.4,0,8,3.6,8,8s-3.6,8-8,8h-372c-4.4,0-8-3.6-8-8s3.6-8,8-8H250
	v-38.3c0-0.5,0.1-1,0.1-1.5c-0.1-0.5-0.1-1-0.1-1.5c0-4.4,3.6-8,8-8h233.7v-47.8H384.5c-4.4,0-8-3.6-8-8s3.6-8,8-8h107.2V106.5
	c0-4.4,3.6-8,8-8S507.7,102.1,507.7,106.5z M404,409.2c-5,0-9-4-9-9s4-9,9-9s9,4,9,9S409,409.2,404,409.2z M433.7,409.2
	c-5,0-9-4-9-9s4-9,9-9s9,4,9,9S438.7,409.2,433.7,409.2z M463.3,409.2c-5,0-9-4-9-9s4-9,9-9s9,4,9,9S468.3,409.2,463.3,409.2z
	 M232.6,433.4c0-4.4-3.6-8-8-8H20.7V114.5h449.1c4.4,0,8-3.6,8-8s-3.6-8-8-8H20.6c-8.8,0-15.9,7.1-15.9,15.9v311.1
	c0,8.8,7.1,15.9,15.9,15.9h204C229,441.4,232.6,437.9,232.6,433.4z M39.9,146.2c-4.4,0-8,3.6-8,8v216c0,4.4,3.6,8,8,8h247
	c4.4,0,8-3.6,8-8v-35.4c0-4.4-3.6-8-8-8h-70.5c10.3-7.2,16-17.5,16.2-29.8c0.3-2.7-0.9-5.5-3.2-7.2c-12.1-9.1-19-22.9-19-38v-44.4
	c0-26.2,21.3-47.5,47.5-47.5h47.5v6.2H258c-4.4,0-8,3.6-8,8s3.6,8,8,8h55.5c4.4,0,8-3.6,8-8v-22.2c0-4.4-3.6-8-8-8H258
	c-35,0-63.5,28.5-63.5,63.5v44.4c0,18.4,8.1,36,22,48c-0.7,5.1-3.8,13-17.4,18.1c-3.7,1.4-5.7,5.2-5,8.9H63.8c-4.4,0-8,3.6-8,8
	s3.6,8,8,8h215.1v19.4h-231v-208C47.9,149.7,44.3,146.2,39.9,146.2z M301.5,334.8c0-2.1,0.8-4,2.1-5.4
	c-11.3-6.4-20.1-16.8-20.3-32.6c-0.2-2.7,0.9-5.3,3.2-7c12.1-9.1,19-22.9,19-38v-55.5c0-4.4,3.6-8,8-8s8,3.6,8,8v55.5
	c0,18.3-8.1,36-21.9,48c3.3,21.1,35.8,21.7,36.1,21.7c3.5,0,6.4,2.2,7.5,5.3h14.7c4.4,0,8,3.6,8,8v35.4c0,4.4-3.6,8-8,8h-48.4
	c-4.4,0-8-3.6-8-8V334.8z M349.9,342.8h-32.4v19.4h32.4V342.8z"></path>
</svg>