<svg version="1.1" id="Layer_1" xmlns="http://www.w3.org/2000/svg" xmlns:xlink="http://www.w3.org/1999/xlink" x="0px" y="0px" viewBox="0 0 512 512" enable-background="new 0 0 512 512" xml:space="preserve">
<linearGradient id="SVGID_1_" gradientUnits="userSpaceOnUse" x1="266.0339" y1="373.1765" x2="268.3076" y2="134.4397" class="gradient-element">
	<stop offset="0" class="primary-color-gradient" style="stop-color: #FFA4ED"></stop>
	<stop offset="1" class="secondary-color-gradient" style="stop-color: #DB81DA"></stop>
</linearGradient>
<path fill="url(#SVGID_1_)" d="M496.8,369.7H58.2c-11.6,0-21-9.4-21-21V170.7c0-11.8,9.6-21.4,21.4-21.4h438.1V369.7z"></path>
<path d="M363.5,75.8h-215c-4.4,0-8-3.6-8-8s3.6-8,8-8h215c4.4,0,8,3.6,8,8S367.9,75.8,363.5,75.8z M436.6,53.4c0-4.4-3.6-8-8-8
	s-8,3.6-8,8c0,11.4-9.3,20.8-20.8,20.8c-4.4,0-8,3.6-8,8s3.6,8,8,8C420.1,90.1,436.6,73.7,436.6,53.4z M486.6,82.1c0-4.4-3.6-8-8-8
	c-11.4,0-20.8-9.3-20.8-20.8c0-4.4-3.6-8-8-8s-8,3.6-8,8c0,20.3,16.5,36.8,36.8,36.8C483,90.1,486.6,86.6,486.6,82.1z M457.9,132.1
	c0-11.4,9.3-20.8,20.8-20.8c4.4,0,8-3.6,8-8s-3.6-8-8-8c-20.3,0-36.8,16.5-36.8,36.8c0,4.4,3.6,8,8,8S457.9,136.6,457.9,132.1z
	 M436.6,132.1c0-20.3-16.5-36.8-36.8-36.8c-4.4,0-8,3.6-8,8s3.6,8,8,8c11.4,0,20.8,9.3,20.8,20.8c0,4.4,3.6,8,8,8
	S436.6,136.6,436.6,132.1z M85.8,44c0-4.4-3.6-8-8-8H30.2c-4.4,0-8,3.6-8,8s3.6,8,8,8h47.6C82.2,52,85.8,48.4,85.8,44z M62,67.8
	V20.2c0-4.4-3.6-8-8-8s-8,3.6-8,8v47.6c0,4.4,3.6,8,8,8S62,72.2,62,67.8z M370.5,24.6c0-5-4.1-9-9-9s-9,4.1-9,9s4.1,9,9,9
	S370.5,29.6,370.5,24.6z M330.5,24.6c0-5-4.1-9-9-9s-9,4.1-9,9s4.1,9,9,9S330.5,29.6,330.5,24.6z M290.5,24.6c0-5-4.1-9-9-9
	s-9,4.1-9,9s4.1,9,9,9S290.5,29.6,290.5,24.6z"></path>
<path d="M510.4,103.4v322.9c0,8.8-7.2,16-16,16H265.9v33.9h178.4c4.4,0,8,3.6,8,8s-3.6,8-8,8H67.8c-4.4,0-8-3.6-8-8s3.6-8,8-8h182.1
	v-38.8c0-0.5,0.1-1,0.1-1.5c-0.1-0.5-0.1-1-0.1-1.5c0-4.4,3.6-8,8-8h236.6v-48.6H385.9c-4.4,0-8-3.6-8-8s3.6-8,8-8h108.6V103.4
	c0-4.4,3.6-8,8-8S510.4,99,510.4,103.4z M48.8,391.6c5,0,9,4.1,9,9s-4.1,9-9,9s-9-4.1-9-9S43.8,391.6,48.8,391.6z M78.8,391.6
	c5,0,9,4.1,9,9s-4.1,9-9,9s-9-4.1-9-9S73.8,391.6,78.8,391.6z M108.8,391.6c5,0,9,4.1,9,9s-4.1,9-9,9s-9-4.1-9-9
	S103.8,391.6,108.8,391.6z M232,434.3c0-4.4-3.6-8-8-8H17.6V111.4h380.5c4.4,0,8-3.6,8-8s-3.6-8-8-8H17.6c-8.8,0-16,7.2-16,16v314.9
	c0,8.8,7.2,16,16,16H224C228.4,442.3,232,438.7,232,434.3z M67.8,185h215c4.4,0,8-3.6,8-8s-3.6-8-8-8h-215c-4.4,0-8,3.6-8,8
	S63.3,185,67.8,185z M67.8,265h159.8c4.4,0,8-3.6,8-8s-3.6-8-8-8H67.8c-4.4,0-8,3.6-8,8S63.3,265,67.8,265z M380.7,217
	c0-4.4-3.6-8-8-8h-305c-4.4,0-8,3.6-8,8s3.6,8,8,8h305C377.2,225,380.7,221.4,380.7,217z M288.4,337c0-4.4-3.6-8-8-8H67.8
	c-4.4,0-8,3.6-8,8s3.6,8,8,8h212.7C284.8,345,288.4,341.4,288.4,337z M328.4,297c0-4.4-3.6-8-8-8H67.8c-4.4,0-8,3.6-8,8s3.6,8,8,8
	h252.7C324.8,305,328.4,301.4,328.4,297z"></path>
</svg>