<svg version="1.1" id="Layer_1" xmlns="http://www.w3.org/2000/svg" xmlns:xlink="http://www.w3.org/1999/xlink" x="0px" y="0px" viewBox="0 0 512 512" enable-background="new 0 0 512 512" xml:space="preserve">
<linearGradient id="SVGID_1_" gradientUnits="userSpaceOnUse" x1="265.0349" y1="376.0489" x2="269.5782" y2="130.7098" class="gradient-element">
	<stop offset="0" class="primary-color-gradient" style="stop-color: #FFA4ED"></stop>
	<stop offset="1" class="secondary-color-gradient" style="stop-color: #DB81DA"></stop>
</linearGradient>
<path fill="url(#SVGID_1_)" d="M491.3,366.8H63.8c-11.6,0-21-9.4-21-21V167.8c0-11.8,9.6-21.4,21.4-21.4h427.1V366.8z"></path>
<path fill="#DB81DA" class="secondary-color" d="M102.2,32.1L65.5,68.8L28.8,32.1H102.2z"></path>
<path d="M433.2,100.5c0,4.4-3.6,8-8,8h-15.8v15.8c0,4.4-3.6,8-8,8s-8-3.6-8-8v-15.8h-15.8c-4.4,0-8-3.6-8-8s3.6-8,8-8h15.8V76.7
	c0-4.4,3.6-8,8-8s8,3.6,8,8v15.8h15.8C429.7,92.5,433.2,96.1,433.2,100.5z M225.6,42.5c-5,0-9,4.1-9,9s4.1,9,9,9s9-4.1,9-9
	S230.6,42.5,225.6,42.5z M455.4,91.3c-14.6,0-26.4-11.8-26.4-26.4s11.8-26.4,26.4-26.4s26.4,11.8,26.4,26.4S469.9,91.3,455.4,91.3z
	 M465.7,64.9c0-5.7-4.7-10.4-10.4-10.4S445,59.1,445,64.9s4.7,10.4,10.4,10.4S465.7,70.6,465.7,64.9z M478.9,474.7
	c-0.8-1-2-1.9-3.6-2.6c-1.3-0.8-2.8-1.2-4.5-1.2c-4,0-7.4,2.9-8,6.8c-0.3,2,0.1,5.2,2.9,7.4c0.8,1,2,1.9,3.6,2.6
	c1.3,0.8,2.8,1.2,4.5,1.2c4,0,7.4-2.9,8-6.8C482,480.1,481.6,476.8,478.9,474.7z"></path>
<path d="M505,100.5v322.9c0,8.8-7.2,16-16,16H263.4v33.9h178.4c4.4,0,8,3.6,8,8s-3.6,8-8,8H65.3c-4.4,0-8-3.6-8-8s3.6-8,8-8h182.1
	v-38.8c0-0.5,0.1-1,0.1-1.5c-0.1-0.5-0.1-1-0.1-1.5c0-4.4,3.6-8,8-8H489v-48.6H383.4c-4.4,0-8-3.6-8-8s3.6-8,8-8H489V100.5
	c0-4.4,3.6-8,8-8S505,96.1,505,100.5z M54.3,388.6c5,0,9,4.1,9,9s-4.1,9-9,9s-9-4.1-9-9S49.3,388.6,54.3,388.6z M84.3,388.6
	c5,0,9,4.1,9,9s-4.1,9-9,9s-9-4.1-9-9S79.3,388.6,84.3,388.6z M106.3,388.6c5,0,9,4.1,9,9s-4.1,9-9,9s-9-4.1-9-9
	S101.3,388.6,106.3,388.6z M229.6,431.4c0-4.4-3.6-8-8-8H23.1V108.5h372.5c4.4,0,8-3.6,8-8s-3.6-8-8-8H23.1c-8.8,0-16,7.2-16,16
	v314.9c0,8.8,7.2,16,16,16h198.5C226,439.4,229.6,435.8,229.6,431.4z M364.2,176.5c-1.2-3-4.2-5-7.4-5h-31.4c-2.7,0-5.1,1.3-6.6,3.5
	s-1.8,5-0.8,7.5l62.9,157.2c1.2,3,4.2,5,7.4,5h31.4c2.7,0,5.1-1.3,6.6-3.5s1.8-5,0.8-7.5l-14.5-36.2h36.8c4.4,0,8-3.6,8-8
	s-3.6-8-8-8h-48.4c0,0,0,0,0,0h-11c-4.4,0-8,3.6-8,8s3.6,8,8,8h5.4l12.5,31.2h-14.2l-56.5-141.2h14.2l33.8,84.5
	c1.6,3.9,5.9,5.9,9.9,4.6h36.1c4.4,0,8-3.6,8-8s-3.6-8-8-8h-33.3L364.2,176.5z M176,344.7c22.9,0,42.6-8.4,56.9-24.2
	c3-3.3,2.7-8.3-0.6-11.3L209,288.1c-3.3-3-8.3-2.7-11.3,0.6c-5.3,5.8-12.2,8.5-21.7,8.5c-12.3,0-20.8-4.6-25.9-14.1
	c-4.7-8.7-5.4-19.5-5.4-25.1s0.7-16.4,5.4-25.1c5.1-9.5,13.6-14.1,25.9-14.1c9.5,0,16.4,2.7,21.7,8.6c3,3.3,8,3.5,11.3,0.6
	c3.3-3,3.5-8,0.6-11.3c-8.3-9.2-19.6-13.8-33.6-13.8c-23.1,0-34.5,12.2-40,22.5c-6,11.2-7.3,24-7.3,32.7s1.3,21.5,7.3,32.7
	c5.5,10.3,16.9,22.5,40,22.5c10.9,0,20.1-2.8,27.6-8.4l11.6,10.5c-10.5,8.8-23.9,13.3-39.2,13.3c-38.1,0-62.7-27.7-62.7-70.6
	s24.6-70.6,62.7-70.6c18.3,0,33.8,6.5,45,18.9c3,3.3,8,3.5,11.3,0.6c3.3-3,3.5-8,0.6-11.3c-14.3-15.8-34-24.2-56.9-24.2
	c-23.1,0-42.9,8.4-57.2,24.3c-14.1,15.7-21.6,37.2-21.6,62.3s7.5,46.6,21.6,62.3C133.2,336.3,152.9,344.7,176,344.7z M293.9,281.8
	c4.4,0,8-3.6,8-8s-3.6-8-8-8h-31.4c-4.4,0-8,3.6-8,8v31.4c0,4.4,3.6,8,8,8h31.4c4.4,0,8-3.6,8-8s-3.6-8-8-8h-23.4v-15.4H293.9z
	 M293.9,234.4h-23.4v-23.4c0-4.4-3.6-8-8-8s-8,3.6-8,8v31.4c0,4.4,3.6,8,8,8h31.4c4.4,0,8-3.6,8-8S298.3,234.4,293.9,234.4z"></path>
</svg>