<svg version="1.1" id="Layer_1" xmlns="http://www.w3.org/2000/svg" xmlns:xlink="http://www.w3.org/1999/xlink" x="0px" y="0px" viewBox="0 0 512 512" enable-background="new 0 0 512 512" xml:space="preserve">
<linearGradient id="SVGID_1_" gradientUnits="userSpaceOnUse" x1="304.4968" y1="493.8069" x2="304.4968" y2="144.2439" class="gradient-element">
	<stop offset="0" class="primary-color-gradient" style="stop-color: #FFA4ED"></stop>
	<stop offset="1" class="secondary-color-gradient" style="stop-color: #DB81DA"></stop>
</linearGradient>
<path fill="url(#SVGID_1_)" d="M255,119.8c-0.4,0-0.7,0-1.1,0c-5.8,0.1-7.4,7.9-2.2,10.3c27.4,12.5,49,35.4,59.9,63.6
	c2.4,6.2,14.9-1.6,17.3,16.5c2.3,18-9.6,17.2-9.6,24.8c0,7.5,16.6,11.1,9.6,27.7c-6.9,16.5-17,13.9-18,15.6
	c-4.7,7.7-7.7,16.3-13.1,23.7c-4.5,6.3-9.4,12.1-14.2,17.7c-14.6,17.1-27.2,31.9-27.2,60v52.4c0,16.5-4.4,29.1-13.3,38.6
	c-0.1,0.1-0.3,0.3-0.4,0.4c-6.6,6.7-4.6,18,4,21.7c3.1,1.3,5.9,2.1,8.2,2.1c11.3,0,33.5-18.4,39-24.2c9-9.5,13.3-22.1,13.3-38.6
	v-52.4c0-28.1,12.6-42.9,27.2-60c4.7-5.6,9.6-11.3,14.2-17.7c14.1-19.8,21.6-43.1,21.5-67.5C369.9,170.8,318.7,119.8,255,119.8z"></path>
<path d="M108.4,265.3c0,4.4-3.6,8-8,8H32.6c-4.4,0-8-3.6-8-8s3.6-8,8-8h67.8C104.8,257.3,108.4,260.9,108.4,265.3z M481.2,257.3
	h-67.8c-4.4,0-8,3.6-8,8s3.6,8,8,8h67.8c4.4,0,8-3.6,8-8S485.7,257.3,481.2,257.3z M385.2,141.7c2,0,4.1-0.8,5.7-2.3l18.9-18.9
	c3.1-3.1,3.1-8.2,0-11.3c-3.1-3.1-8.2-3.1-11.3,0L379.6,128c-3.1,3.1-3.1,8.2,0,11.3C381.1,140.9,383.2,141.7,385.2,141.7z
	 M130.9,123.6L83,75.6c-3.1-3.1-8.2-3.1-11.3,0c-3.1,3.1-3.1,8.2,0,11.3l47.9,47.9c1.6,1.6,3.6,2.3,5.7,2.3s4.1-0.8,5.7-2.3
	C134.1,131.8,134.1,126.7,130.9,123.6z M376.4,378c-3.1-3.1-8.2-3.1-11.3,0c-3.1,3.1-3.1,8.2,0,11.3l29.5,29.5
	c1.6,1.6,3.6,2.3,5.7,2.3c2,0,4.1-0.8,5.7-2.3c3.1-3.1,3.1-8.2,0-11.3L376.4,378z M254.9,90.4c4.4,0,8-3.6,8-8V14.6c0-4.4-3.6-8-8-8
	s-8,3.6-8,8v67.8C246.9,86.9,250.5,90.4,254.9,90.4z M255,111.8c-67.9,0-123.2,55.3-123.2,123.2c0,25.9,7.9,50.7,23,71.6
	c2.6,3.6,7.6,4.4,11.2,1.9c3.6-2.6,4.4-7.6,1.9-11.2c-13.1-18.3-20-39.8-20-62.3c0-59.1,48.1-107.2,107.2-107.2
	s107.2,48.1,107.2,107.2c0,22.5-6.9,44-20,62.3c-4.3,6-9,11.6-13.6,17l-0.1,0.1c-13.2,15.5-25.7,30.2-28.5,54.6h-44.5
	c-4.4,0-8,3.6-8,8s3.6,8,8,8h43.9v47c0,0.4,0,0.8,0,1.2h-43.9c-4.4,0-8,3.6-8,8s3.6,8,8,8h41.7c-1.8,6.3-4.8,11.6-8.9,15.9
	c-6.8,7.2-26.4,21.7-33.2,21.7c-6.8,0-26.5-14.6-33.2-21.7c-7.5-7.9-11.1-18.8-11.1-33.1v-52.4c0-4.4-3.6-8-8-8s-8,3.6-8,8v52.4
	c0,18.6,5.1,33.1,15.5,44.1C214,480.4,239,503,255,503c16,0,40.9-22.6,44.8-26.7c10.4-11,15.5-25.5,15.5-44.1v-52.4c0-0.3,0-0.6,0-1
	c0.1-0.5,0.2-1.1,0.2-1.7c0-0.4,0-0.8-0.1-1.2c1.1-22.7,11.8-35.4,25.2-51.1l0.1-0.1c4.8-5.6,9.8-11.5,14.5-18
	c15-21,23-45.8,23-71.6C378.2,167.1,322.9,111.8,255,111.8z M200.3,288c-13-4.8-22.2-17.2-22.2-31.8c0-6.9,2.1-13.4,5.7-18.7
	c-4.2-4.8-6.9-10.7-7.9-17.1c-1.3-8.9,0.9-17.9,6.3-25.1c4.6-6.3,11.1-10.6,18.5-12.6c1.9-16.9,16.3-30,33.6-30
	c9.8,0,18.7,4.2,24.9,10.9c6.2-6.7,15-10.9,24.9-10.9c17.4,0,31.7,13.2,33.6,30c7.2,1.9,13.8,6.1,18.5,12.6
	c9.6,13,8.5,30.6-1.6,42.3c3.6,5.4,5.7,11.8,5.7,18.8c0,14.6-9.3,27-22.2,31.8c-0.6,18.2-15.5,32.8-33.8,32.8
	c-9.9,0-18.8-4.3-25-11.1c-6.2,6.8-15.1,11.1-25,11.1C215.8,320.8,200.8,306.2,200.3,288z M268.1,184.6c0,0.6,0.1,1.3,0.1,1.9
	c0,0.6-0.1,1.2-0.2,1.8v26.5c5.7-2.1,11.6-2.9,16-2.9c0,0,0,0,0,0c4.9,0,8.9,4,8.9,8.9c0,4.9-4,8.9-8.9,8.9
	c-0.3,0-16.1,0.4-16.1,8.5v47c0.1,0.6,0.2,1.2,0.2,1.8c0,8.8,7.2,16,16,16c8.6,0,15.7-6.9,16-15.4c-1.7-1.6-2.7-3.9-2.7-6.4
	c0-4.9,4-8.9,8.9-8.9c8.8,0,16-7.2,16-16c0-8.8-7.2-16-16-16c-4.9,0-8.9-4-8.9-8.9s4-8.9,8.9-8.9c5.3,0,10.3,1.2,14.7,3.4
	c4.7-5.5,5.2-13.8,0.7-20c-5.3-7.1-15.3-8.6-22.4-3.4c-4,2.9-9.5,2.1-12.5-1.9c-2.9-4-2.1-9.5,1.9-12.5c3.3-2.5,7-4.2,10.8-5.3
	c-1.7-7.1-8-12.4-15.6-12.4C275.8,170.4,269,176.6,268.1,184.6z M195.9,256.2c0,8.8,7.2,16,16,16c4.9,0,8.9,4,8.9,8.9
	c0,2.5-1,4.8-2.7,6.4c0.3,8.5,7.4,15.4,16,15.4c8.8,0,16-7.2,16-16c0,0,0,0,0,0v-10.8c-13.6-5.2-17.6-22.5-17.6-32.3
	c0-4.9,4-8.9,8.9-8.9c0,0,0,0,0,0c4.2,0,7.8,3,8.7,6.9v-55.4c0,0,0-0.1,0-0.1c0-0.6,0-1.1,0-1.6c-0.9-8-7.7-14.1-15.9-14.1
	c-7.6,0-13.9,5.3-15.6,12.3c3.8,1.1,7.5,2.9,10.8,5.3c4,2.9,4.8,8.5,1.9,12.5c-2.9,4-8.5,4.8-12.5,1.9c-3.4-2.5-7.7-3.6-11.9-3
	c-4.2,0.6-8,2.9-10.5,6.3c-2.5,3.4-3.6,7.7-3,11.9c0.5,3,1.7,5.8,3.7,8c4.5-2.2,9.5-3.4,14.7-3.4c4.9,0,8.9,4,8.9,8.9
	s-4,8.9-8.9,8.9C203,240.2,195.9,247.4,195.9,256.2z"></path>
<g>
	<path fill="#FFA4ED" class="primary-color" d="M490,493h-34.7v-34.7H490V493z"></path>
	<path fill="#FFA4ED" class="primary-color" d="M492.2,88l-60.9-60.9h60.9V88z"></path>
</g>
<path d="M133.1,340.2c-4.4,0-8-3.6-8-8s3.6-8,8-8c11.4,0,20.8-9.3,20.8-20.8c0-4.4,3.6-8,8-8s8,3.6,8,8
	C169.9,323.7,153.4,340.2,133.1,340.2z M219.9,332.2c0-4.4-3.6-8-8-8c-11.4,0-20.8-9.3-20.8-20.8c0-4.4-3.6-8-8-8s-8,3.6-8,8
	c0,20.3,16.5,36.8,36.8,36.8C216.3,340.2,219.9,336.6,219.9,332.2z M191.1,382.2c0-11.4,9.3-20.8,20.8-20.8c4.4,0,8-3.6,8-8
	s-3.6-8-8-8c-20.3,0-36.8,16.5-36.8,36.8c0,4.4,3.6,8,8,8S191.1,386.6,191.1,382.2z M169.9,382.2c0-20.3-16.5-36.8-36.8-36.8
	c-4.4,0-8,3.6-8,8s3.6,8,8,8c11.4,0,20.8,9.3,20.8,20.8c0,4.4,3.6,8,8,8S169.9,386.6,169.9,382.2z M67.1,349.6
	c-1.3-2-1.7-4.4-1.2-6.8c0.5-2.4,1.9-4.4,3.9-5.7c2-1.3,4.4-1.7,6.8-1.2c4.9,1.1,8,5.9,6.9,10.7c0,0,0,0,0,0
	c-0.9,4.2-4.7,7.1-8.8,7.1c-0.6,0-1.3-0.1-1.9-0.2C70.4,353.1,68.4,351.7,67.1,349.6z M185.9,70.8c1.3,2,1.7,4.4,1.2,6.8
	c-0.5,2.4-1.9,4.4-3.9,5.7c-1.5,0.9-3.2,1.4-4.9,1.4c-0.6,0-1.3-0.1-1.9-0.2c-4.9-1.1-8-5.9-6.9-10.7c0.5-2.4,1.9-4.4,3.9-5.7
	c2-1.3,4.4-1.7,6.8-1.2C182.6,67.4,184.6,68.8,185.9,70.8z M107.5,182.2c1.3,2,1.7,4.4,1.2,6.8c-0.5,2.4-1.9,4.4-3.9,5.7
	c-1.5,0.9-3.2,1.4-4.9,1.4c-0.6,0-1.3-0.1-1.9-0.2c-2.4-0.5-4.4-1.9-5.7-3.9s-1.7-4.4-1.2-6.8s1.9-4.4,3.9-5.7
	c2-1.3,4.5-1.7,6.8-1.2C104.2,178.8,106.2,180.2,107.5,182.2z M377.1,48.4c-3.1-3.1-8.2-3.1-11.3,0l-2.7,2.7l-2.7-2.7
	c-3.1-3.1-8.2-3.1-11.3,0c-3.1,3.1-3.1,8.2,0,11.3l2.8,2.8l-2.8,2.8c-3.1,3.1-3.1,8.2,0,11.3c1.6,1.6,3.6,2.3,5.7,2.3
	s4.1-0.8,5.7-2.3l2.7-2.7l2.7,2.7c1.6,1.6,3.6,2.3,5.7,2.3s4.1-0.8,5.7-2.3c3.1-3.1,3.1-8.2,0-11.3l-2.8-2.8l2.8-2.8
	C380.2,56.5,380.2,51.5,377.1,48.4z M421.9,336.1c-4.2,4.2-4.2,11,0,15.2c4.2,4.2,11,4.2,15.2,0c4.2-4.2,4.2-11,0-15.2
	S426.1,331.9,421.9,336.1z M91.4,418.7c-3.1-3.1-8.2-3.1-11.3,0l-2.8,2.7l-2.8-2.7c-3.1-3.1-8.2-3.1-11.3,0c-3.1,3.1-3.1,8.2,0,11.3
	l2.7,2.7l-2.7,2.7c-3.1,3.1-3.1,8.2,0,11.3c1.6,1.6,3.6,2.3,5.7,2.3c2,0,4.1-0.8,5.7-2.3l2.8-2.7l2.8,2.7c1.6,1.6,3.6,2.3,5.7,2.3
	s4.1-0.8,5.7-2.3c3.1-3.1,3.1-8.2,0-11.3l-2.7-2.7l2.7-2.7C94.5,426.9,94.5,421.9,91.4,418.7z M440.3,180.9
	c-5.9,0-10.8,4.8-10.8,10.8s4.8,10.8,10.8,10.8c5.9,0,10.8-4.8,10.8-10.8S446.2,180.9,440.3,180.9z"></path>
</svg>