<svg version="1.1" id="Layer_1" xmlns="http://www.w3.org/2000/svg" xmlns:xlink="http://www.w3.org/1999/xlink" x="0px" y="0px" viewBox="0 0 512 512" enable-background="new 0 0 512 512" xml:space="preserve">
<g>
	
		<linearGradient id="SVGID_1_" gradientUnits="userSpaceOnUse" x1="155.7243" y1="360.8499" x2="131.5368" y2="157.6743" gradientTransform="matrix(0.915 0.4034 -0.4034 0.915 129.6486 -78.5789)" class="gradient-element">
		<stop offset="0" class="primary-color-gradient" style="stop-color: #FFA4ED"></stop>
		<stop offset="1" class="secondary-color-gradient" style="stop-color: #DB81DA"></stop>
	</linearGradient>
	<path fill="url(#SVGID_1_)" d="M224.1,152.3c0,0-39.5,0.6-59.3,0.6c-10.2,0-20.2-1.7-26.9,6c-14.9,17.2-30.7,38.5-40.9,61.5
		c-15.8,35.8-17.5,56.7-16.4,66.4c5.4,5.4,11.3,9.8,16.9,13c3.2,1.9,11.7,5.5,14.8,6.5c25.1,7.9,67.6,7.4,88.5-40.1
		C213.9,236.5,221.5,178,224.1,152.3z M144.5,216c-5.9-1.7-8.5-8.5-5.3-13.7c2.2-3.6,6.6-5.3,10.6-4.1c5.9,1.8,8.5,8.5,5.3,13.7
		C152.9,215.5,148.5,217.2,144.5,216z M146.3,252.2c-5.9-1.8-8.5-8.5-5.3-13.7c2.1-3.6,6.6-5.3,10.6-4.1c5.9,1.8,8.5,8.5,5.3,13.7
		C154.7,251.7,150.3,253.4,146.3,252.2z M172.4,192.9c-5.9-1.8-8.5-8.5-5.3-13.7c2.1-3.6,6.6-5.3,10.6-4.1c5.9,1.8,8.5,8.5,5.3,13.7
		C180.8,192.4,176.4,194.1,172.4,192.9z"></path>
	
		<linearGradient id="SVGID_2_" gradientUnits="userSpaceOnUse" x1="-52.5334" y1="452.9876" x2="-76.7209" y2="249.812" gradientTransform="matrix(-0.915 0.4034 0.4034 0.915 155.9685 -78.5789)">
		<stop offset="0" class="primary-color-gradient" style="stop-color: #FFA4ED"></stop>
		<stop offset="1" class="secondary-color-gradient" style="stop-color: #DB81DA"></stop>
	</linearGradient>
	<path fill="url(#SVGID_2_)" d="M312.5,266.5c21,47.5,63.5,48,88.5,40.1c3.2-1,11.6-4.7,14.8-6.5c5.6-3.2,11.4-7.6,16.9-13
		c1.1-9.6-0.6-30.6-16.4-66.4c-10.2-23.1-26-44.4-40.9-61.5c-6.7-7.7-16.7-6-26.9-6c-19.8,0-59.3-0.6-59.3-0.6
		C291.9,178.3,299.4,236.8,312.5,266.5z M358.3,212.2c-3.1-5.2-0.5-12,5.3-13.7c4-1.2,8.4,0.5,10.6,4.1c3.2,5.2,0.5,12-5.3,13.7
		C364.8,217.5,360.4,215.8,358.3,212.2z M356.5,248.4c-3.2-5.2-0.6-12,5.3-13.7c4-1.2,8.4,0.5,10.6,4.1c3.2,5.2,0.5,12-5.3,13.7
		C363.1,253.7,358.7,252,356.5,248.4z M330.4,189.1c-3.2-5.2-0.6-12,5.3-13.7c4-1.2,8.4,0.5,10.6,4.1c3.2,5.2,0.5,12-5.3,13.7
		C336.9,194.4,332.5,192.7,330.4,189.1z"></path>
</g>
<g>
	<path fill="#DB81DA" class="secondary-color" d="M259.5,487.3H109.1v-25.7h150.4V487.3z"></path>
	<path fill="#DB81DA" class="secondary-color" d="M161.9,361.3h-46.3v-21.6h46.3V361.3z"></path>
</g>
<path d="M239.7,405.8c0,4.4-3.6,8-8,8h-93c-4.4,0-8-3.6-8-8s3.6-8,8-8h93C236.1,397.8,239.7,401.3,239.7,405.8z M109,87.7H51.6
	c-4.4,0-8,3.6-8,8s3.6,8,8,8H109c4.4,0,8-3.6,8-8S113.5,87.7,109,87.7z M183.6,83c3.5-3.5,3.5-9.2,0-12.7c-3.5-3.5-9.2-3.5-12.7,0
	s-3.5,9.2,0,12.7C174.4,86.5,180.1,86.5,183.6,83z M152.2,30.6c3.5-3.5,3.5-9.3,0-12.8c-3.5-3.5-9.3-3.5-12.8,0
	c-3.5,3.5-3.5,9.3,0,12.8C142.9,34.1,148.7,34.1,152.2,30.6z M277.6,340.4c4.4,0,8-3.6,8-8s-3.6-8-8-8c-14.6,0-26.4,11.8-26.4,26.4
	s11.8,26.4,26.4,26.4c4.4,0,8-3.6,8-8s-3.6-8-8-8c-5.7,0-10.4-4.7-10.4-10.4C267.3,345,271.9,340.4,277.6,340.4z M433.2,52.6h3.9
	v3.9c0,4.4,3.6,8,8,8s8-3.6,8-8v-3.9h3.9c4.4,0,8-3.6,8-8s-3.6-8-8-8h-3.9v-3.9c0-4.4-3.6-8-8-8s-8,3.6-8,8v3.9h-3.9
	c-4.4,0-8,3.6-8,8S428.8,52.6,433.2,52.6z M469.8,418.1c-4.2-1.4-8.7,1-10.1,5.2c-8.2,25.5-26,46.3-50,58.6l-12.6,6.5
	c-3.9,2-5.5,6.8-3.5,10.8c1.4,2.8,4.2,4.4,7.1,4.4c1.2,0,2.5-0.3,3.6-0.9l12.6-6.5c27.8-14.3,48.4-38.4,57.9-67.9
	C476.3,423.9,474,419.4,469.8,418.1z M338.1,59c-4.9,0-9,4-9,9s4,9,9,9s9-4,9-9S343,59,338.1,59z M285.3,275.5h-57.4
	c-4.4,0-8,3.6-8,8s3.6,8,8,8h57.4c4.4,0,8-3.6,8-8S289.7,275.5,285.3,275.5z"></path>
<path d="M102.5,416.8c-1.1,0-2.2-0.2-3.2-0.7l-74.2-32.7c-3.9-1.7-5.8-6.3-4.2-10.3l5.5-13.8c0.8-2,2.4-3.6,4.4-4.4
	c2-0.8,4.3-0.8,6.2,0.1l22.4,9.9l27.8-62c-9-6.3-21-16.9-28.5-33c-9.4-19.9-8.9-42.6,1.2-65.7c27.3-62,84.1-109.5,86.5-111.5
	l3.8-3.2c3.4-2.8,8.4-2.4,11.3,1c2.8,3.4,2.4,8.4-1,11.3l-3.8,3.2c-2.3,1.9-56.3,47.1-82.1,105.7c-22.3,50.6,18.4,77.4,26.8,82.3
	c3.5,2.1,5,6.5,3.3,10.2l-30.4,67.8l37,16.8c3.9,1.8,5.7,6.3,4.1,10.3l-5.5,13.8c-0.8,2-2.4,3.6-4.4,4.4
	C104.6,416.6,103.5,416.8,102.5,416.8z M160.4,314.7c21-6.5,37.5-22.2,47.7-45.3c27.3-61.9,24.1-135.9,24-139l-0.2-5
	c-0.1-3.1-2-5.8-4.8-7L189.6,102c-4-1.8-8.8,0.1-10.5,4.1s0.1,8.8,4.1,10.5l33,14.5l0,0c0.1,3,3.2,73.3-22.6,131.8
	c-22.3,50.5-69.6,38.6-78.8,35.7c-4.2-1.3-8.7,1-10,5.2c-1.3,4.2,1,8.7,5.2,10c6,1.9,15.7,4.2,27.1,4.2
	C144.2,318.2,152.2,317.2,160.4,314.7z M414.1,416.5l74.2-32.7c2-0.9,3.6-2.6,4.3-4.7c0.7-2.1,0.5-4.4-0.5-6.4l-7.5-13.8
	c-2-3.7-6.6-5.2-10.4-3.4l-20.3,9.6L426,303.1c9-6.3,21-16.9,28.5-33c9.4-19.9,8.9-42.6-1.2-65.7C426,142.4,369.3,94.9,366.9,93
	l-3.8-3.2c-3.4-2.8-8.4-2.4-11.3,1c-2.8,3.4-2.4,8.4,1,11.3l3.8,3.2c2.3,1.9,56.2,47,82,105.6c22.3,50.6-18.4,77.4-26.8,82.3
	c-3.5,2.1-5,6.5-3.3,10.2l30.7,68.5L402.1,388c-4,1.7-5.9,6.3-4.3,10.3l5.5,13.8c0.8,2,2.4,3.6,4.4,4.4c1,0.4,2,0.6,3,0.6
	C411.9,417.1,413,416.9,414.1,416.5z M403.5,314.3c4.2-1.3,6.6-5.8,5.2-10s-5.8-6.6-10-5.2c-9.3,2.9-56.5,14.8-78.8-35.7
	c-25.8-58.4-22.8-128.5-22.6-131.8l33-14.5c4-1.8,5.9-6.5,4.1-10.5c-1.8-4-6.5-5.9-10.5-4.1l-37.5,16.5c-2.8,1.2-4.6,3.9-4.8,7
	l-0.2,4.9c-0.1,3.1-3.4,77,24,139c10.2,23.1,26.7,38.7,47.7,45.3c8.2,2.5,16.2,3.5,23.5,3.5C387.8,318.5,397.5,316.2,403.5,314.3z
	 M242.3,113c4-1.9,5.7-6.7,3.8-10.7l-20.8-43.8c-1.9-4-6.7-5.7-10.7-3.8c-4,1.9-5.7,6.7-3.8,10.7l20.8,43.8c1.4,2.9,4.2,4.6,7.2,4.6
	C240,113.8,241.2,113.5,242.3,113z M284.3,109.2l20.8-43.8c1.9-4,0.2-8.8-3.8-10.7c-4-1.9-8.8-0.2-10.7,3.8l-20.8,43.8
	c-1.9,4-0.2,8.8,3.8,10.7c1.1,0.5,2.3,0.8,3.4,0.8C280,113.8,282.9,112.1,284.3,109.2z M265,91.5V45c0-4.4-3.6-8-8-8s-8,3.6-8,8
	v46.5c0,4.4,3.6,8,8,8S265,95.9,265,91.5z"></path>
</svg>