<svg version="1.1" id="Layer_1" xmlns="http://www.w3.org/2000/svg" xmlns:xlink="http://www.w3.org/1999/xlink" x="0px" y="0px" viewBox="0 0 512 512" enable-background="new 0 0 512 512" xml:space="preserve">
<path fill="#FFA4ED" class="primary-color" d="M494.8,483.2L437,425.4l57.8-57.8V483.2z"></path>
<path d="M460.7,89.2c0,4.4-3.6,8-8,8h-15.8V113c0,4.4-3.6,8-8,8s-8-3.6-8-8V97.2h-15.8c-4.4,0-8-3.6-8-8s3.6-8,8-8h15.8V65.4
	c0-4.4,3.6-8,8-8s8,3.6,8,8v15.8h15.8C457.1,81.2,460.7,84.8,460.7,89.2z M71.4,142.8c-4.4,0-8,3.6-8,8s3.6,8,8,8h43
	c4.4,0,8-3.6,8-8s-3.6-8-8-8H71.4z M100.9,120.8c0-4.4-3.6-8-8-8H19.1c-4.4,0-8,3.6-8,8s3.6,8,8,8h73.8
	C97.4,128.8,100.9,125.2,100.9,120.8z M114.4,477.8h-43c-4.4,0-8,3.6-8,8s3.6,8,8,8h43c4.4,0,8-3.6,8-8S118.9,477.8,114.4,477.8z
	 M124.9,420.8H51.1c-4.4,0-8,3.6-8,8s3.6,8,8,8h73.8c4.4,0,8-3.6,8-8S129.4,420.8,124.9,420.8z M217.5,453c-4.4,0-8,3.6-8,8
	s3.6,8,8,8c11.4,0,20.8,9.3,20.8,20.8c0,4.4,3.6,8,8,8s8-3.6,8-8C254.3,469.5,237.8,453,217.5,453z M296.3,453
	c-20.3,0-36.8,16.5-36.8,36.8c0,4.4,3.6,8,8,8s8-3.6,8-8c0-11.4,9.3-20.8,20.8-20.8c4.4,0,8-3.6,8-8S300.7,453,296.3,453z
	 M296.3,431.7c-11.4,0-20.8-9.3-20.8-20.8c0-4.4-3.6-8-8-8s-8,3.6-8,8c0,20.3,16.5,36.8,36.8,36.8c4.4,0,8-3.6,8-8
	S300.7,431.7,296.3,431.7z M246.3,403c-4.4,0-8,3.6-8,8c0,11.4-9.3,20.8-20.8,20.8c-4.4,0-8,3.6-8,8s3.6,8,8,8
	c20.3,0,36.8-16.5,36.8-36.8C254.3,406.6,250.7,403,246.3,403z M164.9,449c-5.9,0-10.8,4.8-10.8,10.8c0,5.9,4.8,10.8,10.8,10.8
	s10.8-4.8,10.8-10.8C175.6,453.8,170.8,449,164.9,449z M72.8,41h152.5c4.4,0,8-3.6,8-8s-3.6-8-8-8H72.8c-4.4,0-8,3.6-8,8
	S68.4,41,72.8,41z"></path>
<g>
	<linearGradient id="SVGID_1_" gradientUnits="userSpaceOnUse" x1="143.3324" y1="381.8212" x2="145.3087" y2="205.924" class="gradient-element">
		<stop offset="0" class="primary-color-gradient" style="stop-color: #FFA4ED"></stop>
		<stop offset="1" class="secondary-color-gradient" style="stop-color: #DB81DA"></stop>
	</linearGradient>
	<path fill="url(#SVGID_1_)" d="M212.1,257.2l-39.6,111.6c-0.9,2.4-2.9,5-7.2,3.4l-85-30.1c-2.4-0.9-5-3-3.5-7.2l39.6-111.6
		L212.1,257.2z"></path>
	<linearGradient id="SVGID_2_" gradientUnits="userSpaceOnUse" x1="371.7708" y1="382.4215" x2="373.7625" y2="205.1623">
		<stop offset="0" class="primary-color-gradient" style="stop-color: #FFA4ED"></stop>
		<stop offset="1" class="secondary-color-gradient" style="stop-color: #DB81DA"></stop>
	</linearGradient>
	<path fill="url(#SVGID_2_)" d="M400.5,223.3l39.6,111.6c1.5,4.2-1.1,6.3-3.5,7.2l-85,30.1c-4.3,1.5-6.3-1.1-7.2-3.4l-39.6-111.6
		L400.5,223.3z"></path>
</g>
<path d="M397.5,359.2c-3.3,0-6.4-2.1-7.6-5.4l-29.3-84l-3,1.1c-4.2,1.5-8.7-0.7-10.2-4.9c-1.5-4.2,0.7-8.7,4.9-10.2l10.6-3.8
	c2-0.7,4.2-0.6,6.1,0.3s3.4,2.6,4.1,4.6l31.9,91.6c1.5,4.2-0.8,8.7-4.9,10.2C399.2,359.1,398.4,359.2,397.5,359.2z M368.2,370.1
	c4.2-1.5,6.4-6,4.9-10.2l-31.9-91.6c-0.7-2-2.2-3.7-4.1-4.6s-4.1-1-6.1-0.3l-10.6,3.8c-4.2,1.5-6.3,6-4.9,10.2
	c1.5,4.2,6.1,6.3,10.2,4.9l3-1.1l29.3,84c1.1,3.3,4.2,5.4,7.6,5.4C366.5,370.6,367.4,370.4,368.2,370.1z M432,347.5
	c4.2-1.5,6.4-6,4.9-10.2L405,245.7c-0.7-2-2.2-3.7-4.1-4.6c-1.9-0.9-4.1-1-6.1-0.3l-10.6,3.8c-4.2,1.5-6.3,6-4.9,10.2
	c1.5,4.2,6.1,6.3,10.2,4.9l3-1.1l29.3,84.1c1.1,3.3,4.2,5.4,7.6,5.4C430.2,347.9,431.1,347.8,432,347.5z M259,275c-4.4,0-8,3.6-8,8
	v46c0,4.4,3.6,8,8,8s8-3.6,8-8v-46C267,278.6,263.4,275,259,275z M169.6,266c-1.5,4.2-6.1,6.3-10.2,4.9l-3-1.1l-29.3,84
	c-1.1,3.3-4.2,5.4-7.6,5.4c-0.9,0-1.8-0.1-2.6-0.4c-4.2-1.5-6.4-6-4.9-10.2l31.9-91.6c0.7-2,2.2-3.7,4.1-4.6c1.9-0.9,4.1-1,6.1-0.3
	l10.6,3.8C168.9,257.3,171.1,261.9,169.6,266z M143.9,359.9l31.9-91.6c0.7-2,2.2-3.7,4.1-4.6s4.1-1,6.1-0.3l10.6,3.8
	c4.2,1.5,6.3,6,4.9,10.2c-1.5,4.2-6.1,6.3-10.2,4.9l-3-1.1l-29.3,84c-1.1,3.3-4.2,5.4-7.6,5.4c-0.9,0-1.8-0.1-2.6-0.4
	C144.6,368.7,142.4,364.1,143.9,359.9z M137.7,254.7c-1.5,4.2-6,6.3-10.2,4.9l-3-1.1l-29.3,84.1c-1.1,3.3-4.2,5.4-7.6,5.4
	c-0.9,0-1.8-0.1-2.6-0.4c-4.2-1.5-6.4-6-4.9-10.2l31.9-91.6c0.7-2,2.2-3.7,4.1-4.6c1.9-0.9,4.1-1,6.1-0.3l10.6,3.8
	C137,246,139.2,250.6,137.7,254.7z M240.9,267.4l-43.3,122.2c-3.2,9.1-11.8,16.7-22.9,16.7c-2.8,0-5.8-0.5-8.9-1.6L59.5,367.1
	c-11.4-4-20.6-16.6-15.2-31.8l23.5-65.5l-8.3-3c-4.2-1.5-6.3-6-4.9-10.2c1.5-4.2,6-6.3,10.2-4.9l15.9,5.6c2,0.7,3.6,2.2,4.6,4.1
	s1,4.1,0.3,6.1l-26.2,73c-2.9,8.1,4.6,11.1,5.4,11.4l106.3,37.7c8.2,2.9,11.1-4.6,11.4-5.4l40.7-114.7l-103.9-37
	c-4.2-1.5-6.3-6.1-4.8-10.2c1.5-4.2,6.1-6.3,10.2-4.8l111.4,39.7C240.2,258.7,242.4,263.2,240.9,267.4z M243.4,229.8
	c1.5,4.1-0.6,8.7-4.7,10.3c-4.1,1.5-8.7-0.6-10.3-4.7c-3.6-9.9-12.5-15.2-16.1-17.1c-3-1.5-4.7-4.8-4.3-8.2
	c1.8-13.7-16.6-23.4-23.8-26c-7.2-2.6-27.6-6.6-34.9,5.2c-1.8,2.9-5.2,4.4-8.5,3.7c-8.1-1.7-27.9-3.2-36.2,20.2l-9.4,26.6
	c-1.5,4.2-6,6.3-10.2,4.9l-15.9-5.7c-3.3-1.2-8.7-1.9-13.7-0.4c-5.7,1.7-9.7,5.9-12.1,12.7c-5,14-7.7,36.7-2,53.7
	c1.4,4.2-0.9,8.7-5.1,10.1c-0.8,0.3-1.7,0.4-2.5,0.4c-3.4,0-6.5-2.1-7.6-5.5c-6.9-20.7-3.9-47.1,2.1-64.1
	c5.2-14.7,15.2-20.5,22.6-22.7c7.4-2.2,16.2-2,23.6,0.7l8.4,3l6.7-19c9.3-26.4,31.4-33.4,49.5-31.4c13.4-15.1,37.5-12.1,50.6-7.4
	c13.1,4.6,33.7,17.5,34.6,37.6C233.2,212.3,240.1,220.6,243.4,229.8z M472.7,335.2c2.7,7.5,2,15-1.9,21.3c-3,4.8-7.8,8.7-13.2,10.6
	l-106.3,37.7c-3.1,1.1-6.1,1.6-8.9,1.6c-11.1,0-19.7-7.7-22.9-16.7l-43.3-122.2c-1.5-4.2,0.7-8.7,4.9-10.2l111.4-39.7
	c4.2-1.5,8.7,0.7,10.2,4.8c1.5,4.2-0.7,8.7-4.8,10.2l-103.9,37l40.7,114.7c0.3,0.9,3.2,8.3,11.4,5.4L452.2,352c1.6-0.6,3.7-1.9,5-4
	c1.3-2.1,1.4-4.5,0.4-7.4l-26.1-73c-0.7-2-0.6-4.2,0.3-6.1s2.5-3.4,4.6-4.1l15.9-5.6c4.2-1.5,8.7,0.7,10.2,4.9s-0.7,8.7-4.9,10.2
	l-8.3,3L472.7,335.2z M491,310c-1.1,3.4-4.2,5.5-7.6,5.5c-0.8,0-1.7-0.1-2.5-0.4c-4.2-1.4-6.5-5.9-5.1-10.1c5.7-17,2.9-39.8-2-53.7
	c-2.4-6.8-6.4-11-12.1-12.7c-5-1.5-10.4-0.8-13.7,0.4l-15.9,5.7c-2,0.7-4.2,0.6-6.1-0.3c-1.9-0.9-3.4-2.5-4.1-4.5l-9.4-26.6
	c-8.3-23.5-28.1-22-36.2-20.3c-3.3,0.7-6.7-0.8-8.5-3.7c-7.2-11.8-27.6-7.8-34.9-5.2c-7.2,2.6-25.7,12.3-23.8,26
	c0.4,3.4-1.3,6.6-4.3,8.2c-3.6,1.9-12.5,7.3-16.1,17.1c-1.5,4.1-6.1,6.3-10.3,4.7c-4.1-1.5-6.3-6.1-4.7-10.3
	c3.4-9.2,10.3-17.4,19.3-23.2c0.9-20.2,21.5-33,34.6-37.6s37.2-7.7,50.6,7.4c18.1-2,40.1,5,49.5,31.4l6.7,19l8.4-3
	c7.4-2.6,16.2-2.9,23.6-0.7c7.4,2.2,17.4,8,22.6,22.7C494.8,262.8,497.8,289.3,491,310z M267,113v46c0,4.4-3.6,8-8,8s-8-3.6-8-8v-46
	c0-4.4,3.6-8,8-8S267,108.6,267,113z M279.3,179.7c-3.1-3.1-3.1-8.2,0-11.3l26-26c3.1-3.1,8.2-3.1,11.3,0c3.1,3.1,3.1,8.2,0,11.3
	l-26,26c-1.6,1.6-3.6,2.3-5.7,2.3S280.9,181.2,279.3,179.7z M201.3,153.7c-3.1-3.1-3.1-8.2,0-11.3c3.1-3.1,8.2-3.1,11.3,0l26,26
	c3.1,3.1,3.1,8.2,0,11.3c-1.6,1.6-3.6,2.3-5.7,2.3s-4.1-0.8-5.7-2.3L201.3,153.7z"></path>
</svg>