<svg version="1.1" id="Layer_1" xmlns="http://www.w3.org/2000/svg" xmlns:xlink="http://www.w3.org/1999/xlink" x="0px" y="0px" viewBox="0 0 512 512" enable-background="new 0 0 512 512" xml:space="preserve">
<linearGradient id="SVGID_1_" gradientUnits="userSpaceOnUse" x1="277.0741" y1="502.0775" x2="277.0741" y2="16.2565" class="gradient-element">
	<stop offset="0" class="primary-color-gradient" style="stop-color: #FFA4ED"></stop>
	<stop offset="1" class="secondary-color-gradient" style="stop-color: #DB81DA"></stop>
</linearGradient>
<path fill="url(#SVGID_1_)" d="M371,322.6c0,49.8,0,90.1,0,139.9c0,4.3-0.7,8.2-3.4,11.6c0,0-0.1,0.1-0.1,0.1
	c-4.7,5.7-14,2.1-14-5.2V316.7c0-7,5.6-12.6,12.6-12.6h4.9V322.6z M404.5,80.8c-0.8-4.5-2.7-8.6-5.1-12.4c-0.3-0.3-0.5-0.6-0.8-0.8
	c-6.7-8.1-15.3-11.9-25.8-11c-2.2,0.2-4.4,0.6-6.4,1.3c5.2,1.7,9.7,5,13.6,9.7c0.2,0.3,0.5,0.6,0.7,0.8c2.5,3.8,4.3,7.9,5.1,12.4
	c2.6,14-6.2,28.3-19.5,32.7c4.7,1.6,9.7,1.9,14.9,1C396.6,111.7,407.3,96.1,404.5,80.8z M492.3,265.9c-17.2-38.3-34.3-76.7-51.5-115
	c-1.1-2.5-2.8-4.4-4.9-6c-3.4-2.6-7.3-4.4-11.4-5.5c-0.2,0-0.3-0.1-0.5-0.1c-12-3.2-23.7,6-23.7,18.4V469c0,7.4,9.3,10.9,14,5.2
	c0,0,0.1-0.1,0.1-0.1c2.8-3.4,3.4-7.4,3.4-11.6c0-49.8,0-99.6,0-149.4V179.9c0.6,0.5,0.8,1,1.1,1.6c8.8,19.6,17.5,39.1,26.3,58.7
	c5.8,12.9,11.5,25.8,17.3,38.6c1.8,4.1,4.5,7.4,8.8,9.1c6.1,2.4,13.7,0.6,18.4-4.4C494.3,278.7,495.3,272.5,492.3,265.9z
	 M131.2,348.6h-4.9c-7,0-12.6,5.6-12.6,12.6V469c0,7.4,9.3,10.9,14,5.2c0,0,0.1-0.1,0.1-0.1c2.8-3.4,3.4-7.4,3.4-11.6
	c0-49.8,0-45.6,0-95.4V348.6z M126.5,113.5c4.7,1.6,9.7,1.9,14.9,1c15.3-2.8,26.1-18.4,23.3-33.6c-0.8-4.5-2.7-8.6-5.1-12.4
	c-0.3-0.3-0.5-0.6-0.8-0.8c-6.7-8.1-15.3-11.9-25.8-11c-2.2,0.2-4.4,0.6-6.4,1.3c5.2,1.7,9.7,5,13.6,9.7c0.2,0.3,0.5,0.6,0.7,0.8
	c2.5,3.8,4.3,7.9,5.1,12.4C148.6,94.8,139.8,109.1,126.5,113.5z M178,179.9c0.6,0.5,0.8,1,1.1,1.6c8.8,19.6,24.7,52.5,33.5,72.1v-77
	c-1.1-2.5-14.3-30.1-16.4-31.7c-3.4-2.6-7.3-4.4-11.4-5.5c-0.2,0-0.3-0.1-0.5-0.1c-12-3.2-23.7,6-23.7,18.4l1,122.3
	c0.1,17.5-14,31.8-31.5,31.8h-19.9c-20.9,0-40.1,11.5-49.9,29.9h100.4V469c0,7.4,9.3,10.9,14,5.2c0,0,0.1-0.1,0.1-0.1
	c2.8-3.4,3.4-7.4,3.4-11.6c0-44.1,0-76.8,0-120.9c0-2.1,33.1-1.2,33.1-3.3c0-3.6-33.1-48.8-33.1-48.8V179.9z M259.5,20.6
	c-5.3,0-9.5,4.3-9.5,9.5v456.7c0,5.3,4.3,9.5,9.5,9.5s9.5-4.3,9.5-9.5V30.1C269,24.8,264.7,20.6,259.5,20.6z"></path>
<path d="M495.5,289.1c-4.9,5.1-11.8,7.9-18.6,7.9c-2.9,0-5.8-0.5-8.5-1.6c-5.8-2.3-10.3-6.8-13.2-13.3c-4.1-9.1-8.2-18.3-12.3-27.4
	l-17.1-38.1v61.7c0,49.8,0,134.5,0,184.3c0,4.4-0.5,10.9-5.2,16.7c-6.2,7.7-17.5,10.7-27.4,7.4c-9.5-3.2-15.6-11.6-15.9-21.8
	c0-0.8,0-1.6,0-2.3v-20.6c0-39.9,0-81.2,0-121.9c-0.4,0-0.8,0-1.2,0c0,37.8,0,75.6,0,113.4V451c0,1.3,0,2.5,0,3.8c0,2.7,0,5.3,0,7.8
	c0.3,8.8-3.4,16.4-10.2,21c-4.1,2.8-9,4.2-14,4.2c-3.6,0-7.2-0.7-10.6-2.3l-0.6-0.2c-0.4-0.2-0.9-0.4-1.3-0.6
	c-6.8-4.1-10.9-10.4-11.7-18.2c-0.3-1.3-0.2-2.4-0.2-3.1l0-0.2c0-10,0-23.2,0.1-37.8c0.1-36.7,0.2-82.3-0.1-107.7
	c-0.1-4.4,3.5-8,7.9-8.1c0,0,0.1,0,0.1,0c4.4,0,7.9,3.5,8,7.9c0.3,25.5,0.2,71.2,0.1,107.9c0,14.5-0.1,27.7-0.1,37.7
	c0,0.2,0,0.4,0,0.6c0,0.2,0.1,0.4,0.1,0.6c0.2,2.8,1.3,4.7,3.5,6.2c0.2,0.1,0.4,0.2,0.6,0.3c3,1.4,6.7,1.1,9.3-0.6
	c2.2-1.5,3.3-3.9,3.1-7.2c-0.1-2.9-0.1-5.7,0-8.5c0-1.2,0-2.5,0-3.7v-17.8c0-39.9,0-79.8,0-119.6c0-3,0.9-5.4,2.8-7.2
	c1.8-1.8,4.3-2.7,7.2-2.6c4.4,0.1,8.8,0.1,13,0c3.1-0.1,5.6,0.8,7.4,2.6c1.9,1.8,2.8,4.3,2.8,7.4c0,42.6,0,86,0,127.9v20.7
	c0,0.6,0,1.2,0,1.9c0.1,2.5,1,5.7,5,7.1c3.6,1.2,7.8,0.2,9.8-2.3c1.2-1.5,1.7-3.4,1.7-6.6c0-47.5,0-126.7,0-177.1c0,0,0,0,0,0V179.9
	c0-3.2,1.9-6,4.7-7.3c2.9-1.3,6.3-0.8,8.6,1.4c1.7,1.5,2.5,3.1,3,4.3l31.3,69.9c4.1,9.1,8.2,18.3,12.3,27.4c1.5,3.4,3.1,4.4,4.4,4.9
	c3,1.2,7.2,0.1,9.7-2.5c1.5-1.5,3.2-4.1,1.1-8.9c-10.5-23.5-21-46.9-31.5-70.4l-20-44.6c-0.5-1.1-1.3-2-2.4-2.9
	c-2.4-1.9-5.4-3.3-8.6-4.1c-11.5-3.1-23.7-4.2-34.3-5c-5.2-0.4-10.4-0.4-15.9-0.4l-3.2,0c-9.9,0.3-18.9,1.2-27.2,2.6l-0.9,0.1
	c-5.8,1-11.2,1.9-16.2,3.7c-3.9,1.4-6.1,3.4-7.5,6.6c-7.8,17.6-15.8,35.4-23.5,52.6l-8,17.8c-1.8,4-6.5,5.8-10.6,4
	c-1.1-0.5-2-1.2-2.7-2v252.3c0,13.3-10.9,24.2-24.2,24.2h-2.2c-13.3,0-24.2-10.9-24.2-24.2V93.7c0-4.1,3.3-7.4,7.4-7.4
	s7.4,3.3,7.4,7.4v385.8c0,5.2,4.3,9.5,9.5,9.5h2.2c5.2,0,9.5-4.3,9.5-9.5V37.4c0-5.2-4.3-9.5-9.5-9.5h-2.2c-5.2,0-9.5,4.3-9.5,9.5
	c0,4.1-3.3,7.4-7.4,7.4s-7.4-3.3-7.4-7.4c0-13.3,10.9-24.2,24.2-24.2h2.2c13.3,0,24.2,10.9,24.2,24.2v178.3l6.7-14.9
	c7.7-17.2,15.7-35,23.5-52.5c3.2-7.1,8.8-12.2,16.7-15.1c6.4-2.4,12.9-3.4,19.1-4.5l0.9-0.1c9.1-1.5,18.7-2.4,29.4-2.8
	c0.1,0,0.2,0,0.3,0l3.3,0c5.5,0,11.3,0,17.1,0.4c11.3,0.8,24.4,2,37.3,5.5c5.3,1.4,10,3.7,14.1,6.8c3.3,2.5,5.8,5.6,7.4,9.1l20,44.6
	c10.5,23.5,21,46.9,31.5,70.4C503.9,272.2,502.4,281.9,495.5,289.1z M327.2,275.7c0,4.4,3.6,8,8,8c0,0,0,0,0,0c4.4,0,8-3.6,8-8
	l0-8.4c0-28.1,0.1-63.2,0-89l0-0.5c0-0.1,0-0.3,0-0.4c0.5-3.9-1.9-7.5-5.7-8.6c-3.8-1.1-7.9,0.8-9.5,4.4
	c-6.6,14.7-13.2,29.4-19.8,44.1l-10.8,24.2c-4.9,11-9.9,22-14.8,33.1c-1.8,4,0,8.8,4,10.6c1.1,0.5,2.2,0.7,3.3,0.7
	c3.1,0,6-1.8,7.3-4.7c4.9-11,9.9-22,14.8-33.1l10.8-24.2c1.5-3.3,3-6.7,4.5-10c0,18,0,36.9,0,53.4L327.2,275.7z M353.3,115.7
	c0.4,0.3,0.9,0.6,1.3,0.9c0.1,0,0.2,0.1,0.3,0.1c6.3,4.2,13.2,6.3,20.5,6.3c2.4,0,4.8-0.2,7.2-0.7c9.4-1.7,18-7.3,23.6-15.5
	c5.6-8.1,7.8-18.2,6.1-27.5c-1-5.2-3-10.2-6.2-15.2c-0.2-0.4-0.5-0.7-0.8-1l-0.3-0.3c-0.1-0.1-0.2-0.2-0.3-0.3
	c-8.5-10.2-19.8-15-32.7-13.8c-4.4,0.4-7.7,4.3-7.3,8.7c0.4,4.4,4.3,7.7,8.7,7.3c7.7-0.7,13.8,1.9,19,8.2c0.2,0.2,0.3,0.4,0.5,0.6
	c1.9,3.1,3.1,6,3.6,9c1,5.2-0.3,10.9-3.5,15.5c-3.2,4.7-8.1,7.9-13.3,8.8c-6,1.1-11.3,0-16.3-3.4c-0.3-0.2-0.5-0.3-0.8-0.5
	c-3.9-3.3-6.4-7-7.6-11.4c-1.9-6.9-0.2-14.2,4.5-19.7c2.9-3.3,2.5-8.4-0.8-11.3c-3.3-2.9-8.4-2.5-11.3,0.8
	c-8.3,9.5-11.2,22.4-7.8,34.5C341.8,103.5,346.4,110.3,353.3,115.7z M193.5,292.8c-2.2-3.8-7.1-5.1-11-2.8c-3.8,2.2-5.1,7.1-2.8,11
	l19.3,32.7h-70.7h0H73.5l28.9-54.1c0.6-1.2,0.9-2.4,0.9-3.8l0-8.9c0-28,0.1-62.8,0-88.5l0-0.4c0-0.1,0-0.3,0-0.4
	c0.5-3.9-1.9-7.5-5.7-8.6c-3.8-1.1-7.9,0.8-9.5,4.4c-6.6,14.7-13.2,29.4-19.8,44.1l-10.8,24.1c-4.9,11-9.9,22-14.8,33.1
	c-0.8,1.7-1.4,3-2.2,4.1c-1.6,2.2-4.6,3.3-7.7,2.7c-0.3-0.2-0.5-0.4-0.8-0.5l-0.2-0.1c-0.4-0.2-0.8-0.5-1.2-0.7
	c-3.4-1.6-6.9-4.9-4.1-11c4.3-9.7,8.7-19.4,13-29.1l14.7-32.7c7.7-17.2,15.7-35,23.4-52.5c1.4-3.2,3.7-5.2,7.5-6.6
	c5-1.8,10.5-2.7,16.2-3.7l0.9-0.1c8.4-1.4,17.3-2.2,27.2-2.6l3.2,0c5.5,0,10.7,0,15.9,0.4c10.6,0.8,22.8,1.9,34.3,5
	c3.3,0.9,6.2,2.3,8.6,4.1c1.2,0.9,2,1.8,2.4,2.9l11.5,25.7c1.8,4,6.5,5.8,10.6,4c4-1.8,5.8-6.5,4-10.6l-11.5-25.7
	c-1.6-3.5-4-6.6-7.4-9.1c-4.1-3.1-8.8-5.4-14.1-6.8c-12.8-3.5-26-4.7-37.3-5.5c-5.8-0.4-11.5-0.4-17.1-0.4l-3.3,0
	c-0.1,0-0.2,0-0.3,0c-10.7,0.4-20.3,1.3-29.4,2.8l-0.9,0.1c-6.2,1-12.7,2.1-19.1,4.5c-7.9,2.9-13.5,8-16.7,15.1
	c-7.8,17.5-15.7,35.2-23.4,52.4l-14.7,32.7c-4.4,9.7-8.7,19.4-13,29.2c-5.7,12.7-0.8,25.8,11.8,31.9l0.1,0.1c1,0.7,2.5,1.7,4.6,2.2
	c9.7,2.4,19.5-1,25.1-8.7c1.7-2.3,2.9-4.8,3.9-7c4.9-11,9.9-22,14.8-33.1L82.9,224c1.5-3.4,3-6.7,4.5-10.1c0,17.8,0,36.5,0,52.9
	l0,6.9l-34.2,64.1c-1.3,2.5-1.3,5.5,0.2,7.9c1.4,2.4,4,3.9,6.9,3.9h60.2c0,34.1,0,52.5,0,83.7V451c0,1.2,0,2.4,0,3.7
	c0,2.8-0.1,5.6,0,8.5c0.1,3.3-0.9,5.7-3.1,7.2c-2.5,1.7-6.2,1.9-9.3,0.6c-0.2-0.1-0.4-0.2-0.6-0.3c-2.2-1.5-3.3-3.4-3.5-6.2
	c0-0.2,0-0.4-0.1-0.6c0-0.2,0-0.4,0-0.6c0-11.5,0-21.9,0.1-32c0.1-20.7,0.1-40.3-0.2-64.3c-0.1-4.4-3.6-7.9-8-7.9c0,0-0.1,0-0.1,0
	c-4.4,0.1-8,3.7-7.9,8.1c0.3,23.9,0.2,43.4,0.2,64.1c0,10.1-0.1,20.5-0.1,32l0,0.2c0,0.7-0.1,1.8,0.2,3.1
	c0.9,7.8,4.9,14.1,11.7,18.2c0.4,0.2,0.8,0.5,1.3,0.6l0.6,0.2c3.4,1.5,7,2.3,10.6,2.3c5,0,9.9-1.4,14-4.2c6.8-4.6,10.5-12.2,10.2-21
	c-0.1-2.5-0.1-5.1,0-7.8c0-1.3,0-2.5,0-3.8v-17.7c0-31.3,0-49.6,0-83.7H170c0,44.2,0,65.8,0,112.9c0,3.2-0.5,5.1-1.7,6.6
	c-2,2.5-6.2,3.5-9.8,2.3c-4-1.4-5-4.6-5-7.1c0-0.6,0-1.2,0-1.8l0-0.4l0-19.4c0-30.5,0-35,0-76.8c0-4.4-3.6-8-8-8c0,0,0,0,0,0
	c-4.4,0-8,3.6-8,8c0,41.9,0,46.4,0,76.9l0,19.7c0,0.8,0,1.5,0,2.3c0.3,10.2,6.4,18.6,15.9,21.8c2.7,0.9,5.5,1.3,8.2,1.3
	c7.4,0,14.6-3.1,19.1-8.7c4.7-5.8,5.2-12.3,5.2-16.7c0-47.1,0-68.6,0-112.9h27c2.9,0,5.5-1.5,6.9-4c1.4-2.5,1.4-5.6-0.1-8
	L193.5,292.8z M186.4,178.2c-0.5-1.2-1.4-2.8-3-4.3c-2.3-2.1-5.7-2.6-8.6-1.4c-2.9,1.3-4.7,4.1-4.7,7.3v93.6c0,4.4,3.6,8,8,8
	c4.4,0,8-3.6,8-8v-56.6c0.7,1.5,1.3,3,2,4.5c5.8,13.2,11.8,26.8,16.2,36.6c1.8,4,6.5,5.8,10.6,4c4-1.8,5.8-6.5,4-10.6
	c-4.4-9.7-10.3-23.3-16.1-36.5C196.8,201.7,190.8,188,186.4,178.2z M113.5,115.7c0.4,0.3,0.9,0.6,1.3,0.9c0.1,0,0.2,0.1,0.3,0.1
	c6.3,4.2,13.2,6.3,20.5,6.3c2.4,0,4.8-0.2,7.2-0.7c9.4-1.7,18-7.3,23.6-15.5c5.6-8.1,7.8-18.2,6.1-27.5c-1-5.2-3-10.2-6.2-15.2
	c-0.2-0.4-0.5-0.7-0.8-1l-0.3-0.3c-0.1-0.1-0.2-0.2-0.3-0.3c-8.5-10.2-19.8-15-32.7-13.8c-4.4,0.4-7.7,4.3-7.3,8.7
	c0.4,4.4,4.3,7.7,8.7,7.3c7.7-0.7,13.8,1.9,19,8.2c0.2,0.2,0.3,0.4,0.5,0.6c1.9,3.1,3.1,6,3.6,9c1,5.2-0.3,10.9-3.5,15.5
	c-3.2,4.7-8.1,7.9-13.3,8.8c-6,1.1-11.3,0-16.3-3.4c-0.3-0.2-0.5-0.3-0.8-0.5c-3.9-3.3-6.4-7-7.6-11.4c-1.9-6.9-0.2-14.2,4.5-19.7
	c2.9-3.3,2.5-8.4-0.8-11.3c-3.3-2.9-8.4-2.5-11.3,0.8c-8.3,9.5-11.2,22.4-7.8,34.5C102,103.5,106.6,110.3,113.5,115.7z"></path>
<path fill="#DB81DA" class="secondary-color" d="M12.7,345.6h21.8v145.9H12.7V345.6z"></path>
<path d="M439.5,84.7c-4.4,0-8-3.6-8-8s3.6-8,8-8c5.3,0,9.6-4.3,9.6-9.6s-4.3-9.6-9.6-9.6c-4.4,0-8-3.6-8-8s3.6-8,8-8
	c14.1,0,25.6,11.5,25.6,25.6C465.1,73.2,453.6,84.7,439.5,84.7z M30,18c-6.1,0-11,4.9-11,11s4.9,11,11,11s11-4.9,11-11
	S36.1,18,30,18z M30,56c-6.1,0-11,4.9-11,11s4.9,11,11,11s11-4.9,11-11S36.1,56,30,56z M482,428c-6.1,0-11,4.9-11,11s4.9,11,11,11
	s11-4.9,11-11S488.1,428,482,428z M482,466c-6.1,0-11,4.9-11,11s4.9,11,11,11s11-4.9,11-11S488.1,466,482,466z"></path>
</svg>