<svg version="1.1" id="Layer_1" xmlns="http://www.w3.org/2000/svg" xmlns:xlink="http://www.w3.org/1999/xlink" x="0px" y="0px" viewBox="0 0 512 512" enable-background="new 0 0 512 512" xml:space="preserve">
<linearGradient id="SVGID_1_" gradientUnits="userSpaceOnUse" x1="108.1718" y1="278.612" x2="433.008" y2="278.612" class="gradient-element">
	<stop offset="0" class="primary-color-gradient" style="stop-color: #FFA4ED"></stop>
	<stop offset="1" class="secondary-color-gradient" style="stop-color: #DB81DA"></stop>
</linearGradient>
<path fill="url(#SVGID_1_)" d="M338.2,343.4l-6.7,26.7l57.8,57.8c-11.9,6.5-25.6,10.3-40.2,10.3c-46.2,0-83.9-37.6-83.9-83.9
	c0-0.1,0-0.1,0-0.2c0-8.3,7.6-14.3,15.8-12.9c10.2,1.8,22-4.4,23.3-29.3c2-38.1,44.8-41.5,44.8-41.5c46.2,0,83.9,37.6,83.9,83.9
	c0,14.6-3.7,28.3-10.3,40.2l-57.8-57.8L338.2,343.4z M271,288c-8.1-8.1-21.1-8.6-29.7-1.1L115.8,395.4c-11.5,9.9-9.8,28.3,3.3,35.8
	c18.8,10.8,46,17.4,70-11.3c41.9-50,57.9-66.7,71.3-97.9c13.4-31.2,13.4-31.2,13.4-31.2L271,288z M419.7,120.1l-5.3-3.4l-52.2,51.4
	l21.7,23.6L419.7,120.1z"></path>
<path d="M71,168c0-15.4,3.9-30.6,11.2-44c1.2-2.2,3.4-3.7,5.9-4.1c2.5-0.4,5,0.5,6.8,2.3l54.6,54.6l17.7-4.4l4.4-17.7L117,100.1
	c-1.8-1.8-2.6-4.3-2.3-6.8c0.4-2.5,1.9-4.7,4.1-5.9c13.4-7.4,28.7-11.2,44-11.2c50.6,0,91.9,41.2,91.9,91.9c0,6.2-0.7,12.4-2,18.8
	l14.3,14.3c3.1,3.1,3.1,8.2,0,11.3c-3.1,3.1-8.2,3.1-11.3,0l-17.5-17.5c-2-2-2.8-4.9-2.1-7.7c1.7-6.5,2.6-13,2.6-19.2
	c0-41.8-34-75.9-75.9-75.9c-9,0-18,1.6-26.4,4.7l49.7,49.7c2,2,2.8,4.9,2.1,7.6l-6.7,26.7c-0.7,2.9-3,5.1-5.8,5.8l-26.7,6.7
	c-2.7,0.7-5.6-0.1-7.6-2.1l-49.7-49.7C88.6,150,87,159,87,168c0,41.8,34,75.9,75.9,75.9c4.4,0,8,3.6,8,8s-3.6,8-8,8
	C112.2,259.9,71,218.7,71,168z M349.2,262.5c-4.4,0-8,3.6-8,8s3.6,8,8,8c41.8,0,75.9,34,75.9,75.9c0,9-1.6,18-4.7,26.4l-49.7-49.7
	c-2-2-4.9-2.8-7.6-2.1l-26.7,6.7c-2.9,0.7-5.1,3-5.8,5.8l-6.7,26.7c-0.7,2.7,0.1,5.6,2.1,7.6l49.7,49.7c-8.4,3.1-17.4,4.7-26.4,4.7
	c-41.8,0-75.9-34-75.9-75.9c0-4.4-3.6-8-8-8s-8,3.6-8,8c0,50.6,41.2,91.9,91.9,91.9c15.4,0,30.6-3.9,44-11.2
	c2.2-1.2,3.7-3.4,4.1-5.9s-0.5-5-2.3-6.8l-54.6-54.6l4.4-17.7l17.7-4.4l54.6,54.6c1.8,1.8,4.3,2.6,6.8,2.3c2.5-0.4,4.7-1.9,5.9-4.1
	c7.4-13.4,11.2-28.7,11.2-44C441,303.7,399.8,262.5,349.2,262.5z M281.5,293.3c0.9-2.9,0.2-6-2-8.1L268,273.6l24.5-24.5l29.1,29.1
	c1.6,1.6,3.6,2.3,5.7,2.3s4.1-0.8,5.7-2.3c3.1-3.1,3.1-8.2,0-11.3l-29.1-29.1l58.5-58.5l16.7,16.6c1.8,1.8,4.4,2.6,6.9,2.2
	c2.5-0.4,4.7-2,5.9-4.3l35.1-70.2c1.5-3.1,0.9-6.8-1.5-9.2l-22.6-22.6c-2.4-2.4-6.2-3-9.2-1.5l-70.3,35.1c-2.3,1.1-3.9,3.3-4.3,5.9
	c-0.4,2.5,0.4,5.1,2.2,6.9l16.7,16.7l-94.2,94.2L232,237.5c-2.2-2.2-5.3-2.9-8.2-1.9l-5.5,1.9c-11.6,3.9-30.4,13.4-49.2,24.9
	c-2.1,1.3-3.5,3.4-3.8,5.9s0.6,4.9,2.3,6.6l61.3,61.3c3.1,3.1,8.2,3.1,11.3,0c3.1-3.1,3.1-8.2,0-11.3l-54-54
	c17.1-9.9,30.2-15.8,37.2-18.2l0.8-0.3l13.7,13.8c1.5,1.5,3.5,2.4,5.7,2.4c0,0,0,0,0,0c2.1,0,4.2-0.8,5.7-2.3l105.5-105.5
	c1.5-1.5,2.3-3.5,2.3-5.7c0-2.1-0.8-4.2-2.3-5.7l-14.5-14.5l55.3-27.6l14.5,14.5l-27.6,55.2l-14.5-14.5c-3.1-3.1-8.2-3.1-11.3,0
	L251,268c-1.5,1.5-2.3,3.5-2.3,5.7s0.8,4.2,2.3,5.7l13.8,13.8l-0.2,0.8c-7.2,21.5-39.5,79.2-78.3,117.9
	c-10.6,10.7-22.2,16.7-34.5,17.8c0,0-0.1,0-0.1,0c-2.6,0.3-5.5,0.3-8.8,0c-4.1-0.4-8.2-1.2-12.3-2.6c-14.9-5-25.2-15.1-25.3-15.2
	c-0.1-0.1-0.3-0.2-0.4-0.4c-0.6-0.7-1.6-1.8-2.8-3.4c-0.1-0.1-0.1-0.2-0.2-0.2c-1-1.2-2.2-2.8-3.5-4.7c-5-7.5-11-19.4-11-33.2
	c0-14,6-27.1,17.9-39c18.8-18.8,40.9-34.8,56.1-44.8c3.7-2.4,4.7-7.4,2.3-11.1c-2.4-3.7-7.4-4.7-11.1-2.3
	c-15.8,10.5-38.9,27.1-58.6,46.9c-15,15-22.6,31.9-22.6,50.3c0,17.8,7.5,32.7,13.8,42.2c1.6,2.3,3,4.2,4.3,5.8
	c1.6,2.1,3,3.7,3.7,4.4l0.1,0.2c0.4,0.6,1,1.1,1.5,1.5c3.2,3,14.5,12.9,30.7,18.3c5.2,1.8,10.6,2.9,15.9,3.4
	c2.1,0.2,4.2,0.3,6.1,0.3c2,0,3.9-0.1,5.7-0.3c16.1-1.5,31-9,44.3-22.4c40.6-40.5,74.5-101.4,82.2-124.2L281.5,293.3z"></path>
<path d="M288.1,26.4c0,20.3-16.5,36.8-36.8,36.8c-4.4,0-8-3.6-8-8s3.6-8,8-8c11.4,0,20.8-9.3,20.8-20.8c0-4.4,3.6-8,8-8
	C284.5,18.4,288.1,22,288.1,26.4z M330.1,47.1c-11.4,0-20.8-9.3-20.8-20.8c0-4.4-3.6-8-8-8c-4.4,0-8,3.6-8,8
	c0,20.3,16.5,36.8,36.8,36.8c4.4,0,8-3.6,8-8S334.5,47.1,330.1,47.1z M330.1,68.4c-20.3,0-36.8,16.5-36.8,36.8c0,4.4,3.6,8,8,8
	c4.4,0,8-3.6,8-8c0-11.4,9.3-20.8,20.8-20.8c4.4,0,8-3.6,8-8S334.5,68.4,330.1,68.4z M251.4,68.4c-4.4,0-8,3.6-8,8s3.6,8,8,8
	c11.4,0,20.8,9.3,20.8,20.8c0,4.4,3.6,8,8,8c4.4,0,8-3.6,8-8C288.1,84.9,271.6,68.4,251.4,68.4z M475.6,204h-15.8v-15.8
	c0-4.4-3.6-8-8-8s-8,3.6-8,8V204h-15.8c-4.4,0-8,3.6-8,8s3.6,8,8,8h15.8v15.8c0,4.4,3.6,8,8,8s8-3.6,8-8V220h15.8c4.4,0,8-3.6,8-8
	S480.1,204,475.6,204z M458.5,437.2h-3.9v-3.9c0-4.4-3.6-8-8-8s-8,3.6-8,8v3.9h-3.9c-4.4,0-8,3.6-8,8s3.6,8,8,8h3.9v3.9
	c0,4.4,3.6,8,8,8s8-3.6,8-8v-3.9h3.9c4.4,0,8-3.6,8-8S462.9,437.2,458.5,437.2z M61.7,259.6h-3.9v-3.9c0-4.4-3.6-8-8-8s-8,3.6-8,8
	v3.9H38c-4.4,0-8,3.6-8,8s3.6,8,8,8h3.9v3.9c0,4.4,3.6,8,8,8s8-3.6,8-8v-3.9h3.9c4.4,0,8-3.6,8-8S66.2,259.6,61.7,259.6z"></path>
<g>
	<path fill="#FFA4ED" class="primary-color" d="M53.9,61.8H19.3V27.2h34.7V61.8z M109.2,27.2H74.5v34.7h34.7V27.2z M477.2,159.6H499v-56.9h-21.8V159.6z
		 M367,25.8v21.8h56.9V25.8H367z"></path>
	<path fill="#DB81DA" class="secondary-color" d="M499,25.8v1.8v20v36.9h-21.8V47.6h-35.1V25.8H499z M21.4,475.1V488h237.1v-12.9H21.4z"></path>
</g>
</svg>