<svg version="1.1" id="Layer_1" xmlns="http://www.w3.org/2000/svg" xmlns:xlink="http://www.w3.org/1999/xlink" x="0px" y="0px" viewBox="0 0 512 512" enable-background="new 0 0 512 512" xml:space="preserve">
<linearGradient id="SVGID_1_" gradientUnits="userSpaceOnUse" x1="338.025" y1="442.0843" x2="343.7092" y2="89.6632" class="gradient-element">
	<stop offset="0" class="primary-color-gradient" style="stop-color: #FFA4ED"></stop>
	<stop offset="1" class="secondary-color-gradient" style="stop-color: #DB81DA"></stop>
</linearGradient>
<path fill="url(#SVGID_1_)" d="M355,111.3c6.7,8.2,10.7,18.7,10.7,30.2c0,26.5-21.4,47.8-47.8,47.8c-26.5,0-47.8-21.4-47.8-47.8
	c0-11.5,4-22,10.7-30.2h-20.1v343.1H398c12.6,0,22.9-10.2,22.9-22.9V111.3H355z M317.9,429.3c-26.5,0-47.8-21.4-47.8-47.8
	s21.3-47.8,47.8-47.8c26.5,0,47.8,21.4,47.8,47.8S344.4,429.3,317.9,429.3z M317.9,309.3c-26.5,0-47.8-21.4-47.8-47.8
	s21.3-47.8,47.8-47.8c26.5,0,47.8,21.4,47.8,47.8S344.4,309.3,317.9,309.3z"></path>
<path d="M306.5,507.1c-4.4,0-8-3.6-8-8v-36.7h-59.5c-17.6,0-32-14.3-32-32V325.2h-13.8c-5,0-9.1-4.1-9.1-9.1v-20.7
	c0-5,4.1-9.1,9.1-9.1H207v-52.6h-13.8c-5,0-9.1-4.1-9.1-9.1v-20.7c0-5,4.1-9.1,9.1-9.1H207v-5.5c0-4.4,3.6-8,8-8s8,3.6,8,8v12.4
	c0,5-4.1,9.1-9.1,9.1h-13.8v6.9h13.8c5,0,9.1,4.1,9.1,9.1v66.5c0,5-4.1,9.1-9.1,9.1h-13.8v6.9h13.8c5,0,9.1,4.1,9.1,9.1v112.2
	c0,8.8,7.2,16,16,16h66.5c5,0,9.1,4.1,9.1,9.1v43.6C314.5,503.6,310.9,507.1,306.5,507.1z M396.9,462.5h-44.7c-4.4,0-8-3.6-8-8
	s3.6-8,8-8h44.7c8.8,0,16-7.2,16-16V318.3c0-5,4.1-9.1,9.1-9.1h13.8v-6.9h-13.8c-5,0-9.1-4.1-9.1-9.1v-66.5c0-5,4.1-9.1,9.1-9.1
	h13.8v-6.9h-13.8c-5,0-9.1-4.1-9.1-9.1v-66.5c0-5,4.1-9.1,9.1-9.1h13.8v-6.9h-13.8c-5,0-9.1-4.1-9.1-9.1V89.5c0-8.8-7.2-16-16-16
	h-158c-8.8,0-16,7.2-16,16v20.7c0,5-4.1,9.1-9.1,9.1h-13.8v13.8c0,4.4-3.6,8-8,8s-8-3.6-8-8v-20.7c0-5,4.1-9.1,9.1-9.1H207V89.5
	c0-17.6,14.3-32,32-32h158c17.6,0,32,14.3,32,32v13.8h13.8c5,0,9.1,4.1,9.1,9.1v20.7c0,5-4.1,9.1-9.1,9.1h-13.8v52.6h13.8
	c5,0,9.1,4.1,9.1,9.1v20.7c0,5-4.1,9.1-9.1,9.1h-13.8v52.6h13.8c5,0,9.1,4.1,9.1,9.1v20.7c0,5-4.1,9.1-9.1,9.1h-13.8v105.3
	C428.8,448.1,414.5,462.5,396.9,462.5z M317.9,437.3c-30.8,0-55.8-25-55.8-55.8s25-55.8,55.8-55.8s55.8,25,55.8,55.8
	S348.7,437.3,317.9,437.3z M317.9,341.7c-21.9,0-39.8,17.9-39.8,39.8s17.9,39.8,39.8,39.8s39.8-17.9,39.8-39.8
	S339.9,341.7,317.9,341.7z M317.9,317.3c-30.8,0-55.8-25-55.8-55.8s25-55.8,55.8-55.8s55.8,25,55.8,55.8S348.7,317.3,317.9,317.3z
	 M317.9,221.7c-21.9,0-39.8,17.9-39.8,39.8s17.9,39.8,39.8,39.8s39.8-17.9,39.8-39.8S339.9,221.7,317.9,221.7z M317.9,197.3
	c-30.8,0-55.8-25-55.8-55.8c0-30.8,25-55.8,55.8-55.8s55.8,25,55.8,55.8C373.7,172.3,348.7,197.3,317.9,197.3z M317.9,101.7
	c-21.9,0-39.8,17.9-39.8,39.8s17.9,39.8,39.8,39.8s39.8-17.9,39.8-39.8S339.9,101.7,317.9,101.7z"></path>
<path d="M48.2,382.6c-5,0-9,4.1-9,9s4.1,9,9,9s9-4.1,9-9S53.1,382.6,48.2,382.6z M78.2,382.6c-5,0-9,4.1-9,9s4.1,9,9,9s9-4.1,9-9
	S83.1,382.6,78.2,382.6z M108.2,382.6c-5,0-9,4.1-9,9s4.1,9,9,9s9-4.1,9-9S113.1,382.6,108.2,382.6z M471.6,40.9c0,4.4-3.6,8-8,8
	h-3.9v3.9c0,4.4-3.6,8-8,8s-8-3.6-8-8v-3.9h-3.9c-4.4,0-8-3.6-8-8s3.6-8,8-8h3.9V29c0-4.4,3.6-8,8-8s8,3.6,8,8v3.9h3.9
	C468,32.9,471.6,36.5,471.6,40.9z M66.3,60.8c-4.4,0-8-3.6-8-8v-3.9h-3.9c-4.4,0-8-3.6-8-8s3.6-8,8-8h3.9V29c0-4.4,3.6-8,8-8
	s8,3.6,8,8v3.9h3.9c4.4,0,8,3.6,8,8s-3.6,8-8,8h-3.9v3.9C74.3,57.2,70.7,60.8,66.3,60.8z M145.3,18.3c0-5.9,4.8-10.8,10.8-10.8
	c5.9,0,10.8,4.8,10.8,10.8S162,29,156.1,29C150.2,29,145.3,24.2,145.3,18.3z M384.6,44.8c0,4.4-3.6,8-8,8h-97.2c-4.4,0-8-3.6-8-8
	s3.6-8,8-8h97.2C381,36.8,384.6,40.4,384.6,44.8z M234.2,180.6c0,4.4-3.6,8-8,8H94.2c-4.4,0-8-3.6-8-8s3.6-8,8-8h132.1
	C230.6,172.6,234.2,176.2,234.2,180.6z M234.2,152.2c0,4.4-3.6,8-8,8h-66c-4.4,0-8-3.6-8-8s3.6-8,8-8h66
	C230.6,144.2,234.2,147.8,234.2,152.2z"></path>
<g>
	<path fill="#DB81DA" class="secondary-color" d="M51.7,343.9V240.1l51.9,51.9L51.7,343.9z"></path>
	<path fill="#DB81DA" class="secondary-color" d="M135.7,468.5v-21.8h43.6v21.8H135.7z M109.2,468.5v-21.8H65.7v21.8H109.2z"></path>
</g>
</svg>