<svg version="1.1" id="Layer_1" xmlns="http://www.w3.org/2000/svg" xmlns:xlink="http://www.w3.org/1999/xlink" x="0px" y="0px" viewBox="0 0 512 512" enable-background="new 0 0 512 512" xml:space="preserve">
<linearGradient id="SVGID_1_" gradientUnits="userSpaceOnUse" x1="264.7084" y1="408.111" x2="264.7084" y2="60.3963" class="gradient-element">
	<stop offset="0" class="primary-color-gradient" style="stop-color: #FFA4ED"></stop>
	<stop offset="1" class="secondary-color-gradient" style="stop-color: #DB81DA"></stop>
</linearGradient>
<path fill="url(#SVGID_1_)" d="M95.3,282.5h82v125.6H74.5c-16.8,0-30.3-13.6-30.3-30.3v-44.2C44.2,305.3,67.1,282.5,95.3,282.5z
	 M403.3,282.5c-28.2,0-51.1,22.9-51.1,51.1v44.2c0,16.8,13.6,30.3,30.3,30.3h102.7V282.5H403.3z M310.6,60.4
	c-11,0-19.9,5.9-19.9,16.9v26.6c0,11-8.9,19.9-19.9,19.9h-72c-10.2,0-18.7,8.3-18.6,18.5c0,5,2.1,9.5,5.4,12.8
	c3.3,3.3,7.9,5.4,12.9,5.4h38.3h69.7c7,0,12.7-5.7,12.7-12.7V69C319.2,64.2,315.3,60.4,310.6,60.4z"></path>
<g>
	<path fill="#DB81DA" class="secondary-color" d="M25,27h60.9L25,87.9V27z"></path>
	<path fill="#FFA4ED" class="primary-color" d="M413.2,77.1V62.5h61.1v14.6H413.2z M474.1,45.1V30.5h-61.1v14.6H474.1z"></path>
</g>
<path d="M39.4,204.7c-4.9,0-8.8-4-8.8-8.8s4-8.8,8.8-8.8s8.8,4,8.8,8.8S44.3,204.7,39.4,204.7z M39.4,160.9c-4.9,0-8.8-4-8.8-8.8
	s4-8.8,8.8-8.8s8.8,4,8.8,8.8S44.3,160.9,39.4,160.9z M303,346.7h-73.8c-4.4,0-8-3.6-8-8s3.6-8,8-8H303c4.4,0,8,3.6,8,8
	S307.4,346.7,303,346.7z M300.9,366.4c0-4.4-3.6-8-8-8H177.3c-4.4,0-8,3.6-8,8s3.6,8,8,8h115.6C297.3,374.4,300.9,370.8,300.9,366.4
	z"></path>
<path d="M185.2,245.9v120.5c0,4.4-3.6,8-8,8c-4.4,0-8-3.6-8-8v-86.9c-1.5,1.9-3.8,3.1-6.3,3.1H48.1c-4.4,0-8-3.6-8-8s3.6-8,8-8
	h114.8c2.6,0,4.9,1.2,6.3,3.1v-23.8c0-3.5-2.8-6.3-6.3-6.3H33.8c-3.5,0-6.3,2.8-6.3,6.3v215.2c0,3.5,2.8,6.3,6.3,6.3h129.1
	c3.4,0,6.3-2.9,6.3-6.3v-49.4H48.1c-4.4,0-8-3.6-8-8s3.6-8,8-8h137.1v65.4c0,12.3-10,22.3-22.3,22.3H33.8c-12.3,0-22.3-10-22.3-22.3
	V245.9c0-12.3,10-22.3,22.3-22.3h129.1C175.2,223.6,185.2,233.6,185.2,245.9z M134.2,454.8c4.4,0,8-3.6,8-8s-3.6-8-8-8H62.5
	c-4.4,0-8,3.6-8,8s3.6,8,8,8H134.2z M485.2,374.4c4.4,0,8-3.6,8-8V245.9c0-12.3-10-22.3-22.3-22.3H421V109c0-8-6.5-14.5-14.4-14.5
	L365.1,94c0,0-0.1,0-0.1,0c-4.4,0-8,3.5-8,7.9c0,4.4,3.5,8,7.9,8.1l40.1,0.4v113.1h-63.2c-12.3,0-22.3,10-22.3,22.3v215.2
	c0,12.3,10,22.3,22.3,22.3h129.1c12.3,0,22.3-10,22.3-22.3v-65.4H356.1c-4.4,0-8,3.6-8,8s3.6,8,8,8h121.1v49.4
	c0,3.4-2.9,6.3-6.3,6.3H341.8c-3.5,0-6.3-2.8-6.3-6.3V245.9c0-3.5,2.8-6.3,6.3-6.3h129.1c3.5,0,6.3,2.8,6.3,6.3v23.8
	c-1.5-1.9-3.8-3.1-6.3-3.1H356.1c-4.4,0-8,3.6-8,8s3.6,8,8,8h114.8c2.6,0,4.9-1.2,6.3-3.1v86.9C477.2,370.8,480.8,374.4,485.2,374.4
	z M442.2,454.8c4.4,0,8-3.6,8-8s-3.6-8-8-8h-71.7c-4.4,0-8,3.6-8,8s3.6,8,8,8H442.2z M328,151.3V94.2c0-4.4-3.6-8-8-8H211.8
	c-4.4,0-8,3.6-8,8v23.2c0,4.4,3.6,8,8,8s8-3.6,8-8v-15.2H312v49.1c0,0.1-0.1,0.2-0.2,0.2H189.5c-0.1,0-0.2-0.1-0.2-0.2V53.5
	c0-0.1,0.1-0.2,0.2-0.2h41.6c5.1,0,8.1,1.4,11.8,5.5c6.9,7.5,10.9,10.8,21.2,10.8h47.7c0.1,0,0.2,0.1,0.2,0.2c0,4.4,3.6,8,8,8
	s8-3.6,8-8c0-8.9-7.2-16.2-16.2-16.2h-47.7c-4.2,0-4.3,0-9.4-5.6c-6.7-7.4-14-10.7-23.6-10.7h-41.6c-8.9,0-16.2,7.2-16.2,16.2V94
	l-75.8,0.4c-8,0-14.5,6.5-14.5,14.5v90.6c0,4.4,3.6,8,8,8s8-3.6,8-8v-89.1l74.3-0.4v41.3c0,8.9,7.2,16.2,16.2,16.2h122.3
	C320.8,167.5,328,160.2,328,151.3z"></path>
</svg>