<svg version="1.1" id="Layer_1" xmlns="http://www.w3.org/2000/svg" xmlns:xlink="http://www.w3.org/1999/xlink" x="0px" y="0px" viewBox="0 0 512 512" enable-background="new 0 0 512 512" xml:space="preserve">
<linearGradient id="SVGID_1_" gradientUnits="userSpaceOnUse" x1="292.0759" y1="457.0468" x2="292.0759" y2="38.8124" class="gradient-element">
	<stop offset="0" class="primary-color-gradient" style="stop-color: #FFA4ED"></stop>
	<stop offset="1" class="secondary-color-gradient" style="stop-color: #DB81DA"></stop>
</linearGradient>
<path fill="url(#SVGID_1_)" d="M413.4,100.1h-60.1v-12c0-19.8-16.2-36.1-36.1-36.1h0c-26.6,0-48.1,21.5-48.1,48.1v225.8
	c0,26.6-21.5,48.1-48.1,48.1h-38.2c-28.1,0-50.3,24.1-48,52.1l2.9,34.9h262.7l24.1-288.7h25v-36.1
	C449.5,116.3,433.2,100.1,413.4,100.1z"></path>
<path d="M409.8,356.3c-0.2,0-0.4,0-0.7,0c-4.4-0.4-7.7-4.2-7.3-8.6l14.7-176c0.3-4.1,3.8-7.3,8-7.3h17v-28.1
	c0-15.5-12.6-28.1-28.1-28.1h-60.1c-4.4,0-8-3.6-8-8v-12c0-15.5-12.6-28.1-28.1-28.1H221c-15.5,0-28.1,12.6-28.1,28.1v12
	c0,4.4-3.6,8-8,8h-60.1c-15.5,0-28.1,12.6-28.1,28.1v28.1h303.6c4.4,0,8,3.6,8,8s-3.6,8-8,8H88.7c-4.4,0-8-3.6-8-8v-36.1
	c0-24.3,19.8-44.1,44.1-44.1h52.1v-4c0-24.3,19.8-44.1,44.1-44.1h96.2c24.3,0,44.1,19.8,44.1,44.1v4h52.1
	c24.3,0,44.1,19.8,44.1,44.1v36.1c0,4.4-3.6,8-8,8h-17.7l-14.1,168.7C417.4,353.1,413.9,356.3,409.8,356.3z M408.4,461.6l6.2-74.9
	c0.4-4.4-2.9-8.3-7.3-8.6c-4.4-0.4-8.3,2.9-8.6,7.3l-5.6,67.5h-248l-21.4-257.3c-0.4-4.4-4.2-7.7-8.6-7.3c-4.4,0.4-7.7,4.2-7.3,8.6
	l22,264.6c0.3,4.1,3.8,7.3,8,7.3h262.7C404.6,468.9,408,465.8,408.4,461.6z"></path>
<path d="M463.1,393.2h-86.8c-4.4,0-8-3.6-8-8s3.6-8,8-8h86.8c4.4,0,8,3.6,8,8S467.5,393.2,463.1,393.2z M423.5,350.1
	c0-4.4-3.6-8-8-8h-57.4c-4.4,0-8,3.6-8,8s3.6,8,8,8h57.4C419.9,358.1,423.5,354.6,423.5,350.1z M105.7,57.4c0-4.4-3.6-8-8-8H38.5
	c-4.4,0-8,3.6-8,8s3.6,8,8,8h59.2C102.1,65.4,105.7,61.9,105.7,57.4z"></path>
<g>
	<path fill="#FFA4ED" class="primary-color" d="M40.2,430v35.1h35.1V487H40.2H18.4v-21.8V430H40.2z"></path>
	<path fill="#DB81DA" class="secondary-color" d="M30.4,194.9h21.8v145.9H30.4V194.9z"></path>
</g>
</svg>