<svg version="1.1" id="Layer_1" xmlns="http://www.w3.org/2000/svg" xmlns:xlink="http://www.w3.org/1999/xlink" x="0px" y="0px" viewBox="0 0 512 512" enable-background="new 0 0 512 512" xml:space="preserve">
<linearGradient id="SVGID_1_" gradientUnits="userSpaceOnUse" x1="290.0908" y1="427.8766" x2="288.5779" y2="210.0148" class="gradient-element">
	<stop offset="0" class="primary-color-gradient" style="stop-color: #FFA4ED"></stop>
	<stop offset="1" class="secondary-color-gradient" style="stop-color: #DB81DA"></stop>
</linearGradient>
<path fill="url(#SVGID_1_)" d="M157.1,205.1h37.8c13.7,0,22.7,14.5,16.5,26.8l-19.9,39.8c-4,8-1.7,17.7,5.4,23.1l57.3,43
	c6.6,4.9,15.6,4.9,22.2,0l57.3-43c7.1-5.4,9.4-15.1,5.4-23.1l-19.9-39.8c-6.1-12.3,2.8-26.8,16.5-26.8h114.9
	c10.2,0,18.5,8.3,18.5,18.5v202.9c0,10.2-8.3,18.5-18.5,18.5H128c-10.2,0-18.5-8.3-18.5-18.5V252.7
	C109.5,226.4,130.8,205.1,157.1,205.1z"></path>
<path d="M285.4,265.1c0-11-9-20-20-20c-11,0-20,9-20,20c0,11,9,20,20,20C276.4,285.1,285.4,276.1,285.4,265.1z M261.4,265.1
	c0-2.2,1.8-4,4-4c2.2,0,4,1.8,4,4c0,2.2-1.8,4-4,4C263.2,269.1,261.4,267.3,261.4,265.1z M253.4,333.1h24c4.4,0,8-3.6,8-8v-21
	c14.5-7.5,24-22.5,24-39c0-24.2-19.7-44-44-44c-24.3,0-44,19.7-44,44c0,16.5,9.4,31.6,24,39v21C245.4,329.5,249,333.1,253.4,333.1z
	 M237.4,265.1c0-15.4,12.6-28,28-28c15.4,0,28,12.6,28,28c0,11.7-7.5,22.2-18.7,26.2c-3.2,1.1-5.3,4.2-5.3,7.5v18.2h-8v-18.2
	c0-3.4-2.1-6.4-5.3-7.5C244.9,287.3,237.4,276.8,237.4,265.1z M53.5,301.1V193.1c0-50.3,23.5-78,43.3-92.4
	c29.8-21.8,63.2-23.5,72.7-23.5h191.9c27.2,0,50.5,6.8,69.3,20.2c3.6,2.6,4.4,7.6,1.9,11.2s-7.6,4.4-11.2,1.9
	c-16-11.5-36.2-17.3-60-17.3H169.5c-34.6,0-99.9,20.9-99.9,99.9v99.9h95.9c1.7,0,3.4,0.6,4.8,1.6l95.1,71.4l95.1-71.4
	c3.5-2.7,8.5-1.9,11.2,1.6c2.7,3.5,1.9,8.5-1.6,11.2l-99.9,75c-1.4,1.1-3.1,1.6-4.8,1.6s-3.4-0.5-4.8-1.6l-97.8-73.4H61.5
	C57.1,309.1,53.5,305.5,53.5,301.1z M53.5,349.7v-24.7c0-4.4,3.6-8,8-8s8,3.6,8,8v24.7c0,4.4-3.6,8-8,8S53.5,354.1,53.5,349.7z
	 M477.3,277.1V445c0,4.4-3.6,8-8,8H61.5c-4.4,0-8-3.6-8-8v-60.4c0-4.4,3.6-8,8-8s8,3.6,8,8V437h391.8V285.1h-92.5c-4.4,0-8-3.6-8-8
	s3.6-8,8-8h100.5C473.7,269.1,477.3,272.7,477.3,277.1z M339,289.1l-38-75.9h-71.2l-38,75.9c-2,4-6.8,5.6-10.7,3.6
	c-4-2-5.6-6.8-3.6-10.7l40.2-80.4c1.4-2.7,4.1-4.4,7.2-4.4h81.1c3,0,5.8,1.7,7.2,4.4l40.2,80.4c2,4,0.4,8.8-3.6,10.7
	c-1.1,0.6-2.4,0.8-3.6,0.8C343.2,293.5,340.4,291.9,339,289.1z M477.3,193.1v60c0,4.4-3.6,8-8,8s-8-3.6-8-8v-60c0-7.6-1-23-8.1-40.7
	c-1.6-4.1,0.4-8.8,4.5-10.4c4.1-1.6,8.8,0.4,10.4,4.5C476.1,166.7,477.3,184.4,477.3,193.1z M170,277.1c0,4.4-3.6,8-8,8H85.5
	c-4.4,0-8-3.6-8-8s3.6-8,8-8H162C166.5,269.1,170,272.7,170,277.1z"></path>
<g>
	<path fill="#DB81DA" class="secondary-color" d="M120.8,61.2H9.6V17.6h111.2V61.2z"></path>
	<path fill="#DB81DA" class="secondary-color" d="M53.2,131.2H9.6V87.7h43.6V131.2z"></path>
</g>
<path d="M107.6,384.6c0,4.4-3.6,8-8,8H25.3c-4.4,0-8-3.6-8-8s3.6-8,8-8h74.3C104,376.6,107.6,380.2,107.6,384.6z M99.6,341.7H64.8
	c-4.4,0-8,3.6-8,8s3.6,8,8,8h34.9c4.4,0,8-3.6,8-8S104,341.7,99.6,341.7z M428.6,83.9c-4.4,0-8,3.6-8,8c0,11.4-9.3,20.8-20.8,20.8
	c-4.4,0-8,3.6-8,8s3.6,8,8,8c20.3,0,36.8-16.5,36.8-36.8C436.6,87.5,433,83.9,428.6,83.9z M478.6,112.6c-11.4,0-20.8-9.3-20.8-20.8
	c0-4.4-3.6-8-8-8s-8,3.6-8,8c0,20.3,16.5,36.8,36.8,36.8c4.4,0,8-3.6,8-8S483,112.6,478.6,112.6z M478.6,133.9
	c-20.3,0-36.8,16.5-36.8,36.8c0,4.4,3.6,8,8,8s8-3.6,8-8c0-11.4,9.3-20.8,20.8-20.8c4.4,0,8-3.6,8-8S483,133.9,478.6,133.9z
	 M399.9,133.9c-4.4,0-8,3.6-8,8s3.6,8,8,8c11.4,0,20.8,9.3,20.8,20.8c0,4.4,3.6,8,8,8s8-3.6,8-8
	C436.6,150.4,420.1,133.9,399.9,133.9z M484.4,29.1h-3.9v-3.9c0-4.4-3.6-8-8-8s-8,3.6-8,8v3.9h-3.9c-4.4,0-8,3.6-8,8s3.6,8,8,8h3.9
	V49c0,4.4,3.6,8,8,8s8-3.6,8-8v-3.9h3.9c4.4,0,8-3.6,8-8S488.8,29.1,484.4,29.1z"></path>
</svg>