<svg version="1.1" id="Layer_1" xmlns="http://www.w3.org/2000/svg" xmlns:xlink="http://www.w3.org/1999/xlink" x="0px" y="0px" viewBox="0 0 512 512" enable-background="new 0 0 512 512" xml:space="preserve">
<linearGradient id="SVGID_1_" gradientUnits="userSpaceOnUse" x1="282.8582" y1="412.038" x2="282.8582" y2="112.9561" class="gradient-element">
	<stop offset="0" class="primary-color-gradient" style="stop-color: #FFA4ED"></stop>
	<stop offset="1" class="secondary-color-gradient" style="stop-color: #DB81DA"></stop>
</linearGradient>
<path fill="url(#SVGID_1_)" d="M352,137.8l-7.8-11.6c-3.6-5.3-11.6-4.6-14.2,1.3l-12.8,29.8c-5.9,13.6-18.8,22.9-33.5,24l-4.1,0.3
	l4.5,6.4L264,203.7l76.1-6.1l5.7-0.5l1.8-4.3l29.5-68.5L352,137.8z M368.1,320.1 M133.3,401.5c3.5,0.2,7.1,0.2,10.7,0l28.7-0.4
	c12.2-0.2,22-10.2,21.9-22.5l-0.2-14.7c-0.2-16.2,12.8-29.5,29.1-29.7l8.4-0.1l0,2.6l0.5,33.2l0.6,48.6l-50.9,0.7
	c-18.9,0.7-37.2-2-47.1-14.2L133.3,401.5 M295.4,393.8l-22-0.1l28.5,44.8l2.9-27.6l50.1,0.3l33.9-50.2l41.8-62
	c5.2-14.4-1.8-31-11.9-46.3l-26.2-42l-6,3.7c-7.1,4.5-9.3,13.9-4.8,21h0c10.1,15.4,17.1,32,11.9,46.3l-63.1,93.6
	C322.6,387,309.5,393.9,295.4,393.8z"></path>
<path fill="#FFA4ED" class="primary-color" d="M419.3,28.7h27.4v27.4h-27.4V28.7z M488,56.1V28.7h-27.4v27.4H488z M488,98.3V70.8h-27.4v27.4H488z
	 M62,433.1v-27.4H34.6v27.4H62z M34.6,475.3v-27.4H62v27.4H34.6z"></path>
<path d="M438.6,190.2h-55c-4.4,0-8-3.6-8-8s3.6-8,8-8h55c4.4,0,8,3.6,8,8S443,190.2,438.6,190.2z M492,438.1H399c-4.4,0-8,3.6-8,8
	s3.6,8,8,8H492c4.4,0,8-3.6,8-8S496.4,438.1,492,438.1z M142,43c0,4.4-3.6,8-8,8H41c-4.4,0-8-3.6-8-8s3.6-8,8-8H134
	C138.4,35,142,38.6,142,43z M142,83c0,4.4-3.6,8-8,8H41c-4.4,0-8-3.6-8-8s3.6-8,8-8H134C138.4,75,142,78.6,142,83z M466.7,158.5
	c-4.2-4.2-4.2-11,0-15.2s11-4.2,15.2,0c4.2,4.2,4.2,11,0,15.2C477.7,162.7,470.9,162.7,466.7,158.5z M451,315.9c0-4.4,3.6-8,8-8h3.9
	V304c0-4.4,3.6-8,8-8s8,3.6,8,8v3.9h3.9c4.4,0,8,3.6,8,8s-3.6,8-8,8h-3.9v3.9c0,4.4-3.6,8-8,8s-8-3.6-8-8v-3.9H459
	C454.6,323.9,451,320.3,451,315.9z"></path>
<path d="M301.3,444.1c-2.7,0-5.3-1.4-6.7-3.7l-42.6-66.9c-1.6-2.5-1.7-5.7-0.2-8.3l40.6-71.3c1.8-3.1,5.3-4.6,8.8-3.8
	c3.4,0.8,6,3.8,6.2,7.3l1.1,17.9l23.8-0.4c4.4-0.1,8.1,3.4,8.1,7.9c0.1,4.4-3.4,8.1-7.9,8.1l-31.4,0.5c-3.9,0.1-7.2-2.7-8-6.4
	l-25,44l27.7,43.5l0.6-5.6c0.4-4.1,3.9-7.2,8-7.2l47.3,0.3l29.5-43.8L316,250.8c-2.3-3.7-1.2-8.7,2.6-11l71.5-44.7
	c3.7-2.3,8.7-1.2,11,2.5l26.9,43.1c14.3,21.7,18.5,39.6,13,54.7c-0.2,0.6-0.5,1.2-0.9,1.7l-42.9,63.6c-0.1,0.1-0.1,0.2-0.2,0.3
	l-34.6,51.4c-0.1,0.2-0.2,0.3-0.4,0.5c-0.7,1-1.6,1.7-2.7,2.2c-0.9,0.5-2,0.8-3.1,0.9c-0.2,0-0.5,0-0.7,0l-44.2-0.3l-2.2,21.1
	c-0.4,3.4-2.8,6.2-6.1,7C302.5,444,301.9,444.1,301.3,444.1z M333.8,249.1l57.1,92.5l35.5-52.6c3.1-9.9-0.7-22.9-11.7-39.7
	c0-0.1-0.1-0.1-0.1-0.2l-22.7-36.3L333.8,249.1z M175.4,424.9c-22.9,0-38.7-5.7-48-17.3c-0.4-0.5-0.8-1.1-1-1.7l-32.2-69.7
	c-0.1-0.1-0.1-0.2-0.2-0.3l-26-56.2c-0.1-0.2-0.2-0.4-0.3-0.7c-0.4-1.1-0.6-2.2-0.5-3.3c0.1-1.1,0.4-2.2,0.9-3.2
	c0.1-0.2,0.2-0.4,0.4-0.6l23.1-37.6l-16.9-12.9c-2.7-2.1-3.8-5.6-2.8-8.8c1.1-3.2,4-5.5,7.4-5.5l79.2-1.7c3-0.1,5.7,1.5,7.2,4.1
	l39.9,71.7c1.7,3.1,1.2,6.9-1.3,9.5c-2.5,2.5-6.3,3.1-9.4,1.5l-15.9-8.3l-16.4,27.6c-2.3,3.8-7.2,5-11,2.8c-3.8-2.3-5-7.2-2.8-11
	l20.3-34.1c2-3.3,6-4.7,9.5-3.5l-24.6-44.2l-51.5,1.1l4.4,3.4c3.3,2.5,4.1,7.1,2,10.6l-24.8,40.3l22.1,48l123.9-1c0,0,0,0,0.1,0
	c4.4,0,7.9,3.5,8,7.9l1.1,84.4c0,2.1-0.8,4.2-2.3,5.7c-1.5,1.5-3.5,2.4-5.6,2.4l-50.8,0.7C179,424.8,177.2,424.9,175.4,424.9z
	 M140.4,398.2c6.9,7.8,20,11.3,40,10.5c0.1,0,0.1,0,0.2,0l42.9-0.6l-0.9-68.4l-108.7,0.8L140.4,398.2z M206.9,218.7
	c-1.1,0-2.2-0.2-3.2-0.7l-77.2-34c-1.9-0.9-3.5-2.4-4.2-4.4c-0.8-2-0.7-4.2,0.1-6.1l20.5-46.5c9.9-24,22.3-37.6,37.9-41.5
	c0.6-0.2,1.3-0.2,1.9-0.2l76.7-0.3c0.1,0,0.2,0,0.4,0l62-0.3c0.2,0,0.5,0,0.7,0c1.2,0.1,2.2,0.4,3.2,0.9c0.9,0.5,1.8,1.2,2.5,2.1
	c0.2,0.2,0.3,0.4,0.5,0.6l24.6,36.7l18.7-10c3-1.6,6.7-1.1,9.2,1.2c2.5,2.3,3.3,5.9,1.9,9.1l-31.4,72.8c-1.2,2.7-3.8,4.6-6.7,4.8
	l-81.8,6.5c-3.5,0.3-6.8-1.8-8.1-5.1c-1.3-3.3-0.2-7,2.6-9.2l14.1-11l-19.6-27.7c-2.6-3.6-1.7-8.6,1.9-11.2
	c3.6-2.6,8.6-1.7,11.2,1.9l24,34c2.2,3.2,1.9,7.5-0.8,10.2l50.4-4l20.4-47.3l-4.9,2.6c-3.6,1.9-8.1,0.8-10.4-2.6l-26.3-39.2
	l-52.8,0.2l-50.6,113.1C212.8,216.9,209.9,218.7,206.9,218.7z M140.2,172.5l62.6,27.6l44.4-99.2l-63.4,0.3c-10,3-18.6,13.5-26.2,32
	c0,0.1,0,0.1-0.1,0.2L140.2,172.5z"></path>
</svg>