<svg version="1.1" id="Layer_1" xmlns="http://www.w3.org/2000/svg" xmlns:xlink="http://www.w3.org/1999/xlink" x="0px" y="0px" viewBox="0 0 512 512" enable-background="new 0 0 512 512" xml:space="preserve">
<path d="M101,374.6H43.6c-4.4,0-8-3.6-8-8s3.6-8,8-8H101c4.4,0,8,3.6,8,8S105.4,374.6,101,374.6z M189.1,403.5h-86.8
	c-4.4,0-8,3.6-8,8s3.6,8,8,8h86.8c4.4,0,8-3.6,8-8S193.5,403.5,189.1,403.5z M57.2,65.3c5.9,0,10.8-4.8,10.8-10.8
	c0-5.9-4.8-10.8-10.8-10.8s-10.8,4.8-10.8,10.8C46.5,60.4,51.3,65.3,57.2,65.3z M447.8,427.3h-15.8v-15.8c0-4.4-3.6-8-8-8
	s-8,3.6-8,8v15.8h-15.8c-4.4,0-8,3.6-8,8s3.6,8,8,8h15.8v15.8c0,4.4,3.6,8,8,8s8-3.6,8-8v-15.8h15.8c4.4,0,8-3.6,8-8
	S452.3,427.3,447.8,427.3z M85.8,440.8h-3.9v-3.9c0-4.4-3.6-8-8-8s-8,3.6-8,8v3.9H62c-4.4,0-8,3.6-8,8s3.6,8,8,8h3.9v3.9
	c0,4.4,3.6,8,8,8s8-3.6,8-8v-3.9h3.9c4.4,0,8-3.6,8-8S90.2,440.8,85.8,440.8z"></path>
<g>
	<path fill="#FFA4ED" class="primary-color" d="M465.3,112.4h21.8v56.9h-21.8V112.4z M355,57.3H412V35.5H355V57.3z M430.1,35.5v21.8h35.1v36.9h21.8V57.3
		v-20v-1.8H430.1z"></path>
	<path fill="#DB81DA" class="secondary-color" d="M45.3,144.4h23.7v116.4H45.3V144.4z"></path>
</g>
<linearGradient id="SVGID_1_" gradientUnits="userSpaceOnUse" x1="321.9209" y1="402.2255" x2="327.984" y2="158.1834" class="gradient-element">
	<stop offset="0" class="primary-color-gradient" style="stop-color: #FFA4ED"></stop>
	<stop offset="1" class="secondary-color-gradient" style="stop-color: #DB81DA"></stop>
</linearGradient>
<path fill="url(#SVGID_1_)" d="M252.5,167.5c63.4,0,99.8,36.4,99.8,99.8v51.6l56.3,70.4c0,0-134,0-122.9,0V256.2
	c0-29.6-15.6-44.4-33.3-44.4h-11.1v-44.4H252.5z"></path>
<path d="M414.9,384.3c1.9,2.4,2.3,5.7,1,8.5c-1.3,2.8-4.1,4.5-7.2,4.5H285.7c-19.6,0-27,10.9-39.2,29.1l-0.1,0.1
	c-16.7,25.1-39.7,59.5-104.9,59.5h-14.2c-2.5,0-4.8-1.1-6.3-3.1c-1.5-1.9-2.1-4.5-1.5-6.9l10.3-41.2c1.1-4.3,5.4-6.9,9.7-5.8
	c4.3,1.1,6.9,5.4,5.8,9.7l-7.8,31.2h3.9c56.6,0,75.2-27.9,91.6-52.4l0.1-0.1c13-19.4,24.3-36.1,52.5-36.1H392L346,323.9
	c-1.1-1.4-1.8-3.2-1.8-5v-51.6c0-59.2-32.6-91.8-91.8-91.8c-28.8,0-52.6,6.9-70.6,20.6c-3.5,2.7-8.5,2-11.2-1.5
	c-2.7-3.5-2-8.5,1.5-11.2c20.8-15.8,47.8-23.8,80.2-23.8c33.3,0,60.7,9.8,79.3,28.5c18.6,18.6,28.5,46.1,28.5,79.3v48.8L414.9,384.3
	z M181,322.8c0,4.4,3.6,8,8,8h19.1c43.2,0,60.3-39.7,63.3-60.8l1.8-12.6c0.3-2.3-0.4-4.6-1.9-6.4c-1.5-1.7-3.7-2.8-6-2.8h-82.4
	c-3.7,0-6.9,2.5-7.8,6.1l-38.8,155.3c-1.1,4.3,1.5,8.6,5.8,9.7c0.7,0.2,1.3,0.2,1.9,0.2c3.6,0,6.8-2.4,7.8-6.1l37.3-149.2H256
	l-0.5,3.5c-2.3,16.3-15.2,47-47.4,47H189C184.6,314.8,181,318.4,181,322.8z M471.1,383.8c-60.4-63.2-66.4-92.7-66.4-149.7
	c0-56.2-14-99.8-41.7-129.4c-27.8-29.8-68.7-44.9-121.6-44.9c-77,0-136.1,32.1-142.6,35.8l-10.5,6.1c-1.9,1.1-3.3,3-3.8,5.2
	c-0.5,2.2,0,4.5,1.3,6.3l65.2,92c-9.4,12.8-16.4,28.3-20.9,46.2l-17.3,69.5c-0.6,2.4-0.1,4.9,1.5,6.9c1.5,1.9,3.8,3.1,6.3,3.1h22.8
	c4.4,0,8-3.6,8-8s-3.6-8-8-8h-12.6l14.8-59.6c4.5-17.8,11.7-32.9,21.5-44.8c2.3-2.8,2.5-6.8,0.4-9.7l-63.6-89.7l2.9-1.7
	c2.4-1.4,60.5-33.7,134.7-33.7c97.7,0,147.2,53.3,147.2,158.3c0,31.1,1.9,53.8,11.6,78c9.9,24.8,28.2,50.3,59.3,82.8
	c1.6,1.6,3.7,2.5,5.8,2.5c2,0,4-0.7,5.5-2.2C474,392,474.1,387,471.1,383.8z M192.6,308.4c0.7,0.2,1.3,0.2,1.9,0.2
	c3.6,0,6.8-2.4,7.8-6.1l4-16.1h31.3c4.4,0,8-3.6,8-8s-3.6-8-8-8h-37.6c-3.7,0-6.9,2.5-7.8,6.1l-5.5,22.2
	C185.8,302.9,188.4,307.3,192.6,308.4z"></path>
</svg>