<svg version="1.1" id="Layer_1" xmlns="http://www.w3.org/2000/svg" xmlns:xlink="http://www.w3.org/1999/xlink" x="0px" y="0px" viewBox="0 0 512 512" enable-background="new 0 0 512 512" xml:space="preserve">
<linearGradient id="SVGID_1_" gradientUnits="userSpaceOnUse" x1="269.8383" y1="439.5176" x2="269.8383" y2="64.4883" class="gradient-element">
	<stop offset="0" class="primary-color-gradient" style="stop-color: #FFA4ED"></stop>
	<stop offset="1" class="secondary-color-gradient" style="stop-color: #DB81DA"></stop>
</linearGradient>
<path fill="url(#SVGID_1_)" d="M332.9,150.6l0.9-55.2c0.1-6.8,6.2-18.7,13-17.6c0,0,30.3,4.3,47.9,26.8c18.9-4,36.7-11.3,52.8-21.4
	c-6.2,20.6-19.4,37.8-36.5,48.7c16.8-2.2,32.8-6.9,47.7-13.9c-11.1,17.7-25.3,33.2-41.5,45.6c0.2,3.8,0.3,7.6,0.3,11.4
	c0,116.4-83.6,250.6-236.5,250.6c-35.6,0-69.5-8.4-99.8-23.4l25.1-2.8c114.8-12.8,207.5-101,224-215.3
	C331.9,172.5,332.8,161.3,332.9,150.6z"></path>
<path d="M180.8,433.5c-46.9,0-92.5-14.2-131.9-41c-3.1-2.1-4.3-6-3-9.4c1.3-3.5,4.8-5.6,8.5-5.1c6.2,0.8,12.5,1.2,18.8,1.2
	c29.6,0,57.9-8.4,82.8-24.5c-30.3-7.9-55.1-31.8-64.8-64c-0.8-2.7-0.2-5.6,1.7-7.7c1.9-2.1,4.7-3,7.5-2.5c0.9,0.2,1.8,0.3,2.7,0.5
	c-25.2-17.4-41.4-47.4-41.4-80.5c0,0,0-0.1,0-0.1l0-1.1c0-2.8,1.6-5.5,4.1-6.8c2.5-1.4,5.5-1.4,8,0.1c2.6,1.5,5.3,2.9,8.1,4.1
	c-12.5-16.7-19.5-37.6-19.5-59.5c0-16.9,4.2-33.6,12.3-48.1c1.3-2.4,3.7-3.9,6.4-4.1c2.7-0.2,5.3,1,7,3.1
	c38.7,50.3,94.9,82.1,155.5,88.1c-0.4-3.7-0.6-7.5-0.6-11.3c0-53,40.9-96.1,91.2-96.1c23.6,0,46.5,9.8,63.4,27
	c16.1-3.9,31.5-10.4,45.8-19.3c2.8-1.8,6.5-1.6,9.1,0.4c2.7,2,3.8,5.5,2.8,8.7c-3.5,11.8-9.2,22.6-16.5,32
	c5.7-1.9,11.2-4.1,16.7-6.7c3.2-1.5,7-0.7,9.4,1.9c2.4,2.7,2.7,6.6,0.8,9.6c-11,17.4-24.4,32.5-40.1,45.1c0.1,2.5,0.1,5,0.1,7.6
	c0,62.7-22.9,126.1-62.8,174c-21.7,26.1-47.5,46.6-76.8,60.9C253.9,425.6,218.6,433.5,180.8,433.5z M84.4,394.8
	c30.1,14.9,62.9,22.7,96.4,22.7c143.1,0,228.5-123.3,228.5-242.6c0-3.8-0.1-7.5-0.2-11c-0.1-2.6,1-5.1,3.1-6.7
	c8.7-6.6,16.6-14.1,23.8-22.3c-7.9,2.2-16,3.9-24.2,4.9c-3.7,0.5-7.3-1.7-8.5-5.2c-1.3-3.5,0.1-7.5,3.2-9.5
	c9.6-6.1,17.7-14.2,23.8-23.8c-11,4.9-22.4,8.6-34.1,11.1c-2.8,0.6-5.7-0.4-7.6-2.5c-14.4-16.2-33.8-25.1-54.7-25.1
	c-41.4,0-75.2,35.9-75.2,80.1c0,6.3,0.7,12.5,2,18.3c0.5,2.4-0.1,5-1.7,6.9c-1.6,1.9-4,2.9-6.5,2.8c-64.8-3.4-125.7-34.2-169-85
	c-3.4,9.3-5.2,19.2-5.2,29.2c0,26.9,12.6,51.9,33.6,66.8c2.9,2,4.1,5.7,2.9,9.1c-1.1,3.4-4.4,5.6-7.9,5.4
	c-9.7-0.4-19.4-2.4-28.5-5.9c4.7,32.8,28.3,59.9,59.5,66.5c3.6,0.8,6.2,3.9,6.3,7.5c0.1,3.7-2.2,7-5.8,8c-8.9,2.6-18.2,3.7-27.5,3.3
	c12.4,26,37.5,43.1,65.6,43.7c3.3,0.1,6.3,2.2,7.4,5.4c1.1,3.2,0.1,6.7-2.4,8.8C153.4,379.1,120,392.5,84.4,394.8z"></path>
<g>
	<path fill="#FFA4ED" class="primary-color" d="M19.5,495.7v-21.8h56.9v21.8H19.5z M154.3,495.7v-21.8H97.4v21.8H154.3z"></path>
	<path fill="#DB81DA" class="secondary-color" d="M175.8,495.7v-21.8h244.6v21.8H175.8z"></path>
</g>
<path d="M297.9,36.2c-41.4,0-75.2,35.9-75.2,80.1c0,6.3,0.7,12.5,2,18.3c0.6,2.5-0.1,5.1-1.8,7.1c-1.5,1.7-3.7,2.7-6,2.7
	c-0.3,0-0.6,0-0.8,0c-46.5-4.9-92.9-42.4-112.7-91.1c-1.7-4.1,0.3-8.8,4.4-10.4c4.1-1.7,8.8,0.3,10.4,4.4
	c16.2,39.8,51.8,71.1,89.1,79.5c-0.3-3.4-0.5-6.9-0.5-10.4c0-53,40.9-96.1,91.2-96.1c4.4,0,8,3.6,8,8S302.3,36.2,297.9,36.2z
	 M476.2,401.4h-87.6c-4.4,0-8,3.6-8,8s3.6,8,8,8h87.6c4.4,0,8-3.6,8-8S480.6,401.4,476.2,401.4z M420.4,433.7H307.6
	c-4.4,0-8,3.6-8,8s3.6,8,8,8h112.8c4.4,0,8-3.6,8-8S424.8,433.7,420.4,433.7z M482.4,306.6h-15.8v-15.8c0-4.4-3.6-8-8-8s-8,3.6-8,8
	v15.8h-15.8c-4.4,0-8,3.6-8,8s3.6,8,8,8h15.8v15.8c0,4.4,3.6,8,8,8s8-3.6,8-8v-15.8h15.8c4.4,0,8-3.6,8-8S486.8,306.6,482.4,306.6z
	 M74.4,50.2c0,14.6-11.8,26.4-26.4,26.4S21.6,64.7,21.6,50.2S33.4,23.8,48,23.8S74.4,35.6,74.4,50.2z M58.4,50.2
	c0-5.7-4.7-10.4-10.4-10.4s-10.4,4.7-10.4,10.4S42.3,60.6,48,60.6S58.4,55.9,58.4,50.2z M43,330.6c0,5-4.1,9-9,9s-9-4.1-9-9
	s4.1-9,9-9S43,325.6,43,330.6z M73,330.6c0,5-4.1,9-9,9s-9-4.1-9-9s4.1-9,9-9S73,325.6,73,330.6z"></path>
</svg>