<svg version="1.1" id="Layer_1" xmlns="http://www.w3.org/2000/svg" xmlns:xlink="http://www.w3.org/1999/xlink" x="0px" y="0px" viewBox="0 0 512 512" enable-background="new 0 0 512 512" xml:space="preserve">
<path d="M495.4,15.5c0,4.4-3.6,8-8,8h-86.8c-4.4,0-8-3.6-8-8s3.6-8,8-8h86.8C491.8,7.5,495.4,11.1,495.4,15.5z M183.1,472.5H17.5
	c-4.4,0-8,3.6-8,8s3.6,8,8,8h165.6c4.4,0,8-3.6,8-8S187.5,472.5,183.1,472.5z M112.9,123.5h57.4c4.4,0,8-3.6,8-8s-3.6-8-8-8h-57.4
	c-4.4,0-8,3.6-8,8S108.4,123.5,112.9,123.5z M20.4,171h86.1c4.4,0,8-3.6,8-8s-3.6-8-8-8H20.4c-4.4,0-8,3.6-8,8S15.9,171,20.4,171z
	 M379.5,445.9h-15.8v-15.8c0-4.4-3.6-8-8-8s-8,3.6-8,8v15.8h-15.8c-4.4,0-8,3.6-8,8s3.6,8,8,8h15.8v15.8c0,4.4,3.6,8,8,8s8-3.6,8-8
	v-15.8h15.8c4.4,0,8-3.6,8-8S383.9,445.9,379.5,445.9z M31.3,64.9H47v15.8c0,4.4,3.6,8,8,8s8-3.6,8-8V64.9h15.8c4.4,0,8-3.6,8-8
	s-3.6-8-8-8H63V33.2c0-4.4-3.6-8-8-8s-8,3.6-8,8v15.8H31.3c-4.4,0-8,3.6-8,8S26.8,64.9,31.3,64.9z"></path>
<g>
	<path fill="#DB81DA" class="secondary-color" d="M98.4,429.7v21.8H11.7v-21.8H98.4z"></path>
	<path fill="#DB81DA" class="secondary-color" d="M435.2,491.4l56.9-56.9v56.9H435.2z"></path>
</g>
<g>
	<linearGradient id="SVGID_1_" gradientUnits="userSpaceOnUse" x1="269.1396" y1="414.7903" x2="269.1396" y2="235.421" class="gradient-element">
		<stop offset="0" class="primary-color-gradient" style="stop-color: #FFA4ED"></stop>
		<stop offset="1" class="secondary-color-gradient" style="stop-color: #DB81DA"></stop>
	</linearGradient>
	<path fill="url(#SVGID_1_)" d="M194.3,242.9v114.5c0,11.4,6.9,21.8,17.5,25.8c9.7,3.7,16.1,9.5,22.7,15.5
		c11.1,10.2,23.8,21.7,50.9,21.7c0.5,0,60.2,3.6,58.6-74.4c-1.1-54.3-40.6-110.7-127.9-122.2C204.5,222.3,194.3,231.2,194.3,242.9z
		 M238,314.2c-11.8,1.5-21.9-8.5-20.3-20.3c1-8.1,7.5-14.6,15.6-15.6c11.8-1.5,21.9,8.5,20.3,20.3
		C252.6,306.6,246.1,313.1,238,314.2z M287.6,346c-10.9,1.4-20.2-7.9-18.8-18.8c1-7.5,7-13.5,14.4-14.4c10.9-1.4,20.2,7.9,18.8,18.8
		C301,339,295,345,287.6,346z"></path>
	<linearGradient id="SVGID_2_" gradientUnits="userSpaceOnUse" x1="413.3628" y1="256.2786" x2="413.3628" y2="76.8982">
		<stop offset="0" class="primary-color-gradient" style="stop-color: #FFA4ED"></stop>
		<stop offset="1" class="secondary-color-gradient" style="stop-color: #DB81DA"></stop>
	</linearGradient>
	<path fill="url(#SVGID_2_)" d="M338.7,84.3v114.5c0,11.4,6.9,21.8,17.5,25.8c9.7,3.7,16.1,9.5,22.7,15.5
		c11.1,10.2,23.8,21.7,50.9,21.7c0.5,0,59.7,4.2,58.2-73.9c-1.1-54.3-40.1-111.2-127.5-122.7C349,63.7,338.7,72.7,338.7,84.3z
		 M382.5,155.6c-11.8,1.5-21.9-8.5-20.3-20.3c1-8.1,7.5-14.6,15.6-15.6c11.8-1.5,21.9,8.5,20.3,20.3
		C397,148.1,390.6,154.6,382.5,155.6z M432,187.4c-10.9,1.4-20.2-7.9-18.8-18.8c1-7.5,7-13.5,14.4-14.4c10.9-1.4,20.2,7.9,18.8,18.8
		C445.5,180.5,439.5,186.5,432,187.4z"></path>
</g>
<path d="M85,332.3h15.1v15.1c0,4.4,3.6,8,8,8h23.1c4.4,0,8-3.6,8-8v-15.1h15.1c4.4,0,8-3.6,8-8v-23.1c0-4.4-3.6-8-8-8h-15.1v-15.1
	c0-4.4-3.6-8-8-8h-23.1c-4.4,0-8,3.6-8,8v15.1H85c-4.4,0-8,3.6-8,8v23.1C77,328.7,80.6,332.3,85,332.3z M93,309.2h15.1
	c4.4,0,8-3.6,8-8v-15.1h7.1v15.1c0,4.4,3.6,8,8,8h15.1v7.1h-15.1c-4.4,0-8,3.6-8,8v15.1h-7.1v-15.1c0-4.4-3.6-8-8-8H93V309.2z
	 M235.7,268.4c-15.3,0-27.8,12.5-27.8,27.8s12.5,27.8,27.8,27.8s27.8-12.5,27.8-27.8S251,268.4,235.7,268.4z M235.7,308
	c-6.5,0-11.8-5.3-11.8-11.8s5.3-11.8,11.8-11.8s11.8,5.3,11.8,11.8S242.2,308,235.7,308z M285.4,357.1c15.3,0,27.8-12.5,27.8-27.8
	s-12.5-27.8-27.8-27.8c-15.3,0-27.8,12.5-27.8,27.8S270,357.1,285.4,357.1z M285.4,317.5c6.5,0,11.8,5.3,11.8,11.8
	s-5.3,11.8-11.8,11.8s-11.8-5.3-11.8-11.8S278.9,317.5,285.4,317.5z M229.5,173.8h15.1v15.1c0,4.4,3.6,8,8,8h23.1c4.4,0,8-3.6,8-8
	v-15.1h15.1c4.4,0,8-3.6,8-8v-23.1c0-4.4-3.6-8-8-8h-15.1v-15.1c0-4.4-3.6-8-8-8h-23.1c-4.4,0-8,3.6-8,8v15.1h-15.1
	c-4.4,0-8,3.6-8,8v23.1C221.5,170.2,225,173.8,229.5,173.8z M237.5,150.7h15.1c4.4,0,8-3.6,8-8v-15.1h7.1v15.1c0,4.4,3.6,8,8,8h15.1
	v7.1h-15.1c-4.4,0-8,3.6-8,8v15.1h-7.1v-15.1c0-4.4-3.6-8-8-8h-15.1V150.7z M429.8,198.6c15.3,0,27.8-12.5,27.8-27.8
	S445.1,143,429.8,143S402,155.5,402,170.8S414.5,198.6,429.8,198.6z M429.8,159c6.5,0,11.8,5.3,11.8,11.8s-5.3,11.8-11.8,11.8
	s-11.8-5.3-11.8-11.8S423.3,159,429.8,159z M380.1,109.9c-15.3,0-27.8,12.5-27.8,27.8c0,15.3,12.5,27.8,27.8,27.8
	c15.3,0,27.8-12.5,27.8-27.8C407.9,122.4,395.4,109.9,380.1,109.9z M380.1,149.5c-6.5,0-11.8-5.3-11.8-11.8
	c0-6.5,5.3-11.8,11.8-11.8c6.5,0,11.8,5.3,11.8,11.8C391.9,144.2,386.6,149.5,380.1,149.5z M495.8,187.4c0,41.7-17.6,62-32.4,71.6
	c-16.5,10.8-32.9,10.9-33.6,10.9c-30.3,0-44.7-13.2-56.3-23.8c-10.8-9.8-19.4-17.6-43.1-17.6c-19.8,0-29,5.4-37.8,12.9
	c15,10,27.4,22.6,37.1,37.6c21.4,33.2,21.6,66.6,21.6,66.9c0,41.7-17.6,62-32.4,71.6c-16.5,10.8-32.9,10.9-33.6,10.9
	c-30.3,0-44.7-13.2-56.3-23.8c-10.8-9.8-19.4-17.6-43.1-17.6c-23.8,0-32.3,7.8-43.1,17.6c-11.6,10.6-26,23.8-56.3,23.8
	c-0.7,0-17-0.1-33.6-10.9c-14.8-9.7-32.4-29.9-32.4-71.6c0-0.5,0.5-52,41.3-90.7c3.2-3,8.3-2.9,11.3,0.3c3,3.2,2.9,8.3-0.3,11.3
	c-35.4,33.6-36.3,78.6-36.3,79.1c0,64.9,48,66.5,50.1,66.5c24,0,34.9-10,45.4-19.6c11.8-10.8,24-21.8,53.9-21.8
	c30,0,42.1,11.1,53.9,21.7c0,0,0.1,0.1,0.1,0.1c10.5,9.6,21.3,19.6,45.4,19.6c2,0,50-1.6,50-66.5c0-0.3-0.5-29.8-19.5-58.8
	C291,249,247.3,229.7,186,229.7c-20.4,0-39.2,2.2-55.9,6.6c-4.3,1.1-8.6-1.4-9.8-5.7c-1.1-4.3,1.4-8.6,5.7-9.8
	c12.9-3.4,27-5.6,41.9-6.5c-1.9-8.2-2.9-17.2-2.9-26.9c0-0.5,0.5-52,41.3-90.7c3.2-3,8.3-2.9,11.3,0.3c3,3.2,2.9,8.3-0.3,11.3
	C181.9,141.9,181,187,181,187.4c0,9.7,1.1,18.5,3.2,26.3c0.6,0,1.1,0,1.7,0c35.9,0,66.9,6.5,92.1,19.2
	c11.3-10.3,23.7-20.4,52.4-20.4c30,0,42.1,11.1,53.9,21.7c0,0,0.1,0.1,0.1,0.1c10.5,9.6,21.3,19.6,45.4,19.6c2,0,50-1.6,50-66.5
	c0-0.3-0.5-29.8-19.5-58.8c-24.9-38.1-68.6-57.4-129.9-57.4c-20.4,0-39.2,2.2-55.9,6.6c-4.3,1.1-8.6-1.4-9.8-5.7
	c-1.1-4.3,1.4-8.6,5.7-9.8c18-4.7,38.2-7.1,60-7.1c36.8,0,68.4,6.8,93.9,20.2c20.8,10.9,37.5,26.1,49.8,45.2
	C495.5,153.7,495.8,187,495.8,187.4z"></path>
</svg>