<svg version="1.1" id="Layer_1" xmlns="http://www.w3.org/2000/svg" xmlns:xlink="http://www.w3.org/1999/xlink" x="0px" y="0px" viewBox="0 0 512 512" enable-background="new 0 0 512 512" xml:space="preserve">
<linearGradient id="SVGID_1_" gradientUnits="userSpaceOnUse" x1="314.1296" y1="450.7243" x2="314.1296" y2="83.9376" class="gradient-element">
	<stop offset="0" class="primary-color-gradient" style="stop-color: #FFA4ED"></stop>
	<stop offset="1" class="secondary-color-gradient" style="stop-color: #DB81DA"></stop>
</linearGradient>
<path fill="url(#SVGID_1_)" d="M214,418.9c-2.3,0.7-4.8,1-7.4,1c-14.7,0-26.6-11.9-26.6-26.6c0-6.6,0-6.6,0-13.3
	c0-4.6-2.4-8.7-5.9-11.1c2.1-1.4,4.6-2.2,7.4-2.2c7.4,0,13.3,6,13.3,13.3c0,6.7,0,6.7,0,13.3C194.8,405.5,202.9,415.7,214,418.9z
	 M261.3,240.3c-2.5,0-5,0-7.4,0.1c2,0,4,0.1,5.9,0.2v152.7c0,26.9-19.9,49.1-45.9,52.7c2.4,0.3,4.9,0.5,7.4,0.5
	c29.4,0,53.2-23.8,53.2-53.2V240.6C270.4,240.4,266,240.3,261.3,240.3z M261.3,80.7C245.5,80.7,274.6,78.6,261.3,80.7
	c124.4,19.9,101.6,127.7,105,162c7.9-1.4,17.2-2.4,28-2.4c39.9,0,59.9,13.3,59.9,13.3S454.2,80.7,261.3,80.7z"></path>
<path d="M437,163.3c-14.7-26.3-34.9-47.3-60.1-62.4c-26.6-15.9-58.7-25.1-95.6-27.5c-3-8.1-10.8-14-20-14c-9.2,0-17,5.8-20,14
	c-37,2.4-69.1,11.6-95.6,27.5c-25.2,15.1-45.5,36.1-60.1,62.4c-24.8,44.5-25.1,88.5-25.1,90.4c0,2.9,1.6,5.6,4.2,7
	c2.6,1.4,5.7,1.3,8.2-0.3c0.2-0.1,18.9-12,55.5-12c30.4,0,48.5,8.2,53.8,11c1.3,1.3,3.1,2.1,5.1,2.3c0.3,0,0.6,0.1,1,0.1
	c1.5,0,3-0.5,4.4-1.3c0.2-0.1,13.8-8.5,47.5-11.2v144.2c0,10.3-8.3,18.6-18.6,18.6c-10.3,0-18.6-8.3-18.6-18.6V380
	c0-11.8-9.6-21.3-21.3-21.3c-11.7,0-21.3,9.6-21.3,21.3v13.3c0,33.8,27.5,61.2,61.2,61.2c33.8,0,61.2-27.5,61.2-61.2V249.1
	c33.4,2.7,47.1,11,47.5,11.2c0,0,0,0,0.1,0c0.3,0.2,0.6,0.4,0.9,0.5c0,0,0.1,0,0.1,0c0.3,0.1,0.7,0.3,1,0.4c0,0,0,0,0,0
	c0.6,0.2,1.2,0.3,1.8,0.3c0.1,0,0.3,0,0.4,0c1.2,0,2.3-0.3,3.4-0.7c0,0,0,0,0,0c0.3-0.2,0.7-0.3,1-0.5c0,0,0,0,0,0
	c0.2-0.1,18.9-12,55.5-12c36.6,0,55.3,11.9,55.4,12c2.5,1.6,5.6,1.8,8.2,0.4c2.6-1.4,4.2-4.1,4.2-7.1
	C462.2,251.8,461.9,207.8,437,163.3z M327,241.6c-10-3.6-26.7-7.7-51.8-8.9c-0.1,0-0.2,0-0.2,0c-4.3-0.2-8.9-0.3-13.7-0.3
	c-4.7,0-9.3,0.1-13.7,0.3c-0.1,0-0.2,0-0.2,0c-25.5,1.2-42.4,5.5-52.3,9.1c-2.3-65,7.4-116.2,54.8-152.8c0.8,0,1.6-0.1,2.3-0.1
	c0.8,0,1.5-0.1,2.3-0.1c2.3,0,4.5-0.1,6.8-0.1c2.3,0,4.6,0,6.8,0.1c0.7,0,1.5,0,2.2,0.1c0.6,0,1.3,0,1.9,0.1
	C319.6,125.5,329.2,176.6,327,241.6z M77.3,240.6c1.8-15.5,7.1-42.6,22.1-69.6c25.2-45.2,66.8-71.9,123.8-79.9
	c-39.9,41.2-46,95.2-44.3,149.4c-10.7-3.9-27.6-8.3-50.8-8.3C105,232.3,88,236.7,77.3,240.6z M266.6,393.3
	c0,24.9-20.3,45.2-45.2,45.2c-24.9,0-45.2-20.3-45.2-45.2V380c0-2.9,2.4-5.3,5.3-5.3c2.9,0,5.3,2.4,5.3,5.3v13.3
	c0,19.1,15.5,34.6,34.6,34.6c19.1,0,34.6-15.5,34.6-34.6V248.4c1.7,0,3.5-0.1,5.3-0.1c1.8,0,3.6,0,5.3,0.1V393.3z M394.3,232.3
	c-23.5,0-40.7,4.4-51.3,8.4c1.8-54.3-4.4-108.4-44.4-149.6c57.1,7.8,98.8,34.4,124.1,79.4c15.2,27.1,20.5,54.5,22.4,70.1
	C434.5,236.7,417.5,232.3,394.3,232.3z"></path>
<g>
	<path fill="#FFA4ED" class="primary-color" d="M54.4,61.5H19.7V26.8h34.7V61.5z M109.7,26.8H75v34.7h34.7V26.8z"></path>
	<path fill="#DB81DA" class="secondary-color" d="M258.9,474.8v12.9H21.9v-12.9H258.9z"></path>
</g>
<path d="M350,326.2c0-4.4,3.6-8,8-8h15.8v-15.8c0-4.4,3.6-8,8-8c4.4,0,8,3.6,8,8v15.8h15.8c4.4,0,8,3.6,8,8s-3.6,8-8,8h-15.8V350
	c0,4.4-3.6,8-8,8c-4.4,0-8-3.6-8-8v-15.8H358C353.5,334.2,350,330.7,350,326.2z M98.8,396.4h-3.9v-3.9c0-4.4-3.6-8-8-8s-8,3.6-8,8
	v3.9H75c-4.4,0-8,3.6-8,8s3.6,8,8,8h3.9v3.9c0,4.4,3.6,8,8,8s8-3.6,8-8v-3.9h3.9c4.4,0,8-3.6,8-8S103.2,396.4,98.8,396.4z
	 M420.6,64.6h3.9v3.9c0,4.4,3.6,8,8,8s8-3.6,8-8v-3.9h3.9c4.4,0,8-3.6,8-8s-3.6-8-8-8h-3.9v-3.9c0-4.4-3.6-8-8-8s-8,3.6-8,8v3.9
	h-3.9c-4.4,0-8,3.6-8,8S416.2,64.6,420.6,64.6z M411.6,429.8c0,4.4,3.6,8,8,8h59.2c4.4,0,8-3.6,8-8s-3.6-8-8-8h-59.2
	C415.2,421.8,411.6,425.4,411.6,429.8z M477.3,468.1H350.1c-4.4,0-8,3.6-8,8s3.6,8,8,8h127.3c4.4,0,8-3.6,8-8
	S481.7,468.1,477.3,468.1z M72.2,274.3c0-4.4-3.6-8-8-8H44.6c-4.4,0-8,3.6-8,8s3.6,8,8,8h19.7C68.7,282.3,72.2,278.7,72.2,274.3z"></path>
</svg>