<svg version="1.1" id="Layer_1" xmlns="http://www.w3.org/2000/svg" xmlns:xlink="http://www.w3.org/1999/xlink" x="0px" y="0px" viewBox="0 0 512 512" enable-background="new 0 0 512 512" xml:space="preserve">
<linearGradient id="SVGID_1_" gradientUnits="userSpaceOnUse" x1="305.3084" y1="443.8965" x2="305.3084" y2="151.2773" class="gradient-element">
	<stop offset="0" class="primary-color-gradient" style="stop-color: #FFA4ED"></stop>
	<stop offset="1" class="secondary-color-gradient" style="stop-color: #DB81DA"></stop>
</linearGradient>
<path fill="url(#SVGID_1_)" d="M447,149.8v263c0,2.5-2.1,4.6-4.6,4.6h-84.3v-6.3c0-9.6,9.6-17.5,21.5-17.5
	c12.7,0,22.9-8.3,22.9-18.6V174.3c0-14.7,14.6-26.5,32.7-26.5h9.3C445.9,147.8,447,148.7,447,149.8z M345.2,228.6h-19.4
	c-37.6,0-31.4,22-31.4,49v80c0,17.5-18.1,31.9-41.5,34.1c-2.1,0.2-42.3,0.3-44.4,0.3l0,0c-24.8,0-44.9,14.4-44.9,32.3V436H349
	l1.3-203.7C350.3,230.2,348,228.6,345.2,228.6z"></path>
<g>
	<path fill="#DB81DA" class="secondary-color" d="M416,11.8h68.5v21.4H416V11.8z"></path>
	<path fill="#FFA4ED" class="primary-color" d="M416,52.6h68.5V74H416V52.6z"></path>
	<path fill="#FFA4ED" class="primary-color" d="M416,93.4h68.5v21.4H416V93.4z"></path>
</g>
<path d="M105.2,67.7c0,4.4-3.6,8-8,8H81.4v15.8c0,4.4-3.6,8-8,8s-8-3.6-8-8V75.7H49.6c-4.4,0-8-3.6-8-8s3.6-8,8-8h15.8V43.9
	c0-4.4,3.6-8,8-8s8,3.6,8,8v15.8h15.8C101.6,59.7,105.2,63.3,105.2,67.7z M459.4,429.2h-3.9v-3.9c0-4.4-3.6-8-8-8s-8,3.6-8,8v3.9
	h-3.9c-4.4,0-8,3.6-8,8s3.6,8,8,8h3.9v3.9c0,4.4,3.6,8,8,8s8-3.6,8-8v-3.9h3.9c4.4,0,8-3.6,8-8S463.8,429.2,459.4,429.2z"></path>
<path d="M397.6,473.7h-274c-4.4,0-8-3.6-8-8s3.6-8,8-8h32v-40.5h-15.3c-4.4,0-8-3.6-8-8v-13.6c-0.6,0.2-1.3,0.3-2,0.3H107
	c-4.4,0-8-3.6-8-8v-23.3c0-4.4,3.6-8,8-8s8,3.6,8,8v15.3h15.3c0.7,0,1.4,0.1,2,0.3v-34.5c-0.6,0.2-1.3,0.3-2,0.3H107
	c-4.4,0-8-3.6-8-8v-23.3c0-4.4,3.6-8,8-8s8,3.6,8,8v15.3h15.3c0.7,0,1.4,0.1,2,0.3v-19.3c0-4.8,1.1-9.4,3-13.5
	c-1.4,1.1-3.1,1.8-5,1.8H107c-4.4,0-8-3.6-8-8v-23.3c0-4.4,3.6-8,8-8s8,3.6,8,8v15.3h15.3c4.4,0,8,3.6,8,8c0,0.5,0,1-0.1,1.4
	c4.2-5.8,10.3-10.2,17.5-12.1v-98h-15.3c-4.4,0-8-3.6-8-8v-15.3h-54v255.4c0,4.4-3.6,8-8,8s-8-3.6-8-8V151.2c0-4.4,3.6-8,8-8h70
	c4.4,0,8,3.6,8,8v15.3h7.3v-27c0-7,3.8-13.6,9.8-17.1l81.7-46.7c0,0,0.1,0,0.1-0.1c6-3.3,13.4-3.3,19.4,0c0,0,0.1,0,0.1,0.1
	l81.7,46.7c6.1,3.6,9.9,10.1,9.9,17.1v27h7.3v-15.3c0-4.4,3.6-8,8-8h70c4.4,0,8,3.6,8,8v233.4c0,4.4-3.6,8-8,8s-8-3.6-8-8V159.2h-54
	v15.3c0,4.4-3.6,8-8,8h-15.3v224h55.9c4.4,0,8,3.6,8,8s-3.6,8-8,8h-63.9c-4.4,0-8-3.6-8-8c0-0.9,0.2-1.8,0.5-2.7
	c-0.3-0.8-0.5-1.7-0.5-2.7v-180H171.6v51.4c7.1,1.9,13.2,6.1,17.3,11.9c-0.2-0.7-0.3-1.5-0.3-2.3v-23.3c0-4.4,3.6-8,8-8s8,3.6,8,8
	v15.3H220c4.4,0,8,3.6,8,8s-3.6,8-8,8h-23.3c-2.1,0-4-0.8-5.4-2.1c2.4,4.4,3.7,9.4,3.7,14.7v98.3c0,4.4-3.6,8-8,8h-15.3v10.5h54V354
	c0,0,0-0.1,0-0.1c0.3-22.2,15.1-24,19.7-24h23.2c0.1,0,0.2,0,0.2,0c4.6,0.1,19.5,2.3,19.5,23.9v73.9h79.3c4.4,0,8,3.6,8,8
	s-3.6,8-8,8h-196v14h226c4.4,0,8,3.6,8,8S402,473.7,397.6,473.7z M241.6,425.5h30.7v-71.7c0-7.6-2.4-7.9-3.9-7.9h-23.1
	c-1.6,0-1.9,0.4-2.3,1.2c-0.5,0.8-1.3,2.9-1.3,7V425.5z M163.6,401.2H179v-90.3c0-8.5-6.9-15.3-15.3-15.3c-8.5,0-15.3,6.9-15.3,15.3
	v90.3H163.6z M171.6,213.2h170.7v-73.7c0-1.4-0.7-2.6-1.9-3.2l-81.5-46.6c-1.2-0.6-2.7-0.6-3.9,0l-81.6,46.6
	c-1.1,0.6-1.8,1.9-1.8,3.2V213.2z M407,395.9h-23.3c-4.4,0-8-3.6-8-8v-23.3c0-4.4,3.6-8,8-8s8,3.6,8,8v15.3H407c4.4,0,8,3.6,8,8
	S411.4,395.9,407,395.9z M407,345.9h-23.3c-4.4,0-8-3.6-8-8v-23.3c0-4.4,3.6-8,8-8s8,3.6,8,8v15.3H407c4.4,0,8,3.6,8,8
	S411.4,345.9,407,345.9z M407,299.2h-23.3c-4.4,0-8-3.6-8-8v-23.3c0-4.4,3.6-8,8-8s8,3.6,8,8v15.3H407c4.4,0,8,3.6,8,8
	S411.4,299.2,407,299.2z M320,298.2h-23.3c-4.4,0-8-3.6-8-8v-23.3c0-4.4,3.6-8,8-8s8,3.6,8,8v15.3H320c4.4,0,8,3.6,8,8
	S324.4,298.2,320,298.2z M270,298.2h-23.3c-4.4,0-8-3.6-8-8v-23.3c0-4.4,3.6-8,8-8s8,3.6,8,8v15.3H270c4.4,0,8,3.6,8,8
	S274.4,298.2,270,298.2z M407,252.5h-23.3c-4.4,0-8-3.6-8-8v-23.3c0-4.4,3.6-8,8-8s8,3.6,8,8v15.3H407c4.4,0,8,3.6,8,8
	S411.4,252.5,407,252.5z M130.3,252.5H107c-4.4,0-8-3.6-8-8v-23.3c0-4.4,3.6-8,8-8s8,3.6,8,8v15.3h15.3c4.4,0,8,3.6,8,8
	S134.7,252.5,130.3,252.5z M256.6,192.6c-14.6,0-26.4-11.8-26.4-26.4s11.8-26.4,26.4-26.4s26.4,11.8,26.4,26.4
	S271.2,192.6,256.6,192.6z M256.6,155.8c-5.7,0-10.4,4.7-10.4,10.4s4.7,10.4,10.4,10.4s10.4-4.7,10.4-10.4S262.3,155.8,256.6,155.8z
	"></path>
</svg>