<svg version="1.1" id="Layer_1" xmlns="http://www.w3.org/2000/svg" xmlns:xlink="http://www.w3.org/1999/xlink" x="0px" y="0px" viewBox="0 0 512 512" enable-background="new 0 0 512 512" xml:space="preserve">
<linearGradient id="SVGID_1_" gradientUnits="userSpaceOnUse" x1="340.0234" y1="485.8375" x2="340.0234" y2="273.7997" class="gradient-element">
	<stop offset="0" class="primary-color-gradient" style="stop-color: #FFA4ED"></stop>
	<stop offset="1" class="secondary-color-gradient" style="stop-color: #DB81DA"></stop>
</linearGradient>
<path fill="url(#SVGID_1_)" d="M385.1,332c0-30.9,24.7-56,55.3-56H465c9.2,0,16.6,7.6,16.6,16.9v177.4c0,9.3-7.4,16.8-16.6,16.8
	H198.4l0-34.6c0-24.7,19.7-44.7,44.1-44.7l54,2.7l-7.5,7.5l15.4,16l33.5-26.1h13.5c4.4,0,24.2,27.7,28,26.1c2.4-1,17.2-7.4,15-16.9
	c-1.7-7.2-17.9-20.7-19.2-19.2C375,398,360,392.4,360,383l17.6-17l19.6-19.6L385.1,332z"></path>
<path d="M493.9,277.6v210.9c0,4.4-3.6,8-8,8H198.4c-4.4,0-8-3.6-8-8V277.6c0-4.4,3.6-8,8-8h49.5v-60.8c0-52,42.3-94.3,94.3-94.3
	s94.3,42.3,94.3,94.3v29.7c0,4.4-3.6,8-8,8s-8-3.6-8-8v-29.7c0-43.2-35.1-78.3-78.3-78.3c-43.2,0-78.3,35.1-78.3,78.3v68.8
	c0,4.4-3.6,8-8,8h-49.5v194.9h271.5V285.6H315.9c-4.4,0-8-3.6-8-8s3.6-8,8-8h170.1C490.4,269.6,493.9,273.2,493.9,277.6z
	 M336.5,370.4c3.1,3.1,8.2,3.1,11.3,0l31.1-31l12.7,12.7c3.1,3.1,8.2,3.1,11.3,0c3.1-3.1,3.1-8.2,0-11.3l-18.4-18.4
	c-3.1-3.1-8.2-3.1-11.3,0l-31.1,31l-31.1-31c-3.1-3.1-8.2-3.1-11.3,0l-18.4,18.4c-3.1,3.1-3.1,8.2,0,11.3l31,31l-31,31
	c-1.5,1.5-2.3,3.5-2.3,5.7s0.8,4.2,2.3,5.7l18.4,18.4c1.6,1.6,3.6,2.3,5.7,2.3c2,0,4.1-0.8,5.7-2.3l31.1-31l31.1,31
	c3.1,3.1,8.2,3.1,11.3,0l18.4-18.4c1.5-1.5,2.3-3.5,2.3-5.7s-0.8-4.2-2.3-5.7l-31-31l13.9-13.9c3.1-3.1,3.1-8.2,0-11.3
	s-8.2-3.1-11.3,0l-19.6,19.6c-1.5,1.5-2.3,3.5-2.3,5.7s0.8,4.2,2.3,5.7l31,31l-7,7l-31.1-31c-3.1-3.1-8.2-3.1-11.3,0l-31.1,31l-7-7
	l31-31c1.5-1.5,2.3-3.5,2.3-5.7s-0.8-4.2-2.3-5.7l-31-31l7-7L336.5,370.4z M342.2,162.5c21.6,0,40.3,16,43.7,37.3
	c0.3,3.6,0.5,33.7,0.5,38.8c0,4.4,3.6,8,8,8s8-3.6,8-8c0-0.4-0.1-37.4-0.7-41.1c-2.2-14-9.4-26.9-20.2-36.3
	c-10.9-9.5-24.9-14.7-39.4-14.7c-33.2,0-60.3,27-60.3,60.3v77.3c0,4.4,3.6,8,8,8s8-3.6,8-8v-77.3
	C297.9,182.4,317.8,162.5,342.2,162.5z"></path>
<g>
	<path fill="#FFA4ED" class="primary-color" d="M52.8,186H31V43.2h21.8V186z"></path>
	<path fill="#DB81DA" class="secondary-color" d="M88.7,186H66.9V43.2h21.8V186z"></path>
</g>
<path d="M133.8,435.8c0,4.4-3.6,8-8,8H110v15.8c0,4.4-3.6,8-8,8s-8-3.6-8-8v-15.8H78.2c-4.4,0-8-3.6-8-8s3.6-8,8-8H94V412
	c0-4.4,3.6-8,8-8s8,3.6,8,8v15.8h15.8C130.2,427.8,133.8,431.4,133.8,435.8z M72.7,284.5c0-4.4-3.6-8-8-8h-3.9v-3.9c0-4.4-3.6-8-8-8
	s-8,3.6-8,8v3.9h-3.9c-4.4,0-8,3.6-8,8s3.6,8,8,8h3.9v3.9c0,4.4,3.6,8,8,8s8-3.6,8-8v-3.9h3.9C69.1,292.5,72.7,289,72.7,284.5z
	 M497.4,78.2H356c-4.4,0-8,3.6-8,8s3.6,8,8,8h141.4c4.4,0,8-3.6,8-8S501.9,78.2,497.4,78.2z M143.2,53.6c0-5,4.1-9,9-9s9,4.1,9,9
	s-4.1,9-9,9S143.2,58.6,143.2,53.6z M173.2,53.6c0-5,4.1-9,9-9s9,4.1,9,9s-4.1,9-9,9S173.2,58.6,173.2,53.6z M203.2,53.6
	c0-5,4.1-9,9-9s9,4.1,9,9s-4.1,9-9,9S203.2,58.6,203.2,53.6z M136.8,189.8c20.3,0,36.8-16.5,36.8-36.8c0-4.4-3.6-8-8-8s-8,3.6-8,8
	c0,11.4-9.3,20.8-20.8,20.8c-4.4,0-8,3.6-8,8S132.4,189.8,136.8,189.8z M178.8,153.1c0,20.3,16.5,36.8,36.8,36.8c4.4,0,8-3.6,8-8
	s-3.6-8-8-8c-11.4,0-20.8-9.3-20.8-20.8c0-4.4-3.6-8-8-8S178.8,148.7,178.8,153.1z M215.6,195.1c-20.3,0-36.8,16.5-36.8,36.7
	c0,4.4,3.6,8,8,8s8-3.6,8-8c0-11.4,9.3-20.7,20.8-20.7c4.4,0,8-3.6,8-8S220,195.1,215.6,195.1z M157.6,231.8c0,4.4,3.6,8,8,8
	s8-3.6,8-8c0-20.3-16.5-36.7-36.8-36.7c-4.4,0-8,3.6-8,8s3.6,8,8,8C148.3,211.1,157.6,220.4,157.6,231.8z M384,40.7c0-4.4-3.6-8-8-8
	h-71.9c-4.4,0-8,3.6-8,8s3.6,8,8,8H376C380.4,48.7,384,45.1,384,40.7z M246.1,309.9h-43c-4.4,0-8,3.6-8,8s3.6,8,8,8h43
	c4.4,0,8-3.6,8-8S250.5,309.9,246.1,309.9z M224.6,339.9h-73.8c-4.4,0-8,3.6-8,8s3.6,8,8,8h73.8c4.4,0,8-3.6,8-8
	S229,339.9,224.6,339.9z"></path>
</svg>