<svg version="1.1" id="Layer_1" xmlns="http://www.w3.org/2000/svg" xmlns:xlink="http://www.w3.org/1999/xlink" x="0px" y="0px" viewBox="0 0 512 512" enable-background="new 0 0 512 512" xml:space="preserve">
<linearGradient id="SVGID_1_" gradientUnits="userSpaceOnUse" x1="285.7625" y1="436.0468" x2="285.7625" y2="56.0416" class="gradient-element">
	<stop offset="0" class="primary-color-gradient" style="stop-color: #FFA4ED"></stop>
	<stop offset="1" class="secondary-color-gradient" style="stop-color: #DB81DA"></stop>
</linearGradient>
<path fill="url(#SVGID_1_)" d="M261.4,57.3l-122,122c-4.6,4.6-1.3,12.4,5.1,12.4h95.2c29.3,0,53.1,23.8,53.1,53.1v157.5
	c0,4.9,4,8.8,8.8,8.8h16.8c4.8,0,8.7-3.9,8.7-8.7V238.8c0-4.8,3.9-8.7,8.7-8.7h89.6c7.8,0,11.6-9.4,6.2-14.9L273.7,57.3
	C270.3,53.9,264.8,53.9,261.4,57.3z"></path>
<path fill="none" stroke="#000000" stroke-width="16" stroke-linecap="round" stroke-linejoin="round" stroke-miterlimit="10" d="
	M240.8,409h-25.7c-4.8,0-8.7-3.9-8.7-8.7V238.8c0-4.8-3.9-8.7-8.7-8.7h-39.8h-49.7c-7.8,0-11.6-9.4-6.2-14.9L259.9,57.3
	c3.4-3.4,8.9-3.4,12.3,0l157.9,157.9c5.5,5.5,1.6,14.9-6.2,14.9h-89.6c-4.8,0-8.7,3.9-8.7,8.7v197"></path>
<g>
	<path fill="#FFA4ED" class="primary-color" d="M33,478.7v-35.8h35.8v35.8H33z"></path>
	<path fill="#DB81DA" class="secondary-color" d="M96.8,480.5v-39.3h37.3v39.3H96.8z M127.1,41.8H35.7v102.6L127.1,41.8z"></path>
</g>
<path d="M248.8,367.2V480c0,4.4-3.6,8-8,8s-8-3.6-8-8V367.2c0-4.4,3.6-8,8-8S248.8,362.8,248.8,367.2z M143.1,310.8
	c-11.4,0-20.8-9.3-20.8-20.8c0-4.4-3.6-8-8-8s-8,3.6-8,8c0,20.3,16.5,36.8,36.8,36.8c4.4,0,8-3.6,8-8S147.5,310.8,143.1,310.8z
	 M93.1,282.1c-4.4,0-8,3.6-8,8c0,11.4-9.3,20.8-20.8,20.8c-4.4,0-8,3.6-8,8s3.6,8,8,8c20.3,0,36.8-16.5,36.8-36.8
	C101.1,285.7,97.5,282.1,93.1,282.1z M64.4,332.1c-4.4,0-8,3.6-8,8s3.6,8,8,8c11.4,0,20.8,9.3,20.8,20.8c0,4.4,3.6,8,8,8s8-3.6,8-8
	C101.1,348.6,84.6,332.1,64.4,332.1z M143.1,332.1c-20.3,0-36.8,16.5-36.8,36.8c0,4.4,3.6,8,8,8s8-3.6,8-8
	c0-11.4,9.3-20.8,20.8-20.8c4.4,0,8-3.6,8-8S147.5,332.1,143.1,332.1z M436.5,41.8c0-5,4.1-9,9-9s9,4.1,9,9s-4.1,9-9,9
	S436.5,46.7,436.5,41.8z M406.5,41.8c0-5,4.1-9,9-9s9,4.1,9,9s-4.1,9-9,9S406.5,46.7,406.5,41.8z M376.5,41.8c0-5,4.1-9,9-9
	s9,4.1,9,9s-4.1,9-9,9S376.5,46.7,376.5,41.8z M409.1,77.7c-1.7-1.7-2.6-4-2.6-6.4c0-2.4,0.9-4.7,2.6-6.4c3.5-3.5,9.2-3.5,12.8,0
	c3.5,3.5,3.5,9.3,0,12.8c0,0,0,0,0,0c-1.8,1.8-4.1,2.6-6.4,2.6C413.2,80.3,410.9,79.4,409.1,77.7z M452.9,63.8
	c3.5,3.5,3.5,9.3,0,12.8c0,0,0,0,0,0c-1.8,1.8-4.1,2.6-6.4,2.6c-2.3,0-4.6-0.9-6.4-2.6c-1.7-1.7-2.6-4-2.6-6.4
	c0-2.4,0.9-4.7,2.6-6.4C443.7,60.3,449.4,60.3,452.9,63.8z M471.5,77.7c-1.7-1.7-2.6-4-2.6-6.4c0-2.4,0.9-4.7,2.6-6.4
	c3.5-3.5,9.2-3.5,12.8,0c1.7,1.7,2.6,4,2.6,6.4c0,2.4-0.9,4.7-2.6,6.4c-1.8,1.8-4.1,2.6-6.4,2.6S473.3,79.4,471.5,77.7z
	 M460.3,186.4v192.1c0,4.4,3.6,8,8,8s8-3.6,8-8V186.4c0-4.4-3.6-8-8-8S460.3,182,460.3,186.4z M484,479.6H318.3c-4.4,0-8,3.6-8,8
	s3.6,8,8,8H484c4.4,0,8-3.6,8-8S488.4,479.6,484,479.6z M467.6,150.9c-4.4,0-8,3.6-8,8s3.6,8,8,8c14.6,0,26.4-11.8,26.4-26.4
	s-11.8-26.4-26.4-26.4c-4.4,0-8,3.6-8,8s3.6,8,8,8c5.7,0,10.4,4.7,10.4,10.4C477.9,146.2,473.3,150.9,467.6,150.9z"></path>
</svg>