<svg version="1.1" id="Layer_1" xmlns="http://www.w3.org/2000/svg" xmlns:xlink="http://www.w3.org/1999/xlink" x="0px" y="0px" viewBox="0 0 512 512" enable-background="new 0 0 512 512" xml:space="preserve">
<linearGradient id="SVGID_1_" gradientUnits="userSpaceOnUse" x1="274.145" y1="400.5648" x2="274.145" y2="134.4236" class="gradient-element">
	<stop offset="0" class="primary-color-gradient" style="stop-color: #FFA4ED"></stop>
	<stop offset="1" class="secondary-color-gradient" style="stop-color: #DB81DA"></stop>
</linearGradient>
<path fill="url(#SVGID_1_)" d="M178.2,370.3h-33.9c-11.6,0-22.5-2.5-32.4-7c-6.7-3-4.6-13,2.8-13h63.6V370.3z M381.3,251.7h-0.7
	c-4.4-30.4-28.6-54.5-59-58.6c0,0-9.2-79.6-88.4-79.6h-0.2c-8.1,0-12.9,9.3-8.4,16c5.1,7.5,8.7,15.1,11.3,21.9
	c4.5,12.1,13.6,22,25.3,27.5c19,8.8,33.3,25.9,38.2,46.7c0.9,3.6,3.9,6.2,7.6,6.5c0,0,0,0,0.1,0c30.4,2.9,54.1,28.9,53.5,60.1
	c-0.6,32.4-27.7,58.2-60.1,58.2h-64.5v0l-3.7,0c-11.1,0-20,9-20,20v0v14.5c0,5.4-4.4,9.8-9.8,9.8H191c-3.1,0-5.7,2.5-5.7,5.7v5.7
	c0,3.1,2.5,5.7,5.7,5.7h44.8v-41.3h144.5c32.5,0,59.7-25.8,60.1-58.4C441,278.8,414.3,251.7,381.3,251.7z"></path>
<path fill="#DB81DA" class="secondary-color" d="M491.8,91.4l-60.9-60.9h60.9V91.4z"></path>
<path d="M344.7,170.6h-86.8c-4.4,0-8-3.6-8-8s3.6-8,8-8h86.8c4.4,0,8,3.6,8,8S349.1,170.6,344.7,170.6z M384.4,193.6
	c0-4.4-3.6-8-8-8h-68.2c-4.4,0-8,3.6-8,8s3.6,8,8,8h68.2C380.8,201.6,384.4,198,384.4,193.6z M490.5,469.6h-86.8c-4.4,0-8,3.6-8,8
	s3.6,8,8,8h86.8c4.4,0,8-3.6,8-8S495,469.6,490.5,469.6z M437.4,449.5c0-4.4-3.6-8-8-8H372c-4.4,0-8,3.6-8,8s3.6,8,8,8h57.4
	C433.9,457.5,437.4,453.9,437.4,449.5z M36.5,471.7c-5,0-9,4.1-9,9s4.1,9,9,9s9-4.1,9-9S41.5,471.7,36.5,471.7z M36.5,459.3
	c4.9,0,9-4,9-9s-4-9-9-9s-9,4-9,9S31.6,459.3,36.5,459.3z M69.8,472.5c-4.6-2-9.9,0.1-11.9,4.6S58,487,62.5,489
	c4.6,2,9.9-0.1,11.9-4.6C76.4,479.8,74.3,474.5,69.8,472.5z M309.9,71.3c-4.4,0-8,3.6-8,8s3.6,8,8,8c14.6,0,26.4-11.8,26.4-26.4
	s-11.8-26.4-26.4-26.4c-4.4,0-8,3.6-8,8s3.6,8,8,8c5.7,0,10.4,4.7,10.4,10.4S315.7,71.3,309.9,71.3z M78.1,148.4h-3.9v-3.9
	c0-4.4-3.6-8-8-8s-8,3.6-8,8v3.9h-3.9c-4.4,0-8,3.6-8,8s3.6,8,8,8h3.9v3.9c0,4.4,3.6,8,8,8s8-3.6,8-8v-3.9h3.9c4.4,0,8-3.6,8-8
	S82.5,148.4,78.1,148.4z"></path>
<path d="M236.7,416.9h-58.1c-1.9,0-3.7-0.8-5-2.1c-1.3-1.4-2.1-3.2-2-5.1l1.8-129.2l-21,21c-1.3,1.3-3.1,2.1-5,2.1c0,0,0,0,0,0
	c-1.9,0-3.7-0.7-5-2.1l-24-24c-1.3-1.3-2.1-3.1-2.1-5c0-1.9,0.7-3.7,2.1-5l85-84.9c2.8-2.8,7.3-2.8,10,0l84.9,84.9
	c2.8,2.8,2.8,7.3,0,10l-24,24c-2.8,2.8-7.3,2.8-10,0l-19.8-19.8v62.2c0,3.9-3.2,7.1-7.1,7.1s-7.1-3.2-7.1-7.1v-79.3
	c0-2.9,1.7-5.5,4.4-6.5c2.6-1.1,5.7-0.5,7.7,1.5l26.9,26.9l13.9-13.9l-74.9-74.9l-75,74.9l13.9,13.9l28.3-28.4c2-2,5.1-2.6,7.8-1.5
	c2.7,1.1,4.4,3.7,4.3,6.6l-2,139.5h43.8v-32.4c0-3.9,3.2-7.1,7.1-7.1h144.6c28.8,0,52.2-23.4,52.2-52.2c0-28.8-23.4-52.2-52.2-52.2
	h-0.7c-3.5,0-6.5-2.6-7-6.1c-3.9-27.3-25.7-48.9-53-52.6c-3.9-0.5-6.6-4.1-6.1-8c0.5-3.9,4.1-6.6,8-6.1c31.5,4.3,57.1,28.1,64,58.8
	c34.1,2.7,61.1,31.3,61.1,66.1c0,36.6-29.8,66.3-66.3,66.3H243.8v32.4C243.8,413.7,240.6,416.9,236.7,416.9z M158.8,377.4h-14.6
	c-47.5,0-86.1-38.6-86.1-86.1c0-48.2,28.7-81.1,79-91.2c1.2-51.9,43.8-93.7,96-93.7c36.2,0,69,20.1,85.5,52.4
	c1.8,3.5,0.4,7.8-3.1,9.5c-3.5,1.8-7.8,0.4-9.5-3.1c-14.1-27.6-42-44.7-72.9-44.7c-45.1,0-81.8,36.7-81.8,81.8v3.7
	c0,3.5-2.5,6.5-6,7c-47.1,7.5-73,35.2-73,78.2c0,39.7,32.3,71.9,71.9,71.9h14.6c3.9,0,7.1,3.2,7.1,7.1S162.8,377.4,158.8,377.4z"></path>
</svg>