<svg version="1.1" id="Layer_1" xmlns="http://www.w3.org/2000/svg" xmlns:xlink="http://www.w3.org/1999/xlink" x="0px" y="0px" viewBox="0 0 512 512" enable-background="new 0 0 512 512" xml:space="preserve">
<path d="M427.7,235.7h-79.9c-4.4,0-8-3.6-8-8s3.6-8,8-8h79.9c4.4,0,8,3.6,8,8S432.1,235.7,427.7,235.7z M483.8,256.3
	c0-4.4-3.6-8-8-8H389c-4.4,0-8,3.6-8,8s3.6,8,8,8h86.8C480.2,264.3,483.8,260.7,483.8,256.3z M464.6,78.8c5.9,0,10.8-4.8,10.8-10.8
	s-4.8-10.8-10.8-10.8c-5.9,0-10.8,4.8-10.8,10.8S458.6,78.8,464.6,78.8z M492.1,305.4h-3.9v-3.9c0-4.4-3.6-8-8-8s-8,3.6-8,8v3.9
	h-3.9c-4.4,0-8,3.6-8,8s3.6,8,8,8h3.9v3.9c0,4.4,3.6,8,8,8s8-3.6,8-8v-3.9h3.9c4.4,0,8-3.6,8-8S496.5,305.4,492.1,305.4z"></path>
<g>
	<path fill="#DB81DA" class="secondary-color" d="M37,456.1l-26.8,26.8V288.6H37V456.1z M55.5,475.5l-26.8,26.8h184.8v-26.8H55.5z"></path>
	<path fill="#FFA4ED" class="primary-color" d="M490.8,477.9v21.8h-56.9v-21.8H490.8z M433.9,433v21.8h56.9V433H433.9z"></path>
</g>
<linearGradient id="SVGID_1_" gradientUnits="userSpaceOnUse" x1="252.0448" y1="314.4625" x2="253.442" y2="26.6406" class="gradient-element">
	<stop offset="0" class="primary-color-gradient" style="stop-color: #FFA4ED"></stop>
	<stop offset="1" class="secondary-color-gradient" style="stop-color: #DB81DA"></stop>
</linearGradient>
<path fill="url(#SVGID_1_)" d="M313.1,131.8l32.8-97.9H217l-73.8,220.4h49l-31.6,67.2c21.5-9.4,52-18.2,92-18.2
	c15.8,0,30.1,1.4,43,3.6l66.5-175H313.1z M244.2,277.2l15.9-71.9h-49l29.9-89.6h41.1l-21.2,65.1h44.7L244.2,277.2z"></path>
<path d="M411.8,458.1H93.5c-4.4,0-8-3.6-8-8V33.9c0-4.4,3.6-8,8-8h318.3c4.4,0,8,3.6,8,8v193.8c0,4.4-3.6,8-8,8s-8-3.6-8-8V41.9
	H101.5v400.3h302.3v-80L380,346.3c-19.6-13.1-62.3-35-127.3-35c-65.1,0-107.7,22-127.3,35.1l-2.9,1.9c-3.7,2.5-8.6,1.5-11.1-2.2
	c-2.5-3.7-1.5-8.6,2.2-11.1l2.9-1.9c21.1-14.1,67-37.8,136.2-37.8c69.3,0,115.1,23.6,136.2,37.7l27.4,18.3c2.2,1.5,3.6,4,3.6,6.7
	v92.3C419.8,454.6,416.2,458.1,411.8,458.1z M313.9,409.2H191.4c-4.4,0-8-3.6-8-8v-24.5c0-4.4,3.6-8,8-8s8,3.6,8,8v16.5h114.4
	c4.4,0,8,3.6,8,8S318.3,409.2,313.9,409.2z M411.8,336.5c-4.4,0-8-3.6-8-8V256c0-4.4,3.6-8,8-8s8,3.6,8,8v72.5
	C419.8,332.9,416.2,336.5,411.8,336.5z M244.2,285.2c-1,0-2.1-0.2-3.1-0.6c-3.6-1.5-5.6-5.3-4.8-9.1l13.8-62.2h-39
	c-2.6,0-5-1.2-6.5-3.3c-1.5-2.1-1.9-4.8-1.1-7.2l29.9-89.6c1.1-3.3,4.1-5.5,7.6-5.5h41.1c2.6,0,5,1.2,6.5,3.3
	c1.5,2.1,1.9,4.7,1.1,7.2l-17.8,54.7h33.7c2.9,0,5.6,1.6,7,4.2c1.4,2.6,1.3,5.7-0.3,8.1l-61.4,96.4
	C249.4,283.8,246.9,285.2,244.2,285.2z M222.2,197.3h37.9c2.4,0,4.7,1.1,6.2,3c1.5,1.9,2.1,4.4,1.6,6.7l-6.1,27.6l29.2-45.8h-30.1
	c-2.6,0-5-1.2-6.5-3.3c-1.5-2.1-1.9-4.7-1.1-7.2l17.8-54.7h-24.3L222.2,197.3z"></path>
</svg>