<svg version="1.1" id="Layer_1" xmlns="http://www.w3.org/2000/svg" xmlns:xlink="http://www.w3.org/1999/xlink" x="0px" y="0px" viewBox="0 0 512 512" enable-background="new 0 0 512 512" xml:space="preserve">
<linearGradient id="SVGID_1_" gradientUnits="userSpaceOnUse" x1="246.8384" y1="433.7758" x2="246.8384" y2="75.4527" class="gradient-element">
	<stop offset="0" class="primary-color-gradient" style="stop-color: #FFA4ED"></stop>
	<stop offset="1" class="secondary-color-gradient" style="stop-color: #DB81DA"></stop>
</linearGradient>
<path fill="url(#SVGID_1_)" d="M381.5,122.4c-0.5,10.5-9.3,18.9-19.7,19.1c-2.5,0-5-0.4-7.2-1.2c7.7-2.8,13.3-10.3,13.3-18.9
	c0-8.7-5.6-16.1-13.3-18.9c2.1-0.8,4.4-1.2,6.8-1.2C372.8,101.2,382.1,110.8,381.5,122.4z M120.7,357.6c-3,0-5.9,0.5-8.5,1.4
	c9.7,3.2,16.7,11.6,16.7,21.4c0,9.8-7,18.2-16.7,21.4c2.7,0.9,5.5,1.4,8.5,1.4c13.9,0,25.2-10.2,25.2-22.7
	C145.9,367.8,134.6,357.6,120.7,357.6z M362.3,385.7h-14.7c-9.9,0-18,8.1-18,18v22.9c0,9.9,8.1,18,18,18H368v-53.2
	C368,388.3,365.5,385.7,362.3,385.7z M195.4,74.2H193c-9.1,0-16.5,7.4-16.5,16.5v21.1c0,9.1,7.4,16.5,16.5,16.5h18.8V90.6
	C211.8,81.5,204.4,74.2,195.4,74.2z"></path>
<path d="M208.4,287.7c1.6,3.1,1,7-1.5,9.4l-69,66.8c-2.4,2.3-6,2.9-9,1.5c-2.6-1.3-5.5-1.9-8.4-1.9c-10.7,0-19.5,8.7-19.5,19.5
	s8.7,19.5,19.5,19.5s19.5-8.7,19.5-19.5c0-2.9-0.6-5.8-1.9-8.4c-1.9-4-0.2-8.8,3.8-10.7c4-1.9,8.8-0.2,10.7,3.8
	c2.3,4.8,3.5,9.9,3.5,15.3c0,19.5-15.9,35.5-35.5,35.5S85,402.4,85,382.9s15.9-35.5,35.5-35.5c3.4,0,6.7,0.5,9.9,1.4l48.7-47.1
	c-1.3,0-2.6,0.1-3.9,0.1c-39.4,0-81.2-28.5-81.2-81.2c0-43,19.3-71.4,54.9-107.7V74.2c0-4.4,3.6-8,8-8h54.9c4.4,0,8,3.6,8,8v54.9
	c0,4.4-3.6,8-8,8h-36.3c-4.4,0-8-3.6-8-8s3.6-8,8-8h28.3V82.2h-38.9v34c0,2.1-0.8,4.1-2.3,5.6C127.7,157,110,182,110,220.6
	c0,42.4,33.6,65.2,65.2,65.2c7.9,0,16.4-0.8,24.7-2.3C203.3,282.8,206.8,284.5,208.4,287.7z M365,408.4c-4.4,0-8,3.6-8,8v20.2h-42.9
	v-42.9h37c2.1,0,4.2-0.9,5.7-2.4c42-42.5,55.5-67.7,55.5-103.8c0-43.4-34.5-66.9-66.9-66.9c-26.4,0-51.9,8-63.4,15.8
	c-2.2,1.5-3.5,4-3.5,6.6v36.5h-37c-4.4,0-8,3.6-8,8s3.6,8,8,8h45c4.4,0,8-3.6,8-8v-39.9c9.4-4.9,28.5-11,50.9-11
	c24.7,0,50.9,17.8,50.9,50.9c0,30.9-11.4,52.2-48.5,90.2h-41.6c-4.4,0-8,3.6-8,8v58.9c0,4.4,3.6,8,8,8H365c4.4,0,8-3.6,8-8v-28.2
	C373,412,369.5,408.4,365,408.4z M264.8,224.3l80-80.4c3.1-3.1,3.1-8.2,0-11.3c-0.1-0.1-0.2-0.1-0.2-0.2c-0.1-0.3-0.3-0.5-0.5-0.8
	c-2.1-3-3.2-6.5-3.2-10.2c0-9.8,8-17.8,17.8-17.8s17.8,8,17.8,17.8c0,9.8-8,17.8-17.8,17.8c-4.4,0-8,3.6-8,8s3.6,8,8,8
	c18.6,0,33.8-15.2,33.8-33.8c0-18.6-15.2-33.8-33.8-33.8s-33.8,15.2-33.8,33.8c0,5.6,1.4,11,4,15.9l-73,73.4h-36.6c-4.4,0-8,3.6-8,8
	v39.4c0,4.4,3.6,8,8,8s8-3.6,8-8v-31.4h31.9C261.2,226.7,263.3,225.8,264.8,224.3z"></path>
<path d="M493.2,210.4c0,5.9-4.8,10.8-10.8,10.8s-10.8-4.8-10.8-10.8c0-5.9,4.8-10.8,10.8-10.8S493.2,204.4,493.2,210.4z M41.7,72
	h15.8v15.8c0,4.4,3.6,8,8,8s8-3.6,8-8V72h15.8c4.4,0,8-3.6,8-8s-3.6-8-8-8H73.5V40.3c0-4.4-3.6-8-8-8s-8,3.6-8,8V56H41.7
	c-4.4,0-8,3.6-8,8S37.3,72,41.7,72z M233.1,461H39.4c-4.4,0-8,3.6-8,8s3.6,8,8,8h193.6c4.4,0,8-3.6,8-8S237.5,461,233.1,461z
	 M438.8,182.2h-57.4c-4.4,0-8,3.6-8,8s3.6,8,8,8h57.4c4.4,0,8-3.6,8-8S443.2,182.2,438.8,182.2z"></path>
<g>
	<path fill="#FFA4ED" class="primary-color" d="M501,497.5h-2.7h-30.2h-55.7v-32.9h55.7v-53.1H501V497.5z"></path>
	<path fill="#DB81DA" class="secondary-color" d="M504.2,13.6v57.8L388.5,13.6H504.2z M23.1,321.9h21.8V265H23.1V321.9z"></path>
</g>
</svg>