<svg version="1.1" id="Layer_1" xmlns="http://www.w3.org/2000/svg" xmlns:xlink="http://www.w3.org/1999/xlink" x="0px" y="0px" viewBox="0 0 512 512" enable-background="new 0 0 512 512" xml:space="preserve">
<g>
	<linearGradient id="SVGID_1_" gradientUnits="userSpaceOnUse" x1="209.4471" y1="272.7044" x2="209.4471" y2="199.9611" class="gradient-element">
		<stop offset="0" class="primary-color-gradient" style="stop-color: #FFA4ED"></stop>
		<stop offset="1" class="secondary-color-gradient" style="stop-color: #DB81DA"></stop>
	</linearGradient>
	<path fill="url(#SVGID_1_)" d="M281.3,200v36.4v36.4H137.5v-6.9c0-16.3,13.2-29.5,29.5-29.5h44.1c11.4,0,20.6-9.2,20.6-20.6v0
		c0-8.7,7-15.7,15.7-15.7h23.2H281.3z"></path>
	<linearGradient id="SVGID_2_" gradientUnits="userSpaceOnUse" x1="82.8496" y1="259.3018" x2="460.1897" y2="259.3018">
		<stop offset="0" class="primary-color-gradient" style="stop-color: #FFA4ED"></stop>
		<stop offset="1" class="secondary-color-gradient" style="stop-color: #DB81DA"></stop>
	</linearGradient>
	<path fill="url(#SVGID_2_)" d="M454.4,160l-2.2,0.8l-8.4,4.1c-12.4,6-20.2,18.5-20.2,32.2v111.8l-84.6-32.3
		c-7.1-2.7-14.7,2.5-14.7,10.1v17.6c0,10.9-8.9,19.9-19.9,19.9h-205c-9.2,0-16.7,7.5-16.7,16.7l0,0c0,10.9,8.9,19.9,19.9,19.9H341
		c10.9,0,19.9-8.9,19.9-19.9v-33.4l99.3,37.9V157.9L454.4,160z"></path>
</g>
<g>
	<path fill="#DB81DA" class="secondary-color" d="M32.6,412.5h65.6v37.3H32.6V412.5z"></path>
	<path fill="#FFA4ED" class="primary-color" d="M108.9,413.3h59.7v35.8h-59.7V413.3z"></path>
</g>
<path d="M62.5,70.4l2.8-2.8l-2.8-2.8c-3.1-3.1-3.1-8.2,0-11.3c3.1-3.1,8.2-3.1,11.3,0l2.8,2.8l2.8-2.8c3.1-3.1,8.2-3.1,11.3,0
	c3.1,3.1,3.1,8.2,0,11.3l-2.8,2.8l2.8,2.8c3.1,3.1,3.1,8.2,0,11.3c-1.6,1.6-3.6,2.3-5.7,2.3s-4.1-0.8-5.7-2.3L76.6,79l-2.8,2.8
	c-1.6,1.6-3.6,2.3-5.7,2.3s-4.1-0.8-5.7-2.3C59.4,78.6,59.4,73.5,62.5,70.4z M405.5,393.8h-3.9v-3.9c0-4.4-3.6-8-8-8s-8,3.6-8,8v3.9
	h-3.9c-4.4,0-8,3.6-8,8s3.6,8,8,8h3.9v3.9c0,4.4,3.6,8,8,8s8-3.6,8-8v-3.9h3.9c4.4,0,8-3.6,8-8S410,393.8,405.5,393.8z M168.7,475.7
	h-136c-4.4,0-8,3.6-8,8s3.6,8,8,8h136c4.4,0,8-3.6,8-8S173.1,475.7,168.7,475.7z M448.4,97h-40.2c-4.4,0-8,3.6-8,8s3.6,8,8,8h40.2
	c4.4,0,8-3.6,8-8S452.8,97,448.4,97z M441,45.4c0-4.4-3.6-8-8-8H307.6c-4.4,0-8,3.6-8,8s3.6,8,8,8H433C437.4,53.4,441,49.8,441,45.4
	z"></path>
<path d="M468.2,157.9v187.4c0,2.6-1.3,5.1-3.5,6.6c-2.2,1.5-4.9,1.8-7.4,0.9L368.9,319v21.8c0,15.4-12.5,27.9-27.9,27.9H102.7
	c-15.4,0-27.9-12.5-27.9-27.9V162.1c0-15.4,12.5-27.9,27.9-27.9H273c-1.6-11.1-9.6-20.2-20.2-23.3v9.1c0,4.4-3.6,8-8,8h-123
	c-12.4,0-22.4-10.1-22.4-22.4v-10c0-12.4,10.1-22.4,22.4-22.4h123c4.4,0,8,3.6,8,8s-3.6,8-8,8h-123c-3.5,0-6.4,2.9-6.4,6.4v10
	c0,3.5,2.9,6.4,6.4,6.4h115v-10.2c0-4.4,3.6-8,8-8c23.2,0,42.2,17.8,44.3,40.4H341c15.4,0,27.9,12.5,27.9,27.9v10.1c0,4.4-3.6,8-8,8
	s-8-3.6-8-8v-10.1c0-6.5-5.3-11.9-11.9-11.9H102.7c-6.5,0-11.9,5.3-11.9,11.9v178.7c0,6.5,5.3,11.9,11.9,11.9H341
	c6.5,0,11.9-5.3,11.9-11.9v-33.4c0-2.6,1.3-5.1,3.5-6.6c2.2-1.5,4.9-1.8,7.4-0.9l88.4,33.7V169.3l-103.5,36.8v52.5c0,4.4-3.6,8-8,8
	s-8-3.6-8-8V200c0-4.4,3.5-7.9,7.9-8l116.9-41.6c2.5-0.9,5.2-0.5,7.3,1C466.9,152.9,468.2,155.3,468.2,157.9z M289.3,200
	c0-4.4-3.6-8-8-8s-8,3.6-8,8v64.7H145.5V208h104.9c4.4,0,8-3.6,8-8s-3.6-8-8-8H137.5c-4.4,0-8,3.6-8,8v72.7c0,4.4,3.6,8,8,8h143.8
	c4.4,0,8-3.6,8-8V200z M137.5,298.3c-4.4,0-8,3.6-8,8s3.6,8,8,8h45.1c4.4,0,8-3.6,8-8s-3.6-8-8-8H137.5z M281.3,298.3h-71.9
	c-4.4,0-8,3.6-8,8s3.6,8,8,8h71.9c4.4,0,8-3.6,8-8S285.8,298.3,281.3,298.3z"></path>
</svg>