<svg version="1.1" id="Layer_1" xmlns="http://www.w3.org/2000/svg" xmlns:xlink="http://www.w3.org/1999/xlink" x="0px" y="0px" viewBox="0 0 512 512" enable-background="new 0 0 512 512" xml:space="preserve">
<linearGradient id="SVGID_1_" gradientUnits="userSpaceOnUse" x1="261.4225" y1="493.4466" x2="261.4225" y2="70.9047" class="gradient-element">
	<stop offset="0" class="primary-color-gradient" style="stop-color: #FFA4ED"></stop>
	<stop offset="1" class="secondary-color-gradient" style="stop-color: #DB81DA"></stop>
</linearGradient>
<path fill="url(#SVGID_1_)" d="M173.7,264.7c4.4-1.5,10.9-1.2,13.1,4c12.3,29.7,34,51.5,64.6,56.3c26.1,4.1,43.3-5.8,51.7-15.5
	c24.3-27.8,26.5-85.8-36.4-118.7c-9.8-5.1-4-21,7.1-21h0.4c6.8,0,13.4,0.7,19.9,1.9c37,12,63.7,46.7,63.7,87.7
	c0,50.9-41.2,92.1-92.1,92.1C216.6,351.6,176.5,313.1,173.7,264.7z M479.9,112.1c-31.2,0-56.5,25.3-56.5,56.5v218.6H53.9
	c-6.1,0-11,4.9-11,11s4.9,11,11,11h369.5h30.5h26L479.9,112.1L479.9,112.1z"></path>
<g>
	<path d="M107.3,42.6H91.5V26.8c0-4.4-3.6-8-8-8s-8,3.6-8,8v15.8H59.7c-4.4,0-8,3.6-8,8s3.6,8,8,8h15.8v15.8c0,4.4,3.6,8,8,8
		s8-3.6,8-8V58.6h15.8c4.4,0,8-3.6,8-8S111.7,42.6,107.3,42.6z"></path>
	<circle cx="478.2" cy="52.7" r="10.8"></circle>
	<path d="M478.2,471.3H345.1c-4.4,0-8,3.6-8,8s3.6,8,8,8h133.2c4.4,0,8-3.6,8-8S482.7,471.3,478.2,471.3z"></path>
	<path d="M318.2,439H138.5c-4.4,0-8,3.6-8,8s3.6,8,8,8h179.7c4.4,0,8-3.6,8-8S322.6,439,318.2,439z"></path>
</g>
<path d="M230.8,321.2c-1.4,0-2.7-0.3-3.9-1c-2.5-1.4-4.1-4.1-4.1-7V208.3c0-2.9,1.6-5.5,4.1-7c2.5-1.4,5.6-1.4,8.1,0.1l87.4,52.4
	c2.4,1.4,3.9,4,3.9,6.9s-1.5,5.4-3.9,6.9L234.9,320C233.7,320.8,232.3,321.2,230.8,321.2z M238.8,222.4V299l63.9-38.3L238.8,222.4z
	 M265.8,162c-54.5,0-98.8,44.3-98.8,98.8c0,54.5,44.3,98.8,98.8,98.8s98.8-44.3,98.8-98.8C364.6,206.3,320.2,162,265.8,162z
	 M265.8,343.5c-45.6,0-82.8-37.1-82.8-82.8c0-45.6,37.1-82.8,82.8-82.8s82.8,37.1,82.8,82.8C348.6,306.4,311.4,343.5,265.8,343.5z
	 M459.4,281.8h-42.6v-42.6c0-4.4-3.6-8-8-8s-8,3.6-8,8v50.6c0,4.4,3.6,8,8,8h50.6c4.4,0,8-3.6,8-8S463.9,281.8,459.4,281.8z
	 M408.8,328.6c-4.4,0-8,3.6-8,8v50.6c0,4.4,3.6,8,8,8h50.6c4.4,0,8-3.6,8-8s-3.6-8-8-8h-42.6v-42.6
	C416.8,332.2,413.2,328.6,408.8,328.6z M114,395.2c4.4,0,8-3.6,8-8v-50.6c0-4.4-3.6-8-8-8H63.4c-4.4,0-8,3.6-8,8s3.6,8,8,8H106v42.6
	C106,391.7,109.6,395.2,114,395.2z M459.4,186.8h-42.6v-42.6c0-4.4-3.6-8-8-8s-8,3.6-8,8v50.6c0,4.4,3.6,8,8,8h50.6c4.4,0,8-3.6,8-8
	S463.9,186.8,459.4,186.8z M479.9,132c-4.4,0-8,3.6-8,8v261.2h-421V120.1h429c4.4,0,8-3.6,8-8s-3.6-8-8-8h-437c-4.4,0-8,3.6-8,8
	v297.2c0,4.4,3.6,8,8,8h437c4.4,0,8-3.6,8-8V140C487.9,135.6,484.3,132,479.9,132z M371.4,134.2c0-4.4-3.6-8-8-8H134.9
	c-4.4,0-8,3.6-8,8v253.1c0,4.4,3.6,8,8,8H388c4.4,0,8-3.6,8-8V134.2c0-4.4-3.6-8-8-8s-8,3.6-8,8v245.1H142.9V142.2h220.5
	C367.8,142.2,371.4,138.6,371.4,134.2z M122,241.7c0-4.4-3.6-8-8-8H63.4c-4.4,0-8,3.6-8,8s3.6,8,8,8H106v42.6c0,4.4,3.6,8,8,8
	s8-3.6,8-8V241.7z M122,144.2c0-4.4-3.6-8-8-8H63.4c-4.4,0-8,3.6-8,8s3.6,8,8,8H106v42.6c0,4.4,3.6,8,8,8s8-3.6,8-8V144.2z"></path>
</svg>