<svg version="1.1" id="Layer_1" xmlns="http://www.w3.org/2000/svg" xmlns:xlink="http://www.w3.org/1999/xlink" x="0px" y="0px" viewBox="0 0 512 512" enable-background="new 0 0 512 512" xml:space="preserve">
<linearGradient id="SVGID_1_" gradientUnits="userSpaceOnUse" x1="256" y1="286.0175" x2="256" y2="188.5363" class="gradient-element">
	<stop offset="0" class="primary-color-gradient" style="stop-color: #FFA4ED"></stop>
	<stop offset="1" class="secondary-color-gradient" style="stop-color: #DB81DA"></stop>
</linearGradient>
<path fill="url(#SVGID_1_)" d="M312.8,232.3c0,31.4-25.5,56.8-56.8,56.8c-30.3,0-55.1-23.7-56.8-53.6c2.7-0.9,6.7-0.7,8.1,2.5
	c7.6,18.3,21,31.8,39.9,34.8c16.1,2.5,26.7-3.6,31.9-9.6c15-17.2,16.4-53-22.5-73.3c-6.1-3.2-2.5-12.9,4.4-13h0.2
	c4.2,0,8.3,0.4,12.3,1.2C296.3,185.6,312.8,207,312.8,232.3z"></path>
<path d="M255.9,376c-93.1,0-136.1-51.9-140.7-57.8c-2.7-3.5-2.1-8.5,1.4-11.2c3.5-2.7,8.5-2.1,11.2,1.4
	c4.1,5.3,42.6,51.7,128.1,51.7c85.3,0,124-46.4,128.1-51.6l6.4,4.9l6.3,5C392,324.1,348.8,376,255.9,376z M255.9,301.3
	c-38.7,0-70.2-31.5-70.2-70.2c0-36.2,27.1-66.2,62.9-70c0.2,0,0.3,0,0.5,0l6.5-0.2c0.2,0,0.4,0,0.6,0l6.5,0.2c0.2,0,0.3,0,0.5,0
	c17.2,1.8,33.1,9.9,44.8,22.8c11.7,13,18.2,29.7,18.2,47.2C326.1,269.8,294.6,301.3,255.9,301.3z M250,177.1
	c-27.6,3-48.3,26.2-48.3,54c0,29.9,24.3,54.2,54.2,54.2s54.2-24.3,54.2-54.2c0-27.9-20.8-51-48.3-54l-5.9-0.2L250,177.1z M69.7,261
	c-0.6,0-1.2-0.1-1.8-0.2c-4.3-1-7-5.2-6.1-9.5c0.3-1.2,27.6-115.3,194-115.3C413.8,136,446.8,239,450,250.8c1.2,4.3-1.3,8.7-5.6,9.9
	c-4.3,1.2-8.6-1.3-9.8-5.5c0,0,0-0.1,0-0.1C431.7,244.5,402,152,255.9,152C102.4,152,77.7,253.7,77.5,254.8
	C76.6,258.5,73.3,261,69.7,261z"></path>
<path d="M496.8,329.3c0,4.4-3.6,8-8,8h-43c-4.4,0-8-3.6-8-8s3.6-8,8-8h43C493.3,321.3,496.8,324.9,496.8,329.3z M81.1,89.4H65.3
	V73.6c0-4.4-3.6-8-8-8s-8,3.6-8,8v15.8H33.5c-4.4,0-8,3.6-8,8s3.6,8,8,8h15.8v15.8c0,4.4,3.6,8,8,8s8-3.6,8-8v-15.8h15.8
	c4.4,0,8-3.6,8-8S85.5,89.4,81.1,89.4z M403,94.7c20.3,0,36.8-16.5,36.8-36.8c0-4.4-3.6-8-8-8s-8,3.6-8,8c0,11.4-9.3,20.7-20.8,20.7
	c-4.4,0-8,3.6-8,8S398.6,94.7,403,94.7z M481.7,94.7c4.4,0,8-3.6,8-8s-3.6-8-8-8c-11.4,0-20.8-9.3-20.8-20.8c0-4.4-3.6-8-8-8
	s-8,3.6-8,8C445,78.2,461.5,94.7,481.7,94.7z M453,144.7c4.4,0,8-3.6,8-8c0-11.4,9.3-20.8,20.8-20.8c4.4,0,8-3.6,8-8s-3.6-8-8-8
	c-20.3,0-36.8,16.5-36.8,36.8C445,141.1,448.6,144.7,453,144.7z M359,428.1c-5.9,0-10.8,4.8-10.8,10.8c0,5.9,4.8,10.8,10.8,10.8
	s10.8-4.8,10.8-10.8C369.7,432.9,364.9,428.1,359,428.1z M423.7,136.7c0,4.4,3.6,8,8,8s8-3.6,8-8c0-20.3-16.5-36.8-36.8-36.8
	c-4.4,0-8,3.6-8,8s3.6,8,8,8C414.4,116,423.7,125.3,423.7,136.7z M466.1,428.6h-15.8v-15.8c0-4.4-3.6-8-8-8s-8,3.6-8,8v15.8h-15.8
	c-4.4,0-8,3.6-8,8s3.6,8,8,8h15.8v15.8c0,4.4,3.6,8,8,8s8-3.6,8-8v-15.8h15.8c4.4,0,8-3.6,8-8S470.5,428.6,466.1,428.6z M301,461.2
	h-73.8c-4.4,0-8,3.6-8,8s3.6,8,8,8H301c4.4,0,8-3.6,8-8S305.4,461.2,301,461.2z M268.4,412.8c0-4.4-3.6-8-8-8h-98.1
	c-4.4,0-8,3.6-8,8s3.6,8,8,8h98.1C264.9,420.8,268.4,417.2,268.4,412.8z"></path>
<g>
	<path fill="#DB81DA" class="secondary-color" d="M57.3,369.4l57.8,57.8l-57.8,57.8V369.4z"></path>
	<path fill="#FFA4ED" class="primary-color" d="M182.9,80.4h-34.7V45.8h34.7V80.4z M238.1,45.8h-34.7v34.7h34.7V45.8z"></path>
	<path fill="#FFA4ED" class="primary-color" d="M293.4,80.4h-34.7V45.8h34.7V80.4z"></path>
</g>
</svg>