<svg version="1.1" id="Layer_1" xmlns="http://www.w3.org/2000/svg" xmlns:xlink="http://www.w3.org/1999/xlink" x="0px" y="0px" viewBox="0 0 512 512" enable-background="new 0 0 512 512" xml:space="preserve">
<linearGradient id="SVGID_1_" gradientUnits="userSpaceOnUse" x1="351.3978" y1="426.7477" x2="355.6683" y2="220.9106" class="gradient-element">
	<stop offset="0" class="primary-color-gradient" style="stop-color: #FFA4ED"></stop>
	<stop offset="1" class="secondary-color-gradient" style="stop-color: #DB81DA"></stop>
</linearGradient>
<path fill="url(#SVGID_1_)" d="M261.2,225.9v-6.3c0-3,2.4-5.4,5.4-5.4h68.5c3,0,5.4,2.4,5.4,5.4l0,0c0,3,2.4,5.4,5.4,5.4h75.1
	c1.7,0,3.4,0.8,4.4,2.2c5.2,7.2,20.3,32.7,20.3,89.5v116.8c0,3-2.4,5.4-5.4,5.4H287.1c-14.3,0-25.9-11.6-25.9-25.9v0
	c0-12.5,8.9-23.2,21.2-25.5c23.5-4.4,58.2-20.1,58.2-73.7c0-67.9-57.5-80.4-74.6-82.5C263.2,230.9,261.2,228.6,261.2,225.9z"></path>
<path d="M487,213.8v11.5c0,4.4-3.6,8-8,8h-36.6c6.6,16.6,9.9,34.1,9.9,52.2v49.6c0,4.4-3.6,8-8,8s-8-3.6-8-8v-49.6
	c0-19.8-4.5-38.9-13.5-56.6c-1.2-2.5-1.1-5.4,0.3-7.8c1.5-2.4,4-3.8,6.8-3.8H471v-3.5c0-39.5-13.1-71.4-39-94.7
	c-34.9-31.4-92.8-47.3-172.2-47.3c-79.4,0-137.3,15.9-172.2,47.3c-25.9,23.3-39,55.2-39,94.7v3.5h41c2.8,0,5.4,1.4,6.8,3.8
	s1.6,5.3,0.3,7.8c-8.9,17.6-13.6,37.2-13.6,56.6v145.3h353.2v-54.4c0-4.4,3.6-8,8-8s8,3.6,8,8v62.4c0,4.4-3.6,8-8,8H75.2
	c-4.4,0-8-3.6-8-8V285.5c0-17.7,3.5-35.5,10.1-52.2H40.6c-4.4,0-8-3.6-8-8v-11.5c0-44.3,14.9-80.1,44.3-106.6
	c37.9-34.1,99.4-51.4,182.9-51.4s145,17.3,182.9,51.4C472.1,133.7,487,169.5,487,213.8z M179.1,171.2c-4.4,0-8,3.6-8,8v38.2h-55
	c-4.4,0-8,3.6-8,8c0,4.4,3.6,8,8,8h63c4.4,0,8-3.6,8-8v-38.2h130.6c4.4,0,8-3.6,8-8v-23.1c0-4.4-3.6-8-8-8H187.1v-30.7
	c0-4.4-3.6-8-8-8c-4.4,0-8,3.6-8,8v38.7c0,4.4,3.6,8,8,8h130.6v7.1H179.1z M411.7,225.3c0-4.4-3.6-8-8-8h-55.1V93.9c0-4.4-3.6-8-8-8
	s-8,3.6-8,8v131.4c0,4.4,3.6,8,8,8h63.1C408.1,233.3,411.7,229.7,411.7,225.3z M259.8,382.4c-12.2,0-24.2-3.1-34.7-8.9
	c-3.9-2.1-8.7-0.8-10.9,3.1s-0.8,8.7,3.1,10.9c12.9,7.1,27.5,10.9,42.4,10.9c48.5,0,88-39.4,88-87.8c0-48.5-39.5-88-88-88
	s-88,39.5-88,88c0,23.2,9,45,25.3,61.6c3.1,3.1,8.2,3.2,11.3,0.1c3.1-3.1,3.2-8.2,0.1-11.3c-13.3-13.5-20.7-31.4-20.7-50.3
	c0-39.7,32.3-72,72-72s72,32.3,72,72C331.8,350.2,299.5,382.4,259.8,382.4z"></path>
<path fill="#DB81DA" class="secondary-color" d="M419.3,28.7h27.4v27.4h-27.4V28.7z M488,56.1V28.7h-27.4v27.4H488z M488,98.3V70.8h-27.4v27.4H488z"></path>
<g>
	<path fill="#FFA4ED" class="primary-color" d="M16.7,24.2h21.8v86.7H16.7V24.2z"></path>
	<path fill="#DB81DA" class="secondary-color" d="M50.1,24.2h21.8v86.7H50.1V24.2z"></path>
</g>
<path d="M134.5,475.6c0,4.4-3.6,8-8,8H33.5c-4.4,0-8-3.6-8-8s3.6-8,8-8h92.9C130.9,467.6,134.5,471.2,134.5,475.6z M486.6,294.7
	c4.2-4.2,4.2-11,0-15.2c-4.2-4.2-11-4.2-15.2,0c-4.2,4.2-4.2,11,0,15.2C475.6,298.9,482.5,298.9,486.6,294.7z M465.2,455.7h-3.9
	v-3.9c0-4.4-3.6-8-8-8s-8,3.6-8,8v3.9h-3.9c-4.4,0-8,3.6-8,8s3.6,8,8,8h3.9v3.9c0,4.4,3.6,8,8,8s8-3.6,8-8v-3.9h3.9c4.4,0,8-3.6,8-8
	S469.6,455.7,465.2,455.7z M500.8,329.3h-92.9c-4.4,0-8,3.6-8,8s3.6,8,8,8h92.9c4.4,0,8-3.6,8-8S505.2,329.3,500.8,329.3z
	 M469.1,376.5c0-4.4-3.6-8-8-8h-55c-4.4,0-8,3.6-8,8s3.6,8,8,8h55C465.5,384.5,469.1,380.9,469.1,376.5z"></path>
</svg>