<svg version="1.1" id="Layer_1" xmlns="http://www.w3.org/2000/svg" xmlns:xlink="http://www.w3.org/1999/xlink" x="0px" y="0px" viewBox="0 0 512 512" enable-background="new 0 0 512 512" xml:space="preserve">
<linearGradient id="SVGID_1_" gradientUnits="userSpaceOnUse" x1="301.511" y1="432.5362" x2="301.511" y2="149.5315" class="gradient-element">
	<stop offset="0" class="primary-color-gradient" style="stop-color: #FFA4ED"></stop>
	<stop offset="1" class="secondary-color-gradient" style="stop-color: #DB81DA"></stop>
</linearGradient>
<path fill="url(#SVGID_1_)" d="M398.5,289.6c-0.1,77.5-63.8,140.6-141.4,140c-13-0.1-25.6-2-37.5-5.4c-13.4-3.8-19.5-19.6-11.7-31.2
	c24.6-36.2,120.2-19.4,120.2-104.2c0-95.1-71.8-68.1-91.2-105.4c-8.1-15.6,3.4-34.4,21-34.4c0.1,0,0.2,0,0.3,0
	C335.8,149.1,398.6,212.1,398.5,289.6z"></path>
<path d="M95.6,289.4c0,4.4-3.6,8-8,8H59.9c-4.4,0-8-3.6-8-8s3.6-8,8-8h27.7C92,281.4,95.6,285,95.6,289.4z M137.6,176.3
	c2,0,4.1-0.8,5.7-2.3c3.1-3.1,3.1-8.2,0-11.3l-19.5-19.5c-3.1-3.1-8.2-3.1-11.3,0c-3.1,3.1-3.1,8.2,0,11.3l19.5,19.5
	C133.5,175.5,135.5,176.3,137.6,176.3z M104.2,215.8L78.5,205c-4.1-1.7-8.8,0.2-10.5,4.3c-1.7,4.1,0.2,8.8,4.3,10.5L98,230.5
	c1,0.4,2.1,0.6,3.1,0.6c3.1,0,6.1-1.8,7.4-4.9C110.2,222.2,108.3,217.5,104.2,215.8z M186.8,134.5c1.3,3.1,4.3,5,7.4,5
	c1,0,2-0.2,3-0.6c4.1-1.7,6.1-6.3,4.4-10.4L191,102.3c-1.7-4.1-6.3-6.1-10.4-4.4c-4.1,1.7-6.1,6.3-4.4,10.4L186.8,134.5z
	 M457.5,281.4h-27.7c-4.4,0-8,3.6-8,8s3.6,8,8,8h27.7c4.4,0,8-3.6,8-8S461.9,281.4,457.5,281.4z M393.6,143.2l-19.5,19.5
	c-3.1,3.1-3.1,8.2,0,11.3c1.6,1.6,3.6,2.3,5.7,2.3c2,0,4.1-0.8,5.7-2.3l19.5-19.5c3.1-3.1,3.1-8.2,0-11.3
	C401.8,140.1,396.7,140.1,393.6,143.2z M258.7,126.2c4.4,0,8-3.6,8-8V90.6c0-4.4-3.6-8-8-8s-8,3.6-8,8v27.5
	C250.7,122.6,254.3,126.2,258.7,126.2z M449.3,209.3c-1.7-4.1-6.4-6-10.5-4.3l-25.7,10.8c-4.1,1.7-6,6.4-4.3,10.5
	c1.3,3.1,4.3,4.9,7.4,4.9c1,0,2.1-0.2,3.1-0.6l25.7-10.8C449.1,218,451,213.4,449.3,209.3z M320.1,138.9c1,0.4,2,0.6,3,0.6
	c3.2,0,6.1-1.9,7.4-5l10.7-26.1c1.7-4.1-0.3-8.8-4.4-10.4c-4.1-1.7-8.8,0.3-10.4,4.4l-10.7,26.1C314.1,132.5,316,137.2,320.1,138.9z
	 M358.7,189.4c-0.3-0.3-0.5-0.5-0.8-0.7c-25.5-25.2-60.6-40.7-99.2-40.7c-78,0-141.4,63.4-141.4,141.4c0,26.4,7.3,52.1,21.1,74.4
	c2.3,3.8,7.3,4.9,11,2.6c3.8-2.3,4.9-7.3,2.6-11c-12.3-19.8-18.7-42.6-18.7-66c0-69.2,56.3-125.4,125.4-125.4
	c31.7,0,60.7,11.8,82.8,31.3L253,283.7c-3.1,3.1-3.1,8.2,0,11.3c1.6,1.6,3.6,2.3,5.7,2.3c2,0,4.1-0.8,5.7-2.3l88.5-88.5
	c19.5,22.1,31.3,51.1,31.3,82.8c0,69.2-56.3,125.4-125.4,125.4c-31.2,0-61.2-11.6-84.3-32.5c-3.3-3-8.3-2.7-11.3,0.5
	c-3,3.3-2.7,8.3,0.5,11.3c26.1,23.7,59.8,36.7,95.1,36.7c78,0,141.4-63.4,141.4-141.4c0-38.6-15.6-73.7-40.7-99.2
	C359.2,189.9,358.9,189.6,358.7,189.4z"></path>
<path d="M158.5,367.6h-57.4c-4.4,0-8-3.6-8-8s3.6-8,8-8h57.4c4.4,0,8,3.6,8,8S162.9,367.6,158.5,367.6z M229.1,380.2h-86.8
	c-4.4,0-8,3.6-8,8s3.6,8,8,8h86.8c4.4,0,8-3.6,8-8S233.5,380.2,229.1,380.2z M135.9,66c5.9,0,10.8-4.8,10.8-10.8
	s-4.8-10.8-10.8-10.8s-10.8,4.8-10.8,10.8S130,66,135.9,66z M70.6,55.3c0-5.9-4.8-10.8-10.8-10.8s-10.8,4.8-10.8,10.8S54,66,59.9,66
	S70.6,61.2,70.6,55.3z M97.9,66c5.9,0,10.8-4.8,10.8-10.8s-4.8-10.8-10.8-10.8s-10.8,4.8-10.8,10.8S92,66,97.9,66z M455.5,404.3
	h-15.8v-15.8c0-4.4-3.6-8-8-8s-8,3.6-8,8v15.8h-15.8c-4.4,0-8,3.6-8,8s3.6,8,8,8h15.8v15.8c0,4.4,3.6,8,8,8s8-3.6,8-8v-15.8h15.8
	c4.4,0,8-3.6,8-8S459.9,404.3,455.5,404.3z M88.5,441.5h-3.9v-3.9c0-4.4-3.6-8-8-8s-8,3.6-8,8v3.9h-3.9c-4.4,0-8,3.6-8,8s3.6,8,8,8
	h3.9v3.9c0,4.4,3.6,8,8,8s8-3.6,8-8v-3.9h3.9c4.4,0,8-3.6,8-8S92.9,441.5,88.5,441.5z"></path>
<g>
	<path fill="#FFA4ED" class="primary-color" d="M468,113.2h21.8v56.9H468V113.2z M357.7,58.1h56.9V36.3h-56.9V58.1z M432.8,36.3v21.8H468V95h21.8V58.1v-20
		v-1.8H432.8z"></path>
	<path fill="#DB81DA" class="secondary-color" d="M157,486.8v-26.8h203.3v26.8H157z"></path>
</g>
</svg>