<svg version="1.1" id="Layer_1" xmlns="http://www.w3.org/2000/svg" xmlns:xlink="http://www.w3.org/1999/xlink" x="0px" y="0px" viewBox="0 0 512 512" enable-background="new 0 0 512 512" xml:space="preserve">
<linearGradient id="SVGID_1_" gradientUnits="userSpaceOnUse" x1="260.0099" y1="432.826" x2="260.0099" y2="114.5103" class="gradient-element">
	<stop offset="0" class="primary-color-gradient" style="stop-color: #FFA4ED"></stop>
	<stop offset="1" class="secondary-color-gradient" style="stop-color: #DB81DA"></stop>
</linearGradient>
<path fill="url(#SVGID_1_)" d="M115.8,232.6c0-36.7,29.8-66.5,66.5-66.5v101.2l-49.1-1.4C125,265.9,115.8,255.8,115.8,232.6z
	 M315.5,221.5V88.5c-36.7,0-66.5,29.8-66.5,66.5S278.7,221.5,315.5,221.5z M93.7,310.3v155.3h332.7V310.3H93.7z"></path>
<path d="M426.4,473.5H82.6c-22.8,0-41.3-18.5-41.3-41.3V254.8c0-22.8,18.5-41.3,41.3-41.3h27.8c3.9-14.5,12.1-27.7,23.7-37.6
	c13.5-11.5,30.7-17.9,48.4-17.9c17.7,0,34.9,6.3,48.4,17.9c11.6,9.9,19.8,23.1,23.7,37.6h14.9c-2.5-2-4.9-4.2-7.2-6.5
	c-13.7-14-21.2-32.5-21.2-52c0-41.1,33.4-74.5,74.5-74.5S390,113.9,390,155c0,16.3-5.2,31.8-15,44.8c-2.7,3.5-7.7,4.2-11.2,1.6
	c-3.5-2.7-4.2-7.7-1.6-11.2c7.7-10.2,11.8-22.4,11.8-35.1c0-32.3-26.3-58.5-58.5-58.5s-58.5,26.3-58.5,58.5
	c0,15.3,5.9,29.9,16.7,40.9c11.1,11.4,26,17.7,41.9,17.7h88.7c4.4,0,8,3.6,8,8v22.2c0,4.4-3.6,8-8,8s-8-3.6-8-8v-14.2H248
	c-3.9,0-7.2-2.8-7.9-6.7c-4.8-28.3-29-48.8-57.7-48.8c-28.7,0-53,20.5-57.7,48.8c-0.6,3.9-4,6.7-7.9,6.7H82.6
	c-13.9,0-25.3,11.3-25.3,25.3v177.4c0,13.9,11.3,25.3,25.3,25.3h335.8v-14.2c0-4.4,3.6-8,8-8s8,3.6,8,8v22.2
	C434.4,469.9,430.8,473.5,426.4,473.5z M426.4,429.2c-4.4,0-8-3.6-8-8V273.9H153.1c-0.3,0-0.6,0-1-0.1c0,0,0,0,0,0
	c-0.6-0.1-1.2-0.2-1.8-0.4c-0.7-0.2-1.3-0.6-1.9-1h0c0,0,0,0,0,0c-0.2-0.2-0.4-0.3-0.7-0.5c-11.3-10-17.7-24.3-17.7-39.2
	c0-28.9,23.5-52.4,52.4-52.4c28.9,0,52.4,23.5,52.4,52.4c0,4.4-3.6,8-8,8s-8-3.6-8-8c0-20-16.3-36.4-36.4-36.4
	c-20,0-36.4,16.3-36.4,36.4c0,9.4,3.7,18.5,10.2,25.3h270.1c4.4,0,8,3.6,8,8v155.3C434.4,425.6,430.8,429.2,426.4,429.2z
	 M124.8,273.9H82.6c-10.5,0-19.1-8.6-19.1-19.1c0-10.5,8.6-19.1,19.1-19.1c4.4,0,8,3.6,8,8s-3.6,8-8,8c-1.7,0-3.1,1.4-3.1,3.1
	c0,1.7,1.4,3.1,3.1,3.1h42.2c4.4,0,8,3.6,8,8S129.2,273.9,124.8,273.9z M315.5,207.4c-4.4,0-8-3.6-8-8s3.6-8,8-8
	c20,0,36.4-16.3,36.4-36.4s-16.3-36.4-36.4-36.4c-4.4,0-8-3.6-8-8s3.6-8,8-8c28.9,0,52.4,23.5,52.4,52.4S344.3,207.4,315.5,207.4z"></path>
<g>
	<path fill="#DB81DA" class="secondary-color" d="M389.3,46.9V25.1h94.8v21.8H389.3z"></path>
	<path fill="#DB81DA" class="secondary-color" d="M389.3,82.7V60.9h94.8v21.8H389.3z"></path>
</g>
<path d="M110.2,160c0,4.4-3.6,8-8,8H86.4v15.8c0,4.4-3.6,8-8,8s-8-3.6-8-8V168H54.6c-4.4,0-8-3.6-8-8s3.6-8,8-8h15.8v-15.8
	c0-4.4,3.6-8,8-8s8,3.6,8,8V152h15.8C106.6,152,110.2,155.6,110.2,160z M493.5,449.8h-3.9v-3.9c0-4.4-3.6-8-8-8s-8,3.6-8,8v3.9h-3.9
	c-4.4,0-8,3.6-8,8s3.6,8,8,8h3.9v3.9c0,4.4,3.6,8,8,8s8-3.6,8-8v-3.9h3.9c4.4,0,8-3.6,8-8S497.9,449.8,493.5,449.8z M436.4,193.4
	c-4.4,0-8,3.6-8,8s3.6,8,8,8c14.6,0,26.4-11.8,26.4-26.4s-11.8-26.4-26.4-26.4c-4.4,0-8,3.6-8,8s3.6,8,8,8c5.7,0,10.4,4.7,10.4,10.4
	S442.2,193.4,436.4,193.4z M223.8,74.5H82.4c-4.4,0-8,3.6-8,8s3.6,8,8,8h141.4c4.4,0,8-3.6,8-8S228.2,74.5,223.8,74.5z M85.5,51.9
	c5,0,9-4.1,9-9s-4.1-9-9-9s-9,4.1-9,9S80.5,51.9,85.5,51.9z M115.5,51.9c5,0,9-4.1,9-9s-4.1-9-9-9s-9,4.1-9,9S110.5,51.9,115.5,51.9
	z M145.5,51.9c5,0,9-4.1,9-9s-4.1-9-9-9s-9,4.1-9,9S140.5,51.9,145.5,51.9z M469.2,313.5c0-4.4-3.6-8-8-8h-71.9c-4.4,0-8,3.6-8,8
	s3.6,8,8,8h71.9C465.6,321.5,469.2,317.9,469.2,313.5z"></path>
</svg>