<svg version="1.1" id="Layer_1" xmlns="http://www.w3.org/2000/svg" xmlns:xlink="http://www.w3.org/1999/xlink" x="0px" y="0px" viewBox="0 0 512 512" enable-background="new 0 0 512 512" xml:space="preserve">
<path d="M191.5,454.1c0,4.4-3.6,8-8,8h-79.5c-4.4,0-8-3.6-8-8s3.6-8,8-8h79.5C187.9,446.1,191.5,449.7,191.5,454.1z M108.4,473.5
	h-59c-4.4,0-8,3.6-8,8s3.6,8,8,8h59c4.4,0,8-3.6,8-8S112.8,473.5,108.4,473.5z M60.9,85.9c4.2-4.2,4.2-11,0-15.2
	c-4.2-4.2-11-4.2-15.2,0c-4.2,4.2-4.2,11,0,15.2C49.9,90.1,56.7,90.1,60.9,85.9z M461.2,463.1c-4.2,4.2-4.2,11,0,15.2
	c4.2,4.2,11,4.2,15.2,0c4.2-4.2,4.2-11,0-15.2S465.4,458.9,461.2,463.1z M480.7,282.5h-3.9v-3.9c0-4.4-3.6-8-8-8s-8,3.6-8,8v3.9
	h-3.9c-4.4,0-8,3.6-8,8s3.6,8,8,8h3.9v3.9c0,4.4,3.6,8,8,8s8-3.6,8-8v-3.9h3.9c4.4,0,8-3.6,8-8S485.1,282.5,480.7,282.5z
	 M457.1,82.4v-3.9h3.9c4.4,0,8-3.6,8-8s-3.6-8-8-8h-3.9v-3.9c0-4.4-3.6-8-8-8s-8,3.6-8,8v3.9h-3.9c-4.4,0-8,3.6-8,8s3.6,8,8,8h3.9
	v3.9c0,4.4,3.6,8,8,8S457.1,86.8,457.1,82.4z M326.5,67.9h-41.3c-4.4,0-8,3.6-8,8s3.6,8,8,8h41.3c4.4,0,8-3.6,8-8
	S330.9,67.9,326.5,67.9z"></path>
<linearGradient id="SVGID_1_" gradientUnits="userSpaceOnUse" x1="288.0932" y1="432.8923" x2="289.23" y2="224.8502" class="gradient-element">
	<stop offset="0" class="primary-color-gradient" style="stop-color: #FFA4ED"></stop>
	<stop offset="1" class="secondary-color-gradient" style="stop-color: #DB81DA"></stop>
</linearGradient>
<path fill="url(#SVGID_1_)" d="M440.5,252.8c12.2,0,22.1,9.9,22.1,22.1v119.3c0,13.2-8.7,32.6-32.6,32.6H136.7
	c-12.2,0-22.1-9.9-22.1-22.1V274.9c0-12.2,9.9-22.1,22.1-22.1H440.5z"></path>
<path d="M454.7,136v-5.8H103.7c-1.9,0-46.4,0.5-46.4,46.4s44.5,46.4,46.4,46.4h337.2c4.4,0,8,3.6,8,8v163c0,0.1,0,0.1,0,0.2
	c-0.2,11.6-7.5,18.8-18.9,18.8H127.4c-17.3,0-31.4-14.1-31.4-31.4v-82.8c0-4.4,3.6-8,8-8s8,3.6,8,8v82.8c0,8.5,6.9,15.4,15.4,15.4
	H430c2.2,0,2.8,0,2.9-3.1V239H103.7c-5.1,0-23-0.9-39-12.6c-2.4-1.8-5-3.9-7.4-6.5v152.5c0,45.9,44.5,46.4,46.4,46.4H430
	c19.5,0,24.6-16.1,24.6-24.6V209.3c0-4.4,3.6-8,8-8s8,3.6,8,8v184.9c0,19.7-14.2,40.6-40.6,40.6H103.7c-5.1,0-23-0.9-39-12.6
	c-10.7-7.8-23.4-22.8-23.4-49.8V182.8c0-0.5,0-1,0.1-1.5c-0.1-1.5-0.1-3.1-0.1-4.7c0-27,12.7-42,23.4-49.8
	c16-11.7,33.9-12.6,39-12.6h358.9c4.4,0,8,3.6,8,8V144c0,4.4-3.6,8-8,8h-13.8v35.5c0,4.4-3.6,8-8,8s-8-3.6-8-8V144c0-4.4,3.6-8,8-8
	H454.7z"></path>
</svg>