<svg version="1.1" id="Layer_1" xmlns="http://www.w3.org/2000/svg" xmlns:xlink="http://www.w3.org/1999/xlink" x="0px" y="0px" viewBox="0 0 512 512" enable-background="new 0 0 512 512" xml:space="preserve">
<linearGradient id="SVGID_1_" gradientUnits="userSpaceOnUse" x1="347.0168" y1="488.8689" x2="347.0168" y2="64.1252" class="gradient-element">
	<stop offset="0" class="primary-color-gradient" style="stop-color: #FFA4ED"></stop>
	<stop offset="1" class="secondary-color-gradient" style="stop-color: #DB81DA"></stop>
</linearGradient>
<path fill="url(#SVGID_1_)" d="M356.6,337.1c27.1-30.9,43.6-71.3,43.6-115.5c0-96.9-78.8-175.7-175.7-175.7h-1v0
	c0,25.6,16.5,48.4,41,56.2c50.6,16.3,85.3,62.5,85.3,120c0,57.8-35.1,104.3-86.2,120.3c-23.9,7.5-40.1,29.9-40.1,55v0h1
	c31.9,0,61.8-8.7,87.6-23.8l15.7-9c5-3.1,11.4-2.4,15.6,1.7l101.5,98.7c3.3,3.2,8.7,3.2,12-0.1l13.6-13.7L356.6,337.1z"></path>
<path d="M448.3,362.7c0,4.4-3.6,8-8,8s-8-3.6-8-8c0-11.4-9.3-20.8-20.8-20.8c-4.4,0-8-3.6-8-8s3.6-8,8-8
	C431.8,325.9,448.3,342.4,448.3,362.7z M490.3,325.9c-20.3,0-36.8,16.5-36.8,36.8c0,4.4,3.6,8,8,8s8-3.6,8-8
	c0-11.4,9.3-20.8,20.8-20.8c4.4,0,8-3.6,8-8S494.7,325.9,490.3,325.9z M490.3,304.7c-11.4,0-20.8-9.3-20.8-20.8c0-4.4-3.6-8-8-8
	s-8,3.6-8,8c0,20.3,16.5,36.8,36.8,36.8c4.4,0,8-3.6,8-8S494.7,304.7,490.3,304.7z M440.3,275.9c-4.4,0-8,3.6-8,8
	c0,11.4-9.3,20.8-20.8,20.8c-4.4,0-8,3.6-8,8s3.6,8,8,8c20.3,0,36.8-16.5,36.8-36.8C448.3,279.5,444.7,275.9,440.3,275.9z M499,7.4
	h-87.6c-4.4,0-8,3.6-8,8s3.6,8,8,8H499c4.4,0,8-3.6,8-8S503.4,7.4,499,7.4z M443.2,39.7H330.4c-4.4,0-8,3.6-8,8s3.6,8,8,8h112.8
	c4.4,0,8-3.6,8-8S447.7,39.7,443.2,39.7z M27.5,30.3c0,5-4.1,9-9,9s-9-4.1-9-9s4.1-9,9-9S27.5,25.3,27.5,30.3z M57.5,30.3
	c0,5-4.1,9-9,9s-9-4.1-9-9s4.1-9,9-9S57.5,25.3,57.5,30.3z M87.5,30.3c0,5-4.1,9-9,9s-9-4.1-9-9s4.1-9,9-9S87.5,25.3,87.5,30.3z"></path>
<g>
	<path fill="#DB81DA" class="secondary-color" d="M330,503.7l-57.8-57.8l57.8-57.8V503.7z"></path>
	<path fill="#FFA4ED" class="primary-color" d="M143.9,463.8v21.8H87v-21.8H143.9z M10.1,410.5h21.8v-56.9H10.1V410.5z M68.8,463.8H31.9v-35.1H10.1v56.9
		h1.8h20h36.9V463.8z"></path>
</g>
<path d="M448.7,480.9c-2,0-4-0.8-5.6-2.3L327.5,366.3c-3.2-3.1-3.2-8.1-0.2-11.3c3.1-3.2,8.1-3.2,11.3-0.2l110,106.9l10.6-10.6
	L350.9,342.8c-3-3-3.1-7.8-0.4-10.9c26.9-30.7,41.7-69.8,41.7-110.3c0-92.5-75.2-167.7-167.7-167.7S56.8,129.1,56.8,221.6
	S132,389.3,224.5,389.3c29.2,0,58.1-7.8,83.5-22.7c3.8-2.2,8.7-0.9,10.9,2.9c2.2,3.8,0.9,8.7-2.9,10.9
	c-27.9,16.2-59.6,24.8-91.6,24.8c-101.3,0-183.7-82.4-183.7-183.7S123.2,37.9,224.5,37.9s183.7,82.4,183.7,183.7
	c0,41.8-14.4,82.4-40.8,115.1l108.7,108.7c1.5,1.5,2.3,3.5,2.3,5.7s-0.8,4.2-2.3,5.7l-21.8,21.8
	C452.8,480.1,450.7,480.9,448.7,480.9z M317.1,316.5c25.4-25.2,39.4-58.7,39.4-94.4c0-73.3-59.6-132.9-132.9-132.9
	S90.6,148.8,90.6,222.1c0,4.4,3.6,8,8,8s8-3.6,8-8c0-64.5,52.5-116.9,116.9-116.9c64.5,0,116.9,52.5,116.9,116.9
	c0,31.4-12.3,60.9-34.6,83.1c-22,21.8-51.3,33.9-82.3,33.9c-4.4,0-8,3.6-8,8s3.6,8,8,8C258.8,355,292,341.3,317.1,316.5z
	 M318.4,279.9c2.4-4.3,2.4-9.5-0.1-13.8l-82.8-141.2c-2.5-4.2-6.9-6.8-11.8-6.8s-9.4,2.5-11.9,6.8l-70.6,120.8
	c-2.6,4.5-1.1,10.3,3.4,12.9c4.5,2.6,10.3,1.1,12.9-3.4l66.2-113.3L297.6,268H133.3c-5.2,0-9.4,4.2-9.4,9.4s4.2,9.4,9.4,9.4h173.2
	C311.4,286.8,316,284.1,318.4,279.9z M233.3,220.3v-42.4c0-5.2-4.2-9.4-9.4-9.4s-9.4,4.2-9.4,9.4v42.4c0,5.2,4.2,9.4,9.4,9.4
	S233.3,225.5,233.3,220.3z M233.7,247.5c0-5.2-4.2-9.4-9.4-9.4h-1.2c-5.2,0-9.4,4.2-9.4,9.4s4.2,9.4,9.4,9.4h1.2
	C229.5,256.9,233.7,252.7,233.7,247.5z"></path>
</svg>