<svg version="1.1" id="Layer_1" xmlns="http://www.w3.org/2000/svg" xmlns:xlink="http://www.w3.org/1999/xlink" x="0px" y="0px" viewBox="0 0 512 512" enable-background="new 0 0 512 512" xml:space="preserve">
<linearGradient id="SVGID_1_" gradientUnits="userSpaceOnUse" x1="257.203" y1="381.416" x2="257.203" y2="158.6874" class="gradient-element">
	<stop offset="0" class="primary-color-gradient" style="stop-color: #FFA4ED"></stop>
	<stop offset="1" class="secondary-color-gradient" style="stop-color: #DB81DA"></stop>
</linearGradient>
<path fill="url(#SVGID_1_)" d="M101.8,383.8H55.4c-13.4,0-24.6-10.7-24.7-24c0-2.7,0.4-5.2,1.2-7.6h84.1
	C108,360.4,102.7,371.5,101.8,383.8z M344.3,352.1c-0.4,0-0.9,0-1.3,0H189.5c8.1,8.3,13.4,19.4,14.3,31.7h48.6l77.8-1.6
	C331.4,370.5,336.6,360,344.3,352.1z M459,191.4c-10-13.3-17-28.2-47.2-32c-0.1,0-0.1,0-0.2,0c-8.1-1-15.3,5.4-15.3,13.6v14.1
	c1.6,0,3.1,0,4.3,0c30.5,0,36.9,14.8,45.4,46.2c3,11,6.1,23.1,8.5,32.4h-58.2v33c0,14.8-6,28.2-15.7,37.8c0.1,0,0.2,0,0.4,0
	c25.7,0,46.9,18.9,50.6,43.5l33.4-0.7c0,0,18.7,4.8,18.7-19.3s0-94.4,0-94.4S469,204.7,459,191.4z"></path>
<path fill="#DB81DA" class="secondary-color" d="M438.8,26.2l57.9,57.7L439,141.8L438.8,26.2z"></path>
<path d="M278.5,452c0,4.4-3.6,8-8,8h-43c-4.4,0-8-3.6-8-8s3.6-8,8-8h43C274.9,444,278.5,447.6,278.5,452z M249,474h-73.8
	c-4.4,0-8,3.6-8,8s3.6,8,8,8H249c4.4,0,8-3.6,8-8S253.5,474,249,474z M106.5,55.1c-4.4,0-8,3.6-8,8c0,11.4-9.3,20.8-20.8,20.8
	c-4.4,0-8,3.6-8,8s3.6,8,8,8c20.3,0,36.8-16.5,36.8-36.8C114.5,58.7,110.9,55.1,106.5,55.1z M156.5,83.9c-11.4,0-20.8-9.3-20.8-20.8
	c0-4.4-3.6-8-8-8s-8,3.6-8,8c0,20.3,16.5,36.8,36.8,36.8c4.4,0,8-3.6,8-8S160.9,83.9,156.5,83.9z M156.5,105.1
	c-20.3,0-36.8,16.5-36.8,36.8c0,4.4,3.6,8,8,8s8-3.6,8-8c0-11.4,9.3-20.7,20.8-20.7c4.4,0,8-3.6,8-8S160.9,105.1,156.5,105.1z
	 M77.8,105.1c-4.4,0-8,3.6-8,8s3.6,8,8,8c11.4,0,20.8,9.3,20.8,20.8c0,4.4,3.6,8,8,8s8-3.6,8-8C114.5,121.6,98,105.1,77.8,105.1z
	 M409.5,61.2H191.6c-4.4,0-8,3.6-8,8s3.6,8,8,8h217.9c4.4,0,8-3.6,8-8S413.9,61.2,409.5,61.2z"></path>
<path d="M300.8,375.8h-90.1c-5.5-26.9-29.4-47.2-57.9-47.2c-32.6,0-59.1,26.5-59.1,59.2s26.5,59.2,59.1,59.2
	c31.2,0,56.9-24.4,59-55.1h89.1c4.4,0,8-3.6,8-8S305.2,375.8,300.8,375.8z M152.8,430.9c-23.8,0-43.1-19.4-43.1-43.2
	s19.3-43.2,43.1-43.2c23.8,0,43.2,19.4,43.2,43.2S176.6,430.9,152.8,430.9z M495.2,265.7v94.4c0,17.1-14.5,31.6-31.6,31.6
	c-4.4,0-8-3.6-8-8s3.6-8,8-8c8.2,0,15.6-7.4,15.6-15.6v-93.4c-1.5-5.5-8.5-32.2-10.5-39.6c-12.1-45.2-31.8-63.6-68-63.6h-31.5
	c-3.6,0-6.8-2.4-7.7-5.9c-8.3-31-12.9-38.9-23.6-40.8v219.7v0c0,4.4-3.6,8-8,8h-86.5c-4.4,0-8-3.6-8-8s3.6-8,8-8h78.5V116.4H191.7
	c-4.4,0-8-3.6-8-8s3.6-8,8-8h138c0.1,0,0.1,0,0.2,0c10.4,0,22.2,1.5,31.1,12.7c5.9,7.5,9.8,18.1,14.4,34.5h25.4
	c43.7,0,69.5,23.3,83.5,75.5c2.2,8.3,10.8,40.6,10.8,40.6C495.1,264.4,495.2,265,495.2,265.7z M86.3,383.8c0,4.4-3.6,8-8,8
	c-24.3,0-38.8-3.4-46.9-11.1c-8.6-8-8.6-18.8-8.6-28.4v-15.6c0-0.1,0-0.1,0-0.2V108.4c0-4.4,3.6-8,8-8h23.8c4.4,0,8,3.6,8,8
	s-3.6,8-8,8H38.8v212.2h62.8c4.4,0,8,3.6,8,8s-3.6,8-8,8H38.8v7.7c0,8.3,0.2,13.6,3.5,16.7c4.8,4.5,16.9,6.8,36,6.8
	C82.7,375.8,86.3,379.4,86.3,383.8z M381,328.6c-32.6,0-59.2,26.5-59.2,59.2s26.5,59.2,59.2,59.2s59.2-26.5,59.2-59.2
	S413.6,328.6,381,328.6z M381,430.9c-23.8,0-43.2-19.4-43.2-43.2s19.4-43.2,43.2-43.2s43.2,19.4,43.2,43.2S404.8,430.9,381,430.9z
	 M454.5,273.7h-66.6c-4.4,0-8-3.6-8-8s3.6-8,8-8h56.2c-1.8-7-3.9-14.9-5.9-22.4c-8.6-32.2-14-40.3-37.6-40.3h-23.5v70.7
	c0,4.4-3.6,8-8,8s-8-3.6-8-8v-78.7c0-4.4,3.6-8,8-8h31.5c36.5,0,44.4,19.7,53.1,52.2c3.1,11.4,6.3,24,8.5,32.5
	c0.6,2.4,0.1,4.9-1.4,6.9S457,273.7,454.5,273.7z M67.5,295.6h198.2l-90.9-155L94.7,277.7c-2.6,4.5-8.4,6-12.9,3.4
	c-4.5-2.6-6-8.4-3.4-12.9l83.8-143.4c2.6-4.5,7.3-7.2,12.5-7.2c0,0,0,0,0,0c5.2,0,9.9,2.7,12.5,7.2l98.3,167.7
	c2.6,4.5,2.7,10.1,0.1,14.6s-7.4,7.3-12.6,7.3H67.5c-5.2,0-9.4-4.2-9.4-9.4S62.3,295.6,67.5,295.6z M165.7,237.2v-50.4
	c0-5.2,4.2-9.4,9.4-9.4s9.4,4.2,9.4,9.4v50.4c0,5.2-4.2,9.4-9.4,9.4S165.7,242.4,165.7,237.2z M164.7,269.5c0-5.2,4.2-9.4,9.4-9.4
	h1.4c5.2,0,9.4,4.2,9.4,9.4s-4.2,9.4-9.4,9.4h-1.4C168.9,278.9,164.7,274.7,164.7,269.5z"></path>
</svg>