<svg version="1.1" id="Layer_1" xmlns="http://www.w3.org/2000/svg" xmlns:xlink="http://www.w3.org/1999/xlink" x="0px" y="0px" viewBox="0 0 512 512" enable-background="new 0 0 512 512" xml:space="preserve">
<linearGradient id="SVGID_1_" gradientUnits="userSpaceOnUse" x1="271.0349" y1="376.0489" x2="275.5782" y2="130.7098" class="gradient-element">
	<stop offset="0" class="primary-color-gradient" style="stop-color: #FFA4ED"></stop>
	<stop offset="1" class="secondary-color-gradient" style="stop-color: #DB81DA"></stop>
</linearGradient>
<path fill="url(#SVGID_1_)" d="M497.3,366.8H69.8c-11.6,0-21-9.4-21-21V167.8c0-11.8,9.6-21.4,21.4-21.4h427.1V366.8z"></path>
<path fill="#DB81DA" class="secondary-color" d="M394.2,32l-36.7,36.7L320.8,32H394.2z"></path>
<path d="M191.2,50.5c0,4.4-3.6,8-8,8h-15.8v15.8c0,4.4-3.6,8-8,8s-8-3.6-8-8V58.5h-15.8c-4.4,0-8-3.6-8-8s3.6-8,8-8h15.8V26.7
	c0-4.4,3.6-8,8-8s8,3.6,8,8v15.8h15.8C187.7,42.5,191.2,46.1,191.2,50.5z M234.6,51.5c0,5-4.1,9-9,9s-9-4.1-9-9s4.1-9,9-9
	S234.6,46.5,234.6,51.5z M455.4,91.3c-14.6,0-26.4-11.8-26.4-26.4s11.8-26.4,26.4-26.4s26.4,11.8,26.4,26.4S469.9,91.3,455.4,91.3z
	 M465.7,64.9c0-5.7-4.7-10.4-10.4-10.4S445,59.1,445,64.9s4.7,10.4,10.4,10.4S465.7,70.6,465.7,64.9z M481.7,482.1
	c-0.6,3.9-4,6.8-8,6.8c-1.6,0-3.2-0.4-4.5-1.2c-1.7-0.7-2.8-1.7-3.6-2.6c-2.8-2.2-3.2-5.5-2.9-7.4c0.6-3.9,4-6.8,8-6.8
	c1.6,0,3.2,0.4,4.5,1.2c1.6,0.7,2.8,1.7,3.6,2.6C481.6,476.8,482,480.1,481.7,482.1z"></path>
<path d="M505,100.5v322.9c0,8.8-7.2,16-16,16H263.4v33.9h178.4c4.4,0,8,3.6,8,8s-3.6,8-8,8H65.3c-4.4,0-8-3.6-8-8s3.6-8,8-8h182.1
	v-38.8c0-0.5,0.1-1,0.1-1.5c-0.1-0.5-0.1-1-0.1-1.5c0-4.4,3.6-8,8-8H489v-48.6H383.4c-4.4,0-8-3.6-8-8s3.6-8,8-8H489V100.5
	c0-4.4,3.6-8,8-8S505,96.1,505,100.5z M54.3,388.6c5,0,9,4.1,9,9s-4.1,9-9,9s-9-4.1-9-9S49.3,388.6,54.3,388.6z M84.3,388.6
	c5,0,9,4.1,9,9s-4.1,9-9,9s-9-4.1-9-9S79.3,388.6,84.3,388.6z M106.3,388.6c5,0,9,4.1,9,9s-4.1,9-9,9s-9-4.1-9-9
	S101.3,388.6,106.3,388.6z M229.6,431.4c0-4.4-3.6-8-8-8H23.1V108.5h372.5c4.4,0,8-3.6,8-8s-3.6-8-8-8H23.1c-8.8,0-16,7.2-16,16
	v314.9c0,8.8,7.2,16,16,16h198.5C226,439.4,229.6,435.8,229.6,431.4z M150.1,342c0,5.2,4.2,9.4,9.4,9.4h205.6c5.2,0,10-2.8,12.6-7.3
	s2.6-10.1-0.1-14.6l-98.3-167.7c-2.6-4.5-7.3-7.2-12.5-7.2c0,0,0,0,0,0c-5.2,0-9.9,2.7-12.5,7.2l-83.8,143.4
	c-2.6,4.5-1.1,10.3,3.4,12.9c4.5,2.6,10.3,1.1,12.9-3.4l80.1-137.1l90.9,155H159.5C154.3,332.6,150.1,336.8,150.1,342z M267.1,283.6
	c5.2,0,9.4-4.2,9.4-9.4v-50.4c0-5.2-4.2-9.4-9.4-9.4s-9.4,4.2-9.4,9.4v50.4C257.7,279.4,261.9,283.6,267.1,283.6z M266.1,315.9h1.4
	c5.2,0,9.4-4.2,9.4-9.4s-4.2-9.4-9.4-9.4h-1.4c-5.2,0-9.4,4.2-9.4,9.4S260.9,315.9,266.1,315.9z"></path>
</svg>