<svg version="1.1" id="Layer_1" xmlns="http://www.w3.org/2000/svg" xmlns:xlink="http://www.w3.org/1999/xlink" x="0px" y="0px" viewBox="0 0 512 512" enable-background="new 0 0 512 512" xml:space="preserve">
<g>
	<path fill="#DB81DA" class="secondary-color" d="M19.1,437l60.8,61L19,497.9L19.1,437z M21,256.8h15.4V19.7H21V256.8z"></path>
	<path fill="#FFA4ED" class="primary-color" d="M75,80.6l-14.6,0l0.1-61.1l14.6,0L75,80.6z M75.1,115.6l-14.6,0l-0.1,61.1l14.6,0L75.1,115.6z"></path>
	<path fill="#DB81DA" class="secondary-color" d="M421.2,69.1L421.3,8l61.1,0.1l-0.1,61.1L421.2,69.1z"></path>
</g>
<path d="M164.3,25C164.3,25,164.3,25,164.3,25c-4.9,0-8.8,4-8.9,8.8c0,4.9,4,8.8,8.8,8.9c0,0,0,0,0,0c2.4,0,4.6-0.9,6.2-2.6
	c1.7-1.7,2.6-3.9,2.6-6.3c0-2.4-0.9-4.6-2.6-6.3S166.7,25,164.3,25z M150.7,59.1C150.7,59.1,150.7,59.1,150.7,59.1
	c-2.4,0-4.6,0.9-6.3,2.6c-1.7,1.7-2.6,3.9-2.6,6.3c0,4.9,4,8.8,8.8,8.9c0,0,0,0,0,0c2.4,0,4.6-0.9,6.2-2.6c1.7-1.7,2.6-3.9,2.6-6.3
	c0-2.4-0.9-4.6-2.6-6.3C155.3,60,153.1,59.1,150.7,59.1z M442.7,317.3c0,4.4-3.6,8-8,8c0,0,0,0,0,0l-88.8-0.1c-4.4,0-8-3.6-8-8
	c0-4.4,3.6-8,8-8c0,0,0,0,0,0l88.8,0.1C439.1,309.3,442.7,312.9,442.7,317.3z M476.9,457.9C476.9,457.9,476.9,457.9,476.9,457.9
	c-4.9,0-8.9,4-8.9,8.8c0,4.9,3.9,8.9,8.8,8.9c0,0,0,0,0,0c4.9,0,8.8-4,8.8-8.8C485.7,461.9,481.8,457.9,476.9,457.9z M468.1,422.9
	c0,2.4,0.9,4.6,2.6,6.3c1.7,1.7,3.9,2.6,6.2,2.6c0,0,0,0,0,0c4.9,0,8.8-4,8.8-8.8c0-4.9-3.9-8.9-8.8-8.9
	C472.1,414.1,468.1,418.1,468.1,422.9z M460.2,142.9l0,11.4c0,4.4-3.6,8-8,8c0,0,0,0,0,0c-4.4,0-8-3.6-8-8l0-11.4l-11.4,0
	c-4.4,0-8-3.6-8-8c0-4.4,3.6-8,8-8c0,0,0,0,0,0l11.4,0l0-11.4c0-4.4,3.6-8,8-8c0,0,0,0,0,0c4.4,0,8,3.6,8,8l0,11.4l11.4,0
	c4.4,0,8,3.6,8,8c0,4.4-3.6,8-8,8c0,0,0,0,0,0L460.2,142.9z M347.2,264.1l-73.8-0.1c-4.4,0-8-3.6-8-8c0-4.4,3.6-8,8-8c0,0,0,0,0,0
	l73.8,0.1c4.4,0,8,3.6,8,8C355.2,260.6,351.7,264.1,347.2,264.1C347.2,264.1,347.2,264.1,347.2,264.1z"></path>
<linearGradient id="SVGID_1_" gradientUnits="userSpaceOnUse" x1="225.604" y1="474.2291" x2="227.4444" y2="273.624" gradientTransform="matrix(1 1.383434e-03 -1.383434e-03 1 -2.1116 10.2396)" class="gradient-element">
	<stop offset="0" class="primary-color-gradient" style="stop-color: #FFA4ED"></stop>
	<stop offset="1" class="secondary-color-gradient" style="stop-color: #DB81DA"></stop>
</linearGradient>
<path fill="url(#SVGID_1_)" d="M326.2,483.4l-205.9-0.3c-22,0-39.8-17.9-39.8-39.9c0-6.9,1.9-13.8,5.5-20l73.8-126
	c0,0,37.2,0.9,73.6,20c8.5,4.5,26,6.1,41.4,6.7c18,0.7,34.4,10.5,43.4,26.1l42.3,73.6c3.6,6.2,5.5,13.1,5.5,20
	C366,465.6,348.1,483.5,326.2,483.4z"></path>
<path d="M386,491.5C386,491.5,385.9,491.5,386,491.5l-265.7-0.4c-12.8,0-24.8-5-33.8-14.1s-14-21.1-14-33.8c0-8.3,2.3-16.6,6.6-24
	l113.2-194.1l0.3-193.5c0-2.1,0.8-4.2,2.4-5.7c1.5-1.5,3.5-2.3,5.6-2.3c0,0,0,0,0,0l106.3,0.1c2.1,0,4.2,0.8,5.7,2.4
	c1.5,1.5,2.3,3.5,2.3,5.7l-0.2,171.2c0,4.4-3.6,8-8,8c0,0,0,0,0,0c-4.4,0-8-3.6-8-8l0.2-163.2l-90.3-0.1l-0.3,187.7
	c0,1.4-0.4,2.8-1.1,4l-114.3,196c-2.9,5-4.4,10.5-4.4,15.9c0,8.5,3.3,16.5,9.3,22.5c6,6,14,9.4,22.5,9.4l265.6,0.4c0,0,0,0,0,0
	c8.5,0,16.5-3.3,22.5-9.3c6-6,9.4-14,9.4-22.5c0-5.5-1.5-11-4.4-15.9L302,236.8l-48.5-0.1c-4.4,0-8-3.6-8-8l0-26.6
	c0-2.1,0.8-4.2,2.4-5.7c1.5-1.5,3.5-2.3,5.6-2.3c0,0,0,0,0,0l18.6,0l0-10.6l-18.6,0c-2.1,0-4.2-0.8-5.7-2.4
	c-1.5-1.5-2.3-3.5-2.3-5.7l0-26.6c0-4.4,3.6-8,8-8c0,0,0,0,0,0l18.6,0l0-10.6l-18.6,0c-2.1,0-4.2-0.8-5.7-2.4
	c-1.5-1.5-2.3-3.5-2.3-5.7l0-26.6c0-4.4,3.6-8,8-8c0,0,0,0,0,0l18.6,0l0-18.6c0-4.4,3.6-8,8-8c0,0,0,0,0,0c4.4,0,8,3.6,8,8l0,26.6
	c0,2.1-0.8,4.2-2.4,5.7c-1.5,1.5-3.5,2.3-5.6,2.3c0,0,0,0,0,0l-18.6,0l0,10.6l18.6,0c4.4,0,8,3.6,8,8l0,26.6c0,2.1-0.8,4.2-2.4,5.7
	c-1.5,1.5-3.5,2.3-5.6,2.3c0,0,0,0,0,0l-18.6,0l0,10.6l18.6,0c2.1,0,4.2,0.8,5.7,2.4c1.5,1.5,2.3,3.5,2.3,5.7l0,26.6
	c0,4.4-3.6,8-8,8c0,0,0,0,0,0l-18.6,0l0,10.6l45,0.1c0.3,0,0.6,0,0.9,0c1.1,0.1,2.2,0.5,3.2,1c1,0.6,1.8,1.3,2.5,2.3
	c0.2,0.2,0.3,0.5,0.5,0.8l113.7,194.9c4.3,7.4,6.6,15.7,6.5,24c0,12.8-5,24.8-14.1,33.8C410.7,486.6,398.7,491.5,386,491.5z
	 M344.8,445.1c2.6-4.5,2.6-10.1-0.1-14.6l-98.3-167.7c-2.6-4.5-7.3-7.2-12.5-7.2c0,0,0,0,0,0c-5.2,0-9.9,2.7-12.5,7.2l-83.8,143.4
	c-2.6,4.5-1.1,10.3,3.4,12.9c4.5,2.6,10.3,1.1,12.9-3.4l80.1-137.1l90.9,155H126.5c-5.2,0-9.4,4.2-9.4,9.4s4.2,9.4,9.4,9.4h205.6
	C337.4,452.4,342.2,449.6,344.8,445.1z M243.5,375.2v-50.4c0-5.2-4.2-9.4-9.4-9.4s-9.4,4.2-9.4,9.4v50.4c0,5.2,4.2,9.4,9.4,9.4
	S243.5,380.4,243.5,375.2z M243.9,407.5c0-5.2-4.2-9.4-9.4-9.4h-1.4c-5.2,0-9.4,4.2-9.4,9.4s4.2,9.4,9.4,9.4h1.4
	C239.7,416.9,243.9,412.7,243.9,407.5z"></path>
</svg>