<svg version="1.1" id="Layer_1" xmlns="http://www.w3.org/2000/svg" xmlns:xlink="http://www.w3.org/1999/xlink" x="0px" y="0px" viewBox="0 0 512 512" enable-background="new 0 0 512 512" xml:space="preserve">
<linearGradient id="SVGID_1_" gradientUnits="userSpaceOnUse" x1="255.0308" y1="379.4441" x2="255.0308" y2="116.7388" class="gradient-element">
	<stop offset="0" class="primary-color-gradient" style="stop-color: #FFA4ED"></stop>
	<stop offset="1" class="secondary-color-gradient" style="stop-color: #DB81DA"></stop>
</linearGradient>
<path fill="url(#SVGID_1_)" d="M248.7,97.6c3.4-5.8,11.8-5.8,15.1,0l168.4,287.2c3.4,5.9-0.8,13.2-7.6,13.2H82.3
	c-12.9,0-0.8-14,5.7-25.1l0,0c3-5.1,8.5-8.2,14.4-8.2h251.9c6.8,0,11-7.4,7.6-13.2l-96.1-163.8l0.5-15.8l-10.1-0.6l-7.6-12.9
	C237.7,139.6,237.7,116.3,248.7,97.6L248.7,97.6z"></path>
<path d="M424.6,407.4H72.5c-5.2,0-9.4-4.2-9.4-9.4s4.2-9.4,9.4-9.4h351L256.3,103.2L98,373.1c-2.6,4.5-8.4,6-12.9,3.4
	c-4.5-2.6-6-8.4-3.4-12.9L240.6,92.8c3.3-5.6,9.2-9,15.7-9s12.4,3.4,15.7,9L440.3,380c3.3,5.7,3.4,12.5,0.1,18.2
	C437.1,404,431.2,407.4,424.6,407.4z M281.6,313.1c0-5.2-4.2-9.4-9.4-9.4h-22.5V179h13.1v111.5c0,5.2,4.2,9.4,9.4,9.4
	s9.4-4.2,9.4-9.4V169.5c0-5.2-4.2-9.4-9.4-9.4h-31.9c-5.2,0-9.4,4.2-9.4,9.4v143.5c0,5.2,4.2,9.4,9.4,9.4h31.9
	C277.4,322.5,281.6,318.3,281.6,313.1z M281.6,368.3v-30c0-5.2-4.2-9.4-9.4-9.4h-31.9c-5.2,0-9.4,4.2-9.4,9.4v30
	c0,5.2,4.2,9.4,9.4,9.4h31.9C277.4,377.7,281.6,373.5,281.6,368.3z M249.7,347.7h13.1v11.2h-13.1V347.7z"></path>
<g>
	<path fill="#DB81DA" class="secondary-color" d="M19.5,178.3h21.8v56.9H19.5V178.3z M19.5,329h21.8v-56.9H19.5V329z M495.9,75.6V53.8h-56.9v21.8H495.9z"></path>
	<path fill="#FFA4ED" class="primary-color" d="M441,36.1V14.3h56.9v21.8H441z"></path>
</g>
<path d="M64.5,98.5H48.8c-4.4,0-8-3.6-8-8s3.6-8,8-8h15.8V66.7c0-4.4,3.6-8,8-8s8,3.6,8,8v15.8h15.8c4.4,0,8,3.6,8,8s-3.6,8-8,8
	H80.5v15.8c0,4.4-3.6,8-8,8s-8-3.6-8-8V98.5z M387.5,97.3c-4.4,0-8,3.6-8,8c0,11.4-9.3,20.8-20.8,20.8c-4.4,0-8,3.6-8,8s3.6,8,8,8
	c20.3,0,36.8-16.5,36.8-36.8C395.5,100.8,391.9,97.3,387.5,97.3z M437.5,142c4.4,0,8-3.6,8-8s-3.6-8-8-8c-11.4,0-20.8-9.3-20.8-20.8
	c0-4.4-3.6-8-8-8s-8,3.6-8,8C400.7,125.5,417.2,142,437.5,142z M445.5,155.3c0-4.4-3.6-8-8-8c-20.3,0-36.8,16.5-36.8,36.8
	c0,4.4,3.6,8,8,8s8-3.6,8-8c0-11.4,9.3-20.8,20.8-20.8C441.9,163.3,445.5,159.7,445.5,155.3z M358.7,147.3c-4.4,0-8,3.6-8,8
	s3.6,8,8,8c11.4,0,20.8,9.3,20.8,20.8c0,4.4,3.6,8,8,8s8-3.6,8-8C395.5,163.8,379,147.3,358.7,147.3z M294.3,447.8H65.8
	c-4.4,0-8,3.6-8,8s3.6,8,8,8h228.5c4.4,0,8-3.6,8-8S298.7,447.8,294.3,447.8z M324.3,49.8c-5.9,0-10.8,4.8-10.8,10.8
	s4.8,10.8,10.8,10.8S335,66.5,335,60.6S330.2,49.8,324.3,49.8z M455.7,445.1c-5.9,0-10.8,4.8-10.8,10.8s4.8,10.7,10.8,10.7
	c5.9,0,10.8-4.8,10.8-10.7S461.7,445.1,455.7,445.1z M467.6,269.2h-3.9v-3.9c0-4.4-3.6-8-8-8s-8,3.6-8,8v3.9h-3.9c-4.4,0-8,3.6-8,8
	s3.6,8,8,8h3.9v3.9c0,4.4,3.6,8,8,8s8-3.6,8-8v-3.9h3.9c4.4,0,8-3.6,8-8S472,269.2,467.6,269.2z"></path>
</svg>