<svg version="1.1" id="Layer_1" xmlns="http://www.w3.org/2000/svg" xmlns:xlink="http://www.w3.org/1999/xlink" x="0px" y="0px" viewBox="0 0 512 512" enable-background="new 0 0 512 512" xml:space="preserve">
<linearGradient id="SVGID_1_" gradientUnits="userSpaceOnUse" x1="52.3879" y1="278.4377" x2="453.2021" y2="278.4377" class="gradient-element">
	<stop offset="0" class="primary-color-gradient" style="stop-color: #FFA4ED"></stop>
	<stop offset="1" class="secondary-color-gradient" style="stop-color: #DB81DA"></stop>
</linearGradient>
<path fill="url(#SVGID_1_)" d="M336.6,128.1h116.6v300.6H52.4v-39.2c0-24.8,20.1-44.9,44.9-44.9h73.3c45.5,0,82.4-36.9,82.4-82.4
	v-50.5C253,165.6,290.4,128.1,336.6,128.1z"></path>
<g>
	<path fill="#DB81DA" class="secondary-color" d="M125.7,480.9v-21.8h56.9v21.8H125.7z M87.6,480.9v-21.8H30.6v21.8H87.6z"></path>
	<path fill="#FFA4ED" class="primary-color" d="M253.8,96.9V75.1h56.9v21.8H253.8z"></path>
</g>
<path d="M387.8,52.2c0-4.4,3.6-8,8-8h15.8V28.4c0-4.4,3.6-8,8-8s8,3.6,8,8v15.8h15.8c4.4,0,8,3.6,8,8s-3.6,8-8,8h-15.8v15.8
	c0,4.4-3.6,8-8,8s-8-3.6-8-8V60.2h-15.8C391.4,60.2,387.8,56.6,387.8,52.2z M497,253.3h-87.6c-4.4,0-8,3.6-8,8s3.6,8,8,8H497
	c4.4,0,8-3.6,8-8S501.4,253.3,497,253.3z M446.2,226c0,4.4,3.6,8,8,8H498c4.4,0,8-3.6,8-8s-3.6-8-8-8h-43.8
	C449.8,218,446.2,221.6,446.2,226z M355.9,60.2c4.4,0,8-3.6,8-8s-3.6-8-8-8h-87.6c-4.4,0-8,3.6-8,8s3.6,8,8,8H355.9z M453.2,473.2
	H275.6c-4.4,0-8,3.6-8,8s3.6,8,8,8h177.6c4.4,0,8-3.6,8-8S457.6,473.2,453.2,473.2z M217.9,481.2c0,5-4.1,9-9,9s-9-4.1-9-9
	s4.1-9,9-9S217.9,476.2,217.9,481.2z M247.9,481.2c0,5-4.1,9-9,9s-9-4.1-9-9s4.1-9,9-9S247.9,476.2,247.9,481.2z M72,86
	c0,14.6-11.8,26.4-26.4,26.4S19.2,100.6,19.2,86s11.8-26.4,26.4-26.4S72,71.5,72,86z M56,86c0-5.7-4.7-10.4-10.4-10.4
	S35.2,80.3,35.2,86s4.7,10.4,10.4,10.4S56,91.8,56,86z"></path>
<path d="M461.2,171.5V226c0,4.4-3.6,8-8,8s-8-3.6-8-8v-54.6c0-4.4,3.6-8,8-8S461.2,167,461.2,171.5z M461.2,261.3v167.5
	c0,4.4-3.6,8-8,8H52.4c-4.4,0-8-3.6-8-8c0-0.2,0-0.3,0-0.5c-0.1-1.8,0.5-3.6,1.7-5.1l128.1-166L60.4,151v227c0,4.4-3.6,8-8,8
	s-8-3.6-8-8V132.6c0,0,0,0,0-0.1v-4.4c0-4.4,3.6-8,8-8h400.8c4.4,0,8,3.6,8,8c0,0.8-0.1,1.5-0.3,2.2c0.8,2.8,0,5.9-2.2,8.1
	L331.4,257.1l113.8,147.4V261.3c0-4.4,3.6-8,8-8S461.2,256.9,461.2,261.3z M207.8,266.6l31.4-53.8c2.6-4.5,7.3-7.2,12.5-7.2
	c0,0,0,0,0,0c5.2,0,9.9,2.7,12.5,7.2l32.2,54.9l141.1-131.6H67.9L207.8,266.6z M436.9,420L319.6,268.1l-14.8,13.8l57.8,98.6
	c2.6,4.5,2.7,10.1,0.1,14.6s-7.4,7.3-12.6,7.3H144.5c-5.2,0-9.4-4.2-9.4-9.4s4.2-9.4,9.4-9.4h198.2l-90.9-155l-80.1,137.1
	c-2.6,4.5-8.4,6-12.9,3.4c-4.5-2.6-6-8.4-3.4-12.9l44.1-75.5c0,0,0,0-0.1,0L186,268.1L68.7,420H436.9z M252.1,334.6
	c5.2,0,9.4-4.2,9.4-9.4v-50.4c0-5.2-4.2-9.4-9.4-9.4s-9.4,4.2-9.4,9.4v50.4C242.7,330.4,246.9,334.6,252.1,334.6z M251.1,366.9h1.4
	c5.2,0,9.4-4.2,9.4-9.4s-4.2-9.4-9.4-9.4h-1.4c-5.2,0-9.4,4.2-9.4,9.4S245.9,366.9,251.1,366.9z"></path>
</svg>