<svg version="1.1" id="Layer_1" xmlns="http://www.w3.org/2000/svg" xmlns:xlink="http://www.w3.org/1999/xlink" x="0px" y="0px" viewBox="0 0 512 512" enable-background="new 0 0 512 512" xml:space="preserve">
<linearGradient id="SVGID_1_" gradientUnits="userSpaceOnUse" x1="38.2625" y1="280.0736" x2="479.8525" y2="280.0736" class="gradient-element">
	<stop offset="0" class="primary-color-gradient" style="stop-color: #FFA4ED"></stop>
	<stop offset="1" class="secondary-color-gradient" style="stop-color: #DB81DA"></stop>
</linearGradient>
<path fill="url(#SVGID_1_)" d="M263.9,432.2H86.3c-13.3,0-25.3-5.4-33.9-14.1c-8.6-8.6-14-20.4-14.1-33.5
	c-0.2-26.6,22.2-48.4,48.8-48.4h266c28.8,0,52.1-23.3,52.1-52.1V172.3c0-28.8,23.3-44.3,52.1-44.3h0c12.4,0,22.5,10.1,22.5,22.5
	v248.4c0,18.4-14.9,33.3-33.3,33.3H263.9z M263.9,432.2"></path>
<g>
	<path fill="#DB81DA" class="secondary-color" d="M496,501h-60.9l60.9-60.9V501z"></path>
	<path fill="#FFA4ED" class="primary-color" d="M419.8,55.1V33.3h56.9v21.8H419.8z M96.6,26.3H59.7h-20h-1.8v56.9h21.8V48.1h36.9V26.3z"></path>
</g>
<path d="M500.8,235.3c0,4.4-3.6,8-8,8H419c-4.4,0-8-3.6-8-8s3.6-8,8-8h73.8C497.2,227.3,500.8,230.9,500.8,235.3z M199.7,287.5h-43
	c-4.4,0-8,3.6-8,8s3.6,8,8,8h43c4.4,0,8-3.6,8-8S204.1,287.5,199.7,287.5z M86.4,343.5h73.8c4.4,0,8-3.6,8-8s-3.6-8-8-8H86.4
	c-4.4,0-8,3.6-8,8S82,343.5,86.4,343.5z M161,466.3h-10.3V456c0-4.4-3.6-8-8-8s-8,3.6-8,8v10.3h-10.3c-4.4,0-8,3.6-8,8s3.6,8,8,8
	h10.3v10.3c0,4.4,3.6,8,8,8s8-3.6,8-8v-10.3H161c4.4,0,8-3.6,8-8S165.4,466.3,161,466.3z M90.1,471c2.8,1.3,4.7,4,4.7,7.3
	c0,4.4-3.6,8-8,8c-6.5,0-11.7,5.3-11.7,11.7c0,4.4-3.6,8-8,8c-3.2,0-6-1.9-7.3-4.7c-1.3,2.8-4,4.7-7.3,4.7c-4.4,0-8-3.6-8-8
	c0-6.5-5.3-11.7-11.7-11.7c-4.4,0-8-3.6-8-8c0-3.2,1.9-6,4.7-7.3c-2.8-1.3-4.7-4-4.7-7.3c0-4.4,3.6-8,8-8c6.5,0,11.7-5.3,11.7-11.7
	c0-4.4,3.6-8,8-8c3.2,0,6,1.9,7.3,4.7c1.3-2.8,4-4.7,7.3-4.7c4.4,0,8,3.6,8,8c0,6.5,5.3,11.7,11.7,11.7c4.4,0,8,3.6,8,8
	C94.8,467,92.9,469.7,90.1,471z M80.6,471c-10.3-2.4-18.4-10.5-20.8-20.8c-2.4,10.3-10.5,18.4-20.8,20.8
	c10.3,2.4,18.4,10.5,20.8,20.8C62.2,481.5,70.3,473.4,80.6,471z M447.3,323.9h-3.9V320c0-4.4-3.6-8-8-8s-8,3.6-8,8v3.9h-3.9
	c-4.4,0-8,3.6-8,8s3.6,8,8,8h3.9v3.9c0,4.4,3.6,8,8,8s8-3.6,8-8v-3.9h3.9c4.4,0,8-3.6,8-8S451.7,323.9,447.3,323.9z"></path>
<path d="M155.1,119.1h15.5c0.7-21.9,4.2-34.8,11.8-43.5c10.2-11.7,26.6-13.3,42.8-13.3h70.1c32.2,0,54.7,22.5,54.7,54.7v23.4
	c0,4.4-3.6,8-8,8s-8-3.6-8-8v-23.4c0-23.5-15.2-38.7-38.7-38.7h-70.1c-17,0-26,2.3-30.8,7.8c-5.5,6.3-7.9,18.9-7.9,40.9
	c0,4.4-3.6,8-8,8h-23.4c-4.4,0-8-3.6-8-8S150.7,119.1,155.1,119.1z M482.1,228.4c-4.4,0-8,3.6-8,8v159.3c0,14.9-12.1,27-27,27H73.3
	c-14.9,0-27-12.1-27-27V162.1c0-14.9,12.1-27,27-27h58.4c4.4,0,8-3.6,8-8v-15.4h15.4c4.4,0,8-3.6,8-8s-3.6-8-8-8h-23.4
	c-4.4,0-8,3.6-8,8v15.4H73.3c-23.7,0-43,19.3-43,43v233.6c0,23.7,19.3,43,43,43h373.8c23.7,0,43-19.3,43-43V236.4
	C490.1,232,486.6,228.4,482.1,228.4z M447.1,119.1h-50.4v-15.4c0-4.4-3.6-8-8-8h-23.4c-4.4,0-8,3.6-8,8s3.6,8,8,8h15.4v15.4
	c0,4.4,3.6,8,8,8h58.4c14.9,0,27,12.1,27,27v43.1c0,4.4,3.6,8,8,8s8-3.6,8-8v-43.1C490.1,138.4,470.8,119.1,447.1,119.1z
	 M310.1,135.1c4.4,0,8-3.6,8-8s-3.6-8-8-8H201.8c-4.4,0-8,3.6-8,8s3.6,8,8,8H310.1z M130.1,367c0,5.2,4.2,9.4,9.4,9.4h215.1
	c5.3,0,10.2-2.8,12.8-7.4s2.6-10.3-0.1-14.8L264.5,178.7c-2.7-4.6-7.4-7.3-12.7-7.3s-10.1,2.7-12.8,7.3l-87.6,150
	c-2.6,4.5-1.1,10.3,3.4,12.9c4.5,2.6,10.3,1.1,12.9-3.4l84.1-144.1l95.8,163.4h-208C134.3,357.6,130.1,361.8,130.1,367z M252,305.5
	c5.2,0,9.4-4.2,9.4-9.4v-52.7c0-5.2-4.2-9.4-9.4-9.4s-9.4,4.2-9.4,9.4v52.7C242.6,301.3,246.8,305.5,252,305.5z M251,339.3h1.5
	c5.2,0,9.4-4.2,9.4-9.4s-4.2-9.4-9.4-9.4H251c-5.2,0-9.4,4.2-9.4,9.4S245.8,339.3,251,339.3z"></path>
</svg>