<svg version="1.1" id="Layer_1" xmlns="http://www.w3.org/2000/svg" xmlns:xlink="http://www.w3.org/1999/xlink" x="0px" y="0px" viewBox="0 0 512 512" enable-background="new 0 0 512 512" xml:space="preserve">
<linearGradient id="SVGID_1_" gradientUnits="userSpaceOnUse" x1="99.2515" y1="282.3497" x2="408.2476" y2="282.3497" class="gradient-element">
	<stop offset="0" class="primary-color-gradient" style="stop-color: #FFA4ED"></stop>
	<stop offset="1" class="secondary-color-gradient" style="stop-color: #DB81DA"></stop>
</linearGradient>
<path fill="url(#SVGID_1_)" d="M256.4,448.3l-99.8-10.5c-15.9,0-30.2-6.4-40.6-16.8c-10.3-10.2-16.7-24.4-16.8-40.1
	c-0.3-31.9,26.6-42.3,58.4-42.3l98.9,2.4c34.4,0,62.4-50.1,62.4-84.5v-78.3c0-34.4,27.9-51.4,62.4-51.4l26.9-11v268.7
	c0,27.2-20.1,36.8-47.2,51.5L256.4,448.3z M256.4,448.9"></path>
<path fill="#000000" d="M103.2,261.6h-43c-4.4,0-8-3.6-8-8s3.6-8,8-8h43c4.4,0,8,3.6,8,8S107.6,261.6,103.2,261.6z M155.5,275.6
	H81.7c-4.4,0-8,3.6-8,8s3.6,8,8,8h73.8c4.4,0,8-3.6,8-8S159.9,275.6,155.5,275.6z M64.4,85.8V70h15.8c4.4,0,8-3.6,8-8s-3.6-8-8-8
	H64.4V38.2c0-4.4-3.6-8-8-8s-8,3.6-8,8V54H32.6c-4.4,0-8,3.6-8,8s3.6,8,8,8h15.8v15.8c0,4.4,3.6,8,8,8S64.4,90.2,64.4,85.8z M485,65
	h-3.9v-3.9c0-4.4-3.6-8-8-8s-8,3.6-8,8V65h-3.9c-4.4,0-8,3.6-8,8s3.6,8,8,8h3.9v3.9c0,4.4,3.6,8,8,8s8-3.6,8-8V81h3.9
	c4.4,0,8-3.6,8-8S489.5,65,485,65z M465.9,204.2c-5.9,0-10.8,4.8-10.8,10.8s4.8,10.8,10.8,10.8c5.9,0,10.8-4.8,10.8-10.8
	S471.9,204.2,465.9,204.2z M465.9,274.2c-5.9,0-10.8,4.8-10.8,10.8s4.8,10.8,10.8,10.8c5.9,0,10.8-4.8,10.8-10.8
	S471.9,274.2,465.9,274.2z M465.9,335.2c-5.9,0-10.8,4.8-10.8,10.8s4.8,10.8,10.8,10.8c5.9,0,10.8-4.8,10.8-10.8
	S471.9,335.2,465.9,335.2z"></path>
<path fill="#FFA4ED" class="primary-color" d="M23,430.2v-34.7h34.7v34.7H23z M57.7,482.4v-34.7H23v34.7H57.7z M111,482.4v-34.7H76.3v34.7H111z"></path>
<path d="M407.4,138.9c-4.4,0-8,3.6-8,8v58.7c-0.3,1.6-5.4,8.6-25.4,16.5c-14.2,5.6-39.4,12.9-78.8,16l-24.8-42.3
	c-2.6-4.5-7.3-7.2-12.5-7.2c0,0,0,0,0,0c-5.2,0-9.9,2.7-12.5,7.2l-24.8,42.5c-77-5.6-106-27.3-106.9-32.7v-78.9
	c8.9,5.7,19.7,10,27.8,12.7c21,7.1,58.1,15.5,115.2,15.5c57.1,0,94.1-8.4,115.2-15.5c16.4-5.5,43.8-17.3,43.8-34.5
	S388,76,371.6,70.5c-21-7.1-58.1-15.5-115.2-15.5c-57.1,0-94.1,8.4-115.2,15.5C124.9,76,97.5,87.8,97.5,105c0,1.7,0.3,3.4,0.8,5.1
	c-0.5,1.1-0.8,2.2-0.8,3.5V407c0,17.2,27.4,29,43.8,34.5c21,7.1,58.1,15.5,115.2,15.5c57.1,0,94.1-8.4,115.2-15.5
	c16.4-5.5,43.8-17.3,43.8-34.5v-58.7c0-4.4-3.6-8-8-8s-8,3.6-8,8l0,58.7c-0.2,1.8-7.2,11-34.5,19.9c-19.8,6.4-54.7,14.1-108.5,14.1
	s-88.7-7.7-108.5-14.1c-27.3-8.9-34.2-18.1-34.5-19.8v-79.1c12.1,7.8,29.5,14,47,18.2c0.6,2.4,2.1,4.6,4.4,6
	c4.5,2.6,10.3,1.1,12.9-3.4l80.1-137.1l90.9,155H150.5c-5.2,0-9.4,4.2-9.4,9.4s4.2,9.4,9.4,9.4h205.6c5.2,0,10-2.8,12.6-7.3
	s2.6-10.1-0.1-14.6l-11-18.7c36-9.5,57.3-23.5,57.7-38.1c0-0.1,0-0.1,0-0.2V146.9C415.4,142.5,411.8,138.9,407.4,138.9z M148,85.2
	c19.8-6.4,54.7-14.1,108.5-14.1s88.7,7.7,108.5,14.1c27,8.8,34.1,17.9,34.5,19.8c-0.4,1.9-7.5,11-34.5,19.8
	c-19.8,6.4-54.7,14.1-108.5,14.1s-88.7-7.7-108.5-14.1c-27-8.8-34.1-17.9-34.5-19.8C113.9,103.1,121,94,148,85.2z M166.3,331.1
	c-38.5-9-52.2-21.2-52.8-24.7v-79c6,3.8,12.9,7.1,19.3,9.6c14.8,5.8,40.2,13.3,78.7,16.7L166.3,331.1z M399.4,306.3
	c-0.6,3.4-13.6,15.2-50.1,24.1l-45.2-77c42-4.1,76.3-13.8,95.3-26.1V306.3z M248.7,308.2v-50.4c0-5.2,4.2-9.4,9.4-9.4
	s9.4,4.2,9.4,9.4v50.4c0,5.2-4.2,9.4-9.4,9.4S248.7,313.4,248.7,308.2z M247.7,340.5c0-5.2,4.2-9.4,9.4-9.4h1.4
	c5.2,0,9.4,4.2,9.4,9.4s-4.2,9.4-9.4,9.4h-1.4C251.9,349.9,247.7,345.7,247.7,340.5z"></path>
</svg>