<svg version="1.1" id="Layer_1" xmlns="http://www.w3.org/2000/svg" xmlns:xlink="http://www.w3.org/1999/xlink" x="0px" y="0px" viewBox="0 0 512 512" enable-background="new 0 0 512 512" xml:space="preserve">
<linearGradient id="SVGID_1_" gradientUnits="userSpaceOnUse" x1="71.1967" y1="290.9821" x2="435.6385" y2="290.9821" class="gradient-element">
	<stop offset="0" class="primary-color-gradient" style="stop-color: #FFA4ED"></stop>
	<stop offset="1" class="secondary-color-gradient" style="stop-color: #DB81DA"></stop>
</linearGradient>
<path fill="url(#SVGID_1_)" d="M219.6,422.1H119.2c-13.3,0-25.3-5.4-33.9-14.1c-8.6-8.6-14-20.4-14.1-33.5
	c-0.2-26.6,22.2-48.4,48.8-48.4h188.9c28.8,0,52.1-23.3,52.1-52.1v-69.8c0-28.8,23.3-44.3,52.1-44.3h0c12.4,0,22.5,10.1,22.5,22.5
	v206.5c0,18.4-14.9,33.3-33.3,33.3H219.6z M219.6,422.1"></path>
<g>
	<path fill="#DB81DA" class="secondary-color" d="M88.3,31.1v35.2H65.8V31.1H88.3z M470.2,18.1v77.3h22.5V18.1H470.2z"></path>
	<path fill="#FFA4ED" class="primary-color" d="M42.1,31.1v35.2H20.6V31.1H42.1z M425,18.1v77.3h21.6V18.1H425z"></path>
</g>
<path d="M491.3,346.8c0,4.4-3.6,8-8,8h-43c-4.4,0-8-3.6-8-8s3.6-8,8-8h43C487.7,338.8,491.3,342.4,491.3,346.8z M461.8,368.8H388
	c-4.4,0-8,3.6-8,8s3.6,8,8,8h73.8c4.4,0,8-3.6,8-8S466.2,368.8,461.8,368.8z M280.2,457h-15.8v-15.8c0-4.4-3.6-8-8-8s-8,3.6-8,8V457
	h-15.8c-4.4,0-8,3.6-8,8s3.6,8,8,8h15.8v15.8c0,4.4,3.6,8,8,8s8-3.6,8-8V473h15.8c4.4,0,8-3.6,8-8S284.6,457,280.2,457z M282,18.5
	c-4.4,0-8,3.6-8,8c0,11.4-9.3,20.8-20.8,20.8c-4.4,0-8,3.6-8,8s3.6,8,8,8c20.3,0,36.8-16.5,36.8-36.8C290,22.1,286.4,18.5,282,18.5z
	 M332,47.3c-11.4,0-20.8-9.3-20.8-20.8c0-4.4-3.6-8-8-8s-8,3.6-8,8c0,20.3,16.5,36.8,36.8,36.8c4.4,0,8-3.6,8-8S336.4,47.3,332,47.3
	z M332,68.5c-20.3,0-36.8,16.5-36.8,36.8c0,4.4,3.6,8,8,8s8-3.6,8-8c0-11.4,9.3-20.8,20.8-20.8c4.4,0,8-3.6,8-8S336.4,68.5,332,68.5
	z M253.3,68.5c-4.4,0-8,3.6-8,8s3.6,8,8,8c11.4,0,20.8,9.3,20.8,20.8c0,4.4,3.6,8,8,8s8-3.6,8-8C290,85,273.5,68.5,253.3,68.5z
	 M472.5,256c0,5.9,4.8,10.8,10.8,10.8S494,261.9,494,256s-4.8-10.8-10.8-10.8S472.5,250.1,472.5,256z M490.2,125.7c0-4.4-3.6-8-8-8
	H350.8c-4.4,0-8,3.6-8,8s3.6,8,8,8h131.4C486.6,133.7,490.2,130.1,490.2,125.7z M73.4,464.9c0,14.6-11.8,26.4-26.4,26.4
	s-26.4-11.8-26.4-26.4s11.8-26.4,26.4-26.4S73.4,450.4,73.4,464.9z M57.4,464.9c0-5.7-4.7-10.4-10.4-10.4s-10.4,4.7-10.4,10.4
	s4.7,10.4,10.4,10.4S57.4,470.6,57.4,464.9z"></path>
<path d="M429.8,226.1v-41.7c0-7.4-6-13.4-13.4-13.4H291.2c-22.2,0-29.4-5.9-46-24.2c-12.2-13.4-23.5-18.6-40.6-18.6h-109
	c-7.4,0-13.4,6-13.4,13.4v256.6c0,7.4,6,13.4,13.4,13.4h320.8c7.4,0,13.4-6,13.4-13.4V256.6H310.4l60.3,102.9
	c2.6,4.5,2.7,10.1,0.1,14.6s-7.4,7.3-12.6,7.3H152.5c-5.2,0-9.4-4.2-9.4-9.4s4.2-9.4,9.4-9.4h198.2l-90.9-155l-80.1,137.1
	c-2.6,4.5-8.4,6-12.9,3.4c-4.5-2.6-6-8.4-3.4-12.9l45.9-78.6h-95.8v123.6c0,4.4-3.6,8-8,8s-8-3.6-8-8V248.6c0-4.4,3.6-8,8-8h113.1
	l28.5-48.8c2.6-4.5,7.3-7.2,12.5-7.2c0,0,0,0,0,0c5.2,0,9.9,2.7,12.5,7.2l28.6,48.9c0.1,0,0.2,0,0.2,0h136.5c4.4,0,8,3.6,8,8v149.7
	c0,16.2-13.2,29.4-29.4,29.4H95.6c-16.2,0-29.4-13.2-29.4-29.4V141.7c0-16.2,13.2-29.4,29.4-29.4h109c21.6,0,37.2,7.1,52.4,23.8
	c15.6,17.2,18.8,19,34.2,19h125.2c16.2,0,29.4,13.2,29.4,29.4v41.7c0,4.4-3.6,8-8,8S429.8,230.5,429.8,226.1z M260.1,313.6
	c5.2,0,9.4-4.2,9.4-9.4v-50.4c0-5.2-4.2-9.4-9.4-9.4s-9.4,4.2-9.4,9.4v50.4C250.7,309.4,254.9,313.6,260.1,313.6z M259.1,345.9h1.4
	c5.2,0,9.4-4.2,9.4-9.4s-4.2-9.4-9.4-9.4h-1.4c-5.2,0-9.4,4.2-9.4,9.4S253.9,345.9,259.1,345.9z"></path>
</svg>