<svg version="1.1" id="Layer_1" xmlns="http://www.w3.org/2000/svg" xmlns:xlink="http://www.w3.org/1999/xlink" x="0px" y="0px" viewBox="0 0 512 512" enable-background="new 0 0 512 512" xml:space="preserve">
<linearGradient id="SVGID_1_" gradientUnits="userSpaceOnUse" x1="292.0759" y1="457.0468" x2="292.0759" y2="38.8124" class="gradient-element">
	<stop offset="0" class="primary-color-gradient" style="stop-color: #FFA4ED"></stop>
	<stop offset="1" class="secondary-color-gradient" style="stop-color: #DB81DA"></stop>
</linearGradient>
<path fill="url(#SVGID_1_)" d="M413.4,100.1h-60.1v-12c0-19.8-16.2-36.1-36.1-36.1h0c-26.6,0-48.1,21.5-48.1,48.1v225.8
	c0,26.6-21.5,48.1-48.1,48.1h-38.2c-28.1,0-50.3,24.1-48,52.1l2.9,34.9h262.7l24.1-288.7h25v-36.1
	C449.5,116.3,433.2,100.1,413.4,100.1z"></path>
<path d="M463.1,393.2h-86.8c-4.4,0-8-3.6-8-8s3.6-8,8-8h86.8c4.4,0,8,3.6,8,8S467.5,393.2,463.1,393.2z M423.5,350.1
	c0-4.4-3.6-8-8-8h-57.4c-4.4,0-8,3.6-8,8s3.6,8,8,8h57.4C419.9,358.1,423.5,354.6,423.5,350.1z M97.7,49.4H38.5c-4.4,0-8,3.6-8,8
	s3.6,8,8,8h59.2c4.4,0,8-3.6,8-8S102.1,49.4,97.7,49.4z M465.7,479.4h-59.2c-4.4,0-8,3.6-8,8s3.6,8,8,8h59.2c4.4,0,8-3.6,8-8
	S470.1,479.4,465.7,479.4z M145.7,15.4H86.5c-4.4,0-8,3.6-8,8s3.6,8,8,8h59.2c4.4,0,8-3.6,8-8S150.1,15.4,145.7,15.4z"></path>
<g>
	<path fill="#FFA4ED" class="primary-color" d="M40.2,430v35.1h35.1V487H40.2H18.4v-21.8V430H40.2z M18.4,348v35.1V405h21.8h35.1v-21.8H40.2V348H18.4z"></path>
	<path fill="#DB81DA" class="secondary-color" d="M473.4,26.9h21.8v145.9h-21.8V26.9z M473.4,218h21.8v-22.1h-21.8V218z"></path>
</g>
<path d="M457.5,136.2v36.1c0,4.4-3.6,8-8,8h-17.7l-14.1,168.7c-0.3,4.2-3.8,7.3-8,7.3c-0.2,0-0.4,0-0.7,0c-4.4-0.4-7.7-4.2-7.3-8.6
	l14.7-176c0.3-4.1,3.8-7.3,8-7.3h17v-28.1c0-15.5-12.6-28.1-28.1-28.1h-60.1c-4.4,0-8-3.6-8-8v-12c0-15.5-12.6-28.1-28.1-28.1H221
	c-15.5,0-28.1,12.6-28.1,28.1v12c0,4.4-3.6,8-8,8h-60.1c-15.5,0-28.1,12.6-28.1,28.1v28.1h303.6c4.4,0,8,3.6,8,8s-3.6,8-8,8H88.7
	c-4.4,0-8-3.6-8-8v-36.1c0-24.3,19.8-44.1,44.1-44.1h52.1v-4c0-24.3,19.8-44.1,44.1-44.1h96.2c24.3,0,44.1,19.8,44.1,44.1v4h52.1
	C437.7,92.1,457.5,111.9,457.5,136.2z M407.3,378.1c-4.4-0.4-8.3,2.9-8.6,7.3l-5.6,67.5h-248l-21.4-257.3c-0.4-4.4-4.2-7.7-8.6-7.3
	c-4.4,0.4-7.7,4.2-7.3,8.6l22,264.6c0.3,4.1,3.8,7.3,8,7.3h262.7c4.2,0,7.6-3.2,8-7.3l6.2-74.9C415,382.3,411.7,378.5,407.3,378.1z
	 M156.1,396c0,5.2,4.2,9.4,9.4,9.4h205.6c5.2,0,10-2.8,12.6-7.3s2.6-10.1-0.1-14.6l-98.3-167.7c-2.6-4.5-7.3-7.2-12.5-7.2
	c0,0,0,0,0,0c-5.2,0-9.9,2.7-12.5,7.2l-83.8,143.4c-2.6,4.5-1.1,10.3,3.4,12.9c4.5,2.6,10.3,1.1,12.9-3.4l80.1-137.1l90.9,155H165.5
	C160.3,386.6,156.1,390.8,156.1,396z M273.1,337.6c5.2,0,9.4-4.2,9.4-9.4v-50.4c0-5.2-4.2-9.4-9.4-9.4s-9.4,4.2-9.4,9.4v50.4
	C263.7,333.4,267.9,337.6,273.1,337.6z M272.1,369.9h1.4c5.2,0,9.4-4.2,9.4-9.4s-4.2-9.4-9.4-9.4h-1.4c-5.2,0-9.4,4.2-9.4,9.4
	S266.9,369.9,272.1,369.9z"></path>
</svg>