<svg version="1.1" id="Layer_1" xmlns="http://www.w3.org/2000/svg" xmlns:xlink="http://www.w3.org/1999/xlink" x="0px" y="0px" viewBox="0 0 512 512" enable-background="new 0 0 512 512" xml:space="preserve">
<g>
	<path fill="#DB81DA" class="secondary-color" d="M74.4,471H39.7v-34.7h34.7V471z M129.7,436.3H95V471h34.7V436.3z"></path>
	<path fill="#FFA4ED" class="primary-color" d="M184.9,471h-34.7v-34.7h34.7V471z"></path>
</g>
<path d="M134.1,89.4c-4.4,0-8-3.6-8-8V65.6h-15.8c-4.4,0-8-3.6-8-8s3.6-8,8-8h15.8V33.8c0-4.4,3.6-8,8-8s8,3.6,8,8v15.8h15.8
	c4.4,0,8,3.6,8,8s-3.6,8-8,8h-15.8v15.8C142.1,85.8,138.5,89.4,134.1,89.4z M449.9,48.3h3.9v3.9c0,4.4,3.6,8,8,8s8-3.6,8-8v-3.9h3.9
	c4.4,0,8-3.6,8-8s-3.6-8-8-8h-3.9v-3.9c0-4.4-3.6-8-8-8s-8,3.6-8,8v3.9h-3.9c-4.4,0-8,3.6-8,8S445.5,48.3,449.9,48.3z M487.8,344.7
	c0,14.6-11.8,26.4-26.4,26.4S435,359.2,435,344.7s11.8-26.4,26.4-26.4S487.8,330.1,487.8,344.7z M471.8,344.7
	c0-5.7-4.7-10.4-10.4-10.4s-10.4,4.7-10.4,10.4s4.7,10.4,10.4,10.4S471.8,350.4,471.8,344.7z M162.1,336.6
	c-14.6,0-26.4,11.8-26.4,26.4c0,4.4,3.6,8,8,8s8-3.6,8-8c0-5.7,4.7-10.4,10.4-10.4c5.7,0,10.4,4.7,10.4,10.4c0,4.4,3.6,8,8,8
	c4.4,0,8-3.6,8-8C188.5,348.5,176.6,336.6,162.1,336.6z"></path>
<linearGradient id="SVGID_1_" gradientUnits="userSpaceOnUse" x1="250.4294" y1="478.1457" x2="241.3347" y2="82.5246" class="gradient-element">
	<stop offset="0" class="primary-color-gradient" style="stop-color: #FFA4ED"></stop>
	<stop offset="1" class="secondary-color-gradient" style="stop-color: #DB81DA"></stop>
</linearGradient>
<path fill="url(#SVGID_1_)" d="M109.6,147.2c-3.7,3.7-7.4,7.6-10.8,11.8l-7.9,9.7L60.4,135l18.4-18.4L109.6,147.2z M420.7,399.3
	v19.9l10.3-10.3L420.7,399.3z M154,194.1c-4.5,4.7-8.9,9.6-13,14.3l-6.5,7.4l236.6,252.8l29.9-29.9L154,194.1
	C154,194.2,154.1,194.1,154,194.1z"></path>
<path d="M479.8,300.1c-2.6,4.5-7.4,7.3-12.6,7.3H333.9L402,371c3.2,3,3.4,8.1,0.4,11.3c-1.6,1.7-3.7,2.5-5.8,2.5
	c-2,0-3.9-0.7-5.5-2.2l-80.6-75.3h-48.9c-5.2,0-9.4-4.2-9.4-9.4s4.2-9.4,9.4-9.4h198.2l-90.9-155l-80.1,137.1
	c-2.6,4.5-8.4,6-12.9,3.4c-0.8-0.5-1.5-1-2.1-1.7c-0.5-0.3-1-0.6-1.4-1.1l-101.2-93.5c-1.7-1.6-2.6-3.8-2.6-6.1s1.1-4.5,2.9-5.9
	c47.6-39.4,107.4-66,108-66.2l12.8-5.7h-14c-56.3,0-105.8,14.4-143.1,41.5c-3.1,2.3-7.4,2-10.2-0.6l-27.5-25.6l-25.9,25.9l19.6,21
	c0.4-0.4,0.7-0.9,1.1-1.3c8.6-10.4,11.7-14,12.9-15.1c3.2-3.1,8.2-3,11.3,0.1c3.1,3.2,3,8.2-0.1,11.3c-1,1.1-7.5,8.8-11.8,14
	c-4.8,5.8-7.3,8.7-8.4,10C69.6,212,56.2,259.4,56.2,316v14.6l5.7-13.4c0.2-0.5,23.3-54.4,66.6-107.4c1.5-1.8,3.6-2.9,5.9-2.9
	c2.3-0.1,4.5,0.9,6.1,2.5l230.7,247.8l48.1-48.1l-4.3-4l-18.7,18.7c-3.1,3.1-8.2,3.1-11.3,0c-3.1-3.1-3.1-8.2,0-11.3l24.1-24.1
	c3-3,8-3.1,11.1-0.2l16,14.9c1.6,1.5,2.5,3.5,2.5,5.7c0,2.2-0.8,4.3-2.3,5.8l-59.9,59.9c-1.5,1.5-3.5,2.3-5.7,2.3c0,0-0.1,0-0.1,0
	c-2.2,0-4.2-1-5.7-2.5L135.2,227.1c-38,48.6-58.3,95.8-58.5,96.3l-21,49.7c-1.5,3.5-5.2,5.5-9,4.7c-3.7-0.8-6.4-4-6.4-7.8v-54
	c0-58.6,13.7-108.1,40.7-147.2l-26.4-28.4c-2.9-3.2-2.8-8.1,0.2-11.1l36.9-36.9c3-3,8-3.1,11.1-0.2l28.4,26.5
	c39.3-26.7,90-40.8,147.1-40.8h51.9c3.8,0,7,2.6,7.8,6.3c0.8,3.7-1.1,7.4-4.6,9l-47.4,21c-0.6,0.2-52.9,23.6-97.1,58.2l88,81.3
	l79.4-136c2.6-4.5,7.3-7.2,12.5-7.2c0,0,0,0,0,0c5.2,0,9.9,2.7,12.5,7.2l98.3,167.7C482.3,290,482.4,295.6,479.8,300.1z
	 M369.1,239.6c5.2,0,9.4-4.2,9.4-9.4v-50.4c0-5.2-4.2-9.4-9.4-9.4s-9.4,4.2-9.4,9.4v50.4C359.7,235.4,363.9,239.6,369.1,239.6z
	 M368.1,271.9h1.4c5.2,0,9.4-4.2,9.4-9.4s-4.2-9.4-9.4-9.4h-1.4c-5.2,0-9.4,4.2-9.4,9.4S362.9,271.9,368.1,271.9z"></path>
</svg>