<svg version="1.1" id="Layer_1" xmlns="http://www.w3.org/2000/svg" xmlns:xlink="http://www.w3.org/1999/xlink" x="0px" y="0px" viewBox="0 0 512 512" enable-background="new 0 0 512 512" xml:space="preserve">
<linearGradient id="SVGID_1_" gradientUnits="userSpaceOnUse" x1="285.4516" y1="441.5592" x2="285.4516" y2="67.9815" class="gradient-element">
	<stop offset="0" class="primary-color-gradient" style="stop-color: #FFA4ED"></stop>
	<stop offset="1" class="secondary-color-gradient" style="stop-color: #DB81DA"></stop>
</linearGradient>
<path fill="url(#SVGID_1_)" d="M381.4,176c0,60.5-102.9,251.2-107.2,259.3l-9.3,17.2l-9.3-17.2l-59.5-119.2
	c-16.3-36.9-3-73.7,47.1-73.7h2.1c8.7,0,16.1-5.7,18.6-13.5c0.3,0,0.7,0,1,0c29.2,0,79.1,4.9,77.1-9c-2-14-62-123-79-124l1.9-6.3
	c0-17.6,17-30.3,33.8-25.2C346.5,79,381.4,123.5,381.4,176z"></path>
<g>
	<path fill="#FFA4ED" class="primary-color" d="M482.1,471.5H370.9v-43.6h111.2V471.5z"></path>
	<path fill="#DB81DA" class="secondary-color" d="M61.5,125.5H17.9V81.9h43.6V125.5z M61.6,19.5H18v43.6h43.6V19.5z"></path>
</g>
<path d="M24,329.9c0-4.4,3.6-8,8-8h15.8v-15.8c0-4.4,3.6-8,8-8s8,3.6,8,8v15.8h15.8c4.4,0,8,3.6,8,8s-3.6,8-8,8H63.7v15.8
	c0,4.4-3.6,8-8,8s-8-3.6-8-8v-15.8H32C27.5,337.9,24,334.3,24,329.9z M483.1,205.9h-15.8v-15.8c0-4.4-3.6-8-8-8s-8,3.6-8,8v15.8
	h-15.8c-4.4,0-8,3.6-8,8s3.6,8,8,8h15.8v15.8c0,4.4,3.6,8,8,8s8-3.6,8-8v-15.8h15.8c4.4,0,8-3.6,8-8S487.5,205.9,483.1,205.9z
	 M415.7,38.4c0,5-4.1,9-9,9s-9-4.1-9-9s4.1-9,9-9S415.7,33.4,415.7,38.4z M385.7,38.4c0,5-4.1,9-9,9s-9-4.1-9-9s4.1-9,9-9
	S385.7,33.4,385.7,38.4z M457.7,38.4c0-5,4.1-9,9-9s9,4.1,9,9s-4.1,9-9,9S457.7,43.3,457.7,38.4z M427.2,38.4c0-5,4.1-9,9-9
	s9,4.1,9,9s-4.1,9-9,9S427.2,43.3,427.2,38.4z M415.6,69c0,4.9-4,9-9,9s-9-4-9-9s4-9,9-9S415.6,64.1,415.6,69z M445.2,69
	c0,4.9-4,9-9,9s-9-4-9-9s4-9,9-9S445.2,64.1,445.2,69z M457.7,98.7c0-5,4.1-9,9-9s9,4.1,9,9s-4.1,9-9,9S457.7,103.7,457.7,98.7z
	 M457.7,69c0-5,4.1-9,9-9s9,4.1,9,9s-4.1,9-9,9S457.7,74,457.7,69z M427.3,98.7c0-4.9,4-9,9-9s9,4,9,9c0,4.9-4,9-9,9
	S427.3,103.6,427.3,98.7z M457.7,128.4c0-5,4.1-9,9-9s9,4.1,9,9s-4.1,9-9,9S457.7,133.3,457.7,128.4z M323.6,473.7h-58.8
	c-4.4,0-8,3.6-8,8s3.6,8,8,8h58.8c4.4,0,8-3.6,8-8S328.1,473.7,323.6,473.7z M223.1,473.7H21.3c-4.4,0-8,3.6-8,8s3.6,8,8,8h201.8
	c4.4,0,8-3.6,8-8S227.5,473.7,223.1,473.7z M204.9,453.6c1.5,2.6,4.2,4.1,7,4.1c1.3,0,2.7-0.3,3.9-1c3.8-2.2,5.2-7.1,3-10.9
	l-58.8-104c-2.2-3.8-7.1-5.2-10.9-3c-3.8,2.2-5.2,7.1-3,10.9L204.9,453.6z M359.7,337.7h-74.3c-4.4,0-8,3.6-8,8s3.6,8,8,8h74.3
	c4.4,0,8-3.6,8-8S364.2,337.7,359.7,337.7z M359.7,302.8h-34.9c-4.4,0-8,3.6-8,8s3.6,8,8,8h34.9c4.4,0,8-3.6,8-8
	S364.2,302.8,359.7,302.8z"></path>
<path d="M264.9,460.5c-2.9,0-5.6-1.6-7-4.2l-9.7-17.9c-15.7-29.2-94.3-178.4-106.2-246.5c-0.8-4.4,2.2-8.5,6.5-9.3
	c4.4-0.8,8.5,2.2,9.3,6.5c11.4,65.7,89.1,212.8,104.5,241.7l2.7,4.9l3.1-5.7c18.7-34.7,34.2-66.1,43.9-86.3c1.9-4,6.7-5.7,10.7-3.8
	c4,1.9,5.7,6.7,3.8,10.7c-9.8,20.4-25.4,52-44.2,87l-0.8,1.5l-9.4,17.2C270.5,458.9,267.8,460.5,264.9,460.5z M336.1,318.8
	c-1.1,0-2.2-0.2-3.3-0.7c-4-1.8-5.8-6.6-3.9-10.6c29.6-64.7,44.6-108.9,44.6-131.5c0-59.8-48.7-108.5-108.5-108.5
	c-52.7,0-97.6,37.6-106.8,89.4c-0.8,4.4-4.9,7.3-9.3,6.5c-4.4-0.8-7.3-4.9-6.5-9.3c5-28.4,20-54.4,42.2-73.2
	c22.4-19,51-29.5,80.4-29.5c68.7,0,124.5,55.9,124.5,124.5c0,25.2-15.1,70.4-46,138.1C342,317.1,339.1,318.8,336.1,318.8z
	 M349.7,225.1c2.3-4.1,2.3-9.2-0.1-13.2L277.1,88.1c-2.4-4-6.7-6.5-11.4-6.5c-4.7,0-9,2.5-11.4,6.5l-61.8,105.8
	c-2.6,4.5-1.1,10.3,3.4,12.9c4.5,2.6,10.3,1.1,12.9-3.4l56.9-97.5l62.7,106.9H186.5c-5.2,0-9.4,4.2-9.4,9.4s4.2,9.4,9.4,9.4h151.7
	C342.9,231.7,347.3,229.1,349.7,225.1z M275.3,172.3v-37.1c0-5.2-4.2-9.4-9.4-9.4s-9.4,4.2-9.4,9.4v37.1c0,5.2,4.2,9.4,9.4,9.4
	S275.3,177.5,275.3,172.3z M275.6,196.1c0-5.2-4.2-9.4-9.4-9.4h-1c-5.2,0-9.4,4.2-9.4,9.4s4.2,9.4,9.4,9.4h1
	C271.4,205.5,275.6,201.3,275.6,196.1z"></path>
</svg>