<svg version="1.1" id="Layer_1" xmlns="http://www.w3.org/2000/svg" xmlns:xlink="http://www.w3.org/1999/xlink" x="0px" y="0px" viewBox="0 0 512 512" enable-background="new 0 0 512 512" xml:space="preserve">
<linearGradient id="SVGID_1_" gradientUnits="userSpaceOnUse" x1="281.6299" y1="455.6926" x2="283.1457" y2="188.9136" class="gradient-element">
	<stop offset="0" class="primary-color-gradient" style="stop-color: #FFA4ED"></stop>
	<stop offset="1" class="secondary-color-gradient" style="stop-color: #DB81DA"></stop>
</linearGradient>
<path fill="url(#SVGID_1_)" d="M480.4,225.7v189.9c0,25.1-20.6,45.7-45.7,45.7H112.8c-15.7,0-28.4-12.7-28.4-28.4V225.7
	c0-15.7,12.7-28.4,28.4-28.4H452C467.7,197.3,480.4,210,480.4,225.7z"></path>
<path d="M475.7,55.6c-1.3-2-3.3-3.4-5.7-3.9c-2.4-0.5-4.8-0.1-6.8,1.2c-2,1.3-3.4,3.3-3.9,5.7c-1.1,4.9,2,9.7,6.9,10.7
	c0.6,0.1,1.3,0.2,1.9,0.2c4.2,0,7.9-2.9,8.8-7.1C477.4,60.1,477,57.6,475.7,55.6z M216.9,51.6c0,5.9-4.8,10.8-10.8,10.8
	s-10.8-4.8-10.8-10.8c0-5.9,4.8-10.8,10.8-10.8S216.9,45.7,216.9,51.6z M74.3,51.6c0,4.4-3.6,8-8,8h-3.9v3.9c0,4.4-3.6,8-8,8
	s-8-3.6-8-8v-3.9h-3.9c-4.4,0-8-3.6-8-8s3.6-8,8-8h3.9v-3.9c0-4.4,3.6-8,8-8s8,3.6,8,8v3.9h3.9C70.7,43.6,74.3,47.2,74.3,51.6z"></path>
<path fill="#DB81DA" class="secondary-color" d="M418.3,27.4v57.8L302.7,27.4H418.3z"></path>
<path d="M440.8,469.3H208.4v-140c0-4.4,3.6-8,8-8s8,3.6,8,8v124h216.4c17.4,0,31.6-14.2,31.6-31.6V310.9H272.1
	c-5.5,10.9-14.9,19.3-26.5,23.5c-4.2,1.5-8.7-0.6-10.3-4.8c-1.5-4.2,0.6-8.7,4.8-10.3c9-3.3,16-10.3,19.3-19.3l1.9-5.3h211.1v-10.4
	H261.2V126.2h-190c-17.4,0-31.6,14.2-31.6,31.6v137.2h173.9c5.5-10.9,14.9-19.3,26.5-23.5c4.2-1.5,8.7,0.6,10.3,4.8
	c1.5,4.2-0.6,8.7-4.8,10.3c-9,3.3-16,10.3-19.2,19.2l-1.9,5.3H39.6v110.8c0,17.4,14.2,31.6,31.6,31.6H190c4.4,0,8,3.6,8,8
	s-3.6,8-8,8H71.2c-26.2,0-47.6-21.4-47.6-47.6v-264c0-26.2,21.4-47.6,47.6-47.6h206v158.4h195.2V157.8c0-17.4-14.2-31.6-31.6-31.6
	H295.6c-4.4,0-8-3.6-8-8s3.6-8,8-8h145.2c26.2,0,47.6,21.4,47.6,47.6v264C488.4,448,467,469.3,440.8,469.3z M307.7,258.1
	c-4.4,0-8-3.6-8-8v-12.6c0-12,9.8-21.8,21.8-21.8h118.1c4.4,0,8,3.6,8,8c0,4.4-3.6,8-8,8H321.6c-3.2,0-5.8,2.6-5.8,5.8v12.6
	C315.7,254.6,312.2,258.1,307.7,258.1z M307.7,205.4c-4.4,0-8-3.6-8-8v-12.6c0-12,9.8-21.8,21.8-21.8h118.1c4.4,0,8,3.6,8,8
	s-3.6,8-8,8H321.6c-3.2,0-5.8,2.6-5.8,5.8v12.6C315.7,201.8,312.2,205.4,307.7,205.4z M213.7,271.4c2.3-4,2.3-9-0.1-13l-67.9-115.8
	c-2.3-3.9-6.6-6.4-11.2-6.4s-8.9,2.5-11.2,6.4l-57.8,99c-2.6,4.5-1.1,10.3,3.4,12.9c4.5,2.6,10.3,1.1,12.9-3.4l52.8-90.3l57.6,98.3
	H60.5c-5.2,0-9.4,4.2-9.4,9.4s4.2,9.4,9.4,9.4h141.9C207.1,277.9,211.4,275.4,213.7,271.4z M144.2,221.7V187c0-5.2-4.2-9.4-9.4-9.4
	s-9.4,4.2-9.4,9.4v34.8c0,5.2,4.2,9.4,9.4,9.4S144.2,226.9,144.2,221.7z M144.5,244c0-5.2-4.2-9.4-9.4-9.4h-1
	c-5.2,0-9.4,4.2-9.4,9.4s4.2,9.4,9.4,9.4h1C140.3,253.4,144.5,249.2,144.5,244z"></path>
</svg>