<svg version="1.1" id="Layer_1" xmlns="http://www.w3.org/2000/svg" xmlns:xlink="http://www.w3.org/1999/xlink" x="0px" y="0px" viewBox="0 0 512 512" enable-background="new 0 0 512 512" xml:space="preserve">
<linearGradient id="SVGID_1_" gradientUnits="userSpaceOnUse" x1="256.0708" y1="403.9542" x2="256.0708" y2="137.9826" class="gradient-element">
	<stop offset="0" class="primary-color-gradient" style="stop-color: #FFA4ED"></stop>
	<stop offset="1" class="secondary-color-gradient" style="stop-color: #DB81DA"></stop>
</linearGradient>
<path fill="url(#SVGID_1_)" d="M269.6,106.5h0.6c11.4,0,22.6,1.1,33.5,3.3C366,130,411.1,188.4,411.1,257.4c0,23.2-5.1,45.2-14.2,65
	l-57.3-17.2c16.8-50.5,1.2-119.9-81.8-163.3C241.1,133.2,250.9,106.6,269.6,106.5z M306.2,353.2c-16.2,11.5-41,19.9-74.3,14.6
	c-51.5-8.1-88.1-44.9-108.8-94.8c-3.6-8.7-14.6-9.2-22-6.7c4.6,81.5,72.2,146.3,154.9,146.3c22.8,0,44.5-4.9,64-13.8L306.2,353.2z"></path>
<path d="M441.4,405.4l-41.6-41.6l28.1-28.1c2-2,2.8-4.9,2.1-7.6c-0.7-2.7-2.8-4.9-5.5-5.7l-23.7-7.1c7.7-18.8,11.6-38.6,11.6-59.1
	c0-86-69.9-155.9-155.9-155.9c-86,0-155.9,69.9-155.9,155.9c0,86,69.9,155.9,155.9,155.9c19.3,0,38.1-3.5,56-10.4l7.6,25.2
	c0.8,2.7,3,4.8,5.7,5.5c2.7,0.7,5.6-0.1,7.6-2.1l28.1-28.1l41.6,41.6c1.5,1.5,3.5,2.3,5.7,2.3s4.2-0.8,5.7-2.3l27-27
	C444.5,413.6,444.5,408.5,441.4,405.4z M256.5,396c-77.1,0-139.9-62.8-139.9-139.9c0-77.1,62.8-139.9,139.9-139.9
	c77.2,0,139.9,62.8,139.9,139.9c0,18.9-3.7,37.2-11,54.5c0,0,0,0,0,0l-96-28.8c-2.8-0.8-5.9-0.1-8,2c-2.1,2.1-2.9,5.1-2,8l28.4,94.5
	C291.5,392.7,274.2,396,256.5,396z M408.7,426.7l-41.6-41.6c-1.5-1.5-3.5-2.3-5.7-2.3s-4.2,0.8-5.7,2.3l-24.3,24.3l-32.4-108
	l108,32.4l-24.3,24.3c-3.1,3.1-3.1,8.2,0,11.3l41.6,41.6L408.7,426.7z M211.7,221.8l-8.4,45.9c-0.6,3.2-3,5.7-6.2,6.4
	c-3.1,0.7-6.4-0.6-8.3-3.2l-19.8-28.1l-19.1,28c-1.5,2.2-4,3.5-6.6,3.5c-0.6,0-1.1-0.1-1.7-0.2c-3.2-0.7-5.6-3.2-6.2-6.4l-8.4-45.9
	c-0.8-4.3,2.1-8.5,6.4-9.3c4.3-0.8,8.5,2.1,9.3,6.4l4.9,26.7l14.6-21.4c1.5-2.2,3.9-3.5,6.5-3.5c0,0,0,0,0.1,0c2.6,0,5,1.3,6.5,3.4
	l15.4,21.9l5-27.1c0.8-4.3,5-7.2,9.3-6.4C209.6,213.3,212.5,217.5,211.7,221.8z M282.1,274.3c-2.6,0-5-1.2-6.5-3.4l-19.8-28.1
	l-19.1,28c-1.8,2.7-5.1,4-8.3,3.3c-3.2-0.7-5.6-3.2-6.2-6.4l-8.4-45.9c-0.8-4.3,2.1-8.5,6.4-9.3c4.4-0.8,8.5,2.1,9.3,6.4l4.9,26.7
	l14.6-21.4c1.5-2.2,3.9-3.5,6.5-3.5c0,0,0,0,0.1,0c2.6,0,5,1.3,6.5,3.4l15.4,21.9l5-27.1c0.8-4.3,5-7.2,9.3-6.4
	c4.3,0.8,7.2,5,6.4,9.3l-8.4,45.9c-0.6,3.2-3,5.7-6.2,6.4C283.2,274.2,282.6,274.3,282.1,274.3z M300.4,221.8
	c-0.8-4.3,2.1-8.5,6.4-9.3c4.4-0.8,8.5,2.1,9.3,6.4l4.9,26.7l14.6-21.4c1.5-2.2,3.9-3.5,6.5-3.5c0,0,0,0,0.1,0c2.6,0,5,1.3,6.5,3.4
	l15.4,21.9l5-27.1c0.8-4.3,5-7.2,9.3-6.4c4.3,0.8,7.2,5,6.4,9.3l-8.4,45.9c-0.6,3.2-3,5.7-6.2,6.4c-0.6,0.1-1.1,0.2-1.7,0.2
	c-2.6,0-5-1.2-6.5-3.4l-19.8-28.1l-19.1,28c-1.8,2.7-5.1,4-8.3,3.3c-3.2-0.7-5.6-3.2-6.2-6.4L300.4,221.8z"></path>
<g>
	<path fill="#DB81DA" class="secondary-color" d="M498.3,395.7v102.6H396.8L498.3,395.7z M45.8,281.2V164.9H24.4v116.3H45.8z"></path>
	<path fill="#FFA4ED" class="primary-color" d="M24.4,360.3v-57.6h21.4v57.6H24.4z"></path>
</g>
<path d="M132.6,104.3c0,4.4-3.6,8-8,8c-11.4,0-20.8,9.3-20.8,20.8c0,4.4-3.6,8-8,8s-8-3.6-8-8c0-20.3,16.5-36.8,36.8-36.8
	C129,96.3,132.6,99.8,132.6,104.3z M45.8,112.3c11.4,0,20.8,9.3,20.8,20.8c0,4.4,3.6,8,8,8s8-3.6,8-8c0-20.3-16.5-36.8-36.8-36.8
	c-4.4,0-8,3.6-8,8S41.4,112.3,45.8,112.3z M45.8,91c20.3,0,36.8-16.5,36.8-36.8c0-4.4-3.6-8-8-8s-8,3.6-8,8
	c0,11.4-9.3,20.7-20.8,20.7c-4.4,0-8,3.6-8,8S41.4,91,45.8,91z M124.6,75c-11.4,0-20.8-9.3-20.8-20.8c0-4.4-3.6-8-8-8s-8,3.6-8,8
	c0,20.3,16.5,36.7,36.8,36.7c4.4,0,8-3.6,8-8S129,75,124.6,75z M484.7,248.1h-3.9v-3.9c0-4.4-3.6-8-8-8s-8,3.6-8,8v3.9h-3.9
	c-4.4,0-8,3.6-8,8s3.6,8,8,8h3.9v3.9c0,4.4,3.6,8,8,8s8-3.6,8-8v-3.9h3.9c4.4,0,8-3.6,8-8S489.1,248.1,484.7,248.1z M97.8,400.3
	c0-4.4-3.6-8-8-8H30.6c-4.4,0-8,3.6-8,8s3.6,8,8,8h59.2C94.2,408.3,97.8,404.7,97.8,400.3z M121.9,449.1H62.7c-4.4,0-8,3.6-8,8
	s3.6,8,8,8h59.2c4.4,0,8-3.6,8-8S126.4,449.1,121.9,449.1z M456.4,76.6c4.4,0,8-3.6,8-8s-3.6-8-8-8h-21.6V39c0-4.4-3.6-8-8-8
	s-8,3.6-8,8v21.6h-21.6c-4.4,0-8,3.6-8,8s3.6,8,8,8h21.6v21.6c0,4.4,3.6,8,8,8s8-3.6,8-8V76.6H456.4z M198.7,457.7
	c0,5.5-4.4,9.9-9.9,9.9s-9.9-4.4-9.9-9.9s4.4-9.9,9.9-9.9S198.7,452.2,198.7,457.7z M254,457.7c0,5.5-4.4,9.9-9.9,9.9
	c-5.5,0-9.9-4.4-9.9-9.9s4.4-9.9,9.9-9.9C249.6,447.8,254,452.2,254,457.7z M309.4,457.7c0,5.5-4.4,9.9-9.9,9.9
	c-5.5,0-9.9-4.4-9.9-9.9s4.4-9.9,9.9-9.9C305,447.8,309.4,452.2,309.4,457.7z"></path>
</svg>