<svg version="1.1" id="Layer_1" xmlns="http://www.w3.org/2000/svg" xmlns:xlink="http://www.w3.org/1999/xlink" x="0px" y="0px" viewBox="0 0 512 512" enable-background="new 0 0 512 512" xml:space="preserve">
<linearGradient id="SVGID_1_" gradientUnits="userSpaceOnUse" x1="264.1088" y1="420.5452" x2="264.1088" y2="162.2729" class="gradient-element">
	<stop offset="0" class="primary-color-gradient" style="stop-color: #FFA4ED"></stop>
	<stop offset="1" class="secondary-color-gradient" style="stop-color: #DB81DA"></stop>
</linearGradient>
<path fill="url(#SVGID_1_)" d="M431.9,155.3v239.3c0,2-0.9,3.7-2.2,5c-1.4,1.3-3.3,2.1-5.4,2.1l-206.7-0.8l-115.3,2.7
	c-4.2,0-7.6-3.2-7.6-7.1v-28.4c0-9.3,8.1-16.8,18-16.8h250.9c3.2,0,6-1.9,7.1-4.6l0.5-170.3c0-15.6,13.5-28.2,30.2-28.2h29.9
	C435.6,148.2,431.9,151.4,431.9,155.3z"></path>
<path fill="#000000" d="M423.3,322.7V150H322.7c-4.4,0-8-3.6-8-8s3.6-8,8-8h100.7v-27.8H96.1v28.4c0.9-0.4,1.9-0.6,3-0.6h202.6
	c4.4,0,8,3.6,8,8s-3.6,8-8,8H99.1c-1,0-2-0.2-3-0.6v251.1h327.2v-55.9c0-4.4,3.6-8,8-8s8,3.6,8,8V403c0,7.4-6,13.5-13.5,13.5H93.6
	c-7.4,0-13.5-6-13.5-13.5V103.6c0-7.4,6-13.5,13.5-13.5h332.3c7.4,0,13.5,6,13.5,13.5v219.1c0,4.4-3.6,8-8,8
	S423.3,327.1,423.3,322.7z M177,293.5h-10.3v-10.3c0-4.4-3.6-8-8-8s-8,3.6-8,8v18.3c0,4.4,3.6,8,8,8H177c4.4,0,8-3.6,8-8
	S181.4,293.5,177,293.5z M158.7,326.4c-4.4,0-8,3.6-8,8v18.3c0,4.4,3.6,8,8,8H177c4.4,0,8-3.6,8-8s-3.6-8-8-8h-10.3v-10.3
	C166.7,330,163.2,326.4,158.7,326.4z M355.9,278.9H334c-4.4,0-8,3.6-8,8s3.6,8,8,8h21.9c4.4,0,8-3.6,8-8S360.3,278.9,355.9,278.9z
	 M312.1,278.9H204.4c-4.4,0-8,3.6-8,8s3.6,8,8,8h107.7c4.4,0,8-3.6,8-8S316.5,278.9,312.1,278.9z M355.9,330.1H334c-4.4,0-8,3.6-8,8
	s3.6,8,8,8h21.9c4.4,0,8-3.6,8-8S360.3,330.1,355.9,330.1z M312.1,330.1H204.4c-4.4,0-8,3.6-8,8s3.6,8,8,8h107.7c4.4,0,8-3.6,8-8
	S316.5,330.1,312.1,330.1z M203.3,256.8c0.6,0,1.1-0.1,1.7-0.2c3.1-0.7,5.6-3.2,6.2-6.4l8.4-45.9c0.8-4.3-2.1-8.5-6.4-9.3
	c-4.3-0.8-8.5,2.1-9.3,6.4l-5,27.1l-15.4-21.9c-1.5-2.1-3.9-3.4-6.5-3.4c0,0,0,0-0.1,0c-2.6,0-5.1,1.3-6.5,3.5l-14.6,21.4l-4.9-26.7
	c-0.8-4.3-5-7.2-9.3-6.4c-4.3,0.8-7.2,5-6.4,9.3l8.4,45.9c0.6,3.2,3,5.7,6.2,6.4c3.2,0.7,6.4-0.6,8.3-3.3l19.1-28l19.8,28.1
	C198.3,255.6,200.8,256.8,203.3,256.8z M236.3,256.7c3.2,0.7,6.4-0.6,8.3-3.3l19.1-28l19.8,28.1c1.5,2.2,4,3.4,6.5,3.4
	c0.6,0,1.1-0.1,1.7-0.2c3.1-0.7,5.6-3.2,6.2-6.4l8.4-45.9c0.8-4.3-2.1-8.5-6.4-9.3c-4.4-0.8-8.5,2.1-9.3,6.4l-5,27.1l-15.4-21.9
	c-1.5-2.1-3.9-3.4-6.5-3.4c0,0,0,0-0.1,0c-2.6,0-5.1,1.3-6.5,3.5l-14.6,21.4l-4.9-26.7c-0.8-4.3-5-7.2-9.3-6.4
	c-4.3,0.8-7.2,5-6.4,9.3l8.4,45.9C230.7,253.5,233.1,256,236.3,256.7z M378.3,256.7c3.1-0.7,5.6-3.2,6.2-6.4l8.4-45.9
	c0.8-4.3-2.1-8.5-6.4-9.3c-4.4-0.8-8.5,2.1-9.3,6.4l-5,27.1l-15.4-21.9c-1.5-2.1-3.9-3.4-6.5-3.4c0,0,0,0-0.1,0
	c-2.6,0-5.1,1.3-6.5,3.5l-14.6,21.4l-4.9-26.7c-0.8-4.3-5-7.2-9.3-6.4c-4.3,0.8-7.2,5-6.4,9.3l8.4,45.9c0.6,3.2,3,5.7,6.2,6.4
	c0.6,0.1,1.1,0.2,1.7,0.2c2.6,0,5.1-1.3,6.6-3.5l19.1-28l19.8,28.1C371.9,256.1,375.1,257.3,378.3,256.7z M342.6,119.7
	c0-3.2-2.6-5.8-5.8-5.8c-3.2,0-5.8,2.6-5.8,5.8c0,3.2,2.6,5.8,5.8,5.8C340,125.5,342.6,122.9,342.6,119.7z"></path>
<g>
	<path fill="#DB81DA" class="secondary-color" d="M499.1,416.4v81.8h-81.8L499.1,416.4z M87.1,457v35.2H143V457H87.1z"></path>
	<path fill="#FFA4ED" class="primary-color" d="M72.6,457v35.2H18.9V457H72.6z"></path>
</g>
<path fill="#000000" d="M24.7,56c0-4.4,3.6-8,8-8h15.8V32.2c0-4.4,3.6-8,8-8s8,3.6,8,8V48h15.8c4.4,0,8,3.6,8,8s-3.6,8-8,8H64.5
	v15.8c0,4.4-3.6,8-8,8s-8-3.6-8-8V64H32.7C28.3,64,24.7,60.4,24.7,56z M35.4,155.8c4.2-4.2,4.2-11,0-15.2c-4.2-4.2-11-4.2-15.2,0
	c-4.2,4.2-4.2,11,0,15.2C24.4,160,31.2,160,35.4,155.8z M64.5,337.5h-3.9v-3.9c0-4.4-3.6-8-8-8s-8,3.6-8,8v3.9h-3.9
	c-4.4,0-8,3.6-8,8s3.6,8,8,8h3.9v3.9c0,4.4,3.6,8,8,8s8-3.6,8-8v-3.9h3.9c4.4,0,8-3.6,8-8S68.9,337.5,64.5,337.5z M436.3,68.8h3.9
	v3.9c0,4.4,3.6,8,8,8s8-3.6,8-8v-3.9h3.9c4.4,0,8-3.6,8-8s-3.6-8-8-8h-3.9v-3.9c0-4.4-3.6-8-8-8s-8,3.6-8,8v3.9h-3.9
	c-4.4,0-8,3.6-8,8S431.9,68.8,436.3,68.8z M244.1,447.3c-4.2,4.2-4.2,11,0,15.2s11,4.2,15.2,0c4.2-4.2,4.2-11,0-15.2
	C255.1,443.1,248.3,443.1,244.1,447.3z M341.7,444.3c-3.1,3.1-3.1,8.2,0,11.3c4.1,4.1,4.1,10.6,0,14.7c-4.1,4.1-10.6,4.1-14.7,0
	c-3.1-3.1-8.2-3.1-11.3,0c-3.1,3.1-3.1,8.2,0,11.3c5.1,5.1,11.9,7.7,18.7,7.7s13.5-2.6,18.7-7.7c10.3-10.3,10.3-27,0-37.3
	C349.9,441.2,344.8,441.2,341.7,444.3z M495.9,258.7h-43c-4.4,0-8,3.6-8,8s3.6,8,8,8h43c4.4,0,8-3.6,8-8S500.3,258.7,495.9,258.7z
	 M474.4,288.7h-73.8c-4.4,0-8,3.6-8,8s3.6,8,8,8h73.8c4.4,0,8-3.6,8-8S478.8,288.7,474.4,288.7z M112.6,178h-43c-4.4,0-8,3.6-8,8
	s3.6,8,8,8h43c4.4,0,8-3.6,8-8S117,178,112.6,178z M101.1,208H27.3c-4.4,0-8,3.6-8,8s3.6,8,8,8h73.8c4.4,0,8-3.6,8-8
	S105.5,208,101.1,208z M358.7,113.8c-3.2,0-5.8,2.6-5.8,5.8c0,3.2,2.6,5.8,5.8,5.8s5.8-2.6,5.8-5.8
	C364.5,116.5,361.9,113.8,358.7,113.8z M394.5,119.7c0-3.2-2.6-5.8-5.8-5.8c-3.2,0-5.8,2.6-5.8,5.8c0,3.2,2.6,5.8,5.8,5.8
	C391.9,125.5,394.5,122.9,394.5,119.7z"></path>
</svg>