<svg version="1.1" id="Layer_1" xmlns="http://www.w3.org/2000/svg" xmlns:xlink="http://www.w3.org/1999/xlink" x="0px" y="0px" viewBox="0 0 512 512" enable-background="new 0 0 512 512" xml:space="preserve">
<linearGradient id="SVGID_1_" gradientUnits="userSpaceOnUse" x1="486.3184" y1="259.1813" x2="42.5802" y2="259.1813" class="gradient-element">
	<stop offset="0" class="primary-color-gradient" style="stop-color: #FFA4ED"></stop>
	<stop offset="1" class="secondary-color-gradient" style="stop-color: #DB81DA"></stop>
</linearGradient>
<path fill="url(#SVGID_1_)" d="M497,149v220.5H58.5c-11.6,0-21-9.4-21-21V170.4c0-11.8,9.6-21.4,21.4-21.4h345.9l-15.3,15.3
	l-35.7,35.7L237.5,316.3c-10.8,10.8-16,23.9-18.5,41.5c17.6-2.5,31.8-8.9,42.6-19.6L450.8,149H497z"></path>
<path d="M471.8,49.6c0,4.4-3.6,8-8,8H460v3.9c0,4.4-3.6,8-8,8s-8-3.6-8-8v-3.9h-3.9c-4.4,0-8-3.6-8-8s3.6-8,8-8h3.9v-3.9
	c0-4.4,3.6-8,8-8s8,3.6,8,8v3.9h3.9C468.3,41.6,471.8,45.2,471.8,49.6z M78.4,41.6h-3.9v-3.9c0-4.4-3.6-8-8-8s-8,3.6-8,8v3.9h-3.9
	c-4.4,0-8,3.6-8,8s3.6,8,8,8h3.9v3.9c0,4.4,3.6,8,8,8s8-3.6,8-8v-3.9h3.9c4.4,0,8-3.6,8-8S82.8,41.6,78.4,41.6z M156.4,16.2
	c-5.9,0-10.8,4.8-10.8,10.8s4.8,10.8,10.8,10.8s10.8-4.8,10.8-10.8S162.3,16.2,156.4,16.2z M376.9,45.5h-97.2c-4.4,0-8,3.6-8,8
	s3.6,8,8,8h97.2c4.4,0,8-3.6,8-8S381.3,45.5,376.9,45.5z"></path>
<path d="M476.2,234.5c0,4.4-3.6,8-8,8h-63.9c-4.4,0-8-3.6-8-8s3.6-8,8-8h63.9C472.7,226.5,476.2,230.1,476.2,234.5z M502.7,95.1
	c-4.4,0-8,3.6-8,8v258.3H386.1c-4.4,0-8,3.6-8,8s3.6,8,8,8h108.6V426H258.1c-4.4,0-8,3.6-8,8c0,0.5,0.1,1,0.1,1.5
	c-0.1,0.5-0.1,1-0.1,1.5v38.8H68c-4.4,0-8,3.6-8,8s3.6,8,8,8h376.5c4.4,0,8-3.6,8-8s-3.6-8-8-8H266.1V442h228.6c8.8,0,16-7.2,16-16
	V103.1C510.7,98.7,507.1,95.1,502.7,95.1z M48.4,391.2c5,0,9,4.1,9,9s-4.1,9-9,9s-9-4.1-9-9S43.4,391.2,48.4,391.2z M78.4,391.2
	c5,0,9,4.1,9,9s-4.1,9-9,9s-9-4.1-9-9S73.4,391.2,78.4,391.2z M108.4,391.2c5,0,9,4.1,9,9s-4.1,9-9,9s-9-4.1-9-9
	S103.4,391.2,108.4,391.2z M232.3,434c0-4.4-3.6-8-8-8H17.8V111.1h454.7c4.4,0,8-3.6,8-8s-3.6-8-8-8H17.8c-8.8,0-16,7.2-16,16V426
	c0,8.8,7.2,16,16,16h206.5C228.7,442,232.3,438.4,232.3,434z M468.2,279.9h-63.9c-4.4,0-8,3.6-8,8s3.6,8,8,8h63.9c4.4,0,8-3.6,8-8
	S472.7,279.9,468.2,279.9z M66,226.5c-4.4,0-8,3.6-8,8s3.6,8,8,8h61.8c4.4,0,8-3.6,8-8V189h229l16-16H66c-4.4,0-8,3.6-8,8s3.6,8,8,8
	h53.8v37.4H66z M66,295.9h175.2c4.4,0,8-3.6,8-8s-3.6-8-8-8H66c-4.4,0-8,3.6-8,8S61.6,295.9,66,295.9z M468.2,173H438l21-21
	c5.5-5.5,7-20.3-3.2-30.9c-4.4-4.5-11.5-7.4-18.4-7.4c-5.5-0.1-10.4,1.8-13.7,5.2l-39.7,39.7c-3.1,3.1-3.1,8.2,0,11.3
	c3.1,3.1,8.2,3.1,11.3,0l39.7-39.7c0.1-0.1,0.8-0.5,2.3-0.5c2.8,0,5.8,1.3,7,2.6c3.5,3.6,3.1,7.7,2.8,8.9L255.9,332.5
	c-7.1,7.1-15.9,12.1-26.8,15.1c2.8-10.8,7.2-18.8,14-25.6l116.4-116.4c3.1-3.1,3.1-8.2,0-11.3c-3.1-3.1-8.2-3.1-11.3,0L231.9,310.7
	c-6.5,6.5-11.4,13.9-14.9,22.7H66c-4.4,0-8,3.6-8,8s3.6,8,8,8h146.3c-0.5,2.4-0.9,4.8-1.2,7.3c-0.4,2.5,0.5,5,2.3,6.8
	c1.5,1.5,3.6,2.3,5.7,2.3c0.4,0,0.7,0,1.1-0.1c19.5-2.8,35.4-10.1,47.1-21.9L422,189h46.2c4.4,0,8-3.6,8-8S472.7,173,468.2,173z"></path>
</svg>