<svg version="1.1" id="Layer_1" xmlns="http://www.w3.org/2000/svg" xmlns:xlink="http://www.w3.org/1999/xlink" x="0px" y="0px" viewBox="0 0 512 512" enable-background="new 0 0 512 512" xml:space="preserve">
<g>
	<linearGradient id="SVGID_1_" gradientUnits="userSpaceOnUse" x1="202.1246" y1="403.3875" x2="202.1246" y2="275.127" class="gradient-element">
		<stop offset="0" class="primary-color-gradient" style="stop-color: #FFA4ED"></stop>
		<stop offset="1" class="secondary-color-gradient" style="stop-color: #DB81DA"></stop>
	</linearGradient>
	<path fill="url(#SVGID_1_)" d="M302.2,400.8c-14.3,4.4-29.5,6.7-45.2,6.7c-82.7,0-150.3-64.7-154.9-146.3c7.4-2.5,18.4-2,22,6.7
		c20.7,50,57.3,86.7,108.8,94.8c21.7,3.4,39.7,1.1,54.1-4.2C287.4,374.5,293,389.2,302.2,400.8z"></path>
	<linearGradient id="SVGID_2_" gradientUnits="userSpaceOnUse" x1="330.1552" y1="302.0543" x2="330.1552" y2="127.2043">
		<stop offset="0" class="primary-color-gradient" style="stop-color: #FFA4ED"></stop>
		<stop offset="1" class="secondary-color-gradient" style="stop-color: #DB81DA"></stop>
	</linearGradient>
	<path fill="url(#SVGID_2_)" d="M257.7,141.9c-16.6-8.7-6.8-35.3,11.9-35.3h0.6c11.4,0,22.6,1.1,33.5,3.3
		C366,130,411.1,188.4,411.1,257.4c0,17.6-2.9,34.5-8.3,50.3C390.4,297.3,374.4,291,357,291c-4.8,0-9.5,0.5-14,1.4
		C353.4,243.4,334,181.7,257.7,141.9z"></path>
</g>
<g>
	<path fill="#DB81DA" class="secondary-color" d="M498.3,395.7v102.6H396.8L498.3,395.7z M45.8,281.2V164.9H24.4v116.3H45.8z"></path>
	<path fill="#FFA4ED" class="primary-color" d="M462.4,199.3v-57.6h21.4v57.6H462.4z"></path>
</g>
<path d="M188.6,457.3c0,4.4-3.6,8-8,8c-11.4,0-20.7,9.3-20.7,20.8c0,4.4-3.6,8-8,8s-8-3.6-8-8c0-20.3,16.5-36.8,36.7-36.8
	C185,449.3,188.6,452.8,188.6,457.3z M101.8,449.3c-4.4,0-8,3.6-8,8s3.6,8,8,8c11.4,0,20.8,9.3,20.8,20.8c0,4.4,3.6,8,8,8s8-3.6,8-8
	C138.6,465.8,122.1,449.3,101.8,449.3z M130.6,399.3c-4.4,0-8,3.6-8,8c0,11.4-9.3,20.8-20.8,20.8c-4.4,0-8,3.6-8,8s3.6,8,8,8
	c20.3,0,36.8-16.5,36.8-36.8C138.6,402.8,135,399.3,130.6,399.3z M180.6,428c-11.4,0-20.7-9.3-20.7-20.8c0-4.4-3.6-8-8-8s-8,3.6-8,8
	c0,20.3,16.5,36.8,36.7,36.8c4.4,0,8-3.6,8-8S185,428,180.6,428z M98,341.3c0-4.4-3.6-8-8-8H76.9v-13.1c0-4.4-3.6-8-8-8s-8,3.6-8,8
	v13.1H47.9c-4.4,0-8,3.6-8,8s3.6,8,8,8h13.1v13.1c0,4.4,3.6,8,8,8s8-3.6,8-8v-13.1H90C94.4,349.3,98,345.7,98,341.3z M491.8,273.7
	h-59.2c-4.4,0-8,3.6-8,8s3.6,8,8,8h59.2c4.4,0,8-3.6,8-8S496.2,273.7,491.8,273.7z M56.7,95.1h59.2c4.4,0,8-3.6,8-8s-3.6-8-8-8H56.7
	c-4.4,0-8,3.6-8,8S52.3,95.1,56.7,95.1z M434.8,98.3V76.6h21.6c4.4,0,8-3.6,8-8s-3.6-8-8-8h-21.6V39c0-4.4-3.6-8-8-8s-8,3.6-8,8
	v21.6h-21.6c-4.4,0-8,3.6-8,8s3.6,8,8,8h21.6v21.6c0,4.4,3.6,8,8,8S434.8,102.7,434.8,98.3z M265.7,54.7c0,5.5-4.4,9.9-9.9,9.9
	s-9.9-4.4-9.9-9.9s4.4-9.9,9.9-9.9S265.7,49.2,265.7,54.7z M321,54.7c0,5.5-4.4,9.9-9.9,9.9c-5.5,0-9.9-4.4-9.9-9.9s4.4-9.9,9.9-9.9
	C316.6,44.8,321,49.2,321,54.7z M376.4,54.7c0,5.5-4.4,9.9-9.9,9.9c-5.5,0-9.9-4.4-9.9-9.9s4.4-9.9,9.9-9.9
	C372,44.8,376.4,49.2,376.4,54.7z"></path>
<path d="M205.3,212.5c4.3,0.8,7.2,5,6.4,9.3l-8.4,45.9c-0.6,3.2-3,5.7-6.2,6.4c-3.1,0.7-6.4-0.6-8.3-3.2l-19.8-28.1l-19.1,28
	c-1.5,2.2-4,3.5-6.6,3.5c-0.6,0-1.1-0.1-1.7-0.2c-3.2-0.7-5.6-3.2-6.2-6.4l-8.4-45.9c-0.8-4.3,2.1-8.5,6.4-9.3
	c4.3-0.8,8.5,2.1,9.3,6.4l4.9,26.7l14.6-21.4c1.5-2.2,3.9-3.5,6.5-3.5c0,0,0,0,0.1,0c2.6,0,5,1.3,6.5,3.4l15.4,21.9l5-27.1
	C196.8,214.6,200.9,211.7,205.3,212.5z M282.6,219l-5,27.1l-15.4-21.9c-1.5-2.1-3.9-3.4-6.5-3.4c0,0,0,0-0.1,0
	c-2.6,0-5.1,1.3-6.5,3.5l-14.6,21.4l-4.9-26.7c-0.8-4.3-5-7.2-9.3-6.4c-4.3,0.8-7.2,5-6.4,9.3l8.4,45.9c0.6,3.2,3,5.7,6.2,6.4
	c3.2,0.7,6.4-0.6,8.3-3.3l19.1-28l19.8,28.1c1.5,2.2,4,3.4,6.5,3.4c0.6,0,1.1-0.1,1.7-0.2c3.1-0.7,5.6-3.2,6.2-6.4l8.4-45.9
	c0.8-4.3-2.1-8.5-6.4-9.3C287.5,211.7,283.4,214.6,282.6,219z M369.2,219l-5,27.1l-15.4-21.9c-1.5-2.1-3.9-3.4-6.5-3.4
	c0,0,0,0-0.1,0c-2.6,0-5.1,1.3-6.5,3.5L321,245.7l-4.9-26.7c-0.8-4.3-5-7.2-9.3-6.4c-4.3,0.8-7.2,5-6.4,9.3l8.4,45.9
	c0.6,3.2,3,5.7,6.2,6.4c3.2,0.7,6.4-0.6,8.3-3.3l19.1-28l19.8,28.1c1.5,2.2,4,3.4,6.5,3.4c0.6,0,1.1-0.1,1.7-0.2
	c3.1-0.7,5.6-3.2,6.2-6.4l8.4-45.9c0.8-4.3-2.1-8.5-6.4-9.3C374.1,211.7,370,214.6,369.2,219z M462.3,448.5l-40.8-40.8
	c9.6-13.4,14.9-29.4,14.9-45.9c0-43.4-35.3-78.8-78.8-78.8s-78.8,35.3-78.8,78.8c0,11.1,2.3,21.7,6.5,31.3
	c-9.8,2.4-17.4,2.9-28.8,2.9c-77.1,0-139.9-62.8-139.9-139.9c0-77.1,62.8-139.9,139.9-139.9c77.2,0,139.9,62.8,139.9,139.9
	c0,4.6-0.2,9.3-0.7,13.9c-0.4,4.4,2.8,8.3,7.2,8.7c4.4,0.4,8.3-2.8,8.7-7.2c0.5-5.1,0.8-10.3,0.8-15.5c0-86-69.9-155.9-155.9-155.9
	c-86,0-155.9,69.9-155.9,155.9c0,86,69.9,155.9,155.9,155.9c14.1,0,23.6-0.7,37-4.5c14.3,20,37.7,33.1,64.1,33.1
	c13.7,0,27.3-3.7,39.3-10.7c3.8-2.2,5.1-7.1,2.9-10.9c-2.2-3.8-7.1-5.1-10.9-2.9c-9.5,5.5-20.3,8.5-31.2,8.5
	c-34.6,0-62.8-28.2-62.8-62.8s28.2-62.8,62.8-62.8s62.8,28.2,62.8,62.8c0,15.1-5.5,29.8-15.6,41.3c-2.8,3.2-2.6,7.9,0.4,10.9
	l40.2,40.2l-3.1,3.1c-3.1,3.1-3.1,8.2,0,11.3c1.6,1.6,3.6,2.3,5.7,2.3s4.1-0.8,5.7-2.3l8.8-8.8C465.4,456.7,465.4,451.7,462.3,448.5
	z M356.9,398.3c-4.4,0-8,3.6-8,8s3.6,8,8,8c13.6,0,26.3-5.3,36-14.8c9.8-9.7,15.1-22.6,15.1-36.3c0-28.2-22.9-51.1-51.1-51.1
	c-20.9,0-51.1,18.2-51.1,51.1c0,4.4,3.6,8,8,8s8-3.6,8-8c0-23.4,22.5-35.1,35.1-35.1c19.3,0,35.1,15.7,35.1,35.1
	c0,9.4-3.7,18.3-10.4,24.9C375,394.7,366.2,398.3,356.9,398.3z"></path>
</svg>