<svg version="1.1" id="Layer_1" xmlns="http://www.w3.org/2000/svg" xmlns:xlink="http://www.w3.org/1999/xlink" x="0px" y="0px" viewBox="0 0 512 512" enable-background="new 0 0 512 512" xml:space="preserve">
<linearGradient id="SVGID_1_" gradientUnits="userSpaceOnUse" x1="253.5051" y1="357.2647" x2="253.5051" y2="152.9418" class="gradient-element">
	<stop offset="0" class="primary-color-gradient" style="stop-color: #FFA4ED"></stop>
	<stop offset="1" class="secondary-color-gradient" style="stop-color: #DB81DA"></stop>
</linearGradient>
<path fill="url(#SVGID_1_)" d="M459.1,168.3V344c0,9.6-7.8,17.5-17.5,17.5h-376c-9.6,0-17.7-7.7-17.7-17.3
	c-0.1-9.8,7.8-9.8,17.5-9.8h271.7c16.5,0,17.5-15.6,17.5-25.2V190.9c0-22.1,17.9-40,40-40h47.1C451.3,150.9,459.1,158.7,459.1,168.3
	z"></path>
<path d="M57.9,409.3c-5,0-9-4.1-9-9s4.1-9,9-9s9,4.1,9,9S62.9,409.3,57.9,409.3z M87.9,409.3c-5,0-9-4.1-9-9s4.1-9,9-9s9,4.1,9,9
	S92.9,409.3,87.9,409.3z M117.9,409.3c-5,0-9-4.1-9-9s4.1-9,9-9s9,4.1,9,9S122.9,409.3,117.9,409.3z M500.6,111v314.9
	c0,8.8-7.2,16-16,16H266v33.9h178.4c4.4,0,8,3.6,8,8s-3.6,8-8,8H67.9c-4.4,0-8-3.6-8-8s3.6-8,8-8H250V437c0-0.5,0.1-1,0.1-1.5
	c-0.1-0.5-0.1-1-0.1-1.5c0-4.4,3.6-8,8-8h226.6V111H238.3H26.7v314.9h197.5c4.4,0,8,3.6,8,8s-3.6,8-8,8H26.7c-8.8,0-16-7.2-16-16
	V111c0-8.8,7.2-16,16-16h211.6h246.3C493.4,95,500.6,102.2,500.6,111z M467.1,369.4H39.9V143.2h427.2V369.4z M451.1,159.2H55.9
	v194.2h395.2V159.2z M409.4,192.4h23.2c4.4,0,8-3.6,8-8s-3.6-8-8-8h-23.2c-4.4,0-8,3.6-8,8S405,192.4,409.4,192.4z M363,192.4h23.2
	c4.4,0,8-3.6,8-8s-3.6-8-8-8H363c-4.4,0-8,3.6-8,8S358.6,192.4,363,192.4z M316.6,192.4h23.2c4.4,0,8-3.6,8-8s-3.6-8-8-8h-23.2
	c-4.4,0-8,3.6-8,8S312.1,192.4,316.6,192.4z M186.2,299.2H63.1v-85.6h123.1V299.2z M170.2,229.5H79.1v53.6h91.1V229.5z M220.5,267.4
	h106.1c4.4,0,8-3.6,8-8s-3.6-8-8-8H220.5c-4.4,0-8,3.6-8,8S216.1,267.4,220.5,267.4z M220.5,297.8h106.1c4.4,0,8-3.6,8-8s-3.6-8-8-8
	H220.5c-4.4,0-8,3.6-8,8S216.1,297.8,220.5,297.8z"></path>
<path d="M474.8,66.6c0,4.4-3.6,8-8,8H301.2c-4.4,0-8-3.6-8-8s3.6-8,8-8h165.6C471.2,58.6,474.8,62.2,474.8,66.6z M487.2,21.3H371.5
	c-4.4,0-8,3.6-8,8s3.6,8,8,8h115.7c4.4,0,8-3.6,8-8S491.6,21.3,487.2,21.3z M109.9,58.4H52.5c-4.4,0-8,3.6-8,8s3.6,8,8,8h57.4
	c4.4,0,8-3.6,8-8S114.4,58.4,109.9,58.4z"></path>
<g>
	<path fill="#FFA4ED" class="primary-color" d="M204.4,37.9V16.1H248v21.8H204.4z"></path>
	<path fill="#DB81DA" class="secondary-color" d="M15.2,37.9V16.1h172.3v21.8H15.2z"></path>
</g>
</svg>