<svg version="1.1" id="Layer_1" xmlns="http://www.w3.org/2000/svg" xmlns:xlink="http://www.w3.org/1999/xlink" x="0px" y="0px" viewBox="0 0 512 512" enable-background="new 0 0 512 512" xml:space="preserve">
<linearGradient id="SVGID_1_" gradientUnits="userSpaceOnUse" x1="258.118" y1="468.0095" x2="258.118" y2="226.7596" class="gradient-element">
	<stop offset="0" class="primary-color-gradient" style="stop-color: #FFA4ED"></stop>
	<stop offset="1" class="secondary-color-gradient" style="stop-color: #DB81DA"></stop>
</linearGradient>
<path fill="url(#SVGID_1_)" d="M395.1,477.4H121.2c-10.9,0-19.1-10.2-16.6-20.9l0,0l49.6-216.1c1.8-7.7,8.7-13.2,16.6-13.2h174.4
	c7.9,0,14.8,5.5,16.6,13.2l49.9,216.1C414.1,467.2,406,477.4,395.1,477.4z"></path>
<path d="M416.5,485.4H56.6c-2.4,0-4.7-1.1-6.3-3c-1.5-1.9-2.1-4.4-1.5-6.8l67.3-291.9c0.8-3.6,4.1-6.2,7.8-6.2h81.3c4.4,0,8,3.6,8,8
	s-3.6,8-8,8h-75L66.7,469.4h339.8l-13.3-57.6c-1-4.3,1.7-8.6,6-9.6c4.3-1,8.6,1.7,9.6,6l15.5,67.4c0.5,2.4,0,4.9-1.5,6.8
	S418.9,485.4,416.5,485.4z M278.2,422.8c-18.7,0-32.1-13.8-34.6-16.5c-3-3.3-2.7-8.3,0.6-11.3c3.3-3,8.3-2.7,11.3,0.6
	c0.4,0.5,10.3,11.2,22.7,11.2c12.8,0,23.3-10.4,23.3-23.3v-75.5c0-4.4,3.6-8,8-8s8,3.6,8,8v75.5
	C317.5,405.2,299.9,422.8,278.2,422.8z M278.2,402c-4.4,0-8-3.6-8-8s3.6-8,8-8c1.3,0,2.4-1.1,2.4-2.4v-2.4c-9,0-17.3-2.9-24.1-8.3
	c0.1,1.7-0.4,3.4-1.4,4.8c-1.5,2.2-4,3.5-6.6,3.5h-22.4c-2.9,0-5.5-1.5-6.9-4l-18-31.3c-2.2-3.8-0.9-8.7,3-10.9
	c3.8-2.2,8.7-0.9,10.9,3l15.7,27.3h6L220.3,324c-0.8-1.9-0.8-4,0-5.9l16.5-41.2h-5.2l-16,40.4c-1.6,4.1-6.3,6.1-10.4,4.5
	c-4.1-1.6-6.1-6.3-4.5-10.4l18-45.4c1.2-3.1,4.2-5.1,7.4-5.1h22.5c2.7,0,5.1,1.3,6.6,3.5s1.8,5,0.8,7.5L236.3,321l2.7,6.8
	c0.6-12.4,4.4-23.2,11.2-31.5c7.6-9.4,18.5-14.6,30.6-14.6c4.4,0,8,3.6,8,8s-3.6,8-8,8c-15.5,0-25.9,13.5-25.9,33.7
	s10.4,33.7,25.9,33.7c2,0,4-0.2,5.9-0.7c2.4-0.6,4.9-0.1,6.9,1.5c1.9,1.5,3.1,3.8,3.1,6.3v11.4C296.7,393.7,288.4,402,278.2,402z
	 M205.3,381.1h-20.9c-4.4,0-8-3.6-8-8V268.9c0-4.4,3.6-8,8-8h20.9c4.4,0,8,3.6,8,8s-3.6,8-8,8h-12.9v88.3h12.9c4.4,0,8,3.6,8,8
	S209.7,381.1,205.3,381.1z M391,375c-3.6,0-6.9-2.5-7.8-6.2l-40.4-175.3H247c-4.4,0-8-3.6-8-8v-22.6c0-3.4,2.1-6.4,5.3-7.5
	c9.3-3.3,15.5-12.1,15.5-22c0-12.8-10.4-23.3-23.3-23.3c-12.8,0-23.3,10.4-23.3,23.3c0,9.9,6.2,18.7,15.5,22
	c3.2,1.1,5.3,4.2,5.3,7.5v22.6c0,4.4-3.6,8-8,8s-8-3.6-8-8v-17.4c-12.7-6.7-20.9-20-20.9-34.7c0-21.7,17.6-39.3,39.3-39.3
	c21.7,0,39.3,17.6,39.3,39.3c0,14.7-8.2,28-20.9,34.7v9.4h94.2c3.7,0,7,2.6,7.8,6.2l41.9,181.5c1,4.3-1.7,8.6-6,9.6
	C392.2,374.9,391.6,375,391,375z M280.9,360.3c-14.5,0-21-14.5-21-28.9c0-4.4,3.6-8,8-8s8,3.6,8,8c0,5.2,1.7,12.6,4.9,12.8v-30
	c0-4.4,3.6-8,8-8s8,3.6,8,8v34.5c0,1.9-0.7,3.8-2,5.3C291.1,358.2,286.4,360.3,280.9,360.3z"></path>
<path fill="#FFA4ED" class="primary-color" d="M485.5,173.1h-76v-28.7h76V173.1z"></path>
<path d="M258.4,74.6c0,4.4-3.6,8-8,8h-51.5c-4.4,0-8-3.6-8-8s3.6-8,8-8h51.5C254.9,66.6,258.4,70.2,258.4,74.6z M436.4,244.5
	c-3.1-3.1-8.2-3.1-11.3,0c-3.1,3.1-3.1,8.2,0,11.3c6.2,6.2,14.4,9.4,22.6,9.4c8.2,0,16.4-3.1,22.6-9.4c12.5-12.5,12.5-32.8,0-45.3
	c-3.1-3.1-8.2-3.1-11.3,0c-3.1,3.1-3.1,8.2,0,11.3c6.2,6.2,6.2,16.4,0,22.6C452.8,250.8,442.7,250.8,436.4,244.5z M67.9,244.9H64
	V241c0-4.4-3.6-8-8-8s-8,3.6-8,8v3.9h-3.9c-4.4,0-8,3.6-8,8s3.6,8,8,8H48v3.9c0,4.4,3.6,8,8,8s8-3.6,8-8v-3.9h3.9c4.4,0,8-3.6,8-8
	S72.3,244.9,67.9,244.9z M423.1,71.5h15.8v15.8c0,4.4,3.6,8,8,8s8-3.6,8-8V71.5h15.8c4.4,0,8-3.6,8-8s-3.6-8-8-8h-15.8V39.7
	c0-4.4-3.6-8-8-8s-8,3.6-8,8v15.8h-15.8c-4.4,0-8,3.6-8,8S418.7,71.5,423.1,71.5z M85.4,66.6c-4.4,0-8,3.6-8,8
	c0,11.4-9.3,20.8-20.8,20.8c-4.4,0-8,3.6-8,8s3.6,8,8,8c20.3,0,36.8-16.5,36.8-36.8C93.4,70.2,89.8,66.6,85.4,66.6z M135.4,95.4
	c-11.4,0-20.7-9.3-20.7-20.8c0-4.4-3.6-8-8-8s-8,3.6-8,8c0,20.3,16.5,36.8,36.7,36.8c4.4,0,8-3.6,8-8S139.8,95.4,135.4,95.4z
	 M135.4,116.6c-20.3,0-36.7,16.5-36.7,36.8c0,4.4,3.6,8,8,8s8-3.6,8-8c0-11.4,9.3-20.8,20.7-20.8c4.4,0,8-3.6,8-8
	S139.8,116.6,135.4,116.6z M56.6,116.6c-4.4,0-8,3.6-8,8s3.6,8,8,8c11.4,0,20.8,9.3,20.8,20.8c0,4.4,3.6,8,8,8s8-3.6,8-8
	C93.4,133.1,76.9,116.6,56.6,116.6z M470.2,362.7H362.8c-4.4,0-8,3.6-8,8s3.6,8,8,8h107.4c4.4,0,8-3.6,8-8S474.6,362.7,470.2,362.7z
	 M438.7,402h-51.5c-4.4,0-8,3.6-8,8s3.6,8,8,8h51.5c4.4,0,8-3.6,8-8S443.2,402,438.7,402z"></path>
</svg>