<svg version="1.1" id="Layer_1" xmlns="http://www.w3.org/2000/svg" xmlns:xlink="http://www.w3.org/1999/xlink" x="0px" y="0px" viewBox="0 0 512 512" enable-background="new 0 0 512 512" xml:space="preserve">
<linearGradient id="SVGID_1_" gradientUnits="userSpaceOnUse" x1="270.7211" y1="442.3029" x2="270.7211" y2="114.9132" class="gradient-element">
	<stop offset="0" class="primary-color-gradient" style="stop-color: #FFA4ED"></stop>
	<stop offset="1" class="secondary-color-gradient" style="stop-color: #DB81DA"></stop>
</linearGradient>
<path fill="url(#SVGID_1_)" d="M461.5,261.9c0,105.4-85.5,190.9-190.9,190.9c-47.1,0-72.7-3.8-106-32.1c-6.6-5.6-65,25.9-70.8,19.4
	c-3.2-3.5,19.3-72.7,16.4-76.5c-22.8-29.6-28.1-51.2-30.3-90.9c9.1-3.1,22.6-2.5,27.1,8.2c25.5,61.5,70.5,106.8,134,116.8
	c54,8.5,89.8-12.1,107.2-32.1c2.4-2.7,4.6-5.6,6.8-8.6c14.9-6.4,29.2-18.1,36.4-32.3c7.9-15.5,0-28-11.1-37
	c5.2-57-22.4-123.7-107.6-168.2c-20.4-10.7-8.3-43.4,14.7-43.5h0.8c14.1,0,27.9,1.4,41.2,4C406,105,461.5,177,461.5,261.9z"></path>
<path d="M331.9,370c-37,0-81.3-24.3-112.6-49.2C184,293,145.5,249,143.5,209.1c0-0.2,0-0.3,0-0.5c0.2-22.6,11.1-46.9,26.9-60.4
	c8.4-7.2,18.3-9.9,28.5-7.8c22.5,4.5,40.6,30.9,44.6,38.2c11,16.8-0.6,30.8-9.1,41.1c-1.1,1.4-2.2,2.7-3.3,4.1
	c-3.3,4.2-13.3,16.8,26.7,48.4c40,31.6,50,18.9,53.3,14.7c1.1-1.3,2.1-2.7,3.2-4.1c8-10.7,19-25.2,37.9-18.3
	c8,2.1,37.9,13.7,47.4,34.5c4.4,9.5,4,19.7-1,29.5c-9.4,18.5-30.5,34.6-52.5,40.1c-0.2,0-0.3,0.1-0.5,0.1
	C341.2,369.6,336.6,370,331.9,370z M344.1,360.9L344.1,360.9L344.1,360.9z M159.5,208.6c1.5,28.4,28.9,67.5,69.8,99.6
	c40.7,32.4,85.1,49.9,113.1,44.8c17.4-4.4,34.6-17.5,41.9-31.8c2.8-5.6,3-10.5,0.7-15.6c-6.6-14.3-30.9-24.2-37.2-25.8
	c-0.3-0.1-0.6-0.2-0.9-0.3c-6.8-2.6-10.8,0.8-19.9,12.9c-1.1,1.5-2.2,3-3.4,4.4c-6.1,7.7-17.3,15.7-36.4,10.4
	c-11.3-3.1-24.2-10.5-39.4-22.5c-15.2-12-25.4-22.9-31-33.1c-9.5-17.4-4.3-30.1,1.7-37.8c1.1-1.5,2.3-2.9,3.5-4.3
	c9.6-11.7,12-16.3,7.9-22.3c-0.2-0.3-0.4-0.6-0.5-0.9c-2.9-5.8-18.2-27.1-33.7-30.2c-5.5-1.1-10.2,0.3-15,4.3
	C168.5,170.9,159.8,190.7,159.5,208.6z M409.3,400.6c37.4-37.4,58-87.1,58-139.9c0-27.6-5.6-54.3-16.5-79.3c-1.8-4-6.5-5.9-10.5-4.1
	c-4,1.8-5.9,6.5-4.1,10.5c10.1,23,15.2,47.6,15.2,72.9c0,100.3-81.6,181.9-181.9,181.9c-36.7,0-72.1-10.8-102.2-31.4
	c-2.1-1.5-4.9-1.8-7.3-0.9l-56.5,21.1l14.2-66.1c0.4-2.1,0-4.2-1.1-6c-19-29.4-29-63.5-29-98.6c0-100.3,81.6-181.9,181.9-181.9
	c56.1,0,108.2,25.3,142.9,69.4c2.7,3.5,7.8,4.1,11.2,1.3c3.5-2.7,4.1-7.8,1.3-11.2c-37.8-48-94.5-75.5-155.5-75.5
	c-52.9,0-102.6,20.6-139.9,58c-37.4,37.4-58,87.1-58,139.9c0,37.1,10.3,73.1,29.8,104.5l-16.5,77.2c-0.6,2.9,0.4,5.8,2.6,7.7
	c2.2,1.9,5.3,2.5,8,1.4l66.3-24.8c32,20.8,69.2,31.8,107.7,31.8C322.3,458.6,372,438,409.3,400.6z"></path>
<path d="M479.6,146.6c0,4.4-3.6,8-8,8h-67.8c-4.4,0-8-3.6-8-8s3.6-8,8-8h67.8C476.1,138.6,479.6,142.2,479.6,146.6z M459.3,188.2
	c4.4,0,8-3.6,8-8s-3.6-8-8-8H351.5c-4.4,0-8,3.6-8,8s3.6,8,8,8H459.3z M74,120.4h-3.9v-3.9c0-4.4-3.6-8-8-8s-8,3.6-8,8v3.9h-3.9
	c-4.4,0-8,3.6-8,8s3.6,8,8,8h3.9v3.9c0,4.4,3.6,8,8,8s8-3.6,8-8v-3.9H74c4.4,0,8-3.6,8-8S78.4,120.4,74,120.4z M367,468.3
	c0,5.5-4.4,9.9-9.9,9.9c-5.5,0-9.9-4.4-9.9-9.9s4.4-9.9,9.9-9.9C362.6,458.4,367,462.8,367,468.3z M363.2,468.3
	c0-3.4-2.7-6.1-6.1-6.1c-3.4,0-6.1,2.7-6.1,6.1s2.7,6.1,6.1,6.1C360.5,474.4,363.2,471.7,363.2,468.3z M422.4,468.3
	c0,5.5-4.4,9.9-9.9,9.9s-9.9-4.4-9.9-9.9s4.4-9.9,9.9-9.9S422.4,462.8,422.4,468.3z M418.5,468.3c0-3.4-2.7-6.1-6.1-6.1
	s-6.1,2.7-6.1,6.1s2.7,6.1,6.1,6.1S418.5,471.7,418.5,468.3z M477.7,468.3c0,5.5-4.4,9.9-9.9,9.9s-9.9-4.4-9.9-9.9s4.4-9.9,9.9-9.9
	S477.7,462.8,477.7,468.3z M473.9,468.3c0-3.4-2.7-6.1-6.1-6.1s-6.1,2.7-6.1,6.1s2.7,6.1,6.1,6.1S473.9,471.7,473.9,468.3z
	 M482,73.4c-20.3,0-36.8,16.5-36.8,36.8c0,4.4,3.6,8,8,8s8-3.6,8-8c0-11.4,9.3-20.8,20.8-20.8c4.4,0,8-3.6,8-8S486.4,73.4,482,73.4z
	 M403.3,89.4c11.4,0,20.8,9.3,20.8,20.8c0,4.4,3.6,8,8,8s8-3.6,8-8c0-20.3-16.5-36.8-36.8-36.8c-4.4,0-8,3.6-8,8
	S398.9,89.4,403.3,89.4z M403.3,68.1c20.3,0,36.8-16.5,36.8-36.8c0-4.4-3.6-8-8-8s-8,3.6-8,8c0,11.4-9.3,20.7-20.8,20.7
	c-4.4,0-8,3.6-8,8S398.9,68.1,403.3,68.1z M482,68.1c4.4,0,8-3.6,8-8s-3.6-8-8-8c-11.4,0-20.8-9.3-20.8-20.8c0-4.4-3.6-8-8-8
	s-8,3.6-8,8C445.3,51.7,461.8,68.1,482,68.1z"></path>
<g>
	<path fill="#FFA4ED" class="primary-color" d="M99.6,24.4l-79,79v-79H99.6z"></path>
	<path fill="#DB81DA" class="secondary-color" d="M101.6,467.2h116.3v21.4H101.6V467.2z"></path>
	<path fill="#FFA4ED" class="primary-color" d="M22.5,467.2h57.6v21.4H22.5V467.2z"></path>
</g>
</svg>