<svg version="1.1" id="Layer_1" xmlns="http://www.w3.org/2000/svg" xmlns:xlink="http://www.w3.org/1999/xlink" x="0px" y="0px" viewBox="0 0 512 512" enable-background="new 0 0 512 512" xml:space="preserve">
<linearGradient id="SVGID_1_" gradientUnits="userSpaceOnUse" x1="189.894" y1="483.0543" x2="188.7572" y2="237.4964" class="gradient-element">
	<stop offset="0" class="primary-color-gradient" style="stop-color: #FFA4ED"></stop>
	<stop offset="1" class="secondary-color-gradient" style="stop-color: #DB81DA"></stop>
</linearGradient>
<path fill="url(#SVGID_1_)" d="M189.3,472.2c-66.9,0-121.1-54.2-121.1-121.1s54.2-121.1,121.1-121.1c66.9,0,121.1,54.2,121.1,121.1
	S256.2,472.2,189.3,472.2z"></path>
<path d="M189.3,480.2c-71.2,0-129.1-57.9-129.1-129.1c0-51.2,30.4-97.6,77.5-118.3c4-1.8,8.8,0.1,10.5,4.1s-0.1,8.8-4.1,10.5
	c-41.2,18.1-67.9,58.7-67.9,103.6c0,62.4,50.7,113.1,113.1,113.1c58.4,0,106.7-43.8,112.5-101.8c0.4-4.1,3.9-7.2,8-7.2h49.1
	c4.4,0,8,3.6,8,8v76.8h64.7c4.4,0,8,3.6,8,8s-3.6,8-8,8h-72.7c-4.4,0-8-3.6-8-8v-76.8h-34c-4.5,28.9-18.8,55.4-40.7,75.3
	C252.3,468.2,221.5,480.2,189.3,480.2z M189.3,455.9c-4.4,0-8-3.6-8-8s3.6-8,8-8c49,0,88.9-39.9,88.9-88.9c0-3.3-0.2-6.9-0.8-11.1
	c-0.6-4.4,2.6-8.4,6.9-8.9c4.4-0.6,8.4,2.6,8.9,6.9c0.6,4.9,0.9,9.1,0.9,13.1C294.2,408.9,247.1,455.9,189.3,455.9z M383.1,431.7
	c-4.4,0-8-3.6-8-8V217.8c0-4.4,3.6-8,8-8h24.2c4.4,0,8,3.6,8,8s-3.6,8-8,8h-16.2v197.9C391.1,428.1,387.5,431.7,383.1,431.7z
	 M304.8,322.7c-3.4,0-6.6-2.2-7.6-5.6c-14.9-47.4-58.3-79.2-107.9-79.2c-7.6,0-15.2,0.8-22.6,2.3c-2.4,0.5-4.8-0.1-6.7-1.6
	s-2.9-3.8-2.9-6.2v-14.6c0-4.4,3.6-8,8-8s8,3.6,8,8v5.1c5.4-0.7,10.8-1,16.2-1c28,0,54.6,8.8,77,25.6c21.7,16.2,38,39.2,46.1,64.8
	c1.3,4.2-1,8.7-5.2,10C306.4,322.6,305.6,322.7,304.8,322.7z M407.3,201.6H165.1c-4.4,0-8-3.6-8-8v-84.8c0-22.3-18.1-40.4-40.4-40.4
	H92.4c-4.4,0-8-3.6-8-8s3.6-8,8-8h24.2c31.1,0,56.4,25.3,56.4,56.4v76.8h234.2c4.4,0,8,3.6,8,8S411.7,201.6,407.3,201.6z"></path>
<path d="M57.6,85.6c0-4.4,3.6-8,8-8h43c4.4,0,8,3.6,8,8s-3.6,8-8,8h-43C61.1,93.6,57.6,90,57.6,85.6z M118.9,123.7c4.4,0,8-3.6,8-8
	s-3.6-8-8-8H45.1c-4.4,0-8,3.6-8,8s3.6,8,8,8H118.9z M155,360.4h-43c-4.4,0-8,3.6-8,8s3.6,8,8,8h43c4.4,0,8-3.6,8-8
	S159.4,360.4,155,360.4z M133.5,390.4H59.7c-4.4,0-8,3.6-8,8s3.6,8,8,8h73.8c4.4,0,8-3.6,8-8S137.9,390.4,133.5,390.4z M442.6,23.6
	c-4.4,0-8,3.6-8,8c0,11.4-9.3,20.8-20.8,20.8c-4.4,0-8,3.6-8,8s3.6,8,8,8c20.3,0,36.8-16.5,36.8-36.8
	C450.6,27.2,447,23.6,442.6,23.6z M492.6,68.4c4.4,0,8-3.6,8-8s-3.6-8-8-8c-11.4,0-20.8-9.3-20.8-20.8c0-4.4-3.6-8-8-8s-8,3.6-8,8
	C455.8,51.9,472.3,68.4,492.6,68.4z M492.6,73.6c-20.3,0-36.8,16.5-36.8,36.8c0,4.4,3.6,8,8,8s8-3.6,8-8c0-11.4,9.3-20.8,20.8-20.8
	c4.4,0,8-3.6,8-8S497,73.6,492.6,73.6z M413.8,73.6c-4.4,0-8,3.6-8,8s3.6,8,8,8c11.4,0,20.8,9.3,20.8,20.8c0,4.4,3.6,8,8,8
	s8-3.6,8-8C450.6,90.1,434.1,73.6,413.8,73.6z M479.1,227.6c-5.9,0-10.8,4.8-10.8,10.8s4.8,10.8,10.8,10.8c5.9,0,10.8-4.8,10.8-10.8
	S485,227.6,479.1,227.6z M54.3,207.8c0,4.4,3.6,8,8,8s8-3.6,8-8v-3.9h3.9c4.4,0,8-3.6,8-8s-3.6-8-8-8h-3.9V184c0-4.4-3.6-8-8-8
	s-8,3.6-8,8v3.9h-3.9c-4.4,0-8,3.6-8,8s3.6,8,8,8h3.9V207.8z M375.9,143.5H271.1c-4.4,0-8,3.6-8,8s3.6,8,8,8h104.7c4.4,0,8-3.6,8-8
	S380.3,143.5,375.9,143.5z"></path>
</svg>