<svg version="1.1" id="Layer_1" xmlns="http://www.w3.org/2000/svg" xmlns:xlink="http://www.w3.org/1999/xlink" x="0px" y="0px" viewBox="0 0 512 512" enable-background="new 0 0 512 512" xml:space="preserve">
<linearGradient id="SVGID_1_" gradientUnits="userSpaceOnUse" x1="227.2897" y1="278.1074" x2="480.7407" y2="278.1074" class="gradient-element">
	<stop offset="0" class="primary-color-gradient" style="stop-color: #FFA4ED"></stop>
	<stop offset="1" class="secondary-color-gradient" style="stop-color: #DB81DA"></stop>
</linearGradient>
<path fill="url(#SVGID_1_)" d="M227.3,384.6c19.7-7.3,33.9-20.5,39.7-39.5c7.3-23.8,28.9-40.4,53.8-40.4h17.5
	c15.7,0,28.5-12.8,28.5-28.5v-49.7c0-30.3,24.5-54.8,54.8-54.8h0c32.6,0,59.1,26.5,59.1,59.1v94.6c0,32.6-26.5,59.1-59.1,59.1H397
	L227.3,384.6z"></path>
<path d="M256.1,439.7c-42.5,0-83.8-17.2-114-47.3H90.7c-37,0-67.1-30.1-67.1-67.1v-94.6c0-37,30.1-67.1,67.1-67.1h51.5
	c30.2-30.1,71.6-47.3,114-47.3c42.5,0,83.8,17.2,114,47.3h51.5c37,0,67.1,30.1,67.1,67.1v94.6c0,37-30.1,67.1-67.1,67.1H397
	c-4.4,0-8-3.6-8-8s3.6-8,8-8h24.7c28.2,0,51.1-22.9,51.1-51.1v-94.6c0-28.2-22.9-51.1-51.1-51.1h-94.6c-28.2,0-51.1,22.9-51.1,51.1
	v94.6c0,19.4-8.2,38-21.3,51.1h112.2c1,0,2,0.2,2.9,0.5c1,0.4,1.9,0.9,2.6,1.7c0.8,0.8,1.4,1.7,1.8,2.6c0.4,0.9,0.6,1.9,0.6,3
	c0,0.1,0,0.2,0,0.4c0,0,0,0,0,0c0,0,0,0,0,0c0,1-0.2,1.9-0.6,2.7c-0.3,0.8-0.8,1.7-1.5,2.4c-0.1,0.1-0.1,0.1-0.2,0.2
	C342.2,421.6,299.7,439.7,256.1,439.7z M90.7,179.7c-28.2,0-51.1,22.9-51.1,51.1v94.6c0,28.2,22.9,51.1,51.1,51.1h54.8
	c2.2,0,4.3,0.9,5.8,2.5c27.4,28.5,65.6,44.8,104.9,44.8c32.5,0,64.4-11.2,89.9-31.3H227.3c-3.9,0-7.3-2.8-7.9-6.7s1.6-7.6,5.4-8.9
	c20.1-6.7,35.2-28.8,35.2-51.5v-94.6c0-37,30.1-67.1,67.1-67.1h19c-25.5-20.1-57.4-31.3-89.9-31.3c-39.3,0-77.5,16.3-104.9,44.8
	c-1.5,1.6-3.6,2.5-5.8,2.5H90.7z M167.8,345.2c-0.5,0-1-0.1-1.6-0.2c-4.3-0.9-7.1-5.1-6.3-9.4l21.7-108.6h-7.8l-10.3,51.5
	c-0.7,3.7-4,6.4-7.8,6.4s-7.1-2.7-7.8-6.4l-10.3-51.5h-17.5c-4.4,0-8-3.6-8-8c0-4.4,3.6-8,8-8h24.1c3.8,0,7.1,2.7,7.8,6.4l3.7,18.7
	l3.7-18.7c0.7-3.7,4-6.4,7.8-6.4h24.1c2.4,0,4.7,1.1,6.2,2.9s2.1,4.3,1.7,6.6l-23.6,118.2C174.9,342.5,171.6,345.2,167.8,345.2z
	 M120.6,345.2c-0.5,0-1-0.1-1.6-0.2c-4.3-0.9-7.1-5.1-6.3-9.4l11.6-57.9c0.9-4.3,5.1-7.1,9.4-6.3c4.3,0.9,7.1,5.1,6.3,9.4
	l-11.6,57.9C127.6,342.5,124.3,345.2,120.6,345.2z M433.5,345.2c-4.4,0-8-3.6-8-8v-62.9h-15.6c-4.4,0-8-3.6-8-8s3.6-8,8-8h23.6
	c4.4,0,8,3.6,8,8v70.9C441.5,341.6,437.9,345.2,433.5,345.2z M338.9,345.2c-4.4,0-8-3.6-8-8v-47.3c0-4.4,3.6-8,8-8h27.5v-7.6h-27.5
	c-4.4,0-8-3.6-8-8v-23.6c0-4.4,3.6-8,8-8h39.3v-7.6h-62.9c-4.4,0-8-3.6-8-8c0-4.4,3.6-8,8-8h70.9c4.4,0,8,3.6,8,8v23.6
	c0,4.4-3.6,8-8,8h-39.3v7.6h27.5c4.4,0,8,3.6,8,8v23.6c0,4.4-3.6,8-8,8h-27.5v39.3C346.9,341.6,343.3,345.2,338.9,345.2z
	 M234.4,345.2h-23.6c-4.4,0-8-3.6-8-8s3.6-8,8-8h15.6v-62.9c0-4.4,3.6-8,8-8s8,3.6,8,8v70.9C242.4,341.6,238.8,345.2,234.4,345.2z
	 M108.5,284.9c-3.7,0-7.1-2.6-7.8-6.4l-10.3-51.5H72.8c-4.4,0-8-3.6-8-8c0-4.4,3.6-8,8-8h24.1c3.8,0,7.1,2.7,7.8,6.4l11.6,57.9
	c0.9,4.3-1.9,8.5-6.3,9.4C109.5,284.8,109,284.9,108.5,284.9z M433.5,250.6c-4.4,0-8-3.6-8-8v-15.6h-15.6c-4.4,0-8-3.6-8-8
	c0-4.4,3.6-8,8-8h23.6c4.4,0,8,3.6,8,8v23.6C441.5,247,437.9,250.6,433.5,250.6z M234.4,250.6h-23.6c-4.4,0-8-3.6-8-8s3.6-8,8-8
	h15.6v-15.6c0-4.4,3.6-8,8-8s8,3.6,8,8v23.6C242.4,247,238.8,250.6,234.4,250.6z"></path>
<path d="M114.9,437.1l-11.2,11.2l11.2,11.2c3.1,3.1,3.1,8.2,0,11.3c-1.6,1.6-3.6,2.3-5.7,2.3s-4.1-0.8-5.7-2.3l-11.2-11.2
	l-11.2,11.2c-1.6,1.6-3.6,2.3-5.7,2.3s-4.1-0.8-5.7-2.3c-3.1-3.1-3.1-8.2,0-11.3l11.2-11.2L70,437.1c-3.1-3.1-3.1-8.2,0-11.3
	c3.1-3.1,8.2-3.1,11.3,0l11.2,11.2l11.2-11.2c3.1-3.1,8.2-3.1,11.3,0C118,428.9,118,434,114.9,437.1z M393.3,77.7
	c20.3,0,36.7-16.5,36.7-36.8c0-4.4-3.6-8-8-8s-8,3.6-8,8c0,11.4-9.3,20.8-20.7,20.8c-4.4,0-8,3.6-8,8S388.9,77.7,393.3,77.7z
	 M472,77.7c4.4,0,8-3.6,8-8s-3.6-8-8-8c-11.4,0-20.8-9.3-20.8-20.8c0-4.4-3.6-8-8-8s-8,3.6-8,8C435.3,61.2,451.8,77.7,472,77.7z
	 M443.3,127.7c4.4,0,8-3.6,8-8c0-11.4,9.3-20.8,20.8-20.8c4.4,0,8-3.6,8-8s-3.6-8-8-8c-20.3,0-36.8,16.5-36.8,36.8
	C435.3,124.1,438.9,127.7,443.3,127.7z M393.3,99c11.4,0,20.7,9.3,20.7,20.8c0,4.4,3.6,8,8,8s8-3.6,8-8c0-20.3-16.5-36.8-36.7-36.8
	c-4.4,0-8,3.6-8,8S388.9,99,393.3,99z M76.3,60.3c0-5.9-4.8-10.8-10.8-10.8c-5.9,0-10.8,4.8-10.8,10.8c0,5.9,4.8,10.8,10.8,10.8
	C71.5,71,76.3,66.2,76.3,60.3z M480.7,158.5c-5.9,0-10.8,4.8-10.8,10.8s4.8,10.8,10.8,10.8s10.8-4.8,10.8-10.8
	S486.7,158.5,480.7,158.5z M453.2,428.4h-43c-4.4,0-8,3.6-8,8s3.6,8,8,8h43c4.4,0,8-3.6,8-8S457.6,428.4,453.2,428.4z M431.7,458.4
	h-73.8c-4.4,0-8,3.6-8,8s3.6,8,8,8h73.8c4.4,0,8-3.6,8-8S436.1,458.4,431.7,458.4z M121.7,116.7h-43c-4.4,0-8,3.6-8,8s3.6,8,8,8h43
	c4.4,0,8-3.6,8-8S126.1,116.7,121.7,116.7z M174,86.7h-73.8c-4.4,0-8,3.6-8,8s3.6,8,8,8H174c4.4,0,8-3.6,8-8S178.4,86.7,174,86.7z"></path>
</svg>