<svg version="1.1" id="Layer_1" xmlns="http://www.w3.org/2000/svg" xmlns:xlink="http://www.w3.org/1999/xlink" x="0px" y="0px" viewBox="0 0 512 512" enable-background="new 0 0 512 512" xml:space="preserve">
<linearGradient id="SVGID_1_" gradientUnits="userSpaceOnUse" x1="235.7585" y1="470.7404" x2="235.7585" y2="-84.8395" class="gradient-element">
	<stop offset="0" class="primary-color-gradient" style="stop-color: #FFA4ED"></stop>
	<stop offset="0.676" class="secondary-color-gradient" style="stop-color: #DB81DA"></stop>
</linearGradient>
<path fill="url(#SVGID_1_)" d="M313.2,236.4v223.2c0,2.5-1,4.9-2.7,6.5c-1.7,1.7-4,2.7-6.5,2.7H30.4c-5.1,0-9.2-4.1-9.2-9.2v-24.2
	c0-12.1,9.8-21.9,21.9-21.9h187.3c3.9,0,7.3-2.5,8.6-5.9l0.6-143.8c0-20.2,16.4-36.7,36.7-36.7h36.3
	C317.6,227.1,313.2,231.3,313.2,236.4z M447.9,92h-36.3c-20.3,0-36.7,16.4-36.7,36.7l-0.6,143.8c-1.3,3.5-4.7,5.9-8.6,5.9h-23.1
	c-12.1,0-21.9,9.8-21.9,21.9v24.2c0,5.1-5.1,9.2,0,9.2h118.6c2.6,0,4.9-1,6.5-2.7c1.7-1.7,2.7-4,2.7-6.5V101.3
	C448.5,96.2,453,92,447.9,92z"></path>
<path d="M323,226.9v154.7c0,4.4-3.6,8-8,8s-8-3.6-8-8V234.9H29.2V299h259.1c4.4,0,8,3.6,8,8s-3.6,8-8,8H29.2v144.3H307v-40.5
	c0-4.4,3.6-8,8-8s8,3.6,8,8v48.5c0,4.4-3.6,8-8,8H21.2c-4.4,0-8-3.6-8-8V226.9c0-4.4,3.6-8,8-8H315C319.4,218.9,323,222.5,323,226.9
	z M448.5,85.3H154.7c-4.4,0-8,3.6-8,8v106.8c0,4.4,3.6,8,8,8s8-3.6,8-8v-18.7h259.1c4.4,0,8-3.6,8-8s-3.6-8-8-8H162.7v-64.1h277.8
	v224.4h-98.8c-4.4,0-8,3.6-8,8s3.6,8,8,8h106.8c4.4,0,8-3.6,8-8V93.3C456.5,88.9,453,85.3,448.5,85.3z"></path>
<path fill="#FFA4ED" class="primary-color" d="M490.7,378.5V423h-44.5v-44.5H490.7z M446.2,489.9h44.5v-44.5h-44.5V489.9z M377.8,489.9h44.5v-44.5h-44.5
	V489.9z"></path>
<path d="M499,286.7c0,4.4-3.6,8-8,8h-3.9v3.9c0,4.4-3.6,8-8,8s-8-3.6-8-8v-3.9h-3.9c-4.4,0-8-3.6-8-8s3.6-8,8-8h3.9v-3.9
	c0-4.4,3.6-8,8-8s8,3.6,8,8v3.9h3.9C495.4,278.7,499,282.3,499,286.7z M336.5,410.7h-43c-4.4,0-8,3.6-8,8s3.6,8,8,8h43
	c4.4,0,8-3.6,8-8S340.9,410.7,336.5,410.7z M415.3,373.5H300.1c-4.4,0-8,3.6-8,8s3.6,8,8,8h115.2c4.4,0,8-3.6,8-8
	S419.7,373.5,415.3,373.5z M459.2,56.6c0,4.4,3.6,8,8,8s8-3.6,8-8v-3.9h3.9c4.4,0,8-3.6,8-8s-3.6-8-8-8h-3.9v-3.9c0-4.4-3.6-8-8-8
	s-8,3.6-8,8v3.9h-3.9c-4.4,0-8,3.6-8,8s3.6,8,8,8h3.9V56.6z M69.2,172.6c-4.2,4.2-4.2,11,0,15.2c4.2,4.2,11,4.2,15.2,0
	s4.2-11,0-15.2C80.2,168.4,73.4,168.4,69.2,172.6z M37.4,84.3c20.3,0,36.8-16.5,36.8-36.8c0-4.4-3.6-8-8-8s-8,3.6-8,8
	c0,11.4-9.3,20.8-20.8,20.8c-4.4,0-8,3.6-8,8S33,84.3,37.4,84.3z M116.2,68.3c-11.4,0-20.8-9.3-20.8-20.8c0-4.4-3.6-8-8-8
	s-8,3.6-8,8c0,20.3,16.5,36.8,36.8,36.8c4.4,0,8-3.6,8-8S120.6,68.3,116.2,68.3z M116.2,89.5c-20.3,0-36.8,16.5-36.8,36.8
	c0,4.4,3.6,8,8,8s8-3.6,8-8c0-11.4,9.3-20.8,20.8-20.8c4.4,0,8-3.6,8-8S120.6,89.5,116.2,89.5z M74.2,126.3
	c0-20.3-16.5-36.8-36.8-36.8c-4.4,0-8,3.6-8,8s3.6,8,8,8c11.4,0,20.8,9.3,20.8,20.8c0,4.4,3.6,8,8,8S74.2,130.7,74.2,126.3z
	 M383,50.6c4.4,0,8-3.6,8-8s-3.6-8-8-8H290c-4.4,0-8,3.6-8,8s3.6,8,8,8H383z"></path>
</svg>