<svg version="1.1" id="Layer_1" xmlns="http://www.w3.org/2000/svg" xmlns:xlink="http://www.w3.org/1999/xlink" x="0px" y="0px" viewBox="0 0 512 512" enable-background="new 0 0 512 512" xml:space="preserve">
<linearGradient id="SVGID_1_" gradientUnits="userSpaceOnUse" x1="211.8587" y1="386.0574" x2="213.3745" y2="181.4258" class="gradient-element">
	<stop offset="0" class="primary-color-gradient" style="stop-color: #FFA4ED"></stop>
	<stop offset="1" class="secondary-color-gradient" style="stop-color: #DB81DA"></stop>
</linearGradient>
<path fill="url(#SVGID_1_)" d="M282.9,216.7c13.8,0,25.1,10.8,25.8,24.6c0.5,9.8,0.8,19.5,0.8,29.2c0,61.6-47.3,112.3-107.5,117.8
	c-8.2,0.7-15,0.6-21.5,0c-5.8-0.5-11.4-1.5-16.9-2.8c-2.5-0.6-4.9-1.6-7.1-2.9c-22.2-13.2-40.5-49.4-40.5-112.1
	c0-10.6,0.2-20.1,0.6-29.2c0.6-13.8,12-24.6,25.8-24.6H282.9z"></path>
<path d="M266.5,482.7H116c-4.4,0-8-3.6-8-8v-21.5c0-4.4,3.6-8,8-8h59.8c4.4,0,8,3.6,8,8s-3.6,8-8,8H124v5.5h134.5v-5.5H202
	c-4.4,0-8-3.6-8-8v-65c0-4.1,3.2-7.6,7.3-8c56.2-5.1,100.2-53.3,100.2-109.8c0-48.6-7.3-97.4-15.6-153.8l0-0.2
	C284,104,282,90.6,280,76.5l-0.3-2.4H139.3c-4.4,0-8-3.6-8-8s3.6-8,8-8h147.2c4,0,7.4,2.9,7.9,6.9l1.3,9.2c2,14,4,27.4,5.8,39.8
	l0,0.2c8.5,57.1,15.8,106.4,15.8,156.2c0,31.7-11.8,62-33.3,85.4c-19.7,21.4-45.8,35.3-74.2,39.5v49.9h56.5c4.4,0,8,3.6,8,8v21.5
	C274.5,479.1,270.9,482.7,266.5,482.7z M188.4,388.9c0.4-4.4-2.8-8.3-7.2-8.7C125,375.1,80.9,326.9,80.9,270.4
	c0-48.7,7.3-97.5,15.7-154c1.9-12.7,7.1-48.8,7.2-49.1c0.6-4.4-2.4-8.4-6.8-9.1c-4.4-0.6-8.4,2.4-9.1,6.8
	c-0.1,0.4-5.3,36.4-7.2,49.1c-8.5,57.1-15.8,106.5-15.8,156.4c0,31.7,11.8,62,33.3,85.4c21.3,23.2,50.3,37.6,81.5,40.4
	c0.2,0,0.5,0,0.7,0C184.6,396.2,188.1,393.1,188.4,388.9z"></path>
<path fill="#000000" d="M333.3,352.6v-20c0-4.4,3.6-8,8-8s8,3.6,8,8v20c0,4.4-3.6,8-8,8S333.3,357,333.3,352.6z M473.8,148.4h-43
	c-4.4,0-8,3.6-8,8s3.6,8,8,8h43c4.4,0,8-3.6,8-8S478.2,148.4,473.8,148.4z M483.1,178.4H378.5c-4.4,0-8,3.6-8,8s3.6,8,8,8h104.6
	c4.4,0,8-3.6,8-8S487.5,178.4,483.1,178.4z M428.5,57.9h15.8v15.8c0,4.4,3.6,8,8,8s8-3.6,8-8V57.9h15.8c4.4,0,8-3.6,8-8s-3.6-8-8-8
	h-15.8V26.1c0-4.4-3.6-8-8-8s-8,3.6-8,8v15.8h-15.8c-4.4,0-8,3.6-8,8S424.1,57.9,428.5,57.9z M30.9,461.8c-5.9,0-10.8,4.8-10.8,10.8
	c0,5.9,4.8,10.8,10.8,10.8c5.9,0,10.8-4.8,10.8-10.8C41.7,466.6,36.9,461.8,30.9,461.8z M345.7,424.5c-14.6,0-26.4,11.8-26.4,26.4
	c0,4.4,3.6,8,8,8s8-3.6,8-8c0-5.7,4.7-10.4,10.4-10.4s10.4,4.7,10.4,10.4c0,4.4,3.6,8,8,8s8-3.6,8-8
	C372.1,436.3,360.2,424.5,345.7,424.5z M425.2,413.5c-5.9,0-10.8,4.8-10.8,10.8c0,5.9,4.8,10.8,10.8,10.8s10.8-4.8,10.8-10.8
	C436,418.3,431.2,413.5,425.2,413.5z"></path>
<g>
	<path fill="#DB81DA" class="secondary-color" d="M81.1,19.4L20.2,80.3V19.4H81.1z"></path>
	<path fill="#DB81DA" class="secondary-color" d="M483.7,361.1h-21.8v-56.9h21.8V361.1z"></path>
</g>
</svg>