<svg version="1.1" id="Layer_1" xmlns="http://www.w3.org/2000/svg" xmlns:xlink="http://www.w3.org/1999/xlink" x="0px" y="0px" viewBox="0 0 512 512" enable-background="new 0 0 512 512" xml:space="preserve">
<linearGradient id="SVGID_1_" gradientUnits="userSpaceOnUse" x1="342.4181" y1="432.7539" x2="342.4181" y2="166.7127" class="gradient-element">
	<stop offset="0" class="primary-color-gradient" style="stop-color: #FFA4ED"></stop>
	<stop offset="1" class="secondary-color-gradient" style="stop-color: #DB81DA"></stop>
</linearGradient>
<path fill="url(#SVGID_1_)" d="M426.5,203.3c0,0,0,0,9.4,43.1s-27.5,111.3-69.7,154.2s-109.8,40.7-109.8,40.7
	c-19.5-15.1-0.7-22.3-0.7-22.3s44.2-6,46.7-10c1.6-2.5,0.2-13.5-1.1-21.5c-0.8-5.3,1-10.7,5-14.4l23.6-22.1c0,0,14-22.2,29.5-68.9
	s-6.6-70.8-18.5-87.3s-11.2-21.7-3.7-39c11.1-25.4,35.3-20.3,45.3-20.5s35.3,46.1,35.3,46.1L426.5,203.3z"></path>
<path d="M443.9,261.2c0,50.9-19.8,98.8-55.8,134.8s-83.8,55.8-134.8,55.8c-50.8,0-98.7-19.8-134.7-55.9S62.7,312,62.8,261.2
	c0-36.3,8.8-68.3,26.8-97.6c2.3-3.8,7.2-4.9,11-2.6c3.8,2.3,4.9,7.2,2.6,11c-16.5,26.7-24.5,55.9-24.5,89.2
	c0,46.6,18.2,90.4,51.2,123.4c33,33,76.8,51.2,123.4,51.2c96.3,0,174.6-78.3,174.6-174.6c0-22.6-2.4-37.5-8.9-55.2
	c-1.5-4.1,0.6-8.7,4.7-10.3c4.1-1.5,8.7,0.6,10.3,4.7C441.1,219.9,443.9,236.9,443.9,261.2z M109.7,148.2c3.3,2.9,8.4,2.5,11.3-0.8
	c33.2-38.5,81.4-60.6,132.3-60.7c0,0,0,0,0,0c61.2,0,118.7,32.8,150.1,85.5c1.5,2.5,4.2,3.9,6.9,3.9c1.4,0,2.8-0.4,4.1-1.1
	c3.8-2.3,5-7.2,2.8-11c-16.6-27.9-40.2-51.3-68.3-67.6c-28.9-16.8-62-25.7-95.5-25.7c0,0,0,0,0,0c-55.5,0-108.1,24.1-144.4,66.2
	C106,140.2,106.4,145.3,109.7,148.2z M102.5,206.7L165.1,378c-36.3-27.5-58.1-70.6-58.1-116.7c0-6.6,0.4-13.2,1.3-19.7
	c0.6-4.4-2.5-8.4-6.9-9c-4.4-0.6-8.4,2.5-9,6.9c-1,7.2-1.5,14.5-1.5,21.9c0,58.6,31.8,112.8,83,141.6c1.4,0.8,3,1.2,4.5,1.2
	c2.1,0,4.3-0.7,6-2.2c2.9-2.5,4-6.6,2.7-10.2l-69.6-190.4c-1.5-4.1-6.1-6.3-10.3-4.8C103.1,198,101,202.6,102.5,206.7z M293.6,402
	c-13,3.7-26.6,5.6-40.3,5.6c-4.3,0-8.6-0.2-12.9-0.6c-4.4-0.4-8.3,2.9-8.7,7.3c-0.4,4.4,2.9,8.3,7.3,8.7c4.7,0.4,9.5,0.6,14.3,0.6
	c15.2,0,30.2-2.1,44.7-6.3c4.5-1.3,8.3-4.4,10.4-8.6c2.2-4.2,2.5-9.2,0.9-13.6L266.8,276c-1.3-3.6-4.7-5.9-8.4-5.9c0,0,0,0,0,0
	c-3.8,0-7.2,2.4-8.4,5.9l-47.1,130.8c-1.5,4.2,0.7,8.7,4.8,10.2c4.2,1.5,8.7-0.7,10.2-4.8l40.5-112.3l36,100.7
	c0.1,0.4,0,0.7-0.1,0.9C294.1,401.7,293.9,401.9,293.6,402z M332.9,361.4c0,0,0.1,0,0.1,0c4.9,0,9.2-3.1,10.7-7.7
	c7.7-22.5,21.4-62.8,26.6-80.2l0.2-0.6c2.8-9.2,10.4-33.6-11.2-66c-1.6-2.3-3.3-4.6-5.1-7c-6.5-8.7-13.3-17.6-13.3-28.3
	c0-8.3,4.9-16.7,11.7-19.8c3.2-1.5,5.4-4.5,5.9-8.1c0.4-3.6-1-7-3.8-9.3c-29.1-23.3-64.1-35.7-101.4-35.7
	c-49.5,0-95.7,22.2-126.7,60.9c-2.5,3.1-3,7.3-1.3,11c1.7,3.6,5.3,5.9,9.3,5.9H173c4.4,0.2,4.4,3.1,4.4,4.3s0,4.2-4.4,4.3h-29.7
	l3.5,10.5c1.4,4.3,3.6,10.3,7,19.4c7.8,21.4,22.4,61.2,47.7,135.3c1.4,4.2,6,6.4,10.2,5c4.2-1.4,6.4-6,5-10.2
	c-25.3-74.2-39.9-114.2-47.8-135.6c-1.2-3.2-2.2-6-3.1-8.5h7.3c8.2,0,20.3-5.4,20.3-20.3s-12.2-20.3-20.3-20.3h-26
	c27.6-29.2,65.7-45.7,106.2-45.7c30.9,0,60.2,9.4,85.1,27.3c-8.3,7-13.5,18-13.5,29.5c0,16,9.2,28.2,16.6,37.9
	c1.7,2.2,3.3,4.4,4.6,6.3c17.4,26,11.6,44.4,9.2,52.3l-0.2,0.7c-4.3,14.4-14.8,45.4-21.9,66.4c-10.8-33.7-31.9-99-43.3-134h0.5
	c8.1,0,20.3-5.2,20.7-19.4c0.4-14-11.6-20.4-19.9-21.2l-0.4,0h-74.5c-8.2,0-20.3,5.4-20.3,20.3s12.2,20.3,20.3,20.3h2.6l22,53.1
	c1.7,4.1,6.4,6,10.5,4.3c4.1-1.7,6-6.4,4.3-10.5l-26.1-62.9h-13.2c-4.4-0.2-4.4-3.1-4.4-4.3s0-4.2,4.4-4.3h73.5
	c1.3,0.2,5.3,1.1,5.2,4.8c0,0.9-0.1,3.8-4.8,3.9h-22.6l3.5,10.5c11.5,34.8,42,129.5,51,157.7C323.7,358.2,328,361.4,332.9,361.4z
	 M338.3,398c1.5,0,3-0.4,4.4-1.3c45.7-30.2,73-80.8,73-135.5c0-21.6-4.2-42.7-12.5-62.6c-1.7-4.1-6.4-6-10.5-4.3
	c-4.1,1.7-6,6.4-4.3,10.5c7.5,17.9,11.3,36.9,11.3,56.4c0,49.3-24.6,94.9-65.8,122.1c-3.7,2.4-4.7,7.4-2.3,11.1
	C333.2,396.8,335.7,398,338.3,398z"></path>
<g>
	<path fill="#FFA4ED" class="primary-color" d="M434.3,496.9l60.9-60.9v60.9H434.3z M16.3,456.8V492h20.4v-35.2H16.3z"></path>
	<path fill="#DB81DA" class="secondary-color" d="M69.8,456.8V492H48.5v-35.2H69.8z M423.9,40h77.3V17.5h-77.3V40z"></path>
</g>
<path d="M137.9,456.8c0,4.4-3.6,8-8,8H126v3.9c0,4.4-3.6,8-8,8s-8-3.6-8-8v-3.9h-3.9c-4.4,0-8-3.6-8-8s3.6-8,8-8h3.9v-3.9
	c0-4.4,3.6-8,8-8s8,3.6,8,8v3.9h3.9C134.3,448.8,137.9,452.4,137.9,456.8z M437.2,135.6c0-4.4-3.6-8-8-8h-43c-4.4,0-8,3.6-8,8
	s3.6,8,8,8h43C433.6,143.6,437.2,140,437.2,135.6z M406.4,169.6c0,4.4,3.6,8,8,8h43c4.4,0,8-3.6,8-8s-3.6-8-8-8h-43
	C410,161.6,406.4,165.2,406.4,169.6z M476.5,199.5c0-4.4-3.6-8-8-8h-73.8c-4.4,0-8,3.6-8,8s3.6,8,8,8h73.8
	C473,207.5,476.5,203.9,476.5,199.5z M468.5,389.9c-5.9,0-10.8,4.8-10.8,10.8s4.8,10.8,10.8,10.8c5.9,0,10.8-4.8,10.8-10.8
	S474.5,389.9,468.5,389.9z M347.9,479.4c-5.9,0-10.8,4.8-10.8,10.8c0,5.9,4.8,10.8,10.8,10.8c5.9,0,10.8-4.8,10.8-10.8
	C358.7,484.2,353.9,479.4,347.9,479.4z M474.5,134.5h-3.9v-3.9c0-4.4-3.6-8-8-8s-8,3.6-8,8v3.9h-3.9c-4.4,0-8,3.6-8,8s3.6,8,8,8h3.9
	v3.9c0,4.4,3.6,8,8,8s8-3.6,8-8v-3.9h3.9c4.4,0,8-3.6,8-8S478.9,134.5,474.5,134.5z M36.8,382.3c-4.2,4.2-4.2,11,0,15.2
	s11,4.2,15.2,0c4.2-4.2,4.2-11,0-15.2C47.8,378.1,41,378.1,36.8,382.3z M322.2,28.7c-5.9,0-10.8,4.8-10.8,10.8s4.8,10.8,10.8,10.8
	c5.9,0,10.8-4.8,10.8-10.8S328.2,28.7,322.2,28.7z M72.3,235.3H56.5v-15.8c0-4.4-3.6-8-8-8s-8,3.6-8,8v15.8H24.8c-4.4,0-8,3.6-8,8
	s3.6,8,8,8h15.8v15.8c0,4.4,3.6,8,8,8s8-3.6,8-8v-15.8h15.8c4.4,0,8-3.6,8-8S76.7,235.3,72.3,235.3z M55.5,84.9c2,0,4.1-0.8,5.7-2.3
	c3.1-3.1,3.1-8.2,0-11.3c-4.1-4.1-4.1-10.6,0-14.7c2-2,4.6-3,7.3-3s5.4,1.1,7.3,3c3.1,3.1,8.2,3.1,11.3,0s3.1-8.2,0-11.3
	c-5-5-11.6-7.7-18.7-7.7s-13.7,2.7-18.7,7.7c-10.3,10.3-10.3,27,0,37.3C51.4,84.1,53.5,84.9,55.5,84.9z M55.1,142.5c0,4.4,3.6,8,8,8
	H115c4.4,0,8-3.6,8-8s-3.6-8-8-8H63.1C58.7,134.5,55.1,138.1,55.1,142.5z M28.5,175.8H110c4.4,0,8-3.6,8-8s-3.6-8-8-8H28.5
	c-4.4,0-8,3.6-8,8S24.1,175.8,28.5,175.8z"></path>
</svg>