<svg version="1.1" id="Layer_1" xmlns="http://www.w3.org/2000/svg" xmlns:xlink="http://www.w3.org/1999/xlink" x="0px" y="0px" viewBox="0 0 512 512" enable-background="new 0 0 512 512" xml:space="preserve">
<linearGradient id="SVGID_1_" gradientUnits="userSpaceOnUse" x1="74.1395" y1="299.4226" x2="397.4765" y2="299.4226" class="gradient-element">
	<stop offset="0" class="primary-color-gradient" style="stop-color: #FFA4ED"></stop>
	<stop offset="1" class="secondary-color-gradient" style="stop-color: #DB81DA"></stop>
</linearGradient>
<path fill="url(#SVGID_1_)" d="M121.9,442.8c28.5,20,63,31.8,100.4,31.8c96.6,0,175.2-78.6,175.2-175.2
	c0-96.6-78.6-175.2-175.2-175.2l37.4,11c0,0,134.5,118.4,52.5,222.7s-177.5,61-205,38.3C70.8,366.3,50.6,380.3,121.9,442.8z
	 M356.3,258.1"></path>
<path d="M222.3,482.6c-101,0-183.2-82.2-183.2-183.2c0-37.7,11.5-74,33.3-105c2.5-3.6,7.5-4.5,11.1-1.9c3.6,2.5,4.5,7.5,1.9,11.1
	c-19.9,28.3-30.4,61.4-30.4,95.8c0,92.2,75,167.2,167.2,167.2s167.2-75,167.2-167.2c0-4.4,3.6-8,8-8s8,3.6,8,8
	C405.5,400.4,323.3,482.6,222.3,482.6z M253.8,434.6c-0.1,0-0.3,0-0.4,0c-1-0.1-2.1-0.3-3.1-0.8c0,0,0,0,0,0c0,0,0,0,0,0
	c-0.1,0-0.1-0.1-0.2-0.1c0,0,0,0,0,0c-0.9-0.5-1.6-1.1-2.2-1.8c-0.6-0.6-1-1.4-1.4-2.2c0,0,0,0,0,0c0,0,0,0,0,0
	c0-0.1-0.1-0.2-0.1-0.4c-21.6-59.3-38.8-91.2-63.3-117.4c-16.2-17.3-30.2-29.1-42.6-39.4l-0.1-0.1c-27.9-23.3-49.9-41.8-49.9-93.6
	v-3.1c0-2.1,0.8-4.2,2.3-5.7c34.6-34.7,80.7-53.8,129.6-53.8c41.7,0,81,13.7,113.7,39.6c31.7,25.1,54.5,60.5,64.1,99.4
	c1.1,4.3-1.5,8.6-5.8,9.7c-4.3,1.1-8.6-1.5-9.7-5.8c-14.7-59.1-59.5-104.1-115.7-120.3c3.3,47.7-27.3,77.3-39.4,89
	c-0.8,0.8-1.5,1.5-2.1,2.1c-2.7,2.7-6.9,3.1-10,1c-7.4-4.9-19.6-10.6-35.1-10.6c-10.6,0-33.3,14.4-38.8,33.9c2.2,1.9,4.6,3.9,7,5.9
	l0.1,0.1c12.7,10.7,27.2,22.8,44,40.8c23.4,25,40.3,54.2,59.7,104.1c0.8-1.8,1.5-3.7,2.3-5.6c7.2-17.6,12.1-29.5,14.8-34.1
	c8.4-14,15-25.1,15-35.2c0-12.5-20.3-33.2-43.5-33.2c-11.3,0-21,5.3-27.2,9.8c-3.6,2.6-8.6,1.8-11.2-1.8c-2.6-3.6-1.8-8.6,1.8-11.2
	c8.1-5.8,21-12.8,36.6-12.8c14.1,0,29,5.7,40.9,15.7c11.7,9.8,18.7,22.4,18.7,33.5c0,14.5-8,27.9-17.3,43.4
	c-2.3,3.9-8.7,19.4-13.8,31.9c-4.4,10.8-8.2,20.2-10.4,24.5c0,0.1-0.1,0.2-0.1,0.3l0,0c0,0,0,0,0,0c-0.4,0.8-1,1.5-1.6,2.1l0,0
	c0,0,0,0,0,0c-0.8,0.7-1.7,1.3-2.7,1.6C255.7,434.4,254.8,434.6,253.8,434.6z M106.4,179.1c0.1,31.9,9.2,48.5,24.4,63.6
	c10.1-22.9,35.3-38.3,51.5-38.3c15.9,0,29,4.8,38.3,9.9c12.8-12.6,36.9-38.6,31.9-79.3c-9.8-1.8-19.9-2.7-30.1-2.7
	C178.8,132.3,137.8,148.9,106.4,179.1z"></path>
<path d="M381.7,262.9c0-4.4,3.6-8,8-8h67.8c4.4,0,8,3.6,8,8s-3.6,8-8,8h-67.8C385.3,270.9,381.7,267.4,381.7,262.9z M453.2,296.5
	c0-4.4-3.6-8-8-8H337.4c-4.4,0-8,3.6-8,8s3.6,8,8,8h107.8C449.6,304.5,453.2,300.9,453.2,296.5z M34,119.5v5.6c0,4.4,3.6,8,8,8
	s8-3.6,8-8v-5.6h5.6c4.4,0,8-3.6,8-8s-3.6-8-8-8H50V98c0-4.4-3.6-8-8-8s-8,3.6-8,8v5.6h-5.6c-4.4,0-8,3.6-8,8s3.6,8,8,8H34z
	 M481.3,425.4h-15.8v-15.8c0-4.4-3.6-8-8-8s-8,3.6-8,8v15.8h-15.8c-4.4,0-8,3.6-8,8s3.6,8,8,8h15.8v15.8c0,4.4,3.6,8,8,8s8-3.6,8-8
	v-15.8h15.8c4.4,0,8-3.6,8-8S485.7,425.4,481.3,425.4z M444.4,132.3c4.4,0,8-3.6,8-8c0-11.4,9.3-20.8,20.8-20.8c4.4,0,8-3.6,8-8
	s-3.6-8-8-8c-20.3,0-36.8,16.5-36.8,36.8C436.4,128.7,440,132.3,444.4,132.3z M394.4,103.5c11.4,0,20.7,9.3,20.7,20.8
	c0,4.4,3.6,8,8,8s8-3.6,8-8c0-20.3-16.5-36.8-36.7-36.8c-4.4,0-8,3.6-8,8S390,103.5,394.4,103.5z M394.4,82.3
	c20.3,0,36.7-16.5,36.7-36.8c0-4.4-3.6-8-8-8s-8,3.6-8,8c0,11.4-9.3,20.8-20.7,20.8c-4.4,0-8,3.6-8,8S390,82.3,394.4,82.3z
	 M473.1,82.3c4.4,0,8-3.6,8-8s-3.6-8-8-8c-11.4,0-20.8-9.3-20.8-20.8c0-4.4-3.6-8-8-8s-8,3.6-8,8C436.4,65.8,452.9,82.3,473.1,82.3z
	 M171.1,45.5c0,14.6-11.8,26.4-26.4,26.4s-26.4-11.8-26.4-26.4s11.8-26.4,26.4-26.4S171.1,31,171.1,45.5z M155.1,45.5
	c0-5.7-4.7-10.4-10.4-10.4c-5.7,0-10.4,4.7-10.4,10.4s4.7,10.4,10.4,10.4C150.4,55.9,155.1,51.3,155.1,45.5z M60.6,479.3H33.5
	c-4.4,0-8,3.6-8,8s3.6,8,8,8h27.1c4.4,0,8-3.6,8-8S65,479.3,60.6,479.3z M432.9,199.9c5.5,0,9.9,4.4,9.9,9.9s-4.4,9.9-9.9,9.9
	c-5.5,0-9.9-4.4-9.9-9.9S427.5,199.9,432.9,199.9z M498.2,209.8c0,5.5-4.4,9.9-9.9,9.9c-5.5,0-9.9-4.4-9.9-9.9s4.4-9.9,9.9-9.9
	C493.7,199.9,498.2,204.4,498.2,209.8z M404.3,480.9c0,5.5-4.4,9.9-9.9,9.9c-5.5,0-9.9-4.4-9.9-9.9c0-5.5,4.4-9.9,9.9-9.9
	C399.8,471,404.3,475.5,404.3,480.9z"></path>
<g>
	<path fill="#DB81DA" class="secondary-color" d="M276.1,27.9v35.2h-22.5V27.9H276.1z M345,27.9v77.3h22.5V27.9H345z"></path>
	<path fill="#FFA4ED" class="primary-color" d="M229.9,27.9v35.2h-21.6V27.9H229.9z M299.8,27.9v77.3h21.6V27.9H299.8z"></path>
</g>
</svg>