<svg version="1.1" id="Layer_1" xmlns="http://www.w3.org/2000/svg" xmlns:xlink="http://www.w3.org/1999/xlink" x="0px" y="0px" viewBox="0 0 512 512" enable-background="new 0 0 512 512" xml:space="preserve">
<linearGradient id="SVGID_1_" gradientUnits="userSpaceOnUse" x1="257.4077" y1="415.5188" x2="257.4077" y2="112.5339" class="gradient-element">
	<stop offset="0" class="primary-color-gradient" style="stop-color: #FFA4ED"></stop>
	<stop offset="1" class="secondary-color-gradient" style="stop-color: #DB81DA"></stop>
</linearGradient>
<path fill="url(#SVGID_1_)" d="M362.9,115.7H322c-25.4,0-46,20.6-46,46v76.8l46.4,24.7L276,288.3v22.9c0,24.1-19.5,43.6-43.6,43.6
	H81.1c-13.7,0-21.5,15.6-13.4,26.5c10.9,14.7,32.8,29.5,76.5,29.5c87.5,0,109.3,0,109.3,0s21.9,0,109.3,0c87.4,0,87.4-59,87.4-59
	V174.7C450.4,174.7,450.4,115.7,362.9,115.7z"></path>
<path d="M218,197.9c-2.5-1.3-5.5-1.3-7.9,0.2c-2.4,1.4-3.9,4.1-3.9,6.9v116.6c0,2.8,1.5,5.4,3.9,6.9c1.3,0.8,2.7,1.1,4.1,1.1
	c1.3,0,2.6-0.3,3.8-1l108.2-58.3c2.6-1.4,4.2-4.1,4.2-7s-1.6-5.6-4.2-7L218,197.9z M222.2,308.1v-89.8l83.4,44.9L222.2,308.1z
	 M442.3,310.4V174.7c0-2-1.6-51-79.4-51H144.3c-77.9,0-79.4,49-79.5,51.1l0,177c0,2,1.6,51,79.5,51h218.7c33.1,0,57.3-9.1,70.1-26.3
	c9.1-12.3,9.4-24.6,9.4-24.8c0-4.4,3.6-8,8-8s8,3.6,8,8c0,0.7-0.1,17.6-12.5,34.3c-11.1,14.9-34.4,32.8-82.9,32.8H144.3
	c-48.5,0-71.9-17.8-83-32.8c-12.4-16.7-12.5-33.6-12.5-34.3V174.7c0-0.7,0.1-17.6,12.5-34.3c11.1-14.9,34.4-32.8,83-32.8h218.7
	c48.5,0,71.9,17.8,82.9,32.8c12.4,16.7,12.5,33.6,12.5,34.3v135.7c0,4.4-3.6,8-8,8S442.3,314.8,442.3,310.4z"></path>
<path d="M397.3,314.6c0-4.4,3.6-8,8-8h87.6c4.4,0,8,3.6,8,8s-3.6,8-8,8h-87.6C400.8,322.6,397.3,319,397.3,314.6z M348.8,354.9
	h112.8c4.4,0,8-3.6,8-8s-3.6-8-8-8H348.8c-4.4,0-8,3.6-8,8S344.4,354.9,348.8,354.9z M437.9,64.2h15.8V80c0,4.4,3.6,8,8,8s8-3.6,8-8
	V64.2h15.8c4.4,0,8-3.6,8-8s-3.6-8-8-8h-15.8V32.4c0-4.4-3.6-8-8-8s-8,3.6-8,8v15.8h-15.8c-4.4,0-8,3.6-8,8S433.5,64.2,437.9,64.2z
	 M83.2,461.8c0,14.6-11.8,26.4-26.4,26.4s-26.4-11.8-26.4-26.4s11.8-26.4,26.4-26.4S83.2,447.3,83.2,461.8z M67.2,461.8
	c0-5.7-4.7-10.4-10.4-10.4s-10.4,4.7-10.4,10.4s4.7,10.4,10.4,10.4S67.2,467.5,67.2,461.8z M492.8,472.2H197.2c-4.4,0-8,3.6-8,8
	s3.6,8,8,8h295.7c4.4,0,8-3.6,8-8S497.2,472.2,492.8,472.2z"></path>
<g>
	<path fill="#DB81DA" class="secondary-color" d="M101.6,76.8V33.2h43.6v43.6H101.6z M75.1,76.8V33.2H31.5v43.6H75.1z"></path>
	<path fill="#FFA4ED" class="primary-color" d="M171.6,76.8V33.2h43.6v43.6H171.6z M355.2,76.8V33.2h-43.6v43.6H355.2z M285.2,76.8V33.2h-43.6v43.6H285.2z
		"></path>
</g>
</svg>