<svg version="1.1" id="Layer_1" xmlns="http://www.w3.org/2000/svg" xmlns:xlink="http://www.w3.org/1999/xlink" x="0px" y="0px" viewBox="0 0 512 512" enable-background="new 0 0 512 512" xml:space="preserve">
<path d="M507.5,467.2c0,4.4-3.6,8-8,8h-15.8V491c0,4.4-3.6,8-8,8s-8-3.6-8-8v-15.8h-15.8c-4.4,0-8-3.6-8-8s3.6-8,8-8h15.8v-15.8
	c0-4.4,3.6-8,8-8s8,3.6,8,8v15.8h15.8C503.9,459.2,507.5,462.8,507.5,467.2z M451.7,59.7v3.9c0,4.4,3.6,8,8,8s8-3.6,8-8v-3.9h3.9
	c4.4,0,8-3.6,8-8s-3.6-8-8-8h-3.9v-3.9c0-4.4-3.6-8-8-8s-8,3.6-8,8v3.9h-3.9c-4.4,0-8,3.6-8,8s3.6,8,8,8H451.7z M42.8,67.4
	C42.8,52.8,54.6,41,69.2,41s26.4,11.8,26.4,26.4S83.7,93.8,69.2,93.8S42.8,81.9,42.8,67.4z M58.8,67.4c0,5.7,4.7,10.4,10.4,10.4
	s10.4-4.7,10.4-10.4S74.9,57,69.2,57S58.8,61.6,58.8,67.4z M146.9,420.4h-43c-4.4,0-8,3.6-8,8s3.6,8,8,8h43c4.4,0,8-3.6,8-8
	S151.3,420.4,146.9,420.4z M125.4,450.4H51.6c-4.4,0-8,3.6-8,8s3.6,8,8,8h73.8c4.4,0,8-3.6,8-8S129.8,450.4,125.4,450.4z"></path>
<linearGradient id="SVGID_1_" gradientUnits="userSpaceOnUse" x1="257.3429" y1="412.8054" x2="264.1639" y2="92.2159" class="gradient-element">
	<stop offset="0" class="primary-color-gradient" style="stop-color: #FFA4ED"></stop>
	<stop offset="1" class="secondary-color-gradient" style="stop-color: #DB81DA"></stop>
</linearGradient>
<path fill="url(#SVGID_1_)" d="M428.1,256.3c0,92.5-75,167.5-167.5,167.5s-167.5-75-167.5-167.5s75-167.5,167.5-167.5
	S428.1,163.8,428.1,256.3z"></path>
<path d="M261,483.3c-50.4,0-100-16.9-140.4-48.6c-3.5-2.7-4.1-7.8-1.4-11.2c2.7-3.5,7.8-4.1,11.2-1.4
	c47.7,37.4,108.9,52.6,168.1,41.8C413.1,443,489.2,332.8,468.2,218.4C458.1,163,427,114.9,380.6,82.8
	c-46.4-32.1-102.5-44.2-157.8-34C167.4,58.9,119.2,90,87.2,136.5c-32.1,46.4-44.2,102.5-34,157.8c6.5,35.8,22.5,69.6,46.2,97.6
	c2.9,3.4,2.4,8.4-1,11.3c-3.4,2.9-8.4,2.4-11.3-1c-25.5-30.2-42.7-66.5-49.7-105C26.5,237.6,39.5,177.3,74,127.4
	c34.5-49.9,86.3-83.4,145.9-94.3c59.6-10.9,119.9,2.1,169.8,36.6c49.9,34.5,83.4,86.3,94.3,145.9c22.5,123.1-59.3,241.6-182.5,264.1
	C288.1,482.1,274.5,483.3,261,483.3z M247.8,431.8c-4.4,0-8-3.6-8-8V406h-69.3c-4.4,0-8-3.6-8-8v-49.7c0-1.5,0.4-3,1.2-4.2
	L277.4,162H170.5c-4.4,0-8-3.6-8-8v-39.4c0-4.4,3.6-8,8-8h77.3c4.4,0,8,3.6,8,8s-3.6,8-8,8h-69.3V146h113.4c2.9,0,5.6,1.6,7,4.1
	c1.4,2.5,1.3,5.7-0.2,8.1L178.5,350.6V390h69.3c4.4,0,8,3.6,8,8v25.8C255.8,428.2,252.2,431.8,247.8,431.8z M350.9,406h-77.3
	c-4.4,0-8-3.6-8-8s3.6-8,8-8h69.3v-25.3L231.2,365c0,0,0,0,0,0c-2.9,0-5.5-1.5-6.9-4c-1.4-2.5-1.4-5.6,0.1-8l118.6-201v-29.2h-69.3
	c-4.4,0-8-3.6-8-8V88.9c0-4.4,3.6-8,8-8s8,3.6,8,8v17.8h69.3c4.4,0,8,3.6,8,8V154c0,1.4-0.4,2.8-1.1,4.1L245.2,348.9l105.6-0.2
	c0,0,0,0,0,0c2.1,0,4.2,0.8,5.7,2.3c1.5,1.5,2.3,3.5,2.3,5.7V398C358.9,402.5,355.3,406,350.9,406z"></path>
</svg>