<svg version="1.1" id="Layer_1" xmlns="http://www.w3.org/2000/svg" xmlns:xlink="http://www.w3.org/1999/xlink" x="0px" y="0px" viewBox="0 0 512 512" enable-background="new 0 0 512 512" xml:space="preserve">
<g>
	<path fill="#DB81DA" class="secondary-color" d="M23.9,431.7l60.9,60.9H23.9V431.7z"></path>
	<path fill="#DB81DA" class="secondary-color" d="M347.2,475.1h-34.7v-34.7h34.7V475.1z M402.4,440.4h-34.7v34.7h34.7V440.4z"></path>
	<path fill="#FFA4ED" class="primary-color" d="M457.7,475.1H423v-34.7h34.7V475.1z"></path>
</g>
<path d="M497.1,254.6c0,4.4-3.6,8-8,8h-43c-4.4,0-8-3.6-8-8s3.6-8,8-8h43C493.5,246.6,497.1,250.1,497.1,254.6z M467.6,276.6h-73.8
	c-4.4,0-8,3.6-8,8s3.6,8,8,8h73.8c4.4,0,8-3.6,8-8S472,276.6,467.6,276.6z M151.8,38.2c0-4.4-3.6-8-8-8H21.7c-4.4,0-8,3.6-8,8
	s3.6,8,8,8h122.1C148.2,46.2,151.8,42.6,151.8,38.2z M179.2,439.2h-3.9v-3.9c0-4.4-3.6-8-8-8s-8,3.6-8,8v3.9h-3.9c-4.4,0-8,3.6-8,8
	s3.6,8,8,8h3.9v3.9c0,4.4,3.6,8,8,8s8-3.6,8-8v-3.9h3.9c4.4,0,8-3.6,8-8S183.6,439.2,179.2,439.2z M445.2,46.2h3.9v3.9
	c0,4.4,3.6,8,8,8s8-3.6,8-8v-3.9h3.9c4.4,0,8-3.6,8-8s-3.6-8-8-8h-3.9v-3.9c0-4.4-3.6-8-8-8s-8,3.6-8,8v3.9h-3.9c-4.4,0-8,3.6-8,8
	S440.8,46.2,445.2,46.2z"></path>
<linearGradient id="SVGID_1_" gradientUnits="userSpaceOnUse" x1="187.1779" y1="359.9538" x2="183.7784" y2="193.3792" class="gradient-element">
	<stop offset="0" class="primary-color-gradient" style="stop-color: #FFA4ED"></stop>
	<stop offset="1" class="secondary-color-gradient" style="stop-color: #DB81DA"></stop>
</linearGradient>
<path fill="url(#SVGID_1_)" d="M291.2,227.7v94c0,19.3-15.8,35-35,35H91.8c-6.4,0-11.6-5.2-11.6-11.6V227.7
	c0-6.4,5.2-11.6,11.6-11.6h187.8C286,216.1,291.2,221.3,291.2,227.7z"></path>
<path d="M416.4,169.2v164.1c0,4.4-3.6,8-8,8s-8-3.6-8-8V169.2c0-4.4,3.6-8,8-8S416.4,164.8,416.4,169.2z M132.7,128l21.1-21.1h149.1
	c18.7,0,25,2.3,43.9,24.8c17.2,20.5,21.5,22.1,38.2,22.1h23.4c4.4,0,8-3.6,8-8v-38.9h7.4v38.9c0,4.4,3.6,8,8,8s8-3.6,8-8V98.9
	c0-4.4-3.6-8-8-8h-23.4c-4.4,0-8,3.6-8,8v38.9h-15.4c-11.7,0-12.2,0-25.9-16.4c-20.8-24.8-31.3-30.5-56.1-30.5H150.5
	c-2.1,0-4.2,0.8-5.7,2.3l-23.4,23.4c-3.1,3.1-3.1,8.2,0,11.3C124.5,131.1,129.6,131.1,132.7,128z M478.7,137.8c-4.4,0-8,3.6-8,8
	v15.4h-40c-4.4,0-8,3.6-8,8s3.6,8,8,8h48c4.4,0,8-3.6,8-8v-23.4C486.7,141.3,483.1,137.8,478.7,137.8z M299.2,333.3V192.6
	c0-17.3-14.1-31.4-31.4-31.4H165.2c-4.4,0-8,3.6-8,8s3.6,8,8,8h102.5c8.5,0,15.4,6.9,15.4,15.4v140.6c0,8.5-6.9,15.4-15.4,15.4h-211
	c-8.5,0-15.4-6.9-15.4-15.4V169.2c0-8.5,6.9-15.4,15.4-15.4h93.8c4.4,0,8-3.6,8-8s-3.6-8-8-8H56.8c-17.3,0-31.4,14.1-31.4,31.4
	v164.1c0,17.3,14.1,31.4,31.4,31.4h211C285.1,364.7,299.2,350.6,299.2,333.3z M478.7,325.3h-46.9c-4.4,0-8,3.6-8,8s3.6,8,8,8h38.9
	v7.4h-38.9c-4.4,0-8,3.6-8,8v38.9h-7.4v-38.9c0-4.4-3.6-8-8-8h-23.4c-16,0-18.6,2.5-38.4,22.3c-19.8,19.8-24.5,24.5-43.7,24.5H150.5
	c-4.4,0-8,3.6-8,8s3.6,8,8,8h152.4c25.7,0,34.3-8.6,55-29.2c9.2-9.2,14.2-14.1,17.6-16.2c2.2-1.3,3.7-1.5,9.5-1.5h15.4v38.9
	c0,4.4,3.6,8,8,8h23.4c4.4,0,8-3.6,8-8v-38.9h38.9c4.4,0,8-3.6,8-8v-23.4C486.7,328.9,483.1,325.3,478.7,325.3z"></path>
</svg>