<svg version="1.1" id="Layer_1" xmlns="http://www.w3.org/2000/svg" xmlns:xlink="http://www.w3.org/1999/xlink" x="0px" y="0px" viewBox="0 0 512 512" enable-background="new 0 0 512 512" xml:space="preserve">
<g>
	<path fill="#DB81DA" class="secondary-color" d="M82.6,453.5v35.2H61.4v-35.2H82.6z M467.6,16.8v77.3h22.5V16.8H467.6z"></path>
	<path fill="#FFA4ED" class="primary-color" d="M479.7,423V484h-60.9L479.7,423z M18.5,488.7h20.4v-35.2H18.5V488.7z M443.9,16.8h-21.6v77.3h21.6V16.8z"></path>
</g>
<path d="M437.8,281.8c0,4.4-3.6,8-8,8h-3.9v3.9c0,4.4-3.6,8-8,8s-8-3.6-8-8v-3.9h-3.9c-4.4,0-8-3.6-8-8s3.6-8,8-8h3.9v-3.9
	c0-4.4,3.6-8,8-8s8,3.6,8,8v3.9h3.9C434.3,273.8,437.8,277.4,437.8,281.8z M326.6,436h-43c-4.4,0-8,3.6-8,8s3.6,8,8,8h43
	c4.4,0,8-3.6,8-8S331,436,326.6,436z M305.1,466h-73.8c-4.4,0-8,3.6-8,8s3.6,8,8,8h73.8c4.4,0,8-3.6,8-8S309.5,466,305.1,466z
	 M436.4,206.6c5.9,0,10.8-4.8,10.8-10.8s-4.8-10.8-10.8-10.8c-5.9,0-10.8,4.8-10.8,10.8S430.5,206.6,436.4,206.6z M347.8,480.2
	c-5.9,0-10.8,4.8-10.8,10.8c0,5.9,4.8,10.8,10.8,10.8c5.9,0,10.8-4.8,10.8-10.8C358.6,485.1,353.8,480.2,347.8,480.2z M75.6,53.2
	H59.8V37.4c0-4.4-3.6-8-8-8s-8,3.6-8,8v15.8H28c-4.4,0-8,3.6-8,8s3.6,8,8,8h15.8V85c0,4.4,3.6,8,8,8s8-3.6,8-8V69.2h15.8
	c4.4,0,8-3.6,8-8S80,53.2,75.6,53.2z M450.6,151.4h3.9v3.9c0,4.4,3.6,8,8,8s8-3.6,8-8v-3.9h3.9c4.4,0,8-3.6,8-8s-3.6-8-8-8h-3.9
	v-3.9c0-4.4-3.6-8-8-8s-8,3.6-8,8v3.9h-3.9c-4.4,0-8,3.6-8,8S446.2,151.4,450.6,151.4z M494,344c0,14.6-11.8,26.4-26.4,26.4
	s-26.4-11.8-26.4-26.4s11.8-26.4,26.4-26.4S494,329.5,494,344z M478,344c0-5.7-4.7-10.4-10.4-10.4s-10.4,4.7-10.4,10.4
	s4.7,10.4,10.4,10.4S478,349.8,478,344z"></path>
<linearGradient id="SVGID_1_" gradientUnits="userSpaceOnUse" x1="234.5306" y1="488.099" x2="234.5306" y2="85.4247" class="gradient-element">
	<stop offset="0" class="primary-color-gradient" style="stop-color: #FFA4ED"></stop>
	<stop offset="1" class="secondary-color-gradient" style="stop-color: #DB81DA"></stop>
</linearGradient>
<path fill="url(#SVGID_1_)" d="M447.1,469.1l-13.6,13.7c-3.3,3.3-8.6,3.3-12,0.1l-101.5-98.7c-4.2-4.1-10.6-4.8-15.6-1.7l-15.7,9
	c-25.8,15-55.6,23.8-87.6,23.8h-1c0-25.1,16.1-47.5,40.1-55c4.8-1.5,9.4-3.2,13.8-5.2l-4.8,0.4c0.5-0.1,1.1-0.1,1.6-0.2l3.7-1.8
	c0.4,0.2,0.8,0.5,1.2,0.8c42.6-19.8,70.7-62.5,70.7-114.3c0-57.5-34.7-103.7-85.3-120c-24.4-7.8-41-30.6-41-56.2v0h1
	c96.9,0,175.7,78.8,175.7,175.7c0,44.2-16.6,84.6-43.6,115.5L447.1,469.1z M287,247h-41.7l0,26.8c-0.1,5.9-4.7,6.7-6,6.8l-196,0v0.1
	l-2.8,0C30.3,280.7,22,291.8,22,302h265V247z"></path>
<path d="M455.1,469.1c0,2.1-0.8,4.2-2.3,5.7l-21.8,21.8c-1.6,1.6-3.6,2.3-5.7,2.3c-2,0-4-0.8-5.6-2.3L304,384.4
	c-3.2-3.1-3.2-8.1-0.2-11.3c3.1-3.2,8.1-3.2,11.3-0.2l110,106.9l10.6-10.6L327.5,360.9c-3-3-3.1-7.8-0.4-10.9
	c26.9-30.7,41.7-69.8,41.7-110.3c0-92.5-75.2-167.7-167.7-167.7S33.3,147.2,33.3,239.7c0,2.3,0,4.7,0.1,7c0.2,4.4-3.2,8.1-7.7,8.3
	c-4.4,0.2-8.1-3.2-8.3-7.7c-0.1-2.5-0.2-5.1-0.2-7.7C17.3,138.4,99.7,55.9,201,55.9c101.3,0,183.7,82.4,183.7,183.7
	c0,41.8-14.4,82.4-40.8,115.1l108.7,108.7C454.2,465,455.1,467,455.1,469.1z M284.6,384.8c-25.5,14.8-54.4,22.7-83.6,22.7
	c-65.8,0-125-38.2-152.4-97.7l35.2,0c12.9,22.9,33,41.4,56.9,52.3c1.1,0.5,2.2,0.7,3.3,0.7c3,0,5.9-1.7,7.3-4.7
	c1.8-4,0.1-8.8-3.9-10.6c-18-8.2-33.6-21.4-44.7-37.8l41.2,0l142.8,0c2.1,0,4.2-0.8,5.7-2.3c1.5-1.5,2.3-3.5,2.3-5.7V247
	c0-4.4-3.6-8-8-8c0,0,0,0,0,0l-203.4,0c0.6-63.9,53-115.8,116.9-115.8c64.5,0,116.9,52.5,116.9,116.9c0,31.4-12.3,60.9-34.6,83.1
	c-22,21.8-51.3,33.9-82.3,33.9c-4.4,0-8,3.6-8,8s3.6,8,8,8c35.3,0,68.5-13.7,93.6-38.5c25.4-25.2,39.4-58.7,39.4-94.4
	c0-73.3-59.6-132.9-132.9-132.9c-35.3,0-68.5,13.7-93.6,38.5c-25,24.8-39,57.9-39.3,93.2c0,0.4,0,7.7,0,8.1c0,4.4,3.6,8,8,8h123.3
	l80.1,0v38.7l-134.8,0l-122.3,0v-18.6c0-4.4-3.6-8-8-8s-8,3.6-8,8v26.6c0,2.1,0.8,4.2,2.3,5.7c1.5,1.5,3.5,2.3,5.7,2.3l17.8,0
	c0.1,0.3,0.2,0.6,0.3,0.9c13.8,33,36.9,61.1,66.6,81.3c30.5,20.7,66.1,31.6,102.9,31.6c32,0,63.7-8.6,91.6-24.8
	c3.8-2.2,5.1-7.1,2.9-10.9C293.3,383.8,288.4,382.5,284.6,384.8z"></path>
</svg>