<svg version="1.1" id="Layer_1" xmlns="http://www.w3.org/2000/svg" xmlns:xlink="http://www.w3.org/1999/xlink" x="0px" y="0px" viewBox="0 0 512 512" enable-background="new 0 0 512 512" xml:space="preserve">
<linearGradient id="SVGID_1_" gradientUnits="userSpaceOnUse" x1="324.1658" y1="453.0468" x2="324.1658" y2="75.6923" class="gradient-element">
	<stop offset="0" class="primary-color-gradient" style="stop-color: #FFA4ED"></stop>
	<stop offset="1" class="secondary-color-gradient" style="stop-color: #DB81DA"></stop>
</linearGradient>
<path fill="url(#SVGID_1_)" d="M282.5,352.6c0.4,0.2,0.8,0.5,1.2,0.8c42.6-19.8,70.7-62.5,70.7-114.3c0-57.5-34.7-103.7-85.3-120
	c-24.4-7.8-41-30.6-41-56.2v0h1c96.9,0,175.7,78.8,175.7,175.7c0,44.2-16.6,84.6-43.6,115.5l113.9,113.9l-13.6,13.7
	c-3.3,3.3-8.6,3.3-12,0.1L348,383.3c-4.2-4.1-10.6-4.8-15.6-1.7l-15.7,9c-25.8,15-55.6,23.8-87.6,23.8h-1c0-25.1,16.1-47.5,40.1-55
	c4.8-1.5,9.4-3.2,13.8-5.2l-4.8,0.4c0.5-0.1,1.1-0.1,1.6-0.2L282.5,352.6z M219.2,268.5L219.2,268.5l48.2,0.1c1.3,0.1,5.9,1,6,6.8
	l0,26.5l43.9,0l1.2-55.5L226,246l0.1-84.1c-1.4-1.8-3.6-2.9-6-2.9l-39.4,0c-4.2,0-7.6,3.4-7.6,7.6l0,7c0,4.2,3.4,7.6,7.6,7.6l10.8,0
	c0,0,6.4,0,6.4,7l0,61.9c0,10.2,8.2,18.4,18.4,18.4L219.2,268.5z M199.2,387.8l28.4,0l0-93.7h-4.2c-15.1,0-27.3,12.2-27.3,27.3V376
	c-0.1,1.3-1,6-7,6c-7,0,7.8,7.4,8.2,7.4C197.5,389.4,198.3,388.7,199.2,387.8z"></path>
<path d="M426.8,110.3c0,4.4-3.6,8-8,8h-43c-4.4,0-8-3.6-8-8s3.6-8,8-8h43C423.2,102.3,426.8,105.9,426.8,110.3z M416.4,132.3h-73.8
	c-4.4,0-8,3.6-8,8s3.6,8,8,8h73.8c4.4,0,8-3.6,8-8S420.8,132.3,416.4,132.3z M458,272.8h-3.9v-3.9c0-4.4-3.6-8-8-8s-8,3.6-8,8v3.9
	h-3.9c-4.4,0-8,3.6-8,8s3.6,8,8,8h3.9v3.9c0,4.4,3.6,8,8,8s8-3.6,8-8v-3.9h3.9c4.4,0,8-3.6,8-8S462.4,272.8,458,272.8z M465.6,68.6
	c4.2-4.2,4.2-11,0-15.2c-4.2-4.2-11-4.2-15.2,0c-4.2,4.2-4.2,11,0,15.2C454.6,72.8,461.4,72.8,465.6,68.6z M54.9,90.8
	c4.4,0,8-3.6,8-8s-3.6-8-8-8c-5.7,0-10.4-4.7-10.4-10.4S49.2,54,54.9,54c4.4,0,8-3.6,8-8s-3.6-8-8-8c-14.6,0-26.4,11.8-26.4,26.4
	S40.4,90.8,54.9,90.8z M354.7,435h-43c-4.4,0-8,3.6-8,8s3.6,8,8,8h43c4.4,0,8-3.6,8-8S359.1,435,354.7,435z M333.2,465h-73.8
	c-4.4,0-8,3.6-8,8s3.6,8,8,8h73.8c4.4,0,8-3.6,8-8S337.6,465,333.2,465z M464.6,184.1c-5.9,0-10.8,4.8-10.8,10.8s4.8,10.8,10.8,10.8
	s10.8-4.8,10.8-10.8S470.5,184.1,464.6,184.1z M39,329.4c0.4,0.6,0.8,1.1,1.3,1.6c4.2,4.2,11,4.2,15.2,0c4.2-4.2,4.2-11,0-15.2
	s-11-4.2-15.2,0c-0.3,0.3-0.5,0.5-0.7,0.8c-1.9-2.9-5.2-4.8-8.9-4.8c-5.9,0-10.8,4.8-10.8,10.8s4.8,10.8,10.8,10.8
	C34,333.3,37,331.8,39,329.4z M376,479.2c-5.9,0-10.8,4.8-10.8,10.8c0,5.9,4.8,10.8,10.8,10.8s10.8-4.8,10.8-10.8
	C386.7,484.1,381.9,479.2,376,479.2z M76.2,372.5H41.1c-3.6,0-6.5,2.9-6.5,6.5s2.9,6.5,6.5,6.5h35.1c3.6,0,6.5-2.9,6.5-6.5
	S79.8,372.5,76.2,372.5z"></path>
<path d="M480.8,462.5L372.1,353.7c26.4-32.7,40.8-73.2,40.8-115.1c0-101.3-82.4-183.7-183.7-183.7S45.4,137.4,45.4,238.7
	s82.4,183.7,183.7,183.7c32,0,63.7-8.6,91.6-24.8c3.8-2.2,5.1-7.1,2.9-10.9c-2.2-3.8-7.1-5.1-10.9-2.9
	c-25.5,14.8-54.4,22.7-83.5,22.7c-19.6,0-38.4-3.4-55.9-9.6l53.3,0c2.1,0,4.2-0.8,5.7-2.3c1.5-1.5,2.3-3.5,2.3-5.7l0-16.9
	c32.9-1.5,63.6-15,87.2-38.3c25.4-25.2,39.4-58.7,39.4-94.4c0-73.3-59.6-132.9-132.9-132.9c-35.3,0-68.5,13.7-93.6,38.5
	c-25,24.8-39,57.9-39.3,93.2c0,0.4,0,7.7,0,8.1c0,4.4,3.6,8,8,8h68.7c2.1,0,4.2-0.8,5.7-2.3c1.5-1.5,2.3-3.5,2.3-5.7l0-80.1l38.7,0
	l0,80.1c0,2.1,0.8,4.2,2.3,5.7c1.5,1.5,3.5,2.3,5.7,2.3l80.1,0v38.7l-80.1,0c-2.1,0-4.2,0.8-5.7,2.3c-1.5,1.5-2.3,3.5-2.3,5.7
	l0,80.1l-38.7,0l0-25.3c0.3-1.2,0.3-2.4,0-3.5l0-51.3c0-2.1-0.8-4.2-2.3-5.7c-1.5-1.5-3.5-2.3-5.7-2.3l-68.7,0c-4.4,0-8,3.6-8,8
	s3.6,8,8,8l8.6,0c12,21.3,30.3,38.8,52,49.9l0,30.2c0,2,0.7,3.8,1.9,5.2c-61.2-25-104.4-85.2-104.4-155.3
	c0-92.5,75.2-167.7,167.7-167.7s167.7,75.2,167.7,167.7c0,40.4-14.8,79.6-41.7,110.3c-2.8,3.2-2.6,7.9,0.4,10.9l108.3,108.3
	l-10.6,10.6l-110-106.9c-3.2-3.1-8.2-3-11.3,0.2c-3.1,3.2-3,8.2,0.2,11.3l115.6,112.4c1.6,1.5,3.6,2.3,5.6,2.3c2,0,4.1-0.8,5.7-2.3
	l21.8-21.8c1.5-1.5,2.3-3.5,2.3-5.7S482.3,464,480.8,462.5z M314.7,308.7c2.1,0,4.2-0.8,5.7-2.3c1.5-1.5,2.3-3.5,2.3-5.7V246
	c0-4.4-3.6-8-8-8c0,0,0,0,0,0l-80.1,0l0-80.1c0-2.1-0.8-4.2-2.3-5.7c-1.5-1.5-3.5-2.3-5.7-2.3l-54.7,0c-4.4,0-8,3.6-8,8l0,80.1
	h-52.7c0.6-63.9,53-115.8,116.9-115.8c64.5,0,116.9,52.5,116.9,116.9c0,31.4-12.3,60.9-34.6,83.1c-20.5,20.3-47.3,32.2-75.9,33.7
	l0-47.2L314.7,308.7z M130.7,308.7l33.2,0l0,31.6C150.8,332.2,139.4,321.4,130.7,308.7z"></path>
</svg>