<svg id="Layer_1" enable-background="new 0 0 512 512" height="512" viewBox="0 0 512 512" width="512" xmlns="http://www.w3.org/2000/svg"><g><path d="m256 81.643c8.284 0 15-6.716 15-15v-51.643c0-8.284-6.716-15-15-15s-15 6.716-15 15v51.643c0 8.284 6.716 15 15 15z"/><path d="m497 241h-51.643c-8.284 0-15 6.716-15 15s6.716 15 15 15h51.643c8.284 0 15-6.716 15-15s-6.716-15-15-15z"/><path d="m66.643 271c8.284 0 15-6.716 15-15s-6.716-15-15-15h-51.643c-8.284 0-15 6.716-15 15s6.716 15 15 15z"/><path d="m389.896 137.104c3.839 0 7.678-1.464 10.606-4.394l36.517-36.517c5.858-5.858 5.858-15.355 0-21.213-5.857-5.858-15.355-5.858-21.213 0l-36.517 36.517c-5.858 5.858-5.858 15.355 0 21.213 2.93 2.93 6.769 4.394 10.607 4.394z"/><path d="m111.498 132.71c2.929 2.929 6.768 4.394 10.606 4.394s7.678-1.464 10.606-4.394c5.858-5.858 5.858-15.355 0-21.213l-36.517-36.517c-5.857-5.858-15.355-5.858-21.213 0s-5.858 15.355 0 21.213z"/><path d="m322.912 94.993c1.883.782 3.832 1.152 5.751 1.152 5.879 0 11.46-3.479 13.857-9.248l19.818-47.688c3.179-7.65-.445-16.429-8.095-19.608-7.652-3.179-16.429.445-19.608 8.095l-19.818 47.688c-3.178 7.651.446 16.43 8.095 19.609z"/><path d="m27.697 177.364 47.688 19.818c1.883.782 3.832 1.152 5.751 1.152 5.879 0 11.46-3.479 13.857-9.248 3.179-7.65-.445-16.429-8.095-19.608l-47.688-19.817c-7.65-3.178-16.429.444-19.608 8.095-3.179 7.65.445 16.429 8.095 19.608z"/><path d="m417.163 189.466c2.389 5.785 7.979 9.28 13.871 9.28 1.907 0 3.846-.366 5.718-1.139l47.734-19.707c7.658-3.161 11.303-11.932 8.142-19.589-3.162-7.658-11.934-11.302-19.589-8.141l-47.734 19.707c-7.659 3.161-11.303 11.932-8.142 19.589z"/><path d="m169.876 86.696c2.389 5.785 7.979 9.28 13.871 9.28 1.907 0 3.846-.366 5.718-1.139 7.658-3.161 11.303-11.932 8.142-19.589l-19.707-47.735c-3.162-7.658-11.934-11.302-19.589-8.141-7.658 3.161-11.303 11.931-8.142 19.589z"/><path d="m483.5 301.001h-95.994c4.925-14.424 7.494-29.653 7.494-45 0-76.645-62.355-139-139-139s-139 62.355-139 139c0 15.347 2.569 30.577 7.494 45h-95.994c-8.284 0-15 6.716-15 15s6.716 15 15 15h455c8.284 0 15-6.716 15-15s-6.716-15-15-15zm-227.5-154.001c60.103 0 109 48.897 109 109 0 15.548-3.336 30.941-9.703 45h-198.594c-6.367-14.059-9.703-29.452-9.703-45 0-60.103 48.897-109 109-109z"/><path d="m448 361.001h-384c-8.284 0-15 6.716-15 15s6.716 15 15 15h384c8.284 0 15-6.716 15-15s-6.716-15-15-15z"/><path d="m387 421.001h-262c-8.284 0-15 6.716-15 15s6.716 15 15 15h262c8.284 0 15-6.716 15-15s-6.716-15-15-15z"/><path d="m337.134 482h-162.268c-8.284 0-15 6.716-15 15s6.716 15 15 15h162.268c8.284 0 15-6.716 15-15s-6.716-15-15-15z"/></g></svg>