<svg id="Layer_1" enable-background="new 0 0 512 512" height="512" viewBox="0 0 512 512" width="512" xmlns="http://www.w3.org/2000/svg"><g><path d="m76 290c-8.284 0-15 6.716-15 15v88.792c0 8.284 6.716 15 15 15s15-6.716 15-15v-88.792c0-8.284-6.715-15-15-15z"/><path d="m136.001 312c-8.284 0-15 6.716-15 15v118c0 8.284 6.716 15 15 15s15-6.716 15-15v-118c0-8.284-6.716-15-15-15z"/><path d="m196.001 358c-8.284 0-15 6.716-15 15v111c0 8.284 6.716 15 15 15s15-6.716 15-15v-111c0-8.284-6.716-15-15-15z"/><path d="m256 378c-8.284 0-15 6.716-15 15v104c0 8.284 6.716 15 15 15s15-6.716 15-15v-104c0-8.284-6.715-15-15-15z"/><path d="m316.001 358c-8.284 0-15 6.716-15 15v111c0 8.284 6.716 15 15 15s15-6.716 15-15v-111c0-8.284-6.715-15-15-15z"/><path d="m376 312c-8.284 0-15 6.716-15 15v118c0 8.284 6.716 15 15 15s15-6.716 15-15v-118c0-8.284-6.715-15-15-15z"/><path d="m436 290c-8.284 0-15 6.716-15 15v88.792c0 8.284 6.716 15 15 15s15-6.716 15-15v-88.792c0-8.284-6.715-15-15-15z"/><path d="m487.315 104.782c-12.107-10.685-27.321-16.969-43.189-18.096-3.629-12.755-10.702-24.347-20.614-33.53-13.53-12.535-31.145-19.438-49.598-19.438-14.554 0-28.673 4.418-40.559 12.348-5.468-10.061-12.888-19.063-21.865-26.365-15.618-12.704-35.324-19.701-55.49-19.701s-39.872 6.997-55.49 19.7c-8.977 7.302-16.397 16.304-21.865 26.365-11.885-7.929-26.004-12.347-40.558-12.347-18.454 0-36.068 6.903-49.598 19.438-9.91 9.181-16.982 20.771-20.612 33.522-37.871 2.638-67.877 34.292-67.877 72.822 0 20.918 8.989 40.854 24.662 54.698 12.061 10.652 27.211 16.937 43.02 18.102 8.53 31.036 37.106 53.701 70.406 53.701 14.679 0 28.904-4.488 40.845-12.537 5.494 9.945 12.903 18.838 21.833 26.045 15.573 12.57 35.189 19.492 55.235 19.492s39.662-6.922 55.235-19.492c8.929-7.207 16.338-16.1 21.832-26.045 11.94 8.049 26.166 12.537 40.846 12.537 33.302 0 61.878-22.662 70.405-53.701 15.808-1.165 30.96-7.45 43.021-18.102 15.672-13.843 24.66-33.78 24.66-54.698 0-20.93-8.998-40.874-24.685-54.718zm-19.836 86.931c-9.25 8.17-21.597 11.979-33.856 10.454-4.088-.507-8.208.687-11.39 3.308-3.181 2.62-5.144 6.434-5.428 10.545-1.547 22.419-20.387 39.981-42.892 39.981-13.823 0-26.458-6.399-34.666-17.557-3.476-4.725-9.384-6.992-15.133-5.798-5.744 1.193-10.266 5.625-11.573 11.345-6.057 26.501-29.308 45.011-56.541 45.011-27.234 0-50.485-18.509-56.542-45.011-1.307-5.719-5.829-10.152-11.573-11.345-1.017-.211-2.039-.314-3.052-.314-4.709 0-9.221 2.223-12.082 6.112-8.208 11.158-20.843 17.557-34.666 17.557-22.505 0-41.345-17.562-42.893-39.981-.284-4.111-2.247-7.925-5.427-10.545-3.181-2.62-7.299-3.815-11.39-3.308-12.269 1.524-24.606-2.284-33.856-10.454-9.226-8.151-14.519-19.892-14.519-32.213 0-23.71 19.29-43 43-43 1.806 0 3.629.114 5.419.338 4.059.508 8.151-.664 11.326-3.244 3.175-2.581 5.158-6.346 5.489-10.424 1.799-22.123 20.623-39.452 42.854-39.452 13.763 0 26.366 6.355 34.576 17.435 3.5 4.723 9.436 6.968 15.185 5.738 5.749-1.228 10.25-5.7 11.515-11.441 5.803-26.335 29.622-45.45 56.636-45.45s50.833 19.114 56.636 45.45c1.265 5.741 5.767 10.213 11.515 11.441 5.758 1.231 11.687-1.016 15.186-5.738 8.211-11.08 20.813-17.435 34.577-17.435 22.231 0 41.055 17.329 42.854 39.452.331 4.078 2.314 7.844 5.489 10.425s7.267 3.753 11.326 3.243c12.276-1.536 24.622 2.267 33.883 10.438 9.237 8.151 14.534 19.897 14.534 32.224 0 12.321-5.292 24.062-14.521 32.213z"/></g></svg>