<svg id="Layer_1" enable-background="new 0 0 512.001 512.001" height="512" viewBox="0 0 512.001 512.001" width="512" xmlns="http://www.w3.org/2000/svg"><g clip-rule="evenodd" fill-rule="evenodd"><path d="m444.319 232.3c15.808-1.165 30.96-7.45 43.021-18.102 15.672-13.843 24.661-33.779 24.661-54.697 0-20.93-8.998-40.874-24.686-54.718-12.108-10.685-27.322-16.97-43.19-18.096-3.629-12.755-10.703-24.347-20.614-33.53-13.53-12.535-31.145-19.438-49.598-19.438-14.554 0-28.673 4.418-40.558 12.347-5.467-10.061-12.888-19.063-21.865-26.365-15.618-12.704-35.324-19.701-55.49-19.701s-39.872 6.997-55.49 19.7c-8.977 7.302-16.397 16.304-21.865 26.365-11.885-7.929-26.004-12.347-40.558-12.347-18.454 0-36.068 6.903-49.598 19.438-9.91 9.181-16.982 20.771-20.612 33.522-37.871 2.638-67.877 34.292-67.877 72.822 0 20.918 8.989 40.854 24.662 54.698 12.061 10.652 27.211 16.937 43.02 18.102 8.528 31.039 37.104 53.701 70.406 53.701 14.679 0 28.904-4.488 40.845-12.537 5.494 9.945 12.903 18.838 21.833 26.045 15.573 12.57 35.189 19.492 55.235 19.492s39.663-6.922 55.235-19.492c8.929-7.207 16.338-16.1 21.832-26.045 11.941 8.049 26.166 12.537 40.845 12.537 33.3 0 61.876-22.666 70.406-53.701zm-27.513-16.28c-1.547 22.419-20.388 39.981-42.893 39.981-13.822 0-26.458-6.399-34.666-17.557-3.477-4.726-9.389-6.993-15.133-5.798-5.744 1.193-10.266 5.625-11.573 11.345-6.057 26.501-29.307 45.011-56.541 45.011s-50.485-18.509-56.542-45.011c-1.307-5.719-5.829-10.152-11.573-11.345-1.017-.211-2.039-.314-3.052-.314-4.709 0-9.221 2.223-12.082 6.112-8.208 11.158-20.843 17.557-34.666 17.557-22.504 0-41.345-17.562-42.893-39.981-.284-4.111-2.247-7.925-5.427-10.545-3.181-2.62-7.297-3.813-11.39-3.307-12.271 1.523-24.606-2.283-33.856-10.454-9.226-8.152-14.519-19.893-14.519-32.214 0-23.71 19.29-43 43-43 1.806 0 3.629.114 5.419.338 4.059.506 8.151-.664 11.326-3.244s5.158-6.346 5.489-10.424c1.799-22.123 20.623-39.452 42.854-39.452 13.763 0 26.366 6.355 34.576 17.435 3.5 4.723 9.436 6.968 15.185 5.738 5.749-1.228 10.25-5.7 11.515-11.441 5.803-26.335 29.622-45.45 56.636-45.45s50.833 19.114 56.636 45.45c1.265 5.741 5.767 10.213 11.515 11.441 5.75 1.229 11.686-1.016 15.185-5.738 8.211-11.08 20.813-17.435 34.576-17.435 22.231 0 41.055 17.33 42.854 39.452.332 4.078 2.315 7.844 5.49 10.424 3.175 2.581 7.27 3.751 11.327 3.243 12.276-1.535 24.623 2.267 33.882 10.438 9.238 8.152 14.536 19.897 14.536 32.224 0 12.32-5.293 24.061-14.521 32.212-9.25 8.171-21.588 11.981-33.857 10.454-4.093-.51-8.209.687-11.39 3.308-3.181 2.622-5.144 6.435-5.427 10.547z"/><path d="m297.5 440h-5.287l3.739-3.739c5.858-5.858 5.858-15.355 0-21.213-5.857-5.858-15.355-5.858-21.213 0l-3.739 3.74v-5.787c0-8.284-6.716-15-15-15s-15 6.716-15 15v5.787l-4.092-4.092c-5.857-5.858-15.355-5.858-21.213 0s-5.858 15.355 0 21.213l4.092 4.092h-5.287c-8.284 0-15 6.716-15 15s6.716 15 15 15h5.287l-3.739 3.739c-5.858 5.858-5.858 15.355 0 21.213 2.929 2.929 6.768 4.394 10.606 4.394s7.678-1.464 10.606-4.394l3.739-3.739v5.786c0 8.284 6.716 15 15 15s15-6.716 15-15v-5.787l4.092 4.092c2.929 2.929 6.768 4.394 10.606 4.394s7.678-1.464 10.606-4.394c5.858-5.858 5.858-15.355 0-21.213l-4.09-4.092h5.287c8.284 0 15-6.716 15-15s-6.715-15-15-15z"/><path d="m98 345h-5.287l3.739-3.739c5.858-5.858 5.858-15.355 0-21.213-5.857-5.858-15.355-5.858-21.213 0l-3.739 3.739v-5.787c0-8.284-6.716-15-15-15s-15 6.716-15 15v5.787l-4.092-4.092c-5.857-5.858-15.355-5.858-21.213 0s-5.858 15.355 0 21.213l4.093 4.092h-5.288c-8.284 0-15 6.716-15 15s6.716 15 15 15h5.287l-3.739 3.739c-5.858 5.858-5.858 15.355 0 21.213 2.929 2.929 6.768 4.394 10.606 4.394s7.678-1.464 10.606-4.394l3.739-3.739v5.787c0 8.284 6.716 15 15 15s15-6.716 15-15v-5.787l4.092 4.092c2.929 2.929 6.768 4.394 10.606 4.394s7.678-1.464 10.606-4.394c5.858-5.858 5.858-15.355 0-21.213l-4.09-4.092h5.287c8.284 0 15-6.716 15-15s-6.715-15-15-15z"/><path d="m497 345h-5.287l3.739-3.739c5.858-5.858 5.858-15.355 0-21.213-5.857-5.858-15.355-5.858-21.213 0l-3.739 3.739v-5.787c0-8.284-6.716-15-15-15s-15 6.716-15 15v5.787l-4.092-4.092c-5.857-5.858-15.355-5.858-21.213 0s-5.858 15.355 0 21.213l4.092 4.092h-5.287c-8.284 0-15 6.716-15 15s6.716 15 15 15h5.287l-3.739 3.739c-5.858 5.858-5.858 15.355 0 21.213 2.929 2.929 6.768 4.394 10.606 4.394s7.678-1.464 10.606-4.394l3.739-3.739v5.787c0 8.284 6.716 15 15 15s15-6.716 15-15v-5.787l4.092 4.092c2.929 2.929 6.768 4.394 10.606 4.394s7.678-1.464 10.606-4.394c5.858-5.858 5.858-15.355 0-21.213l-4.09-4.092h5.287c8.284 0 15-6.716 15-15s-6.715-15-15-15z"/><path d="m172.501 344c-8.262 0-15 6.738-15 15s6.738 15 15 15 15-6.739 15-15-6.738-15-15-15z"/><path d="m339.501 344c-8.262 0-15 6.738-15 15s6.738 15 15 15 15-6.739 15-15-6.738-15-15-15z"/><path d="m91.001 482c-8.262 0-15 6.738-15 15s6.739 15 15 15 15-6.738 15-15-6.738-15-15-15z"/><path d="m421.001 482c-8.262 0-15 6.738-15 15s6.739 15 15 15c8.262 0 15-6.738 15-15s-6.738-15-15-15z"/></g></svg>