<svg id="Layer_1" enable-background="new 0 0 512.001 512.001" height="512" viewBox="0 0 512.001 512.001" width="512" xmlns="http://www.w3.org/2000/svg"><g><path d="m487.315 105.033c-12.108-10.685-27.322-16.97-43.189-18.096-3.629-12.756-10.703-24.348-20.614-33.531-13.53-12.535-31.145-19.438-49.599-19.438-14.554 0-28.673 4.418-40.558 12.347-5.467-10.061-12.888-19.063-21.865-26.365-15.618-12.703-35.324-19.7-55.49-19.7s-39.872 6.997-55.49 19.7c-8.977 7.302-16.397 16.304-21.865 26.365-11.885-7.929-26.004-12.347-40.558-12.347-18.454 0-36.068 6.903-49.598 19.438-9.91 9.181-16.982 20.771-20.612 33.522-37.871 2.638-67.877 34.292-67.877 72.822 0 20.918 8.989 40.854 24.662 54.698 12.061 10.652 27.211 16.937 43.02 18.102 8.53 31.036 37.106 53.701 70.406 53.701 14.679 0 28.904-4.488 40.845-12.537 5.494 9.945 12.903 18.838 21.833 26.045 15.573 12.57 35.189 19.492 55.235 19.492s39.663-6.922 55.235-19.492c8.929-7.207 16.338-16.1 21.832-26.045 11.941 8.049 26.166 12.537 40.845 12.537 33.3 0 61.876-22.666 70.406-53.701 15.808-1.165 30.96-7.45 43.021-18.102 15.672-13.843 24.661-33.779 24.661-54.697 0-20.93-8.998-40.875-24.686-54.718zm-19.836 86.93c-9.25 8.17-21.589 11.98-33.857 10.454-4.093-.508-8.209.687-11.39 3.308-3.181 2.62-5.144 6.434-5.427 10.545-1.547 22.419-20.388 39.981-42.893 39.981-13.822 0-26.458-6.399-34.666-17.557-3.477-4.726-9.389-6.992-15.133-5.798-5.744 1.193-10.266 5.625-11.573 11.345-6.057 26.501-29.307 45.011-56.541 45.011s-50.485-18.509-56.542-45.011c-1.307-5.719-5.829-10.152-11.573-11.345-1.017-.211-2.039-.314-3.052-.314-4.709 0-9.221 2.223-12.082 6.112-8.208 11.158-20.843 17.557-34.666 17.557-22.505 0-41.345-17.562-42.893-39.981-.284-4.111-2.247-7.925-5.427-10.545s-7.298-3.814-11.39-3.308c-12.268 1.526-24.606-2.283-33.856-10.454-9.225-8.151-14.518-19.892-14.518-32.213 0-23.71 19.29-43 43-43 1.806 0 3.629.114 5.419.338 4.061.508 8.15-.663 11.326-3.244 3.175-2.581 5.158-6.346 5.489-10.424 1.799-22.123 20.623-39.452 42.854-39.452 13.763 0 26.366 6.355 34.576 17.435 3.5 4.723 9.436 6.968 15.185 5.738 5.749-1.228 10.25-5.7 11.515-11.441 5.803-26.336 29.622-45.45 56.637-45.45 27.014 0 50.833 19.114 56.636 45.45 1.265 5.741 5.767 10.213 11.515 11.441 5.751 1.229 11.686-1.016 15.185-5.738 8.211-11.08 20.813-17.435 34.576-17.435 22.231 0 41.055 17.329 42.854 39.452.332 4.078 2.315 7.844 5.49 10.425s7.271 3.753 11.327 3.243c12.274-1.534 24.623 2.267 33.882 10.438 9.238 8.152 14.536 19.897 14.536 32.224-.001 12.321-5.294 24.062-14.523 32.213z"/><path d="m157.511 350.25h-5.287l3.738-3.738c5.858-5.858 5.858-15.355 0-21.213-5.857-5.858-15.355-5.858-21.213 0l-3.739 3.739v-5.787c0-8.284-6.716-15-15-15s-15 6.716-15 15v5.787l-4.092-4.092c-5.857-5.858-15.355-5.858-21.213 0s-5.858 15.355 0 21.213l4.092 4.092h-5.287c-8.284 0-15 6.716-15 15s6.716 15 15 15h5.288l-3.739 3.739c-5.858 5.858-5.858 15.355 0 21.213 2.929 2.929 6.768 4.394 10.606 4.394s7.678-1.464 10.606-4.394l3.738-3.738v5.787c0 8.284 6.716 15 15 15s15-6.716 15-15v-5.788l4.092 4.092c2.929 2.929 6.768 4.394 10.606 4.394s7.678-1.464 10.606-4.394c5.858-5.858 5.858-15.355 0-21.213l-4.092-4.092h5.288c8.284 0 15-6.716 15-15s-6.714-15.001-14.998-15.001z"/><path d="m274.347 405.344c-4.345-6.372-9.271-13.594-18.346-13.594s-14 7.222-18.346 13.594c-3.437 5.04-7.314 11.416-10.917 17.953-10.443 18.95-15.738 33.57-15.738 43.453 0 24.813 20.187 45 45 45s45-20.187 45-45c0-9.884-5.295-24.504-15.738-43.453-3.601-6.537-7.478-12.913-10.915-17.953zm-18.347 76.406c-8.271 0-15-6.729-15-15 0-5.858 7.876-21.986 15-34.294 7.125 12.308 15 28.436 15 34.294.001 8.271-6.728 15-15 15z"/><path d="m428.262 318.344c-4.345-6.372-9.271-13.594-18.346-13.594s-14 7.222-18.346 13.594c-3.437 5.04-7.314 11.416-10.917 17.953-10.443 18.95-15.738 33.569-15.738 43.453 0 24.813 20.187 45 45 45s45-20.187 45-45c0-9.884-5.295-24.503-15.738-43.453-3.601-6.537-7.478-12.913-10.915-17.953zm-18.346 76.406c-8.271 0-15-6.729-15-15 0-5.858 7.876-21.986 15-34.294 7.125 12.308 15 28.436 15 34.294 0 8.271-6.729 15-15 15z"/></g></svg>