<svg id="Layer_1" enable-background="new 0 0 512 512" height="512" viewBox="0 0 512 512" width="512" xmlns="http://www.w3.org/2000/svg"><g><path d="m474.848 113.413c-4.363-3.373-10.227-4.079-15.267-1.84-13.277 5.901-27.997 8.382-42.583 7.171-24.567-2.039-46.441-13.864-61.59-33.298-15.169-19.459-21.303-43.609-17.273-68 .899-5.442-1.261-10.938-5.624-14.312s-10.227-4.081-15.267-1.84c-39.21 17.426-65.77 54.791-69.314 97.511-.386 4.645-.477 9.279-.318 13.892-5.232-1.214-10.61-1.853-16.032-1.853-16.296 0-32.223 5.654-44.845 15.921-6.292 5.118-11.638 11.27-15.828 18.118-9.005-5.237-19.344-8.121-29.966-8.121-15.063 0-29.44 5.635-40.484 15.867-7.489 6.938-12.993 15.563-16.119 25.067-29.775 3.28-53.013 28.589-53.013 59.224 0 17.074 7.337 33.346 20.129 44.646 9.231 8.153 20.68 13.171 32.709 14.548 7.712 24.136 30.435 41.515 56.778 41.515 10.728 0 21.156-2.935 30.216-8.265 4.201 6.761 9.531 12.832 15.784 17.879 12.586 10.158 28.438 15.753 44.639 15.753 16.199 0 32.052-5.595 44.638-15.753 6.253-5.047 11.584-11.118 15.784-17.879 9.061 5.329 19.49 8.265 30.217 8.265 26.345 0 49.066-17.378 56.778-41.515 12.028-1.377 23.478-6.396 32.708-14.548 12.793-11.299 20.13-27.572 20.13-44.646 0-9.784-2.419-19.299-6.883-27.772 29.222-17.549 49.892-47.353 55.521-81.422.899-5.443-1.261-10.939-5.625-14.313zm-83.003 145.666c-6.459 5.705-14.729 8.262-23.3 7.193-4.088-.506-8.208.688-11.39 3.308-3.181 2.62-5.144 6.434-5.428 10.545-1.063 15.422-14.025 27.502-29.509 27.502-9.51 0-18.204-4.404-23.853-12.083-3.477-4.725-9.391-6.99-15.134-5.798-5.744 1.193-10.266 5.625-11.572 11.345-4.293 18.784-20.774 31.903-40.08 31.903s-35.788-13.119-40.081-31.903c-1.308-5.719-5.829-10.151-11.573-11.344-1.017-.211-2.038-.314-3.051-.314-4.71 0-9.222 2.223-12.082 6.113-5.648 7.678-14.342 12.082-23.852 12.082-15.483 0-28.445-12.081-29.511-27.503-.283-4.111-2.246-7.925-5.427-10.545s-7.301-3.814-11.39-3.307c-8.564 1.068-16.84-1.488-23.3-7.193-6.441-5.69-9.989-13.56-9.989-22.161 0-16.313 13.271-29.584 29.584-29.584 1.246 0 2.503.078 3.736.232 4.052.507 8.149-.664 11.324-3.245s5.157-6.346 5.488-10.424c1.237-15.217 14.188-27.138 29.483-27.138 9.469 0 18.141 4.374 23.791 11.999 3.501 4.723 9.436 6.966 15.186 5.738 5.749-1.228 10.25-5.701 11.515-11.442 4.112-18.666 20.997-32.213 40.147-32.213 19.149 0 36.034 13.548 40.147 32.214 1.265 5.741 5.767 10.213 11.516 11.441 5.753 1.229 11.686-1.016 15.185-5.738 5.65-7.625 14.321-11.998 23.791-11.998 15.295 0 28.245 11.92 29.483 27.138.331 4.078 2.314 7.844 5.489 10.424 3.176 2.581 7.271 3.751 11.326 3.243 8.369-1.049 16.456 1.367 22.852 6.793.427.429.873.836 1.345 1.207 5.887 5.616 9.121 13.149 9.121 21.352.004 8.601-3.544 16.471-9.987 22.161zm12.124-72.586c-7.624-4.792-16.225-7.794-25.143-8.789-3.126-9.508-8.631-18.136-16.123-25.077-11.044-10.232-25.421-15.867-40.483-15.867-10.623 0-20.962 2.884-29.967 8.121-3.314-5.417-7.361-10.387-12.017-14.765-2.397-9.379-3.218-19.071-2.408-28.831 1.907-22.984 12.769-43.886 29.669-58.606 2.088 22.114 10.409 43.451 24.253 61.21 20.064 25.74 50.232 42.052 82.77 44.752 9.46.784 18.969.412 28.287-1.079-8.37 16.638-21.969 30.419-38.838 38.931z"/><path d="m249.926 405.594c-4.345-6.372-9.27-13.594-18.346-13.594s-14.001 7.222-18.347 13.594c-3.437 5.041-7.313 11.416-10.916 17.953-10.443 18.95-15.738 33.569-15.738 43.454 0 24.813 20.188 45 45.001 45s45-20.187 45-45c0-9.884-5.295-24.504-15.738-43.453-3.601-6.538-7.478-12.914-10.916-17.954zm-18.345 76.406c-8.271 0-15.001-6.729-15.001-15 0-5.858 7.876-21.987 15.001-34.294 7.124 12.308 15 28.436 15 34.294 0 8.271-6.729 15-15 15z"/><path d="m121.329 360.458c-4.345-6.372-9.27-13.594-18.346-13.594s-14.001 7.222-18.346 13.594c-3.438 5.04-7.314 11.416-10.916 17.953-10.443 18.949-15.738 33.569-15.738 43.453 0 24.813 20.187 45 45 45s45-20.187 45-45c0-9.884-5.295-24.504-15.738-43.453-3.602-6.537-7.479-12.913-10.916-17.953zm-18.346 76.406c-8.271 0-15-6.729-15-15 0-5.858 7.876-21.986 15-34.294 7.124 12.308 15 28.436 15 34.294 0 8.271-6.728 15-15 15z"/><path d="m378.524 360.458c-4.345-6.372-9.27-13.594-18.346-13.594s-14.001 7.222-18.346 13.594c-3.438 5.04-7.314 11.416-10.916 17.953-10.443 18.949-15.738 33.569-15.738 43.453 0 24.813 20.187 45 45 45s45-20.187 45-45c0-9.884-5.295-24.504-15.738-43.453-3.601-6.537-7.478-12.913-10.916-17.953zm-18.346 76.406c-8.271 0-15-6.729-15-15 0-5.858 7.876-21.986 15-34.294 7.124 12.308 15 28.436 15 34.294 0 8.271-6.728 15-15 15z"/></g></svg>