<svg id="Layer_1" enable-background="new 0 0 512.001 512.001" height="512" viewBox="0 0 512.001 512.001" width="512" xmlns="http://www.w3.org/2000/svg"><g><path d="m138.087 286c14.679 0 28.904-4.488 40.846-12.537 5.494 9.946 12.902 18.838 21.832 26.045 15.573 12.57 35.189 19.492 55.235 19.492s39.662-6.922 55.235-19.492c8.93-7.208 16.338-16.099 21.832-26.045 11.942 8.05 26.167 12.537 40.846 12.537 33.3 0 61.876-22.666 70.405-53.701 15.809-1.165 30.961-7.45 43.021-18.102 15.672-13.843 24.661-33.78 24.661-54.697 0-20.93-8.997-40.874-24.686-54.718-12.108-10.685-27.322-16.969-43.189-18.096-3.629-12.755-10.703-24.348-20.614-33.53-13.53-12.535-31.145-19.438-49.599-19.438-14.553 0-28.674 4.419-40.559 12.347-5.467-10.061-12.888-19.063-21.864-26.364-15.618-12.704-35.324-19.701-55.489-19.701s-39.871 6.996-55.489 19.7c-8.978 7.302-16.397 16.304-21.865 26.365-11.885-7.928-26.006-12.347-40.559-12.347-18.454 0-36.068 6.903-49.599 19.438-9.909 9.181-16.981 20.77-20.611 33.522-37.871 2.638-67.877 34.292-67.877 72.822 0 20.917 8.988 40.854 24.661 54.697 12.061 10.653 27.211 16.938 43.021 18.102 8.527 31.039 37.103 53.701 70.405 53.701zm-59.709-83.833c-12.262 1.528-24.606-2.284-33.856-10.455-9.229-8.15-14.522-19.892-14.522-32.212 0-23.71 19.29-43 43-43 1.807 0 3.63.114 5.419.338 4.059.506 8.151-.664 11.325-3.244 3.175-2.581 5.158-6.346 5.489-10.424 1.799-22.123 20.622-39.452 42.854-39.452 13.764 0 26.366 6.354 34.576 17.434 3.499 4.723 9.434 6.969 15.185 5.739 5.749-1.228 10.251-5.7 11.516-11.441 5.803-26.335 29.622-45.45 56.636-45.45 27.015 0 50.834 19.114 56.637 45.449 1.265 5.741 5.767 10.214 11.516 11.441 5.752 1.229 11.686-1.016 15.185-5.739 8.21-11.08 20.813-17.434 34.576-17.434 22.231 0 41.055 17.33 42.854 39.452.331 4.078 2.314 7.844 5.489 10.424s7.268 3.753 11.326 3.243c12.275-1.535 24.623 2.267 33.882 10.438 9.238 8.152 14.536 19.897 14.536 32.225 0 12.32-5.293 24.061-14.521 32.212-9.251 8.17-21.598 11.979-33.857 10.454-4.088-.507-8.208.687-11.39 3.308-3.181 2.62-5.144 6.434-5.428 10.545-1.547 22.421-20.387 39.982-42.892 39.982-13.822 0-26.458-6.399-34.666-17.558-3.478-4.727-9.392-6.991-15.134-5.798-5.744 1.193-10.266 5.625-11.572 11.345-6.057 26.502-29.307 45.011-56.541 45.011s-50.484-18.509-56.541-45.011c-1.307-5.719-5.828-10.152-11.572-11.345-1.018-.211-2.039-.314-3.053-.314-4.708 0-9.22 2.223-12.081 6.112-8.208 11.159-20.844 17.558-34.666 17.558-22.505 0-41.345-17.562-42.892-39.981-.284-4.111-2.247-7.925-5.428-10.545s-7.295-3.816-11.389-3.307z"/><path d="m313.845 354.031c-.204-.008-217.633-.031-217.633-.031-8.284 0-15 6.716-15 15s6.716 15 15 15h216.414c26.862.188 48.659 22.091 48.659 48.996 0 27.021-21.983 49.004-49.005 49.004-11.115 0-22.01-3.833-30.678-10.791-6.461-5.188-15.901-4.153-21.088 2.306-5.186 6.46-4.153 15.901 2.307 21.087 13.973 11.22 31.538 17.398 49.458 17.398 43.563 0 79.005-35.441 79.005-79.004 0-43.038-34.598-78.125-77.439-78.965z"/><path d="m224.435 413.001h-69.519c-8.284 0-15 6.716-15 15s6.716 15 15 15h69.519c8.284 0 15-6.716 15-15s-6.716-15-15-15z"/><path d="m46.21 354h-30c-8.284 0-15 6.716-15 15s6.716 15 15 15h30c8.284 0 15-6.716 15-15s-6.716-15-15-15z"/><path d="m456.352 273c-12.589 0-24.927 4.34-34.742 12.221-6.46 5.187-7.492 14.628-2.306 21.088 5.186 6.458 14.627 7.493 21.087 2.305 4.51-3.62 10.178-5.614 15.961-5.614 14.058 0 25.495 11.437 25.495 25.496 0 14.052-11.427 25.485-25.476 25.495h-43.787c-8.284 0-15 6.716-15 15s6.716 15 15 15c0 0 49.062-.136 50.123-.375 27.616-3.165 49.139-26.67 49.139-55.121.001-30.599-24.895-55.495-55.494-55.495z"/></g></svg>