<svg id="Layer_1" enable-background="new 0 0 512 512" height="512" viewBox="0 0 512 512" width="512" xmlns="http://www.w3.org/2000/svg"><g><path d="m474.848 113.413c-4.363-3.373-10.228-4.081-15.267-1.84-13.278 5.902-28.002 8.384-42.583 7.171-24.568-2.039-46.441-13.864-61.59-33.298-15.169-19.459-21.303-43.609-17.272-68 .898-5.442-1.262-10.938-5.625-14.312s-10.227-4.081-15.267-1.84c-39.21 17.426-65.77 54.791-69.315 97.511-.385 4.64-.489 9.275-.33 13.888-5.228-1.212-10.602-1.85-16.02-1.85-16.296 0-32.222 5.654-44.844 15.921-6.292 5.118-11.638 11.27-15.828 18.118-9.005-5.237-19.344-8.121-29.966-8.121-15.063 0-29.44 5.635-40.484 15.866-7.489 6.938-12.993 15.563-16.119 25.067-29.775 3.28-53.013 28.589-53.013 59.224 0 17.074 7.337 33.347 20.129 44.646 9.231 8.153 20.679 13.171 32.708 14.548 7.712 24.136 30.434 41.515 56.778 41.515 10.727 0 21.156-2.936 30.216-8.265 4.2 6.761 9.531 12.831 15.784 17.878 12.585 10.158 28.438 15.753 44.638 15.753s32.052-5.595 44.638-15.753c6.253-5.047 11.584-11.118 15.784-17.879 9.061 5.329 19.49 8.265 30.217 8.265 26.345 0 49.066-17.379 56.778-41.515 12.028-1.377 23.479-6.396 32.708-14.549 12.793-11.299 20.13-27.572 20.13-44.646 0-9.787-2.421-19.305-6.887-27.779 29.206-17.56 49.91-47.427 55.525-81.415.901-5.439-1.259-10.936-5.623-14.309zm-83.003 145.666c-6.459 5.706-14.734 8.263-23.3 7.194-4.08-.506-8.207.687-11.39 3.308-3.181 2.62-5.144 6.434-5.428 10.545-1.063 15.422-14.025 27.502-29.509 27.502-9.51 0-18.204-4.404-23.853-12.083-3.477-4.726-9.391-6.99-15.134-5.798-5.744 1.193-10.266 5.625-11.572 11.345-4.293 18.784-20.774 31.903-40.08 31.903s-35.788-13.119-40.081-31.903c-1.307-5.719-5.829-10.152-11.573-11.345-1.017-.211-2.039-.314-3.051-.314-4.709 0-9.221 2.223-12.082 6.112-5.648 7.679-14.342 12.083-23.852 12.083-15.483 0-28.445-12.081-29.51-27.502-.284-4.111-2.247-7.925-5.427-10.545-3.181-2.62-7.3-3.816-11.389-3.308-8.566 1.069-16.841-1.488-23.3-7.193-6.442-5.69-9.99-13.561-9.99-22.161 0-16.313 13.271-29.584 29.584-29.584 1.246 0 2.501.078 3.733.232 4.062.51 8.152-.663 11.326-3.243 3.175-2.581 5.159-6.346 5.49-10.424 1.237-15.218 14.188-27.138 29.483-27.138 9.469 0 18.141 4.373 23.791 11.998 3.5 4.723 9.437 6.967 15.185 5.738 5.749-1.228 10.251-5.7 11.516-11.441 4.113-18.666 20.998-32.214 40.148-32.214s36.034 13.548 40.147 32.214c1.265 5.741 5.767 10.214 11.516 11.441 5.753 1.231 11.686-1.016 15.185-5.739 5.649-7.625 14.321-11.998 23.791-11.998 15.295 0 28.245 11.92 29.483 27.138.331 4.078 2.314 7.844 5.489 10.424 3.176 2.581 7.265 3.751 11.327 3.243 8.571-1.073 16.852 1.477 23.316 7.182 6.448 5.69 10 13.563 10 22.169.002 8.602-3.546 16.472-9.989 22.162zm12.109-72.596c-7.62-4.786-16.216-7.784-25.128-8.779-3.126-9.508-8.631-18.136-16.123-25.077-11.044-10.231-25.421-15.866-40.483-15.866-10.623 0-20.962 2.883-29.967 8.121-3.331-5.443-7.401-10.436-12.087-14.83-.043-.214-.072-.428-.125-.643-2.258-9.157-3.002-18.62-2.214-28.124 1.908-22.984 12.769-43.886 29.669-58.606 2.088 22.114 10.409 43.451 24.253 61.21 20.064 25.74 50.232 42.052 82.769 44.752 9.455.785 18.959.412 28.273-1.076-8.376 16.623-21.988 30.412-38.837 38.918z"/><path d="m156.825 406h-5.287l3.739-3.739c5.858-5.858 5.858-15.355 0-21.213-5.857-5.858-15.355-5.858-21.213 0l-3.739 3.739v-5.787c0-8.284-6.716-15-15-15s-15 6.716-15 15v5.787l-4.092-4.092c-5.857-5.858-15.355-5.858-21.213 0s-5.858 15.355 0 21.213l4.093 4.092h-5.287c-8.284 0-15 6.716-15 15s6.716 15 15 15h5.287l-3.739 3.739c-5.858 5.858-5.858 15.355 0 21.213 2.929 2.929 6.768 4.394 10.606 4.394s7.678-1.464 10.606-4.394l3.739-3.739v5.787c0 8.284 6.716 15 15 15s15-6.716 15-15v-5.787l4.092 4.092c2.929 2.929 6.768 4.394 10.606 4.394s7.678-1.464 10.606-4.394c5.858-5.858 5.858-15.355 0-21.213l-4.091-4.092h5.287c8.284 0 15-6.716 15-15s-6.715-15-15-15z"/><path d="m329.826 440h-5.288l3.739-3.739c5.858-5.858 5.858-15.355 0-21.213-5.857-5.858-15.355-5.858-21.213 0l-3.738 3.738v-5.786c0-8.284-6.716-15-15-15s-15 6.716-15 15v5.787l-4.092-4.092c-5.856-5.858-15.355-5.858-21.213 0-5.858 5.857-5.858 15.355 0 21.213l4.092 4.092h-5.288c-8.284 0-15 6.716-15 15s6.716 15 15 15h5.287l-3.738 3.738c-5.858 5.857-5.858 15.355 0 21.213 2.929 2.929 6.767 4.394 10.606 4.394 3.838 0 7.678-1.465 10.606-4.394l3.739-3.739v5.788c0 8.284 6.716 15 15 15s15-6.716 15-15v-5.787l4.092 4.092c2.929 2.929 6.768 4.394 10.606 4.394s7.678-1.465 10.606-4.394c5.858-5.858 5.858-15.355 0-21.213l-4.09-4.092h5.287c8.284 0 15-6.716 15-15s-6.716-15-15-15z"/></g></svg>