<svg id="Layer_1" enable-background="new 0 0 512 512" height="512" viewBox="0 0 512 512" width="512" xmlns="http://www.w3.org/2000/svg"><g><path d="m438.998 173.996c0-8.284-6.716-15-15-15h-.338l.598-1.035c4.143-7.174 1.685-16.348-5.49-20.49-7.175-4.144-16.349-1.685-20.49 5.49l-9.258 16.035h-61.804l43.703-43.702 17.885 4.792c1.3.349 2.605.515 3.892.515 6.622 0 12.684-4.42 14.479-11.122 2.144-8.002-2.605-16.227-10.607-18.371l-1.154-.309.239-.239c5.858-5.857 5.858-15.355 0-21.213-5.857-5.858-15.355-5.857-21.213 0l-.239.239-.309-1.155c-2.145-8.002-10.372-12.752-18.371-10.607-8.002 2.144-12.751 10.369-10.607 18.371l4.792 17.886-43.701 43.701v-61.804l16.034-9.257c7.175-4.142 9.633-13.316 5.49-20.49-4.143-7.176-13.317-9.631-20.49-5.49l-1.034.597v-.338c0-8.284-6.716-15-15-15s-15 6.716-15 15v265.991c0 8.284 6.716 15 15 15s15-6.716 15-15v-.337l1.034.597c2.362 1.364 4.941 2.012 7.486 2.012 5.184 0 10.226-2.69 13.004-7.502 4.143-7.174 1.685-16.348-5.49-20.49l-16.034-9.257v-61.804l43.701 43.701-4.792 17.886c-2.144 8.002 2.605 16.227 10.607 18.371 1.301.349 2.605.515 3.892.515 6.622 0 12.684-4.42 14.479-11.122l.309-1.154.239.239c2.929 2.929 6.768 4.394 10.606 4.394s7.678-1.464 10.606-4.394c5.858-5.858 5.857-15.355 0-21.213l-.239-.239 1.154-.309c8.002-2.144 12.751-10.369 10.607-18.371-2.145-8.002-10.373-12.752-18.371-10.606l-17.885 4.792-43.702-43.701h61.804l9.258 16.035c2.778 4.813 7.82 7.502 13.004 7.502 2.545 0 5.124-.648 7.486-2.012 7.175-4.142 9.633-13.316 5.49-20.49l-.597-1.035h.338c8.283-.003 14.999-6.719 14.999-15.003z"/><path d="m246.002 317.738v-252.738c0-35.841-29.159-65-65-65s-65 29.159-65 65v252.738c-27.071 20.372-43 52.034-43 86.262 0 59.551 48.448 108 108 108s108-48.449 108-108c0-34.228-15.929-65.89-43-86.262zm-65 164.262c-43.01 0-78-34.991-78-78 0-26.762 13.486-51.355 36.075-65.787 4.314-2.756 6.925-7.521 6.925-12.641v-260.572c0-19.299 15.701-35 35-35s35 15.701 35 35v260.573c0 5.119 2.61 9.885 6.925 12.641 22.589 14.431 36.075 39.024 36.075 65.786 0 43.009-34.99 78-78 78z"/><path d="m196.002 361.58v-296.58c0-8.284-6.716-15-15-15s-15 6.716-15 15v296.58c-17.459 6.192-30 22.865-30 42.419 0 24.813 20.187 45 45 45s45-20.187 45-45c0-19.554-12.541-36.227-30-42.419zm-15 57.42c-8.271 0-15-6.729-15-15s6.729-15 15-15 15 6.729 15 15-6.729 15-15 15z"/></g></svg>