<svg id="Layer_1" enable-background="new 0 0 512 512" height="512" viewBox="0 0 512 512" width="512" xmlns="http://www.w3.org/2000/svg"><g><path d="m234.501 317.738v-252.738c0-35.841-29.159-65-65-65s-65 29.159-65 65v252.738c-27.071 20.372-43 52.034-43 86.262 0 59.551 48.448 108 108 108s108-48.449 108-108c0-34.228-15.929-65.89-43-86.262zm-65 164.262c-43.01 0-78-34.991-78-78 0-26.762 13.486-51.355 36.075-65.787 4.314-2.756 6.925-7.521 6.925-12.641v-260.572c0-19.299 15.701-35 35-35s35 15.701 35 35v260.573c0 5.119 2.61 9.885 6.925 12.641 22.589 14.431 36.075 39.024 36.075 65.786 0 43.009-34.99 78-78 78z"/><path d="m184.501 361.58v-296.58c0-8.284-6.716-15-15-15s-15 6.716-15 15v296.58c-17.459 6.192-30 22.865-30 42.419 0 24.813 20.187 45 45 45s45-20.187 45-45c0-19.554-12.541-36.227-30-42.419zm-15 57.42c-8.271 0-15-6.729-15-15s6.729-15 15-15 15 6.729 15 15-6.729 15-15 15z"/><path d="m279.501 79.625c-8.284 0-15 6.716-15 15s6.716 15 15 15c34.118 0 61.876 27.758 61.876 61.877 0 34.118-27.758 61.876-61.876 61.876-8.284 0-15 6.716-15 15s6.716 15 15 15c50.66 0 91.876-41.216 91.876-91.876 0-50.662-41.216-91.877-91.876-91.877z"/><path d="m279.5 56c8.284 0 15-6.716 15-15v-25.999c0-8.284-6.716-15-15-15s-15 6.716-15 15v25.999c0 8.284 6.716 15 15 15z"/><path d="m279.5 287.001c-8.284 0-15 6.716-15 15v25.999c0 8.284 6.716 15 15 15s15-6.716 15-15v-25.999c0-8.284-6.716-15-15-15z"/><path d="m435.499 156.501h-25.998c-8.284 0-15 6.716-15 15s6.716 15 15 15h25.998c8.284 0 15-6.716 15-15s-6.716-15-15-15z"/><path d="m371.778 94.223c3.839 0 7.678-1.464 10.606-4.394l18.384-18.384c5.858-5.858 5.858-15.355 0-21.213-5.857-5.858-15.355-5.858-21.213 0l-18.384 18.384c-5.858 5.858-5.858 15.355 0 21.213 2.93 2.929 6.768 4.394 10.607 4.394z"/><path d="m382.031 252.818c-5.857-5.858-15.355-5.857-21.213 0-5.857 5.858-5.858 15.355 0 21.213l18.383 18.384c2.929 2.929 6.768 4.394 10.606 4.394s7.678-1.465 10.606-4.393c5.857-5.858 5.858-15.355 0-21.213z"/></g></svg>