<svg id="Layer_1" enable-background="new 0 0 512 512" height="512" viewBox="0 0 512 512" width="512" xmlns="http://www.w3.org/2000/svg"><g><path d="m295.82 65.928c3.301-6.256 5.18-13.375 5.18-20.928 0-24.813-20.187-45-45-45s-45 20.187-45 45c0 7.553 1.879 14.672 5.181 20.928-105.03 18.85-184.983 110.899-184.983 221.27 0 123.956 100.846 224.802 224.802 224.802s224.802-100.846 224.802-224.802c0-110.371-79.953-202.419-184.982-221.27zm-39.82-35.928c8.271 0 15 6.729 15 15s-6.729 15-15 15-15-6.729-15-15 6.729-15 15-15zm0 452c-107.414 0-194.802-87.388-194.802-194.802s87.388-194.802 194.802-194.802 194.802 87.388 194.802 194.802-87.388 194.802-194.802 194.802z"/><path d="m373.313 171.037c-.21-.238-.413-.481-.641-.709-.241-.241-.496-.456-.749-.677-29.852-29.443-70.811-47.651-115.923-47.651-45.305 0-86.404 18.336-116.279 47.972-.13.121-.267.229-.393.356-.106.106-.195.221-.297.328-29.788 29.896-48.229 71.105-48.229 116.542 0 8.284 6.716 15 15 15h17c8.284 0 15-6.716 15-15s-6.716-15-15-15h-1.163c2.895-26.103 13.249-49.986 28.88-69.466l.83.83c2.929 2.929 6.768 4.394 10.606 4.394s7.678-1.464 10.606-4.394c5.858-5.858 5.858-15.355 0-21.213l-.808-.808c19.441-15.533 43.242-25.819 69.247-28.703v1.162c0 8.284 6.716 15 15 15s15-6.716 15-15v-1.162c25.995 2.886 49.794 13.177 69.236 28.713l-.797.797c-5.858 5.858-5.858 15.355 0 21.213 2.929 2.929 6.768 4.394 10.606 4.394s7.678-1.464 10.606-4.394l.819-.819c15.594 19.431 25.94 43.24 28.867 69.258h-1.337c-8.284 0-15 6.716-15 15s6.716 15 15 15c0 0 17.211-.002 17.218-.002 8.284-.011 14.991-6.736 14.98-15.02-.061-45.153-18.355-86.121-47.885-115.941z"/><path d="m324.021 219.176c-5.857-5.858-15.355-5.858-21.213 0l-62.639 62.639c-6.935-3.313-14.676-4.843-22.517-4.293-8.264.577-14.496 7.744-13.919 16.008s7.737 14.5 16.008 13.919c4.333-.305 8.579 1.286 11.65 4.357 3.024 3.024 4.616 7.207 4.368 11.476-.48 8.27 5.835 15.364 14.105 15.844.296.018.59.026.883.026 7.886-.001 14.498-6.157 14.961-14.131.444-7.652-1.096-15.206-4.331-21.986l62.644-62.645c5.858-5.859 5.858-15.356 0-21.214z"/><path d="m342 395h-172c-8.284 0-15 6.716-15 15s6.716 15 15 15h172c8.284 0 15-6.716 15-15s-6.716-15-15-15z"/></g></svg>