<svg id="Layer_1" enable-background="new 0 0 513.001 513.001" height="512" viewBox="0 0 513.001 513.001" width="512" xmlns="http://www.w3.org/2000/svg"><path d="m468.001 273.251h-26.312c1.459-3.301 2.682-6.708 3.637-10.202 15.805-1.167 30.955-7.451 43.013-18.102 15.672-13.843 24.661-33.779 24.661-54.697 0-20.93-8.998-40.874-24.686-54.718-12.108-10.685-27.322-16.969-43.189-18.095-3.629-12.756-10.703-24.348-20.615-33.531-13.53-12.535-31.145-19.438-49.598-19.438-14.554 0-28.673 4.417-40.558 12.347-5.467-10.061-12.888-19.063-21.865-26.364-15.618-12.704-35.325-19.7-55.49-19.7s-39.872 6.996-55.49 19.7c-8.977 7.302-16.397 16.304-21.865 26.365-11.885-7.93-26.004-12.347-40.558-12.347-18.454 0-36.068 6.903-49.598 19.438-9.91 9.18-16.982 20.771-20.612 33.522-37.87 2.637-67.876 34.291-67.876 72.821 0 28.622 16.589 54.224 42.052 66.126-.029.666-.051 1.334-.051 2.007 0 24.813 20.187 45 45 45h31.581c-1.671 4.679-2.581 9.69-2.581 14.868 0 5.257.906 10.307 2.57 15h-74.571c-24.813 0-45 20.187-45 45s20.187 45 45 45h182.062c-1.458 4.434-2.24 9.146-2.24 14 0 24.813 20.187 45 45 45h134.152c24.813 0 45-20.187 45-45s-20.187-45-45-45h-42.062c1.458-4.434 2.24-9.147 2.24-14 0-5.257-.906-10.306-2.57-15h106.418c24.813 0 45-20.187 45-45s-20.186-45-44.999-45zm-437.001-83.001c0-23.71 19.29-43 43-43 1.806 0 3.629.114 5.419.338 4.061.505 8.15-.664 11.326-3.244 3.175-2.581 5.158-6.346 5.489-10.424 1.799-22.123 20.622-39.452 42.854-39.452 13.763 0 26.366 6.354 34.576 17.435 3.5 4.723 9.436 6.969 15.185 5.738 5.749-1.228 10.25-5.7 11.515-11.441 5.803-26.335 29.622-45.45 56.637-45.45s50.833 19.114 56.636 45.449c1.265 5.741 5.767 10.214 11.515 11.441 5.749 1.227 11.685-1.016 15.185-5.738 8.21-11.08 20.813-17.435 34.576-17.435 22.231 0 41.055 17.33 42.854 39.452.332 4.078 2.315 7.844 5.49 10.424 3.176 2.581 7.27 3.754 11.327 3.243 12.272-1.535 24.622 2.266 33.882 10.438 9.238 8.152 14.536 19.897 14.536 32.225 0 12.32-5.293 24.061-14.521 32.212-9.25 8.17-21.591 11.979-33.857 10.454-4.095-.51-8.209.687-11.39 3.308-3.181 2.62-5.144 6.434-5.427 10.545-.685 9.925-4.789 19.252-11.612 26.481h-49.775c1.671-4.679 2.581-9.69 2.581-14.868 0-24.813-20.187-45-45-45h-226.001c-13.362 0-25.375 5.86-33.624 15.137-14.207-7.278-23.376-21.938-23.376-38.268zm437.001 143.001h-148.848c-8.284 0-15 6.716-15 15s6.716 15 15 15c8.271 0 15 6.729 15 15 0 6.788-4.603 12.752-11.192 14.504-7.28 1.936-11.995 8.97-11.019 16.44.976 7.469 7.341 13.056 14.874 13.056h77.16c8.271 0 15 6.729 15 15s-6.729 15-15 15h-134.154c-8.271 0-15-6.729-15-15 0-6.787 4.603-12.751 11.192-14.504 7.28-1.936 11.995-8.97 11.019-16.44-.976-7.469-7.341-13.056-14.874-13.056h-217.159c-8.271 0-15-6.729-15-15s6.729-15 15-15h117c8.284 0 15-6.716 15-15s-6.716-15-15-15c-8.271 0-15-6.729-15-15 0-7.66 5.974-14.219 13.601-14.933 7.978-.746 13.96-7.63 13.586-15.634s-6.971-14.301-14.983-14.301h-71.204c-8.271 0-15-6.729-15-15s6.729-15 15-15h226c8.271 0 15 6.729 15 15 0 7.66-5.974 14.219-13.601 14.933-7.977.746-13.96 7.63-13.586 15.634.374 8.003 6.971 14.3 14.983 14.3h151.204c8.271 0 15 6.729 15 15s-6.728 15.001-14.999 15.001z"/></svg>