<svg id="Layer_1" enable-background="new 0 0 512 512" height="512" viewBox="0 0 512 512" width="512" xmlns="http://www.w3.org/2000/svg"><path d="m467 289.501h-47.874c23.955-18.6 42.299-44.026 52.283-73.729 1.757-5.228.503-10.999-3.265-15.026-3.769-4.027-9.441-5.664-14.776-4.257-20.423 5.382-42.12 5.519-62.749.397-34.765-8.631-63.392-30.674-80.606-62.067-17.236-31.434-20.427-67.495-8.982-101.539 1.758-5.229.504-11-3.264-15.027s-9.441-5.663-14.776-4.257c-55.481 14.622-98.526 58.263-112.337 113.893-8.473 34.128-5.102 70.012 9.05 101.745h-91.704c-24.813 0-45 20.187-45 45s20.187 45 45 45h31.581c-1.671 4.68-2.581 9.69-2.581 14.868 0 5.257.906 10.306 2.57 15h-74.57c-24.813 0-45 20.187-45 45s20.187 45 45 45h182.062c-1.458 4.434-2.239 9.146-2.239 14 0 24.813 20.187 45 45 45h134.152c24.813 0 45-20.187 45-45s-20.187-45-45-45h-42.062c1.457-4.434 2.239-9.146 2.239-14 0-5.257-.906-10.307-2.57-15h105.418c24.813 0 45-20.187 45-45s-20.187-45.001-45-45.001zm-267.23-154.384c9.015-36.312 33.434-66.308 66.116-82.747-4.534 33.128 1.567 67.229 17.822 96.873 20.981 38.263 57.314 66.241 99.683 76.76 15.917 3.952 32.354 5.37 48.605 4.257-16.432 27.871-43.089 48.585-75.007 57.536 1.307-4.184 2.012-8.609 2.012-13.163 0-24.813-20.187-45-45-45h-100.637c-16.583-28.419-21.561-62.429-13.594-94.516zm267.23 214.383h-147.847c-8.284 0-15 6.716-15 15s6.716 15 15 15c8.271 0 14.999 6.729 14.999 15 0 6.788-4.602 12.752-11.19 14.504-7.28 1.935-11.996 8.97-11.021 16.439.977 7.47 7.341 13.057 14.874 13.057h77.159c8.271 0 15 6.729 15 15s-6.729 15-15 15h-134.152c-8.271 0-15-6.729-15-15 0-6.788 4.603-12.752 11.191-14.503 7.28-1.936 11.996-8.97 11.021-16.44-.977-7.47-7.341-13.057-14.874-13.057h-217.16c-8.271 0-15-6.729-15-15s6.729-15 15-15h117c8.284 0 15-6.716 15-15s-6.716-15-15-15c-8.271 0-15-6.729-15-15 0-7.66 5.974-14.22 13.601-14.933 7.978-.746 13.96-7.63 13.587-15.634-.374-8.003-6.972-14.301-14.984-14.301h-71.204c-8.271 0-15-6.729-15-15s6.729-15 15-15h116.968.089 108.943c8.271 0 15 6.729 15 15 0 7.66-5.975 14.219-13.602 14.933-7.978.746-13.96 7.63-13.586 15.634.373 8.003 6.971 14.3 14.983 14.3h150.205c8.271 0 15 6.729 15 15s-6.729 15.001-15 15.001z"/></svg>