<svg id="Layer_1" enable-background="new 0 0 512 512" height="512" viewBox="0 0 512 512" width="512" xmlns="http://www.w3.org/2000/svg"><path d="m426.232 89.745c-42.015-35.743-96.668-56.669-155.232-59.729v-15.016c0-8.284-6.716-15-15-15s-15 6.716-15 15v15.016c-58.564 3.06-113.217 23.986-155.232 59.728-46.281 39.37-71.768 91.921-71.768 147.972l.004.348c.035 8.254 6.737 14.936 15 14.936h181.996v184c0 41.355 33.645 75 75 75h26c24.813 0 45-20.187 45-45s-20.187-45-44.98-45l-11.02-.014v-168.986h181.996c8.26 0 14.96-6.675 15-14.925l.004-.358c0-56.052-25.487-108.603-71.768-147.972zm-226.542-23.748c-5.678 8.41-10.928 18.191-15.658 29.294-14.808 34.762-23.575 79.657-25.065 127.709h-114.25c7.369-75.307 70.751-137.486 154.973-157.003zm112.31 386.003c8.271 0 15 6.729 15 15s-6.729 15-15 15h-26c-24.813 0-45-20.187-45-45v-24h30v23.965c0 8.276 6.704 14.989 14.98 15zm-41-69h-30v-130h30zm-82.021-160c1.445-44.015 9.36-84.748 22.653-115.952 12.654-29.704 29.24-47.438 44.368-47.438s31.714 17.734 44.368 47.438c13.293 31.205 21.208 71.938 22.653 115.952zm164.054 0c-1.49-48.053-10.257-92.947-25.065-127.709-4.73-11.103-9.98-20.884-15.658-29.294 84.222 19.517 147.604 81.696 154.973 157.003z"/></svg>