<svg id="Layer_1" enable-background="new 0 0 512 512" height="512" viewBox="0 0 512 512" width="512" xmlns="http://www.w3.org/2000/svg"><g><path d="m501.03 94.241-23.533-7.314c-3.214-12.229-9.575-23.19-18.156-31.978-15.942-33.477-49.769-54.949-87.017-54.949-26.496 0-49.47 9.053-66.438 26.181-19.892 20.08-30.227 49.805-29.886 85.96.077 8.214 6.747 14.838 14.961 14.859l44.885.113v58.847h-187.766v-12.884c0-40.763-32.55-74.586-73.31-74.981-41.16-.398-74.77 32.968-74.77 74.037v158.868c0 8.233 6.64 14.986 14.873 15 41.414.069 75.127-33.603 75.127-75v-69.535c0-6.37 3.792-12.277 9.759-14.507 8.021-2.997 16.465 1.341 19.29 8.815.008.021.016.043.024.064.625 1.631.93 3.349.927 5.096v.028c0 95.131 73.27 173.362 165.999 180.542v46.543h-92.199l-39.553-37c-6.226-5.823-16.094-5.32-21.683 1.247-5.235 6.152-4.4 15.434 1.499 20.952l15.822 14.801h-20.463c-8.077 0-15.027 6.207-15.407 14.275-.406 8.614 6.458 15.725 14.983 15.725h20.838l-15.777 14.759c-5.883 5.504-6.73 14.754-1.53 20.907 2.993 3.542 7.228 5.334 11.473 5.334 3.672 0 7.352-1.34 10.244-4.046l39.504-36.954h92.248v38.531c0 8.077 6.207 15.027 14.275 15.407 8.614.406 15.725-6.458 15.725-14.983v-38.955h132.602l-8.844 12.192c-4.863 6.706-3.37 16.085 3.336 20.949 2.66 1.93 5.741 2.859 8.794 2.859 4.643 0 9.221-2.148 12.155-6.194l26.101-35.984c3.853-5.312 3.806-12.511-.116-17.772l-26.135-35.06c-5.096-6.835-14.9-8.087-21.563-2.614-6.241 5.126-7.064 14.408-2.237 20.883l8.007 10.741h-132.099v-46.736c91.711-8.209 163.858-85.953 163.858-180.35v-71.228l21.596-6.713c6.804-2.115 11.256-8.766 10.454-16.008-.668-6.023-5.089-10.971-10.877-12.77zm-396.03 61.759c-24.813 0-45 20.187-45 45v70c0 19.556-12.539 36.239-30 42.43v-140.444c0-24.35 19.919-45.018 44.269-44.893 18.97.097 35.14 12.248 41.228 29.169-3.396-.827-6.915-1.262-10.497-1.262zm222.199-108.706c11.368-11.475 26.551-17.294 45.125-17.294 8.133 0 16.028 1.49 23.371 4.255-31.318 5.351-55.794 30.982-59.38 62.86l-29.697-.075c2.039-21.078 9.043-38.099 20.581-49.746zm122.658 153.666c0 83.306-67.258 151.08-149.929 151.08-77.65 0-141.702-59.786-149.195-136.08h200.113c8.284 0 15-6.716 15-15v-95.03c0-23.067 18.295-42.368 41.359-42.717 11.283-.171 21.574 4.138 29.223 11.252.077.074.154.149.232.221 8.116 7.664 13.197 18.51 13.197 30.528z"/><path d="m409.025 98.034c-9.067-.609-16.6 6.925-15.991 15.992.474 7.055 5.993 12.952 13.007 13.849 9.788 1.252 18.085-7.045 16.833-16.833-.896-7.015-6.793-12.534-13.849-13.008z"/></g></svg>