<svg id="Layer_1" enable-background="new 0 0 512 512" height="512" viewBox="0 0 512 512" width="512" xmlns="http://www.w3.org/2000/svg"><path d="m499.198 122.681c-35.896-5.316-71.806-10.647-107.699-15.976l-89.006-13.205c-34.429-5.104-68.863-10.208-103.283-15.334-.011-.002-.023-.002-.034-.003-3.851-.574-8.03.476-11.184 2.846l-97.992 73.603v-48.611c0-11.759-4.539-22.474-11.951-30.499 7.412-8.025 11.951-18.741 11.951-30.501 0-24.813-20.187-45-45-45s-45 20.187-45 45c0 11.76 4.539 22.475 11.951 30.501-7.412 8.024-11.951 18.74-11.951 30.499v390.998c0 8.284 6.716 15 15 15h60c8.284 0 15-6.716 15-15v-282.626s98.045 72.661 98.069 72.68c1.229.911 2.616 1.629 4.061 2.127.656.227 1.328.406 2.01.538 1.662.322 3.384.369 5.06.121 49.98-7.407 99.99-14.823 149.972-22.24l60.289-8.943c29.912-4.437 59.833-8.874 89.742-13.315 7.353-1.091 12.797-7.403 12.797-14.837v-92.984c0-7.437-5.447-13.75-12.802-14.839zm-196.848 1.126c-.224 1.03-.349 2.097-.349 3.194v110c0 2.532.633 4.914 1.741 7.007-10.581 1.57-21.16 3.138-31.741 4.708v-129.412c8.698 1.29 17.395 2.583 26.092 3.872zm-120.35 121.407-81.883-60.682 81.883-61.504zm-137-215.213c8.271 0 15 6.729 15 15s-6.729 15.001-15 15.001-15-6.729-15-15.001 6.729-15 15-15zm-15 451.998v-375.998c0-8.271 6.729-14.999 15-14.999s15 6.729 15 14.999v375.998zm182-371.6c9.999 1.487 20 2.968 30 4.452v138.313c-10 1.483-20.001 2.967-30 4.45zm132.768 127.524c-4.348.645-8.698 1.29-13.047 1.935.179-.926.279-1.879.279-2.857v-108.795l30 4.451v102.71zm60.291-8.944-13.058 1.937v-93.809c9.998 1.484 20 2.967 30 4.451v84.908c-5.647.838-11.295 1.676-16.942 2.513zm76.941-11.414c-9.999 1.484-19.999 2.967-29.999 4.45v-76.006c10 1.483 20 2.969 29.999 4.451z"/></svg>