<svg id="Layer_1" enable-background="new 0 0 512 512" height="512" viewBox="0 0 512 512" width="512" xmlns="http://www.w3.org/2000/svg"><path d="m327.675 10.225c-.342-.126-.689-.245-1.044-.346-22.881-6.555-46.644-9.879-70.631-9.879-68.38 0-132.667 26.629-181.019 74.98-48.352 48.353-74.981 112.64-74.981 181.02s26.629 132.667 74.981 181.02c48.352 48.351 112.639 74.98 181.019 74.98 23.154 0 46.095-3.105 68.236-9.214.001.003-.001.007 0 .01 2.136-.392 9.976-3.093 11.367-3.483 102.303-33.553 176.397-129.935 176.397-243.313 0-116.287-77.942-214.7-184.325-245.775zm84.825 361.059c0-8.271 6.729-15 15-15s15 6.729 15 15-6.729 15-15 15-15-6.728-15-15zm15-45c-24.813 0-45 20.187-45 45 0 21.02 14.489 38.715 34.003 43.635-25.891 26.138-58.098 46.007-94.119 57.098-70.46-21.706-124.783-76.633-147.614-144.377 10.747 5.957 23.097 9.36 36.23 9.36 41.355 0 75-33.645 75-75s-33.645-75-75-75c-14.96 0-28.898 4.42-40.613 11.997 19.576-74.41 76.539-135.778 152.021-159.021 16.026 4.936 31.293 11.617 45.59 19.808-12.326 8.036-20.498 21.935-20.498 37.716 0 24.813 20.187 45 45 45 18.148 0 33.811-10.805 40.921-26.314 30.405 38.491 48.579 87.066 48.579 139.814 0 31.497-6.479 61.506-18.172 88.769-8.193-11.195-21.422-18.485-36.328-18.485zm-261.5-64.284c0-24.813 20.187-45 45-45s45 20.187 45 45-20.187 45-45 45-45-20.187-45-45zm241.5-164.5c0 8.271-6.729 15-15 15s-15-6.729-15-15 6.729-15 15-15 15 6.729 15 15zm-151.5 384.5c-124.617 0-226-101.383-226-226s101.383-226 226-226c4.074 0 8.139.108 12.194.324-32.018 17.22-60.425 41.231-82.642 70.273-34.38 44.942-52.552 98.679-52.552 155.403s18.172 110.461 52.552 155.402c22.216 29.042 50.624 53.054 82.641 70.273-4.054.217-8.12.325-12.193.325z"/></svg>