<svg id="Layer_1" enable-background="new 0 0 512 512" height="512" viewBox="0 0 512 512" width="512" xmlns="http://www.w3.org/2000/svg"><path d="m497.938 250.109c-5.516-4.867-12.162-8.131-19.226-9.571-2.464-5.615-6.141-10.58-10.676-14.58v-13.959c0-56.409-22.112-109.587-62.262-149.736-40.15-40.152-93.329-62.263-149.738-62.263s-109.587 22.111-149.737 62.262-62.262 93.328-62.262 149.737c0 0 .028 148.971.072 149.438-1.882 2.787-3.48 5.782-4.739 8.949-22.31 3.719-39.37 23.16-39.37 46.51 0 13.512 5.807 26.39 15.93 35.331 6.63 5.856 14.703 9.668 23.255 11.138 6.823 17.783 24.127 30.342 44.05 30.342 7.116 0 14.065-1.632 20.351-4.644 10.144 14.111 26.632 22.937 45.014 22.937s34.869-8.826 45.015-22.938c6.285 3.012 13.234 4.644 20.351 4.644 19.921 0 37.226-12.56 44.05-30.342 8.551-1.47 16.625-5.282 23.254-11.138 10.124-8.942 15.931-21.819 15.931-35.331 0-13.52-5.813-26.403-15.947-35.346-6.674-5.89-14.808-9.709-23.419-11.153-6.962-17.535-24.198-29.914-43.868-29.914-6.953 0-13.752 1.57-19.928 4.455v-132.936c0-34.187 27.813-62 61.999-62s62 27.813 62 62v6.152c-10.512 3.958-19.111 12.075-23.635 22.375-18.971 3.852-33.293 20.66-33.293 40.751 0 11.915 5.12 23.271 14.048 31.157 5.473 4.833 12.063 8.088 19.068 9.547 6.36 14.958 21.239 25.395 38.293 25.395 5.546 0 10.978-1.124 15.991-3.219 8.935 11.334 22.738 18.342 38.046 18.342 15.309 0 29.111-7.008 38.046-18.342 5.014 2.095 10.444 3.219 15.991 3.219 17.054 0 31.933-10.437 38.292-25.395 7.006-1.459 13.596-4.714 19.068-9.547 8.927-7.886 14.047-19.243 14.047-31.158 0-11.922-5.126-23.283-14.062-31.169zm-241.902-220.109c100.355 0 182 81.645 182 181.999v3.599c-4.623.289-9.135 1.346-13.353 3.097-4.513-5.727-10.276-10.396-16.812-13.63-3.638-80.606-70.346-145.065-151.835-145.065-83.813 0-151.999 68.187-151.999 152v131.681c0 .212.023.419.032.629-.193.259-.4.507-.588.769-6.26-2.981-13.173-4.597-20.246-4.597-3.139 0-6.214.318-9.197.92v-129.403c-.001-100.354 81.644-181.999 181.998-181.999zm-55.868 347.443c3.278-4.424 8.307-6.961 13.797-6.961 8.868 0 16.377 6.908 17.093 15.728.332 4.078 2.315 7.845 5.49 10.426 3.175 2.58 7.268 3.752 11.327 3.243 4.974-.626 9.777.854 13.527 4.165 3.738 3.298 5.797 7.862 5.797 12.852 0 4.986-2.057 9.549-5.791 12.847-3.746 3.309-8.545 4.792-13.518 4.173-4.095-.51-8.208.688-11.39 3.307-3.181 2.62-5.144 6.434-5.428 10.545-.616 8.938-8.132 15.939-17.108 15.939-5.514 0-10.556-2.555-13.832-7.009-3.475-4.725-9.384-6.99-15.133-5.799-5.744 1.192-10.267 5.625-11.573 11.345-2.615 11.447-13.057 19.756-24.826 19.756s-22.211-8.309-24.827-19.757c-1.307-5.72-5.829-10.152-11.573-11.345-1.017-.211-2.038-.314-3.051-.314-4.71 0-9.222 2.224-12.082 6.113-3.276 4.454-8.318 7.009-13.832 7.009-8.978 0-16.492-7.001-17.108-15.938-.284-4.111-2.247-7.925-5.428-10.545s-7.304-3.818-11.389-3.308c-4.975.62-9.773-.863-13.52-4.173-3.733-3.298-5.79-7.86-5.79-12.847 0-9.458 7.694-17.152 17.152-17.152.725 0 1.454.045 2.168.135 4.068.509 8.153-.661 11.329-3.242 3.176-2.58 5.159-6.346 5.49-10.425.718-8.819 8.227-15.729 17.095-15.729 5.489 0 10.518 2.537 13.796 6.96 3.5 4.724 9.435 6.968 15.185 5.739 5.749-1.228 10.251-5.7 11.516-11.441 2.547-11.56 13.006-19.949 24.869-19.949 11.862 0 22.321 8.39 24.868 19.949 1.265 5.741 5.767 10.214 11.515 11.441 5.75 1.225 11.685-1.014 15.185-5.738zm55.868-257.442c-50.729 0-91.999 41.271-91.999 92v112.038c-4.937-1.452-10.119-2.248-15.438-2.248-5.006 0-9.889.709-14.563 2v-111.791c0-67.271 54.729-122 121.999-122 63.541 0 115.881 48.829 121.493 110.933-11.586 2.232-21.926 8.654-29.104 17.763-.128-.053-.26-.099-.389-.151v-6.544c.001-50.729-41.27-92-91.999-92zm222.056 169.949c-1.466 1.295-4.602 3.381-9.133 2.818-4.087-.51-8.209.687-11.39 3.307s-5.144 6.434-5.427 10.545c-.417 6.032-5.49 10.757-11.551 10.757-3.723 0-7.128-1.727-9.342-4.736-3.477-4.725-9.389-6.992-15.134-5.798-5.744 1.193-10.266 5.626-11.572 11.346-1.895 8.293-9.46 14.312-17.989 14.312s-16.096-6.02-17.991-14.313c-1.308-5.72-5.829-10.152-11.573-11.345-1.017-.211-2.038-.314-3.051-.314-4.71 0-9.222 2.224-12.083 6.114-2.213 3.009-5.617 4.734-9.339 4.734-6.061 0-11.135-4.725-11.552-10.757-.283-4.111-2.246-7.925-5.427-10.545-3.181-2.619-7.295-3.817-11.39-3.307-4.53.559-7.668-1.524-9.133-2.818-1.459-1.289-3.908-4.13-3.908-8.672 0-6.386 5.194-11.58 11.58-11.58.491 0 .988.031 1.476.092 4.06.513 8.15-.664 11.324-3.245 3.175-2.58 5.157-6.346 5.488-10.423.484-5.951 5.554-10.613 11.541-10.613 3.706 0 7.102 1.714 9.317 4.703 3.5 4.723 9.435 6.966 15.185 5.737 5.748-1.228 10.25-5.7 11.515-11.44 1.846-8.374 9.424-14.452 18.021-14.452s16.175 6.077 18.02 14.451c1.265 5.74 5.766 10.213 11.515 11.441 5.745 1.224 11.685-1.016 15.185-5.737 2.216-2.989 5.611-4.703 9.318-4.703 5.987 0 11.056 4.662 11.54 10.613.331 4.078 2.314 7.844 5.489 10.424 3.176 2.581 7.266 3.751 11.327 3.244 4.528-.574 7.672 1.519 9.14 2.813 1.461 1.29 3.912 4.132 3.912 8.676 0 4.541-2.448 7.382-3.908 8.671z"/></svg>