<svg id="Layer_1" enable-background="new 0 0 511.984 511.984" height="512" viewBox="0 0 511.984 511.984" width="512" xmlns="http://www.w3.org/2000/svg"><g><path d="m306.123 92.888h.141c8.284-.076 14.938-6.854 14.861-15.137l-.373-40.605c-.075-8.237-6.775-14.862-14.996-14.862-.047 0-.095 0-.141 0-8.284.076-14.938 6.854-14.861 15.137l.373 40.605c.075 8.237 6.775 14.862 14.996 14.862z"/><path d="m496.987 210.035c-.047 0-.094 0-.141 0l-40.605.373c-8.284.076-14.938 6.853-14.861 15.137.075 8.237 6.775 14.862 14.996 14.862h.141l40.605-.373c8.284-.076 14.938-6.853 14.861-15.137-.075-8.237-6.775-14.862-14.996-14.862z"/><path d="m411.804 135.529c3.885 0 7.768-1.5 10.704-4.491l28.449-28.976c5.804-5.912 5.716-15.409-.195-21.212-5.912-5.804-15.407-5.716-21.213.195l-28.447 28.976c-5.805 5.912-5.717 15.409.194 21.212 2.921 2.867 6.715 4.296 10.508 4.296z"/><path d="m190.738 133.165c2.92 2.867 6.715 4.296 10.508 4.296 3.885 0 7.768-1.5 10.705-4.491 5.804-5.912 5.716-15.409-.195-21.212l-28.976-28.449c-5.911-5.804-15.409-5.717-21.212.195s-5.716 15.409.195 21.212z"/><path d="m357.739 102.667c1.844.747 3.749 1.1 5.624 1.1 5.93 0 11.547-3.541 13.908-9.375l15.238-37.639c3.109-7.679-.596-16.424-8.274-19.533-7.675-3.107-16.424.596-19.532 8.275l-15.238 37.639c-3.11 7.679.596 16.424 8.274 19.533z"/><path d="m488.771 283.985-37.639-15.238c-7.673-3.108-16.423.595-19.532 8.275-3.109 7.679.596 16.424 8.274 19.533l37.639 15.238c1.844.747 3.749 1.1 5.624 1.1 5.93 0 11.546-3.541 13.908-9.375 3.11-7.679-.595-16.424-8.274-19.533z"/><path d="m126.213 169.564 37.639 15.239c1.844.747 3.75 1.1 5.624 1.1 5.93 0 11.546-3.54 13.909-9.375 3.109-7.679-.596-16.424-8.275-19.533l-37.639-15.239c-7.677-3.108-16.423.595-19.533 8.275-3.109 7.679.596 16.424 8.275 19.533z"/><path d="m430.779 174.547c2.422 5.719 7.976 9.153 13.818 9.153 1.95 0 3.935-.383 5.844-1.192l37.391-15.839c7.628-3.231 11.192-12.034 7.961-19.663-3.23-7.628-12.034-11.193-19.662-7.961l-37.391 15.839c-7.628 3.231-11.192 12.035-7.961 19.663z"/><path d="m235.602 95.527c2.422 5.719 7.976 9.153 13.818 9.153 1.951 0 3.935-.383 5.844-1.192 7.628-3.231 11.192-12.035 7.961-19.663l-15.84-37.39c-3.231-7.628-12.035-11.194-19.663-7.96-7.628 3.231-11.192 12.035-7.96 19.663z"/><path d="m424 301.223c-6.586-5.812-14.206-10.159-22.358-12.896 12.094-18.5 18.552-40.268 18.348-62.585-.565-61.683-50.924-111.469-112.481-111.469-.348 0-.7.001-1.049.004-57.552.529-105.147 44.42-110.885 101.007-7.836 2.942-15.208 7.123-21.762 12.454-7.379 6.002-13.572 13.301-18.297 21.442-10.189-6.311-22.065-9.805-34.282-9.805-16.446 0-32.144 6.152-44.202 17.324-8.475 7.851-14.622 17.68-17.963 28.504-33.078 3.033-59.069 30.931-59.069 64.785 0 18.642 8.011 36.409 21.978 48.747 10.383 9.171 23.337 14.709 36.906 16.011 8.059 26.948 33.169 46.475 62.349 46.475 12.331 0 24.301-3.552 34.547-9.968 4.742 8.043 10.921 15.249 18.258 21.17 13.805 11.143 31.193 17.279 48.962 17.279s35.158-6.136 48.962-17.279c7.337-5.922 13.516-13.127 18.259-21.17 10.245 6.416 22.215 9.968 34.546 9.968 29.181 0 54.29-19.527 62.35-46.475 13.567-1.302 26.523-6.84 36.905-16.01 13.967-12.338 21.978-30.106 21.978-48.748 0-18.653-8.019-36.427-22-48.765zm-117.266-156.947c.26-.002.519-.004.778-.004 21.747 0 42.239 8.375 57.779 23.632 15.726 15.438 24.497 36.077 24.699 58.113.136 14.906-3.771 29.479-11.166 42.207-2.8-4.173-6.098-8.043-9.855-11.524-12.059-11.171-27.757-17.324-44.203-17.324-12.217 0-24.092 3.494-34.281 9.805-4.726-8.142-10.918-15.44-18.297-21.442-12.908-10.499-28.965-16.595-45.563-17.373 7.572-37.571 40.646-65.728 80.109-66.09zm97.427 231.974c-7.541 6.661-17.602 9.77-27.607 8.523-4.098-.51-8.21.688-11.39 3.308-3.181 2.62-5.144 6.434-5.428 10.545-1.261 18.277-16.621 32.594-34.97 32.594-11.269 0-21.571-5.218-28.264-14.317-3.477-4.726-9.389-6.989-15.134-5.798-5.744 1.193-10.266 5.625-11.572 11.345-5.013 21.933-24.256 37.251-46.797 37.251s-41.785-15.318-46.797-37.251c-1.307-5.719-5.829-10.152-11.573-11.345-1.017-.211-2.039-.314-3.051-.314-4.709 0-9.221 2.223-12.082 6.112-6.693 9.099-16.995 14.317-28.264 14.317-18.348 0-33.709-14.317-34.97-32.594-.284-4.111-2.247-7.925-5.427-10.545-3.181-2.621-7.3-3.816-11.389-3.308-10.004 1.246-20.065-1.862-27.608-8.524-7.634-6.742-11.838-16.069-11.838-26.261 0-19.331 15.727-35.058 35.058-35.058 1.475 0 2.963.093 4.423.275 4.057.506 8.15-.664 11.325-3.245 3.174-2.581 5.157-6.346 5.489-10.424 1.466-18.035 16.813-32.162 34.938-32.162 11.221 0 21.497 5.182 28.191 14.216 3.5 4.723 9.436 6.968 15.185 5.738 5.749-1.228 10.251-5.701 11.516-11.441 4.803-21.795 24.517-37.614 46.875-37.614 22.359 0 42.073 15.819 46.876 37.614 1.265 5.741 5.767 10.214 11.516 11.441 5.752 1.229 11.686-1.016 15.185-5.739 6.694-9.034 16.97-14.216 28.19-14.216 18.125 0 33.473 14.127 34.939 32.162.331 4.078 2.314 7.844 5.489 10.424 3.176 2.581 7.271 3.752 11.326 3.243 10.011-1.255 20.078 1.848 27.628 8.511 7.642 6.747 11.851 16.077 11.851 26.275 0 10.193-4.204 19.519-11.839 26.262z"/></g></svg>