<svg id="Layer_1" enable-background="new 0 0 512 512" height="512" viewBox="0 0 512 512" width="512" xmlns="http://www.w3.org/2000/svg"><path d="m507.954 219.198c-3.769-4.028-9.446-5.662-14.776-4.257-20.419 5.382-42.117 5.52-62.748.397-34.766-8.631-63.392-30.674-80.607-62.068-17.237-31.434-20.426-67.494-8.982-101.538 1.758-5.228.504-11-3.264-15.027-3.77-4.028-9.447-5.661-14.777-4.257-55.48 14.622-98.525 58.263-112.337 113.893-4.606 18.55-5.802 37.323-3.6 55.982-12.047 2.554-23.426 7.931-33.051 15.76-7.379 6.002-13.572 13.301-18.297 21.443-10.19-6.312-22.064-9.805-34.282-9.805-16.446 0-32.144 6.152-44.202 17.324-8.475 7.851-14.622 17.68-17.963 28.504-33.077 3.033-59.068 30.93-59.068 64.785 0 18.642 8.011 36.41 21.979 48.747 10.383 9.171 23.336 14.709 36.905 16.01 8.059 26.948 33.169 46.475 62.349 46.475 12.33 0 24.302-3.554 34.547-9.968 4.742 8.043 10.921 15.249 18.258 21.17 13.804 11.143 31.193 17.279 48.962 17.279s35.157-6.136 48.962-17.279c7.337-5.922 13.516-13.127 18.258-21.17 10.245 6.415 22.217 9.968 34.547 9.968 29.18 0 54.29-19.527 62.349-46.475 13.567-1.302 26.523-6.84 36.905-16.01 13.968-12.338 21.979-30.105 21.979-48.747 0-7.309-1.248-14.476-3.586-21.241 32.178-19.071 56.843-49.281 68.804-84.868 1.758-5.228.504-10.999-3.264-15.027zm-103.793 147.398c-7.542 6.661-17.606 9.77-27.607 8.523-4.088-.505-8.208.688-11.389 3.308s-5.144 6.434-5.428 10.545c-1.261 18.277-16.622 32.594-34.97 32.594-11.27 0-21.572-5.218-28.264-14.316-3.477-4.727-9.39-6.99-15.133-5.799-5.744 1.193-10.266 5.625-11.573 11.344-5.013 21.934-24.256 37.252-46.797 37.252s-41.785-15.318-46.797-37.251c-1.307-5.719-5.829-10.152-11.573-11.345-1.017-.211-2.039-.314-3.051-.314-4.709 0-9.221 2.223-12.082 6.112-6.693 9.098-16.995 14.316-28.264 14.316-18.348 0-33.709-14.317-34.97-32.594-.284-4.111-2.247-7.925-5.428-10.545-3.181-2.621-7.298-3.815-11.389-3.308-10.003 1.248-20.064-1.861-27.607-8.523-7.634-6.742-11.839-16.07-11.839-26.261 0-19.331 15.727-35.058 35.058-35.058 1.475 0 2.961.093 4.418.275 4.059.508 8.152-.662 11.328-3.243 3.175-2.581 5.159-6.347 5.49-10.425 1.466-18.035 16.813-32.163 34.938-32.163 11.221 0 21.497 5.182 28.191 14.216 3.5 4.723 9.437 6.968 15.185 5.738 5.749-1.228 10.25-5.701 11.515-11.441 4.803-21.795 24.517-37.615 46.875-37.615s42.073 15.819 46.875 37.615c1.265 5.74 5.767 10.213 11.516 11.441 5.747 1.228 11.685-1.015 15.185-5.738 6.695-9.035 16.97-14.216 28.191-14.216 18.125 0 33.472 14.127 34.938 32.163.332 4.078 2.315 7.844 5.49 10.424 3.176 2.581 7.267 3.754 11.327 3.243 10.007-1.255 20.078 1.848 27.628 8.511 7.642 6.744 11.85 16.074 11.85 26.272.002 10.192-4.203 19.52-11.837 26.263zm22.16-72.866c-.756-.736-1.526-1.46-2.321-2.162-10.427-9.202-23.44-14.741-37.065-16.009-3.34-10.829-9.488-20.66-17.965-28.514-12.058-11.171-27.756-17.324-44.203-17.324-12.217 0-24.092 3.494-34.282 9.805-4.726-8.141-10.918-15.44-18.297-21.442-10.175-8.276-22.31-13.807-35.122-16.165-2.301-16.09-1.468-32.316 2.513-48.349 9.015-36.312 33.434-66.308 66.117-82.747-4.534 33.128 1.567 67.229 17.822 96.872 20.981 38.263 57.314 66.241 99.683 76.76 15.896 3.947 32.31 5.367 48.54 4.262-10.996 18.519-26.661 34.084-45.42 45.013z"/></svg>