<svg id="Layer_1" enable-background="new 0 0 512 512" height="512" viewBox="0 0 512 512" width="512" xmlns="http://www.w3.org/2000/svg"><g><path d="m256 0c-141.159 0-256 114.841-256 256s114.841 256 256 256 256-114.841 256-256-114.841-256-256-256zm0 482c-124.617 0-226-101.383-226-226s101.383-226 226-226 226 101.383 226 226-101.383 226-226 226z"/><path d="m167.5 119c-24.813 0-45 20.187-45 45s20.187 45.001 45 45.001 45.001-20.188 45.001-45.001-20.188-45-45.001-45zm0 60.001c-8.271 0-15-6.729-15-15.001s6.729-15 15-15 15.001 6.729 15.001 15-6.73 15.001-15.001 15.001z"/><path d="m366 156.001c8.284 0 15-6.716 15-15s-6.716-15-15-15h-100c-8.284 0-15 6.716-15 15v234.999c0 8.284 6.716 15 15 15s15-6.716 15-15v-116.999h84.998c8.284 0 15-6.716 15-15s-6.716-15-15-15h-84.998v-73z"/></g></svg>