<svg id="Layer_1" enable-background="new 0 0 512 512" height="512" viewBox="0 0 512 512" width="512" xmlns="http://www.w3.org/2000/svg"><g><path d="m256 0c-141.159 0-256 114.841-256 256s114.841 256 256 256 256-114.841 256-256-114.841-256-256-256zm0 482c-124.617 0-226-101.383-226-226s101.383-226 226-226 226 101.383 226 226-101.383 226-226 226z"/><path d="m167.5 119c-24.813 0-45 20.187-45 45s20.187 45 45 45 45-20.187 45-45-20.187-45-45-45zm0 60c-8.271 0-15-6.729-15-15s6.729-15 15-15 15 6.729 15 15-6.729 15-15 15z"/><path d="m366.002 361h-40.002c-24.813 0-45-20.187-45-45v-115c0-24.813 20.187-44.999 45-44.999h40c8.284 0 15-6.716 15-15s-6.716-15-15-15h-40c-41.355 0-75 33.645-75 74.999v115c0 41.355 33.645 75 75 75h40.002c8.284 0 15-6.716 15-15s-6.716-15-15-15z"/></g></svg>