<svg id="Layer_1" enable-background="new 0 0 512.079 512.079" height="512" viewBox="0 0 512.079 512.079" width="512" xmlns="http://www.w3.org/2000/svg"><g><path d="m228.04 75.691c8.284 0 15-6.716 15-15v-45.652c0-8.284-6.716-15-15-15s-15 6.716-15 15v45.651c0 8.285 6.716 15.001 15 15.001z"/><path d="m75.651 228.078c0-8.284-6.716-15-15-15h-45.651c-8.284 0-15 6.716-15 15s6.716 15 15 15h45.651c8.284 0 15-6.715 15-15z"/><path d="m346.402 124.718c3.839 0 7.678-1.465 10.606-4.394l32.28-32.28c5.858-5.857 5.858-15.355 0-21.213-5.857-5.857-15.355-5.857-21.213 0l-32.28 32.28c-5.858 5.857-5.858 15.355 0 21.213 2.929 2.929 6.768 4.394 10.607 4.394z"/><path d="m99.071 335.834-32.28 32.28c-5.858 5.857-5.858 15.355 0 21.213 2.929 2.929 6.768 4.394 10.606 4.394s7.678-1.465 10.606-4.394l32.28-32.28c5.858-5.857 5.858-15.355 0-21.213-5.856-5.857-15.354-5.857-21.212 0z"/><path d="m99.072 120.323c2.929 2.93 6.767 4.394 10.606 4.394 3.838 0 7.678-1.465 10.606-4.394 5.858-5.857 5.858-15.355 0-21.213l-32.28-32.28c-5.857-5.858-15.354-5.858-21.213 0-5.858 5.857-5.858 15.355 0 21.213z"/><path d="m286.521 87.359c1.883.782 3.832 1.152 5.751 1.152 5.879 0 11.46-3.479 13.857-9.247l17.52-42.155c3.179-7.65-.445-16.429-8.095-19.608-7.649-3.178-16.429.445-19.608 8.095l-17.52 42.155c-3.178 7.65.446 16.428 8.095 19.608z"/><path d="m25.556 160.173 42.155 17.52c1.882.782 3.832 1.152 5.75 1.152 5.879 0 11.46-3.479 13.857-9.247 3.179-7.65-.445-16.429-8.095-19.608l-42.155-17.52c-7.647-3.178-16.428.444-19.608 8.095-3.178 7.65.446 16.428 8.096 19.608z"/><path d="m87.183 286.231c-3.161-7.658-11.932-11.302-19.588-8.142l-42.197 17.42c-7.658 3.161-11.303 11.932-8.141 19.589 2.388 5.786 7.978 9.28 13.871 9.28 1.907 0 3.846-.366 5.718-1.139l42.197-17.42c7.656-3.161 11.301-11.931 8.14-19.588z"/><path d="m150.3 79.08c2.388 5.785 7.978 9.28 13.871 9.28 1.907 0 3.846-.366 5.718-1.139 7.657-3.162 11.302-11.932 8.141-19.589l-17.42-42.196c-3.161-7.658-11.93-11.302-19.589-8.142-7.657 3.161-11.302 11.932-8.141 19.589z"/><path d="m341.79 171.46c-.93 0-1.856.02-2.783.035-21.256-41.51-64.181-68.031-110.966-68.031-68.712 0-124.614 55.901-124.614 124.614 0 47.132 26.458 89.791 68.108 111.022-.014.882-.034 1.763-.034 2.649 0 93.897 76.392 170.289 170.29 170.289 93.897 0 170.289-76.392 170.289-170.289-.001-93.897-76.393-170.289-170.29-170.289zm77.906 69.537c0 8.271-6.729 15.001-15 15.001s-15-6.729-15-15.001 6.729-15 15-15 15 6.729 15 15zm-286.27-12.918c0-52.171 42.444-94.614 94.614-94.614 31.606 0 60.897 15.963 78.35 41.706-65.589 13.923-117.342 65.713-131.21 131.322-25.821-17.403-41.754-46.564-41.754-78.414zm70.653 122.96c0-18.472 15.028-33.5 33.5-33.5s33.5 15.028 33.5 33.5c0 18.473-15.028 33.501-33.5 33.501s-33.5-15.028-33.5-33.501zm191.822 80c0-8.271 6.729-15 15.001-15s15 6.729 15 15-6.729 15.001-15 15.001-15.001-6.729-15.001-15.001zm59.45-7.02c-3.381-21.49-22.024-37.979-44.449-37.979-24.813 0-45.001 20.187-45.001 45 0 18.474 11.194 34.378 27.153 41.301-15.887 6.258-33.181 9.699-51.264 9.699-51.698 0-96.948-28.113-121.282-69.849 5.436 1.52 11.157 2.35 17.072 2.35 35.014 0 63.5-28.486 63.5-63.501 0-35.014-28.486-63.5-63.5-63.5-9.913 0-19.301 2.287-27.67 6.356 19.606-53.864 71.322-92.435 131.88-92.435 12.029 0 23.709 1.524 34.859 4.385-10.322 8.253-16.952 20.939-16.952 35.152 0 24.813 20.187 45.001 45 45.001 21.414 0 39.37-15.04 43.891-35.109 20.872 24.497 33.492 56.231 33.492 90.861-.001 30.709-9.928 59.139-26.729 82.268z"/></g></svg>