<svg id="Layer_1" enable-background="new 0 0 512.131 512.131" height="512" viewBox="0 0 512.131 512.131" width="512" xmlns="http://www.w3.org/2000/svg"><path d="m508.355 5.141c-2.849-3.266-6.971-5.141-11.305-5.141h-481.969c-4.37 0-8.522 1.905-11.372 5.219s-4.113 7.704-3.459 12.025l62.029 410c1.11 7.334 7.413 12.756 14.831 12.756s13.722-5.422 14.831-12.756l40.238-265.971 20.078 67.976c1.884 6.376 7.738 10.751 14.386 10.751s12.503-4.375 14.386-10.751l16.736-56.661 42.001 326.457c.962 7.482 7.333 13.086 14.877 13.086s13.915-5.604 14.877-13.086l35.834-278.523 25.337 140.075c1.292 7.139 7.506 12.33 14.761 12.33s13.47-5.191 14.761-12.33l25.624-141.666 34.323 250.107c1.019 7.427 7.364 12.961 14.86 12.961s13.842-5.534 14.86-12.961l62.03-451.999c.59-4.293-.707-8.632-3.555-11.898zm-73.334 351.531-32.29-235.294c-1.002-7.307-7.168-12.801-14.541-12.957-.108-.003-.216-.004-.323-.004-7.236 0-13.463 5.18-14.757 12.33l-27.657 152.907-27.839-153.906c-1.317-7.281-7.726-12.509-15.144-12.325-7.396.188-13.551 5.742-14.494 13.081l-33.332 259.077-36.212-281.459c-.904-7.035-6.613-12.475-13.684-13.038-.403-.032-.804-.048-1.202-.048-6.594 0-12.482 4.336-14.377 10.751l-22.525 76.261-24.813-84.004c-1.992-6.742-8.384-11.188-15.413-10.716-7.014.481-12.752 5.77-13.804 12.721l-35.504 234.676-44.588-294.725h447.329z"/></svg>