<svg id="Layer_1" enable-background="new 0 0 512.002 512.002" height="512" viewBox="0 0 512.002 512.002" width="512" xmlns="http://www.w3.org/2000/svg"><path d="m478.129 100.589c-11.598-10.234-26.145-16.294-41.33-17.466-3.545-12.171-10.338-23.227-19.815-32.007-13.084-12.121-30.117-18.797-47.963-18.797-13.844 0-27.279 4.133-38.653 11.565-5.247-9.476-12.295-17.956-20.786-24.862-15.082-12.266-34.11-19.022-53.581-19.022s-38.5 6.756-53.581 19.022c-8.49 6.906-15.538 15.387-20.785 24.862-11.374-7.433-24.811-11.565-38.654-11.565-17.846 0-34.879 6.676-47.963 18.797-9.475 8.778-16.268 19.831-19.812 31.999-36.418 2.762-65.205 33.276-65.205 70.389 0 20.228 8.692 39.507 23.848 52.894 11.553 10.204 26.035 16.264 41.165 17.473 7.931 28.164 32.962 49.094 62.748 51.303-4.841 13.577-5.49 27.84-2.009 43.034 1.693 7.391 4.321 14.655 7.533 21.812-33.144 7.304-53.338 23.613-53.338 43.701 0 31.328 46.23 47.719 91.897 47.719 4.073 0 8.133-.138 12.153-.393 6.72 18.949 6.997 37.742-5.703 57.983-4.403 7.018-2.283 16.275 4.734 20.678 2.478 1.555 5.233 2.296 7.957 2.296 1.895 0 3.773-.361 5.531-1.054 91.097-24.839 101.947-69.881 113.417-117.557 1.795-7.46 3.602-14.967 5.727-22.535 24.295-.814 81.34-5.968 81.34-36.356 0-7.758-4.034-18.637-23.254-26.402-6.357-2.569-14.089-4.711-22.837-6.355 8.274-9.908 18.425-19.968 31.015-30.204 21.684-7.492 38.765-25.302 45.063-47.668 15.128-1.21 29.612-7.269 41.164-17.472 15.156-13.387 23.849-32.666 23.849-52.895 0-20.242-8.701-39.528-23.872-52.917zm-342.516 293.384c-11.549-4.455-15.139-8.99-15.633-10.248 1.033-2.874 11.639-11.765 37.326-15.844.334-.053.656-.133.98-.207 2.944 4.804 5.969 9.567 8.975 14.291 4.215 6.625 8.326 13.089 12.112 19.45-16.414-.24-31.873-2.858-43.76-7.442zm91.366 78.558c2.798-14.062 2.015-28.589-2.321-43.831-.203-.714-.432-1.42-.648-2.13 3.644-.896 7.155-1.901 10.48-3.026 7.848-2.654 12.059-11.167 9.405-19.015s-11.168-12.059-19.015-9.405c-3.936 1.331-8.224 2.463-12.756 3.388-5.917-11.201-12.792-22.025-19.552-32.652-27.224-42.791-41.498-68.83-14.925-99.627 1.451-.818 2.875-1.685 4.266-2.604 5.271 9.364 12.307 17.741 20.751 24.558 15.037 12.137 33.979 18.821 53.335 18.821s38.297-6.685 53.334-18.821c8.444-6.816 15.48-15.193 20.751-24.558 5.359 3.539 11.187 6.331 17.3 8.31-22.381 23.701-35.083 46.915-43.353 68.68-11.42-.644-22.115-2.095-30.981-4.25-8.059-1.963-16.162 2.982-18.118 11.032-1.957 8.051 2.982 16.162 11.033 18.118 8.543 2.076 18.391 3.599 28.85 4.507-1.465 5.601-2.778 11.058-4.051 16.347-9.327 38.779-15.977 66.382-63.785 86.158zm141.735-138.009c-7.221 2.32-18.089 4.589-32.121 5.725 1.653-3.636 3.467-7.289 5.473-10.961 12.146 1.312 20.809 3.327 26.648 5.236zm89.578-150.608c-8.731 7.711-20.381 11.31-31.963 9.869-4.089-.508-8.208.688-11.39 3.307-3.181 2.621-5.144 6.435-5.428 10.546-1.46 21.164-19.246 37.742-40.491 37.742-13.049 0-24.977-6.042-32.726-16.575-3.477-4.726-9.382-6.99-15.133-5.799-5.744 1.193-10.266 5.625-11.573 11.345-5.74 25.118-27.776 42.66-53.588 42.66-25.813 0-47.849-17.542-53.589-42.66-1.308-5.72-5.829-10.151-11.573-11.345-1.017-.211-2.038-.314-3.051-.314-4.71 0-9.221 2.224-12.082 6.113-3.747 5.093-8.476 9.124-13.831 11.941-.319.145-.629.313-.939.482-5.482 2.702-11.583 4.152-17.956 4.152-21.245 0-39.031-16.579-40.492-37.743-.283-4.111-2.246-7.925-5.427-10.545-3.181-2.619-7.294-3.818-11.39-3.307-11.587 1.436-23.231-2.158-31.963-9.87-8.712-7.695-13.708-18.779-13.708-30.409 0-22.383 18.21-40.593 40.594-40.593 1.707 0 3.429.107 5.118.318 4.068.511 8.15-.664 11.324-3.245 3.175-2.58 5.157-6.346 5.488-10.424 1.698-20.883 19.468-37.241 40.455-37.241 12.993 0 24.891 5.999 32.642 16.459 3.499 4.723 9.438 6.966 15.185 5.738 5.749-1.228 10.251-5.7 11.516-11.441 5.501-24.959 28.076-43.075 53.68-43.075s48.179 18.116 53.679 43.075c1.265 5.741 5.767 10.214 11.516 11.441 5.753 1.229 11.686-1.016 15.185-5.738 7.751-10.46 19.647-16.459 32.641-16.459 20.987 0 38.757 16.358 40.456 37.242.331 4.078 2.314 7.844 5.489 10.425 3.175 2.58 7.266 3.752 11.326 3.243 11.589-1.452 23.244 2.139 31.987 9.854 8.721 7.695 13.722 18.784 13.722 30.421-.001 11.631-4.998 22.715-13.71 30.41z"/></svg>