<svg id="Layer_1" enable-background="new 0 0 512 512" height="512" viewBox="0 0 512 512" width="512" xmlns="http://www.w3.org/2000/svg"><g><path d="m376 0h-207.018c-.042 0-32.982 0-32.982 0-24.813 0-45 20.187-45 45v422c0 24.813 20.187 45 45 45h240c24.813 0 45-20.187 45-45v-422c0-24.813-20.187-45-45-45zm-57.905 30-11.828 22.083c-2.735 5.106-7.431 7.917-13.223 7.917h-74.077c-5.791 0-10.486-2.811-13.221-7.915l-11.835-22.085zm72.905 437c0 8.271-6.729 15-15 15h-240c-8.271 0-15-6.729-15-15v-422c0-8.271 6.729-15 15-15h23.875l19.428 36.255c7.968 14.868 22.795 23.745 39.664 23.745h74.077c16.873 0 31.702-8.88 39.668-23.753l19.415-36.247h23.873c8.271 0 15 6.729 15 15z"/><path d="m345.752 174.716-1.62-18.239c-.643-7.236-6.378-12.972-13.614-13.614l-18.238-1.619-14.042-11.752c-5.571-4.662-13.683-4.662-19.254 0l-14.042 11.752-18.238 1.619c-7.236.643-12.972 6.378-13.614 13.614l-1.62 18.239-8.294 9.91c-40.557.418-73.425 33.524-73.425 74.177 0 40.912 33.285 74.197 74.197 74.197h69.754c33.248 0 60.298-27.05 60.298-60.298 0-12.144-3.621-23.453-9.822-32.927l1.574-17.721 11.751-14.044c4.662-5.57 4.662-13.682 0-19.253zm-84.819 7.344.926-10.425 10.424-.926c3.053-.271 5.95-1.472 8.3-3.438l8.026-6.717 8.026 6.717c2.351 1.967 5.247 3.167 8.3 3.438l10.424.926.926 10.425c.271 3.053 1.471 5.949 3.438 8.3l6.717 8.025-6.717 8.027c-1.967 2.35-3.167 5.246-3.438 8.299l-.18 2.026c-6.932-2.785-14.489-4.334-22.405-4.334-3.74 0-7.431.338-11.051 1.009-7.103-9.194-16.199-16.501-26.489-21.458l1.334-1.594c1.969-2.351 3.168-5.247 3.439-8.3zm32.768 120.94h-69.754c-24.371 0-44.197-19.827-44.197-44.197s19.827-44.196 44.197-44.196c16.339 0 31.283 8.962 39.001 23.39 3.651 6.825 11.896 9.752 19.035 6.753 3.706-1.557 7.649-2.346 11.718-2.346 16.707 0 30.299 13.592 30.299 30.299 0 16.705-13.592 30.297-30.299 30.297z"/><path d="m346 363.001h-180c-8.284 0-15 6.716-15 15s6.716 15 15 15h180c8.284 0 15-6.716 15-15s-6.716-15-15-15z"/><path d="m327.062 422.001h-142.124c-8.284 0-15 6.716-15 15s6.716 15 15 15h142.124c8.284 0 15-6.716 15-15s-6.716-15-15-15z"/></g></svg>