<svg id="Layer_1" enable-background="new 0 0 512 512" height="512" viewBox="0 0 512 512" width="512" xmlns="http://www.w3.org/2000/svg"><g clip-rule="evenodd" fill-rule="evenodd"><path d="m497 0h-482c-8.284 0-15 6.716-15 15v390.967c0 8.284 6.716 15 15 15h150.911v61.033h-30c-8.284 0-15 6.716-15 15s6.716 15 15 15h240c8.284 0 15-6.716 15-15s-6.716-15-15-15h-30v-61.033h151.089c8.284 0 15-6.716 15-15v-390.967c0-8.284-6.716-15-15-15zm-301.089 482v-61h120v61zm286.089-452v300.966h-452v-300.966zm-452 360.967v-30.001h452v30.001z"/><path d="m311.772 282h71.723c33.954 0 61.577-27.623 61.577-61.577 0-12.454-3.728-24.049-10.11-33.748l1.643-18.498 12.168-14.54c4.662-5.571 4.662-13.683 0-19.253l-12.168-14.541-1.678-18.887c-.643-7.236-6.378-12.972-13.614-13.614l-18.886-1.677-14.541-12.168c-5.571-4.662-13.682-4.662-19.253 0l-14.541 12.168-18.886 1.677c-7.236.643-12.971 6.378-13.614 13.614l-1.678 18.886-8.736 10.439c-41.56.321-75.275 34.218-75.275 75.852.002 41.833 34.036 75.867 75.869 75.867zm37.609-154.814.983-11.071 11.072-.983c3.053-.271 5.949-1.471 8.299-3.438l8.524-7.134 8.524 7.134c2.35 1.967 5.247 3.166 8.299 3.438l11.072.983.983 11.071c.271 3.053 1.471 5.949 3.438 8.299l7.134 8.525-7.134 8.523c-1.967 2.351-3.167 5.247-3.438 8.3l-.235 2.648c-7.222-2.98-15.124-4.635-23.409-4.635-3.907 0-7.761.361-11.54 1.079-7.399-9.645-16.934-17.274-27.734-22.382l1.723-2.059c1.969-2.349 3.168-5.246 3.439-8.298zm-37.609 33.08c16.956 0 32.465 9.301 40.476 24.273 3.652 6.825 11.898 9.751 19.034 6.754 3.865-1.623 7.974-2.446 12.213-2.446 17.412 0 31.577 14.165 31.577 31.576 0 17.412-14.165 31.577-31.577 31.577h-71.723c-25.292 0-45.867-20.576-45.867-45.867s20.576-45.867 45.867-45.867z"/><path d="m74.91 100.001h115.99c8.284 0 15-6.716 15-15s-6.716-15-15-15h-115.99c-8.284 0-15 6.716-15 15s6.716 15 15 15z"/><path d="m74.91 160.001h115.99c8.284 0 15-6.716 15-15s-6.716-15-15-15h-115.99c-8.284 0-15 6.716-15 15s6.716 15 15 15z"/><path d="m74.91 220h115.99c8.284 0 15-6.716 15-15s-6.716-15-15-15h-115.99c-8.284 0-15 6.716-15 15s6.716 15 15 15z"/><path d="m74.911 250c-8.262 0-15 6.738-15 15s6.738 15 15 15 15-6.738 15-15-6.739-15-15-15z"/><path d="m132.911 250c-8.262 0-15 6.738-15 15s6.738 15 15 15 15-6.738 15-15-6.738-15-15-15z"/><path d="m191.411 250c-8.262 0-15 6.738-15 15s6.738 15 15 15 15-6.738 15-15-6.739-15-15-15z"/></g></svg>