<svg id="Layer_1" enable-background="new 0 0 511.999 511.999" height="512" viewBox="0 0 511.999 511.999" width="512" xmlns="http://www.w3.org/2000/svg"><g><path d="m406.746 234.999h-5.509v-30h5.509c8.284 0 15-6.716 15-15s-6.716-15-15-15h-5.509v-43.895c0-22.242-16.188-40.763-37.397-44.433-2.943-12.222-16.012-58.505-19.607-74.886-1.777-8.091-9.78-13.204-17.868-11.435-8.091 1.776-13.211 9.776-11.435 17.868 3.787 17.248 15.69 59.395 17.837 67.78h-174.043c2.143-8.377 14.035-50.524 17.82-67.783 1.775-8.092-3.346-16.091-11.438-17.865-8.091-1.772-16.09 3.347-17.866 11.438-3.596 16.394-16.651 62.674-19.59 74.884-21.21 3.669-37.398 22.19-37.398 44.433v249.789c0 22.242 16.188 40.764 37.398 44.433 2.939 12.209 15.994 58.49 19.59 74.884 1.776 8.092 9.775 13.211 17.866 11.438 8.092-1.774 13.213-9.773 11.438-17.865-3.786-17.259-15.677-59.406-17.82-67.783h174.042c-2.146 8.386-14.05 50.532-17.837 67.78-1.776 8.092 3.344 16.092 11.435 17.868 1.084.237 2.166.352 3.231.352 6.891 0 13.098-4.778 14.637-11.786 3.596-16.382 16.665-62.664 19.607-74.886 21.21-3.669 37.397-22.191 37.397-44.433v-115.897h5.509c8.284 0 15-6.716 15-15 .001-8.284-6.715-15-14.999-15zm-35.509 145.895c0 8.329-6.776 15.105-15.105 15.105h-4.386-212-4.386c-8.329 0-15.105-6.776-15.105-15.105v-249.789c0-8.329 6.776-15.105 15.105-15.105h220.772c8.329 0 15.105 6.776 15.105 15.105z"/><path d="m319.312 225.527-2.404-27.076c-.643-7.236-6.379-12.972-13.615-13.614l-27.074-2.403-20.846-17.445c-5.571-4.663-13.682-4.662-19.253 0l-20.846 17.445-27.075 2.403c-7.236.643-12.972 6.378-13.615 13.614l-2.404 27.076-17.445 20.846c-4.662 5.571-4.662 13.683 0 19.254l17.445 20.846 2.404 27.075c.643 7.235 6.378 12.972 13.614 13.614l27.075 2.404 20.846 17.445c2.786 2.331 6.206 3.496 9.626 3.496s6.841-1.166 9.626-3.497l20.846-17.444 27.075-2.404c7.235-.643 12.972-6.379 13.614-13.614l2.404-27.075 17.444-20.846c4.662-5.571 4.662-13.683 0-19.254zm-26.028 45.301c-1.967 2.351-3.166 5.247-3.438 8.3l-1.711 19.261-19.261 1.711c-3.053.271-5.949 1.471-8.3 3.438l-14.829 12.41-14.83-12.41c-2.351-1.967-5.247-3.166-8.299-3.438l-19.261-1.711-1.711-19.261c-.271-3.053-1.471-5.949-3.438-8.3l-12.41-14.829 12.41-14.829c1.967-2.351 3.167-5.247 3.438-8.3l1.711-19.262 19.26-1.71c3.053-.271 5.95-1.471 8.3-3.438l14.83-12.41 14.829 12.41c2.351 1.968 5.247 3.167 8.301 3.438l19.26 1.71 1.711 19.262c.271 3.053 1.471 5.949 3.438 8.3l12.41 14.829z"/></g></svg>