<svg id="Layer_1" enable-background="new 0 0 512 512" height="512" viewBox="0 0 512 512" width="512" xmlns="http://www.w3.org/2000/svg"><g><path d="m497 360.75h-23v-284.5c0-8.284-6.716-15-15-15h-406c-8.284 0-15 6.716-15 15v284.5h-23c-8.284 0-15 6.716-15 15 0 41.355 33.645 75 75 75h362c41.355 0 75-33.645 75-75 0-8.284-6.716-15-15-15zm-429-269.5h376v269.5h-376zm369 329.5h-362c-19.557 0-36.239-12.539-42.43-30h446.86c-6.191 17.461-22.873 30-42.43 30z"/><path d="m359.661 204.057c4.662-5.571 4.662-13.683 0-19.254l-12.001-14.341-1.654-18.627c-.644-7.236-6.378-12.971-13.614-13.614l-18.626-1.654-14.343-12.002c-5.57-4.662-13.681-4.661-19.253.001l-14.341 12.001-18.627 1.654c-7.236.644-12.972 6.379-13.614 13.614l-1.653 18.628-8.557 10.225c-41.159.359-74.536 33.94-74.536 75.182 0 41.465 33.733 75.198 75.198 75.198h70.935c33.672 0 61.065-27.394 61.065-61.065 0-12.33-3.685-23.81-9.995-33.42l1.615-18.186zm-98.261-26.251.96-10.813 10.813-.96c3.053-.271 5.949-1.472 8.3-3.438l8.324-6.966 8.326 6.967c2.35 1.967 5.246 3.166 8.299 3.438l10.813.96.96 10.813c.271 3.053 1.472 5.949 3.438 8.3l6.966 8.324-6.966 8.324c-1.967 2.351-3.167 5.247-3.438 8.3l-.213 2.399c-7.106-2.901-14.87-4.514-23.007-4.514-3.84 0-7.629.352-11.344 1.051-7.281-9.465-16.64-16.965-27.235-22.012l1.566-1.871c1.968-2.353 3.167-5.25 3.438-8.302zm33.575 123.262h-70.935c-24.923 0-45.198-20.275-45.198-45.198s20.275-45.199 45.198-45.199c16.709 0 31.992 9.165 39.885 23.919 3.652 6.826 11.896 9.753 19.035 6.755 3.801-1.597 7.843-2.406 12.015-2.406 17.13 0 31.065 13.936 31.065 31.064 0 17.13-13.936 31.065-31.065 31.065z"/></g></svg>