<svg id="Layer_1" enable-background="new 0 0 512 512" height="512" viewBox="0 0 512 512" width="512" xmlns="http://www.w3.org/2000/svg"><g><path d="m497 241h-23.315l11.428-19.794c4.143-7.174 1.685-16.349-5.49-20.49-7.175-4.144-16.349-1.685-20.49 5.49l-20.089 34.794h-146.831l103.826-103.826 38.807 10.398c1.301.349 2.607.516 3.893.516 6.622 0 12.684-4.42 14.479-11.121 2.144-8.002-2.604-16.228-10.606-18.372l-22.078-5.916 15.072-15.072c5.858-5.857 5.858-15.355 0-21.213-5.857-5.857-15.355-5.857-21.213 0l-15.073 15.073-5.916-22.078c-2.145-8.002-10.367-12.744-18.372-10.606-8.002 2.145-12.75 10.37-10.605 18.372l10.398 38.808-103.825 103.824v-146.832l34.794-20.088c7.174-4.142 9.633-13.315 5.49-20.49-4.143-7.176-13.317-9.633-20.49-5.49l-19.794 11.428v-23.314c0-8.284-6.716-15-15-15s-15 6.716-15 15v91.747c-75.694 7.55-135 71.604-135 149.252s59.306 141.702 135 149.252v91.747c0 8.284 6.716 15 15 15s15-6.716 15-15v-23.313l19.794 11.428c2.362 1.364 4.941 2.013 7.486 2.013 5.184 0 10.226-2.691 13.004-7.503 4.143-7.175 1.684-16.349-5.49-20.49l-34.794-20.089v-146.832l103.825 103.825-10.398 38.809c-2.144 8.002 2.605 16.227 10.607 18.371 1.301.348 2.606.515 3.892.515 6.622 0 12.684-4.421 14.479-11.122l5.915-22.077 15.072 15.072c2.929 2.929 6.768 4.394 10.606 4.394s7.678-1.465 10.606-4.394c5.858-5.857 5.858-15.355 0-21.213l-15.073-15.073 22.079-5.916c8.002-2.145 12.75-10.37 10.606-18.372-2.145-8.002-10.367-12.75-18.372-10.605l-38.808 10.398-103.823-103.825h146.832l20.088 34.794c2.778 4.813 7.82 7.503 13.004 7.503 2.545 0 5.124-.648 7.486-2.013 7.174-4.142 9.633-13.315 5.49-20.49l-11.427-19.794h23.314c8.284 0 15-6.716 15-15s-6.716-15-15-15zm-361 15c0-61.089 45.885-111.66 105-119.064v238.128c-59.115-7.404-105-57.975-105-119.064z"/><path d="m78.054 256c0-8.284-6.716-15-15-15h-48.054c-8.284 0-15 6.716-15 15s6.716 15 15 15h48.054c8.284 0 15-6.716 15-15z"/><path d="m108.96 130.173c2.929 2.93 6.768 4.394 10.606 4.394s7.678-1.465 10.606-4.394c5.858-5.857 5.858-15.354 0-21.213l-33.978-33.98c-5.856-5.858-15.354-5.858-21.213 0-5.858 5.857-5.858 15.354 0 21.213z"/><path d="m108.96 381.827-33.979 33.979c-5.858 5.857-5.858 15.355 0 21.213 2.929 2.929 6.768 4.394 10.606 4.394s7.678-1.465 10.606-4.394l33.979-33.979c5.858-5.857 5.858-15.355 0-21.213-5.857-5.857-15.355-5.857-21.212 0z"/><path d="m169.781 82.739c2.359 5.838 7.979 9.382 13.911 9.382 1.872 0 3.775-.353 5.617-1.098 7.68-3.104 11.39-11.848 8.284-19.528l-18.01-44.552c-3.104-7.68-11.849-11.391-19.528-8.284-7.68 3.104-11.39 11.848-8.284 19.528z"/><path d="m91.023 322.69c-3.104-7.68-11.849-11.39-19.528-8.284l-44.551 18.01c-7.68 3.104-11.39 11.848-8.284 19.528 2.36 5.838 7.979 9.382 13.911 9.382 1.872 0 3.775-.353 5.617-1.098l44.551-18.01c7.68-3.104 11.39-11.847 8.284-19.528z"/><path d="m188.522 420.655c-7.668-3.141-16.426.527-19.568 8.191l-18.223 44.465c-3.142 7.666.526 16.427 8.191 19.568 1.862.763 3.788 1.124 5.683 1.124 5.906 0 11.507-3.513 13.886-9.315l18.223-44.465c3.141-7.665-.526-16.426-8.192-19.568z"/><path d="m27.313 178.491 44.465 18.222c1.861.763 3.787 1.124 5.682 1.124 5.907 0 11.507-3.512 13.886-9.316 3.142-7.665-.526-16.426-8.192-19.567l-44.465-18.222c-7.664-3.141-16.426.526-19.567 8.192-3.143 7.665.524 16.426 8.191 19.567z"/></g></svg>