<svg id="Layer_1" enable-background="new 0 0 512.042 512.042" height="512" viewBox="0 0 512.042 512.042" width="512" xmlns="http://www.w3.org/2000/svg"><g><path d="m511.112 379.11-29.417-79.593c19.879-31.238 30.347-67.196 30.347-104.493 0-107.523-87.477-195-195-195-85.114 0-157.654 54.819-184.199 131h-87.843c-24.813 0-45 20.187-45 45v320.994c0 5.502 3.012 10.563 7.849 13.186 2.236 1.213 4.695 1.814 7.15 1.814 2.855 0 5.703-.814 8.183-2.428l74.631-48.566h218.187c24.813 0 45-20.187 45-45v-31.03c16.394-3.784 32.269-9.655 47.17-17.539l83.671 30.924c1.694.627 3.454.931 5.198.931 3.91 0 7.745-1.529 10.609-4.394 4.142-4.14 5.494-10.313 3.464-15.806zm-180.112 36.914c0 8.271-6.729 15-15 15h-222.638c-2.905 0-5.747.844-8.182 2.428l-55.18 35.909v-293.337c0-8.271 6.729-15 15-15h80.015c-1.95 11.044-2.973 22.405-2.973 34 0 107.523 87.477 195 195 195 4.667 0 9.321-.188 13.958-.52zm81.128-79.089c-4.184-1.547-8.839-1.151-12.703 1.081-24.925 14.397-53.412 22.008-82.383 22.008-90.981 0-165-74.019-165-165s74.019-165 165-165 165 74.019 165 165c0 33.809-10.16 66.309-29.38 93.986-2.795 4.024-3.448 9.16-1.75 13.756l20.763 56.177z"/><path d="m402.204 134.735-1.558-17.536c-.643-7.235-6.378-12.971-13.613-13.614l-17.538-1.558-13.501-11.299c-5.571-4.661-13.681-4.66-19.252 0l-13.502 11.299-17.538 1.558c-7.236.644-12.971 6.379-13.614 13.614l-1.558 17.536-7.814 9.338c-39.467.522-71.417 32.772-71.417 72.359 0 39.913 32.472 72.385 72.385 72.385h67.618c32.484 0 58.912-26.428 58.912-58.912 0-11.807-3.505-22.805-9.509-32.033l1.499-16.879 11.299-13.502c4.662-5.571 4.662-13.683 0-19.254zm-82.208 7.344.864-9.723 9.724-.863c3.052-.271 5.948-1.471 8.298-3.438l7.486-6.265 7.485 6.265c2.351 1.967 5.247 3.166 8.299 3.438l9.723.863.864 9.723c.271 3.053 1.471 5.949 3.438 8.3l6.264 7.485-6.264 7.485c-1.967 2.351-3.167 5.247-3.438 8.3l-.12 1.352c-6.615-2.577-13.8-4.008-21.316-4.008-3.559 0-7.072.313-10.521.936-6.782-8.708-15.399-15.671-25.137-20.46l.913-1.091c1.967-2.35 3.167-5.246 3.438-8.299zm31.307 116.738h-67.618c-23.371 0-42.385-19.014-42.385-42.385 0-23.37 19.014-42.384 42.385-42.384 15.668 0 30 8.595 37.402 22.431 3.652 6.825 11.897 9.751 19.035 6.753 3.537-1.485 7.299-2.238 11.181-2.238 15.942 0 28.912 12.97 28.912 28.911-.001 15.942-12.97 28.912-28.912 28.912z"/></g></svg>