<svg id="Layer_1" enable-background="new 0 0 511.998 511.998" height="512" viewBox="0 0 511.998 511.998" width="512" xmlns="http://www.w3.org/2000/svg"><g><path d="m255.999 0c-117.449 0-213 95.552-213 213 0 27.932 8.198 60.441 24.366 96.627 13.971 31.267 33.536 64.225 56.581 95.312 38.366 51.756 93.205 107.06 132.053 107.06s93.688-55.304 132.054-107.06c23.044-31.087 42.609-64.045 56.58-95.312 16.168-36.186 24.366-68.695 24.366-96.627 0-117.448-95.552-213-213-213zm107.953 387.073c-20.36 27.467-42.778 52.155-63.124 69.518-27.625 23.575-41.297 25.407-44.829 25.407s-17.204-1.832-44.829-25.407c-20.345-17.362-42.763-42.051-63.124-69.518-46.992-63.391-75.047-128.466-75.047-174.073 0-100.906 82.093-183 183-183 100.906 0 183 82.094 183 183 0 45.607-28.055 110.682-75.047 174.073z"/><path d="m354.516 142.985-1.838-20.699c-.643-7.236-6.379-12.972-13.614-13.614l-20.699-1.838-15.937-13.337c-5.572-4.662-13.682-4.662-19.254 0l-15.937 13.337-20.699 1.838c-7.236.643-12.971 6.378-13.614 13.614l-1.839 20.699-9.974 11.918c-44.375.047-80.462 36.162-80.462 80.548 0 44.415 36.134 80.55 80.549 80.55h77.24c35.929 0 65.159-29.23 65.159-65.16 0-13.324-4.027-25.722-10.918-36.054l1.836-20.674 13.338-15.938c4.662-5.571 4.661-13.683-.001-19.254zm-93.965 7.344 1.145-12.885 12.886-1.145c3.053-.271 5.949-1.472 8.3-3.438l9.92-8.302 9.92 8.302c2.351 1.967 5.247 3.167 8.3 3.438l12.885 1.145 1.145 12.885c.271 3.053 1.471 5.949 3.438 8.3l8.302 9.92-8.303 9.921c-1.967 2.351-3.166 5.247-3.438 8.3l-.394 4.438c-8.028-3.543-16.893-5.526-26.217-5.526-4.375 0-8.689.428-12.911 1.278-8.22-10.914-18.998-19.446-31.237-24.957l2.823-3.374c1.965-2.351 3.164-5.247 3.436-8.3zm37.887 135.672h-77.24c-27.873 0-50.549-22.677-50.549-50.55s22.676-50.55 50.549-50.55c18.687 0 35.779 10.25 44.606 26.75 3.652 6.825 11.898 9.752 19.034 6.754 4.304-1.808 8.88-2.724 13.6-2.724 19.387 0 35.159 15.772 35.159 35.159.001 19.389-15.772 35.161-35.159 35.161z"/></g></svg>