<svg id="Layer_1" enable-background="new 0 0 511.998 511.998" height="512" viewBox="0 0 511.998 511.998" width="512" xmlns="http://www.w3.org/2000/svg"><g><path d="m255.999 0c-117.448 0-213 95.552-213 213 0 27.932 8.198 60.441 24.366 96.627 13.971 31.267 33.536 64.225 56.58 95.312 38.366 51.756 93.205 107.06 132.054 107.06s93.688-55.304 132.054-107.06c23.044-31.087 42.609-64.045 56.58-95.312 16.168-36.186 24.366-68.695 24.366-96.627 0-117.448-95.552-213-213-213zm107.953 387.073c-20.36 27.467-42.778 52.155-63.124 69.518-27.625 23.575-41.297 25.407-44.829 25.407s-17.204-1.832-44.829-25.407c-20.346-17.362-42.764-42.051-63.124-69.518-46.992-63.391-75.047-128.466-75.047-174.073 0-100.906 82.094-183 183-183s183 82.094 183 183c0 45.607-28.055 110.682-75.047 174.073z"/><path d="m302.314 111.778c-4.376 0-8.69.428-12.912 1.278-15.085-20.028-38.769-32.058-64.328-32.058-44.415 0-80.55 36.135-80.55 80.55s36.135 80.549 80.55 80.549h77.24c35.929 0 65.159-29.23 65.159-65.159.001-35.929-29.23-65.16-65.159-65.16zm0 100.32h-77.24c-27.873 0-50.55-22.676-50.55-50.549s22.677-50.55 50.55-50.55c18.687 0 35.779 10.25 44.605 26.749 3.652 6.826 11.896 9.755 19.036 6.754 4.303-1.808 8.878-2.724 13.599-2.724 19.387 0 35.159 15.772 35.159 35.16.001 19.387-15.772 35.16-35.159 35.16z"/><path d="m195.999 271.499c-8.284 0-15 6.716-15 15v35.5c0 8.284 6.716 15 15 15s15-6.716 15-15v-35.5c0-8.284-6.716-15-15-15z"/><path d="m255.999 271.499c-8.284 0-15 6.716-15 15v81c0 8.284 6.716 15 15 15s15-6.716 15-15v-81c0-8.284-6.716-15-15-15z"/><path d="m316 271.499c-8.284 0-15 6.716-15 15v35.5c0 8.284 6.716 15 15 15s15-6.716 15-15v-35.5c0-8.284-6.716-15-15-15z"/></g></svg>