<svg id="Layer_1" enable-background="new 0 0 512 512" height="512" viewBox="0 0 512 512" width="512" xmlns="http://www.w3.org/2000/svg"><g><path d="m482 0h-140c-16.542 0-30 13.458-30 30v42.353c-18.081-5.543-36.846-8.353-56-8.353-105.869 0-192 86.131-192 192 0 19.172 2.812 37.93 8.354 56h-42.354c-16.542 0-30 13.458-30 30v140c0 16.542 13.458 30 30 30h150c16.542 0 30-13.458 30-30v-39.592c14.988 3.71 30.39 5.592 46 5.592 105.869 0 192-86.131 192-192 0-19.167-2.807-37.928-8.349-56h42.349c16.542 0 30-13.458 30-30v-140c0-16.542-13.458-30-30-30zm-388 256c0-27.385 6.84-53.198 18.886-75.839h116.134c14.177 0 25.71 11.533 25.71 25.71 0 13.676-10.693 24.953-24.345 25.674-22.292 1.177-51.977 34.725-52.061 34.918l-45.537 45.537h-28.784c-6.641-17.899-10.003-36.698-10.003-56zm86 226h-150l-.007-140h.007 109c3.979 0 7.794-1.58 10.606-4.394l30.394-30.393zm136.191-75.602c-7.734-4.63-12.624-13.047-12.624-22.076 0-10.217 6.103-19.479 15.547-23.597 21.574-9.407 34.212-31.431 31.447-54.805-.118-.994-.178-2.01-.178-3.018 0-14.177 11.533-25.71 25.71-25.71h39.353c.397 0 .786-.029 1.175-.059-7.699 58.84-47.094 107.843-100.43 129.265zm101.58-159.007c-.76-.118-1.532-.198-2.324-.198h-39.353c-30.719 0-55.71 24.991-55.71 55.71 0 2.182.13 4.383.385 6.542 1.219 10.301-4.138 19.635-13.645 23.78-20.385 8.889-33.557 28.945-33.557 51.097 0 11.349 3.54 22.251 9.764 31.36-8.888 1.517-18.017 2.318-27.331 2.318-15.688 0-31.12-2.249-46-6.678v-139.096c5.454-6.311 13.346-10.268 21.967-10.722 29.587-1.563 52.763-25.999 52.763-55.633 0-30.719-24.991-55.71-55.71-55.71h-95.569c29.728-34.375 73.642-56.161 122.549-56.161 19.284 0 38.091 3.375 56 10.016v121.984c0 6.066 3.654 11.536 9.26 13.858 1.855.769 3.805 1.142 5.737 1.142 3.903 0 7.74-1.524 10.609-4.394l36.607-36.606h33.778c5.649 15.228 8.927 31.108 9.78 47.391zm64.229-77.391h-114c-3.979 0-7.794 1.58-10.606 4.394l-15.395 15.395-.006-159.789h.007 140z"/><path d="m366.595 118.808v11.599c0 8.284 6.716 15 15 15h11.598l8.201 8.201c2.928 2.928 6.767 4.392 10.606 4.392s7.678-1.464 10.606-4.393l8.201-8.201h11.598c8.284 0 15-6.716 15-15v-11.599l8.201-8.201c2.814-2.812 4.394-6.628 4.394-10.606 0-3.979-1.581-7.794-4.394-10.607l-8.201-8.2v-11.598c0-8.284-6.716-15-15-15h-11.598l-8.201-8.201c-5.857-5.857-15.355-5.857-21.213 0l-8.201 8.201h-11.598c-8.284 0-15 6.716-15 15v11.598l-8.201 8.2c-2.812 2.813-4.393 6.628-4.393 10.607 0 3.978 1.58 7.794 4.394 10.606zm25.606-20.794c2.813-2.813 4.394-6.629 4.394-10.607v-2.812h2.811c3.979 0 7.794-1.58 10.606-4.394l1.988-1.988 1.988 1.988c2.813 2.813 6.628 4.394 10.606 4.394h2.811v2.812c0 3.979 1.58 7.794 4.394 10.607l1.987 1.986-1.987 1.988c-2.813 2.813-4.394 6.628-4.394 10.606v2.812h-2.811c-3.978 0-7.793 1.58-10.606 4.393l-1.988 1.989-1.988-1.989c-2.813-2.813-6.629-4.393-10.606-4.393h-2.811v-2.812c0-3.979-1.58-7.794-4.394-10.606l-1.987-1.988z"/><path d="m141.213 397 .557-.557c5.858-5.857 5.858-15.355 0-21.213-5.857-5.857-15.355-5.857-21.213 0l-.557.557v-1.232c0-8.284-6.716-15-15-15s-15 6.716-15 15v1.232l-.872-.872c-5.857-5.857-15.355-5.857-21.213 0s-5.858 15.355 0 21.213l.872.872h-.787c-8.284 0-15 6.716-15 15s6.716 15 15 15h.787l-.557.557c-5.858 5.857-5.858 15.355 0 21.213 2.929 2.929 6.768 4.394 10.606 4.394s7.678-1.465 10.606-4.394l.558-.557v1.233c0 8.284 6.716 15 15 15s15-6.716 15-15v-1.233l.871.871c2.929 2.929 6.768 4.394 10.606 4.394s7.678-1.465 10.606-4.394c5.858-5.857 5.858-15.355 0-21.213l-.87-.871h.787c8.284 0 15-6.716 15-15s-6.716-15-15-15z"/></g></svg>