<svg id="Layer_1" enable-background="new 0 0 512.166 512.166" height="512" viewBox="0 0 512.166 512.166" width="512" xmlns="http://www.w3.org/2000/svg"><g><path d="m512.125 15c0-8.284-6.716-15-15-15h-378.166c-8.284 0-15 6.716-15 15 0 7.285 5.195 13.353 12.082 14.711v157.639c-37.992 6.944-66.887 40.266-66.887 80.232 0 23.467 9.973 44.638 25.888 59.535h-13.722c-33.789 0-61.278 27.584-61.278 61.49v108.558c0 8.284 6.716 15 15 15s15-6.716 15-15v-108.557c0-17.364 14.031-31.49 31.278-31.49h24.418v2.048c0 24.813 20.187 45 45 45s45-20.187 45-45v-2.048h24.417c17.247 0 31.278 14.127 31.278 31.49v108.553c0 8.284 6.716 15 15 15s15-6.716 15-15v-108.553c0-11.551-3.196-22.365-8.739-31.608h232.347c8.284 0 15-6.716 15-15v-312.289c6.888-1.358 12.084-7.425 12.084-14.711zm-381.387 200.999c15.624 0 29.637 6.992 39.104 18h-78.209c9.468-11.008 23.481-18 39.105-18zm51.584 51.584c0 28.443-23.14 51.584-51.583 51.584s-51.584-23.141-51.584-51.584c0-1.206.057-2.398.138-3.584h102.891c.081 1.186.138 2.378.138 3.584zm-51.584 106.583c-8.271 0-15-6.729-15-15v-11.405c4.866.908 9.875 1.406 15 1.406s10.134-.498 15-1.406v11.405c0 8.272-6.729 15-15 15zm339.304-47.166-283.607.118c15.914-14.897 25.887-36.068 25.887-59.535 0-39.754-28.588-72.938-66.28-80.124v-157.459h324z"/><path d="m297.226 268.085h67.619c32.484 0 58.912-26.428 58.912-58.911 0-11.807-3.505-22.805-9.509-32.034l1.499-16.878 11.299-13.502c4.662-5.571 4.662-13.683 0-19.254l-11.299-13.502-1.558-17.537c-.643-7.236-6.378-12.972-13.614-13.614l-17.537-1.557-13.502-11.3c-5.571-4.66-13.682-4.66-19.253 0l-13.502 11.3-17.537 1.557c-7.236.643-12.972 6.378-13.614 13.614l-1.558 17.537-7.814 9.337c-39.466.522-71.417 32.772-71.417 72.36.001 39.912 32.472 72.384 72.385 72.384zm36.312-146.737.864-9.723 9.722-.863c3.053-.271 5.949-1.471 8.3-3.438l7.486-6.265 7.486 6.265c2.351 1.967 5.247 3.166 8.3 3.438l9.722.863.864 9.723c.271 3.053 1.471 5.949 3.438 8.3l6.265 7.485-6.265 7.485c-1.967 2.351-3.167 5.247-3.438 8.3l-.12 1.351c-6.615-2.577-13.8-4.008-21.316-4.008-3.558 0-7.072.313-10.521.936-6.781-8.708-15.398-15.67-25.137-20.459l.912-1.09c1.967-2.351 3.167-5.248 3.438-8.3zm-36.312 31.968c15.669 0 30 8.595 37.403 22.431 3.651 6.825 11.895 9.751 19.033 6.754 3.539-1.485 7.301-2.239 11.183-2.239 15.942 0 28.912 12.97 28.912 28.912 0 15.941-12.97 28.911-28.912 28.911h-67.619c-23.371 0-42.384-19.014-42.384-42.384 0-23.371 19.013-42.385 42.384-42.385z"/></g></svg>