<svg id="Layer_1" enable-background="new 0 0 512.083 512.083" height="512" viewBox="0 0 512.083 512.083" width="512" xmlns="http://www.w3.org/2000/svg"><g><path d="m512.083 15.016c0-8.284-6.716-15-15-15h-378.165c-8.284 0-15 6.716-15 15 0 7.285 5.195 13.353 12.082 14.711v166.403c-.425-.036-19.389-.065-19.389-.065-53.272 0-96.611 43.339-96.611 96.61v37.017c0 5.358 2.859 10.311 7.5 12.99 5.56 3.21 11.94 4.649 18.678 4.649 16.535-.001 35.211-8.672 49.128-21.12 3.807 5.096 8.202 9.726 13.072 13.806-20.233 8.919-38.233 23.007-51.731 40.73-17.432 22.893-26.647 50.147-26.647 78.818v37.502c0 8.284 6.716 15 15 15s15-6.716 15-15v-37.502c0-38.354 22.354-73.252 56.039-90.038 2.705 22.245 21.693 39.538 44.657 39.538 22.905 0 41.854-17.205 44.635-39.369 33.757 16.906 55.669 51.547 55.669 89.869v37.499c0 8.284 6.716 15 15 15s15-6.716 15-15v-37.499c0-40.723-19.044-78.234-49.956-102.549h263.956c8.284 0 15-6.716 15-15v-312.288c6.887-1.359 12.083-7.426 12.083-14.712zm-422.727 267.411c3.735.419 7.546.638 11.406.638 15.149 0 29.359-3.299 40.181-9.106 10.822 5.808 25.032 9.106 40.181 9.106 3.687 0 7.332-.2 10.91-.583-2.524 26.105-24.581 46.582-51.337 46.582-26.775 0-48.843-20.506-51.341-46.637zm91.768-29.362c-14.56 0-25.548-4.148-29.979-8.26-5.754-5.336-14.649-5.336-20.403 0-4.432 4.111-15.42 8.26-29.979 8.26-1.819 0-3.607-.086-5.376-.216 8.756-16.043 25.783-26.952 45.311-26.952 19.543 0 36.581 10.924 45.332 26.987-1.618.107-3.249.181-4.906.181zm-151.124 63.955v-24.345c0-28.99 18.622-53.7 44.528-62.832-9.685 13.415-15.414 29.865-15.414 47.638 0 6.798.849 13.398 2.423 19.716-8.518 11.15-22.477 18.122-31.537 19.823zm110.696 62.045c-8.271 0-15-6.729-15-15v-6.407c4.866.908 9.875 1.406 15 1.406s10.134-.498 15-1.406v6.407c0 8.271-6.729 15-15 15zm329.304-52.049h-264.541c10.539-13.745 16.821-30.916 16.821-49.535 0-43.202-33.759-78.649-76.28-81.393v-166.072h324z"/><path d="m297.185 268.102h67.619c32.484 0 58.912-26.428 58.912-58.912 0-11.807-3.505-22.805-9.509-32.033l1.499-16.879 11.299-13.502c4.662-5.571 4.662-13.683 0-19.254l-11.299-13.502-1.558-17.536c-.643-7.235-6.378-12.971-13.613-13.614l-17.538-1.558-13.502-11.299c-5.571-4.662-13.682-4.662-19.253 0l-13.502 11.299-17.538 1.558c-7.235.644-12.971 6.379-13.613 13.614l-1.558 17.536-7.815 9.338c-39.466.522-71.416 32.772-71.416 72.359 0 39.913 32.472 72.385 72.385 72.385zm36.311-146.738.864-9.723 9.723-.863c3.052-.271 5.949-1.471 8.299-3.438l7.486-6.264 7.486 6.264c2.35 1.968 5.247 3.167 8.299 3.438l9.723.863.864 9.723c.271 3.053 1.471 5.949 3.438 8.3l6.265 7.485-6.265 7.485c-1.967 2.351-3.167 5.247-3.438 8.3l-.12 1.352c-6.615-2.577-13.8-4.008-21.316-4.008-3.559 0-7.072.313-10.521.936-6.781-8.708-15.398-15.671-25.137-20.46l.913-1.091c1.966-2.35 3.166-5.246 3.437-8.299zm-36.311 31.969c15.669 0 30.001 8.595 37.403 22.431 3.651 6.824 11.897 9.752 19.035 6.753 3.536-1.485 7.298-2.238 11.181-2.238 15.942 0 28.912 12.97 28.912 28.911 0 15.942-12.97 28.912-28.912 28.912h-67.619c-23.371 0-42.384-19.014-42.384-42.385-.001-23.37 19.013-42.384 42.384-42.384z"/></g></svg>