<svg id="Layer_1" enable-background="new 0 0 512 512" height="512" viewBox="0 0 512 512" width="512" xmlns="http://www.w3.org/2000/svg"><g><path d="m193 317.738v-252.738c0-35.841-29.159-65-65-65s-65 29.159-65 65v252.738c-27.074 20.371-43 52.033-43 86.262 0 59.552 48.448 108 108 108s108-48.448 108-108c0-34.228-15.929-65.891-43-86.262zm-65 164.262c-43.01 0-78-34.99-78-78 0-26.762 13.486-51.355 36.076-65.787 4.313-2.756 6.924-7.521 6.924-12.641v-260.572c0-19.299 15.701-35 35-35s35 15.701 35 35v260.573c0 5.119 2.61 9.885 6.925 12.641 22.588 14.431 36.075 39.024 36.075 65.786 0 43.01-34.99 78-78 78z"/><path d="m143 361.58v-296.58c0-8.284-6.716-15-15-15s-15 6.716-15 15v296.58c-17.459 6.192-30 22.865-30 42.42 0 24.813 20.187 45 45 45s45-20.187 45-45c0-19.555-12.542-36.228-30-42.42zm-15 57.42c-8.271 0-15-6.729-15-15s6.729-15 15-15 15 6.729 15 15-6.729 15-15 15z"/><path d="m486.175 172.68c-4.363-3.373-10.227-4.078-15.267-1.84-13.278 5.901-28.006 8.377-42.583 7.171-24.567-2.039-46.44-13.864-61.59-33.298-15.169-19.46-21.303-43.609-17.273-68 .899-5.441-1.261-10.938-5.624-14.312-4.363-3.375-10.227-4.079-15.267-1.841-39.209 17.425-65.77 54.789-69.314 97.51-2.591 31.216 7.129 61.572 27.37 85.477s48.579 38.496 79.794 41.086c3.271.271 6.536.406 9.79.406 26.132 0 51.457-8.69 72.2-24.94 23.193-18.169 38.602-44.132 43.389-73.107.898-5.442-1.262-10.938-5.625-14.312zm-117.273 82.056c-23.229-1.928-44.317-12.786-59.381-30.575-15.063-17.789-22.296-40.379-20.368-63.609 1.908-22.984 12.769-43.886 29.669-58.605 2.088 22.114 10.409 43.45 24.253 61.21 20.064 25.74 50.232 42.052 82.769 44.751 9.461.788 18.966.414 28.281-1.077-15.636 30.961-49.131 50.888-85.223 47.905z"/></g></svg>