<svg id="Layer_1" enable-background="new 0 0 512.001 512.001" height="512" viewBox="0 0 512.001 512.001" width="512" xmlns="http://www.w3.org/2000/svg"><g><path d="m134.001 376.751c8.262 0 15-6.739 15-15 0-8.262-6.738-15-15-15s-15 6.738-15 15c-.001 8.261 6.738 15 15 15z"/><path d="m194.001 376.751c8.262 0 15-6.739 15-15 0-8.262-6.738-15-15-15s-15 6.738-15 15c0 8.261 6.738 15 15 15z"/><path d="m254.001 376.751c8.262 0 15-6.739 15-15 0-8.262-6.738-15-15-15s-15 6.738-15 15c-.001 8.261 6.738 15 15 15z"/><path d="m314.001 376.751c8.262 0 15-6.739 15-15 0-8.262-6.738-15-15-15s-15 6.738-15 15c-.001 8.261 6.738 15 15 15z"/><path d="m374.001 376.751c8.262 0 15-6.739 15-15 0-8.262-6.738-15-15-15s-15 6.738-15 15c0 8.261 6.738 15 15 15z"/><path d="m104.001 406.75c-8.262 0-15 6.738-15 15s6.738 15 15 15 15-6.739 15-15c0-8.262-6.738-15-15-15z"/><path d="m164.001 406.75c-8.262 0-15 6.738-15 15s6.739 15 15 15 15-6.739 15-15c.001-8.262-6.738-15-15-15z"/><path d="m224.001 406.75c-8.262 0-15 6.738-15 15s6.739 15 15 15c8.262 0 15-6.739 15-15 0-8.262-6.738-15-15-15z"/><path d="m284.001 406.75c-8.262 0-15 6.738-15 15s6.738 15 15 15 15-6.739 15-15c0-8.262-6.738-15-15-15z"/><path d="m344.001 406.75c-8.262 0-15 6.738-15 15s6.739 15 15 15 15-6.739 15-15c.001-8.262-6.738-15-15-15z"/><path d="m404.001 406.75c-8.262 0-15 6.738-15 15s6.739 15 15 15c8.262 0 15-6.739 15-15 0-8.262-6.738-15-15-15z"/><path d="m74.001 466.75c-8.262 0-15 6.738-15 15s6.739 15 15 15c8.262 0 15-6.739 15-15 0-8.262-6.738-15-15-15z"/><path d="m134.001 466.75c-8.262 0-15 6.738-15 15s6.739 15 15 15c8.262 0 15-6.739 15-15 0-8.262-6.738-15-15-15z"/><path d="m194.001 466.75c-8.262 0-15 6.738-15 15s6.739 15 15 15c8.262 0 15-6.739 15-15 0-8.262-6.738-15-15-15z"/><path d="m254.001 466.75c-8.262 0-15 6.738-15 15s6.739 15 15 15c8.262 0 15-6.739 15-15 0-8.262-6.738-15-15-15z"/><path d="m314.001 466.75c-8.262 0-15 6.738-15 15s6.739 15 15 15c8.262 0 15-6.739 15-15 0-8.262-6.738-15-15-15z"/><path d="m374.001 466.75c-8.262 0-15 6.738-15 15s6.739 15 15 15c8.262 0 15-6.739 15-15 0-8.262-6.738-15-15-15z"/><path d="m434.001 466.75c-8.262 0-15 6.738-15 15s6.738 15 15 15 15-6.739 15-15c0-8.262-6.738-15-15-15z"/><path d="m487.315 120.032c-12.108-10.685-27.322-16.969-43.19-18.096-3.629-12.755-10.703-24.348-20.614-33.53-13.53-12.535-31.145-19.438-49.598-19.438-14.554 0-28.673 4.417-40.558 12.347-5.467-10.061-12.888-19.063-21.865-26.365-15.618-12.704-35.325-19.7-55.49-19.7s-39.872 6.996-55.49 19.7c-8.977 7.302-16.397 16.304-21.864 26.365-11.886-7.929-26.005-12.347-40.559-12.347-18.454 0-36.068 6.903-49.598 19.438-9.91 9.181-16.982 20.771-20.612 33.522-37.871 2.638-67.877 34.292-67.877 72.822 0 20.917 8.989 40.854 24.661 54.697 12.061 10.653 27.211 16.938 43.02 18.102 8.528 31.039 37.104 53.701 70.406 53.701 14.679 0 28.904-4.488 40.845-12.537 5.494 9.946 12.903 18.837 21.833 26.045 15.573 12.569 35.189 19.492 55.235 19.492s39.663-6.922 55.235-19.492c8.929-7.207 16.338-16.1 21.833-26.045 11.94 8.049 26.166 12.537 40.845 12.537 33.3 0 61.876-22.666 70.406-53.701 15.808-1.165 30.96-7.45 43.021-18.102 15.672-13.843 24.661-33.779 24.661-54.697 0-20.93-8.998-40.874-24.686-54.718zm-19.836 86.931c-9.25 8.17-21.588 11.982-33.857 10.454-4.093-.509-8.209.688-11.39 3.308s-5.144 6.434-5.427 10.545c-1.547 22.419-20.388 39.981-42.893 39.981-13.822 0-26.458-6.399-34.666-17.558-3.476-4.726-9.387-6.99-15.133-5.798-5.744 1.193-10.266 5.625-11.573 11.345-6.057 26.501-29.307 45.011-56.541 45.011s-50.485-18.509-56.542-45.011c-1.307-5.719-5.829-10.151-11.573-11.344-1.017-.211-2.039-.314-3.051-.314-4.709 0-9.221 2.223-12.082 6.112-8.208 11.158-20.843 17.558-34.666 17.558-22.504 0-41.345-17.562-42.893-39.981-.284-4.111-2.247-7.925-5.427-10.545-3.181-2.62-7.299-3.815-11.389-3.308-12.268 1.524-24.607-2.284-33.857-10.455-9.226-8.152-14.519-19.893-14.519-32.213 0-23.71 19.29-43 43-43 1.809 0 3.631.113 5.416.337 4.063.51 8.152-.663 11.327-3.243 3.176-2.581 5.159-6.347 5.491-10.425 1.799-22.123 20.622-39.452 42.854-39.452 13.763 0 26.366 6.354 34.577 17.435 3.5 4.723 9.435 6.965 15.185 5.738 5.749-1.228 10.25-5.701 11.515-11.441 5.802-26.334 29.621-45.449 56.635-45.449s50.833 19.114 56.636 45.45c1.265 5.741 5.767 10.213 11.515 11.441 5.75 1.23 11.686-1.016 15.185-5.738 8.21-11.08 20.813-17.435 34.576-17.435 22.231 0 41.055 17.33 42.854 39.452.332 4.078 2.315 7.844 5.49 10.424 3.175 2.581 7.27 3.752 11.327 3.243 12.276-1.536 24.623 2.267 33.882 10.438 9.238 8.152 14.536 19.897 14.536 32.225 0 12.321-5.293 24.061-14.522 32.213z"/></g></svg>