<svg id="Layer_1" enable-background="new 0 0 512 512" height="512" viewBox="0 0 512 512" width="512" xmlns="http://www.w3.org/2000/svg"><g><path d="m317.137 83c-.29 0-.585.001-.875.004-30.259.278-58.37 15.342-75.598 39.503-9.293-4.495-19.557-6.902-29.984-6.902-15.763 0-31.169 5.47-43.379 15.401-5.929 4.823-10.988 10.593-14.992 17.012-8.603-4.884-18.426-7.567-28.514-7.567-14.596 0-28.527 5.46-39.229 15.375-7.158 6.631-12.444 14.852-15.494 23.913-28.662 3.358-50.974 27.794-50.974 57.343 0 16.545 7.109 32.313 19.506 43.263 8.842 7.81 19.786 12.651 31.296 14.05 7.589 23.191 29.506 39.847 54.896 39.847 10.189 0 20.101-2.733 28.758-7.705 4.013 6.335 9.057 12.029 14.947 16.783 12.175 9.827 27.51 15.238 43.18 15.238 15.671 0 31.006-5.412 43.18-15.238 5.891-4.755 10.936-10.448 14.947-16.783 8.657 4.972 18.568 7.705 28.758 7.705 25.39 0 47.307-16.656 54.896-39.847 11.51-1.399 22.454-6.24 31.296-14.05 12.396-10.949 19.507-26.718 19.507-43.263 0-5.984-.943-11.862-2.716-17.451 6.925-13.463 10.494-28.421 10.354-43.71-.475-51.419-42.453-92.921-93.766-92.921zm-.6 30.003c.199-.002.396-.003.595-.003 34.896 0 63.448 28.228 63.77 63.196.044 4.802-.456 9.554-1.46 14.18-8.027-5.825-17.385-9.469-27.151-10.627-3.049-9.064-8.337-17.289-15.497-23.922-10.702-9.914-24.634-15.375-39.229-15.375-10.087 0-19.911 2.684-28.513 7.567-1.477-2.367-3.099-4.644-4.853-6.819 11.622-17.208 31.21-28.003 52.338-28.197zm47.359 144.856c-6.056 5.349-13.815 7.747-21.847 6.744-4.089-.506-8.208.688-11.39 3.307-3.181 2.621-5.144 6.434-5.427 10.545-.999 14.459-13.152 25.786-27.669 25.786-8.916 0-17.067-4.129-22.363-11.329-3.477-4.725-9.382-6.989-15.133-5.798-5.744 1.193-10.266 5.625-11.573 11.344-4.051 17.722-19.601 30.099-37.815 30.099s-33.765-12.377-37.815-30.099c-1.308-5.719-5.829-10.151-11.573-11.344-1.017-.211-2.038-.314-3.051-.314-4.71 0-9.221 2.223-12.082 6.112-5.296 7.2-13.447 11.329-22.363 11.329-14.517 0-26.67-11.326-27.669-25.786-.283-4.111-2.246-7.924-5.427-10.545-3.181-2.619-7.295-3.815-11.39-3.307-8.038 1.003-15.791-1.396-21.846-6.744-6.04-5.335-9.366-12.714-9.366-20.778 0-15.294 12.443-27.737 27.737-27.737 1.168 0 2.347.073 3.502.218 4.06.507 8.15-.664 11.325-3.244 3.175-2.581 5.158-6.346 5.489-10.424 1.161-14.267 13.303-25.443 27.644-25.443 8.879 0 17.009 4.1 22.307 11.25 3.499 4.723 9.439 6.969 15.185 5.738 5.749-1.228 10.251-5.7 11.516-11.441 3.881-17.611 19.811-30.393 37.878-30.393 8.448 0 16.427 2.795 22.927 7.571 1.202 1.556 2.727 2.89 4.531 3.898 5.087 5.087 8.803 11.583 10.421 18.924 1.265 5.741 5.767 10.213 11.516 11.441 5.752 1.23 11.686-1.016 15.185-5.738 5.298-7.149 13.428-11.25 22.306-11.25 14.341 0 26.482 11.176 27.644 25.443.331 4.078 2.314 7.844 5.489 10.424s7.267 3.753 11.326 3.243c8.039-1.004 15.802 1.385 21.864 6.734 2.69 2.374 4.839 5.156 6.4 8.221.027.062.061.122.089.184 1.886 3.775 2.886 7.974 2.886 12.381-.002 8.065-3.328 15.443-9.368 20.778z"/><path d="m315.953 64.667h.141c8.284-.076 14.938-6.854 14.861-15.137l-.318-34.667c-.075-8.238-6.776-14.863-14.996-14.863-.047 0-.094 0-.141 0-8.284.076-14.938 6.854-14.861 15.137l.318 34.667c.075 8.238 6.776 14.863 14.996 14.863z"/><path d="m478.766 160.296-34.667.318c-8.284.076-14.938 6.854-14.861 15.137.075 8.237 6.775 14.862 14.996 14.862h.141l34.667-.318c8.284-.076 14.938-6.854 14.861-15.137-.077-8.284-6.89-14.921-15.137-14.862z"/><path d="m440.978 50.631c-5.912-5.803-15.407-5.715-21.213.195l-24.288 24.739c-5.804 5.912-5.716 15.409.195 21.212 2.921 2.867 6.715 4.296 10.508 4.296 3.885 0 7.768-1.5 10.705-4.491l24.288-24.739c5.804-5.911 5.716-15.408-.195-21.212z"/><path d="m215.905 98.427c2.92 2.867 6.715 4.296 10.508 4.296 3.885 0 7.768-1.5 10.704-4.491 5.804-5.911 5.717-15.408-.194-21.212l-24.738-24.289c-5.91-5.804-15.407-5.717-21.212.195-5.804 5.911-5.717 15.408.194 21.212z"/><path d="m359.198 72.856c1.845.747 3.749 1.1 5.624 1.1 5.93 0 11.547-3.541 13.908-9.375l13.01-32.135c3.109-7.679-.596-16.424-8.274-19.533-7.677-3.107-16.424.596-19.532 8.275l-13.01 32.135c-3.109 7.679.596 16.425 8.274 19.533z"/><path d="m472.715 223.592-32.135-13.01c-7.675-3.108-16.423.595-19.532 8.275-3.109 7.679.596 16.424 8.274 19.533l32.135 13.01c1.844.747 3.749 1.1 5.624 1.1 5.93 0 11.546-3.541 13.908-9.375 3.11-7.679-.595-16.424-8.274-19.533z"/><path d="m434.179 142.2c1.95 0 3.935-.383 5.844-1.192l31.924-13.523c7.628-3.231 11.191-12.035 7.96-19.663-3.231-7.627-12.034-11.194-19.662-7.96l-31.923 13.523c-7.629 3.231-11.192 12.035-7.961 19.663 2.422 5.718 7.975 9.152 13.818 9.152z"/><path d="m253.726 65.583c2.423 5.719 7.976 9.153 13.818 9.153 1.95 0 3.935-.383 5.845-1.192 7.628-3.231 11.191-12.035 7.96-19.663l-13.523-31.922c-3.231-7.627-12.029-11.194-19.663-7.96-7.628 3.231-11.191 12.035-7.96 19.663z"/><path d="m229.025 405.594c-4.345-6.372-9.27-13.594-18.346-13.594s-14.001 7.222-18.346 13.594c-3.438 5.04-7.314 11.416-10.916 17.953-10.443 18.949-15.738 33.569-15.738 43.453 0 24.813 20.187 45 45 45s45-20.187 45-45c0-9.884-5.295-24.504-15.738-43.453-3.602-6.537-7.479-12.913-10.916-17.953zm-18.346 76.406c-8.271 0-15-6.729-15-15 0-5.858 7.876-21.986 15-34.294 7.124 12.308 15 28.436 15 34.294 0 8.271-6.729 15-15 15z"/><path d="m100.428 360.458c-4.346-6.372-9.271-13.594-18.347-13.594s-14.001 7.222-18.346 13.594c-3.438 5.04-7.314 11.416-10.916 17.953-10.443 18.949-15.738 33.569-15.738 43.453 0 24.813 20.187 45 45 45s45.001-20.187 45.001-45c0-9.884-5.295-24.504-15.738-43.454-3.603-6.536-7.48-12.912-10.916-17.952zm-18.347 76.406c-8.271 0-15-6.729-15-15 0-5.858 7.876-21.987 15-34.294 7.125 12.308 15.001 28.436 15.001 34.294 0 8.271-6.729 15-15.001 15z"/><path d="m357.622 360.458c-4.345-6.372-9.27-13.594-18.346-13.594s-14.001 7.222-18.346 13.594c-3.438 5.04-7.314 11.416-10.916 17.953-10.443 18.949-15.738 33.569-15.738 43.453 0 24.813 20.187 45 45 45s45-20.187 45-45c0-9.884-5.295-24.504-15.738-43.453-3.601-6.537-7.478-12.913-10.916-17.953zm-18.345 76.406c-8.271 0-15-6.729-15-15 0-5.858 7.876-21.986 15-34.294 7.124 12.308 15 28.436 15 34.294 0 8.271-6.729 15-15 15z"/></g></svg>