<svg id="Layer_1" enable-background="new 0 0 512 512" height="512" viewBox="0 0 512 512" width="512" xmlns="http://www.w3.org/2000/svg"><g><path d="m487.314 105.282c-12.107-10.685-27.321-16.969-43.189-18.096-3.629-12.755-10.702-24.347-20.614-33.53-13.53-12.535-31.145-19.438-49.598-19.438-14.554 0-28.673 4.418-40.559 12.347-5.468-10.061-12.888-19.063-21.865-26.365-15.618-12.704-35.324-19.7-55.489-19.7s-39.871 6.996-55.49 19.7c-8.977 7.302-16.397 16.304-21.864 26.364-11.885-7.928-26.006-12.347-40.559-12.347-18.454 0-36.068 6.903-49.599 19.438-9.909 9.181-16.981 20.771-20.612 33.522-37.871 2.639-67.876 34.293-67.876 72.823 0 20.918 8.988 40.854 24.661 54.698 12.056 10.647 27.199 16.931 43 18.1 3.497 12.859 10.468 24.473 20.212 33.681l-15.609 19.852c-3.093 3.934-4.021 9.152-2.473 13.911 1.549 4.759 5.368 8.433 10.185 9.794l61.794 17.467-7.629 92.74c-.548 6.662 3.378 12.883 9.628 15.254 1.737.659 3.537.977 5.317.977 4.624 0 9.111-2.143 12.007-6.005l83.723-111.7c3.702.47 7.442.73 11.184.73 20.046 0 39.662-6.922 55.235-19.492 8.929-7.207 16.338-16.1 21.832-26.045 11.94 8.049 26.166 12.537 40.846 12.537 33.302 0 61.878-22.662 70.405-53.701 15.808-1.165 30.96-7.45 43.021-18.102 15.673-13.842 24.661-33.778 24.661-54.696 0-20.93-8.998-40.874-24.686-54.718zm-325.501 196.712-52.117-14.732 74.707-95.019-15.638 55.461c-1.092 3.875-.581 8.027 1.419 11.521s5.32 6.038 9.215 7.059l56.22 14.737-67.311 89.803 4.374-53.167c.588-7.148-3.967-13.712-10.869-15.663zm305.666-109.781c-9.25 8.17-21.597 11.977-33.856 10.454-4.088-.507-8.208.687-11.39 3.308-3.181 2.62-5.144 6.434-5.428 10.545-1.547 22.419-20.387 39.981-42.892 39.981-13.823 0-26.458-6.399-34.666-17.557-3.476-4.725-9.383-6.99-15.133-5.798-5.744 1.193-10.266 5.625-11.573 11.345-5.173 22.633-22.89 39.426-44.915 43.849l5.377-7.174c2.995-3.997 3.805-9.221 2.16-13.937-1.645-4.715-5.528-8.303-10.359-9.569l-63.018-16.519 32.021-113.569c1.942-6.891-1.255-14.194-7.637-17.44-6.384-3.248-14.168-1.529-18.593 4.099l-101.032 128.5c-6.628-7.128-10.667-16.303-11.351-26.21-.284-4.111-2.247-7.925-5.428-10.545s-7.295-3.817-11.39-3.307c-12.271 1.524-24.606-2.284-33.856-10.454-9.227-8.153-14.52-19.895-14.52-32.215 0-23.71 19.29-43 43-43 1.806 0 3.629.114 5.418.338 4.059.508 8.151-.664 11.325-3.244 3.175-2.581 5.158-6.346 5.489-10.424 1.8-22.123 20.623-39.452 42.854-39.452 13.764 0 26.366 6.354 34.576 17.435 3.499 4.723 9.438 6.969 15.185 5.738 5.749-1.228 10.251-5.701 11.516-11.441 5.803-26.336 29.622-45.45 56.637-45.45 27.014 0 50.833 19.114 56.637 45.45 1.265 5.741 5.767 10.213 11.516 11.441 5.752 1.229 11.686-1.016 15.185-5.738 8.21-11.08 20.813-17.435 34.576-17.435 22.231 0 41.055 17.329 42.854 39.452.331 4.078 2.314 7.844 5.489 10.425s7.266 3.754 11.326 3.243c12.274-1.534 24.623 2.267 33.883 10.438 9.236 8.151 14.534 19.897 14.534 32.224 0 12.32-5.293 24.062-14.521 32.213z"/><path d="m274.346 405.094c-4.345-6.372-9.27-13.594-18.346-13.594s-14.001 7.222-18.346 13.594c-3.438 5.04-7.314 11.416-10.916 17.953-10.443 18.949-15.738 33.569-15.738 43.453 0 24.813 20.187 45 45 45s45-20.187 45-45c0-9.884-5.295-24.504-15.738-43.453-3.602-6.537-7.479-12.913-10.916-17.953zm-18.346 76.406c-8.271 0-15-6.729-15-15 0-5.858 7.876-21.986 15-34.294 7.124 12.308 15 28.436 15 34.294 0 8.271-6.729 15-15 15z"/><path d="m409.346 334.094c-4.345-6.372-9.27-13.594-18.346-13.594s-14.001 7.222-18.346 13.594c-3.438 5.041-7.314 11.416-10.916 17.953-10.443 18.95-15.738 33.569-15.738 43.453 0 24.813 20.187 45 45 45s45-20.187 45-45c0-9.884-5.295-24.503-15.738-43.453-3.602-6.537-7.479-12.913-10.916-17.953zm-18.346 76.406c-8.271 0-15-6.729-15-15 0-5.858 7.876-21.986 15-34.294 7.124 12.308 15 28.436 15 34.294 0 8.271-6.729 15-15 15z"/></g></svg>