<svg height="512pt" viewBox="-46 0 512 512" width="512pt" xmlns="http://www.w3.org/2000/svg"><path d="m380 243c0-5.523438-4.476562-10-10-10s-10 4.476562-10 10c0 33.085938-26.914062 60-60 60-5.523438 0-10 4.476562-10 10s4.476562 10 10 10c44.113281 0 80-35.886719 80-80zm0 0"/><path d="m171.664062 340.472656c-5.285156 7.972656-51.664062 78.761719-51.664062 108.527344 0 34.148438 27.476562 63 60 63s60-28.851562 60-63c0-29.765625-46.378906-100.554688-51.664062-108.527344-1.855469-2.792968-4.984376-4.472656-8.335938-4.472656s-6.480469 1.679688-8.335938 4.472656zm48.335938 108.527344c0 22.90625-18.691406 43-40 43s-40-20.09375-40-43c0-15.410156 21.964844-55.628906 40-84.503906 18.035156 28.875 40 69.09375 40 84.503906zm0 0"/><path d="m70 166c-3.285156 0-6.359375 1.613281-8.226562 4.316406-6.324219 9.152344-61.773438 90.445313-61.773438 125.683594 0 38.597656 31.402344 70 70 70s70-31.402344 70-70c0-35.238281-55.449219-116.53125-61.773438-125.683594-1.867187-2.703125-4.941406-4.316406-8.226562-4.316406zm0 180c-27.570312 0-50-22.429688-50-50 0-19.339844 27.964844-68.4375 50-102.070312 22.035156 33.628906 50 82.71875 50 102.070312 0 27.570312-22.429688 50-50 50zm0 0"/><path d="m200 233c0 5.523438-4.476562 10-10 10s-10-4.476562-10-10 4.476562-10 10-10 10 4.476562 10 10zm0 0"/><path d="m308.429688 4.617188c-1.839844-2.875-5.015626-4.617188-8.429688-4.617188s-6.589844 1.742188-8.429688 4.617188c-2.878906 4.511718-70.851562 111.308593-99.226562 186.601562-1.949219 5.167969.664062 10.9375 5.832031 12.882812 5.164063 1.949219 10.933594-.660156 12.882813-5.828124 21.851562-57.992188 69.605468-137.964844 88.96875-169.417969 34.1875 55.285156 99.972656 170.652343 99.972656 214.144531 0 55.140625-44.859375 100-100 100-44.644531 0-84.238281-29.980469-96.289062-72.910156-1.492188-5.316406-7.011719-8.417969-12.332032-6.925782-5.316406 1.492188-8.414062 7.015626-6.925781 12.332032 14.464844 51.519531 61.980469 87.503906 115.546875 87.503906 66.167969 0 120-53.832031 120-120 0-55.121094-83.046875-193.785156-111.570312-238.382812zm0 0"/></svg>