<svg id="Capa_1" enable-background="new 0 0 512.101 512.101" height="512" viewBox="0 0 512.101 512.101" width="512" xmlns="http://www.w3.org/2000/svg"><g><g><path d="m436.055 302.367h-360.01c-41.294 0-74.889-33.595-74.889-74.889s33.595-74.889 74.889-74.889h10.751c0-.091 0-.183 0-.274 0-41.294 33.595-74.889 74.888-74.889h19.477v-2.539c.001-41.292 33.595-74.887 74.889-74.887s74.889 33.595 74.889 74.889v2.539h19.477c41.293 0 74.888 33.595 74.888 74.889v.274h10.751c41.294 0 74.889 33.595 74.889 74.889 0 41.292-33.595 74.887-74.889 74.887zm-360.01-119.777c-24.752 0-44.889 20.137-44.889 44.889 0 24.751 20.137 44.889 44.889 44.889h360.01c24.752 0 44.889-20.137 44.889-44.889s-20.137-44.889-44.889-44.889h-27.724c-4.651 0-9.04-2.158-11.88-5.842s-3.81-8.477-2.626-12.975c.981-3.729 1.479-7.584 1.479-11.457 0-24.752-20.137-44.889-44.888-44.889h-34.477c-8.284 0-15-6.716-15-15v-17.538c0-24.752-20.137-44.889-44.889-44.889s-44.889 20.137-44.889 44.889v17.539c0 8.284-6.716 15-15 15h-34.477c-24.751 0-44.888 20.137-44.888 44.889 0 3.873.498 7.728 1.479 11.457 1.184 4.499.213 9.292-2.626 12.975-2.84 3.684-7.229 5.842-11.88 5.842h-27.724z"/></g><g><g><path d="m103.513 363.468h-88.463c-8.284 0-15-6.716-15-15s6.716-15 15-15h88.462c8.284 0 15 6.716 15 15 .001 8.284-6.715 15-14.999 15z"/></g><g><path d="m228.96 512c-6.283 0-11.981-4.055-14.115-9.946-2.129-5.877-.239-12.701 4.605-16.654 4.883-3.985 11.804-4.454 17.213-1.26 5.382 3.178 8.236 9.673 7.007 15.79-1.39 6.923-7.643 12.07-14.71 12.07z"/></g><g><path d="m136.87 512h-121.82c-8.284 0-15-6.716-15-15s6.716-15 15-15h121.82c8.284 0 15 6.716 15 15s-6.716 15-15 15z"/></g><g><path d="m15.215 433.468h-.165c-8.284 0-15-6.716-15-15s6.716-15 15-15h.165c8.284 0 15 6.716 15 15s-6.716 15-15 15z"/></g><g><path d="m457.734 442.101c-18.867 0-36.093-9.568-46.08-25.595-4.381-7.031-2.233-16.283 4.797-20.664 7.032-4.381 16.283-2.233 20.663 4.797 4.472 7.177 12.18 11.461 20.619 11.461 13.408 0 24.316-10.908 24.316-24.316s-10.908-24.316-24.316-24.316h-292.773c-8.284 0-15-6.716-15-15s6.716-15 15-15h292.775c29.95 0 54.316 24.366 54.316 54.316-.001 29.95-24.367 54.317-54.317 54.317z"/></g><g><path d="m347.734 512.101c-18.867 0-36.093-9.568-46.08-25.595-4.381-7.031-2.233-16.283 4.797-20.664 7.033-4.381 16.283-2.233 20.663 4.797 4.472 7.177 12.18 11.461 20.619 11.461 13.408 0 24.316-10.908 24.316-24.316s-10.908-24.316-24.316-24.316h-272.773c-8.284 0-15-6.716-15-15s6.716-15 15-15h272.775c29.95 0 54.316 24.366 54.316 54.316-.001 29.95-24.367 54.317-54.317 54.317z"/></g></g></g></svg>